<?xml version="1.0" encoding="utf-8"?>
<!-- Generator: Adobe Illustrator 18.1.1, SVG Export Plug-In . SVG Version: 6.00 Build 0)  -->
<svg version="1.1" xmlns="http://www.w3.org/2000/svg" xmlns:xlink="http://www.w3.org/1999/xlink" x="0px" y="0px"
	 viewBox="0 0 449 281" enable-background="new 0 0 449 281" xml:space="preserve">
<g id="Layer_18">
	<path fill="#83B1B1" d="M187.2,167.6c-0.9,0.8,93.1,0,93.1,0s-5.6-6.7-17.8-7.5c0,0-0.6-11.7-13.4-13.2c-12.9-1.4-46.6-5-44.9,15
		C204.2,162,192,163.5,187.2,167.6z"/>
	<path fill="#F4C09D" d="M182.5,113.6c0,0-11,3.5-4.3,15.7c4.2,7.2,11.3,4,11.3,4l5.1,11.6c0,0,20.7,7.1,28.4,6.5
		c7.6-0.6,29.6-1.9,46.9-14.3l1.1-17.7c0,0,11.8,0.1,13.1-9.5c1.4-9.5-6.4-12.9-6.4-12.9l-5.2-62l-99.6,13.2L182.5,113.6z"/>
	<path fill="#D6A380" d="M180.4,94c-0.3-3.8-0.3-7.7,0-11.5c0.1-1.2,0.3-2.4,0.7-3.5c0.5-1.2,1.4-2.3,2.3-3.3
		c2.2-2.5,4.5-4.8,6.8-7.1c0.5,1.6,1.1,3.2,2,4.6c3.6-4.6,8.8-7.8,14.5-8.9c0.7-0.1,1.4-0.3,1.7-0.9c0.2-0.4,0-0.9-0.1-1.4
		c-0.7-2.1-1.4-4.2-2.1-6.3c7.8-3.7,16.1-6.2,24.7-7.2c0.9,1.8,1.5,3.8,1.8,5.8c5.2-3.2,12.2-3.5,17.6-0.6c0.3,0.2,0.7,0.4,1.1,0.3
		c0.3-0.1,0.5-0.3,0.7-0.5c1.2-1.3,1.8-3.1,1.5-4.9c5.9,2.5,12.3,5.5,15.1,11.4c1.9,4.1,1.8,9,4,12.9c1.3-6.7-0.3-13.9-4.4-19.4
		c-1.3-1.8-2.9-3.4-4.7-4.6c-2.7-1.8-5.8-2.8-9-3.6c-13-3.2-26.8-2.6-39.5,1.6c-12.7,4.2-24.1,12-32.7,22.3c-1.6,2-3.2,4.1-4,6.5
		c-1.4,4.3,0,9,1.3,13.4"/>
	<path fill="#D1D1D1" d="M153.8,168.3c0,0-8.8-2.4-8.8,7.1s0,71.7,0,71.7s0.5,6,9,6s153,0,153,0s7,0.8,7-9.2s0-69.8,0-69.8
		s0.4-5.7-8.7-5.7S153.8,168.3,153.8,168.3z"/>
	<path fill="#DBDBDB" d="M145.3,247.6c22.4-18,47.8-32.1,74.9-41.5c13-4.5,26.4-7.9,39.8-11.3c18-4.6,35.9-9.1,53.9-13.7V174
		c0,0,2.3-6-10.7-6c-13,0-149.3,0-149.3,0s-9-1.3-9,10S145.3,247.6,145.3,247.6z"/>
	<path fill="#565C56" d="M182.3,111.7c0.1-1.4-13.8-10.8-18.8-40.9c-5-30.1-4.1-46.5-4.1-46.5S176,8.8,218.2,7.5S277.6,20,286.3,42
		c0,0-3,51.1-12.2,58.9c0,0-0.3-33.2-1.9-38.7c-1.6-5.5-3-11.9-13.9-16.1s-27.8-5-42,0.3s-33.3,16.2-38.7,30.4L182.3,111.7z"/>
	<path fill="#747A74" d="M160.3,33.4c-0.4,5-0.8,10.2,0.5,15s4.8,9.5,9.6,10.8c2.7,0.7,5.5,0.4,8.2-0.4c8.7-2.6,15.1-9.5,21.8-15.7
		c6.7-6.1,14.8-11.9,23.8-11.2c4.9,0.4,9.7,2.7,14.7,2.1c6.1-0.8,11.5-6,17.6-4.9c2.7,0.5,5,2.1,7.1,3.9c2.1,1.8,4.1,3.8,6.5,5
		s5.5,1.7,7.9,0.3c2.4-1.4,3.5-4.9,1.6-7c0,0-11.5-26.4-56.9-23.7s-63.3,16.7-63.3,16.7L160.3,33.4z"/>
	<path fill="#858C85" d="M198.8,44.7c0,0,10.2-11.6,19.7-12.6c9.5-1,15.9,1.9,15.9,1.9l17.8-4.7c0,0-6.5,3.6-9.7,5.1
		s-8.4-0.5-15.3-0.8c-6.8-0.4-13.9,0.8-21.2,6S198.8,44.7,198.8,44.7z"/>
	<path fill="#434943" d="M197,43.7c0,0-9.5,0.3-13.3,13.1c-3.8,12.8,4.5,16.4,4.5,16.4s2.9-12.1,15.9-12.6
		C204.1,60.6,199.3,45.1,197,43.7z"/>
	<path fill="#434943" d="M232.3,35l2.7,13.8c0,0,13-7.2,21.3,3c0,0,4.8-12.2-4.7-17.6C242.2,29,232.3,35,232.3,35z"/>
	<path fill="#FFD0B0" d="M198.3,145.9c-8.7-2.9-5.7-17.5-7-26.6c-0.6-4-0.9-8-0.4-11.9c1.3-8.8,7.3-16.3,14.6-21.3
		c7.4-4.9,16-7.6,24.6-9.6c5.5-1.3,11.3-2.3,16.6-0.4c1.8,0.6,3.4,1.6,5,2.7c9.2,6.5,14.4,17.5,15.5,28.7
		c1.1,11.2-1.5,22.4-5.7,32.9C261.6,140.3,235.9,158.4,198.3,145.9z"/>
	<path fill="#FFFFFF" d="M200,81.3c-1.1,0.6-10.1,8-5,20.8s16.3,12.8,20.5,9.5c4.2-3.3,8.4-8.7,3.2-19.3S207.3,77,200,81.3z"/>
	<path fill="#FFFFFF" d="M236,78.2c0,0-6.3,15.3-0.8,22c5.5,6.7,17.1,6.3,19.5,0c2.4-6.3,2.9-21.9-1.8-27
		C248.2,68.2,242.3,64.3,236,78.2z"/>
	<path fill="#EAEAEA" d="M193.9,98.5c0,0,3-9.4,18.1-16.2c0,0-18-11.2-18.6,17.1"/>
	<path fill="#EAEAEA" d="M237.6,75c0,0,9.9-1.8,18.5,7.4c0,0-1.2-11.8-7-12.6C243.2,69,240.4,69.2,237.6,75z"/>
	<path fill="#D6A380" d="M216.4,151l4.9,17.2l26-1.1l1.8-20.3C249.1,146.9,224.5,150.8,216.4,151z"/>
	<path fill="#C69777" d="M217.8,156.9c0,0,24.8,10.6,30.6-3.2c0.4-0.8,0.6-6.7,0.6-6.7s-24.7,5-32.6,3.4L217.8,156.9z"/>
	<path fill="#759B9A" d="M216,150c-1.6-0.3-3.2-0.5-4.7-0.6c-0.3,0-0.6,0-0.9,0.1c-0.4,0.1-0.7,0.4-1,0.6c-0.8,0.7-1.5,1.5-2.1,2.4
		c3.4,0.7,6.1,3.8,9.6,4.2c0.2,0,0.5,0,0.6-0.1c0.1-0.1,0.1-0.3,0.1-0.4c0.1-1.3,0.1-2.5,0.1-3.8c0-0.7-0.1-1.4-0.6-1.9
		C216.8,150.2,216.4,150.1,216,150z"/>
	<path fill="#759B9A" d="M252.5,146.8c-0.8-0.3-1.6-0.5-2.4-0.3c-0.2,0-0.4,0.1-0.5,0.2c-0.1,0.1-0.1,0.3-0.2,0.5
		c-0.2,1.7-0.3,3.5,0,5.2c1.6-2,4.3-3.3,6.8-2.8C255.3,148.3,254,147.4,252.5,146.8z"/>
	<path fill="#E5E5E5" d="M183.7,222.2c0,0,21.5-15.5,85.5-29.7C269.2,192.5,219,205.3,183.7,222.2z"/>
	<polygon fill="#759B9A" points="261.3,160 260.4,167 265,167 265.7,160 	"/>
	<polygon fill="#759B9A" points="203.9,162.1 206.2,167 200,167 200,163 	"/>
	<path fill="#FFFFFF" d="M67.6,163.5c0,0-19.4,12-17.2,16.9s19.4-5,27.5-12.7c8.1-7.7,12.2-11,10.3-13.4
		C86.3,152,73,158.7,67.6,163.5z"/>
	<path fill="#F66EAD" d="M48.9,180.4c0,0,11.1-12.2,18.2-16.4s20.4-10.5,20.4-10.5s-13.3-18.2-22.1-26.7s-21.9-20.9-32.2-10.4
		S35.3,164,48.9,180.4z"/>
	<path fill="#F66EAD" d="M16.9,256c0,0-7.6,0.6-7.8,6.9s8.2,14.6,22.6,13.6s30.4-9.2,29.3-14.6s-17-10.8-34.9-8.4
		c0,0-10.8-59.8-11.8-70.1s-1.5-35.9,18.5-32.9l-2.7-9.5c0,0-14-1.4-20.9,12.6s-3.9,31.7,0.2,55.2S16.9,256,16.9,256z"/>
	<polygon fill="#D1D1D1" points="32.6,116.5 27,113.9 30.1,110.5 34.3,114.4 	"/>
	<path fill="#FF85C2" d="M71.9,151.2c0.6,0.5,1.2,1,1.9,1.1c1.7,0.3,3.2-1.5,3.3-3.2s-0.9-3.3-1.8-4.8
		c-8.3-12.5-20.1-22.6-33.7-28.8c-0.4-0.2-0.7-0.3-1.1-0.4c-0.7-0.1-1.4,0.3-2,0.7c-1,0.6-2.1,1.3-2.8,2.2c-0.7,1-0.9,2.4-0.3,3.3
		c0.7,1,2.1,1.2,3.3,1.4c2.1,0.3,4.1,0.9,6,1.7c5.9,2.4,10.5,7.2,14.6,12.2S67,147,71.9,151.2z"/>
	<path fill="#FF85C2" d="M48.9,257.8c0.9,0.1,1.8,0.3,2.6,0.7c2.3,1.3,2.4,4.8,0.9,6.9c-1.5,2.1-4.1,3.2-6.6,3.9
		c-4,1.1-8.1,1.7-12.3,2.1c-0.9,0.1-1.8,0.2-2.6-0.1c-0.8-0.3-1.5-1.1-1.5-1.9c0.1-1.5,1.9-2,3.4-2.2c1.9-0.4,3.8-1.1,5.5-2
		c1.1-0.6,2.2-1.5,2.3-2.7c0.1-1.1-0.5-2-0.9-3c-0.1-0.4-0.2-0.8,0-1.1c0.2-0.3,0.6-0.4,0.9-0.4C43.3,257.5,46.1,257.5,48.9,257.8z"
		/>
	<path fill="#EDEDED" d="M228.1,199.9c-0.2,0-10.3,1.4-10.3,10.3s13.5,14.1,18.7,4.9C241.7,206,235.1,199,228.1,199.9z"/>
</g>
<g id="Layer_17">
	<g>
		<g>
			<path fill="#777777" d="M32.5,115.9c-1.6-1.4-3.5-2.3-5.6-2.9c0.1,0.5,0.2,0.9,0.4,1.4c0.5-0.6,1.1-1.1,1.6-1.7
				c0.3-0.3,0.5-0.6,0.8-0.9c0.5-0.4,0.3-0.5,0.9-0.1c0.6,0.3,1.1,1.2,1.5,1.7c0.6,0.6,1.1,1.3,1.7,1.9c0.7,0.7,1.7-0.3,1.1-1.1
				c-0.9-1-1.7-2-2.6-3c-0.5-0.6-1-1.4-1.8-1.5c-0.7-0.1-1.1,0.2-1.5,0.6c-1,0.9-1.9,2-2.8,3c-0.4,0.4-0.3,1.2,0.4,1.4
				c1.9,0.5,3.5,1.3,5.1,2.4C32.3,117.6,33.2,116.5,32.5,115.9L32.5,115.9z"/>
		</g>
	</g>
	<g>
		<g>
			<path fill="#AD846F" d="M182.2,112.7c-6.7,1.7-9,9-6.3,15.1c2,4.3,9.7,10.2,14.2,6.1c1.1-1-0.6-2.7-1.6-1.6
				c-3,3.2-9.2-2.6-10.4-5c-2.4-4.7-0.8-10.9,4.6-12.7C183.9,114.1,183.4,112.4,182.2,112.7L182.2,112.7z"/>
		</g>
	</g>
	<g>
		<g>
			<path fill="#AD846F" d="M277.7,99c5,2.4,6.6,7.7,4.5,12.8c-2,4.9-6.5,6-11.3,6.5c-1.4,0.1-1.4,2.2,0,2.2c6.2,0.1,12.1-2.8,14-9.1
				c1.6-5.6-0.3-12.5-6.4-14.1C277.4,97.1,276.7,98.5,277.7,99L277.7,99z"/>
		</g>
	</g>
	<g>
		<g>
			<path fill="#AD846F" d="M181.9,112c-0.2,3.3,2,7,4,9.5c0.8,1,2.2-0.3,1.7-1.3c-1.4-2.8-3.4-5.3-4-8.5
				C183.4,110.8,181.9,111.1,181.9,112L181.9,112z"/>
		</g>
	</g>
	<g>
		<g>
			<path fill="#AD846F" d="M273,102.2c-0.2,2.2-0.6,4.2-1,6.4c-0.2,1.4,1.8,2,2.2,0.6c0.6-2.2,0.8-4.6,0.8-7
				C275.1,100.8,273.1,100.9,273,102.2L273,102.2z"/>
		</g>
	</g>
	<g>
		<g>
			<path fill="#587572" d="M250.9,147.3c3.4,1.5,6.8,3.6,8.4,7c2,4,0.8,9-0.3,13.1c-0.4,1.5,1.8,2.1,2.3,0.6
				c1.5-4.5,2.5-10.4,0.3-14.8c-2-3.9-5.9-6.3-10-7.4C250.7,145.6,250.1,146.9,250.9,147.3L250.9,147.3z"/>
		</g>
	</g>
	<g>
		<g>
			<path fill="#587572" d="M262.3,160.9c6.9,1.2,12.3,3.5,17.9,7.7c1.1,0.8,2.2-0.9,1.4-1.8c-4.7-5.1-12.3-7.3-19-7.5
				C261.6,159.2,261.4,160.7,262.3,160.9L262.3,160.9z"/>
		</g>
	</g>
	<g>
		<g>
			<path fill="#587572" d="M209.5,149.3c-3,1.7-5.6,4.6-6.5,8c-1,3.8,0.7,7.6,2.5,10.9c0.7,1.2,2.5,0.1,1.9-1.1
				c-1.6-3.1-3.2-6.4-1.9-10c1-2.6,3-4.6,5-6.4C211.3,149.9,210.3,148.8,209.5,149.3L209.5,149.3z"/>
		</g>
	</g>
	<g>
		<g>
			<path fill="#587572" d="M187.8,168.2c1.8-1.6,5.7-2.3,7.9-3.1c2.4-0.8,5.3-2.2,7.8-1.9c1.5,0.1,1.4-2.1,0-2.3
				c-3.1-0.4-6.6,1.6-9.4,2.7c-2.5,1-5.5,1.5-7.5,3.3C185.7,167.7,186.9,169,187.8,168.2L187.8,168.2z"/>
		</g>
	</g>
	<g>
		<g>
			<path fill="#373A37" d="M158.4,24.3c-0.7,17.1,1.1,34.4,4.8,51c3,13.6,7.6,27.5,18.2,37.1c1.1,1,2.7-0.6,1.6-1.6
				c-10.7-9.9-15.1-24.1-18-38c-3.4-16-4.6-32.2-4.7-48.6C160.4,23,158.5,23,158.4,24.3L158.4,24.3z"/>
		</g>
	</g>
	<g>
		<g>
			<path fill="#373A37" d="M159.8,25c21.1-13.6,45.9-16.9,70.6-16.7c12.1,0.1,23.4,2,33.7,8.6c9.7,6.2,16.2,15,21,25.3
				c0.6,1.2,2.6,0.4,2.2-0.9C279.4,19.4,257.3,7.1,235,6.4c-25.9-0.8-54.4,1.6-76,17.3C158.2,24.2,159,25.5,159.8,25L159.8,25z"/>
		</g>
	</g>
	<g>
		<g>
			<path fill="#373A37" d="M285.4,42c-0.9,10.6-2,21.2-3.6,31.7c-1.5,9.5-2.9,18.9-7.8,27.4c-0.7,1.3,1.1,2.3,1.9,1.1
				c5.6-7.9,6.7-18.5,8.2-27.9c1.6-10.7,2.8-21.5,3.2-32.3C287.3,40.8,285.5,40.9,285.4,42L285.4,42z"/>
		</g>
	</g>
	<g>
		<g>
			<path fill="#373A37" d="M197,42.2c-13.5,0.3-21,23.1-10.5,31.5c1.1,0.9,2.6-0.5,1.6-1.6c-8.6-8.4-2.3-25.8,9.2-28.1
				C198.3,43.9,198.1,42.2,197,42.2L197,42.2z"/>
		</g>
	</g>
	<g>
		<g>
			<path fill="#373A37" d="M196.8,43.3c2.4,5.8,4.5,11.6,6.3,17.5c0.4-0.5,0.7-0.9,1.1-1.4c-8.2,0.1-15.2,5.3-17.1,13.4
				c-0.4,1.5,1.9,2.1,2.3,0.6c1.7-6.9,7.6-11.9,14.8-11.9c0.7,0,1.2-0.7,1.1-1.4c-1.7-6.1-3.9-12-6.6-17.7
				C198.2,41.5,196.3,42.2,196.8,43.3L196.8,43.3z"/>
		</g>
	</g>
	<g>
		<g>
			<path fill="#373A37" d="M232.2,35.8c5.3-1.7,11.2-2.9,16.7-1.1c8.3,2.6,8.5,9.7,6.3,16.9c-0.4,1.4,1.7,1.9,2.1,0.6
				c2.3-6.2,2.5-14.3-3.9-18.1c-6.4-3.8-15.5-2.8-21.9,0.3C230.8,34.8,231.4,36.1,232.2,35.8L232.2,35.8z"/>
		</g>
	</g>
	<g>
		<g>
			<path fill="#373A37" d="M231.1,35.5c0.4,4.7,1.5,9.2,2.9,13.6c0.2,0.7,1,1,1.6,0.7c6.4-3.3,15.2-2.9,19.9,3
				c1,1.2,2.7-0.5,1.7-1.7c-5.4-6.8-15.4-7.1-22.7-3.1c0.5,0.2,1.1,0.4,1.6,0.7c-1.4-4.4-2.3-8.8-3.2-13.3
				C232.7,34.3,231,34.5,231.1,35.5L231.1,35.5z"/>
		</g>
	</g>
	<g>
		<g>
			<path fill="#373A37" d="M183.8,67.8c-1.7-0.2-3.1,1.9-4,3.1c-1.3,1.7-2.5,3.7-3.1,5.7c-0.3,1.1,1.3,1.8,1.9,0.8
				c0.8-1.4,1.4-2.8,2.3-4.1c0.7-1.1,1.9-3.4,3.2-3.7C185.1,69.3,184.8,67.9,183.8,67.8L183.8,67.8z"/>
		</g>
	</g>
	<g>
		<g>
			<path fill="#373A37" d="M176.8,76.8c0.4,12.1,2.7,24,5.1,35.8c0.2,1.2,2,0.7,1.8-0.5c-2.4-11.7-3.5-23.6-5.2-35.5
				C178.4,75.6,176.8,75.8,176.8,76.8L176.8,76.8z"/>
		</g>
	</g>
	<g>
		<g>
			<path fill="#373A37" d="M202,53.8c9.5-5.1,19.6-8.3,30.3-9.5c1.3-0.1,1.3-2.1,0-2c-11.1,1-21.6,4.5-31.1,10.2
				C200.4,52.9,201.1,54.2,202,53.8L202,53.8z"/>
		</g>
	</g>
	<g>
		<g>
			<path fill="#373A37" d="M258,46.9c6.1,2.8,11,7.7,13.3,14.1c0.5,1.3,2.5,0.7,2.1-0.6c-2.5-6.9-7.7-12.4-14.7-15
				C257.8,45.1,257.2,46.5,258,46.9L258,46.9z"/>
		</g>
	</g>
	<g>
		<g>
			<path fill="#373A37" d="M271.4,60.7c0.9,13.8,1.8,27.5,1.5,41.3c0,1.5,2.2,1.5,2.3,0c0.3-13.8,0-27.9-1.9-41.6
				C273.1,59.4,271.4,59.6,271.4,60.7L271.4,60.7z"/>
		</g>
	</g>
	<g>
		<g>
			<path fill="#E0AA86" d="M236.9,101.3c-5.4-5.3-3.1-13.9-1.1-20.2c0.9-2.8,1.8-5.6,3.5-8c3.7-4.8,10-4.2,13,1
				c3.1,5.3,3.6,13,3,18.9c-0.5,5.3-2.4,10.8-8.5,11.4c-3.5,0.3-7-0.5-9.5-3.1c-0.8-0.8-1.9,0.4-1.2,1.2c5.2,5.5,16.2,5.2,19.4-2.3
				c3.3-7.7,2.7-21.7-2.6-28.4c-5.8-7.3-14-3.1-17.1,4.2c-3.1,7.3-7.2,20.1,0,26.3C236.6,102.9,237.5,101.9,236.9,101.3L236.9,101.3
				z"/>
		</g>
	</g>
	<g>
		<g>
			<path fill="#E0AA86" d="M220.4,104.1c-3.5,6.6-11.2,10.3-18.2,6.4c-6.5-3.6-8.9-12-7.7-19c0.7-4.4,2.8-7.7,6.7-9.9
				c4.7-2.7,8.9-0.7,12.1,3.2c4.4,5.4,7.2,12.8,7.3,19.7c0,0.9,1.3,0.9,1.4,0c0.6-8.6-4.6-21.2-12.6-25.3c-7.5-3.9-15.5,5.1-16.5,12
				c-1.2,8.1,1.8,17.8,9.8,21.4c7.5,3.3,15.9-0.5,18.8-8C221.6,104,220.7,103.6,220.4,104.1L220.4,104.1z"/>
		</g>
	</g>
	<g>
		<path fill="#AD846F" d="M212.8,108.4c0.7,0.2,1.4,0.2,2-0.1c1-0.4,1.7-1.5,1.6-2.6c-0.1-1.1-1-2.1-2-2.2c-0.8-0.1-1.6,0.3-2.2,0.9
			c-0.4,0.3-0.8,0.8-0.9,1.3c-0.2,1.1,0.9,2.1,1.8,2.7"/>
		<g>
			<path fill="#AD846F" d="M212.6,109.2c1.9,0.5,3.8-0.3,4.6-2.1c0.7-1.7-0.1-3.8-1.9-4.5c-1.9-0.7-4.3,0.5-5.1,2.3
				c-0.9,2,0.8,4,2.6,4.6c1.2,0.5,1.9-1.2,1.2-2c-0.3-0.4-1.5-1-1.4-1.6c0.1-0.7,1.3-1.4,1.9-1.3c0.8,0.1,1.2,0.9,1,1.6
				c-0.3,1.1-1.4,1.5-2.4,1.3C212,107.4,211.5,108.9,212.6,109.2L212.6,109.2z"/>
		</g>
	</g>
	<g>
		<path fill="#AD846F" d="M241.7,100.9c1.1,0,2.3-0.5,2.9-1.5c0.6-1,0.4-2.5-0.6-3c-0.4-0.2-0.8-0.2-1.2-0.2c-1.3,0-2.6,0.9-2.8,2.2
			s0.8,2.7,2,2.6"/>
		<g>
			<path fill="#AD846F" d="M241.7,101.7c1.8-0.1,3.8-1,4.2-3c0.4-2-1-3.8-3-3.8c-2,0-4,1.5-4.1,3.6c-0.1,2,1.6,3.8,3.6,3.5
				c1.2-0.2,1.1-2.1,0-2.3c-1.8-0.3-1.1-2.3,0.5-2.4c0.8-0.1,1.4,0.5,1.2,1.3c-0.2,1-1.4,1.4-2.3,1.4
				C240.6,100.1,240.6,101.8,241.7,101.7L241.7,101.7z"/>
		</g>
	</g>
	<g>
		<g>
			<path fill="#AD846F" d="M234.8,118.9c3-2.7,6.9-2.8,10.7-2.7c1,0,1-1.4,0-1.5c-4.2-0.2-8.4,0.3-11.5,3.3
				C233.4,118.5,234.3,119.4,234.8,118.9L234.8,118.9z"/>
		</g>
	</g>
	<g>
		<g>
			<path fill="#AD846F" d="M188.5,133.5c0.9,2.6,1.9,5.2,2.9,7.8c0.7,1.8,1.3,3.6,2.8,4.8c1.1,0.9,2.6-0.5,1.6-1.6
				c-1.6-1.6-2.2-3.9-3.1-6c-0.8-1.9-1.6-3.9-2.5-5.7C189.8,131.9,188.2,132.6,188.5,133.5L188.5,133.5z"/>
		</g>
	</g>
	<g>
		<g>
			<path fill="#AD846F" d="M194.8,146.3c12.5,4.5,25.7,7.1,39,5.2c13-1.9,25-7.2,36.5-13.5c1.2-0.6,0.1-2.4-1-1.8
				c-11.1,6.1-23.1,11.2-35.7,13c-13.4,2-25.3-1.6-38.2-4.6C194.2,144.4,193.8,145.9,194.8,146.3L194.8,146.3z"/>
		</g>
	</g>
	<g>
		<g>
			<path fill="#AD846F" d="M270,120c-0.4,5.5-0.5,11-1.3,16.5c-0.2,1.5,2,2.1,2.2,0.6c0.9-5.6,1.5-11.5,0.7-17.1
				C271.5,119,270.1,118.9,270,120L270,120z"/>
		</g>
	</g>
	<g>
		<g>
			<path fill="#AD846F" d="M215.6,151.6c0.8,5.6,2.7,11,5.2,16c0.7,1.4,2.6,0.2,2-1.2c-2.3-5-4-10-5.3-15.4
				C217.1,149.8,215.4,150.4,215.6,151.6L215.6,151.6z"/>
		</g>
	</g>
	<g>
		<g>
			<path fill="#AD846F" d="M248.1,147.2c-0.6,6.6-0.3,13.3-1.9,19.8c-0.3,1.3,1.6,1.8,2,0.6c2-6.3,1.7-13.7,1.7-20.3
				C250,146,248.3,146,248.1,147.2L248.1,147.2z"/>
		</g>
	</g>
	<g>
		<g>
			<path fill="#373A37" d="M165.9,20.3c-1,7.1-1,14.4-0.3,21.5c0.1,1.5,2.6,1.6,2.4,0c-0.7-7.1-0.6-14.1-0.3-21.3
				C167.8,19.5,166.1,19.2,165.9,20.3L165.9,20.3z"/>
		</g>
	</g>
	<g>
		<g>
			<path fill="#373A37" d="M172.4,17.3c-0.3,3.2-0.2,6.4,0,9.6c0.1,1.3,2.1,1.4,2.1,0c-0.1-3.2-0.1-6.4-0.2-9.6
				C174.4,16,172.6,16,172.4,17.3L172.4,17.3z"/>
		</g>
	</g>
	<g>
		<g>
			<path fill="#373A37" d="M180.2,14.3c0,7,0.5,14.1,1.5,21.1c0.2,1.3,2.4,1,2.3-0.3c-0.7-6.9-1.4-13.8-1.8-20.8
				C182.2,13,180.2,12.9,180.2,14.3L180.2,14.3z"/>
		</g>
	</g>
	<g>
		<g>
			<path fill="#777777" d="M144.2,175.3c-0.2,24.1-0.6,48.3,0,72.3c0,1,1.6,1.1,1.6,0c0.6-24.1,0.2-48.3,0-72.3
				C145.8,174.3,144.2,174.3,144.2,175.3L144.2,175.3z"/>
		</g>
	</g>
	<g>
		<g>
			<path fill="#777777" d="M154,168.7c50.7,0.8,101.5,0.8,152.2,0.2c1.1,0,1.1-1.7,0-1.7c-50.7-0.7-101.5-0.7-152.2,0.2
				C153.1,167.3,153.1,168.7,154,168.7L154,168.7z"/>
		</g>
	</g>
	<g>
		<g>
			<path fill="#777777" d="M145.5,175.5c0.5-2.1-0.1-4,2.1-5.3c1.9-1.1,4.3-1.5,6.4-1.4c1,0,0.9-1.4,0-1.5
				c-4.7-0.6-11.7,2.4-9.5,8.2C144.7,175.9,145.4,176,145.5,175.5L145.5,175.5z"/>
		</g>
	</g>
	<g>
		<g>
			<path fill="#777777" d="M315.1,245.3c0.2-24.1,0.6-48.3,0-72.3c0-1-1.6-1.1-1.6,0c-0.6,24.1-0.2,48.3,0,72.3
				C313.5,246.3,315.1,246.3,315.1,245.3L315.1,245.3z"/>
		</g>
	</g>
	<g>
		<g>
			<path fill="#777777" d="M305.3,251.9c-51.4-0.8-102.9-0.8-154.3-0.2c-1.1,0-1.1,1.7,0,1.7c51.4,0.7,102.9,0.7,154.3-0.2
				C306.2,253.3,306.2,251.9,305.3,251.9L305.3,251.9z"/>
		</g>
	</g>
	<g>
		<g>
			<path fill="#777777" d="M313.8,245.1c-0.5,2.1,0.1,4-2.1,5.3c-1.9,1.1-4.3,1.5-6.4,1.4c-1,0-0.9,1.4,0,1.5
				c4.7,0.6,11.7-2.4,9.5-8.2C314.6,244.7,313.9,244.6,313.8,245.1L313.8,245.1z"/>
		</g>
	</g>
	<g>
		<g>
			<path fill="#777777" d="M314.9,176c1.1-2,0.4-5.1-1.3-6.6c-2.2-1.8-5.9-2.6-8.6-2.2c-1.2,0.2-0.9,2.1,0.3,2.1
				c2.1,0,4.4,0.3,6.3,1.3c2.2,1.3,1.2,3.2,2,5.1C313.8,176.4,314.6,176.7,314.9,176L314.9,176z"/>
		</g>
	</g>
	<g>
		<g>
			<path fill="#777777" d="M144.8,245.1c-2.2,5.8,4.8,8.8,9.5,8.2c0.9-0.1,1-1.5,0-1.5c-2.1,0.1-4.5-0.3-6.4-1.4
				c-2.2-1.3-1.5-3.3-2.1-5.3C145.7,244.6,145,244.7,144.8,245.1L144.8,245.1z"/>
		</g>
	</g>
	<g>
		<g>
			<path fill="#FFFFFF" d="M221.3,201.4c-5.3,2.4-5.7,10.5-3,14.8c3.2,5.1,10.5,6.5,15.5,3.4c5.2-3.3,8.2-11.5,4.4-16.8
				c-4.3-6-12.5-4.4-18-1.2c-1.3,0.8-0.1,2.7,1.2,2c4.1-2.1,9.5-3.9,13.5-0.6c4.7,3.8,2.4,11.7-2.2,14.7c-3.6,2.4-8.8,1.8-11.8-1.4
				c-3.1-3.4-3.3-11,1.4-13.1C223.4,202.5,222.4,200.9,221.3,201.4L221.3,201.4z"/>
		</g>
	</g>
	<g>
		<g>
			<path fill="#CC508E" d="M50.8,180.9c-7.1-8.2-12.3-19.6-16.2-29.6c-3.8-9.8-8.6-25.8-0.1-34.5c9.9-10.2,23.8,4,30.4,11.2
				c7.9,8.7,15,18,22.4,27.1c1,1.2,2.7-0.5,1.7-1.7c-9.4-11.5-18.3-24.2-29.5-34.1c-7.2-6.4-18.5-12.7-26.8-4.3
				c-8.4,8.6-5.2,23.4-1.7,33.5c2.1,6,4.9,11.8,7.9,17.5c3,5.7,5.7,11.9,10.5,16.2C50.4,183.1,51.6,181.9,50.8,180.9L50.8,180.9z"/>
		</g>
	</g>
	<path fill="none" stroke="#CC508E" stroke-width="2" stroke-miterlimit="10" d="M17.8,258.6c0-0.1-1.9-13.1-11-64.3
		c-4-22.3-1.8-38,6.6-46.7c7.6-7.9,16.3-6.7,16.7-6.7"/>
	<path fill="none" stroke="#CC508E" stroke-width="2" stroke-miterlimit="10" d="M32.8,150c-0.2,0-8.7-0.6-13,4
		c-4.2,4.5-8.4,14.8-4.1,38.7c9.2,51.5,11,64.2,11,64.7"/>
	<g>
		<g>
			<path fill="#CC508E" d="M16.7,254.9c-4.2,1.3-9.1,3.3-9.5,8.4c-0.3,4.2,3,8,6.3,10.1c10.3,6.8,26.6,3.6,37.3-0.6
				c3.9-1.6,9.7-4.2,11.2-8.5c1.5-4.2-1.7-7.5-5.3-9.1c-8.7-4-20.5-3.1-29.8-2.9c-1.8,0-1.8,2.8,0,2.8c5.8-0.1,11.7,0,17.5,0.4
				c2.7,0.2,5.5,0.5,8.2,1.1c3.4,0.9,9.6,2.9,5.4,9c-1,1.5-3.6,2.7-5.2,3.5c-7.3,3.8-16.5,5.4-24.7,5.5c-4.7,0.1-9.6-0.6-13.5-3.3
				c-1.9-1.3-4.2-3.4-4.8-5.7c-1.5-5.4,3.4-7.3,7.4-8.6C18.6,256.6,18,254.5,16.7,254.9L16.7,254.9z"/>
		</g>
	</g>
	<g>
		<g>
			<path fill="#FFC0E3" d="M85.8,152.8c-10.5,3.7-20.2,9.8-28.4,17.3c-2.2,2-4.4,4.2-6.4,6.4c-0.9,1-2.6,2.4-2.6,3.9
				c0,2.4,2.8,2.7,4.7,2.5c5.3-0.4,11.1-4,15.4-6.8c4.6-3,8.9-6.6,13-10.3c2.4-2.2,8.7-6.2,8.9-9.8c0.1-2-1.9-3.9-3.8-3.3
				c-1.4,0.4-0.8,2.6,0.6,2.2c0.4,1.6,0,2.8-1.3,3.6c-0.4,0.4-0.8,0.8-1.2,1.1c-1.4,1.3-2.8,2.7-4.2,4c-2.6,2.4-5.2,4.7-7.9,6.9
				c-2.9,2.3-6,4.4-9.3,6.2c-1.1,0.6-11.3,6.3-11.3,1.9c0-1.8,5.6-5.8,7-7c2.8-2.5,5.7-4.8,8.8-6.9c5.9-4.1,12.2-7.2,18.8-10.1
				C87.6,154.1,86.9,152.4,85.8,152.8L85.8,152.8z"/>
		</g>
	</g>
</g>
</svg>
