<svg xmlns="http://www.w3.org/2000/svg" viewBox="0 0 215 201" enable-background="new 0 0 215 201"><g><path fill="#827E7A" d="M75 178h3v23h-3zM134.4 155.7s12.2-.9 12.4 2.8c.2 3.7-1.3 12.3-1.3 12.3s-1.4 17-1 24.8c.4 7.8 1 16.1-1.7 16.4-2.7.3-9.2.1-9.2.1l.8-56.4z"/><path fill="#82786F" d="M152.2 53.4s.3 4.1 3.4 3.8c3.1-.3 14.9 6.4 15.2 6.7s3.7 4.7 5.6 1.5c2.1-3.2-7.1-19-24.2-12zM36.4 66.8s2.1 3.1 10.4-2.8 10.3-6.5 9.5-9.3-19.9 12.1-19.9 12.1z"/><path fill="#83B1B1" d="M156.7 54.7l-18.3 36.5-79-24.5-10.7-21s-3.3 10.6-10.4 19.2c0 0 5.3 7.1 8.5 17.6 3.3 10.5 7.4 21.9 9.8 26.9 2.5 5 6.6 15.4 8.5 28.3 1.9 13 11.9 35.7 11.9 44 0 8.2 2.4 23.2-12.1 32.4 0 0 3.1 3.1 12.1 4.6 9 1.5 13.3 3.9 19.5-3 0 0-.8 4.3 3.4 9.7 0 0 2.7-4.1 14.1-4.2 11.4-.1 20.9-1.5 20.9-1.5s-2.4-10.5-1-25 2-26.3.7-36.3c-1.4-10 4.4-29.4 12.4-47.1s20.6-41.4 20.6-41.4.5-4.7 6.2-7.8c0 .2-10.8-29.1-17.1-7.4z"/><path fill="#759B9A" d="M40 67.3s5.6-8.5 15.8-7.6l-4.6-12.8s-20 5.3-16 11.8 4.8 8.6 4.8 8.6z"/><path fill="#9BC9C7" d="M151.6 83.6c-4.1 6.4-7.9 13.1-11.2 19.9-2.4 4.9-4.7 10.2-9 13.6-.4-4-.7-8.3 1.2-11.8 1.2-2.2 3.1-3.9 4.4-6 .9-1.5 1.5-3.3 2.5-4.8s2.8-2.6 4.5-2.2"/><path fill="#9BC9C7" d="M119.5 203.4c-.3-2.9-.9-5.9-2-8.6-.2-.6-.4-1.2-.7-1.7-4.3-9.1-14.4-14.7-18.2-24 .2 4 1.4 8 3.7 11.3 1.5 2.2 3.3 4.1 4.1 6.6.7 2.1.5 4.5 1.3 6.6.2.4.4.9.6 1.3-.1 2.2-.8 4.3-1.7 6.2-2.2 4.9-5.2 9.4-9 13.2-.5.5-1 1-1.2 1.7-.2.7-.1 1.4 0 2.1.3 1.4.5 2.9 1.3 4.1.8 1.2 2.1 2.2 3.6 2.1 1.3-.1 2.3-1 3.4-1.7 5.5-3.5 12.8-1.5 19.2-2.7-3.4-4.6-3.7-10.8-4.4-16.5z"/><path fill="#759B9A" d="M155.7 56.9s10.5-2.7 15.2 7l3-2.4-13.3-14-4.9 9.4z"/><path fill="#F4C09D" d="M64.2 118.3l-2.9-10.9s-6.7-.2-5.9-7.5c.7-7.3 6.4-4.9 6.4-4.9s.9-7.5-.4-12.9-5.5-37.6 35.5-36.6 33.9 21.7 34.2 33-.3 14 .4 14.5 9-1.2 9.2 4.8-9.2 6.5-9.2 6.5l-.2 13.8s-19.8 8.6-34.8 8.4c-23-.1-32.3-8.2-32.3-8.2z"/><path fill="#FFD0B0" d="M126 84.4c-.2-2-.5-4-1.6-5.7-2-3.1-6.1-4-9.8-4.5-12.4-1.8-25.3-2.7-37.4.5-2.9.8-5.8 1.8-7.9 4-3.9 4-3.6 10.5-3.1 16.1l2.5 25.1c0 .3.1.6.2.9.2.4.7.6 1.1.7 16.7 5.9 35.6 6.6 52.2.3.8-.3 1.7-.7 2.3-1.4.5-.7.7-1.6.8-2.4 1.7-11.1 1.9-22.4.7-33.6zm-36.7-1.6c-.8 1.1-1 2.8-1.5 4.1-.6 1.4-1.5 2.7-2.7 3.6-2.2 1.5-5 1.9-7.2.3h-.1s-.1 0-.1-.1c-.1-.1-.2-.2-.2-.3-.5-.3-1-.7-1.4-1.2-1.4-1.9-1.3-4.3-1.2-6.5-.2-.1-.3-.4-.2-.7 1.8-2.8 5.1-4.8 8.5-4.3 2.6.4 5.4 1.9 6.1 4.7v.1c.1 0 .1.1 0 .3zm29.7 4.6c-.1.2-.2.3-.3.3-1.3 2.5-4.1 4.7-6.6 5-4.5.6-7.3-3.5-8.4-7.4l-.1-.1c-.7-1.1-1.1-2.6-.7-3.9.4-1.2 1.5-1.6 2.6-1.6 1.4-.8 3.3-1 5.1-.7 2.6-.1 5.6.5 7.3 2.4 1 .4 1.9.9 2 2.1.2 1.3-.5 2.7-.9 3.9z"/><path fill="#D6A380" d="M62.4 68.7c.4 4 6.4-4.9 10.3-5.5.1.8.1 1.7.2 2.5 3.8-1.2 7.6-2.6 11.4-4 .6-.2 1.3-.5 1.7-1.1.3-.5.4-1.1.4-1.7.2-1.9.4-3.7.5-5.6 7.4 1.1 15.4-2.2 22.4.7 1.8.8 3.6 2.2 3.7 4.2 0 .8-.2 1.6.2 2.2.5.9 1.6 1 2.6 1.1 2.3.3 4.5 1.2 6.3 2.6 1.3 1 2.6 2.2 4.2 2.5 1.7.2 3.4-.9 3.9-2.4.5-1.6-.2-3.5-1.6-4.3 0 0-11.3-12.3-31.9-10.3-20.5 1.9-35.1 11.5-34.3 19.1z"/><path fill="#565C56" d="M60.1 76.8s-4.1-34.2 7.6-53c0 0 14.5-15.2 45.6-3.6s30.2 30.3 30.2 30.3 3.3 28.7-6 43.2l-6-.5-.9-31.5s-8.1-13.3-33.7-12.2c-27.3 1.2-34.1 15.2-34.1 15.2s-.8 16-2.7 12.1z"/><path fill="#434943" d="M112 45.8l-1.1 12s7.3-3.2 15 4.3c0 0 2.1-1.5 1.1-6.3-.9-4.7-5.3-12.8-15-10zM84.5 46.9L83 59.1l-13.2 5.5s-1.4-18.5 14.7-17.7z"/><path fill="#fff" d="M80 100.2s22.1 4.9 38.1.7c0 0 6 12.7-13.4 16.9-13.6 1.6-17.9-.8-17.9-.8s-6.7-9.9-6.8-16.8z"/><path fill="#747A74" d="M64.6 33.5c-.6 3.7-1 7.5-1.2 11.2-.1 1-.1 2.1.6 2.8.7.8 2 1 3 .6 1-.3 1.9-1.1 2.7-1.7 4.1-3.3 8.8-5.9 13.7-7.8 2.2-.8 4.8-1.5 7-.6 1 .4 1.8 1.1 2.8 1.7 3.8 2.1 8.5.6 12.7-.5 3.8-1 7.8-1.7 11.7-1.4 3.9.3 7.9 1.7 10.7 4.5 1.3 1.2 2.3 2.7 3.8 3.7s3.6 1.4 4.9.3c1.6-1.3 1.4-3.8.7-5.7-1.8-5.6-5.7-10.4-10.7-13.4 0 0-18.3-15-40.1-11.2s-19.1 7.8-19.1 7.8-2.8 6.7-3.2 9.7z"/><path fill="#B5A38C" d="M28 56.7s4.2-13.3 25.6-13.6l2.2 12.2-4.7.9-2.6-7.4s-.7 6.3-.9 9c0 0-7.5 2.3-11.2 8.5 0 0-7.1-6.5-8.4-9.6zM152.8 46.1l.3 8 5.3-.6 1.8-5.5.3 5.5s10.6-1.6 14.9 11.7l8-8.2s.1-11.1-13.4-14.4c-11.6-2-17.2 3.5-17.2 3.5z"/><path fill="#D6A380" d="M90.3 126.2l-1 5s-4.7 1-4.8 3.7c-.1 2.7 7.4 4.5 7.4 4.5s7.1.2 7.2 7.3c0 0 3.7-6.3 9.3-7.3s8.5-2.4 8-4.9c-.4-2.5-2.5-5-4.8-4.1l-1.2-4.4-20.1.2z"/><path fill="#759B9A" d="M99.3 145.9c-.7-1.6-1.5-3.2-2.7-4.4s-2.8-2.2-4.6-2.1c-2.8.2-4.8 2.9-5.6 5.5-.5 1.4-.7 3-.5 4.5s1.1 2.9 2.5 3.6c-.3-2.2-.3-4.5.6-6.5.9-2 2.8-3.7 5-3.9s4.6 1.3 4.9 3.5c1.3-1.9 3.3-3.5 5.5-3.9s4.8.4 6.2 2.2c1.4 1.9 1.3 4.6.7 6.9 1.4.4 3.1-.4 3.8-1.7.8-1.3.8-2.9.4-4.4s-1.2-2.7-2.1-4c-.3-.5-.7-1-1.1-1.3-1.1-.9-2.7-.8-4.1-.4-3.6.8-6.9 3.2-8.9 6.4z"/><path fill="#9BC9C7" d="M120.2 131.1c-.2-.5-.4-1-.4-1.6 0-.5.3-1.2.8-1.3.5-.1 1 .2 1.4.6 3.6 3.3 4.5 9 2.8 13.6-1.7 4.6-5.5 8.2-9.9 10.4 1.2-2.9 1.4-6.2.4-9.2-.2-.6-.4-1.2 0-1.7.2-.3.5-.4.8-.6 3.6-1.8 5.5-6.4 4.1-10.2zM84.3 142.4c.2.1.5.2.7.4.3.3.3.8.3 1.2.1 3.8.1 7.7.2 11.5-3.4-4.6-5.4-10.4-5.4-16.1 0-.7.2-1.6.9-1.7.6-.1 1.1.6 1.3 1.1.5 1.3.7 2.9 2 3.6z"/><path fill="#FFD0B0" d="M74.8 78.2s1.6-10.9 9.3-10.4c7.7.5 5.5 12.6 5.5 12.6s-6.8-6.5-14.8-2.2zM104.4 73.1s9.3-14.1 15.8 2.5c-.1 0-13.7 1.1-15.8-2.5z"/><path fill="#759B9A" d="M72.2 129.2c.1.2.1.4.3.5.1.2.4.3.6.3 2.6 1.1 5.4 1.9 8.3 2.3 1-2.9 3.8-5 6.8-5.3.3 0 .7-.2.7-.5-6-.6-12-1.9-17.7-3.9-.3 2.4.4 4.5 1 6.6zM89.6 131.1c.1-.2.2-.4.2-.6.2-1.1.3-2.2.2-3.2 0-.1 0-.2-.1-.2-.1-.1-.2-.1-.3-.1-2.2-.7-4.8.2-6.1 2.1.8.5 1.6 1 2.4 1.4.9.5 1.9 1.1 2.9 1 .3 0 .6-.1.8-.4zM110.3 126.3c.2.8.4 1.7.7 2.5.1.3.2.7.5.9.6.5 1.6.4 2.1.9 1.4-2.3 3.9-3.8 6.6-4.1-1-1-2.1-2-3.5-2-.6 0-1.1.1-1.7.2-1.4.3-2.9.7-4.3 1-.1 0-.2.1-.3.1-.1.2-.1.4-.1.5zM128.8 126.3c-.1.3-.3.4-.6.6-1.5 1-3.1 1.7-4.8 2.2-1.8-2-4.2-3.6-6.7-4.5 1.3-.8 2.8-1.1 4.3-1.4 2.6-.6 5.2-1.5 7.6-2.8.1 1.7.2 3.5.3 5.2-.1.3 0 .5-.1.7zM131.1 105.1c.2-.3.6-.4 1-.4l3-.3c.4 1.2.2 2.6-.5 3.7s-1.9 1.7-3.2 1.8c-.1-1.4-.2-2.7-.3-4.1-.1-.3-.1-.5 0-.7zM58.9 107.1c-.3 1 0 2.2.6 3s1.7 1.3 2.8 1.3c.1-1.6-.2-3.2-.8-4.6-.9.1-1.8-.1-2.6-.5"/><path fill="#759B9A" d="M97.2 167.4c0-3.4 1.3-6.7 1.6-10 0 6.9-.2 12.6 3.6 23-1.6-3.4-5.2-9.3-5.2-13zM108.1 195.6c.1 2.7.2 5.4-.4 8-.7 2.6-2 4.9-3.4 7.1-2 3.3-4.1 6.7-7.2 9 0-1 0-1.9-.1-2.9 0-.6 0-1.2.2-1.7s.7-.9 1.1-1.3c1.9-1.7 3.9-4.2 5.5-6.1 1.6-1.9 3.6-5.3 3.8-7.8"/><path fill="#C69777" d="M110.5 129.3c-.1-1.1-.2-2.1-.3-3.2-6.3.6-12.6.9-18.9.9-.2 0-.5 0-.6.2-.2.2-.2.4-.2.7-.1.9-.4 1.7-.9 2.5 6.4 2.4 13.6 2.6 20.1.4.3-.1.5-.2.7-.4.2-.4.2-.8.1-1.1z"/><path fill="#DACDBC" d="M33.2 52.4c-1 .9-2 2-2 3.3 0 1 .5 1.9 1 2.8.5.8.9 1.6 1.4 2.3.5.9 1.3 1.9 2.3 1.8.7-.1 1.2-.6 1.7-1.1 2.4-2.3 5.2-4.3 8.2-5.7.4-.2.9-.4 1.2-.8.3-.4.4-.8.5-1.3l.9-4.8c.8 1.2 1.5 2.4 2.3 3.6.3.5.8 1.2 1.5 1.1.8-.1 1-1.1 1-1.9 0-1.7-.3-3.4-.7-5-.1-.3-.2-.6-.4-.8-.2-.2-.6-.3-.9-.3-6.6-.8-13.1 2.3-18 6.8zM170.8 43.4c1.6.3 3.3.9 4.6 1.9 1.3 1.1 2.2 2.6 3 4.1.8 1.5 1.5 3.1 1.4 4.8-.1 1.7-1.3 3.4-3 3.6-1.4.1-2.6-.8-3.6-1.6-3.5-2.8-7.4-5.4-11.8-5.9-.2 0-.5-.1-.6-.2-.5-.5.1-1.7-.6-1.9-.5 1-1.3 1.8-2.1 2.5-.5.5-1.2.9-1.9.7-1.1-.2-1.4-1.6-1.4-2.7 0-.6-.1-1.1.2-1.6.3-.6.9-1 1.5-1.4 4.2-2.5 9.4-3.3 14.3-2.3z"/><path fill="#9BC9C7" d="M101 184.2c-2-3.6-5.4-7.9-6.6-11.9s-1.5-8.5.2-12.4c.2-.6.5-1.1.5-1.8s-.5-1.3-1.2-1.2c-.5.1-.8.5-1.1.9-1.5 2.3-2.7 4.8-3.7 7.3-.7 1.9-1.4 3.9-1.1 6 .2 1.9 1 3.6 1.5 5.4 1 3.7.1 7.9-2.1 11-.4.4-.9.7-1.3 1-3 2.1-6.7 3.4-8.6 6.5-1 1.7-1.4 3.8-1.9 5.7-1.7 5.7-5.7 10.7-11 13.5.5.4 1 .8 1.4 1.1 13.7 5.5 29.3-1.9 36.2-14.4 1.2-2.6 2.2-5.3 2.5-8.2-.4-3.1-1.7-6.1-3.7-8.5zM52.5 62.8c1.4-.4 3-.6 4.2.2 1.1.7 1.7 2 1.9 3.3.2 1.3 0 2.7 0 4 0 4.2 1.4 8.3 2.5 12.4s1.9 8.5.6 12.5c-1.8-1.4-4.5-1.5-6.3-.1-3.8-8.4-7-17.1-9.8-25.9-.2-.6-.4-1.3-.2-2 .2-.6.6-1 1.1-1.4 1.8-1.4 3.8-2.4 6-3zM163.3 62.8c.5.7.9 1.4.9 2.3.1 1-.3 1.9-.6 2.8-5.1 12.2-16 20.9-23.2 32 .6-1.1.3-2.5-.5-3.4-.7-1-1.8-1.7-2.8-2.3 4.7-9.2 9.5-18.5 14.2-27.7 1-1.9 2-3.8 3.8-5 2.6-1.8 6.4-1.2 8.2 1.3z"/><path fill="#E5B595" d="M11.1 12.4s2.3-6.3 4.5-5.6 12.8 5.1 20.8 14.8c0 0 4.5-6.4 6-6.3 1.5.1 5.2 1.9 3.7 5.7-1.5 3.8-2.8 5-1.7 8.6 1.1 3.6 2.4 8.2-1.3 11.8l1.3 2.8-11.6 5.9S28.1 38 22.6 35.5c-6.5-4.9-11.1-3.8-13.7-4.2S4.1 30 4.5 27.7c.4-2.3 4.7-5.3 4.7-5.3s-5-1.4-4.7-4.2c.3-2.8-.1-4.1 6.6-5.8z"/><path fill="#FFD0B0" d="M44.5 27.8c-.4-1.7-.6-3.5-.6-5.2 1.3-1.9 1.7-4-.2-5.3-2.8-1.9-5.5 1.4-6.7 4.7-.3 0-.5.1-.7.3-.2.2-.2.4-.3.6 0-.9-.5-1.7-1-2.5-3.3-5-9-9.7-14.5-12.1-2.1-.9-4.7-1.9-6.6-.5-.8.6-1.3 1.7-1 2.6.4 1 1.4 1.4 2.3 1.8 4.3 1.7 8.8 3.4 12 6.6.2.2.3.4.5.6-.1-.1-.1-.2-.2-.3.3.4.7.7 1 1.1.1.2.3.4.4.7-.4-.5-.9-1.1-1.3-1.6.9 1.4 1.3 2.8.1 2.5-.6-.3-1.1-.5-1.5-.7-2.9-2.4-5.2-4.4-9-6.2-1.5-.7-4.9-1.5-6.5-1.7-1.6-.2-3.3.1-4.6 1.1-1.3 1-2 1.8-1.4 3.3.5 1.4 2 1.3 3.5 1.6 1.5.3 3.1 1.1 4.6 1.1 4.1 0 8.2 2.1 11.6 4.3.2.4.2.9-.2 1.2-.2.2-.5.2-.8.2h-.3c-.8-.4-1.7-.7-2.5-1-2.4-.8-4.5-2.7-7-2.6-1.7.1-3.7-.3-5.3.3-.9.3-1.8.6-2.5 1.2s-1.2 1.5-1 2.4c.3 1.1 1.5 1.7 2.6 1.7s2.2-.5 3.2-.8c.5-.2.9-.3 1.4-.4l3 .2c2.1.2 4.3.9 6.4 1.5 2.8 1.5 5.4 3.7 7.3 6.1 1.9 2.3 3.4 5.2 6.2 6.1 2.1.7 4.5.1 6.2-1.2 1.8-1.3 2.9-3.3 3.6-5.4.3-1 .6-2.1.5-3.1-.1-1.1-.4-2.1-.7-3.2z"/><path fill="#D6A380" d="M4.9 19.3s3.4 5 10.7 4L8.8 23s-3.1-2.4-3.9-3.7z"/><path fill="#C69777" d="M12.1 10.2s-.9 1.4 2.9 3.2l-4 .1 1.1-3.3z"/><path fill="#D6A380" d="M32.9 42.8s1.7 3.7 6 2.7c4.2-1 5.3-2.1 5.3-2.1l-1-1.9c-.1 0-6.8 3-10.3 1.3z"/><path fill="#E5B595" d="M202.5 11.3S200.2 5 198 5.7c-2.2.7-12.8 5.1-20.8 14.8 0 0-4.5-6.4-6-6.3s-5.2 1.9-3.7 5.7 2.8 5 1.7 8.6-2.4 8.2 1.3 11.8l-1.3 2.8 11.6 5.9s4.7-12.1 10.2-14.6c6.5-4.9 11.1-3.8 13.7-4.2 2.6-.4 4.8-1.3 4.4-3.6s-4.7-5.3-4.7-5.3 5-1.4 4.7-4.2.2-4.1-6.6-5.8z"/><path fill="#FFD0B0" d="M169.1 26.7c.4-1.7.6-3.5.6-5.2-1.3-1.9-1.7-4 .2-5.3 2.8-1.9 5.5 1.4 6.7 4.7.3 0 .5.1.7.3.2.2.2.4.3.6.2-.9.6-1.7 1.1-2.5 3.3-5 9-9.7 14.5-12.1 2.1-.9 4.7-1.9 6.6-.5.8.6 1.3 1.7 1 2.6-.4 1-1.4 1.4-2.3 1.8-4.3 1.7-8.8 3.4-12 6.6-.2.2-.3.4-.5.6.1-.1.1-.2.2-.3-.3.4-.7.7-1 1.1-.1.2-.3.4-.4.7.4-.5.9-1.1 1.3-1.6-.9 1.4-1.3 2.8-.1 2.5.6-.3 1.1-.5 1.5-.7 2.9-2.4 5.2-4.4 9-6.2 1.5-.7 4.9-1.5 6.5-1.7 1.6-.2 3.3.1 4.6 1.1 1.3 1 2 1.8 1.4 3.3-.5 1.4-2 1.3-3.5 1.6-1.5.3-3.1 1.1-4.6 1.1-4.1 0-8.2 2.1-11.6 4.3-.2.4-.2.9.2 1.2.2.2.5.2.8.2h.3c.8-.4 1.7-.7 2.5-1 2.4-.8 4.5-2.7 7-2.6 1.7.1 3.7-.3 5.3.3.9.3 1.8.6 2.5 1.2s1.2 1.5 1 2.4c-.3 1.1-1.5 1.7-2.6 1.7s-2.2-.5-3.2-.8c-.5-.2-.9-.3-1.4-.4l-2.4-.1c-2.1.2-4.3.9-6.4 1.5-2.8 1.5-5.4 3.7-7.3 6.1-1.9 2.3-3.4 5.2-6.2 6.1-2.1.7-4.5.1-6.2-1.2-1.8-1.3-2.9-3.3-3.6-5.4-.3-1-.6-2.1-.5-3.1-.6-.8-.2-1.9 0-2.9z"/><path fill="#D6A380" d="M208.8 18.2s-3.4 5-10.7 4l6.8-.3s3.1-2.4 3.9-3.7z"/><path fill="#C69777" d="M201.6 9.1s.9 1.4-2.9 3.2l4 .1-1.1-3.3z"/><path fill="#D6A380" d="M180.8 41.6s-1.7 3.7-6 2.7c-4.2-1-5.3-2.1-5.3-2.1l1-1.9c0 .1 6.7 3.1 10.3 1.3z"/><path fill="#9B948F" d="M142.1 161.2c-1.1.5-1.4 1.8-1.6 3-1.5 10.3-.9 21-3 31.2-.6-11.1.5-22.2 1.6-33.3.1-1.2.3-2.5 1.1-3.4 1.3-1.5 4-1.1 5.3.5s1.3 3.8.7 5.8c-.2-1-.5-2.1-1.2-2.9s-1.9-1.4-2.9-.9zM141 156.8c0-.1-.1-.2-.1-.3-.7-.7-1.7-.8-2.7-.8-.8 0-1.6 0-2.3.1-.4 0-.8.1-1 .4-.3.3-.3.7-.2 1.1.1.4.2.8.2 1.1.8-.2 1.7 0 2.4.5s1.1 1.3 1.1 2.2c.1-.1.1-.2.2-.4.2-1.1.7-2.1 1.5-2.8.3-.3.7-.6 1-1-.1 0-.1 0-.1-.1z"/><path fill="#AED6D3" d="M90 178c-.2-.8-.4-1.5-.6-2.1-.2-.7-.4-1.5-.7-2.2l-.3-.9c-.3-1.7-.4-2.8-.3-3.4v-.2c.2-1.1.4-1.9.5-2.3-1.2 3-1.1 5.4-.6 7.2v.1c.1.5.3 1 .4 1.4.4 1.5 1 3.7 1 5.5 0 .3 0 .5-.1.8-.1.3-.1.6-.1.7-.2 1.4-.7 3-1.6 4-2.3 2.4-5.4 3.5-6.8 5.2 0 0 3.8-2.2 5.6-3.2s5.5-4.2 3.6-10.6zM117.1 193.7s2.5 5.2 3.5 18.1c0 0-1.2-7.1-2.3-11.4-1.1-4.3-2.9-8.9-4.6-12.5 0 .1 2.6 3.4 3.4 5.8z"/><path fill="#858C85" d="M92.9 38.5c2.1 1.2 4.6 1.6 7.1 1.5 2.4-.1 4.8-.6 7.2-1.1-2.2.8-4.4 1.7-6.7 2.1-2.3.4-4.7.4-6.9-.4-2.1-.8-4.1-2.4-6.4-2.3-.7.1-1.4.3-2.1.5-2.7.9-5.4 1.8-8.2 2.7 2.9-1.9 6.1-3.3 9.4-4.2 1.3-.4 2.6-.6 3.9-.3 1 .3 1.8 1 2.7 1.5z"/></g><g><path fill="#605D5B" d="M74.2 175c-.8 9.4-.8 18.9-.6 28.3 0 1 1.6 1 1.6 0-.1-9.5.2-18.9.3-28.3 0-.8-1.3-.8-1.3 0zM134.7 156.3c3.6.1 6.8.5 10.1 2.1.8.4 1.5-.7.7-1.2-3-2.3-7.2-2.1-10.8-2-.8 0-.8 1.1 0 1.1zM134 212.4c2.1.2 4.1.4 6.2.7.8.1 1-1.3.2-1.5-2.1-.4-4.3-.5-6.4-.3-.7.1-.7 1 0 1.1z"/><path fill="#AD846F" d="M181.3 49.6c4-7.7 8.6-15.6 17.4-18.1 2.9-.8 9.9.9 10.9-3.2.9-3.7-2-5.8-5.2-6.7-4.9-1.4-9.9.4-14.1 2.9-.6.4-.1 1.3.6.9 4.4-2.4 13-5.6 16.6-.4 2.8 3.9-2.9 4.3-5.7 4.5-2 .2-4 .8-5.9 1.5-7.7 3.1-12.4 10.7-15.7 18-.3.7.7 1.3 1.1.6zM170.1 40c-.3.3-.5.7-.7 1.1l-.6 1.2c-.3.8.9 1.2 1.3.6.2-.3.4-.7.6-1 .2-.4.4-.7.5-1.1 0-.7-.6-1.2-1.1-.8zM180.1 40.9c-2.8 1.2-5.6.6-8.1-1-3.1-2-3.2-6-2.7-9.2.4-2.4.9-4.2.3-6.7-.5-2.4-3.2-5.7-1.5-7.9 3.2-4.1 7 2.8 8.4 5.1.4.6 1.3.1.9-.6-1.5-2.7-4.3-8-8.2-6.9-2.7.7-3.3 3.1-2.8 5.4.9 4.1 3.1 4.8 2 9.6-.4 1.6-1.2 3-1.4 4.7-.3 2.2.3 4 1.7 5.7 2.9 3.4 7.8 5 11.8 2.9.8-.2.3-1.4-.4-1.1zM177.5 21.5c1.7-3.8 6.7-6.9 9.9-9.3 3.7-2.7 12.9-9.6 14.6-.7.1.7 1.2.4 1.1-.3-.4-2-1.3-5.4-3.6-6.1-2-.6-5.3 1.4-7 2.2-3.6 1.9-6.8 4.3-9.9 6.9-2.4 2-5.2 3.7-6 6.9-.1.6.7 1 .9.4zM203.9 22.3c2-.7 5.2-1.1 5.8-3.4.6-2.3-.5-5.1-2.6-6.3-6-3.3-15.5 2.1-19.4 6.6-.5.6.3 1.5.9.9 2.9-3.2 7.2-5.7 11.4-6.7 2.6-.6 10.1-.8 8.4 4.4-.6 2-3.3 2.5-5 3.3-.6.3-.2 1.4.5 1.2zM33.4 50c-3.2-6.9-7.7-14.5-14.9-17.6-2-.9-13-2-13.2-4.1-.3-2.2 2.5-4.2 4.3-4.7 1.8-.5 3.5-.3 5.3-.1 2.8.4 5.4 1.5 7.9 2.8.6.3 1.2-.6.6-.9-4.2-2.5-9.2-4.3-14.1-2.9-3.3.9-6.1 3-5 6.6 1.4 4.4 7.3 2.4 10.7 3.3 8.8 2.6 13.5 10.4 17.4 18.1.3.8 1.3.2 1-.5zM42.5 41.7c.1.5.4.9.6 1.4.2.5.4.9.7 1.3.4.6 1.6.3 1.3-.6-.2-.5-.5-1-.7-1.4-.3-.4-.5-1-.9-1.3-.4-.5-1.1 0-1 .6z"/><path fill="#587572" d="M88.8 130.6c-2.5.4-5.9 2.2-4.8 5.3 1 3 5.1 4.1 7.9 4.1.9 0 .9-1.3 0-1.3-2 0-4.3-.6-5.8-2.1-2.5-2.5 1-4.2 3-4.8.8-.3.5-1.3-.3-1.2zM111.4 131c2.4-.6 5.2 2.2 3.7 4.5-.9 1.5-3 3-4.8 3.2-1 .1-1 1.6 0 1.5 2.8-.1 6.7-3 6.9-5.9.1-3.1-3.2-5.6-6.1-4.5-.6.4-.4 1.4.3 1.2z"/><path fill="#997261" d="M89.7 126.2c0 1.4-.4 2.7-.9 4.1-.4 1.3-.7 2.6-1.8 3.6-.6.5.2 1.5.9 1.1 1.4-.8 1.7-2.3 2.2-3.8.6-1.7 1-3.3.7-5.2-.1-.5-1.1-.4-1.1.2zM109.6 126c.3 2.4.5 5.9 2.9 7.3.9.5 1.7-.9.8-1.4-1.8-1.1-1.8-4.2-2.3-6.1-.2-.7-1.5-.6-1.4.2z"/><path fill="#587572" d="M156.4 53.6C150.3 67 144 80.3 136.9 93.2c-.4.8.7 1.5 1.2.7 7.5-12.7 14-26.2 19.4-39.9.2-.6-.8-1-1.1-.4zM53.8 56.7c.9 3.2 2.1 6.5 3.8 9.4.5.8 1.6.1 1.2-.7-1.3-3-2.6-6-3.8-9.1-.1-.8-1.4-.5-1.2.4z"/><path fill="#AD846F" d="M62.7 98.9c-.1-4.1.7-8.2-.2-12.3-.2-.9-1.6-.5-1.4.4.8 4 0 8 .6 12.1 0 .5 1 .4 1-.2z"/><path fill="#DBDBDB" d="M109.2 107.8c-.4-.2 6.8.7 9.8-1.1v2.2c0 .1-3.7 1.6-9.8-1.1z"/><path fill="#373A37" d="M67.2 22.5c-9.5 19.4-11.5 43.2-6.3 64.1.2.9 1.7.5 1.5-.4-4.7-21.7-2.2-42.8 5.9-63.3.2-.6-.8-1-1.1-.4zM68.2 23.2c11.3-9.1 27.7-7.4 40.8-3.6 14.2 4.2 26.7 12.8 33.4 26.3.5.9 1.8.1 1.4-.8-6.9-14.5-20.8-23.5-36-27.6-13.2-3.5-29.5-4.8-40.5 4.8-.7.5.3 1.4.9.9zM142.4 45.5c.2 7.9.9 15.6.1 23.5-.9 8.4-3 16.4-5.9 24.3-.4 1.1 1.3 1.5 1.7.5 5.7-14.9 8.5-32.6 5.2-48.5-.1-.6-1.1-.5-1.1.2zM73.3 18.6c-2.2 4.6-3.5 9.5-4.3 14.5-.2 1 1.3 1.4 1.5.4 1-4.9 2.2-9.8 4.1-14.4.4-.6-.9-1.2-1.3-.5zM77.5 17.1c-1.1 2.1-1.9 4.2-2.5 6.5-.3 1.1 1.4 1.5 1.7.5.5-2.1 1.3-4.1 2.2-6.1.5-1-.9-1.9-1.4-.9zM81 16.8c-1.5 3.4-2.7 6.9-3.6 10.5-.3 1.1 1.4 1.6 1.7.5 1-3.5 2.2-6.9 3.4-10.3.4-.9-1.1-1.6-1.5-.7zM111.5 45.4c-2.4 3.5-1.6 9.3-1.7 13.3 0 1 1.1 1.3 1.8.7 4.1-3.3 11.1.9 14.3 3.7.7.6 1.6-.3 1-1-3.5-4.3-11.6-7.9-16.6-4.3.5.3 1 .6 1.6.9.1-4.2-.4-8.8.8-12.8.3-.7-.8-1.1-1.2-.5zM112.1 46.1c9.8-2 16.6 7.2 13.8 16.4-.2.7.8 1.1 1.1.5 2-4 .8-10-1.8-13.6-3.1-4.3-8.5-6-13.5-4.4-.6.2-.3 1.3.4 1.1zM84.6 46.1c-1.2.5-1.2 3.3-1.3 4.3-.4 2.7-.7 5.5-.6 8.2 0 .9 1.2.8 1.3 0 .2-2.1.3-4.3.5-6.4.2-1.6.1-3.9.9-5.4.3-.5-.3-1-.8-.7zM84.5 45.8c-10.3.4-16.9 10-15.3 19.8.1.5.9.7 1.2.3 3.3-3.8 8.1-5 12.8-6.1.9-.2.5-1.6-.4-1.4-5 1.2-9.8 2.6-13.4 6.5l1.2.3c-1.5-9.5 4.9-16.8 14.1-18.2.6-.2.5-1.3-.2-1.2zM69.3 57.5c-4 2.7-6.8 4.4-7.6 9.3-.8 5.5-1.4 10.9-1.3 16.5 0 .6.9.6.9 0 .2-4.6.7-9.1 1.3-13.7.5-3.5.4-5.2 3.3-7.9 1.3-1.2 2.9-2.1 4.2-3.2.6-.5-.1-1.4-.8-1zM84.1 52c8.4-.4 17.1-3.1 25.2-.3 1.1.4 1.6-1.4.5-1.8-7.8-3-17.9-.9-25.9.9-.6.1-.5 1.2.2 1.2z"/><path fill="#AD846F" d="M132.5 96.6c.1-1.6-.1-3.1-.3-4.7-.1-.8-1.4-.6-1.3.2.1 1.5.4 3 .5 4.5 0 .8 1.1.8 1.1 0z"/><path fill="#587572" d="M89.2 126.1c-5.2.2-9.2 5.7-9.9 10.5-.8 5.8 1.5 16.6 6.6 20.2.6.4 1.3-.5.8-1-7-6.1-9.8-26.9 2.6-28.7.6 0 .5-1-.1-1z"/><path fill="#373A37" d="M127.4 58.2c.6.5 1.2 1.1 1.7 1.8.4.7.9 1.5 1.2 2.2.2.6 1.2.4 1-.3-.2-1-.5-1.8-1.1-2.7-.6-.8-1.2-1.4-2-2-.6-.3-1.4.6-.8 1zM130.1 62.3c.1 9.7.7 19.3.7 29 0 1 1.5 1 1.5 0-.1-9.6-.2-19.4-1.2-29-.1-.7-1-.7-1 0z"/><path fill="#AD846F" d="M61.5 94.6c.5-.2 0-.2-.6-.5-.9-.4-2.1-.7-3.1-.5-2.1.5-2.8 2.8-3 4.7-.5 3.9 1.6 10.5 6.8 8.8.8-.3.5-1.5-.4-1.3-3.8.9-5.2-3.7-5-6.7.1-2 1.4-4.4 3.7-3.9.6.1 1.1.4 1.8.4.3 0 .4-.2.5-.4.1-.3-.3-.7-.7-.6z"/><path fill="#587572" d="M115 153.9c6.2-4 12.5-10.8 11.6-18.8-.6-5.6-6-12-12.1-11.1-.8.1-.7 1.6.2 1.5 6.6-.7 11.2 7 10.4 12.8-.9 6.3-5.8 11.1-10.7 14.8-.4.3.1 1.2.6.8z"/><path fill="#AD846F" d="M132.3 94.2c3.3-.9 8.3.4 7.2 4.9-.7 2.9-4.9 5.6-7.9 4.5-.9-.3-1.4 1.1-.6 1.5 4 2 9.8-2.4 10.2-6.5.5-5.3-5.1-7-9.3-5.6-.7.2-.4 1.4.4 1.2zM61.2 106.9c-.3 3.6.9 7.7 2.2 11 .3.7 1.5.4 1.2-.3-1.1-3.4-2.4-7.1-2.3-10.7-.1-.7-1.1-.7-1.1 0zM63.8 118.7c6.9 7.9 21.8 8.1 31.5 8.7 12.8.7 24.8-2.4 36.2-8.2.9-.5.1-1.9-.8-1.4-10.7 5.2-21.6 8.5-33.5 8-10.5-.4-24.1-.8-32.5-7.8-.7-.5-1.4.1-.9.7zM130.9 104.4c.2 4.6-.2 9.2-.4 13.8 0 1 1.4.9 1.5 0 .5-4.5.5-9.3 0-13.8 0-.7-1.2-.8-1.1 0z"/><path fill="#E0AA86" d="M102.2 80.5c-.1 6.2 3.1 13.3 10.3 13.1 7.3-.2 8.8-8.6 8.8-14.5.1-5.6-3-13-9.7-12.7-7.2.4-8.8 8.3-9.5 14-.1.7 1.1.9 1.2.2.7-3 .9-6.2 2.6-8.9 2.6-3.9 7.5-4.9 11-1.4 2.1 2.2 2.7 5.1 2.8 7.9.1 4.7-.5 11.6-5.6 13.2-7 2.2-10.6-5.3-10.8-11.1-.1-.5-1.1-.5-1.1.2zM89.1 81.3c-.4 2.3-1.1 4.4-2.4 6.4-2.3 3.3-7.2 6-10.3.3-1.6-2.9-1.1-10.4 0-13.2.8-2.1 2.2-4.2 4.3-5.3 5.3-2.8 7.3 2.4 7.8 6.5.2 1.9.3 3.8.7 5.7.1.5 1 .6 1.1 0 .8-4.1.2-12.9-4.7-14.4-6.2-1.9-10.6 5.1-11.3 10.2-.6 4.7-.8 14.4 5.6 15.3 6.2.8 9.7-6.1 10.4-11.3-.1-.6-1.1-.8-1.2-.2z"/><path fill="#AD846F" d="M103.1 81.6c5.5-3.9 11.8-3 16.5 1.5.7.7 1.7-.3 1-1-4.7-5.4-12.6-5.8-18.2-1.6-.6.4 0 1.6.7 1.1zM74.9 82c3.4-5.1 10.3-4.9 13.5.2.5.8 1.9.1 1.4-.8-3.7-6.2-12.2-6-15.9 0-.4.6.6 1.2 1 .6zM79.9 100.6c12.4 3.9 25.8 3.4 38.4.9.9-.2.5-1.5-.4-1.3-12.7 2.4-25.3 2.8-37.8-.5-.6-.2-.9.8-.2.9zM79.1 100.4c.1 6.2 3.7 11.9 7.1 16.9.5.7 1.7 0 1.2-.7-3.5-5.2-6.1-10.1-7.2-16.3-.1-.7-1.1-.6-1.1.1zM87.3 117.7c8.5 2.2 20 1.3 27.5-3.6 4.2-2.7 7.6-9.2 3.8-13.8-.6-.8-1.6.3-1.1 1.1 2.2 2.9.3 8.2-1.8 10.2-2.2 2.1-5.4 3.3-8.4 4.1-6.4 1.7-13.3 2.2-19.8.8-.7-.1-1 1-.2 1.2z"/><path fill="#587572" d="M37.8 65.2c7.2 10.3 9.4 22.6 13.6 34.2 1.9 5.3 4.6 10.2 7 15.4 2.9 6.4 3.9 13 5.2 19.8 2.5 13.1 7.5 25.6 10.5 38.7 3.2 14.1 4.1 31.2-9.6 40.2-.8.5-.1 1.8.8 1.3 25.1-14.8 6.6-52.9 1.4-73.4-1.7-6.9-2.3-14.1-4.4-20.8-2.2-7-6.3-13.1-8.9-19.9-4.7-12.1-6.6-25.4-14.7-35.9-.3-.7-1.3-.2-.9.4zM86.9 156.1c-1.2-5-1.7-17.3 6.7-15.6 6 1.2 4.4 11.5 4 15.7-.5 4.6-1.4 9.2-.8 13.8.6 4.9 3 8.1 5.8 12 3.7 5.1 6 10.8 4.5 17.2-1.3 5.8-5.5 10.5-9.9 14.3-2 1.7-4.6 4.3-7 5.4-2.7 1.2-5.9-.2-8.6-.6-5.8-.8-11.7-.4-16.4-4.5-.8-.6-1.9.5-1.1 1.1 5.5 4.7 12.1 3.8 18.8 5.2 2.4.5 4.6 1.8 7 .9 2.4-.9 4.7-3.2 6.6-4.8 11.3-9 17.1-21.5 8.1-34.3-3.1-4.5-5.9-8-6.2-13.7-.2-4 .5-8 .9-12 .5-4.5 1.6-11.5-1.8-15.3-2.4-2.6-7.1-2.9-9.7-.4-3.9 3.7-3.3 11.4-2 16 0 .8 1.2.4 1.1-.4zM96 215.7c-.1 3.9 1 7.1 3.5 10.2.2.3.7.2.9 0 5.6-4.6 12.6-3.9 19.4-3.8 5.1 0 10.1-.5 15.1-1.6.9-.2.5-1.6-.4-1.4-8.3 1.7-16.3.7-24.6 1.6-2.2.3-4.4.7-6.4 1.6-.1.1-2.8 1.6-2.8 1.6-3.3-.4-3.5-5.9-3.6-8.2 0-.7-1-.7-1.1 0zM135.6 219.6c-3.2-14.4.1-28.5.5-43 .2-6.7-.7-13.3-.9-20-.3-7.4.9-14.6 3.2-21.6 4.3-13.3 10.3-26.4 16.4-38.9 2.9-5.9 6.1-11.6 9.4-17.3 1.4-2.4 2.7-4.9 3.8-7.5 1.3-3.2 2.2-7.2 6-8.2.9-.3.5-1.7-.4-1.5-4.1.9-5.3 4.6-6.7 8.1-2.9 7.2-7.4 13.7-11 20.6-6.7 13.1-12.7 27-17.8 40.9-2.3 6.4-4.1 13-4.4 19.9-.3 7.9 1.1 15.8 1 23.7-.1 15-4.4 30.3-.4 45.1.3.7 1.4.4 1.3-.3zM99.1 148c1.6-4.3 9.6-11.5 13.8-6 2.7 3.5 2.1 6.8 1.1 10.8-.2.8.9 1.3 1.3.6.4-.8-.8-1.5-1.2-.7.4.2.9.4 1.3.6.6-2 1.3-4.4 1.1-6.5-.3-2.3-2.1-6.2-4.3-7.3-2.5-1.3-6.5.2-8.7 1.6-2.7 1.6-4.4 4-5.5 6.9-.2.4.9.7 1.1 0z"/><path fill="#82786F" d="M152.2 46.5c-.2 2.6-.1 5.2.2 7.8.1.7 1.4.6 1.3-.2-.3-2.5-.4-5-.4-7.6.1-.8-1.1-.7-1.1 0zM153.1 54.9c1.7-.7 3.3-.8 5.2-.8.7 0 .9-1.2.2-1.3-2-.4-4.1.1-5.8 1.2-.5.2-.2 1.2.4.9zM159.7 47.7c-.8 1.7-1.3 3.5-1.9 5.2-.3.8 1 1.1 1.2.3.6-1.7 1.2-3.4 1.6-5.2.1-.5-.7-.9-.9-.3zM159.9 47.7c0 1.9-.1 3.8-.1 5.8 0 .8 1.1.8 1.2 0 .2-1.9.2-3.9 0-5.8-.1-.7-1.1-.7-1.1 0zM160.5 54.1c3.8.3 7.3.8 9.8 4 1.5 2 3.9 4.4 4.2 7 .1.9 1.4.9 1.4 0-.1-1.7-.7-2.9-1.7-4.2-1.1-1.4-2.2-3.1-3.4-4.4-2.6-2.9-6.6-3.7-10.4-3.4-.6 0-.6.9.1 1zM153.2 46.5c9.9-8.1 27.3-1.9 29.4 10.6.1.9 1.7.7 1.5-.2-.8-6-5.5-12-11.3-13.9-6.2-2-15.5-2.2-20.4 2.7-.6.5.2 1.2.8.8zM183 57c-3 2.2-5.7 4.9-7.9 7.8-.6.7.4 1.8 1.1 1.1 2.5-2.7 5.1-5.3 7.6-8 .4-.4-.2-1.3-.8-.9zM53 43.1c.3 4.2 2.2 8 2.1 12.2 0 .8 1.2.8 1.3 0 .4-4.2-1.4-8.3-2.2-12.4-.2-.6-1.2-.5-1.2.2zM55.6 54.9c-1.5-.2-3.4.1-4.7.8-.6.4-.2 1.2.5 1.1.7-.1 1.3-.4 2-.5.7-.1 1.5-.2 2.2-.2.8 0 .8-1.1 0-1.2zM48.2 48.9c.8 2.4 1.3 4.9 1.8 7.4.1.6 1.2.5 1.2-.2-.2-2.6-1-5.2-2-7.6-.3-.5-1.2-.2-1 .4zM48 48.7c-1 3-1.3 6.2-.7 9.3.1.7 1.4.6 1.3-.2-.3-3-.2-5.8.4-8.8.1-.7-.8-.9-1-.3zM47.5 57.7c-4.6.6-8.9 3.9-11 8-.4.8.7 1.4 1.1.7 2.5-3.9 5.8-6.2 10.1-7.7.8-.1.5-1.1-.2-1zM36.8 65.9c-3.2-2.7-5.8-5.9-8.1-9.4-.4-.7-1.5-.1-1.1.6 2 3.9 5 7.1 8.5 9.7.5.4 1.2-.5.7-.9zM28.5 57c4.9-9.4 15.1-12.8 25.1-13.2.9 0 .9-1.5 0-1.4-10.3.4-21.5 4-26.1 14-.3.7.7 1.3 1 .6z"/><path fill="#AD846F" d="M33.1 43.1c4 2.1 8.9.5 11.8-2.9 1.4-1.7 1.9-3.4 1.8-5.5-.1-1.8-1.2-3.2-1.5-4.9-.6-3.5.4-5.7 1.7-8.9 1-2.6.4-5.6-3.3-6.2-3.6-.5-5.8 4.7-7 7-.3.6.6 1.2.9.6.5-.9 1-2.1 1.7-3 1.7-2.1 5.8-4 6.4-.4.4 2.5-1.6 5.1-1.9 7.7-.2 1.8.4 3.3.6 5.1.4 3.3.5 7.1-2.7 9.2-2.5 1.6-5.3 2.2-8.1 1-.6-.3-1.1.9-.4 1.2zM37.1 22.1c-.7-2.9-3.1-4.5-5.3-6.4-3.3-2.7-6.7-5.4-10.5-7.4-1.7-.9-4.9-2.8-6.9-2.3-2.3.7-3.3 4.1-3.7 6.1-.1.7.9 1 1.1.3 1.7-9 10.8-2 14.6.7 3.3 2.4 8.2 5.5 9.9 9.3.1.6.9.3.8-.3zM9.7 22c-1.5-.7-4.4-1.5-4.4-3.5 0-1.8 2.6-4 4.1-4.3 1.6-.4 3.5 0 5 .4 4 1.1 8 3.5 10.8 6.5.6.6 1.4-.3.9-.9-3.9-4.5-13.3-9.8-19.3-6.6-2.1 1.1-2.7 3-2.7 5.3 0 3.1 2.6 3.2 5.2 4.2.5.2 1-.9.4-1.1z"/><path fill="#605D5B" d="M138.1 160.5c-.9 8.4-1.5 16.7-2 25.1-.4 7.1-1.2 14.6-.7 21.7.6 7 8.9 8 10.1.7.6-3.4-.1-7-.2-10.4-.1-3.9-.2-7.8-.1-11.7.1-4.2.4-8.5.8-12.7.4-3.9 1.6-7.9 1.8-11.8.4-6.5-9.9-7.2-9.9-.8 0 1 1.6 1 1.6 0 .4-2.2 1.9-3.1 4.3-2.5 2 1.7 2.6 3.6 1.8 5.7-.1.9-.4 1.9-.6 2.7-.8 4.5-1 9.1-1.3 13.6-.3 4.6-.4 9.1-.3 13.7.1 4.3 1.5 9.8.4 14-1.3 5-6.5 4.7-6.9-.4-.1-1.7 0-3.5 0-5.2.1-4.5.3-9 .5-13.6.5-9.4 1.2-18.7 1.9-28 .3-1-1.1-.9-1.2-.1z"/></g></svg>