<?xml version="1.0" encoding="utf-8"?>
<!-- Generator: Adobe Illustrator 18.1.1, SVG Export Plug-In . SVG Version: 6.00 Build 0)  -->
<svg version="1.1" xmlns="http://www.w3.org/2000/svg" xmlns:xlink="http://www.w3.org/1999/xlink" x="0px" y="0px"
	 viewBox="0 0 215 201" enable-background="new 0 0 215 201" xml:space="preserve">
<g id="Charlie_Color">
	<rect x="75" y="178" fill="#827E7A" width="3" height="23"/>
	<path fill="#827E7A" d="M134.4,155.7c0,0,12.2-0.9,12.4,2.8c0.2,3.7-1.3,12.3-1.3,12.3s-1.4,17-1,24.8c0.4,7.8,1,16.1-1.7,16.4
		c-2.7,0.3-9.2,0.1-9.2,0.1L134.4,155.7z"/>
	<path fill="#82786F" d="M152.2,53.4c0,0,0.3,4.1,3.4,3.8c3.1-0.3,14.9,6.4,15.2,6.7s3.7,4.7,5.6,1.5
		C178.5,62.2,169.3,46.4,152.2,53.4z"/>
	<path fill="#82786F" d="M36.4,66.8c0,0,2.1,3.1,10.4-2.8s10.3-6.5,9.5-9.3S36.4,66.8,36.4,66.8z"/>
	<path fill="#83B1B1" d="M156.7,54.7l-18.3,36.5l-79-24.5l-10.7-21c0,0-3.3,10.6-10.4,19.2c0,0,5.3,7.1,8.5,17.6
		c3.3,10.5,7.4,21.9,9.8,26.9c2.5,5,6.6,15.4,8.5,28.3c1.9,13,11.9,35.7,11.9,44c0,8.2,2.4,23.2-12.1,32.4c0,0,3.1,3.1,12.1,4.6
		c9,1.5,13.3,3.9,19.5-3c0,0-0.8,4.3,3.4,9.7c0,0,2.7-4.1,14.1-4.2c11.4-0.1,20.9-1.5,20.9-1.5s-2.4-10.5-1-25s2-26.3,0.7-36.3
		c-1.4-10,4.4-29.4,12.4-47.1s20.6-41.4,20.6-41.4s0.5-4.7,6.2-7.8C173.8,62.3,163,33,156.7,54.7z"/>
	<path fill="#759B9A" d="M40,67.3c0,0,5.6-8.5,15.8-7.6l-4.6-12.8c0,0-20,5.3-16,11.8S40,67.3,40,67.3z"/>
	<path fill="#9BC9C7" d="M151.6,83.6c-4.1,6.4-7.9,13.1-11.2,19.9c-2.4,4.9-4.7,10.2-9,13.6c-0.4-4-0.7-8.3,1.2-11.8
		c1.2-2.2,3.1-3.9,4.4-6c0.9-1.5,1.5-3.3,2.5-4.8c1-1.5,2.8-2.6,4.5-2.2"/>
	<path fill="#9BC9C7" d="M119.5,203.4c-0.3-2.9-0.9-5.9-2-8.6c-0.2-0.6-0.4-1.2-0.7-1.7c-4.3-9.1-14.4-14.7-18.2-24
		c0.2,4,1.4,8,3.7,11.3c1.5,2.2,3.3,4.1,4.1,6.6c0.7,2.1,0.5,4.5,1.3,6.6c0.2,0.4,0.4,0.9,0.6,1.3c-0.1,2.2-0.8,4.3-1.7,6.2
		c-2.2,4.9-5.2,9.4-9,13.2c-0.5,0.5-1,1-1.2,1.7c-0.2,0.7-0.1,1.4,0,2.1c0.3,1.4,0.5,2.9,1.3,4.1c0.8,1.2,2.1,2.2,3.6,2.1
		c1.3-0.1,2.3-1,3.4-1.7c5.5-3.5,12.8-1.5,19.2-2.7C120.5,215.3,120.2,209.1,119.5,203.4z"/>
	<path fill="#759B9A" d="M155.7,56.9c0,0,10.5-2.7,15.2,7l3-2.4l-13.3-14L155.7,56.9z"/>
	<path fill="#F4C09D" d="M64.2,118.3l-2.9-10.9c0,0-6.7-0.2-5.9-7.5c0.7-7.3,6.4-4.9,6.4-4.9s0.9-7.5-0.4-12.9s-5.5-37.6,35.5-36.6
		c41,1,33.9,21.7,34.2,33s-0.3,14,0.4,14.5c0.7,0.5,9-1.2,9.2,4.8s-9.2,6.5-9.2,6.5l-0.2,13.8c0,0-19.8,8.6-34.8,8.4
		C73.5,126.4,64.2,118.3,64.2,118.3z"/>
	<path fill="#FFD0B0" d="M126,84.4c-0.2-2-0.5-4-1.6-5.7c-2-3.1-6.1-4-9.8-4.5c-12.4-1.8-25.3-2.7-37.4,0.5c-2.9,0.8-5.8,1.8-7.9,4
		c-3.9,4-3.6,10.5-3.1,16.1l2.5,25.1c0,0.3,0.1,0.6,0.2,0.9c0.2,0.4,0.7,0.6,1.1,0.7c16.7,5.9,35.6,6.6,52.2,0.3
		c0.8-0.3,1.7-0.7,2.3-1.4c0.5-0.7,0.7-1.6,0.8-2.4C127,106.9,127.2,95.6,126,84.4z M89.3,82.8c-0.8,1.1-1,2.8-1.5,4.1
		c-0.6,1.4-1.5,2.7-2.7,3.6c-2.2,1.5-5,1.9-7.2,0.3c0,0,0,0-0.1,0c0,0,0,0,0,0c0,0-0.1,0-0.1-0.1c-0.1-0.1-0.2-0.2-0.2-0.3
		c-0.5-0.3-1-0.7-1.4-1.2c-1.4-1.9-1.3-4.3-1.2-6.5c-0.2-0.1-0.3-0.4-0.2-0.7c1.8-2.8,5.1-4.8,8.5-4.3c2.6,0.4,5.4,1.9,6.1,4.7
		c0,0,0,0.1,0,0.1C89.4,82.5,89.4,82.6,89.3,82.8z M119,87.4c-0.1,0.2-0.2,0.3-0.3,0.3c-1.3,2.5-4.1,4.7-6.6,5
		c-4.5,0.6-7.3-3.5-8.4-7.4c0,0,0,0-0.1-0.1c-0.7-1.1-1.1-2.6-0.7-3.9c0.4-1.2,1.5-1.6,2.6-1.6c1.4-0.8,3.3-1,5.1-0.7
		c2.6-0.1,5.6,0.5,7.3,2.4c1,0.4,1.9,0.9,2,2.1C120.1,84.8,119.4,86.2,119,87.4z"/>
	<path fill="#D6A380" d="M62.4,68.7c0.4,4,6.4-4.9,10.3-5.5c0.1,0.8,0.1,1.7,0.2,2.5c3.8-1.2,7.6-2.6,11.4-4
		c0.6-0.2,1.3-0.5,1.7-1.1c0.3-0.5,0.4-1.1,0.4-1.7c0.2-1.9,0.4-3.7,0.5-5.6c7.4,1.1,15.4-2.2,22.4,0.7c1.8,0.8,3.6,2.2,3.7,4.2
		c0,0.8-0.2,1.6,0.2,2.2c0.5,0.9,1.6,1,2.6,1.1c2.3,0.3,4.5,1.2,6.3,2.6c1.3,1,2.6,2.2,4.2,2.5c1.7,0.2,3.4-0.9,3.9-2.4
		c0.5-1.6-0.2-3.5-1.6-4.3c0,0-11.3-12.3-31.9-10.3C76.2,51.5,61.6,61.1,62.4,68.7z"/>
	<path fill="#565C56" d="M60.1,76.8c0,0-4.1-34.2,7.6-53c0,0,14.5-15.2,45.6-3.6s30.2,30.3,30.2,30.3s3.3,28.7-6,43.2l-6-0.5
		l-0.9-31.5c0,0-8.1-13.3-33.7-12.2c-27.3,1.2-34.1,15.2-34.1,15.2S62,80.7,60.1,76.8z"/>
	<path fill="#434943" d="M112,45.8l-1.1,12c0,0,7.3-3.2,15,4.3c0,0,2.1-1.5,1.1-6.3C126.1,51.1,121.7,43,112,45.8z"/>
	<path fill="#434943" d="M84.5,46.9L83,59.1l-13.2,5.5C69.8,64.6,68.4,46.1,84.5,46.9z"/>
	<path fill="#FFFFFF" d="M80,100.2c0,0,22.1,4.9,38.1,0.7c0,0,6,12.7-13.4,16.9c-13.6,1.6-17.9-0.8-17.9-0.8S80.1,107.1,80,100.2z"
		/>
	<path fill="#747A74" d="M64.6,33.5c-0.6,3.7-1,7.5-1.2,11.2c-0.1,1-0.1,2.1,0.6,2.8c0.7,0.8,2,1,3,0.6c1-0.3,1.9-1.1,2.7-1.7
		c4.1-3.3,8.8-5.9,13.7-7.8c2.2-0.8,4.8-1.5,7-0.6c1,0.4,1.8,1.1,2.8,1.7c3.8,2.1,8.5,0.6,12.7-0.5c3.8-1,7.8-1.7,11.7-1.4
		c3.9,0.3,7.9,1.7,10.7,4.5c1.3,1.2,2.3,2.7,3.8,3.7s3.6,1.4,4.9,0.3c1.6-1.3,1.4-3.8,0.7-5.7c-1.8-5.6-5.7-10.4-10.7-13.4
		c0,0-18.3-15-40.1-11.2s-19.1,7.8-19.1,7.8S65,30.5,64.6,33.5z"/>
	<path fill="#B5A38C" d="M28,56.7c0,0,4.2-13.3,25.6-13.6l2.2,12.2l-4.7,0.9l-2.6-7.4c0,0-0.7,6.3-0.9,9c0,0-7.5,2.3-11.2,8.5
		C36.4,66.3,29.3,59.8,28,56.7z"/>
	<path fill="#B5A38C" d="M152.8,46.1l0.3,8l5.3-0.6l1.8-5.5l0.3,5.5c0,0,10.6-1.6,14.9,11.7l8-8.2c0,0,0.1-11.1-13.4-14.4
		C158.4,40.6,152.8,46.1,152.8,46.1z"/>
	<path fill="#D6A380" d="M90.3,126.2l-1,5c0,0-4.7,1-4.8,3.7c-0.1,2.7,7.4,4.5,7.4,4.5s7.1,0.2,7.2,7.3c0,0,3.7-6.3,9.3-7.3
		s8.5-2.4,8-4.9c-0.4-2.5-2.5-5-4.8-4.1l-1.2-4.4L90.3,126.2z"/>
	<path fill="#759B9A" d="M99.3,145.9c-0.7-1.6-1.5-3.2-2.7-4.4s-2.8-2.2-4.6-2.1c-2.8,0.2-4.8,2.9-5.6,5.5c-0.5,1.4-0.7,3-0.5,4.5
		s1.1,2.9,2.5,3.6c-0.3-2.2-0.3-4.5,0.6-6.5c0.9-2,2.8-3.7,5-3.9s4.6,1.3,4.9,3.5c1.3-1.9,3.3-3.5,5.5-3.9s4.8,0.4,6.2,2.2
		c1.4,1.9,1.3,4.6,0.7,6.9c1.4,0.4,3.1-0.4,3.8-1.7c0.8-1.3,0.8-2.9,0.4-4.4s-1.2-2.7-2.1-4c-0.3-0.5-0.7-1-1.1-1.3
		c-1.1-0.9-2.7-0.8-4.1-0.4C104.6,140.3,101.3,142.7,99.3,145.9z"/>
	<path fill="#9BC9C7" d="M120.2,131.1c-0.2-0.5-0.4-1-0.4-1.6c0-0.5,0.3-1.2,0.8-1.3c0.5-0.1,1,0.2,1.4,0.6c3.6,3.3,4.5,9,2.8,13.6
		c-1.7,4.6-5.5,8.2-9.9,10.4c1.2-2.9,1.4-6.2,0.4-9.2c-0.2-0.6-0.4-1.2,0-1.7c0.2-0.3,0.5-0.4,0.8-0.6
		C119.7,139.5,121.6,134.9,120.2,131.1z"/>
	<path fill="#9BC9C7" d="M84.3,142.4c0.2,0.1,0.5,0.2,0.7,0.4c0.3,0.3,0.3,0.8,0.3,1.2c0.1,3.8,0.1,7.7,0.2,11.5
		c-3.4-4.6-5.4-10.4-5.4-16.1c0-0.7,0.2-1.6,0.9-1.7c0.6-0.1,1.1,0.6,1.3,1.1C82.8,140.1,83,141.7,84.3,142.4z"/>
	<path fill="#FFD0B0" d="M74.8,78.2c0,0,1.6-10.9,9.3-10.4c7.7,0.5,5.5,12.6,5.5,12.6S82.8,73.9,74.8,78.2z"/>
	<path fill="#FFD0B0" d="M104.4,73.1c0,0,9.3-14.1,15.8,2.5C120.1,75.6,106.5,76.7,104.4,73.1z"/>
	<path fill="#759B9A" d="M72.2,129.2c0.1,0.2,0.1,0.4,0.3,0.5c0.1,0.2,0.4,0.3,0.6,0.3c2.6,1.1,5.4,1.9,8.3,2.3c1-2.9,3.8-5,6.8-5.3
		c0.3,0,0.7-0.2,0.7-0.5c-6-0.6-12-1.9-17.7-3.9C70.9,125,71.6,127.1,72.2,129.2z"/>
	<path fill="#759B9A" d="M89.6,131.1c0.1-0.2,0.2-0.4,0.2-0.6c0.2-1.1,0.3-2.2,0.2-3.2c0-0.1,0-0.2-0.1-0.2
		c-0.1-0.1-0.2-0.1-0.3-0.1c-2.2-0.7-4.8,0.2-6.1,2.1c0.8,0.5,1.6,1,2.4,1.4c0.9,0.5,1.9,1.1,2.9,1
		C89.1,131.5,89.4,131.4,89.6,131.1z"/>
	<path fill="#759B9A" d="M110.3,126.3c0.2,0.8,0.4,1.7,0.7,2.5c0.1,0.3,0.2,0.7,0.5,0.9c0.6,0.5,1.6,0.4,2.1,0.9
		c1.4-2.3,3.9-3.8,6.6-4.1c-1-1-2.1-2-3.5-2c-0.6,0-1.1,0.1-1.7,0.2c-1.4,0.3-2.9,0.7-4.3,1c-0.1,0-0.2,0.1-0.3,0.1
		C110.3,126,110.3,126.2,110.3,126.3z"/>
	<path fill="#759B9A" d="M128.8,126.3c-0.1,0.3-0.3,0.4-0.6,0.6c-1.5,1-3.1,1.7-4.8,2.2c-1.8-2-4.2-3.6-6.7-4.5
		c1.3-0.8,2.8-1.1,4.3-1.4c2.6-0.6,5.2-1.5,7.6-2.8c0.1,1.7,0.2,3.5,0.3,5.2C128.8,125.9,128.9,126.1,128.8,126.3z"/>
	<path fill="#759B9A" d="M131.1,105.1c0.2-0.3,0.6-0.4,1-0.4c1-0.1,2-0.2,3-0.3c0.4,1.2,0.2,2.6-0.5,3.7c-0.7,1.1-1.9,1.7-3.2,1.8
		c-0.1-1.4-0.2-2.7-0.3-4.1C131,105.5,131,105.3,131.1,105.1z"/>
	<path fill="#759B9A" d="M58.9,107.1c-0.3,1,0,2.2,0.6,3s1.7,1.3,2.8,1.3c0.1-1.6-0.2-3.2-0.8-4.6c-0.9,0.1-1.8-0.1-2.6-0.5"/>
	<path fill="#759B9A" d="M97.2,167.4c0-3.4,1.3-6.7,1.6-10c0,6.9-0.2,12.6,3.6,23C100.8,177,97.2,171.1,97.2,167.4z"/>
	<path fill="#759B9A" d="M108.1,195.6c0.1,2.7,0.2,5.4-0.4,8c-0.7,2.6-2,4.9-3.4,7.1c-2,3.3-4.1,6.7-7.2,9c0-1,0-1.9-0.1-2.9
		c0-0.6,0-1.2,0.2-1.7c0.2-0.5,0.7-0.9,1.1-1.3c1.9-1.7,3.9-4.2,5.5-6.1c1.6-1.9,3.6-5.3,3.8-7.8"/>
	<path fill="#C69777" d="M110.5,129.3c-0.1-1.1-0.2-2.1-0.3-3.2c-6.3,0.6-12.6,0.9-18.9,0.9c-0.2,0-0.5,0-0.6,0.2
		c-0.2,0.2-0.2,0.4-0.2,0.7c-0.1,0.9-0.4,1.7-0.9,2.5c6.4,2.4,13.6,2.6,20.1,0.4c0.3-0.1,0.5-0.2,0.7-0.4
		C110.6,130,110.6,129.6,110.5,129.3z"/>
	<path fill="#DACDBC" d="M33.2,52.4c-1,0.9-2,2-2,3.3c0,1,0.5,1.9,1,2.8c0.5,0.8,0.9,1.6,1.4,2.3c0.5,0.9,1.3,1.9,2.3,1.8
		c0.7-0.1,1.2-0.6,1.7-1.1c2.4-2.3,5.2-4.3,8.2-5.7c0.4-0.2,0.9-0.4,1.2-0.8c0.3-0.4,0.4-0.8,0.5-1.3c0.3-1.6,0.6-3.2,0.9-4.8
		c0.8,1.2,1.5,2.4,2.3,3.6c0.3,0.5,0.8,1.2,1.5,1.1c0.8-0.1,1-1.1,1-1.9c0-1.7-0.3-3.4-0.7-5c-0.1-0.3-0.2-0.6-0.4-0.8
		c-0.2-0.2-0.6-0.3-0.9-0.3C44.6,44.8,38.1,47.9,33.2,52.4z"/>
	<path fill="#DACDBC" d="M170.8,43.4c1.6,0.3,3.3,0.9,4.6,1.9c1.3,1.1,2.2,2.6,3,4.1c0.8,1.5,1.5,3.1,1.4,4.8
		c-0.1,1.7-1.3,3.4-3,3.6c-1.4,0.1-2.6-0.8-3.6-1.6c-3.5-2.8-7.4-5.4-11.8-5.9c-0.2,0-0.5-0.1-0.6-0.2c-0.5-0.5,0.1-1.7-0.6-1.9
		c-0.5,1-1.3,1.8-2.1,2.5c-0.5,0.5-1.2,0.9-1.9,0.7c-1.1-0.2-1.4-1.6-1.4-2.7c0-0.6-0.1-1.1,0.2-1.6c0.3-0.6,0.9-1,1.5-1.4
		C160.7,43.2,165.9,42.4,170.8,43.4z"/>
	<path fill="#9BC9C7" d="M101,184.2C101,184.2,101,184.2,101,184.2c-2-3.6-5.4-7.9-6.6-11.9s-1.5-8.5,0.2-12.4
		c0.2-0.6,0.5-1.1,0.5-1.8s-0.5-1.3-1.2-1.2c-0.5,0.1-0.8,0.5-1.1,0.9c-1.5,2.3-2.7,4.8-3.7,7.3c-0.7,1.9-1.4,3.9-1.1,6
		c0.2,1.9,1,3.6,1.5,5.4c1,3.7,0.1,7.9-2.1,11c-0.4,0.4-0.9,0.7-1.3,1c-3,2.1-6.7,3.4-8.6,6.5c-1,1.7-1.4,3.8-1.9,5.7
		c-1.7,5.7-5.7,10.7-11,13.5c0.5,0.4,1,0.8,1.4,1.1c13.7,5.5,29.3-1.9,36.2-14.4c1.2-2.6,2.2-5.3,2.5-8.2
		C104.3,189.6,103,186.6,101,184.2z"/>
	<path fill="#9BC9C7" d="M52.5,62.8c1.4-0.4,3-0.6,4.2,0.2c1.1,0.7,1.7,2,1.9,3.3c0.2,1.3,0,2.7,0,4c0,4.2,1.4,8.3,2.5,12.4
		c1.1,4.1,1.9,8.5,0.6,12.5c-1.8-1.4-4.5-1.5-6.3-0.1c-3.8-8.4-7-17.1-9.8-25.9c-0.2-0.6-0.4-1.3-0.2-2c0.2-0.6,0.6-1,1.1-1.4
		C48.3,64.4,50.3,63.4,52.5,62.8z"/>
	<path fill="#9BC9C7" d="M163.3,62.8c0.5,0.7,0.9,1.4,0.9,2.3c0.1,1-0.3,1.9-0.6,2.8c-5.1,12.2-16,20.9-23.2,32
		c0.6-1.1,0.3-2.5-0.5-3.4c-0.7-1-1.8-1.7-2.8-2.3c4.7-9.2,9.5-18.5,14.2-27.7c1-1.9,2-3.8,3.8-5C157.7,59.7,161.5,60.3,163.3,62.8z
		"/>
	<path fill="#E5B595" d="M11.1,12.4c0,0,2.3-6.3,4.5-5.6s12.8,5.1,20.8,14.8c0,0,4.5-6.4,6-6.3c1.5,0.1,5.2,1.9,3.7,5.7
		c-1.5,3.8-2.8,5-1.7,8.6c1.1,3.6,2.4,8.2-1.3,11.8l1.3,2.8l-11.6,5.9c0,0-4.7-12.1-10.2-14.6c-6.5-4.9-11.1-3.8-13.7-4.2
		s-4.8-1.3-4.4-3.6c0.4-2.3,4.7-5.3,4.7-5.3s-5-1.4-4.7-4.2C4.8,15.4,4.4,14.1,11.1,12.4z"/>
	<path fill="#FFD0B0" d="M44.5,27.8c-0.4-1.7-0.6-3.5-0.6-5.2c1.3-1.9,1.7-4-0.2-5.3c-2.8-1.9-5.5,1.4-6.7,4.7
		c-0.3,0-0.5,0.1-0.7,0.3c-0.2,0.2-0.2,0.4-0.3,0.6C36,22,35.5,21.2,35,20.4c-3.3-5-9-9.7-14.5-12.1c-2.1-0.9-4.7-1.9-6.6-0.5
		c-0.8,0.6-1.3,1.7-1,2.6c0.4,1,1.4,1.4,2.3,1.8c4.3,1.7,8.8,3.4,12,6.6c0.2,0.2,0.3,0.4,0.5,0.6c-0.1-0.1-0.1-0.2-0.2-0.3
		c0.3,0.4,0.7,0.7,1,1.1c0.1,0.2,0.3,0.4,0.4,0.7c-0.4-0.5-0.9-1.1-1.3-1.6c0.9,1.4,1.3,2.8,0.1,2.5c-0.6-0.3-1.1-0.5-1.5-0.7
		c-2.9-2.4-5.2-4.4-9-6.2c-1.5-0.7-4.9-1.5-6.5-1.7c-1.6-0.2-3.3,0.1-4.6,1.1c-1.3,1-2,1.8-1.4,3.3c0.5,1.4,2,1.3,3.5,1.6
		c1.5,0.3,3.1,1.1,4.6,1.1c4.1,0,8.2,2.1,11.6,4.3c0.2,0.4,0.2,0.9-0.2,1.2c-0.2,0.2-0.5,0.2-0.8,0.2c-0.1,0-0.2,0-0.3,0
		c-0.8-0.4-1.7-0.7-2.5-1c-2.4-0.8-4.5-2.7-7-2.6c-1.7,0.1-3.7-0.3-5.3,0.3c-0.9,0.3-1.8,0.6-2.5,1.2c-0.7,0.6-1.2,1.5-1,2.4
		c0.3,1.1,1.5,1.7,2.6,1.7c1.1,0,2.2-0.5,3.2-0.8c0.5-0.2,0.9-0.3,1.4-0.4L15,27c2.1,0.2,4.3,0.9,6.4,1.5c2.8,1.5,5.4,3.7,7.3,6.1
		c1.9,2.3,3.4,5.2,6.2,6.1c2.1,0.7,4.5,0.1,6.2-1.2c1.8-1.3,2.9-3.3,3.6-5.4c0.3-1,0.6-2.1,0.5-3.1C45.1,29.9,44.8,28.9,44.5,27.8z"
		/>
	<path fill="#D6A380" d="M4.9,19.3c0,0,3.4,5,10.7,4L8.8,23C8.8,23,5.7,20.6,4.9,19.3z"/>
	<path fill="#C69777" d="M12.1,10.2c0,0-0.9,1.4,2.9,3.2l-4,0.1L12.1,10.2z"/>
	<path fill="#D6A380" d="M32.9,42.8c0,0,1.7,3.7,6,2.7c4.2-1,5.3-2.1,5.3-2.1l-1-1.9C43.1,41.5,36.4,44.5,32.9,42.8z"/>
	<path fill="#E5B595" d="M202.5,11.3c0,0-2.3-6.3-4.5-5.6c-2.2,0.7-12.8,5.1-20.8,14.8c0,0-4.5-6.4-6-6.3s-5.2,1.9-3.7,5.7
		s2.8,5,1.7,8.6s-2.4,8.2,1.3,11.8l-1.3,2.8l11.6,5.9c0,0,4.7-12.1,10.2-14.6c6.5-4.9,11.1-3.8,13.7-4.2c2.6-0.4,4.8-1.3,4.4-3.6
		s-4.7-5.3-4.7-5.3s5-1.4,4.7-4.2S209.3,13,202.5,11.3z"/>
	<path fill="#FFD0B0" d="M169.1,26.7c0.4-1.7,0.6-3.5,0.6-5.2c-1.3-1.9-1.7-4,0.2-5.3c2.8-1.9,5.5,1.4,6.7,4.7
		c0.3,0,0.5,0.1,0.7,0.3c0.2,0.2,0.2,0.4,0.3,0.6c0.2-0.9,0.6-1.7,1.1-2.5c3.3-5,9-9.7,14.5-12.1c2.1-0.9,4.7-1.9,6.6-0.5
		c0.8,0.6,1.3,1.7,1,2.6c-0.4,1-1.4,1.4-2.3,1.8c-4.3,1.7-8.8,3.4-12,6.6c-0.2,0.2-0.3,0.4-0.5,0.6c0.1-0.1,0.1-0.2,0.2-0.3
		c-0.3,0.4-0.7,0.7-1,1.1c-0.1,0.2-0.3,0.4-0.4,0.7c0.4-0.5,0.9-1.1,1.3-1.6c-0.9,1.4-1.3,2.8-0.1,2.5c0.6-0.3,1.1-0.5,1.5-0.7
		c2.9-2.4,5.2-4.4,9-6.2c1.5-0.7,4.9-1.5,6.5-1.7c1.6-0.2,3.3,0.1,4.6,1.1c1.3,1,2,1.8,1.4,3.3c-0.5,1.4-2,1.3-3.5,1.6
		c-1.5,0.3-3.1,1.1-4.6,1.1c-4.1,0-8.2,2.1-11.6,4.3c-0.2,0.4-0.2,0.9,0.2,1.2c0.2,0.2,0.5,0.2,0.8,0.2c0.1,0,0.2,0,0.3,0
		c0.8-0.4,1.7-0.7,2.5-1c2.4-0.8,4.5-2.7,7-2.6c1.7,0.1,3.7-0.3,5.3,0.3c0.9,0.3,1.8,0.6,2.5,1.2c0.7,0.6,1.2,1.5,1,2.4
		c-0.3,1.1-1.5,1.7-2.6,1.7c-1.1,0-2.2-0.5-3.2-0.8c-0.5-0.2-0.9-0.3-1.4-0.4l-2.4-0.1c-2.1,0.2-4.3,0.9-6.4,1.5
		c-2.8,1.5-5.4,3.7-7.3,6.1c-1.9,2.3-3.4,5.2-6.2,6.1c-2.1,0.7-4.5,0.1-6.2-1.2c-1.8-1.3-2.9-3.3-3.6-5.4c-0.3-1-0.6-2.1-0.5-3.1
		C168.5,28.8,168.9,27.7,169.1,26.7z"/>
	<path fill="#D6A380" d="M208.8,18.2c0,0-3.4,5-10.7,4l6.8-0.3C204.9,21.9,208,19.5,208.8,18.2z"/>
	<path fill="#C69777" d="M201.6,9.1c0,0,0.9,1.4-2.9,3.2l4,0.1L201.6,9.1z"/>
	<path fill="#D6A380" d="M180.8,41.6c0,0-1.7,3.7-6,2.7c-4.2-1-5.3-2.1-5.3-2.1l1-1.9C170.5,40.4,177.2,43.4,180.8,41.6z"/>
	<path fill="#9B948F" d="M142.1,161.2c-1.1,0.5-1.4,1.8-1.6,3c-1.5,10.3-0.9,21-3,31.2c-0.6-11.1,0.5-22.2,1.6-33.3
		c0.1-1.2,0.3-2.5,1.1-3.4c1.3-1.5,4-1.1,5.3,0.5s1.3,3.8,0.7,5.8c-0.2-1-0.5-2.1-1.2-2.9S143.1,160.7,142.1,161.2z"/>
	<path fill="#9B948F" d="M141,156.8c0-0.1-0.1-0.2-0.1-0.3c-0.7-0.7-1.7-0.8-2.7-0.8c-0.8,0-1.6,0-2.3,0.1c-0.4,0-0.8,0.1-1,0.4
		c-0.3,0.3-0.3,0.7-0.2,1.1c0.1,0.4,0.2,0.8,0.2,1.1c0.8-0.2,1.7,0,2.4,0.5c0.7,0.5,1.1,1.3,1.1,2.2c0.1-0.1,0.1-0.2,0.2-0.4
		c0.2-1.1,0.7-2.1,1.5-2.8c0.3-0.3,0.7-0.6,1-1C141,156.9,141,156.9,141,156.8z"/>
	<g>
		<path fill="#AED6D3" d="M90,178c-0.2-0.8-0.4-1.5-0.6-2.1c-0.2-0.7-0.4-1.5-0.7-2.2c-0.1-0.3-0.2-0.6-0.3-0.9
			c-0.3-1.7-0.4-2.8-0.3-3.4c0-0.1,0-0.2,0-0.2c0,0,0,0,0,0c0.2-1.1,0.4-1.9,0.5-2.3c-1.2,3-1.1,5.4-0.6,7.2l0,0c0,0,0,0,0,0.1
			c0.1,0.5,0.3,1,0.4,1.4c0.4,1.5,1,3.7,1,5.5c0,0.3,0,0.5-0.1,0.8c-0.1,0.3-0.1,0.6-0.1,0.7c-0.2,1.4-0.7,3-1.6,4
			c-2.3,2.4-5.4,3.5-6.8,5.2c0,0,3.8-2.2,5.6-3.2S91.9,184.4,90,178z"/>
	</g>
	<path fill="#AED6D3" d="M117.1,193.7c0,0,2.5,5.2,3.5,18.1c0,0-1.2-7.1-2.3-11.4c-1.1-4.3-2.9-8.9-4.6-12.5
		C113.7,188,116.3,191.3,117.1,193.7z"/>
	<path fill="#858C85" d="M92.9,38.5c2.1,1.2,4.6,1.6,7.1,1.5c2.4-0.1,4.8-0.6,7.2-1.1c-2.2,0.8-4.4,1.7-6.7,2.1
		c-2.3,0.4-4.7,0.4-6.9-0.4c-2.1-0.8-4.1-2.4-6.4-2.3c-0.7,0.1-1.4,0.3-2.1,0.5c-2.7,0.9-5.4,1.8-8.2,2.7c2.9-1.9,6.1-3.3,9.4-4.2
		c1.3-0.4,2.6-0.6,3.9-0.3C91.2,37.3,92,38,92.9,38.5z"/>
</g>
<g id="Charlie_Line">
	<g>
		<g>
			<path fill="#605D5B" d="M74.2,175c-0.8,9.4-0.8,18.9-0.6,28.3c0,1,1.6,1,1.6,0c-0.1-9.5,0.2-18.9,0.3-28.3
				C75.5,174.2,74.2,174.2,74.2,175L74.2,175z"/>
		</g>
	</g>
	<g>
		<g>
			<path fill="#605D5B" d="M134.7,156.3c3.6,0.1,6.8,0.5,10.1,2.1c0.8,0.4,1.5-0.7,0.7-1.2c-3-2.3-7.2-2.1-10.8-2
				C133.9,155.2,133.9,156.3,134.7,156.3L134.7,156.3z"/>
		</g>
	</g>
	<g>
		<g>
			<path fill="#605D5B" d="M134,212.4c2.1,0.2,4.1,0.4,6.2,0.7c0.8,0.1,1-1.3,0.2-1.5c-2.1-0.4-4.3-0.5-6.4-0.3
				C133.3,211.4,133.3,212.3,134,212.4L134,212.4z"/>
		</g>
	</g>
	<g>
		<g>
			<path fill="#AD846F" d="M181.3,49.6c4-7.7,8.6-15.6,17.4-18.1c2.9-0.8,9.9,0.9,10.9-3.2c0.9-3.7-2-5.8-5.2-6.7
				c-4.9-1.4-9.9,0.4-14.1,2.9c-0.6,0.4-0.1,1.3,0.6,0.9c4.4-2.4,13-5.6,16.6-0.4c2.8,3.9-2.9,4.3-5.7,4.5c-2,0.2-4,0.8-5.9,1.5
				c-7.7,3.1-12.4,10.7-15.7,18C179.9,49.7,180.9,50.3,181.3,49.6L181.3,49.6z"/>
		</g>
	</g>
	<g>
		<g>
			<path fill="#AD846F" d="M170.1,40c-0.3,0.3-0.5,0.7-0.7,1.1c-0.2,0.4-0.4,0.8-0.6,1.2c-0.3,0.8,0.9,1.2,1.3,0.6
				c0.2-0.3,0.4-0.7,0.6-1c0.2-0.4,0.4-0.7,0.5-1.1C171.2,40.1,170.6,39.6,170.1,40L170.1,40z"/>
		</g>
	</g>
	<g>
		<g>
			<path fill="#AD846F" d="M180.1,40.9c-2.8,1.2-5.6,0.6-8.1-1c-3.1-2-3.2-6-2.7-9.2c0.4-2.4,0.9-4.2,0.3-6.7
				c-0.5-2.4-3.2-5.7-1.5-7.9c3.2-4.1,7,2.8,8.4,5.1c0.4,0.6,1.3,0.1,0.9-0.6c-1.5-2.7-4.3-8-8.2-6.9c-2.7,0.7-3.3,3.1-2.8,5.4
				c0.9,4.1,3.1,4.8,2,9.6c-0.4,1.6-1.2,3-1.4,4.7c-0.3,2.2,0.3,4,1.7,5.7c2.9,3.4,7.8,5,11.8,2.9C181.3,41.8,180.8,40.6,180.1,40.9
				L180.1,40.9z"/>
		</g>
	</g>
	<g>
		<g>
			<path fill="#AD846F" d="M177.5,21.5c1.7-3.8,6.7-6.9,9.9-9.3c3.7-2.7,12.9-9.6,14.6-0.7c0.1,0.7,1.2,0.4,1.1-0.3
				c-0.4-2-1.3-5.4-3.6-6.1c-2-0.6-5.3,1.4-7,2.2c-3.6,1.9-6.8,4.3-9.9,6.9c-2.4,2-5.2,3.7-6,6.9C176.5,21.7,177.3,22.1,177.5,21.5
				L177.5,21.5z"/>
		</g>
	</g>
	<g>
		<g>
			<path fill="#AD846F" d="M203.9,22.3c2-0.7,5.2-1.1,5.8-3.4c0.6-2.3-0.5-5.1-2.6-6.3c-6-3.3-15.5,2.1-19.4,6.6
				c-0.5,0.6,0.3,1.5,0.9,0.9c2.9-3.2,7.2-5.7,11.4-6.7c2.6-0.6,10.1-0.8,8.4,4.4c-0.6,2-3.3,2.5-5,3.3
				C202.8,21.4,203.2,22.5,203.9,22.3L203.9,22.3z"/>
		</g>
	</g>
	<g>
		<g>
			<path fill="#AD846F" d="M33.4,50c-3.2-6.9-7.7-14.5-14.9-17.6c-2-0.9-13-2-13.2-4.1c-0.3-2.2,2.5-4.2,4.3-4.7
				c1.8-0.5,3.5-0.3,5.3-0.1c2.8,0.4,5.4,1.5,7.9,2.8c0.6,0.3,1.2-0.6,0.6-0.9c-4.2-2.5-9.2-4.3-14.1-2.9c-3.3,0.9-6.1,3-5,6.6
				c1.4,4.4,7.3,2.4,10.7,3.3c8.8,2.6,13.5,10.4,17.4,18.1C32.7,51.3,33.7,50.7,33.4,50L33.4,50z"/>
		</g>
	</g>
	<g>
		<g>
			<path fill="#AD846F" d="M42.5,41.7c0.1,0.5,0.4,0.9,0.6,1.4c0.2,0.5,0.4,0.9,0.7,1.3c0.4,0.6,1.6,0.3,1.3-0.6
				c-0.2-0.5-0.5-1-0.7-1.4c-0.3-0.4-0.5-1-0.9-1.3C43.1,40.6,42.4,41.1,42.5,41.7L42.5,41.7z"/>
		</g>
	</g>
	<g>
		<g>
			<path fill="#587572" d="M88.8,130.6c-2.5,0.4-5.9,2.2-4.8,5.3c1,3,5.1,4.1,7.9,4.1c0.9,0,0.9-1.3,0-1.3c-2,0-4.3-0.6-5.8-2.1
				c-2.5-2.5,1-4.2,3-4.8C89.9,131.5,89.6,130.5,88.8,130.6L88.8,130.6z"/>
		</g>
	</g>
	<g>
		<g>
			<path fill="#587572" d="M111.4,131c2.4-0.6,5.2,2.2,3.7,4.5c-0.9,1.5-3,3-4.8,3.2c-1,0.1-1,1.6,0,1.5c2.8-0.1,6.7-3,6.9-5.9
				c0.1-3.1-3.2-5.6-6.1-4.5C110.5,130.2,110.7,131.2,111.4,131L111.4,131z"/>
		</g>
	</g>
	<g>
		<g>
			<path fill="#997261" d="M89.7,126.2c0,1.4-0.4,2.7-0.9,4.1c-0.4,1.3-0.7,2.6-1.8,3.6c-0.6,0.5,0.2,1.5,0.9,1.1
				c1.4-0.8,1.7-2.3,2.2-3.8c0.6-1.7,1-3.3,0.7-5.2C90.7,125.5,89.7,125.6,89.7,126.2L89.7,126.2z"/>
		</g>
	</g>
	<g>
		<g>
			<path fill="#997261" d="M109.6,126c0.3,2.4,0.5,5.9,2.9,7.3c0.9,0.5,1.7-0.9,0.8-1.4c-1.8-1.1-1.8-4.2-2.3-6.1
				C110.8,125.1,109.5,125.2,109.6,126L109.6,126z"/>
		</g>
	</g>
	<g>
		<g>
			<path fill="#587572" d="M156.4,53.6C150.3,67,144,80.3,136.9,93.2c-0.4,0.8,0.7,1.5,1.2,0.7c7.5-12.7,14-26.2,19.4-39.9
				C157.7,53.4,156.7,53,156.4,53.6L156.4,53.6z"/>
		</g>
	</g>
	<g>
		<g>
			<path fill="#587572" d="M53.8,56.7c0.9,3.2,2.1,6.5,3.8,9.4c0.5,0.8,1.6,0.1,1.2-0.7c-1.3-3-2.6-6-3.8-9.1
				C54.9,55.5,53.6,55.8,53.8,56.7L53.8,56.7z"/>
		</g>
	</g>
	<g>
		<g>
			<path fill="#AD846F" d="M62.7,98.9c-0.1-4.1,0.7-8.2-0.2-12.3c-0.2-0.9-1.6-0.5-1.4,0.4c0.8,4,0,8,0.6,12.1
				C61.7,99.6,62.7,99.5,62.7,98.9L62.7,98.9z"/>
		</g>
	</g>
	<path fill="#DBDBDB" d="M109.2,107.8c-0.4-0.2,6.8,0.7,9.8-1.1v2.2C119,109,115.3,110.5,109.2,107.8z"/>
	<g>
		<g>
			<path fill="#373A37" d="M67.2,22.5c-9.5,19.4-11.5,43.2-6.3,64.1c0.2,0.9,1.7,0.5,1.5-0.4c-4.7-21.7-2.2-42.8,5.9-63.3
				C68.5,22.3,67.5,21.9,67.2,22.5L67.2,22.5z"/>
		</g>
	</g>
	<g>
		<g>
			<path fill="#373A37" d="M68.2,23.2c11.3-9.1,27.7-7.4,40.8-3.6c14.2,4.2,26.7,12.8,33.4,26.3c0.5,0.9,1.8,0.1,1.4-0.8
				c-6.9-14.5-20.8-23.5-36-27.6c-13.2-3.5-29.5-4.8-40.5,4.8C66.6,22.8,67.6,23.7,68.2,23.2L68.2,23.2z"/>
		</g>
	</g>
	<g>
		<g>
			<path fill="#373A37" d="M142.4,45.5c0.2,7.9,0.9,15.6,0.1,23.5c-0.9,8.4-3,16.4-5.9,24.3c-0.4,1.1,1.3,1.5,1.7,0.5
				c5.7-14.9,8.5-32.6,5.2-48.5C143.4,44.7,142.4,44.8,142.4,45.5L142.4,45.5z"/>
		</g>
	</g>
	<g>
		<g>
			<path fill="#373A37" d="M73.3,18.6c-2.2,4.6-3.5,9.5-4.3,14.5c-0.2,1,1.3,1.4,1.5,0.4c1-4.9,2.2-9.8,4.1-14.4
				C75,18.5,73.7,17.9,73.3,18.6L73.3,18.6z"/>
		</g>
	</g>
	<g>
		<g>
			<path fill="#373A37" d="M77.5,17.1c-1.1,2.1-1.9,4.2-2.5,6.5c-0.3,1.1,1.4,1.5,1.7,0.5c0.5-2.1,1.3-4.1,2.2-6.1
				C79.4,17,78,16.1,77.5,17.1L77.5,17.1z"/>
		</g>
	</g>
	<g>
		<g>
			<path fill="#373A37" d="M81,16.8c-1.5,3.4-2.7,6.9-3.6,10.5c-0.3,1.1,1.4,1.6,1.7,0.5c1-3.5,2.2-6.9,3.4-10.3
				C82.9,16.6,81.4,15.9,81,16.8L81,16.8z"/>
		</g>
	</g>
	<g>
		<g>
			<path fill="#373A37" d="M111.5,45.4c-2.4,3.5-1.6,9.3-1.7,13.3c0,1,1.1,1.3,1.8,0.7c4.1-3.3,11.1,0.9,14.3,3.7
				c0.7,0.6,1.6-0.3,1-1c-3.5-4.3-11.6-7.9-16.6-4.3c0.5,0.3,1,0.6,1.6,0.9c0.1-4.2-0.4-8.8,0.8-12.8
				C113,45.2,111.9,44.8,111.5,45.4L111.5,45.4z"/>
		</g>
	</g>
	<g>
		<g>
			<path fill="#373A37" d="M112.1,46.1c9.8-2,16.6,7.2,13.8,16.4c-0.2,0.7,0.8,1.1,1.1,0.5c2-4,0.8-10-1.8-13.6
				c-3.1-4.3-8.5-6-13.5-4.4C111.1,45.2,111.4,46.3,112.1,46.1L112.1,46.1z"/>
		</g>
	</g>
	<g>
		<g>
			<path fill="#373A37" d="M84.6,46.1c-1.2,0.5-1.2,3.3-1.3,4.3c-0.4,2.7-0.7,5.5-0.6,8.2c0,0.9,1.2,0.8,1.3,0
				c0.2-2.1,0.3-4.3,0.5-6.4c0.2-1.6,0.1-3.9,0.9-5.4C85.7,46.3,85.1,45.8,84.6,46.1L84.6,46.1z"/>
		</g>
	</g>
	<g>
		<g>
			<path fill="#373A37" d="M84.5,45.8c-10.3,0.4-16.9,10-15.3,19.8c0.1,0.5,0.9,0.7,1.2,0.3c3.3-3.8,8.1-5,12.8-6.1
				c0.9-0.2,0.5-1.6-0.4-1.4c-5,1.2-9.8,2.6-13.4,6.5c0.4,0.1,0.8,0.2,1.2,0.3c-1.5-9.5,4.9-16.8,14.1-18.2
				C85.3,46.8,85.2,45.7,84.5,45.8L84.5,45.8z"/>
		</g>
	</g>
	<g>
		<g>
			<path fill="#373A37" d="M69.3,57.5c-4,2.7-6.8,4.4-7.6,9.3c-0.8,5.5-1.4,10.9-1.3,16.5c0,0.6,0.9,0.6,0.9,0
				c0.2-4.6,0.7-9.1,1.3-13.7c0.5-3.5,0.4-5.2,3.3-7.9c1.3-1.2,2.9-2.1,4.2-3.2C70.7,58,70,57.1,69.3,57.5L69.3,57.5z"/>
		</g>
	</g>
	<g>
		<g>
			<path fill="#373A37" d="M84.1,52c8.4-0.4,17.1-3.1,25.2-0.3c1.1,0.4,1.6-1.4,0.5-1.8c-7.8-3-17.9-0.9-25.9,0.9
				C83.3,50.9,83.4,52,84.1,52L84.1,52z"/>
		</g>
	</g>
	<g>
		<g>
			<path fill="#AD846F" d="M132.5,96.6c0.1-1.6-0.1-3.1-0.3-4.7c-0.1-0.8-1.4-0.6-1.3,0.2c0.1,1.5,0.4,3,0.5,4.5
				C131.4,97.4,132.5,97.4,132.5,96.6L132.5,96.6z"/>
		</g>
	</g>
	<g>
		<g>
			<path fill="#587572" d="M89.2,126.1c-5.2,0.2-9.2,5.7-9.9,10.5c-0.8,5.8,1.5,16.6,6.6,20.2c0.6,0.4,1.3-0.5,0.8-1
				c-7-6.1-9.8-26.9,2.6-28.7C89.9,127.1,89.8,126.1,89.2,126.1L89.2,126.1z"/>
		</g>
	</g>
	<g>
		<g>
			<path fill="#373A37" d="M127.4,58.2c0.6,0.5,1.2,1.1,1.7,1.8c0.4,0.7,0.9,1.5,1.2,2.2c0.2,0.6,1.2,0.4,1-0.3
				c-0.2-1-0.5-1.8-1.1-2.7c-0.6-0.8-1.2-1.4-2-2C127.6,56.9,126.8,57.8,127.4,58.2L127.4,58.2z"/>
		</g>
	</g>
	<g>
		<g>
			<path fill="#373A37" d="M130.1,62.3c0.1,9.7,0.7,19.3,0.7,29c0,1,1.5,1,1.5,0c-0.1-9.6-0.2-19.4-1.2-29
				C131,61.6,130.1,61.6,130.1,62.3L130.1,62.3z"/>
		</g>
	</g>
	<g>
		<g>
			<path fill="#AD846F" d="M61.5,94.6c0.5-0.2,0-0.2-0.6-0.5c-0.9-0.4-2.1-0.7-3.1-0.5c-2.1,0.5-2.8,2.8-3,4.7
				c-0.5,3.9,1.6,10.5,6.8,8.8c0.8-0.3,0.5-1.5-0.4-1.3c-3.8,0.9-5.2-3.7-5-6.7c0.1-2,1.4-4.4,3.7-3.9c0.6,0.1,1.1,0.4,1.8,0.4
				c0.3,0,0.4-0.2,0.5-0.4c0,0,0,0,0,0C62.3,94.9,61.9,94.5,61.5,94.6L61.5,94.6z"/>
		</g>
	</g>
	<g>
		<g>
			<path fill="#587572" d="M115,153.9c6.2-4,12.5-10.8,11.6-18.8c-0.6-5.6-6-12-12.1-11.1c-0.8,0.1-0.7,1.6,0.2,1.5
				c6.6-0.7,11.2,7,10.4,12.8c-0.9,6.3-5.8,11.1-10.7,14.8C114,153.4,114.5,154.3,115,153.9L115,153.9z"/>
		</g>
	</g>
	<g>
		<g>
			<path fill="#AD846F" d="M132.3,94.2c3.3-0.9,8.3,0.4,7.2,4.9c-0.7,2.9-4.9,5.6-7.9,4.5c-0.9-0.3-1.4,1.1-0.6,1.5
				c4,2,9.8-2.4,10.2-6.5c0.5-5.3-5.1-7-9.3-5.6C131.2,93.2,131.5,94.4,132.3,94.2L132.3,94.2z"/>
		</g>
	</g>
	<g>
		<g>
			<path fill="#AD846F" d="M61.2,106.9c-0.3,3.6,0.9,7.7,2.2,11c0.3,0.7,1.5,0.4,1.2-0.3c-1.1-3.4-2.4-7.1-2.3-10.7
				C62.2,106.2,61.2,106.2,61.2,106.9L61.2,106.9z"/>
		</g>
	</g>
	<g>
		<g>
			<path fill="#AD846F" d="M63.8,118.7c6.9,7.9,21.8,8.1,31.5,8.7c12.8,0.7,24.8-2.4,36.2-8.2c0.9-0.5,0.1-1.9-0.8-1.4
				c-10.7,5.2-21.6,8.5-33.5,8c-10.5-0.4-24.1-0.8-32.5-7.8C64,117.5,63.3,118.1,63.8,118.7L63.8,118.7z"/>
		</g>
	</g>
	<g>
		<g>
			<path fill="#AD846F" d="M130.9,104.4c0.2,4.6-0.2,9.2-0.4,13.8c0,1,1.4,0.9,1.5,0c0.5-4.5,0.5-9.3,0-13.8
				C132,103.7,130.8,103.6,130.9,104.4L130.9,104.4z"/>
		</g>
	</g>
	<g>
		<g>
			<path fill="#E0AA86" d="M102.2,80.5c-0.1,6.2,3.1,13.3,10.3,13.1c7.3-0.2,8.8-8.6,8.8-14.5c0.1-5.6-3-13-9.7-12.7
				c-7.2,0.4-8.8,8.3-9.5,14c-0.1,0.7,1.1,0.9,1.2,0.2c0.7-3,0.9-6.2,2.6-8.9c2.6-3.9,7.5-4.9,11-1.4c2.1,2.2,2.7,5.1,2.8,7.9
				c0.1,4.7-0.5,11.6-5.6,13.2c-7,2.2-10.6-5.3-10.8-11.1C103.2,79.8,102.2,79.8,102.2,80.5z"/>
		</g>
	</g>
	<g>
		<g>
			<path fill="#E0AA86" d="M89.1,81.3c-0.4,2.3-1.1,4.4-2.4,6.4c-2.3,3.3-7.2,6-10.3,0.3c-1.6-2.9-1.1-10.4,0-13.2
				c0.8-2.1,2.2-4.2,4.3-5.3c5.3-2.8,7.3,2.4,7.8,6.5c0.2,1.9,0.3,3.8,0.7,5.7c0.1,0.5,1,0.6,1.1,0c0.8-4.1,0.2-12.9-4.7-14.4
				c-6.2-1.9-10.6,5.1-11.3,10.2c-0.6,4.7-0.8,14.4,5.6,15.3c6.2,0.8,9.7-6.1,10.4-11.3C90.2,80.9,89.2,80.7,89.1,81.3z"/>
		</g>
	</g>
	<g>
		<g>
			<path fill="#AD846F" d="M103.1,81.6c5.5-3.9,11.8-3,16.5,1.5c0.7,0.7,1.7-0.3,1-1c-4.7-5.4-12.6-5.8-18.2-1.6
				C101.8,80.9,102.4,82.1,103.1,81.6L103.1,81.6z"/>
		</g>
	</g>
	<g>
		<g>
			<path fill="#AD846F" d="M74.9,82c3.4-5.1,10.3-4.9,13.5,0.2c0.5,0.8,1.9,0.1,1.4-0.8c-3.7-6.2-12.2-6-15.9,0
				C73.5,82,74.5,82.6,74.9,82L74.9,82z"/>
		</g>
	</g>
	<g>
		<g>
			<path fill="#AD846F" d="M79.9,100.6c12.4,3.9,25.8,3.4,38.4,0.9c0.9-0.2,0.5-1.5-0.4-1.3c-12.7,2.4-25.3,2.8-37.8-0.5
				C79.5,99.5,79.2,100.5,79.9,100.6L79.9,100.6z"/>
		</g>
	</g>
	<g>
		<g>
			<path fill="#AD846F" d="M79.1,100.4c0.1,6.2,3.7,11.9,7.1,16.9c0.5,0.7,1.7,0,1.2-0.7c-3.5-5.2-6.1-10.1-7.2-16.3
				C80.1,99.6,79.1,99.7,79.1,100.4L79.1,100.4z"/>
		</g>
	</g>
	<g>
		<g>
			<path fill="#AD846F" d="M87.3,117.7c8.5,2.2,20,1.3,27.5-3.6c4.2-2.7,7.6-9.2,3.8-13.8c-0.6-0.8-1.6,0.3-1.1,1.1
				c2.2,2.9,0.3,8.2-1.8,10.2c-2.2,2.1-5.4,3.3-8.4,4.1c-6.4,1.7-13.3,2.2-19.8,0.8C86.8,116.4,86.5,117.5,87.3,117.7L87.3,117.7z"
				/>
		</g>
	</g>
	<g>
		<g>
			<path fill="#587572" d="M37.8,65.2c7.2,10.3,9.4,22.6,13.6,34.2c1.9,5.3,4.6,10.2,7,15.4c2.9,6.4,3.9,13,5.2,19.8
				c2.5,13.1,7.5,25.6,10.5,38.7c3.2,14.1,4.1,31.2-9.6,40.2c-0.8,0.5-0.1,1.8,0.8,1.3c25.1-14.8,6.6-52.9,1.4-73.4
				c-1.7-6.9-2.3-14.1-4.4-20.8c-2.2-7-6.3-13.1-8.9-19.9c-4.7-12.1-6.6-25.4-14.7-35.9C38.4,64.1,37.4,64.6,37.8,65.2L37.8,65.2z"
				/>
		</g>
	</g>
	<g>
		<g>
			<path fill="#587572" d="M86.9,156.1c-1.2-5-1.7-17.3,6.7-15.6c6,1.2,4.4,11.5,4,15.7c-0.5,4.6-1.4,9.2-0.8,13.8
				c0.6,4.9,3,8.1,5.8,12c3.7,5.1,6,10.8,4.5,17.2c-1.3,5.8-5.5,10.5-9.9,14.3c-2,1.7-4.6,4.3-7,5.4c-2.7,1.2-5.9-0.2-8.6-0.6
				c-5.8-0.8-11.7-0.4-16.4-4.5c-0.8-0.6-1.9,0.5-1.1,1.1c5.5,4.7,12.1,3.8,18.8,5.2c2.4,0.5,4.6,1.8,7,0.9c2.4-0.9,4.7-3.2,6.6-4.8
				c11.3-9,17.1-21.5,8.1-34.3c-3.1-4.5-5.9-8-6.2-13.7c-0.2-4,0.5-8,0.9-12c0.5-4.5,1.6-11.5-1.8-15.3c-2.4-2.6-7.1-2.9-9.7-0.4
				c-3.9,3.7-3.3,11.4-2,16C85.8,157.3,87,156.9,86.9,156.1L86.9,156.1z"/>
		</g>
	</g>
	<g>
		<g>
			<path fill="#587572" d="M96,215.7c-0.1,3.9,1,7.1,3.5,10.2c0.2,0.3,0.7,0.2,0.9,0c5.6-4.6,12.6-3.9,19.4-3.8
				c5.1,0,10.1-0.5,15.1-1.6c0.9-0.2,0.5-1.6-0.4-1.4c-8.3,1.7-16.3,0.7-24.6,1.6c-2.2,0.3-4.4,0.7-6.4,1.6
				c-0.1,0.1-2.8,1.6-2.8,1.6c-3.3-0.4-3.5-5.9-3.6-8.2C97.1,215,96.1,215,96,215.7L96,215.7z"/>
		</g>
	</g>
	<g>
		<g>
			<path fill="#587572" d="M135.6,219.6c-3.2-14.4,0.1-28.5,0.5-43c0.2-6.7-0.7-13.3-0.9-20c-0.3-7.4,0.9-14.6,3.2-21.6
				c4.3-13.3,10.3-26.4,16.4-38.9c2.9-5.9,6.1-11.6,9.4-17.3c1.4-2.4,2.7-4.9,3.8-7.5c1.3-3.2,2.2-7.2,6-8.2
				c0.9-0.3,0.5-1.7-0.4-1.5c-4.1,0.9-5.3,4.6-6.7,8.1c-2.9,7.2-7.4,13.7-11,20.6c-6.7,13.1-12.7,27-17.8,40.9
				c-2.3,6.4-4.1,13-4.4,19.9c-0.3,7.9,1.1,15.8,1,23.7c-0.1,15-4.4,30.3-0.4,45.1C134.6,220.6,135.7,220.3,135.6,219.6L135.6,219.6
				z"/>
		</g>
	</g>
	<g>
		<g>
			<path fill="#587572" d="M99.1,148c1.6-4.3,9.6-11.5,13.8-6c2.7,3.5,2.1,6.8,1.1,10.8c-0.2,0.8,0.9,1.3,1.3,0.6c0,0,0,0,0,0
				c0.4-0.8-0.8-1.5-1.2-0.7c0,0,0,0,0,0c0.4,0.2,0.9,0.4,1.3,0.6c0.6-2,1.3-4.4,1.1-6.5c-0.3-2.3-2.1-6.2-4.3-7.3
				c-2.5-1.3-6.5,0.2-8.7,1.6c-2.7,1.6-4.4,4-5.5,6.9C97.8,148.4,98.9,148.7,99.1,148L99.1,148z"/>
		</g>
	</g>
	<g>
		<g>
			<path fill="#82786F" d="M152.2,46.5c-0.2,2.6-0.1,5.2,0.2,7.8c0.1,0.7,1.4,0.6,1.3-0.2c-0.3-2.5-0.4-5-0.4-7.6
				C153.4,45.7,152.2,45.8,152.2,46.5L152.2,46.5z"/>
		</g>
	</g>
	<g>
		<g>
			<path fill="#82786F" d="M153.1,54.9c1.7-0.7,3.3-0.8,5.2-0.8c0.7,0,0.9-1.2,0.2-1.3c-2-0.4-4.1,0.1-5.8,1.2
				C152.2,54.2,152.5,55.2,153.1,54.9L153.1,54.9z"/>
		</g>
	</g>
	<g>
		<g>
			<path fill="#82786F" d="M159.7,47.7c-0.8,1.7-1.3,3.5-1.9,5.2c-0.3,0.8,1,1.1,1.2,0.3c0.6-1.7,1.2-3.4,1.6-5.2
				C160.7,47.5,159.9,47.1,159.7,47.7L159.7,47.7z"/>
		</g>
	</g>
	<g>
		<g>
			<path fill="#82786F" d="M159.9,47.7c0,1.9-0.1,3.8-0.1,5.8c0,0.8,1.1,0.8,1.2,0c0.2-1.9,0.2-3.9,0-5.8
				C160.9,47,159.9,47,159.9,47.7L159.9,47.7z"/>
		</g>
	</g>
	<g>
		<g>
			<path fill="#82786F" d="M160.5,54.1c3.8,0.3,7.3,0.8,9.8,4c1.5,2,3.9,4.4,4.2,7c0.1,0.9,1.4,0.9,1.4,0c-0.1-1.7-0.7-2.9-1.7-4.2
				c-1.1-1.4-2.2-3.1-3.4-4.4c-2.6-2.9-6.6-3.7-10.4-3.4C159.8,53.1,159.8,54,160.5,54.1L160.5,54.1z"/>
		</g>
	</g>
	<g>
		<g>
			<path fill="#82786F" d="M153.2,46.5c9.9-8.1,27.3-1.9,29.4,10.6c0.1,0.9,1.7,0.7,1.5-0.2c-0.8-6-5.5-12-11.3-13.9
				c-6.2-2-15.5-2.2-20.4,2.7C151.8,46.2,152.6,46.9,153.2,46.5L153.2,46.5z"/>
		</g>
	</g>
	<g>
		<g>
			<path fill="#82786F" d="M183,57c-3,2.2-5.7,4.9-7.9,7.8c-0.6,0.7,0.4,1.8,1.1,1.1c2.5-2.7,5.1-5.3,7.6-8
				C184.2,57.5,183.6,56.6,183,57L183,57z"/>
		</g>
	</g>
	<g>
		<g>
			<path fill="#82786F" d="M53,43.1c0.3,4.2,2.2,8,2.1,12.2c0,0.8,1.2,0.8,1.3,0c0.4-4.2-1.4-8.3-2.2-12.4C54,42.3,53,42.4,53,43.1
				L53,43.1z"/>
		</g>
	</g>
	<g>
		<g>
			<path fill="#82786F" d="M55.6,54.9c-1.5-0.2-3.4,0.1-4.7,0.8c-0.6,0.4-0.2,1.2,0.5,1.1c0.7-0.1,1.3-0.4,2-0.5
				c0.7-0.1,1.5-0.2,2.2-0.2C56.4,56.1,56.4,55,55.6,54.9L55.6,54.9z"/>
		</g>
	</g>
	<g>
		<g>
			<path fill="#82786F" d="M48.2,48.9c0.8,2.4,1.3,4.9,1.8,7.4c0.1,0.6,1.2,0.5,1.2-0.2c-0.2-2.6-1-5.2-2-7.6
				C48.9,48,48,48.3,48.2,48.9L48.2,48.9z"/>
		</g>
	</g>
	<g>
		<g>
			<path fill="#82786F" d="M48,48.7c-1,3-1.3,6.2-0.7,9.3c0.1,0.7,1.4,0.6,1.3-0.2c-0.3-3-0.2-5.8,0.4-8.8
				C49.1,48.3,48.2,48.1,48,48.7L48,48.7z"/>
		</g>
	</g>
	<g>
		<g>
			<path fill="#82786F" d="M47.5,57.7c-4.6,0.6-8.9,3.9-11,8c-0.4,0.8,0.7,1.4,1.1,0.7c2.5-3.9,5.8-6.2,10.1-7.7
				C48.5,58.6,48.2,57.6,47.5,57.7L47.5,57.7z"/>
		</g>
	</g>
	<g>
		<g>
			<path fill="#82786F" d="M36.8,65.9c-3.2-2.7-5.8-5.9-8.1-9.4c-0.4-0.7-1.5-0.1-1.1,0.6c2,3.9,5,7.1,8.5,9.7
				C36.6,67.2,37.3,66.3,36.8,65.9L36.8,65.9z"/>
		</g>
	</g>
	<g>
		<g>
			<path fill="#82786F" d="M28.5,57c4.9-9.4,15.1-12.8,25.1-13.2c0.9,0,0.9-1.5,0-1.4c-10.3,0.4-21.5,4-26.1,14
				C27.2,57.1,28.2,57.7,28.5,57L28.5,57z"/>
		</g>
	</g>
	<g>
		<g>
			<path fill="#AD846F" d="M33.1,43.1c4,2.1,8.9,0.5,11.8-2.9c1.4-1.7,1.9-3.4,1.8-5.5c-0.1-1.8-1.2-3.2-1.5-4.9
				c-0.6-3.5,0.4-5.7,1.7-8.9c1-2.6,0.4-5.6-3.3-6.2c-3.6-0.5-5.8,4.7-7,7c-0.3,0.6,0.6,1.2,0.9,0.6c0.5-0.9,1-2.1,1.7-3
				c1.7-2.1,5.8-4,6.4-0.4c0.4,2.5-1.6,5.1-1.9,7.7c-0.2,1.8,0.4,3.3,0.6,5.1c0.4,3.3,0.5,7.1-2.7,9.2c-2.5,1.6-5.3,2.2-8.1,1
				C32.9,41.6,32.4,42.8,33.1,43.1L33.1,43.1z"/>
		</g>
	</g>
	<g>
		<g>
			<path fill="#AD846F" d="M37.1,22.1c-0.7-2.9-3.1-4.5-5.3-6.4c-3.3-2.7-6.7-5.4-10.5-7.4c-1.7-0.9-4.9-2.8-6.9-2.3
				c-2.3,0.7-3.3,4.1-3.7,6.1c-0.1,0.7,0.9,1,1.1,0.3c1.7-9,10.8-2,14.6,0.7c3.3,2.4,8.2,5.5,9.9,9.3C36.4,23,37.2,22.7,37.1,22.1
				L37.1,22.1z"/>
		</g>
	</g>
	<g>
		<g>
			<path fill="#AD846F" d="M9.7,22c-1.5-0.7-4.4-1.5-4.4-3.5c0-1.8,2.6-4,4.1-4.3c1.6-0.4,3.5,0,5,0.4c4,1.1,8,3.5,10.8,6.5
				c0.6,0.6,1.4-0.3,0.9-0.9c-3.9-4.5-13.3-9.8-19.3-6.6c-2.1,1.1-2.7,3-2.7,5.3c0,3.1,2.6,3.2,5.2,4.2C9.8,23.3,10.3,22.2,9.7,22
				L9.7,22z"/>
		</g>
	</g>
	<g>
		<g>
			<path fill="#605D5B" d="M138.1,160.5c-0.9,8.4-1.5,16.7-2,25.1c-0.4,7.1-1.2,14.6-0.7,21.7c0.6,7,8.9,8,10.1,0.7
				c0.6-3.4-0.1-7-0.2-10.4c-0.1-3.9-0.2-7.8-0.1-11.7c0.1-4.2,0.4-8.5,0.8-12.7c0.4-3.9,1.6-7.9,1.8-11.8c0.4-6.5-9.9-7.2-9.9-0.8
				c0,1,1.6,1,1.6,0c0.4-2.2,1.9-3.1,4.3-2.5c2,1.7,2.6,3.6,1.8,5.7c-0.1,0.9-0.4,1.9-0.6,2.7c-0.8,4.5-1,9.1-1.3,13.6
				c-0.3,4.6-0.4,9.1-0.3,13.7c0.1,4.3,1.5,9.8,0.4,14c-1.3,5-6.5,4.7-6.9-0.4c-0.1-1.7,0-3.5,0-5.2c0.1-4.5,0.3-9,0.5-13.6
				c0.5-9.4,1.2-18.7,1.9-28C139.6,159.6,138.2,159.7,138.1,160.5L138.1,160.5z"/>
		</g>
	</g>
</g>
<g id="Desk_Color">
</g>
<g id="Charlie_Line_1_">
</g>
<g id="Laptop_Color">
</g>
<g id="Laptop_Line">
</g>
<g id="Icons_Color">
</g>
<g id="Icons_Line">
</g>
<g id="Boy_Color">
</g>
<g id="Boy_Line">
</g>
<g id="Girl_Color">
</g>
<g id="Girl_Line">
</g>
<g id="Bald_Color">
</g>
<g id="Bald_Line">
</g>
</svg>
