<svg xmlns="http://www.w3.org/2000/svg" viewBox="0 0 1062 19" enable-background="new 0 0 1062 19"><path fill="#C3C3C3" d="M1061.5 12.1c.1-.4 0-.8-.3-1.1-2.4.1-4.8.2-7.2.5-17.4 2.5-34.8 2.2-52.3-.3-14.6-2-29.5-3.2-44.2-3.2-17.5 0-34.9 2.5-52.4 2.7-57.6.7-115.3 2.1-172.7-5.4-6.1-.8-12.3-.3-18.5-.2-19.6.5-39.3 1.2-58.9 1.6-6 .1-12-.8-17.9-.7-20.6.3-41.3 1.4-61.9 1.2-25-.2-49.9-1.9-74.9-2-50.5-.1-99-1-149.5-.9-12 0-25.9-.2-37.8 0-22 .4-43.9 2.6-65.9 2.3-45.4-.6-90.8 2.7-136.3-.7-25.4-1.9-51-.8-76.5-.7-11 .1-22 1.1-33 1.7 0 .1-.1.1-.2.1-.5 0-.8.3-.8.7.4.7 1.3 1.1 2.1 1.2h.1C15 8.3 27.4 7.4 39.9 7.4c26 0 52-.3 77.9 1.1 13.6.7 27.2.8 40.8.9 61.4.2 103.6-1.3 150.8-3.1 17.1-.6 55.3.8 82.9.9 47.3.2 94.7-1.6 141.9.6 44.8 2 89.5.2 134.2 1.1 1.7 0 3.3-.2 5-.3 23.8-.4 47.5-2.8 71.4-.3 30.1 3.2 60.4 5.7 90.8 4.9 18.2-.5 36.3 0 54.5-.5 14-.3 26.4-.2 39.9-1.9 12.7-1.6 27.6-1 40.4-.3 14.8.8 29.5 3.8 44.2 4.2 15.3.4 30.7-1.1 46.1-1.8.4 0 .7-.3.8-.8z"/></svg>