<?xml version="1.0" encoding="utf-8"?>
<!-- Generator: Adobe Illustrator 18.1.1, SVG Export Plug-In . SVG Version: 6.00 Build 0)  -->
<svg version="1.1" id="Layer_1" xmlns="http://www.w3.org/2000/svg" xmlns:xlink="http://www.w3.org/1999/xlink" x="0px" y="0px"
	 viewBox="0 0 1062 19" enable-background="new 0 0 1062 19" xml:space="preserve">
<g id="M27DMS.tif">
	<g>
		<path fill="#C3C3C3" d="M1061.5,12.1c0.1-0.4,0-0.8-0.3-1.1c-2.4,0.1-4.8,0.2-7.2,0.5c-17.4,2.5-34.8,2.2-52.3-0.3
			C987.1,9.2,972.2,8,957.5,8c-17.5,0-34.9,2.5-52.4,2.7c-57.6,0.7-115.3,2.1-172.7-5.4c-6.1-0.8-12.3-0.3-18.5-0.2
			c-19.6,0.5-39.3,1.2-58.9,1.6c-6,0.1-12-0.8-17.9-0.7c-20.6,0.3-41.3,1.4-61.9,1.2c-25-0.2-49.9-1.9-74.9-2
			c-50.5-0.1-99-1-149.5-0.9c-12,0-25.9-0.2-37.8,0c-22,0.4-43.9,2.6-65.9,2.3c-45.4-0.6-90.8,2.7-136.3-0.7
			C85.4,4,59.8,5.1,34.3,5.2c-11,0.1-22,1.1-33,1.7C1.3,7,1.2,7,1.1,7C0.6,7,0.3,7.3,0.3,7.7c0,0,0,0,0,0c0.4,0.7,1.3,1.1,2.1,1.2
			c0,0,0,0,0.1,0c12.5-0.6,24.9-1.5,37.4-1.5c26,0,52-0.3,77.9,1.1c13.6,0.7,27.2,0.8,40.8,0.9C220,9.6,262.2,8.1,309.4,6.3
			c17.1-0.6,55.3,0.8,82.9,0.9c47.3,0.2,94.7-1.6,141.9,0.6c44.8,2,89.5,0.2,134.2,1.1c1.7,0,3.3-0.2,5-0.3
			c23.8-0.4,47.5-2.8,71.4-0.3c30.1,3.2,60.4,5.7,90.8,4.9c18.2-0.5,36.3,0,54.5-0.5c14-0.3,26.4-0.2,39.9-1.9
			c12.7-1.6,27.6-1,40.4-0.3c14.8,0.8,29.5,3.8,44.2,4.2c15.3,0.4,30.7-1.1,46.1-1.8C1061.1,12.9,1061.4,12.6,1061.5,12.1z"/>
	</g>
</g>
</svg>
