<?xml version="1.0" encoding="utf-8"?>
<!-- Generator: Adobe Illustrator 18.1.1, SVG Export Plug-In . SVG Version: 6.00 Build 0)  -->
<svg version="1.1" xmlns="http://www.w3.org/2000/svg" xmlns:xlink="http://www.w3.org/1999/xlink" x="0px" y="0px"
	 viewBox="0 0 295 250" enable-background="new 0 0 295 250" xml:space="preserve">
<g id="Layer_18">
	<g id="M27DMS.tif">
		<g>
			<path fill="#C3C3C3" d="M179.6,203.8c-21.3,0.3-42.5,0.2-63.8-1.4c-25.4-1.9-50.9-0.8-76.4-0.6c-11,0.1-22,1.1-33,1.7
				c-0.1,0-0.1,0.1-0.2,0.1c-0.5,0-0.8,0.3-0.8,0.7c0,0,0,0,0,0c0.4,0.7,1.3,1.1,2.1,1.2c0,0,0,0,0.1,0c12.5-0.6,24.9-1.5,37.4-1.5
				c26,0,52-0.3,77.9,1.1c13.6,0.7,27.2,0.8,40.8,0.9c5.4,0,10.6,0,15.7,0C179.4,205.2,179.5,204.5,179.6,203.8z"/>
		</g>
	</g>
	<path fill="#F4C09D" d="M252.8,191.4c0,0,9.2-4.5,15.7,2.3c6.5,6.9,6.9,14.8,6.9,14.8s-3.6,5.5-20.8,5.5s-41.5,0-41.5,0
		s-1.7-3.1,0-8.5c0,0-4.2-2.8-1.3-6.8c2.9-4,5.6-1.8,5.6-1.8s3.9-10,11.7-7S246.3,195.9,252.8,191.4z"/>
	<path fill="#83B1B1" d="M284.9,189.8c-1.7-9.5-6.5-34.5-12-41.8c-5.6-7.3-4.6-9-26.8-18.2c0,0-5.1-14-9.5-12.1
		c0,0-6.5,18.2-18.5,31.3l-6.6,10.4c0,0-6.5-7.7-13-6.5l-5.3,3.8c0,0-11.5,2.5-16.3-1.2c0,0-8.5,7-12.7,23.8c0,0,15.9,0.7,21.7,8.6
		c0,0,3.3,4.7-0.6,6.1l1.1,4.4c0,0,6.6-2.3,9.1,6.8c0,0,7,1.6,5.2,6.6H212l0.9-5.3c0,0-3.4-4.5-1.2-8c2.3-3.5,5.6-1.8,5.6-1.8
		s5-9.4,10.2-7.8c0,0,5.3-13.6,7.1-11.1s0.4,7.5-3.6,12.7c0,0,16.5,5.9,20.7,0c0,0-1.4-6,9.1-7.2c10.5-1.3,15.2-0.1,18.5,3.3
		C282.7,190.2,284.9,189.8,284.9,189.8z"/>
	<path fill="#B5A38C" d="M158.2,185.6c0,0-1.5,7.7,5.9,8.4s17.1,3,17.1,3s3.5,2.5,4.7-0.1c1.2-2.6-0.7-3.3-0.7-3.3s1.6-1.7,1.9-3.1
		s-0.8-4.3-5.4-6.7c-4.7-2.4-9.5-4.4-14.7-4.2S159.1,180.2,158.2,185.6z"/>
	<path fill="#B5A38C" d="M251.7,190.7c0,0-1.3-7.7,11.8-7.8s23.4,6,22.9,15.3c-0.3,7.2-3.3,6.6-3.3,6.6s0,5.8-3.3,5.3
		s-5-0.7-4.8-3.4c0.2-2.7-1.6-9.7-6.7-13.1S259,188.8,251.7,190.7z"/>
	<polygon fill="#727272" points="233.2,178.8 227.5,188.3 230.4,190.6 236.4,182.5 	"/>
	<path fill="#727272" d="M220,210.1c0,0-4.4-0.7-4.5,1.9s1.5,2.7,4.5,0.9V210.1z"/>
	<path fill="#F4C09D" d="M160.7,192.9l24,5.1c0,0,0.1,0.8,1.9,0.6c1.7-0.3,4.3,0.2,6.4,2.7c2.1,2.4,2.7,4.2,2.7,4.2s6.3,2.2,5.2,5.7
		c-1.2,3.5-5.8,1.3-5.8,1.3s-4.3,2.5-9.2,1.5c-4.9-1-4.4,1-9.5,0.2c-5.1-0.9-8.1-0.7-9.3-0.7s-14.7,0-14.7,0s-1.7-2.1,0-5.4
		S159.8,192.7,160.7,192.9z"/>
	<path fill="#F4C09D" d="M234.3,123c0,0-7,16-15.2,24.3c-8.2,8.3-7.4,13-7.4,13s-1-7.3-12.5-7.5c0,0,3.1-6.1,0.4-9.2
		c-2.7-3.2-17.3-6.6-20,2.7l-7.4-4.7c0,0-8.5,4.6-12,0s-6.3-8.8-1-11.6c0,0,0.2-2.4-4.6-11.5s-12.1-18.9-8.1-23.4c0,0,2,0.5,3-1.9
		c0.9-2.4,8-10.4,8-10.4l-1.7-3.3c0,0,4.6-12,21.3-20.5l2.5,3.1c0,0,10.5-7.8,19.2-4l0.1-4.5c0,0,11.3-4.5,15.2,6.7
		s14.3,31.4,14.3,31.4s-0.7-7.4,6-6.1c6.7,1.3,10.3,14.9-2.2,20.6c0,0,3.7,12.1,3.6,12.3S234.3,123,234.3,123z"/>
	<path fill="#FFD0B0" d="M172.8,140.8c-6.2-8.3-7.9-19.7-4.2-29.4s12-17.2,21.7-21c8.9-3.5,19.5-3.8,27.8,1.1
		c5.9,3.5,10,9.3,13.4,15.3c0,0,5.7,7.4,4.3,11.8S222,131.8,222,131.8s-11.7,9.8-23,10.6c0,0-13.4-6.7-19.3,3.9
		C179.7,146.3,174.1,142.5,172.8,140.8z"/>
	<path fill="#D6A380" d="M199.3,152.9c0,0,10.2,0,12.3,6.5l20.4-31.5l-31.8,16.4L199.3,152.9z"/>
	<path fill="#C69777" d="M198.9,142.4c0,0,13.4-2.3,21.1-9.5s14-9.2,14-9.2l-6.8,13.4c0,0-11.9,11.8-26.6,11.2
		C200.6,148.4,200.5,144.2,198.9,142.4z"/>
	<path fill="#F66EAD" d="M168.2,144.3c0,0,3.2,10.7,11.4,12.2c8.1,1.5,18.4,1,20.6-5.8s-1.9-9.7-8.3-10.1
		c-6.3-0.3-10.4,0.5-12.2,5.7l-7.4-4.7L168.2,144.3z"/>
	<path fill="#565C56" d="M159.6,127.9c0,0-12.4-20.8-13.4-25.1c-0.9-4.3-2.1-2.8,0.3-7.6c2.3-4.8,10.9-22.3,17.7-27.4
		c6.8-5.2,17.6-12.9,37.1-14.4c10.4-0.8,12.8,6.4,14,10.5s12.4,26.7,12.4,26.7s1.1-19.2-1-30.7s-4.5-26.1-10.2-30.7
		s-16.9-15.4-53.3-4.8c-34.1,10.4-48,33.7-48,33.7s5.7,24.8,11.6,35.2C132.7,103.6,149.5,132,159.6,127.9z"/>
	<path fill="#434943" d="M174.2,51.6l5.3,10.5c0,0,10.3-7.3,19.2-4c0,0,1.9-11-6.8-14.2C183.2,40.8,176.8,43.8,174.2,51.6z"/>
	<path fill="#434943" d="M149.4,68.8l8.1,14.1c0,0-7.4,7.1-8.6,12.5c0,0-7.2-1.8-7.5-11.8C141,73.5,144.9,65.8,149.4,68.8z"/>
	<path fill="#747A74" d="M118.8,70.5c0.5,2,1,4,2,5.8c1,1.8,2.7,3.2,4.7,3.5c2.1,0.3,4.1-0.6,5.8-1.9c8.2-6.1,9.3-18.5,17.1-25.1
		c4.7-4,11-5.4,16.8-7.5c9.9-3.6,19.1-9.9,29.6-10.3c3.2-0.1,6.4,0.4,9.6-0.2c3.2-0.5,6.4-2.3,7.4-5.4c0.5-1.4,0.3-3.1-0.7-4.3
		c0,0-18.5-14.4-55.1,1.9s-40.9,31.1-40.9,31.1L118.8,70.5z"/>
	<path fill="#FFFFFF" d="M191.2,78.1c-0.3,0.2-5.4,7-2.1,18.1s12.5,12,17,9.1c4.5-2.9,4.7-10.9,0.6-18.5S197.2,74.1,191.2,78.1z"/>
	<path fill="#FFFFFF" d="M160.4,103.1c0,0-2,12.8,5.1,17.8s19.7,2.6,20.2-9.7c0,0-8.4-12.8-16.7-13.7S160.4,103.1,160.4,103.1z"/>
	<path fill="#EAEAEA" d="M175.6,100.3c0,0-8.8,6.4-9.3,20.6c0,0-8.8-7.9-6.1-17.2S170.4,94.4,175.6,100.3z"/>
	<path fill="#EAEAEA" d="M189.5,90.7c0,0,6.5-3.9,17.2-2.9c0,0-6.1-12.3-13.3-11s-5.1,14.9-5.1,14.9L189.5,90.7z"/>
	<path fill="#565C56" d="M207.6,117.5c-0.3,0.7,5.4-2.1,5.4-2.1S210.2,112.1,207.6,117.5z"/>
	<path fill="#C94343" d="M205.8,118.8c0,0-1.9,4.6,1.8,3.8c3.7-0.8,6.7-3.1,6.2-4.9C213.2,116,211.3,114.8,205.8,118.8z"/>
	<path fill="#858C85" d="M145.5,56.1c-0.8,1.4-1.3,3-1.9,4.5c-0.6,1.5-1.5,3-3,3.7c1.8-3.1,2.4-5,3.5-7.1c2.6-4.7,7.6-7.5,12.4-9.9
		c1.3-0.7,2.7-1.3,4.1-1.8c1.4-0.4,2.8-0.7,4.1-1.1c8.3-2.2,15.5-7.9,24-8.8c-8.7,2.5-16.3,7.6-24.9,10.4c-1.7,0.6-3.5,1.1-5.2,1.7
		c-2.1,0.8-4,1.8-6,2.8C149.9,52,147.1,53.5,145.5,56.1z"/>
	<path fill="#759B9A" d="M190.4,197.3c0,0.2,0,0.5-0.2,0.7c-0.3,0.4-0.9,0.1-1.4,0c-1.3-0.3-2.6,1-4,0.9c0.8-0.8,1.5-1.7,1.7-2.8
		c0.2-1.1-0.5-2.4-1.6-2.5c2.1-0.9,2.8-4.1,1.3-5.8c2-3.9,3-8.2,3-12.5c0.9,4,1,8.3,0.3,12.3c-0.3,1.6-0.7,3.2-0.5,4.8
		C189.4,194.1,190.3,195.7,190.4,197.3z"/>
	<path fill="#759B9A" d="M199.6,206.9c0,0,7.9,0.1,7.9,5.1H201C201,212,201,208,199.6,206.9z"/>
	<path fill="#DACDBC" d="M184.8,194c1.2-0.3,2-1.5,2.1-2.8c0.1-1.2-0.5-2.4-1.2-3.5c-1.7-2.5-4.2-4.2-7-5.4
		c-2.8-1.2-5.7-1.7-8.7-2.2c-1.5-0.3-3.2-0.5-4.6,0c-1.5,0.5-2.7,2.1-2.2,3.6c0.4,1.2,1.6,2,2.9,2.4c3.6,1.3,7.5,1.4,11,2.9
		c0.3,0.1,0.7,0.4,0.7,0.7c0,0.5-0.6,0.7-1.1,0.7c-2.8,0.1-5.6-1.3-8.4-1.2c-0.3,0-0.6,0-0.8,0.3c-0.3,0.3-0.1,0.9,0.2,1.2
		c0.4,0.3,0.8,0.3,1.3,0.4c2.7,0.4,5.4,1.2,7.9,2.4c1.8,0.9,3.5,2,5.4,2.7c0.9,0.4,2,0.6,2.9,0S185.8,194.1,184.8,194z"/>
	<path fill="#DACDBC" d="M281.4,189.7c-0.4-1.3-1.4-2.4-2.4-3.2c-2.8-2.3-6.4-3.4-10-3.7s-7.2,0.3-10.7,1c-1.4,0.3-3.2,1-3.2,2.4
		c1.9,0.7,4.1,0.4,6.1,0.2c5.4-0.4,11.4,0.1,15.4,3.7c0.7,0.7,1.4,1.4,2.4,1.8c0.9,0.3,2.2,0,2.5-0.9
		C281.6,190.6,281.5,190.1,281.4,189.7z"/>
	<path fill="#9BC9C7" d="M236.5,118.3c1.9,2.1,2.5,5.1,2.6,7.9c0.4,6.9-1.2,14.1-5.7,19.4c-0.4,0.5-1,1.1-1.7,0.9
		c-0.4-0.1-0.7-0.3-1-0.5c-1.4-1-3.2-1.5-4.9-1.3c3.1-5.8,5-12.1,6.8-18.4"/>
	<path fill="#9BC9C7" d="M274.3,151.3c0,0-2-7.7-8.8-11.9"/>
	<path fill="#9BC9C7" d="M246.3,134.9c0.9,3,1.3,6.2,1.2,9.4c5.9-1.7,12.8,1.2,15.8,6.6c1,1.8,1.6,3.9,3.3,5.2
		c1.5,1.2,3.8,1.3,5.5,0.3c1.7-1,2.6-3.1,2.3-5c0,0-3.8-9.9-10.4-13c-6.7-3.1-17.8-8.5-17.8-8.5L246.3,134.9z"/>
	<path fill="#9BC9C7" d="M170,172.5c-0.4-0.1-0.8-0.1-1.1-0.3c-1.2-0.7-0.9-2.5-0.4-3.8c1.8-4.3,4.5-8.1,7.2-11.9
		c0.3-0.4,0.6-0.7,1-0.9c0.3-0.1,0.7,0,1.1,0.1c0.8,0.3,1.7,0.6,2.1,1.4c0.2,0.5,0.2,1.1,0.1,1.7c-0.3,3-0.8,6-1.6,8.9
		c-0.3,1.1-0.6,2.2-1.3,3.1C175.4,172.8,172.5,172.8,170,172.5z"/>
	<path fill="#759B9A" d="M250.3,180.5c0,0-0.2-7.8-1.5-12.4c0,0-4.4,9-3.2,25.5c0,0,6-1.3,6-3c0.1-1.7,0.1-3.3,0.1-3.3
		S250.5,183.5,250.3,180.5z"/>
	<path fill="#759B9A" d="M226.8,148.7c-2.9-0.6-6-0.1-8.6,1.3c-2.6,1.5-4.6,3.9-5.6,6.7c0.1,0,0.2-0.1,0.2-0.1
		c-0.8,0.7-1.6,1.6-2.2,2.5c-2.5-5.1-9.7-7.3-14.6-4.4c-1.5,0.9-2.9,2.2-4.7,2.6c-0.9,0.2-1.8,0.1-2.5,0.6c-1.3,0.9-0.9,2.9-0.2,4.4
		s1.6,3.1,0.9,4.5c-0.3,0.5-0.7,1-0.9,1.5c-0.3,1,0.3,2.2,1.2,2.7c0.9,0.5,2.1,0.5,3.1,0.4c2-0.3,3.9-1.2,5.5-2.5
		c0.9-0.8,1.8-1.7,2.9-2.3c0.9-0.4,1.8-0.6,2.7-0.8c3.7-0.9,7-2.9,10.2-4.9c3.5-2.2,6.9-4.3,10.4-6.5c0.4,0.1,0.7,0.3,1.1,0.5
		c2.1,1.1,3.5,3,3.9,5.1c1.9-0.5,2.8-1,4.3-3.1c0.1-0.1,0.2-0.1,0.2-0.1c0.1-0.1,0.1-0.2,0.1-0.3
		C234.1,152.6,230.6,149.5,226.8,148.7z"/>
	<path fill="#D6A380" d="M146.4,102c0.7,1.3,0.6-3,1.8-4c0.6,0.9,1.3,1.7,2.1,2.4c-0.2-2.5,1-5,2.5-7c1.6-2,3.6-3.5,5.6-5.1
		c-0.2-1.9-2-3.4-2-5.3c0-0.9,0.4-1.7,0.9-2.5c4-7,10-12.8,17-16.6c0.3-0.2,0.7-0.3,1-0.2c0.3,0.1,0.5,0.3,0.6,0.6
		c0.6,0.9,1.1,1.9,1.4,3c5.2-4.9,12.9-7.1,19.9-5.8c0.6-1.3,0.5-2.9-0.1-4.3c0,0-9.1-2.5-17.8,4.9l-1.6-3.1c0,0-16.1,7.9-21.8,19.5
		c0,0,3.2,2.8-2.6,8.5c-5.8,5.8-4.8,8.3-4.8,8.3l-2.3-0.2C146.5,95.2,144,97.3,146.4,102z"/>
	<path fill="#D6A380" d="M199.1,57.2c2-0.4,4-0.6,6.1-0.7c0.6,0,1.3-0.1,1.9,0.1c0.6,0.2,1.2,0.5,1.7,0.8c1.5,0.9,2.9,1.8,4.3,2.7
		c0.2-0.7-0.1-1.4-0.5-2.1c-1.1-1.8-2.5-3.5-4.4-4.4c-2.2-1-4.8-0.7-7.2-0.3c-0.7,0.1-1.5,0.3-1.8,0.9c-0.2,0.3-0.2,0.7-0.2,1
		C199,55.9,199,56.5,199.1,57.2z"/>
	<path fill="#D6A380" d="M160.6,130.8c0.7,1.5,1.6,2.8,2.7,3.9c-2.4,0.7-5.2-0.8-6.1-3.2c0.7-0.5,1.4-1,2.1-1.4
		c0.1-0.1,0.2-0.2,0.4-0.2C160.1,129.8,160.4,130.4,160.6,130.8z"/>
	<path fill="#EA5CA3" d="M171.9,141.3c-0.5,0.2-0.9,0.5-1.4,0.8c-0.2,0.1-0.3,0.2-0.4,0.4c-0.1,0.2,0,0.5,0,0.7
		c1.5,4.6,6,8.1,10.8,8.4c-0.8-0.2-1.4-1-1.6-1.8c-0.2-0.8-0.1-1.7,0.1-2.5c0-0.2,0.1-0.4,0-0.6c-0.1-0.1-0.3-0.2-0.4-0.3
		c-2.3-0.9-3.2-3.8-5.4-5.1c-0.2-0.1-0.5-0.3-0.8-0.3C172.5,141,172.2,141.2,171.9,141.3z"/>
	<path fill="#EA5CA3" d="M183.5,145.9c-0.4,0.3-0.7,0.5-0.9,0.9c-0.2,0.5,0.1,1.1,0.6,1.5c1.6,1.6,4.1,1.8,6.5,1.9
		c0.6,0,1.2,0,1.8-0.1c1.6-0.3,3.1-1.3,3.8-2.6c0.3-0.5,0.4-1.2,0.1-1.7c-0.2-0.3-0.5-0.5-0.9-0.7c-1.8-0.9-4-1.2-6-1
		c-0.8,0.1-1.6,0.2-2.4,0.5C185.1,144.8,184.3,145.4,183.5,145.9z"/>
</g>
<g id="Layer_17">
	<g>
		<g>
			<path fill="#587572" d="M186.5,188.4c2.3-3.8,3.4-8.8,3.4-13.2c0-0.9-1.2-0.8-1.3,0c-0.4,4.6-1.6,8.4-3.2,12.7
				C185,188.6,186.1,189,186.5,188.4L186.5,188.4z"/>
		</g>
	</g>
	<g>
		<g>
			<path fill="#CECECE" d="M203.8,213.3c-5.5,1.3-10.8,3.1-16,5.4c-3.8,1.7-9.7,3.6-12.1,7.2c-0.4,0.6,0.1,1.2,0.7,1.3
				c15.3,1.1,30.6,2.1,46,3c3.6,0.2,7.2,0.4,10.8,0.6c1.5,0.1,4.3,0.8,5.7-0.2c1.4-1,1.3-3.9,1.6-5.2c0.8-3.6,1.6-7.2,2.3-10.9
				c0.2-1.2-1.6-1.8-1.9-0.5c-0.7,3-1.3,6-2,9c-0.3,1.3-0.3,3.4-1,4.5c-1.1,1.7-2.6,1.3-4.8,1.3c-6.2,0-12.4-0.6-18.6-1
				c-12.7-0.7-25.4-1.6-38.1-2.4c0.2,0.4,0.5,0.8,0.7,1.3c2.3-3.3,8.7-5.4,12.3-6.9c4.8-2.1,9.7-3.8,14.7-5.2
				C205,214.4,204.6,213.1,203.8,213.3L203.8,213.3z"/>
		</g>
	</g>
	<g>
		<g>
			<path fill="#AD846F" d="M158.7,197.3c0.5-1,1-2.1,1.4-3.1c0.3-0.7-0.9-1.2-1.2-0.5c-0.5,1-0.9,2.1-1.3,3.2
				C157.4,197.5,158.4,197.9,158.7,197.3L158.7,197.3z"/>
		</g>
	</g>
	<g>
		<g>
			<path fill="#CECECE" d="M195,213.8c5.9,0.2,11.9,0.1,17.8,0.1c1,0,1-1.5,0-1.5c-5.9-0.1-11.9-0.2-17.8,0.1
				C194.1,212.5,194.1,213.8,195,213.8L195,213.8z"/>
		</g>
	</g>
	<g>
		<g>
			<path fill="#515151" d="M228,188.6c0.9-1.4,1.7-2.9,2.6-4.3c0.7-1.1,1.5-3.1,2.4-3.9c0.5-1.1,1.2-0.6,2,1.5
				c-0.1,0.2-0.3,0.5-0.4,0.7c-0.3,0.7-1,1.6-1.4,2.2c-0.9,1.5-1.8,3-2.7,4.5c-0.5,0.9,0.8,1.7,1.4,0.8c1.6-2.6,3.7-5.4,4.8-8.2
				c0.6-1.5,0.5-3.7-1.2-4.5c-1.6-0.7-2.8,0.6-3.6,1.8c-1.9,2.7-3.7,5.7-5,8.8C226.7,188.7,227.6,189.3,228,188.6L228,188.6z"/>
		</g>
	</g>
	<g>
		<g>
			<path fill="#E0AA86" d="M196.8,105.4c-6.2-2.4-7.3-10.5-7.9-16.3c-0.6-5.7,1.6-14.7,9.6-10c4.2,2.4,7.5,8.6,9.2,13.1
				c1.3,3.4,2.7,7.9-0.4,10.9c-2.6,2.6-6.7,3.4-10.1,2.2c-1.2-0.4-1.6,1.4-0.5,1.8c6.5,2.4,14.7-2,14.3-9.3
				c-0.4-7.1-5.9-18.3-13-21.1c-15.8-6.3-13.6,26.8-1.7,30.3C197.4,107.3,197.8,105.8,196.8,105.4L196.8,105.4z"/>
		</g>
	</g>
	<g>
		<g>
			<path fill="#E0AA86" d="M184.9,111.7c-0.8,8.1-8.2,13.8-16.1,9.7c-4.8-2.5-8.4-8.3-8.4-13.7c0-2.8,0.9-5.8,3.1-7.8
				c3.8-3.4,8.3-1.2,11.6,1c4.2,2.8,7.9,6.6,10.1,11.2c0.4,0.8,1.8,0.2,1.5-0.6c-2.5-6.9-10.6-14.4-18.2-15.2
				c-6.3-0.7-10.5,6.8-10,12.4c0.6,7.3,6.7,15.1,14.3,15.9c7.6,0.8,14-5.3,13.5-12.9C186.2,110.9,185,110.9,184.9,111.7L184.9,111.7
				z"/>
		</g>
	</g>
	<g>
		<path fill="#AD846F" d="M180.8,117.6c0.6-0.1,1.1-0.4,1.5-0.8c0.6-0.7,0.8-1.7,0.3-2.5s-1.5-1.2-2.3-0.9c-0.7,0.2-1.1,0.8-1.4,1.4
			c-0.2,0.4-0.4,0.9-0.3,1.3c0.2,1,1.4,1.3,2.4,1.4"/>
		<g>
			<path fill="#AD846F" d="M181,118.3c1.6-0.2,2.8-1.7,2.7-3.3c-0.1-1.6-1.6-2.8-3.1-2.6c-1.6,0.2-3,2-2.9,3.6
				c0.1,1.6,1.9,2.6,3.4,2.5c0.8-0.1,1.4-1.4,0.5-1.7c-0.5-0.2-1.4-0.3-1.7-0.7c-0.4-0.5,0.3-1.6,0.8-1.8c0.7-0.3,1.4,0.2,1.5,0.8
				c0.2,1-0.6,1.7-1.5,1.9C179.8,117.2,180.1,118.4,181,118.3L181,118.3z"/>
		</g>
	</g>
	<g>
		<path fill="#AD846F" d="M200.4,103.6c0.9-0.4,1.6-1.2,1.7-2.2c0.1-1-0.6-2-1.6-2.1c-0.3,0-0.7,0.1-1,0.2c-1,0.5-1.6,1.6-1.4,2.7
			c0.2,1.1,1.5,1.8,2.5,1.3"/>
		<g>
			<path fill="#AD846F" d="M200.7,104.2c1.3-0.7,2.4-2.1,2.1-3.7c-0.4-1.7-2-2.5-3.6-1.8c-1.5,0.7-2.5,2.5-1.9,4.1
				c0.6,1.4,2.4,2.4,3.8,1.5c0.9-0.6,0.3-2-0.7-1.7c-1.6,0.4-1.5-1.6-0.4-2.2c0.7-0.4,1.3,0.1,1.4,0.8c0.1,0.8-0.7,1.5-1.4,1.8
				C199.3,103.5,199.9,104.6,200.7,104.2L200.7,104.2z"/>
		</g>
	</g>
	<g>
		<g>
			<path fill="#373A37" d="M115.8,58.6c11.5-15.5,27.8-26.8,46.1-32.9c18.3-6.1,45.9-10.7,57.6,9.1c0.6,0.9,2,0.1,1.5-0.9
				c-11-19.8-38.3-16.3-56.5-10.8c-19.8,6-37.8,17.8-49.8,34.8C114.1,58.7,115.3,59.3,115.8,58.6L115.8,58.6z"/>
		</g>
	</g>
	<g>
		<g>
			<path fill="#373A37" d="M156.2,78.9c4.6-8.3,13.2-14.5,21.2-19.1c0.9-0.5,0.1-2-0.8-1.4c-8.2,4.5-17.8,11.2-21.4,20.1
				C154.9,79,155.9,79.4,156.2,78.9L156.2,78.9z"/>
		</g>
	</g>
	<g>
		<g>
			<path fill="#AD846F" d="M229.9,96.3c0-1.4-0.3-2.7-1-3.9c-0.5-0.9-1.9-0.1-1.4,0.8c0.5,1,0.8,2,0.9,3.1
				C228.4,97.2,229.9,97.2,229.9,96.3L229.9,96.3z"/>
		</g>
	</g>
	<g>
		<g>
			<path fill="#AD846F" d="M229.2,88.4c5.9-5.8,10.7,2.2,9.8,7.8c-0.8,4.7-4,7.7-8.4,9.3c-1,0.4-0.6,1.9,0.5,1.7
				c6.8-1.8,11.1-8.6,9.6-15.5c-1.3-6.1-7.9-9.3-12.5-4.1C227.6,88.1,228.5,89,229.2,88.4L229.2,88.4z"/>
		</g>
	</g>
	<g>
		<g>
			<path fill="#AD846F" d="M158.5,129.2c1.4,2.2,3,4.3,5,6.1c0.8,0.7,1.9-0.4,1.1-1.1c-1.7-1.8-3.4-3.6-4.9-5.6
				C159.2,127.8,158,128.4,158.5,129.2L158.5,129.2z"/>
		</g>
	</g>
	<g>
		<g>
			<path fill="#AD846F" d="M198.7,143.1c5.6-1,11.1-2.4,16-5.3c5.1-3,9.5-7.1,14.3-10.4c3.5-2.4,6.9-4.6,7.5-9.1
				c0.5-4.5-2.2-8.5-4.6-12c-0.6-0.9-2,0-1.4,0.8c4,5.7,7.1,12.3,0.1,17.4c-2.6,1.9-5.2,3.6-7.8,5.6c-3.3,2.6-6.6,5.3-10.4,7.3
				c-4.5,2.4-9.3,3.4-14.2,4.6C197.5,142.1,197.8,143.3,198.7,143.1L198.7,143.1z"/>
		</g>
	</g>
	<g>
		<g>
			<path fill="#587572" d="M236.1,117.4c-3.2,6.9-6.4,13.6-10.5,20c-4,6.3-9.7,11.6-13.3,18.1c-2.5,4.4-2.1,8.6,0.9,12.7
				c1.9,2.6,4.3,4.9,5.9,7.8c2.4,4.3,3.1,8.9,2.8,13.8c-0.1,1.1,1.6,1.1,1.7,0c0.4-5.9-1-11.7-4.4-16.7c-1.8-2.6-4.2-4.7-5.7-7.5
				c-2.7-5.1,0.1-9.5,3.2-13.5c8.4-10.4,16-21.6,20.6-34.3C237.5,117.2,236.4,116.7,236.1,117.4L236.1,117.4z"/>
		</g>
	</g>
	<g>
		<g>
			<path fill="#587572" d="M236.8,117.7c8.2,3.8,9,14.2,7.1,22c-1.8,7.2-5.9,13.4-10.2,19.3c0.5,0.2,1.1,0.4,1.6,0.7
				c2.1-12-15.9-15.3-21.5-6.3c-0.4,0.7,0.6,1.5,1.1,0.9c5.1-6.2,20.9-6,18.7,5c-0.2,1,1,1.5,1.6,0.7c5.6-7.7,10.9-16.3,11.3-26.1
				c0.2-6.9-2.1-14.7-9.2-17.1C236.6,116.4,236.2,117.4,236.8,117.7L236.8,117.7z"/>
		</g>
	</g>
	<g>
		<g>
			<path fill="#587572" d="M192.5,156.1c-2.4,3.6-2.8,7.8-3,12c0.4-0.2,0.8-0.5,1.2-0.7c-3.4-2.2-5.3-5.8-5.2-9.9c0-1-1.6-1-1.6,0
				c-0.1,4.6,2.2,8.8,6,11.3c0.5,0.4,1.2-0.1,1.2-0.7c0.2-3.9,0.5-7.8,2.8-11.2C194.5,156,193.1,155.2,192.5,156.1L192.5,156.1z"/>
		</g>
	</g>
	<g>
		<g>
			<path fill="#587572" d="M212.5,162.5c0.5-6.7-8.2-11.1-14-10.3c-1,0.1-1,1.7,0,1.6c4.9-0.6,12.8,2.9,12.4,8.7
				C210.8,163.5,212.4,163.5,212.5,162.5L212.5,162.5z"/>
		</g>
	</g>
	<g>
		<g>
			<path fill="#587572" d="M174.9,155.2c-4.9,6.5-11,15.9-11.6,24.3c-0.1,1.1,1.6,1.1,1.7,0c0.5-8,6.8-17.1,11.2-23.5
				C176.9,155.1,175.5,154.4,174.9,155.2L174.9,155.2z"/>
		</g>
	</g>
	<g>
		<g>
			<path fill="#82786F" d="M186.7,187.9c-4.2-6.2-11.7-7.9-18.8-8.7c-6.9-0.8-10.8,1.9-10.6,9.1c0.1,2.2,0.1,4.4,2.3,5.5
				c3.2,1.7,8.4,1.1,11.8,1.7c3.1,0.5,5.8,1.3,8.6,2.6c1.1,0.5,2.3,1.3,3.6,1.3c1.9-0.1,3-1.1,3.4-2.9c0.1-0.6-0.8-0.9-0.9-0.3
				c-0.6,2.7-12.6-1.8-14.4-2.1c-4.5-0.7-11.7,0.6-13-5.2c-0.9-4.1,1.1-8.1,6.1-8.7c2-0.2,4.5,0.5,6.4,0.8c5.6,1,10.8,2.8,14.4,7.5
				C186,189.2,187.2,188.6,186.7,187.9L186.7,187.9z"/>
		</g>
	</g>
	<g>
		<g>
			<path fill="#82786F" d="M186.4,196.6c1-1,0.2-2.3-0.7-3c-1.4-1.1-3.2-1.5-4.9-1.4c-0.9,0.1-0.9,1.4,0,1.4c0.9-0.1,1.8,0,2.7,0.3
				c0.6,0.2,2.6,1.1,2,2C185.2,196.5,186,197.1,186.4,196.6L186.4,196.6z"/>
		</g>
	</g>
	<g>
		<g>
			<path fill="#82786F" d="M186,189c0.5,0.7,0.6,1.5,0.3,2.3c-0.3,0.8-0.8,1.2-1.5,1.7c-0.6,0.4-0.2,1.4,0.5,1.2
				c2.5-0.6,2.9-4.2,1.5-5.9C186.5,187.9,185.7,188.5,186,189L186,189z"/>
		</g>
	</g>
	<g>
		<g>
			<path fill="#587572" d="M245.8,130.3c4.3,3.1,9.2,4.7,14,6.9c6.8,3.1,10.9,7.3,13.8,14.3c5.1,12.3,8.4,25.3,10.6,38.5
				c0.2,1,1.7,0.6,1.5-0.4c-2.2-14.1-5.8-28.9-12.1-41.9c-5.4-11.1-17.6-12.4-27.2-18.4C245.8,128.9,245.2,129.9,245.8,130.3
				L245.8,130.3z"/>
		</g>
	</g>
	<g>
		<g>
			<path fill="#587572" d="M249.7,180.5c-0.3,2.3,0.2,4.5,1.1,6.6c0.4,0.9,1.7,0.1,1.3-0.8c-0.9-1.9-1.2-3.8-1.2-5.9
				C251,179.7,249.8,179.7,249.7,180.5L249.7,180.5z"/>
		</g>
	</g>
	<g>
		<g>
			<path fill="#82786F" d="M252.2,190.5c-1.2-8.9,19.3-7.6,23.4-5.5c2.5,1.3,5.3,3.4,7.3,5.4c2.4,2.5,5.3,11.3,0.5,13.4
				c-0.8,0.4-0.1,1.6,0.7,1.2c3.7-1.6,3.5-7.3,2.7-10.6c-1.2-5-6.9-8.9-11.3-11c-5.6-2.7-26.1-2.8-24.4,7.3
				C251.3,191.6,252.3,191.2,252.2,190.5L252.2,190.5z"/>
		</g>
	</g>
	<g>
		<g>
			<path fill="#AD846F" d="M152,214c5,0.3,10,0.2,15,0.1c0.8,0,0.8-1.3,0-1.3c-5-0.1-10-0.2-15,0.1C151.3,213,151.3,214,152,214
				L152,214z"/>
		</g>
	</g>
	<g>
		<g>
			<path fill="#AD846F" d="M220,214c13.6,0.4,27.2,0.3,40.8,0.1c0.8,0,0.8-1.3,0-1.3c-13.6-0.1-27.2-0.3-40.8,0.1
				C219.3,213,219.3,214,220,214L220,214z"/>
		</g>
	</g>
	<g>
		<g>
			<path fill="#AD846F" d="M152.7,213.1c-1.9-2.3,1.5-7.2,2.6-9.3c1.1-2.2,2.4-4.4,3.5-6.6c0.3-0.7-0.6-1.2-1-0.6
				c-2.4,3.6-4.3,7.7-6,11.7c-0.9,2-1.7,4,0.2,5.7C152.4,214.4,153.1,213.7,152.7,213.1L152.7,213.1z"/>
		</g>
	</g>
	<g>
		<g>
			<path fill="#AD846F" d="M260.3,214.2c5.5-0.1,11.5-0.8,14.9-5.7c0.5-0.7-0.6-1.5-1.1-0.9c-3.4,4.4-8.6,4.9-13.8,5.4
				C259.6,213.1,259.5,214.2,260.3,214.2L260.3,214.2z"/>
		</g>
	</g>
	<g>
		<g>
			<path fill="#AD846F" d="M223.5,200.6c-2.4,3.8-4.8,7.9-4.4,12.6c0.1,1,1.6,1,1.5,0c-0.2-4.5,1.9-8.1,4.1-11.9
				C225.3,200.5,224,199.8,223.5,200.6L223.5,200.6z"/>
		</g>
	</g>
	<g>
		<g>
			<path fill="#AD846F" d="M231.4,204.4c-2.3,2.5-3.7,5.7-3.1,9.1c0.1,0.9,1.5,0.6,1.5-0.2c-0.1-3,0.5-5.7,2.4-8.1
				C232.7,204.7,231.9,203.8,231.4,204.4L231.4,204.4z"/>
		</g>
	</g>
	<g>
		<g>
			<path fill="#AD846F" d="M217.1,195.5c-5.9-2.9-10.5,9.8-4.6,10.3c0.9,0.1,1.1-1.4,0.2-1.6c-2.5-0.4-0.9-4-0.2-5.4
				c0.9-1.8,2.3-2.3,4.3-2.1C217.4,196.8,217.7,195.8,217.1,195.5L217.1,195.5z"/>
		</g>
	</g>
	<g>
		<g>
			<path fill="#AD846F" d="M168.5,213.2c-0.7-2.1-1-4.3-0.6-6.5c0.6-3.1,1.4-3.7,4.5-4.8c2.5-0.9,3.7-0.8,5.9-1.1
				c2.9-0.4-1-0.8,5.1-0.5c0.5,0,1,0.5,1.5,0.4c3-0.5,3.2-3.3,7.2,0.8c1.3,1.3,2.1,4.1,2.1,6c1,3.2-0.9,5.3-5.7,6.2
				c-0.5-0.1-1-0.3-1.6-0.4c-2.6,0.1-0.7-0.6-3.4-0.3c-0.9,0.1-1.9,0.8-2.8,0.9c-2.6,0.2-4.8-1.1-7.2-1.5c-2.1-0.3-3.9,0.2-5.8,1
				c-1,0.4-0.1,1.8,0.8,1.4c4.6-2,5.8,0.5,9.7,1c1.8,0.3,2.6-0.6,4.3-1c3.8-0.7,8.2,2.2,11.5-0.7c4.2-3.8,1.8-14.1-3.2-16.4
				c-1-0.5-1.8-0.4-2.9-0.3c-0.5,0.1-0.8,0.6-1.3,0.7c-1.5,0.3-3-0.1-4.3-0.2c-1.2,0-1.8,0.1-2.9,0.4c-2.1,0.5-3.6,0-5.5,0
				c-7.2,0-8.8,9.7-6.8,15C167.5,214.5,168.8,214.1,168.5,213.2L168.5,213.2z"/>
		</g>
	</g>
	<g>
		<g>
			<path fill="#AD846F" d="M195.7,206.2c2.3-0.2,3.8,1.5,4.2,3.6c0.2,1.1,0.3,2.1-1.1,2.2c-1.2,0.1-2.4-0.1-3.6-0.3
				c-1-0.2-1.5,1.3-0.4,1.6c1.6,0.5,4,0.8,5.6,0.1c1.3-0.6,1.3-2,1.2-3.3c-0.4-3.1-2.8-5.8-6.1-5.2
				C194.7,205,194.9,206.3,195.7,206.2L195.7,206.2z"/>
		</g>
	</g>
	<g>
		<g>
			<path fill="#373A37" d="M114.5,58.1c1.3,14.7,7.9,30,15.4,42.6c3.8,6.4,8.2,12.5,13.1,18.1c4.2,4.9,8.9,10,15.7,10.5
				c0.9,0.1,1.1-1.4,0.2-1.5c-7.4-1.1-12.4-7.2-16.9-12.6c-4.6-5.6-8.8-11.7-12.3-18.1c-6.9-12.5-10.3-25.4-13.9-39
				C115.6,57.2,114.4,57.3,114.5,58.1L114.5,58.1z"/>
		</g>
	</g>
	<g>
		<g>
			<path fill="#373A37" d="M160.2,127.7c-2.5-5-5.1-10.1-7.8-15.1c-2.4-4.5-8.4-12.1-5.2-17c0.6-0.9-0.8-1.7-1.5-0.9
				c-3.4,4.8-0.6,7.9,1.9,12.6c3.7,7,7.5,14.1,11.3,21C159.4,129.2,160.6,128.5,160.2,127.7L160.2,127.7z"/>
		</g>
	</g>
	<g>
		<g>
			<path fill="#373A37" d="M220,34.4c5.2,18.9,8.3,37.6,7.4,57.3c-0.1,1.1,1.7,1.1,1.7,0c0.9-19.3-1.3-39.3-8-57.6
				C220.9,33.4,219.8,33.7,220,34.4L220,34.4z"/>
		</g>
	</g>
	<g>
		<g>
			<path fill="#373A37" d="M199,54.4c6.4-1.6,11.8,0.2,14.2,6.5c1.4,3.7,2.4,7.5,3.9,11.2c2.8,7,6.3,13.9,10.5,20.1
				c0.6,0.9,2,0.1,1.4-0.8c-6-10-9.9-20.1-14.1-31c-2.8-7.3-8.9-9.6-16.3-7.3C197.8,53.3,198.2,54.6,199,54.4L199,54.4z"/>
		</g>
	</g>
	<g>
		<g>
			<path fill="#373A37" d="M148.4,68.2c1.7,4.3,4.2,7.8,6.5,11.7c0.8,1.3,1.4,2.4,0.8,3.5c-0.4,0.8-2.1,2-2.7,2.6
				c-1.2,1.3-2.4,2.7-3.2,4.2c-0.3,0.6-1.2,3.7-1.4,3.7c-1.2,0.4-3.6-2.5-4.2-3.4c-0.8-1.3-1.3-3-1.7-4.4c-0.6-2.9-0.7-5.9-0.1-8.7
				c0.4-1.7,2.9-9.9,5.9-8.3c1,0.5,1.8-0.9,0.9-1.5c-5.5-3.1-8.5,8.1-8.9,11.7c-0.6,6,1.4,16.3,8.7,17c0.5,0,0.8-0.4,0.9-0.9
				c0.5-4.4,3.3-7.3,6.4-10.2c1.4-1.3,2-1.5,1.8-3.3c-0.1-1.8-2.9-4.1-3.8-5.4c-1.9-2.7-3.4-5.7-4.7-8.7
				C149.4,66.9,148.1,67.4,148.4,68.2L148.4,68.2z"/>
		</g>
	</g>
	<g>
		<g>
			<path fill="#373A37" d="M173.6,52c1.2,2.6,2.7,8,4.8,9.8c1.1,0.9,0.4,1,2.2,1c1.8,0,4.3-3,6-3.7c3.9-1.6,7.9-1.5,11.9-0.1
				c0.6,0.2,1-0.3,1.1-0.8c0.6-7.6-3.4-14.9-11.3-16.3c-6.8-1.2-12.9,2.9-14.8,9.4c-0.3,1,1.3,1.5,1.6,0.5c1.8-6,7.9-9.8,14.1-7.8
				c6.3,2,9.5,8,8.7,14.4c0.4-0.3,0.7-0.5,1.1-0.8c-4.2-1.5-8.8-1.5-13,0.2c-1.1,0.5-5,3.6-6.2,3.4c-1.2-0.2-4.3-8.4-5-9.7
				C174.4,50.5,173.2,51.2,173.6,52L173.6,52z"/>
		</g>
	</g>
	<g>
		<g>
			<path fill="#373A37" d="M118.9,53.5c1.7,5.7,3.7,11.3,5.4,17c0.3,1.1,2,0.6,1.7-0.5c-1.7-5.7-3.4-11.4-5.6-17
				C120.1,52.2,118.6,52.6,118.9,53.5L118.9,53.5z"/>
		</g>
	</g>
	<g>
		<g>
			<path fill="#373A37" d="M123.2,49.6c0.5,2.7,1.3,5.4,2.1,8c0.3,1.1,2,0.6,1.7-0.5c-0.8-2.6-1.5-5.3-2.2-8
				C124.5,48.1,123,48.5,123.2,49.6L123.2,49.6z"/>
		</g>
	</g>
	<g>
		<g>
			<path fill="#373A37" d="M128.3,44.2c1.4,7.5,3.5,14.8,6.2,21.9c0.4,1,2.1,0.6,1.7-0.5c-2.6-7.2-4.7-14.4-6.3-21.8
				C129.6,42.8,128.1,43.2,128.3,44.2L128.3,44.2z"/>
		</g>
	</g>
	<g>
		<g>
			<path fill="#373A37" d="M206.3,122.9c-0.5-2-0.1-4.3,1.3-5.9c1.2-1.4,4.1-3,5.6-1.2c0.7,0.9,0.7,2.2,0,3c-0.6,0.6-1.4,1-2.2,1.3
				c-0.7,0.4-3.9,2.3-4.6,1.9c-0.8-0.6-1.6,0.8-0.8,1.4c0.9,0.7,1.9,0.2,2.8-0.2c1.6-0.7,3.2-1.5,4.7-2.4c1-0.7,2.3-1.6,2.5-3
				c0.2-1.2-0.8-2.5-1.5-3.4c-1.6-2-4.8-0.6-6.4,0.7c-2.4,2-3.3,5.1-2.4,8.1C205.4,123.8,206.4,123.5,206.3,122.9L206.3,122.9z"/>
		</g>
	</g>
	<g>
		<g>
			<path fill="#373A37" d="M206.6,119.3c1-0.9,2.1-1.7,3.4-2.2c0.4-0.1,1-0.4,1.4-0.4c1.1,0,1.5,1.2,1.9,2c0.4,0.7,1.6,0.2,1.4-0.6
				c-0.6-1.7-1.4-3.3-3.4-3c-2.2,0.4-4.2,1.5-5.6,3.2C205.2,119,206,119.8,206.6,119.3L206.6,119.3z"/>
		</g>
	</g>
	<g>
		<g>
			<path fill="#CC508E" d="M183.8,144.5c-2.4,1.5-1.6,4.6,0.6,5.9c3,1.8,8.2,1.3,10.8-1c2.4-2,2-5.5-0.9-6.7
				c-3.9-1.6-7.9-0.8-11.1,1.8c-0.8,0.6,0.2,2,1.1,1.4c1.6-1.1,3.3-2,5.3-2.1c1.9-0.1,7,0.8,4.6,3.8c-1.1,1.4-3.7,1.8-5.4,1.8
				c-1.5,0-6.9-1.3-4-3.8C185.4,145.1,184.5,144,183.8,144.5L183.8,144.5z"/>
		</g>
	</g>
	<g>
		<g>
			<path fill="#CC508E" d="M184.2,146.5c2.4-2.1,8.2-2.5,10.4,0c0.9,1,2.3-0.5,1.5-1.5c-3-3.5-9.8-2.6-12.9,0.4
				C182.5,146.2,183.5,147.2,184.2,146.5L184.2,146.5z"/>
		</g>
	</g>
	<g>
		<g>
			<path fill="#CC508E" d="M167.5,144.5c2.2,12.7,18.2,17.7,28.7,11.7c4.3-2.4,6.9-8.3,4.3-13.1c-2.6-4.7-10.8-3.9-15.1-3.2
				c-1.2,0.2-0.7,2.1,0.5,1.8c2.2-0.4,5.8-0.9,8.2-0.1c3.1,1,6,5.3,4.8,8.7c-1.6,4.5-7.6,6-11.8,6.3c-8.6,0.6-15.7-4.4-18.3-12.5
				C168.5,143.3,167.4,143.7,167.5,144.5L167.5,144.5z"/>
		</g>
	</g>
	<g>
		<g>
			<path fill="#AD846F" d="M159,129.3c-7.1,1.8-2.6,11,1.5,13.6c2.5,1.6,5.7,1.9,8.5,0.9c1.3-0.5,2.4-1.9,3.7-1.6
				c0.5,0.1,2.5,2.3,3,2.7c0.8,0.6,1.6,1,2.4,1.5c0.8,0.5,1.5-0.8,0.7-1.2c-2.4-1.4-4.2-3-5.9-5c-0.2-0.3-0.8-0.3-1,0
				c-2.2,2.2-5.6,3.3-8.6,2.3c-1.3-0.4-2.6-1.3-3.5-2.4c-1.7-1.8-5.4-7.6-0.3-9.3C160.3,130.5,160,129.1,159,129.3L159,129.3z"/>
		</g>
	</g>
	<g>
		<g>
			<path fill="#CC508E" d="M185.7,140.2c-6.3,0-9.8,8.5-4.6,12.4c1,0.7,2-0.9,1-1.6c-1.9-1.3-2-4.2-0.8-6.1c1.2-1.9,3-2.4,4.7-3.5
				C186.6,141.1,186.4,140.2,185.7,140.2L185.7,140.2z"/>
		</g>
	</g>
	<g>
		<g>
			<path fill="#AD846F" d="M214.6,212.9c-4.9-1.5,4.1-17.9,6.2-20.2c3.7-4,6.6-2.2,11.2-0.2c1.4,0.6,2.4,1,4,1.2
				c5.5,0.7,14.5,1.8,18.4-3.2c0.5-0.7-0.6-1.5-1.2-0.9c-4.3,4.9-16.2,3.5-21.3,0.9c-2-1-2.9-2.2-5.5-2.2c-2,0.1-4,0.9-5.6,2.2
				c-4.4,3.6-6.7,10.9-8.7,16c-1.1,2.9-2.1,7.2,2.1,7.8C215.1,214.4,215.5,213.2,214.6,212.9L214.6,212.9z"/>
		</g>
	</g>
	<g>
		<g>
			<path fill="#82786F" d="M279.1,196.8c1.4,2.3,2.7,5.2,3,8c0.2,2.4-1.3,6-4.3,4.5c-1.4-0.7-1.7-3.2-2-4.5c-0.9-3.5-1.6-6.4-4-9.3
				c-4.9-6-12.9-7.8-20.1-5.5c-0.9,0.3-0.5,1.7,0.4,1.4c8.1-2.6,16.6,0.4,20.6,8.1c1.6,3.2,0.3,9.1,3.8,10.9
				c2.4,1.2,6.2,0.6,7.2-2.1c1.3-3.4-1.9-9.3-3.7-11.9C279.5,195.8,278.8,196.2,279.1,196.8L279.1,196.8z"/>
		</g>
	</g>
	<g>
		<g>
			<path fill="#515151" d="M219.6,209.6c-0.8-0.8-2.8-0.8-3.7-0.1c-0.8,0.6-1.1,1.7-1.4,2.6c-0.3,1-0.3,1.9,0.1,2.9
				c0.1,0.3,0.6,0.4,0.9,0.4c1.2-0.2,2.4-0.7,3.6-1.2c0.9-0.4,0.1-1.7-0.8-1.3c-1,0.5-2.1,0.8-3.2,1c0.3,0.2,0.6,0.4,0.9,0.5
				c-0.4-1,0-2.5,0.7-3.4c0.3-0.4,1.5-0.7,1.9-0.4C219.3,211.1,220.2,210.2,219.6,209.6L219.6,209.6z"/>
		</g>
	</g>
	<g>
		<g>
			<path fill="#515151" d="M196.5,223.1c4.1,0.6,8.2,0.4,12.3,0.6c4.8,0.3,9.6,0.7,14.4,1c1.1,0.1,1.1-1.7,0-1.8
				c-8.7-0.5-17.9-0.1-26.6-1.2C195.9,221.6,195.7,223,196.5,223.1L196.5,223.1z"/>
		</g>
	</g>
	<g>
		<g>
			<path fill="#515151" d="M203.2,220.3c8.5,0.7,17,1,25.5,0.9c1.2,0,1.2-1.8,0-1.8c-8.5,0-17-0.1-25.5-0.4
				C202.4,219,202.4,220.2,203.2,220.3L203.2,220.3z"/>
		</g>
	</g>
	<g>
		<g>
			<path fill="#515151" d="M210.7,217.8c6.7,0.2,13.4,0.3,20-0.1c1-0.1,1-1.5,0-1.5c-6.7,0.1-13.3,0.3-20,0.3
				C209.9,216.4,209.9,217.7,210.7,217.8L210.7,217.8z"/>
		</g>
	</g>
</g>
</svg>
