<svg xmlns="http://www.w3.org/2000/svg" viewBox="0 0 295 250" enable-background="new 0 0 295 250"><g><path fill="#C3C3C3" d="M179.6 203.8c-21.3.3-42.5.2-63.8-1.4-25.4-1.9-50.9-.8-76.4-.6-11 .1-22 1.1-33 1.7-.1 0-.1.1-.2.1-.5 0-.8.3-.8.7.4.7 1.3 1.1 2.1 1.2h.1c12.5-.6 24.9-1.5 37.4-1.5 26 0 52-.3 77.9 1.1 13.6.7 27.2.8 40.8.9h15.7c0-.8.1-1.5.2-2.2z"/><path fill="#F4C09D" d="M252.8 191.4s9.2-4.5 15.7 2.3c6.5 6.9 6.9 14.8 6.9 14.8s-3.6 5.5-20.8 5.5h-41.5s-1.7-3.1 0-8.5c0 0-4.2-2.8-1.3-6.8 2.9-4 5.6-1.8 5.6-1.8s3.9-10 11.7-7 17.2 6 23.7 1.5z"/><path fill="#83B1B1" d="M284.9 189.8c-1.7-9.5-6.5-34.5-12-41.8-5.6-7.3-4.6-9-26.8-18.2 0 0-5.1-14-9.5-12.1 0 0-6.5 18.2-18.5 31.3l-6.6 10.4s-6.5-7.7-13-6.5l-5.3 3.8s-11.5 2.5-16.3-1.2c0 0-8.5 7-12.7 23.8 0 0 15.9.7 21.7 8.6 0 0 3.3 4.7-.6 6.1l1.1 4.4s6.6-2.3 9.1 6.8c0 0 7 1.6 5.2 6.6H212l.9-5.3s-3.4-4.5-1.2-8c2.3-3.5 5.6-1.8 5.6-1.8s5-9.4 10.2-7.8c0 0 5.3-13.6 7.1-11.1s.4 7.5-3.6 12.7c0 0 16.5 5.9 20.7 0 0 0-1.4-6 9.1-7.2 10.5-1.3 15.2-.1 18.5 3.3 3.4 3.6 5.6 3.2 5.6 3.2z"/><path fill="#B5A38C" d="M158.2 185.6s-1.5 7.7 5.9 8.4 17.1 3 17.1 3 3.5 2.5 4.7-.1c1.2-2.6-.7-3.3-.7-3.3s1.6-1.7 1.9-3.1-.8-4.3-5.4-6.7c-4.7-2.4-9.5-4.4-14.7-4.2s-7.9.6-8.8 6zM251.7 190.7s-1.3-7.7 11.8-7.8 23.4 6 22.9 15.3c-.3 7.2-3.3 6.6-3.3 6.6s0 5.8-3.3 5.3-5-.7-4.8-3.4c.2-2.7-1.6-9.7-6.7-13.1s-9.3-4.8-16.6-2.9z"/><path fill="#727272" d="M233.2 178.8l-5.7 9.5 2.9 2.3 6-8.1zM220 210.1s-4.4-.7-4.5 1.9 1.5 2.7 4.5.9v-2.8z"/><path fill="#F4C09D" d="M160.7 192.9l24 5.1s.1.8 1.9.6c1.7-.3 4.3.2 6.4 2.7 2.1 2.4 2.7 4.2 2.7 4.2s6.3 2.2 5.2 5.7c-1.2 3.5-5.8 1.3-5.8 1.3s-4.3 2.5-9.2 1.5c-4.9-1-4.4 1-9.5.2-5.1-.9-8.1-.7-9.3-.7h-14.7s-1.7-2.1 0-5.4 7.4-15.4 8.3-15.2zM234.3 123s-7 16-15.2 24.3-7.4 13-7.4 13-1-7.3-12.5-7.5c0 0 3.1-6.1.4-9.2-2.7-3.2-17.3-6.6-20 2.7l-7.4-4.7s-8.5 4.6-12 0-6.3-8.8-1-11.6c0 0 .2-2.4-4.6-11.5s-12.1-18.9-8.1-23.4c0 0 2 .5 3-1.9.9-2.4 8-10.4 8-10.4l-1.7-3.3s4.6-12 21.3-20.5l2.5 3.1s10.5-7.8 19.2-4l.1-4.5s11.3-4.5 15.2 6.7 14.3 31.4 14.3 31.4-.7-7.4 6-6.1c6.7 1.3 10.3 14.9-2.2 20.6 0 0 3.7 12.1 3.6 12.3s-1.5 4.5-1.5 4.5z"/><path fill="#FFD0B0" d="M172.8 140.8c-6.2-8.3-7.9-19.7-4.2-29.4s12-17.2 21.7-21c8.9-3.5 19.5-3.8 27.8 1.1 5.9 3.5 10 9.3 13.4 15.3 0 0 5.7 7.4 4.3 11.8S222 131.8 222 131.8s-11.7 9.8-23 10.6c0 0-13.4-6.7-19.3 3.9 0 0-5.6-3.8-6.9-5.5z"/><path fill="#D6A380" d="M199.3 152.9s10.2 0 12.3 6.5l20.4-31.5-31.8 16.4-.9 8.6z"/><path fill="#C69777" d="M198.9 142.4s13.4-2.3 21.1-9.5 14-9.2 14-9.2l-6.8 13.4s-11.9 11.8-26.6 11.2c0 .1-.1-4.1-1.7-5.9z"/><path fill="#F66EAD" d="M168.2 144.3s3.2 10.7 11.4 12.2c8.1 1.5 18.4 1 20.6-5.8s-1.9-9.7-8.3-10.1c-6.3-.3-10.4.5-12.2 5.7l-7.4-4.7-4.1 2.7z"/><path fill="#565C56" d="M159.6 127.9s-12.4-20.8-13.4-25.1c-.9-4.3-2.1-2.8.3-7.6 2.3-4.8 10.9-22.3 17.7-27.4 6.8-5.2 17.6-12.9 37.1-14.4 10.4-.8 12.8 6.4 14 10.5s12.4 26.7 12.4 26.7 1.1-19.2-1-30.7-4.5-26.1-10.2-30.7-16.9-15.4-53.3-4.8c-34.1 10.4-48 33.7-48 33.7s5.7 24.8 11.6 35.2c5.9 10.3 22.7 38.7 32.8 34.6z"/><path fill="#434943" d="M174.2 51.6l5.3 10.5s10.3-7.3 19.2-4c0 0 1.9-11-6.8-14.2-8.7-3.1-15.1-.1-17.7 7.7zM149.4 68.8l8.1 14.1s-7.4 7.1-8.6 12.5c0 0-7.2-1.8-7.5-11.8-.4-10.1 3.5-17.8 8-14.8z"/><path fill="#747A74" d="M118.8 70.5c.5 2 1 4 2 5.8 1 1.8 2.7 3.2 4.7 3.5 2.1.3 4.1-.6 5.8-1.9 8.2-6.1 9.3-18.5 17.1-25.1 4.7-4 11-5.4 16.8-7.5 9.9-3.6 19.1-9.9 29.6-10.3 3.2-.1 6.4.4 9.6-.2 3.2-.5 6.4-2.3 7.4-5.4.5-1.4.3-3.1-.7-4.3 0 0-18.5-14.4-55.1 1.9s-40.9 31.1-40.9 31.1l3.7 12.4z"/><path fill="#fff" d="M191.2 78.1c-.3.2-5.4 7-2.1 18.1s12.5 12 17 9.1c4.5-2.9 4.7-10.9.6-18.5s-9.5-12.7-15.5-8.7zM160.4 103.1s-2 12.8 5.1 17.8 19.7 2.6 20.2-9.7c0 0-8.4-12.8-16.7-13.7s-8.6 5.6-8.6 5.6z"/><path fill="#EAEAEA" d="M175.6 100.3s-8.8 6.4-9.3 20.6c0 0-8.8-7.9-6.1-17.2s10.2-9.3 15.4-3.4zM189.5 90.7s6.5-3.9 17.2-2.9c0 0-6.1-12.3-13.3-11s-5.1 14.9-5.1 14.9l1.2-1z"/><path fill="#565C56" d="M207.6 117.5c-.3.7 5.4-2.1 5.4-2.1s-2.8-3.3-5.4 2.1z"/><path fill="#C94343" d="M205.8 118.8s-1.9 4.6 1.8 3.8c3.7-.8 6.7-3.1 6.2-4.9-.6-1.7-2.5-2.9-8 1.1z"/><path fill="#858C85" d="M145.5 56.1c-.8 1.4-1.3 3-1.9 4.5-.6 1.5-1.5 3-3 3.7 1.8-3.1 2.4-5 3.5-7.1 2.6-4.7 7.6-7.5 12.4-9.9 1.3-.7 2.7-1.3 4.1-1.8 1.4-.4 2.8-.7 4.1-1.1 8.3-2.2 15.5-7.9 24-8.8-8.7 2.5-16.3 7.6-24.9 10.4-1.7.6-3.5 1.1-5.2 1.7-2.1.8-4 1.8-6 2.8-2.7 1.5-5.5 3-7.1 5.6z"/><path fill="#759B9A" d="M190.4 197.3c0 .2 0 .5-.2.7-.3.4-.9.1-1.4 0-1.3-.3-2.6 1-4 .9.8-.8 1.5-1.7 1.7-2.8.2-1.1-.5-2.4-1.6-2.5 2.1-.9 2.8-4.1 1.3-5.8 2-3.9 3-8.2 3-12.5.9 4 1 8.3.3 12.3-.3 1.6-.7 3.2-.5 4.8.4 1.7 1.3 3.3 1.4 4.9zM199.6 206.9s7.9.1 7.9 5.1H201s0-4-1.4-5.1z"/><path fill="#DACDBC" d="M184.8 194c1.2-.3 2-1.5 2.1-2.8.1-1.2-.5-2.4-1.2-3.5-1.7-2.5-4.2-4.2-7-5.4-2.8-1.2-5.7-1.7-8.7-2.2-1.5-.3-3.2-.5-4.6 0-1.5.5-2.7 2.1-2.2 3.6.4 1.2 1.6 2 2.9 2.4 3.6 1.3 7.5 1.4 11 2.9.3.1.7.4.7.7 0 .5-.6.7-1.1.7-2.8.1-5.6-1.3-8.4-1.2-.3 0-.6 0-.8.3-.3.3-.1.9.2 1.2.4.3.8.3 1.3.4 2.7.4 5.4 1.2 7.9 2.4 1.8.9 3.5 2 5.4 2.7.9.4 2 .6 2.9 0s.6-2.1-.4-2.2zM281.4 189.7c-.4-1.3-1.4-2.4-2.4-3.2-2.8-2.3-6.4-3.4-10-3.7s-7.2.3-10.7 1c-1.4.3-3.2 1-3.2 2.4 1.9.7 4.1.4 6.1.2 5.4-.4 11.4.1 15.4 3.7.7.7 1.4 1.4 2.4 1.8.9.3 2.2 0 2.5-.9.1-.4 0-.9-.1-1.3z"/><path fill="#9BC9C7" d="M236.5 118.3c1.9 2.1 2.5 5.1 2.6 7.9.4 6.9-1.2 14.1-5.7 19.4-.4.5-1 1.1-1.7.9-.4-.1-.7-.3-1-.5-1.4-1-3.2-1.5-4.9-1.3 3.1-5.8 5-12.1 6.8-18.4M274.3 151.3s-2-7.7-8.8-11.9"/><path fill="#9BC9C7" d="M246.3 134.9c.9 3 1.3 6.2 1.2 9.4 5.9-1.7 12.8 1.2 15.8 6.6 1 1.8 1.6 3.9 3.3 5.2 1.5 1.2 3.8 1.3 5.5.3 1.7-1 2.6-3.1 2.3-5 0 0-3.8-9.9-10.4-13-6.7-3.1-17.8-8.5-17.8-8.5l.1 5zM170 172.5c-.4-.1-.8-.1-1.1-.3-1.2-.7-.9-2.5-.4-3.8 1.8-4.3 4.5-8.1 7.2-11.9.3-.4.6-.7 1-.9.3-.1.7 0 1.1.1.8.3 1.7.6 2.1 1.4.2.5.2 1.1.1 1.7-.3 3-.8 6-1.6 8.9-.3 1.1-.6 2.2-1.3 3.1-1.7 2-4.6 2-7.1 1.7z"/><path fill="#759B9A" d="M250.3 180.5s-.2-7.8-1.5-12.4c0 0-4.4 9-3.2 25.5 0 0 6-1.3 6-3 .1-1.7.1-3.3.1-3.3s-1.2-3.8-1.4-6.8zM226.8 148.7c-2.9-.6-6-.1-8.6 1.3-2.6 1.5-4.6 3.9-5.6 6.7.1 0 .2-.1.2-.1-.8.7-1.6 1.6-2.2 2.5-2.5-5.1-9.7-7.3-14.6-4.4-1.5.9-2.9 2.2-4.7 2.6-.9.2-1.8.1-2.5.6-1.3.9-.9 2.9-.2 4.4s1.6 3.1.9 4.5c-.3.5-.7 1-.9 1.5-.3 1 .3 2.2 1.2 2.7.9.5 2.1.5 3.1.4 2-.3 3.9-1.2 5.5-2.5.9-.8 1.8-1.7 2.9-2.3.9-.4 1.8-.6 2.7-.8 3.7-.9 7-2.9 10.2-4.9 3.5-2.2 6.9-4.3 10.4-6.5.4.1.7.3 1.1.5 2.1 1.1 3.5 3 3.9 5.1 1.9-.5 2.8-1 4.3-3.1.1-.1.2-.1.2-.1.1-.1.1-.2.1-.3-.1-3.9-3.6-7-7.4-7.8z"/><path fill="#D6A380" d="M146.4 102c.7 1.3.6-3 1.8-4 .6.9 1.3 1.7 2.1 2.4-.2-2.5 1-5 2.5-7 1.6-2 3.6-3.5 5.6-5.1-.2-1.9-2-3.4-2-5.3 0-.9.4-1.7.9-2.5 4-7 10-12.8 17-16.6.3-.2.7-.3 1-.2.3.1.5.3.6.6.6.9 1.1 1.9 1.4 3 5.2-4.9 12.9-7.1 19.9-5.8.6-1.3.5-2.9-.1-4.3 0 0-9.1-2.5-17.8 4.9l-1.6-3.1s-16.1 7.9-21.8 19.5c0 0 3.2 2.8-2.6 8.5-5.8 5.8-4.8 8.3-4.8 8.3l-2.3-.2c.3.1-2.2 2.2.2 6.9zM199.1 57.2c2-.4 4-.6 6.1-.7.6 0 1.3-.1 1.9.1.6.2 1.2.5 1.7.8 1.5.9 2.9 1.8 4.3 2.7.2-.7-.1-1.4-.5-2.1-1.1-1.8-2.5-3.5-4.4-4.4-2.2-1-4.8-.7-7.2-.3-.7.1-1.5.3-1.8.9-.2.3-.2.7-.2 1 0 .7 0 1.3.1 2zM160.6 130.8c.7 1.5 1.6 2.8 2.7 3.9-2.4.7-5.2-.8-6.1-3.2.7-.5 1.4-1 2.1-1.4.1-.1.2-.2.4-.2.4-.1.7.5.9.9z"/><path fill="#EA5CA3" d="M171.9 141.3c-.5.2-.9.5-1.4.8-.2.1-.3.2-.4.4-.1.2 0 .5 0 .7 1.5 4.6 6 8.1 10.8 8.4-.8-.2-1.4-1-1.6-1.8-.2-.8-.1-1.7.1-2.5 0-.2.1-.4 0-.6-.1-.1-.3-.2-.4-.3-2.3-.9-3.2-3.8-5.4-5.1-.2-.1-.5-.3-.8-.3-.3 0-.6.2-.9.3zM183.5 145.9c-.4.3-.7.5-.9.9-.2.5.1 1.1.6 1.5 1.6 1.6 4.1 1.8 6.5 1.9.6 0 1.2 0 1.8-.1 1.6-.3 3.1-1.3 3.8-2.6.3-.5.4-1.2.1-1.7-.2-.3-.5-.5-.9-.7-1.8-.9-4-1.2-6-1-.8.1-1.6.2-2.4.5-1 .2-1.8.8-2.6 1.3z"/></g><g><path fill="#587572" d="M186.5 188.4c2.3-3.8 3.4-8.8 3.4-13.2 0-.9-1.2-.8-1.3 0-.4 4.6-1.6 8.4-3.2 12.7-.4.7.7 1.1 1.1.5z"/><path fill="#CECECE" d="M203.8 213.3c-5.5 1.3-10.8 3.1-16 5.4-3.8 1.7-9.7 3.6-12.1 7.2-.4.6.1 1.2.7 1.3 15.3 1.1 30.6 2.1 46 3l10.8.6c1.5.1 4.3.8 5.7-.2 1.4-1 1.3-3.9 1.6-5.2.8-3.6 1.6-7.2 2.3-10.9.2-1.2-1.6-1.8-1.9-.5-.7 3-1.3 6-2 9-.3 1.3-.3 3.4-1 4.5-1.1 1.7-2.6 1.3-4.8 1.3-6.2 0-12.4-.6-18.6-1-12.7-.7-25.4-1.6-38.1-2.4.2.4.5.8.7 1.3 2.3-3.3 8.7-5.4 12.3-6.9 4.8-2.1 9.7-3.8 14.7-5.2.9-.2.5-1.5-.3-1.3z"/><path fill="#AD846F" d="M158.7 197.3c.5-1 1-2.1 1.4-3.1.3-.7-.9-1.2-1.2-.5-.5 1-.9 2.1-1.3 3.2-.2.6.8 1 1.1.4z"/><path fill="#CECECE" d="M195 213.8c5.9.2 11.9.1 17.8.1 1 0 1-1.5 0-1.5-5.9-.1-11.9-.2-17.8.1-.9 0-.9 1.3 0 1.3z"/><path fill="#515151" d="M228 188.6c.9-1.4 1.7-2.9 2.6-4.3.7-1.1 1.5-3.1 2.4-3.9.5-1.1 1.2-.6 2 1.5-.1.2-.3.5-.4.7-.3.7-1 1.6-1.4 2.2l-2.7 4.5c-.5.9.8 1.7 1.4.8 1.6-2.6 3.7-5.4 4.8-8.2.6-1.5.5-3.7-1.2-4.5-1.6-.7-2.8.6-3.6 1.8-1.9 2.7-3.7 5.7-5 8.8-.2.7.7 1.3 1.1.6z"/><path fill="#E0AA86" d="M196.8 105.4c-6.2-2.4-7.3-10.5-7.9-16.3-.6-5.7 1.6-14.7 9.6-10 4.2 2.4 7.5 8.6 9.2 13.1 1.3 3.4 2.7 7.9-.4 10.9-2.6 2.6-6.7 3.4-10.1 2.2-1.2-.4-1.6 1.4-.5 1.8 6.5 2.4 14.7-2 14.3-9.3-.4-7.1-5.9-18.3-13-21.1-15.8-6.3-13.6 26.8-1.7 30.3 1.1.3 1.5-1.2.5-1.6zM184.9 111.7c-.8 8.1-8.2 13.8-16.1 9.7-4.8-2.5-8.4-8.3-8.4-13.7 0-2.8.9-5.8 3.1-7.8 3.8-3.4 8.3-1.2 11.6 1 4.2 2.8 7.9 6.6 10.1 11.2.4.8 1.8.2 1.5-.6-2.5-6.9-10.6-14.4-18.2-15.2-6.3-.7-10.5 6.8-10 12.4.6 7.3 6.7 15.1 14.3 15.9 7.6.8 14-5.3 13.5-12.9-.1-.8-1.3-.8-1.4 0z"/><path fill="#AD846F" d="M180.8 117.6c.6-.1 1.1-.4 1.5-.8.6-.7.8-1.7.3-2.5s-1.5-1.2-2.3-.9c-.7.2-1.1.8-1.4 1.4-.2.4-.4.9-.3 1.3.2 1 1.4 1.3 2.4 1.4"/><path fill="#AD846F" d="M181 118.3c1.6-.2 2.8-1.7 2.7-3.3-.1-1.6-1.6-2.8-3.1-2.6-1.6.2-3 2-2.9 3.6.1 1.6 1.9 2.6 3.4 2.5.8-.1 1.4-1.4.5-1.7-.5-.2-1.4-.3-1.7-.7-.4-.5.3-1.6.8-1.8.7-.3 1.4.2 1.5.8.2 1-.6 1.7-1.5 1.9-.9.2-.6 1.4.3 1.3zM200.4 103.6c.9-.4 1.6-1.2 1.7-2.2.1-1-.6-2-1.6-2.1-.3 0-.7.1-1 .2-1 .5-1.6 1.6-1.4 2.7.2 1.1 1.5 1.8 2.5 1.3"/><path fill="#AD846F" d="M200.7 104.2c1.3-.7 2.4-2.1 2.1-3.7-.4-1.7-2-2.5-3.6-1.8-1.5.7-2.5 2.5-1.9 4.1.6 1.4 2.4 2.4 3.8 1.5.9-.6.3-2-.7-1.7-1.6.4-1.5-1.6-.4-2.2.7-.4 1.3.1 1.4.8.1.8-.7 1.5-1.4 1.8-.7.5-.1 1.6.7 1.2z"/><path fill="#373A37" d="M115.8 58.6c11.5-15.5 27.8-26.8 46.1-32.9 18.3-6.1 45.9-10.7 57.6 9.1.6.9 2 .1 1.5-.9-11-19.8-38.3-16.3-56.5-10.8-19.8 6-37.8 17.8-49.8 34.8-.6.8.6 1.4 1.1.7zM156.2 78.9c4.6-8.3 13.2-14.5 21.2-19.1.9-.5.1-2-.8-1.4-8.2 4.5-17.8 11.2-21.4 20.1-.3.5.7.9 1 .4z"/><path fill="#AD846F" d="M229.9 96.3c0-1.4-.3-2.7-1-3.9-.5-.9-1.9-.1-1.4.8.5 1 .8 2 .9 3.1 0 .9 1.5.9 1.5 0zM229.2 88.4c5.9-5.8 10.7 2.2 9.8 7.8-.8 4.7-4 7.7-8.4 9.3-1 .4-.6 1.9.5 1.7 6.8-1.8 11.1-8.6 9.6-15.5-1.3-6.1-7.9-9.3-12.5-4.1-.6.5.3 1.4 1 .8zM158.5 129.2c1.4 2.2 3 4.3 5 6.1.8.7 1.9-.4 1.1-1.1-1.7-1.8-3.4-3.6-4.9-5.6-.5-.8-1.7-.2-1.2.6zM198.7 143.1c5.6-1 11.1-2.4 16-5.3 5.1-3 9.5-7.1 14.3-10.4 3.5-2.4 6.9-4.6 7.5-9.1.5-4.5-2.2-8.5-4.6-12-.6-.9-2 0-1.4.8 4 5.7 7.1 12.3.1 17.4-2.6 1.9-5.2 3.6-7.8 5.6-3.3 2.6-6.6 5.3-10.4 7.3-4.5 2.4-9.3 3.4-14.2 4.6-.7.1-.4 1.3.5 1.1z"/><path fill="#587572" d="M236.1 117.4c-3.2 6.9-6.4 13.6-10.5 20-4 6.3-9.7 11.6-13.3 18.1-2.5 4.4-2.1 8.6.9 12.7 1.9 2.6 4.3 4.9 5.9 7.8 2.4 4.3 3.1 8.9 2.8 13.8-.1 1.1 1.6 1.1 1.7 0 .4-5.9-1-11.7-4.4-16.7-1.8-2.6-4.2-4.7-5.7-7.5-2.7-5.1.1-9.5 3.2-13.5 8.4-10.4 16-21.6 20.6-34.3.2-.6-.9-1.1-1.2-.4zM236.8 117.7c8.2 3.8 9 14.2 7.1 22-1.8 7.2-5.9 13.4-10.2 19.3.5.2 1.1.4 1.6.7 2.1-12-15.9-15.3-21.5-6.3-.4.7.6 1.5 1.1.9 5.1-6.2 20.9-6 18.7 5-.2 1 1 1.5 1.6.7 5.6-7.7 10.9-16.3 11.3-26.1.2-6.9-2.1-14.7-9.2-17.1-.7-.4-1.1.6-.5.9zM192.5 156.1c-2.4 3.6-2.8 7.8-3 12 .4-.2.8-.5 1.2-.7-3.4-2.2-5.3-5.8-5.2-9.9 0-1-1.6-1-1.6 0-.1 4.6 2.2 8.8 6 11.3.5.4 1.2-.1 1.2-.7.2-3.9.5-7.8 2.8-11.2.6-.9-.8-1.7-1.4-.8zM212.5 162.5c.5-6.7-8.2-11.1-14-10.3-1 .1-1 1.7 0 1.6 4.9-.6 12.8 2.9 12.4 8.7-.1 1 1.5 1 1.6 0zM174.9 155.2c-4.9 6.5-11 15.9-11.6 24.3-.1 1.1 1.6 1.1 1.7 0 .5-8 6.8-17.1 11.2-23.5.7-.9-.7-1.6-1.3-.8z"/><path fill="#82786F" d="M186.7 187.9c-4.2-6.2-11.7-7.9-18.8-8.7-6.9-.8-10.8 1.9-10.6 9.1.1 2.2.1 4.4 2.3 5.5 3.2 1.7 8.4 1.1 11.8 1.7 3.1.5 5.8 1.3 8.6 2.6 1.1.5 2.3 1.3 3.6 1.3 1.9-.1 3-1.1 3.4-2.9.1-.6-.8-.9-.9-.3-.6 2.7-12.6-1.8-14.4-2.1-4.5-.7-11.7.6-13-5.2-.9-4.1 1.1-8.1 6.1-8.7 2-.2 4.5.5 6.4.8 5.6 1 10.8 2.8 14.4 7.5.4.7 1.6.1 1.1-.6zM186.4 196.6c1-1 .2-2.3-.7-3-1.4-1.1-3.2-1.5-4.9-1.4-.9.1-.9 1.4 0 1.4.9-.1 1.8 0 2.7.3.6.2 2.6 1.1 2 2-.3.6.5 1.2.9.7zM186 189c.5.7.6 1.5.3 2.3-.3.8-.8 1.2-1.5 1.7-.6.4-.2 1.4.5 1.2 2.5-.6 2.9-4.2 1.5-5.9-.3-.4-1.1.2-.8.7z"/><path fill="#587572" d="M245.8 130.3c4.3 3.1 9.2 4.7 14 6.9 6.8 3.1 10.9 7.3 13.8 14.3 5.1 12.3 8.4 25.3 10.6 38.5.2 1 1.7.6 1.5-.4-2.2-14.1-5.8-28.9-12.1-41.9-5.4-11.1-17.6-12.4-27.2-18.4-.6-.4-1.2.6-.6 1zM249.7 180.5c-.3 2.3.2 4.5 1.1 6.6.4.9 1.7.1 1.3-.8-.9-1.9-1.2-3.8-1.2-5.9.1-.7-1.1-.7-1.2.1z"/><path fill="#82786F" d="M252.2 190.5c-1.2-8.9 19.3-7.6 23.4-5.5 2.5 1.3 5.3 3.4 7.3 5.4 2.4 2.5 5.3 11.3.5 13.4-.8.4-.1 1.6.7 1.2 3.7-1.6 3.5-7.3 2.7-10.6-1.2-5-6.9-8.9-11.3-11-5.6-2.7-26.1-2.8-24.4 7.3.2.9 1.2.5 1.1-.2z"/><path fill="#AD846F" d="M152 214c5 .3 10 .2 15 .1.8 0 .8-1.3 0-1.3-5-.1-10-.2-15 .1-.7.1-.7 1.1 0 1.1zM220 214c13.6.4 27.2.3 40.8.1.8 0 .8-1.3 0-1.3-13.6-.1-27.2-.3-40.8.1-.7.1-.7 1.1 0 1.1zM152.7 213.1c-1.9-2.3 1.5-7.2 2.6-9.3 1.1-2.2 2.4-4.4 3.5-6.6.3-.7-.6-1.2-1-.6-2.4 3.6-4.3 7.7-6 11.7-.9 2-1.7 4 .2 5.7.4.4 1.1-.3.7-.9zM260.3 214.2c5.5-.1 11.5-.8 14.9-5.7.5-.7-.6-1.5-1.1-.9-3.4 4.4-8.6 4.9-13.8 5.4-.7.1-.8 1.2 0 1.2zM223.5 200.6c-2.4 3.8-4.8 7.9-4.4 12.6.1 1 1.6 1 1.5 0-.2-4.5 1.9-8.1 4.1-11.9.6-.8-.7-1.5-1.2-.7zM231.4 204.4c-2.3 2.5-3.7 5.7-3.1 9.1.1.9 1.5.6 1.5-.2-.1-3 .5-5.7 2.4-8.1.5-.5-.3-1.4-.8-.8zM217.1 195.5c-5.9-2.9-10.5 9.8-4.6 10.3.9.1 1.1-1.4.2-1.6-2.5-.4-.9-4-.2-5.4.9-1.8 2.3-2.3 4.3-2.1.6.1.9-.9.3-1.2zM168.5 213.2c-.7-2.1-1-4.3-.6-6.5.6-3.1 1.4-3.7 4.5-4.8 2.5-.9 3.7-.8 5.9-1.1 2.9-.4-1-.8 5.1-.5.5 0 1 .5 1.5.4 3-.5 3.2-3.3 7.2.8 1.3 1.3 2.1 4.1 2.1 6 1 3.2-.9 5.3-5.7 6.2-.5-.1-1-.3-1.6-.4-2.6.1-.7-.6-3.4-.3-.9.1-1.9.8-2.8.9-2.6.2-4.8-1.1-7.2-1.5-2.1-.3-3.9.2-5.8 1-1 .4-.1 1.8.8 1.4 4.6-2 5.8.5 9.7 1 1.8.3 2.6-.6 4.3-1 3.8-.7 8.2 2.2 11.5-.7 4.2-3.8 1.8-14.1-3.2-16.4-1-.5-1.8-.4-2.9-.3-.5.1-.8.6-1.3.7-1.5.3-3-.1-4.3-.2-1.2 0-1.8.1-2.9.4-2.1.5-3.6 0-5.5 0-7.2 0-8.8 9.7-6.8 15 .4 1.2 1.7.8 1.4-.1zM195.7 206.2c2.3-.2 3.8 1.5 4.2 3.6.2 1.1.3 2.1-1.1 2.2-1.2.1-2.4-.1-3.6-.3-1-.2-1.5 1.3-.4 1.6 1.6.5 4 .8 5.6.1 1.3-.6 1.3-2 1.2-3.3-.4-3.1-2.8-5.8-6.1-5.2-.8.1-.6 1.4.2 1.3z"/><path fill="#373A37" d="M114.5 58.1c1.3 14.7 7.9 30 15.4 42.6 3.8 6.4 8.2 12.5 13.1 18.1 4.2 4.9 8.9 10 15.7 10.5.9.1 1.1-1.4.2-1.5-7.4-1.1-12.4-7.2-16.9-12.6-4.6-5.6-8.8-11.7-12.3-18.1-6.9-12.5-10.3-25.4-13.9-39-.2-.9-1.4-.8-1.3 0zM160.2 127.7c-2.5-5-5.1-10.1-7.8-15.1-2.4-4.5-8.4-12.1-5.2-17 .6-.9-.8-1.7-1.5-.9-3.4 4.8-.6 7.9 1.9 12.6 3.7 7 7.5 14.1 11.3 21 .5.9 1.7.2 1.3-.6zM220 34.4c5.2 18.9 8.3 37.6 7.4 57.3-.1 1.1 1.7 1.1 1.7 0 .9-19.3-1.3-39.3-8-57.6-.2-.7-1.3-.4-1.1.3zM199 54.4c6.4-1.6 11.8.2 14.2 6.5 1.4 3.7 2.4 7.5 3.9 11.2 2.8 7 6.3 13.9 10.5 20.1.6.9 2 .1 1.4-.8-6-10-9.9-20.1-14.1-31-2.8-7.3-8.9-9.6-16.3-7.3-.8.2-.4 1.5.4 1.3zM148.4 68.2c1.7 4.3 4.2 7.8 6.5 11.7.8 1.3 1.4 2.4.8 3.5-.4.8-2.1 2-2.7 2.6-1.2 1.3-2.4 2.7-3.2 4.2-.3.6-1.2 3.7-1.4 3.7-1.2.4-3.6-2.5-4.2-3.4-.8-1.3-1.3-3-1.7-4.4-.6-2.9-.7-5.9-.1-8.7.4-1.7 2.9-9.9 5.9-8.3 1 .5 1.8-.9.9-1.5-5.5-3.1-8.5 8.1-8.9 11.7-.6 6 1.4 16.3 8.7 17 .5 0 .8-.4.9-.9.5-4.4 3.3-7.3 6.4-10.2 1.4-1.3 2-1.5 1.8-3.3-.1-1.8-2.9-4.1-3.8-5.4-1.9-2.7-3.4-5.7-4.7-8.7-.2-.9-1.5-.4-1.2.4zM173.6 52c1.2 2.6 2.7 8 4.8 9.8 1.1.9.4 1 2.2 1 1.8 0 4.3-3 6-3.7 3.9-1.6 7.9-1.5 11.9-.1.6.2 1-.3 1.1-.8.6-7.6-3.4-14.9-11.3-16.3-6.8-1.2-12.9 2.9-14.8 9.4-.3 1 1.3 1.5 1.6.5 1.8-6 7.9-9.8 14.1-7.8 6.3 2 9.5 8 8.7 14.4.4-.3.7-.5 1.1-.8-4.2-1.5-8.8-1.5-13 .2-1.1.5-5 3.6-6.2 3.4-1.2-.2-4.3-8.4-5-9.7-.4-1-1.6-.3-1.2.5zM118.9 53.5c1.7 5.7 3.7 11.3 5.4 17 .3 1.1 2 .6 1.7-.5-1.7-5.7-3.4-11.4-5.6-17-.3-.8-1.8-.4-1.5.5zM123.2 49.6c.5 2.7 1.3 5.4 2.1 8 .3 1.1 2 .6 1.7-.5-.8-2.6-1.5-5.3-2.2-8-.3-1-1.8-.6-1.6.5zM128.3 44.2c1.4 7.5 3.5 14.8 6.2 21.9.4 1 2.1.6 1.7-.5-2.6-7.2-4.7-14.4-6.3-21.8-.3-1-1.8-.6-1.6.4zM206.3 122.9c-.5-2-.1-4.3 1.3-5.9 1.2-1.4 4.1-3 5.6-1.2.7.9.7 2.2 0 3-.6.6-1.4 1-2.2 1.3-.7.4-3.9 2.3-4.6 1.9-.8-.6-1.6.8-.8 1.4.9.7 1.9.2 2.8-.2 1.6-.7 3.2-1.5 4.7-2.4 1-.7 2.3-1.6 2.5-3 .2-1.2-.8-2.5-1.5-3.4-1.6-2-4.8-.6-6.4.7-2.4 2-3.3 5.1-2.4 8.1.1.6 1.1.3 1-.3zM206.6 119.3c1-.9 2.1-1.7 3.4-2.2.4-.1 1-.4 1.4-.4 1.1 0 1.5 1.2 1.9 2 .4.7 1.6.2 1.4-.6-.6-1.7-1.4-3.3-3.4-3-2.2.4-4.2 1.5-5.6 3.2-.5.7.3 1.5.9 1z"/><path fill="#CC508E" d="M183.8 144.5c-2.4 1.5-1.6 4.6.6 5.9 3 1.8 8.2 1.3 10.8-1 2.4-2 2-5.5-.9-6.7-3.9-1.6-7.9-.8-11.1 1.8-.8.6.2 2 1.1 1.4 1.6-1.1 3.3-2 5.3-2.1 1.9-.1 7 .8 4.6 3.8-1.1 1.4-3.7 1.8-5.4 1.8-1.5 0-6.9-1.3-4-3.8.6-.5-.3-1.6-1-1.1zM184.2 146.5c2.4-2.1 8.2-2.5 10.4 0 .9 1 2.3-.5 1.5-1.5-3-3.5-9.8-2.6-12.9.4-.7.8.3 1.8 1 1.1zM167.5 144.5c2.2 12.7 18.2 17.7 28.7 11.7 4.3-2.4 6.9-8.3 4.3-13.1-2.6-4.7-10.8-3.9-15.1-3.2-1.2.2-.7 2.1.5 1.8 2.2-.4 5.8-.9 8.2-.1 3.1 1 6 5.3 4.8 8.7-1.6 4.5-7.6 6-11.8 6.3-8.6.6-15.7-4.4-18.3-12.5-.3-.8-1.4-.4-1.3.4z"/><path fill="#AD846F" d="M159 129.3c-7.1 1.8-2.6 11 1.5 13.6 2.5 1.6 5.7 1.9 8.5.9 1.3-.5 2.4-1.9 3.7-1.6.5.1 2.5 2.3 3 2.7.8.6 1.6 1 2.4 1.5.8.5 1.5-.8.7-1.2-2.4-1.4-4.2-3-5.9-5-.2-.3-.8-.3-1 0-2.2 2.2-5.6 3.3-8.6 2.3-1.3-.4-2.6-1.3-3.5-2.4-1.7-1.8-5.4-7.6-.3-9.3.8-.3.5-1.7-.5-1.5z"/><path fill="#CC508E" d="M185.7 140.2c-6.3 0-9.8 8.5-4.6 12.4 1 .7 2-.9 1-1.6-1.9-1.3-2-4.2-.8-6.1 1.2-1.9 3-2.4 4.7-3.5.6-.3.4-1.2-.3-1.2z"/><path fill="#AD846F" d="M214.6 212.9c-4.9-1.5 4.1-17.9 6.2-20.2 3.7-4 6.6-2.2 11.2-.2 1.4.6 2.4 1 4 1.2 5.5.7 14.5 1.8 18.4-3.2.5-.7-.6-1.5-1.2-.9-4.3 4.9-16.2 3.5-21.3.9-2-1-2.9-2.2-5.5-2.2-2 .1-4 .9-5.6 2.2-4.4 3.6-6.7 10.9-8.7 16-1.1 2.9-2.1 7.2 2.1 7.8.9.1 1.3-1.1.4-1.4z"/><path fill="#82786F" d="M279.1 196.8c1.4 2.3 2.7 5.2 3 8 .2 2.4-1.3 6-4.3 4.5-1.4-.7-1.7-3.2-2-4.5-.9-3.5-1.6-6.4-4-9.3-4.9-6-12.9-7.8-20.1-5.5-.9.3-.5 1.7.4 1.4 8.1-2.6 16.6.4 20.6 8.1 1.6 3.2.3 9.1 3.8 10.9 2.4 1.2 6.2.6 7.2-2.1 1.3-3.4-1.9-9.3-3.7-11.9-.5-.6-1.2-.2-.9.4z"/><path fill="#515151" d="M219.6 209.6c-.8-.8-2.8-.8-3.7-.1-.8.6-1.1 1.7-1.4 2.6-.3 1-.3 1.9.1 2.9.1.3.6.4.9.4 1.2-.2 2.4-.7 3.6-1.2.9-.4.1-1.7-.8-1.3-1 .5-2.1.8-3.2 1 .3.2.6.4.9.5-.4-1 0-2.5.7-3.4.3-.4 1.5-.7 1.9-.4.7.5 1.6-.4 1-1zM196.5 223.1c4.1.6 8.2.4 12.3.6 4.8.3 9.6.7 14.4 1 1.1.1 1.1-1.7 0-1.8-8.7-.5-17.9-.1-26.6-1.2-.7-.1-.9 1.3-.1 1.4zM203.2 220.3c8.5.7 17 1 25.5.9 1.2 0 1.2-1.8 0-1.8-8.5 0-17-.1-25.5-.4-.8 0-.8 1.2 0 1.3zM210.7 217.8c6.7.2 13.4.3 20-.1 1-.1 1-1.5 0-1.5-6.7.1-13.3.3-20 .3-.8-.1-.8 1.2 0 1.3z"/></g></svg>