<svg xmlns="http://www.w3.org/2000/svg" viewBox="0 0 444 480.7" enable-background="new 0 0 444 480.7"><g><path fill="#827E7A" d="M279 187h3v23h-3zM338.4 164.7s12.2-.9 12.4 2.8c.2 3.7-1.3 12.3-1.3 12.3s-1.4 17-1 24.8 1 16.1-1.7 16.4c-2.7.3-9.2.1-9.2.1l.8-56.4zM271 250.4s.6 2.4 7.7 3c7.1.5 15.4 1.3 15.8.9s19.6 1.5 31.4-4.1c11.8-5.5 14-8.4 14.1-11.8 0-3.4.3-5.4-4.1-6.3s-66.4 7.9-64.9 18.3zM303.2 279.6s-.2 4.4-2.7 7.7-5.5 5.4-5.2 8.8c.4 3.4.2 6.5 5.6 6.2 5.4-.3 12.5-5.7 14.6-8.7 2-3 7.2-13.1 7.2-13.1l-2.5-6.3-17 5.4zM243.8 261.3s-9.4 4.7-13.2 9.5-3.1 9.2-2.1 10.2c1 1.1 5.7 3.4 11.6 1.5s21.7-10.3 21.7-10.3 2.2-1.9 1.6-3.8-15.6-8.6-19.6-7.1z"/><path fill="#DACDBC" d="M320.5 246.4c6.4-1.9 15.5-3.8 15.5-16.7 0 0-52.4-13-67.2-5.5 0 0-12 .9-17.1 4.3 0 0-8.6 11.1-9.2 30 0 0 12.4 9.9 22.2 9.3 0 0 3.7-1.3 3.9-16.1 0 0 12.2-8.3 21-5.6 0 0-.9 4.9-.9 8.6 0 0 2 11.8 13 23.8 0 0 14.6-.2 20.7-5.7 0 0 .4-9.3-2.9-12.7-3.3-3.5-5.5-5.6-5.5-5.6s.1-6.2 6.5-8.1z"/><path fill="#E5DCD1" d="M268.7 226.2c-1.1-.6-2.3-1.1-3.5-1.3-1.5-.2-2.9.3-4.3.8-3 1-5.9 2-8.9 3 5.9.8 11.3 4.8 13.6 10.3 5.3-2.8 11.1-4.5 17.1-4.8-1.5-1.7-3.7-2.8-5.7-3.8-2.7-1.4-5.5-2.8-8.3-4.2zM298.5 232.1c-2.4.5-4.4 2.2-5.6 4.3-1.3 2.1-1.9 4.4-2.5 6.8-.8 3-1.4 6.1-1.2 9.1 5.3-2.6 11.5-3.3 17.2-1.9.8-7 5-13.5 11.1-17.1-4.8 0-9.5-.3-14.2-1-1.7-.2-3.3-.5-4.8-.2z"/><path fill="#BAAC9D" d="M335.3 225.1c-2-7.6-55.6-6.8-66.7-.9l-3.5.6c2.9 2.7 6.3 5.1 10.1 6.1 0 0 10.6 4 12.2 14.4l1.4.3 4.2-11.4c.5.1 1 .3 1.6.3 1.5.1 2.9-.4 4.4-.9.7 2.5 1.9 4.9 3.5 6.9 2.9-3.6 7.6-5.3 12.2-6.1 6.8-1.2 13.8-.9 20.8-.6-.2.3 1.8-1.1-.2-8.7z"/><path fill="#82786F" d="M356.2 62.4s.3 4.1 3.4 3.8c3.1-.3 14.9 6.4 15.2 6.7s3.7 4.7 5.6 1.5c2.1-3.2-7.1-19-24.2-12zM240.4 75.8s2.1 3.1 10.4-2.8 10.3-6.5 9.5-9.3-19.9 12.1-19.9 12.1z"/><path fill="#83B1B1" d="M360.7 63.7l-18.3 36.5-79-24.5-10.7-21s-3.3 10.6-10.4 19.2c0 0 5.3 7.1 8.5 17.6 3.3 10.5 7.4 21.9 9.8 26.9 2.5 5 6.6 15.4 8.5 28.3 1.9 13 11.9 35.7 11.9 44 0 8.2 2.4 23.2-12.1 32.4 0 0 3.1 3.1 12.1 4.6 9 1.5 13.3 3.9 19.5-3 0 0-.8 4.3 3.4 9.7 0 0 2.7-4.1 14.1-4.2 11.4-.1 20.9-1.5 20.9-1.5s-2.4-10.5-1-25 2-26.3.7-36.3c-1.4-10 4.4-29.4 12.4-47.1s20.6-41.4 20.6-41.4.5-4.7 6.2-7.8c0 .2-10.8-29.1-17.1-7.4z"/><path fill="#759B9A" d="M244 76.3s5.6-8.5 15.8-7.6l-4.6-12.8s-20 5.3-16 11.8c3.9 6.4 4.8 8.6 4.8 8.6z"/><path fill="#9BC9C7" d="M355.6 92.6c-4.1 6.4-7.9 13.1-11.2 19.9-2.4 4.9-4.7 10.2-9 13.6-.4-4-.7-8.3 1.2-11.8 1.2-2.2 3.1-3.9 4.4-6 .9-1.5 1.5-3.3 2.5-4.8s2.8-2.6 4.5-2.2"/><path fill="#9BC9C7" d="M323.5 212.4c-.3-2.9-.9-5.9-2-8.6-.2-.6-.4-1.2-.7-1.7-4.3-9.1-14.4-14.7-18.2-24 .2 4 1.4 8 3.7 11.3 1.5 2.2 3.3 4.1 4.1 6.6.7 2.1.5 4.5 1.3 6.6.2.4.4.9.6 1.3-.1 2.2-.8 4.3-1.7 6.2-2.2 4.9-5.2 9.4-9 13.2-.5.5-1 1-1.2 1.7-.2.7-.1 1.4 0 2.1.3 1.4.5 2.9 1.3 4.1.8 1.2 2.1 2.2 3.6 2.1 1.3-.1 2.3-1 3.4-1.7 5.5-3.5 12.8-1.5 19.2-2.7-3.4-4.6-3.7-10.8-4.4-16.5z"/><path fill="#759B9A" d="M359.7 65.9s10.5-2.7 15.2 7l3-2.4-13.3-14-4.9 9.4z"/><path fill="#F4C09D" d="M268.2 127.3l-2.9-10.9s-6.7-.2-5.9-7.5c.7-7.3 6.4-4.9 6.4-4.9s.9-7.5-.4-12.9-5.5-37.6 35.5-36.6 33.9 21.7 34.2 33c.3 11.3-.3 14 .4 14.5s9-1.2 9.2 4.8-9.2 6.5-9.2 6.5l-.2 13.8s-19.8 8.6-34.8 8.4c-23-.1-32.3-8.2-32.3-8.2z"/><path fill="#FFD0B0" d="M330 93.4c-.2-2-.5-4-1.6-5.7-2-3.1-6.1-4-9.8-4.5-12.4-1.8-25.3-2.7-37.4.5-2.9.8-5.8 1.8-7.9 4-3.9 4-3.6 10.5-3.1 16.1l2.5 25.1c0 .3.1.6.2.9.2.4.7.6 1.1.7 16.7 5.9 35.6 6.6 52.2.3.8-.3 1.7-.7 2.3-1.4.5-.7.7-1.6.8-2.4 1.7-11.1 1.9-22.4.7-33.6zm-36.7-1.6c-.8 1.1-1 2.8-1.5 4.1-.6 1.4-1.5 2.7-2.7 3.6-2.2 1.5-5 1.9-7.2.3h-.1s-.1 0-.1-.1c-.1-.1-.2-.2-.2-.3-.5-.3-1-.7-1.4-1.2-1.4-1.9-1.3-4.3-1.2-6.5-.2-.1-.3-.4-.2-.7 1.8-2.8 5.1-4.8 8.5-4.3 2.6.4 5.4 1.9 6.1 4.7v.1c.1 0 .1.1 0 .3zm29.7 4.6c-.1.2-.2.3-.3.3-1.3 2.5-4.1 4.7-6.6 5-4.5.6-7.3-3.5-8.4-7.4l-.1-.1c-.7-1.1-1.1-2.6-.7-3.9.4-1.2 1.5-1.6 2.6-1.6 1.4-.8 3.3-1 5.1-.7 2.6-.1 5.6.5 7.3 2.4 1 .4 1.9.9 2 2.1.2 1.3-.5 2.7-.9 3.9z"/><path fill="#D6A380" d="M266.4 77.7c.4 4 6.4-4.9 10.3-5.5.1.8.1 1.7.2 2.5 3.8-1.2 7.6-2.6 11.4-4 .6-.2 1.3-.5 1.7-1.1.3-.5.4-1.1.4-1.7.2-1.9.4-3.7.5-5.6 7.4 1.1 15.4-2.2 22.4.7 1.8.8 3.6 2.2 3.7 4.2 0 .8-.2 1.6.2 2.2.5.9 1.6 1 2.6 1.1 2.3.3 4.5 1.2 6.3 2.6 1.3 1 2.6 2.2 4.2 2.5 1.7.2 3.4-.9 3.9-2.4.5-1.6-.2-3.5-1.6-4.3 0 0-11.3-12.3-31.9-10.3-20.5 1.9-35.1 11.5-34.3 19.1z"/><path fill="#565C56" d="M264.1 85.8s-4.1-34.2 7.6-53c0 0 14.5-15.2 45.6-3.6s30.2 30.3 30.2 30.3 3.3 28.7-6 43.2l-6-.5-.9-31.5s-8.1-13.3-33.7-12.2c-27.3 1.2-34.1 15.2-34.1 15.2s-.8 16-2.7 12.1z"/><path fill="#434943" d="M316 54.8l-1.1 12s7.3-3.2 15 4.3c0 0 2.1-1.5 1.1-6.3-.9-4.7-5.3-12.8-15-10zM288.5 55.9L287 68.1l-13.2 5.5s-1.4-18.5 14.7-17.7z"/><path fill="#fff" d="M284 109.2s22.1 4.9 38.1.7c0 0 6 12.7-13.4 16.9-13.6 1.6-17.9-.8-17.9-.8s-6.7-9.9-6.8-16.8z"/><path fill="#747A74" d="M268.6 42.5c-.6 3.7-1 7.5-1.2 11.2-.1 1-.1 2.1.6 2.8.7.8 2 1 3 .6 1-.3 1.9-1.1 2.7-1.7 4.1-3.3 8.8-5.9 13.7-7.8 2.2-.8 4.8-1.5 7-.6 1 .4 1.8 1.1 2.8 1.7 3.8 2.1 8.5.6 12.7-.5 3.8-1 7.8-1.7 11.7-1.4 3.9.3 7.9 1.7 10.7 4.5 1.3 1.2 2.3 2.7 3.8 3.7s3.6 1.4 4.9.3c1.6-1.3 1.4-3.8.7-5.7-1.8-5.6-5.7-10.4-10.7-13.4 0 0-18.3-15-40.1-11.2-21.8 3.8-19.1 7.8-19.1 7.8s-2.8 6.7-3.2 9.7z"/><path fill="#B5A38C" d="M232 65.7s4.2-13.3 25.6-13.6l2.2 12.2-4.7.9-2.6-7.4s-.7 6.3-.9 9c0 0-7.5 2.3-11.2 8.5 0 0-7.1-6.5-8.4-9.6zM356.8 55.1l.3 8 5.3-.6 1.8-5.5.3 5.5s10.6-1.6 14.9 11.7l8-8.2s.1-11.1-13.4-14.4c-11.6-2-17.2 3.5-17.2 3.5z"/><path fill="#D6A380" d="M294.3 135.2l-1 5s-4.7 1-4.8 3.7c-.1 2.7 7.4 4.5 7.4 4.5s7.1.2 7.2 7.3c0 0 3.7-6.3 9.3-7.3s8.5-2.4 8-4.9c-.4-2.5-2.5-5-4.8-4.1l-1.2-4.4-20.1.2z"/><path fill="#759B9A" d="M303.3 154.9c-.7-1.6-1.5-3.2-2.7-4.4-1.2-1.3-2.8-2.2-4.6-2.1-2.8.2-4.8 2.9-5.6 5.5-.5 1.4-.7 3-.5 4.5.3 1.5 1.1 2.9 2.5 3.6-.3-2.2-.3-4.5.6-6.5.9-2 2.8-3.7 5-3.9s4.6 1.3 4.9 3.5c1.3-1.9 3.3-3.5 5.5-3.9 2.3-.4 4.8.4 6.2 2.2 1.4 1.9 1.3 4.6.7 6.9 1.4.4 3.1-.4 3.8-1.7.8-1.3.8-2.9.4-4.4-.4-1.4-1.2-2.7-2.1-4-.3-.5-.7-1-1.1-1.3-1.1-.9-2.7-.8-4.1-.4-3.6.8-6.9 3.2-8.9 6.4z"/><path fill="#9BC9C7" d="M324.2 140.1c-.2-.5-.4-1-.4-1.6s.3-1.2.8-1.3c.5-.1 1 .2 1.4.6 3.6 3.3 4.5 9 2.8 13.6-1.7 4.6-5.5 8.2-9.9 10.4 1.2-2.9 1.4-6.2.4-9.2-.2-.6-.4-1.2 0-1.7.2-.3.5-.4.8-.6 3.6-1.8 5.5-6.4 4.1-10.2zM288.3 151.4c.2.1.5.2.7.4.3.3.3.8.3 1.2.1 3.8.1 7.7.2 11.5-3.4-4.6-5.4-10.4-5.4-16.1 0-.7.2-1.6.9-1.7.6-.1 1.1.6 1.3 1.1.5 1.3.7 2.9 2 3.6z"/><path fill="#FFD0B0" d="M278.8 87.2s1.6-10.9 9.3-10.4c7.7.5 5.5 12.6 5.5 12.6s-6.8-6.5-14.8-2.2zM308.4 82.1s9.3-14.1 15.8 2.5c-.1 0-13.7 1.1-15.8-2.5z"/><path fill="#759B9A" d="M276.2 138.2c.1.2.1.4.3.5.1.2.4.3.6.3 2.6 1.1 5.4 1.9 8.3 2.3 1-2.9 3.8-5 6.8-5.3.3 0 .7-.2.7-.5-6-.6-12-1.9-17.7-3.9-.3 2.4.4 4.5 1 6.6zM293.6 140.1c.1-.2.2-.4.2-.6.2-1.1.3-2.2.2-3.2 0-.1 0-.2-.1-.2-.1-.1-.2-.1-.3-.1-2.2-.7-4.8.2-6.1 2.1.8.5 1.6 1 2.4 1.4.9.5 1.9 1.1 2.9 1 .3 0 .6-.1.8-.4zM314.3 135.3c.2.8.4 1.7.7 2.5.1.3.2.7.5.9.6.5 1.6.4 2.1.9 1.4-2.3 3.9-3.8 6.6-4.1-1-1-2.1-2-3.5-2-.6 0-1.1.1-1.7.2-1.4.3-2.9.7-4.3 1-.1 0-.2.1-.3.1-.1.2-.1.4-.1.5zM332.8 135.3c-.1.3-.3.4-.6.6-1.5 1-3.1 1.7-4.8 2.2-1.8-2-4.2-3.6-6.7-4.5 1.3-.8 2.8-1.1 4.3-1.4 2.6-.6 5.2-1.5 7.6-2.8.1 1.7.2 3.5.3 5.2-.1.3 0 .5-.1.7zM335.1 114.1c.2-.3.6-.4 1-.4l3-.3c.4 1.2.2 2.6-.5 3.7s-1.9 1.7-3.2 1.8c-.1-1.4-.2-2.7-.3-4.1-.1-.3-.1-.5 0-.7zM262.9 116.1c-.3 1 0 2.2.6 3 .7.8 1.7 1.3 2.8 1.3.1-1.6-.2-3.2-.8-4.6-.9.1-1.8-.1-2.6-.5"/><path fill="#759B9A" d="M301.2 176.4c0-3.4 1.3-6.7 1.6-10 0 6.9-.2 12.6 3.6 23-1.6-3.4-5.2-9.3-5.2-13zM312.1 204.6c.1 2.7.2 5.4-.4 8-.7 2.6-2 4.9-3.4 7.1-2 3.3-4.1 6.7-7.2 9 0-1 0-1.9-.1-2.9 0-.6 0-1.2.2-1.7s.7-.9 1.1-1.3c1.9-1.7 3.9-4.2 5.5-6.1 1.6-1.9 3.6-5.3 3.8-7.8"/><path fill="#C69777" d="M314.5 138.3c-.1-1.1-.2-2.1-.3-3.2-6.3.6-12.6.9-18.9.9-.2 0-.5 0-.6.2-.2.2-.2.4-.2.7-.1.9-.4 1.7-.9 2.5 6.4 2.4 13.6 2.6 20.1.4.3-.1.5-.2.7-.4.2-.4.2-.8.1-1.1z"/><path fill="#DACDBC" d="M237.2 61.4c-1 .9-2 2-2 3.3 0 1 .5 1.9 1 2.8.5.8.9 1.6 1.4 2.3.5.9 1.3 1.9 2.3 1.8.7-.1 1.2-.6 1.7-1.1 2.4-2.3 5.2-4.3 8.2-5.7.4-.2.9-.4 1.2-.8.3-.4.4-.8.5-1.3l.9-4.8c.8 1.2 1.5 2.4 2.3 3.6.3.5.8 1.2 1.5 1.1.8-.1 1-1.1 1-1.9 0-1.7-.3-3.4-.7-5-.1-.3-.2-.6-.4-.8-.2-.2-.6-.3-.9-.3-6.6-.8-13.1 2.3-18 6.8zM374.8 52.4c1.6.3 3.3.9 4.6 1.9 1.3 1.1 2.2 2.6 3 4.1.8 1.5 1.5 3.1 1.4 4.8-.1 1.7-1.3 3.4-3 3.6-1.4.1-2.6-.8-3.6-1.6-3.5-2.8-7.4-5.4-11.8-5.9-.2 0-.5-.1-.6-.2-.5-.5.1-1.7-.6-1.9-.5 1-1.3 1.8-2.1 2.5-.5.5-1.2.9-1.9.7-1.1-.2-1.4-1.6-1.4-2.7 0-.6-.1-1.1.2-1.6.3-.6.9-1 1.5-1.4 4.2-2.5 9.4-3.3 14.3-2.3z"/><path fill="#9BC9C7" d="M305 193.2c-2-3.6-5.4-7.9-6.6-11.9s-1.5-8.5.2-12.4c.2-.6.5-1.1.5-1.8s-.5-1.3-1.2-1.2c-.5.1-.8.5-1.1.9-1.5 2.3-2.7 4.8-3.7 7.3-.7 1.9-1.4 3.9-1.1 6 .2 1.9 1 3.6 1.5 5.4 1 3.7.1 7.9-2.1 11-.4.4-.9.7-1.3 1-3 2.1-6.7 3.4-8.6 6.5-1 1.7-1.4 3.8-1.9 5.7-1.7 5.7-5.7 10.7-11 13.5.5.4 1 .8 1.4 1.1 13.7 5.5 29.3-1.9 36.2-14.4 1.2-2.6 2.2-5.3 2.5-8.2-.4-3.1-1.7-6.1-3.7-8.5zM256.5 71.8c1.4-.4 3-.6 4.2.2 1.1.7 1.7 2 1.9 3.3s0 2.7 0 4c0 4.2 1.4 8.3 2.5 12.4s1.9 8.5.6 12.5c-1.8-1.4-4.5-1.5-6.3-.1-3.8-8.4-7-17.1-9.8-25.9-.2-.6-.4-1.3-.2-2 .2-.6.6-1 1.1-1.4 1.8-1.4 3.8-2.4 6-3zM367.3 71.8c.5.7.9 1.4.9 2.3.1 1-.3 1.9-.6 2.8-5.1 12.2-16 20.9-23.2 32 .6-1.1.3-2.5-.5-3.4-.7-1-1.8-1.7-2.8-2.3 4.7-9.2 9.5-18.5 14.2-27.7 1-1.9 2-3.8 3.8-5 2.6-1.8 6.4-1.2 8.2 1.3z"/><path fill="#E5B595" d="M215.1 21.4s2.3-6.3 4.5-5.6c2.2.7 12.8 5.1 20.8 14.8 0 0 4.5-6.4 6-6.3 1.5.1 5.2 1.9 3.7 5.7-1.5 3.8-2.8 5-1.7 8.6 1.1 3.6 2.4 8.2-1.3 11.8l1.3 2.8-11.6 5.9s-4.7-12.1-10.2-14.6c-6.5-4.9-11.1-3.8-13.7-4.2s-4.8-1.3-4.4-3.6c.4-2.3 4.7-5.3 4.7-5.3s-5-1.4-4.7-4.2-.1-4.1 6.6-5.8z"/><path fill="#FFD0B0" d="M248.5 36.8c-.4-1.7-.6-3.5-.6-5.2 1.3-1.9 1.7-4-.2-5.3-2.8-1.9-5.5 1.4-6.7 4.7-.3 0-.5.1-.7.3-.2.2-.2.4-.3.6-.2-.9-.6-1.7-1.1-2.5-3.3-5-9-9.7-14.5-12.1-2.1-.9-4.7-1.9-6.6-.5-.8.6-1.3 1.7-1 2.6.4 1 1.4 1.4 2.3 1.8 4.3 1.7 8.8 3.4 12 6.6.2.2.3.4.5.6-.1-.1-.1-.2-.2-.3.3.4.7.7 1 1.1.1.2.3.4.4.7-.4-.5-.9-1.1-1.3-1.6.9 1.4 1.3 2.8.1 2.5-.6-.3-1.1-.5-1.5-.7-2.9-2.4-5.2-4.4-9-6.2-1.5-.7-4.9-1.5-6.5-1.7-1.6-.2-3.3.1-4.6 1.1-1.3 1-2 1.8-1.4 3.3.5 1.4 2 1.3 3.5 1.6 1.5.3 3.1 1.1 4.6 1.1 4.1 0 8.2 2.1 11.6 4.3.2.4.2.9-.2 1.2-.2.2-.5.2-.8.2h-.3c-.8-.4-1.7-.7-2.5-1-2.4-.8-4.5-2.7-7-2.6-1.7.1-3.7-.3-5.3.3-.9.3-1.8.6-2.5 1.2s-1.2 1.5-1 2.4c.3 1.1 1.5 1.7 2.6 1.7s2.2-.5 3.2-.8c.5-.2.9-.3 1.4-.4l3.1.2c2.1.2 4.3.9 6.4 1.5 2.8 1.5 5.4 3.7 7.3 6.1 1.9 2.3 3.4 5.2 6.2 6.1 2.1.7 4.5.1 6.2-1.2 1.8-1.3 2.9-3.3 3.6-5.4.3-1 .6-2.1.5-3.1-.1-1.1-.4-2.1-.7-3.2z"/><path fill="#D6A380" d="M208.9 28.3s3.4 5 10.7 4l-6.8-.3s-3.1-2.4-3.9-3.7z"/><path fill="#C69777" d="M216.1 19.2s-.9 1.4 2.9 3.2l-4 .1 1.1-3.3z"/><path fill="#D6A380" d="M236.9 51.8s1.7 3.7 6 2.7c4.2-1 5.3-2.1 5.3-2.1l-1-1.9c-.1 0-6.8 3-10.3 1.3z"/><path fill="#E5B595" d="M406.5 20.3s-2.3-6.3-4.5-5.6c-2.2.7-12.8 5.1-20.8 14.8 0 0-4.5-6.4-6-6.3-1.5.1-5.2 1.9-3.7 5.7s2.8 5 1.7 8.6-2.4 8.2 1.3 11.8l-1.3 2.8 11.6 5.9s4.7-12.1 10.2-14.6c6.5-4.9 11.1-3.8 13.7-4.2 2.6-.4 4.8-1.3 4.4-3.6s-4.7-5.3-4.7-5.3 5-1.4 4.7-4.2.2-4.1-6.6-5.8z"/><path fill="#FFD0B0" d="M373.1 35.7c.4-1.7.6-3.5.6-5.2-1.3-1.9-1.7-4 .2-5.3 2.8-1.9 5.5 1.4 6.7 4.7.3 0 .5.1.7.3.2.2.2.4.3.6.2-.9.6-1.7 1.1-2.5 3.3-5 9-9.7 14.5-12.1 2.1-.9 4.7-1.9 6.6-.5.8.6 1.3 1.7 1 2.6-.4 1-1.4 1.4-2.3 1.8-4.3 1.7-8.8 3.4-12 6.6-.2.2-.3.4-.5.6.1-.1.1-.2.2-.3-.3.4-.7.7-1 1.1-.1.2-.3.4-.4.7.4-.5.9-1.1 1.3-1.6-.9 1.4-1.3 2.8-.1 2.5.6-.3 1.1-.5 1.5-.7 2.9-2.4 5.2-4.4 9-6.2 1.5-.7 4.9-1.5 6.5-1.7 1.6-.2 3.3.1 4.6 1.1 1.3 1 2 1.8 1.4 3.3-.5 1.4-2 1.3-3.5 1.6-1.5.3-3.1 1.1-4.6 1.1-4.1 0-8.2 2.1-11.6 4.3-.2.4-.2.9.2 1.2.2.2.5.2.8.2h.3c.8-.4 1.7-.7 2.5-1 2.4-.8 4.5-2.7 7-2.6 1.7.1 3.7-.3 5.3.3.9.3 1.8.6 2.5 1.2s1.2 1.5 1 2.4c-.3 1.1-1.5 1.7-2.6 1.7s-2.2-.5-3.2-.8c-.5-.2-.9-.3-1.4-.4l-2.4-.1c-2.1.2-4.3.9-6.4 1.5-2.8 1.5-5.4 3.7-7.3 6.1-1.9 2.3-3.4 5.2-6.2 6.1-2.1.7-4.5.1-6.2-1.2-1.8-1.3-2.9-3.3-3.6-5.4-.3-1-.6-2.1-.5-3.1-.6-.8-.2-1.9 0-2.9z"/><path fill="#D6A380" d="M412.8 27.2s-3.4 5-10.7 4l6.8-.3s3.1-2.4 3.9-3.7z"/><path fill="#C69777" d="M405.6 18.1s.9 1.4-2.9 3.2l4 .1-1.1-3.3z"/><path fill="#D6A380" d="M384.8 50.6s-1.7 3.7-6 2.7c-4.2-1-5.3-2.1-5.3-2.1l1-1.9c0 .1 6.7 3.1 10.3 1.3z"/><path fill="#A09D9C" d="M231.8 276.6c.1 0 .1.1.2.1s.1.1.2.1c2.8.7 7.1-1.8 9-2.9 2.2-1.3 5.3-3.3 7-5.7-2.7-1.2-4.9-3.3-6.1-6-1.5.6-2.8 1.6-4.1 2.6-1.2.9-2.5 1.8-3.7 2.7-1.4 1.1-2.9 2.2-3.7 3.7-.8 1.6-.8 3.7.5 4.9.2.2.5.3.7.5zM298.5 296.7c-1.1-.1-2.4-.7-2.6-1.9-.2-1 .5-1.9 1.1-2.6 2.1-2.8 3.8-5.9 4.9-9.2 2.4.6 4.9.6 7.3 0-.1 4.5-2.3 9-5.9 11.8-1.2 1.2-2.9 2.1-4.8 1.9z"/><path fill="#706D6B" d="M320.1 275.5c.2.2.3.5.5.7-2.3 2.4-5.4 4-8.7 4.4h-.3c-.1 0-.2-.1-.4-.2-.8-.7-1.5-1.3-2.3-2 3.3-1.5 6.9-2.4 10.5-3.2.1 0 .3-.1.4 0 .2.1.3.2.3.3zM262.3 271.2c.1-.1.1-.3.2-.4.2-.7.3-1.5.5-2.2-3.5-.3-6.9-1.7-10.2-3 .1.7-.4 1.4-.1 2 .1.2.2.4.4.5 2.2 2.3 5.5 3.5 8.6 3.3.2 0 .4 0 .6-.2z"/><path fill="#9B948F" d="M346.1 170.2c-1.1.5-1.4 1.8-1.6 3-1.5 10.3-.9 21-3 31.2-.6-11.1.5-22.2 1.6-33.3.1-1.2.3-2.5 1.1-3.4 1.3-1.5 4-1.1 5.3.5 1.3 1.6 1.3 3.8.7 5.8-.2-1-.5-2.1-1.2-2.9-.7-.9-1.9-1.4-2.9-.9zM345 165.8c0-.1-.1-.2-.1-.3-.7-.7-1.7-.8-2.7-.8-.8 0-1.6 0-2.3.1-.4 0-.8.1-1 .4-.3.3-.3.7-.2 1.1.1.4.2.8.2 1.1.8-.2 1.7 0 2.4.5s1.1 1.3 1.1 2.2c.1-.1.1-.2.2-.4.2-1.1.7-2.1 1.5-2.8.3-.3.7-.6 1-1-.1 0-.1 0-.1-.1z"/><path fill="#827E7A" d="M291.2 263.9s-10.2 2.3-11.6 6.1c-1.4 3.8 0 4.1 0 4.1s-4.2-.1-3.8 4.1 2.3 5 5.2 5c2.9 0 8.5-.3 8.3-3.3-.3-3-3-5-3-5l9.7-3.8-4.8-7.2z"/><path fill="#9B948F" d="M282.1 274.3c-1.2.2-2.6-.1-3.2-1.2-.6-1-.3-2.4.5-3.3.7-.9 1.8-1.5 2.9-2 3-1.5 6.1-2.7 9.2-3.7.2.5.3 1 .5 1.4-2.8 1.2-5.6 2.4-8.4 3.5-1.2.5-2.6 1.3-2.7 2.6-.2 1.1.5 2 1.2 2.7zM279.6 281.8c.3.2.7.5.6.9-1.6.5-3.6-.6-4.1-2.2-.3-1.1-.1-7.3 1.6-4.7 1.4 2-.3 4.3 1.9 6z"/><path fill="#827E7A" d="M329.1 274.1s1.4-.4 0-4.1c-.8-2.1-4.4-3.8-7.4-4.8.6 1.2.5 2.9.6 4 .1 1.4.6 2.9-.3 4.1-.3.4-.7.7-1.1 1l1.6.6s-2.8 2-3 5c-.3 3 5.4 3.3 8.3 3.3s4.8-.8 5.2-5c.3-4.2-3.9-4.1-3.9-4.1z"/><path fill="#9B948F" d="M329.3 269.9c-.7-.9-1.8-1.5-2.9-2-1.5-.7-3-1.4-4.5-2 .2.6.2 1.3.3 2l3 1.2c1.2.5 2.6 1.3 2.7 2.6.1 1-.7 1.9-1.4 2.6 1.2.2 2.6-.1 3.2-1.2.7-1 .4-2.3-.4-3.2zM329.1 281.8c-.3.2-.7.5-.6.9 1.6.5 3.6-.6 4.1-2.2.3-1.1.1-7.3-1.6-4.7-1.4 2 .4 4.3-1.9 6z"/><path fill="#AED6D3" d="M294 187c-.2-.8-.4-1.5-.6-2.1-.2-.7-.4-1.5-.7-2.2l-.3-.9c-.3-1.7-.4-2.8-.3-3.4v-.2c.2-1.1.4-1.9.5-2.3-1.2 3-1.1 5.4-.6 7.2v.1c.1.5.3 1 .4 1.4.4 1.5 1 3.7 1 5.5 0 .3 0 .5-.1.8-.1.3-.1.6-.1.7-.2 1.4-.7 3-1.6 4-2.3 2.4-5.4 3.5-6.8 5.2 0 0 3.8-2.2 5.6-3.2s5.5-4.2 3.6-10.6zM321.1 202.7s2.5 5.2 3.5 18.1c0 0-1.2-7.1-2.3-11.4-1.1-4.3-2.9-8.9-4.6-12.5 0 .1 2.6 3.4 3.4 5.8z"/><path fill="#858C85" d="M296.9 47.5c2.1 1.2 4.6 1.6 7.1 1.5 2.4-.1 4.8-.6 7.2-1.1-2.2.8-4.4 1.7-6.7 2.1-2.3.4-4.7.4-6.9-.4-2.1-.8-4.1-2.4-6.4-2.3-.7.1-1.4.3-2.1.5-2.7.9-5.4 1.8-8.2 2.7 2.9-1.9 6.1-3.3 9.4-4.2 1.3-.4 2.6-.6 3.9-.3 1 .3 1.8 1 2.7 1.5z"/></g><g><path fill="#605D5B" d="M321.7 266.1c2.5 1.1 6.9 2 7.6 4.9 1.2 4.8-5 2.6-7.2 1.8-.9-.3-1.4 1.2-.4 1.5 2.7 1 9.1 3 9.2-2.1.1-4.6-5.1-6.5-8.8-7.5-.9-.2-1.2 1.1-.4 1.4zM321.3 282.7c2.1 1.3 4.9.9 7.2.9 1.8 0 3.5-.1 4.6-1.7 2-2.9.5-7.8-3-8.5-.9-.2-1.3 1.1-.4 1.4 1.5.5 2.3 1.3 2.6 2.9.4 2-.2 4.1-2.5 4.4-2.4.3-5.9.6-8.1-.3-.5-.2-.9.7-.4.9zM323.2 283.4c3.7-.3 6.7-2.4 5-6.4-1.1-2.6-4.4-4.1-7.1-2.6-.7.4-.2 1.6.6 1.3 1.7-.6 3.9-.4 4.8 1.3.7 1.2 1.1 2.7 0 3.8-.9.9-2.3 1.2-3.5 1.6-.4.1-.4 1 .2 1zM291.1 263.2c-3.9 1.2-14.9 3.6-12.9 9.9 2 6.2 14 0 17.4-1.6.9-.4.1-1.8-.8-1.3-2.1 1-4.3 1.9-6.5 2.6-.8.3-1.6.5-2.5.8-2.1.6-3.1 1-5-.4-1.5-.4-1.9-1.3-1.2-2.6.7-.7 1.3-1.4 2-2.1.9-.7 2.7-1.3 3.6-1.6 2-.8 4.1-1.5 6.1-2.3 1-.3.7-1.6-.2-1.4zM278.2 184c-.8 9.4-.8 18.9-.6 28.3 0 1 1.6 1 1.6 0-.1-9.5.2-18.9.3-28.3 0-.8-1.3-.8-1.3 0zM338.7 165.3c3.6.1 6.8.5 10.1 2.1.8.4 1.5-.7.7-1.2-3-2.3-7.2-2.1-10.8-2-.8 0-.8 1.1 0 1.1zM338 221.4c2.1.2 4.1.4 6.2.7.8.1 1-1.3.2-1.5-2.1-.4-4.3-.5-6.4-.3-.7.1-.7 1 0 1.1zM270.5 251.3c1.1 1.5 2.9 1.8 4.7 2 4.3.5 8.7.7 13.1.9 1 .1.9-1.4 0-1.5-3-.3-6-.4-8.9-.6-2.2-.1-6.2.3-7.8-1.5-.6-.5-1.5.2-1.1.7zM314.1 253.9c8.2-1 18.3-4.2 23.9-10.7 3.3-3.8 4.7-11.4-1.9-12-.8-.1-1 1.2-.2 1.4 5.7 1 3.1 7.4.6 10.1-2 2.1-4.6 3.6-7.1 5-4.9 2.6-10 4.2-15.4 5.1-.6.1-.5 1.2.1 1.1zM294.9 296c-.7 2.9.7 5.5 3.5 6.6 4.7 1.8 9.9-1.7 13.4-4.4 4.2-3.2 6.4-7.2 8.7-11.8 1-2 3.7-4.9 3.4-7.4-.2-1.7-2-3.3-2.9-4.5-.7-.9-2 .1-1.2 1 2.5 3.1 1.9 5.6.1 8.9-1.3 2.4-2.1 5-3.7 7.3-2 2.9-4.6 5.2-7.6 7.1-3.4 2.2-13.6 5.8-12.5-2.6-.1-.7-1.1-.9-1.2-.2zM229.7 270.2c-2.1 3.4-5.5 9.6-.8 12.7 3 2 8.7 1 11.9.5 6-1 10.7-5.4 16.1-7.8 3.3-1.5 7.8-2.7 7.3-7.2-.1-1.3-2.1-1.3-2 0 .5 4-5.2 4.8-7.9 6.2-3.6 1.9-6.8 4.2-10.5 5.8-2.7 1.2-5.6 1.4-8.6 1.4-1.3 0-3.4.3-4.6-.3-4.7-2.3-.7-7.9.8-10.3.7-1-1-2-1.7-1z"/><path fill="#AD846F" d="M385.3 58.6c4-7.7 8.6-15.6 17.4-18.1 2.9-.8 9.9.9 10.9-3.2.9-3.7-2-5.8-5.2-6.7-4.9-1.4-9.9.4-14.1 2.9-.6.4-.1 1.3.6.9 4.4-2.4 13-5.6 16.6-.4 2.8 3.9-2.9 4.3-5.7 4.5-2 .2-4 .8-5.9 1.5-7.7 3.1-12.4 10.7-15.7 18-.3.7.7 1.3 1.1.6zM374.1 49c-.3.3-.5.7-.7 1.1l-.6 1.2c-.3.8.9 1.2 1.3.6.2-.3.4-.7.6-1 .2-.4.4-.7.5-1.1 0-.7-.6-1.2-1.1-.8zM384.1 49.9c-2.8 1.2-5.6.6-8.1-1-3.1-2-3.2-6-2.7-9.2.4-2.4.9-4.2.3-6.7-.5-2.4-3.2-5.7-1.5-7.9 3.2-4.1 7 2.8 8.4 5.1.4.6 1.3.1.9-.6-1.5-2.7-4.3-8-8.2-6.9-2.7.7-3.3 3.1-2.8 5.4.9 4.1 3.1 4.8 2 9.6-.4 1.6-1.2 3-1.4 4.7-.3 2.2.3 4 1.7 5.7 2.9 3.4 7.8 5 11.8 2.9.8-.2.3-1.4-.4-1.1zM381.5 30.5c1.7-3.8 6.7-6.9 9.9-9.3 3.7-2.7 12.9-9.6 14.6-.7.1.7 1.2.4 1.1-.3-.4-2-1.3-5.4-3.6-6.1-2-.6-5.3 1.4-7 2.2-3.6 1.9-6.8 4.3-9.9 6.9-2.4 2-5.2 3.7-6 6.9-.1.6.7 1 .9.4zM407.9 31.3c2-.7 5.2-1.1 5.8-3.4.6-2.3-.5-5.1-2.6-6.3-6-3.3-15.5 2.1-19.4 6.6-.5.6.3 1.5.9.9 2.9-3.2 7.2-5.7 11.4-6.7 2.6-.6 10.1-.8 8.4 4.4-.6 2-3.3 2.5-5 3.3-.6.3-.2 1.4.5 1.2zM237.4 59c-3.2-6.9-7.7-14.5-14.9-17.6-2-.9-13-2-13.2-4.1-.3-2.2 2.5-4.2 4.3-4.7 1.8-.5 3.5-.3 5.3-.1 2.8.4 5.4 1.5 7.9 2.8.6.3 1.2-.6.6-.9-4.2-2.5-9.2-4.3-14.1-2.9-3.3.9-6.1 3-5 6.6 1.4 4.4 7.3 2.4 10.7 3.3 8.8 2.6 13.5 10.4 17.4 18.1.3.8 1.3.2 1-.5zM246.5 50.7c.1.5.4.9.6 1.4.2.5.4.9.7 1.3.4.6 1.6.3 1.3-.6-.2-.5-.5-1-.7-1.4-.3-.4-.5-1-.9-1.3-.4-.5-1.1 0-1 .6z"/><path fill="#587572" d="M292.8 139.6c-2.5.4-5.9 2.2-4.8 5.3 1 3 5.1 4.1 7.9 4.1.9 0 .9-1.3 0-1.3-2 0-4.3-.6-5.8-2.1-2.5-2.5 1-4.2 3-4.8.8-.3.5-1.3-.3-1.2zM315.4 140c2.4-.6 5.2 2.2 3.7 4.5-.9 1.5-3 3-4.8 3.2-1 .1-1 1.6 0 1.5 2.8-.1 6.7-3 6.9-5.9.1-3.1-3.2-5.6-6.1-4.5-.6.4-.4 1.4.3 1.2z"/><path fill="#A39686" d="M335.4 229.7c-.2 4.4-1.4 8.9-4.9 11.9-3 2.5-6.6 2.6-10.1 4-3.9 1.5-6.9 4.3-6.9 8.7 0 1 1.4.9 1.5 0 .6-8.9 11.4-7 16.5-11.5 3.7-3.3 5.1-8.3 5-13 .1-.8-1.1-.8-1.1-.1zM251.9 229.1c5.4-1.9 11.8-4.6 17.6-4 .8.1.9-1.2.2-1.3-5.7-1.3-13.1 1.9-18.3 4.1-.7.3-.2 1.5.5 1.2z"/><path fill="#997261" d="M293.7 135.2c0 1.4-.4 2.7-.9 4.1-.4 1.3-.7 2.6-1.8 3.6-.6.5.2 1.5.9 1.1 1.4-.8 1.7-2.3 2.2-3.8.6-1.7 1-3.3.7-5.2-.1-.5-1.1-.4-1.1.2zM313.6 135c.3 2.4.5 5.9 2.9 7.3.9.5 1.7-.9.8-1.4-1.8-1.1-1.8-4.2-2.3-6.1-.2-.7-1.5-.6-1.4.2z"/><path fill="#587572" d="M360.4 62.6c-6.1 13.5-12.4 26.7-19.6 39.7-.4.8.7 1.5 1.2.7 7.5-12.7 14-26.2 19.4-39.9.3-.7-.7-1.1-1-.5zM257.8 65.7c.9 3.2 2.1 6.5 3.8 9.4.5.8 1.6.1 1.2-.7-1.3-3-2.6-6-3.8-9.1-.1-.8-1.4-.5-1.2.4z"/><path fill="#AD846F" d="M266.7 107.9c-.1-4.1.7-8.2-.2-12.3-.2-.9-1.6-.5-1.4.4.8 4 0 8 .6 12.1 0 .5 1 .4 1-.2z"/><path fill="#DBDBDB" d="M313.2 116.8c-.4-.2 6.8.7 9.8-1.1v2.2c0 .1-3.7 1.6-9.8-1.1z"/><path fill="#373A37" d="M271.2 31.5c-9.5 19.4-11.5 43.2-6.3 64.1.2.9 1.7.5 1.5-.4-4.7-21.7-2.2-42.8 5.9-63.3.2-.6-.8-1-1.1-.4zM272.2 32.2c11.3-9.1 27.7-7.4 40.8-3.6 14.2 4.2 26.7 12.8 33.4 26.3.5.9 1.8.1 1.4-.8-6.9-14.5-20.8-23.5-36-27.6-13.2-3.5-29.5-4.8-40.5 4.8-.7.5.3 1.4.9.9zM346.4 54.5c.2 7.9.9 15.6.1 23.5-.9 8.4-3 16.4-5.9 24.3-.4 1.1 1.3 1.5 1.7.5 5.7-14.9 8.5-32.6 5.2-48.5-.1-.6-1.1-.5-1.1.2zM277.3 27.6c-2.2 4.6-3.5 9.5-4.3 14.5-.2 1 1.3 1.4 1.5.4 1-4.9 2.2-9.8 4.1-14.4.4-.6-.9-1.2-1.3-.5zM281.5 26.1c-1.1 2.1-1.9 4.2-2.5 6.5-.3 1.1 1.4 1.5 1.7.5.5-2.1 1.3-4.1 2.2-6.1.5-1-.9-1.9-1.4-.9zM285 25.8c-1.5 3.4-2.7 6.9-3.6 10.5-.3 1.1 1.4 1.6 1.7.5 1-3.5 2.2-6.9 3.4-10.3.4-.9-1.1-1.6-1.5-.7zM315.5 54.4c-2.4 3.5-1.6 9.3-1.7 13.3 0 1 1.1 1.3 1.8.7 4.1-3.3 11.1.9 14.3 3.7.7.6 1.6-.3 1-1-3.5-4.3-11.6-7.9-16.6-4.3.5.3 1 .6 1.6.9.1-4.2-.4-8.8.8-12.8.3-.7-.8-1.1-1.2-.5zM316.1 55.1c9.8-2 16.6 7.2 13.8 16.4-.2.7.8 1.1 1.1.5 2-4 .8-10-1.8-13.6-3.1-4.3-8.5-6-13.5-4.4-.6.2-.3 1.3.4 1.1zM288.6 55.1c-1.2.5-1.2 3.3-1.3 4.3-.4 2.7-.7 5.5-.6 8.2 0 .9 1.2.8 1.3 0 .2-2.1.3-4.3.5-6.4.2-1.6.1-3.9.9-5.4.3-.5-.3-1-.8-.7zM288.5 54.8c-10.3.4-16.9 10-15.3 19.8.1.5.9.7 1.2.3 3.3-3.8 8.1-5 12.8-6.1.9-.2.5-1.6-.4-1.4-5 1.2-9.8 2.6-13.4 6.5l1.2.3c-1.5-9.5 4.9-16.8 14.1-18.2.6-.2.5-1.3-.2-1.2zM273.3 66.5c-4 2.7-6.8 4.4-7.6 9.3-.8 5.5-1.4 10.9-1.3 16.5 0 .6.9.6.9 0 .2-4.6.7-9.1 1.3-13.7.5-3.5.4-5.2 3.3-7.9 1.3-1.2 2.9-2.1 4.2-3.2.6-.5-.1-1.4-.8-1zM288.1 61c8.4-.4 17.1-3.1 25.2-.3 1.1.4 1.6-1.4.5-1.8-7.8-3-17.9-.9-25.9.9-.6.1-.5 1.2.2 1.2z"/><path fill="#AD846F" d="M336.5 105.6c.1-1.6-.1-3.1-.3-4.7-.1-.8-1.4-.6-1.3.2.1 1.5.4 3 .5 4.5 0 .8 1.1.8 1.1 0z"/><path fill="#587572" d="M293.2 135.1c-5.2.2-9.2 5.7-9.9 10.5-.8 5.8 1.5 16.6 6.6 20.2.6.4 1.3-.5.8-1-7-6.1-9.8-26.9 2.6-28.7.6 0 .5-1-.1-1z"/><path fill="#373A37" d="M331.4 67.2c.6.5 1.2 1.1 1.7 1.8.4.7.9 1.5 1.2 2.2.2.6 1.2.4 1-.3-.2-1-.5-1.8-1.1-2.7-.6-.8-1.2-1.4-2-2-.6-.3-1.4.6-.8 1zM334.1 71.3c.1 9.7.7 19.3.7 29 0 1 1.5 1 1.5 0-.1-9.6-.2-19.4-1.2-29-.1-.7-1-.7-1 0z"/><path fill="#AD846F" d="M265.5 103.6c.5-.2 0-.2-.6-.5-.9-.4-2.1-.7-3.1-.5-2.1.5-2.8 2.8-3 4.7-.5 3.9 1.6 10.5 6.8 8.8.8-.3.5-1.5-.4-1.3-3.8.9-5.2-3.7-5-6.7.1-2 1.4-4.4 3.7-3.9.6.1 1.1.4 1.8.4.3 0 .4-.2.5-.4.1-.3-.3-.7-.7-.6z"/><path fill="#587572" d="M319 162.9c6.2-4 12.5-10.8 11.6-18.8-.6-5.6-6-12-12.1-11.1-.8.1-.7 1.6.2 1.5 6.6-.7 11.2 7 10.4 12.8-.9 6.3-5.8 11.1-10.7 14.8-.4.3.1 1.2.6.8z"/><path fill="#AD846F" d="M336.3 103.2c3.3-.9 8.3.4 7.2 4.9-.7 2.9-4.9 5.6-7.9 4.5-.9-.3-1.4 1.1-.6 1.5 4 2 9.8-2.4 10.2-6.5.5-5.3-5.1-7-9.3-5.6-.7.2-.4 1.4.4 1.2zM265.2 115.9c-.3 3.6.9 7.7 2.2 11 .3.7 1.5.4 1.2-.3-1.1-3.4-2.4-7.1-2.3-10.7-.1-.7-1.1-.7-1.1 0zM267.8 127.7c6.9 7.9 21.8 8.1 31.5 8.7 12.8.7 24.8-2.4 36.2-8.2.9-.5.1-1.9-.8-1.4-10.7 5.2-21.6 8.5-33.5 8-10.5-.4-24.1-.8-32.5-7.8-.7-.5-1.4.1-.9.7zM334.9 113.4c.2 4.6-.2 9.2-.4 13.8 0 1 1.4.9 1.5 0 .5-4.5.5-9.3 0-13.8 0-.7-1.2-.8-1.1 0z"/><path fill="#E0AA86" d="M306.2 89.5c-.1 6.2 3.1 13.3 10.3 13.1 7.3-.2 8.8-8.6 8.8-14.5.1-5.6-3-13-9.7-12.7-7.2.4-8.8 8.3-9.5 14-.1.7 1.1.9 1.2.2.7-3 .9-6.2 2.6-8.9 2.6-3.9 7.5-4.9 11-1.4 2.1 2.2 2.7 5.1 2.8 7.9.1 4.7-.5 11.6-5.6 13.2-7 2.2-10.6-5.3-10.8-11.1-.1-.5-1.1-.5-1.1.2zM293.1 90.3c-.4 2.3-1.1 4.4-2.4 6.4-2.3 3.3-7.2 6-10.3.3-1.6-2.9-1.1-10.4 0-13.2.8-2.1 2.2-4.2 4.3-5.3 5.3-2.8 7.3 2.4 7.8 6.5.2 1.9.3 3.8.7 5.7.1.5 1 .6 1.1 0 .8-4.1.2-12.9-4.7-14.4-6.2-1.9-10.6 5.1-11.3 10.2-.6 4.7-.8 14.4 5.6 15.3 6.2.8 9.7-6.1 10.4-11.3-.1-.6-1.1-.8-1.2-.2z"/><path fill="#AD846F" d="M307.1 90.6c5.5-3.9 11.8-3 16.5 1.5.7.7 1.7-.3 1-1-4.7-5.4-12.6-5.8-18.2-1.6-.6.4 0 1.6.7 1.1zM278.9 91c3.4-5.1 10.3-4.9 13.5.2.5.8 1.9.1 1.4-.8-3.7-6.2-12.2-6-15.9 0-.4.6.6 1.2 1 .6zM283.9 109.6c12.4 3.9 25.8 3.4 38.4.9.9-.2.5-1.5-.4-1.3-12.7 2.4-25.3 2.8-37.8-.5-.6-.2-.9.8-.2.9zM283.1 109.4c.1 6.2 3.7 11.9 7.1 16.9.5.7 1.7 0 1.2-.7-3.5-5.2-6.1-10.1-7.2-16.3-.1-.7-1.1-.6-1.1.1zM291.3 126.7c8.5 2.2 20 1.3 27.5-3.6 4.2-2.7 7.6-9.2 3.8-13.8-.6-.8-1.6.3-1.1 1.1 2.2 2.9.3 8.2-1.8 10.2-2.2 2.1-5.4 3.3-8.4 4.1-6.4 1.7-13.3 2.2-19.8.8-.7-.1-1 1-.2 1.2z"/><path fill="#587572" d="M241.8 74.2c7.2 10.3 9.4 22.6 13.6 34.2 1.9 5.3 4.6 10.2 7 15.4 2.9 6.4 3.9 13 5.2 19.8 2.5 13.1 7.5 25.6 10.5 38.7 3.2 14.1 4.1 31.2-9.6 40.2-.8.5-.1 1.8.8 1.3 25.1-14.8 6.6-52.9 1.4-73.4-1.7-6.9-2.3-14.1-4.4-20.8-2.2-7-6.3-13.1-8.9-19.9-4.7-12.1-6.6-25.4-14.7-35.9-.3-.7-1.3-.2-.9.4zM290.9 165.1c-1.2-5-1.7-17.3 6.7-15.6 6 1.2 4.4 11.5 4 15.7-.5 4.6-1.4 9.2-.8 13.8.6 4.9 3 8.1 5.8 12 3.7 5.1 6 10.8 4.5 17.2-1.3 5.8-5.5 10.5-9.9 14.3-2 1.7-4.6 4.3-7 5.4-2.7 1.2-5.9-.2-8.6-.6-5.8-.8-11.7-.4-16.4-4.5-.8-.6-1.9.5-1.1 1.1 5.5 4.7 12.1 3.8 18.8 5.2 2.4.5 4.6 1.8 7 .9 2.4-.9 4.7-3.2 6.6-4.8 11.3-9 17.1-21.5 8.1-34.3-3.1-4.5-5.9-8-6.2-13.7-.2-4 .5-8 .9-12 .5-4.5 1.6-11.5-1.8-15.3-2.4-2.6-7.1-2.9-9.7-.4-3.9 3.7-3.3 11.4-2 16 0 .8 1.2.4 1.1-.4zM300 224.7c-.1 3.9 1 7.1 3.5 10.2.2.3.7.2.9 0 5.6-4.6 12.6-3.9 19.4-3.8 5.1 0 10.1-.5 15.1-1.6.9-.2.5-1.6-.4-1.4-8.3 1.7-16.3.7-24.6 1.6-2.2.3-4.4.7-6.4 1.6-.1.1-2.8 1.6-2.8 1.6-3.3-.4-3.5-5.9-3.6-8.2 0-.7-1-.7-1.1 0zM339.6 228.6c-3.2-14.4.1-28.5.5-43 .2-6.7-.7-13.3-.9-20-.3-7.4.9-14.6 3.2-21.6 4.3-13.3 10.3-26.4 16.4-38.9 2.9-5.9 6.1-11.6 9.4-17.3 1.4-2.4 2.7-4.9 3.8-7.5 1.3-3.2 2.2-7.2 6-8.2.9-.3.5-1.7-.4-1.5-4.1.9-5.3 4.6-6.7 8.1-2.9 7.2-7.4 13.7-11 20.6-6.7 13.1-12.7 27-17.8 40.9-2.3 6.4-4.1 13-4.4 19.9-.3 7.9 1.1 15.8 1 23.7-.1 15-4.4 30.3-.4 45.1.3.7 1.4.4 1.3-.3zM303.1 157c1.6-4.3 9.6-11.5 13.8-6 2.7 3.5 2.1 6.8 1.1 10.8-.2.8.9 1.3 1.3.6.4-.8-.8-1.5-1.2-.7.4.2.9.4 1.3.6.6-2 1.3-4.4 1.1-6.5-.3-2.3-2.1-6.2-4.3-7.3-2.5-1.3-6.5.2-8.7 1.6-2.7 1.6-4.4 4-5.5 6.9-.2.4.9.7 1.1 0z"/><path fill="#82786F" d="M356.2 55.5c-.2 2.6-.1 5.2.2 7.8.1.7 1.4.6 1.3-.2-.3-2.5-.4-5-.4-7.6.1-.8-1.1-.7-1.1 0zM357.1 63.9c1.7-.7 3.3-.8 5.2-.8.7 0 .9-1.2.2-1.3-2-.4-4.1.1-5.8 1.2-.5.2-.2 1.2.4.9zM363.7 56.7c-.8 1.7-1.3 3.5-1.9 5.2-.3.8 1 1.1 1.2.3.6-1.7 1.2-3.4 1.6-5.2.1-.5-.7-.9-.9-.3zM363.9 56.7c0 1.9-.1 3.8-.1 5.8 0 .8 1.1.8 1.2 0 .2-1.9.2-3.9 0-5.8-.1-.7-1.1-.7-1.1 0zM364.5 63.1c3.8.3 7.3.8 9.8 4 1.5 2 3.9 4.4 4.2 7 .1.9 1.4.9 1.4 0-.1-1.7-.7-2.9-1.7-4.2-1.1-1.4-2.2-3.1-3.4-4.4-2.6-2.9-6.6-3.7-10.4-3.4-.6 0-.6.9.1 1zM357.2 55.5c9.9-8.1 27.3-1.9 29.4 10.6.1.9 1.7.7 1.5-.2-.8-6-5.5-12-11.3-13.9-6.2-2-15.5-2.2-20.4 2.7-.6.5.2 1.2.8.8zM387 66c-3 2.2-5.7 4.9-7.9 7.8-.6.7.4 1.8 1.1 1.1 2.5-2.7 5.1-5.3 7.6-8 .4-.4-.2-1.3-.8-.9zM257 52.1c.3 4.2 2.2 8 2.1 12.2 0 .8 1.2.8 1.3 0 .4-4.2-1.4-8.3-2.2-12.4-.2-.6-1.2-.5-1.2.2zM259.6 63.9c-1.5-.2-3.4.1-4.7.8-.6.4-.2 1.2.5 1.1.7-.1 1.3-.4 2-.5.7-.1 1.5-.2 2.2-.2.8 0 .8-1.1 0-1.2zM252.2 57.9c.8 2.4 1.3 4.9 1.8 7.4.1.6 1.2.5 1.2-.2-.2-2.6-1-5.2-2-7.6-.3-.5-1.2-.2-1 .4zM252 57.7c-1 3-1.3 6.2-.7 9.3.1.7 1.4.6 1.3-.2-.3-3-.2-5.8.4-8.8.1-.7-.8-.9-1-.3zM251.5 66.7c-4.6.6-8.9 3.9-11 8-.4.8.7 1.4 1.1.7 2.5-3.9 5.8-6.2 10.1-7.7.8-.1.5-1.1-.2-1zM240.8 74.9c-3.2-2.7-5.8-5.9-8.1-9.4-.4-.7-1.5-.1-1.1.6 2 3.9 5 7.1 8.5 9.7.5.4 1.2-.5.7-.9zM232.5 66c4.9-9.4 15.1-12.8 25.1-13.2.9 0 .9-1.5 0-1.4-10.3.4-21.5 4-26.1 14-.3.7.7 1.3 1 .6z"/><path fill="#A39686" d="M250.8 228.7c-6.1 8.5-9.5 19.3-8.9 29.8 0 .9 1.3.9 1.4 0 .3-10.7 2.8-20.1 8.5-29.2.4-.6-.6-1.2-1-.6zM250.9 265.1c4.1 2.6 13.3 7.1 16.8 1.4 3-4.8.8-11.4 2.1-16.6.3-1.2-1.6-1.8-1.9-.5-1 4.1-.3 8.4-.9 12.6-.3 2.4-1 4.9-3.8 5.2-3.6.4-8.4-2-11.3-3.8-1.1-.7-2.1 1-1 1.7zM241.9 259.2c1.3 1 2.6 2 3.9 2.9 1.1.7 2.1-1 1-1.7-1.2-.8-2.4-1.7-3.5-2.6-1-.8-2.4.6-1.4 1.4zM268.9 252.2c5.3-2.6 13.6-7 19.7-5.5.9.2 1.3-1.2.4-1.4-6.5-1.6-15.2 2.7-20.7 6-.6.3-.1 1.2.6.9zM293 233.9c-3.1 7-6.4 15.8-4.6 23.5 1.8 7.5 7.2 15.7 12.5 21.1.7.7 1.7-.3 1-1-4.8-5.3-9.9-12.6-12-19.6-2.2-7.6 1-16.5 4-23.6.4-.6-.6-1-.9-.4zM313.7 254.8c2.4 2.7 5.3 4.8 6.7 8.3 1.2 3.1 1.2 6.4 1.3 9.7 0 .9 1.5 1 1.5 0 0-3.4-.2-7-1.5-10.2-1.4-3.5-4.4-6.1-7.3-8.4-.5-.6-1.1.1-.7.6zM301.7 279.1c4.2.5 8.2-.3 12.2-1.7 2.8-1 7-2.1 9-4.2.5-.5-.2-1.5-.8-1-5.4 3.9-13.9 5.8-20.4 5.6-.9-.1-.8 1.2 0 1.3z"/><path fill="#AD846F" d="M237.1 52.1c4 2.1 8.9.5 11.8-2.9 1.4-1.7 1.9-3.4 1.8-5.5-.1-1.8-1.2-3.2-1.5-4.9-.6-3.5.4-5.7 1.7-8.9 1-2.6.4-5.6-3.3-6.2-3.6-.5-5.8 4.7-7 7-.3.6.6 1.2.9.6.5-.9 1-2.1 1.7-3 1.7-2.1 5.8-4 6.4-.4.4 2.5-1.6 5.1-1.9 7.7-.2 1.8.4 3.3.6 5.1.4 3.3.5 7.1-2.7 9.2-2.5 1.6-5.3 2.2-8.1 1-.6-.3-1.1.9-.4 1.2zM241.1 31.1c-.7-2.9-3.1-4.5-5.3-6.4-3.3-2.7-6.7-5.4-10.5-7.4-1.7-.9-4.9-2.8-6.9-2.3-2.3.7-3.3 4.1-3.7 6.1-.1.7.9 1 1.1.3 1.7-9 10.8-2 14.6.7 3.3 2.4 8.2 5.5 9.9 9.3.1.6.9.3.8-.3zM213.7 31c-1.5-.7-4.4-1.5-4.4-3.5 0-1.8 2.6-4 4.1-4.3 1.6-.4 3.5 0 5 .4 4 1.1 8 3.5 10.8 6.5.6.6 1.4-.3.9-.9-3.9-4.5-13.3-9.8-19.3-6.6-2.1 1.1-2.7 3-2.7 5.3 0 3.1 2.6 3.2 5.2 4.2.5.2 1-.9.4-1.1z"/><path fill="#605D5B" d="M243.1 262c5.5-1 11.9 3.4 5.6 9-1.2 1.1-2.7 1.7-4.1 2.4-2.5 1.4-4.8 3-7.4 4.2-2.6 1.2-7 3.1-7.2-3.6 0-1.9 1.7-3.5 2.9-4.8 2.9-3 6.8-5.3 10.4-7.3.8-.4.1-1.6-.7-1.2-5.7 2.6-13.6 7.5-14.5 14.2-.8 6 4.7 6.1 8.8 4.5 3.4-1.4 6.5-3.6 9.8-5.4 2.6-1.4 5.2-3 6.1-5.9 2-6.4-5.2-8.7-10-7.4-.7.4-.4 1.5.3 1.3zM303.4 280.3c2.8-2.8 7.2-.6 8 2.9.7 2.8-.5 5.7-2.1 8-1.2 1.7-2.5 3.3-4.1 4.5-1.7 1.3-8.6 4.9-8.5-.6.1-2.7 3.1-5 4.4-7.2 1.5-2.4 2.2-4.9 2.5-7.7.1-1-1.5-1-1.6 0-.6 4.6-2.7 6.8-5.1 10.5-1 1.5-2.2 3.6-1.8 5.6 1 5.6 8.5 2.9 11.3.7 4.2-3.4 8.6-9.7 6.4-15.3-1.6-4.2-6.9-5.9-10.1-2.3-.7.7.1 1.5.7.9zM342.1 169.5c-.9 8.4-1.5 16.7-2 25.1-.4 7.1-1.2 14.6-.7 21.7.6 7 8.9 8 10.1.7.6-3.4-.1-7-.2-10.4-.1-3.9-.2-7.8-.1-11.7.1-4.2.4-8.5.8-12.7.4-3.9 1.6-7.9 1.8-11.8.4-6.5-9.9-7.2-9.9-.8 0 1 1.6 1 1.6 0 .4-2.2 1.9-3.1 4.3-2.5 2 1.7 2.6 3.6 1.8 5.7-.1.9-.4 1.9-.6 2.7-.8 4.5-1 9.1-1.3 13.6-.3 4.6-.4 9.1-.3 13.7.1 4.3 1.5 9.8.4 14-1.3 5-6.5 4.7-6.9-.4-.1-1.7 0-3.5 0-5.2.1-4.5.3-9 .5-13.6.5-9.4 1.2-18.7 1.9-28 .3-1-1.1-.9-1.2-.1zM285.8 282.4c-.5-.1-1.1-.2-1.6-.4-1.3-.4-2.6-1.8-2.6-3.3 0-1.3 1.5-3 2.7-3.2 1.2-.2 2.8.4 3.4 1.5.2.5.3 1.6.2 2.3-.1 1.9-1.1 2.6-3.1 2.8-1.7.2-4.7.4-6.4-.2-1.6-.6-2.2-2.9-1.8-4.5.3-1.4 1.1-2.1 2.5-2.6.9-.3.5-1.6-.4-1.4-3.8.9-5.4 6.7-2.3 9.3 1.9 1.6 5.3.9 7.5.9 2.3 0 4.4-.3 5.2-2.7.6-1.8.4-4.8-1.2-6-1.5-1.1-3.8-1.4-5.5-.4-1.5.9-2.6 3.2-2.4 4.9.3 2.7 3.1 3.5 5.4 3.9.8.2 1.1-.8.4-.9z"/></g><g><path fill="#338AB6" d="M168 302.3l-28 13.1c10.2 11 40.7 27.6 40.7 27.6s55.4 36.8 140 34.4l24.7-41.9-36.8-8.8"/><path fill="#998368" d="M184.2 222.9s-38.5 17.9-47.4 27l17.2 65.5s9.1 8.5 67.9 28.1c58.7 19.6 93.9 23.2 93.9 23.2l17.4-35.6s16.4-58.5 15.2-67.8c0-.1-101.1-13.7-164.2-40.4z"/><path fill="#AF967B" d="M195.4 226.8c-5.2-2.2-12.9 3.8-15.6 8.6-2.8 4.9-2.7 11.3.3 16 4.1 6.6 12.2 9.2 19.2 12.3 5 2.2 9.9 5 15 7.1 4.4 1.8 9 3 13.5 4.4 13.9 4.3 27.4 10.1 41.7 13.1 14.3 3 29.8 2.9 42.6-4.1 4.1-2.3 8.1-5.5 9.4-10.1 1.7-6-1.9-10.6-5.7-15.6-.2-.1-77.1-13.6-120.4-31.7z"/><path fill="#998368" d="M320.1 278c-.9 0-1.8-.2-2.6-.4-12.7-2.8-25.5-5.6-37.9-9.6 14.1 5.4 28.7 9.4 43.5 12 .1-.4.3-.8.5-1.2-1.2-.2-2.3-.5-3.5-.8zM307.7 268c1.1-.6 2.6-.3 3.8.1 3.2 1.1 6.3 2.5 9.7 2.4l-4.5-2.4c2.5-.4 4.9 1.5 7.5 1.2.2 1 0 2.1-.6 3l-7.8-1.8c-2-.4-4-.9-5.9-1.5-.9-.2-1.6-.5-2.2-1zM178.8 235.1c-.9.5-1.1 1.7-.8 2.7.4.9 1.2 1.6 2 2.2 3 1.9 6.7 2.4 9.6 4.4.2.1.4.3.4.5.1.3-.2.6-.6.7-.3 0-.6-.1-.9-.2-3.9-1.7-7.7-3.4-11.5-5.4-.4-.2-.8-.4-1.1-.8-.3-.4-.5-1-.5-1.5-.1-1.3.4-2.7 1.4-3.6.8-.8 3.2-2 3.9-2.9 3.4 1.2 6.4 2.3 9.7 3.9 1.2.6 1 1.9-.1 1.6-2.5-1.4-5.2-2.4-8-2.8 1.8.8 3.5 1.6 5.3 2.4-2.4.7-4.8-1.3-7.3-1.5-.5 0-1 0-1.5.3z"/><path fill="#7F6C58" d="M137.3 251.3s92.2 59.2 187.6 67.7c0 0-1.2 25.8-9 47.5 0 0-40.6-3.7-93.9-23.2-53.3-19.4-59.1-19-67.9-28.1l-16.8-63.9z"/><path fill="#6B533B" d="M347.1 267.6s-14.1 37.3-22.2 51.5c0 0 .1 19.5-6.6 41.9 0 0 12.2-23.7 15-30-.1 0 14.2-56.1 13.8-63.4zM192.4 287.8l8.9 21.9 42.4-.7-1-7.2-49.5-13.6"/></g><g><path fill="#6B533B" d="M184.8 223.3c26.8 10.8 53.8 19.4 81.9 25.8 26.9 6.1 54.1 10.9 81.4 14.9 1 .1 1.5-1.4.4-1.6-27.3-4.3-54.5-8.8-81.4-14.9-28.1-6.4-55.2-14.8-82-25.5-.7-.3-1 1-.3 1.3zM184.1 222.3c-16.9 5.9-33.4 16.1-47.6 26.9-.8.6 0 1.9.8 1.3 7.4-5.3 14.9-10.4 22.9-14.9 7.9-4.5 16.3-8.1 24.4-12.2.6-.2.2-1.4-.5-1.1zM136.2 250.5c13.4 12 30.2 18.8 46.4 26.3 14.9 6.9 29.8 13.6 45.1 19.5 14.3 5.6 28.9 10.8 43.8 14.8 17.6 4.7 35.8 6.9 53.9 8.9 1.1.1 1.1-1.6 0-1.7-18.4-2-36.8-4.3-54.7-9.2-13.9-3.8-27.6-8.7-41-13.9-15.1-5.8-29.8-12.4-44.4-19.1-16.6-7.6-33.9-14.7-48.2-26.4-.7-.5-1.4.3-.9.8zM347.9 263.4c-6.9 18.9-14.8 37.3-23.7 55.3-.4.9.8 1.6 1.3.8 9.4-17.8 17.4-36.6 23.6-55.8.3-.8-.9-1.1-1.2-.3zM136.3 250.1c5.5 21.9 10.9 43.8 17.1 65.5.3.9 1.7.5 1.5-.4-5.9-21.8-10.8-43.8-17.4-65.4-.3-.8-1.4-.5-1.2.3zM324.8 319.3c-1.8 15.9-5 31.8-9.7 47.1-.3.9 1.2 1.3 1.5.4 4.7-15.2 8.4-31.6 9.5-47.5 0-.8-1.2-.8-1.3 0zM153.6 315.4c10.4 9 23.6 13.1 36.4 17.6 13.7 4.8 27.4 9.8 41.3 14.5 27.4 9.2 55.6 18 84.6 19.9 1.1.1 1.1-1.6 0-1.7-28.3-2.4-55.7-10.4-82.5-19.4-12.9-4.3-25.6-8.9-38.4-13.4-14-4.9-28.7-9.1-40.6-18.4-.6-.2-1.3.5-.8.9zM348.1 264.6c-4.1 22.4-8.8 44.5-15.5 66.3-.3.9 1.1 1.2 1.3.4 6.8-21.6 12.4-44 15.2-66.5.1-.7-.9-.8-1-.2zM332.7 330.7c-5.8 10.9-11.1 22.1-16.8 33.1-.5.9.8 1.6 1.3.8 6.1-10.7 11.3-22.1 16.5-33.2.4-.7-.6-1.3-1-.7z"/></g><g><path fill="#BCBCBC" d="M262.9 281.2c-10.5-.7-28.1-6.2-42.7-11.5-14.6-5.4-14-8.4-14-8.4l-.8-36.9 2.6-1.5c18.2 2 61.8 17.7 61.8 17.7l-2.7 24-1.5 13.6-2.7 3zM262.9 281.2v2.9s-22.2 20.7-28.9 23.5c0 0-11.7-4.3-30.9-14.4-8.5-4.4-22-10.2-22-10.2l-.4-3.5 82.2 1.7z"/><path fill="#D1D1D1" d="M262.9 281.2l-29.1 23.5-53.1-25.2 25.9-17.3s16.5 7.7 23.4 9.9c6.8 2.2 32.9 9.1 32.9 9.1z"/><path fill="#898989" d="M254.4 283.5s-2.8 3-6.8 6.1c-4.1 3.1-7 6.3-7 6.3s-8.7-5.7-21.3-10.6c-12.7-4.8-26.9-10.8-26.9-10.8s1.4-2.7 13.3-9.5c0 0 12.7 6.1 21.2 9.1s27.5 9.4 27.5 9.4z"/><path fill="#fff" d="M208.1 228.2s20.3 4.7 29.6 7.9c9.2 3.2 26.2 8.6 26.2 8.6l-3.7 33.8s-40.6-12.3-51.6-17.3l-.5-33z"/><path fill="#D1D1D1" d="M269 240.6l-2.5 2s-13.3-5.5-25.8-9.2c-12.5-3.6-35.2-9-35.2-9l2.6-1.5s24.6 5.1 32.2 7.5c7.6 2.4 28.7 10.2 28.7 10.2zM269.5 240.9c-.5-.4-3.1 1.6-3.1 1.6l-3.4 38.3 2.6-2.7 3.9-37.2z"/></g><g><path fill="#EDF1F4" d="M215 258v5.5l38 12.4V269l-12.2-5-16.8-5.1z"/><path fill="#E2E2E2" d="M266.3 242.6c-1.6 12.8-2.9 25.7-4 38.5 0 .5.8.5.8 0 1.5-12.8 2.9-25.7 3.8-38.5.1-.4-.5-.4-.6 0zM205.3 224.7c21 4.5 41.1 10.9 61.2 18.3.5.2.7-.6.2-.8-19.6-8-40.4-14.6-61.3-18.2-.3 0-.5.6-.1.7zM262.5 280.9c-4 4.1-9.2 7.3-13.6 10.9-5.1 4.2-10.3 8.5-15.4 12.7-.3.3.1.8.4.6 5.1-3.9 10-8 14.9-12.1 4.6-3.8 10.1-7.2 14.1-11.6.4-.4 0-.8-.4-.5zM180.8 280c8.6 5.2 18.2 8.4 27.2 12.9 8.4 4.1 16.7 8.6 25.3 12.2.5.2 1-.6.5-.8-8.6-3.7-16.9-8.1-25.3-12.2-9-4.4-18.6-7.7-27.3-12.7-.5-.2-.8.4-.4.6zM233.2 304.8c-.1.9.1 1.9.2 2.8.1.4.8.3.7-.1 0-.9-.1-1.9-.3-2.8 0-.4-.6-.3-.6.1z"/><path fill="#999" d="M206.1 262.9c9 3.4 17.6 7.7 26.8 10.6 9.9 3.1 19.8 5.7 29.9 8.2.6.1.8-.7.2-.9-10-2.5-20-5.1-29.9-8.2-9.2-2.8-17.8-7.3-26.9-10.4-.3-.2-.5.5-.1.7z"/><path fill="#E2E2E2" d="M267.1 242.8c.6-.6 1.4-1.1 2.1-1.5.4-.2 0-.8-.4-.6-.8.4-1.5 1-2.2 1.7-.3.2.2.7.5.4z"/><path fill="#777" d="M205.1 224.4c-.2 12.6 0 25.3.7 37.8 0 .6 1 .7 1 0 .1-12.6-.2-25.3-.9-37.8-.1-.5-.8-.5-.8 0zM207.7 223.3c10.9 2.5 21.9 4.6 32.7 7.8 9.8 2.9 19.4 6.6 28.9 10.1.8.3 1.1-1 .3-1.3-20.2-7.5-40.5-13.6-61.7-17.6-.5 0-.8.9-.2 1zM269.5 240.8c-2 12.3-3.4 24.9-4.3 37.4 0 .6.9.6 1 0 1.4-12.4 2.9-24.8 4.2-37.3-.1-.4-.9-.5-.9-.1zM205.6 224.6c.5-.1.9-.4 1.3-.6.4-.2.9-.4 1.3-.7.4-.3.2-1-.4-.8-.5.1-1 .4-1.4.7-.4.2-.9.5-1.3.8-.1.2.2.7.5.6zM263.3 281.1c1-.8 1.8-1.8 2.6-2.6.4-.4-.2-.9-.6-.6-1 .8-1.7 1.8-2.6 2.7-.3.3.2.8.6.5zM206.1 262.2c-8.6 5.5-17.1 11.3-25.6 17-.4.2 0 .8.3.6 8.6-5.6 17.2-11.2 25.6-17 .3-.2 0-.8-.3-.6zM180.3 279.7c0 1.1.1 2.2.3 3.3 0 .3.6.3.7 0 .2-1.1-.2-2.2-.2-3.3-.1-.4-.8-.4-.8 0zM180.9 283.4c9.5 3.9 18.4 8.4 27.4 13.2 8.1 4.4 16.4 8.6 25.2 11.5.6.2.8-.7.2-.9-18.4-6.4-34.5-17.4-52.6-24.5-.4-.1-.5.6-.2.7zM234.2 308c5-3.5 10.1-7.1 14.9-10.9 4.9-4 9.2-8.6 14.1-12.6.4-.3-.2-.9-.6-.6-4.6 3.6-8.3 7.8-12.8 11.6-5.1 4.3-10.6 8.1-16 11.9-.3.2 0 .8.4.6zM262.6 281.2c0 .9 0 1.7.1 2.6 0 .4.7.5.7 0 0-.9-.1-1.7-.1-2.6-.1-.4-.7-.4-.7 0zM192.8 274.2c3.9-3.6 9-5.4 12.9-8.9.4-.3-.2-.8-.5-.5-4.1 3.3-9 5.3-12.8 9.1-.3.2.1.6.4.3zM205.3 265.2c15.6 7.7 32.2 13.9 49 18.6.5.1.7-.6.2-.7-16.8-5-32.9-11.2-48.9-18.3-.4-.3-.7.2-.3.4zM192.3 274.9c8.2 2.9 15.8 6.5 23.8 9.6 8.4 3.2 16.5 6.8 24.3 11.5.5.3.9-.4.4-.7-7.1-4.7-14.9-8-22.8-11-8.6-3.3-16.7-7.3-25.5-10.1-.5-.2-.7.6-.2.7zM241.1 295.9c2.5-2.4 5-4.7 7.7-6.9 2.1-1.7 4.5-3.2 6-5.4.2-.3-.3-.8-.6-.4-1.8 2.2-4.2 3.8-6.4 5.6-2.5 2.1-4.9 4.3-7.3 6.6-.3.4.2.9.6.5z"/><path fill="#686868" d="M207.7 268.9c-2.3 1.6-4.5 3.3-6.7 5.1-.3.3.1.7.5.5 2.1-1.8 4.2-3.5 6.5-5 .3-.3 0-.8-.3-.6zM213.4 271.4c-2.3 1.5-4.5 3.2-6.6 5-.4.3.2.9.6.6 2-1.8 4.2-3.4 6.4-4.9.3-.4 0-1-.4-.7zM202.8 270.8c6.9 2.9 13.8 5.7 20.8 8.3.5.2.7-.6.2-.8-6.9-2.6-13.8-5.3-20.6-8.2-.4-.2-.9.5-.4.7z"/><path fill="#777" d="M207.8 228c-.2 10.9.2 21.9.3 32.9 0 .5.8.5.8 0-.2-10.9 0-21.9-.6-32.9 0-.4-.5-.4-.5 0zM263.6 244.6c-1.5 11.3-2.6 22.6-3.9 34-.1.6.8.6.9 0 1.3-11.3 2.7-22.6 3.7-33.9 0-.4-.7-.5-.7-.1zM208 228.3c9.1 2.5 18.4 4.4 27.4 7.4 4.6 1.6 9.1 3.5 13.9 4.7 4.9 1.3 9.9 2.3 14.5 4.6.5.2.9-.5.4-.7-3.9-1.9-8-3-12.2-4-5-1.2-9.7-3-14.6-4.7-9.4-3.4-19.4-5.6-29.2-7.8-.4-.2-.6.4-.2.5zM208.5 261.3c16.6 7 34.1 13 51.5 17.6.5.1.7-.6.2-.8-17.4-5.2-34.4-11.3-51.5-17.3-.2-.1-.5.4-.2.5z"/><path fill="#EDF1F4" d="M217.4 232.8c-1.9-.8-4-1-6.1-1.5-.2 0-.4-.1-.5 0-.1.1-.2.3-.2.5 0 .5-.1 1.1-.1 1.6 2.1.9 4.3 1.6 6.5 2.1.1-.9.2-1.8.4-2.7zM261.3 245.8c-.2.5-.3.9-.5 1.4-3.6-1-7.3-2-10.9-3-2.7-.7-5.5-1.5-8.2-2.4-1.5-.5-2.9-1.1-4.4-1.6-2.3-.8-4.6-1.5-7-2 .1-.6 1-.6 1.6-.5 1.9.5 3.8 1 5.8 1.6 4.1 1.1 8.3 2.2 12.4 3.5 3.7 1.1 7.3 2.5 11.2 3z"/><path fill="#565C56" d="M242.2 250.9c-.4.7-.7 1.6-.8 2.4-5.8-2.1-11-3.7-17.1-4.8.3-.9-.2-1.9 0-2.8-1.1-.5-2.1-.9-3.2-1.4-.1-.9-.1-1.8 0-2.7 9.6 2.6 19.1 5.5 28.6 8.5-.3 1-.6 2-.7 3-2.3-.7-4.5-1.5-6.8-2.2z"/><path fill="#80B4F3" d="M223.5 250.8c.2 0 .4 0 .6.1 5 1.4 9.9 2.7 14.9 4.1.9.3 1.9.6 2.3 1.4.4.7.1 1.7-.6 2.2-.8.6-1.9.3-2.8.1-4.5-1.2-9.1-2.4-13.4-4.4-.8-.4-1.6-.8-2-1.5-.3-.8.1-2 1-2z"/><path fill="#fff" d="M227.2 254c.9.9 2.4.7 3.5 1.2 1.3.6 2.8.4 4.1 1 .4.2.7-.4.3-.6-1.1-.6-2.1-.5-3.3-.8-.7-.2-1.2-.6-1.8-.7-.8-.2-1.7 0-2.4-.6-.3-.1-.7.3-.4.5z"/><path fill="#D0DBE7" d="M224 257.5l17 4.6v1.9l-17-5.1zM241 264c.5.1 12 3.7 12 3.7v1.3l-12-3.4V264zM224 258.9l-9-2.5v1.6l9 2.2z"/></g><g><circle fill="#fff" stroke="#C5D8E2" stroke-width="2" stroke-miterlimit="10" cx="154" cy="103.5" r="37.4"/><circle fill="#fff" stroke="#C5D8E2" stroke-width="2" stroke-miterlimit="10" cx="55" cy="87.5" r="36.6"/><path fill="#6574AB" d="M39.6 84.9l.7 12.8 9.2.5.2-12.6s-5.3-3.9-10.1-.7z"/><path fill="#EDF5F8" d="M70.2 82.2c-.8-.1-2.9-.4-8.2-.1-3.1-.1-1.5-4.2-1.6-5.7-.1-1.5-1.3-7.2-4.6-3.1 0 0 .6 4.3-1.4 6.7-1.9 2.4-4.5 4.7-4.5 4.7l-.6 12.2s15.4 2.8 17.4 1.4c1.8-1.2 2.8-1.7 1.9-3.3.3-.1.6-.3.8-.6.8-.9.8-2.2.4-3.2 1.2-1.3 1.4-3.4.5-4.9.7-.1 1-.8 1.1-1.5 0-1-.3-2.2-1.2-2.6z"/><path fill="#FF4848" d="M168.4 105.6c1.4-1.6 2.2-3.6 2.2-5.9 0-5.1-4.2-9.2-9.4-9.2-3.1 0-5.8 1.5-7.5 3.7l.9.3c-1.7-2.4-4.5-4-7.7-4-5.2 0-9.4 4.1-9.4 9.2 0 2.2.8 4.3 2.2 5.9 0 0 12.3 14 14.4 14 2.2 0 14.3-14 14.3-14z"/><circle fill="#fff" stroke="#C5D8E2" stroke-width="2" stroke-miterlimit="10" cx="382" cy="164.5" r="37.7"/><path fill="#93B286" d="M392.8 167.8c-.2-1.7-1.6-3.1-3.3-3.8-1.6-.6-3.4-.7-5.2-.7-.1-1.7-.1-3.5-.2-5.2 0-.2 0-.5.1-.7.3-.6 1.2-.4 1.8-.2.9.4 1.9.9 2.3 1.8.2.5.2 1.1.7 1.4.2.1.4.1.6.1.8.1 1.7.1 2.2-.5.3-.3.3-.8.4-1.2.2-2.3-.5-4.9-2.5-5.9-1.1-.6-2.5-.5-3.7-.5-.3 0-.7 0-1-.1-.7-.3-.9-1.1-.9-1.9 0-.7.2-1.5-.1-2.2-.3-.7-1.1-1.2-1.9-1.3-.8-.1-1.6.1-2.3.3-.3.1-.6.2-.9.4-.9.7-.9 2-.8 3.2-1.8.4-3.4 1.7-4.4 3.3-1 1.6-1.4 3.5-1.4 5.4-.1 2.3.4 4.9 2.2 6.3 1.2.9 2.8 1 4.3 1.4.2 0 .5.1.6.3.2.2.2.5.2.7.1.6.1 1.2.2 1.9.1.8 0 1.8-.7 2.2-.8.4-1.6-.3-2.1-1s-1-1.5-1.9-1.6c-.5-.1-.9.1-1.4.2-.2 0-.3.1-.4.2-.1.1-.2.3-.2.5-.2 1.3-.4 2.7.3 3.7.6.9 1.7 1.3 2.7 1.5 1 .2 2.1.2 3.1.5.2.1.4.1.5.3.1.2.1.4.1.6 0 1.1-.1 2.2-.1 3.3 0 .4 0 .8.3 1 .2.2.5.2.8.2.8 0 1.7 0 2.5-.1.3 0 .6 0 .8-.2.2-.2.3-.4.3-.7.3-1.3.6-2.7.7-4 1.7.5 3.5-.3 4.7-1.6 1.2-1.3 1.9-3 2.4-4.7.5-.8.7-1.7.6-2.6zm-14.1-7.6c0 .5-.8.7-1 .1-.2-.6-.2-1.3-.1-1.9v-.4c0-.4.4-.6.7-.4.2 0 .3.1.4.2.1.2.2.4.2.6 0 0 0 .1.1.1v.1c.1.3.2.6.2 1-.1.4-.3.6-.5.6zm8.3 9.6c0 .2-.1.4-.2.6-.1.3-.4.5-.8.6h-.1l-.1.1c-.3.4-1 0-.8-.5.1-.1.1-.3.2-.4v-.4c0-.2 0-.4.1-.5-.1-.3.1-.7.5-.6h.1c.2-.1.3-.1.5 0 .1 0 .1.1.2.1h.1c.3 0 .5.2.5.5-.1.2-.2.4-.2.5z"/></g><g><path fill="#A9BBBF" d="M50.3 85.1c3.1-2.5 4.9-4.5 5.8-8.4.2-.8.2-2.4.6-3 0-.2.1-.4.1-.6 1.3-.2 2 .1 2 1.2 1 1.5.6 5.4.4 7.2-.1.8 1.3.8 1.3 0 .1-2.1.7-11.5-3.6-10.4-1.7.4-1.6 2.7-1.9 4-.4 1.9-.8 3.9-1.9 5.5-1 1.4-2.5 2.5-3.7 3.7-.5.5.4 1.2.9.8zM59.8 82.4c1.8.1 3.6 0 5.3-.1.8 0 1.6-.1 2.4-.1.5 0 .9 0 1.4.1 2 1.4 2.1 2.5.2 3.5-1.1.1-.9 1.6.2 1.5 1.2-.2 2.3-.6 2.5-2 .3-1.3-.1-2.9-1.1-3.8-1-.8-2.3-.8-3.5-.8-2.5 0-5 .1-7.4.4-.7.2-.8 1.2 0 1.3zM69.7 87.3c.5.2.6 1.4.6 1.8 0 .8-.3 1.5-1.2 1.5-.8 0-1 1.2-.2 1.4 1.5.4 2.7-1 2.8-2.4.1-1.2-.4-3.1-1.8-3.3-.6-.2-.7.8-.2 1zM68.7 91.7c.5.5.5 1.2.4 1.8-.1.7-.2.9-.9 1-.8.1-.6 1.5.2 1.5 1.3 0 2-.8 2.1-2 .2-1.2.1-2.4-1.1-3.1-.5-.4-1.1.4-.7.8zM67.7 95.7c.8 4-8.3 1.5-9.8 1.3-2.7-.4-5.3-.3-8-.1-1 .1-1 1.5 0 1.5 3.2-.2 6.3-.2 9.5.3 2.1.3 4.3.9 6.5.7 2.5-.3 3.9-1.5 3-4-.3-.8-1.4-.5-1.2.3z"/><path fill="#455B97" d="M40.9 98.2c-.2-3.7-1-7.5-.9-11.2 0-1.7-.1-2 1.6-2.3.6-.1 1.4 0 2 .1 1.6.1 4.8-.2 5.4 1.4.5 1.3-.2 3.8-.3 5.1-.1 1.6-.5 3.5-.1 5.1 0-.2.2 1.8.5 1.2-.1.2-2.3-.1-2.6-.1-1.9-.1-3.7-.2-5.6-.3-1.1-.1-1.1 1.6 0 1.7 2.5.1 5.9.8 8.3.3.9-.2.9-.5 1.1-1.3.3-1.1-.3-3.3-.3-4.6.1-1.4.2-2.7.4-4.1.1-1.3.8-4.1-.5-5.2-1.3-1.1-4.8-.8-6.3-.8-1.3-.1-3.6-.6-4.7.5-1.3 1.3-.4 4-.3 5.6.3 3.1.7 6.1 1.1 9.2.1.5 1.3.4 1.2-.3z"/><path fill="#CE3C3C" d="M154.4 119.2c-5-4.7-13.4-9.8-15-17-1.4-5.9 5-14.1 11-9.3 1.2.9 2 2.1 3.5 2.3.8.2.7-.2 1.3-.4.9-1.9 2.3-2.8 4.1-2.9 1-.2 2.1-.2 3.1.1 2.7.7 5.5 2.9 6.1 5.7 1.7 7.8-9.5 17.2-14.9 21.2-.7.5 0 1.8.7 1.2 6.3-4.3 18.1-13.9 16-22.9-.8-3.6-3.9-6.2-7.5-6.8-1.6-.3-3.5-.3-5 .2-1.2.4-2.2 1.9-3.2 2.2-1.9.6-2.6-1.4-4-2.2-1.3-.7-3.1-.9-4.6-.7-3.2.4-6.4 3.1-7.6 6-4.3 10 8.9 18.8 15.1 24 .7.7 1.5-.2.9-.7z"/><path fill="#6B8960" d="M379.4 151c.1-1-.2-2.4.7-3 .7-.5 3.3 0 4.1.1l-1-1c0 1.8-.1 3.6 0 5.4 0 .6.6 1.1 1.3 1 2.2-.6 4.9-.5 6.3 1.8.9 1.4.7 3.4.7 5-.1 1.5 2.2 1.5 2.3 0 .1-2.8 0-5.7-2.3-7.6-2.1-1.8-4.9-1.9-7.5-1.1.4.3.8.6 1.3 1v-5.4c0-.4-.3-.9-.7-1-1.6-.2-4.9-1-6.3.2-1.2 1-.5 3.4-.3 4.7-.1.9 1.3 1 1.4-.1zM392.2 159.6c-1 0-2.2.1-3.2-.2l.8.8c-.3-1.2-.5-2.3-1.4-3.2-1-.9-2.3-1.3-3.6-1.2-1.4.1-1.4 2.3 0 2.2 1.1-.1 2.1.3 2.6 1.4.2.6.1 1.4.6 1.9 1 1 3.3.4 4.5.1.9-.3.6-1.8-.3-1.8zM383.3 157c-.1 2.2-.1 4.5 0 6.7 0 1.3 2 1.3 2 0 0-2.2-.1-4.5-.3-6.7-.1-1.1-1.6-1.1-1.7 0zM384.5 165c3.5-.7 7 .4 6.7 4.5-.2 3-1.5 6.9-5.4 6.1-1.2-.2-2.1 1.5-.9 2 5.2 2.5 8.4-3.5 8.6-7.8.3-5.5-4.6-8.4-9.5-6.4-1 .3-.6 1.8.5 1.6zM383.9 176.2c-.3 2-.4 4.1-.6 6.1l1.1-1.1c-1.4.1-3 .4-4.4.3.3.1.5.2.8.3.2.2.1-1 .1-1v-1.4c0-.9 0-1.9.1-2.8 0-1.4-2-1.3-2.1 0-.1 1.2-.1 2.5-.1 3.7 0 .8-.2 1.9.2 2.6.4.7 1 .7 1.7.7 1.3 0 2.5-.2 3.8-.2.6 0 1.1-.5 1.1-1.1.1-1.9.3-3.9.2-5.8-.1-1.1-1.8-1.4-1.9-.3zM380 167.1c-2.6-.7-5.9-1.9-6.6-4.8-.8-3.6 1.1-9.5 5.1-9.6 1.3 0 1.3-2 0-2.1-5.8-.5-7.5 5.8-7.4 10.6.1 4.3 4.4 7.9 8.7 7.7.9 0 1.2-1.5.2-1.8zM379.7 175.6c-3 .5-6.8-1.3-5.8-4.9.4-1.2-1.5-1.7-1.9-.5-1.9 5 3.7 8.6 8.1 7.2 1.2-.4.8-2-.4-1.8zM373.3 171c1 .1 2 .1 3 .2l-.9-.9c-.3 2.7 2.8 3.5 4.9 3.2 1.1-.2.8-2.1-.3-1.9-1.1.1-2.8.2-2.9-1.3 0-.4-.4-.9-.9-.9-1 .1-2 .1-3 .1-.9-.1-.9 1.4.1 1.5zM380.9 172.4c.1-1.5.1-3.2-.2-4.7-.2-1.1-2-.8-2 .3 0 1.5.2 3.2.5 4.6.2 1 1.6.7 1.7-.2zM378.7 156c-2-.1-3 2-2.8 3.8.2 1.5 1.7 3.7 3.5 3.4.9-.2 1-1.1 1.1-1.8.1-1.2.2-2.4.2-3.6 0-.8.1-1.8-.7-2.3-.8-.4-1.5.2-2.1.7-.8.8.3 2.2 1.2 1.6.1-.1.3-.2.4-.3.2-.1.1-.2-.3-.2-.2-.2-.3-.4-.5-.6.2.8.1 1.7 0 2.5 0 .3.1 2-.1 2.2.3-.1.7-.2 1-.3-1.4-.2-2.4-3.1-.6-3.5.9 0 .6-1.5-.3-1.6zM383.7 168.4c-.2 1.3-.1 2.5.1 3.8.1.4.5.7.9.7 2 .1 4.2-1.4 3.9-3.6-.2-2-2.8-3.1-4.5-2.2-.9.5-.4 1.8.5 1.8.6 0 1.9-.4 2.2.4.4 1-1 1.7-1.9 1.6.2.3.5.6.7.9-.1-1.1-.2-2.2-.2-3.3 0-.8-1.5-1.1-1.7-.1z"/></g><g><ellipse fill="#338AB6" cx="54.8" cy="349.5" rx="47.2" ry="24.2"/><path fill="#D3D3D3" d="M38.2 300.3s-.4 8.8-4.6 13.1l-1.7 25.7s.1 2.6 5.4 0 9.3-5 12.6-2.6 6 5.5 12.3 1c6.3-4.4 15.4.2 15.4.2s1.6-1.1.9-5.5c-.7-4.4.1-11.8.2-16.3 0-4.5-1.4-22.5-1.4-22.5s-13 11.8-39.1 6.9z"/><path fill="#A06944" d="M25.2 175.6s-7.6-1.7-8.7 5.9 11.1 6.8 11.1 6.8.8 15.5 14.9 21.6c14.2 6.2 41-1.6 48.3-8.8 0 0 3.6-7.8 1.2-20.3 0 0 7.6.2 7.3-5.8s-7.5-4-7.5-4l-2.5-29.1s-10.4-3-20.2.4c-9.9 3.4-18.4-4-31.9 4.9-7.9 5.1-2.2 26.5-2.2 26.5l-5.8 7.1-4-5.2z"/><path fill="#724830" d="M89.6 142c-5.6-1.9-11.8-2.3-17.6-1-1.8.4-3.5.9-5.3 1.2-2.3.3-4.7.2-7.1.1-3.9-.2-7.8-.2-11.7.4-3.9.6-7.7 2-10.7 4.4-1.3 1-2.4 2.2-3.2 3.7-1 1.9-1.2 4.1-1.2 6.2-.1 4.6.4 9.3 1.6 13.8.3 1.2.7 2.4.3 3.6-.3.8-.8 1.5-1.4 2.2-1 1.2-2.1 2.4-3.1 3.5.8 1 1.5 2 2.3 3 1.2-1.6 3-4.3 4.2-5.9l.8-1.2c-1.4-6-4.8-11.2-3.5-17.3.3-1.5.8-2.9 1.7-4.2 1-1.6 2.4-2.8 3.9-3.9 4.5-3.3 10.1-5.5 15.6-5 2.2.2 4.4.8 6.6 1 4.8.4 9.5-1.1 14.2-1.9s10.1-.7 13.8 2.4"/><path fill="#B27850" d="M47.9 210.8c-3.4-.8-5.4-4.6-6.7-7.9-1.3-3.3-1.8-6.9-2-10.4-.4-5.3-.3-10.7 1.8-15.6 2.5-5.6 7.6-9.7 13.3-12s11.9-2.9 18-3c2.5 0 5.1.1 7.5.8 5.4 1.7 9.2 6.8 11 12.1s1.8 11.2 1.8 16.8c0 3.4-.1 7-1.9 9.8-.1.1-21.7 14.4-42.8 9.4z"/><path fill="#F2EFC2" d="M51.2 158.7s-5.4.7-4.5 11.8c.9 11.1 5.2 12.3 9 11.7 3.8-.5 7.1-4.3 6-11.7-1.2-7.5-5-13-10.5-11.8zM77.8 157.2s-5.2-.6-5.9 9.4c-.6 10-.5 13.6 5.9 13.1 6.3-.6 9.6-3.9 8-12.2-1.6-8.5-2.5-10.5-8-10.3z"/><path fill="#DDD6AB" d="M50.1 158.8c-1.4.7-2.3 2.2-2.9 3.6-.9 2.3-1.2 4.9-.8 7.4 3.1-3.5 7.5-5.9 12.1-6.4.2 0 .4-.1.5-.2.1-.2-.1-.5-.2-.7-1.2-1.2-2.3-2.5-3.8-3.3-1.5-.9-3.3-1.2-4.9-.4zM85.9 166.2c.2-1.8-1.1-3.4-2.1-4.9-.7-1.1-1.4-2.4-2.4-3.2-1.4-1.1-3.4-1.4-5.1-.7-1.7.7-2.9 2.3-3 4.1 4.4.1 8.8 1.8 11.9 4.9.2.1.4.3.5.2.1-.2.1-.3.2-.4z"/><path fill="#565C56" d="M21.3 188s-3.1 5.5 1 9.4 8.5 1.7 8.5 1.7-3.9-7.6-3.7-10.3l-5.8-.8zM17.5 178.4s4.1-5.9 7.7-2.9 4.1 5.1 4.1 5.1l5.8-7.1s-3.2-14.3-2.1-19.2c1.1-4.9 4.5-11.7 21.3-11.9 11.3 1.5 21.6-1.3 24.8-2.2s10.2 1.5 10.2 1.5l2.5 29.1 4.4-1s3.1-4.8.7-10c-2.4-5.2-.9-7.7-.4-10s3.1-12.2-4.4-17.4c0 0 3.8-13.7-7.2-16.6-11.1-2.9-15.3-6.6-17.8-6.6s-10.6-.2-20.5 6.9c0 0-4.8-9.1-17.4.2-6.6 3.8-5.8 12.8-5.8 12.8s-7.9 1.8-10.5 8.9c-2.6 7.1.8 13.4.8 13.4s-2.8 5.8-2 10.1c.9 4.3 2.5 8.2 2.5 8.2s-1.8 4.3 3.3 8.7z"/><path fill="#76714E" d="M39.8 220.8s-8.3 2.8-12.9 10c-4.6 7.1-4.1 27.1-4.1 27.1s1.6 2.7 10.6 1.8l3.8-.3.2 40.8s23.3 5.1 40.9-6.6c0 0 2.7-35.8-.1-45.5 0 0 7-.6 6.6-6.8-.4-6.2-.1-23.4-14.9-24.2 0 0-5.4 7.8-15 8s-15.1-4.3-15.1-4.3z"/><path fill="#8E5C3A" d="M43.3 210.8s1.3 5-.3 6.8c-1.6 1.9-3.3 3.1-3.3 3.1s9 5.2 16.4 4.2 13.7-7 13.7-7l-4.1-2-.2-4.1s-15.3.2-21.3-1"/><path fill="#A66132" d="M78.1 248s3.2 32.3.4 44.8l-1.8 1.7 1.8 9.9.5 6.3s3.1 2.3 5.1-2c2-4.2 3-8.1.2-16.4 0 0 .2-45.2-.5-45.9-.8-.6-4.8-.2-5.7 1.6zM37.1 259l.2 47.2s-.7 8.8-6.5 6.3c0 0-3 3.2-6.7-.5s-7.7-7.1-.3-14.8l.3-37.6 13-.6z"/><path fill="#8C8662" d="M78.2 269c.8 6 1.1 12.1 1.1 18.2 0 2.1-.1 4.3-1.2 6.1-1.6 2.7-4.9 3.9-7.9 4.7-9.2 2.4-18.9 3.3-28.4 2.6-.1-9 .5-18.1 1.8-27 .5-3.5 1.1-7 2.6-10.2 2.5-5.6 7.7-10 13.7-10.9 6-1 12.6 1.8 15.7 7.1 1.6 2.8 2.1 6.1 2.6 9.4z"/><path fill="#A59D7C" d="M48 260.1s5.9-7.4 14-7.3 12.1 4.7 13.7 7.3c0 0-3.4-8.7-13.9-8.4S48 260.1 48 260.1z"/><path fill="#EAEAEA" d="M41.8 301.5c-.3 8.1-.5 16.2-.8 24.2 0 1.3 0 2.9 1 3.8.7.6 1.6.8 2.5 1 3.3.6 7.4 1 9.3-1.8.7-1.1.9-2.4 1-3.7.1-2.2-.3-4.4-.1-6.5.2-2.2.9-4.5 2.7-5.7 1.8-1.3 4.7-1 5.7.9.4.8.5 1.8.5 2.7.1 2.4.1 4.8.2 7.2 0 1.2.1 2.6 1 3.4.7.6 1.7.8 2.7.9 3 .3 6.6.4 8.6-1.9 1.1-1.3 1.4-3 1.7-4.6 1.3-8.8 1.1-17.8-.6-26.5-.4 0-.7.1-1.1.1-.1 0-14.1 8.2-34.3 6.5z"/><path fill="#AFAFAF" d="M61.6 317.7c-.8.2-1.6.3-2.5.4-.8.1-1.6 0-2.4 0-.8 0-1.5-.1-2.3-.1.5 1.2 1.3 2.2 2.3 3 .4.3.8.6 1.3.7.6.1 1.3-.1 1.9-.3.9-.3 1.8-.7 2.4-1.3.7-.7 1.1-1.7.8-2.5-.5-.1-1 0-1.5.1z"/><path fill="#BABABA" d="M77.4 297.3c0-1-.2-2-.4-3-2.3 1.8-5 3.2-7.8 4.1-2.4.8-4.9 1.2-7.3 1.6-8 1.3-16.3 2.6-24.1.6.4 5.3-1.3 10.7-4.8 14.8 2.4.4 4.8-1.1 6.1-3.1 1.3-2.1 1.6-4.5 1.7-7 6.2.6 12.5.8 18.6-.1s12.2-2.9 17.3-6.5c.2-.1.4-.3.5-.5.2-.3.2-.6.2-.9z"/><path fill="#434943" d="M70 137.6l.5 8.3s10.5-1.1 15.1 3.2c0 0 .9-16.1-16-11.5"/><path fill="#434943" d="M54.8 148.4s-7.6.6-11.9 4.1c0 0 .4-13.4 11.3-11.8 0 0 2.7 3.3.6 7.7zM21.5 188.6c-.4.6-.9 1.3-.8 2 0 .3.2.6.3.9.5.7 1.2 1.1 2 1.3.8.2 1.6.2 2.5.3.8 0 1.6 0 2.5.1.3-1.4.2-3-.3-4.4-1.8.4-3.7.3-5.5-.4-.2-.1-.4-.1-.5-.1-.1.1-.2.2-.2.3zM22.8 171c-1.2.6-2.4 1.2-3.2 2.2s-1.5 2.3-1.3 3.6c.3 0 .5-.2.7-.3 1.5-1.2 3.7-.9 5.5-1.5.1 0 .2-.1.3-.2.2-.2.1-.5 0-.7-.4-.9-.7-1.8-1.1-2.6-.1-.2-.2-.4-.4-.5-.2-.2-.4-.1-.5 0z"/><path stroke="#373A37" stroke-width=".7" stroke-miterlimit="10" d="M91.7 167.7c1.5.3 3.2-.3 4.5.5.1 0 .2.1.2.2v.3c-.1.4-.3.8-.4 1.2 0 .1-.1.2-.1.3-.1.1-.2.1-.3.1-1.1.1-2.2.1-3.3.2h-.2c-.1-.1-.2-.2-.2-.3-.1-.6-.1-1.3-.1-1.9" fill="none"/><path fill="#724830" d="M43.4 210.8c0 1 0 2 .1 3 6.4 4.3 15 5.2 22.2 2.3.3-1.4.3-2.9-.1-4.3 0-.2-.1-.3-.2-.4-.2-.2-.5-.2-.8-.1-7.1 1-14.4 1.5-21.2-.5z"/><path fill="#747A74" d="M73.2 127.3c-.5-.3-1-.5-1.6-.6-.7 0-1.3.3-1.9.6-5.8 2.9-12.2 3.4-18.2 1.4-3.6 4.8-8.6 8-13.8 8.8-2.2.4-4.8 0-5.9-2.4-1.2-2.7.4-6 2.2-8 4.4-5 10.6-7.3 16.3-6 2.2-4.4 5.9-7.5 9.9-8.4 4-.9 8.3.5 11.6 3.8.3.3.6.6.9.7.4.2.8.1 1.3 0 2.1-.3 4.3-.5 6.3 0 2.1.5 4.1 1.9 5.3 4.1.7 1.3 1.1 3.2.4 4.6-.5 1-1.4 1.5-2.3 1.8-3.3 1.4-7.1 1.2-10.5-.4z"/><path fill="#858C85" d="M71.5 126.3c.5-.1.9.1 1.4.2 3.4 1.1 7 2.3 10.4 1.2-3.7 1.4-7.7 1.5-11.5.4-.2-.1-.4-.1-.6-.1-.2 0-.4.1-.6.2-6 2.9-12.7 3.4-18.9 1.5-.7 1.6-2.2 2.6-3.5 3.4-1.9 1.2-3.7 2.4-5.8 3 3.2-1.6 6.1-4.1 8.5-7.1.2-.2.4-.5.7-.5.2 0 .4 0 .5.1 6 1.8 12.4 1.2 18.1-1.7.6-.3.9-.5 1.3-.6z"/><path fill="#635653" d="M83.9 350.2s1.1 3.9-2.8 4.3c-3.9.4-7.8 1.6-11.9-1.2-4.1-2.8-8.2-3-9.5-7.4s-2.2-5.4-2.2-5.4.2-1.7 1.8.4 8.8 9.4 11.5 10.2c2.6.7 10.9.2 13.1-.9z"/><path fill="#83B1B1" d="M58.8 340.3s2.4-.2 5.2-.7 1.6-3.3 7.2-3.8 6.6 3.3 6.6 3.3.1 1 2.1 1.9c2 .9 3.1 2.4 3.8 4.7.7 2.4.7 5.2-2.9 5.8-3.6.6-5.8.8-9.3-.6-3.6-1.5-10.9-6-12.7-10.6z"/><path fill="#635653" d="M58.9 351.2s1.1 3.9-2.8 4.3-7.8 1.6-11.9-1.2c-4.1-2.8-8.2-3-9.5-7.4s-2.2-5.4-2.2-5.4.2-1.7 1.8.4 8.8 9.4 11.5 10.2 10.9.2 13.1-.9z"/><path fill="#83B1B1" d="M33.8 341.3s2.4-.2 5.2-.7c2.8-.5 1.6-3.3 7.2-3.8s6.6 3.3 6.6 3.3.1 1 2.1 1.9c2 .9 3.1 2.4 3.8 4.7.7 2.4.7 5.2-2.9 5.8-3.6.6-5.8.8-9.3-.6-3.6-1.5-10.9-6-12.7-10.6z"/><path fill="#759B9A" d="M34 340.4c-.2 1.5.8 3.1 2.2 3.7.6.2 1.3.3 2 .3s1.5 0 2.2-.1c.2-.4-.1-.8-.4-1.1-.5-.6-1-1.2-1.5-1.7-.1-.1-.2-.3-.4-.4-.2-.1-.5-.1-.8-.1-1.1 0-2.2-.2-3.3-.6zM62.5 344c.8 0 1.5-.1 2.2-.3.2 0 .4-.1.5-.3.1-.2 0-.5-.2-.8-.6-.8-1.1-1.6-1.7-2.4-.1-.2-.2-.3-.4-.4-.2-.2-.5-.2-.8-.2-.9-.1-1.8-.1-2.6-.2-.1 0-.2 0-.3.1-.1.1-.1.2-.1.3 0 1 .5 2 1 2.9.2.4.4.7.7 1 .5.2 1.1.3 1.7.3zM68.7 344.6c3-2.7 7.1-4.1 11.1-3.7-1.8-1.5-4.5-1.9-6.8-1.3-2.3.6-4.4 2-6.1 3.7-.2.2-.3.4-.3.6 0 .1.2.2.3.2.3.2.5.3.8.5.2.1.4.2.6.2.1.1.3 0 .4-.2zM50.8 340.5c-3.3.4-6.4 1.6-9.1 3.6-.2.1-.4.3-.5.6-.1.4.3.8.7 1 .4.2.9.2 1.2.5 3.5-2.4 7.6-3.7 11.8-3.8-.4-.8-1.1-1.5-1.9-1.7-.6-.4-1.4-.3-2.2-.2z"/></g><g><path fill="#373A37" d="M17.9 178c-2.4-1.9-3.6-5.1-2.9-8.1.2-.8-.9-1.3-1.3-.6-1.7 3.2.7 7.8 3.4 9.7.6.4 1.4-.6.8-1z"/><path fill="#332B18" d="M20.4 188.4c-1.8 3-1.6 6.4.8 9 2.1 2.3 5.8 4.8 9 3.1.8-.4.2-1.8-.6-1.4-2.6 1-5.2-.7-7-2.5-2.1-2.2-2.3-4.7-1-7.4.3-.9-.7-1.6-1.2-.8z"/><path fill="#725038" d="M26.8 188.1c-3.1.3-6.2-.6-8.1-3.2-1.6-2-1.5-4.5.3-6.4 1.5-1.6 4-3.6 6.2-2 .8.6 1.8-.7 1-1.3-4-3.2-10.9 2.3-10.5 6.9.4 5.3 6.6 8.6 11.4 7.1.4-.2.4-1.2-.3-1.1z"/><path fill="#878787" d="M33 313.3c-.9 4-.7 8-.6 12.1.2 4.5-1.1 8.8-1.1 13.3 0 1 1.6 1 1.6 0 0-4.2 1.3-8.2 1.1-12.5-.2-4.3-.3-8.5.1-12.8.1-.6-1-.7-1.1-.1z"/><path fill="#624321" d="M81 296.8c.2 1.4.5 2.7.7 4.1.4 2.5-1.2 2.7-3.2 2.8-.8 0-1 1.3-.2 1.5 1.7.3 3.9-.1 4.6-1.9.3-.8.2-1.6 0-2.4-.3-1.4-.7-2.9-1-4.3-.1-.7-1.1-.4-.9.2z"/><path fill="#878787" d="M76.8 294.5c-.3 7.4 1.6 14.5 1.2 21.8-.2 3.5-1 7.1-1 10.6 0 3.1 1 6.2 1.3 9.3.1 1 1.5 1 1.5 0-.1-3.6-1.3-6.9-1-10.6.3-3.1.7-6.2.8-9.3.4-7.3-1.6-14.5-1.7-21.8 0-.7-1.1-.7-1.1 0z"/><path fill="#443F12" d="M77.9 292.9c-12.2 7.1-25.7 9.8-39.5 6.5-1.1-.3-1.5 1.4-.5 1.7 13.8 3.3 28.9 1.2 40.7-6.9.7-.6.1-1.8-.7-1.3z"/><path fill="#624321" d="M36.5 259.3c-.2 8.7-.1 17.3-.1 26v12.5c0 4.8 1.1 11.2-3 14.6-.6.5.2 1.6.9 1.2 6.1-4.3 3.7-15.2 3.7-21.5-.1-10.9 0-21.8-.4-32.7 0-.9-1.1-.9-1.1-.1zM81.9 247.2c1 14.8 1.1 29.5 1.1 44.3 0 1.3 2 1.3 2 0-.1-14.8-.1-29.6-1.1-44.3-.1-1.3-2.1-1.3-2 0z"/><path fill="#583A17" d="M42.7 210.8c-.1 1.6 0 3.3-.1 4.9-.1.9-.1 1.9-.7 2.6-.5.6-1.3.8-2 1.2-.7.4-.2 1.6.6 1.3 1.5-.5 2.9-1.3 3.4-2.9.7-2.1.4-4.9.2-7.1-.2-.8-1.4-.8-1.4 0zM64.9 211.8c.1 1.4.2 2.8 0 4.1 0 .3.2.6.5.7 1.3.2 2.6.7 3.9.7.8 0 .9-1.1.2-1.3-1.1-.4-2.5-.5-3.7-.7.2.2.4.5.5.7-.1-1.4-.1-2.9-.4-4.3 0-.6-1-.5-1 .1z"/><path fill="#373A37" d="M89.8 131.1c2.8 2.4 5.1 5.4 6.1 9 .5 1.9.7 4 .6 6-.2 3.3-1.6 4.1-2.3 7.2-.5 2.2-.4.6.1 2.8.4 1.8 1.8 3.4 2.1 5.3.5 3 .1 5.6-1.2 8.4-.4.9.9 1.7 1.4.8 1.4-3 2-6.1 1.4-9.5-.4-2-2.1-4-2.4-5.8-.3-1.8 1.6-5 2-6.6 1.5-7.2-1.3-14.2-7.2-18.5-.4-.4-1.1.5-.6.9z"/><path fill="#725038" d="M91.9 171.4c1.3-.4 2.8-.8 4.2-.2 1.6.6 2.3 2.4 2.4 4 .1 3.4-2.6 5.4-5.7 4.2-.8-.3-1.2.9-.6 1.4 3.8 2.7 8-1.7 7.8-5.6-.2-4.9-4.4-6.7-8.6-4.9-.5.3-.1 1.3.5 1.1zM91.2 170.8c.2 9.9 1.8 21-1.7 30.5-.4.9 1.2 1.4 1.5.4 3.1-9.9 1.9-20.7 1.4-30.9-.1-.7-1.2-.7-1.2 0z"/><path fill="#373A37" d="M88.7 141.7c1.3 9.5 2.3 19.1 2.5 28.7 0 1 1.6 1 1.6 0-.6-9.7-1.3-19.3-2.9-28.8-.2-.6-1.3-.5-1.2.1z"/><path fill="#725038" d="M89.7 201.2c-16.8 9.9-45 17.6-58.2-1.9-.5-.8-1.8 0-1.2.7 13.6 20.1 42.7 12.9 60 2.2.6-.4.1-1.4-.6-1zM31.2 199.5c-.7-1.8-1.7-3.5-2.3-5.4-.6-1.9-.7-3.9-.7-5.9 0-.9-1.3-.9-1.4 0-.2 4.3 1 8.1 3.3 11.7.4.6 1.4.3 1.1-.4z"/><path fill="#373A37" d="M82.5 141.2c.8.4 1.8.5 2.7.7 1 .2 1.9.4 2.9.8 1.1.4 1.6-1.4.5-1.8-.9-.3-1.9-.6-2.9-.7-.9-.1-1.9-.3-2.8-.2-.6.1-1 .9-.4 1.2zM55.3 143c3.1.3 6 .9 9 1.3 2.2.3 3.9-.8 5.9-1.6 1.1-.4.6-2.2-.5-1.8-1.1.5-2.4 1.3-3.6 1.6-1.3.3-3-.2-4.3-.4-2.1-.3-4.4-.5-6.5-.3-.9 0-.9 1.1 0 1.2zM22.7 170.7c1.2 4.3 3.4 7.7 6.5 10.9.3.3.9.3 1.2-.1 1.1-2.3 2.9-3.7 4.3-5.8.2-.3.9-.8 1.1-1.3.7-2.2-.8-5.3-1.1-7.4-.7-4.3-2-11.2-.5-15.3 1.6-4.4 8.3-6 12.3-7.2 1.1-.3.6-2.1-.5-1.8-3.8 1.1-9 2.5-11.8 5.5-2.9 3-2.3 7.9-2 11.7.2 4.1 3.2 11.9.9 15.1-.4.6-3.2 4.4-3.5 4.4-2 .2-5.1-7.8-5.5-9-.4-.8-1.6-.5-1.4.3zM16.7 170.6c-5.8-5.2-5.3-15.9-.2-21.3.7-.7-.4-1.9-1.1-1.1-5.7 5.9-6.5 17.9.4 23.3.6.4 1.5-.4.9-.9zM13.9 150.2c-2.9-8.9.5-17.7 9.8-20.4.3-.1.6-.4.6-.7-.8-9.7 13.3-22.7 21.8-13.4.7.8 1.9-.4 1.2-1.2-7.9-8.6-20.8.1-23.9 9-.4 1.1-.3 3.1-.7 4-.9 1.7-1 1-2.3 1.9-2.3 1.6-4.3 2.6-6.1 4.9-3.6 4.7-4 11-1.3 16.3.1.5 1 .2.9-.4zM45.8 117.8c3.7-3.6 8.2-6.2 13.3-7.2 3-.6 6.2-.7 9.2-.2 3.5.6 4.9 1.8 7.7 4.1 2.6 2.1 4.6 1.3 7.9 2 7.5 1.5 8.3 8.1 7.7 14.6-.1 1.1 1.6 1.1 1.7 0 .4-4.9.6-10.8-3.8-14.1-1.9-1.4-4.3-2-6.6-2.3-3.1-.4-3.2.1-6.4-2.2-.4-.3-.7-.9-1.2-1.2-9.5-6.1-23.1-2-30.3 5.7-.5.5.3 1.3.8.8z"/><path fill="#624321" d="M58.9 189.1c0 .1 0 .1-.1.2-.1.2 0 .4.1.6 1.1 1 3.6.1 4.9-.1 2.6-.3 5.2-.7 7.7-1.2.9-.2.5-1.4-.4-1.3-1.9.3-3.8.6-5.8.9-.7.1-5.3.4-5.5 1.2.4-.7-.6-.9-.9-.3z"/><path fill="#725038" d="M72.1 172.9c.5-2.5.4-5 .6-7.6.1-1.7.4-4 1.5-5.4 4-5.5 8.8-.7 10 3.2.9 2.8 1.4 6.9.9 9.9-1.2 5.9-13.4 9.1-13 .8 0-.9-1.3-.9-1.4 0-.6 7.6 5.1 7.4 11.1 5.8 6.1-1.7 5.3-9.2 4.4-14.3-.8-4.6-4.3-10.9-10-8.8-6.3 2.4-4.6 11-5.4 16.1 0 .7 1.1 1.1 1.3.3zM62.3 173.3c.3-5.9-1.6-13-7.7-15.4-5.6-2.2-9 4.6-9.1 9.2-.2 5.1.7 14.9 7 15.8 6.2.9 10.3-3.3 10-9.2 0-.8-1.2-.8-1.2 0 0 3.5-1.2 6.4-4.9 7.5-3.1.9-6.5-.5-7.7-3.6-1.3-3.7-2.2-8.1-1.6-11.9.9-6.1 6.4-8.3 10.5-3.8 2.9 3.2 3.8 7.2 3.7 11.5-.1.5.9.5 1-.1z"/><path fill="#44311D" d="M82.6 172.3c-.3.4-.1 1 .3 1.2.4.2 1 .1 1.2-.3s.3-.9.1-1.3c-.2-.3-.5-.6-.8-.6s-.7.3-.7.6"/><path fill="#44311D" d="M82.1 171.9c-.6.7-.5 1.8.3 2.3.9.5 2 0 2.4-.9.4-.9 0-2-.8-2.4-.9-.5-2.1.1-2.1 1.1 0 .8 1.2 1 1.4.2 0-.1 0-.1.1 0s.2.4.1.5c-.1.2-.5.2-.4-.1.3-.5-.5-1.3-1-.7zM59.3 175.2c.1.5.7.8 1.1.6.4-.2.5-.8.5-1.3 0-.4-.1-1-.5-1.1-.2-.1-.5 0-.7.2-.4.3-.6.7-.7 1.2"/><path fill="#44311D" d="M58.6 175.2c.1.9.9 1.6 1.9 1.3.9-.3 1.2-1.4 1.2-2.2 0-.9-.6-1.9-1.6-1.7-1 .2-1.7 1.2-1.7 2.1 0 .8 1.2 1 1.4.2.1-.2.1-.3.2-.5.1-.1.2-.2.2-.3 0 0 .1 0 .1-.1s0-.1-.2-.1v.3c0 .2 0 .5-.1.7-.1.1-.1.1-.1 0-.2-.6-1.4-.6-1.3.3z"/><path fill="#443F12" d="M39.5 221.2c9.8 7 22.8 5.1 30.7-3.8.5-.6-.3-1.4-.8-.8-7.9 8.8-19.5 9.9-29.4 3.8-.5-.4-1 .4-.5.8zM39.4 219.8c-17.2 5-18.3 24.5-17.4 39.4 0 .4.2.7.6.8 3.5 1 6.8 1 10.3.5 2-.3 6.3-.5 7.7-2.1 1.7-2 .7-8.1.6-10.6-.1-3.5-.4-6.7-1.9-9.9-.4-.9-1.8-.1-1.3.8 1.6 3.5 1.7 7.2 1.8 11 0 1.5.1 3.1 0 4.6-.2 2.4-.1 2.7-2.2 3.7-2.6 1.2-6.2 1.4-9 1.4-5.5 0-5.1-2.3-5.2-6.9-.3-13 3.1-26.2 16.4-31.3.7-.4.4-1.6-.4-1.4zM69.5 217.2c2.6.5 5.5.9 7.8 2.5 3.2 2.2 4.4 6.4 5.3 10 .8 3.2 1.2 6.4 1.3 9.7.2 4.4-.1 6.4-4.8 6.9-1.1.1-1.1 1.9 0 1.7 2.2-.2 5.4.3 6.4-2 .7-1.8.2-5.6.1-7.5-.1-2.5-.4-5-1-7.4-1.8-8.7-5.5-14.4-14.9-14.8-.7-.2-.8.8-.2.9zM74.8 232c4.4 20.3 5.4 40.9 2.6 61.5-.1 1.1 1.5 1.1 1.7 0 2.7-20.6 1.8-41.6-3.2-61.8-.1-.8-1.2-.4-1.1.3z"/><path fill="#624321" d="M23.5 260.7c-1.1 12.1-.6 24.6-.5 36.7 0 1 1.5 1 1.6 0 .2-12.1.9-24.6 0-36.7-.1-.7-1-.7-1.1 0zM31.7 309.2c-1.1 2.3-2.7 5.3-6.2 3.5-1.2-.6-2.4-2.5-3.3-3.5-1.8-1.9-3.2-4.2-1.6-7 .8-1.4 2.1-2.5 3.3-3.6.6-.6-.2-1.7-.9-1.2-2.1 1.6-4.2 3.8-4.9 6.3-.8 2.9 1.2 4.6 3.1 6.6 1.6 1.7 3.8 5.2 6.5 4.9 2.6-.3 4.3-3.4 5.2-5.5.3-.6-.8-1.3-1.2-.5zM30.3 312.8c.9 1.2 2.7 1.6 4 .8.7-.5.1-1.5-.7-1.1-.8.4-1.8.3-2.5-.3-.3-.5-1.1.1-.8.6zM83.5 292c.6 2.9 1.9 5.8 2.1 8.7.3 3.8-1.8 7.5-4.3 10.3-.7.8.4 1.9 1.1 1.1 2.2-2.5 4.2-5.5 4.7-8.9.6-3.7-1.4-8.1-2.6-11.5-.2-.7-1.2-.5-1 .3zM80.3 305.3c-.6 1.5-.9 3-.6 4.6.2 1.2.6 2.5 1.9 2.7.8.1.8-1.1.2-1.3-.6-.2-.8-1.9-.9-2.4-.1-1.1.2-2.1.5-3.1.3-.7-.8-1.2-1.1-.5z"/><path fill="#878787" d="M57.3 340.3c1.8-2.4 1.1-6.5 1-9.2-.1-4.4-.5-8.8-1.3-13.1-.2-.8-1.6-.6-1.5.2.4 3.5.9 7 1.1 10.5.2 2.9 1.3 8.5-.3 11.1-.3.5.6 1 1 .5zM54.3 318.1c2.2.1 4.1.7 6.4.4 1.9-.2 3.7-.8 5.3-1.8.8-.5.1-1.8-.8-1.3-1.9 1-3.8 1.7-6 1.9-1.6.1-3.3-.3-4.9-.1-.6 0-.6.9 0 .9z"/><path fill="#373A37" d="M69.4 138.3c0 2.5-.5 5.8.2 8.2.1.4.4.5.8.6 2.3.2 4.6-.6 7-.3 2.9.4 5.4 1.6 7.6 3.5.4.3 1.3.3 1.4-.4.7-4.4-.8-8.7-4.6-11.2-2.9-1.9-9-3.7-12.2-1.8-.9.5-.1 1.9.8 1.4 2.5-1.3 7.5.1 9.8 1.4 3.5 2 5.3 5.8 4.6 9.8.5-.1.9-.2 1.4-.4-2.7-2.2-5.7-3.6-9.2-4-1.2-.1-4.7.6-5.6-.1-1.1-.9-.6-5.3-.6-6.8 0-.8-1.4-.8-1.4.1z"/><path fill="#332B18" d="M55.3 147.9c-4.5-1.1-9.7 2.4-13.2 4.9.4.2.8.4 1.2.7.3-3.7 1.5-7.5 4.5-10 1.2-1 3-2.1 4.6-2 2.9.1 2.3 4.3 2 6.3-.1 1 1.4 1.5 1.6.5.4-2 .9-6.2-.7-7.9-1.3-1.4-4.2-.5-5.7.1-5.3 2.2-7.5 7.7-7.9 13 0 .5.7 1 1.2.7 3.3-2.4 8-5.6 12.3-5 .6-.1.8-1.1.1-1.3z"/><path fill="#443A38" d="M58.8 349.9c0 8.1-11.9 5-15.9 3-3.4-1.7-10.2-6.7-9.3-11.3.2-.9-1.1-1.3-1.4-.4-2.1 6.2 8.2 12.7 12.9 14.3 3.7 1.3 8.2 1.8 12 .5 3.3-1.1 3.4-2.9 3.1-6.2-.2-.7-1.4-.8-1.4.1z"/><path fill="#587572" d="M57.6 344.6c3.5 8.2-6.4 8.2-11.5 6.3-2-.7-12.7-7.3-11.4-10 .3-.7-.6-1.3-1-.6-1.3 2.1 2.1 4.8 3.4 6 3.3 3.2 6.8 5.9 11.4 6.7 2.6.5 8.5.8 10.6-1.3 2-1.9.5-5.8-.6-7.8-.3-.5-1.2.1-.9.7z"/><path fill="#443A38" d="M83.8 348.9c0 8.1-11.9 5-15.9 3-3.4-1.7-10.2-6.7-9.3-11.3.2-.9-1.1-1.3-1.4-.4-2.1 6.2 8.2 12.7 12.9 14.3 3.7 1.3 8.2 1.8 12 .5 3.3-1.1 3.4-2.9 3.1-6.2-.2-.7-1.4-.8-1.4.1z"/><path fill="#587572" d="M82.6 343.6c3.5 8.2-6.4 8.2-11.5 6.3-4.6-1.7-8.5-5.5-11.4-9.3-.5-.6-1.5-.1-1 .6 4 6 10.6 11.1 18 11.1 2 0 6.4-.1 7.7-1.7 1.7-2.1.3-5.6-.8-7.6-.4-.6-1.3 0-1 .6z"/><path fill="#878787" d="M78.4 336c-.2 1.1-2.5-1.1-2.6-1.2-.7-.4-1.5-.7-2.2-.8-1.8-.4-3.6 0-5.2.6s-3.2 1.6-4.4 2.8c-2.2 2.1-3.8 1.6-6.6 2.2-1.1.2-.6 1.8.4 1.6 1.6-.3 3.6.2 5.1-.5 1.2-.6 2-1.9 3-2.8 2.2-1.8 5-3 7.8-2.1 1.8.6 2.7 2 4.4 2.7.3.1.6 0 .8-.2.9-.9.8-.9.8-2.1-.1-.7-1.2-.9-1.3-.2zM31.4 338.9c-1.9 4 4.2 3.1 6.3 2.3 1.7-.7 3.2-2.8 5-3.7 3.6-1.7 6.5-1.9 8.9 1.3 1.6 2.1 2.1 2.8 5.2 2.5 1.1-.1 1.1-1.7 0-1.7-4.1.3-3.1-3.1-5.3-4.6-1.2-.8-3.5-.4-4.8-.2-2.9.4-5 1.5-7.5 3.1-1.4.8-1.6 1.7-3.5 2.1-.4.1-3.5.2-3.2-.6.1-.7-.8-1.1-1.1-.5z"/><path fill="#587572" d="M38.6 342c3.6-3.3 7.2-6 12.3-3.7.9.4 1.6-.9.7-1.3-5.3-2.5-10.4-.2-13.9 4.2-.4.5.3 1.3.9.8zM37.9 342.2c.9 1.1 1.9 2.2 2.9 3.1.3.3.7.2.9-.1 2.5-3.6 7.2-4.3 11.2-4.1.5 0 .8-.5.7-.9-.3-1.5-.9-2.3-2.1-3.2-.6-.5-1.5.6-.9 1.1.9.6 1.4 1.4 1.5 2.5.2-.3.5-.6.7-.9-4.9 0-8.9 1.2-12.2 4.9h.9c-1-1-2-2-3-3.1-.3-.6-1 .2-.6.7zM52.9 341.4c1.1.6 4.9 2.9 4.8 4.1-.3 2.2-3.5 1.9-5.1 1.9-3.3.1-8.4-1.1-11-3.1-.7-.5-1.6.7-.9 1.2 2.4 1.9 5.7 2.5 8.6 3.2 2.4.6 5.2.4 7.5-.2 1.9-.5 2.9-1.4 2.4-3.5-.6-2.6-3.5-3.8-5.7-4.7-.6-.3-1.3.7-.6 1.1zM63.6 341c3.6-3.3 7.2-6 12.3-3.7.9.4 1.6-.9.7-1.3-5.3-2.5-10.4-.2-13.9 4.2-.4.5.3 1.3.9.8zM62.9 341.2c.9 1.1 1.9 2.2 2.9 3.1.3.3.7.2.9-.1 2.5-3.6 7.2-4.3 11.2-4.1.5 0 .8-.5.7-.9-.3-1.5-.9-2.3-2.1-3.2-.6-.5-1.5.6-.9 1.1.9.6 1.4 1.4 1.5 2.5.2-.3.5-.6.7-.9-4.9 0-8.9 1.2-12.2 4.9h.9c-1-1-2-2-3-3.1-.3-.6-1 .2-.6.7zM77.9 340.4c1.1.6 4.9 2.9 4.8 4.1-.3 2.2-3.5 1.9-5.1 1.9-3.3.1-8.4-1.1-11-3.1-.7-.5-1.6.7-.9 1.2 2.4 1.9 5.7 2.5 8.6 3.2 2.4.6 5.2.4 7.5-.2 1.9-.5 2.9-1.4 2.4-3.5-.6-2.6-3.5-3.8-5.7-4.7-.6-.3-1.3.7-.6 1.1z"/></g><g><ellipse fill="#338AB6" cx="152.8" cy="380.5" rx="47.2" ry="24.2"/><path fill="#D3A36A" d="M179 319s4.9 2.1 6.7 2c1.8-.1 2.3-.1 2.3-.1s.5 5.1-1 10c-1.4 4.9-2.6 8.2-4.6 9.4 0 0-2.5-.9-1.5-5.8 0 0-1.6 1.8-3.5 1.8s-1.6-2.4.8-7.1l-4.3-.9 1.4-5.2c.1 0 3.9-1.1 3.7-4.1z"/><path fill="#BA8F60" d="M180 326.8c-.1 1.4 0 2.8.4 4.2.2.8.5 1.7 1.1 2.3.6.6 1.6.8 2.3.4.7-.5.9-1.4 1.1-2.3.2-1.1.6-2.2 1.2-3.1.1 1.5-.2 2.9-.6 4.4-.3 1.2-.6 2.4-1.3 3.4-.7 1-1.8 1.8-3 1.8.1-.9.2-1.9.1-2.8-.8.4-3.6 1.9-4.5 1.6-1.1-.3.1-2.6.2-3.7s.6-2.2 1.1-3.1c.1-.2.2-.5.1-.7-.1-.2-.4-.2-.7-.2h-1.6c-.2 0-.4 0-.5-.1-.1-.1-.2-.3-.2-.5-.1-1.2 0-2.4.2-3.6 0-.2.1-.4.3-.4.1 0 .2.1.3.2.7.7 1.6 1.1 2.6 1.3.5.1 1 .1 1.3.5.2-.1.1.1.1.4z"/><path fill="#DBD7B6" d="M133.5 332.9s-2.4 6.9-2.1 13.4c.3 6.5.2 22.7.2 22.7s1.4 4.4 8.2 3.6 15.7-3 16.8-5c0 0 15.5.3 18.1-2.4 2.6-2.7 1.5-10.4 1.5-10.4s2-23.7.2-32.7c-1.7-8.9-42.9 10.8-42.9 10.8z"/><path fill="#F2EFC9" d="M174.7 325l-11.8 4.3c-.3-.3-.8-.2-1.2-.1-1.6.4-3.3.7-4.9 1.1-1.7.4-3.5.8-5.1 1.6-.3.2-.7.4-1 .6l-10.1.4c.3 7 .6 13.9 1 20.9 0 .8.1 1.7.4 2.4.6 1.3 2.1 2.1 3.6 2.2 1.5.1 2.9-.2 4.3-.7 1.4-.4 2.9-1 3.7-2.2.7-1.1.7-2.5.7-3.7v-16c.1-.2.2-.3.4-.5.8-.8 2-1.2 3.2-1.4 1.1-.2 2.5 0 3 1 .1.1.1.3.2.4v17.2c0 .6 0 1.3.4 1.8.5.7 1.5.8 2.4.8 2.3 0 4.8 0 6.6-1.3 2.2-1.6 3-4.5 3.4-7.2 1.2-7.1 1.4-14.4.8-21.6z"/><path fill="#AFAA84" d="M131.7 334.4c0-.3 0-.7.2-1 .2-.4.7-.5 1.1-.7 13.4-4.3 27.2-7.3 40.9-10.3.5-.1 1.1-.2 1.6-.1s1 .5 1.1 1c.1.8-.7 1.3-1.4 1.6-12.1 6.1-25.7 9.4-39.3 9.4.4 2 .8 4 .8 6.1 0 2-.6 4.1-1.9 5.7-.7.9-1.9 1.6-3 1.2-.1-4.2-.1-8.6-.1-12.9z"/><path fill="#DBD7B6" d="M106.5 159.2s-5 87.5-4.6 88.1c.4.5 28.7 2.2 28.7 2.2s10.8-3.7 12.6-7.3c1.7-3.6.6-13.3.6-13.3l50.1-21s4.2 13 6.1 13.1c1.9.1.3-10.7.3-10.7s4-75.2-6.4-84.1c0 0-21.4.7-48 9.5-26.7 8.8-36.7 19.3-39.4 23.5z"/><path fill="#D3A36A" d="M133.3 172.4s-1.3 15.7 0 29.2 2.6 22 2.6 22l6.9 5.2 14.3 7.2s15.4-1.9 24-8.9 12.9-9.7 11.8-22.1c-1.1-12.4-2.6-39.7-4.4-43 0 0-14.6-2.1-31.4 1.5-16.8 3.7-23.8 8.9-23.8 8.9zM119.2 199.1s-6.9 1.7-5.4 6.5c1.5 4.9 7.6 5.5 9.2 3.1 1.7-2.4-3.8-9.6-3.8-9.6zM201 184v12s4-2 4-6.9-4-5.1-4-5.1z"/><path fill="#EAB978" d="M140 225.9c2.7 4.1 7.5 6.3 12.1 8.2 2.5 1.1 5 2.1 7.7 2.1 2.1-.1 4.1-.8 6-1.7 4.6-2 9.1-4.3 13.4-6.8 3.7-2.2 7.4-4.8 9.9-8.4 2.5-3.6 5.6-10.2 3.8-14.2-.9-2-.7-6.7-4-13-2.7-5.1-1.6-2-3.1-7.5-.2-.6-.4-1.3-.8-1.8-.5-.6-1.2-.8-2-1.1-13.4-4.4-30.8-.9-42.1 7.4-.9.7-1.8 1.4-2.3 2.3-.6 1-.6 2.3-.7 3.5-.2 5.5-.4 10-.6 15.5-.1 5.3-.2 11 2.7 15.5zM119.6 200.6c-.6.4-1.1.9-1.6 1.5-1 1.4-1 3.3 0 4.7 1 1.3 2.9 1.9 4.5 1.4.2-.1.4-.2.5-.3.2-.3.2-.7.1-1.1-.3-1.6-.7-3.3-1.2-4.9-.2-.7-.5-1.3-1.1-1.7-.6-.4-1.5-.4-1.8.2"/><path fill="#BA8F60" d="M132.7 191.5l.3-16.5c0-.9-.3-.9 0-1.7.7-1.8 3.3-2.5 5.1-3.2 14.7-6.1 30.4-9.8 46.3-8.6 1.3.1 2.7.3 3.8 1 1.1.8 1.6 2.4.8 3.5-16.5-.6-33 1.8-48.6 7.1l-2.3.7c-3 9.2-4.2 18.9-3.6 28.5l-1.8-10.8z"/><path fill="#F2EFC9" d="M137 164.1c-2.9 1-6.1 1-9.2 1h-9.1c-1.3 0-2.6 0-3.7-.5-2-.9-3-3.3-2.9-5.5.2-2.2 1.3-4.2 2.6-6 6.4-8.5 23.9-15.8 34.2-18.7 16.2-4.7 25.5-5.9 42.2-8 .6-.1 2.3-.5 2.8-.2.7.3.5 2.5.8 3.2 2.1 4.2 3.9 8.8 3.6 13.6-.3 4.7-3.1 9.6-7.6 10.9-3.4 1-7-.1-10.4-.8-12-2.4-24.8 0-35.2 6.5-2.6 1.6-5.1 3.5-8.1 4.5z"/><path fill="#AFAA84" d="M117.9 193.5c-1.4 2.2-2.5 4.5-3.2 7 1-.8 2.3-1.3 3.6-1.4.7-.1 1.6-.3 1.6-.9 0-.2-.1-.3-.2-.5-.6-1.3-1.2-2.6-1.9-4"/><path fill="#AFAA84" d="M142.3 228.8c-.3-.7-.8-1.2-1.3-1.7-1.3-1.2-2.6-2.5-4-3.7-.1 3.5.3 6.9.9 10.3-1 .9-2.4-.4-3.1-1.6-4.4-7.7-8.2-15.7-11.3-24-2.8 2.6-7.9 2.3-10.4-.7-.7 13 4.8 26.2 14.5 34.9 2.6 2.4 6.2 4.5 9.5 3.3 2.6-.9 4.1-3.6 4.7-6.3.5-2.7 1.2-4.5 1.5-7.3.1-.7-.7-2.5-1-3.2zM188.2 161.1s4.8 1.1 5.6 10.5c.9 9.4 2.2 35.3 6.2 48 0 0-7.2-8-7.9-22.6s-2.8-32.7-3.9-35.9zM133.3 172.4s-6.9 7.6-3.6 29.8c3.3 22.3 7.6 33.8 7.6 33.8s-2.9-19.6-3.7-32.1c-.9-12.4-.3-31.5-.3-31.5z"/><path fill="#F7F5E4" d="M183 153.8c-11.2-2.2-23-.7-33.3 4-1.7.8-3.3 1.6-4.9 2.6-4 2.3-8.2 5-12.8 4.7 5.4-1.4 10-5 14.9-7.8 12-6.7 26.9-7.9 39.8-3.2-1.3.2-2.5 0-3.7-.3z"/><path fill="#AE3A30" d="M134.7 247.4s-10.3 3.2-14.7 13.9c-4.4 10.7-5.3 36.2-5.3 41.2s-.2 17.5-.2 17.5-2 .8-1.9 4.5c.1 3.7.2 7.6 4.6 9 4.4 1.3 15.2-.5 17.3-1.8 0 0 5.3 3 21.9-2.9 11.2-3.5 22.2-8.3 22.2-8.3s-.5-1.8 8.2.8c3.2-.5 1.9-2.3 2.3-6.1.7-7-2.3-7.2-2.3-7.2v-25.1s.9-5.7 0-12.4.2-19.4-5.1-23.9c-5.2-4.4-8.4-6.4-8.4-6.4s-1.8-8-8.2-4.7l1 7.3s-3.4 2.9-12.3 3.8c-8.9.9-11.7-2.1-11.7-2.1s2.3-5 1.8-6.6c-.6-1.6-9.8.3-9.2 9.5z"/><path fill="#D3A36A" d="M158.8 235.9c-2.2-.3-4.1-1.4-6.1-2.5-2.7-1.4-5.3-2.7-8.1-3.8-.3-.1-.4-.4-.3-.6l-.6-.2-1.8 15.6s14.9 5.7 24-1.7l-1-7.2c-1.9.5-4 .7-6.1.4z"/><path fill="#BA8F60" d="M143.7 234.7l16.9 7.8 5-1.7-.5-5.2-7.3.8-15-7.5z"/><path fill="#C94343" d="M131.4 257.6c-.5-2.6 2.9-4.3 5.5-3.8s4.7 2.3 7.2 3.2c3.7 1.2 7.6.2 11.4-.8 5.8-1.5 11.6-2.8 17.4-3.9 1.6-.3 3.4-.6 4.8.3 1 .7 1.6 1.8 2.1 2.9 1.1 2.4 2.3 4.8 3.4 7.1.9 1.9 1.8 4 1.3 6.1-.9 3-4.5 4.2-7.5 4.9-9.6 2.2-19.3 4.3-29.1 5.2-.8.1-1.7.1-2.5-.2-1.4-.6-2.1-2.3-2.6-3.7-2-5.3-5.2-10.3-9.2-14.3-1-1-1.9-1.8-2.2-3z"/><path fill="#C1403A" d="M161.8 305c1.5-.3 3.1-.5 4.6-.6 2.5-.2 5.2-.1 7.3 1.1 2.6 1.5 4.1 4.5 4.5 7.5.4 3-.1 6-.7 9-10.7 2.9-21.4 6.2-31.8 9.9-1.1-5.7-.2-11.7 2.7-16.7 2.8-5.1 7.8-8.9 13.4-10.2z"/><path fill="#932F2A" d="M139.8 251.9s-3.8-2.4-10.1 0c-6.2 2.4-8.6 5.5-8.6 5.5s8.5-9.4 13.6-10.1l5.1 4.6zM171 245.1c.5.1 5.5.2 7.6-1.3l-6.4-3.6-1.2 4.9zM133.6 275.3s2.4 40.3 2.9 42.7c0 0 3.8 2.2 3.3 14.5 0 0-4.2-.2-4.4-.5-.2-.3 1.1-12-3.2-13 0 0 0-36.7 1.4-43.7zM182.3 287.7s-1.2 22.7 0 32.8L179 319s-.7-29.2 3.3-31.3z"/><path fill="#D3A36A" d="M113.9 331.1s-4.4 1.3-3.5 4.6c.9 3.3 4.6 9.5 5.7 10.6s4.2 4.1 8.1 1.4 3.8-4 3.8-4 4.1 1.5 5.3-3.2c1.2-4.6 0-8 0-8s-7.2 4.2-19.4-1.4z"/><path fill="#EAB978" d="M113.5 336.4c.3-.5 1-.7 1.6-.7s1.2.3 1.8.5c2.2.8 4.5 1.1 6.8 1 1-.1 2.3-.1 2.8.8s-.3 2-1 2.8c-.8.8-1.6 1.7-2.5 2.3-1 .6-2.2.9-3.3.6-.5-.1-1-.4-1.4-.7-1.7-1.1-3.1-2.4-4.3-3.9-.5-.8-1-1.9-.5-2.7z"/><path fill="#BA8F60" d="M129.5 340.9c.1-.1.1-.1.2-.1h.2c.9.1 1.6 1 1.6 1.9 0 .3-.1.7-.3.8-.2.1-.4.2-.6.2-.5.1-1.1.1-1.6-.1-.1 0-.1-.1-.2-.1v-.3c.1-.4.2-.9.3-1.3 0-.2.1-.4.1-.5.1-.3.2-.4.3-.5zM133.6 334.5v-1.3c0-.1 0-.3-.1-.4-.1-.2-.4-.2-.6-.1-.6.2-1.2.4-1.8.5-2.6.8-5.5 1.1-8.2.8-1.2-.1-2.4-.4-3.6-.6-2-.4-4.1-.8-5.9-2-.3.2-.5.5-.8.7 1.3 1.3 3.1 2.2 4.9 2.8 1.8.6 3.7.8 5.6 1 3.5.4 7.2.8 10.3-.9.1-.1.3-.2.3-.3-.1.1-.1 0-.1-.2zM187.3 323.2c.3 0 .6 0 .7-.3.1-.1 0-.3 0-.4 0-.4-.1-.9-.1-1.3-2.6.4-5.3-.1-7.7-1.4-.3-.2-.6-.3-.9-.4-.3-.1-.7 0-.9.3-.2.3-.1.7.1.9.2.3.5.4.8.6 2.6 1.3 5.3 1.8 8 2z"/><path fill="#D85555" d="M152 278.2c10.2-1.9 20.3-4.2 30.3-6.8-2.1 1.3-4.5 2.1-6.9 2.8-5.9 1.6-12 2.5-18 3.3-1.9.2-3.7.5-5.4.7z"/><path fill="#AFAA84" d="M157.2 342.7c.9.4 2.1.2 2.9-.5s1-1.9.8-2.9c-1.8.6-3.6 1-5.5 1 .3 1 .8 2 1.8 2.4z"/><path fill="#635653" d="M182.9 378.2s1.1 3.9-2.8 4.3c-3.9.4-7.8 1.6-11.9-1.2-4.1-2.8-8.2-3-9.5-7.4-1.3-4.4-2.2-5.4-2.2-5.4s.2-1.7 1.8.4 8.8 9.4 11.5 10.2c2.6.7 10.9.2 13.1-.9z"/><path fill="#F2C5B6" d="M157.8 368.3s2.4-.2 5.2-.7c2.8-.5 1.6-3.3 7.2-3.8s6.6 3.3 6.6 3.3.1 1 2.1 1.9c2 .9 3.1 2.4 3.8 4.7.7 2.4.7 5.2-2.9 5.8-3.6.6-5.8.8-9.3-.6-3.6-1.5-10.9-6-12.7-10.6z"/><path fill="#635653" d="M159.9 383.2s1.1 3.9-2.8 4.3c-3.9.4-7.8 1.6-11.9-1.2-4.1-2.8-8.2-3-9.5-7.4-1.3-4.4-2.2-5.4-2.2-5.4s.2-1.7 1.8.4 8.8 9.4 11.5 10.2c2.6.7 10.9.2 13.1-.9z"/><path fill="#F2C5B6" d="M134.8 373.3s2.4-.2 5.2-.7c2.8-.5 1.6-3.3 7.2-3.8s6.6 3.3 6.6 3.3.1 1 2.1 1.9c2 .9 3.1 2.4 3.8 4.7.7 2.4.7 5.2-2.9 5.8-3.6.6-5.8.8-9.3-.6-3.6-1.5-10.9-6-12.7-10.6z"/><path fill="#D3A99F" d="M135 372.4c-.2 1.5.8 3.1 2.2 3.7.6.2 1.3.3 2 .3s1.5 0 2.2-.1c.2-.4-.1-.8-.4-1.1-.5-.6-1-1.2-1.5-1.7-.1-.1-.2-.3-.4-.4-.2-.1-.5-.1-.8-.1-1.1 0-2.2-.2-3.3-.6zM161.5 372c.8 0 1.5-.1 2.2-.3.2 0 .4-.1.5-.3.1-.2 0-.5-.2-.8-.6-.8-1.1-1.6-1.7-2.4-.1-.2-.2-.3-.4-.4-.2-.2-.5-.2-.8-.2-.9-.1-1.8-.1-2.6-.2-.1 0-.2 0-.3.1-.1.1-.1.2-.1.3 0 1 .5 2 1 2.9.2.4.4.7.7 1 .5.2 1.1.3 1.7.3zM167.7 372.6c3-2.7 7.1-4.1 11.1-3.7-1.8-1.5-4.5-1.9-6.8-1.3-2.3.6-4.4 2-6.1 3.7-.2.2-.3.4-.3.6 0 .1.2.2.3.2.3.2.5.3.8.5.2.1.4.2.6.2.1.1.3 0 .4-.2zM151.8 372.5c-3.3.4-6.4 1.6-9.1 3.6-.2.1-.4.3-.5.6-.1.4.3.8.7 1 .4.2.9.2 1.2.5 3.5-2.4 7.6-3.7 11.8-3.8-.4-.8-1.1-1.5-1.9-1.7-.6-.4-1.4-.3-2.2-.2z"/><path fill="#AFAA84" d="M150.9 161.9l1.5 4.5-7.8 4.6s0-6.8 6.3-9.1zM174.2 158.9l-.6 3.5s6.4 2.2 7.7 3.9c0 0 1-6.9-7.1-7.4z"/><path fill="#fff" d="M150.9 180.9s-6.4 1.5-7.1 8.3-.9 16.6 8.3 16.9c9.2.3 9.5-9.1 9.7-12.2.2-3.1-.6-13.8-10.9-13zM179.2 178.7s-9 .1-8.8 13.2 9.7 13.8 13.9 10.4 5.3-12.7 4-16.1-4.4-7.4-9.1-7.5z"/><path fill="#E2E2E2" d="M144.6 187.2s4.6-4.2 11.2-5.2c0-.1-6.6-4.6-11.2 5.2zM183.9 184.4c1.9 2 3.8 4.6 4.7 7.5.2-2 .2-4.3-.6-6.2-1.6-4.2-5.9-8.5-12.6-5.6.1-.1 5.4 1 8.5 4.3z"/></g><g><path fill="#443A38" d="M159.8 381.9c0 7.7-11.1 5.2-15.2 3.3-4-1.9-11.3-7.1-9.4-12.4.3-.8-1-1.3-1.3-.6-3 6.6 6.3 13.1 11.5 15.1 3.7 1.4 8 2 11.9 1 3.9-1 4.3-2.5 3.9-6.4-.2-.8-1.4-.9-1.4 0z"/><path fill="#C18B5D" d="M185.8 181.1c1.2.1 2.2-1.2 1.9-2.4-.2-.7-1.4-.6-1.4.2 0 .5-.2.9-.7 1.1-.5.3-.5 1.1.2 1.1zM177.4 178.7c.8-.8.6-2.3-.3-2.9-.6-.5-1.4.6-.8 1.1.3.3.4.8.2 1.1-.4.6.4 1.2.9.7zM182.5 178.7c.8-.6.9-2.2.2-2.9-.5-.5-1.4 0-1.2.7.1.4.3 1 0 1.4-.4.7.5 1.2 1 .8zM157.8 181.9c.4-.5.9-1.2.8-1.9-.1-.9-1.3-.9-1.4 0 0 .4-.2.8-.4 1.2-.3.6.5 1.2 1 .7zM153.1 180.3c.6-.7.9-1.9.5-2.7-.4-.8-1.7-.1-1.2.7.1.2.1.9-.1 1.1-.6.6.2 1.5.8.9zM148.6 181.5c.1-.8 0-1.8-.6-2.4-.7-.7-1.8.4-1 1 .3.3.4.8.4 1.2-.1.8 1.1 1 1.2.2z"/><path fill="#B5897C" d="M158.6 376.6c3.5 8.2-6.4 8.2-11.5 6.3-2-.7-12.7-7.3-11.4-10 .3-.7-.6-1.3-1-.6-1.3 2.1 2.1 4.8 3.4 6 3.3 3.2 6.8 5.9 11.4 6.7 2.6.5 8.5.8 10.6-1.3 2-1.9.5-5.8-.6-7.8-.3-.5-1.2.1-.9.7z"/><path fill="#443A38" d="M182.8 376.9c0 7.7-11.1 5.2-15.2 3.3-4-1.9-11.3-7.1-9.4-12.4.3-.8-1-1.3-1.3-.6-3 6.6 6.3 13.1 11.5 15.1 3.7 1.4 8 2 11.9 1 3.9-1 4.3-2.5 3.9-6.4-.2-.8-1.4-.9-1.4 0z"/><path fill="#B5897C" d="M181.6 371.6c3.5 8.2-6.4 8.2-11.5 6.3-2-.7-12.7-7.3-11.4-10 .3-.7-.6-1.3-1-.6-1.3 2.1 2.1 4.8 3.4 6 3.3 3.2 6.8 5.9 11.4 6.7 2.6.5 8.5.8 10.6-1.3 2-1.9.5-5.8-.6-7.8-.3-.5-1.2.1-.9.7z"/><path fill="#A5764C" d="M176.5 325.7c.5.4.9.8 1.5 1 .2.1 1 .4.8.1.8.8.5 3.3.7 4.4.3 1.8 1.5 4.7 3.9 3.9 1.8-.6 2.5-3 2.9-4.6.5-2 1-4.3.8-6.4-.1-1.3-2.1-1.3-2 0 .1 1.6-.2 3.2-.5 4.7-.2 1-.7 4.1-1.9 4.4-1.5.4-1.6-5-1.8-6-.2-.7-.4-1.5-.9-1.9-.7-.5-1.5-.4-2.2-1-.9-.8-2.3.6-1.3 1.4zM180.8 334.4c-.5 2.5-.9 5 1.4 6.4.2.1.4.1.6-.1 5.1-4.7 6.6-14.3 5.6-20.8-.1-.6-1.1-.5-1.1.1.5 4.3-.2 8.5-1.3 12.6-.5 2-1.2 5.3-3 6.5-2.3 1.5-1.5-3.2-1.3-4.5.1-.6-.8-.8-.9-.2zM177.8 332.2c.5-1 1.1-2 1.8-2.9.7-.8 0-1.9-1-1.7-.6.1-1.3.1-1.9.2-1.3.2-.7 2.2.5 1.9.6-.1 1.3-.1 1.9-.2-.3-.6-.6-1.1-1-1.7-.9 1-1.6 2.1-2.2 3.3-.2.5-.1 1.1.4 1.4.6.3 1.3.2 1.5-.3zM180.3 333.8c-.6.6-1.9 1.8-2.8 1.4-1.2-.6-2.2 1.2-1 1.7 2 1 3.8-.3 5.3-1.7.9-.9-.6-2.3-1.5-1.4zM133.1 333.5c.1 2.6.5 10.6-4 9.4-.9-.3-1.3 1.1-.4 1.4 6 1.8 5.9-7.2 5.6-10.8 0-.8-1.2-.8-1.2 0zM128.4 340.7c-1.3 3.2-4.6 8.2-8.7 7.1-2.6-.7-4-3.7-5.1-5.9-.7-1.5-1.3-3.1-2-4.5-.3-.5-.8-1-1-1.5-.6-2.1 1.2-3.1 2.8-4.1 1.1-.7.1-2.4-1-1.7-2.3 1.5-4.8 3.4-3.7 6.4.4 1 1.1 2 1.6 3 .9 1.9 1.8 4 2.9 5.8 1.7 2.7 4.4 5.2 7.9 4.6 4.1-.7 7-5.1 8.4-8.6.3-1.2-1.7-1.8-2.1-.6z"/><path fill="#753121" d="M142.3 237.3c-3.9 0-7.5 2.6-8.2 6.5-.7 3.9 2 7.8 5.7 8.7.9.2 1.2-1.1.4-1.3-7.3-2.5-5.2-12.3 2.1-12.7.8 0 .8-1.2 0-1.2z"/><path fill="#A5764C" d="M142.1 228.3c0 5.4.5 10.7-1 16-.3 1.2 1.5 1.7 1.9.5 1.8-5.2 1.8-11.4.7-16.7-.1-1-1.6-.8-1.6.2z"/><path fill="#753121" d="M165.2 236c1.4-.4 4.2-.3 5.3.8 1.4 1.4 1.4 6.3 0 7.7-.6.7.4 1.7 1 1 1.1-1.1 1.3-2.6 1.3-4.2 0-1.7 0-3.9-1.1-5.3-1.4-1.8-4.9-1.9-6.9-1-.5.3-.1 1.2.4 1z"/><path fill="#A5764C" d="M119.2 198.4c-3.9.4-7.6 3.8-6 8 1.5 3.8 7.2 6.2 10.4 2.9.7-.7-.4-1.8-1.1-1.1-2.5 2.3-6.8.4-7.8-2.5-1.1-3.2 1.9-5.3 4.7-5.8.7-.2.6-1.6-.2-1.5zM200.7 184.8c2.9.1 3.9 3.2 3.4 5.6-.4 2-1.6 3.5-3.3 4.6-.8.5-.1 1.8.8 1.3 2.8-1.4 4.5-4.6 4.3-7.7-.2-2.7-2.1-5.4-5.1-5-.9.1-.9 1.1-.1 1.2zM136.9 224.1c5.6 5.3 12.5 9.6 19.8 12.3.7.3 1.1-.8.5-1.2-7-3.6-13.5-6.8-19.5-11.9-.6-.4-1.3.3-.8.8zM157.2 236.6c11.2-.1 22.1-6.3 30.5-13.4 5.7-4.9 5.1-12.1 6.2-19 .1-.9-1.3-1.3-1.4-.4-.8 5.6-.6 13.5-4.7 17.5-8.1 7.9-19.3 13.2-30.5 14.2-.8.1-.9 1.1-.1 1.1z"/><path fill="#93815A" d="M107 160.5c.8-4.1 6.2-7.3 9.3-9.5 2.8-2 5.6-3.8 8.6-5.5 6.6-3.8 13.6-6.8 20.8-9.3 15.3-5.2 31.3-7.7 47.3-9.6.9-.1 1-1.6 0-1.5-17.8 2.1-35.7 5-52.5 11.4-7.2 2.8-14.2 6.2-20.7 10.3-4.6 2.9-13.2 7.5-14 13.3-.2.9 1 1.2 1.2.4zM105.7 160.7c-1.1 29-3.1 57.7-5.5 86.6-.1.9 1.3.9 1.4 0 3.6-28.6 5.1-57.8 5.3-86.6.1-.9-1.2-.9-1.2 0zM101.2 248.4c9.3 2 19 2.6 28.5 1.8.9-.1.9-1.5 0-1.4-9.5.6-18.7.1-28.2-1.5-.7-.2-1.1 1-.3 1.1zM192.5 126.2c5.2 6.6 6.2 14.8 6.5 22.9.3 7.8.4 15.7.5 23.5.1 16.1-.4 32.2-.2 48.2 0 1 1.6 1 1.6 0 .5-17.9.5-36 .2-53.9-.2-13.4 1.7-30.6-7.7-41.6-.5-.5-1.4.3-.9.9zM187.5 161.7c2.7 11.4 2.6 23.1 3.8 34.7.9 8.6 2.3 18.4 8.3 25.1.6.7 1.5-.3 1-1-6.8-8.7-7.7-20.7-8.4-31.3-.6-9.3-1-18.7-3.6-27.7-.3-.8-1.3-.5-1.1.2zM179.9 161.8c2.6.1 5.1 0 7.6.4.9.2 1.4-1.3.4-1.5-2.7-.5-5.4-.5-8.2-.1-.6.2-.4 1.2.2 1.2zM152.2 165.3c7-1.4 14-2.2 21-2.9 1-.1 1-1.6 0-1.5-7.2.7-14.4 1.3-21.3 3.3-.7.3-.4 1.3.3 1.1zM133.3 173.1c4.1-2.1 8-4.3 12.4-5.7.9-.3.5-1.7-.4-1.5-4.5 1.4-8.7 3.5-12.6 6.2-.6.5 0 1.4.6 1zM132.4 172.6c-1.6 20.8.3 42 4.9 62.3.2 1 1.8.6 1.6-.4-4.3-20.5-5.8-41-5.2-61.9 0-.8-1.2-.7-1.3 0zM117.7 194c3 8.4 6.3 16.7 9.9 24.8 1.8 4 3.6 8.1 5.5 12.1 1.2 2.6 2.1 4.8 5 5.5.9.2 1.3-1.2.4-1.4-3.6-1-5.1-7-6.5-10-1.5-3.2-2.9-6.3-4.3-9.5-3.2-7.2-6.1-14.5-9-21.7-.2-.7-1.2-.5-1 .2z"/><path fill="#C18B5D" d="M143.2 188.1c-1 6.1-1.9 15 5 18 5.8 2.5 11.8-1.5 13.5-7.2 1.8-6.2 1.4-14.1-4.8-17.7-6-3.6-12.3.7-13.7 6.9-.1.7.9 1 1.1.3 2.2-6.7 10.1-9.7 14.8-3.1 2.9 4 2.6 10.1.6 14.5-2.9 6.4-11.9 7.8-14.9.7-1.5-3.6-.7-8.4-.5-12.2.1-.7-.9-.9-1.1-.2zM170.2 186.1c-1 6.1-1.9 15 5 18 5.8 2.5 11.8-1.5 13.5-7.2 1.8-6.2 1.4-14.1-4.8-17.7-6-3.6-12.3.7-13.7 6.9-.1.7.9 1 1.1.3 2.2-6.7 10.1-9.7 14.8-3.1 2.9 4 2.6 10.1.6 14.5-2.9 6.4-11.9 7.8-14.9.7-1.5-3.6-.7-8.4-.5-12.2.1-.7-.9-.9-1.1-.2z"/><path fill="#8E643A" d="M157.9 211.6c-.1 1.4.9 2.3 2.2 2.3 2.9.1 5.9-.6 8.6-1.6.9-.3.5-1.8-.4-1.4-1.3.5-9.1 3.1-9.1.7 0-.8-1.3-.8-1.3 0z"/><path fill="#A5764C" d="M164.1 235.5c.3 2.2.3 4.5.9 6.6.4 1.3 2.5.8 2.1-.6-.6-2-.7-4.2-1-6.3-.2-1-2.2-.8-2 .3z"/><path fill="#753121" d="M139.3 243.9c3.9 4.4 11.9 4 17.3 3.6 4.8-.3 10-2.6 11.7-7.4.3-.7-.9-1.2-1.2-.5-2.4 5.1-7.8 6.5-13 6.5-4.6 0-10.4.4-14-3-.5-.5-1.3.2-.8.8zM134.5 246.4c-5.9 2.9-12.1 5.7-14.9 12-2.7 6.1-3.7 13.1-4.5 19.7-1.7 14.1-1.8 28.7-1.1 42.9.1 1.3 2.1 1.3 2 0-.7-12.5-.5-25.2.6-37.7.5-6.5 1.4-13.2 3.2-19.5 1.4-4.8 3.1-8.3 7.3-11.2 2.6-1.8 5.5-3.1 8.4-4.5 1.1-.6.1-2.3-1-1.7zM181.3 257.9c1.8 5.1 4.2 10.3 5.5 15.6 1.1 4.5 0 7.8-3.1 11-1.5 1.5-2.8 2.7-3.7 4.7-1.6 3.7-1.2 8.5-1.3 12.5-.3 6.3-.6 12.6-.8 18.9 0 1 1.5 1 1.5 0 .3-6.3.5-12.6.8-18.9.1-3.3-.1-7.1.7-10.3.9-3.5 3.7-5.1 5.7-7.8 5.6-7.3-1.6-18.8-4.4-25.9-.2-.7-1.2-.5-.9.2zM172 240.1c5 3 11.2 6.9 12.3 12.9 1 5.2.8 10.8 1.2 16 .1.8 1.2.8 1.2 0-.3-5.8.7-14.1-1.9-19.4-2.3-4.7-7.8-8.2-12.4-10.4-.5-.2-.9.5-.4.9zM185.2 283.8c.2 8.2.3 16.3.5 24.5 0 1.3 2 1.3 2 0-.2-8.2-.3-16.3-.5-24.5 0-1.3-2-1.3-2 0zM114.6 319.5c-3.9-.6-3.1 7.8-2.5 9.8 1.3 4.8 7.7 5.2 11.9 5.4 3.6.2 10.7.3 11.7-4.2.5-2.2.3-7.1-.4-9.3-.5-1.5-1.1-2-2.6-2.1-.9-.1-.9 1.3 0 1.4 1.9.1 1.9 6.5 1.8 7.7-.6 4.7-4.9 5.2-8.9 5.2-2.6 0-5.5-.1-7.9-.9-3-1-4-3.2-4.4-5.9-.1-1 0-6 1.2-6 .6 0 .8-1 .1-1.1zM133.1 274.6c-2.1 15.7-2 32.1-1.5 47.9 0 .7 1.1.7 1.1 0 .8-16 .3-31.9 1.5-47.9 0-.7-1-.6-1.1 0zM114.4 326c-.1 2.4.7 4.7 2.3 6.5.4.4 1.1-.1.8-.6-1.1-1.8-1.8-3.8-2-5.8.1-.8-1-.9-1.1-.1zM117.9 329.1c.2 1.6.6 3.4 1.5 4.7.4.6 1.6.2 1.3-.5-.6-1.5-1.2-2.8-1.6-4.3-.2-.6-1.3-.6-1.2.1zM178.8 320c2.5.4 5 2.4 7.6 2 2.2-.3 3-1.8 3.2-3.8.2-1.8.2-3.7.1-5.4 0-1.3.1-3-.4-4.2-.9-2.2-3-1-4.7-.5-.9.3-.5 1.7.4 1.4 1.3-.4 2.1-1 3 .8.3.6.2 1.8.2 2.5.1 1.5.5 4 0 5.4-1.6 4.5-6.2.7-9.3.5-.6 0-.8 1.2-.1 1.3zM184.8 317c-.1 1.3-.3 2.7-.4 4-.1.7 1.1.9 1.3.2.3-1.3.3-2.8.2-4.2 0-.7-1-.7-1.1 0z"/><path fill="#93815A" d="M162.6 366.6c-1.8.1-3.5 0-5.3-.1-1.3-.1-1.3 1.9 0 2 1.8.1 3.5.2 5.3.1 1.3-.1 1.3-2.1 0-2zM175.6 323c.4 13.7.4 27.4-1.3 41-.2 1.3 1.8 1.3 2 0 1.7-13.7 1.7-27.3 1.3-41-.1-1.3-2.1-1.3-2 0z"/><path fill="#753121" d="M134.3 332.3c3.2 1.2 6.2 1 9.5.1 4.6-1.1 9.3-2 13.9-3.2 4.5-1.2 8.9-2.8 13.4-4.3 2.6-.9 6.3-1.3 7.8-3.8.5-.8-.7-1.4-1.2-.7-1.5 2.1-7.3 3.1-9.6 3.9-3.6 1.2-7.2 2.5-10.8 3.5-3.3.9-6.7 1.3-9.9 2.2-4.3 1.2-8.3 2.8-12.8 1.2-.7-.4-1 .8-.3 1.1z"/><path fill="#93815A" d="M140 372c-3.9-.2-6.8-.5-7.6-4.8-.5-2.5.1-5.6 0-8.1-.1-5.2-.1-10.3 0-15.5 0-.9-1.4-.9-1.4 0 0 7.9 0 15.7-.1 23.6 0 1.7-.5 3.2.8 4.4 1.9 1.7 5.8 1.8 8.2 1.8.9 0 .9-1.3.1-1.4zM156.9 340.7c-.1 4.8-.3 9.6-.6 14.3-.3 4.3 1.3 12.6-3.7 14.3-.8.3-.5 1.6.4 1.3 5.4-1.9 4-2.9 4.3-8.7.4-7.1 1.2-14.2 1-21.3 0-.8-1.4-.8-1.4.1zM154.6 340.3c2.1 1.1 4.1.7 6.1-.4.8-.4.1-1.6-.7-1.2-1.6.8-3.1 1.5-4.9.7-.6-.3-1.2.6-.5.9z"/><path fill="#B5897C" d="M162.6 369c3.6-3.3 7.2-6 12.3-3.7.9.4 1.6-.9.7-1.3-5.3-2.5-10.4-.2-13.9 4.2-.4.5.3 1.3.9.8zM161.9 369.2c.9 1.1 1.9 2.2 2.9 3.1.3.3.7.2.9-.1 2.5-3.6 7.2-4.3 11.2-4.1.5 0 .8-.5.7-1-.3-1.5-.9-2.3-2.1-3.2-.6-.5-1.5.6-.9 1.1.9.6 1.4 1.4 1.5 2.5.2-.3.5-.6.7-1-4.9 0-8.9 1.2-12.2 4.9h.9c-1-1-2-2-3-3.1-.3-.4-1 .4-.6.9zM176.9 368.4c1.1.6 4.9 3 4.8 4.1-.3 2.2-3.5 1.9-5.1 1.9-3.3.1-8.4-1.1-11-3.1-.7-.5-1.6.7-.9 1.2 2.4 1.9 5.7 2.5 8.6 3.2 2.4.6 5.2.4 7.5-.2 1.9-.5 2.9-1.4 2.4-3.5-.6-2.6-3.5-3.8-5.7-4.7-.6-.3-1.3.7-.6 1.1zM139.6 374c3.6-3.3 7.2-6 12.3-3.7.9.4 1.6-.9.7-1.3-5.3-2.5-10.4-.2-13.9 4.2-.4.5.3 1.3.9.8zM138.9 374.2c.9 1.1 1.9 2.2 2.9 3.1.3.3.7.2.9-.1 2.5-3.6 7.2-4.3 11.2-4.1.5 0 .8-.5.7-1-.3-1.5-.9-2.3-2.1-3.2-.6-.5-1.5.6-.9 1.1.9.6 1.4 1.4 1.5 2.5.2-.3.5-.6.7-1-4.9 0-8.9 1.2-12.2 4.9h.9c-1-1-2-2-3-3.1-.3-.4-1 .4-.6.9zM153.9 373.4c1.1.6 4.9 3 4.8 4.1-.3 2.2-3.5 1.9-5.1 1.9-3.3.1-8.4-1.1-11-3.1-.7-.5-1.6.7-.9 1.2 2.4 1.9 5.7 2.5 8.6 3.2 2.4.6 5.2.4 7.5-.2 1.9-.5 2.9-1.4 2.4-3.5-.6-2.6-3.5-3.8-5.7-4.7-.6-.3-1.3.7-.6 1.1z"/><path fill="#93815A" d="M173.5 158.5c-.3 1.4-.4 2.8-.5 4.2 0 .3.3.6.6.6 3.6 0 6.2 2.2 8.4 4.8.3.4 1.1.1 1.1-.4-.2-2.5-1-4.9-2.8-6.9-1.5-1.7-4.1-3.4-6.5-2.7-.8.2-.4 1.4.3 1.2 2.1-.5 4.4 1.5 5.6 3 1.2 1.6 1.9 3.4 2 5.4.4-.1.7-.3 1.1-.4-2.3-2.9-5.4-5.1-9.3-5l.6.6c.1-1.4.3-2.7.3-4.1.2-.7-.8-.8-.9-.3zM150.3 162.3c1.2 1.2 1.3 3 1.6 4.5.1-.2.3-.5.4-.7-3.2.7-7.1 3.3-8.5 6.4.4.1.7.2 1.1.3-.1-4.3 2.3-8.2 6.1-10.3.7-.4.1-1.5-.6-1.1-4.2 2.3-6.6 6.6-6.6 11.4 0 .5.8.8 1.1.3 1.3-2.7 4.9-5.1 7.8-5.8.3-.1.5-.4.4-.7-.5-1.8-.6-3.7-2-5-.6-.5-1.3.2-.8.7z"/><path fill="#8E643A" d="M184 198.6c-.1.3-.3.6-.3.9s.1.7.4.8c.3.1.6 0 .8-.1s.4-.4.5-.7c.1-.3.2-.6.2-.9 0-.4-.1-.8-.4-1s-.9-.1-.9.3"/><path fill="#8E643A" d="M183.4 198.2c-.5.9-.7 2.1.3 2.7 1.1.6 2.1-.4 2.4-1.4.3-.9.4-2.3-.6-2.8-.9-.5-2 0-2.1 1.1-.1.9 1.4 1.1 1.6.2 0 .1-.1.1-.1.2h-.2c-.1-.1-.1-.1-.1 0v.1c0 .3 0 .6-.1.9 0 .1-.2.4-.2.4-.1-.1.2-.7.2-.8.4-.8-.8-1.3-1.1-.6zM158 200.6c-.2.2-.1.7.1.8.3.2.6.1.9-.1.2-.2.4-.5.5-.8.1-.6.1-1.3-.2-1.8-.1-.1-.2-.3-.3-.3-.1 0-.2.1-.3.1-.6.5-.9 1.3-.9 2.1"/><path fill="#8E643A" d="M157.5 200.2c-.7.8-.2 2.1.9 2.1 1.3 0 1.8-1.3 1.9-2.4 0-.9-.4-2.8-1.8-2.2-1 .4-1.6 1.9-1.5 3 0 .8 1.3 1.1 1.5.2.1-.4.2-.7.3-1.1.1-.1.1-.3.2-.4.2-.3.5-.3-.1-.3-.5 0-.3 0-.2.4 0 .2.1.4 0 .6 0 .2 0 .4-.2.6l-.1.1c-.1 0-.1.1 0 .2.5-.7-.4-1.4-.9-.8z"/></g><g><ellipse fill="#338AB6" cx="375" cy="437.3" rx="49.4" ry="25.3"/><path fill="#C69C85" d="M381.4 328.2l.2 40.1s5.2 3.3 9.2.2c3.9-3 20.2-12.8 32.6-12.4 0 0 4.5-10.3.1-33.8 0 0-3-5.3-11.5-7.6s-26.5 7.3-30.6 13.5z"/><path fill="#D3AA97" d="M390.1 329.4l-.7 38.4s-5.7 2-6.5 0c-.9-2-3.7-37.1-1.2-38.6s6.6-.9 8.4.2z"/><path fill="#DACDBC" d="M355 395s-3.9 3.2-.5 14.1c0 0 .2 5.9-2.7 7.2-2.9 1.3-3.7 2.6-.4 8.1 3 4.9 9.8 13.2 17.6 8.5 7.8-4.7 8.4-7.8 8.4-7.8s13.1 5.4 15.9 1.3c2.8-4.1 7.4-23.2 5.4-34.2l-15.7.2v-3.7l-9.8-.4s.3 4.7-2.4 5.1c-2.7.5-15.8 1.6-15.8 1.6z"/><path fill="#E5DCD1" d="M376.1 421.7c.3-.2.4-.6.5-.9 1.7-4.9 1.7-10.2.2-15.2-.4-1.2-.8-2.4-.9-3.6 0-1.2.5-2.6 1.6-3.1 1.3-.6 2.8.1 3.7 1.2.8 1.1 1.1 2.6 1.1 4 .1 1.7 0 3.3-.2 5-.2 1.3-.4 2.5-.1 3.8.6 2.1 2.8 3.3 5 3.4.9 0 1.9-.1 2.7-.5 2-1 3.1-3.2 3.6-5.4 1.3-5.4-.1-11-1.4-16.3-.1-.3-.2-.6-.4-.9-.4-.4-.9-.4-1.5-.4h-7.2c-.4 0-.9 0-1.2-.4-.2-.2-.2-.5-.2-.8-.1-1-.2-2.1-.2-3.1h-8c-.4 0-.9 0-1.2.4-.2.3-.1.7 0 1.1.5 2.1-1.3 4.4-3.4 4.3 2.4.1 4.8 1.1 6.6 2.8-2.9-.2-6-.3-8.7.9-1.1.5-2.2 1.2-2.8 2.3-.9 1.6-.5 3.5-.5 5.3.1 2.5.6 4.1-.5 6.3-.2.5-.5 1-.5 1.6.1.8.9 1.4 1.6 1.8 2.7 1.3 4.8 2.6 7.2 4.4 1.1.9 2.1 2.1 3.5 2.3.9 0 1.3 0 1.6-.3z"/><path fill="#BAAC9D" d="M398.5 392.4c-2.7.3-5.3.5-8 .8-1.5.1-2.9.3-4.4.3-1.2 0-2.5 0-3.6-.6-.2-.1-.5-.2-.6-.5-.1-.2-.1-.5-.1-.7v-2.6c-2.2.3-4.5.2-6.7-.3-.7-.1-1.4-.2-1.9.2-.3.3-.4.9-.5 1.3-.2 1.4-.9 2.8-2.1 3.5-.8.5-1.7.7-2.6.9-1.1.2-2.3.5-3.4.7v-.5c0-.1 0-.1-.1-.2h-.2c-2.9.2-5.9.3-8.8.3-.1 0-.3 0-.4.1-.1.1-.2.2-.2.3-.1.3-.2.5-.3.8.2 0 .4.1.6.1 1.3 1 3.1 1.1 4.8 1.1 1.7 0 3.5.1 5.2.1 3.4.1 6.8.1 10.1-.6-.1-1.6-.1-3.2 0-4.8 0-.2 0-.4.2-.5.1-.1.2-.1.3-.1 1.1-.1 2.3-.1 3.4-.2.2 0 .5 0 .6.2.1.1.1.3.1.5 0 .8 0 1.7-.2 2.5 0 .2-.1.4 0 .6.1.2.4.3.6.3 5.9 1.6 12.2 1.5 18.1-.1.2-.9.3-1.9.1-2.9z"/><path fill="#F4C09D" d="M348.3 270.3s-3.9.7-5.9-5.3c-1.9-6 .2-7.7.2-7.7s-6.8-17.1 2.3-39c9.1-22 16.1-24.6 32.9-24.9 16.7-.2 31.4 5.3 35.6 24.9 4.2 19.6 3.6 28.5 3.6 28.5s7-2.5 7.3 5.1-6.5 8.1-6.5 8.1l-1.7 16s-7.6 13.1-26.2 14.7c-18.6 1.6-26.8 1-35.1-9.4-5.1-10.7-6.5-11-6.5-11z"/><path fill="#FFD0B0" d="M411.6 242.6c.8.9 1.4 2 1.8 3.2 3.2 8.2 3.4 17.2 3.6 26 0 1.2 0 2.4-.4 3.5s-1.2 2-2 2.9c-2.5 2.8-5.1 5.6-8.3 7.6-2.6 1.6-5.6 2.5-8.5 3.3-9 2.3-18.4 2.9-27.6 1.7-.9-.1-1.8-.3-2.5-.8-.9-.7-1.2-1.9-1.4-2.9-2.3-10.5-3.6-21.2-3.9-31.9-.1-1.9 0-4 1-5.6.9-1.5 2.6-2.3 4.2-3.1 9-4.3 18.9-6.7 28.9-7.2 4.1-.2 8.4 0 12.2 1.5 1 .4 2.1 1 2.9 1.8z"/><path fill="#F4C09D" d="M369 249.1s1.1 13.2 9.1 11.3c8-1.8 4.8-15.1 4.8-15.1s-8.7-1-13.9 3.8zM396.5 244.3s-1.7 11.8 5.5 12.8c7.2.9 7.3-11.8 7.3-11.8s-4-2.8-12.8-1z"/><path fill="#FFD0B0" d="M369 249.1s-4.5-12.7 3.9-13.9c8.4-1.2 10.1 10.2 10.1 10.2s-8.8-1-14 3.7zM396.5 243.7s.8-11.6 5.5-11c4.8.6 7.6 9.9 7.3 12.6 0 0-4.1-3-12.9-1"/><path fill="#fff" d="M374.7 267.6c.2 0 19.1 3.5 27.2-2.3 0 0-.3 11.2-5.2 14.2-4.8 3-19.2-.6-21.5-3.5-2.1-2.9-.5-8.4-.5-8.4z"/><path fill="#E2AF8D" d="M341.8 257.1s5.3-4.7 7.9 1.9c2.5 6.6 3.6 6.3 3.6 6.3l3.1-1.5s-7.9-28.3 2.1-42.8c10-14.5 40.4-20.7 54.3-5.4 0 0-3.1-22.6-33.2-22.1-30.1.4-37.6 23.9-38.5 40.4-1 16.4.7 23.2.7 23.2z"/><path fill="#E0AA86" d="M368.3 291.1s-.1 5.8-6.2 7.7c0 0 .9 2.2 4.4 7.5s4.8 7.4 4.8 7.4 12.3 3.8 23.1-.9c0 0 1.2-14.1.5-15.5-.7-1.4-6.3-.4-6.1-6.1l-20.5-.1z"/><path fill="#F4C09D" d="M364.5 298.4c9.7 3.8 20.6 3.3 30.8.9 0 0 .3 12-1.5 14.2-1.8 2.1-18.2 2.6-22.4.3l-10-14.4c-.1-.1 1.5-1.6 3.1-1z"/><path fill="#416A93" d="M361.3 299.3s10 12.1 12.3 18.7c2.2 6.5 4.5 15.4 4.5 15.4s-10.2 11.3-1 25.9c0 0-2.3 2-3.7 2.9l-.5 26.2s1.5 4.8-4.6 5.7c-6.1.9-17.4.3-20.3-.9 0 0 6.8-12.8 4.9-34 0 0-12.1-1.6-20-6.7 0 0-.4-33.1 19.2-48.2 0 0 6.6-5.9 9.2-5zM394.9 297.3s2.3 13.3-2.9 22.1c0 0 14.5-5.5 20-4.7-.1.1-2.5-18.2-17.1-17.4zM382.8 368.8l-1.2 23.5s17.8 2 19.1-.8c1.3-2.7 2.2-14.3 2.1-15.4-.1-1.2-.1-14.2-.1-14.2s-5.8 2.4-10.7 5.5c-4.8 3-9.2 1.4-9.2 1.4z"/><path fill="#D3D3D3" d="M372 314.5s5.3 11.2 4.8 18.8l4.1-1.8s-1.4-5.6 11-12l2.4-6.6c.1-.1-10.8 5.5-22.3 1.6zM377.2 359.4l-3.8 3.2-.6 26.4h8.7l1.3-20-.7-7.8z"/><path fill="#F4C09D" d="M380.9 331.5s-4.6 1.2-7.4 10.2c-2.8 9 0 16.1 4.3 17.8 4.3 1.7 13.4 1.3 16.6-2.2 3.2-3.5 2.6-7.5 2.6-7.5s2.3-5.8-.9-8.1c0 0 2-3.7 1.1-5.2s-3.6-1.1-7.2.1-6.5 1.3-9.1 0v-5.1zM419.8 329.8s-3.8.2-2.8 3.5 1.3 2.1 1.3 2.1-2.6 3.1-.6 4.6c2 1.4 6.1 3.4 6.1 3.4s-2.8 3-2 4.6c.8 1.5 5.1 2.1 7.2 0 2-2.1 5-5.8.5-8.4 0 0 .5-3.2-2.3-4.5 0 0 .1-4.3-2-5.6-2.1-1.5-5.4.3-5.4.3z"/><path fill="#EAEAEA" d="M375 320.5c4.9 1.5 10.3 1.5 15.2-.1.5-.2 1-.3 1.3-.6.5-.4.9-1.1 1.1-1.8.6-1.4 1-2.9 1.2-4.5-1.8.1-3.5.8-5.2 1.3-4.9 1.3-10.2.9-15.1-.4-.2-.1-.5-.1-.8-.1-.7.1-.9 1.2-.4 1.6M373.1 382.1c-.1.1 0 .2.1.2 1.6.7 3.4-.4 4.8-1.6 1.3-1.2 2.8-2.6 4.6-2.5-.1 3.5-.4 7-.7 10.5-2.9.6-6 .5-8.9-.4"/><path fill="#375D7C" d="M353.2 306.2c-.1 1.8.6 3.6 1.3 5.3 1.1 2.7 2.2 5.4 3.4 8 .3.8.7 1.5 1.3 2.2 1.3 1.4 3.5 1.8 5 3 1.7 1.4 2.3 3.8 3.1 5.9.4 1.1.9 2.2 1.8 2.8 1.5 1 3.5.3 5.1-.4-.2-.7-.9-1.1-1.5-1.5-1.3-.9-2.4-2.3-3.1-3.8-.6-1.4-.9-3.1-1.9-4.2-1.2-1.4-3.2-1.8-4.8-2.8-1.5-.9-2.7-2.4-3.8-3.9-1.2-1.5-2.3-3-3.5-4.6-1.3-1.8-2.7-3.8-2.4-6zM404.8 303.3c.4 3.7.1 7.4-.8 11-.1.3-.2.6-.4.7-.2.1-.3.1-.5.1-1.4.2-2.8.6-4.1 1.2 1.3-2.8 2.7-5.7 4-8.5.8-1.4 1.5-2.9 1.8-4.5zM373 361.5c-1.1.1-2.1.5-3.1.4-1.2-.1-2.2-.9-3-1.8-.7-1-1.1-2.1-1.6-3.2-2.6 1.4-5.5 2.2-8.4 2.4-1.1.1-2.2.1-3.1.6-.9.5-1.5 1.8-1 2.7 3.3.8 6.9.3 10-1.1 1.9 3.9 6.8 6.1 11.1 5-.1-1.5-.2-2.9-.3-4.4 0-.2 0-.4-.2-.5-.1-.1-.3-.1-.4-.1zM382.7 377.9c.1-3.1.1-6.2 0-9.3 1.9.5 4 .6 5.9.2 5.2-1.1 9.3-5.2 14.5-6.3.5.3-.1 1-.6 1.3-4.1 2.1-6 6.9-9.3 10.1-2.8 2.5-6.6 4.1-10.5 4z"/><path fill="#B7B7B7" d="M378.3 359.2c-.3-.1-.6-.2-.9-.1-.3 0-.6.2-.9.4l-1.8 1.2c-.2.1-.5.3-.6.5-.2.3-.2.6-.2.9 0 1.3-.8 3.4-.7 4.8 2.4-.1 5.8-1.3 8-2.1l.6-.3c.1-.2.1-.4.2-.5.1-1 .1-2 .1-3 0-.2 0-.3-.1-.5s-.3-.2-.5-.3c-1-.4-2.1-.7-3.2-1z"/><path fill="#507EA5" d="M357.7 304.9c-.2 1 0 2.1.2 3.2.4 1.8.8 3.8 2.2 5.1 2 2 5.4 1.8 7.6 3.5 1.8 1.4 2.5 3.8 3.3 6s2.3 4.4 4.6 4.8c.2 0 .5 0 .7-.2.1-.2.1-.4.1-.6-.1-2.4-.6-4.7-1.6-6.9-.5-1-1-1.9-1.6-2.9-1.1-1.9-2.1-3.7-3.2-5.6-1.7-2.9-3.4-5.8-5.7-8.1-.7-.7-1.4-1.3-1.8-2.1-2.1.3-4.3 1.7-4.8 3.8zM396.8 301.6c.8 0 1.6 0 2.3.3.8.2 1.5.8 1.7 1.5.3.8.1 1.6-.1 2.4-1 3.8-2.5 7.6-4.3 11.1-.1.2-.2.4-.4.6-.3.2-.6.3-.9.4-1.1.3-2.2.7-3.1 1.4 2-5.1 3.1-10.6 3.3-16.1 0-.5.1-1.1.5-1.3.3-.3.7-.3 1-.3zM375.8 337c.3-.4.6-.8.7-1.2.2-1-.8-1.9-1.8-2.2-3-1-6.4 1-8.2 3.5-.2.2-.3.5-.6.6-.4.2-.8 0-1.1-.1-6.6-2.2-11.5-.9-18.3 2.3-1 .5-3.6 1.4-4.1 2.4s-.6 2.3.2 3.1c.4.4 1 .7 1.6.8 4.3 1.2 8.8-.4 13.2-.5 1.4 0 2.8.1 4.2-.2 1.4-.3 2.7-1.1 3.3-2.4-.3 1.4.5 2.8 1.7 3.6 1.2.8 2.6 1 4.1.9.5 0 1.1-.1 1.5-.6.3-.4.3-.9.4-1.4.1-3 1.3-6.1 3.2-8.6zM370.8 386.4c.2-.9.4-1.8.4-2.7 0-.3-.1-.5-.2-.7-.2-.2-.4-.3-.6-.3-2.5-.7-5.4-.2-7.5 1.3-2.4 1.6-4.2 4.4-7.1 4.6-.7.1-1.6 0-2.1.5s-.4 1.3 0 1.8 1 .8 1.6 1.1c2.5 1 5.3 1.2 8 1 2.1-.2 4.3-.7 5.7-2.3 1-1.2 1.4-2.8 1.8-4.3zM383.7 384.8c.2-.8.6-1.7 1.4-1.9.3-.1.7 0 1 .1 1.4.4 2.5 1.6 3.8 2.2 1.6.8 3.4.7 5.1.7.8 0 1.6 0 2.4.3s1.2 1.3.9 2c-.2.4-.6.7-1.1.9-2.8 1.5-5.9 2.3-9 2.4-.6 0-1.2 0-1.8-.2-1.2-.4-2.2-1.5-2.6-2.7-.4-1.3-.4-2.6-.1-3.8z"/><path fill="#6395BA" d="M359.2 311.7c.4.7 1.2 1.2 2 1.5 1.4.5 3 1.9 4.4 2.3s2.8.9 3.7 2.1c.6.7.7.5 1 1.4.6 1.7 1.2 3.5 1.7 5.2-.9-2.5-2-5.1-4.3-6.5-1.2-.8-2.7-1-4-1.6-1.9-1-3.6-2.5-4.5-4.4zM397.9 312.9c-.3.5-.5.9-.9 1.4-.2.3-.5.6-.7.9-.7.8-1.2 1.8-1.7 2.8.4 0 .7-.1 1.1-.2.2 0 .4-.1.5-.2.1-.1.2-.2.2-.3 1.1-2.2 2-4.4 2.8-6.7-.4.8-.9 1.5-1.3 2.3zM366.3 382.5c-2.1-.3-4.1 1-5.8 2.3-1.6 1.4-3.2 3-5.2 3.7 2.1.2 4-1.3 5.6-2.7 1.6-1.4 3.3-3 5.4-3.3zM391.9 385.4c-.7-.1-1.4-.4-2.1-.7-.7-.3-1.4-.6-2-1 1 1 2 1.9 3.4 2.2 1.4.3 3.1 0 4.5 0-.8.1-1.6-.2-2.4-.3-.5-.1-1-.1-1.4-.2zM364.8 343.1c-.1.8.2 1.6.7 2.1.5.6 1.2 1 1.9 1.3 1.4.7 3.2.9 4.4 0 .3.4.1 1-.3 1.3-.4.3-.9.3-1.4.3-2.5-.1-5-1.7-5.6-4.1-.3.7-.9 1.3-1.7 1.6-.7.3-1.5.4-2.3.4-2.3.1-4.6.1-6.9-.1 1.2-.2 2.4-.3 3.6-.3 1.1 0 2.2.1 3.2 0 1.8-.2 3.4-1.1 4.4-2.5z"/><path fill="#DBDBDB" d="M373.8 271.5s4.9 1.7 8.3 1.4c0 0-3.5 1.5-7.9 1.2 0-.1-.2-.9-.4-2.6z"/><path fill="#635653" d="M375 429.5l26.9 10s-.7 6.8-11 4.7c-10.3-2-16.5-11.8-16.8-13.1l.9-1.6zM350 428.1s-.3 14 3.8 18.6c5.7 6.2 11.8 1.1 13.3-.6s-13.3-20.1-17.1-18z"/><path fill="#D3D3D3" d="M352.4 426.5s-1.9.4-1.1 3.2 2.7 12 2.7 12 3.6 7.7 8.4 6 8.7-1.3 9.3-7.4c.6-6.1 3-10.8.4-11.3s-7.2 1.3-11.1.1-4.3-.1-4.3-.1l-4.3-2.5zM377.5 425.1l-2.4 4.4s4.9 7.6 12.9 10.2 13.7.8 13.7-1.6c0-2.4 1.1-7.1-6.3-9.8 0 0-.6-5.9-8-4.3-7.4 1.6-5.3 3-5.3 3l-4.6-1.9z"/><path fill="#D3AA97" d="M420.7 318.6c.4.4-22.7 2.2-29.7 10.3l-9.9-.1s1.6-4.5 12-9.5c10.4-5.1 21.6-6.6 27.6-.7z"/><path fill="#D1D1D1" d="M378 216v8.4s-8.8.3-14.1 6.9c0 0-.9-15.2 14.1-15.3zM397.3 213.1l.2 8s10.8 2 12.5 4.1c0 0-2.1-14.2-12.7-12.1z"/></g><g><path fill="#EFE0BD" d="M398.2 344.9c6.1-2.1 12.7-2 18.8-4.1.9-.3.5-1.6-.4-1.4-6.2 1.6-12.9 1.7-18.8 4.1-.8.4-.5 1.7.4 1.4z"/><path fill="#E5C1B3" d="M388.5 360.6c-.3 2.1-.7 7.3 2.3 7.8.9.1 1.2-1 .4-1.3-1.8-.8-1.4-4.8-1.3-6.4.1-1-1.3-.9-1.4-.1z"/><path fill="#A5897C" d="M413.3 315.9c3.4.9 5.8 2.5 8.6 4.6.7.5 1.5-.3.9-.9-2.2-2.7-5.9-4.3-9.2-4.9-.7-.2-1.1 1-.3 1.2z"/><path fill="#A39686" d="M354.4 395.3c-3.7 3-2.4 9.9-.9 13.7.3.9 1.7.5 1.4-.4-1.1-3.5-2.6-9.4.4-12.5.5-.5-.3-1.3-.9-.8zM395 425.8c.9-1.6 1.2-2.9 1.5-4.7.6-3.8 1.5-7.6 2.2-11.4 1-5.7 1.2-11.5.8-17.3-.1-1-1.6-1-1.5 0 .5 5.7.4 11.3-.6 16.9-.4 2.4-1.1 4.8-1.6 7.2-.6 2.8-.5 6-1.8 8.6-.4.8.6 1.4 1 .7z"/><path fill="#878787" d="M369 444.4c-2.5 3.4-6.9 4.2-10.5 2.2-2.8-1.6-4-4.4-4.6-7.5-.2-.9-2.1-11.8-1.7-12.2.7-.5-.2-1.6-.9-1.2-2.7 1.5.1 5.6.4 7.9.4 3.8.5 7.7 2.6 11.1 3.6 5.8 12.1 6.1 15.8.3.5-.7-.6-1.3-1.1-.6z"/><path fill="#443A38" d="M367.8 445.7c-3 2.5-6.5 4.7-10.4 3.2-3.3-1.3-5.1-4.6-6-7.9-.2-.7-2-14.7-.2-14.4 1 .2 1.4-1.4.4-1.5-2.5-.4-3.1 1.2-3.3 3.4-.2 2.3.5 5.8.8 8.3.2 2.6.7 5.2 1.8 7.5 3.7 8.2 12 8.2 17.9 2.4.5-.6-.4-1.5-1-1z"/><path fill="#878787" d="M372.7 388.8c3 .9 6.1.9 9.1.2.8-.2.5-1.4-.3-1.2-2.8.7-5.6.7-8.5.1-.7-.2-.9.7-.3.9z"/><path fill="#31526D" d="M382.2 368.8c-.1 8-.6 15.9-1.5 23.9 0 .3.2.6.5.6 4.8.8 9.6.2 14.5-.3 2.3-.2 5.1.1 6.5-2.2 1.8-3.1 1-8.8 1.2-12.2.3-5.6.4-11.2.1-16.8 0-.9-1.4-.9-1.4 0 0 5.6 0 11.2-.2 16.8-.1 2.7.2 5.8-.4 8.4-.5 2.3-1.3 3.7-3.4 4.3-1.6.5-3.8.4-5.4.5-2.3.2-5.3 1-7.6.5-4.1-.8-2.6-3.1-2.3-6.2.5-5.8.8-11.7.6-17.5 0-.5-1.2-.5-1.2.2z"/><path fill="#878787" d="M371.1 314.3c7.4 2.7 15.4 2.5 22.8-.1.9-.3.5-1.8-.4-1.5-7.4 2.6-14.6 2.5-22 .4-.8-.3-1.1.9-.4 1.2z"/><path fill="#AD846F" d="M415.5 275.6c-8.5 11.7-20.7 14.5-34.5 14.7-6.2.1-13.4.4-18.9-3-5.8-3.7-10.3-10.8-11.7-17.5-.2-1-1.7-.6-1.5.4 1.2 6.4 5.2 13 10.3 17.2 5.7 4.6 13.1 4.8 20.1 4.8 14.8-.1 28.9-2.6 37.6-15.8.5-.9-.8-1.6-1.4-.8zM342.4 256.9c-3.2-9.4-1.2-21.9.8-31.4 2.1-10.1 6.7-20.2 15.5-26.2 8.8-6.1 20.8-5.9 30.9-4.1 4.9.9 9.9 2.6 13.6 5.9 4.4 4 6.5 9.6 8.5 15 .3.9 1.7.5 1.4-.4-3.6-10.2-8.5-18.1-19.5-21.2-10.3-2.9-23.7-3.3-33.3 2-9.2 5-14.8 14.6-17.6 24.5-1.7 6-2.4 12.1-2.9 18.3-.5 6.1-.9 12.2 1.4 18.1.3.6 1.4.3 1.2-.5zM417.3 248.2c3.3-2.9 6.4 1.4 6.3 4.5-.1 3.2-2.1 6.9-5.8 6.5-.9-.1-1.1 1.4-.2 1.5 5.2.7 8-5 7.3-9.5-.6-3.9-5.1-7.1-8.4-3.8-.5.5.3 1.3.8.8zM412.7 217.7c3.2 19.3 4.3 38.7 2.7 58.2-.1 1 1.4 1 1.5 0 1.7-19.5.9-39.3-3.1-58.5-.2-.6-1.2-.3-1.1.3zM356 263.9c-1 .3-1.8.6-2.7 1.2.3.1.6.2 1 .3-1.5-2.1-2.6-4.4-3.8-6.7-.7-1.4-1.6-2.7-3.1-3.4-2.8-1.3-4.9.5-6 3-1.8 4.4.8 14.6 7.2 12.8.9-.3.5-1.7-.4-1.5-2.9.8-5.1-3-5.6-5.3-.5-2-.5-4.5.7-6.2 3-4.4 5.4.7 6.7 3 .9 1.8 2 3.5 3.3 5.1.2.3.7.2 1 0 .7-.4 1.4-.8 2.2-1.2.4-.3.2-1.3-.5-1.1z"/><path fill="#E0AA86" d="M397.6 253.6c-.4-3.1-.6-6.2-.4-9.3.2-3.3 1.4-15.5 7.9-8.8 2.7 2.8 3.6 6.8 3.5 10.5 0 1.6-.2 3.3-.6 4.8-.8 2.8-8.2 11.5-10 2.3-.2-.9-1.5-.5-1.4.4.8 4.8 6.3 5.9 9.7 2.9 4.5-3.9 4.6-12.5 2.5-17.6-1.4-3.4-5.8-9.5-10-5.8-1.9 1.7-2.3 5.1-2.6 7.5-.7 4.4-.6 8.8.2 13.2.2.7 1.3.6 1.2-.1zM384.1 247.9c-1.1-5.1-3.4-13.9-10.2-13.6-6.9.3-7.2 7.8-6 12.9 1.6 6.6 1.1 14.5 10 13.9 7-.5 7.1-7.9 6.2-13.2-.1-.8-1.2-.4-1.1.3.8 5.3.1 12.3-7.1 11.5-5-.6-5.8-9-6.7-12.8-.5-2.1-1.3-4.8-.4-6.9 2.2-4.8 8-5.4 10.8-.7 1.5 2.6 2.5 6.1 3.4 8.9.2.7 1.2.4 1.1-.3z"/><path fill="#AD846F" d="M374.1 268.1c9.5.7 19.7 2.8 28.2-2.5-.4-.2-.7-.4-1.1-.6-.1 3.7-1.2 6.8-2.7 10.2-1.8 3.9-4.1 4-8 4.1-3 0-6.2.1-9.1-.7-4.4-1.2-9.2-5.4-6.1-10.3.5-.7-.7-1.4-1.2-.7-5.9 8 5.8 12.8 11.9 13.1 3.3.2 9.4 1.2 12-1.5 3-3.1 4.4-10 4.5-14.1 0-.7-.8-.9-1.2-.5-6.8 5.6-19.3 2.9-27.3 2.5-.6-.2-.6.9.1 1zM388.1 292.4c-.2 3.6 3.6 5.1 6.6 5.6.9.2 1.4-1.2.4-1.5-2.2-.5-5.6-1.2-5.5-4.2 0-.8-1.5-.8-1.5.1zM367.7 290.9c-.4 1.7-.8 3.4-2.1 4.7-1.1 1.1-2.6 1.8-3.9 2.5-.9.5-.1 1.7.8 1.3 1.6-.7 3.4-1.7 4.6-3.1 1.2-1.4 1.6-3.3 1.9-5.1 0-.7-1.1-1.1-1.3-.3z"/><path fill="#31526D" d="M360.9 299.5c7.5 10.3 15 20.6 15.5 33.8 0 .9 1.3.9 1.4 0 .5-13.1-8.3-24.8-16.1-34.4-.3-.5-1.2.2-.8.6zM394.4 297c1.1 7.4.3 15.3-3.1 22.1-.4.8.8 1.5 1.2.7 3.5-7 4.5-15.5 3-23.1-.1-.7-1.2-.4-1.1.3zM395 297.5c4.6.8 9.6 2.1 8.1 7.8-1 3.8-2.7 7.2-4.6 10.6-.4.8.7 1.4 1.2.7 1.5-2.3 2.6-4.7 3.6-7.2.9-2.3 2.4-5.8 1.9-8.3-.7-3.6-7.2-4.5-10.1-4.6-.5 0-.7.9-.1 1zM403.8 300.2c3.9 3.9 6 8.4 6.5 13.9.1.9 1.5.9 1.4 0-.1-5.7-2.8-11.2-7.2-14.7-.5-.4-1.2.3-.7.8zM361.2 298.4c-3.1.7-8.2 3-8.8 6.7-.5 3.3 4.2 9 5.9 11.5 1.1 1.5 2.3 3.1 3.8 4.2 1.9 1.4 4.3 1.4 5 4 .3 1.1-.1 1.8.5 2.9 1.3 2.2 4.6 4.5 6.4 6.2.7.6 1.7-.4 1-1-1.6-1.4-3.6-3-4.9-4.7-1.3-1.7-.8-2.9-1.5-4.7-.7-2-.6-1.3-2.3-2.2-4.5-2.3-6.7-4.8-9.3-9.3-.8-1.3-2-2.9-2.3-4.3-1.2-4.9 2.9-6.8 6.7-8 .9-.4.6-1.5-.2-1.3zM351.7 304c-6.3 5.5-10.3 12.5-13.3 20.2-3.4 8.6-6.7 18.6-6.3 27.9 0 .8 1.2.8 1.2 0 .1-8.8 2.9-17.8 5.9-26.1 2.9-8 6.9-15.4 13.2-21.3.5-.5-.2-1.2-.7-.7zM332.6 352.9c9.5 6.2 21.8 9.3 32.5 4.7.9-.4.5-1.8-.4-1.4-10.9 4.5-21.7 1-31.6-4.2-.5-.3-1.1.6-.5.9zM347.2 339.9c5.4-2 13.6-4.5 18.8-1.1.7.5 1.3-.6.6-1.1-5.4-3.9-14.4-1.1-19.8 1.3-.5.2-.2 1.1.4.9zM365.6 341.8c.3-2.3 1.1-4.5 2.8-6.1 2.1-1.9 5.1-2.6 7.3-.7.7.6 1.6-.3 1-1-2.1-2.3-5.3-1.9-7.8-.4-2.8 1.7-4.2 4.8-4.4 8 0 .7 1.1.8 1.1.2zM364.5 355.8c1 3 1.3 5.8 4.8 6.7 3.1.8 6-.9 8.3-2.8.7-.6-.3-1.5-.9-.9-1.9 1.5-4.2 3-6.7 2.5-3.1-.6-3.3-3.3-4.3-5.8-.3-.7-1.4-.4-1.2.3zM354.3 337.7c1.6-1.2 3-2.5 4.2-4.1.5-.6-.6-1.4-1-.8-1.2 1.4-2.5 2.7-3.9 4-.5.4.1 1.3.7.9zM346 310.9c3.6 2.8 6.3 6.3 8.3 10.3.4.8 1.6.1 1.2-.7-2-4.2-5.1-7.8-8.9-10.5-.4-.3-1.1.6-.6.9z"/><path fill="#AD846F" d="M394.2 358.2c1-1.1 2.5-1.8 3.1-3.2.7-1.6.7-3.8.4-5.5-.1-.7-1.3-.6-1.3.2.1 1.7.3 3.7-.6 5.2-.6 1-1.7 1.7-2.4 2.6-.4.6.4 1.1.8.7zM389.1 354c5.1-.4 13-7.1 8-12.2-.6-.6-1.3.3-.9.9 3.7 4.4-2.8 9.9-7.1 10.2-.8 0-.8 1.1 0 1.1zM418.2 335.5c-1.8 1.4-2 4.1-.1 5.6 2 1.6 6.2 2.3 8.8 2.2 4.1-.1 5-9.4.3-9.1-.8.1-.8 1.2 0 1.3 2.5.2 1.9 4.7.8 5.8-.9.9-2.6.5-3.7.3-2.3-.4-8.7-2-5.2-5.3.4-.5-.4-1.2-.9-.8z"/><path fill="#E5C1B3" d="M424.4 328.5c0-2.7.9-7.9-1.9-9.5-1.7-.9-5.4-.2-7.2-.1-2.6.2-5.2.5-7.8 1.1-5.3 1.2-11.6 3.3-15.9 6.6-3.2 2.4-2.2 5.6-2 9.3.1.8 1.4.9 1.3 0-.3-4.5 0-7.6 4.3-9.9 3.2-1.7 6.6-3.1 10.1-4.1 3.5-1 7.1-1.6 10.8-1.8 2.7-.2 5.1-.7 6.7 2.8.6 1.4.2 4.1.3 5.5 0 1 1.3 1 1.3.1zM382.3 329.4c2.6-.8 4.9-.6 7.4.4.7.3 1.2-.9.5-1.2-2.6-1.3-5.7-1.3-8.4-.2-.5.3-.1 1.2.5 1z"/><path fill="#A5897C" d="M391.3 368.5c9-5 17.9-10.4 28.4-11.2 1.8-.1 3.5.2 4.9-1.2 1.4-1.6 1.2-4.8 1.2-6.7 0-.9-1.3-.9-1.4 0 0 2.6.2 5.3-2.9 6.4-.9.3-2.8.2-3.8.3-3.3.4-6.6 1.3-9.8 2.5-6 2.3-11.8 5.5-17.2 8.9-.5.4 0 1.3.6 1zM381.5 361.1c-.1 1.8 0 3.6.2 5.3.1.9.3 1.7 1.1 2.3 2.1 1.6 5.9.6 8.1-.1.6-.2.6-1.3-.2-1.2-1.9.2-4.5 1.4-6.3.5-2-1-1.6-4.9-1.7-6.9.1-.7-1.2-.7-1.2.1z"/><path fill="#31526D" d="M352.3 359.8c-.7 4.9.1 10-.3 15-.6 6-2.3 11.8-4.6 17.4-.3.8 1 1.1 1.3.4 2.1-5.1 3.6-10.4 4.4-15.9.8-5.6.1-11.1.5-16.7 0-.8-1.2-.9-1.3-.2zM347.7 393.6c4.2 1.8 8.7 2.4 13.2 2.2 2.8-.1 9.3-.1 11.2-2.3 1.7-2 1.5-8.8 1.7-11.4.5-6.6.6-13.2.2-19.9 0-.9-1.4-.9-1.4 0 .4 8.5.2 17-.8 25.5-.5 4.4-.4 4.8-4.5 5.8-2.1.5-4.3.7-6.5.9-4.4.3-8.6-.3-12.8-1.8-.5-.2-.9.8-.3 1z"/><path fill="#AD846F" d="M409.7 211.7s2.9 5.2 3.5 9.1 1.1-.9 1.1-.9-.5-4.8-3.4-9.3c-2.8-4.4-1.2 1.1-1.2 1.1zM369.3 249.5c3.7-2.8 8-3.9 12.6-3.3.9.1 1.2-1.2.4-1.3-5-.8-9.8.5-13.6 3.8-.6.4.1 1.2.6.8zM397 244.9c2.1-.3 4.2-.7 6.4-.6 2 .1 3.6.9 5.4 1.5.8.3 1.3-.9.6-1.3-4-2.2-8.3-1.9-12.7-.8-.8.2-.5 1.3.3 1.2z"/><path fill="#443A38" d="M401.2 437.8c0 7.5-9.7 5.8-14.3 4.2-5.2-1.9-10-5.8-12.1-11.1-.3-.9-1.7-.5-1.4.4 2.1 7.1 9.7 11.9 16.7 13.2 3.1.6 6.8.8 9.8-.5 3.1-1.3 3-3 2.7-6.2-.2-.8-1.4-.9-1.4 0z"/><path fill="#878787" d="M399.9 432.3c3.9 8.9-7.1 8.5-12.4 6.4-4.6-1.8-8.5-5.6-11.5-9.5-.5-.6-1.5-.1-1 .6 4.1 6.2 10.9 11.5 18.6 11.6 2.2 0 6.7 0 8.3-1.8 1.8-2.1.3-5.9-.9-7.9-.4-.7-1.4-.1-1.1.6zM395 428.9c1.2.7 5.2 3.1 5 4.3-.3 2.3-3.7 2-5.4 2.1-3.5.1-8.8-1.2-11.5-3.3-.7-.5-1.6.6-.9 1.2 2.5 2 5.9 2.6 9 3.4 2.5.6 5.4.4 7.8-.2 2-.5 3-1.4 2.5-3.6-.6-2.7-3.7-3.9-5.9-4.9-.6-.4-1.3.5-.6 1z"/><path fill="#A39686" d="M373.5 431.2c9-5.4 6.7-19.8 4.5-28.1-.3-1-1.7-.6-1.5.4 2.2 8.7 3.9 20.1-3.7 26.8-.5.5.2 1.3.7.9zM354.9 407.6c-1.8 3.4-2.3 7.8-6.1 9.7-.2.1-.4.4-.4.7 0 2.8.3 4.6 1.9 6.9 1.4 2 3.2 2.8 5.1 4.2.7.5 1.6-.6.9-1.2-2.5-2.2-8.5-5.3-5.9-9.6.9-1.5 2.5-2.3 3.3-4.1.9-1.9 1.6-4 2.2-6.1.3-.7-.7-1.1-1-.5zM377.8 426.3c1 .7 2.5 1.1 3.6 1.5.9.3 1.4-1.2.4-1.5-.6-.2-1.2-.3-1.8-.5-.6-.2-1.2-.5-1.8-.6-.6-.2-1 .7-.4 1.1zM374.2 402.3c1.4.1 2 .9 3.1 1.6.6.4 1.3.4 2.1.4 1.7 0 3.3-.3 4.6-1.5.7-.7-.3-1.6-1-1-1.5 1.2-3.8 1.4-5.5.4-1.1-.6-1.9-1-3.2-1-.8 0-.8 1-.1 1.1z"/><path fill="#878787" d="M379.3 429.8c1 1.2 2 2.3 3.1 3.3.3.3.7.2.9-.1 2.7-3.7 7.5-4.5 11.8-4.4.5 0 .8-.5.7-.9-.4-1.5-1-2.4-2.2-3.3-.6-.5-1.5.6-.9 1.1.9.6 1.4 1.4 1.6 2.6.2-.3.5-.6.7-.9-2.9 0-5.8.3-8.5 1.6-1.1.6-1.9 1.3-2.9 2.1-.5.4-.5.8-1.3.7-.5-.1-2-2.1-2.3-2.4-.4-.8-1.1 0-.7.6zM355.3 428.4c.3 1.8.4 4.6 1.7 6 1.2 1.3 3.6 1.5 5.2 1.7 2.9.2 9.2-.1 10.8-3.1.5-1 .4-3.7-.5-4.5-1-.9-3.1-.1-4.2.1-1.9.4-3.6 1.1-5.5.5-1.3-.4-2.4-1.3-3.7-1.8-1.5-.6-2.6-.7-3.7.5-.7.7.4 1.8 1.1 1.1 1.5-1.4 5.2 1.8 7.1 2 .8.1 1.5 0 2.2-.1 1-.1 3.1-1.3 4-1 2.1 2.1 2 3.4-.4 3.8-.7.2-1.3.5-2 .6-1.3.3-2.7.5-4 .4-2.3 0-4.6-.2-5.8-2.5-.6-1.1-.7-2.8-1.1-4-.4-.6-1.3-.4-1.2.3zM371.8 432.9c-.5 4.8.4 10.4-5 12.7-7.5 3.3-9-7.7-9.4-12.6-.1-.9-1.4-.9-1.4 0 .1 5.2 1.8 15.8 9.1 14.7 3.1-.5 5.5-2.4 6.8-5.1 1.5-3 .9-6.4 1.1-9.7 0-.8-1.1-.7-1.2 0zM380 429.5c3.8-3.4 7.6-6.3 12.9-3.9.9.4 1.6-.9.7-1.3-5.6-2.6-10.9-.2-14.5 4.4-.4.5.3 1.3.9.8z"/><path fill="#AD846F" d="M417.3 331.1c1.5-.4 3-.8 4.6-1.1 1.4-.3 2.9-.6 4 .6.9.9 1.5 2.8.2 3.7-1.2.9-3.7 1-5.1 1-2.4 0-3.7-1.4-3.8-3.8 0-.8-1.2-.8-1.2 0-.1 2.3 1.1 4.6 3.6 5.1 2.1.4 6.5 0 8-1.8 1.4-1.7.2-4.5-1.4-5.6-2.4-1.7-6.8-.1-9.2.9-.5.2-.3 1.2.3 1zM380.7 331c-9.1 4.1-10 16.1-7.3 24.5 2.6 8 15.6 7.1 20.7 2.3.4-.4-.2-1-.6-.6-3.5 3.2-8.4 3.4-12.8 2.3-2.9-.7-4.7-1.2-6-4.3-.6-1.5-.7-3.3-.9-4.9-.9-7.2.8-14.3 7.3-18.3.7-.4.2-1.2-.4-1z"/><path fill="#A5897C" d="M381.5 336.8c.2-3.7-.1-7.7 2.4-10.6 2.1-2.4 5.7-4.3 8.5-5.9 5.9-3.1 14.3-6.1 21-4.5.9.2 1.2-1.1.4-1.3-7.4-1.8-16.3 1.5-22.7 5.1-3 1.7-7.1 4-9.3 6.8-2.2 2.7-1.4 7.1-1.4 10.4-.1.7 1 .7 1.1 0z"/><path fill="#AD846F" d="M388.7 345.4c4.7.1 10.9-3.5 9.1-9.1-.7-2.1-2.2-2.5-4.2-1.7-4.2 1.7-7.5 3.6-12.1 1.7-.9-.4-1.2 1-.4 1.4 3.4 1.4 7 1 10.3-.5.8-.3 1.5-1 2.3-1.2 2.7-.9 3.2.9 2.9 2.9-.7 3.8-4.4 5.4-7.9 5.5-.7.1-.7 1 0 1zM423.5 342.8c-1.9 1-3.1 3-2 5 1.2 2.2 3.7 2 5.8 1.2 2.1-.8 4.6-2.6 5.4-4.9.6-1.8-.4-4.5-2.3-5-.7-.2-1.2.9-.5 1.2 3.4 1.6.5 5.4-1.6 6.8-.9.6-2 1.1-3.1 1.2-1 .1-2.1-.1-2.6-1.1-.8-1.4.2-2.7 1.4-3.5.6-.4.1-1.2-.5-.9z"/><path fill="#EFE0BD" d="M393.9 318.7c1.9.2 4.6.6 6.4 1.5 4.7 2.5 4 4.5 4 8.2 0 3.5.2 6.9.4 10.3.2 3.4.5 6.9.9 10.3.3 3 2 8.4.3 11-.5.8.8 1.6 1.3.8 2.3-3.2.4-8.1 0-11.8-.7-5.9-1.1-11.9-1.4-17.8-.1-3.1.9-8.1-1.5-10.5-2.4-2.4-7.2-3.1-10.4-3.2-.7.1-.7 1.2 0 1.2z"/><path fill="#A3A3A3" d="M377.8 224.1c-6.1-.5-10.7 3.6-14.5 7.8l1.2.3c-2.2-8 5.5-15.8 13.4-15.7l-.8-.8c.4 3 .6 5.9.6 8.9 0 .8 1.2.8 1.2 0 .2-3 0-5.9-.3-8.9-.1-.4-.3-.8-.8-.8-8.9-.2-17.3 8.7-14.8 17.6.1.5.9.8 1.2.3 3.7-4.1 7.7-7.6 13.5-7.6.9.1.9-1 .1-1.1zM396.7 215.6c-.1 2.1-.1 4.2-.1 6.2 0 .3.3.7.7.7 4.4-.4 8.7.6 12 3.5.5.4 1.2.1 1.2-.5.1-5.1-2.5-9.9-7.1-12.3-1.6-.8-4.4-1.9-6.2-1.4-1.9.5-1 2.9-.5 4.3.3.8 1.5.5 1.3-.4-.3-1.2-.4-2.3 1-2.4.6 0 1.4.2 1.9.4 1.8.5 3.4 1.5 4.7 2.7 2.5 2.4 3.6 5.6 3.5 9 .4-.2.8-.3 1.2-.5-3.5-3.5-8.3-4-13-3.9l.7.7c-.1-2.1-.1-4.2-.1-6.2 0-.6-1.2-.6-1.2.1z"/></g></svg>