<svg xmlns="http://www.w3.org/2000/svg" viewBox="0 0 180 120" enable-background="new 0 0 180 120"><g><ellipse fill="#E2E2E2" cx="94" cy="89.5" rx="59.2" ry="19.3"/><path fill="#AE3A30" d="M69.8 35.3S58.3 50.1 56.7 55.4c-1.7 5.4 0 34.5 0 34.5s14.2 7 18.8 7.4c4.7.5 54.1 0 54.1 0L133 56l-17.8-20.2s-5.9-3.2-23.5-2.1-21.9 1.6-21.9 1.6z"/><path fill="#FFCF48" d="M69.8 35.3s1-19.5 12.9-19.5 9.7 9.5 9.7 9.5 2.7-10.7 10.7-10.7 11 8.9 10.5 19.8l-5.2-1s-1.9-6.1-5.2-6.1c-3.3 0-4.1 5.8-4.1 5.8l-13 .5s1.1-6.8-3.4-6.4c-4.5.4-3.8 7-3.8 7l-9.1 1.1zM84.7 80.8l-2.1 3.3 8 4.5 2.2-2.2-2.8-1.6s2.5-14.3 14.2-16c11.6-1.8 12.8 13 12.8 13l-1.7 2.8 1.7 2.5 7.8-3.8-1-2.5-2.3.5s-4.5-17.4-16.8-16.5-17 17.5-17 17.5l-3-1.5z"/><path fill="#99312B" d="M69.2 36.1l-1.7 14.4 7.8 7.8s-3.9-21.4-6.1-22.2z"/><path fill="#C94039" d="M68 37l-.5 13.5L55.8 57S65.3 38.7 68 37zM70.4 36.1l5.3 21.3s35.4-2.1 56.2-1.5c0 0 1.2-2.7-17.8-20.6 0 0-2.2-3.2-19.9-2-17.7 1.2-23.8 2.8-23.8 2.8zM94.2 33.3s-20.7.6-23.8 2.8"/><path fill="#E25350" d="M73.7 46.3c2.2 2 5.3 2.8 8.2 3.3 7 1.2 14.1 1.5 21.1.9 2.9-.2 5.8-.6 8.4-1.9 3.3-1.6 5.8-4.4 8.1-7.1-1.9-2.6-3.9-5.2-6.8-6.6-1.6-.7-3.3-1-5.1-1.2-3.8-.5-7.5-.6-11.3-.4-3.8.2-7.5.7-11.3.8-4.4.1-9.1-.3-13.1 1.6-.3.1-.5.3-.7.5-.1.2-.1.5-.2.7-.1 1.9.2 3.9.7 5.7"/><path fill="#99312B" d="M90.4 84.3c.3.7 1.3.9 1.7 1.5.5.7.1 1.7-.7 2.1-.7.4-1.6.3-2.4.1-1.1-.4-2-1.1-2.7-2l-.9 1.5c1.3 1.5 2.9 2.6 4.7 3.3.2.1.5.2.7.1.3 0 .6-.2.9-.5.8-.6 1.6-1.3 2.3-1.9-1.3-.3-2.2-1.7-2.3-3.1s.4-2.7.9-4c.9-2.3 2-4.6 3.5-6.6s3.5-3.6 5.9-4.4c4-1.2 8.7.5 10.9 4 1.6 2.5 2 5.5 3.2 8.1-.9.6-1.9 1.3-2.2 2.3-.6 1.6.4 3.2 1.4 4.6 2.6-1.5 5.3-2.9 8.1-4.1 0-.5-.5-.8-1-.8s-.9.2-1.4.5c-1.2.7-2.4 1.5-3.8 1.5s-2.7-1.5-2.1-2.7c.2-.4.6-.6.8-.9 1.3-1.5.6-3.8-.2-5.7-1.1-2.6-2.4-5.3-4.8-6.8-1.6-1-3.4-1.3-5.2-1.5-1.9-.2-4-.3-5.8.4-1.7.7-3.1 2-4.4 3.4-2.7 3-4.9 6.6-5.4 10.6.2.4.2.7.3 1z"/><path fill="#FFDA7D" d="M70.1 32.2c1.1-2.8 2.5-5.4 4.7-7.5s5.1-3.4 8-3.2c2.1.1 4.2 1 5.8 2.4 1.2 1 2.2 2.3 3.8 2.7 1.4.4 2.9-.1 4.1-.9 1.2-.7 2.3-1.7 3.6-2.4 4-2.3 9.6-1.4 12.6 2 .5-3.5-1.4-7.1-4.3-9-3-1.9-6.8-2.2-10.2-1.1-1 .3-2 .7-2.7 1.5-1.7 1.8-1.4 4.7-2.9 6.6-1.5-3.7-5.1-6.5-9.1-7s-8.2 1.4-10.4 4.7c-1.6 2.4-2.3 5.3-2.9 8.1"/><path fill="#FFE8BB" d="M82.7 21.4c2.5.3 4.9 1.4 6.9 3 .8.7 1.6 1.6 2.7 1.9 1.1.3 2.3 0 3.3-.5s1.9-1.3 2.8-1.9c1.3-.8 2.8-1.4 4.3-1.7-1.8.3-3.3 1.6-4.8 2.8-1.5 1.1-3.1 2.3-5 2.2-2 0-3.7-1.4-5.2-2.8-1.4-1.2-3-2.7-5-3z"/></g><g><path fill="#B2914F" d="M70.5 35.3c0-5.7 1-11.8 5.4-15.7 5.7-5 16.1-3.1 15.6 5.8-.1.9 1.5 1.2 1.7.2.6-3.3 1.1-5.9 3.7-8.2 2.5-2.1 6.6-2.5 9.8-1.1 6.8 2.9 5.6 11.9 6.1 18.1.1 1.1 1.8 1.1 1.7 0-.5-7.7.7-18-8.7-20.1C97 12.5 93 17 91.6 25.2c.6.1 1.1.1 1.7.2.5-7.1-6.2-11.7-12.9-10-8.8 2.2-11.5 12-11.3 19.9 0 1 1.4 1 1.4 0zM79.5 33.8c.4-2 .7-5 3.1-5.6 3.1-.8 2.6 3.6 2.8 5.5.1 1 1.5 1 1.5 0 0-2.8 0-7.3-3.9-7.2-3.6.1-4.6 4.3-4.6 7.2-.1.6 1 .8 1.1.1zM99.8 32.9c1-1.8.6-4.7 3.4-4.7s3.5 3 3.3 5.1c-.1.9 1.4 1.1 1.6.2.6-3-.9-6.4-4.1-6.9-1.4-.2-2.8.2-3.8 1.2-1.3 1.3-1.1 3-1.7 4.6-.2.7.9 1.1 1.3.5z"/><path fill="#753121" d="M76 57.2c-.7-3.6-1.5-7.2-2.2-10.8-.6-2.6-3.4-9-.6-10.7 1-.6 4.8-.5 5.9-.6 2-.2 3.9-.3 5.9-.5 4-.3 7.9-.4 11.9-.5 3.6-.1 7.3-.2 10.9.1 5.1.5 7.5 2.9 10.7 6.6 4.6 5.2 9.2 10.5 13.8 15.7.7.8 2-.4 1.2-1.2-4.4-5-8.9-10-13.3-15-3.3-3.8-5.6-6.8-10.8-7.5-6.7-1-13.8-.4-20.5 0-4 .2-7.9.5-11.8.9-2.3.2-4.8.1-6.9 1-.3.1-.4.4-.4.7-.2 3 1.3 6.8 1.9 9.7.9 4.2 1.8 8.4 2.8 12.5.4.9 1.7.5 1.5-.4zM75.3 58.1c19.2-.8 38.4-1 57.7-1.4 1.1 0 1.1-1.7 0-1.7-19.1-.3-38.6-.2-57.7 1.7-.9.1-.9 1.5 0 1.4zM75 56.8c-1 2.2-.7 4-.6 6.4.3 3.8.5 7.7.7 11.6.3 7.7.3 15.4 0 23.1 0 1.1 1.6 1.1 1.6 0 .3-6.7.3-13.5.1-20.3-.1-3.2-.2-6.4-.4-9.6-.2-3.3-1.2-7.4-.2-10.7.2-.7-.9-1.2-1.2-.5zM132.3 56c-.1 7.4-1 14.8-1.7 22.1-.4 3.9-.7 7.7-1.1 11.6-.1.9 0 5.1-.5 5.8-1.2 1.6-3.6 1-5.3 1-15.8 0-31.6.3-47.4.5-1.1 0-1.1 1.7 0 1.7 17.7.2 35.6.5 53.3-.4.5 0 .8-.4.8-.8 1.2-13.7 3.6-27.7 3.2-41.5.1-.9-1.3-.9-1.3 0zM69.9 34.6c-6.7 5.4-10.6 14.7-14.8 22-.5.9.9 1.7 1.4.8 4.4-7.3 8.1-15.8 14.3-21.8.7-.6-.3-1.5-.9-1zM54.8 57.4c.9 11.2 1.6 22.4 2.3 33.6.1 1 1.6 1.1 1.6 0-.2-11.2-1.1-22.5-2.5-33.6-.1-.9-1.5-1-1.4 0zM57.8 91.4c3.2 1.2 6 3 9.1 4.4 2.7 1.2 5.5 1.9 8.3 2.4 1.1.2 1.6-1.4.5-1.7-3.5-.8-6.8-1.6-9.9-3.2-2.5-1.3-4.8-2.6-7.6-3.3-.9-.1-1.2 1.1-.4 1.4zM55.8 57.9c1.7-1 3.4-1.9 5-2.9 1.5-.9 3.3-2.5 4.9-3 3.4-.9 6.8 4.2 8.7 6.5.6.8 1.8-.3 1.1-1.1-1.5-2-3.2-3.7-5-5.4-.8-.7-1.9-2.1-3.1-2.2-1.5-.1-3.3 1.3-4.4 2-2.6 1.6-5.3 3.2-7.9 5-.7.5 0 1.6.7 1.1zM68.6 36.5c-.9 4.8-1.4 9.7-1.5 14.5 0 1 1.4.9 1.5 0 .4-4.8.8-9.6 1.4-14.3 0-.8-1.3-1-1.4-.2zM90.2 85.5c1.2.8 2.2 1.3 0 1.4-1.6.1-2.8-.9-4.1-1.8-.6-.4-2-.8-2-1.8 0-2.6 2.3-.8 3.1-.2.4.4 1.2.3 1.3-.3 1-7.2 6.8-15.3 14.2-16.8 11.1-2.4 15.3 7.4 17.3 16 .1.6.8.7 1.3.5.9-.8 1.8-.8 2.7-.2-.1 1-.7 1.6-1.9 1.6-1 .7-4.3 2.5-5.3 1.8-2.2-1.5 1.3-2.1 1.6-3.7.8-3.6-3.7-10.1-6.5-12.1-10-7-22.1 4.6-22.1 14.8 0 1 1.5 1 1.5 0 0-8 7.6-16.8 16.1-14.9 3.3.7 5.6 3 7.2 5.8.6 1.2 1.8 3 1.8 4.4 0 1.9 0 2.2-2.1 3.3-.4.2-.5.7-.3 1.1.6 1.2 1.1 2.3 1.7 3.5.2.4.8.5 1.2.3l9.3-4.2c.4-.2.5-.8.3-1.1-.6-.9-1.2-1.8-1.9-2.8-.2-.3-.6-.5-.9-.4-3.4 1.3-3-3.5-4.1-6.1-.6-1.4-1.3-2.7-2.2-4-2.9-3.9-7.6-5.8-12.3-5.6-9.1.3-16.5 9.9-17.8 18.3.4-.1.9-.2 1.3-.3-1-.9-2-1.8-3.1-2.6-.3-.3-.9-.1-1.1.3-.8 1.3-1.5 2.7-2.1 4.1-.2.4-.1 1 .3 1.2 2 1 3.9 2.1 5.9 3.2.6.4 1.4 1.3 2.2 1.3 1.4 0 2.4-1.7 3.3-2.5.3-.3.3-1-.1-1.2-1-.3-1.8-.8-2.6-1.4-1.2-.6-1.9.6-1.1 1.1z"/></g></svg>