<?xml version="1.0" encoding="utf-8"?>
<!-- Generator: Adobe Illustrator 18.1.1, SVG Export Plug-In . SVG Version: 6.00 Build 0)  -->
<svg version="1.1" xmlns="http://www.w3.org/2000/svg" xmlns:xlink="http://www.w3.org/1999/xlink" x="0px" y="0px"
	 viewBox="0 0 180 120" enable-background="new 0 0 180 120" xml:space="preserve">
<g id="Layer_3">
	<path fill="#E2E2E2" d="M133.9,114.9c-3.3,0.5-6.7,0.7-10,0c-3.3-0.7-6.5-2.4-8.4-5.1c-0.8-1.2-1.4-2.7-0.7-4
		c0.3-0.6,0.7-1,1.2-1.4c4.6-3.7,10.8-4.5,16.6-6c6.1-1.7,11.8-4.4,17.4-7.1c1.9-0.9,3.9-1.9,5.7-3c1.4-0.9,2.8-2.1,4.5-2.2
		s3.7,1.1,3.4,2.8c3,0,6.2,2,6.4,5c0.2,3.4-3.5,5.7-6.8,6.5c-5.4,1.3-11.2,0.8-16.3,3c-0.6,0.3-1.2,0.6-1.6,1.1
		c-0.6,0.9-0.4,2-0.5,3.1c-0.2,2.3-1.9,4.4-4,5.5C138.6,114.1,136.2,114.5,133.9,114.9z"/>
	<ellipse fill="#E2E2E2" cx="68" cy="83.5" rx="59.2" ry="23.4"/>
	<path fill="#565C56" d="M16.4,36.6c-0.5,0.3,23.8,7.7,23.8,7.7s-1.7,20.3-8.3,29.5c0,0,23.3,16.2,50.5,3.7l5.1,6.1l12.7-5
		c0,0-8-28-7.1-35l20.5-5c0,0-22.2-11-42.6-17.6C71.1,21.1,20.2,34.1,16.4,36.6z"/>
	<path fill="#434943" d="M40.2,49.7c6.3,2.3,12.5,5.7,16.4,11.2c5.3-3.8,11.5-6.1,17.8-7.6s12.8-2.2,19.2-2.9l-1.2-7.2l-30.8,8.9
		c0,0-10.8-9-21.3-8.4L40.2,49.7z"/>
	<path fill="#747A74" d="M85.5,39.2c-3.3-0.5-6.6-1.2-10-1.8c-2.8-0.3-5.6-0.6-8.4-0.9c-0.6-0.1-0.6-1.1,0-1c0.1,0,0.2,0,0.2,0
		c0,0,0.1,0,0.1,0c2.6,0.1,5.2,0.4,7.8,0.8c8.3,0.9,16.6,2,24.9,3c1.7-1.6,2.8-4,2.5-6.4l-6.2-3.1c-2.1-0.6-4.2-1.3-6.3-2.1
		c-3.1-1.1-6.4-2.9-9.6-3.6c-0.9-0.2-1.9-0.4-2.8-0.6c-5.9-1.1-11.9,0-17.7,1.6c-5.8,1.5-11.4,3.5-17.3,4.2l-2.8,0.9
		c-1.5,0.3-2.7,1.6-3.2,3.1c-0.5,1.5-0.5,3.1-0.4,4.6c0,1.3,0.1,2.7,1,3.5c0.5,0.5,1.3,0.8,2,1c4.3,1.4,8.7,2.9,13.1,4.1
		c4.2,1.2,8.4,2.2,12.8,2c3.4-0.1,6.7-1,9.9-1.9c6.7-1.8,13.4-3.6,20.1-5.3c0.7-0.2,1.4-0.4,2.1-0.6C93.5,40.4,89.5,39.8,85.5,39.2z
		"/>
	<path fill="#EAD5B0" d="M26.8,67.8c0,0-14.8,6-7.3,20.9c0,0,30.2-3.4,46.4,13c0,0,13.2,9.9,21.4-2.9s-4.9-21.2-4.9-21.2
		s-14.7,6.7-27.1,4.3S30.1,76.6,26.8,67.8z"/>
	<path fill="#EDC27E" d="M104.8,73.2c0,0-6.5,0.4-4.9,8.2c1.6,7.8,11.8,17.1,19.7,8.9c0,0-8.5,1.3-7.7-8.9
		C112.7,71.2,108,72.4,104.8,73.2z"/>
	<path fill="#EDC27E" d="M103.5,57.1c0,0-4.2,2.3-2.9,5.8c1.2,3.5,4.4,4.1,6.4,1.7C109,62.2,109,57.1,103.5,57.1z"/>
	<path fill="#AFAFAF" d="M120.4,106.8c0,0-3.6-7.2,3.9-10.2s9-1.5,9-1.5l17.1-8.2c0,0,1.7-7.7,11.2-5.1l0.2,3.5l-3.8,1.2
		c0,0-0.5,2.8,1.8,1.5s5.1-2.8,5.1-2.8s1.2,0.6,1.2,3.6c0,3,0,3.1,0,3.1s-3.9,6.7-12.5,3.3l-13.5,6.6v7.1c0,0-5.3,6.2-12.3,2.6
		c0,0-1.4-1.9,1.9-4.5c3.3-2.6,2.3-3.8,2.3-3.8l-5.4,0.5C126.6,103.8,120.4,108.9,120.4,106.8z"/>
	<polygon fill="#969696" points="120.2,105.4 120.8,107.3 126.6,103.8 132,103.3 133.2,100.8 126.8,101.1 	"/>
	<polygon fill="#969696" points="161.8,82.5 161.8,85.4 156.8,87.7 156.6,84.5 	"/>
	<path fill="#BCBCBC" d="M139.7,99.7l13.6-8.3c0,0,3,1.7,6.6,0.6c3.6-1.1,6.5-3.6,6.5-3.6l-0.2,4c0,0-3.6,3-6.5,3.3
		s-6.3-0.5-6.3-0.5l-13.2,7.2L139.7,99.7z"/>
	<path fill="#BCBCBC" d="M140,105.2l0.9,4.1c0,0-5.4,4.7-12.4,2.4c0,0-2.9-3.1,0-2.7C131.4,109.4,138.2,108.3,140,105.2z"/>
	<path fill="#898989" d="M36.6,36.8c-0.2-1.3-0.3-2.5,0-3.8c0.3-1.2,1.1-2.4,2.3-2.8C37.5,32.1,36.6,34.5,36.6,36.8z"/>
	<path fill="#898989" d="M102.5,32.8c0,1.5-0.2,3-0.5,4.4c0.9-0.8,1.4-1.9,1.6-3.1c0-0.3-0.1-0.8-0.4-0.8"/>
	<path fill="#898989" d="M64.9,24.6c1.2-1.1,2.9-1.5,4.5-1.6c1.6-0.1,3.3,0.1,4.9-0.1c0.1,0,0.3,0,0.4,0c0.2,0.1,0.2,0.4,0.3,0.6
		c-1.9,0.3-3.8,0.4-5.8,0.5C67.8,24,66.3,24,64.9,24.6z"/>
	<path fill="#CEBA99" d="M82.9,93.9c-0.5,4.3-3.6,8.1-7.6,9.6c-0.7,0.2-1.4,0.4-2.1,0.5c-2.7,0.2-5.3-1.7-6.3-4.2
		c-1-2.5-0.6-5.5,0.8-7.8c0.8-1.4,2-2.6,3.4-3.5c1.9-1.2,4.2-1.8,6.3-1.2c2.2,0.5,4.1,2.2,4.5,4.4"/>
	<path fill="#B7A386" d="M78.8,88.8c-1.8-0.4-3.7-0.2-5.3,0.6c-1.6,0.9-2.9,2.3-3.5,4c-0.9-0.2-1.9-0.4-2.9-0.5
		c0.2-1.3,1.1-2.3,2.1-3.2c1.1-1.1,2.4-2,3.8-2.6c1.4-0.6,3-0.9,4.5-0.6c0.4,0.1,0.9,0.3,1.1,0.6L78.8,88.8z"/>
	<path fill="#B7A386" d="M67.1,93c0.7,0.1,5.8,0.9,5.8,0.9l0.7,4.2l-7-1.6L67.1,93z"/>
	<path fill="#F7E4C4" d="M65,85.8c-1.3-0.2-2.5-0.6-3.8-1c-2.4-0.4-4.8-0.9-7.1-1.5c-2.5-0.7-5-1.4-7.6-2C44.4,80.8,43,80.2,41,79
		c-0.2-0.1-0.3-0.4-0.2-0.6c0,0,0,0-0.1,0c-5.1-2.4-10.4-5.1-13.5-9.7c-0.2-0.4-0.5-0.8-1-0.8c-0.5-0.1-0.9,0.3-1.2,0.7
		c-1.3,1.5-2,2.3-3.3,3.8c7.6,7.4,4.8,4,7.4,5.9c1.3,1,2.5,2,3.9,2.8c1.3,0.7,2.8,1.3,4.2,1.8c8.9,3.1,18.1,5.5,27.4,7
		c1.4,0.2,2.8,0.4,4.1,0c1.4-0.5,2.4-1.5,3.3-2.7C69.8,86.3,67.4,86.2,65,85.8z"/>
	<path fill="#FFEFD7" d="M25.5,75.8c0,0,8.9,5.4,12.5,6.8s14.4,5,17.2,5.3c0,0-11.5-1.4-18.4-4.7C27.8,79,25.5,75.8,25.5,75.8z"/>
</g>
<g id="Layer_2">
	<g>
		<g>
			<path fill="#373A37" d="M13.8,37.2c9.7-2.3,19.4-4.8,29.1-7.2c9.3-2.4,19.1-4.1,28-7.8c0.9-0.4,0.5-1.9-0.4-1.5
				c-9,3.5-18.7,5.4-28,7.8c-9.7,2.5-19.4,4.9-29,7.6C12.6,36.2,13,37.4,13.8,37.2L13.8,37.2z"/>
		</g>
	</g>
	<g>
		<g>
			<path fill="#373A37" d="M70.7,21.7c13.9,6.9,29.6,8.7,42.5,17.8c0.8,0.6,1.8-0.7,1.1-1.4C102,28.3,85.4,26.9,71.4,20.6
				C70.6,20.3,70,21.3,70.7,21.7L70.7,21.7z"/>
		</g>
	</g>
	<g>
		<g>
			<path fill="#373A37" d="M14,37.8c8.8,0.3,16.7,4.4,25.1,6.5c7.7,1.9,15.4,3.4,22,8c0.9,0.7,1.8-0.9,0.9-1.5
				c-6.7-4.8-14.6-6.3-22.4-8.2C31,40.4,22.9,36.2,14,36.4C13.1,36.4,13.1,37.8,14,37.8L14,37.8z"/>
		</g>
	</g>
	<g>
		<g>
			<path fill="#373A37" d="M61.7,52.3c17-5.8,34.5-9.9,52.2-12.6c1.1-0.2,0.6-1.9-0.5-1.7c-17.8,2.6-35.1,7.1-52.1,13
				C60.4,51.2,60.8,52.6,61.7,52.3L61.7,52.3z"/>
		</g>
	</g>
	<g>
		<g>
			<path fill="#373A37" d="M39.6,44.3c-0.7,10.2-3.4,19.3-7.8,28.5c-0.4,0.9,0.8,1.6,1.3,0.8c4.9-9,7.4-19.1,7.8-29.3
				C40.9,43.5,39.6,43.5,39.6,44.3L39.6,44.3z"/>
		</g>
	</g>
	<g>
		<g>
			<path fill="#373A37" d="M92.4,43.2C93,55,95.1,66.5,98.8,77.8c0.3,1,1.9,0.6,1.5-0.4c-3.7-11.1-5.8-22.5-6.4-34.2
				C93.9,42.2,92.3,42.1,92.4,43.2L92.4,43.2z"/>
		</g>
	</g>
	<g>
		<g>
			<path fill="#373A37" d="M99.4,78.4c-3.4,2.5-7.3,3.7-11.6,3.4c-1-0.1-1,1.5,0,1.6c4.5,0.3,8.8-1,12.4-3.6
				C101,79.2,100.2,77.8,99.4,78.4L99.4,78.4z"/>
		</g>
	</g>
	<g>
		<g>
			<path fill="#96866E" d="M26.2,68.1c4.2,8.8,16.3,12,25,13.8c10.7,2.3,21.8,1.5,31.5-3.6c1-0.5,0.1-2-0.9-1.5
				c-9.4,4.9-19.9,5.6-30.2,3.6c-8.4-1.7-20.1-4.6-24.3-12.9C27,66.7,25.8,67.4,26.2,68.1L26.2,68.1z"/>
		</g>
	</g>
	<g>
		<g>
			<path fill="#96866E" d="M82,78c4,3.7,7,8.5,6.5,14.2c-0.5,6.5-5.6,12.1-12.3,12.1c-3.9,0-7.8-1.9-8.9-6c-1.1-4.2,1.7-9.3,6-10.4
				c2.9-0.8,6.5,0.5,7.7,3.3c2.5,5.6-6.8,9.9-7.8,3.2c-0.1-0.8-1.6-0.7-1.5,0.2c1,8,12.7,5.8,11.2-2.4c-1.8-9.9-15.3-6.5-17.3,1.7
				c-2.6,11,11.3,14.8,18.6,9.3c9.1-6.8,6.7-20.1-1.6-26.3C82.2,76.6,81.5,77.5,82,78L82,78z"/>
		</g>
	</g>
	<g>
		<g>
			<path fill="#96866E" d="M26.6,66.8c-4.3,1.6-7.7,5-9.3,9.3C15.9,80,15.4,86.2,19,89.2c0.7,0.6,1.7-0.3,1-1
				c-6.2-7,0.7-16.7,7.1-20.2C27.7,67.6,27.3,66.5,26.6,66.8L26.6,66.8z"/>
		</g>
	</g>
	<g>
		<g>
			<path fill="#96866E" d="M19.8,89.6c10.5-2,23.5-0.3,33.1,4.5c6.9,3.4,14.1,12.4,22.3,11.5c0.8-0.1,0.9-1.3,0-1.3
				c-5.7,0.1-10.8-5.1-15.4-8.1c-4-2.6-8.1-4.8-12.6-6.1c-8.5-2.4-19.2-4.4-27.7-1.7C18.8,88.7,19,89.7,19.8,89.6L19.8,89.6z"/>
		</g>
	</g>
	<g>
		<g>
			<path fill="#96866E" d="M66.8,93.8c1.8,0.4,3.4,0.9,5.1,1.5c0.8,0.3,1.3-1,0.6-1.3c-1.7-0.9-3.6-1.4-5.5-1.5
				C66.3,92.5,66.1,93.7,66.8,93.8L66.8,93.8z"/>
		</g>
	</g>
	<g>
		<g>
			<path fill="#96866E" d="M66.1,96.9c3.2,1.5,6.8,2.4,10.4,2.5c0.8,0,0.8-1.2,0-1.2c-3.5-0.4-6.7-1.1-10-2.2
				C65.9,95.7,65.5,96.6,66.1,96.9L66.1,96.9z"/>
		</g>
	</g>
	<g>
		<g>
			<path fill="#898989" d="M133.5,95.8c5.9-1.9,11.3-5.2,16.7-8.2c0.8-0.4,0.1-1.6-0.7-1.2c-5.5,2.7-10.8,5.8-16.5,8.4
				C132.5,95,132.9,96,133.5,95.8L133.5,95.8z"/>
		</g>
	</g>
	<g>
		<g>
			<path fill="#898989" d="M150.9,87.1c0.5-2.2,2.1-3.8,4.3-4.4c1.3-0.4,4.9-1.2,6.2,0c0.7,0.7,1.6-0.3,1-1c-1.6-1.9-5.9-0.9-8-0.3
				c-2.5,0.8-4.6,2.9-4.7,5.6C149.6,87.6,150.7,87.8,150.9,87.1L150.9,87.1z"/>
		</g>
	</g>
	<g>
		<g>
			<path fill="#898989" d="M133.4,94.5c-3.6-0.4-8.1,0.4-11,2.6c-2.7,2-4.6,5.7-2.3,8.7c0.5,0.7,1.8,0,1.2-0.7
				c-2.5-3.6,1.5-7,4.6-8.2c2.4-0.9,5-1.3,7.5-1C134.3,96,134.3,94.6,133.4,94.5L133.4,94.5z"/>
		</g>
	</g>
	<g>
		<g>
			<path fill="#898989" d="M121.2,105.7c1.8-1.5,3.5-3,5.3-4.3c0.6-0.4,0-1.4-0.6-1c-1.9,1.4-3.9,2.8-5.7,4.3
				C119.6,105.3,120.5,106.2,121.2,105.7L121.2,105.7z"/>
		</g>
	</g>
	<g>
		<g>
			<path fill="#898989" d="M126.4,101.6c2.2,0.1,4.5,0.2,6.6,0c0.9-0.1,0.9-1.3,0-1.4c-2.2-0.1-4.4,0.1-6.6,0.3
				C125.7,100.5,125.6,101.5,126.4,101.6L126.4,101.6z"/>
		</g>
	</g>
	<g>
		<g>
			<path fill="#898989" d="M132.7,100.8c-0.6,1.3-1.1,2.6-1.4,4c-0.2,0.9,1.2,1.3,1.4,0.4c0.3-1.4,0.6-2.6,1.1-3.9
				C134,100.6,133,100.2,132.7,100.8L132.7,100.8z"/>
		</g>
	</g>
	<g>
		<g>
			<path fill="#898989" d="M131.5,104.9c-1.4,0.9-3.1,2-4.3,3.2c-0.5,0.5,0.2,1.5,0.8,1.1c1.5-0.9,2.8-2.2,4.2-3.4
				C132.8,105.4,132.1,104.6,131.5,104.9L131.5,104.9z"/>
		</g>
	</g>
	<g>
		<g>
			<path fill="#D8D8D8" d="M139.6,100.3c4.6-3.1,9.7-5.1,14-8.6c0.6-0.5-0.3-1.3-0.9-0.9c-4.3,3.3-9.5,5.1-13.8,8.4
				C138.3,99.6,138.9,100.7,139.6,100.3L139.6,100.3z"/>
		</g>
	</g>
	<g>
		<g>
			<path fill="#898989" d="M161.5,81.9c-1.7,0.6-3.5,1.3-5.1,2.2c-0.7,0.4-0.2,1.5,0.5,1.3c1.7-0.5,3.4-1.5,5-2.3
				C162.6,82.8,162.1,81.7,161.5,81.9L161.5,81.9z"/>
		</g>
	</g>
	<g>
		<g>
			<path fill="#898989" d="M155.8,84.9c-0.1,1.1,0,2.3,0,3.4c0,0.8,1.3,0.8,1.3,0c0-1.1-0.1-2.2-0.2-3.4
				C156.9,84.1,155.9,84.2,155.8,84.9L155.8,84.9z"/>
		</g>
	</g>
	<g>
		<g>
			<path fill="#898989" d="M156.4,89c1.2,0.1,2.5,0.3,3.6-0.3c0.7-0.4,0.1-1.3-0.6-1c-0.9,0.4-2,0.4-3,0.3
				C155.8,87.9,155.8,88.9,156.4,89L156.4,89z"/>
		</g>
	</g>
	<g>
		<g>
			<path fill="#898989" d="M119,104.3c0.3,1.3,0.6,2.6,1.1,3.9c0.3,0.8,1.6,0.5,1.3-0.4c-0.3-1.3-0.9-2.6-1.3-3.8
				C119.9,103.3,118.8,103.6,119,104.3L119,104.3z"/>
		</g>
	</g>
	<g>
		<g>
			<path fill="#898989" d="M121,108.6c1.5-1.1,2.9-2.3,4.5-3.4c1.8-1.3,4-1.4,6.2-1.3c0.8,0,0.8-1.1,0-1.2c-1.9-0.2-4.3-0.2-5.9,0.8
				c-1.9,1.1-3.8,2.7-5.5,4.2C119.8,108.1,120.5,109,121,108.6L121,108.6z"/>
		</g>
	</g>
	<g>
		<g>
			<path fill="#898989" d="M126.1,101.6c0,0.5,0,1.1,0,1.6c0,0.9,1.4,0.8,1.2-0.2c-0.1-0.5-0.2-1.1-0.2-1.6
				C127,100.9,126.1,101,126.1,101.6L126.1,101.6z"/>
		</g>
	</g>
	<g>
		<g>
			<path fill="#898989" d="M126.5,109.2c-0.1,0.8-0.1,1.4,0,2.2c0,0.3,0.2,0.6,0.5,0.7c4.8,1.4,10.2,1.3,13.7-2.8
				c0.5-0.5-0.3-1.3-0.8-0.8c-1.8,1.8-4,2.9-6.6,3.1c-2.1,0.2-5.6,0.3-5.6-2.4C127.6,108.5,126.5,108.5,126.5,109.2L126.5,109.2z"/>
		</g>
	</g>
	<g>
		<g>
			<path fill="#898989" d="M139.5,103.1c0,1.7,0,3.5,0.1,5.2c0.1,0.9,1.5,0.9,1.4,0c-0.2-1.7-0.4-3.5-0.4-5.2
				C140.5,102.5,139.5,102.5,139.5,103.1L139.5,103.1z"/>
		</g>
	</g>
	<g>
		<g>
			<path fill="#CCCCCC" d="M152.8,92.1c0,1,0,2-0.1,3c-0.1,0.9,1.4,0.9,1.4,0c-0.1-1-0.1-2-0.1-3C153.9,91.4,152.8,91.4,152.8,92.1
				L152.8,92.1z"/>
		</g>
	</g>
	<g>
		<g>
			<path fill="#898989" d="M161.6,82.4c-0.3,1-0.5,2-0.4,3c0.2-0.2,0.3-0.4,0.5-0.7c-1.1,0.5-2.3,0.8-3.4,1.2c-0.8,0.3-1,1-1.4,1.8
				c-0.3,0.8,0.9,1.3,1.3,0.6c0.2-0.3,0.3-0.7,0.5-0.9c0.2-0.2,0.6-0.3,1-0.4c0.9-0.3,1.7-0.6,2.6-1c0.2-0.1,0.3-0.4,0.3-0.6
				c0-0.9,0-1.8,0.2-2.7C162.9,81.9,161.8,81.6,161.6,82.4L161.6,82.4z"/>
		</g>
	</g>
	<g>
		<g>
			<path fill="#898989" d="M156.2,84.7c0,1.1-0.1,2.3-0.1,3.4c0,0.8,1.3,0.8,1.3,0c0-1.1,0-2.3-0.1-3.4
				C157.3,84,156.2,84,156.2,84.7L156.2,84.7z"/>
		</g>
	</g>
	<g>
		<g>
			<path fill="#9B7845" d="M103.5,73c-3.2-0.2-4.3,3.2-4.3,6c-0.1,4,1.8,7.9,4.4,10.8c4.9,5.6,13.3,6.5,17.5-0.5
				c0.4-0.7-0.5-1.4-1.1-0.9c-3.7,3.1-7-1-7.4-4.2c-0.2-1.6,0.1-3,0.3-4.6c0.2-1.8,0.3-3.7-0.6-5.3c-1.7-3.2-5.5-3-8.5-2.4
				c-0.8,0.1-0.7,1.6,0.2,1.5c2.6-0.3,6-0.9,7.3,2.7c0.7,1.9-0.1,4-0.2,5.9c-0.1,2.3,0.1,4.5,1.5,6.4c2.1,2.9,5.8,3.3,8.5,1.1
				c-0.4-0.3-0.8-0.6-1.1-0.9c-3.3,5-9.5,5.4-13.8,1.5c-1.6-1.5-3-3.3-4-5.2c-1-2-3.3-10.6,1.5-10.4C104.5,74.5,104.5,73.1,103.5,73
				L103.5,73z"/>
		</g>
	</g>
	<g>
		<g>
			<path fill="#373A37" d="M103.3,66.6c-0.1,2.8-0.2,5.6-0.3,8.4c0,1,1.6,1,1.6,0c0.1-2.8,0.2-5.6,0.3-8.4
				C105,65.6,103.4,65.6,103.3,66.6L103.3,66.6z"/>
		</g>
	</g>
	<g>
		<g>
			<path fill="#9B7845" d="M103.2,56.7c-5.8,0.1-4.3,11,1.4,10.2c6-0.9,5.2-11.1-1.1-10.5c-0.8,0.1-1.1,1.3-0.2,1.5
				c1.9,0.5,3.4,0.8,3.7,3c0.3,1.6-0.2,3.4-1.8,4.1c-1.7,0.8-3.1-0.2-3.7-1.8c-0.8-2.2-0.4-4.3,1.9-5.2
				C104.1,57.8,104,56.7,103.2,56.7L103.2,56.7z"/>
		</g>
	</g>
	<g>
		<g>
			<path fill="#373A37" d="M65.9,36.2c9.8,0.7,19.5,2.2,29.2,3.6c0.9,0.1,1.8,0.2,2.8,0.3c2.9,0.4,4.3,0.3,5.4,3.3
				c1.8,4.7,0.5,10.6,0.3,15.5c0,1,1.6,1,1.6,0c0.3-7.2,4-18.4-5.5-20.1c-11.1-2-22.5-3.4-33.8-4.2C64.9,34.5,64.9,36.1,65.9,36.2
				L65.9,36.2z"/>
		</g>
	</g>
	<g>
		<g>
			<path fill="#D8D8D8" d="M152.8,92c2.5,1.9,5.8,1.3,8.7,0.5c2.5-0.6,5-1.7,5.7-4.4c0.3-1-1.3-1.4-1.6-0.4c-1,4-9.3,4.9-12.1,3.2
				C152.8,90.3,152.2,91.5,152.8,92L152.8,92z"/>
		</g>
	</g>
	<g>
		<g>
			<path fill="#898989" d="M165.1,94.2c1.6-0.9,1.8-1.6,1.9-3.4c0-1.2,0.3-2.7,0-3.9c-0.2-0.9-1.3-2.2-2.3-2.3
				c-0.7-0.1-1.5,0.7-2.1,1c-1.1,0.6-2.2,1.2-3.3,1.9c-0.8,0.5-0.1,1.7,0.7,1.2c1.6-0.9,3.3-1.9,4.9-2.8c-0.2,0-0.5,0-0.7,0
				c1,0.5,1.4,1.2,1.4,2c0.1,1.6,0.3,4.2-1.2,5.2C163.8,93.5,164.4,94.6,165.1,94.2L165.1,94.2z"/>
		</g>
	</g>
	<g>
		<g>
			<path fill="#898989" d="M127.3,109.3c3.6,1.1,7.6,1.1,10.7-1.4c2.5-2,3.7-5.7,2-8.6c-0.4-0.7-1.6-0.2-1.3,0.6
				c1,3,0.2,5.9-2.6,7.6c-2.5,1.5-5.7,1.4-8.4,0.8C126.9,108.2,126.6,109.1,127.3,109.3L127.3,109.3z"/>
		</g>
	</g>
	<g>
		<g>
			<path fill="#898989" d="M141.1,102.3c3.8-2.8,8.6-4.2,12.7-6.5c0.8-0.5,0.1-1.6-0.7-1.2c-4.2,1.9-9,4-12.6,6.9
				C140,101.8,140.6,102.7,141.1,102.3L141.1,102.3z"/>
		</g>
	</g>
	<g>
		<g>
			<path fill="#898989" d="M152.9,95.7c3.9,2,8.5,0.9,12.1-1.2c0.8-0.5,0.1-1.7-0.8-1.3c-3.5,1.8-7.1,2.9-10.9,1.4
				C152.8,94.4,152.3,95.4,152.9,95.7L152.9,95.7z"/>
		</g>
	</g>
	<g>
		<g>
			<path fill="#96866E" d="M75.4,86.5C61.1,84.2,47.2,83.4,35,74.8c-0.8-0.6-1.6,0.8-0.8,1.4c11.9,8.4,26.7,10.7,41.1,11.6
				C75.9,87.8,76.1,86.6,75.4,86.5L75.4,86.5z"/>
		</g>
	</g>
	<g>
		<g>
			<path fill="#753121" d="M46.9,79.8c0-0.1,0.1-0.1,0.1-0.2c0.1-0.2,0.1-0.7-0.1-0.8c-2.7-2.1-6.6,1.8-7.5,4.1
				c-1.3,3.2-1.2,6.9,2.7,7.6c0.9,0.2,1.3-1.2,0.4-1.4c-2.8-0.7-2.6-3.4-1.7-5.5c0.4-0.9,0.9-1.8,1.6-2.4c0.3-0.2,3.2-1.6,3.3-1.5
				C45.8,80.2,46.6,80.2,46.9,79.8L46.9,79.8z"/>
		</g>
	</g>
</g>
</svg>
