<svg xmlns="http://www.w3.org/2000/svg" viewBox="0 0 180 120" enable-background="new 0 0 180 120"><g><ellipse fill="#E2E2E2" cx="89.5" cy="71.4" rx="74.8" ry="29.5"/><path fill="#EAD5B0" d="M14.9 52.2s21.8-3.5 35.4-10.5 28.2-12.8 28.2-12.8 2.1 12 13.1 12 29.7-3.5 40.3 6.3 19.9 15.4 19.9 15.4l9.8-.7s7.7 4.5 6.3 7.5c-1.4 3-2.3 4.2-2.3 4.2s-10.4-1.3-26.3 6.8-28.5 15.3-28.5 15.3-3.9 5.2-14.5-1.2S82.1 77.4 67.7 76s-34.4 4.8-41.9-2c-7.6-6.9-11.6-8.6-10.9-21.8z"/><path fill="#F4E1C6" d="M119.8 47.2c-1.1-2.9-3.4-5.4-6.3-6.3-1.7-.5-3.4-.4-5.2-.4-2.9.1-5.9.4-8.8.7-3.4.4-7 .9-10.3-.1-2.6-.8-4.9-2.4-7.4-3.6-6.7-3.2-14.4-2.7-21.7-.5-2.3 1.2-4.6 2.4-6.9 3.5-2.3 1.1-4.7 2.5-7.2 3-1.6 1-3.1 2.2-4.5 3.5-3.4 3.2-6.1 7.2-7.1 11.8-1.3 6.3.7 12.7 3 18.7 6.9-.6 13.8-1.1 20.7-1.7 2.4-.2 4.7-.4 7.1-.3 5.9.3 11.6 2.8 16.4 6.3.7.5 1.5 1.1 2.4 1.3.7.2 1.4.1 2.2 0 6.7-1 13.5-2.5 19.5-5.7s11.2-8.2 13.6-14.6c.8-2.1 1.2-4.4 1.5-6.7.2-2.9.2-6.1-1-8.9zM166.3 66.7c.3-1.7-.9-3.3-2.5-4-1.6-.7-3.4-.5-5-.3-8.7 1.1-17 4.3-24.9 8.3s-15.3 8.6-23.1 12.6c.9.7 1.7 1.7 2.3 2.8 13.3-8.4 27.2-16.9 42.9-18.6 3.3-.5 6.8-.5 10.3-.8z"/><path fill="#D3BD9B" d="M111.7 95.3c-1 1.2-2.6 1.7-4.1 1.9-1.5.2-3.1.1-4.7.3 2.3-.8 4.1-2.9 4.5-5.2.4-2.4-.6-5-2.5-6.5C113 77 123.2 70 134.3 65.5c3-1.2 6.1-2.2 9.3-3.3 1.2-.4 2.4-.8 3.7-.8s2.6.6 3.2 1.7c-4.4 3.2-9.9 4.5-14.9 6.6-5.7 2.3-11 5.4-16.2 8.6-2.9 1.7-5.8 3.5-8.8 5.2 2.2 1.5 2.4 4.6 2.3 7.2-.1 1.7-.2 3.4-1.2 4.6z"/><path fill="#FFEDD7" d="M91.3 82.4c5-1.4 10-2.8 14.4-5.6 3.3-2.1 6-4.9 8.5-7.9.7-.9 1.4-1.8 2.1-2.8 3.3-5.1 3.9-11.5 4-17.7.8 3.4 1.2 6.9.7 10.3-.5 3.4-1.9 6.8-4.2 9.3-.7.8-1.5 1.5-2.2 2.4l-1.8 2.1c-2.2 2.5-5 4.4-8 5.8-3 1.4-6.2 2.4-9.3 3.4"/><path fill="#FFEDD7" d="M135.7 73.9c-6.2 3.1-12.5 6.1-18.4 9.8 1.5-1.3 3.1-2.4 4.7-3.4 1.3-.8 2.6-1.5 3.9-2.2 7.2-4 14.6-8.1 22.8-9.3-4.5.9-8.8 3-13 5.1z"/></g><g><path fill="#96866E" d="M14.8 52.5c11-.4 22.1-4.8 32.3-8.8 10.8-4.2 21.4-9.2 31.9-14.1.9-.4.1-1.8-.8-1.4-10.4 4.9-20.8 9.8-31.5 14-10.1 4-21 8.4-31.9 9.1-.7.1-.8 1.2 0 1.2zM14.2 52c-1.6 9.7 3.5 19.5 12.6 23.6 13.2 5.9 27.8-.7 41.4 1.6 8.1 1.3 14.2 6.2 20.1 11.7 4 3.7 8.2 8.4 13.7 9.7 9.5 2.2 14.9-8.4 9-15.5-.8-1-2.1.4-1.4 1.4 3.5 4.3 2 10.6-3.5 12-3.6.9-6.6-.7-9.4-2.8-4-3-7.4-6.7-11.2-9.9-6.6-5.5-13.7-8.8-22.4-9-10-.2-20 2.7-29.9.8-11.5-2.2-18.7-11.8-17.6-23.4.1-.8-1.2-1-1.4-.2zM77.8 29.3C79.3 35 82.2 39 87.9 41c8 2.9 16.5 0 24.7 0 9.6 0 19.6 6.3 25.9 13.2 4.2 4.5 8.7 8.9 15.1 9.7 1 .1 1.2-1.6.2-1.8-7.7-1.6-11.3-7.2-16.8-12.2-4.5-4.1-10.6-7.9-16.4-9.7-14.1-4.6-35 8.2-41.5-11.3-.1-.9-1.6-.6-1.3.4zM110.3 83.9c7.8-4.1 15.5-8.5 23.6-12.3 8.6-4 18.1-8.6 27.8-8.8 1.1 0 1.1-1.7 0-1.7-8.8-.1-17.5 3.9-25.3 7.5-9.2 4.1-18.1 9-26.7 14.1-.9.4-.2 1.6.6 1.2zM161.4 62.3c1.8 1 3.3 2.2 4.4 3.9.6 1 1.4 2.3 1.1 3.5-.2 1.1-1.3 2.4-2 3.2-.6.8.5 2 1.2 1.2 1.9-2.2 3.2-4.5 1.9-7.3-1.2-2.7-3.5-4.7-6.2-5.8-.6-.2-1.1 1-.4 1.3zM107.4 97.9c9-3.7 16.7-9.6 25.4-13.9 4.9-2.4 10.1-4.2 15.3-5.9 5.4-1.7 11.1-4 16.9-3.8 1 0 1-1.5 0-1.6-4.8-.3-9.3 1.3-13.8 2.7-5.1 1.6-10.1 3.2-15 5.3C126 85.2 117 92 106.9 96.8c-.6.3-.1 1.4.5 1.1zM30.5 59.9c1.1 2.7 3.4 5.3 6.1 6.5 1 .4 1.8-.9.9-1.5-2.4-1.5-4.1-3.1-5.5-5.6-.5-.7-1.8-.2-1.5.6zM38.2 58.2c.7 1.8 2.3 3.4 4.1 4 .8.3 1.3-1 .6-1.4-.7-.4-1.4-.8-2-1.3-.6-.5-1-1.2-1.5-1.8-.4-.6-1.5-.3-1.2.5zM38.6 58.1c1.5.7 3 1.4 4.6 1.8 1.2.3 2.5.7 3.5-.2.8-.6-.2-1.7-1-1.3-.8.4-2.5-.2-3.3-.4-1-.3-2.1-.6-3.1-1-.8-.4-1.5.7-.7 1.1zM43.3 55.1c.7 1.6 1.3 3.9 3.1 4.5.7.3 1.4-.8.8-1.3-.6-.5-1.1-1-1.5-1.7-.4-.7-.7-1.4-1.1-2.1-.5-.5-1.6-.1-1.3.6zM47.3 54.3c1.3 1.7 3.4 3.5 5.7 2.8.8-.3.7-1.7-.2-1.6-1.9.1-3.1-.8-4.4-2-.6-.5-1.6.2-1.1.8zM52.4 52.3h.1-.6c.2.1.3 1.5.3 1.7.1.6.1 1.2.2 1.8.1.8 1.4.6 1.4-.2 0-.9-.4-5.4-2.1-4.3-.6.3 0 1.3.7 1zM56.3 48.4c-.9.2-1 1.4-1.1 2.2-.1.9.2 1.9.8 2.6 1.1 1.2 3.2 1.5 4.5.4 1.3-1 1.6-3 .7-4.4-.9-1.4-3.1-2-4.5-1-.9.6-.1 1.9.9 1.5 1.5-.7 3.3.9 2 2.4-.5.6-1.3.6-2 .3-.4-.2-.7-.6-.8-1.1-.1-.4-.1-1.3.1-1.7-.1.1-.3.2-.4.3h.1c1-.3.6-1.7-.3-1.5zM62.1 46.9c.9 1.2 2.1 2.2 3.5 2.8 1.1.5 1.8-1.1.7-1.5C65 47.7 64 47 63.2 46c-.5-.6-1.6.2-1.1.9zM69.4 41.9c-2.4.2-3.2 3.2-1.8 4.9 1.4 1.7 4.4 1.5 5.3-.6.4-.9-.8-1.6-1.3-.8-.6.9-1.8 1.3-2.6.4-1-1.1-.2-2.2.8-2.8.3-.2.2-1.1-.4-1.1zM72 41.1c.5.9 1.1 1.8 1.7 2.7.4.6.8 1.4 1.4 1.8 1.3.8 3-.5 4-1.4.7-.6-.2-1.8-1-1.3-.4.3-.8.6-1.3.9-.7.4-1 .5-1.5-.2-.8-1-1.5-2.1-2.2-3.1-.5-.7-1.5-.2-1.1.6zM74.5 43.1c.8-.5 1.4-1.1 1.9-1.8.5-.8-.8-1.6-1.3-.8-.4.6-.8 1.1-1.3 1.4-.7.5-.1 1.6.7 1.2zM73.1 41.2c.6-.4 1.2-.7 1.8-1.1.8-.5 0-1.9-.8-1.3-.6.4-1.2.8-1.7 1.2-.8.5-.1 1.7.7 1.2zM57 65.4c-1.9-.1-4.6 2.8-2.6 4.3 1.1.8 2.5.5 3.7.1.9-.3 1.9-.6 2.8-.9.1 0 1.1-.4 1.1-.4.1.3-1.1.8-1.3.9-.9.4-.2 1.7.6 1.5 1.5-.3 3.6-2.7 1.6-3.9-1-.6-2.4.2-3.3.6-.7.3-1.5.5-2.2.8-.7.2-.7.3-1.4-.1-.6-.1-.8-.2-.5-.5.3-.5.8-.8 1.4-1 1-.1 1-1.4.1-1.4zM54.4 67.3c2.3.8 4.5 1.6 6.7 2.5.8.3 1.4-1.1.6-1.4-2.3-1-4.6-1.7-7-2.3-.7-.2-1 .9-.3 1.2zM61.7 63.9c1.5-2 1.8.8 2 1.4.1.4.1.8.3 1.1.3.6.9 1.1 1.5 1.3 1.3.5 3.3.1 4-1.2.7-1.2-.6-1.9-1.6-2.3-.8-.3-1.7-.4-2.6-.4-.4 0-.8 0-1.2.1-.1 0-2.1.4-2 .2.4-.9-1-1.4-1.5-.6-.7 1.1.1 2.3 1.2 2.5 1 .2 2-.3 3-.4.6 0 1.2 0 1.7.1.3.1.6.1.9.3.8.3.9.4.3.3-1 .4-2-.2-2.3-1.1-.1-.5-.1-1-.3-1.5-.2-.6-.6-1.1-1.2-1.3-1.3-.7-2.6-.1-3.4 1.1-.4.4.7 1 1.2.4zM66.4 60.6c-1.2 1 .4 2.7 1.3 3.2 1.4.8 3.1.8 4.5 0 1.6-.9 1.3-2.9.1-4-1.5-1.4-3.7-1.4-5.4-.6-1 .4-.6 2 .5 1.7.9-.3 1.9-.5 2.8-.2.8.2 2.2 1.1 1.2 1.9-.6.4-1.5.4-2.2.2-.3-.1-.6-.2-.9-.4-.1-.1-1-.8-.9-.9.4-.7-.3-1.5-1-.9zM72.8 57.6c-1.4 2.8 3.1 5.2 5.1 3.3 1.2-1.2.3-2.6-.6-3.6-1-1.1-2.7-2-4.1-1-.8.5-.3 1.9.7 1.6.6-.2 1.1-.2 1.7.2.3.2 1.4 1.1 1.4 1.6-.1.9-3.7.2-2.9-1.4.2-.8-.9-1.5-1.3-.7zM79.9 59.1c.1.3.1.5.3.8.4.7 1.5.2 1.3-.5-.1-.3-.2-.5-.3-.8-.4-.8-1.5-.3-1.3.5zM81 55.1c.7 1.5 2.3 2.7 4 2.3 1.6-.4 2.8-1.9 2.3-3.6-.5-1.8-2.4-3-4.2-2.7-1.8.3-2.9 2.1-2.1 3.8.4.9 1.9.3 1.6-.7-.6-2 3.3-1.5 3.1.5-.1.9-1 1.3-1.8 1.2-.9-.1-1.5-.8-1.9-1.5-.3-.8-1.4-.1-1 .7zM87 50.7c1 1.4 2.6 2.3 4.3 2.3 1.6 0 3.2-1.1 2.5-2.9-.6-1.7-2.7-2.5-4.4-2.3-1.7.1-3.4 1.4-2.5 3.2.4.9 1.8.3 1.6-.7-.2-.9 1.8-.7 2.2-.6.6.1 2.3 1 1.2 1.6-1.2.7-3.1-.6-3.9-1.4-.6-.4-1.4.2-1 .8zM95.4 49.5c1.3.6 3.6.7 4.3-1 .7-1.7-1.4-3-2.6-3.6-1.4-.6-3.2-.9-4.1.6-.9 1.6.2 3.3 1.6 4.1.8.5 1.8-.7 1.1-1.4-.4-.4-1.2-1-1.1-1.6.2-.7 1.2-.2 1.7-.1.4.2 1.4.6 1.6 1 .5 1.1-1.7.6-2.1.5-.9-.2-1.2 1.2-.4 1.5zM75.5 71.7c2.6-2.1 6.5-3 9.4-4.9 3.5-2.3 7.2-4.4 10.8-6.5 3.3-1.9 6.8-3.2 10.2-5 3.5-1.8 6.5-4.2 10.1-5.9.9-.4.2-1.9-.7-1.6-3.8 1.5-6.8 4.1-10.4 5.9-3.7 1.9-7.4 3.4-10.9 5.6-3.8 2.3-7.4 4.7-11.2 7-2.8 1.7-5.8 2.2-8.3 4.4-.7.6.3 1.5 1 1zM86.2 73.1c5.7-3.5 11.3-7 17-10.4 5.7-3.5 12-6.2 17.6-10 .8-.5.1-1.8-.7-1.3-11.6 6.9-23.2 13.4-34.6 20.6-.7.5 0 1.5.7 1.1zM93.7 76.1c3.8-5.7 10.8-6.9 16.3-10.3 5.5-3.4 10.2-7 16.2-9.7.9-.4.2-1.9-.6-1.5-3.2 1.3-6.5 2.8-9.4 4.7-3.1 2.1-5.8 4.5-9.1 6.3-5.4 2.8-10.9 4.7-14.3 10-.6.5.4 1.1.9.5zM96.7 80.9c6.7-3.6 13.5-7.1 20-11.1 5.6-3.4 10.4-7.7 16.1-11 .9-.5.1-2-.9-1.5-5.9 3.1-10.6 7.4-16.1 10.9-6.4 4.1-13.2 7.7-19.7 11.5-.7.5-.1 1.6.6 1.2zM101.8 85.3c6.4-3.5 13.3-5.9 19.5-9.8 6.2-3.9 11.9-8.2 18.4-11.5.9-.5.1-1.8-.8-1.4-6.6 3-12.3 7.5-18.5 11.4-6.2 3.9-13 6.4-19.2 10.2-.7.4-.1 1.4.6 1.1zM106.5 90.4c1.8-1.1 3.7-1.9 5.5-3 .7-.4.2-1.7-.6-1.4-2 .8-3.7 2.1-5.5 3.3-.6.5 0 1.5.6 1.1z"/></g></svg>