<?xml version="1.0" encoding="utf-8"?>
<!-- Generator: Adobe Illustrator 18.1.1, SVG Export Plug-In . SVG Version: 6.00 Build 0)  -->
<svg version="1.1" xmlns="http://www.w3.org/2000/svg" xmlns:xlink="http://www.w3.org/1999/xlink" x="0px" y="0px"
	 viewBox="0 0 180 120" enable-background="new 0 0 180 120" xml:space="preserve">
<g id="Layer_3">
	<ellipse fill="#E2E2E2" cx="89.5" cy="86.4" rx="74.8" ry="29.5"/>
	<path fill="#CC4E48" d="M129.3,55.3c3.7-4.3,5.8-9.8,5.8-15.9c0-13.7-11.3-24.8-25.3-24.8c-8.3,0-15.7,3.9-20.3,10l2.5,0.7
		c-4.6-6.5-12.2-10.7-20.8-10.7c-14,0-25.3,11.1-25.3,24.8c0,6,2.2,11.5,5.8,15.8c0,0,33.2,37.7,38.8,37.7
		C96.8,92.9,129.3,55.3,129.3,55.3L129.3,55.3z"/>
	<path fill="#DB5A5A" d="M126.8,23.3c-2.9-4.3-7.9-6.8-13-7.7c-8.5-1.5-17.6,1.2-23.9,7l-0.4-0.1c-3.2-4.8-9.3-6.8-15.1-7.5
		c-2.6-0.3-5.8-0.4-9.1,0c-1.7,0.6-3.4,1.2-5.1,1.9c-1,0.6-2,1.2-2.9,2c-2.3,2-4.2,4.4-6.5,6.3c-1.3,5.3,1.4,10.8,7.4,12.7
		c3.6,1.1,7.6,0.9,11.3,0.3c7.9-1.2,15.8-3.8,23.7-2.5c5.9,1,11.2,4,17,5.6c5.8,1.6,12.8,1.2,16.6-3.4
		C130,33.7,129.7,27.5,126.8,23.3z"/>
	<path fill="#EA6868" d="M68.3,38.1c8.2-1.1,16.4-4.1,24.6-2.7c6.9,1.2,13,5.4,19.9,6.1c-6.3-0.3-12.2-3.5-18.4-4.5
		c-7.5-1.3-15.2,0.6-22.7,1.8c-3.3,0.5-6.7,0.8-9.8-0.5c1.1,0,2.2-0.1,3.3-0.1"/>
</g>
<g id="Layer_2">
	<g>
		<g>
			<path fill="#753121" d="M91.3,23.5c6.7-8.7,21.7-9.7,30.5-4.4c9.8,5.9,15.3,18.7,10,29.4c-4.2,8.6-12.4,16.1-19,22.9
				c-7.3,7.5-15,14.3-23.1,20.9c-1,0.8,0.4,2.2,1.4,1.4c10.9-8.7,21.1-18.3,30.3-28.7c7.3-8.2,15.7-16.8,14.1-28.6
				c-1.4-10-8.8-18.3-18.4-21.3c-8.6-2.7-21.7,0.1-27,7.8C89.7,23.5,90.8,24.1,91.3,23.5L91.3,23.5z"/>
		</g>
	</g>
	<g>
		<g>
			<path fill="#753121" d="M91.1,22.8c-5.2-7.6-17.9-10.5-26.3-8C54.9,17.6,47.1,26,45.7,36.3c-1.6,11.6,6.4,19.9,13.4,28
				c9.2,10.6,19.2,20.5,30.2,29.3c1,0.8,2.4-0.6,1.4-1.4c-7.7-6.3-15.1-13-21.9-20.2c-6.7-7-15-14.8-19.3-23.5
				c-5.2-10.5,0-22.9,9.4-29c8.9-5.7,24.2-4.8,31.1,4.1C90.4,24.1,91.6,23.5,91.1,22.8L91.1,22.8z"/>
		</g>
	</g>
</g>
</svg>
