<?xml version="1.0" encoding="utf-8"?>
<!-- Generator: Adobe Illustrator 18.1.1, SVG Export Plug-In . SVG Version: 6.00 Build 0)  -->
<svg version="1.1" xmlns="http://www.w3.org/2000/svg" xmlns:xlink="http://www.w3.org/1999/xlink" x="0px" y="0px"
	 viewBox="0 0 180 120" enable-background="new 0 0 180 120" xml:space="preserve">
<g id="Layer_3">
	<ellipse fill="#E2E2E2" cx="89.5" cy="71.4" rx="74.8" ry="29.5"/>
	<path fill="#EAD5B0" d="M14.9,52.2c0,0,21.8-3.5,35.4-10.5s28.2-12.8,28.2-12.8s2.1,12,13.1,12c11,0,29.7-3.5,40.3,6.3
		s19.9,15.4,19.9,15.4l9.8-0.7c0,0,7.7,4.5,6.3,7.5c-1.4,3-2.3,4.2-2.3,4.2s-10.4-1.3-26.3,6.8s-28.5,15.3-28.5,15.3
		s-3.9,5.2-14.5-1.2c-10.6-6.4-14.2-17.1-28.6-18.5s-34.4,4.8-41.9-2C18.2,67.1,14.2,65.4,14.9,52.2z"/>
	<path fill="#F4E1C6" d="M119.8,47.2c-1.1-2.9-3.4-5.4-6.3-6.3c-1.7-0.5-3.4-0.4-5.2-0.4c-2.9,0.1-5.9,0.4-8.8,0.7
		c-3.4,0.4-7,0.9-10.3-0.1c-2.6-0.8-4.9-2.4-7.4-3.6c-6.7-3.2-14.4-2.7-21.7-0.5c-2.3,1.2-4.6,2.4-6.9,3.5c-2.3,1.1-4.7,2.5-7.2,3
		c-1.6,1-3.1,2.2-4.5,3.5c-3.4,3.2-6.1,7.2-7.1,11.8c-1.3,6.3,0.7,12.7,3,18.7c6.9-0.6,13.8-1.1,20.7-1.7c2.4-0.2,4.7-0.4,7.1-0.3
		c5.9,0.3,11.6,2.8,16.4,6.3c0.7,0.5,1.5,1.1,2.4,1.3c0.7,0.2,1.4,0.1,2.2,0c6.7-1,13.5-2.5,19.5-5.7c6-3.2,11.2-8.2,13.6-14.6
		c0.8-2.1,1.2-4.4,1.5-6.7C121,53.2,121,50,119.8,47.2z"/>
	<path fill="#F4E1C6" d="M166.3,66.7c0.3-1.7-0.9-3.3-2.5-4c-1.6-0.7-3.4-0.5-5-0.3c-8.7,1.1-17,4.3-24.9,8.3s-15.3,8.6-23.1,12.6
		c0.9,0.7,1.7,1.7,2.3,2.8c13.3-8.4,27.2-16.9,42.9-18.6C159.3,67,162.8,67,166.3,66.7z"/>
	<path fill="#D3BD9B" d="M111.7,95.3c-1,1.2-2.6,1.7-4.1,1.9c-1.5,0.2-3.1,0.1-4.7,0.3c2.3-0.8,4.1-2.9,4.5-5.2
		c0.4-2.4-0.6-5-2.5-6.5c8.1-8.8,18.3-15.8,29.4-20.3c3-1.2,6.1-2.2,9.3-3.3c1.2-0.4,2.4-0.8,3.7-0.8s2.6,0.6,3.2,1.7
		c-4.4,3.2-9.9,4.5-14.9,6.6c-5.7,2.3-11,5.4-16.2,8.6c-2.9,1.7-5.8,3.5-8.8,5.2c2.2,1.5,2.4,4.6,2.3,7.2
		C112.8,92.4,112.7,94.1,111.7,95.3z"/>
	<path fill="#FFEDD7" d="M91.3,82.4c5-1.4,10-2.8,14.4-5.6c3.3-2.1,6-4.9,8.5-7.9c0.7-0.9,1.4-1.8,2.1-2.8c3.3-5.1,3.9-11.5,4-17.7
		c0.8,3.4,1.2,6.9,0.7,10.3c-0.5,3.4-1.9,6.8-4.2,9.3c-0.7,0.8-1.5,1.5-2.2,2.4c-0.6,0.7-1.2,1.4-1.8,2.1c-2.2,2.5-5,4.4-8,5.8
		c-3,1.4-6.2,2.4-9.3,3.4"/>
	<path fill="#FFEDD7" d="M135.7,73.9c-6.2,3.1-12.5,6.1-18.4,9.8c1.5-1.3,3.1-2.4,4.7-3.4c1.3-0.8,2.6-1.5,3.9-2.2
		c7.2-4,14.6-8.1,22.8-9.3C144.2,69.7,139.9,71.8,135.7,73.9z"/>
</g>
<g id="Layer_2">
	<g>
		<g>
			<path fill="#96866E" d="M14.8,52.5c11-0.4,22.1-4.8,32.3-8.8c10.8-4.2,21.4-9.2,31.9-14.1c0.9-0.4,0.1-1.8-0.8-1.4
				C67.8,33.1,57.4,38,46.7,42.2c-10.1,4-21,8.4-31.9,9.1C14.1,51.4,14,52.5,14.8,52.5L14.8,52.5z"/>
		</g>
	</g>
	<g>
		<g>
			<path fill="#96866E" d="M14.2,52c-1.6,9.7,3.5,19.5,12.6,23.6c13.2,5.9,27.8-0.7,41.4,1.6c8.1,1.3,14.2,6.2,20.1,11.7
				c4,3.7,8.2,8.4,13.7,9.7c9.5,2.2,14.9-8.4,9-15.5c-0.8-1-2.1,0.4-1.4,1.4c3.5,4.3,2,10.6-3.5,12c-3.6,0.9-6.6-0.7-9.4-2.8
				c-4-3-7.4-6.7-11.2-9.9c-6.6-5.5-13.7-8.8-22.4-9c-10-0.2-20,2.7-29.9,0.8c-11.5-2.2-18.7-11.8-17.6-23.4
				C15.7,51.4,14.4,51.2,14.2,52L14.2,52z"/>
		</g>
	</g>
	<g>
		<g>
			<path fill="#96866E" d="M77.8,29.3C79.3,35,82.2,39,87.9,41c8,2.9,16.5,0,24.7,0c9.6,0,19.6,6.3,25.9,13.2
				c4.2,4.5,8.7,8.9,15.1,9.7c1,0.1,1.2-1.6,0.2-1.8c-7.7-1.6-11.3-7.2-16.8-12.2c-4.5-4.1-10.6-7.9-16.4-9.7
				c-14.1-4.6-35,8.2-41.5-11.3C79,28,77.5,28.3,77.8,29.3L77.8,29.3z"/>
		</g>
	</g>
	<g>
		<g>
			<path fill="#96866E" d="M110.3,83.9c7.8-4.1,15.5-8.5,23.6-12.3c8.6-4,18.1-8.6,27.8-8.8c1.1,0,1.1-1.7,0-1.7
				c-8.8-0.1-17.5,3.9-25.3,7.5c-9.2,4.1-18.1,9-26.7,14.1C108.8,83.1,109.5,84.3,110.3,83.9L110.3,83.9z"/>
		</g>
	</g>
	<g>
		<g>
			<path fill="#96866E" d="M161.4,62.3c1.8,1,3.3,2.2,4.4,3.9c0.6,1,1.4,2.3,1.1,3.5c-0.2,1.1-1.3,2.4-2,3.2c-0.6,0.8,0.5,2,1.2,1.2
				c1.9-2.2,3.2-4.5,1.9-7.3c-1.2-2.7-3.5-4.7-6.2-5.8C161.2,60.8,160.7,62,161.4,62.3L161.4,62.3z"/>
		</g>
	</g>
	<g>
		<g>
			<path fill="#96866E" d="M107.4,97.9c9-3.7,16.7-9.6,25.4-13.9c4.9-2.4,10.1-4.2,15.3-5.9c5.4-1.7,11.1-4,16.9-3.8
				c1,0,1-1.5,0-1.6c-4.8-0.3-9.3,1.3-13.8,2.7c-5.1,1.6-10.1,3.2-15,5.3C126,85.2,117,92,106.9,96.8
				C106.3,97.1,106.8,98.2,107.4,97.9L107.4,97.9z"/>
		</g>
	</g>
	<g>
		<g>
			<path fill="#96866E" d="M30.5,59.9c1.1,2.7,3.4,5.3,6.1,6.5c1,0.4,1.8-0.9,0.9-1.5c-2.4-1.5-4.1-3.1-5.5-5.6
				C31.5,58.6,30.2,59.1,30.5,59.9L30.5,59.9z"/>
		</g>
	</g>
	<g>
		<g>
			<path fill="#96866E" d="M38.2,58.2c0.7,1.8,2.3,3.4,4.1,4c0.8,0.3,1.3-1,0.6-1.4c-0.7-0.4-1.4-0.8-2-1.3c-0.6-0.5-1-1.2-1.5-1.8
				C39,57.1,37.9,57.4,38.2,58.2L38.2,58.2z"/>
		</g>
	</g>
	<g>
		<g>
			<path fill="#96866E" d="M38.6,58.1c1.5,0.7,3,1.4,4.6,1.8c1.2,0.3,2.5,0.7,3.5-0.2c0.8-0.6-0.2-1.7-1-1.3
				c-0.8,0.4-2.5-0.2-3.3-0.4c-1-0.3-2.1-0.6-3.1-1C38.5,56.6,37.8,57.7,38.6,58.1L38.6,58.1z"/>
		</g>
	</g>
	<g>
		<g>
			<path fill="#96866E" d="M43.3,55.1c0.7,1.6,1.3,3.9,3.1,4.5c0.7,0.3,1.4-0.8,0.8-1.3c-0.6-0.5-1.1-1-1.5-1.7
				c-0.4-0.7-0.7-1.4-1.1-2.1C44.1,54,43,54.4,43.3,55.1L43.3,55.1z"/>
		</g>
	</g>
	<g>
		<g>
			<path fill="#96866E" d="M47.3,54.3c1.3,1.7,3.4,3.5,5.7,2.8c0.8-0.3,0.7-1.7-0.2-1.6c-1.9,0.1-3.1-0.8-4.4-2
				C47.8,53,46.8,53.7,47.3,54.3L47.3,54.3z"/>
		</g>
	</g>
	<g>
		<g>
			<path fill="#96866E" d="M52.4,52.3c0,0,0.1,0,0.1,0c-0.2,0-0.4,0-0.6,0c0.2,0.1,0.3,1.5,0.3,1.7c0.1,0.6,0.1,1.2,0.2,1.8
				c0.1,0.8,1.4,0.6,1.4-0.2c0-0.9-0.4-5.4-2.1-4.3C51.1,51.6,51.7,52.6,52.4,52.3L52.4,52.3z"/>
		</g>
	</g>
	<g>
		<g>
			<path fill="#96866E" d="M56.3,48.4c-0.9,0.2-1,1.4-1.1,2.2c-0.1,0.9,0.2,1.9,0.8,2.6c1.1,1.2,3.2,1.5,4.5,0.4
				c1.3-1,1.6-3,0.7-4.4c-0.9-1.4-3.1-2-4.5-1c-0.9,0.6-0.1,1.9,0.9,1.5c1.5-0.7,3.3,0.9,2,2.4c-0.5,0.6-1.3,0.6-2,0.3
				c-0.4-0.2-0.7-0.6-0.8-1.1c-0.1-0.4-0.1-1.3,0.1-1.7c-0.1,0.1-0.3,0.2-0.4,0.3c0,0,0.1,0,0.1,0C57.6,49.6,57.2,48.2,56.3,48.4
				L56.3,48.4z"/>
		</g>
	</g>
	<g>
		<g>
			<path fill="#96866E" d="M62.1,46.9c0.9,1.2,2.1,2.2,3.5,2.8c1.1,0.5,1.8-1.1,0.7-1.5C65,47.7,64,47,63.2,46
				C62.7,45.4,61.6,46.2,62.1,46.9L62.1,46.9z"/>
		</g>
	</g>
	<g>
		<g>
			<path fill="#96866E" d="M69.4,41.9c-2.4,0.2-3.2,3.2-1.8,4.9c1.4,1.7,4.4,1.5,5.3-0.6c0.4-0.9-0.8-1.6-1.3-0.8
				c-0.6,0.9-1.8,1.3-2.6,0.4c-1-1.1-0.2-2.2,0.8-2.8C70.1,42.8,70,41.9,69.4,41.9L69.4,41.9z"/>
		</g>
	</g>
	<g>
		<g>
			<path fill="#96866E" d="M72,41.1c0.5,0.9,1.1,1.8,1.7,2.7c0.4,0.6,0.8,1.4,1.4,1.8c1.3,0.8,3-0.5,4-1.4c0.7-0.6-0.2-1.8-1-1.3
				c-0.4,0.3-0.8,0.6-1.3,0.9c-0.7,0.4-1,0.5-1.5-0.2c-0.8-1-1.5-2.1-2.2-3.1C72.6,39.8,71.6,40.3,72,41.1L72,41.1z"/>
		</g>
	</g>
	<g>
		<g>
			<path fill="#96866E" d="M74.5,43.1c0.8-0.5,1.4-1.1,1.9-1.8c0.5-0.8-0.8-1.6-1.3-0.8c-0.4,0.6-0.8,1.1-1.3,1.4
				C73.1,42.4,73.7,43.5,74.5,43.1L74.5,43.1z"/>
		</g>
	</g>
	<g>
		<g>
			<path fill="#96866E" d="M73.1,41.2c0.6-0.4,1.2-0.7,1.8-1.1c0.8-0.5,0-1.9-0.8-1.3c-0.6,0.4-1.2,0.8-1.7,1.2
				C71.6,40.5,72.3,41.7,73.1,41.2L73.1,41.2z"/>
		</g>
	</g>
	<g>
		<g>
			<path fill="#96866E" d="M57,65.4c-1.9-0.1-4.6,2.8-2.6,4.3c1.1,0.8,2.5,0.5,3.7,0.1c0.9-0.3,1.9-0.6,2.8-0.9
				c0.1,0,1.1-0.4,1.1-0.4c0.1,0.3-1.1,0.8-1.3,0.9c-0.9,0.4-0.2,1.7,0.6,1.5c1.5-0.3,3.6-2.7,1.6-3.9c-1-0.6-2.4,0.2-3.3,0.6
				c-0.7,0.3-1.5,0.5-2.2,0.8c-0.7,0.2-0.7,0.3-1.4-0.1c-0.6-0.1-0.8-0.2-0.5-0.5c0.3-0.5,0.8-0.8,1.4-1
				C57.9,66.7,57.9,65.4,57,65.4L57,65.4z"/>
		</g>
	</g>
	<g>
		<g>
			<path fill="#96866E" d="M54.4,67.3c2.3,0.8,4.5,1.6,6.7,2.5c0.8,0.3,1.4-1.1,0.6-1.4c-2.3-1-4.6-1.7-7-2.3
				C54,65.9,53.7,67,54.4,67.3L54.4,67.3z"/>
		</g>
	</g>
	<g>
		<g>
			<path fill="#96866E" d="M61.7,63.9c1.5-2,1.8,0.8,2,1.4c0.1,0.4,0.1,0.8,0.3,1.1c0.3,0.6,0.9,1.1,1.5,1.3c1.3,0.5,3.3,0.1,4-1.2
				c0.7-1.2-0.6-1.9-1.6-2.3c-0.8-0.3-1.7-0.4-2.6-0.4c-0.4,0-0.8,0-1.2,0.1c-0.1,0-2.1,0.4-2,0.2c0.4-0.9-1-1.4-1.5-0.6
				c-0.7,1.1,0.1,2.3,1.2,2.5c1,0.2,2-0.3,3-0.4c0.6,0,1.2,0,1.7,0.1c0.3,0.1,0.6,0.1,0.9,0.3c0.8,0.3,0.9,0.4,0.3,0.3
				c-1,0.4-2-0.2-2.3-1.1c-0.1-0.5-0.1-1-0.3-1.5c-0.2-0.6-0.6-1.1-1.2-1.3c-1.3-0.7-2.6-0.1-3.4,1.1C60.1,63.9,61.2,64.5,61.7,63.9
				L61.7,63.9z"/>
		</g>
	</g>
	<g>
		<g>
			<path fill="#96866E" d="M66.4,60.6c-1.2,1,0.4,2.7,1.3,3.2c1.4,0.8,3.1,0.8,4.5,0c1.6-0.9,1.3-2.9,0.1-4
				c-1.5-1.4-3.7-1.4-5.4-0.6c-1,0.4-0.6,2,0.5,1.7c0.9-0.3,1.9-0.5,2.8-0.2c0.8,0.2,2.2,1.1,1.2,1.9c-0.6,0.4-1.5,0.4-2.2,0.2
				c-0.3-0.1-0.6-0.2-0.9-0.4c-0.1-0.1-1-0.8-0.9-0.9C67.8,60.8,67.1,60,66.4,60.6L66.4,60.6z"/>
		</g>
	</g>
	<g>
		<g>
			<path fill="#96866E" d="M72.8,57.6c-1.4,2.8,3.1,5.2,5.1,3.3c1.2-1.2,0.3-2.6-0.6-3.6c-1-1.1-2.7-2-4.1-1
				c-0.8,0.5-0.3,1.9,0.7,1.6c0.6-0.2,1.1-0.2,1.7,0.2c0.3,0.2,1.4,1.1,1.4,1.6c-0.1,0.9-3.7,0.2-2.9-1.4
				C74.3,57.5,73.2,56.8,72.8,57.6L72.8,57.6z"/>
		</g>
	</g>
	<g>
		<g>
			<path fill="#96866E" d="M79.9,59.1c0.1,0.3,0.1,0.5,0.3,0.8c0.4,0.7,1.5,0.2,1.3-0.5c-0.1-0.3-0.2-0.5-0.3-0.8
				C80.8,57.8,79.7,58.3,79.9,59.1L79.9,59.1z"/>
		</g>
	</g>
	<g>
		<g>
			<path fill="#96866E" d="M81,55.1c0.7,1.5,2.3,2.7,4,2.3c1.6-0.4,2.8-1.9,2.3-3.6c-0.5-1.8-2.4-3-4.2-2.7
				c-1.8,0.3-2.9,2.1-2.1,3.8c0.4,0.9,1.9,0.3,1.6-0.7c-0.6-2,3.3-1.5,3.1,0.5c-0.1,0.9-1,1.3-1.8,1.2c-0.9-0.1-1.5-0.8-1.9-1.5
				C81.7,53.6,80.6,54.3,81,55.1L81,55.1z"/>
		</g>
	</g>
	<g>
		<g>
			<path fill="#96866E" d="M87,50.7c1,1.4,2.6,2.3,4.3,2.3c1.6,0,3.2-1.1,2.5-2.9c-0.6-1.7-2.7-2.5-4.4-2.3
				c-1.7,0.1-3.4,1.4-2.5,3.2c0.4,0.9,1.8,0.3,1.6-0.7c-0.2-0.9,1.8-0.7,2.2-0.6c0.6,0.1,2.3,1,1.2,1.6c-1.2,0.7-3.1-0.6-3.9-1.4
				C87.4,49.5,86.6,50.1,87,50.7L87,50.7z"/>
		</g>
	</g>
	<g>
		<g>
			<path fill="#96866E" d="M95.4,49.5c1.3,0.6,3.6,0.7,4.3-1c0.7-1.7-1.4-3-2.6-3.6c-1.4-0.6-3.2-0.9-4.1,0.6
				c-0.9,1.6,0.2,3.3,1.6,4.1c0.8,0.5,1.8-0.7,1.1-1.4c-0.4-0.4-1.2-1-1.1-1.6c0.2-0.7,1.2-0.2,1.7-0.1c0.4,0.2,1.4,0.6,1.6,1
				c0.5,1.1-1.7,0.6-2.1,0.5C94.9,47.8,94.6,49.2,95.4,49.5L95.4,49.5z"/>
		</g>
	</g>
	<g>
		<g>
			<path fill="#96866E" d="M75.5,71.7c2.6-2.1,6.5-3,9.4-4.9c3.5-2.3,7.2-4.4,10.8-6.5c3.3-1.9,6.8-3.2,10.2-5
				c3.5-1.8,6.5-4.2,10.1-5.9c0.9-0.4,0.2-1.9-0.7-1.6c-3.8,1.5-6.8,4.1-10.4,5.9c-3.7,1.9-7.4,3.4-10.9,5.6
				c-3.8,2.3-7.4,4.7-11.2,7C80,68,77,68.5,74.5,70.7C73.8,71.3,74.8,72.2,75.5,71.7L75.5,71.7z"/>
		</g>
	</g>
	<g>
		<g>
			<path fill="#96866E" d="M86.2,73.1c5.7-3.5,11.3-7,17-10.4c5.7-3.5,12-6.2,17.6-10c0.8-0.5,0.1-1.8-0.7-1.3
				C108.5,58.3,96.9,64.8,85.5,72C84.8,72.5,85.5,73.5,86.2,73.1L86.2,73.1z"/>
		</g>
	</g>
	<g>
		<g>
			<path fill="#96866E" d="M93.7,76.1c3.8-5.7,10.8-6.9,16.3-10.3c5.5-3.4,10.2-7,16.2-9.7c0.9-0.4,0.2-1.9-0.6-1.5
				c-3.2,1.3-6.5,2.8-9.4,4.7c-3.1,2.1-5.8,4.5-9.1,6.3c-5.4,2.8-10.9,4.7-14.3,10C92.2,76.1,93.2,76.7,93.7,76.1L93.7,76.1z"/>
		</g>
	</g>
	<g>
		<g>
			<path fill="#96866E" d="M96.7,80.9c6.7-3.6,13.5-7.1,20-11.1c5.6-3.4,10.4-7.7,16.1-11c0.9-0.5,0.1-2-0.9-1.5
				c-5.9,3.1-10.6,7.4-16.1,10.9c-6.4,4.1-13.2,7.7-19.7,11.5C95.4,80.2,96,81.3,96.7,80.9L96.7,80.9z"/>
		</g>
	</g>
	<g>
		<g>
			<path fill="#96866E" d="M101.8,85.3c6.4-3.5,13.3-5.9,19.5-9.8c6.2-3.9,11.9-8.2,18.4-11.5c0.9-0.5,0.1-1.8-0.8-1.4
				c-6.6,3-12.3,7.5-18.5,11.4c-6.2,3.9-13,6.4-19.2,10.2C100.5,84.6,101.1,85.6,101.8,85.3L101.8,85.3z"/>
		</g>
	</g>
	<g>
		<g>
			<path fill="#96866E" d="M106.5,90.4c1.8-1.1,3.7-1.9,5.5-3c0.7-0.4,0.2-1.7-0.6-1.4c-2,0.8-3.7,2.1-5.5,3.3
				C105.3,89.8,105.9,90.8,106.5,90.4L106.5,90.4z"/>
		</g>
	</g>
</g>
</svg>
