<?xml version="1.0" encoding="utf-8"?>
<!-- Generator: Adobe Illustrator 18.1.1, SVG Export Plug-In . SVG Version: 6.00 Build 0)  -->
<svg version="1.1" xmlns="http://www.w3.org/2000/svg" xmlns:xlink="http://www.w3.org/1999/xlink" x="0px" y="0px"
	 viewBox="0 0 180 120" enable-background="new 0 0 180 120" xml:space="preserve">
<g id="Layer_3">
	<ellipse fill="#E2E2E2" cx="94" cy="89.5" rx="59.2" ry="19.3"/>
	<path fill="#AE3A30" d="M69.8,35.3c0,0-11.5,14.8-13.1,20.1c-1.7,5.4,0,34.5,0,34.5s14.2,7,18.8,7.4c4.7,0.5,54.1,0,54.1,0L133,56
		l-17.8-20.2c0,0-5.9-3.2-23.5-2.1C74.1,34.8,69.8,35.3,69.8,35.3z"/>
	<path fill="#FFCF48" d="M69.8,35.3c0,0,1-19.5,12.9-19.5s9.7,9.5,9.7,9.5s2.7-10.7,10.7-10.7s11,8.9,10.5,19.8l-5.2-1
		c0,0-1.9-6.1-5.2-6.1c-3.3,0-4.1,5.8-4.1,5.8l-13,0.5c0,0,1.1-6.8-3.4-6.4c-4.5,0.4-3.8,7-3.8,7L69.8,35.3z"/>
	<path fill="#FFCF48" d="M84.7,80.8l-2.1,3.3l8,4.5l2.2-2.2L90,84.8c0,0,2.5-14.3,14.2-16C115.8,67,117,81.8,117,81.8l-1.7,2.8
		l1.7,2.5l7.8-3.8l-1-2.5l-2.3,0.5c0,0-4.5-17.4-16.8-16.5s-17,17.5-17,17.5L84.7,80.8z"/>
	<path fill="#99312B" d="M69.2,36.1l-1.7,14.4l7.8,7.8C75.3,58.3,71.4,36.9,69.2,36.1z"/>
	<path fill="#C94039" d="M68,37l-0.5,13.5L55.8,57C55.8,57,65.3,38.7,68,37z"/>
	<path fill="#C94039" d="M70.4,36.1l5.3,21.3c0,0,35.4-2.1,56.2-1.5c0,0,1.2-2.7-17.8-20.6c0,0-2.2-3.2-19.9-2
		C76.5,34.5,70.4,36.1,70.4,36.1z"/>
	<path fill="#C94039" d="M94.2,33.3c0,0-20.7,0.6-23.8,2.8"/>
	<path fill="#E25350" d="M73.7,46.3c2.2,2,5.3,2.8,8.2,3.3c7,1.2,14.1,1.5,21.1,0.9c2.9-0.2,5.8-0.6,8.4-1.9
		c3.3-1.6,5.8-4.4,8.1-7.1c-1.9-2.6-3.9-5.2-6.8-6.6c-1.6-0.7-3.3-1-5.1-1.2c-3.8-0.5-7.5-0.6-11.3-0.4c-3.8,0.2-7.5,0.7-11.3,0.8
		c-4.4,0.1-9.1-0.3-13.1,1.6c-0.3,0.1-0.5,0.3-0.7,0.5c-0.1,0.2-0.1,0.5-0.2,0.7c-0.1,1.9,0.2,3.9,0.7,5.7"/>
	<path fill="#99312B" d="M90.4,84.3c0.3,0.7,1.3,0.9,1.7,1.5c0.5,0.7,0.1,1.7-0.7,2.1c-0.7,0.4-1.6,0.3-2.4,0.1
		c-1.1-0.4-2-1.1-2.7-2c-0.3,0.5-0.6,1-0.9,1.5c1.3,1.5,2.9,2.6,4.7,3.3c0.2,0.1,0.5,0.2,0.7,0.1c0.3,0,0.6-0.2,0.9-0.5
		c0.8-0.6,1.6-1.3,2.3-1.9c-1.3-0.3-2.2-1.7-2.3-3.1s0.4-2.7,0.9-4c0.9-2.3,2-4.6,3.5-6.6s3.5-3.6,5.9-4.4c4-1.2,8.7,0.5,10.9,4
		c1.6,2.5,2,5.5,3.2,8.1c-0.9,0.6-1.9,1.3-2.2,2.3c-0.6,1.6,0.4,3.2,1.4,4.6c2.6-1.5,5.3-2.9,8.1-4.1c0-0.5-0.5-0.8-1-0.8
		c-0.5,0-0.9,0.2-1.4,0.5c-1.2,0.7-2.4,1.5-3.8,1.5c-1.4,0-2.7-1.5-2.1-2.7c0.2-0.4,0.6-0.6,0.8-0.9c1.3-1.5,0.6-3.8-0.2-5.7
		c-1.1-2.6-2.4-5.3-4.8-6.8c-1.6-1-3.4-1.3-5.2-1.5c-1.9-0.2-4-0.3-5.8,0.4c-1.7,0.7-3.1,2-4.4,3.4c-2.7,3-4.9,6.6-5.4,10.6
		C90.3,83.7,90.3,84,90.4,84.3z"/>
	<path fill="#FFDA7D" d="M70.1,32.2c1.1-2.8,2.5-5.4,4.7-7.5s5.1-3.4,8-3.2c2.1,0.1,4.2,1,5.8,2.4c1.2,1,2.2,2.3,3.8,2.7
		c1.4,0.4,2.9-0.1,4.1-0.9c1.2-0.7,2.3-1.7,3.6-2.4c4-2.3,9.6-1.4,12.6,2c0.5-3.5-1.4-7.1-4.3-9c-3-1.9-6.8-2.2-10.2-1.1
		c-1,0.3-2,0.7-2.7,1.5c-1.7,1.8-1.4,4.7-2.9,6.6c-1.5-3.7-5.1-6.5-9.1-7s-8.2,1.4-10.4,4.7c-1.6,2.4-2.3,5.3-2.9,8.1"/>
	<path fill="#FFE8BB" d="M82.7,21.4c2.5,0.3,4.9,1.4,6.9,3c0.8,0.7,1.6,1.6,2.7,1.9c1.1,0.3,2.3,0,3.3-0.5s1.9-1.3,2.8-1.9
		c1.3-0.8,2.8-1.4,4.3-1.7c-1.8,0.3-3.3,1.6-4.8,2.8c-1.5,1.1-3.1,2.3-5,2.2c-2,0-3.7-1.4-5.2-2.8C86.3,23.2,84.7,21.7,82.7,21.4z"
		/>
</g>
<g id="Layer_2">
	<g>
		<g>
			<path fill="#B2914F" d="M70.5,35.3c0-5.7,1-11.8,5.4-15.7c5.7-5,16.1-3.1,15.6,5.8c-0.1,0.9,1.5,1.2,1.7,0.2
				c0.6-3.3,1.1-5.9,3.7-8.2c2.5-2.1,6.6-2.5,9.8-1.1c6.8,2.9,5.6,11.9,6.1,18.1c0.1,1.1,1.8,1.1,1.7,0c-0.5-7.7,0.7-18-8.7-20.1
				C97,12.5,93,17,91.6,25.2c0.6,0.1,1.1,0.1,1.7,0.2c0.5-7.1-6.2-11.7-12.9-10c-8.8,2.2-11.5,12-11.3,19.9
				C69.1,36.3,70.5,36.3,70.5,35.3L70.5,35.3z"/>
		</g>
	</g>
	<g>
		<g>
			<path fill="#B2914F" d="M79.5,33.8c0.4-2,0.7-5,3.1-5.6c3.1-0.8,2.6,3.6,2.8,5.5c0.1,1,1.5,1,1.5,0c0-2.8,0-7.3-3.9-7.2
				c-3.6,0.1-4.6,4.3-4.6,7.2C78.3,34.3,79.4,34.5,79.5,33.8L79.5,33.8z"/>
		</g>
	</g>
	<g>
		<g>
			<path fill="#B2914F" d="M99.8,32.9c1-1.8,0.6-4.7,3.4-4.7c2.8,0,3.5,3,3.3,5.1c-0.1,0.9,1.4,1.1,1.6,0.2c0.6-3-0.9-6.4-4.1-6.9
				c-1.4-0.2-2.8,0.2-3.8,1.2c-1.3,1.3-1.1,3-1.7,4.6C98.3,33.1,99.4,33.5,99.8,32.9L99.8,32.9z"/>
		</g>
	</g>
	<g>
		<g>
			<path fill="#753121" d="M76,57.2c-0.7-3.6-1.5-7.2-2.2-10.8c-0.6-2.6-3.4-9-0.6-10.7c1-0.6,4.8-0.5,5.9-0.6
				c2-0.2,3.9-0.3,5.9-0.5c4-0.3,7.9-0.4,11.9-0.5c3.6-0.1,7.3-0.2,10.9,0.1c5.1,0.5,7.5,2.9,10.7,6.6c4.6,5.2,9.2,10.5,13.8,15.7
				c0.7,0.8,2-0.4,1.2-1.2c-4.4-5-8.9-10-13.3-15c-3.3-3.8-5.6-6.8-10.8-7.5c-6.7-1-13.8-0.4-20.5,0c-4,0.2-7.9,0.5-11.8,0.9
				c-2.3,0.2-4.8,0.1-6.9,1c-0.3,0.1-0.4,0.4-0.4,0.7c-0.2,3,1.3,6.8,1.9,9.7c0.9,4.2,1.8,8.4,2.8,12.5C74.9,58.5,76.2,58.1,76,57.2
				L76,57.2z"/>
		</g>
	</g>
	<g>
		<g>
			<path fill="#753121" d="M75.3,58.1c19.2-0.8,38.4-1,57.7-1.4c1.1,0,1.1-1.7,0-1.7c-19.1-0.3-38.6-0.2-57.7,1.7
				C74.4,56.8,74.4,58.2,75.3,58.1L75.3,58.1z"/>
		</g>
	</g>
	<g>
		<g>
			<path fill="#753121" d="M75,56.8c-1,2.2-0.7,4-0.6,6.4c0.3,3.8,0.5,7.7,0.7,11.6c0.3,7.7,0.3,15.4,0,23.1c0,1.1,1.6,1.1,1.6,0
				c0.3-6.7,0.3-13.5,0.1-20.3c-0.1-3.2-0.2-6.4-0.4-9.6c-0.2-3.3-1.2-7.4-0.2-10.7C76.4,56.6,75.3,56.1,75,56.8L75,56.8z"/>
		</g>
	</g>
	<g>
		<g>
			<path fill="#753121" d="M132.3,56c-0.1,7.4-1,14.8-1.7,22.1c-0.4,3.9-0.7,7.7-1.1,11.6c-0.1,0.9,0,5.1-0.5,5.8
				c-1.2,1.6-3.6,1-5.3,1c-15.8,0-31.6,0.3-47.4,0.5c-1.1,0-1.1,1.7,0,1.7c17.7,0.2,35.6,0.5,53.3-0.4c0.5,0,0.8-0.4,0.8-0.8
				c1.2-13.7,3.6-27.7,3.2-41.5C133.7,55.1,132.3,55.1,132.3,56L132.3,56z"/>
		</g>
	</g>
	<g>
		<g>
			<path fill="#753121" d="M69.9,34.6C63.2,40,59.3,49.3,55.1,56.6c-0.5,0.9,0.9,1.7,1.4,0.8c4.4-7.3,8.1-15.8,14.3-21.8
				C71.5,35,70.5,34.1,69.9,34.6L69.9,34.6z"/>
		</g>
	</g>
	<g>
		<g>
			<path fill="#753121" d="M54.8,57.4c0.9,11.2,1.6,22.4,2.3,33.6c0.1,1,1.6,1.1,1.6,0c-0.2-11.2-1.1-22.5-2.5-33.6
				C56.1,56.5,54.7,56.4,54.8,57.4L54.8,57.4z"/>
		</g>
	</g>
	<g>
		<g>
			<path fill="#753121" d="M57.8,91.4c3.2,1.2,6,3,9.1,4.4c2.7,1.2,5.5,1.9,8.3,2.4c1.1,0.2,1.6-1.4,0.5-1.7
				c-3.5-0.8-6.8-1.6-9.9-3.2c-2.5-1.3-4.8-2.6-7.6-3.3C57.3,89.9,57,91.1,57.8,91.4L57.8,91.4z"/>
		</g>
	</g>
	<g>
		<g>
			<path fill="#753121" d="M55.8,57.9c1.7-1,3.4-1.9,5-2.9c1.5-0.9,3.3-2.5,4.9-3c3.4-0.9,6.8,4.2,8.7,6.5c0.6,0.8,1.8-0.3,1.1-1.1
				c-1.5-2-3.2-3.7-5-5.4c-0.8-0.7-1.9-2.1-3.1-2.2c-1.5-0.1-3.3,1.3-4.4,2c-2.6,1.6-5.3,3.2-7.9,5C54.4,57.3,55.1,58.4,55.8,57.9
				L55.8,57.9z"/>
		</g>
	</g>
	<g>
		<g>
			<path fill="#753121" d="M68.6,36.5c-0.9,4.8-1.4,9.7-1.5,14.5c0,1,1.4,0.9,1.5,0c0.4-4.8,0.8-9.6,1.4-14.3
				C70,35.9,68.7,35.7,68.6,36.5L68.6,36.5z"/>
		</g>
	</g>
	<g>
		<g>
			<path fill="#753121" d="M90.2,85.5c1.2,0.8,2.2,1.3,0,1.4c-1.6,0.1-2.8-0.9-4.1-1.8c-0.6-0.4-2-0.8-2-1.8c0-2.6,2.3-0.8,3.1-0.2
				c0.4,0.4,1.2,0.3,1.3-0.3c1-7.2,6.8-15.3,14.2-16.8c11.1-2.4,15.3,7.4,17.3,16c0.1,0.6,0.8,0.7,1.3,0.5c0.9-0.8,1.8-0.8,2.7-0.2
				c-0.1,1-0.7,1.6-1.9,1.6c-1,0.7-4.3,2.5-5.3,1.8c-2.2-1.5,1.3-2.1,1.6-3.7c0.8-3.6-3.7-10.1-6.5-12.1c-10-7-22.1,4.6-22.1,14.8
				c0,1,1.5,1,1.5,0c0-8,7.6-16.8,16.1-14.9c3.3,0.7,5.6,3,7.2,5.8c0.6,1.2,1.8,3,1.8,4.4c0,1.9,0,2.2-2.1,3.3
				c-0.4,0.2-0.5,0.7-0.3,1.1c0.6,1.2,1.1,2.3,1.7,3.5c0.2,0.4,0.8,0.5,1.2,0.3c3.1-1.4,6.2-2.8,9.3-4.2c0.4-0.2,0.5-0.8,0.3-1.1
				c-0.6-0.9-1.2-1.8-1.9-2.8c-0.2-0.3-0.6-0.5-0.9-0.4c-3.4,1.3-3-3.5-4.1-6.1c-0.6-1.4-1.3-2.7-2.2-4c-2.9-3.9-7.6-5.8-12.3-5.6
				c-9.1,0.3-16.5,9.9-17.8,18.3c0.4-0.1,0.9-0.2,1.3-0.3c-1-0.9-2-1.8-3.1-2.6c-0.3-0.3-0.9-0.1-1.1,0.3c-0.8,1.3-1.5,2.7-2.1,4.1
				c-0.2,0.4-0.1,1,0.3,1.2c2,1,3.9,2.1,5.9,3.2c0.6,0.4,1.4,1.3,2.2,1.3c1.4,0,2.4-1.7,3.3-2.5c0.3-0.3,0.3-1-0.1-1.2
				c-1-0.3-1.8-0.8-2.6-1.4C90.1,83.8,89.4,85,90.2,85.5L90.2,85.5z"/>
		</g>
	</g>
</g>
</svg>
