<?xml version="1.0" encoding="utf-8"?>
<!-- Generator: Adobe Illustrator 18.1.1, SVG Export Plug-In . SVG Version: 6.00 Build 0)  -->
<svg version="1.1" id="Layer_18" xmlns="http://www.w3.org/2000/svg" xmlns:xlink="http://www.w3.org/1999/xlink" x="0px" y="0px"
	 viewBox="0 0 450 250" enable-background="new 0 0 450 250" xml:space="preserve">
<text transform="matrix(1 0 0 1 95.9995 134.7266)" font-family="'Lato-Bold'" font-size="16.9063">THEM</text>
<g>
	<path fill="#EAB978" d="M225,61.1C203.9,27.6,166.5,5.3,124,5.3C58.1,5.3,4.7,58.8,4.7,124.7S58.1,244,124,244
		c42.5,0,79.9-22.3,101-55.8c-11.6-18.4-18.3-40.2-18.3-63.5C206.7,101.3,213.4,79.5,225,61.1z"/>
	<path fill="#9BC9C7" d="M326,5.3c-42.5,0-79.9,22.3-101,55.8c11.6,18.4,18.3,40.2,18.3,63.5c0,23.4-6.7,45.1-18.3,63.5
		c21.1,33.5,58.5,55.8,101,55.8c65.9,0,119.3-53.4,119.3-119.3S391.9,5.3,326,5.3z"/>
	<path fill="#C94343" d="M225,61.1c-11.6,18.4-18.3,40.2-18.3,63.5c0,23.4,6.7,45.1,18.3,63.5c11.6-18.4,18.3-40.2,18.3-63.5
		C243.3,101.3,236.6,79.5,225,61.1z"/>
</g>
<g>
	<path fill="#A3794B" d="M107,121.5v2h-3.6v10.2h-2.5v-10.2h-3.6v-2H107z"/>
	<path fill="#A3794B" d="M119,133.7h-2.6v-5.3H111v5.3h-2.6v-12.3h2.6v5.2h5.4v-5.2h2.6V133.7z"/>
	<path fill="#A3794B" d="M129.4,121.5v2h-5.3v3.2h4.1v1.9h-4.1v3.2h5.3v2h-7.8v-12.3H129.4z"/>
	<path fill="#A3794B" d="M137.8,129c0.1,0.2,0.2,0.4,0.3,0.6c0.1-0.2,0.2-0.4,0.3-0.7c0.1-0.2,0.2-0.4,0.3-0.6l3.4-6.5
		c0.1-0.1,0.1-0.2,0.2-0.2c0.1-0.1,0.1-0.1,0.2-0.1s0.1,0,0.2,0s0.2,0,0.3,0h1.9v12.3h-2.2v-7.5c0-0.2,0-0.3,0-0.5s0-0.4,0-0.6
		l-3.5,6.7c-0.2,0.4-0.5,0.5-0.9,0.5h-0.4c-0.2,0-0.4,0-0.5-0.1c-0.2-0.1-0.3-0.2-0.4-0.4l-3.5-6.7c0,0.2,0,0.4,0,0.6
		c0,0.2,0,0.4,0,0.5v7.5h-2.2v-12.3h1.9c0.1,0,0.2,0,0.3,0s0.2,0,0.2,0s0.1,0.1,0.2,0.1c0.1,0.1,0.1,0.1,0.2,0.2l3.4,6.5
		C137.6,128.6,137.7,128.8,137.8,129z"/>
</g>
<g>
	<path fill="#702323" d="M219.8,131.7c0.4,0,0.8-0.1,1.1-0.2c0.3-0.1,0.6-0.3,0.8-0.6c0.2-0.3,0.4-0.6,0.5-0.9
		c0.1-0.4,0.2-0.8,0.2-1.2v-7.3h2.5v7.3c0,0.7-0.1,1.4-0.4,2c-0.2,0.6-0.6,1.2-1,1.6s-1,0.8-1.6,1.1s-1.4,0.4-2.2,0.4
		c-0.8,0-1.5-0.1-2.2-0.4c-0.6-0.3-1.2-0.6-1.6-1.1s-0.8-1-1-1.6c-0.2-0.6-0.4-1.3-0.4-2v-7.3h2.5v7.3c0,0.5,0.1,0.9,0.2,1.2
		c0.1,0.4,0.3,0.7,0.5,0.9c0.2,0.3,0.5,0.4,0.8,0.6C219,131.6,219.4,131.7,219.8,131.7z"/>
	<path fill="#702323" d="M234,123.8c-0.1,0.1-0.2,0.2-0.2,0.3c-0.1,0.1-0.2,0.1-0.3,0.1c-0.1,0-0.3,0-0.4-0.1
		c-0.1-0.1-0.3-0.2-0.5-0.3c-0.2-0.1-0.4-0.2-0.7-0.3c-0.2-0.1-0.5-0.1-0.9-0.1c-0.6,0-1,0.1-1.3,0.4c-0.3,0.3-0.4,0.6-0.4,1
		c0,0.3,0.1,0.5,0.2,0.7c0.2,0.2,0.4,0.3,0.6,0.5s0.6,0.2,0.9,0.3c0.3,0.1,0.7,0.2,1,0.3c0.3,0.1,0.7,0.3,1,0.4
		c0.3,0.2,0.6,0.4,0.9,0.6c0.3,0.2,0.5,0.6,0.6,0.9c0.2,0.4,0.2,0.8,0.2,1.3c0,0.6-0.1,1.1-0.3,1.6s-0.5,0.9-0.8,1.3
		c-0.4,0.4-0.8,0.6-1.4,0.9c-0.5,0.2-1.1,0.3-1.8,0.3c-0.4,0-0.8,0-1.2-0.1c-0.4-0.1-0.8-0.2-1.1-0.3s-0.7-0.3-1-0.5
		c-0.3-0.2-0.6-0.4-0.8-0.7l0.7-1.2c0.1-0.1,0.1-0.2,0.2-0.2c0.1-0.1,0.2-0.1,0.3-0.1c0.2,0,0.3,0.1,0.5,0.2s0.4,0.2,0.6,0.4
		c0.2,0.1,0.5,0.3,0.8,0.4c0.3,0.1,0.6,0.2,1,0.2c0.6,0,1-0.1,1.4-0.4c0.3-0.3,0.5-0.7,0.5-1.2c0-0.3-0.1-0.6-0.2-0.8
		s-0.4-0.4-0.6-0.5c-0.3-0.1-0.6-0.2-0.9-0.3s-0.7-0.2-1-0.3c-0.3-0.1-0.7-0.2-1-0.4c-0.3-0.2-0.6-0.4-0.9-0.6
		c-0.3-0.3-0.5-0.6-0.6-1s-0.2-0.9-0.2-1.4c0-0.5,0.1-0.9,0.3-1.3c0.2-0.4,0.4-0.8,0.8-1.1c0.3-0.3,0.8-0.6,1.3-0.8
		c0.5-0.2,1.1-0.3,1.8-0.3c0.7,0,1.4,0.1,2,0.3s1.2,0.5,1.6,1L234,123.8z"/>
</g>
<g>
	<path fill="#608985" d="M313.3,129v4.7h-2.5V129l-4.5-7.6h2.2c0.2,0,0.4,0.1,0.5,0.2c0.1,0.1,0.2,0.2,0.3,0.4l2,3.9
		c0.1,0.3,0.3,0.5,0.4,0.7c0.1,0.2,0.2,0.5,0.3,0.7c0.2-0.4,0.4-0.9,0.6-1.4l2-3.9c0.1-0.1,0.2-0.3,0.3-0.4s0.3-0.2,0.5-0.2h2.2
		L313.3,129z"/>
	<path fill="#608985" d="M330,127.6c0,0.9-0.2,1.7-0.5,2.5c-0.3,0.8-0.7,1.4-1.3,2c-0.5,0.6-1.2,1-2,1.3c-0.8,0.3-1.6,0.5-2.6,0.5
		c-0.9,0-1.8-0.2-2.6-0.5c-0.8-0.3-1.4-0.8-2-1.3c-0.6-0.6-1-1.2-1.3-2c-0.3-0.8-0.5-1.6-0.5-2.5c0-0.9,0.2-1.7,0.5-2.5
		s0.7-1.4,1.3-2c0.6-0.6,1.2-1,2-1.3s1.6-0.5,2.6-0.5c0.9,0,1.8,0.2,2.6,0.5s1.4,0.8,2,1.3c0.5,0.6,1,1.2,1.3,2
		C329.9,125.9,330,126.7,330,127.6z M327.4,127.6c0-0.6-0.1-1.2-0.3-1.7c-0.2-0.5-0.4-0.9-0.7-1.3c-0.3-0.4-0.7-0.6-1.2-0.8
		c-0.5-0.2-1-0.3-1.5-0.3s-1.1,0.1-1.5,0.3s-0.8,0.5-1.2,0.8c-0.3,0.4-0.6,0.8-0.7,1.3c-0.2,0.5-0.3,1.1-0.3,1.7
		c0,0.6,0.1,1.2,0.3,1.7c0.2,0.5,0.4,0.9,0.7,1.3c0.3,0.4,0.7,0.6,1.2,0.8c0.5,0.2,1,0.3,1.5,0.3s1.1-0.1,1.5-0.3
		c0.5-0.2,0.8-0.5,1.2-0.8c0.3-0.4,0.6-0.8,0.7-1.3C327.3,128.8,327.4,128.2,327.4,127.6z"/>
	<path fill="#608985" d="M336.9,131.7c0.4,0,0.8-0.1,1.1-0.2c0.3-0.1,0.6-0.3,0.8-0.6c0.2-0.3,0.4-0.6,0.5-0.9
		c0.1-0.4,0.2-0.8,0.2-1.2v-7.3h2.5v7.3c0,0.7-0.1,1.4-0.4,2c-0.2,0.6-0.6,1.2-1,1.6s-1,0.8-1.6,1.1s-1.4,0.4-2.2,0.4
		c-0.8,0-1.5-0.1-2.2-0.4c-0.6-0.3-1.2-0.6-1.6-1.1s-0.8-1-1-1.6c-0.2-0.6-0.4-1.3-0.4-2v-7.3h2.5v7.3c0,0.5,0.1,0.9,0.2,1.2
		c0.1,0.4,0.3,0.7,0.5,0.9c0.2,0.3,0.5,0.4,0.8,0.6C336.1,131.6,336.5,131.7,336.9,131.7z"/>
</g>
</svg>
