<?xml version="1.0" encoding="utf-8"?>
<!-- Generator: Adobe Illustrator 18.1.1, SVG Export Plug-In . SVG Version: 6.00 Build 0)  -->
<svg version="1.1" id="Layer_1" xmlns="http://www.w3.org/2000/svg" xmlns:xlink="http://www.w3.org/1999/xlink" x="0px" y="0px"
	 viewBox="0 0 47 55" enable-background="new 0 0 47 55" xml:space="preserve">
<path fill="#FFFFFF" d="M41.5,34.1c-0.4,2.8-0.9,5.7-1.4,8.5c0,0,0,0.1,0,0.1C34.5,24.1,23.8,5.9,3.7,0.8C0.8,0-0.5,4.6,2.5,5.4
	c18,4.6,27.5,20.7,32.6,37.3c-0.1-0.1-0.2-0.2-0.4-0.3c-2.7-1.9-5.8-2.9-9.1-2.6c-3,0.2-3.1,5,0,4.7c4.1-0.3,7.2,1.9,9.7,5
	c1.5,1.8,2.3,4.1,5,4.1c0.8,0,1.7-0.5,2.1-1.2c2.7-5.2,3.2-12.6,4-18.3C46.7,31.1,41.9,31.2,41.5,34.1z"/>
</svg>
