<svg xmlns="http://www.w3.org/2000/svg" viewBox="0 0 233.3 138" enable-background="new 0 0 233.3 138"><path fill="#7AB748" d="M4.3-.5h2v139h-2zM51.3-.5h2v139h-2zM95.3-.5h2v139h-2zM141.3-.5h2v139h-2zM188.3-.5h2v139h-2z"/><path fill="#B3DE92" d="M231.3 80.5v-74l-43.1 8.2L143.9 67s-46.4 4.2-47.2 4.2-37.1 35.9-37.1 35.9l38.7-14.4 43.9 16 46.5-33.5 42.6 5.3z"/><g fill="#fff"><path d="M177.4 52.4h-1.2v-5.8h1.2v5.8zM179.1 46.6c.1 0 .2.1.2.1l.1.1 2.9 3.7v-3.9h1.1v5.8h-.8l-.2-.2-2.9-3.7v4h-1.1v-5.8h.6c0-.1 0-.1.1-.1zM188.1 50.9c.1 0 .1 0 .2.1l.5.5c-.2.3-.5.5-.9.7-.3.2-.8.2-1.2.2-.4 0-.8-.1-1.2-.2-.3-.1-.6-.4-.9-.6l-.6-.9s-.2-.8-.2-1.2c0-.3 0-.6.1-.8s.2-.5.3-.7.3-.4.4-.6c.2-.2.4-.3.6-.5s.4-.2.7-.3.5-.1.8-.1c.2 0 .4 0 .6.1.2 0 .4.1.5.2.2.1.3.1.5.2.1.1.3.2.4.3l-.4.6-.1.1h-.2c-.1 0-.1 0-.2-.1l-.2-.2-.4-.2c-.1 0-.3-.1-.5-.1s-.5 0-.7.1c-.2.1-.4.2-.5.4-.1.2-.3.4-.3.6s-.1.5-.1.8c0 .3 0 .6.1.8.1.2.2.5.4.6.2.2.3.3.5.4.2.1.4.1.6.1h.4c.1 0 .2 0 .3-.1s.2-.1.3-.1.2-.1.3-.2c0 0 .1 0 .1-.1-.1.2 0 .2 0 .2zM190.3 50.2v2.2h-1.2v-5.8h1.8c.4 0 .8 0 1 .1.3.1.5.2.7.4.2.1.3.3.4.5.1.2.1.4.1.7 0 .2 0 .4-.1.5-.1.2-.1.3-.2.5-.1.1-.2.3-.4.4-.2.1-.3.2-.5.3.1 0 .2.1.2.2l.2.2 1.4 2.1h-1.1c-.2 0-.3-.1-.4-.2l-1.1-1.8c0-.1-.1-.1-.2-.2H190.3zm0-.9h.6c.2 0 .4 0 .5-.1.1 0 .3-.1.3-.2.1-.1.2-.2.2-.3 0-.1.1-.2.1-.4 0-.3-.1-.5-.3-.6-.2-.2-.5-.2-.8-.2h-.6v1.8zM197.7 46.6v.9h-2.5V49h1.9v.9h-1.9v1.5h2.5v.9H194v-5.8h3.7zM203.4 52.4h-.9c-.1 0-.2 0-.3-.1-.1 0-.1-.1-.1-.2l-.4-1.1h-2.3l-.4 1.1c0 .1-.1.1-.1.2-.1.1-.2.1-.3.1h-.9l2.3-5.8h1.2l2.2 5.8zm-3.8-2.2h1.7l-.6-1.8c0-.1-.1-.2-.1-.3 0-.1-.1-.3-.1-.4 0 .1-.1.3-.1.4 0 .1-.1.2-.1.3l-.7 1.8zM206.7 47.7c0 .1-.1.1-.1.1h-.2c-.1 0-.1 0-.2-.1-.1 0-.1-.1-.2-.1s-.2-.1-.3-.1-.3-.1-.4-.1c-.3 0-.5.1-.6.2s-.2.3-.2.5c0 .1 0 .2.1.3s.2.2.3.2c.1.1.3.1.4.2.2 0 .3.1.5.2s.3.1.5.2.3.2.4.3c.1.1.2.3.3.4.1.2.1.4.1.6 0 .3 0 .5-.1.7-.1.2-.2.4-.4.6-.2.2-.4.3-.6.4s-.5.1-.9.1c-.2 0-.4 0-.6-.1-.2 0-.4-.1-.5-.2-.2-.1-.3-.1-.5-.2s-.3-.2-.4-.3l.4-.6.1-.1h.2c.1 0 .1 0 .2.1s.2.1.3.2c.1.1.2.1.4.2.1.1.3.1.5.1.3 0 .5-.1.7-.2.2-.1.2-.3.2-.6 0-.1 0-.3-.1-.4s-.2-.2-.3-.2c-.1-.1-.3-.1-.4-.2-.2 0-.3-.1-.5-.1-.2-.1-.3-.1-.5-.2s-.3-.2-.4-.3c-.1-.1-.2-.3-.3-.5-.1-.2-.1-.4-.1-.7 0-.2 0-.4.1-.6.1-.2.2-.4.4-.5.2-.2.4-.3.6-.4.2-.1.5-.1.8-.1.3 0 .7.1 1 .2.3.1.5.3.8.5l-.5.6zM211.4 46.6v.9h-2.5V49h1.9v.9h-1.9v1.5h2.5v.9h-3.7v-5.8h3.7zM214.7 52.4h-1.2v-5.8h1.2v5.8zM216.4 46.6s.1 0 0 0c.1 0 .2.1.2.1l.1.1 2.9 3.7v-3.9h1.1v5.8H219.8l-.2-.2-2.9-3.7v4h-1.1v-5.8h.6c.1-.1.2-.1.2-.1zM176 58.9c.1 0 .1 0 .2.1l.5.5c-.2.3-.5.5-.9.7-.3.2-.8.2-1.2.2-.4 0-.8-.1-1.2-.2-.3-.1-.6-.4-.9-.6l-.6-.9s-.2-.8-.2-1.2c0-.3 0-.6.1-.8s.2-.5.3-.7.3-.4.4-.6c.2-.2.4-.3.6-.5s.4-.2.7-.3.5-.1.8-.1c.2 0 .4 0 .6.1.2 0 .4.1.5.2.2.1.3.1.5.2.1.1.3.2.4.3l-.4.6-.1.1h-.2c-.1 0-.1 0-.2-.1l-.2-.2-.4-.2c-.1 0-.3-.1-.5-.1s-.5 0-.7.1c-.2.1-.4.2-.5.4-.1.2-.3.4-.3.6s-.1.5-.1.8c0 .3 0 .6.1.8.1.2.2.5.4.6.2.2.3.3.5.4.2.1.4.1.6.1h.4c.1 0 .2 0 .3-.1s.2-.1.3-.1.2-.1.3-.2c0 0 .1 0 .1-.1-.1.2-.1.2 0 .2zM182.5 57.5c0 .4-.1.8-.2 1.2-.1.4-.3.7-.6.9-.3.3-.6.5-.9.6-.4.2-.8.2-1.2.2-.4 0-.9-.1-1.2-.2-.4-.2-.7-.4-.9-.6s-.5-.6-.6-.9c-.1-.4-.2-.8-.2-1.2s.1-.8.2-1.2c.1-.4.3-.7.6-.9s.6-.5.9-.6c.4-.2.8-.2 1.2-.2.4 0 .9.1 1.2.2.4.2.7.4.9.6.3.3.5.6.6.9.1.3.2.7.2 1.2zm-1.3 0c0-.3 0-.6-.1-.8l-.3-.6s-.3-.3-.5-.4-.5-.1-.7-.1c-.3 0-.5 0-.7.1-.2.1-.4.2-.5.4-.2.2-.3.4-.3.6-.1.2-.1.5-.1.8 0 .3 0 .6.1.8l.3.6c.2.2.3.3.5.4.2.1.5.1.7.1.3 0 .5 0 .7-.1.2-.1.4-.2.5-.4.2-.2.3-.4.3-.6s.1-.5.1-.8zM183.8 54.6c.1 0 .2.1.2.1l.1.1 2.9 3.7v-3.9h1.1v5.8h-.8l-.2-.2-2.9-3.7v4H183v-5.8h.6c.1-.1.1-.1.2-.1zM188.2 54.6h1c.1 0 .2 0 .3.1s.1.1.1.2l1.3 3.3c0 .1.1.3.1.4 0 .1.1.3.1.5 0-.2.1-.3.1-.5 0-.1.1-.3.1-.4l1.2-3.3c0-.1.1-.1.1-.2.1-.1.2-.1.3-.1h1l-2.3 5.8h-1.1l-2.3-5.8zM197.9 54.6v.9h-2.5V57h1.9v.9h-1.9v1.5h2.5v.9h-3.7v-5.8h3.7zM199.7 58.2v2.2h-1.2v-5.8h1.8c.4 0 .8 0 1 .1.3.1.5.2.7.4.2.1.3.3.4.5.1.2.1.4.1.7 0 .2 0 .4-.1.5-.1.2-.1.3-.2.5-.1.1-.2.3-.4.4-.2.1-.3.2-.5.3.1 0 .2.1.2.2l.2.2 1.4 2.1H202c-.2 0-.3-.1-.4-.2l-1.1-1.8c0-.1-.1-.1-.2-.2H199.7zm0-.9h.6c.2 0 .4 0 .5-.1.1 0 .3-.1.3-.2.1-.1.2-.2.2-.3 0-.1.1-.2.1-.4 0-.3-.1-.5-.3-.6-.2-.2-.5-.2-.8-.2h-.6v1.8zM206.5 55.7c0 .1-.1.1-.1.1h-.2c-.1 0-.1 0-.2-.1-.1 0-.1-.1-.2-.1s-.2-.1-.3-.1-.3-.1-.4-.1c-.3 0-.5.1-.6.2s-.2.3-.2.5c0 .1 0 .2.1.3s.2.2.3.2c.1.1.3.1.4.2.2 0 .3.1.5.2s.3.1.5.2.3.2.4.3c.1.1.2.3.3.4.1.2.1.4.1.6 0 .3 0 .5-.1.7-.1.2-.2.4-.4.6-.2.2-.4.3-.6.4s-.5.1-.9.1c-.2 0-.4 0-.6-.1-.2 0-.4-.1-.5-.2-.2-.1-.3-.1-.5-.2s-.3-.2-.4-.3l.4-.6.1-.1h.2c.1 0 .1 0 .2.1s.2.1.3.2c.1.1.2.1.4.2.1.1.3.1.5.1.3 0 .5-.1.7-.2.2-.1.2-.3.2-.6 0-.1 0-.3-.1-.4s-.2-.2-.3-.2c-.1-.1-.3-.1-.4-.2-.2 0-.3-.1-.5-.1-.2-.1-.3-.1-.5-.2s-.3-.2-.4-.3c-.1-.1-.2-.3-.3-.5-.1-.2-.1-.4-.1-.7 0-.2 0-.4.1-.6.1-.2.2-.4.4-.5.2-.2.4-.3.6-.4.2-.1.5-.1.8-.1.3 0 .7.1 1 .2.3.1.5.3.8.5l-.5.6zM208.6 60.4h-1.2v-5.8h1.2v5.8zM215.2 57.5c0 .4-.1.8-.2 1.2-.1.4-.3.7-.6.9-.3.3-.6.5-.9.6-.4.2-.8.2-1.2.2-.4 0-.9-.1-1.2-.2-.4-.2-.7-.4-.9-.6s-.5-.6-.6-.9c-.1-.4-.2-.8-.2-1.2s.1-.8.2-1.2c.1-.4.3-.7.6-.9s.6-.5.9-.6c.4-.2.8-.2 1.2-.2.4 0 .9.1 1.2.2.4.2.7.4.9.6.3.3.5.6.6.9.1.3.2.7.2 1.2zm-1.3 0c0-.3 0-.6-.1-.8l-.3-.6s-.3-.3-.5-.4c-.2-.1-.5-.1-.7-.1-.3 0-.5 0-.7.1-.2.1-.4.2-.5.4-.2.2-.3.4-.3.6-.1.2-.1.5-.1.8 0 .3 0 .6.1.8l.3.6c.2.2.3.3.5.4.2.1.5.1.7.1.3 0 .5 0 .7-.1.2-.1.4-.2.5-.4.2-.2.3-.4.3-.6s.1-.5.1-.8zM216.5 54.6c.1 0 .2.1.2.1l.1.1 2.9 3.7v-3.9h1.1v5.8h-.8l-.2-.2-2.9-3.7v4h-1.1v-5.8h.6c0-.1 0-.1.1-.1zM224.7 55.7c0 .1-.1.1-.1.1h-.2c-.1 0-.1 0-.2-.1-.1 0-.1-.1-.2-.1s-.2-.1-.3-.1-.3-.1-.4-.1c-.3 0-.5.1-.6.2s-.2.3-.2.5c0 .1 0 .2.1.3s.2.2.3.2c.1.1.3.1.4.2.2 0 .3.1.5.2s.3.1.5.2.3.2.4.3c.1.1.2.3.3.4.1.2.1.4.1.6 0 .3 0 .5-.1.7-.1.2-.2.4-.4.6-.2.2-.4.3-.6.4s-.5.1-.9.1c-.2 0-.4 0-.6-.1-.2 0-.4-.1-.5-.2-.2-.1-.3-.1-.5-.2s-.3-.2-.4-.3l.4-.6.1-.1h.2c.1 0 .1 0 .2.1s.2.1.3.2c.1.1.2.1.4.2.1.1.3.1.5.1.3 0 .5-.1.7-.2.2-.1.2-.3.2-.6 0-.1 0-.3-.1-.4s-.2-.2-.3-.2c-.1-.1-.3-.1-.4-.2-.2 0-.3-.1-.5-.1-.2-.1-.3-.1-.5-.2s-.3-.2-.4-.3c-.1-.1-.2-.3-.3-.5-.1-.2-.1-.4-.1-.7 0-.2 0-.4.1-.6.1-.2.2-.4.4-.5.2-.2.4-.3.6-.4.2-.1.5-.1.8-.1.3 0 .7.1 1 .2.3.1.5.3.8.5l-.5.6z"/></g><path fill="#fff" d="M54.6 112.9l-4.7-5.3 45-40 45.7-2 46.7-55.2L230.5.3l1.5 6.9-40.8 9.4-47.3 55.8-46.2 2z"/><path fill="#608D3B" d="M4.3 96l47.6 10.6 44.3-18.4 45.5 16.6 46.7-33.2 43.5 7.5-1.2 6.8-40.6-7-47.3 33.8-46.5-16.9-43.7 18.1-48.3-10.8z"/></svg>