<?xml version="1.0" encoding="utf-8"?>
<!-- Generator: Adobe Illustrator 18.1.1, SVG Export Plug-In . SVG Version: 6.00 Build 0)  -->
<svg version="1.1" id="Layer_18" xmlns="http://www.w3.org/2000/svg" xmlns:xlink="http://www.w3.org/1999/xlink" x="0px" y="0px"
	 viewBox="0 0 450 250" enable-background="new 0 0 450 250" xml:space="preserve">
<g id="Layer_18_1_">
	<path fill="#9DC9C7" d="M134.8,234.9c0,0,155.8,4.6,162.2,1.7c0,0-6.3-14.3-7.2-18.2S171.3,222,171.3,222S136.3,232,134.8,234.9z"
		/>
	<path fill="#F4C09D" d="M283.8,197.4c0,0,10.3-5,17.6,2.6c7.3,7.7,7.7,16.6,7.7,16.6s-4,6.2-23.3,6.2c-19.3,0-46.5,0-46.5,0
		s-1.9-3.5,0-9.5c0,0-4.7-3.1-1.5-7.6c3.2-4.5,6.3-2,6.3-2s4.4-11.2,13.1-7.8C266,199.1,276.5,202.4,283.8,197.4z"/>
	<path fill="#83B1B1" d="M306.3,148.8c-6.3-8.2-5.2-10.1-30-20.4c0,0-5.7-15.7-10.6-13.5c0,0-7.3,20.4-20.7,35l-7.4,11.6
		c0,0-7.3-8.6-14.6-7.3l-0.9,0.7c0.1-0.7,0.2-1.3,0.1-2c-0.1-0.9-0.4-1.7-0.7-2.5c-0.7-2.5-0.1-5.2,0.4-7.7
		c-2.2,0.4-4.4,0.8-6.6,1.2c-0.7,0.1-1.3,0.2-2,0.6c-1.3,0.7-2.1,2.2-2.8,3.7c-1,2.4-1.8,4.8-2.4,7.4c-0.3,1.3-0.6,2.7-0.4,4
		c-3.2,0-6.7-0.6-9-2.2c0,0-9.5,7.8-14.2,26.6c0,0,17.8,0.8,24.3,9.6c0,0,3.7,5.3-0.7,6.8l1.2,4.9c0,0,7.4-2.6,10.2,7.6
		c0,0,7.8,1.8,5.8,7.4h12.7l1-5.9c0,0-3.8-5-1.3-9c2.6-3.9,6.3-2,6.3-2s5.6-10.5,11.4-8.7c0,0,5.9-15.2,7.9-12.4
		c2,2.9,0.4,8.4-4,14.2c0,0,18.5,6.6,23.2,0c0,0-1.6-6.7,10.2-8.1c11.8-1.3,17-0.1,20.7,3.7c3.7,3.8,6.3,3.4,6.3,3.4
		C317.8,185,312.6,156.9,306.3,148.8z"/>
	<path fill="#B5A38C" d="M177.9,190.9c0,0-1.7,8.6,6.6,9.4c8.2,0.8,19.1,3.4,19.1,3.4s3.9,2.8,5.3-0.1c1.3-2.9-0.8-3.7-0.8-3.7
		s1.8-1.9,2.1-3.5c0.3-1.6-0.9-4.8-6-7.5c-5.2-2.7-10.6-4.9-16.5-4.7C181.9,184.4,178.9,184.9,177.9,190.9z"/>
	<path fill="#B5A38C" d="M282.5,196.6c0,0-1.5-8.6,13.2-8.7c14.7-0.1,26.2,6.7,25.6,17.1c-0.3,8.1-3.7,7.4-3.7,7.4s0,6.5-3.7,5.9
		c-3.7-0.6-5.6-0.8-5.4-3.8c0.2-3-1.8-10.9-7.5-14.7C295.4,196.1,290.7,194.5,282.5,196.6z"/>
	<polygon fill="#727272" points="261.8,183.3 255.5,193.9 258.7,196.5 265.4,187.4 	"/>
	<path fill="#727272" d="M247.1,218.3c0,0-4.9-0.8-5,2.1c-0.1,2.9,1.7,3,5,1V218.3z"/>
	<path fill="#F4C09D" d="M180.7,199.1l26.9,5.7c0,0,0.1,0.9,2.1,0.7c1.9-0.3,4.8,0.2,7.2,3c2.4,2.7,3,4.7,3,4.7s7.1,2.5,5.8,6.4
		c-1.3,3.9-6.5,1.5-6.5,1.5s-4.8,2.8-10.3,1.7c-5.5-1.1-4.9,1.1-10.6,0.2s-9.1-0.8-10.4-0.8s-16.5,0-16.5,0s-1.9-2.4,0-6
		C173.2,212.5,179.7,198.9,180.7,199.1z"/>
	<path fill="#F4C09D" d="M263.1,120.8c0,0-7.8,17.9-17,27.2c-9.2,9.3-8.3,14.6-8.3,14.6s-1.1-8.2-14-8.4c0,0,3.5-6.8,0.4-10.3
		c-3-3.6-19.4-7.4-22.4,3l-8.3-5.3c0,0-9.5,5.2-13.4,0c-3.9-5.2-7.1-9.9-1.1-13c0,0,0.2-2.7-5.2-12.9c-5.4-10.2-13.5-21.2-9.1-26.2
		c0,0,2.2,0.6,3.4-2.1c1-2.7,9-11.6,9-11.6l-1.9-3.7c0,0,5.2-13.4,23.8-23l2.8,3.5c0,0,11.8-8.7,21.5-4.5l0.1-5c0,0,12.7-5,17,7.5
		c4.4,12.4,16,35.2,16,35.2s-0.8-8.3,6.7-6.8c7.5,1.5,11.5,16.7-2.5,23.1c0,0,4.1,13.5,4,13.8C264.6,116,263.1,120.8,263.1,120.8z"
		/>
	<path fill="#FFD0B0" d="M194.2,140.8c-6.9-9.3-8.8-22.1-4.7-32.9c4.1-10.9,13.4-19.3,24.3-23.5c10-3.9,21.8-4.3,31.1,1.2
		c6.6,3.9,11.2,10.4,15,17.1c0,0,6.4,8.3,4.8,13.2s-15.5,14.8-15.5,14.8c-4.3,3.6-9.3,6.6-14.3,8.8c-4,1.8-7.8,2.6-12.1,2.8
		c-5.2,0.2-10.7,2.2-15.7,3.7c-3.1,0.9-4.8,1.3-7.4-0.6C197.9,144,195.7,142.5,194.2,140.8z"/>
	<path fill="#D6A380" d="M225.2,144.4c0.4-0.6,0-1.5-0.7-1.8c-0.7-0.2-1.5,0-1.9,0.4c-0.4,0.4-0.8,1.2-1,1.9
		c-0.8,2.7-0.2,5.8,1.5,8.1c1.5,2,5.8,1.7,7.9,2.5c2.9,1.1,5.5,3,6.5,6l22.8-35.3l-35.6,18.4l-1,9.6c0,0,0.3,0,1,0"/>
	<path fill="#C69777" d="M223.8,142.9c0.3-0.3,0.8-0.6,1.3-0.7c2-0.7,4-1,6-1.7c5.7-1.9,11.5-4.5,15.9-8.7
		c8.5-8.1,15.7-10.3,15.7-10.3l-7.6,15c-1.5,2.9-7.1,5.6-9.6,7.1c-6.2,3.6-15.8,7.4-23.1,5.5c-0.1,0-0.3-0.1-0.3-0.2
		c-0.1-0.1-0.1-0.2-0.1-0.4C222.1,146.2,222.3,144.1,223.8,142.9z"/>
	<path fill="#565C56" d="M179.4,126.3c0,0-13.9-23.3-15-28.1c-1-4.8-2.4-3.1,0.3-8.5c2.6-5.4,12.2-25,19.8-30.7
		c7.6-5.7,19.7-14.4,41.5-16.1c11.6-0.9,14.3,7.2,15.7,11.8c1.3,4.7,13.9,29.9,13.9,29.9s1.2-21.5-1.1-34.4
		c-2.4-12.9-5-29.2-11.4-34.4c-6.4-5-18.9-17.2-59.7-5.4c-38.2,11.6-53.7,37.7-53.7,37.7s6.4,27.8,13,39.4S168.1,130.9,179.4,126.3z
		"/>
	<path fill="#434943" d="M195.8,40.9l5.9,11.8c0,0,11.5-8.2,21.5-4.5c0,0,2.1-12.3-7.6-15.9C205.9,28.8,198.7,32.2,195.8,40.9z"/>
	<path fill="#434943" d="M168,60.1l9.1,15.8c0,0-8.3,7.9-9.6,14c0,0-8.1-2-8.4-13.2C158.6,65.4,163,56.8,168,60.1z"/>
	<path fill="#747A74" d="M133.7,62c0.6,2.2,1.1,4.5,2.2,6.5c1.1,2,3,3.6,5.3,3.9c2.4,0.3,4.6-0.7,6.5-2.1
		c9.2-6.8,10.4-20.7,19.1-28.1c5.3-4.5,12.3-6,18.8-8.4c11.1-4,21.4-11.1,33.1-11.5c3.6-0.1,7.2,0.4,10.7-0.2c3.6-0.6,7.2-2.6,8.3-6
		c0.6-1.6,0.3-3.5-0.8-4.8c0,0-20.7-16.1-61.7,2.1s-45.7,34.8-45.7,34.8L133.7,62z"/>
	<path fill="#FFFFFF" d="M214.8,70.6c-0.3,0.2-6,7.8-2.4,20.3s14,13.4,19,10.2c5-3.2,5.3-12.2,0.7-20.7S221.5,66.1,214.8,70.6z"/>
	<path fill="#FFFFFF" d="M180.3,98.5c0,0-2.2,14.3,5.7,19.9c7.9,5.6,22.1,2.9,22.6-10.9c0,0-9.4-14.3-18.7-15.3
		C180.7,91.3,180.3,98.5,180.3,98.5z"/>
	<path fill="#EAEAEA" d="M197.3,95.4c0,0-9.9,7.2-10.4,23.1c0,0-9.9-8.8-6.8-19.3C183.2,88.8,191.5,88.8,197.3,95.4z"/>
	<path fill="#EAEAEA" d="M212.9,84.7c0,0,7.3-4.4,19.3-3.2c0,0-6.8-13.8-14.9-12.3c-8.1,1.5-5.7,16.7-5.7,16.7L212.9,84.7z"/>
	<path fill="#858C85" d="M163.6,45.9c-0.9,1.6-1.5,3.4-2.1,5c-0.7,1.7-1.7,3.4-3.4,4.1c2-3.5,2.7-5.6,3.9-7.9
		c2.9-5.3,8.5-8.4,13.9-11.1c1.5-0.8,3-1.5,4.6-2c1.6-0.4,3.1-0.8,4.6-1.2c9.3-2.5,17.4-8.8,26.9-9.9c-9.7,2.8-18.2,8.5-27.9,11.6
		c-1.9,0.7-3.9,1.2-5.8,1.9c-2.4,0.9-4.5,2-6.7,3.1C168.6,41.3,165.4,43,163.6,45.9z"/>
	<path fill="#759B9A" d="M213.9,204c0,0.2,0,0.6-0.2,0.8c-0.3,0.4-1,0.1-1.6,0c-1.5-0.3-2.9,1.1-4.5,1c0.9-0.9,1.7-1.9,1.9-3.1
		c0.2-1.2-0.6-2.7-1.8-2.8c2.4-1,3.1-4.6,1.5-6.5c2.2-4.4,3.4-9.2,3.4-14c1,4.5,1.1,9.3,0.3,13.8c-0.3,1.8-0.8,3.6-0.6,5.4
		C212.8,200.4,213.8,202.2,213.9,204z"/>
	<path fill="#759B9A" d="M224.2,214.8c0,0,8.8,0.1,8.8,5.7h-7.3C225.8,220.5,225.8,216,224.2,214.8z"/>
	<path fill="#DACDBC" d="M207.6,200.3c1.3-0.3,2.2-1.7,2.4-3.1c0.1-1.3-0.6-2.7-1.3-3.9c-1.9-2.8-4.7-4.7-7.8-6
		c-3.1-1.3-6.4-1.9-9.7-2.5c-1.7-0.3-3.6-0.6-5.2,0s-3,2.4-2.5,4c0.4,1.3,1.8,2.2,3.2,2.7c4,1.5,8.4,1.6,12.3,3.2
		c0.3,0.1,0.8,0.4,0.8,0.8c0,0.6-0.7,0.8-1.2,0.8c-3.1,0.1-6.3-1.5-9.4-1.3c-0.3,0-0.7,0-0.9,0.3c-0.3,0.3-0.1,1,0.2,1.3
		c0.4,0.3,0.9,0.3,1.5,0.4c3,0.4,6,1.3,8.8,2.7c2,1,3.9,2.2,6,3c1,0.4,2.2,0.7,3.2,0C208.9,202.2,208.8,200.4,207.6,200.3z"/>
	<path fill="#DACDBC" d="M315.8,195.5c-0.4-1.5-1.6-2.7-2.7-3.6c-3.1-2.6-7.2-3.8-11.2-4.1c-4-0.3-8.1,0.3-12,1.1
		c-1.6,0.3-3.6,1.1-3.6,2.7c2.1,0.8,4.6,0.4,6.8,0.2c6-0.4,12.8,0.1,17.2,4.1c0.8,0.8,1.6,1.6,2.7,2c1,0.3,2.5,0,2.8-1
		C316,196.5,315.9,195.9,315.8,195.5z"/>
	<path fill="#9BC9C7" d="M265.5,115.6c2.1,2.4,2.8,5.7,2.9,8.8c0.4,7.7-1.3,15.8-6.4,21.7c-0.4,0.6-1.1,1.2-1.9,1
		c-0.4-0.1-0.8-0.3-1.1-0.6c-1.6-1.1-3.6-1.7-5.5-1.5c3.5-6.5,5.6-13.5,7.6-20.6"/>
	<path fill="#9BC9C7" d="M307.8,152.5c0,0-2.2-8.6-9.9-13.3"/>
	<path fill="#9BC9C7" d="M276.5,134.1c1,3.4,1.5,6.9,1.3,10.5c6.6-1.9,14.3,1.3,17.7,7.4c1.1,2,1.8,4.4,3.7,5.8
		c1.7,1.3,4.3,1.5,6.2,0.3c1.9-1.1,2.9-3.5,2.6-5.6c0,0-4.3-11.1-11.6-14.6c-7.5-3.5-19.9-9.5-19.9-9.5L276.5,134.1z"/>
	<path fill="#9BC9C7" d="M191.1,176.2c-0.4-0.1-0.9-0.1-1.2-0.3c-1.3-0.8-1-2.8-0.4-4.3c1.6-3.9,4.1-7.1,6.2-10.7
		c1.9-3.4,3.4-4.8,6.7-6.9c1-0.7,2-1.3,3.1-1.6c-1.2,2-2.5,4.1-2.8,6.5c-0.1,0.6-0.1,1-0.2,1.6c-0.8,3.6-0.9,7.1-1.9,10.6
		c-0.3,1.2-0.7,2.5-1.5,3.5C197.1,176.6,193.9,176.6,191.1,176.2z"/>
	<path fill="#759B9A" d="M281,185.2c0,0-0.2-8.7-1.7-13.9c0,0-4.9,10.1-3.6,28.6c0,0,6.7-1.5,6.7-3.4c0.1-1.9,0.1-3.7,0.1-3.7
		S281.2,188.6,281,185.2z"/>
	<path fill="#D6A380" d="M164.7,97.3c0.8,1.5,0.7-3.4,2-4.5c0.7,1,1.5,1.9,2.4,2.7c-0.2-2.8,1.1-5.6,2.8-7.8c1.8-2.2,4-3.9,6.3-5.7
		c-0.2-2.1-2.2-3.8-2.2-5.9c0-1,0.4-1.9,1-2.8c4.5-7.8,11.2-14.3,19-18.6c0.3-0.2,0.8-0.3,1.1-0.2c0.3,0.1,0.6,0.3,0.7,0.7
		c0.7,1,1.2,2.1,1.6,3.4c5.8-5.5,14.4-7.9,22.3-6.5c0.7-1.5,0.6-3.2-0.1-4.8c0,0-10.2-2.8-19.9,5.5l-1.6-3.5c0,0-18,8.8-24.4,21.8
		c0,0,3.6,3.1-2.9,9.5c-6.5,6.5-5.4,9.3-5.4,9.3l-2.6-0.2C164.8,89.7,162,92,164.7,97.3z"/>
	<path fill="#D6A380" d="M223.7,47.2c2.2-0.4,4.5-0.7,6.8-0.8c0.7,0,1.5-0.1,2.1,0.1c0.7,0.2,1.3,0.6,1.9,0.9c1.7,1,3.2,2,4.8,3
		c0.2-0.8-0.1-1.6-0.6-2.4c-1.2-2-2.8-3.9-4.9-4.9c-2.5-1.1-5.4-0.8-8.1-0.3c-0.8,0.1-1.7,0.3-2,1c-0.2,0.3-0.2,0.8-0.2,1.1
		C223.5,45.7,223.5,46.4,223.7,47.2z"/>
	<path fill="#D6A380" d="M180.5,129.6c0.8,1.7,1.8,3.1,3,4.4c-2.7,0.8-5.8-0.9-6.8-3.6c0.8-0.6,1.6-1.1,2.4-1.6
		c0.1-0.1,0.2-0.2,0.4-0.2C180,128.4,180.3,129.1,180.5,129.6z"/>
	<path fill="#83B1B1" d="M206,151.8c-1.1,1-1.8,2.4-2.5,3.7c-0.2,0.3-0.3,0.7-0.6,1c-0.1,1.1-0.3,2.2-0.6,3.2c0.4,0.6,1.2,1,2,1
		c1.1,0.1,2.1-0.2,3.2-0.1c0-3.9,0.9-7.8,2.6-11.4C208.9,150.3,207.2,150.7,206,151.8z"/>
	<path fill="#759B9A" d="M254.7,149.6c-3.2-0.7-6.7-0.1-9.6,1.5c-2.9,1.7-5.2,4.4-6.3,7.5c0.1,0,0.2-0.1,0.2-0.1
		c-0.9,0.8-1.8,1.8-2.5,2.8c-2.8-5.7-10.9-8.2-16.3-4.9c-1.2,0.8-2.5,1.7-3.7,2.4c0.3-0.4,0.8-0.7,1.1-1c1.7-1.2,3.6-2.2,5.5-3.1
		c-0.4-1-1-1.9-1.7-2.8c-0.1-0.1-0.2-0.2-0.4-0.3c-0.1,0-0.3,0-0.4,0.1c-0.3,0.1-0.8,0.3-1.1,0.4c-3.8,1.7-6.7,5-8.1,9l0,0
		c-0.3,1.1,0,2.6,0.6,3.8c0.8,1.6,1.8,3.5,1,5c-0.3,0.6-0.8,1.1-1,1.7c-0.3,1.1,0.3,2.5,1.3,3c1,0.6,2.4,0.6,3.5,0.4
		c2.2-0.3,4.4-1.3,6.2-2.8c1-0.9,2-1.9,3.2-2.6c1-0.4,2-0.7,3-0.9c4.1-1,7.8-3.2,11.4-5.5c3.9-2.5,7.7-4.8,11.6-7.3
		c0.4,0.1,0.8,0.3,1.2,0.6c2.4,1.2,3.9,3.4,4.4,5.7c2.1-0.6,3.1-1.1,4.8-3.5c0.1-0.1,0.2-0.1,0.2-0.1c0.1-0.1,0.1-0.2,0.1-0.3
		C262.8,154,258.9,150.5,254.7,149.6z"/>
</g>
<g id="Layer_17">
	<g>
		<g>
			<path fill="#587572" d="M242,224.5c2.8,0.3,5.4,1.5,7.5,3.2c1,0.9,2.2-0.7,1.1-1.5c-2.6-1.9-5.5-3-8.6-3.2
				C241.1,223,241.1,224.4,242,224.5L242,224.5z"/>
		</g>
	</g>
	<g>
		<g>
			<path fill="#B7E2DE" d="M227.3,221.1c-4.8,4.6-9.3,9.5-13.8,14.6c-1.1,1.2,0.8,3.1,1.8,1.8c4.4-5,8.8-10,13.2-15
				C229.5,221.6,228.2,220.2,227.3,221.1L227.3,221.1z"/>
		</g>
	</g>
	<g>
		<g>
			<path fill="#B7E2DE" d="M294.9,233c-3.2-0.1-7.4,0.7-10.6-0.1c-1.2-0.3-0.9,0-1.5-1.2c-0.3-0.7-0.4-1.5-0.6-2.1
				c-0.4-1.8-1-3.6-1.6-5.3c-0.4,0.6-0.8,1.1-1.2,1.7c3.7,0.1,7.3,0.3,11,0.3c1.7,0,1.6-2.5,0-2.6c-3.7-0.2-7.3-0.2-11-0.4
				c-0.9,0-1.5,0.9-1.2,1.7c0.7,2.4,1.2,4.6,1.9,6.9c0.3,1.1,0.4,2.6,1.6,3.2c1.3,0.8,3.5,0.3,4.9,0.3c2.8,0,5.5-0.1,8.3-0.3
				C296.2,235,296.3,233,294.9,233L294.9,233z"/>
		</g>
	</g>
	<g>
		<g>
			<path fill="#B7E2DE" d="M143.2,232c2.9,0.1,5.8-0.1,8.6,0.1c2.1,0.1,4.7,0.9,6.8,0.6c4.8-0.8,10.2-5,14.4-7.3
				c0.9-0.6,0.8-2-0.3-2.2c-1.8-0.4-3.4-0.7-5.3-0.6c-1.7,0.1-1.7,2.7,0,2.6c1.6-0.2,3-0.1,4.6,0.4c-0.1-0.8-0.2-1.6-0.3-2.2
				c-4.9,2.5-10.6,6.7-16.1,6.7c-4.4,0-8.4-0.6-12.8,0.4C142,230.7,142.3,232,143.2,232L143.2,232z"/>
		</g>
	</g>
	<g>
		<g>
			<path fill="#587572" d="M170.5,221.3c-13.3,4.1-26.5,8.3-39.9,12.4c-1.1,0.3-0.9,2,0.3,2.1c55.6,3,111.2,3.6,166.9,3.1
				c0.9,0,1.6-1,1-1.8c-3.1-4.6-5.3-9.4-6.6-14.8c-0.3-1.6-2.7-0.9-2.4,0.7c1.3,5.6,3.6,10.5,6.8,15.3c0.3-0.6,0.7-1.2,1-1.8
				c-55.8,0.7-111.3,0-166.9-2.9c0.1,0.7,0.2,1.3,0.3,2.1c13.2-4.3,26.5-8.5,39.7-12.8C172,222.6,171.6,220.9,170.5,221.3
				L170.5,221.3z"/>
		</g>
	</g>
	<g>
		<g>
			<path fill="#587572" d="M225.7,221.6c4.1,0.2,8.3,0,12.4-0.4c1.2-0.1,1.2-2.1,0-2c-4.1,0.6-8.3,0.8-12.4,0.7
				C224.4,219.8,224.5,221.6,225.7,221.6L225.7,221.6z"/>
		</g>
	</g>
	<g>
		<g>
			<path fill="#587572" d="M224.8,153.5c-3.1-1.5-2.5-6.6-1.5-9.2c0.6-1.5-1.3-2.7-2.1-1.2c-1.8,3.7-2,10.5,2.8,12.1
				C225,155.5,225.7,154,224.8,153.5L224.8,153.5z"/>
		</g>
	</g>
	<g>
		<g>
			<path fill="#587572" d="M208.3,159.1c0.4-4.8,2.2-9.1,5.5-12.8c0.8-0.8-0.4-2-1.2-1.2c-3.5,3.9-5.6,8.7-5.7,14
				C206.9,160.1,208.3,160,208.3,159.1L208.3,159.1z"/>
		</g>
	</g>
	<g>
		<g>
			<path fill="#587572" d="M209.5,194c2.6-4.3,3.8-9.9,3.8-14.8c0-1-1.3-0.9-1.5,0c-0.4,5.2-1.8,9.4-3.6,14.2
				C207.9,194.3,209.1,194.7,209.5,194L209.5,194z"/>
		</g>
	</g>
	<g>
		<g>
			<path fill="#AD846F" d="M178.4,204c0.6-1.1,1.1-2.4,1.6-3.5c0.3-0.8-1-1.3-1.3-0.6c-0.6,1.1-1,2.4-1.5,3.6
				C177,204.2,178.1,204.7,178.4,204L178.4,204z"/>
		</g>
	</g>
	<g>
		<g>
			<path fill="#515151" d="M256,194.3c1-1.6,1.9-3.2,2.9-4.8c0.8-1.2,1.7-3.5,2.7-4.4c0.6-1.2,1.3-0.7,2.2,1.7
				c-0.1,0.2-0.3,0.6-0.4,0.8c-0.3,0.8-1.1,1.8-1.6,2.5c-1,1.7-2,3.4-3,5c-0.6,1,0.9,1.9,1.6,0.9c1.8-2.9,4.1-6,5.4-9.2
				c0.7-1.7,0.6-4.1-1.3-5c-1.8-0.8-3.1,0.7-4,2c-2.1,3-4.1,6.4-5.6,9.9C254.6,194.4,255.6,195.1,256,194.3L256,194.3z"/>
		</g>
	</g>
	<g>
		<g>
			<path fill="#E0AA86" d="M221.1,101.1c-6.9-2.7-8.2-11.8-8.8-18.2c-0.7-6.4,1.7-16.5,10.7-11.2c4.6,2.7,8.4,9.6,10.3,14.7
				c1.5,3.8,3,8.8-0.4,12.2c-2.9,2.9-7.5,3.8-11.3,2.5c-1.3-0.4-1.8,1.6-0.6,2c7.3,2.7,16.5-2.2,16-10.4
				c-0.4-8.1-6.6-20.5-14.6-23.6c-17.7-7.1-15.2,30-1.9,33.9C221.8,103.2,222.2,101.6,221.1,101.1L221.1,101.1z"/>
		</g>
	</g>
	<g>
		<g>
			<path fill="#E0AA86" d="M207.8,108.2c-0.9,9.1-9.2,15.5-18,10.9c-5.4-2.8-9.4-9.3-9.4-15.3c0-3.1,1-6.5,3.5-8.7
				c4.3-3.8,9.3-1.3,12.9,1.1c4.7,3.1,8.8,7.4,11.3,12.5c0.4,0.9,2,0.2,1.7-0.7c-2.8-7.7-11.9-16.1-20.4-17
				c-7.1-0.8-11.8,7.6-11.3,13.9c0.7,8.2,7.5,16.9,16,17.8s15.7-5.9,15.1-14.4C209.2,107.3,207.9,107.3,207.8,108.2L207.8,108.2z"/>
		</g>
	</g>
	<g>
		<path fill="#AD846F" d="M203.2,114.8c0.7-0.1,1.2-0.4,1.7-0.9c0.7-0.8,0.9-1.9,0.3-2.8c-0.4-0.9-1.7-1.3-2.6-1
			c-0.8,0.2-1.2,0.9-1.6,1.6c-0.2,0.4-0.4,1-0.3,1.5c0.2,1.1,1.6,1.5,2.7,1.6"/>
		<g>
			<path fill="#AD846F" d="M203.4,115.6c1.8-0.2,3.1-1.9,3-3.7c-0.1-1.8-1.8-3.1-3.5-2.9c-1.8,0.2-3.4,2.2-3.2,4
				c0.1,1.8,2.1,2.9,3.8,2.8c0.9-0.1,1.6-1.6,0.6-2c-0.6-0.2-1.6-0.3-1.9-0.8c-0.4-0.6,0.3-1.8,0.9-2c0.8-0.3,1.6,0.2,1.7,0.9
				c0.2,1.1-0.7,1.9-1.7,2.1C202,114.3,202.4,115.7,203.4,115.6L203.4,115.6z"/>
		</g>
	</g>
	<g>
		<path fill="#AD846F" d="M225.1,99.1c1-0.4,1.8-1.3,1.9-2.5c0.1-1.1-0.7-2.2-1.8-2.4c-0.3,0-0.8,0.1-1.1,0.2
			c-1.1,0.6-1.8,1.8-1.6,3c0.2,1.2,1.7,2,2.8,1.5"/>
		<g>
			<path fill="#AD846F" d="M225.4,99.8c1.5-0.8,2.7-2.4,2.4-4.1c-0.4-1.9-2.2-2.8-4-2c-1.7,0.8-2.8,2.8-2.1,4.6
				c0.7,1.6,2.7,2.7,4.3,1.7c1-0.7,0.3-2.2-0.8-2c-1.8,0.4-1.7-1.8-0.4-2.5c0.8-0.4,1.5,0.1,1.6,0.9c0.1,0.9-0.8,1.7-1.6,2
				C223.9,99,224.5,100.2,225.4,99.8L225.4,99.8z"/>
		</g>
	</g>
	<g>
		<g>
			<path fill="#373A37" d="M130.4,48.7c12.9-17.4,31.1-30,51.6-36.8s51.4-12,64.5,10.2c0.7,1,2.2,0.1,1.7-1
				C235.9-1.1,205.3,2.8,184.9,9c-22.2,6.7-42.3,19.9-55.8,39C128.5,48.8,129.8,49.5,130.4,48.7L130.4,48.7z"/>
		</g>
	</g>
	<g>
		<g>
			<path fill="#373A37" d="M175.6,71.4c5.2-9.3,14.8-16.2,23.7-21.4c1-0.6,0.1-2.2-1-1.7c-9.2,5-19.8,12.5-24,22.5
				C174.2,71.6,175.3,72,175.6,71.4L175.6,71.4z"/>
		</g>
	</g>
	<g>
		<g>
			<path fill="#AD846F" d="M258.1,90.9c0-1.6-0.3-3-1.1-4.4c-0.6-1-2.1-0.1-1.6,0.9c0.6,1.1,0.9,2.2,1,3.4
				C256.5,91.9,258.1,91.9,258.1,90.9L258.1,90.9z"/>
		</g>
	</g>
	<g>
		<g>
			<path fill="#AD846F" d="M257.4,82.1c6.6-6.5,12,2.5,11,8.7c-0.9,5.3-4.5,8.6-9.4,10.4c-1.1,0.4-0.7,2.1,0.6,1.9
				c7.6-2,12.4-9.6,10.7-17.4c-1.5-6.8-8.8-10.4-14-4.6C255.6,81.7,256.6,82.8,257.4,82.1L257.4,82.1z"/>
		</g>
	</g>
	<g>
		<g>
			<path fill="#AD846F" d="M178.2,127.8c1.6,2.5,3.4,4.8,5.6,6.8c0.9,0.8,2.1-0.4,1.3-1.3c-1.9-2-3.8-4-5.5-6.3
				C179,126.2,177.6,126.9,178.2,127.8L178.2,127.8z"/>
		</g>
	</g>
	<g>
		<g>
			<path fill="#AD846F" d="M223.2,143.3c6.3-1.1,12.4-2.7,17.9-5.9c5.7-3.4,10.6-7.9,16-11.6c3.9-2.7,7.7-5.2,8.4-10.2
				c0.6-5-2.5-9.5-5-13.5c-0.7-1-2.2,0-1.6,0.9c4.5,6.4,7.9,13.8,0.1,19.5c-2.9,2.1-5.8,4-8.7,6.3c-3.7,2.9-7.4,5.9-11.6,8.2
				c-5,2.7-10.4,3.8-15.9,5.2C221.9,142.2,222.2,143.6,223.2,143.3L223.2,143.3z"/>
		</g>
	</g>
	<g>
		<g>
			<path fill="#587572" d="M265.1,114.6c-3.6,7.7-7.2,15.2-11.8,22.4c-4.5,7.1-10.9,13-14.9,20.3c-2.8,4.9-2.4,9.6,1,14.2
				c2.1,2.9,4.8,5.5,6.6,8.7c2.7,4.8,3.5,10,3.1,15.5c-0.1,1.2,1.8,1.2,1.9,0c0.4-6.6-1.1-13.1-4.9-18.7c-2-2.9-4.7-5.3-6.4-8.4
				c-3-5.7,0.1-10.6,3.6-15.1c9.4-11.6,17.9-24.2,23.1-38.4C266.6,114.3,265.4,113.8,265.1,114.6L265.1,114.6z"/>
		</g>
	</g>
	<g>
		<g>
			<path fill="#587572" d="M265.9,114.9c9.2,4.3,10.1,15.9,7.9,24.6c-2,8.1-6.6,15-11.4,21.6c0.6,0.2,1.2,0.6,1.8,0.8
				c2.4-13.4-17.9-17.1-24.1-7.1c-0.4,0.8,0.7,1.7,1.2,1c5.7-6.8,23.4-6.7,20.9,5.6c-0.2,1.1,1.1,1.7,1.8,0.8
				c6.3-8.6,12.2-18.2,12.7-29.2c0.2-7.7-2.4-16.5-10.3-19.1C265.6,113.4,265.2,114.6,265.9,114.9L265.9,114.9z"/>
		</g>
	</g>
	<g>
		<g>
			<path fill="#587572" d="M216.3,157.9c-2.7,4-3.1,8.7-3.4,13.4c0.4-0.2,0.9-0.6,1.3-0.8c-3.8-2.5-5.9-6.5-5.8-11.1
				c0-1.1-1.8-1.1-1.8,0c-0.1,5.2,2.5,9.9,6.7,12.7c0.6,0.4,1.3-0.1,1.3-0.8c0.2-4.4,0.6-8.7,3.1-12.5
				C218.5,157.8,216.9,156.9,216.3,157.9L216.3,157.9z"/>
		</g>
	</g>
	<g>
		<g>
			<path fill="#587572" d="M238.7,165c0.6-7.5-9.2-12.4-15.7-11.5c-1.1,0.1-1.1,1.9,0,1.8c5.5-0.7,14.3,3.2,13.9,9.7
				C236.8,166.2,238.5,166.2,238.7,165L238.7,165z"/>
		</g>
	</g>
	<g>
		<g>
			<path fill="#587572" d="M196.6,156.9c-5.6,7.3-12.4,17.8-13,27.2c-0.1,1.2,1.8,1.2,1.9,0c0.6-9,7.6-19.1,12.5-26.3
				C198.8,156.8,197.2,156,196.6,156.9L196.6,156.9z"/>
		</g>
	</g>
	<g>
		<g>
			<path fill="#82786F" d="M209.8,193.5c-4.7-6.9-13.1-8.8-21-9.7c-7.7-0.9-12.1,2.1-11.9,10.2c0.1,2.5,0.1,4.9,2.6,6.2
				c3.6,1.9,9.4,1.2,13.2,1.9c3.5,0.6,6.5,1.5,9.6,2.9c1.2,0.6,2.6,1.5,4,1.5c2.1-0.1,3.4-1.2,3.8-3.2c0.1-0.7-0.9-1-1-0.3
				c-0.7,3-14.1-2-16.1-2.4c-5-0.8-13.1,0.7-14.6-5.8c-1-4.6,1.2-9.1,6.8-9.7c2.2-0.2,5,0.6,7.2,0.9c6.3,1.1,12.1,3.1,16.1,8.4
				C209,194.9,210.3,194.3,209.8,193.5L209.8,193.5z"/>
		</g>
	</g>
	<g>
		<g>
			<path fill="#82786F" d="M209.4,203.2c1.1-1.1,0.2-2.6-0.8-3.4c-1.6-1.2-3.6-1.7-5.5-1.6c-1,0.1-1,1.6,0,1.6c1-0.1,2,0,3,0.3
				c0.7,0.2,2.9,1.2,2.2,2.2C208.1,203.1,209,203.8,209.4,203.2L209.4,203.2z"/>
		</g>
	</g>
	<g>
		<g>
			<path fill="#82786F" d="M209,194.7c0.6,0.8,0.7,1.7,0.3,2.6c-0.3,1-0.9,1.3-1.7,1.9c-0.7,0.4-0.3,1.6,0.6,1.3
				c2.9-0.6,3.2-4.7,1.7-6.6C209.5,193.5,208.7,194.2,209,194.7L209,194.7z"/>
		</g>
	</g>
	<g>
		<g>
			<path fill="#587572" d="M275.9,129c4.8,3.5,10.3,5.3,15.7,7.7c7.6,3.5,12.2,8.2,15.5,16c5.7,13.8,9.4,28.3,11.9,43.1
				c0.2,1.1,1.9,0.7,1.7-0.4c-2.5-15.8-6.5-32.5-13.5-46.9c-6-12.4-19.7-13.9-30.5-20.6C275.9,127.4,275.3,128.5,275.9,129
				L275.9,129z"/>
		</g>
	</g>
	<g>
		<g>
			<path fill="#587572" d="M280.3,185.2c-0.3,2.6,0.2,5,1.2,7.4c0.4,1,1.9,0.1,1.5-0.9c-1-2.1-1.3-4.3-1.3-6.6
				C281.8,184.3,280.4,184.3,280.3,185.2L280.3,185.2z"/>
		</g>
	</g>
	<g>
		<g>
			<path fill="#82786F" d="M283.1,196.4c-1.3-10,21.6-8.5,26.2-6.2c2.8,1.5,5.9,3.8,8.2,6c2.7,2.8,5.9,12.7,0.6,15
				c-0.9,0.4-0.1,1.8,0.8,1.3c4.1-1.8,3.9-8.2,3-11.9c-1.5-5.6-7.7-10-12.7-12.3c-6.3-3-29.2-3.1-27.3,8.2
				C282.1,197.6,283.2,197.2,283.1,196.4L283.1,196.4z"/>
		</g>
	</g>
	<g>
		<g>
			<path fill="#AD846F" d="M170.9,222.7c5.6,0.3,11.2,0.2,16.8,0.1c0.9,0,0.9-1.5,0-1.5c-5.6-0.1-11.2-0.2-16.8,0.1
				C170.1,221.6,170.1,222.7,170.9,222.7L170.9,222.7z"/>
		</g>
	</g>
	<g>
		<g>
			<path fill="#AD846F" d="M247.1,222.7c15.2,0.4,30.5,0.3,45.7,0.1c0.9,0,0.9-1.5,0-1.5c-15.2-0.1-30.5-0.3-45.7,0.1
				C246.3,221.6,246.3,222.7,247.1,222.7L247.1,222.7z"/>
		</g>
	</g>
	<g>
		<g>
			<path fill="#AD846F" d="M171.7,221.7c-2.1-2.6,1.7-8.1,2.9-10.4c1.2-2.5,2.7-4.9,3.9-7.4c0.3-0.8-0.7-1.3-1.1-0.7
				c-2.7,4-4.8,8.6-6.7,13.1c-1,2.2-1.9,4.5,0.2,6.4C171.4,223.2,172.2,222.4,171.7,221.7L171.7,221.7z"/>
		</g>
	</g>
	<g>
		<g>
			<path fill="#AD846F" d="M292.2,222.9c6.2-0.1,12.9-0.9,16.7-6.4c0.6-0.8-0.7-1.7-1.2-1c-3.8,4.9-9.6,5.5-15.5,6
				C291.4,221.7,291.3,222.9,292.2,222.9L292.2,222.9z"/>
		</g>
	</g>
	<g>
		<g>
			<path fill="#AD846F" d="M251,207.7c-2.7,4.3-5.4,8.8-4.9,14.1c0.1,1.1,1.8,1.1,1.7,0c-0.2-5,2.1-9.1,4.6-13.3
				C253,207.6,251.5,206.8,251,207.7L251,207.7z"/>
		</g>
	</g>
	<g>
		<g>
			<path fill="#AD846F" d="M259.8,212c-2.6,2.8-4.1,6.4-3.5,10.2c0.2,1,1.7,0.7,1.7-0.2c0-3.4,0.6-6.4,2.7-9.1
				C261.3,212.3,260.4,211.3,259.8,212L259.8,212z"/>
		</g>
	</g>
	<g>
		<g>
			<path fill="#AD846F" d="M243.8,202c-6.7-3.2-11.8,11.1-5.2,11.5c1,0.1,1.2-1.6,0.2-1.8c-2.8-0.6-1-4.5-0.2-6c1-2,2.6-2.6,4.8-2.4
				C244.1,203.5,244.5,202.3,243.8,202L243.8,202z"/>
		</g>
	</g>
	<g>
		<g>
			<path fill="#AD846F" d="M189.4,221.8c-0.8-2.4-1.1-4.8-0.7-7.3c0.7-3.5,1.6-4.1,5-5.4c2.8-1,4.1-0.9,6.6-1.2
				c3.2-0.4-1.1-0.9,5.7-0.6c0.6,0,1.1,0.6,1.7,0.4c3.4-0.6,3.6-3.7,8.1,0.9c1.5,1.5,2.4,4.6,2.4,6.6c1.1,3.6-1,5.9-6.4,6.8
				c-0.6-0.1-1.1-0.3-1.8-0.4c-2.9,0.1-0.8-0.7-3.8-0.3c-1,0.1-2.1,0.9-3.1,1c-2.9,0.2-5.4-1.2-8.1-1.7c-2.4-0.3-4.4,0.2-6.6,1.1
				c-1.1,0.4-0.1,2,0.9,1.6c5.2-2.2,6.4,0.6,10.9,1.1c2,0.3,2.9-0.7,4.8-1.1c4.3-0.8,9.2,2.5,12.9-0.8c4.7-4.3,2-15.8-3.6-18.4
				c-1.1-0.6-2-0.4-3.2-0.3c-0.6,0.1-0.9,0.7-1.5,0.8c-1.7,0.3-3.2-0.1-4.8-0.2c-1.3,0-2,0.1-3.2,0.4c-2.4,0.6-4,0-6.2,0
				c-8.1,0-9.9,10.9-7.6,16.8C188.3,223.3,189.7,222.8,189.4,221.8L189.4,221.8z"/>
		</g>
	</g>
	<g>
		<g>
			<path fill="#AD846F" d="M219.8,214c2.6-0.2,4.3,1.7,4.7,4c0.2,1.2,0.3,2.4-1.2,2.5c-1.3,0.1-2.7-0.1-4-0.3
				c-1.1-0.2-1.7,1.5-0.4,1.8c1.8,0.6,4.5,0.9,6.3,0.1c1.5-0.7,1.6-2.2,1.3-3.7c-0.4-3.5-3.1-6.5-6.8-5.8
				C218.7,212.6,219,214.1,219.8,214L219.8,214z"/>
		</g>
	</g>
	<g>
		<g>
			<path fill="#373A37" d="M128.9,48.2c1.5,16.5,8.8,33.6,17.2,47.7c4.3,7.2,9.2,14,14.7,20.3c4.7,5.5,10,11.2,17.7,11.8
				c1,0.1,1.2-1.6,0.2-1.7c-8.3-1.2-13.8-7.9-18.9-14.1c-5.2-6.3-9.9-13.1-13.8-20.3c-7.7-14-11.5-28.4-15.6-43.7
				C130.2,47.2,128.8,47.3,128.9,48.2L128.9,48.2z"/>
		</g>
	</g>
	<g>
		<g>
			<path fill="#373A37" d="M180.1,126.1c-2.8-5.6-5.7-11.3-8.7-16.9c-2.7-5-9.4-13.5-5.8-19c0.7-1-0.9-1.9-1.7-1
				c-3.8,5.4-0.7,8.8,2.1,14.1c4.1,7.8,8.4,15.8,12.7,23.5C179.2,127.8,180.5,127,180.1,126.1L180.1,126.1z"/>
		</g>
	</g>
	<g>
		<g>
			<path fill="#373A37" d="M247.1,21.6c5.8,21.2,9.3,42.2,8.3,64.2c-0.1,1.2,1.9,1.2,1.9,0c1-21.6-1.5-44-9-64.5
				C248.1,20.5,246.8,20.8,247.1,21.6L247.1,21.6z"/>
		</g>
	</g>
	<g>
		<g>
			<path fill="#373A37" d="M223.5,44c7.2-1.8,13.1,0.2,15.9,7.3c1.6,4.1,2.7,8.4,4.4,12.5c3.1,7.8,7.1,15.6,11.8,22.5
				c0.7,1,2.2,0.1,1.6-0.9c-6.7-11.2-11.1-22.5-15.8-34.7c-3.1-8.2-10-10.7-18.2-8.2C222.2,42.8,222.6,44.2,223.5,44L223.5,44z"/>
		</g>
	</g>
	<g>
		<g>
			<path fill="#373A37" d="M166.9,59.5c1.9,4.8,4.7,8.7,7.3,13.1c0.9,1.5,1.6,2.7,0.9,3.9c-0.4,0.9-2.4,2.2-3,2.9
				c-1.3,1.5-2.7,3-3.6,4.7c-0.3,0.7-1.3,4.1-1.6,4.1c-1.2,0.3-3.9-2.8-4.7-3.8c-0.9-1.5-1.5-3.4-1.9-4.9c-0.7-3.2-0.8-6.6-0.1-9.7
				c0.4-1.9,3.2-11.1,6.6-9.3c1.1,0.6,2-1,1-1.7c-6.2-3.5-9.5,9.1-10,13.1c-0.7,6.7,1.6,18.2,9.7,19c0.6,0,0.9-0.4,1-1
				c0.6-4.9,3.7-8.2,7.2-11.4c1.6-1.5,2.2-1.7,2-3.7c-0.1-2-3.2-4.6-4.3-6c-2.1-3-3.8-6.4-5.3-9.7C168,58,166.6,58.6,166.9,59.5
				L166.9,59.5z"/>
		</g>
	</g>
	<g>
		<g>
			<path fill="#373A37" d="M195.1,41.3c1.3,2.9,3,9,5.4,11c1.2,1,0.4,1.1,2.5,1.1c2,0,4.8-3.4,6.7-4.1c4.4-1.8,8.8-1.7,13.3-0.1
				c0.7,0.2,1.1-0.3,1.2-0.9c0.7-8.5-3.8-16.7-12.8-18.4c-7.6-1.5-14.4,3.2-16.6,10.5c-0.3,1.2,1.5,1.7,1.8,0.6
				c2-6.7,8.8-11,15.8-8.7s10.6,9,9.7,16c0.4-0.3,0.8-0.6,1.2-0.9c-4.7-1.7-9.9-1.7-14.6,0.2c-1.2,0.6-5.6,4-6.9,3.8
				c-1.3-0.2-4.8-9.4-5.6-10.9C196,39.7,194.7,40.4,195.1,41.3L195.1,41.3z"/>
		</g>
	</g>
	<g>
		<g>
			<path fill="#373A37" d="M133.9,43c1.9,6.4,4.1,12.7,6,19c0.3,1.2,2.2,0.7,1.9-0.6c-1.9-6.4-3.8-12.8-6.3-19
				C135.2,41.6,133.5,42,133.9,43L133.9,43z"/>
		</g>
	</g>
	<g>
		<g>
			<path fill="#373A37" d="M138.7,38.6c0.6,3,1.5,6,2.4,9c0.3,1.2,2.2,0.7,1.9-0.6c-0.9-2.9-1.7-5.9-2.5-9
				C140.1,37,138.5,37.4,138.7,38.6L138.7,38.6z"/>
		</g>
	</g>
	<g>
		<g>
			<path fill="#373A37" d="M144.4,32.6c1.6,8.4,3.9,16.6,6.9,24.5c0.4,1.1,2.4,0.7,1.9-0.6c-2.9-8.1-5.3-16.1-7.1-24.4
				C145.8,30.9,144.2,31.5,144.4,32.6L144.4,32.6z"/>
		</g>
	</g>
	<g>
		<g>
			<path fill="#AD846F" d="M178.8,127.9c-7.9,2-2.9,12.3,1.7,15.2c2.8,1.8,6.4,2.1,9.5,1c1.5-0.6,2.7-2.1,4.1-1.8
				c0.6,0.1,2.8,2.6,3.4,3c0.9,0.7,1.8,1.1,2.7,1.7c0.9,0.6,1.7-0.9,0.8-1.3c-2.7-1.6-4.7-3.4-6.6-5.6c-0.2-0.3-0.9-0.3-1.1,0
				c-2.5,2.5-6.3,3.7-9.6,2.6c-1.5-0.4-2.9-1.5-3.9-2.7c-1.9-2-6-8.5-0.3-10.4C180.2,129.2,179.9,127.7,178.8,127.9L178.8,127.9z"/>
		</g>
	</g>
	<g>
		<g>
			<path fill="#AD846F" d="M241,221.5c-5.5-1.7,4.6-20,6.9-22.6c4.1-4.5,7.4-2.5,12.5-0.2c1.6,0.7,2.7,1.1,4.5,1.3
				c6.2,0.8,16.3,2,20.6-3.6c0.6-0.8-0.7-1.7-1.3-1c-4.8,5.5-18.1,3.9-23.8,1c-2.2-1.1-3.2-2.5-6.2-2.5c-2.2,0.1-4.5,1-6.3,2.5
				c-4.9,4-7.5,12.2-9.7,17.9c-1.2,3.2-2.4,8.1,2.4,8.7C241.6,223.2,242,221.8,241,221.5L241,221.5z"/>
		</g>
	</g>
	<g>
		<g>
			<path fill="#82786F" d="M313.2,203.5c1.6,2.6,3,5.8,3.4,9c0.2,2.7-1.5,6.7-4.8,5c-1.6-0.8-1.9-3.6-2.2-5c-1-3.9-1.8-7.2-4.5-10.4
				c-5.5-6.7-14.4-8.7-22.5-6.2c-1,0.3-0.6,1.9,0.4,1.6c9.1-2.9,18.6,0.4,23.1,9.1c1.8,3.6,0.3,10.2,4.3,12.2
				c2.7,1.3,6.9,0.7,8.1-2.4c1.5-3.8-2.1-10.4-4.1-13.3C313.7,202.3,312.9,202.8,313.2,203.5L313.2,203.5z"/>
		</g>
	</g>
	<g>
		<g>
			<path fill="#515151" d="M246.6,217.8c-0.9-0.9-3.1-0.9-4.1-0.1c-0.9,0.7-1.2,1.9-1.6,2.9c-0.3,1.1-0.3,2.1,0.1,3.2
				c0.2,0.3,0.7,0.4,1,0.4c1.3-0.2,2.7-0.8,4-1.3c1-0.4,0.1-1.9-0.9-1.5c-1.1,0.6-2.4,0.9-3.6,1.1c0.3,0.2,0.7,0.4,1,0.6
				c-0.4-1.1,0-2.8,0.8-3.8c0.3-0.4,1.7-0.8,2.1-0.4C246.3,219.5,247.3,218.5,246.6,217.8L246.6,217.8z"/>
		</g>
	</g>
	<g>
		<g>
			<path fill="#587572" d="M217.5,158.9c1-0.4,1.7-1.3,2.6-1.8c1-0.7,2-0.9,3.1-1.2c1-0.3,0.9-2.1-0.2-1.9c-1.3,0.1-2.7,0.7-3.8,1.3
				c-1,0.6-2.4,1.6-2.7,2.7C216.5,158.4,216.9,159.1,217.5,158.9L217.5,158.9z"/>
		</g>
	</g>
	<g>
		<g>
			<path fill="#AD846F" d="M200.6,147c3.2,1,6,0.3,9.3-0.4c4.3-1,8.5-1.9,12.8-3c1.1-0.3,0.7-2-0.4-1.7c-3.1,0.7-6.4,1.5-9.5,2.2
				c-3.7,0.9-7.7,2.5-11.5,1.5C200,145.2,199.7,146.7,200.6,147L200.6,147z"/>
		</g>
	</g>
	<g>
		<g>
			<path fill="#587572" d="M197.9,157.9c3.9-3.4,8.3-6.2,13-8.5c1-0.6,0.1-2-0.9-1.6c-4.9,2.2-9.3,5.3-13.2,9
				C196,157.4,197.1,158.6,197.9,157.9L197.9,157.9z"/>
		</g>
	</g>
	<g>
		<g>
			<path fill="#373A37" d="M224.1,112.9c3.7-1.6,7.4-3.2,11.1-4.7c1.3-0.6,0.6-2.5-0.8-1.8c-3.6,1.9-7.4,3.5-11.1,5.3
				C222.4,112,223.2,113.3,224.1,112.9L224.1,112.9z"/>
		</g>
	</g>
	<g>
		<g>
			<path fill="#587572" d="M251,227c-1.6,0-4.3-0.2-4.4,2c-0.1,2.5,3.1,3.5,5,3.5c1.8,0,4.5-0.9,4.5-3.1c0-2.7-3-3.2-5-3
				c-1.2,0.1-1.3,2.1,0,2c0.8-0.1,2.6-0.3,3,0.6c0.4,1.2-1.8,1.5-2.5,1.5c-0.9,0-2.5-0.1-2.6-1.1c-0.1-0.8,0.1-0.6,0.8-0.7
				c0.3,0,0.8,0,1.1-0.1C252,228.4,252,227,251,227L251,227z"/>
		</g>
	</g>
	<g>
		<g>
			<path fill="#587572" d="M180.2,228.6c-0.7,0-1.3,0-1.9-0.1c-0.4,0-0.7,0.3-0.9,0.7c-0.6,1.3,0.3,2.9,1.6,3.5
				c1.5,0.8,3.6,0.2,5-0.4c1.2-0.7,1.7-2,1-3.2c-0.8-1.6-2.7-1.8-4.3-1.7c-1.2,0.1-1.3,2.1,0,2c0.7,0,1.6-0.2,2.1,0.1
				c0.8,0.4,0.2,0.9-0.3,1.1c-0.9,0.3-4,1-3.5-1c-0.3,0.2-0.6,0.4-0.9,0.7c0.7,0,1.3-0.1,1.9-0.1
				C181.2,230.2,181.2,228.6,180.2,228.6L180.2,228.6z"/>
		</g>
	</g>
	<g>
		<g>
			<path fill="#587572" d="M207.2,226.6c-0.9-1-2.7-0.3-3,0.9c-0.6,1.8,1.7,3.1,3.1,3.5c1.6,0.3,3.6-0.3,3.7-2.1
				c0.1-1.8-1.8-2.7-3.2-3c-1.1-0.3-1.6,1.6-0.4,1.8c0.6,0.1,1.1,0.2,1.7,0.6c0.7,0.4,0.6,1.1-0.2,1.3c-0.7,0.2-1.6-0.1-2.2-0.6
				c-0.3-0.2-0.8-0.4-0.8-0.9c0-0.2,0.2-0.8,0.4-0.4C206.9,228.3,207.9,227.3,207.2,226.6L207.2,226.6z"/>
		</g>
	</g>
	<g>
		<g>
			<path fill="#587572" d="M204.7,227.3c-3.5-1.3-7.9-0.4-10.7,1.9c-0.9,0.8,0.2,2.2,1.2,1.6c2.9-1.9,5.6-2.6,9.1-2
				C205.3,229,205.6,227.6,204.7,227.3L204.7,227.3z"/>
		</g>
	</g>
	<g>
		<g>
			<path fill="#587572" d="M193.3,226.7c-0.7,1.1-1.1,2.4-1.6,3.6c-0.1,0.4,0.2,0.9,0.6,1c1.6,0.4,3.1,0.9,4.6,1.2
				c1.1,0.3,1.7-1.5,0.4-1.8c-1.6-0.3-3.1-0.7-4.7-1c0.2,0.3,0.3,0.7,0.6,1c0.3-1.1,0.7-2.2,1.2-3.2
				C195,226.6,193.8,226,193.3,226.7L193.3,226.7z"/>
		</g>
	</g>
	<g>
		<g>
			<path fill="#587572" d="M229.6,229.8c-1.5-0.1-3.1,0.2-3.6,1.8c-0.4,1.8,1.2,2.5,2.7,2.7c1.3,0.1,3.8,0,4.3-1.6
				c0.6-1.7-1.3-2.7-2.7-2.7c-1,0-1.2,1.5-0.2,1.8c0.2,0.1,0.6,0.1,0.8,0.2c0.4,0.2,0.2,0.2,0,0.3c-0.4,0.2-1.3,0.2-1.9,0.1
				c-0.4,0-1.3-0.1-1-0.7c0.2-0.6,1.2-0.4,1.8-0.4C230.6,231.3,230.6,229.9,229.6,229.8L229.6,229.8z"/>
		</g>
	</g>
	<g>
		<g>
			<path fill="#587572" d="M232.2,232.2c2.2-0.3,4-1.6,5.5-3.2c0.9-1.1-0.8-2.4-1.6-1.1c-1,1.6-2.6,2.6-4.4,2.9
				C230.7,230.9,231.2,232.4,232.2,232.2L232.2,232.2z"/>
		</g>
	</g>
	<g>
		<g>
			<path fill="#587572" d="M233.4,228.9c1.7-0.1,3.1-0.4,4.7-1c-0.3-0.2-0.7-0.4-1-0.6c0.3,1,0.7,2,1.1,3s2.1,0.2,1.7-0.7
				c-0.3-1-0.8-2-1.3-2.9c-0.2-0.4-0.8-0.4-1.1-0.3c-1.2,0.7-2.7,1-4,1.1C232.4,227.4,232.4,228.9,233.4,228.9L233.4,228.9z"/>
		</g>
	</g>
</g>
</svg>
