<?xml version="1.0" encoding="utf-8"?>
<!-- Generator: Adobe Illustrator 18.1.1, SVG Export Plug-In . SVG Version: 6.00 Build 0)  -->
<svg version="1.1" id="Layer_1" xmlns="http://www.w3.org/2000/svg" xmlns:xlink="http://www.w3.org/1999/xlink" x="0px" y="0px"
	 viewBox="178.5 90.3 90.8 45.5" enable-background="new 178.5 90.3 90.8 45.5" xml:space="preserve">
<g>
	<path fill="#B3DE92" d="M250.3,97.3l-16.8,19.9c0,0-0.1,0-0.2,0v15.5l17.1-12.3L250.3,97.3L250.3,97.3z"/>
	<path fill="#B3DE92" d="M215.8,118.8v8.3l0.4-0.1l16.3,6v-15.6C229,117.6,217.6,118.6,215.8,118.8z"/>
	<polygon fill="#B3DE92" points="266.7,94.2 251.1,97.2 251.1,120.4 266.7,122.3 	"/>
	<path fill="#B3DE92" d="M201.5,132.4l13.6-5v-8.1C212.5,121.6,201.5,132.4,201.5,132.4z"/>
	<path fill="#A5CE86" d="M215.6,118.8c0,0-0.2,0.2-0.5,0.4v8.1l1.8-0.3v-8.3C216.7,118.8,215.6,118.8,215.6,118.8z"/>
	<path fill="#A5CE86" d="M232.5,117.3v15.6l0.3,0.1l1.4-0.3v-15.5C234.1,117.2,232.8,117.3,232.5,117.3z"/>
	<polygon fill="#A5CE86" points="249.4,97.3 249.4,120.4 250.5,120.3 251.1,120.4 251.1,97.2 	"/>
</g>
<path fill="#FFFFFF" d="M199.6,134.6l-1.8-2l17.1-15.2l17.4-0.8l17.7-21l16.4-3.8l0.6,2.6l-15.5,3.6l-18,21.2L216,120L199.6,134.6z"
	/>
<path fill="#608D3B" d="M180.5,128.2l18.1,4l16.8-7l17.3,6.3l17.7-12.6l16.5,2.8l-0.5,2.6l-15.4-2.7l-18,12.8l-17.7-6.4l-16.6,6.9
	l-18.3-4.1V128.2z"/>
</svg>
