<?xml version="1.0" encoding="utf-8"?>
<!-- Generator: Adobe Illustrator 18.1.1, SVG Export Plug-In . SVG Version: 6.00 Build 0)  -->
<svg version="1.1" id="Layer_18" xmlns="http://www.w3.org/2000/svg" xmlns:xlink="http://www.w3.org/1999/xlink" x="0px" y="0px"
	 viewBox="0 0 450 250" enable-background="new 0 0 450 250" xml:space="preserve">
<path fill="#A06944" d="M360.1,116.8c0,0,11.2-2.5,12.8,8.6s-16.3,10-16.3,10s-1.2,22.7-22,31.8c-20.8,9.1-60.2-2.4-71-12.9
	c0,0-5.2-11.5-1.8-29.9c0,0-11.1,0.3-10.7-8.5s11.1-5.9,11.1-5.9l3.7-42.7c0,0,15.2-4.4,29.7,0.6c14.5,5,27-5.9,46.8,7.3
	c11.6,7.5,3.2,38.9,3.2,38.9l8.5,10.5L360.1,116.8z"/>
<path fill="#724830" d="M265.3,67.5c8.3-2.8,17.3-3.3,25.9-1.5c2.6,0.6,5.2,1.4,7.8,1.7c3.4,0.5,6.9,0.3,10.4,0.1
	c5.7-0.3,11.5-0.4,17.2,0.5c5.7,0.9,11.3,2.9,15.8,6.5c1.9,1.5,3.6,3.3,4.7,5.4c1.4,2.8,1.7,6,1.8,9.1c0.2,6.8-0.6,13.7-2.3,20.3
	c-0.5,1.7-1,3.6-0.5,5.3c0.4,1.2,1.2,2.2,2.1,3.2c1.5,1.7,3,3.5,4.5,5.2c-1.1,1.4-2.2,2.9-3.3,4.3c-1.8-2.4-4.3-6.3-6.2-8.6
	l-1.1-1.8c2.1-8.9,7-16.5,5.1-25.4c-0.5-2.2-1.2-4.3-2.4-6.2c-1.5-2.3-3.6-4.2-5.8-5.8c-6.6-4.9-14.8-8.1-23-7.4
	c-3.2,0.3-6.4,1.2-9.7,1.4c-7,0.6-13.9-1.6-20.9-2.8c-7-1.2-14.8-1-20.2,3.5"/>
<path fill="#B27850" d="M326.7,168.6c5.1-1.2,8-6.8,9.9-11.7c1.9-4.8,2.6-10.1,3-15.3c0.6-7.7,0.5-15.8-2.7-22.9
	c-3.7-8.2-11.2-14.2-19.5-17.6c-8.3-3.4-17.4-4.3-26.4-4.4c-3.7,0-7.5,0.1-11.1,1.2c-7.9,2.5-13.6,9.9-16.2,17.8s-2.6,16.4-2.6,24.8
	c0,5,0.1,10.2,2.8,14.4C264,155,295.6,176,326.7,168.6z"/>
<path fill="#F2EFC2" d="M321.9,92c0,0,7.9,1,6.7,17.3s-7.6,18-13.3,17.3c-5.6-0.7-10.4-6.3-8.8-17.2C308.1,98.4,313.8,90.3,321.9,92
	z"/>
<path fill="#F2EFC2" d="M282.7,89.8c0,0,7.6-0.9,8.6,13.7c1,14.7,0.7,20-8.6,19.2c-9.3-0.9-14.1-5.7-11.7-18
	C273.4,92.5,274.6,89.5,282.7,89.8z"/>
<path fill="#DDD6AB" d="M323.4,92.1c2.1,1,3.4,3.2,4.2,5.3c1.3,3.4,1.7,7.2,1.2,10.9c-4.5-5.2-11-8.6-17.8-9.4
	c-0.3,0-0.6-0.1-0.7-0.3c-0.2-0.3,0.1-0.7,0.3-1c1.7-1.8,3.4-3.7,5.6-4.9S321.1,91,323.4,92.1z"/>
<path fill="#DDD6AB" d="M270.9,103c-0.2-2.6,1.6-4.9,3.1-7.2c1.1-1.7,2-3.5,3.6-4.8c2-1.7,5-2.1,7.4-1.1c2.4,1,4.2,3.4,4.5,6
	c-6.5,0.1-12.9,2.7-17.5,7.2c-0.2,0.2-0.6,0.4-0.8,0.3C270.9,103.3,270.9,103.2,270.9,103z"/>
<path fill="#565C56" d="M365.7,135c0,0,4.5,8.1-1.5,13.8c-6.1,5.7-12.5,2.5-12.5,2.5s5.7-11.1,5.4-15.1L365.7,135z"/>
<path fill="#565C56" d="M371.4,121c0,0-6.1-8.7-11.3-4.2c-5.3,4.5-6,7.5-6,7.5l-8.5-10.5c0,0,4.6-21,3-28.2s-6.7-17.3-31.2-17.4
	c-16.5,2.2-31.8-2-36.5-3.3c-4.7-1.3-15,2.2-15,2.2l-3.7,42.7l-6.5-1.5c0,0-4.6-7-1.1-14.6c3.5-7.6,1.3-11.3,0.5-14.7
	s-4.5-17.9,6.4-25.5c0,0-5.6-20.1,10.7-24.4s22.5-9.7,26.2-9.6c3.7,0,15.6-0.3,30.1,10.1c0,0,7-13.4,25.6,0.2
	c9.7,5.6,8.5,18.8,8.5,18.8s11.6,2.6,15.4,13.1s-1.2,19.7-1.2,19.7s4.1,8.5,2.9,14.8c-1.3,6.3-3.6,12.1-3.6,12.1
	S378.8,114.4,371.4,121z"/>
<path fill="#76714E" d="M357.2,217.9c4.1-5.2,3.5-12,1.6-18.2c-0.3-0.7-0.7-1.3-1.1-1.9c-6.8-10.4-19-14.6-19-14.6s-8,6.4-22.1,6.2
	c-14.1-0.3-22.1-11.8-22.1-11.8c-21.8,1.2-21.3,26.5-21.9,35.6c-0.4,6.6,4.8,8.9,7.8,9.7c0,0,0-0.1,0-0.1c0.9-1.5,2-2.8,3.9-2.6
	c1.2,0.1,2.3,0.7,3.3,1.1c1.8,0.6,3.6,0.7,5.5,0.8c3.7,0.2,7.5,0.1,11.2,0.3c4,0.2,7.9,0.8,11.9,0.9c4.2,0.1,8.6,0.1,12.7-0.7
	c2.9-0.5,5.6-1.1,8.4-0.2C344.1,223.3,352.6,223.8,357.2,217.9z"/>
<path fill="#8E5C3A" d="M333.4,168.6c0,0-1.9,7.3,0.4,10.1c2.4,2.8,4.8,4.6,4.8,4.6s-13.2,7.6-24,6.2c-10.9-1.4-20.2-10.3-20.2-10.3
	l6.1-2.9l0.3-6.1c0,0,22.5,0.2,31.3-1.5"/>
<path fill="#434943" d="M294.2,61.1l-0.8,12.2c0,0-15.4-1.7-22.2,4.7c0,0-1.3-23.6,23.6-16.8"/>
<path fill="#434943" d="M316.6,76.8c0,0,11.2,0.9,17.4,6.1c0,0-0.6-19.7-16.6-17.4C317.4,65.5,313.5,70.4,316.6,76.8z"/>
<path fill="#434943" d="M365.5,135.9c0.6,0.9,1.3,1.9,1.2,3c0,0.5-0.2,0.9-0.5,1.3c-0.7,1-1.8,1.6-3,2c-1.2,0.3-2.4,0.4-3.6,0.4
	c-1.2,0-2.4,0.1-3.6,0.1c-0.4-2.1-0.3-4.4,0.4-6.4c2.6,0.6,5.5,0.5,8-0.5c0.2-0.1,0.5-0.2,0.8-0.1
	C365.3,135.6,365.4,135.8,365.5,135.9z"/>
<path fill="#434943" d="M363.6,110.1c1.7,0.8,3.5,1.8,4.8,3.2c1.3,1.4,2.2,3.4,1.8,5.3c-0.4,0.1-0.7-0.2-1-0.5
	c-2.2-1.8-5.4-1.3-8.1-2.2c-0.2-0.1-0.4-0.1-0.5-0.3c-0.2-0.3-0.1-0.7,0-1c0.5-1.3,1.1-2.6,1.6-3.9c0.1-0.3,0.3-0.6,0.6-0.7
	C363.1,109.8,363.3,109.9,363.6,110.1z"/>
<path fill="none" stroke="#373A37" stroke-width="0.7" stroke-miterlimit="10" d="M262.3,105.2c-2.2,0.5-4.7-0.5-6.7,0.7
	c-0.1,0.1-0.2,0.2-0.3,0.3c-0.1,0.2,0,0.3,0,0.5c0.2,0.6,0.4,1.2,0.6,1.7c0,0.1,0.1,0.3,0.2,0.4c0.1,0.1,0.3,0.1,0.5,0.1
	c1.6,0.1,3.2,0.2,4.8,0.2c0.1,0,0.2,0,0.3,0c0.2-0.1,0.2-0.3,0.2-0.5c0.1-0.9,0.2-1.9,0.1-2.8"/>
<path fill="#724830" d="M333.3,168.5c0,1.5-0.1,2.9-0.1,4.4c-9.4,6.4-22,7.7-32.6,3.4c-0.4-2.1-0.4-4.3,0.1-6.3
	c0.1-0.2,0.1-0.5,0.3-0.6c0.3-0.3,0.8-0.2,1.2-0.2C312.6,170.8,323.3,171.5,333.3,168.5z"/>
<path fill="#747A74" d="M289.4,45.8c0.8-0.4,1.5-0.8,2.3-0.8c1,0,1.9,0.5,2.8,0.9c8.5,4.3,18,5,26.8,2.1c5.4,7,12.6,11.7,20.2,13
	c3.2,0.5,7.1,0.1,8.6-3.5c1.7-3.9-0.6-8.8-3.2-11.8c-6.4-7.4-15.5-10.7-24-8.8c-3.2-6.5-8.7-11-14.6-12.3c-5.9-1.3-12.3,0.8-17,5.5
	c-0.4,0.4-0.9,0.9-1.4,1.1c-0.6,0.2-1.2,0.2-1.9,0.1c-3.1-0.5-6.3-0.8-9.3,0s-6.1,2.7-7.8,6c-1,2-1.6,4.7-0.5,6.7
	c0.7,1.4,2.1,2.2,3.4,2.6C278.9,48.5,284.5,48.3,289.4,45.8z"/>
<path fill="#858C85" d="M292,44.5c-0.7-0.1-1.4,0.1-2.1,0.3c-5,1.6-10.3,3.4-15.3,1.7c5.5,2,11.4,2.2,16.9,0.5
	c0.3-0.1,0.6-0.2,0.9-0.1c0.3,0,0.6,0.2,0.8,0.3c8.8,4.3,18.6,5,27.7,2.2c1.1,2.4,3.2,3.8,5.1,5c2.7,1.7,5.5,3.5,8.5,4.4
	c-4.7-2.4-8.9-6-12.6-10.4c-0.3-0.3-0.6-0.7-1-0.8c-0.3-0.1-0.5,0-0.8,0.1c-8.8,2.7-18.3,1.8-26.7-2.5C293,44.8,292.5,44.5,292,44.5
	z"/>
<g>
	<g>
		<path fill="#373A37" d="M371.7,121.5c3.9-2.7,7.2-9.1,4.9-13.8c-0.4-0.7-1.6-0.2-1.3,0.6c1.3,4.3-0.7,9.4-4.2,12.1
			C370.5,120.9,371,122,371.7,121.5L371.7,121.5z"/>
	</g>
</g>
<g>
	<g>
		<path fill="#332B18" d="M365.6,136.4c2,4.1,1.7,8-1.5,11.3c-2.7,2.8-6.6,5.4-10.6,3.8c-0.8-0.3-1.4,1-0.6,1.4
			c4.5,2.3,9.7-1.1,12.7-4.4c3.4-3.8,3.7-8.4,1.2-12.8C366.4,135,365.2,135.7,365.6,136.4L365.6,136.4z"/>
	</g>
</g>
<g>
	<g>
		<path fill="#725038" d="M357.5,136.6c6.8,1.9,15.6-2.7,16.2-10.3c0.5-6.3-9.1-14.2-14.8-9.8c-0.7,0.6,0.2,1.8,1,1.3
			c3.2-2.3,6.7,0.2,9.1,2.6c3.1,3,3.5,6.9,0.9,10.4c-2.9,3.8-7.6,5.3-12.3,4.7C357,135.4,356.9,136.4,357.5,136.6L357.5,136.6z"/>
	</g>
</g>
<g>
	<g>
		<path fill="#583A17" d="M332.7,168.6c-0.2,3.2-0.7,7.2,0.4,10.3c0.7,2.2,2.6,3.3,4.7,4c0.8,0.3,1.3-1,0.6-1.3
			c-2.8-1.3-4-2.6-4.2-5.8c-0.2-2.4-0.1-4.8-0.2-7.2C334,167.8,332.8,167.8,332.7,168.6L332.7,168.6z"/>
	</g>
</g>
<g>
	<g>
		<path fill="#583A17" d="M300.3,169.9c-0.3,2.1-0.4,4.1-0.5,6.2c0.2-0.2,0.3-0.5,0.5-0.7c-1.8,0.3-3.6,0.5-5.4,1
			c-0.7,0.2-0.6,1.4,0.2,1.3c1.9-0.2,3.7-0.7,5.6-1c0.3-0.1,0.5-0.4,0.5-0.7c-0.1-2,0-4.1,0.2-6.1
			C301.5,169.5,300.4,169.3,300.3,169.9L300.3,169.9z"/>
	</g>
</g>
<g>
	<g>
		<path fill="#373A37" d="M264.2,50.4c-8.7,6.4-12.8,17.3-10,27.9c0.8,2.9,3.2,6.7,2.2,9.5c-0.9,2.5-2.3,4.4-2.9,7.1
			c-1.1,5-0.3,9.8,1.9,14.4c0.4,0.9,1.8,0.1,1.3-0.8c-2.7-5.7-2.9-12.2-0.1-17.9c1.6-3.3,2.9-3.6,1.3-7.1c-5.3-11.7-3-23.9,7-32.2
			C265.4,50.9,264.7,50,264.2,50.4L264.2,50.4z"/>
	</g>
</g>
<g>
	<g>
		<path fill="#725038" d="M262.4,109.3c-6.1-2.5-11.9,0.5-12,7.4c0,5.4,5.7,10.9,11,7.4c0.8-0.5,0.1-1.7-0.8-1.3
			c-5,2.3-9.2-2.3-8.6-7.3c0.7-5.6,5.3-6.7,10-5.1C262.8,110.6,263,109.6,262.4,109.3L262.4,109.3z"/>
	</g>
</g>
<g>
	<g>
		<path fill="#725038" d="M261.6,109.8c-0.7,14.9-2.6,30.9,2.1,45.3c0.3,1,1.8,0.5,1.5-0.4c-5.2-13.8-2.8-30.4-2.5-44.9
			C262.8,109.1,261.7,109.1,261.6,109.8L261.6,109.8z"/>
	</g>
</g>
<g>
	<g>
		<path fill="#373A37" d="M265.4,67c-2.3,14-3.3,28.1-4.2,42.3c-0.1,1,1.5,1,1.6,0c0.3-14,1.8-28.1,3.7-42
			C266.6,66.5,265.5,66.2,265.4,67L265.4,67z"/>
	</g>
</g>
<g>
	<g>
		<path fill="#725038" d="M264.5,155.8c7.6,4.7,15.9,7.9,24.4,10.5c9.3,2.9,18.9,5.2,28.7,5c13.5-0.3,27.2-7.4,34.7-18.7
			c0.5-0.8-0.7-1.5-1.2-0.7c-8,12.2-22.9,18.7-37.2,18c-16.4-0.7-34.8-6.7-48.8-15.2C264.5,154.3,263.9,155.4,264.5,155.8
			L264.5,155.8z"/>
	</g>
</g>
<g>
	<g>
		<path fill="#725038" d="M352.5,152.5c3.1-5.5,4.9-10.8,4.7-17.1c0-0.9-1.4-0.9-1.3,0c0.2,6.4-2,10.9-4.4,16.7
			C351.2,152.7,352.2,153.1,352.5,152.5L352.5,152.5z"/>
	</g>
</g>
<g>
	<g>
		<path fill="#373A37" d="M275.3,64.9c-2.7,0-5.8,0.6-8.3,1.5c-1.1,0.4-0.6,2.1,0.5,1.7c2.6-1,5.4-1.1,8-2
			C276.1,65.9,276,64.9,275.3,64.9L275.3,64.9z"/>
	</g>
</g>
<g>
	<g>
		<path fill="#373A37" d="M315.9,67.4c-3.1-0.2-6.3,0.1-9.4,0.5c-2,0.3-4.6,1.1-6.6,0.6c-1.7-0.4-3.6-1.6-5.3-2.3
			c-1.1-0.4-1.5,1.3-0.5,1.7c2.9,1.1,5.3,2.8,8.4,2.4c4.5-0.5,8.8-1.5,13.4-1.7C316.7,68.6,316.7,67.4,315.9,67.4L315.9,67.4z"/>
	</g>
</g>
<g>
	<g>
		<path fill="#373A37" d="M362.1,109.3c-1.4,4.3-3.3,8.3-6.2,11.8c-1.4,1.7-1.5,2.6-3,1.3c-0.8-0.7-1.5-2.6-2.2-3.5
			c-0.9-1.2-2.5-2.2-3.2-3.4c-1.7-2.8-0.2-5.7,0.3-8.6c0.7-3.5,1.2-7.1,1.5-10.7c0.5-5.6,1.8-14-2.1-18.8c-4-4.8-12.1-7-17.8-8.6
			c-1.1-0.3-1.6,1.4-0.5,1.7c5.2,1.4,14.9,3.7,17.6,9c3,5.7,1.3,15.2,0.5,21.3c-0.4,3.1-1,6.2-1.6,9.3c-0.3,1.4-1.1,3.2-0.5,4.7
			c0.4,1.2,1.8,2,2.6,2.8c2.2,2.2,3.9,4.7,5.1,7.6c0.2,0.4,0.8,0.4,1.1,0.1c4.6-4.5,7.8-9.6,9.5-15.8
			C363.6,108.8,362.4,108.5,362.1,109.3L362.1,109.3z"/>
	</g>
</g>
<g>
	<g>
		<path fill="#373A37" d="M373.5,110.6c10-7.7,9.1-25.4,0.7-33.8c-0.7-0.7-1.8,0.4-1.1,1.1c7.7,7.9,8.6,24.3-0.3,31.8
			C372.2,110.1,372.9,111,373.5,110.6L373.5,110.6z"/>
	</g>
</g>
<g>
	<g>
		<path fill="#373A37" d="M377.9,80c3.8-7.2,3.1-16.2-1.6-22.9c-2-2.8-4.6-5.2-7.5-6.9c-1-0.6-4-1.3-4.7-2.1
			c-1.1-1.2-0.7-4.3-1.1-5.9c-3.3-13.5-23.5-28-35.1-14.9c-0.7,0.8,0.5,2,1.2,1.2c12.2-13.9,34.4,5.4,32.7,20c0,0.3,0.3,0.6,0.5,0.7
			c13.9,3.7,19.2,17.4,14.6,30.4C376.7,80.2,377.6,80.5,377.9,80L377.9,80z"/>
	</g>
</g>
<g>
	<g>
		<path fill="#373A37" d="M330.7,30.9c-5.5-6-12.8-10-20.8-11.6c-7.1-1.4-17-1.4-23.1,3.1c-1.1,0.8-1.7,2-2.7,2.9
			c-2.7,2.4-5,2-8.3,2.3c-3.5,0.3-7.1,1.1-10,3.3c-6.5,4.7-6.2,13.3-5.5,20.5c0.1,1.1,1.8,1.1,1.7,0c-0.8-9.2-0.2-18.9,10.4-21.6
			c5.3-1.3,9.3,0.4,13.1-3.7c11.6-12.4,34.2-4.7,44.4,5.6C330.4,32.2,331.2,31.4,330.7,30.9L330.7,30.9z"/>
	</g>
</g>
<g>
	<g>
		<path fill="#725038" d="M292.6,112.5c-1.3-7.2,1.4-20.3-7.9-23.5c-8.7-3-13.3,7.3-14.3,14c-1,6.9-2,17.2,6.5,19.3
			c3.3,0.8,10.4,2.6,13.5,0.5c2.5-1.8,2.6-5.9,2.4-8.6c-0.1-0.9-1.5-0.9-1.4,0c0.4,4.6-2,8-6.7,7.7c-2.5-0.2-6-0.4-8.4-1.3
			c-7.1-2.8-5.1-15.5-3.6-21.1c1.1-3.8,3.2-7.8,7.3-9.1c4.4-1.3,7.9,1.8,9.4,5.7c2,5.3,0.9,11.3,2,16.8
			C291.5,113.6,292.7,113.2,292.6,112.5L292.6,112.5z"/>
	</g>
</g>
<g>
	<g>
		<path fill="#725038" d="M306.8,113.4c-0.2-6.5,1.2-12.6,5.9-17.5c2.7-2.9,6.2-4.9,10.3-3.2c4.1,1.7,5.4,7.8,5.6,11.6
			c0.2,5.9-1,19.5-8,21.3c-3.4,0.9-7.8-0.1-10.4-2.4c-2.9-2.6-3.4-5.4-3.4-9.2c0-0.8-1.2-0.8-1.2,0c-0.4,8.3,5.2,14,13.8,13.2
			c9.6-0.9,10.8-15.5,10.5-22.9c-0.2-6.3-5.2-16.9-13.1-13.2c-8.6,4-11.6,13.5-11.1,22.3C305.8,114.1,306.8,114.1,306.8,113.4
			L306.8,113.4z"/>
	</g>
</g>
<g>
	<path fill="#44311D" d="M288.9,104.7c0.4,0.5,0.2,1.4-0.4,1.8c-0.6,0.3-1.4,0.1-1.8-0.4s-0.4-1.3-0.1-1.9c0.2-0.4,0.7-0.8,1.2-0.8
		c0.5,0,1,0.4,1,0.9"/>
	<g>
		<path fill="#44311D" d="M288.3,105c0.4,0.8-0.8,1.1-1.2,0.4c-0.2-0.4-0.1-0.9,0.1-1.2c0.3-0.3,0.7-0.4,0.8,0.1
			c0.1,0.8,1.4,0.6,1.4-0.2c-0.1-1.3-1.4-2-2.6-1.4c-1.1,0.6-1.6,2.1-1.1,3.2c0.5,1.1,1.9,1.7,3,1.1c1.1-0.6,1.3-2,0.6-2.9
			C288.9,103.6,288,104.4,288.3,105L288.3,105z"/>
	</g>
</g>
<g>
	<path fill="#44311D" d="M320.2,107.4c-0.1,0.7-1,1.2-1.6,0.8c-0.6-0.3-0.7-1.1-0.8-1.8c0-0.6,0.1-1.5,0.7-1.6
		c0.3-0.1,0.7,0.1,1,0.3c0.6,0.4,0.9,1.1,1,1.8"/>
	<g>
		<path fill="#44311D" d="M319.5,107.2c-0.1,0.3-0.4,0.5-0.7,0.3c-0.3-0.3-0.3-1-0.3-1.3c0-0.4,0-0.8,0.4-0.5
			c0.4,0.3,0.6,0.8,0.8,1.3c0.2,0.8,1.4,0.6,1.4-0.2c0-1.2-0.9-2.6-2.2-2.8c-1.3-0.2-1.9,1-2,2.1c0,1.1,0.2,2.4,1.3,2.9
			c1,0.5,2.3-0.2,2.5-1.3C321,106.7,319.8,106.3,319.5,107.2L319.5,107.2z"/>
	</g>
</g>
<g>
	<g>
		<path fill="#443F12" d="M338.4,182.8c-14.3,9.2-32.2,7.4-43.5-5.6c-0.5-0.6-1.3,0.3-0.8,0.8c11.3,13,30.7,15.9,44.8,5.6
			C339.4,183.3,338.9,182.5,338.4,182.8L338.4,182.8z"/>
	</g>
</g>
<g>
	<g>
		<path fill="#443F12" d="M338.3,222.2c0.2-4.5,0.4-8.9,2.6-13c0.4-0.8-0.8-1.5-1.2-0.7c-2.3,4.2-2.6,8.9-2.8,13.7
			C336.9,223.1,338.3,223.1,338.3,222.2L338.3,222.2z"/>
	</g>
</g>
<g>
	<g>
		<path fill="#443F12" d="M338.7,183.4c10.6,3.4,17.7,11.9,21.5,22.2c0.3,0.8,1.7,0.5,1.3-0.4c-3.9-10.8-11.3-19.6-22.5-23.2
			C338.2,181.8,337.9,183.1,338.7,183.4L338.7,183.4z"/>
	</g>
</g>
<g>
	<g>
		<path fill="#443F12" d="M294.8,176.5c-21,1.4-23.5,25.5-22.8,42.1c0,0.9,1.4,0.9,1.4,0c-0.6-15.6,1.3-39.4,21.4-40.7
			C295.7,177.8,295.7,176.4,294.8,176.5L294.8,176.5z"/>
	</g>
</g>
<g>
	<g>
		<path fill="#443F12" d="M285.6,199.3c-1.7,7.3-3.1,14.7-4.1,22.2c-0.1,0.9,1.2,1.3,1.3,0.4c1.1-7.4,2.5-14.8,4.1-22.2
			C287.1,198.8,285.8,198.4,285.6,199.3L285.6,199.3z"/>
	</g>
</g>
<g>
	<g>
		<path fill="#373A37" d="M293.4,62.1c-0.1,2.1,0.8,7.7-0.2,9.5c-1.3,2.1-7.1,0.7-9.2,1c-5,0.5-9.4,2.6-13.3,5.7
			c0.5,0.1,0.9,0.2,1.4,0.4c-0.9-5.9,1.6-11.9,7-14.8c3.6-1.9,10.9-4.1,14.8-2c0.9,0.5,1.7-0.9,0.8-1.4c-4.7-2.7-13.4-0.1-17.6,2.7
			c-5.4,3.6-7.6,9.8-6.6,16c0.1,0.7,1,0.7,1.4,0.4c3.4-2.7,7.2-4.6,11.5-5.2c3.6-0.5,6.9,0.7,10.4,0.4c0.4,0,0.6-0.2,0.8-0.6
			c1.1-3.5,0.3-8.3,0.3-12C294.8,61.2,293.4,61.2,293.4,62.1L293.4,62.1z"/>
	</g>
</g>
<g>
	<g>
		<path fill="#332B18" d="M316.1,77.5c6.3-0.9,13.2,3.9,18.1,7.4c0.5,0.3,1.2-0.1,1.1-0.7c-0.6-7.7-3.8-15.7-11.4-18.8
			c-2-0.8-5.9-2-7.8-0.4c-2.5,2.1-1.6,8.7-1.1,11.4c0.2,1.1,1.8,0.6,1.6-0.4c-0.5-3-1.3-8.5,2.4-9.9c2.3-0.9,6.4,1.8,8,3.2
			c4.5,3.7,6.3,9.4,6.7,15c0.4-0.2,0.8-0.4,1.1-0.7c-5-3.6-12.6-8.7-19.1-7.2C315.1,76.6,315.4,77.6,316.1,77.5L316.1,77.5z"/>
	</g>
</g>
<g>
	<g>
		<path fill="#624321" d="M295.5,132.5c5.5,1.1,11.4,2.7,17,3c2.9,0.2,5.4-0.6,5.7-3.8c0.1-1.2-1.7-1.2-1.8,0
			c-0.5,4.2-18-0.1-20.6-0.5C295.1,131.1,294.7,132.3,295.5,132.5L295.5,132.5z"/>
	</g>
</g>
<g>
	<path fill="#DBD7B6" d="M60.4,64.1c0,0-2.3,58.1-8.2,129.4c7.9,4.7,43.7,3.2,43.7,3.2s15.9-5.4,18.5-10.8s0.8-19.5,0.8-19.5
		l73.6-30.9c0,0,6.1,19.1,9,19.2c2.8,0.1,0.4-15.7,0.4-15.7s5.8-110.6-9.5-123.6c0,0-31.5,1-70.6,14S64.3,57.8,60.4,64.1z"/>
	<path fill="#D3A36A" d="M99.8,83.5c0,0-1.9,23.1,0,43c1.9,19.8,3.8,32.4,3.8,32.4l10.2,7.6l21.1,10.6c0,0,22.7-2.7,35.3-13.1
		c12.6-10.3,18.9-14.3,17.3-32.5c-1.6-18.2-3.8-58.3-6.4-63.2c0,0-21.4-3-46.2,2.2S99.8,83.5,99.8,83.5z"/>
	<path fill="#D3A36A" d="M79,122.6c0,0-10.1,2.4-7.9,9.6s11.2,8,13.6,4.5S79,122.6,79,122.6z"/>
	<path fill="#D3A36A" d="M200,100.5v17.6c0,0,5.8-2.9,5.8-10.1C205.8,100.7,200,100.5,200,100.5z"/>
	<path fill="#EAB978" d="M109.6,162c4,6.1,11.1,9.2,17.7,12.1c3.6,1.6,7.3,3.1,11.3,3c3.1-0.1,6-1.2,8.8-2.4
		c6.8-2.9,13.4-6.2,19.7-10.1c5.5-3.3,10.9-7,14.6-12.3c3.7-5.2,8.2-15,5.6-20.9c-1.3-3-1-9.9-5.8-19c-3.9-7.4-2.3-3-4.6-11.1
		c-0.3-0.9-0.6-1.9-1.2-2.6c-0.7-0.8-1.8-1.2-2.9-1.6c-19.6-6.5-45.2-1.4-61.9,10.9c-1.3,1-2.6,2-3.4,3.4c-0.8,1.5-0.9,3.4-1,5.1
		c-0.3,8.1-0.6,14.6-0.9,22.7C105.5,147.1,105.3,155.4,109.6,162z"/>
	<path fill="#EAB978" d="M79.6,124.9c-0.8,0.7-1.7,1.3-2.3,2.2c-1.4,2-1.4,4.9,0.1,6.9c1.5,2,4.3,2.8,6.6,2c0.3-0.1,0.6-0.2,0.8-0.5
		c0.4-0.4,0.3-1.1,0.2-1.6c-0.4-2.4-1-4.8-1.8-7.1c-0.3-1-0.7-2-1.6-2.6s-2.2-0.6-2.7,0.3"/>
	<path fill="#BA8F60" d="M98.8,111.5c0.1-8.1,0.3-16.2,0.4-24.3c0-1.3-0.4-1.4,0-2.6c1-2.7,4.8-3.7,7.5-4.8
		c21.6-8.9,44.7-14.3,68-12.6c1.9,0.1,4,0.4,5.5,1.5s2.3,3.6,1.1,5.1c-24.2-0.9-48.5,2.7-71.5,10.5l-3.3,1
		c-4.3,13.5-6.1,27.8-5.3,41.9L98.8,111.5z"/>
	<path fill="#F2EFC9" d="M105.3,71.2c-4.3,1.5-9,1.5-13.6,1.5c-4.4,0-8.9,0-13.3,0c-1.8,0-3.8,0-5.4-0.8c-3-1.4-4.5-4.9-4.2-8.1
		c0.2-3.2,1.9-6.2,3.8-8.8c9.4-12.6,35.2-23.2,50.2-27.5c23.8-6.9,37.4-8.7,62-11.7c0.8-0.1,3.3-0.7,4.1-0.4
		c1.1,0.4,0.7,3.7,1.2,4.7c3.1,6.2,5.7,13,5.4,20c-0.4,7-4.5,14.1-11.2,16.1c-5,1.5-10.3-0.1-15.3-1.1c-17.6-3.5-36.5,0-51.7,9.5
		C113.3,66.9,109.6,69.8,105.3,71.2z"/>
	<path fill="#AFAA84" d="M77.2,114.5c-2.1,3.2-3.7,6.6-4.8,10.3c1.5-1.2,3.4-1.9,5.3-2.1c1-0.1,2.3-0.4,2.3-1.4
		c0-0.3-0.1-0.5-0.2-0.7c-0.9-1.9-1.8-3.9-2.7-5.8"/>
	<path fill="#AFAA84" d="M114,165.5c-0.4-1-2.1-1-2.9-1.7c-1.9-1.8-3.9-3.7-5.8-5.5c-0.1,5.1,0.4,10.2,1.4,15.2
		c-1.5,1.3-3.6-0.6-4.5-2.3c-6.5-11.3-12-23.1-16.5-35.3c-4.2,3.9-11.6,3.4-15.2-1c-1,19.1,7,38.5,21.2,51.3c3.9,3.5,9.1,6.6,14,4.9
		c3.8-1.4,7.3-5.2,8.1-9.2c0.8-4,0.6-6.8,1-10.9C114.6,169.9,114.3,166.5,114,165.5z"/>
	<path fill="#AFAA84" d="M180.5,66.9c0,0,7.1,1.7,8.3,15.4c1.2,13.7,3.3,51.9,9.1,70.5c0,0-10.6-11.8-11.6-33.2
		C185.3,98.3,182.1,71.5,180.5,66.9z"/>
	<path fill="#AFAA84" d="M99.8,83.5c0,0-10.2,11.1-5.3,43.8c4.9,32.7,11.1,49.7,11.1,49.7s-4.2-28.9-5.5-47.2S99.8,83.5,99.8,83.5z"
		/>
	<path fill="#F7F5E4" d="M172.9,56.1c-16.4-3.2-33.8-1.1-49,5.9c-2.5,1.1-4.9,2.4-7.3,3.7c-5.9,3.3-12.1,7.3-18.8,6.9
		c8-2,14.7-7.4,21.9-11.4c17.6-9.8,39.5-11.6,58.5-4.7C176.4,56.9,174.6,56.5,172.9,56.1z"/>
	<path fill="#AE3A30" d="M170.9,192.5c-7.7-6.5-12.3-9.4-12.3-9.4s-0.1-0.2-0.2-0.6c-0.3-0.1-0.6-0.2-0.8-0.4
		c-0.2-0.2-0.3-0.4-0.4-0.6c-0.4-0.5-0.3-1.6-0.2-2.3c-1.7-2.9-4.9-6-10.5-3.1l1.4,10.7c0,0-5,4.3-18.1,5.6
		c-13.1,1.3-17.2-3.1-17.2-3.1s3.3-7.4,2.6-9.7c-0.7-2.3-14.3,0.4-13.4,13.9c0,0-8.3,2.6-15.2,10.3c-1.1,6.9,0.1,14.2,6.8,17.8
		c3.7,2,8,2.6,12.1,2.7c5.6,0.1,11.1-0.2,16.7-0.7c5.5-0.5,11-1.1,16.5-1.7c4.9-0.5,9.9-1.2,14.9-0.9c3.8,0.2,7.6,0.7,11.4,0.7
		c3.6,0.1,7.7,0.1,10.2-2.9c1.1-1.3,1.8-2.7,2.3-4.4C176.9,206,175.9,196.7,170.9,192.5z"/>
	<path fill="#D3A36A" d="M137.3,176.7c-3.2-0.5-6-2.1-8.9-3.6c-3.9-2-7.8-3.9-11.9-5.6c-0.4-0.2-0.5-0.5-0.5-0.9l-0.8-0.3l-2.6,23.8
		c0,0,21.9,7.6,35.2-3.4l-1.4-10.5C143.5,176.9,140.4,177.2,137.3,176.7z"/>
	<polygon fill="#BA8F60" points="115.1,175 140,186.4 147.2,184 146.5,175.3 135.8,177.5 113.8,166.4 	"/>
	<path fill="#C94343" d="M109.7,224.3c3.6,2.7,6.8,4.4,11.4,4.9c7.9,0.7,15.8-0.4,23.7-1.3c5.3-0.6,10.7-1.1,15.8-2.6
		c4.2-1.3,8.6-3.4,10.8-7.5c0.5-1,0.9-2,1.1-3.1l-4.5-9.4c-0.8-1.6-1.6-3.3-3.1-4.2c-2-1.3-4.7-0.9-7.1-0.5
		c-8.6,1.7-17.1,3.6-25.6,5.8c-5.5,1.4-11.3,2.9-16.7,1.2c-3.7-1.2-6.8-3.9-10.5-4.6c-3.8-0.8-8.7,1.8-8,5.6c0.3,1.7,1.7,3,2.9,4.3
		c3.1,3.1,5.8,6.5,8.1,10.2C108.6,223.5,109.2,223.9,109.7,224.3z"/>
	<path fill="#932F2A" d="M155.2,190.2c0.7,0.2,8,0.2,11.1-1.9l-9.4-5.3L155.2,190.2z"/>
	<path fill="#932F2A" d="M109.3,200.3c0,0-5.6-3.5-14.8,0s-12.6,8.1-12.6,8.1s12.5-13.8,20-14.8L109.3,200.3z"/>
	<path fill="#AFAA84" d="M125.7,68l2.2,6.6l-11.5,6.7C116.4,81.3,116.3,71.3,125.7,68z"/>
	<path fill="#AFAA84" d="M159.9,63.6l-0.8,5.2c0,0,9.4,3.3,11.3,5.7C170.4,74.5,171.8,64.3,159.9,63.6z"/>
	<path fill="#FFFFFF" d="M125.6,95.9c0,0-9.4,2.2-10.5,12.1s-1.3,24.5,12.2,24.9s14-13.4,14.3-18C142,110.4,140.7,94.8,125.6,95.9z"
		/>
	<path fill="#FFFFFF" d="M167.2,92.6c0,0-13.2,0.1-13,19.4c0.2,19.3,14.2,20.2,20.4,15.2c6.2-5,7.7-18.6,5.9-23.6
		C178.7,98.6,174.1,92.8,167.2,92.6z"/>
	<path fill="#E2E2E2" d="M116.4,105.1c0,0,6.8-6.1,16.5-7.7C132.9,97.4,123.1,90.8,116.4,105.1z"/>
	<path fill="#E2E2E2" d="M174.1,101.1c2.8,3,5.6,6.8,7,11c0.3-2.9,0.3-6.4-0.8-9.1c-2.4-6.1-8.7-12.5-18.5-8.3
		C161.8,94.6,169.6,96.2,174.1,101.1z"/>
	<g>
		<g>
			<path fill="#C18B5D" d="M176.9,95.9c1.6,0,2.8-1.7,2.4-3.2c-0.2-0.7-1.4-0.6-1.4,0.2c0.1,0.9-0.4,1.7-1.2,1.9
				C176.1,95,176.2,95.9,176.9,95.9L176.9,95.9z"/>
		</g>
	</g>
	<g>
		<g>
			<path fill="#C18B5D" d="M164.4,92.5c1-1.1,0.7-3-0.4-3.8c-0.6-0.5-1.5,0.6-0.8,1.1c0.6,0.5,0.7,1.4,0.3,2
				C163,92.3,163.9,93,164.4,92.5L164.4,92.5z"/>
		</g>
	</g>
	<g>
		<g>
			<path fill="#C18B5D" d="M171.9,92.5c0.9-0.8,1.1-2.8,0.3-3.7c-0.4-0.6-1.5,0-1.2,0.7c0.1,0.4,0.2,0.7,0.2,1.1
				c0,0.3,0,0.8-0.2,1.1C170.5,92.2,171.3,93,171.9,92.5L171.9,92.5z"/>
		</g>
	</g>
	<g>
		<g>
			<path fill="#C18B5D" d="M135.6,97.2c0.6-0.7,1.1-1.6,1.1-2.6c-0.1-0.9-1.3-0.9-1.4,0c0,0.7-0.3,1.3-0.6,1.9
				C134.3,97,135.1,97.7,135.6,97.2L135.6,97.2z"/>
		</g>
	</g>
	<g>
		<g>
			<path fill="#C18B5D" d="M128.6,94.8c0.8-0.8,1.2-2.5,0.6-3.6c-0.5-0.8-1.7-0.1-1.2,0.7c0.3,0.5,0.1,1.6-0.3,2
				C127.2,94.5,128.1,95.4,128.6,94.8L128.6,94.8z"/>
		</g>
	</g>
	<g>
		<g>
			<path fill="#C18B5D" d="M122,96.8c0.2-1.1-0.1-2.5-0.9-3.3c-0.7-0.7-1.7,0.4-1,1c0.5,0.5,0.7,1.4,0.7,2.1
				C120.7,97.3,121.9,97.5,122,96.8L122,96.8z"/>
		</g>
	</g>
	<g>
		<g>
			<path fill="#753121" d="M113,179.1c-5.5,0-10.7,3.7-11.7,9.3c-1,5.6,2.9,11,8.2,12.5c0.9,0.2,1.2-1.1,0.4-1.3
				c-4.6-1.4-8-6-7.1-10.9c0.9-4.9,5.4-8.1,10.3-8.4C113.8,180.3,113.8,179.1,113,179.1L113,179.1z"/>
		</g>
	</g>
	<g>
		<g>
			<path fill="#A5764C" d="M113.1,165.5c0.3,8,0.8,15.8-1.4,23.6c-0.4,1.2,1.5,1.7,1.9,0.5c2.5-7.6,2.4-16.5,1.2-24.4
				C114.6,164.3,113.1,164.6,113.1,165.5L113.1,165.5z"/>
		</g>
	</g>
	<g>
		<g>
			<path fill="#753121" d="M146.6,176.6c2.2-0.7,6.3-0.5,8,1.2c2.2,2.2,2.2,9.6,0.1,11.8c-0.6,0.7,0.4,1.6,1,1
				c1.6-1.6,1.8-3.7,1.8-5.9c0-2.4,0-5.4-1.4-7.4c-1.9-2.6-7-2.8-9.7-1.7C145.8,175.9,146,176.8,146.6,176.6L146.6,176.6z"/>
		</g>
	</g>
	<g>
		<g>
			<path fill="#A5764C" d="M79,121.9c-5.4,0.6-10.7,5.3-8.4,11.2c2.1,5.5,10.2,8.8,14.7,4.2c0.7-0.7-0.4-1.8-1.1-1.1
				c-3.8,3.6-10.5,0.7-12.1-3.8c-1.7-5,2.7-8.3,7.1-9C80,123.2,79.8,121.9,79,121.9L79,121.9z"/>
		</g>
	</g>
	<g>
		<g>
			<path fill="#A5764C" d="M198.8,101.3c4.5,0,6.1,4.8,5.3,8.6c-0.6,3.1-2.5,5.4-5.1,7c-0.8,0.5-0.1,1.8,0.8,1.3
				c3.9-2.1,6.4-6.5,6.1-10.9c-0.3-3.8-2.9-7.5-7.1-7.1C198.1,100.2,198,101.3,198.8,101.3L198.8,101.3z"/>
		</g>
	</g>
	<g>
		<g>
			<path fill="#A5764C" d="M105.2,159.2c8.4,7.8,18.4,13.7,29,18c0.7,0.3,1.1-0.9,0.5-1.2c-10.3-5-19.9-10-28.7-17.5
				C105.5,158,104.7,158.7,105.2,159.2L105.2,159.2z"/>
		</g>
	</g>
	<g>
		<g>
			<path fill="#A5764C" d="M134.8,177.5c16.5-0.1,32.5-9.5,44.7-19.9c5.7-4.8,6.3-9.3,7.1-16.3c0.4-3.8,1.1-7.6,1.7-11.4
				c0.1-0.9-1.3-1.3-1.4-0.4c-0.5,3.3-0.9,6.6-1.4,9.9c-0.9,6.2-0.7,11.3-5.8,16.1c-12.2,11.4-28.2,19.4-44.9,20.8
				C134.1,176.5,134.1,177.5,134.8,177.5L134.8,177.5z"/>
		</g>
	</g>
	<g>
		<g>
			<path fill="#93815A" d="M60.8,65.8C61.7,59.9,69.5,55.2,74,52c4.1-3,8.4-5.7,12.7-8.2c9.7-5.6,20-10.1,30.6-13.7
				c22.6-7.8,46.3-11.5,70-14.3c0.9-0.1,0.9-1.6,0-1.5c-25.7,3.1-51.6,7.2-76,16.4c-10.6,4-20.9,8.9-30.5,14.9
				c-4.8,3-9.4,6.3-13.8,9.9c-3.6,3-7.1,5.4-7.7,10.2C59.4,66.4,60.7,66.6,60.8,65.8L60.8,65.8z"/>
		</g>
	</g>
	<g>
		<g>
			<path fill="#93815A" d="M52.7,194.8c13.6,3,27.9,3.7,41.8,2.5c0.9-0.1,0.9-1.5,0-1.4c-14,1-27.6,0.1-41.4-2.3
				C52.3,193.5,51.9,194.7,52.7,194.8L52.7,194.8z"/>
		</g>
	</g>
	<g>
		<g>
			<path fill="#93815A" d="M59.5,66.2c-1.3,42.6-4.2,84.9-8,127.3c-0.1,0.9,1.3,0.9,1.4,0c4.9-42.1,7.3-84.9,7.9-127.3
				C60.8,65.3,59.5,65.3,59.5,66.2L59.5,66.2z"/>
		</g>
	</g>
	<g>
		<g>
			<path fill="#93815A" d="M187,15.4c7.1,8.8,9.2,20.1,9.7,31.1c0.5,12,0.7,24,0.8,35.9c0.2,24.1-0.6,48.2-0.3,72.3c0,1,1.5,1,1.6,0
				c0.7-26,0.6-52,0.3-78c-0.2-12,0.1-24.3-1.2-36.3c-1-9.4-3.6-18.7-9.8-25.9C187.3,13.9,186.5,14.8,187,15.4L187,15.4z"/>
		</g>
	</g>
	<g>
		<g>
			<path fill="#93815A" d="M179.6,67.6c4,16,3.9,32.5,5.4,48.8c1.2,13.1,3.1,28.7,12.3,38.9c0.6,0.7,1.5-0.3,1-1
				c-10-12.2-11.3-29.8-12.4-44.9c-1-14.1-1.3-28.4-5.3-42C180.5,66.6,179.5,66.9,179.6,67.6L179.6,67.6z"/>
		</g>
	</g>
	<g>
		<g>
			<path fill="#93815A" d="M168.2,67.6c3.8,0,7.5-0.1,11.3,0.5c0.9,0.2,1.3-1.3,0.4-1.4c-4-0.7-7.8-0.7-11.8-0.2
				C167.4,66.6,167.6,67.6,168.2,67.6L168.2,67.6z"/>
		</g>
	</g>
	<g>
		<g>
			<path fill="#93815A" d="M127.5,72.8c10.2-2.1,20.6-3.4,31-4.3c0.9-0.1,1-1.6,0-1.5c-10.5,1-21,2-31.3,4.7
				C126.5,71.9,126.8,72.9,127.5,72.8L127.5,72.8z"/>
		</g>
	</g>
	<g>
		<g>
			<path fill="#93815A" d="M99.7,84.3c6-3.2,11.8-6.4,18.3-8.5c0.9-0.3,0.5-1.7-0.4-1.4c-6.6,2.1-12.7,5.2-18.5,8.9
				C98.5,83.7,99,84.6,99.7,84.3L99.7,84.3z"/>
		</g>
	</g>
	<g>
		<g>
			<path fill="#93815A" d="M98.8,83.8c-2.1,30.5,0.5,61.6,7.3,91.4c0.2,1,1.7,0.6,1.5-0.4c-6.4-30.1-8.7-60.3-7.5-91
				C100,83,98.8,83,98.8,83.8L98.8,83.8z"/>
		</g>
	</g>
	<g>
		<g>
			<path fill="#93815A" d="M77.2,115.1c4.3,12.1,9.2,24,14.4,35.7c2.6,5.8,5.2,11.7,8,17.4c1.7,3.6,3.2,8.2,7.6,8.9
				c0.9,0.2,1.3-1.2,0.4-1.4c-5.1-0.9-7.6-10.2-9.5-14.3c-2.3-4.9-4.5-9.9-6.7-14.9c-4.6-10.5-8.8-21.1-13.1-31.7
				C77.9,114.2,76.9,114.4,77.2,115.1L77.2,115.1z"/>
		</g>
	</g>
	<g>
		<g>
			<path fill="#C18B5D" d="M114.7,106.5c-1.3,8.8-2.8,21.7,7.3,26c8.3,3.5,16.9-2.3,19.3-10.4c2.6-9.2,2.1-21.2-7.7-26.1
				C124.9,91.8,116.5,98,114.7,106.5c-0.1,0.7,0.9,1,1.1,0.3c1.4-4.5,3.5-8.4,8.3-9.9c4.4-1.4,8.7-0.3,12,2.8
				c6.1,5.9,6.1,15.2,3.5,22.8c-2.7,8.1-13.1,13.1-20.2,6.8c-6-5.3-4.2-15.5-3.6-22.6C115.8,106,114.8,105.9,114.7,106.5
				L114.7,106.5z"/>
		</g>
	</g>
	<g>
		<g>
			<path fill="#C18B5D" d="M154.3,103.6c-1.3,8.8-2.8,21.7,7.3,26c8.3,3.5,16.9-2.3,19.3-10.4c2.6-9.2,2.1-21.2-7.7-26.1
				C164.6,88.8,156.2,95.1,154.3,103.6c-0.1,0.7,0.9,1,1.1,0.3c1.4-4.5,3.5-8.4,8.3-9.9c4.4-1.4,8.7-0.3,12,2.8
				c6.1,5.9,6.1,15.2,3.5,22.8c-2.7,8.1-13.1,13.1-20.2,6.8c-6-5.3-4.2-15.5-3.6-22.6C155.5,103.1,154.4,102.9,154.3,103.6
				L154.3,103.6z"/>
		</g>
	</g>
	<g>
		<g>
			<path fill="#8E643A" d="M136.2,141.1c-0.1,2,1.2,3.1,2.9,3.1c4.3,0.1,8.5-0.8,12.5-2.4c0.9-0.3,0.5-1.7-0.4-1.4
				c-2.1,0.8-13.8,4.7-13.8,0.7C137.5,140.2,136.3,140.2,136.2,141.1L136.2,141.1z"/>
		</g>
	</g>
	<g>
		<g>
			<path fill="#A5764C" d="M145.5,176.4c0.4,3.1,0.4,6.3,1.4,9.3c0.4,1.3,2.4,0.7,2-0.6c-0.9-3-1-6.2-1.5-9.3
				C147.2,174.6,145.3,175.2,145.5,176.4L145.5,176.4z"/>
		</g>
	</g>
	<g>
		<g>
			<path fill="#753121" d="M108.9,188.3c5.5,6.3,16.8,5.4,24.4,5.2c7.1-0.3,15.3-3.6,17.8-10.7c0.2-0.7-0.9-1.2-1.2-0.5
				c-3.1,7.4-11.5,9.9-18.9,9.8c-6.9-0.1-16,0.8-21.2-4.6C109.1,186.9,108.4,187.7,108.9,188.3L108.9,188.3z"/>
		</g>
	</g>
	<g>
		<g>
			<path fill="#753121" d="M156.7,182.6c6.5,3.8,15.5,9.1,18,16.7c1.2,3.6,0.9,8,1.2,11.8c0.3,4,0.7,7.9,0.9,11.9
				c0.1,0.8,1.2,0.8,1.2,0c-0.3-4.8-0.7-9.6-1-14.4c-0.3-3.7-0.1-7.7-1.6-11.1c-3.2-7.1-11.5-12.6-18.3-15.7
				C156.7,181.6,156.2,182.3,156.7,182.6L156.7,182.6z"/>
		</g>
	</g>
	<g>
		<g>
			<path fill="#93815A" d="M159.1,63.1c-0.3,2-0.6,4.1-0.7,6.1c0,0.3,0.3,0.6,0.6,0.6c5.3,0,9.3,3.2,12.5,7.1
				c0.3,0.4,1.1,0.1,1.1-0.4c-0.3-3.7-1.5-7.1-4-9.8c-2.2-2.4-5.8-4.9-9.2-3.9c-0.7,0.2-0.4,1.4,0.3,1.2c3.2-0.8,6.8,2.2,8.6,4.5
				c1.8,2.4,2.9,5.1,3,8.1c0.4-0.1,0.7-0.3,1.1-0.4c-3.4-4.2-7.9-7.4-13.4-7.3c0.2,0.2,0.4,0.4,0.6,0.6c0.1-2,0.4-4,0.5-6
				C160.2,62.6,159.2,62.5,159.1,63.1L159.1,63.1z"/>
		</g>
	</g>
	<g>
		<g>
			<path fill="#93815A" d="M124.9,68.4c0.7,0.7,2.9,4.6,2.3,6c-0.3,0.7-3.8,1.9-4.6,2.3c-2.9,1.8-5.7,3.8-7.1,7
				c0.4,0.1,0.7,0.2,1.1,0.3c-0.1-6.5,3.4-12.3,9-15.4c0.7-0.4,0.1-1.5-0.6-1.1c-6.1,3.4-9.6,9.6-9.5,16.5c0,0.5,0.8,0.8,1.1,0.3
				c1.9-4.1,7.3-7.7,11.6-8.7c0.3-0.1,0.5-0.4,0.4-0.7c-0.7-2.6-0.9-5.3-2.9-7.2C125.2,67.2,124.4,67.9,124.9,68.4L124.9,68.4z"/>
		</g>
	</g>
	<g>
		<path fill="#8E643A" d="M161,110.1c-0.2,0.4-0.4,0.8-0.4,1.3c0,0.5,0.2,1,0.6,1.2c0.4,0.2,0.8,0.1,1.2-0.2c0.3-0.3,0.5-0.6,0.7-1
			c0.2-0.4,0.3-0.9,0.3-1.4c0-0.6-0.1-1.2-0.5-1.5c-0.4-0.3-1.3-0.1-1.3,0.4"/>
		<g>
			<path fill="#8E643A" d="M160.4,109.8c-0.5,1.1-1,2.7,0.4,3.4c1.4,0.7,2.6-0.6,3-1.8c0.4-1.2,0.6-3-0.7-3.7
				c-1.1-0.6-2.3,0-2.4,1.2c-0.1,0.9,1.4,1.1,1.6,0.2c0,0,0.2,0.3,0.2,0.5c0.1,0.4,0,0.9-0.1,1.3c-0.1,0.3-0.3,1-0.7,1
				c-0.4,0-0.4-0.4-0.3-0.7c0-0.3,0.2-0.5,0.3-0.8C162,109.7,160.8,109,160.4,109.8L160.4,109.8z"/>
		</g>
	</g>
	<g>
		<path fill="#8E643A" d="M125.7,113.1c-0.3,0.3-0.2,1,0.2,1.2c0.4,0.2,0.9,0.1,1.3-0.2s0.6-0.8,0.7-1.2c0.2-0.9,0.1-1.8-0.3-2.7
			c-0.1-0.2-0.2-0.4-0.5-0.4c-0.2,0-0.3,0.1-0.4,0.2c-0.9,0.8-1.3,2-1.4,3.1"/>
		<g>
			<path fill="#8E643A" d="M125.2,112.7c-0.8,1-0.2,2.5,1.1,2.5c1.6,0.1,2.3-1.8,2.4-3.1c0-1.1-0.5-3.6-2.1-2.9c-1.4,0.6-2,2.6-2,4
				c0,0.8,1.4,1.1,1.5,0.2c0.1-0.5,0.2-1.1,0.4-1.6c0.1-0.3,0.2-0.5,0.4-0.8c0.1-0.1,0.2-0.2,0.3-0.4c0.2-0.2,0.1-0.2-0.3-0.1
				c0,0,0.3,1,0.3,1.1c0,0.3,0,0.7-0.1,1c-0.1,0.3-0.1,0.6-0.4,0.8c-0.1,0.1-0.8,0.4-0.5-0.1C126.7,112.9,125.7,112.1,125.2,112.7
				L125.2,112.7z"/>
		</g>
	</g>
</g>
</svg>
