<svg xmlns="http://www.w3.org/2000/svg" width="250" height="120" viewBox="0 0 250 120"><path fill="#D2EBEA" stroke="#59A1C1" stroke-width="2" stroke-miterlimit="10" d="M155 102.667c0 1.656-1.344 3-3 3H94c-1.657 0-3-1.344-3-3v-82c0-1.657 1.343-3 3-3h58c1.656 0 3 1.343 3 3v82z"/><path fill="#fff" stroke="#59A1C1" stroke-width="2" stroke-miterlimit="10" d="M160 97.667c0 1.656-1.344 3-3 3H99c-1.657 0-3-1.344-3-3v-82c0-1.657 1.343-3 3-3h58c1.656 0 3 1.343 3 3v82z"/><path stroke="#59A1C1" stroke-width="3" stroke-linecap="round" stroke-linejoin="round" stroke-miterlimit="10" fill="none" d="M108 35.917l4 3 8.25-11.75M108 58.917l4 3 8.25-11.75M107.75 73.167L118 84.417M118 73.167l-10.25 11.25"/><path stroke="#D2EBEA" stroke-width="3" stroke-linecap="round" stroke-linejoin="round" stroke-miterlimit="10" d="M128.002 30.667c4.64-1.588 13.27 0 18.218 0M128.002 36.667c4.64-1.588 13.27 0 18.218 0M128.002 53.667c4.64-1.588 13.27 0 18.218 0M128.002 59.667c4.64-1.588 13.27 0 18.218 0M128.002 75.667c4.64-1.588 13.27 0 18.218 0M128.002 81.667c4.64-1.588 13.27 0 18.218 0" fill="none"/></svg>