<svg xmlns="http://www.w3.org/2000/svg" width="250" height="120" viewBox="0 0 250 120"><path fill="#fff" d="M59 24.667h133v80H59z"/><path fill="#D2EBEA" stroke="#59A1C1" stroke-width="2" stroke-miterlimit="10" d="M193 102.667c0 1.656-1.344 3-3 3H61c-1.656 0-3-1.344-3-3v-87c0-1.657 1.344-3 3-3h129c1.656 0 3 1.343 3 3v87z"/><path fill="#fff" stroke="#59A1C1" stroke-width="2" stroke-miterlimit="10" d="M58 23.667h135v82H58z"/><path fill="#D2EBEA" stroke="#59A1C1" stroke-width="2" stroke-linecap="round" stroke-linejoin="round" stroke-miterlimit="10" d="M126 46.333l3.683 11.334H141.6l-9.642 6.97 3.683 11.316L126 68.94l-9.64 7 3.682-11.3-9.64-6.973h11.915z"/><circle fill="#59A1C1" cx="64.166" cy="18.333" r="2.167"/><circle fill="#59A1C1" cx="70.166" cy="18.333" r="2.167"/><circle fill="#59A1C1" cx="76.166" cy="18.333" r="2.167"/></svg>