<svg xmlns="http://www.w3.org/2000/svg" width="250" height="120" viewBox="0 0 250 120"><path fill="#D2EBEA" stroke="#59A1C1" stroke-width="2" stroke-linecap="round" stroke-linejoin="round" stroke-miterlimit="10" d="M145.222 38.235V45.1L92.61 72.417v-6.65M18.84 36.677v6.29l73.77 29.45V65.27"/><path fill="#fff" stroke="#59A1C1" stroke-width="2" stroke-linecap="round" stroke-linejoin="round" stroke-miterlimit="10" d="M18.84 36.677s47.037-23.42 48.895-24.59c4.226 1.482 77.487 26.304 77.487 26.304L92.9 65.557l-74.06-28.88z"/><path fill="#D2EBEA" d="M66.62 12.758l2.3 31.106 72.75-4.913"/><path fill="#fff" stroke="#59A1C1" stroke-width="2" stroke-linecap="round" stroke-linejoin="round" stroke-miterlimit="10" d="M93.937 38.82v24.623M70.04 28.217l-47.297 7.16"/><path fill="#D2EBEA" d="M141 38.667H70.91l-4.626-26.193"/><path stroke="#59A1C1" stroke-width="2" stroke-linecap="round" stroke-linejoin="round" stroke-miterlimit="10" fill="none" d="M67.735 12.088l3.817 26.733 73.15-.585"/><path fill="#D2EBEA" stroke="#59A1C1" stroke-width="2" stroke-linecap="round" stroke-linejoin="round" stroke-miterlimit="10" d="M232.574 74.204v6.865l-52.612 27.316v-6.65M106.193 72.646v6.29l73.77 29.45v-7.148"/><path fill="#fff" stroke="#59A1C1" stroke-width="2" stroke-linecap="round" stroke-linejoin="round" stroke-miterlimit="10" d="M106.193 72.646s47.035-23.42 48.894-24.59c4.227 1.482 77.487 26.304 77.487 26.304l-52.322 27.164-74.06-28.878z"/><path fill="#D2EBEA" d="M153.972 48.726l2.3 31.106 72.75-4.913"/><path fill="#fff" stroke="#59A1C1" stroke-width="2" stroke-linecap="round" stroke-linejoin="round" stroke-miterlimit="10" d="M181.29 74.79V99.41M157.393 64.186l-47.298 7.16"/><path fill="#D2EBEA" d="M229 74.667h-70.74l-4.3-26.194"/><path stroke="#59A1C1" stroke-width="2" stroke-linecap="round" stroke-linejoin="round" stroke-miterlimit="10" fill="none" d="M155.087 48.057l3.817 26.732 73.15-.586"/></svg>