<svg xmlns="http://www.w3.org/2000/svg" width="250" height="120" viewBox="0 0 250 120"><path fill="#fff" stroke="#59A1C1" stroke-width="2" stroke-linecap="round" stroke-linejoin="round" stroke-miterlimit="10" d="M131.687 24.336c7.894-6.514 17.49-10.004 28.523-10.004 25.22 0 45.66 20.44 45.66 45.66 0 25.22-20.44 45.66-45.66 45.66-16.71 0-31.322-8.975-39.283-22.365"/><path fill="#fff" stroke="#59A1C1" stroke-width="2" stroke-miterlimit="10" d="M137.39 35.706c5.96-5.61 13.99-9.043 22.82-9.043 18.406 0 33.327 14.923 33.327 33.33 0 18.407-14.92 33.33-33.327 33.33-14.482 0-26.805-9.236-31.403-22.132M167.646 42.208s-15.134-1.54-15.134 9.235c0 0 .254 8.55 8.978 8.55M154.798 77.777s15.134 1.54 15.134-9.234c0 0-.253-8.55-8.98-8.55M159 35.667v47"/><path fill="#D2EBEA" stroke="#59A1C1" stroke-width="2" stroke-linecap="round" stroke-linejoin="round" stroke-miterlimit="10" d="M91.972 31.774c0-20.01 46.175-24.113 46.175 11.288 0 35.4-46.175 62.59-46.175 62.59s-46.176-27.19-46.176-62.59c0-35.4 46.176-31.297 46.176-11.288z"/></svg>