<svg xmlns="http://www.w3.org/2000/svg" viewBox="48 82 275 150" enable-background="new 48 82 275 150"><path fill="#A2DDF5" d="M43 70.5h280V240H43V70.5z"/><path fill="#F6F0EF" d="M259.2 69.9c2.8 5.4 5.5 10.9 8.3 16.3.7 1.4 1.4 2.9 1.2 4.4-.1 1.1-.7 2-1.2 3-2.8 5.5-3.1 12.2-.9 18-1.8-.2-2.5-2.5-2.6-4.3-.7-7.6-.9-15.3-.6-22.9-1.5 2.4-2.8 5-3.5 7.8-1.6-1.4-1.6-3.9-1.8-6-.2-2.1-1.1-4.7-3.2-5 1.7 10.9 6 21.3 10.3 31.5 5.2 12.5 10.5 25 15.7 37.5 1 2.4 2 4.8 3.3 7.1 1.4 2.3 3 4.5 4.4 6.9 4.8 8.4 5.2 18.6 5.5 28.3.1 4.8.3 9.7-.4 14.4-1.5 10-6.8 19.7-5.3 29.6.1 1 .3 2-.2 2.8-.6.9-1.8 1-2.8 1.1-4 .4-8 .5-12 .6l-51 .1c-1.7-2.1-3.5-4.2-5.8-5.6-2.3-1.4-5.4-1.8-7.7-.5-2.5-4-4-8.6-4.5-13.3-.4-4-.1-8.2-1.5-12-1-2.6-2.7-5-3.4-7.7-.7-2.8-.1-5.9 1.6-8.3-2.5 1.2-5.1 2.3-7.6 3.5-3-7.6-2.6-16.4 1-23.7-2.7 1.1-5.7 1.5-8.6 1.2-1.5 1.8 1.4 5-.2 6.7-1.2 1.3-3.4.1-4.6-1.2-6.4-6.5-11.6-14.2-15.4-22.4-.3-.7-.6-1.4-.5-2.1.1-.7.5-1.3.7-2.1.3-1.8-1.2-3.2-2.4-4.5-1.2-1.3-2.3-3.3-1.2-4.7.5-.6 1.2-.9 1.8-1.4 1.9-1.5 1.5-4.5 2.4-6.8 1.1-2.8 4-4.3 6-6.5 1.9-2.3 2-6.7-.9-7.3.1 1.5.1 3.1.2 4.6-.9-.2-1.7-.4-2.6-.6.4-4.2-2.1-8.6-6-10.3-.4-.1-.7-.3-1.1-.2-.9.1-1.3 1.3-1 2.1.3.9 1 1.5 1.5 2.2 2.4 2.9 3.1 7 1.8 10.5-.2.5-.5 1-1 1.3-.7.4-1.7.1-2.4-.3-5.6-3-9.1-9.5-8.4-15.9.2-1.8.7-3.6 1.2-5.3 1-3.4 2-6.9 2.9-10.3 1.6-5.8 3.3-11.6 3.6-17.6.2-4.5-.2-9.1 1.7-13.1l21.3-2.7 75.9 3.1z"/><path fill="#A2DDF5" d="M245.4 171.1c1.2-.2 2.4-.7 3.3-1.6 1.3-1.2 1.9-2.8 2.7-4.4.8-1.5 1.9-3.1 3.6-3.5 2.6-.7 5 1.7 6.3 4 1.6 2.9 2.5 6.2 3 9.5.2 1.6.4 3.2.1 4.8-.5 2.1-1.9 3.8-3.2 5.5-.7.9-1.4 1.8-2.3 2.3-2.8 1.8-6.7.6-8.9-1.8s-3.2-5.7-4.1-8.9c-.2.7-1.1 1-1.8.9-.7-.2-1.2-.8-1.7-1.4-.9-1-1.6-2.5-1-3.7.5-1.3 2.4-1.4 4-1.7z"/><path fill="#DEECD2" d="M224.6 131.7c-.4-.3-1-.6-1.3-1.1-.3-.5-.4-1.2.1-1.5 1.3.7 3 .2 3.8-1 .3-.5.5-1.1.8-1.5 1-1.4 3-1.7 4.5-1s2.6 2.1 3.3 3.7c.7 1.5 1.2 3.2 2 4.6.3.6.6 1.2.7 1.8.1 2.2-3.1 3.3-3.5 5.5-.3 1.7 1.2 3 2.3 4.3.9 1.2 1.7 2.6 1.4 4.1-.3 1.5-2 2.6-3.3 1.9.3-1.5.3-3 .2-4.5-.2-2.3-1.2-4.8-3.4-5.4-1.8-.5-4.1.4-5.3-1.1-.7-.8-.6-2.1-1.2-2.9-.5-.7-1.4-1.1-2.2-1.5s-1.7-.8-2-1.7c-.3-.8.3-2 1.1-1.9.4.1.7.3.9.6.5.6.8 1.2 1.3 1.7s1.3.9 2 .6c-.1-1.3-1-2.8-2.2-3.7zm14.6 5.3c-.2 1.1-.7 2.1-1.2 3.1-.2.4-.5.9-.3 1.3s.8.5 1.3.5h5.9c.4 0 .7 0 1-.1.6-.2 1-.6 1.5-1.1.1-.1.3-.4.3-.6 0-.2-.1-.3-.3-.5-.6-.7-1.2-1.3-1.8-1.9-.2-.3-.5-.5-.8-.7-.4-.1-.7-.1-1.1-.1-1.5.1-3 .1-4.5.1zm-6.9-21.8c.2.6.3 1.2.3 1.8-1.3-.3-2.6-.5-3.8-.8-.6-.1-1.4-.1-1.6.4-.1.2-.1.5 0 .7.1.8.2 1.7.3 2.5v.4c-.2.4-.9.2-1.2-.1-.9-.7-1.8-1.4-2.4-2.3-.7-.9-1.2-1.9-1.2-3.1 0-.1 0-.3.1-.4.1-.2.3-.3.5-.3 1.1-.2 2.4.9 3.4.3.5-.3.7-1 1.1-1.4.7-.8 2-.9 2.9-.3.7.5 1.3 1.6 1.6 2.6zm-43.9 11.9c.4-.1.8-.2 1.3-.3.4 0 .9 0 1.3.2s.7.7.6 1.1c-.1.4-.7.7-1 .4-.2.6-.4 1.3-.5 1.9-1 .1-1.7-.8-2.3-1.6-.1-.2-.3-.4-.3-.7-.1-.5.4-.8.9-1zm-.2 31.6c-.1.1-.2.1-.4.1.1 1.2-.8 2.2-.7 3.4.1.6.4 1.1.7 1.6.3.5.4 1.2.1 1.7-.4.5-1.1.7-1.7.7l-3.9.3c-1.7.1-3.6.3-5.1-.5-.5-1.1-1.1-2.3-1.1-3.6 0-1.5.8-2.9 1.7-4.2.4-.5.9-1.1 1.4-1.5 1.2-.9 2.9-1 4.4-.9 1 0 2 .1 3 .1.5 0 1 .1 1.3.5.5.8.1 1.6.3 2.3zm12 26.2c-.4.5-.6 1.2-1 1.8-1.1 1.5-3.7 1.6-4.8.1l2.2-8.7c.1-.6.3-1.2.8-1.7.6-.6 1.5-.7 2.4-.7 2.9-.1 5.7-.2 8.6-.2.9 0 1.8-.1 2.7.3.8.3 1.6 1.1 1.6 2 1.7-.1 3.2 1.1 4 2.5.8 1.5 1.1 3.2 1.3 4.8.1.7.1 1.4-.3 2-.4.6-1.3.6-2 .7-.7 0-1.5 0-2.1-.4-.6-.4-.9-1-1.3-1.5-1.6-2.1-4.5-2.3-7.1-2.3-1.8-.3-3.9-.1-5 1.3zm33.9 15.4c-.2.8-1 1.3-1.9 1.5-1.3.3-2.7 0-3.9-.7-1.2-.7-2-1.8-2.5-3.1-.2-.6-.4-1.2-.3-1.8.1-.6.4-1.2 1-1.5.2-.1.4-.1.7-.1.1 0 .3.1.4.1 1.5.7 3 1.5 4.4 2.4.6.4 1.1.7 1.5 1.2.5.7.8 1.4.6 2zm-16.1 4c.1.3.2.7 0 1-.1.2-.3.2-.5.4-.6.4-.9 1.2-1 1.9-.1.7-.1 1.5-.5 2.2-.4.8-1.2 1.3-2 1.5-.8.2-1.7.3-2.6.3-.2 0-.5 0-.7-.1-.2-.1-.3-.3-.4-.5-.4-.5-1.1-.8-1.6-1.3-.9-.8-1-2.2-1.2-3.4 0-.5-.1-1 .2-1.5.2-.4.7-.7 1.2-.9 2.4-1 5-1.3 7.6-1 .3 0 .6.1.8.2.4.3.6.8.7 1.2zm28.2-.7c.5-1 1.9-1.1 3-1.1 1 .1 2.2.3 2.7 1.2.4.7.3 1.5.2 2.2-.2 1.4-.3 2.8-.5 4.2-.6.2-1.2.1-1.8-.2-1.8-.8-3.2-2.5-3.7-4.4-.2-.6-.2-1.3.1-1.9zm25.6-22.5c-2-.2-3.8-1.5-4.6-3.4-.4-.9-.5-1.8-.6-2.8-.1-.5-.1-1.1.2-1.6.3-.6.9-.9 1.5-1.2.3-.1.7-.3 1-.2.4 0 .7.2.8.6.1.3-.2.7-.5.7-.2 1 .7 2 1.7 2.5.3.1.6.3.8.6.2.2.2.5.3.8.1 1 .3 2.1.5 3.1 0 .3.1.6-.1.8-.5.1-.8.1-1 .1zm1.3 10.9c.3-.3.7-.6 1-.7 1.7-.9 3.5-1.4 5.4-1.5-.4 1.5.4 3.2 1.3 4.5 1 1.3 2.2 2.4 2.8 3.9.6 1.3.6 2.8.7 4.2.1 2.2.1 4.7-1.5 6.2-.7.7-1.6 1.1-2.1 1.9-.4.8-.4 1.8-.7 2.6-.4 1.3-1.5 2.2-2.5 3.1-2.2 2.1-3.9 4.8-4.8 7.7-.5 1.5-.8 3.2-1.7 4.5-.8 1.1-2 1.9-3.1 2.8-1.7 1.4-3.1 3.1-4.3 4.9-1.2 1.8-2.1 3.9-3.9 5.2-1.5 1-3.4 1.3-5.1 1.6-4.5.7-9 1.3-13.5 1.7-2.9.2-6 .2-8.4-1.4-1.2-.8-2.2-1.9-3.3-2.9-3.1-2.5-7.4-3.2-10.5-5.8-2.2-1.8-3.5-4.4-4.8-7-1-1.8-1.9-4.1-.9-5.9.5-.9 1.3-1.5 2.1-2 2.7-1.9 5.5-3.8 8.6-4.8 2.6-.9 5.4-1.1 8.2-1.3 2.4-.2 4.8-.4 7.1-.6 2.4-.2 4.9-.4 7.3-.1 1.1.1 2.3.4 3 1.2.9.9 1 2.3 1.2 3.6.1 1.6.3 3.2.4 4.8.1 1.8.4 3.7 1.8 4.8 1.7 1.3 4.6.3 5.1-1.8.4-1.4-.3-3 .2-4.4.5-1.5 2.2-2.4 2.6-4 .4-1.8-1.2-3.5-2.8-4.6-1.7-1.2-3.4-2.2-5.3-3.1-.7-.3-1.3-.6-1.8-1.2-.4-.5-.6-1.4-.2-2 .6-.8 1.9-.5 2.7-1 .7-.4 1-1.3 1.6-1.9.5-.4 1.1-.6 1.8-.8 2.1-.5 4.3-.8 6.5-.7 1.8 0 3.7.3 5.3-.5 2.7-1.3 3.4-4.6 3.8-7.6.2-.4.3-1.1.7-1.6zm-10.3-51.3c-.9.9-2.3.8-3.5.7-1-.1-2.1-.3-2.9-1-.6-.5-.9-1.2-1.2-1.9-1-2.4-1.7-5.1-1.1-7.6.6-2.6 2.6-4.9 5.2-5.2.5-.1 1 0 1.4.1 1.4.5 1.9 2.5 1 3.6-.2.7-.5 1.5-.5 2.3s.3 1.6.9 2.1c.6.5 1.5.6 2.3.7.2 0 .4 0 .5.1.4.2.2.8.1 1.2-.5 1.2-.9 2.4-1.4 3.6-.3.4-.5.9-.8 1.3zm-5.1-32.9c-.2.6-.9.9-1.5.9-.6-.1-1.2-.4-1.7-.7-.7-.4-1.4-.9-2-1.6-.8-1-1.2-2.4-.9-3.7.1-.4.2-.8.6-1.1.2-.2.6-.3.8-.5.2-.2.3-.6.3-.9.1-1.3.1-2.6 0-3.8.2-.4.8-.5 1.2-.4.4.1.7.5 1.1.8 1 1 2 2.1 2 3.5 0 .3 0 .6-.1.8-.2.4-.6.6-1 .9-.8.7-1 2.1-.4 3 .3.5.8.8 1.2 1.2.3.4.6 1 .4 1.6zm-8.5-37.9c.2 0 .4.1.6.3 1 .9 1.3 2.4 1.2 3.7-.1 1.3-.6 2.6-.9 3.9-.2.9-.2 1.8-.3 2.8 0 .7 0 1.5.4 2 .4.4 1 .5 1.2 1 .3.8-.7 1.4-1.5 1.7-3.4 1.1-6.9 2.2-10.4 3.3-.1 0-.2.1-.4.1-.4 0-.7-.4-.7-.8s.3-.7.6-1c.8-.7 1.8-1 2.7-1.3.9-.4 1.8-1 2.1-2 .3-1-.1-1.9-.4-2.9-.2-.9-.3-1.9-.2-2.9.1-1.4.4-2.8.8-4.2.1-.4.2-.8.4-1.1.2-.3.6-.6 1-.8.9-.5 1.8-1 2.6-1.5.6-.2.9-.3 1.2-.3zM187.1 87c0-1.4.3-3.2 1.7-3.6.9-.3 1.8.1 2.8.3 2.1.4 4.3-.7 6.4-.6.9 0 2 .6 1.8 1.4-.1.5-.6.8-.9 1.3-.5.7-.4 1.6-.3 2.5.4 2.1 1.3 4.1 1.8 6.2.6 2.1.8 4.4-.2 6.3-.6 1.2-1.5 2.1-2.5 3-1 .9-2 1.8-3.3 2.4-1.2.5-2.8.6-3.9-.1-1-.7-1.6-1.9-1.8-3.1-.2-1.2-.1-2.4-.1-3.7 0-4.2-1.4-8.2-1.5-12.3zm-7.1-5c.6-1.2 2.2-1.5 3.5-1.3 1.1.2 2.2.7 2.6 1.8.1.2.1.5.1.7 0 .4-.2.7-.4 1-.4 1-.6 2.2-1.6 2.6-.6.2-1.3 0-1.9-.3-.8-.4-1.6-1-2.1-1.8s-.6-1.9-.2-2.7zm-10.1-9.5c-.2-1-.4-2.1 0-3 .4-1.1 1.6-1.8 2.7-2.2 1.2-.4 2.5-.8 3.6-.1.1.1.2.2.4.3.5.5.9 1.1 1.2 1.8.6 1.7.1 3.6-.4 5.4-.4 1.2-.8 2.6-1.9 3.2-1.3.7-3 0-4-1.1-1-1.3-1.3-2.8-1.6-4.3zm-7.3-.3c.4-1.5 1-3 2.2-3.8.2-.1.5-.3.8-.2.4.1.6.5.7.8 2 5.1 1.9 10.7.8 16-.2 1.1-.5 2.2-1.1 3.1s-1.6 1.7-2.7 1.8c-.4 0-.8 0-1.1-.3-.7-.4-.7-1.4-.8-2.2 0-5.1-.1-10.2 1.2-15.2zm2.5 29.1c.7.1 1.3.1 1.9.2.4 0 .9.1 1.2.4.5.4.7 1.2.5 1.8-.2.7-.7 1.2-1.2 1.6-1.2.5-2.6-.5-3.5-1.4-.6-.5-1.2-1.3-.8-2 .4-.7 1.2-.7 1.9-.6zm10 11.3c-.2-.5.1-1 .4-1.4 1.3-1.8 3.6-2.9 5.8-2.6.3 0 .5.1.7.2.2.1.3.3.4.5.5.8.7 1.8.7 2.8-2 .9-4.2 1.3-6.4 1.2-.6 0-1.4-.1-1.6-.7z"/><path stroke="#F4E6D7" stroke-width="2" stroke-miterlimit="10" d="M161.4 126l-2.8-4.2.4-20.6 7.1-14.1 1.2-16.7m4.7 79l31 11.1 36.3-.2 18.3-2.2 22.4-9.9m5.2 84.1l-6.2.2-.2 7.5m-85.7-125.8l2.4 2.2 8.7-1v-7.9m23.8-36l2.4.2 3.6 6.7-3.2 7m-63.9-11l8.7 11.8 11.3 2.2 15.5-5.2 8.1-12.7m-18 0l-7.1 24.8 1.4 10.7-8.9 7.9m8.4-15.6l10.3 9.1-.4 4m12.3-29.5l5.6 29.3 7.5 33.9 8.3 16.1.4 15.3 10.7 10.1 20.8 5.7 12.3 28.3m-12.3-28.3l4.4-14.7-4.5-14.7-19.7-12.1-18.6-2.4m7.4-63l20.1-.3" fill="none"/><path stroke="#F4D8B3" stroke-width="2" stroke-miterlimit="10" d="M287.8 224l-16.3-3.8-40.4-.4-22.8-.8-3.4-30.9-7.7-7.7-4.2-9.1-5-4.9-12.3-.2-6.2-26.2-6.5-.8-1.4-14.9 9.3-6.1 7.5 2.2-2.8 12.9-6.2 6.7m-1.1-20.7l-1-23.8 4.4-4.8-1.9-20.2m-16 47.6h18.4c.2-.8.6-7.5.6-7.5l18.6-40.4m-17.9 48.6l19.6-4.7 11.1-6.7 9.5-3.6 12.7-18-.4-9.1 2.4-6.9m-12.1 30.5l-3.6-10.1 5.4-4.7m-22.6-15.4l17.6 15.4h22.4m-17.7 12.4l16.5-4.4-1.6-8.1M222 92.2l29.7-1m-30.3-5.4l10.5 24.8 14.3 19 10.1 11.9 8.7.6 8.3 4m-23.5-75.6l2 20.6 8.3 20 7.9 15.7 5.4 19.2 19.2 44.2-7.7 49.7m3.8-58.4l-2.2 11.9-.4 17.8-5.6 1.2-3.8 11.1-1.2 16.4" fill="none"/></svg>