<?xml version="1.0" encoding="utf-8"?>
<!-- Generator: Adobe Illustrator 18.1.1, SVG Export Plug-In . SVG Version: 6.00 Build 0)  -->
<svg version="1.1" id="Art" xmlns="http://www.w3.org/2000/svg" xmlns:xlink="http://www.w3.org/1999/xlink" x="0px" y="0px"
	 viewBox="-150 -15 500 199" enable-background="new -150 -15 500 199" xml:space="preserve">
<rect x="-150.6" y="-16.8" fill="#FFC77D" width="500.6" height="192.1"/>
<path fill="#FFDE7A" d="M7.4,109.8c0.7,3.4-1.6,6.8-4.6,8.6c-3,1.8-6.5,2.4-9.9,3.1s-6.9,1.9-9.2,4.4c-0.6-3.3-1.2-6.7-0.4-10
	c0.7-3.3,3.2-6.4,6.5-6.9c-13.1-1.8-23.8,11.5-36.9,12.4c-5.6,0.4-11.3-1.7-15.4-5.5c-2.2-2-3.9-4.6-6.6-5.9c-0.1,0-0.1-0.1-0.2-0.1
	c-1.8-3.4-5.2-5.8-7.6-8.8c-4.5-5.6-5.8-13.6-3.1-20.3c-3.4,3.8-4.2,9.3-4,14.4c0.3,5.1,1.4,10.1,1.1,15.2c-0.1,1-0.2,2-0.4,3
	c-0.1,0.1-0.3,0.2-0.4,0.3c-2.8,2.5-5.3,5.4-7.3,8.6c-2.6-2.5-3.3-6.8-3.2-10.6c0.1-4.3,0.8-9-1.2-12.8c-2.1-4.2-6.8-6.5-9.2-10.4
	c-3.1-4.9-2.2-11.2-1.3-16.9c-4,4-8.3,8.7-8.2,14.4c0.1,4.6,3.2,8.7,3.6,13.3c0.4,4.3-1.7,8.4-2.3,12.7c-0.8,5.6,1.1,11.4,5,15.5
	c-6.5,0.5-12-4.6-16.1-9.7c-4.1-5.1-8.2-10.9-14.4-12.8c3.4,6.4,6.7,12.9,8.5,19.9c1.3,4.9,1.9,9.9,3.3,14.8
	c1.4,4.8,3.7,9.6,7.7,12.7c3.5,2.7,8,3.8,12.3,4.4c10.3,1.4,21.4,0.4,29.9-5.4c2.6-1.8,5-4,6.4-6.9c0.5-0.9,0.8-1.9,1.1-2.9
	c20.3,1.6,40.9-0.4,61.2-2.4c3.3-0.3,6.6-0.7,9.5-2.2c2.8-1.4,5-3.8,6.8-6.3c2.4-3.3,4.5-7.1,4.7-11.1
	C13.4,115.7,11.2,111.3,7.4,109.8z"/>
<path fill="#FFDE7A" d="M155.8,109.8c0.7,3.4-1.6,6.8-4.6,8.6c-3,1.8-6.5,2.4-9.9,3.1s-2.8-4.9-5.2-2.4c-0.6-3.3-5.3,0.1-4.5-3.1
	c0.7-3.3,3.2-6.4,6.5-6.9c-13.1-1.8-23.8,11.5-36.9,12.4c-5.6,0.4-11.3-1.7-15.4-5.5c-2.2-2-3.9-4.6-6.6-5.9c-0.1,0-0.1-0.1-0.2-0.1
	c-1.8-3.4-5.2-5.8-7.6-8.8c-4.5-5.6-5.8-13.6-3.1-20.3c-3.4,3.8-4.2,9.3-4,14.4c0.3,5.1,1.4,10.1,1.1,15.2c-0.1,1-0.2,2-0.4,3
	c-0.1,0.1-0.3,0.2-0.4,0.3c-2.8,2.5-5.3,5.4-7.3,8.6c-2.6-2.5-3.3-6.8-3.2-10.6c0.1-4.3,0.8-9-1.2-12.8c-2.1-4.2-6.8-6.5-9.2-10.4
	c-3.1-4.9-2.2-11.2-1.3-16.9c-4,4-8.3,8.7-8.2,14.4c0.1,4.6,3.2,8.7,3.6,13.3c0.4,4.3-1.7,8.4-2.3,12.7c-0.8,5.6,1.1,11.4,5,15.5
	c-6.5,0.5-12-4.6-16.1-9.7c-4.1-5.1-8.2-10.9-14.4-12.8c3.4,6.4,6.7,12.9,8.5,19.9c1.3,4.9,1.9,9.9,3.3,14.8
	c1.4,4.8,3.7,9.6,7.7,12.7c3.5,2.7,8,3.8,12.3,4.4c10.3,1.4,21.4,0.4,29.9-5.4c2.6-1.8,5-4,6.4-6.9c0.5-0.9,0.8-1.9,1.1-2.9
	c20.3,1.6,40.9-0.4,61.2-2.4c3.3-0.3,6.6-0.7,9.5-2.2c2.8-1.4,5-3.8,6.8-6.3c2.4-3.3,4.5-7.1,4.7-11.1
	C161.8,115.7,159.7,111.3,155.8,109.8z"/>
<path fill="#FFDE7A" d="M347.9,78.4c-2.7,6.7-1.4,14.7,3.1,20.3c2.6,3.2,6.2,5.6,7.9,9.3c1.4,2.9,1.4,6.2,1.4,9.3
	c0,5-0.2,10-0.5,14.9c-0.2,3.3-0.5,6.8-2,9.8c-1.4,2.8-3.8,5.1-6.4,6.9c-8.6,5.8-19.7,6.9-29.9,5.4c-4.4-0.6-8.8-1.7-12.3-4.4
	c-4-3.1-6.4-7.8-7.7-12.7c-1.4-4.8-2-9.9-3.3-14.8c-1.9-7-5.2-13.5-8.5-19.9c6.3,1.9,10.4,7.7,14.4,12.8c4.1,5.1,9.6,10.2,16.1,9.7
	c-3.9-4.1-5.7-10-5-15.5c0.6-4.3,2.6-8.4,2.3-12.7c-0.4-4.6-3.5-8.7-3.6-13.3c-0.1-5.7,4.2-10.4,8.2-14.4c-1,5.7-1.8,12,1.3,16.9
	c2.5,3.9,7.1,6.2,9.2,10.4c2,3.9,1.3,8.5,1.2,12.8c-0.1,4.3,0.8,9.4,4.5,11.6c4.4-2.5,6.5-7.9,6.8-13s-0.8-10.1-1.1-15.2
	C343.7,87.7,344.5,82.2,347.9,78.4z"/>
<polygon fill="#E8C56B" points="352.2,128.5 345.4,122.7 325.4,139.9 305.4,122.7 274.1,149.7 195.5,149.7 164.1,122.7 144.1,139.9 
	124.1,122.7 104.1,139.9 84.1,122.7 64.1,139.9 44.1,122.7 12.7,149.7 -4.5,149.7 -35.9,122.7 -55.9,139.9 -75.9,122.7 -108.7,151 
	-80.5,175.2 -80.5,185.1 350,185.1 350,175.3 352.2,173.4 "/>
<path fill="#949B8C" d="M36.6-22.6C44.9-8.3,53.2,5.9,61.5,20.1c4.1,7.1,8.3,14.2,13.3,20.7c8,10.3,17.9,19,26.2,29
	c14.1,17.2,23,38.2,37.3,55.3c16.3,19.3,39.1,32.8,53,53.9c1.3,2,2.7,4.2,4.7,5.4c2.1,1.2,4.6,1.2,6.9,1.3c11,0.1,21.9,0.3,32.9,0.4
	c-6.1-10.9-16.4-18.7-25.5-27.3c-30.4-28.7-48.9-67.5-72.9-101.7c-16.3-23.3-35.4-44.6-56.7-63.5c-6.7-6-14.4-12-23.4-12"/>
<path fill="#F2F2F2" d="M50.7,123.9c0.2-0.2,0.3-0.4,0.6-0.4c0.3,0,0.5,0.1,0.8,0.3c0.5,0.4,1.1,0.9,1.6,1.3
	c0.5,0.4,0.9,0.7,1.2,1.3c0.4,0.8,0,1.8-0.4,2.6c-0.1,0.2-0.2,0.5-0.4,0.6c-0.2,0.1-0.5,0-0.8-0.1c-0.8-0.3-1.7-0.6-2.4-1.1
	c-0.7-0.5-1.2-1.4-1.2-2.2C49.7,125.2,50.2,124.5,50.7,123.9z"/>
<path fill="#8E8C87" d="M50,118.6c0.9,1.1,1.9,2.1,2.3,3.4s0.3,3-0.8,3.7c-5.8-1.7-11.4-3.7-16.9-6c-1-0.4-2.1-0.9-2.9-1.6
	c-1.4-1.2-2.2-2.9-3-4.6c-3.1-6.7-6.9-13-11.3-18.8c-0.7-1-1.5-2-1.9-3.2c-0.4-1.3-0.4-2.6-0.4-3.9c0.1-4.3,0.3-8.7,0.6-13
	c2-0.5,4-0.9,6.1-1.3c4.7-0.8,10.2-0.8,13.5,2.6c2.6,2.7,3.1,6.7,3.7,10.4c1.3,8.6,3.7,17,7,25.1C47.1,113.8,48.3,116.4,50,118.6z"
	/>
<rect x="-23.3" y="93" fill="#FFFFFF" width="35.8" height="39.9"/>
<path fill="#7F7D79" d="M17.7,172.2c1.3,4.2,2.6,8.3,3.9,12.5c-5,0.3-10,0.7-14.9,1c-0.6,0-1.2,0.1-1.8-0.1c-0.8-0.3-1.3-1-1.8-1.7
	c-7.3-10.4-14-21.3-20.6-32.2c-1.6-2.7-3.3-5.3-4.9-8c-4.2-6.9-8.5-14.3-8.3-22.3c6.6,2.1,13.3,4.3,19.9,6.4c4.5,1.5,9.1,2.9,13.8,3
	c3,0.1,6.1-0.5,9.1-0.2c5.1,0.5,9.7,3.3,14,6c2.4,1.5,4.8,2.9,6.9,4.8c2.3,1.9,4.3,4.2,6.2,6.6c2.4,2.8,4.7,5.7,6.9,8.6
	c0.8,1.1,1.7,2.3,1.7,3.6c0,1.1-0.6,2.2-1.2,3.1c-1.2,1.9-2.3,3.7-3.5,5.6c-0.4,0.6-0.8,1.2-1.3,1.6c-0.7,0.5-1.6,0.6-2.4,0.7
	C32.2,172.2,24.9,172.5,17.7,172.2z"/>
<path fill="#8E8C87" d="M21.8,99.7c-1-3.8-2.9-7.4-5.4-10.5c-4.9,0.3-9,4.3-10.9,8.9c-1.9,4.5-2.1,9.6-2.2,14.5
	C3.2,119.3,3,126,2.9,132.7c6.7,2.8,15,0.8,19.7-4.7c0.8-1,1.5-2,1.8-3.2c0.2-1.1,0.1-2.2,0-3.3c-0.4-4.1-0.8-8.2-1.2-12.2
	C23,106.1,22.7,102.8,21.8,99.7z"/>
<path fill="#635A4D" d="M-37.4,83.8c1.8,2,4.1,4.2,6.8,4.1c2.1-0.1,3.9-1.7,5.5-3c3.7-2.9,8-4.8,12.3-6.8c9.1-4.2,18.3-8.4,28.3-9.7
	c2.4-12.6,7.5-24.7,15-35.2c0.4-0.5,0.8-1.1,0.8-1.7c0-0.9-0.7-1.6-1.3-2.1c-3.6-3.1-7.7-5.6-12.2-7.2c-1-0.4-2-0.7-3.1-0.5
	c-1,0.2-2,1.1-1.9,2.1c-0.2-2-1.6-3.8-3.3-4.9c-1.7-1.1-3.7-1.6-5.7-2c-9.7-1.7-20-0.2-28.6,4.8s-15,13.4-17.2,23
	c-0.2,0.8-0.3,1.7-0.2,2.5c0.2,1,0.7,1.8,1.3,2.6c2,3.1,3.7,6.4,4.9,9.8c2.2,6,2.8,13.5-1.7,18c1.1,0.9,2.3,1.7,3.4,2.6
	c0.3,0.2,0.6,0.5,0.7,0.8c0.3,0.8-0.5,1.7-1.3,2C-35.8,83.3-36.7,83.3-37.4,83.8z"/>
<path fill="#FFF2DC" d="M19.1,87.9c-5.1,4.5-10.9,8.2-17.2,10.9c-2.5,1.1-5.1,2-7.8,2c-6.3,0-11.4-4.8-15.8-9.3
	c-3.5-3.6-7.2-7.5-8.3-12.4c-1.4,0.1-2.6-0.9-3.6-1.9c-2-2-3.9-4.6-3.6-7.5c0.3-2.9,3.8-5.3,6.1-3.6c-0.6-3.9-1.2-7.9-1.8-11.8
	c-0.1-0.9-0.3-1.8-0.1-2.7c0.2-1,1-1.9,1.7-2.7c6.6-7.6,15.3-13.8,25.2-15.8c9.9-2,21,0.8,27.5,8.6c0.5,0.6,1,1.3,1.2,2
	c0.2,1-0.1,2-0.5,2.9C17.5,59.8,16.5,74.2,19.1,87.9z"/>
<path fill="#E2D4BF" d="M10,61.6c-0.7,0.4-1.5,0.5-2.2,0.3c-1.3-0.4-2-1.8-2.3-3.1c-0.9-4,0.5-8.5,3.6-11.3c-0.8,1.2-1.4,2.6-1.3,4
	c0.1,1.4,1.1,2.8,2.5,3.2c0.4,0.1,0.7,0.1,1.1,0.3c0.9,0.4,1.2,1.5,1.1,2.5C12.3,59.1,11.4,60.8,10,61.6z"/>
<path fill="#E2D4BF" d="M-19.3,56.8c0-1.1,0.7-2,1.5-2.7c0.7-0.6,1.6-1.1,2.6-1.1c1.4,0,2.7,1,3.6,2.1c0.6,0.7,1,1.5,1.4,2.3
	c1,2.1,1.4,4.8,0.1,6.8c-0.2,0.3-0.4,0.6-0.5,0.9c-0.2,0.5-0.1,1-0.1,1.5c0.1,1.1,0,2.3-0.6,3.2c-0.6,0.9-1.9,1.5-2.9,1.1
	c1.8,1.1,4.4,0.5,5.4-1.3c0.5-0.9,0.7-1.9,0.8-2.9c0.2-1.3,0.4-2.6,0.4-3.9c0-2.2-0.4-4.4-1.4-6.4c-0.6-1.3-1.5-2.5-2.6-3.4
	c-1.2-0.9-2.7-1.3-4.1-1.1s-3.5,1.9-3.7,3.4C-19.4,55.9-19.5,56.3-19.3,56.8z"/>
<path fill="#FFFFFF" d="M-12.6,61.7c1.1,1.3,2.4,2.6,2.9,4.2c0.4,1.3,0.4,2.7-0.2,3.9c-0.2,0.4-0.4,0.8-0.8,1
	c-0.5,0.3-1.1,0.4-1.6,0.4c-0.7,0-1.5,0-2.2-0.2c-1.8-0.5-3-2.1-3.6-3.9c-0.5-1.3-0.7-2.7-0.4-4c0.3-1.3,1.2-2.5,2.4-3
	c0.3-0.1,0.7-0.2,1.1-0.2C-14,60.1-13.3,60.9-12.6,61.7z"/>
<path fill="#FFFFFF" d="M10.6,52c-1.1-0.6-2.5,0-3.2,1s-0.8,2.3-0.9,3.6C6.4,58.2,6.4,60,7.6,61c1.3,1.1,3.4,0.6,4.4-0.7
	s1.1-3.1,0.6-4.7c-0.3-0.9-0.7-1.8-1.2-2.6C11.2,52.6,10.9,52.3,10.6,52z"/>
<polygon fill="#635A4D" points="72.9,127.7 63.4,152.2 68.4,154.1 78.6,129.6 "/>
<path fill="#8E8C87" d="M75.3,137.4l38.8,17.9l14.6,13.1c0,0-14.1-2.3-18.8-2l-38.5-19.3L75.3,137.4z"/>
<path fill="#A3A29F" d="M80.6,143.6c9.5,3.1,18.5,7.3,27.3,12c4,2.1,8,4.3,12.1,6.5c1.5,0.8,3,1.6,4.5,2.5l-10.3-9.3l-38.8-17.9
	l-1.7,4.2C76,142.2,78.3,142.8,80.6,143.6z"/>
<path fill="#E2D4BF" d="M-5.3,79.7c0.3-1.2,0.6-2.5,1.5-3.4c1.2-1.1,3.1-1,4.6-0.5c0.4,0.1,0.8,0.3,1.1,0.6c0.2,0.3,0.3,0.7,0.4,1.1
	c0.1,0.9,0.1,1.7,0.1,2.6c0,0.1,0,0.3-0.1,0.3c-0.1,0.1-0.3,0-0.4-0.1S1.9,80.1,1.8,80c-0.2-1.2-0.8-2.5-2-3
	C-1,76.7-2,76.9-2.8,77.5s-1.3,1.4-1.7,2.3c-0.1,0.2-0.1,0.3-0.3,0.4c-0.1,0.1-0.4,0.1-0.5,0C-5.4,80.1-5.3,79.9-5.3,79.7z"/>
<path fill="#FFF2DC" d="M62.5,130.2c1.5-0.1,3.2-0.2,4.1,1c1.3,1.6,0,4.2,1,6.1c0.3,0.6,0.8,1,1.2,1.5c1.6,2.1,0.7,5.3-1.2,6.9
	s-4.8,2-7.3,1.9c-3.6-0.3-7.4-1.9-8.9-5.1c-0.2-0.5-0.4-1.1-0.3-1.6c0.1-0.4,0.3-0.7,0.5-1.1c0.8-1.3,1.6-2.5,2.5-3.8
	c1.3-2,2.7-4.1,4.9-5C60,130.4,61.2,130.3,62.5,130.2z"/>
<path fill="#FFFFFF" d="M56.9,130c-0.2,2.7-0.8,5.5-1.9,8c-0.7,1.5-1.6,3.1-3.1,3.7c-2.1,0.8-4.3-0.4-6.2-1.6
	c-0.2-0.1-0.4-0.3-0.4-0.5c0-0.2,0-0.3,0.1-0.5c1.4-3.1,2.9-6.1,4.5-9.1c0.6-1.1,1.3-2.3,2.3-3c1.1,0.8,2.4,1.4,3.8,1.7
	c0.3,0.1,0.6,0.1,0.8,0.3C56.9,129.3,56.9,129.7,56.9,130z"/>
<path fill="#8E8C87" d="M44.6,139.8c0.2,0.1,0.3,0.1,0.5,0.2c1.9-0.8,3.3-2.3,4.8-4.6c2-3.1,2.9-7.3,2.8-11
	c-9.5-5.2-23.7-7.4-33.5-12c-2.7-1.3-5.3-2.8-7.9-4.3c-10.7-6.5-21.3-13.1-31.8-20c-2-1.3-4.1-2.7-6.5-3.4c-2.3-0.7-5.1-0.6-7,0.8
	c-2,1.5-3,4.1-3,6.6s0.9,4.9,1.9,7.2c0.8,1.9,1.8,3.9,3.1,5.5c1.4,1.8,3.3,3.2,5.1,4.6c2.7,2.1,5.4,4.1,8.5,5.6
	c2.6,1.2,5.5,1.9,8.2,3c7,2.7,13.1,7.3,19.7,10.8c3,0.2,5.8,1.3,8.5,2.4c3.4,1.3,6.7,2.3,10.2,3.1"/>
<path fill="#8E8C87" d="M-19.4,129.4c-0.9-4.9-1.8-10.2,0.3-14.6c0.4-0.9,0.9-1.7,1-2.6c0.1-1.3-0.8-2.4-1.6-3.4
	c-5.2-6.6-10.4-13.2-15.7-19.8c0.2-0.4-0.6-0.3-0.8,0.1c-3,4.8-2.7,10.8-2.4,16.4c0.2,3.3,0.4,6.6,0.7,9.9c0,0.5,0.1,1,0.3,1.4
	c0.2,0.5,0.6,0.8,1,1.2C-31.2,122.3-25.5,126.1-19.4,129.4z"/>
<path fill="#6D6B68" d="M22.6,172.3c-1.5,0-3.4-0.1-4.9-0.1c-3.2-7.2-6.4-14.8-7.7-22.5c3.5,2.5,7.1,5,10.6,7.6
	c4.6,3.3,9.2,6.5,14.6,8.3c-5.5,0.7-11.4,1.4-16.6-0.6C19.2,167.5,21,170.3,22.6,172.3z"/>
<path fill="#F2F2F2" d="M3.1,129.3c0,0-13.1-8.7-23.3-10.1c0,0,0.4-2.6,1.2-4.5c0,0,16.5,4.6,22.1,10.3V129.3z"/>
<path fill="#6D6B68" d="M-20.3,119.2c0,0-9.7-5.5-11.9-13.5c0,0,8.2,7.5,13.7,9.3C-18.4,114.9-20.2,116.9-20.3,119.2z"/>
<polygon fill="#6D6B68" points="22.3,101.7 18.2,95.7 19.1,112.4 23.7,114.3 "/>
<path fill="#AEB7A7" d="M280.2,72.8c-1.1-26.2-18.9-89.6-18.9-89.6h-217C58.4,6,72.9,29.2,93.2,46.8c7.9,6.9,16.7,12.8,24.8,19.4
	c15.5,12.7,28.6,28,41.2,43.7c15,18.7,29.3,38,42.9,57.7c3,4.3,5.9,8.7,10,12c5.2,4.1,12,6,18.5,5.4l-3,0.8l122.4-0.7v-32.2
	C329,143.4,281.3,99,280.2,72.8z"/>
<path fill="#AEB7A7" d="M-150.6,65.6v120.2h96.4c0,0-23.5-35.4-33.6-43.8S-135.3,84.2-150.6,65.6z"/>
<path fill="#AEB7A7" d="M347.2,34c1.5,0.6,3.4,1,4.4-0.3c0.4-0.6,0.4-1.3,0.5-2c0.4-16.2-0.5-32.4-2.9-48.5
	c-20.7-1.7-41.5-2.2-62.3-1.6c5.6,7.4,11.2,14.8,16.8,22.2c2.8,3.7,5.6,7.5,9,10.7C322.1,23.9,334.8,29,347.2,34z"/>
<path fill="#FFDE7A" d="M154.5,153.6c9.1,3.8,16.4,11.8,19.4,21.2c23-9.9,48.7-13.3,73.4-9.7c-1.3,5.1-0.3,10.7,2.7,15
	c19.7,3.5,41-3.5,54.8-18c14.3,11.9,34.5,16.5,52.5,12c0.8,4.4,1.5,8.8,2.3,13.3c-14,3.7-28.5,4-43,4.3
	c-155.9,2.8-311.9,0.4-467.6-7.4c6.1-5.8,9.8-13.9,10.2-22.3c2.9,7.2,7.3,15.5,15,15.9c10.6,0.5,15.9-14.4,26.3-16.6
	c-0.6,10.6,11.9,17.5,22.5,16.8s20.2-6.2,30.6-8.2c4.4,10.4,18.9,12.1,29.6,8.4s20.2-10.9,31.3-12.8c0,8.6,6.6,16.8,15,18.5
	c9.5,2,18.7-3.4,27.8-6.9s21.2-4.3,26.6,3.8c7.1-4,14.3-8.1,21.4-12.1c4.6,10.2,18.3,14,28.7,9.9
	C144.4,174.5,151.4,164.3,154.5,153.6z"/>
</svg>
