<?xml version="1.0" encoding="utf-8"?>
<!-- Generator: Adobe Illustrator 18.1.1, SVG Export Plug-In . SVG Version: 6.00 Build 0)  -->
<svg version="1.1" id="Art" xmlns="http://www.w3.org/2000/svg" xmlns:xlink="http://www.w3.org/1999/xlink" x="0px" y="0px"
	 viewBox="-150 -15 500 180" enable-background="new -150 -15 500 180" xml:space="preserve">
<rect x="-150" y="-16" fill="#E1E8DA" width="500" height="181.8"/>
<path fill="#4C453B" d="M167.7,100.8v-9.1c0,0,50.5-2.7,59.3-1.5s12.9-0.2,11.6,15s-3.8,42.4-3.8,42.4l-63-2.6L167.7,100.8z"/>
<path fill="#635A4D" d="M155,100.8v-9.1c0,0,50.5-2.7,59.3-1.5s12.9-0.2,11.6,15s-3.8,42.4-3.8,42.4l-63-2.6L155,100.8z"/>
<polygon fill="#FFFFFF" points="187,147.9 161.8,145.1 161.8,100.6 187,100.6 "/>
<path fill="#8E8C87" d="M164.1,98.9c0,0-9.8,0.2-13.1,3.1c-3.3,2.9-3.3,42.6-2.8,42.6s15.8,0.6,15.8,0.6L164.1,98.9L164.1,98.9z"/>
<path fill="#635A4D" d="M191.4,5.6l-2.7,2.5l-2.7-3.8c0,0-26.5-2.5-41.4,4.4S124.1,33,124.1,33c1.1,15.3,9.5,24.6,9.5,24.6
	l49.6,24.7l12.1-1.8c0.1-0.2,0.2-0.3,0.3-0.5c-0.1-0.3-0.2-0.5-0.3-0.8c-1.6-4.6,5.5-20.4,11.4-42.2S191.4,5.6,191.4,5.6z"/>
<path fill="#4C453B" d="M188.1,69.6c-0.5,0.6-0.9,1.5-1.2,2.4c0.1,0.1,0.1,0.2,0.1,0.3c0.4,3,4.5,3.7,8,3.7c0.2-1.4,0.5-3.1,1.1-5.1
	c-0.9-0.3-1.9-0.5-2.8-1C191.5,69.1,189.7,67.6,188.1,69.6z"/>
<path fill="#8E8C87" d="M203.9,103.8c-4.1-1.6-11.2-5-16-3.6l-6.5,7.9v12.7h-3.6h-5.5c0,0,2,11.8,0,18.2h9.1v5v0.2v2.1h24.5v-5.5
	c0,0,2.7-0.9,2.7-5c0-4.1,0-26.8,0-26.8S208,105.5,203.9,103.8z"/>
<path fill="#FFF2DC" d="M192.3,58.7l4.4-22.5c0,0-33.6-27.1-65.8,9.9c-0.1,0.2,1.8,7.6,4.1,16.3c0,0-7.3-0.1-4.1,7.1
	c2,4.6,5,4.2,6.8,3.3C140,81.5,142,89,142,89s12.1,8.4,23.9,5.4V98c0,0,13.2-1.6,19.5-2.7c0,0-4.5-12.3,3.2-25.3c0,0,9.8,8,15.3-2.9
	S197.1,54.7,192.3,58.7z"/>
<polygon fill="#C8D1C1" points="-160.8,165 -82.7,137.4 61.8,140.4 350,147.9 350,165.8 "/>
<g>
	<polygon fill="#FFFFFF" points="3.1,49.7 45.6,49 47.5,6.5 2.4,7.5 	"/>
	<polygon fill="#FFFFFF" points="-5.8,49.9 -7.8,7.8 -50.5,8.7 -48.6,50.5 	"/>
	<polygon fill="#FFFFFF" points="44.4,58 3.2,58 4.1,107.1 43.2,107.1 45.4,55.2 	"/>
	<polygon fill="#FFFFFF" points="-5.4,58 -48.4,58 -46.2,107.1 -3,107.1 	"/>
</g>
<polygon fill="#878787" points="14.1,80.9 89.5,80.5 89.5,142.6 14.1,142.6 "/>
<polygon fill="#6B6B6B" points="89.5,80.5 100.5,81.1 100.5,142.6 89.5,142.6 "/>
<path fill="#B7B7B7" d="M35.5,92.8l-3.1,5.6c0,0,25.6,0.2,26.5,0.2c0.8,0,7.4-5.7,7.4-5.7L35.5,92.8z"/>
<polygon fill="#B7B7B7" points="32.4,126.4 57.7,126 65.5,130.2 34.9,130.4 "/>
<polygon fill="#A0A0A0" points="32.3,98.5 32.4,126.4 57.7,126 57.7,98 "/>
<polygon fill="#6B6B6B" points="57.7,98 66.5,92.9 65.5,130.2 57.7,126 "/>
<polygon fill="#6B6B6B" points="58.6,142.6 63.2,142.6 63.2,164.3 58.6,165 "/>
<polygon fill="#A0A0A0" points="40.5,142.6 58.6,142.6 58.6,165 40.5,164.2 "/>
<path fill="none" stroke="#BCAD8A" stroke-width="2" stroke-linecap="round" stroke-linejoin="round" stroke-miterlimit="10" d="
	M145,58.8c0,0-0.9,5.5,3.9,5c4.8-0.5,4.1-5,4.1-5"/>
<path fill="none" stroke="#BCAD8A" stroke-width="2" stroke-linecap="round" stroke-linejoin="round" stroke-miterlimit="10" d="
	M162.5,58.8c0,0,0.1,4.7,5.5,5s5.9-4,5.9-4"/>
<path fill="none" stroke="#BCAD8A" stroke-width="2" stroke-linecap="round" stroke-linejoin="round" stroke-miterlimit="10" d="
	M155,76.7c0,0,1.2,2.4-1.9,4.8l2.8,1.4v3.4c0,0,2.7-2.7,5.2-3"/>
<path fill="#FFFFFF" d="M186.2,94.4c0,0-10.3,3-21.4,2.5l-2.5,5.3l6.4,4.5l5.2-6.2l5.5,4.7l9.5-5.5L186.2,94.4z"/>
<path fill="#635A4D" d="M123.2,103.5c0,0-0.2,35.6,0,40.9c0.9,0,11.8,7,31.8,1.1v-42H123.2z"/>
<ellipse fill="#726A5E" cx="139" cy="103.7" rx="15.8" ry="2.5"/>
<ellipse fill="#4C453B" cx="139" cy="103.7" rx="11.9" ry="1.2"/>
<ellipse fill="#ACB5A3" cx="139" cy="152.8" rx="14.3" ry="1.5"/>
<path fill="#FFF2DC" d="M154.8,108.7c0,0,4.7-0.8,7,0.8c2.3,1.6,4.2,6.5,4.6,9.7c0.5,3.2,0.7,19.6-6.4,20.8s-12.9,1.8-14.5-3.3
	c0,0-0.7-1.9,0-3.8c0,0-2.8-3.5,0.4-7.2c0,0-4.2-4.5-2.8-7.4c1.4-2.9,9-0.9,11.9-1.5L154.8,108.7z"/>
<path fill="#FFF2DC" d="M124.4,115.4c0,0,2.7,3.4,9.2,2.7c2.5-0.2,1.9,6.3-0.5,7.5c0,0,4.2,5.5-0.5,8.7c0,0,0.9,5.4-6.5,6
	c-7.4,0.6-8.4-3.3-9.1-9.5c-0.7-6.2-0.5-23.4,4.2-26.6c2.6-0.8,2.3,3.5,2.4,5.2C123.5,111.1,123.4,115,124.4,115.4z"/>
<path fill="#FFF2DC" d="M166.8,120.8h0.9c0,0,2.5,7.3,0.5,15.5h-4.1C164.1,136.2,158,120.5,166.8,120.8z"/>
<path fill="#6D6B68" d="M171,104.1l2.9-3.5l4.1,3.5C178,104.1,174.3,111.3,171,104.1z"/>
<polygon fill="#6D6B68" points="173.3,106.8 171.4,108.5 171.4,120.8 177.7,120.8 177.7,109 175.6,106.2 "/>
<polygon fill="#6D6B68" points="172.7,138.9 171.4,138.3 171,143.9 177.7,143.9 177.7,139 "/>
<g>
	<g>
		<path fill="#FFFFFF" d="M133,98.7c-1-4.2,0.5-7.7,0.7-11.8c0.2-3.3-0.5-6.5-1.3-9.7c-0.4-1.7-3-1-2.6,0.7
			c1.1,4.7,1.4,8.6,0.5,13.4c-0.5,2.8-0.5,5.4,0.1,8.2C130.7,101.1,133.4,100.4,133,98.7L133,98.7z"/>
	</g>
</g>
<g>
	<g>
		<path fill="#FFFFFF" d="M137.7,91.7c0.5,0.2,1-9.5,0.9-10.2c-0.5-4.3-1.6-8.3,0.1-12.5c0.6-1.6-2-2.4-2.6-0.7
			c-2.1,5.3-0.1,10.1,0,15.5c0,2.2-2.8,8.9,0.3,10.3C137.9,94.8,139.4,92.4,137.7,91.7L137.7,91.7z"/>
	</g>
</g>
<g>
	<g>
		<path fill="#FFFFFF" d="M144.8,102.3c0-2.4,0-4.6,0-7c0-1.7-2.7-1.7-2.7,0c0,2.4,0,4.6,0,7C142.1,104,144.8,104,144.8,102.3
			L144.8,102.3z"/>
	</g>
</g>
<polygon fill="#6D6B68" points="181.4,120.8 194.1,120.8 181.4,118.7 "/>
<path fill="#E2D4BF" d="M145.9,125.8c0,0,2,1.5,5.7,1.6c0,0-2.7,2-6.8,0C144.8,127.4,144.8,126.5,145.9,125.8z"/>
<path fill="#E2D4BF" d="M145.5,133c0,0,1.7,1.3,3.6,1.5c0,0-1.6,0.7-4,0C145.3,134.5,145.2,133.9,145.5,133z"/>
<path fill="#E2D4BF" d="M132.9,125.6c0,0-1.5,1.4-6.7,0.2c0,0,3.4,3.1,7.6,1.3C133.8,127,133.6,126.3,132.9,125.6z"/>
<path fill="#E2D4BF" d="M132.4,134.3c0,0-2.9,0.9-6.2-0.5c0,0,2,2.5,6.2,1.9C132.4,135.8,132.5,135.3,132.4,134.3z"/>
<path fill="#E2D4BF" d="M155,116.9c0,0,2.1-0.2,3.5-1c0,0-2.5-0.5-3.5-1.4V116.9z"/>
</svg>
