<?xml version="1.0" encoding="utf-8"?>
<!-- Generator: Adobe Illustrator 18.1.1, SVG Export Plug-In . SVG Version: 6.00 Build 0)  -->
<svg version="1.1" id="Art" xmlns="http://www.w3.org/2000/svg" xmlns:xlink="http://www.w3.org/1999/xlink" x="0px" y="0px"
	 viewBox="-150 -15 500 199" enable-background="new -150 -15 500 199" xml:space="preserve">
<polygon fill="#C1E0DF" points="319.1,148.4 300.6,162 307.9,162 307.9,187.3 330.3,187.3 330.3,162 339.1,162 "/>
<rect x="-150" y="-15" fill="#D1EDED" width="500" height="199.7"/>
<polygon fill="#DAF2F1" points="-148.8,158.6 -119.3,149.3 -94.4,156.8 -65.9,147.7 -44.5,155.9 -19.1,146.9 3.2,155.9 3.2,186.9 
	-150.1,186.9 "/>
<polygon fill="#C1E0DF" points="-101.1,130.8 -137,157.1 -122.7,157.1 -122.7,174.1 -79.3,174.1 -79.3,157.1 -62.3,157.1 "/>
<polygon fill="#C1E0DF" points="2.2,131.4 -38.8,161.5 -22.5,161.5 -22.5,181 27.1,181 27.1,161.5 46.6,161.5 "/>
<circle fill="#FFFFFF" cx="-55.9" cy="54.6" r="94.7"/>
<path fill="#FFDE7A" d="M321.4,129.6c-2.4,2.9-4.3,6.2-5.3,9.8c-0.9,3.6-0.8,7.6,0.9,11c0.5,1,1.1,2.2,0.6,3.2
	c-0.3,0.5-0.8,0.9-1.4,1.1c-2.5,0.9-5.5-0.3-7.2-2.4s-2.5-4.8-3.1-7.4c-0.5-2.2-0.9-4.5-0.4-6.7c0.8-3.1,3.5-5.5,6.4-6.7
	S318.2,129.9,321.4,129.6z"/>
<polygon fill="#DAF2F1" points="312.3,147 333.5,157.8 325.9,157.8 325.9,187.7 306.2,187.7 "/>
<polygon fill="#C1E0DF" points="114.4,146.5 83.3,169.3 95.6,169.3 95.6,184 133.3,184 133.3,169.3 148,169.3 "/>
<path fill="#FFDE7A" d="M176.4,137c-1.1-2.6-0.2-5.6,1-8.2c2.2-4.7,5.4-8.9,9.3-12.2c4-3.5,9.8-6.2,14.6-3.9
	c2.7,1.3,4.5,3.8,6.6,5.9c4.1,3.8,9.8,5.9,15.4,5.5c13.1-0.9,23.9-14.1,36.9-12.4c-3.3,0.5-5.7,3.6-6.5,6.9s-0.1,6.7,0.4,10
	c2.4-2.5,5.9-3.7,9.2-4.4c3.4-0.8,6.9-1.3,9.9-3.1c3-1.8,5.3-5.2,4.6-8.6c3.8,1.5,5.9,5.8,5.8,9.9c-0.2,4.1-2.2,7.9-4.7,11.1
	c-1.9,2.5-4.1,4.8-6.8,6.3c-2.9,1.5-6.3,1.8-9.5,2.2c-25.7,2.6-51.9,5.1-77.3,0.2C181.8,141.5,177.9,140.3,176.4,137z"/>
<path fill="#FFDE7A" d="M161.8,81c-2.7,6.7-1.4,14.7,3.1,20.3c2.6,3.2,6.2,5.6,7.9,9.3c1.4,2.9,1.4,6.2,1.4,9.3c0,5-0.2,10-0.5,14.9
	c-0.2,3.3-0.5,6.8-2,9.8c-1.4,2.8-3.8,5.1-6.4,6.9c-8.6,5.8-19.7,6.9-29.9,5.4c-4.4-0.6-8.8-1.7-12.3-4.4c-4-3.1-6.4-7.8-7.7-12.7
	c-1.4-4.8-2-9.9-3.3-14.8c-1.9-7-5.2-13.5-8.5-19.9c6.3,1.9,10.4,7.7,14.4,12.8c4.1,5.1,9.6,10.2,16.1,9.7c-3.9-4.1-5.7-10-5-15.5
	c0.6-4.3,2.6-8.4,2.3-12.7c-0.4-4.6-3.5-8.7-3.6-13.3c-0.1-5.7,4.2-10.4,8.2-14.4c-1,5.7-1.8,12,1.3,16.9c2.5,3.9,7.1,6.2,9.2,10.4
	c2,3.9,1.3,8.5,1.2,12.8c-0.1,4.3,0.8,9.4,4.5,11.6c4.4-2.5,6.5-7.9,6.8-13c0.3-5.1-0.8-10.1-1.1-15.2S158.4,84.8,161.8,81z"/>
<path fill="#8E8C87" d="M-50,149c0,0,3.8,0.7,7,9s11.2,26,11.2,26h-32.5l-6.8-15.4c0,0-1.5-2.2,1-5.2C-67.7,160.3-56.5,149.3-50,149
	z"/>
<path fill="#6D6B68" d="M-52.3,149.3c-27.1,16.8-18.7,19.6-12.6,19.4c0.1-0.2,0.3-0.4,0.6-0.4c0.7,0.1,1.5-0.1,2.2-0.4
	c5.5-2.9,9.5-4.8,12-10.6C-45.3,146.5-52.3,149.3-52.3,149.3z"/>
<path fill="#635A4D" d="M66.9,3.7l-4.4,4.2L58,1.6c0,0-43.3-4.2-67.5,7.1s-33.4,39.7-33.4,39.7c1.8,24.9,15.4,40.2,15.4,40.2
	l81,40.3l19.7-3c0.1-0.3,0.3-0.4,0.4-0.7c-0.1-0.4-0.3-0.9-0.4-1.3c-2.7-7.6,8.9-33.2,18.5-68.8S66.9,3.7,66.9,3.7z"/>
<path fill="#4C453B" d="M61.6,108.1c-0.9,1-1.5,2.5-1.9,3.9c0.1,0.1,0.1,0.3,0.1,0.4c0.6,4.9,7.3,6.1,13,6.1c0.3-2.2,0.9-5,1.8-8.3
	c-1.5-0.4-3.1-0.9-4.6-1.6C67.2,107.3,64.2,104.8,61.6,108.1z"/>
<path fill="#FFF2DC" d="M25.4,148.6c-19.3,4.9-39-8.7-39-8.7s-3.3-12.3-7.1-26.7c-3,1.5-7.9,2.2-11.1-5.3
	c-5.2-11.7,6.7-11.6,6.7-11.6C-28.9,82.1-32,70-31.8,69.7C20.6,9.3,75.5,53.5,75.5,53.5l-7.1,36.8c7.9-6.5,27.9-4,19,13.8
	c-8.9,17.8-24.9,4.7-24.9,4.7C56.4,119,55,129,55.1,136.5C55.1,136.5,38.1,144.6,25.4,148.6z"/>
<path fill="#E2D4BF" d="M-53.4,141.4c-0.4-4.4-4.5-7.7-8.9-8.4s-8.7,0.6-12.7,2.3c-3,1.2-5.9,2.6-8.5,4.6c-2.3,1.7-4.5,4.2-4.4,7.1
	c0,3.7,3.6,6.4,6.9,7.9c3.4,1.5,7.2,2.7,9.3,5.8c1.8,2.6,2.9,6.9,5.9,8.1c2.4-0.1,4.4-0.9,6.6-2.2c2.5-1.6,5.1-3.2,6.9-5.5
	s2.7-4.1,3.2-6c-0.7-1.9-3.7-5.7-4.2-7.7C-53.8,145.3-53.2,143.3-53.4,141.4z"/>
<path fill="#FFF2DC" d="M-77.9,136.6c-1.9,0.9-3.8,2-5.5,3.3c-2.3,1.7-4.5,4.2-4.4,7.1c0,3.7,3.6,6.4,6.9,7.9c0.8,0.4,1.6,0.7,2.4,1
	C-78,149.5-77.6,143-77.9,136.6z"/>
<path fill="#E2D4BF" d="M-51.7,134.8c-0.3,0.3-0.7,0.3-1,0.4c-2.3,0.3-4.8,0.1-6.3-1.6c-0.6-0.7-1-1.5-1.4-2.3
	c-1.2-2.7-2.5-5.5-2.1-8.5c0.2-1.7,1.2-3.5,2.9-3.8c1.1-0.2,2.1,0.3,3.1,0.8c2,1,3.9,2,5.9,3c0.5,0.2,1,0.5,1.3,1
	c0.5,0.7,0.4,1.6,0.2,2.4c-0.5,2.7-1.2,5.4-2.2,8C-51.4,134.4-51.5,134.6-51.7,134.8z"/>
<polygon fill="#635A4D" points="-93.4,118 -45.3,120.6 -44.8,110.7 -93.4,107 "/>
<polygon fill="#4C453B" points="-45,110.7 -42.5,111.6 -42.2,120.5 -45.1,120.6 "/>
<path fill="#8E8C87" d="M-78,108.2l8.9-77.9l14.5-33c0,0,4.1,26,7.4,34l-11.5,78.4L-78,108.2z"/>
<path fill="#A3A29F" d="M-70.2,95.4c0-18.3,2.1-36.5,5.1-54.5c1.4-8.3,2.9-16.5,4.3-24.8c0.5-3,1.1-6.2,1.8-9.2l-10.3,23.4
	l-8.9,77.9l8.3,0.6C-70,104.3-70.2,99.9-70.2,95.4z"/>
<path fill="#635A4D" d="M-80.2,146.7l-1.9,15.7l12.6,1.9l0.5-17.3C-69.1,146.9-71.6,145.3-80.2,146.7z"/>
<path fill="#4C453B" d="M-69.6,164.2c-0.2,1.5-3.2,2.6-6.7,2.2c-3.5-0.4-6-2.3-5.9-3.7c0.2-1.5,3-2,6.5-1.6
	C-72.2,161.5-69.4,162.8-69.6,164.2z"/>
<path fill="#8E8C87" d="M98.6,184c-0.3-2.4-1-4.8-1.9-7.1c-1.6-4.4-3.7-8.8-7.1-12c-4-3.7-9.4-5.5-14.8-6.6
	c-17.3-3.4-35.3-0.6-52.9-2.5c-2.6-0.3-5.3-0.7-7.9-0.3c-5.3,0.8-9.7,4.7-14.9,6.1c-1.1,0.3-2.4,0.5-3.3,1.3
	c-0.9,0.7-1.4,1.7-1.8,2.8c-1.8,3.9-3.6,7.9-5.4,11.8c-0.9,2.1-1.9,4.3-2.1,6.5H98.6z"/>
<path fill="#FFFFFF" d="M-58,131.5"/>
<polygon fill="#6D6B68" points="74.2,176.8 74.2,184.7 77,184.7 "/>
<polygon fill="#6D6B68" points="5.5,181.8 4,184 6.8,184.7 "/>
<path fill="#E2D4BF" d="M46.1,90.5c0.7-1.2,1-2.6,1.1-4c0.2-1.2,0.2-2.5-0.1-3.7c-0.6-2.3-3.4-5.7-5.9-5.8c-2.9-0.2-6.4,3.6-8.1,5.6
	c-4.2,5-2,11.6,5,12.1C41.3,94.9,44.6,93.3,46.1,90.5z"/>
<path fill="#FFFFFF" d="M47,83.3c-0.3,3-1.9,5.9-4.4,7.6s-6,2-8.6,0.5c-3.3-1.9-4.8-5.9-5-9.7c-0.1-2,0-4,0.6-5.9
	c0.7-1.9,2-3.6,3.8-4.5c2.6-1.3,5.8-0.7,8.3,0.8C45.3,74.4,47.5,79,47,83.3z"/>
<path fill="#E2D4BF" d="M2.7,93.1c1-0.9,1.6-2.2,1.8-3.6c0.5-2.5,0.2-5.1-1-7.3c-1.2-2.2-3.2-4-5.6-4.8c-0.2-0.1-0.4-0.1-0.6-0.1
	c-0.3,0.1-0.5,0.3-0.7,0.6c-0.6,0.9-1,2-1.5,3c-1,2.3-1.9,4.6-2.4,7.1c-0.3,1.8-0.3,3.8,0.9,5.1c1.1,1.2,2.8,1.4,4.4,1.4
	C-0.2,94.4,1.5,94.2,2.7,93.1z"/>
<path fill="#FFFFFF" d="M-1.6,92.7c1.7,0,3.4-1,4.4-2.4s1.3-3.2,1.3-5c-0.1-4.6-2.9-9-7-11c-1.4-0.7-3.2-1-4.3,0.1
	c-0.4,0.4-0.6,0.9-0.8,1.4C-9,79-8.6,82.5-8.2,85.9c0.2,1.7,0.5,3.6,1.8,4.8c0.6,0.6,1.4,1,2.3,1.3C-3.3,92.3-2.5,92.6-1.6,92.7z"/>
<path fill="#6D6B68" d="M20.5,126.4c4.1-1.1,8.6-2.5,10.6-6.3c1.7-3.3,1-7.2,1.2-10.9c-7,5.2-15.7,7.8-24.4,7.5
	c-0.7,0-1.5,0-1.8,0.6c-0.2,0.5,0.1,1.1,0.4,1.6c1.1,1.5,2.2,3,3.2,4.6c0.8,1.1,1.5,2.1,2.6,2.8C14.8,127.7,17.8,127.1,20.5,126.4z"
	/>
<polygon fill="#FFFFFF" points="19.6,163 19.6,184 58.8,184 58.8,161.6 "/>
<path fill="#6D6B68" d="M32.8,172.8c0,0-3.2,3.5-3.1,11.2s0,0.7,0,0.7h11.8c0,0,2.1-7.7-2.7-11.8C34,168.7,32.8,172.8,32.8,172.8z"
	/>
<path fill="#6D6B68" d="M29.7,168.6c0,0,1.4,4.9,6.3,4.7c4.8-0.2,8.2-3.5,7.3-6.8C42.3,163.2,33.8,152.4,29.7,168.6z"/>
<path fill="#FFFFFF" d="M24.8,151.7c0,0-6.3,5.3-8.2,8.8c0,0,8.7,7.3,11.8,10.2c0,0,4.5-8.3,8.2-9.5c0,0,6.8,3.7,8.5,8.5
	c0,0,14-7,16.7-10.9c0,0-4.2-8.2-6.8-8.8L24.8,151.7z"/>
<path fill="#FFF2DC" d="M41.3,142.6c-6.1,2.5-7.7,3.2-14.8,5.3v7.4c0,0,6.2,4.4,10.2,5.8c0,0,13-5.3,17.2-8.8c0,0,1.3-11.5,1.3-15.8
	C51.8,137.7,44.4,141.4,41.3,142.6z"/>
<path fill="#FFF2DC" d="M-56,125.6L-56,125.6c-3.2-4.9-8-8.7-13.6-10.2c-5.8-1.5-12.4-0.2-16.8,3.8c-1.2,1.1-2.2,2.3-2.7,3.8
	c-0.9,2.2-0.6,4.7-0.4,7l1.6,15.5c-0.1,4.6,1.5,5.3,1.5,5.3c-0.3-1,0.3-1.6,0.7-1.9c0.2-0.1,0.4-0.2,0.5-0.3
	c6.3-3.4,14.4-3.3,20.7,0.2c0.2,0.1,0.5,0.3,0.8,0.4c0.2,0.1,0.4,0.3,0.6,0.4c0.9,0.4,2.1,0.3,2.9-0.3c0.7-0.5,1.6-1.9,1.9-2.7
	c0.5-1.6-0.1-2.8-0.8-4.4c1.2,0,2.4-1.8,2.8-2.9c0.5-1.5,0.1-3-0.5-4.4c1.5-0.3,2.6-1.8,2.7-3.3C-54.1,129.5-54.7,127-56,125.6z"/>
<path fill="#AEB7A7" d="M282.5,81.2c2.5-3.7,4.9-7.5,7.1-11.4c-0.2-2.4-3.3-3.7-5.6-2.9s-3.8,3-5,5.1c-1.2,2.1-2.2,4.4-4.1,6
	c1-3.8,2-7.6,3-11.3c-3.6-1.2-8.3,3.1-8.8,6.8c-2.4-0.2-4.2-2.5-5.8-4.7c-0.7-1-2,1.4-2.4,2.5s-0.4,2.4-0.7,3.6
	c-0.8,2.5-2.9,4.2-5,5.8c-1,0.8-2,1.5-2.9,2.3c-1.2-2.5,1-5.3,2-7.9c1.2-2.9,0.9-6.3-0.7-9c-1.6-2.7-4.5-4.6-7.6-5
	c-0.8-0.1-1.7-0.1-2.4-0.5c-0.8-0.4-1.3-1.1-1.9-1.7c-3.7-4.6-7.3-9.2-11-13.8c0.3-0.6,0.2-1.3,0.2-2c0-2.3,1.7-4.3,3.7-5.5
	c1.9-1.2,4.2-1.9,6.3-2.9c4.2-2,7.7-5.4,9.9-9.5c-2.2,0.4-4.4,0.3-6.5-0.4c3.4-0.5,5.3-4.3,5.3-7.7c0-1.8-0.4-3.7-0.8-5.5
	c-0.3-1.2-0.6-2.4-1.5-3.2c-0.6-0.4-1.3-0.6-1.9-1.1c-0.8-0.6-1.3-1.6-1.8-2.5c-3.3-5.6-11.2-7.8-16.9-4.7c-0.6-1.7-2.4-2.7-4.2-2.9
	c-1.8-0.2-3.6,0.3-5.2,0.9c-0.8,0.3-1.7,0.7-2.2,1.5c-0.3,0.6-0.3,1.3-0.3,2c-0.2,3.2-1.6,6.2-3.1,9.1c-2.7,5.5-5.4,10.9-8.1,16.4
	c-0.4,0.8-0.8,1.5-0.8,2.4c0,1.4,0.9,2.7,2.2,3.4c1.2,0.7,2.7,1,4.1,1.2c-2.2,2.4-5.4,4-8.7,4.2l0.1,0.1c-1.4,0-2.8,0-4.2,0
	c-1.1,0-2.3,0-3.4,0.4c-1.7,0.7-2.7,2.4-3.1,4.2c-0.4,1.8-0.4,3.6-0.6,5.4c-0.3,2.6-1.1,5.1-1.9,7.7c-4.6-0.3-9.2-0.3-13.8,0
	c0-1.5-0.5-3-1.6-4.1c-0.8,0.8-2.1,0.4-3-0.2c-2.6-1.7-4.1-4.6-4.9-7.6s-1.2-6-2.1-9c-2.3,0.3-4.1,2.3-4.8,4.6
	c-0.6,2.2-0.4,4.6-0.1,6.9c-6.7,2.7-10.5,1.2-14.5,0.3c-0.8-0.2-1.6,0.1-2.1,0.7c-0.6,0.7-0.3,1.8,0.1,2.6c2.2,4.7,8.1,7.3,13.1,5.7
	c0.7,3.1,4.8,5,7.6,3.4c2,3,6.6,4.1,9.6,2c0,0.3-0.1,0.5-0.1,0.8c0,0.3,0,0.5,0.1,0.8c0.1,0.4,0.5,0.7,0.8,0.9
	c2.3,1.9,4.7,3.8,7.6,4.7c2,0.6,4,0.7,6.1,0.7c0.3,0,0.5,0,0.8,0c1.2,7.9,4.7,15.7,2.6,23.3c-0.8,2.9-2.3,5.4-4.3,7.8
	c-3.2,0.9-6.2,2.8-8.6,5c-3.1,2.8-5.5,6.2-7.9,9.6c-1.3,1.8-2.5,3.6-3.8,5.4c-1.3,1.9-2.7,3.8-2.8,6.1c-0.1,1.3,0.3,2.7,0.4,4
	c0.1,1.1,0,2.1,0,3.2c0.2,2.9,2,5.6,4.5,6.9c4.4-2,8.7-3.9,13.1-5.9c0.5-0.2,1-0.5,1.2-1c0.2-0.8-0.8-1.4-1.2-2.2
	c-0.8-1.2-0.2-2.8,0.7-4c2-0.8,3.8-1.7,5.6-2.9c3.4-2.3,6.3-5.6,7.9-9.3c-0.1,3.3,0.3,6.7,0.6,10c0.4,3.4,0.7,6.7,1.1,10.1
	c0.3,2.9,0.8,6.1,2.9,8.1c0.6,0.5,1.2,0.9,2,1c1,0.1,1.9-0.4,2.7-0.8c4.8-2.5,9.5-5,14.3-7.5c0.8-0.4,1.6-0.9,2.1-1.6
	c0.3-0.6,0.4-1.2,0.5-1.8c0.6-5,0.7-10,0.5-15c-0.2-4.2-0.7-8.5-2.6-12.3c-0.2-0.3-0.3-0.6-0.5-0.9c3.3-7.4,7.1-14.7,12.9-20.1
	c0.7,5.1,1.4,10.3,2.1,15.4c0.2,1.3,0.4,2.8,1.3,3.8c1.7,1.9,4.7,1.4,7.1,0.8c4.4-1.1,8.8-2.2,12.9-4.1c6.6-3.1,12.2-8.3,15.9-14.6
	c1.3,0.5,2.7,1,4.1,1.2c2.9,0.4,6.1-0.6,8.8,0.7c1.8,0.8,3.4,2.5,5.3,2.1c2.2-0.5,2.6-3.8,1.2-5.6S284.7,81.7,282.5,81.2z"/>
<path fill="#80877A" d="M224.7,11.1c3.9-0.1,7.7-0.3,11.6-0.4c0.9,0,1.8-0.1,2.6,0c0.3,0,0.7,0,1,0.2c0.3,0.2,0.4,0.7,0.5,1.1
	c0.5,3.5-0.7,7.2-3.1,9.7s-6.2,3.8-9.7,3.3c-2.1-0.3-4.2-1.3-5.5-2.9c-2-2.6-1.8-6.4-0.3-9.3c0.2-0.5,0.5-1,1-1.2
	C223.4,11.1,224.1,11.1,224.7,11.1z"/>
<path fill="#FFFFFF" d="M229,20.4c4.4-0.7,8.5-5.4,7-9.8c-3.7,0.1-7.5,0.3-11.2,0.4c-0.6,0-1.3,0.1-1.9,0.4c-0.4,0.3-0.7,0.8-1,1.2
	c-0.8,1.6-1.2,3.4-1.2,5.2C222.5,20.2,226.1,20.9,229,20.4z"/>
<path fill="#80877A" d="M220.9,4c0.5,0.9,0.5,1.9,0.6,2.9c0,0.6,0,1.3-0.3,1.8c-0.2,0.5-0.7,0.8-1,1.1c-0.5,0.4-0.9,0.9-1.4,1.2
	c-0.8,0.5-1.7,0.6-2.7,0.7c-1.1,0.1-2.3,0.1-3.3-0.5c-0.5-0.3-0.8-0.8-0.7-1.4c0-0.2,0.2-0.4,0.3-0.7c1-1.8,1.7-3.8,2-5.8
	c0-0.2,0-0.4,0.2-0.5c0.1-0.2,0.4-0.3,0.6-0.3c1-0.3,2.1-0.4,3.2-0.2C219.3,2.5,220.3,3.1,220.9,4z"/>
<path fill="#FFFFFF" d="M221.2,5c-0.2-0.3-0.5-0.5-0.8-0.7c-1.6-1.1-3.3-1.1-4.9-0.4c-0.8,0.5-1.4,1.3-1.9,2.1
	c-0.2,0.5-0.3,1-0.6,1.5c-0.4,2,0.7,3.4,2.5,4.2c0.1,0,0.3,0,0.4,0c0.9-0.1,1.9-0.2,2.7-0.7c0.5-0.3,1-0.8,1.4-1.2
	c0.4-0.3,0.8-0.7,1-1.1c0.3-0.5,0.3-1.2,0.3-1.8C221.4,6.3,221.4,5.6,221.2,5z"/>
<path fill="#A3AA9D" d="M224.3,13.1c0.1,0.3,0.5,0.4,0.7,0.3c0.3-0.1,0.5-0.3,0.5-0.6c0-0.1,0-0.2,0.1-0.3c0.1-0.1,0.3-0.1,0.4,0
	c0.5,0.3,0.6,1.1,0.3,1.7c-0.3,0.5-1,0.8-1.6,0.8c-0.4,0-0.8-0.1-1-0.4c-0.3-0.2-0.4-0.7-0.3-1c0.1-0.4,0.5-0.6,0.9-0.5"/>
<path fill="#A3AA9D" d="M218.1,8.2c-0.2,0.1-0.2,0.4-0.1,0.5c0.2,0.1,0.4,0.1,0.6,0c0.2-0.1,0.3-0.3,0.4-0.5c0.4,0.3,0.4,1,0,1.3
	c-0.1,0.1-0.3,0.2-0.4,0.2c-0.3,0.1-0.7,0.1-0.9-0.1s-0.5-0.5-0.5-0.8c0-0.3,0.4-0.6,0.7-0.6"/>
<path fill="#CAD3C1" d="M221.7,23.1C221.7,23.1,221.6,23.1,221.7,23.1c-0.1,0-0.1,0-0.2-0.1c-2.1-1-3.8-2.6-4.9-4.6
	c-0.3-0.5-0.5-1-0.8-1.5c0.1-0.2,0.2-0.3,0.3-0.5c0.4-1,0.1-2.3-0.9-2.7c-0.7-0.3-1.5,0-2.1,0.4c0.3-0.4,0.2-1.1-0.2-1.5
	c-0.4-0.4-1-0.5-1.5-0.4c-0.5,0.1-1,0.3-1.5,0.5c-0.5,0.2-1.1,0.6-1.3,1.1c-0.1,0.3-0.1,0.5,0,0.8c0,0.4,0.1,0.8,0.2,1.2
	c-0.7,0.5-1.1,1.5-1.4,2.4c-0.8,2.2-1.9,4.2-3.2,6.2c-1.2,1.8-2.5,3.7-2.2,5.8c0.2,1.8,1.8,3.4,3.6,3.8c1.8,0.4,4,1.2,5.5,0.2
	c1.3-0.9,2.9-2.2,3.8-3.5c1,1.7,2,1.8,3.9,2c2.2,0.3,4.6-0.6,6-2.3C226.7,27.9,224.6,23.8,221.7,23.1z"/>
<path fill="#80877A" d="M211.4,17c0,0.9,1.1,1.6,1.9,1.2c0,0.6,0.4,1,0.9,1.4c0.5,0.3,1,0.6,1.3,1c0.3,0.4,0.4,0.9,0.5,1.4
	c0.2,2.3-1.1,4.4-2.6,6.2c-1,1.3-2.2,2.7-3.7,3.4c-1.5,0.7-3.5,0.8-4.8-0.3c-1.2-1-1.6-2.6-1.4-4.1c0.2-1.5,0.8-2.9,1.5-4.3
	c1-2.2,2.1-4.3,3.1-6.5c0.1-0.2,0.2-0.4,0.4-0.4c0.1,0,0.2,0.1,0.3,0.2C209.5,17.1,210.6,17.4,211.4,17z"/>
<path fill="#FFDE7A" d="M214.2,19.6c-0.1-0.1-0.2-0.3-0.2-0.2l0,0c-2.4-0.3-4.5-1.9-5.6-4s-1.5-4.5-1.5-6.9
	c-1.4,0.7-2.3,2.1-2.4,3.6c-2-1.1-2.5-3.7-2.6-6c-0.1-2.3,0-4.8-1.3-6.6c0,1.3-0.3,2.5-1,3.6c-0.7,1.1-1.9,1.8-3.1,1.8
	c-0.9,0-1.7-0.4-2.4-0.9c-1.5-1.2-2.3-3-3.3-4.6c-1.6-2.7-3.7-5.1-6.2-6.9c0.3,2.6,0.1,5.3-0.6,7.9c-0.4,1.6-0.9,3.2-0.7,4.8
	c0.1,0.9,0.5,1.8,1,2.6c1.2,2.2,2.9,4.2,4.9,5.7c-1.4,0.4-3,0.4-4.4,0c0.6,2.2,2.9,3.5,5.1,4.3s4.6,1.3,6.2,3
	c1.2,1.2,1.8,2.9,2.8,4.2c0.9,1.2,2.2,2,3.4,2.9c0.5,0.4,1.1,0.8,1.6,1.1v0c1,1.3,4.8,3.2,4.8,3.2c3.8-0.6,6.7-6.1,7.4-8.8
	C216.9,20.6,214.2,19.6,214.2,19.6z"/>
<path fill="#949B8C" d="M226.4,0.1c0.2,0.8,0.4,1.6,0.6,2.4c0.5-0.9,0.7-2,0.6-3c-0.5,0.1-0.9,0.4-1.3,0.7"/>
<path fill="#949B8C" d="M237.9,24.6c1.6-1,3.3-2.1,5.2-2.2c1.3-0.1,2.6,0.3,3.8,0.7c-0.4,0.5-0.9,1-1.5,1.3
	c-0.3,0.1-0.6,0.2-0.9,0.2c-0.4,0-0.8,0-1.1-0.1C241.6,24.2,239.7,24,237.9,24.6z"/>
<path fill="#949B8C" d="M187.1,56c-0.3,0-0.6-0.1-1.3-0.1c-0.1,0.1-0.3,0.1-0.4,0.2c-0.4,0.3-0.6,0.8-0.8,1.3
	c-1.5,3.7-2.3,7.9-2.2,11.9c1.1,0.4,2.3,0.3,3.4,0.3C185.1,65.1,185.8,60.4,187.1,56z"/>
<path fill="#949B8C" d="M153.4,56.1c0,0,0.4-6.3,5.1-8c0,0-1,7.3,0.8,9.4C159.2,57.5,156.3,60.9,153.4,56.1z"/>
<path fill="#949B8C" d="M161,59.5c0,0-1.3-5.6,1.7-8.3c0,0,1,6.4,3,7.4S163.5,63.3,161,59.5z"/>
<path fill="#949B8C" d="M269,85.8c0,0-3-1.5-5-3.9c0,0,0,3.6,3.4,6.4C267.4,88.3,268.6,86.5,269,85.8z"/>
<path fill="#949B8C" d="M282.5,81.2l-2.3,2.4c0,0,4.1,0.1,5.4-1.5C285.6,82.1,283.6,81.2,282.5,81.2z"/>
<polygon fill="#DAF2F1" points="157.7,140.7 187.1,131.3 212,138.9 240.6,129.8 262,138 287.3,129 309.7,138 309.7,184 156.3,184 
	"/>
<polygon fill="#DAF2F1" points="139.9,144.7 118.7,155.4 126.3,155.4 126.3,185.3 146,185.3 "/>
<polygon fill="#C1E0DF" points="149.5,127.1 131,140.7 138.3,140.7 138.3,184 160.7,184 160.7,140.7 169.5,140.7 "/>
<polygon fill="#C1E0DF" points="301.4,128.4 282.9,142 290.3,142 290.3,185.3 312.7,185.3 312.7,142 321.4,142 "/>
<polygon fill="#C1E0DF" points="247.4,146.5 216.3,169.3 228.6,169.3 228.6,184 266.3,184 266.3,169.3 281,169.3 "/>
<path fill="#BFC6B9" d="M194.6,72.9c-2.4,0.1-5,0.1-7.2-0.9c-0.6-0.3-1.2-0.6-1.5-1.2c-0.3-0.5-0.3-1-0.4-1.5
	c-0.3-5.2,0.7-10.4,2.1-15.4c0.8-2.9,2.1-6.2,5-7.2c1.4-0.5,3-0.3,4.5,0.1c2.3,0.5,4.5,1.4,6.5,2.6c1.2,0.7,2.5,1.6,3,2.9
	c0.6,1.6,0.1,3.3-0.5,4.9c-0.9,2.8-1.9,5.6-2.8,8.4c-0.8,2.3-1.6,4.7-3.6,6C198.2,72.6,196.4,72.8,194.6,72.9z"/>
<path fill="#BFC6B9" d="M221.2,82.5c2.9-0.3,4.5-3.3,5.7-5.9c1.1-2.6,2.3-5.3,3.4-7.9c1.2-2.7,2.3-5.8,0.9-8.4
	c-0.8-1.5-2.3-2.4-3.8-3.2c-3.6-1.9-7.7-3-11.7-3.4c-2.3-0.2-4.9,0-6.5,1.7c-1,1-1.4,2.5-1.7,3.8c-0.9,3.3-1.7,6.7-2.5,10
	c-0.3,1.1-0.5,2.3-0.2,3.4c0.3,1,0.9,1.8,1.7,2.5c3,3,7,4.7,10.9,6.4C218.5,82.1,219.9,82.6,221.2,82.5z"/>
<polygon fill="#D1EDED" points="-150,165 113,181.8 356,169.7 356,185.3 -150,185.3 "/>
<rect x="-150" y="-15" fill="#FFFFFF" width="44.7" height="61.4"/>
</svg>
