<?xml version="1.0" encoding="utf-8"?>
<!-- Generator: Adobe Illustrator 18.1.1, SVG Export Plug-In . SVG Version: 6.00 Build 0)  -->
<svg version="1.1" id="Layer_2" xmlns="http://www.w3.org/2000/svg" xmlns:xlink="http://www.w3.org/1999/xlink" x="0px" y="0px"
	 viewBox="-150 -25 500 200" enable-background="new -150 -25 500 200" xml:space="preserve">
<polygon fill="#E1E8DA" points="-149.9,-26 350,-26 350,175 -149.9,175.9 "/>
<polygon fill="#AEB7A7" points="7.7,-9.5 71.3,-9.5 71.3,59.6 5.8,59.6 "/>
<polygon fill="#AEB7A7" points="-73.1,-9.5 -9.6,-9.5 -9.6,59.6 -75.1,59.6 "/>
<polygon fill="#AEB7A7" points="7.7,74.2 71.3,74.2 71.3,143.2 5.8,143.2 "/>
<polygon fill="#AEB7A7" points="-73.1,74.2 -9.6,74.2 -9.6,143.2 -75.1,143.2 "/>
<path fill="#80877A" d="M7.7,74.2l-1.9,54.1c0,0,27.4,13.2,30.4-10.5c3.2-23.6,4.9-43.6,4.9-43.6H7.7z"/>
<path fill="#80877A" d="M-9.6,74.2v52.7c0,0-36.6,7.1-39.2-52.7H-9.6z"/>
<path fill="#CAD3C1" d="M-67.9,59.6c0,0,4.6-14.3,20.3-17.4s38.1-4.5,38.1-4.5v21.8H-67.9z"/>
<path fill="#80877A" d="M-21,20c0,0,8.6,1.9,11.4,6.9v10.9c0,0-2.3,0-3.8,4.1c0,0-3.1-6.5-11.2-1.1C-32.8,46.1-21,20-21,20z"/>
<path fill="#80877A" d="M-34.9,11.2c0,0-8.8-10.7-8.6-20.2c0,0-31.9,18.9-13.7,55L-34.9,11.2z"/>
<path fill="#CAD3C1" d="M6.7,39.9c0,0,36.8-5.9,47.3,2.7s8.9,17.1,8.9,17.1H5.8L6.7,39.9z"/>
<path fill="#80877A" d="M21.6,5.6c0,0,6.8-6,8.2-15.1h6.4c0,0,24.9,12,17.9,52c0,0-15.3-0.8-27.6,3.5L21.6,5.6z"/>
<path fill="#635A4D" d="M154,111.1c0,0-20.9-30.6-14.8-69.1c0,0,10-51.2,83-40l3,4.8l6.1-6.5c0,0,29.7,5.5,43.9,30
	c0,0-14.7,52-30.1,77.9S154,111.1,154,111.1z"/>
<g>
	<g>
		<path fill="#FFFFFF" d="M125.6,149.3c-1-4.2,0.5-7.7,0.7-11.8c0.2-3.3-0.5-6.5-1.3-9.7c-0.4-1.7-3-1-2.6,0.7
			c1.1,4.7,1.4,8.6,0.5,13.4c-0.5,2.8-0.5,5.4,0.1,8.2C123.3,151.8,126,151,125.6,149.3L125.6,149.3z"/>
	</g>
</g>
<g>
	<g>
		<path fill="#FFFFFF" d="M130.3,142.3c0.5,0.2,1-9.5,0.9-10.2c-0.5-4.3-1.6-8.3,0.1-12.5c0.6-1.6-2-2.4-2.6-0.7
			c-2.1,5.3-0.1,10.1,0,15.5c0,2.2-2.8,8.9,0.3,10.3C130.5,145.4,132,143,130.3,142.3L130.3,142.3z"/>
	</g>
</g>
<path fill="#FFF2DC" d="M243.8,108.9c8.4-32,7.5-63.2,7.5-63.2c-56.3-38.8-103.9,8.5-103.9,8.5c-3.2,21.4,3,46.4,8.7,63.6l0,0
	c0,0-13.3-5.5-11.7,8.7c1.5,14.3,14.5,8.5,15.6,1.9c2.4,6.2,4.1,9.8,4.1,9.8c7.9,2.4,15.1,3.9,21.6,4.8h0.2v11.8h25.4v-11.2
	c15.5-1.7,22.5-7.3,22.5-7.3c2.2-4.5,4.1-9.1,5.8-13.9c4,4.5,12.2,11.6,15.4-2.8C259.1,100.5,243.8,108.9,243.8,108.9z"/>
<g>
	<path fill="#F4E6D0" d="M158.7,82.5c3.8-2.4,8-3.5,12.3-4.5c15.6-3.2,31.5-4.7,47.3-2.5c4.1,0.5,8.1,1.5,11.8,3.5s7.1,5.5,8.8,10.1
		c1.7,4.6,1.5,10.5-1.2,14.4c-2,3-5.1,4.5-8,5.7c-14.9,6.3-30.4,9.5-46.2,11.1c-5.8,0.6-11.8,0.9-17.3-1.6c-1.8-0.9-3.6-2.1-5-3.8
		c-1.5-1.9-2.5-4.4-3.4-6.8c-1.5-3.7-2.8-7.5-3.4-11.6c-0.5-4.1,0-8.5,2.1-11.8C156.7,84.8,157,83.5,158.7,82.5z"/>
</g>
<g>
	<path fill="#E8D7C1" d="M158.7,81c3.8-1.9,8-2.8,12.3-3.5c15.6-2.5,31.5-3.8,47.3-2c4.1,0.5,8.1,1.2,11.8,2.8
		c3.7,1.6,7.1,4.5,8.8,8.1c1.7,3.6,1.5,8.5-1.2,11.5c-2,2.4-5.1,3.5-8,4.5c-14.9,5.1-30.4,7.6-46.2,8.9c-5.8,0.5-11.8,0.7-17.3-1.3
		c-1.8-0.7-3.6-1.6-5-3.1c-1.5-1.5-2.5-3.5-3.4-5.5c-1.5-3-2.8-6.1-3.4-9.4c-0.5-3.3,0-6.9,2.1-9.5C156.7,82.8,157,81.8,158.7,81z"
		/>
</g>
<g>
	<g>
		<path fill="#BCAD8A" d="M194,137c1.3-0.9,2.5-2,3.5-3.3c-0.6,0-1.3,0-1.9,0c1.2,1.2,2.5,2.2,4,2.9c1.5,0.7,3-1.6,1.4-2.4
			c-1.3-0.6-2.5-1.5-3.5-2.5c-0.5-0.5-1.5-0.5-1.9,0c-0.9,1.1-1.8,2-3,2.8C191.2,135.7,192.6,138,194,137L194,137z"/>
	</g>
</g>
<ellipse fill="#FFFFFF" cx="168.8" cy="90.1" rx="7.1" ry="6.5"/>
<ellipse fill="#FFFFFF" cx="224.2" cy="90.1" rx="7.1" ry="6.5"/>
<path fill="#FFFFFF" d="M21.6,5.9c0,0,24.6-5.7,27.8,12.9s-15.5,26.4-23,27.3c0,0-5.5-9.8-20-6.2L7.2,17C7.1,17,14.3,14.4,21.6,5.9z
	"/>
<path fill="#FFFFFF" d="M-20.8,19.9c-8.6-2.3-14.1-8.6-14.1-8.6c-32.7,5.3-22.3,34.8-22.3,34.8c17.3-10.5,26.7,2.5,26.7,2.5
	s4.2-9.8,11.8-9.8C-18.6,38.7-11.2,28.4-20.8,19.9z"/>
<path fill="#949B8C" d="M-36.3-9.5c0,0,0.2,14.5,13.5,21.5S-9.6,19-9.6,19v-2.9c0,0-15.1-4.3-20.4-12.3c-5.4-8-5.2-13.2-5.2-13.2
	L-36.3-9.5L-36.3-9.5z"/>
<path fill="#949B8C" d="M-27.5-9.5c0,0,1.5,11.1,9.5,14.5c7.9,3.4,8.5,4.9,8.5,4.9V7.9c0,0-5.3-2.3-8.5-4.4s-6.2-6.2-8.4-12.9
	L-27.5-9.5L-27.5-9.5z"/>
<path fill="#949B8C" d="M-52.2-9.5c-0.2,0-4.7,3.4-7,6.1c0,0,2-4.6,4.7-6.1H-52.2z"/>
<path fill="#949B8C" d="M7.3,11c0,0,9.1-3.8,11.1-8.4s2.1-9.6,5.3-12h-2.3c0,0-3.1,4.7-4,9.7s-10,8.5-10,8.5L7.3,11L7.3,11z"/>
<path fill="#949B8C" d="M7.5,2.8c0,0,5.5-2.5,6.8-9.4c0,0-4,6.5-6.7,7.5L7.5,2.8z"/>
<path fill="#949B8C" d="M62.1-9.5c0,0,2.7,28.9,0,41.4c0,0,5.4-10.1,9.2-13.1V-9.5H62.1z"/>
<path fill="#949B8C" d="M-65.1-9.5c0,0-7.5,9.2-8.7,23l0.6-23H-65.1z"/>
<g>
	<g>
		<path fill="#A3AA9D" d="M-25.1,54.6c0.2-0.4,0.8-1.6,1.4-1.7c0.5,0,0.6,1,0.7,1.4c0.5,1.7,3.1,1,2.6-0.7c-0.5-1.7-1.5-3.7-3.7-3.4
			c-1.8,0.3-3,2.2-3.5,3.7c-0.3,0.7,0.3,1.5,0.9,1.6C-26,55.8-25.3,55.3-25.1,54.6L-25.1,54.6z"/>
	</g>
</g>
<g>
	<g>
		<path fill="#A3AA9D" d="M10.2,54c0.7-1,2.1-0.8,2.4,0.5c0.4,1.7,3,1,2.6-0.7c-0.6-3.2-4.8-4.3-6.9-1.6c-0.5,0.5-0.5,1.4,0,1.9
			C8.6,54.4,9.7,54.5,10.2,54L10.2,54z"/>
	</g>
</g>
<path fill="#B7BFB0" d="M-30.4,48.4c0,0-1.7,3.5-2.5,6.7c0,0-0.4-4.5,1.3-8.1L-30.4,48.4z"/>
<path fill="#B7BFB0" d="M26.4,46c0,0,0.9,2.1,1.1,5.1c0,0,1.4-1.8,1.3-5.5L26.4,46z"/>
<path fill="#949B8C" d="M71.3,29.3c0,0-5.4,8.4-7.3,16.3c0,0,4.2-11.2,7.3-12.9V29.3z"/>
<g>
	<g>
		<path fill="#A3AA9D" d="M39.4,28.5c0.2-0.1,0-0.1,0.2,0.1c0.1,0.2,0.2,0.3,0.2,0.5c0.1,0.5-0.1,0.9-0.3,1.3
			c-0.5,0.6-1.5,0.5-2-0.1c-1-1.5-3.4-0.1-2.4,1.4c1.7,2.5,5.5,2.5,7-0.3c0.6-1.3,0.6-2.8-0.1-4c-0.8-1.4-2.6-2-4-1.1
			C36.5,27.1,37.9,29.4,39.4,28.5L39.4,28.5z"/>
	</g>
</g>
<g>
	<g>
		<path fill="#A3AA9D" d="M-21.5,30.5c-0.1-0.1-0.2-0.1-0.4-0.2c0,0.1,0,0.1,0,0.2c-0.1,0.1-0.2,0.5-0.2,0.5c-0.3,0.4-0.6,0.6-1,0.8
			c-0.3,0.1-1.8,0.5-1.5-0.2c0.9-1.5-1.5-2.9-2.4-1.4c-0.8,1.3-0.4,2.9,0.7,3.8c1.3,1.1,3.2,0.8,4.6,0.1c1.4-0.7,2.5-2.1,2.5-3.7
			c0-1.6-1.4-3.2-3.1-2.5C-24,28.5-23.3,31.2-21.5,30.5L-21.5,30.5z"/>
	</g>
</g>
<g>
	<g>
		<path fill="#BCAD8A" d="M160,92.5c2.7,7.8,13.4,7.8,16.1-0.1c2.6-7.9-6.4-13.7-12.6-8.6c-1.4,1.1,0.5,3,1.9,1.9
			c4.4-3.5,10,1.1,8,6.2c-2,5-8.9,5.1-10.7-0.1C162,90.1,159.3,90.9,160,92.5L160,92.5z"/>
	</g>
</g>
<g>
	<g>
		<path fill="#BCAD8A" d="M216.1,92.9c0.5,3.6,3.9,5.5,7.3,5.8c4,0.4,6.9-1.5,8.5-5.3c1.3-3.3,0.4-7.4-2.8-9.2
			c-3-1.6-7.4-1.8-9.8,0.8c-1.2,1.3,0.7,3.2,1.9,1.9c1.4-1.5,3.7-1.5,5.5-0.7c3.2,1.1,3.7,4.4,2.2,7.1c-1.2,2.2-2.6,2.9-5.1,2.7
			c-2.5-0.2-4.6-1.2-5.1-3.8C218.5,90.4,215.9,91.1,216.1,92.9L216.1,92.9z"/>
	</g>
</g>
<path fill="#CAD3C1" d="M-45.7,74.2c0,0-0.7,32.5,12.8,39.5c13.5,7,18.7,8.6,23.3,8.9v20.7h-29.1c0,0-15-28.2-14.5-60
	c0,0-15.9,2.3-15.5-9.1L-45.7,74.2L-45.7,74.2z"/>
<path fill="#CAD3C1" d="M62.1,74.2c0,0-1.5,14.4-15.8,13.8c0,0-7.3,14.1-7.5,30.2c-0.2,16.2-0.9,22-5.9,25H5.7v-17.7
	c0,0,18.8,1.6,26.4-4.5c0,0-0.7-32.3,6.5-46.8L62.1,74.2L62.1,74.2z"/>
<path fill="#FFFFFF" d="M-9.6,74.2h-30v6.4c0,0,13.5-0.9,30-1.2V74.2z"/>
<path fill="#FFFFFF" d="M7.7,74.2C7.7,74.2,7.7,74.1,7.7,74.2l-0.2,5.3c9.6,0.2,17.4,0.8,23.8,2.2l1.2-7.5
	C32.5,74.2,7.7,74.2,7.7,74.2z"/>
<path fill="#FFFFFF" d="M-13.3,114.1c0,0,2.3,0.9,3.6,1v7.3c0,0-9,0.3-20.8-7.4C-30.4,115-20.3,110.1-13.3,114.1z"/>
<path fill="#5C6058" d="M-58,104.1c0,0,10.3,1.8,15-1.1c4.7-3,11.8-1.3,13.7,2.5c0,0,5.2-1.5,8.4,1.5c3.2,3,6.8,1.4,7.5,7.1
	c0,0-6.5-1.1-9.3,0c-2.7,1.1-19.1,5.6-33-3.8C-60.5,107.1-60.9,103.8-58,104.1z"/>
<path fill="#FFFFFF" d="M6.4,116.1c0,0,12.2,0.1,18.1-1.5c0,0,0.3,5.9,0,9.6c0,0-11.8,2.1-18.6,1.2L6.4,116.1z"/>
<path fill="#949B8C" d="M71.3,86.6c0,0-9.3,13.2-17.3,6.2c0,0,3.6,10.2,17.3,5.9V86.6z"/>
<path fill="#949B8C" d="M-73.5,87.5c0,0,3.7,6.8,12.1,4.5c0,0-3.7,8.7-12.5,7.6L-73.5,87.5z"/>
<polygon fill="#878787" points="350.5,178.5 349.5,148.4 -151.5,167.1 -151.1,178.5 "/>
</svg>
