<?xml version="1.0" encoding="utf-8"?>
<!-- Generator: Adobe Illustrator 18.1.1, SVG Export Plug-In . SVG Version: 6.00 Build 0)  -->
<svg version="1.1" id="Art" xmlns="http://www.w3.org/2000/svg" xmlns:xlink="http://www.w3.org/1999/xlink" x="0px" y="0px"
	 viewBox="-150 -15 500 199" enable-background="new -150 -15 500 199" xml:space="preserve">
<rect x="-151" y="-15" fill="#FFCCCE" width="503.1" height="200.7"/>
<polygon fill="#EFBDC1" points="360.1,127.4 353.4,121.6 333.4,138.8 313.4,121.6 282,148.6 203.4,148.6 172.1,121.6 152.1,138.8 
	132.1,121.6 112.1,138.8 92.1,121.6 72.1,138.8 52.1,121.6 20.7,148.6 3.4,148.6 -27.9,121.6 -47.9,138.8 -67.9,121.6 -100.7,149.8 
	-72.6,174.1 -72.6,183.9 358,183.9 358,174.1 360.1,172.3 "/>
<rect x="85" y="158.5" fill="#635A4D" width="6.6" height="5"/>
<path fill="#FFFFFF" d="M134.2,115.4c-0.6-1.3-1.7-2.4-3-3c-0.3-0.1-0.7-0.3-1-0.2c-0.3,0.1-0.6,0.3-0.8,0.4
	c-1.2,0.9-2.3,1.8-3.5,2.7h-5.2c-1.3-0.7-2.4-1.5-3.3-2.6c-0.1-0.2-0.3-0.3-0.5-0.4c-0.3-0.1-0.6,0.3-0.8,0.6
	c-0.5,0.6-1.5,0.9-1.6,1.6c-0.1,0.2,0,0.5,0.1,0.7H114V169h22.5v-53.6H134.2z"/>
<path fill="#7997CE" d="M294.7,184.5c0.3-0.5,0.3-1.2,0.3-1.8c0.2-12-1.9-23.9-1-35.9c-8,2-16.4,2.5-24.6,1.3
	c0.9,11.9,0.9,23.9-0.2,35.8c7.3,1.3,14.8,1.9,22.2,1.8C292.6,185.6,294,185.5,294.7,184.5z"/>
<path fill="#EAC771" d="M289.3,50.2c2.3-0.6,4.6,1,6.2,2.7c7.4,7.8,9.1,19.3,9.3,30c0.1,6-0.2,12.3-3.1,17.6c-3,5.2-9.4,9-15.1,7
	c-3.6-1.3-6.2-4.5-7.5-8.1c-1.3-3.6-1.5-7.5-1.6-11.3c-0.1-11.1,1.1-22.2,2.9-33.2"/>
<path fill="#FFDE7A" d="M289.5,46.7c2.8,3.7,3.4,8.7,6,12.6c2.9,4.3,8,6.5,12.8,8.4c-2.2,5.1-7.8,8.2-13.3,9
	c-5.5,0.8-11.2-0.1-16.7-0.8c-6.4-0.7-12.9-1-19.4-0.8c-4,0.1-8.1,0.4-12.1-0.3s-7.9-2.4-10.4-5.6c4.1-1.1,7-4.7,9.1-8.4
	c2.1-3.7,3.8-7.7,6.9-10.6s7.9-4.6,11.5-2.5c0.7,0.4,1.4,1,2.2,1.2c2.2,0.5,3.8-1.7,5.4-3.3C276.3,40.8,285.3,41.3,289.5,46.7z"/>
<path fill="#635A4D" d="M92.7,63.9c5.1,12.8,7.4,26.7,6.5,40.4c17,0.5,34-7.1,45.1-19.9c0.5-0.6,1.1-1.3,1.4-2
	c0.4-0.8,0.6-1.8,0.8-2.7c1.6-8,4.5-15.7,7.9-23.1c0.8-1.7,1.7-3.7,1.1-5.5c-0.5-1.6-1.8-2.6-3.1-3.6c-1.4-1.1-2.9-2.2-4.7-2.6
	c-1.7-0.4-3.8,0.2-4.6,1.8c1.1-2.1,0.3-4.8-1.3-6.4c-1.6-1.7-4-2.5-6.3-2.8c-2.9-0.4-5.9-0.2-8.8,0.1c-12.6,1.5-25.7,6.4-33,16.8
	c-1.2,1.7-2.2,3.5-2.1,5.6C91.7,61.4,92.2,62.7,92.7,63.9z"/>
<path fill="#FFF2DC" d="M147.1,97.8c-0.7,4.7-2.1,10.4-6.7,11.8c-1.2,0.4-2.5,0.4-3.8,0.4c-7.6,0.1-15.2,0.2-22.8,0.3
	c-1.4,0-2.8,0-4.1-0.6c-3-1.6-2.9-5.9-4.8-8.6c-1.5-2.1-4-3.2-6.2-4.5s-4.2-3.7-3.8-6.2c0.3-1.9,1.9-3.3,3.7-3.9
	c1.8-0.6,3.7-0.6,5.6-0.6c-2.5-6.7-3.9-13.7-4.2-20.8c0-0.8,0-1.6,0.4-2.2c0.4-0.5,1-0.8,1.6-1.1c6.9-3.2,13.9-6.4,21.3-7.6
	c7.5-1.2,15.6-0.3,21.7,4.2c1.5,1.1,2.8,2.4,3.4,4.1c0.5,1.4,0.3,3,0.2,4.4c-0.6,6.6-1.2,13.3-1.8,19.9c3-1.8,7.3,1.2,7.3,4.7
	C154.2,95,150.7,97.8,147.1,97.8z"/>
<path fill="#FFF2DC" d="M164.1,99.4c-2.7,0.4-6,0.3-7.3-2.1c0.8-4,0.2-8.1-1.5-11.8c-0.7-1.5-1.7-3.2-1-4.8c0.6-1.3,2.2-2,3.6-1.8
	c1.4,0.2,2.7,1,3.9,1.9c-0.7-2.3-1.2-4.7-0.9-7.1c0.3-2.4,1.4-4.8,3.4-6.2s4.8-1.6,6.8-0.2c1.9,1.4,2.5,4.5,0.9,6.4
	c1.9-0.6,4.2-0.8,5.9,0.4c1.7,1.1,2.2,4,0.6,5.2c3.5,1,5.2,5.9,3,8.8s-7.3,2.8-9.3-0.2c-1.5,1.1-2.5,2.8-2.6,4.7
	c-0.1,1.3,0.3,2.6-0.2,3.8C168.5,98.3,166.2,99.1,164.1,99.4z"/>
<path fill="#FFF2DC" d="M90.5,166.6c0.4,0.4,0.9,0.5,1.5,0.7c1,0.2,2.1,0.4,3.1,0.5c1.7,0.1,3.5,0,4.7-1.2c1.2-1.2,1.4-3,1.3-4.7
	c-0.1-1.7-0.5-3.3-0.1-5c-3.5,0.6-7.6,1-10.3-1.4c-0.5,3-0.7,6-0.7,9C90,165.2,90,166.1,90.5,166.6z"/>
<path fill="#FFF2DC" d="M244.2,76.1c-2.3,6-1.6,12.9,0.9,18.9c2.5,6,6.5,11.2,10.9,16c1.5,1.7,3.2,3.4,5.4,4.1
	c2.7,0.8,5.5,0,8.1-1.1c8.4-3.5,16-9.1,21.8-16.1c3.2,2.6,8.7-0.2,9.1-4.3c0.4-4.1-3.2-7.9-7.3-8.6c-0.3-2.4-1.3-4.6-2.7-6.5
	c-0.7-0.9-1.5-1.7-2.6-2.2c-1.1-0.5-2.4-0.6-3.6-0.7c-4.4-0.3-8.8-0.8-12.8-2.6c-4-1.8-7.5-5.1-8.5-9.3c-3.2,5.5-9,9.4-15.3,10.2
	c-0.9,0.1-1.8,0.2-2.5,0.8C244.6,75,244.4,75.6,244.2,76.1z"/>
<path fill="#FFF2DC" d="M274.7,118c0.4-0.7,0.2-1.5,0-2.3c-0.7-3.8,0.3-7.9,2.6-10.8s5.9-4.5,9.4-4.1c0.6,6,1.2,12,1.8,18.1
	c7.6-0.8,15.4,5.1,17.5,13.2c0.3,1,0.4,2,0.1,3c-0.2,0.8-0.8,1.4-1.3,1.9c-1.9,2.1-3.9,4.2-5.8,6.4c1.7,0.8,3.3,1.9,4.2,3.6
	c0.9,1.7,0.7,4.3-0.8,5.4c-0.7,0.5-1.6,0.6-2.4,0.4c-2.7-0.4-4.9-2.8-5.7-5.6c-0.8-2.8-0.4-6,0.7-8.7c1.1-2.6,3-5.4,2.1-8.2
	c-8.3,0.2-16.5,0.5-24.8,0.7c-0.9,0-1.8,0-2.5-0.4c-0.8-0.5-1.3-1.5-2-2.3s-1.8-1.3-2.5-0.6c-2.2,1.7-1.8,5.5-0.5,8.1
	c1.3,2.6,3.2,5.1,3.4,8c0.1,1.6-0.4,3.2-1,4.7c-0.8,1.8-1.9,3.6-3.7,4.1c-2,0.5-4.2-1.2-4.4-3.5c-0.2-2.3,1.6-4.5,3.7-4.4
	c-2.2-4.9-4.5-10.3-3.6-15.7c1-6.3,6.9-11.1,12.6-10.4C272.9,118.7,274.2,118.9,274.7,118z"/>
<path fill="#FFF2DC" d="M119.9,108.4c-0.2,1.1-0.4,2.2-0.6,3.3c-0.3,1.4-0.5,2.9,0.3,4c0.8,1.2,2.4,1.4,3.8,1.4c1.6,0,3.3-0.4,4.8-1
	c0.5-0.2,1-0.4,1.3-0.9c0.2-0.3,0.2-0.7,0.2-1.1c0-1.9,0-3.8-0.1-5.7c-2.9-0.4-5.8-0.5-8.6-0.4"/>
<path fill="#EAC771" d="M301,103.9c-1.3-1.8-1.3-4.2-0.8-6.4c0.5-2.2,1.4-4.2,1.8-6.4c0.5-2.8,0-5.8,1.2-8.5
	c1.3-2.9,4.3-4.7,7.4-5.4c2.5-0.5,5.4-0.3,7.1,1.6c1,1.1,1.4,2.6,2.2,3.8c1.6,2.6,4.9,4,7.9,3.6c0,2.4-1.9,4.5-4.1,5.4
	c-2.2,0.9-4.7,0.8-7.2,0.7c0,2.3,1.8,4.4,4.1,4.7c0,2.5-1.5,4.8-3.5,6.3c-2,1.5-4.5,2.2-6.9,2.7C306.8,106.6,302.9,106.5,301,103.9z
	"/>
<path fill="#FF97CE" d="M294.6,144.8c0.2,1,0.4,2.1-0.3,2.9c-0.4,0.5-1,0.7-1.6,0.8c-7,2-14.4,2.5-21.5,1.5
	c-0.6-0.1-1.3-0.2-1.8-0.7c-0.7-0.6-0.7-1.6-0.7-2.5c-0.1-6.5-0.3-13-0.4-19.4c-0.1-2.5-0.1-5.1,1.1-7.2c0.9-1.6,2.8-3,4.5-2.2
	c-0.8,4.2-1.2,8.6-1.1,12.9c5.4,0.3,10.9,0.2,16.3-0.4c0.4,0,0.8-0.1,1.1-0.4c0.4-0.3,0.5-0.8,0.5-1.3c0.4-3.4,0.5-6.9,0.4-10.4
	c1.1-1,3-0.1,3.6,1.3c0.6,1.4,0.2,2.9-0.1,4.4C293.2,130.9,293.2,138,294.6,144.8z"/>
<path fill="#6987B7" d="M282.5,162.5c0-0.7,0-1.5-0.4-2.1c-0.4-0.6-1.5-0.8-1.9-0.2c-0.2,0.3-0.2,0.6-0.2,0.9c0,4.4,0,8.8,0,13.3
	c0,3.5,0,7.1-0.8,10.6c1.5,0.1,3.1,0.1,4.6,0c0.3,0,0.7-0.1,0.9-0.3c0.2-0.3,0.2-0.7,0.1-1C284.1,176.6,282.4,169.6,282.5,162.5z"/>
<path fill="#FFFFFF" d="M169.2,95.9c0,0.1,0,0.2-0.1,0.3c-0.1,0.3-0.3,0.6-0.4,1c-1.7,0-3.3-0.5-5-0.9c-2.2-0.5-4.6-0.6-6.8-0.3
	c0-0.6,0.1-1.3,0.1-1.9c2-0.3,4.1-0.6,6.2-0.5s4.1,0.8,5.7,2C169.1,95.7,169.2,95.8,169.2,95.9z"/>
<path fill="#8E8C87" d="M96.4,122c-1.4,0.9-2.8,1.9-3.8,3.2c-1,1.3-1.5,3-1.9,4.6c-2.2,8.8-2.7,18.1-1.5,27.1
	c6.8,2.4,13.8,0.3,20.9,1.3c1.5,0.2,3.7-1.8,4.7-2.9c0.5-0.6,0.6-1.4,0.8-2.1c1.9-12.9,1.9-26.2,0-39.1c0-0.3-0.1-0.6-0.3-0.9
	c-0.3-0.2-0.6-0.3-1-0.3c-3.5,0.1-6.7,2-9.8,3.8C101.7,118.6,99,120.3,96.4,122z"/>
<rect x="102.7" y="166.3" fill="#8E8C87" width="37.8" height="17.7"/>
<path fill="#8E8C87" d="M168,106.8c0.2-2,0.7-6.1,1.1-8.1c0.1-0.5,0.3-1.4,0.1-1.8c-0.2-0.5-0.9-0.3-1.4-0.5c-2.9-1-5.9-1.9-8.9-1.5
	c-0.9,0.1-1.9,0.4-2.6,1.1c-0.7,0.8-1.1,4.5-1.1,5.5c-0.1,3.5-0.2,7-0.3,10.5c-6.7,1.5-13.5,1.9-20.3,1.2l0,0
	c-0.2,0-0.3,0.1-0.5,0.1c0.1,15,0.2,30.1,0.2,45.1c3.1-0.6,6.2-0.9,9.3-0.8c0.3-8.3,0.5-21.5,0.8-29.8c0-0.6,0-1.3,0.3-1.8
	c0.1-0.2,0.2-0.3,0.3-0.4c-0.2,0.3-0.3,0.4-0.3,0.4s19.2-1.5,22.6-2.1c0,0,0-0.5,0.2-6.5c0-0.7,0.1-1.4,0.1-2
	C167.6,112.3,167.8,109.1,168,106.8z"/>
<path fill="#8E8C87" d="M125.6,118.5c-0.4-0.5-1-1-1.6-0.9c-0.3,0-0.5,0.2-0.7,0.3c-0.4,0.3-0.7,0.5-1.1,0.8
	c-0.9,0.6-1.8,1.3-2.5,2.2c-0.6,0.9-0.9,2.2-0.4,3.2s2,1.5,2.8,0.7c0,10.1-0.6,22.8-0.6,32.9c1.7,0.6,4.2,1.1,4.9-0.5
	c0.2-0.4,0.5-3.7,0.5-4.2c-0.1-9-0.2-17.9-0.3-26.9c0-0.4,0-0.8,0.1-1.2c0.1-0.3,0.4-0.6,0.6-1C128.4,122.2,127,120.1,125.6,118.5z"
	/>
<path fill="#A3A29F" d="M106.1,155.9c0.7-0.1,36,0,36,0l8.2,5.7l-6.7,4.7h-41v-10.4L106.1,155.9z"/>
<rect x="101.1" y="150.7" fill="#635A4D" width="3.2" height="20.3"/>
<path fill="none" stroke="#E2D4BF" stroke-width="2" stroke-linecap="round" stroke-linejoin="round" stroke-miterlimit="10" d="
	M132.8,79c0.2-1.9,1.3-3.7,2.4-5.3c0.6-0.8,1.2-1.7,2-2.3c0.9-0.6,2-0.9,3.1-0.6c0.8,0.3,1.4,0.9,1.7,1.7s0.4,1.5,0.4,2.3
	c0,1.8-0.2,3.5-0.6,5.2"/>
<path fill="none" stroke="#E2D4BF" stroke-width="2" stroke-linecap="round" stroke-linejoin="round" stroke-miterlimit="10" d="
	M111.2,79.2c0-1.5-0.2-3.1,0.1-4.6c0.3-1.5,1.2-3.1,2.9-3.9c0.5-0.3,1.2-0.5,1.8-0.5c1,0,1.9,0.3,2.6,0.7c1.4,0.8,2.2,2.1,2.6,3.4
	s0.3,2.6,0.2,3.9"/>
<path fill="#6D6B67" d="M130.4,101.2c-0.6,0.3-1.2,0.3-1.8,0.3c-1.5,0.1-3,0.2-4.4-0.5c-1.4-0.7-2.3-2.2-3.1-3.6
	c-1-1.8-1.9-3.7-2-5.7c0-0.2,0-0.4,0.1-0.6c0.1-0.2,0.4-0.2,0.6-0.3c4.5-0.9,9.1-1.1,13.6-0.7c0.3,0,0.6,0.1,0.7,0.3
	c0.1,0.2,0.1,0.4,0.1,0.7c-0.1,2.8-0.8,5.6-2.2,8.1C131.8,100,131.2,100.8,130.4,101.2z"/>
<circle fill="#FFD2DC" cx="141.7" cy="88.7" r="3.7"/>
<circle fill="#FFD2DC" cx="114" cy="88.7" r="3.7"/>
<polygon fill="#6D6B67" points="102.7,150.7 104.3,132.3 104.3,151.7 "/>
<polygon fill="#6D6B67" points="120.3,184 123.4,174.3 123.7,184 "/>
<path fill="#FFFFFF" d="M91.3,157.6c0,0,5.1,2.2,9.8,1.9v-1.4C101.1,158.1,93.9,158.1,91.3,157.6z"/>
<path fill="none" stroke="#E2D4BF" stroke-width="2" stroke-linecap="round" stroke-linejoin="round" stroke-miterlimit="10" d="
	M270.8,85.6c0.5-1.5,1-3,2-4.3s2.5-2.2,4-2.1c1.9,0.1,3.4,1.8,4,3.6c0.5,1.7,0.4,3.6-0.3,5.1"/>
<path fill="none" stroke="#E2D4BF" stroke-width="2" stroke-linecap="round" stroke-linejoin="round" stroke-miterlimit="10" d="
	M251.1,84.9c-0.1-0.1-0.1,0.2,0,0.2c0.1,0,0.2-0.2,0.2-0.3c0.1-0.7,0.2-1.5,0.3-2.2c0.2-1.9,0.6-4,2.2-5.2c1.2-0.9,3-1,4.3-0.2
	c1.1,0.7,1.7,1.8,2.1,3s0.4,2.5,0.4,3.7"/>
<path fill="#6D6B67" d="M258.1,94.4c0.1-0.3,0.2-0.5,0.3-0.7c0.4-0.5,1.2-0.3,1.8-0.2c4.1,1.1,8.3,1.8,12.6,2.3c0.2,0,0.5,0,0.6,0.2
	c0.4,0.3,0.2,0.9-0.1,1.4c-1.2,2.2-3,4.2-5.3,5.2c-2.3,1-5.2,0.9-7.2-0.6c-1.2-0.9-2.1-2.3-2.6-3.8C258,97,257.8,95.7,258.1,94.4z"
	/>
<path fill="#FF97CE" d="M215.6,21.6c2.1-0.4,4.5-0.5,6.4,0.5c1.3,0.6,2.3,1.7,3.2,2.8c4.1,5.6,2.9,13.8-0.9,19.6s-9.7,9.8-15.5,13.7
	c-0.9,0.6-1.9,1.2-2.9,1.2c-0.9,0-1.6-0.5-2.4-1c-4.7-3-9.3-6.2-12.9-10.3c-3.6-4.2-6.2-9.6-5.9-15.1s3.9-11,9.3-12.5
	s11.8,2.2,12.4,7.7C207.9,24.4,211.8,22.3,215.6,21.6z"/>
<path fill="#AEB7A7" d="M-51.7,70.1c0,0-11.3-1.8-6.7,9s9.5,46.5,2.8,57.5s-42.8,8.3-42.8,8.3v39H12.3c0,0,8.7-12.6,0-24.5
	c-8.7-11.9-22-19.9-20.3-35.2s9.7-20,9.7-20s12.3,8.1,19-2.8s0-32.3-23.3-19.6c0,0-28.3-27.6-28,3c0,0-1.9-3.7-6.9-3
	C-37.6,82-36,68.6-51.7,70.1z"/>
<path fill="#9BA393" d="M-5.4,175c4.7,0.9,9.6-0.7,12.6-4.5c3.1-3.8,3.7-8.6,2.9-13.3c0-0.2-0.1-0.4-0.1-0.6
	c-8.5-10.3-19.5-18.2-18-32.2c0.6-5.6,2.1-9.8,3.7-12.8c-3.9-5.3-12.6-7.3-18.1-3.8c-6.3,4.1-6.8,12.2-7.8,19
	c-0.1,1.5-0.2,2.9-0.4,4.4c-0.6,8.8-0.2,17.8,4,25.8C-22.4,164.8-14.4,173.4-5.4,175z"/>
<path fill="#575B53" d="M-42,79.8c2.3-2,1.9-5.7,3.3-8.4c1.2-2.4,3.7-3.9,6-5.2c2.6-1.4,5.5-2.8,8.4-2.3c-0.7-1.2-2.1-2-3.4-2.5
	c-6.9-2.7-15.2-0.9-21,3.7c-1.9,1.5-3.6,3.3-4.3,5.6c-0.7,2.3-0.4,4.9,0.9,6.8s3.6,3.3,5.9,3.5C-44.7,81.2-43.1,80.8-42,79.8z"/>
<path fill="#575B53" d="M-1,67.7c-3.8-2.1-8.5-2.5-12.6-1.2c-0.6,0.3-1.1,0.6-1.7,0.9c-2.4,1.6-4.2,3.7-5.7,6.2
	c-0.6,2.7-0.4,5.6,1,8c1.5,2.5,4.5,4.1,7.3,3.4c2.6-0.6,4.4-3,6.6-4.5c4.1-2.7,10-2.3,13.6,1C7.4,75.9,4,70.4-1,67.7z"/>
<path fill="#575B53" d="M17.7,83.9c-1.9,0.3-3.9,0.8-5.4,2.1c-2.7,2.3-2.9,6.4-1.7,9.7c0.7,1.8,1.7,3.6,3.4,4.6
	c2.1,1.2,4.7,1.1,7.1,1.4c2.4,0.3,5.1,1.5,5.6,3.8c2.8-5.7,2.5-12.8-0.8-18.3c-0.7-1.1-1.5-2.1-2.5-2.8
	C21.7,83.5,19.6,83.6,17.7,83.9z"/>
<path fill="#9BA393" d="M-31.3,84c-1.2-1.1-2-1.6-3.6-2c-0.4-0.1-2.3-0.1-2.7,0c-0.6,1.3-1.2,2.5-2.9,2.5c2.9,0.6,5.5,2.2,7.4,4.4
	c1.9,2.2,3.1,5.1,3.2,8c0.6-1.8,1.3-3.6,1.5-5.5s-0.1-3.9-1.1-5.5C-30,85.2-30.6,84.5-31.3,84z"/>
<path fill="#9BA393" d="M-4.7,101c1.9-1.7,2.2-3.9,1.4-6.3c1.8-0.9,4.4-3.3,5.1-5.3s0.9-4.3,0-6.4c-0.3-0.6-1.9-1.8-2.5-2.1
	c-0.5,0.2-1.2,0.7-2.1,1.1c0.6,1.3,1.3,2.2,1.6,3.6c0.3,1.4,0.2,2.8-0.5,4c-0.6,0.9-1.4,1.6-2.4,2.2c-1.2,0.7-2.7,1.3-4.1,1
	C-5.7,94.7-4.3,97.9-4.7,101z"/>
<path fill="#A1A89B" d="M-144.7,70.1c0,0-7-2.8-6.7,9c0.3,13.3,3.1,47.8-3.7,58.8s-6.3,7.1-6.3,7.1v39h80.7c0,0,8.7-12.6,0-24.5
	c-8.7-11.9-22-19.9-20.3-35.2s9.7-20,9.7-20s12.3,8.1,19-2.8c6.7-10.9,0-32.3-23.3-19.6c0,0-28.3-27.6-28,3c0,0-1.9-3.7-6.9-3
	C-130.6,82-129,68.6-144.7,70.1z"/>
<path fill="#8C9385" d="M-98.4,175c4.7,0.9,9.6-0.7,12.6-4.5c3.1-3.8,3.7-8.6,2.9-13.3c0-0.2-0.1-0.4-0.1-0.6
	c-8.5-10.3-19.5-18.2-18-32.2c0.6-5.6,2.1-9.8,3.7-12.8c-3.9-5.3-12.6-7.3-18.1-3.8c-6.3,4.1-6.8,12.2-7.8,19
	c-0.1,1.5-0.2,2.9-0.4,4.4c-0.6,8.8-0.2,17.8,4,25.8C-115.4,164.8-107.4,173.4-98.4,175z"/>
<path fill="#575B53" d="M-135,79.8c2.3-2,1.9-5.7,3.3-8.4c1.2-2.4,3.7-3.9,6-5.2c2.6-1.4,5.5-2.8,8.4-2.3c-0.7-1.2-2.1-2-3.4-2.5
	c-6.9-2.7-15.2-0.9-21,3.7c-1.9,1.5-3.6,3.3-4.3,5.6c-0.7,2.3-0.4,4.9,0.9,6.8c1.3,2,3.6,3.3,5.9,3.5
	C-137.7,81.2-136.1,80.8-135,79.8z"/>
<path fill="#575B53" d="M-94,67.7c-3.8-2.1-8.5-2.5-12.6-1.2c-0.6,0.3-1.1,0.6-1.7,0.9c-2.4,1.6-4.2,3.7-5.7,6.2
	c-0.6,2.7-0.4,5.6,1,8c1.5,2.5,4.5,4.1,7.3,3.4c2.6-0.6,4.4-3,6.6-4.5c4.1-2.7,10-2.3,13.6,1C-85.6,75.9-89,70.4-94,67.7z"/>
<path fill="#575B53" d="M-75.3,83.9c-1.9,0.3-3.9,0.8-5.4,2.1c-2.7,2.3-2.9,6.4-1.7,9.7c0.7,1.8,1.7,3.6,3.4,4.6
	c2.1,1.2,4.7,1.1,7.1,1.4c2.4,0.3,5.1,1.5,5.6,3.8c2.8-5.7,2.5-12.8-0.8-18.3c-0.7-1.1-1.5-2.1-2.5-2.8
	C-71.3,83.5-73.4,83.6-75.3,83.9z"/>
<path fill="#8C9385" d="M-124.3,84c-1.2-1.1-2-1.6-3.6-2c-0.4-0.1-2.3-0.1-2.7,0c-0.6,1.3-1.2,2.5-2.9,2.5c2.9,0.6,5.5,2.2,7.4,4.4
	c1.9,2.2,3.1,5.1,3.2,8c0.6-1.8,1.3-3.6,1.5-5.5c0.2-1.9-0.1-3.9-1.1-5.5C-123,85.2-123.6,84.5-124.3,84z"/>
<path fill="#8C9385" d="M-97.7,101c1.9-1.7,2.2-3.9,1.4-6.3c1.8-0.9,4.4-3.3,5.1-5.3c0.7-1.9,0.9-4.3,0-6.4
	c-0.3-0.6-1.9-1.8-2.5-2.1c-0.5,0.2-1.2,0.7-2.1,1.1c0.6,1.3,1.3,2.2,1.6,3.6c0.3,1.4,0.2,2.8-0.5,4c-0.6,0.9-1.4,1.6-2.4,2.2
	c-1.2,0.7-2.7,1.3-4.1,1C-98.7,94.7-97.3,97.9-97.7,101z"/>
<polygon fill="#FFE9EB" points="-150,179.2 350,167.8 350,185.7 -151,185.7 "/>
</svg>
