<svg xmlns="http://www.w3.org/2000/svg" viewBox="0 0 730 530" enable-background="new 0 0 730 530"><linearGradient id="a" gradientUnits="userSpaceOnUse" x1="364" y1="-1" x2="364" y2="529"><stop offset="0" stop-color="#fff"/><stop offset=".209" stop-color="#FFFBFF"/><stop offset="1" stop-color="#FFE1FF"/></linearGradient><path fill="url(#a)" d="M726 525.683c0 1.647-1.012 3.317-2.65 3.317H4.97C3.33 529 2 527.33 2 525.683V1.983C2 .337 3.33-1 4.97-1h718.38C724.99-1 726 .336 726 1.984v523.7z"/><path fill="#96C478" d="M84.16 257.387s1.834 1.425.997 3.832c0 0-2.507-1.178-1.354-4.06l.358.227z"/><path fill="#B8D4A7" d="M85.157 261.22s1.02-1.757-1.163-4.1c0 0-.256 2.692 1.163 4.1z"/><path fill="#96C478" d="M136.23 186.063s3.32-2.8 7.457-.375c0 0-3.115 4.118-8.014.94l.556-.565z"/><path fill="#B8D4A7" d="M143.687 185.69s-2.864-2.513-8.014.576c0 0 4.88 1.474 8.014-.577z"/><path fill="#96C478" d="M68.332 227.242s-4.132.037-4.697-4.127c0 0 3.762 3.23 5.454 3.604l-.758.522z"/><path fill="#B8D4A7" d="M63.635 223.115s3.01 3.045 5.454 3.604c0 0 1.065-4.104-5.455-3.605z"/><linearGradient id="b" gradientUnits="userSpaceOnUse" x1="46.835" y1="241.7" x2="115.301" y2="241.7"><stop offset="0" stop-color="#81B261"/><stop offset="1" stop-color="#B8D4A7"/></linearGradient><path fill="url(#b)" d="M47.963 238.47s19.935 14.05 32.22 11.687c12.288-2.363 11.034-5.1 12.037-12.187s5.64-10.07 12.287-11.438 10.794-1.774 10.794.695c0 1.74-1.618 1.973-4.148 2.414-1.38.24-9.904.87-12.035 4.85-3 5.598-.878 8.702-1.63 11.81-.68 2.806-2.257 9.202-15.045 11.316-12.79 2.113-35.606-6.22-35.606-6.22l1.127-12.927z"/><linearGradient id="c" gradientUnits="userSpaceOnUse" x1="47.454" y1="238.936" x2="115.123" y2="238.936"><stop offset="0" stop-color="#96C478"/><stop offset="1" stop-color="#CBE2BC"/></linearGradient><path fill="url(#c)" d="M47.963 238.47s22.407 14.25 32.22 11.064c9.815-3.185 9.697-2.6 12.246-12.737 2.548-10.138 8.806-9.67 12.416-10.332 3.61-.663 9.608-2.432 10.277 0 0 0-7.982.567-12.496 2.432-4.513 1.865-7.607 3.876-8.066 8.713-.458 4.837.92 10.433-8.357 13.417s-18.946 2.464-38.75-6.726l.51-5.83z"/><linearGradient id="d" gradientUnits="userSpaceOnUse" x1="125.936" y1="464.944" x2="125.936" y2="321.721"><stop offset="0" stop-color="#C5AE89"/><stop offset=".742" stop-color="#AC8D63"/><stop offset="1" stop-color="#AD8E65"/></linearGradient><path fill="url(#d)" d="M181.872 321.774s-17.305 48.616-7.275 87.656l-51.147 55.514L70 408.062v-34.565s70.896-53.712 111.872-51.723z"/><path fill="#93754F" d="M97.18 380.584s3.797 30.15 8.813 45.07L70 408.684v-30.71l27.18 2.61zM142.636 444.267s-12.403-50.347-14.295-65.532c0 0 1.743 53.582 5.568 75.025l8.728-9.493z"/><linearGradient id="e" gradientUnits="userSpaceOnUse" x1="40.19" y1="214.859" x2="151.607" y2="214.859"><stop offset="0" stop-color="#81B261"/><stop offset="1" stop-color="#B8D4A7"/></linearGradient><path fill="url(#e)" d="M40.19 273.78s31.092-11.44 42.125-40.533c11.033-29.095 31.846-34.07 38.867-35.81 7.02-1.74 21.564-13.18 27.582-27.602s1.253-17.406-3.01-9.946c-4.262 7.46-10.28 25.86-31.594 30.087-21.314 4.228-35.356 19.895-43.63 34.814-8.276 14.92-13.792 21.883-24.574 25.613L40.19 273.78z"/><linearGradient id="f" gradientUnits="userSpaceOnUse" x1="43.826" y1="209.492" x2="150.663" y2="209.492"><stop offset="0" stop-color="#96C478"/><stop offset="1" stop-color="#CBE2BC"/></linearGradient><path fill="url(#f)" d="M43.826 263.087s19.182-10.07 31.344-33.198c12.162-23.127 27.457-31.83 38.74-34.565 11.285-2.736 26.266-15.67 31.972-26.235 5.706-10.565 5.222-13.597 4.013-13.153-1.21.444-2.257.223-9.78 13.402-7.522 13.178-15.422 17.53-27.332 20.265-11.91 2.736-28.836 12.062-39.117 28.474-10.28 16.41-10.118 23.428-27.438 32.23-1.67.576-2.088 2.342-2.088 2.342l-.314 10.435z"/><linearGradient id="g" gradientUnits="userSpaceOnUse" x1="141.701" y1="436.089" x2="141.701" y2="507.039" gradientTransform="matrix(1.374 .334 -.236 .972 59.486 -33.785)"><stop offset="0" stop-color="#FFE1F6"/><stop offset=".73" stop-color="#FFC5ED"/></linearGradient><path fill="url(#g)" d="M141.74 435.175s-29.938 18.05-19.98 37.11c9.957 19.06 15.03 26.69 15.03 26.69s.582 9.613 7.538 9.515c6.957-.1 17.074-10.177 17.074-10.177s8.258-59.414-19.662-63.138z"/><linearGradient id="h" gradientUnits="userSpaceOnUse" x1="158.047" y1="414.641" x2="158.047" y2="480.104"><stop offset="0" stop-color="#FFE1F6"/><stop offset=".73" stop-color="#FFC5ED"/></linearGradient><path fill="url(#h)" d="M155.285 414.73s-16.388-2.95-18.807 25.363 14.127 40.012 14.127 40.012l9.694-8.68 19.558-44.513-24.573-12.183z"/><linearGradient id="i" gradientUnits="userSpaceOnUse" x1="174.498" y1="381.94" x2="174.498" y2="445.169"><stop offset="0" stop-color="#FFE1F6"/><stop offset=".73" stop-color="#FFC5ED"/></linearGradient><path fill="url(#i)" d="M174.843 382.696s-36.36 8.954-20.562 46.005c15.798 37.053 44.384 0 44.384 0s1.756-53.713-23.82-46.004z"/><linearGradient id="j" gradientUnits="userSpaceOnUse" x1="218.869" y1="443.557" x2="218.869" y2="528.717"><stop offset="0" stop-color="#FFE1F6"/><stop offset=".73" stop-color="#FFC5ED"/></linearGradient><path fill="url(#j)" d="M174.342 444.118s-11.033-4.972-18.054 14.673c-7.02 19.645-4.867 27.33-1.84 33.255 3.028 5.925 9.803 38.113 86.008 36.622 76.205-1.492 40.205-26.63 12.37-39.178s-78.484-45.372-78.484-45.372z"/><linearGradient id="k" gradientUnits="userSpaceOnUse" x1="177.959" y1="362.603" x2="177.959" y2="396.671"><stop offset=".104" stop-color="#FFE1F6"/><stop offset=".356" stop-color="#FFC5ED"/></linearGradient><path fill="url(#k)" d="M186.127 362.603s-15.994 3.98-17.024 15.418c-1.03 11.44 5.49 18.65 5.49 18.65s16.048-19.894 11.534-34.067z"/><linearGradient id="l" gradientUnits="userSpaceOnUse" x1="204.492" y1="326.879" x2="204.492" y2="370.53"><stop offset="0" stop-color="#FFE1F6"/><stop offset=".73" stop-color="#FFC5ED"/></linearGradient><path fill="url(#l)" d="M227.715 327.53s-41.123-7.213-46.138 26.357c-5.015 33.57 31.344 5.97 31.344 5.97s16.8-20.39 14.795-32.327z"/><linearGradient id="m" gradientUnits="userSpaceOnUse" x1="442.647" y1="255.798" x2="442.647" y2="269.82"><stop offset="0" stop-color="#FFE1F6"/><stop offset="1" stop-color="#FFC5ED"/></linearGradient><path fill="url(#m)" d="M415.816 259.11s39.115-12.186 53.66 10.194c0 0-51.904 3.98-53.66-10.195z"/><linearGradient id="n" gradientUnits="userSpaceOnUse" x1="391.243" y1="252.679" x2="391.243" y2="274.278"><stop offset="0" stop-color="#FFE1F6"/><stop offset="1" stop-color="#FFC5ED"/></linearGradient><path fill="url(#n)" d="M355.134 261.844s19.558-12.185 42.377-8.455c22.82 3.73 29.842 11.687 29.842 11.687l-36.108 9.2-36.11-12.433z"/><linearGradient id="o" gradientUnits="userSpaceOnUse" x1="345.103" y1="261.179" x2="345.103" y2="284.225"><stop offset="0" stop-color="#FFE1F6"/><stop offset="1" stop-color="#FFC5ED"/></linearGradient><path fill="url(#o)" d="M378.955 268.062s-46.64-18.402-67.703 4.973l26.58 11.19 41.123-16.163z"/><linearGradient id="p" gradientUnits="userSpaceOnUse" x1="340.339" y1="266.634" x2="340.339" y2="310.086"><stop offset="0" stop-color="#FFE1F6"/><stop offset="1" stop-color="#FFC5ED"/></linearGradient><path fill="url(#p)" d="M396.258 276.268s-15.547-24.123-57.924 3.978c0 0-42.628-24.867-53.912 12.683l24.574 17.157 40.12-6.714s40.622-15.17 47.142-27.105z"/><linearGradient id="q" gradientUnits="userSpaceOnUse" x1="257.976" y1="290.117" x2="257.976" y2="356.837"><stop offset="0" stop-color="#FFE1F6"/><stop offset=".417" stop-color="#FFD1F1"/><stop offset=".841" stop-color="#FFC5ED"/></linearGradient><path fill="url(#q)" d="M311 307.35s-7.02-22.877-38.865-15.914-73.22 24.123-66.45 56.45l15.045 8.95 86.76-28.1L311 307.35z"/><linearGradient id="r" gradientUnits="userSpaceOnUse" x1="440.891" y1="261.426" x2="440.891" y2="280.327"><stop offset="0" stop-color="#FFE1F6"/><stop offset="1" stop-color="#FFC5ED"/></linearGradient><path fill="url(#r)" d="M473.237 268.31s-39.87-19.895-64.694 7.957c0 0 49.898 13.18 64.694-7.957z"/><path fill="#F7BCE8" d="M266.618 342.66c.02-6.196-1.538-9.073-3.135-10.318-3.488-2.717-11.92-5.453-20.06-3.73 6.46-3.73 17.066-.61 22.19 1.617 1.108-3.673 1.882-10.35 10.027-12.187-5.78 2.968-7.68 13.685-7.22 17.203.436 3.352 1.72-.767 3.212 1.922l-5.014 5.493z"/><linearGradient id="s" gradientUnits="userSpaceOnUse" x1="492.885" y1="263.782" x2="492.885" y2="294.951"><stop offset="0" stop-color="#FFE1F6"/><stop offset="1" stop-color="#FFC5ED"/></linearGradient><path fill="url(#s)" d="M530.91 289.445s-6.02-24.617-42.628-25.612c-36.61-.996-33.35 12.806-33.35 12.806s73.472 30.46 75.98 12.805z"/><linearGradient id="t" gradientUnits="userSpaceOnUse" x1="474.742" y1="274.703" x2="474.742" y2="301.019"><stop offset="0" stop-color="#FFE1F6"/><stop offset=".73" stop-color="#FFC5ED"/></linearGradient><path fill="url(#t)" d="M510.6 290.44s-32.097-28.1-71.715-9.2l18.306 15.914s47.643 12.186 53.41-6.714z"/><linearGradient id="u" gradientUnits="userSpaceOnUse" x1="420.453" y1="267.181" x2="420.453" y2="305.526"><stop offset="0" stop-color="#FFE1F6"/><stop offset="1" stop-color="#FFC5ED"/></linearGradient><path fill="url(#u)" d="M463.458 288.948s-25.577-26.11-56.168-21.138c-30.59 4.975-29.84 21.138-29.84 21.138s46.39 37.3 86.008 0z"/><linearGradient id="v" gradientUnits="userSpaceOnUse" x1="375.167" y1="281.82" x2="375.167" y2="327.717"><stop offset="0" stop-color="#FFE1F6"/><stop offset="1" stop-color="#FFC5ED"/></linearGradient><path fill="url(#v)" d="M401.27 300.885s-12.034-24.618-34.1-17.904-17.805 28.6-17.805 28.6l8.777 14.92c0-.002 44.383 9.696 43.13-25.615z"/><linearGradient id="w" gradientUnits="userSpaceOnUse" x1="335.057" y1="299.848" x2="335.057" y2="374.49"><stop offset="0" stop-color="#FFE1F6"/><stop offset=".515" stop-color="#FFC5ED"/></linearGradient><path fill="url(#w)" d="M375.946 329.482s-13.04-46.005-62.438-23.376c-49.398 22.63-31.344 26.855-18.807 41.527 12.54 14.673 14.795 26.856 14.795 26.856l79.74-18.402-13.29-26.606z"/><linearGradient id="x" gradientUnits="userSpaceOnUse" x1="211.527" y1="340.962" x2="211.527" y2="413.283"><stop offset="0" stop-color="#FFE1F6"/><stop offset=".73" stop-color="#FFC5ED"/></linearGradient><path fill="url(#x)" d="M248.815 351.116s-13.54-17.41-30.592-3.482c0 0-10.28-14.352-28.335-.96-18.054 13.395-9.528 24.336-9.528 24.336s-22.82 26.357 10.782 42.273l22.317-9.946s45.385-23.872 35.355-51.475"/><linearGradient id="y" gradientUnits="userSpaceOnUse" x1="274.726" y1="332.884" x2="274.726" y2="401.845"><stop offset="0" stop-color="#FFE1F6"/><stop offset=".73" stop-color="#FFC5ED"/></linearGradient><path fill="url(#y)" d="M308.996 376.978s-2.508-36.556-14.042-41.28c-11.535-4.723-22.818-3.73-37.613 4.726-14.794 8.455-23.068 18.65-11.283 36.555 11.786 17.903 28.67 24.866 28.67 24.866l34.27-24.868z"/><linearGradient id="z" gradientUnits="userSpaceOnUse" x1="219.771" y1="401.682" x2="219.771" y2="496.003"><stop offset="0" stop-color="#FFE1F6"/><stop offset=".73" stop-color="#FFC5ED"/></linearGradient><path fill="url(#z)" d="M258.595 471.97s21.564 18.65 0 23.126c-21.564 4.477-70.963-7.71-83.75-34.316-12.79-26.606 13.79-31.58 13.79-31.58-3.76-31.333 27.834-27.355 27.834-27.355l42.125 70.125z"/><linearGradient id="A" gradientUnits="userSpaceOnUse" x1="249.884" y1="358.397" x2="249.884" y2="443.128"><stop offset="0" stop-color="#FFE1F6"/><stop offset=".73" stop-color="#FFC5ED"/></linearGradient><path fill="url(#A)" d="M232.266 443.125c.752.496-44.133-60.926-10.03-78.83 34.103-17.903 61.685 8.703 67.703 29.84s-57.674 48.99-57.674 48.99z"/><linearGradient id="B" gradientUnits="userSpaceOnUse" x1="214.022" y1="400.891" x2="214.022" y2="495.096"><stop offset="0" stop-color="#FFE1F6"/><stop offset=".73" stop-color="#FFC5ED"/></linearGradient><path fill="url(#B)" d="M216.97 401.1s-36.11-4.477-29.34 28.1c0 0-27.33 3.232-12.536 33.818 14.794 30.587 82.247 32.078 82.247 32.078s-16.298-94.244-40.37-93.997z"/><path fill="#F7BCE8" d="M345.35 373.497c-1.09-5.975-2.245-12-3.687-18.084-.798-3.365-1.183-6.486-3.642-9.095-2.285-2.428-4.526-5.102-7.01-7.22-2.954-2.52-6.89-4.33-10.626-5.378-3.765-1.057-7.37-.373-11.228-.48 5.977-2.037 13.52-1.658 19.537.152 4.023 1.214 11.74 5.15 11.882 9.898.422-1.797-.06-3.7.204-5.533.267-1.84.985-3.803 1.482-5.586.852-3.066 3.528-8.657 6.756-9.88-3.802 5.18-4.223 13.015-3.886 19.348.247 4.624 1.02 9.192 1.472 13.78.23 2.363.687 4.752 1.182 7.093.56 2.656 1.996 5.905 1.688 8.617"/><linearGradient id="C" gradientUnits="userSpaceOnUse" x1="506.757" y1="287.704" x2="506.757" y2="327.741"><stop offset="0" stop-color="#FFE1F6"/><stop offset=".73" stop-color="#FFC5ED"/></linearGradient><path fill="url(#C)" d="M585.826 320.03s-13.04-32.572-54.414-32.325c-41.374.248-47.644 8.207-49.9 9.698 0 0-20.56-15.17-44.132.994-23.57 16.164 3.26 19.396 3.26 19.396l63.19 9.947 81.996-7.71z"/><path fill="#FFC5ED" d="M266.368 403.834c-4.1-6.9-9.783-12.834-10.587-21.117-1.55 4.625.716 12.443 2.33 16.797-5.673-5.05-17.44-5.854-24.37-3.127 6.184-.188 14.014.583 19.588 4.463 4.148 2.887 7.44 9.805 13.29 6.964l-.25-3.98z"/><linearGradient id="D" gradientUnits="userSpaceOnUse" x1="379.207" y1="291.919" x2="379.207" y2="453.567"><stop offset="0" stop-color="#FFE1F6"/><stop offset=".73" stop-color="#FFC5ED"/></linearGradient><path fill="url(#D)" d="M443.9 311.825s5.266-19.396-18.305-19.893c-23.57-.497-58.928 12.186-54.414 51.475 0 0-50.65-5.72-57.17 34.565l45.888 46.004 57.17 29.59 23.07-7.707 3.76-134.035z"/><linearGradient id="E" gradientUnits="userSpaceOnUse" x1="283.168" y1="372.078" x2="283.168" y2="500.372"><stop offset="0" stop-color="#FFE1F6"/><stop offset=".564" stop-color="#FFC5ED"/></linearGradient><path fill="url(#E)" d="M351.623 403.548s-19.81-45.487-61.685-27.087c-26.83 11.44-25.577 27.985-25.577 27.985s-33.85 2.678-31.594 38.984c0 0-16.162 3.687-17.803 17.875-3.437 29.693 29.325 37.692 46.013 38.824 13.75.932 34.98-1.13 34.98-1.13h28.21l27.457-95.452z"/><path fill="#F7BCE8" d="M352.375 416.516s-3.01-35.31 27.082-36.802c0 0-30.34-4.975-35.607 30.834l8.525 5.968z"/><linearGradient id="F" gradientUnits="userSpaceOnUse" x1="529.834" y1="302.211" x2="529.834" y2="474.954"><stop offset=".098" stop-color="#FFE1F6"/><stop offset=".607" stop-color="#FFC6ED"/></linearGradient><path fill="url(#F)" d="M413.308 397.37c31.972 18.65 23.696 52.966 23.696 52.966l28.962 24.618s91.022-10.07 110.958-7.833c19.935 2.238 28.584-15.946 28.584-15.946 9.777-43.177 51.305-45.847 51.305-45.847 9.688-14.91-1.474-23.303-1.474-23.303-7.343-18.7-22.373-23.075-22.373-23.075-7.146-29.468-33.1-26.857-33.1-26.857s.752-5.968-1.88-10.443c-8.65-10.817-22.944-3.357-22.944-3.357-32.724-36.182-75.602 0-75.602 0-50.024-36.182-92.902 16.04-92.902 16.04s-21.063 30.46 6.77 63.036z"/><linearGradient id="G" gradientUnits="userSpaceOnUse" x1="400.123" y1="387.724" x2="400.123" y2="507.405"><stop offset="0" stop-color="#FFE1F6"/><stop offset=".552" stop-color="#FFC6ED"/></linearGradient><path fill="url(#G)" d="M311.252 478.117s-18.305-37.902 13.29-54.477c0 0-6.018-28.924 27.08-35.058 33.1-6.134 42.504 22.587 42.504 22.587s25.2-14.175 42.502 10.07c8.274 11.563 1.125 23.928 1.125 23.928s25.615-11.105 50.798 27.43c25.185 38.537-41.015 31.45-41.015 31.45l-133.525 3.356-2.758-29.287z"/><path fill="#FFC5ED" d="M370 343.463s14.237 4.45 18.722 14.118c0 0-7.722-14.89-18.722-17.404v3.287zM609.396 432.184s5.516 19.89 6.018 21.384c.503 1.495-9.026 56.866-9.026 56.866L575.795 529h-335.34s-80.902-.033-79.403-.166c5.516-.496 20.96-28.477 20.96-28.477l427.384-68.173z"/><path fill="#96C478" d="M504.827 396.833s-1.9-6.162-9.063-6.417c0 0 .574 7.655 9.302 7.57l-.24-1.153z"/><path fill="#B8D4A7" d="M495.764 390.416s5.63-.873 9.596 7.113c0 0-7.325-2.038-9.596-7.114z"/><path fill="#96C478" d="M556.723 502.676s5.16 3.34 9.243-1.44c0 0-7.343 1.06-9.77.18l.527 1.26z"/><path fill="#B8D4A7" d="M565.966 501.234s-6.246 1.426-9.77.18c0 0 1.99-6.002 9.77-.18z"/><linearGradient id="H" gradientUnits="userSpaceOnUse" x1="242.828" y1="441.563" x2="344.49" y2="441.563" gradientTransform="matrix(-.842 -.539 -.539 .842 1014.504 296.853)"><stop offset="0" stop-color="#81B261"/><stop offset="1" stop-color="#B8D4A7"/></linearGradient><path fill="url(#H)" d="M500.997 471.556c1.538 1.4 11.735 8.984 11.186 15.684-.77 9.422-5.95 11.628-7.525 16.133-1.398 3.998-4.482 13.065 9.077 25.59 7.89.058 15.782.177 23.672.33-5.565-1.64-10.63-3.968-14.145-7.285-13.516-12.762-9.722-15.2-5.24-24.9 4.487-9.7 1.08-17.146-6.156-24.16-7.24-7.013-12.118-10.833-14.12-7.73-1.412 2.185.432 3.764 3.25 6.338z"/><linearGradient id="I" gradientUnits="userSpaceOnUse" x1="243.733" y1="437.754" x2="344.221" y2="437.754" gradientTransform="matrix(-.842 -.539 -.539 .842 1014.504 296.853)"><stop offset="0" stop-color="#96C478"/><stop offset="1" stop-color="#CBE2BC"/></linearGradient><path fill="url(#I)" d="M512.31 477.413c4.16 5.942 6.414 10.934 3.068 17.376-3.345 6.438-9.61 12.367-.377 23.51 3.436 4.146 7.337 7.724 12.54 10.804 4.208.068 8.415.16 12.624.243-7.02-1.744-13.26-4.317-16.396-8.123-9.742-11.823-10.068-10.99-5.055-25.76 5.018-14.764-3.225-19.164-7.218-22.872-4-3.712-10.1-10.715-12.907-8.192 0 0 9.566 7.073 13.72 13.013z"/><linearGradient id="J" gradientUnits="userSpaceOnUse" x1="232.937" y1="384.621" x2="398.113" y2="384.621" gradientTransform="matrix(-.842 -.539 -.539 .842 1014.504 296.853)"><stop offset="0" stop-color="#81B261"/><stop offset="1" stop-color="#B8D4A7"/></linearGradient><path fill="url(#J)" d="M534.293 499.068c-2.257 10.52-2.37 20.7-1.238 30.142 7.883.146 15.768.303 23.65.456-1.704-8.41-1.658-18.396-.758-31.82 1.703-25.334-3.238-56.204-26.577-78.505-23.342-22.302-15.988-50.207-15.292-62.974.688-12.77-7.71-12.817-11.843 10.092-4.13 22.91 4.86 48.872 12.268 56.655 7.407 7.782 29.516 30.62 19.79 75.955z"/><linearGradient id="K" gradientUnits="userSpaceOnUse" x1="238.327" y1="381.006" x2="396.697" y2="381.006" gradientTransform="matrix(-.842 -.539 -.539 .842 1014.504 296.853)"><stop offset="0" stop-color="#96C478"/><stop offset="1" stop-color="#CBE2BC"/></linearGradient><path fill="url(#K)" d="M545.99 500.55c-.946 10.563-.445 20.315.777 28.926 3.52.07 7.037.135 10.557.202-3.02-12.615-.142-22.91.13-42.762.39-28.81-13.31-54.016-26.05-66.945-12.74-12.93-19.137-24.69-17.902-47.24 1.234-22.55-.262-23.106-1.42-24.63-1.157-1.52-4.225 1.902-5.62 19.72s6.935 46.006 18.888 58.438c11.956 12.43 24.11 35.55 20.64 74.292z"/><path fill="#fff" d="M719.024 28.592s-33.903 16.785-34.778 75.472c-1.38 36.802 37.248 55.142 37.248 55.142s-35.587 17.376-40.86 60.147c-5.272 42.77 9.274 65.634 9.274 65.634s-10.53 6.457-13.038 21.377c-2.508 14.92 7.022 32.82 7.022 32.82s-23.068 11.936-27.08 32.325c-4.014 20.39 0 33.817 0 33.817s-19.058.994-34.604 14.422c-15.548 13.428-18.557 41.28-18.557 41.28s-11.534 28.513-29.088 28.513c0 0-9.527 39.457-76.73 39.457H726V28.84l-6.976-.248z"/><linearGradient id="L" gradientUnits="userSpaceOnUse" x1="158.449" y1="299.749" x2="98.093" y2="404.289"><stop offset="0" stop-color="#B1C79D"/><stop offset="1" stop-color="#659547"/></linearGradient><path fill="url(#L)" d="M172.712 313.693c-4.32 1.368-9.276 1.96-13.588 3.465-4.71 1.643-9.593 3.526-14.12 5.603-5.873 2.696-11.5 6.22-17.008 9.578-3.55 2.164-7.216 4.024-10.577 6.495-2.903 2.135-5.765 4.322-8.654 6.472-5.16 3.84-9.294 8.832-14.16 13.022-4.388 3.778-7.832 8.28-12.532 11.688-2.895 2.1-5.395 4.11-8.768 5.326-.86.312-1.678.355-2.502.542-1.434 2.94-.795 5.78.455 8.653.684 1.575 2.538 6.997 4.89 6.725.416-1.528.866-3.124 1.75-4.457.874-1.314 2.07-1.954 3.138-2.975.122 1.196-.68 2.304-.507 3.633.107.817.295 2.624 1.263 2.68.7-1.895 1.508-3.354 3.15-4.61 1.208-.92 3.622-2.47 5.253-2.19.16 1.32-.252 2.606.044 3.957.212.965 1.172 4.162 2.116 4.343.92-2.404 2.013-7.954 5.635-7.7 2.605.185 5.73 3.163 7.12 5.092.096-1.23.134-2.612.03-3.847-.092-1.128-.282-2.38-.618-3.466-.327-1.057-1.146-2.372-1-3.498 3.527-.242 5.93 4.072 8.49 5.713.19-.84.692-1.648.93-2.51.35-1.257.218-2.64.218-3.943 0-1.583-.07-3.035-.345-4.598-.25-1.416-1.324-3.092-1.168-4.508 2.716.19 5.884.41 7.904 2.503 1.65-1.074 1.507-4.9 1.607-6.58.095-1.612.08-3.377-.095-4.98-.116-1.074-.775-2.116-.61-3.21 2.836-.143 7.075.198 9.114 2.432.14-2.733-.082-5.523 1.803-7.78.687.303.872 1.32 1.708 1.458.062-1.177-.368-3 .746-3.698.35 1.245 1.682 3.145 3.14 3.076.12-2.256.16-4.23 1.4-6.228.672-1.082 2.415-3.584 3.663-3.73 2.523-.295 6.498 3.313 6.865 5.554.566-1.003 1.102-2.04 1.53-3.142 3.5-.05 7.48 3.433 9.758 5.84 1.232-.895 1.804-2.878 2.382-4.25.867-2.058.408-4.646 1.344-6.538 2.554 1.453 3.392 5.206 5.683 6.936 1.19-1.742 1.82-4.07 2.344-6.145.394-1.56.486-3.04.406-4.664-.05-1.02-.39-2.27.032-3.245 1.55.538 3.025 1.578 4.075 2.875 1.274 1.575 1.5 2.915 2.13 4.656 2.378-4.673 2.028-11.29-.08-15.98 2.895-.143 6.232 1.363 7.542 4.076.995-1.302.706-4.094.185-5.616-.39-1.14-1.833-7.753-2.602-7.68-.003-.002-6.098-2.146-10.91-.623z"/><linearGradient id="M" gradientUnits="userSpaceOnUse" x1="124.647" y1="275.804" x2="66.036" y2="377.321"><stop offset="0" stop-color="#B8D4A7"/><stop offset="1" stop-color="#81B261"/></linearGradient><path fill="url(#M)" d="M38.183 286.463s52.157-19.894 102.81 0c17.55 6.465 15.546 11.936 26.077 14.92 10.532 2.984 23.57 13.924 12.537 18.898-11.032 4.975-50.15 15.917-61.685 30.34-11.535 14.42-16.55 15.915-18.555 20.888s-20.562 8.952-31.595 6.465-64.192-61.668-29.59-91.51z"/><path fill="#fff" d="M0 28.84s43.198 16.536 44.076 75.223c1.38 36.802-37.363 55.142-37.363 55.142s35.53 17.376 40.804 60.147c5.273 42.77-9.302 65.634-9.302 65.634s10.517 6.457 13.024 21.377-7.03 32.82-7.03 32.82 23.064 11.936 27.077 32.325c4.013 20.39-.002 33.818-.002 33.818s19.056.994 34.603 14.422c15.547 13.43 18.555 41.28 18.555 41.28s11.535 28.514 29.087 28.514c0 0 9.53 39.457 76.73 39.457H0V28.84z"/></svg>