<svg xmlns="http://www.w3.org/2000/svg" viewBox="0 0 255 50" enable-background="new 0 0 255 50"><path fill="#BDB0B9" d="M52.672 35.215l2.182-.37v-16.89l-2.105-.216v-1.25h13.7l.242 3.635-1.275.025-.586-2.08-7.5-.18v7.604l5.612-.114.51-1.85h1.25v5.36h-1.415l-.332-1.93-5.625-.1v7.973l3.687.255v1.21h-8.343v-1.083zM66.974 32.19c.06-.594.25-1.114.574-1.56.323-.446.722-.832 1.2-1.155.475-.323 1.004-.592 1.587-.805.583-.21 1.167-.38 1.754-.51.586-.127 1.152-.216 1.695-.268.545-.05 1.016-.076 1.417-.076v-1.11c0-.67-.09-1.218-.268-1.64s-.425-.75-.74-.987c-.314-.24-.685-.4-1.11-.486-.425-.085-.885-.128-1.377-.128-.247 0-.523.024-.83.07-.306.048-.623.114-.95.198-.328.085-.657.188-.99.307-.33.12-.645.252-.942.396l-.473-1.147c.315-.256.7-.48 1.154-.67.456-.192.923-.35 1.404-.48.48-.127.948-.22 1.403-.28.455-.06.844-.09 1.167-.09.67 0 1.312.072 1.92.21.607.142 1.14.388 1.6.74.46.354.823.83 1.09 1.43s.403 1.363.403 2.29l-.026 8.776h1.633v.842c-.297.162-.666.294-1.104.396-.438.102-.878.152-1.32.152-.153 0-.32-.01-.498-.03-.18-.022-.343-.076-.49-.16-.15-.086-.273-.218-.37-.396-.1-.18-.147-.426-.147-.74v-.357c-.195.238-.426.46-.694.664-.268.203-.574.382-.92.535-.343.152-.735.27-1.172.357-.438.083-.925.126-1.46.126-.664 0-1.266-.12-1.805-.356-.542-.24-.992-.56-1.354-.964-.362-.403-.63-.87-.804-1.403-.173-.532-.226-1.096-.158-1.692zm2.475.053c0 .5.066.927.202 1.275.136.35.334.632.594.85s.576.373.95.47c.375.1.796.148 1.263.148.255 0 .514-.035.777-.104.264-.066.517-.152.76-.254.24-.102.466-.22.675-.352.208-.132.376-.262.503-.39 0-.8.002-1.592.007-2.38.004-.785.01-1.578.02-2.377-.358 0-.75.02-1.175.056-.425.04-.85.104-1.275.197-.425.094-.837.218-1.238.37-.4.153-.752.347-1.06.58s-.55.51-.732.823c-.182.317-.273.678-.273 1.087zM80.56 35.215l2.17-.268V24.5l-1.76-.932v-.792l3.533-1.007.574.254v12.922l2.066.268v1.084H80.56v-1.083zm2.82-16.456c-.204 0-.404-.037-.6-.11s-.368-.173-.517-.305c-.15-.132-.268-.295-.357-.49-.09-.196-.133-.418-.133-.664 0-.263.057-.51.172-.74.114-.228.26-.426.44-.592.178-.166.38-.295.605-.39.226-.093.453-.14.683-.14.56 0 .97.155 1.23.466.26.31.39.682.39 1.116 0 .28-.056.536-.166.766-.11.23-.256.422-.435.58-.178.158-.382.28-.612.37-.228.088-.462.133-.7.133zM88.23 35.215l2.065-.268V24.563l-1.812-.995v-.792l3.368-1.007.6.254v1.965c.162-.24.406-.49.734-.754.327-.263.695-.504 1.103-.72.41-.218.833-.397 1.275-.537.443-.14.86-.21 1.25-.21.28 0 .535.005.76.02.225.01.384.035.48.07v2.614c-.138-.05-.278-.104-.422-.16-.145-.055-.305-.102-.48-.14-.174-.038-.37-.07-.593-.095-.22-.027-.476-.04-.765-.04-.69 0-1.267.088-1.734.262-.468.175-.898.385-1.29.632v9.975l3.636.306V36.3h-8.177v-1.085zM99.11 35.215l1.914-.268V17.675l-2.18-.46v-1.11l4.03-.535.6.294-.025 5.638-.04 2.208c.374-.307.78-.58 1.22-.817.436-.238.876-.44 1.32-.606.44-.166.873-.293 1.294-.382.42-.09.8-.134 1.142-.134.868 0 1.578.133 2.13.397.553.264.99.67 1.308 1.22.32.547.538 1.25.657 2.11.12.858.175 1.88.167 3.06v6.392l1.913.267V36.3h-6.505v-1.083l2.143-.268V29.64c0-.986-.023-1.854-.07-2.604-.047-.748-.17-1.375-.37-1.88-.2-.506-.5-.887-.9-1.142-.4-.255-.953-.383-1.658-.383-.28 0-.58.017-.894.05-.314.035-.63.092-.95.172-.32.082-.638.19-.957.326s-.628.312-.926.524v10.243l1.876.268V36.3h-6.238v-1.085zM115.147 29.207c0-1.09.172-2.092.517-3.01.344-.92.825-1.714 1.44-2.386.618-.67 1.36-1.2 2.228-1.587s1.824-.593 2.87-.62c.748-.016 1.424.092 2.028.326.604.234 1.118.58 1.543 1.04.425.458.76 1.02 1.002 1.683.242.664.38 1.416.414 2.257.017.536.005 1-.033 1.392-.038.39-.078.74-.12 1.046h-9.454v.146s.005.096.013.146c.034 1.03.208 1.88.523 2.55.313.673.707 1.207 1.18 1.603.472.395.992.672 1.562.83.57.156 1.126.235 1.67.235.333 0 .682-.02 1.047-.058.364-.04.72-.094 1.064-.166.344-.072.664-.155.957-.248.294-.094.53-.19.71-.295l.472 1.086c-.247.222-.568.42-.963.6s-.828.33-1.296.453-.957.216-1.467.28c-.51.063-1.008.095-1.492.095-1.03 0-1.94-.176-2.736-.53-.796-.352-1.467-.85-2.01-1.49-.545-.644-.96-1.42-1.245-2.33s-.428-1.926-.428-3.048zm9.44-1.365c.026-.434.032-.87.02-1.308-.013-.438-.066-.854-.16-1.25-.093-.395-.236-.756-.427-1.084-.19-.327-.448-.593-.77-.797-.223-.145-.474-.252-.754-.325-.28-.072-.6-.11-.957-.11-.477 0-.94.09-1.384.27-.447.178-.847.463-1.2.853-.353.393-.648.896-.886 1.513-.238.617-.39 1.364-.46 2.24h6.977zM128.836 32.19c.06-.594.25-1.114.574-1.56.323-.446.723-.832 1.2-1.155s1.005-.592 1.587-.805c.582-.21 1.168-.38 1.754-.51.59-.127 1.153-.216 1.698-.268.544-.05 1.016-.076 1.416-.076v-1.11c0-.67-.09-1.218-.27-1.64-.177-.42-.424-.75-.738-.987-.314-.24-.686-.4-1.11-.486-.425-.085-.885-.128-1.378-.128-.246 0-.52.024-.83.07-.305.048-.62.114-.95.198-.327.085-.655.188-.987.307-.33.12-.645.252-.942.396l-.473-1.147c.314-.256.7-.48 1.154-.67.454-.192.92-.35 1.402-.48.48-.127.948-.22 1.403-.28.455-.06.844-.09 1.167-.09.67 0 1.312.072 1.92.21.608.142 1.142.388 1.6.74.46.354.823.83 1.092 1.43s.402 1.363.402 2.29l-.026 8.776h1.633v.842c-.297.162-.665.294-1.104.396-.44.102-.878.152-1.32.152-.153 0-.32-.01-.498-.03-.18-.022-.343-.076-.49-.16s-.272-.218-.37-.396c-.098-.18-.146-.426-.146-.74v-.357c-.196.238-.428.46-.695.664-.268.203-.573.382-.92.535-.343.152-.733.27-1.17.357-.44.083-.927.126-1.463.126-.663 0-1.265-.12-1.804-.356-.54-.24-.992-.56-1.354-.964-.362-.403-.63-.87-.805-1.403-.174-.532-.227-1.096-.16-1.692zm2.475.053c0 .5.07.927.205 1.275.137.35.334.632.593.85.26.216.577.373.95.47.375.1.796.148 1.265.148.254 0 .514-.035.777-.104.264-.066.516-.152.76-.254.24-.102.467-.22.676-.352.208-.132.375-.262.504-.39 0-.8.002-1.592.006-2.38.004-.785.01-1.578.02-2.377-.357 0-.748.02-1.174.056-.426.04-.85.104-1.275.197-.426.094-.838.218-1.238.37-.4.153-.753.347-1.06.58s-.55.51-.733.823-.276.678-.276 1.087zM147.322 36.605c-.715 0-1.408-.143-2.08-.428s-1.266-.723-1.78-1.312c-.514-.592-.928-1.34-1.243-2.246-.315-.907-.473-1.98-.473-3.222 0-1.14.19-2.188.574-3.145.384-.957.906-1.78 1.57-2.47.663-.688 1.443-1.226 2.34-1.612.897-.386 1.86-.58 2.89-.58.45 0 .89.03 1.314.09.425.06.79.14 1.097.24v-4.246l-2.716-.46v-1.11l4.592-.535.574.293v19.35h1.723v.958c-.146.078-.326.15-.542.218-.216.068-.446.127-.688.18s-.49.088-.74.113c-.25.027-.486.04-.708.04-.152 0-.312-.012-.48-.032-.164-.02-.315-.075-.45-.16-.138-.085-.25-.216-.34-.395s-.133-.426-.133-.74v-.318c-.127.145-.313.306-.56.483-.248.18-.555.346-.92.498-.365.153-.784.283-1.256.39-.472.107-.992.16-1.562.16zm.983-1.747c.27 0 .524-.016.758-.045.234-.03.453-.07.658-.12.417-.104.774-.238 1.07-.41.3-.17.546-.352.74-.548v-9.76c-.093-.11-.207-.224-.344-.343-.136-.12-.312-.23-.53-.332-.215-.102-.475-.185-.777-.25-.303-.064-.657-.095-1.065-.095-.323 0-.66.04-1.008.12-.35.082-.693.215-1.033.403-.34.187-.664.43-.97.727-.306.297-.578.66-.815 1.09-.24.43-.432.932-.576 1.506s-.22 1.23-.23 1.972c-.016 1.046.09 1.95.32 2.717.23.765.538 1.395.925 1.894.386.497.83.867 1.332 1.11.5.243 1.014.364 1.543.364zM157.77 26.975c0-1.08.127-2.094.383-3.042.255-.948.612-1.818 1.07-2.608.46-.792 1.007-1.497 1.64-2.118.634-.62 1.334-1.146 2.1-1.576.765-.428 1.577-.755 2.437-.98.858-.226 1.742-.34 2.653-.34.612 0 1.182.037 1.71.11s1.01.157 1.446.253c.437.1.835.198 1.192.3.356.103.676.184.956.243l-.19 3.52h-1.033l-.485-2.295c-.527-.33-1.13-.58-1.805-.746-.677-.166-1.46-.25-2.354-.25-.663 0-1.315.088-1.958.263-.642.174-1.252.434-1.83.778-.578.344-1.11.77-1.595 1.275-.484.506-.904 1.09-1.256 1.754-.353.664-.63 1.4-.828 2.213-.2.812-.3 1.694-.3 2.647 0 .825.074 1.63.223 2.41.15.783.37 1.517.663 2.2.294.687.66 1.313 1.098 1.883s.943 1.058 1.518 1.467 1.216.724 1.927.944c.71.22 1.487.327 2.33.318 1.036-.008 1.944-.146 2.723-.414.778-.27 1.358-.602 1.74-1.002l.562-2.155c.128 0 .272.003.434.007.16.004.306.006.434.006v3.457c-.307.018-.645.085-1.015.203-.37.12-.81.252-1.314.396-.507.145-1.098.274-1.773.39-.676.114-1.47.17-2.38.17-1.317 0-2.534-.237-3.648-.714-1.113-.476-2.077-1.143-2.89-2.002-.81-.86-1.445-1.88-1.9-3.062-.458-1.18-.685-2.48-.685-3.9zM174.43 35.432l2.246-.242V23.952l-1.875-.677v-.65l3.012-.778.484.242v1.785c.18-.22.45-.454.81-.7.36-.248.764-.476 1.206-.684.442-.207.903-.38 1.384-.516.48-.136.938-.204 1.37-.204.282 0 .54.006.773.02.233.012.396.036.49.07v1.964c-.238-.093-.507-.174-.804-.242-.298-.067-.706-.102-1.225-.102-.407 0-.8.038-1.173.115-.374.076-.72.17-1.04.28-.318.11-.61.23-.873.364-.265.13-.493.26-.69.388V35.19l3.866.242v.867h-7.96v-.868zM185.12 29.207c0-1.09.176-2.094.524-3.018.35-.923.832-1.722 1.448-2.4.616-.675 1.354-1.205 2.213-1.587.86-.383 1.8-.583 2.82-.6.73-.008 1.395.104 1.99.338s1.106.58 1.536 1.034c.43.455.765 1.015 1.002 1.678.238.664.366 1.416.383 2.257.018.434.01.817-.02 1.154-.03.335-.065.64-.108.912h-9.91v.14c-.02 1.063.107 1.98.375 2.756.27.773.636 1.414 1.104 1.92.467.506 1.016.88 1.645 1.122.63.243 1.303.364 2.017.364.408 0 .82-.027 1.238-.083.416-.056.812-.13 1.186-.224s.714-.198 1.016-.317.542-.238.72-.357l.396.88c-.246.222-.566.42-.963.6-.396.18-.827.33-1.295.453-.47.123-.957.216-1.468.28-.51.063-1.007.095-1.492.095-1.03 0-1.938-.176-2.73-.53-.79-.352-1.454-.85-1.99-1.49-.535-.644-.94-1.42-1.218-2.33s-.416-1.926-.416-3.048zm9.965-1.378c.034-.537.034-1.05 0-1.538-.034-.49-.117-.94-.25-1.358-.13-.417-.316-.785-.554-1.103-.237-.318-.54-.576-.904-.77-.486-.264-1.063-.396-1.735-.396-.586 0-1.14.108-1.658.324-.52.218-.98.54-1.39.97-.408.43-.748.967-1.02 1.614-.273.646-.452 1.4-.537 2.258h8.05zM198.263 32.32c.05-.588.23-1.106.536-1.557.305-.45.693-.845 1.166-1.18.472-.337 1.008-.617 1.607-.843s1.216-.406 1.85-.542c.634-.137 1.263-.234 1.888-.294s1.206-.09 1.742-.09v-1.122c0-.713-.087-1.305-.26-1.772-.176-.468-.425-.838-.748-1.11s-.717-.464-1.18-.574c-.464-.11-.99-.166-1.575-.166-.324 0-.676.032-1.054.096-.378.063-.753.15-1.122.26-.37.112-.726.234-1.065.37-.34.138-.63.277-.868.422l-.37-.906c.314-.255.7-.48 1.16-.676.46-.196.93-.357 1.41-.485s.945-.223 1.396-.286c.45-.064.834-.096 1.148-.096.672 0 1.31.068 1.913.204.603.136 1.133.378 1.588.727.454.348.813.824 1.077 1.428s.396 1.374.396 2.31l-.024 8.954h1.684v.702c-.247.12-.565.22-.956.3-.392.08-.81.12-1.25.12-.146 0-.29-.01-.435-.03-.145-.022-.274-.073-.39-.154s-.206-.204-.274-.37-.102-.393-.102-.682v-.51c-.238.27-.504.518-.798.74-.293.22-.627.41-1 .566-.376.157-.794.28-1.257.37-.465.09-.978.134-1.54.134-.568 0-1.12-.094-1.65-.28-.532-.188-1.002-.46-1.41-.817s-.728-.8-.956-1.33c-.23-.53-.324-1.142-.28-1.83zm1.876.025c-.01.527.066.98.228 1.358.162.38.392.69.69.932.296.242.65.42 1.063.536.414.115.87.172 1.372.172.46 0 .88-.05 1.264-.152.383-.102.723-.226 1.02-.37.3-.144.554-.292.766-.446.213-.153.38-.28.498-.383V31.64s.002-.92.007-1.396c.004-.477.006-.94.006-1.39-.46 0-.948.02-1.467.063s-1.036.116-1.55.223c-.515.106-1.006.247-1.474.42-.467.176-.88.393-1.237.65-.357.262-.644.566-.86.92-.22.352-.326.758-.326 1.217zM212.833 23.3h-2.042v-.764c.358-.068.66-.122.907-.16.247-.038.455-.083.625-.134s.308-.12.415-.21c.105-.09.206-.215.3-.376.05-.11.11-.3.178-.568.068-.268.135-.555.198-.86s.118-.607.165-.9c.047-.293.08-.53.097-.708h.97v3.444h4.783v1.238h-4.783v7.68c0 .858.02 1.564.057 2.117s.114.987.23 1.308c.114.318.282.54.503.662.222.123.52.185.894.185.305 0 .606-.03.904-.09s.578-.13.842-.216.498-.178.7-.275c.205-.1.358-.18.46-.25l.32.907c-.196.213-.454.397-.772.555-.32.158-.66.29-1.026.396-.366.105-.736.186-1.11.24s-.706.084-.995.084c-.46 0-.865-.064-1.218-.19-.354-.128-.648-.334-.887-.62-.238-.284-.417-.652-.535-1.103-.12-.45-.18-1-.18-1.646V23.3zM220.577 35.432l2.104-.203V23.912l-1.836-.638v-.65l3.125-.778.484.242v13.125l2.13.217v.867h-6.008v-.868zm2.55-17.183c-.16 0-.317-.03-.47-.084-.153-.055-.288-.138-.403-.25-.114-.11-.208-.24-.28-.388-.072-.15-.107-.32-.107-.517 0-.212.044-.408.133-.586.09-.18.205-.333.345-.465.14-.133.3-.234.48-.307s.356-.11.535-.11c.44 0 .765.122.97.364.203.243.306.54.306.887 0 .22-.043.42-.128.6-.085.178-.197.332-.338.46-.14.126-.302.225-.484.293-.186.068-.37.102-.558.102zM227.875 23.263l-1.39-.205v-1.033h5.33v1.033l-1.85.217 3.28 7.985 1.198 3.484 1.174-3.38 2.922-8.076-1.826-.217v-1.045h4.912v1.033l-1.493.243-5.243 13.306h-1.326l-5.69-13.343zM241.882 29.207c0-1.09.175-2.094.523-3.018.35-.923.832-1.722 1.448-2.4.616-.675 1.354-1.205 2.213-1.587.86-.383 1.8-.583 2.82-.6.73-.008 1.395.104 1.99.338s1.106.58 1.536 1.034c.43.455.764 1.015 1 1.678.24.664.367 1.416.384 2.257.018.434.012.817-.02 1.154-.03.335-.065.64-.107.912h-9.913v.14c-.017 1.063.108 1.98.376 2.756.27.773.637 1.414 1.104 1.92.467.506 1.016.88 1.645 1.122.63.243 1.302.364 2.016.364.408 0 .82-.027 1.238-.083.416-.056.812-.13 1.186-.224.375-.093.713-.198 1.015-.317s.542-.238.72-.357l.396.88c-.246.222-.566.42-.962.6s-.826.33-1.294.453-.957.216-1.468.28c-.51.063-1.007.095-1.492.095-1.03 0-1.938-.176-2.73-.53-.79-.352-1.454-.85-1.99-1.49-.535-.644-.94-1.42-1.218-2.33-.277-.91-.416-1.926-.416-3.048zm9.964-1.378c.034-.537.034-1.05 0-1.538-.034-.49-.117-.94-.25-1.358-.13-.417-.316-.785-.554-1.103-.238-.318-.54-.576-.905-.77-.485-.264-1.063-.396-1.735-.396-.587 0-1.14.108-1.658.324-.52.218-.982.54-1.39.97-.41.43-.75.967-1.022 1.614-.272.646-.45 1.4-.536 2.258h8.05zM.266 23.614s8.536-15.81 26.56-10.96c0 0-.365-4.104 5.234-5.477 0 0 1.184 4.192-3.6 6.07 0 0 7.11 2.39 9.49 10.9s-4.514 14.75-8.447 16.047c-3.934 1.3-8.313.92-11.076-2.34-2.763-3.256-1.18-6.91.102-8.014.873-.754 1.508-.875 1.972-.586.57.354.517 1.04.17 2.32-.347 1.275.24 4.033 2.86 4.938 2.62.902 7.28-.75 8.204-4.44.923-3.688-.05-8.884-5.972-10.535-5.924-1.65-12.44.82-15.3 6.554-2.86 5.73-.497 15.995 7.11 18.51 7.607 2.517 11.498 1.03 13.267.366 1.77-.665 7.675-2.72 11.957-9.023 4.283-6.307 4.84-13.542 3.105-19.635-1.736-6.093-6.93-13.003-15.5-15.74-8.57-2.734-17.198.49-21.48 4.122-4.28 3.63-8.03 8.658-8.656 16.924z"/></svg>