<?xml version="1.0" encoding="utf-8"?>
<!-- Generator: Adobe Illustrator 18.1.1, SVG Export Plug-In . SVG Version: 6.00 Build 0)  -->
<svg version="1.1" id="Tea" xmlns="http://www.w3.org/2000/svg" xmlns:xlink="http://www.w3.org/1999/xlink" x="0px" y="0px"
	 viewBox="0 0 848.3 479.7" enable-background="new 0 0 848.3 479.7" xml:space="preserve">
<rect x="-6.9" y="0" fill="#C4EEF6" width="855.2" height="479.7"/>
<linearGradient id="SVGID_1_" gradientUnits="userSpaceOnUse" x1="389.3121" y1="483.4573" x2="389.3121" y2="325.1514">
	<stop  offset="0" style="stop-color:#ACDDE2"/>
	<stop  offset="0.5673" style="stop-color:#A1D3D6"/>
</linearGradient>
<path fill="url(#SVGID_1_)" d="M778.6,479.7c-55-15.7-109.9-31.4-164.9-47c-12.6-3.6-25.3-7.2-37.3-12.6
	c-9.6-4.3-18.6-9.8-28.6-13.1c-5.3-1.8-10.8-2.9-16.2-4.6c-17.8-5.4-33.4-15.9-49.8-24.7c-27-14.5-56.1-24.4-85.1-34.3
	c-11.6-3.9-23.2-7.9-34.8-11.8c-4.7-1.6-9.4-3.2-14.3-3.6c-20.6-1.8-37.5,16.9-58,19.9c-30.6,4.5-58.1-27-88.7-22.2
	c-13.3,2.1-24.3,10.7-35.6,18.5c-12.9,5.1-25.8,10.2-38.7,15.3c-7.9,3.1-15.9,6.3-22.7,11.5c-6.9,5.3-12.1,12.5-18.5,18.5
	C72.4,401.8,58.6,425,42,432.2c-24.7,10.7-8.5,15.8-32,28.9c-13.9,7.7-0.7,5.7-10,18.6c0,0,186.3,7.6,186.3,1.3c0-0.2,0-0.7,0.1-1.3
	H778.6z"/>
<linearGradient id="SVGID_2_" gradientUnits="userSpaceOnUse" x1="275.4132" y1="-2.3333" x2="275.4132" y2="304.0655">
	<stop  offset="0" style="stop-color:#EDD2BC"/>
	<stop  offset="0.5673" style="stop-color:#E2C8AF"/>
</linearGradient>
<path fill="url(#SVGID_2_)" d="M222.3-2.3c0,0,8.5,104,6,115s-16.5,32.5-18,89c0,30.5-1,22,9.2,42c10.3,20,13.8,31.9,30.8,43
	s31.7,22.5,35.1,15c3.4-7.5,0.9-10.5,0.9-10.5s21,0.5,33.5-20c0,0,13-3.1,12-19.1c0,0,22-21.9-3.5-33.4c0,0,5-56.5-18.5-102
	c0,0,1.5-75.7,17-119H222.3z"/>
<g>
	<path fill="#BFDFE0" d="M286.3,290.4c0,0.3,0,0.5-0.1,0.8C286.3,291.2,286.4,290.9,286.3,290.4z"/>
</g>
<path fill="#DCFCFF" d="M293.9,470c0.7-1,0.7-2.4,0.3-3.5c-0.8-2.6-3-4.6-5.1-6.5c-2.2-1.9-4.4-3.9-6.6-5.8
	c-1.8-1.6-3.8-3.3-6.2-3.3c-2,0-3.8,1.1-5.4,2.3c-3,2.3-5.9,6-4.4,9.5c1.2,2.6,4.3,3.7,7.1,4.4c4.8,1.3,9.6,2.5,14.5,3.8
	C290.1,471.4,292.7,471.7,293.9,470z"/>
<path fill="#DCFCFF" d="M265.1,425.5c-4.2,2.8-6.7,7.9-6.4,12.9c0,0.5,0.1,1,0.4,1.4c0.3,0.5,0.9,0.7,1.5,0.9c2.9,1,6.2,1.3,8.9-0.1
	c1.1-0.6,2-1.4,2.9-2.2c2.3-2,4.6-4,6.9-6c1.3-1.1,2.7-2.5,2.6-4.2c0-1.3-0.9-2.4-1.9-3.2c-4.6-3.7-12.2-2.6-15.5,2.2"/>
<path fill="#DCFCFF" d="M268.2,395.8c-2.1-1.2-4.9-1.1-7.2,0c-2.2,1.1-4,2.9-5.5,4.9c-0.7,1-1.3,2-1.5,3.2c-0.3,2.4,1.6,4.5,3.8,5.4
	c2.2,0.9,4.7,0.7,7,0.6c3.7-0.2,7.3-0.5,11-0.7c0.8-0.1,1.6-0.1,2.3-0.5c1.6-0.8,2.1-3.1,1.5-4.8c-0.6-1.7-2.1-3-3.6-4.1
	c-2.8-2-6-3.5-9.4-4.5"/>
<path fill="#D8BCA7" d="M319.7,222.1c0,0-10.3,1.2-7.3,14.9c0,0-9.9,0.7-10.9,13.3c0,0-5.2-2.2-10.9-0.1c0.8-8.7-14.1-8.5-15.1-8.3
	c-1.1,0.2-6.9,10.2-6.9,10.2l-11,8.3l2.4,2.7c-0.2-0.1-0.4-0.1-0.4-0.1s1.8,2.3,4.5,4.9l0,0c0,0,0,0,0,0c2.8,2.9,6.6,6.2,10,7.7
	c6.7,3,44.9-21.7,44.9-21.7S332.3,223.2,319.7,222.1z"/>
<path fill="#DCFCFF" d="M281.6,367.2c-2.3-2.4-5-4.4-8.2-5.4c-3.2-0.9-6.8-0.5-9.4,1.5c-2.1,1.7-3.3,4.5-3,7.2
	c0.2,2.7,1.9,5.3,4.2,6.6c1.4,0.8,3,1.2,4.6,1.6c3.2,0.8,6.5,1.6,9.7,2.4c0.8,0.2,1.8,0.4,2.5,0c0.6-0.3,1-1,1.4-1.6
	c0.8-1.4,1.6-2.9,1.8-4.5C285.7,372.2,283.7,369.4,281.6,367.2z"/>
<path fill="#E9FEFF" d="M274.8,250.1c4.1,1.9,5.1,8.2,1.8,11.2c-1,0.9-2.3,1.5-3.6,2.1c-1.3,0.5-2.6,1.1-4,0.9c-1.6-0.2-3-1.2-4-2.5
	c-2.2-2.8-2.6-6.9-0.6-9.8c2-2.9,6.5-3.8,9.3-1.6"/>
<path fill="#E9FEFF" d="M279.8,251.9c2.8,0.6,5.7-0.3,8.2-1.7c4.1-2.2,7.6-6.4,7.4-11c-0.1-3.1-2-6-4.6-7.8
	c-2.6-1.7-5.8-2.4-8.9-2.1c-1.3,0.1-2.7,0.4-3.9,1c-2.3,1.2-3.8,3.7-4.7,6.1c-1.1,3-1.5,6.3-1.1,9.6c0.1,0.4,0.1,0.9,0.3,1.3
	c0.3,0.6,0.9,1,1.4,1.4C275.7,250.1,277.6,251.4,279.8,251.9z"/>
<linearGradient id="SVGID_3_" gradientUnits="userSpaceOnUse" x1="317.6455" y1="232.7653" x2="340.3582" y2="236.7702">
	<stop  offset="0.4302" style="stop-color:#E7CCB5"/>
	<stop  offset="0.8797" style="stop-color:#E2C8AF"/>
</linearGradient>
<path fill="url(#SVGID_3_)" d="M331.8,252.1c0,0,12.2-12.8,8-22.8c-4.1-10-14.1-15-18.8-9.7c-4.7,5.3,0,21,0,21L331.8,252.1z"/>
<path fill="#D8BCA7" d="M249.3,244.8c0,0-2.5-20.5-9.1-37.7c0,0-6.9,17.1,9.1,44.9C249.3,252.1,250.3,252.1,249.3,244.8z"/>
<linearGradient id="SVGID_4_" gradientUnits="userSpaceOnUse" x1="319.3086" y1="226.9341" x2="319.3086" y2="271.1667">
	<stop  offset="0.3579" style="stop-color:#EDD2BC"/>
	<stop  offset="0.8797" style="stop-color:#E2C8AF"/>
</linearGradient>
<path fill="url(#SVGID_4_)" d="M319.8,271.2c0,0,11.1-5.8,11.5-12.4c0.5-6.6,4.4-23.1-4-29.4c-8.3-6.3-18.3,1-18,9
	c0.3,8-3.3,19-3.3,19L319.8,271.2z"/>
<linearGradient id="SVGID_5_" gradientUnits="userSpaceOnUse" x1="259.4823" y1="265.1427" x2="259.4823" y2="197.8519">
	<stop  offset="0.3709" style="stop-color:#EDD2BC"/>
	<stop  offset="0.8797" style="stop-color:#E2C8AF"/>
</linearGradient>
<path fill="url(#SVGID_5_)" d="M246.6,229.6c0,0,3.9,14.2,2.7,22.5c-1.3,8.2,6.4,18.9,17.7,9.1c11.3-9.8,13.3-11,11-30.8
	c-2.3-19.8-2.3-31.3-7.2-32.4c-1.5-0.3-26.6,0-26.6,0l-4,9.2C240.2,207.2,244.8,221.5,246.6,229.6z"/>
<linearGradient id="SVGID_6_" gradientUnits="userSpaceOnUse" x1="318.9677" y1="274.1716" x2="283.6889" y2="274.1716" gradientTransform="matrix(0.9998 -1.770140e-02 1.770140e-02 0.9998 -4.806 5.3769)">
	<stop  offset="0.3579" style="stop-color:#EDD2BC"/>
	<stop  offset="0.8797" style="stop-color:#E2C8AF"/>
</linearGradient>
<path fill="url(#SVGID_6_)" d="M286.6,290.6l-2.7-4.8l6.4-22.3c0,0,15.6-12.7,24.8-1.9s-0.6,15.5-6.4,21.5
	C302.9,289.3,291,292.3,286.6,290.6z"/>
<path fill="#E9FEFF" d="M281.3,286.5c3-0.6,5.5-3,6.9-5.8c1.4-2.8,1.9-5.9,2.4-9c0.3-1.8,0.6-3.6,0.5-5.4c0-1-0.1-2-0.6-2.8
	c-1.1-2.3-3.9-3.3-6.4-3c-2.5,0.3-4.7,1.7-6.8,3c-2.9,1.9-5.8,4-7.1,7.2c-0.8,2-0.8,4.2-0.4,6.3c0.5,2.7,1.8,5.3,3.8,7.2
	C275.7,286,278.6,287,281.3,286.5z"/>
<path opacity="0.5" fill="#D8BCA7" d="M295.8,169.5c0-1-0.4-3.1-1.7-3.5c-1.3-0.3-2.5,0.9-3.2,1.7c0,0-0.1,0.1-0.1,0.1
	c-7.2,9.8-15.3,17.1-15.3,17.1v12.9c10.1-5,16.5-16.8,20.4-27.9C295.8,169.8,295.8,169.6,295.8,169.5z"/>
</svg>
