<?xml version="1.0" encoding="utf-8"?>
<!-- Generator: Adobe Illustrator 18.1.1, SVG Export Plug-In . SVG Version: 6.00 Build 0)  -->
<svg version="1.1" id="Tea" xmlns="http://www.w3.org/2000/svg" xmlns:xlink="http://www.w3.org/1999/xlink" x="0px" y="0px"
	 viewBox="0 0 1127.9 500.7" enable-background="new 0 0 1127.9 500.7" xml:space="preserve">
<rect x="-3.4" y="0" fill="#5C962F" width="1137.2" height="504"/>
<path fill="#5A7743" d="M950.1,504c-34-12.6-68.1-25.3-102.1-37.9c-21.6-8-43.4-16.1-65.9-19.4c-32.6-4.8-65.7,0.6-98.5-2.5
	c-28.1-2.6-55.8-11.5-84.1-11.6c-24.1-0.1-48,6.1-72,5.9c-15.7-0.1-31.4-3-47-5.2c-50.3-7.3-101.1-8.7-151.7-10.1
	c-31.5-0.9-63.6,2.1-95.9,7.1c-19.3,2.1-38.5,4.8-57.8,7.5c-63.8,9-132.2,20.2-178.5,64.9c45.7,6.9,91.9,7.5,138.2,5.5
	C340,512.3,950.1,504,950.1,504z"/>
<path fill="#475B34" d="M432,460.5l18.4,5.7C450.4,466.2,442.1,456.8,432,460.5z"/>
<path fill="#475B34" d="M404.1,457.6l19.6,2.4C423.7,460,413.9,452.7,404.1,457.6z"/>
<path fill="#475B34" d="M333,458l25.8,1.5C358.8,459.5,345.9,452.1,333,458z"/>
<path fill="#475B34" d="M367.2,455.3l23.3,1.2C390.5,456.5,380,448.6,367.2,455.3z"/>
<path fill="#475B34" d="M312.5,454.7c-0.2,0.1,0.1,0.3,0.2,0.3c2.5,0,5.1,0,7.6-0.5c2.5-0.5,4.9-1.7,6.5-3.6
	c-4.4,1-8.9,1.1-13.3,0.2"/>
<linearGradient id="SVGID_1_" gradientUnits="userSpaceOnUse" x1="340.3835" y1="390.179" x2="450.3767" y2="390.179">
	<stop  offset="0" style="stop-color:#91A581"/>
	<stop  offset="0.1895" style="stop-color:#94A884"/>
	<stop  offset="0.3452" style="stop-color:#9EB18D"/>
	<stop  offset="0.3513" style="stop-color:#9FB28E"/>
	<stop  offset="0.7689" style="stop-color:#869674"/>
	<stop  offset="0.9985" style="stop-color:#9FB28E"/>
	<stop  offset="1" style="stop-color:#9FB28E"/>
</linearGradient>
<path fill="url(#SVGID_1_)" d="M441.7,351.7c-6.6-4.6-17.4-6.4-38-8.8c-0.4-9.3-1.6-26.8-1.6-26.8h-15l1.7,25.6l0,0
	c-38.3-0.9-43,19.4-43.2,20.4l-0.1,0.4l-5,96.2l10,0.5l5-95.2c0.4-1,1.8-4.1,6.4-7c3-1.9,7.7-3.8,14.7-4.7
	c0.8,32.9-2.3,102.9-2.4,103.6l10,0.5c0-0.7,3.2-71.6,2.4-104.7c3.6,0,7.6,0.2,12.1,0.7c3.6,0.4,7.1,0.8,10.3,1.2
	c2.2,29,0.3,100.9,0,104.7l5,0.5l5,0.6c0.4-3.5,2.3-73.3,0.2-104.4c8.1,1.3,14,2.8,17.1,4.9c3.8,2.6,4.4,6.8,4.4,18.8
	c0,26.1-1.8,70.6-5.2,83l9.7,2.6c4.1-15.3,5.5-65.2,5.5-85.6C450.4,367.4,450.4,357.7,441.7,351.7z"/>
<path fill="#475B34" d="M220.4,451.4c-3.7,0.9-13,2.9-16.7,3.8c3.5-4.9,9.5-7.9,15.5-7.7L220.4,451.4z"/>
<linearGradient id="SVGID_2_" gradientUnits="userSpaceOnUse" x1="207.0436" y1="374.0815" x2="321.0515" y2="374.0815">
	<stop  offset="0" style="stop-color:#91A581"/>
	<stop  offset="0.1895" style="stop-color:#94A884"/>
	<stop  offset="0.3452" style="stop-color:#9EB18D"/>
	<stop  offset="0.3513" style="stop-color:#9FB28E"/>
	<stop  offset="0.7689" style="stop-color:#869674"/>
	<stop  offset="0.9985" style="stop-color:#9FB28E"/>
	<stop  offset="1" style="stop-color:#9FB28E"/>
</linearGradient>
<path fill="url(#SVGID_2_)" d="M321,348.4c-15.8-3-31.6-4.1-46.2-4.3c-1.7-3.8-4.2-9.4-4.5-10.1c-0.3-1,0.7-44.7,0.7-44.7l-14.3,1.3
	c0,0-0.3,39-1.7,45l-8.5,9.4c-23.5,1.8-39.5,5.3-39.5,5.3s2.3,85.7,6.3,102.7c4.1-0.7,7.6,0,11.7,0.6c6.5,0.9,13.1,1.8,19.6,2.7
	c3.2,0.4,6.3,0.9,9.4,1.7c1.5,0.4,3,0.9,4.5,0.8c1.8,0,3.4-0.7,5.1-1.3c8.6-3.3,17.8-5.7,27-5c8.8,0.7,18.3,3.9,27.1,2.6
	C321.4,433.7,321,348.4,321,348.4z"/>
<linearGradient id="SVGID_3_" gradientUnits="userSpaceOnUse" x1="234.3598" y1="156.948" x2="288.2708" y2="156.948">
	<stop  offset="0" style="stop-color:#4A473D"/>
	<stop  offset="0.5001" style="stop-color:#545141"/>
	<stop  offset="1" style="stop-color:#44413A"/>
</linearGradient>
<path fill="url(#SVGID_3_)" d="M249,247.2c0,0-17.2-94.5-14.2-131.5s12-49,27.5-49s27,22.5,26,51s-9.5,127.8-9.5,127.8L249,247.2z"
	/>
<linearGradient id="SVGID_4_" gradientUnits="userSpaceOnUse" x1="248.9602" y1="267.8651" x2="278.8098" y2="267.8651">
	<stop  offset="0" style="stop-color:#767F5D"/>
	<stop  offset="1" style="stop-color:#919973"/>
</linearGradient>
<path fill="url(#SVGID_4_)" d="M251,290.9c0,0,13.1,2.8,27.7-1.6l0.1-45.4c0,0-15.9,2.5-29.8,1.5C249,245.4,249.7,275.4,251,290.9z"
	/>
<linearGradient id="SVGID_5_" gradientUnits="userSpaceOnUse" x1="356.9348" y1="187.9467" x2="410.5613" y2="187.9467">
	<stop  offset="0" style="stop-color:#4A473D"/>
	<stop  offset="0.5001" style="stop-color:#545141"/>
	<stop  offset="1" style="stop-color:#44413A"/>
</linearGradient>
<path fill="url(#SVGID_5_)" d="M378.3,278.4c0,0-22.4-93.4-21.4-130.5c1-37.1,9.3-49.6,24.8-50.4s28.2,21,28.7,49.5
	c0.5,28.5-2.6,128.1-2.6,128.1L378.3,278.4z"/>
<linearGradient id="SVGID_6_" gradientUnits="userSpaceOnUse" x1="378.2379" y1="297.9774" x2="410.3276" y2="297.9774">
	<stop  offset="0" style="stop-color:#767F5D"/>
	<stop  offset="1" style="stop-color:#919973"/>
</linearGradient>
<path fill="url(#SVGID_6_)" d="M382.7,322c0,0,13.2,2,27.6-3.1l-2.4-45.4c0,0-15.7,3.3-29.7,3.1C378.2,276.7,380.6,306.6,382.7,322z
	"/>
</svg>
