<svg xmlns="http://www.w3.org/2000/svg" viewBox="0 0 400 200" enable-background="new 0 0 400 200"><path fill="#BCE5FF" d="M0 0h400v200H0z"/><path fill="#FFF2DC" d="M234.9 133c-5.6 9.3-6.8 18.4-6.8 25.3 0 0-15.5 7.4-27.1 11.1-17.6 4.5-35.6-7.9-35.6-7.9s-3-11.2-6.5-24.4l-4-15.4c-3.5-13-6.3-44-6.1-44.3 47.9-55.2 98-14.8 98-14.8l-6.5 53.6c0-.1-1.8 9.3-5.4 16.8z"/><path fill="#8E8C87" d="M267.9 201.7c-.3-2.2-.9-4.4-1.7-6.5-1.5-4-3.4-8-6.5-11-3.7-3.4-8.6-5-13.5-6-15.8-3.1-32.2-.5-48.3-2.3-2.4-.3-4.8-.6-7.2-.3-4.8.7-8.9 4.3-13.6 5.6-1 .3-2.2.5-3 1.2-.8.6-1.3 1.6-1.6 2.6-1.6 3.6-3.3 7.2-4.9 10.8-.8 1.9-1.7 3.9-1.9 5.9h102.2z"/><path fill="#6D6B68" d="M245.6 195.1v7.3h2.5zM182.8 199.7l-1.3 2 2.5.7z"/><path fill="#fff" d="M195.7 182.5v19.2h35.8v-20.4z"/><path fill="#6D6B68" d="M207.8 191.5s-2.9 3.2-2.8 10.2 0 .6 0 .6h10.8s1.9-7-2.5-10.8c-4.4-3.8-5.5 0-5.5 0zM204.9 187.7s1.3 4.5 5.8 4.3c4.4-.2 7.5-3.2 6.7-6.2-1-3.1-8.7-12.9-12.5 1.9z"/><path fill="#fff" d="M200.5 172.2s-5.8 4.8-7.5 8c0 0 7.9 6.7 10.8 9.3 0 0 4.1-7.6 7.5-8.7 0 0 6.2 3.4 7.8 7.8 0 0 12.8-6.4 15.3-10 0 0-3.8-7.5-6.2-8l-27.7 1.6z"/><path fill="#FFF2DC" d="M215.5 163.9c-5.6 2.3-7 2.9-13.5 4.8v6.8s5.7 4 9.3 5.3c0 0 11.9-4.8 15.7-8 0 0 1.2-10.5 1.2-14.4-3.1 1-9.8 4.4-12.7 5.5z"/><path fill="#936B47" d="M145 48l15.8.3 70.8 9.4 11 2z"/><path fill="#B2865F" d="M160.8 48.3l15.7-8.3 76.3 8-10.2 11.7z"/><path fill="#A67C52" d="M145 48v113l5.2-2.7 4.3 3.4 6.7-2.3 3.8 3 5.8-2.5 4.4 3.2 6.3-1.6 4.3 2.4 7.2-1.7 4.8 2.5 6.2-1.7 4.9 2.5 6.2-2.5 4.5 3.3 5.8-2.3 4.3 3 1.8-109z"/><path fill="#936B47" d="M242.6 59.7L231.5 58l-1.8 109 3.7-4.6 2.5.3 2.9-3.6 2.4-.1 2.2-3.2 2.2.2 1.8-2.6 1.8.1L252.8 48z"/></svg>