<svg xmlns="http://www.w3.org/2000/svg" viewBox="0 0 400 200" enable-background="new 0 0 400 200"><path fill="#E0C296" d="M0 0h400v200H0z"/><path fill="#635A4D" d="M238.9 37.1l-4 3.8-4.1-5.8s-39.5-3.8-61.6 6.5-30.5 36.3-30.5 36.3c1.6 22.7 14.1 36.7 14.1 36.7l74 36.8 18-2.7c.1-.3.3-.4.4-.6-.1-.4-.3-.8-.4-1.2-2.5-6.9 8.1-30.3 16.9-62.8s-22.8-47-22.8-47z"/><path fill="#4C453B" d="M234.1 132.4c-.8.9-1.4 2.3-1.7 3.6.1.1.1.3.1.4.5 4.5 6.7 5.6 11.9 5.6.3-2 .8-4.6 1.6-7.6-1.4-.4-2.8-.8-4.2-1.5-2.6-1.2-5.4-3.5-7.7-.5z"/><path fill="#FFF2DC" d="M240.3 116.1l6.5-33.6s-50.1-40.4-98 14.8c-.2.3 2.6 11.3 6.1 24.3 0 0-10.9-.1-6.1 10.6 2.9 6.8 7.4 6.2 10.1 4.8.1.2.1.5.2.7-.9 1.9-2 3.6-2.8 5.5-3 7.1-.6 15.9 4.9 21.3 1.8 1.8 3.9 3.3 6.3 4.1 4.3 1.5 9.3.6 13.3-1.8.9-.6 1.9-1.2 2.6-2.1 0 0 0-.1.1-.1.6 1.3 1.6 2.5 2.7 3.4 2 1.6 4.4 2.6 6.9 3.2 3.8 1 7.8 1.2 11.5-.1 3-1 5.6-3.1 7.1-5.9 8.7-3.5 16.6-7.2 16.6-7.2-.1-6.8 1.2-16 6.8-25.3 0 0 14.6 12 22.7-4.3 8-15.9-10.3-18.2-17.5-12.3z"/><path fill="#8E8C87" d="M267.9 201.7c-.3-2.2-.9-4.4-1.7-6.5-1.5-4-3.4-8-6.5-11-3.7-3.4-8.6-5-13.5-6-15.8-3.1-32.2-.5-48.3-2.3-2.4-.3-4.8-.6-7.2-.3-4.8.7-8.9 4.3-13.6 5.6-1 .3-2.2.5-3 1.2-.8.6-1.3 1.6-1.6 2.6-1.6 3.6-3.3 7.2-4.9 10.8-.8 1.9-1.7 3.9-1.9 5.9h102.2z"/><path fill="#6D6B68" d="M245.6 195.1v7.3h2.5zM182.8 199.7l-1.3 2 2.5.7z"/><path fill="#E2D4BF" d="M219.9 116.3c.6-1.1.9-2.4 1-3.7.2-1.1.2-2.3-.1-3.4-.5-2.1-3.1-5.2-5.4-5.3-2.6-.2-5.8 3.3-7.4 5.1-3.8 4.6-1.8 10.6 4.6 11.1 2.9.2 5.9-1.2 7.3-3.8z"/><path fill="#fff" d="M220.7 109.8c-.3 2.7-1.7 5.4-4 6.9-2.3 1.6-5.5 1.8-7.9.5-3-1.7-4.4-5.4-4.6-8.9-.1-1.8 0-3.7.5-5.4.6-1.7 1.8-3.3 3.5-4.1 2.4-1.2 5.3-.6 7.6.7 3.4 2.1 5.4 6.3 4.9 10.3z"/><path fill="#E2D4BF" d="M180.3 118.7c.9-.8 1.5-2 1.6-3.3.5-2.3.2-4.7-.9-6.7s-2.9-3.7-5.1-4.4c-.2-.1-.4-.1-.5-.1-.3.1-.5.3-.6.5-.5.8-.9 1.8-1.4 2.7-.9 2.1-1.7 4.2-2.2 6.5-.3 1.6-.3 3.5.8 4.7 1 1.1 2.6 1.3 4 1.3 1.6 0 3.2-.2 4.3-1.2z"/><path fill="#fff" d="M176.3 118.3c1.6 0 3.1-.9 4-2.2s1.2-2.9 1.2-4.6c-.1-4.2-2.6-8.2-6.4-10-1.3-.6-2.9-.9-3.9.1-.4.4-.5.8-.7 1.3-.9 2.9-.5 6.1-.2 9.2.2 1.6.5 3.3 1.6 4.4.5.5 1.3.9 2.1 1.2.8.3 1.5.5 2.3.6zM195.7 182.5v19.2h35.8v-20.4z"/><path fill="#6D6B68" d="M207.8 191.5s-2.9 3.2-2.8 10.2 0 .6 0 .6h10.8s1.9-7-2.5-10.8c-4.4-3.8-5.5 0-5.5 0zM204.9 187.7s1.3 4.5 5.8 4.3c4.4-.2 7.5-3.2 6.7-6.2-1-3.1-8.7-12.9-12.5 1.9z"/><path fill="#fff" d="M200.5 172.2s-5.8 4.8-7.5 8c0 0 7.9 6.7 10.8 9.3 0 0 4.1-7.6 7.5-8.7 0 0 6.2 3.4 7.8 7.8 0 0 12.8-6.4 15.3-10 0 0-3.8-7.5-6.2-8l-27.7 1.6z"/><path fill="#FFF2DC" d="M215.5 163.9c-5.6 2.3-7 2.9-13.5 4.8v6.8s5.7 4 9.3 5.3c0 0 11.9-4.8 15.7-8 0 0 1.2-10.5 1.2-14.4-3.1 1-9.8 4.4-12.7 5.5z"/><path fill="#333" d="M174.7 113c.3.6 1.3.3 1.4-.3.2-.6-.2-1.2-.6-1.7.6-.3 1.4-.1 1.9.4s.8 1.2 1 1.8c.2.6.5 1.3.2 1.9-.1.4-.4.6-.7.9-.4.4-.8.9-1.4 1.1-1.1.3-2.2-.4-2.8-1.4-.3-.4-.4-1-.3-1.5.1-.5.4-1 .9-1.1M207.7 112c.3.6 1.3.3 1.4-.3.2-.6-.2-1.2-.6-1.7.6-.3 1.4-.1 1.9.4s.8 1.2 1 1.8c.2.6.5 1.3.2 1.9-.1.4-.4.6-.7.9-.4.4-.8.9-1.4 1.1-1.1.3-2.2-.4-2.8-1.4-.3-.4-.4-1-.3-1.5.1-.5.4-1 .9-1.1"/><path fill="#F2E4CE" d="M183.3 164.9s-4.5-7.7-.6-19.2c0 0-5.8 5.9-1.3 20.9.1-.1 1-.7 1.9-1.7zM202 172s7.4.2 10.5-6.9c0 0 .5 7.5-10.5 9V172z"/><ellipse fill="#FFFAF5" cx="167.4" cy="143.4" rx="4.1" ry="2.2"/><ellipse fill="#FFFAF5" cx="195.4" cy="144.4" rx="4.1" ry="2.2"/></svg>