<?xml version="1.0" encoding="utf-8"?>
<!-- Generator: Adobe Illustrator 15.1.0, SVG Export Plug-In . SVG Version: 6.00 Build 0)  -->
<!DOCTYPE svg PUBLIC "-//W3C//DTD SVG 1.1//EN" "http://www.w3.org/Graphics/SVG/1.1/DTD/svg11.dtd">
<svg version="1.1" xmlns="http://www.w3.org/2000/svg" xmlns:xlink="http://www.w3.org/1999/xlink" x="0px" y="0px" width="400px"
	 height="200px" viewBox="0 0 400 200" enable-background="new 0 0 400 200" xml:space="preserve">
<g id="Layer_3">
	<path fill="#DC9D3B" d="M173.555,151.481c-0.951,0.959-6.04,1.388-5.518,4.25c0.481,2.641,6.246,3.323,8.205,3.819
		c9.342,2.365,18.892,4.664,28.237,7.113c19.467,5.101,38.453,12.695,57.88,18.129c10.285,2.877,18.643,0.048,28.721-2.629
		c12.325-3.274,25.006-5.416,37.474-7.988c6.659-1.374,12.931-3.751,19.25-6.014c3.08-1.104,9.51-3.314,7.957-7.925
		c-1.137-3.378-8.101-3.619-10.956-3.756"/>
	<path fill="#58595B" d="M169.76,141.238c0,0-0.406-1.241,8.519-2.954s58.881-11.339,59.245-11.399
		c0.364-0.059,6.701-0.021,13.121,1.401s103.895,23.055,103.895,23.055s2.325,1.13-20.169,6.663s-62.608,15.086-62.608,15.086
		l-34.752-10.292L169.76,141.238z"/>
	<path fill="#E6E7E8" d="M169.508,142.071c0.004-0.218,101.504,31,101.504,31l84.203-20.825c0,0,0.811,6.515-4.134,8.607
		s-78.694,19.236-78.694,19.236l-99.556-30.019C172.831,150.071,169.379,148.696,169.508,142.071z"/>
	<polygon fill="#FFFFFF" points="191.262,144.071 249.012,130.946 328.887,149.321 262.182,166.235 	"/>
	<polygon fill="#6D5324" points="191.21,145.03 249.555,131.071 298.845,142.934 237.932,158.99 	"/>
	<path fill="#DC9D3B" d="M165.525,169.09c2.233,1.365,12.633,7.608,10.942,11.017c-1.225,2.468-11.242,0.983-13.372,0.983
		c-5.323,0-10.646,0-15.969,0c-12.44,0-24.971-0.048-37.429,0.334c-6.875,0.211-13.72,1.406-20.506,1.333
		c-4.022-0.043-15.643-0.439-17.008-4.659c-1.042-3.221,1.154-7.076,2.757-9.608c2.411-3.809,5.084-3.399,9.584-3.399"/>
	<path fill="#414042" d="M62.802,25.536L75.07,169.678c0,0-1.312,7.895,6.906,6.981c8.219-0.913,83.089-6.313,83.089-6.313
		s5.927,1.45,5.056-8.127c-0.872-9.578-12.562-140.348-12.562-140.348s1.996-5.354-6.839-4.825
		c-8.834,0.529-82.313,6.218-82.313,6.218S63.809,23.049,62.802,25.536z"/>
	<path fill="#EDEDED" d="M68.898,45.471l8.985,103.179c0,0-0.954,6.895,6.167,7.136c7.122,0.241,77.141-5.73,77.141-5.73
		s2.701,0.131,2.333-8.457c-0.369-8.587-9.357-100.971-9.357-100.971s1.808-4.116-6.968-3.869s-73.836,5.674-73.836,5.674
		S69.25,43.393,68.898,45.471z"/>
</g>
<g id="Layer_2">
	<text transform="matrix(0.9973 -0.074 0.074 0.9973 77.1177 45.9775)"><tspan x="0" y="0" fill="#58595B" font-family="'MyriadPro-Bold'" font-size="9">Places to work</tspan><tspan x="0" y="10" fill="#58595B" font-family="'MyriadPro-Bold'" font-size="9">remotely in your</tspan><tspan x="0" y="20" fill="#58595B" font-family="'MyriadPro-Bold'" font-size="9">neighbourhood</tspan></text>
	<path fill="none" stroke="#000000" stroke-width="2" stroke-miterlimit="10" d="M174.178,139.071l62.334-11.964
		c0,0,3.833-1.131,8.833,0s106.834,23.631,106.834,23.631s7,0.999,0,2.833s-77.167,19-77.167,19s-3.167,1.166-6.5,0
		s-95.681-29.5-95.681-29.5S165.096,140.814,174.178,139.071z"/>
	<path fill="none" stroke="#000000" stroke-width="2" stroke-miterlimit="10" d="M169.76,141.238
		c-1.335,7.751,3.071,8.833,3.071,8.833s92.348,28.334,95.681,29.5s6.5,0,6.5,0s70.167-17.166,77.167-19
		c0,0,4.239-1.567,3.036-8.325"/>
	<polygon fill="none" stroke="#000000" stroke-width="2" stroke-miterlimit="10" points="189.012,144.374 249.012,131.071 
		331.262,149.848 262.469,166.321 	"/>
	<line fill="none" stroke="#000000" stroke-width="2" stroke-miterlimit="10" x1="238.998" y1="158.99" x2="300.976" y2="142.934"/>
	<path fill="#FDB840" d="M280.619,151.452c-3.473,0.573-5.533,3.818-1.916,5.537c2.483,1.18,7.139,0.762,9.75-0.01
		c2.662-0.786,5.509-4.039,1.588-5.312c-3.139-1.019-7.927-0.87-11.019,0.034"/>
	<polygon fill="#FFFFFF" points="279.166,153.577 286.166,156.202 286.916,152.827 	"/>
	<path fill="none" stroke="#FFFFFF" stroke-miterlimit="10" d="M235.087,153.551c-1.857-0.029-4.495-1.214-6.15-2.033
		c0.639-0.701,2.77-2.116,3.821-1.462c1.577,0.981-0.322,2.429-1.504,2.662"/>
	<path fill="none" stroke="#FFFFFF" stroke-miterlimit="10" d="M235.754,148.385c-2.014,1.04,2.059,4.764,4.174,2.791
		c2.39-2.227-3.255-4.696-4.341-2.291"/>
	<path fill="none" stroke="#FFFFFF" stroke-miterlimit="10" d="M244.92,149.551c-1.575-0.148-2.931-1.201-4.153-1.95
		c1.112-0.734,5.225-1.943,5.954-0.383c0.906,1.94-1.856,2.611-3.134,2.5"/>
	<path fill="none" stroke="#FFFFFF" stroke-miterlimit="10" d="M251.42,145.218c-0.97-0.152-2.991,0.334-2.67,1.67
		c0.462,1.92,3.535,0.259,4.337-0.504"/>
	<path fill="none" stroke="#FFFFFF" stroke-miterlimit="10" d="M255.087,146.051c-0.649,0.245-1.433-0.371-1.341-1.175
		c0.118-1.019,0.873-0.743,1.717-0.862c1.72-0.243,3.316-0.466,4.291,1.204"/>
	<path fill="none" stroke="#FFFFFF" stroke-miterlimit="10" d="M254.087,145.884c1.208-0.698,2.363-0.988,3.667-1.5"/>
	<path fill="none" stroke="#FFFFFF" stroke-miterlimit="10" d="M262.254,142.218c-0.999-0.484-2.32,0.41-2.479,1.342
		c1.375,0.672,2.984-1.006,4.453-0.983c0.253,1.339-1.608,1.949-2.642,2.308"/>
	<path fill="none" stroke="#FFFFFF" stroke-miterlimit="10" d="M264.754,141.384c0.95-0.594,2.903-1.315,4-1.333"/>
	<path fill="none" stroke="#FFFFFF" stroke-miterlimit="10" d="M266.42,140.884c1.087-0.006,2.288,0.517,3.334,0.834"/>
	<path fill="none" stroke="#FFFFFF" stroke-miterlimit="10" d="M218.845,147.571c-0.247-0.207,0.243-0.356,0.595-0.563
		c1.077-0.636,2.307-1.035,3.444-1.545c0.534-0.24,2.524-1.541,2.878-1.392"/>
	<path fill="none" stroke="#FFFFFF" stroke-miterlimit="10" d="M222.595,145.905c1.233-0.062,2.473,0.493,3.667,0.666"/>
	<path fill="none" stroke="#FFFFFF" stroke-miterlimit="10" d="M230.845,144.905c-0.86,0.026-1.7-0.148-2.481-0.521
		c-0.934-0.445-0.664-0.706,0.224-1.25c0.505-0.31,3.189-1.362,3.323-0.146c0.101,0.91-2.357,1.308-2.952,1.756
		c1.538-0.683,3.46-1.112,5.137-0.756"/>
	<path fill="none" stroke="#FFFFFF" stroke-miterlimit="10" d="M235.512,143.571c-0.306-0.709-1.454-1.414-0.548-2.149
		c1.15-0.933,3.869-0.206,4.964,0.399"/>
	<path fill="none" stroke="#FFFFFF" stroke-miterlimit="10" d="M235.095,142.738c0.877-0.549,1.862-0.966,2.833-1.333"/>
	<path fill="none" stroke="#FFFFFF" stroke-miterlimit="10" d="M240.428,140.321c1.33-0.469,3.078,0.574,4.489,0.406
		c0.031-0.763-0.106-1.485-0.155-2.239"/>
	<path fill="none" stroke="#FFFFFF" stroke-miterlimit="10" d="M246.345,138.488c0.494,0.495,0.869,1.39,1.582,1.499
		c0.739,0.115,2.684-0.869,3.001-1.416"/>
	<path fill="none" stroke="#FFFFFF" stroke-miterlimit="10" d="M247.012,139.071c0.796-0.316,1.694-0.555,2.416-1"/>
	<path fill="none" stroke="#FFFFFF" stroke-miterlimit="10" d="M245.512,138.738c0.104-0.739,2.628-1.461,3.333-1.667"/>
	<path fill="none" stroke="#FFFFFF" stroke-miterlimit="10" d="M251.178,136.988c0.711,0.457,1.55,0.952,2.184,1.487
		c1.418-0.471,2.774-1.24,4.316-1.32"/>
	<path fill="none" stroke="#000000" stroke-width="2" stroke-miterlimit="10" d="M68.406,23.263
		c21.065-1.378,35.138-2.426,56.171-4.225c11.049-0.943-57.596,5.039-26.638,2.196c20.975-1.929-7.854,0.508,13.134-1.274
		c10.482-0.888,1.042,0.002,11.534-0.797c10.035-0.766,20.142-1.867,30.201-2.199c1.229-0.04,2.639-0.013,3.541,1.047
		c0.876,1.028,1.302,4.218,1.421,5.603"/>
	<path fill="none" stroke="#000000" stroke-width="2" stroke-miterlimit="10" d="M157.81,23.307
		c1.511,22.488,3.675,44.924,5.879,67.354c2.202,22.434,4.448,44.867,6.126,67.349c0.167,2.243,0.328,4.484,0.482,6.729
		c0.092,1.315,0.719,3.252-0.211,4.245c-1.127,1.197-4.213,1.308-5.727,1.407"/>
	<path fill="none" stroke="#000000" stroke-width="2" stroke-miterlimit="10" d="M164.52,170.431
		c-21.074,1.379-22.2,1.294-43.242,3.093c-21.023,1.793,14.75-1.245-6.261,0.688c-20.983,1.929,40.716-3.388,19.718-1.606
		c-10.485,0.892-14.001,1.134-24.493,1.935c-10.068,0.766-20.217,1.861-30.294,2.202c-1.115,0.037-2.524,0.267-3.428-0.642
		c-1.212-1.216-1.339-4.769-1.449-6.422"/>
	<path fill="none" stroke="#000000" stroke-width="2" stroke-miterlimit="10" d="M75.118,170.39
		c-1.509-22.436-3.674-44.82-5.885-67.195c-2.201-22.348-4.442-44.692-6.1-67.091c-0.149-2.024-0.295-4.055-0.435-6.081
		c-0.093-1.329-0.463-3.221,0.104-4.486c0.9-2.003,4.428-2.122,6.184-2.311"/>
	<path fill="none" stroke="#939598" stroke-width="2" stroke-miterlimit="10" d="M85.72,153.832
		c1.198,2.055,8.106-0.017,11.334,0.05c3.223,0.064,3.913,0.724,6.989,0.232c1.567-0.251,2.097-0.979,3.83-1.151
		c1.603-0.159,3.686,0.345,5.375,0.326c5.78-0.064,12.032-0.624,17.387-1.351c2.426-0.329,5.185-0.59,7.99-0.981
		c1.256-0.174,3.485-0.246,4.935-0.406c2.445-0.27,4.199-1.274,5.611,0.478"/>
	<path fill="none" stroke="#000000" stroke-width="2" stroke-miterlimit="10" d="M74.418,42.319
		c19.49-1.303-5.864,1.078,13.599-0.589c19.445-1.663-0.965,0.043,18.468-1.737c19.41-1.779-17.958,1.417,1.464-0.235
		c9.699-0.824,9.438-0.746,19.146-1.493c9.286-0.715,13.658-1.285,22.964-1.625c1.136-0.041,2.439-0.025,3.269,0.887
		c0.804,0.885,1.183,3.642,1.285,4.838"/>
	<path fill="none" stroke="#000000" stroke-width="2" stroke-miterlimit="10" d="M154.649,42.099
		c1.28,19.441,2.377,29.868,4.296,49.255c1.918,19.39,3.004,28.817,4.436,48.254c0.144,1.938,0.281,3.876,0.412,5.817
		c0.078,1.136,0.646,2.807-0.218,3.67c-1.05,1.042-3.903,1.155-5.306,1.249"/>
	<path fill="none" stroke="#000000" stroke-width="2" stroke-miterlimit="10" d="M158.418,150.379
		c-19.499,1.305-24.033,1.543-43.504,3.209c-19.454,1.662,17.888-1.526-1.555,0.257c-19.417,1.779-3.969,0.503-23.4,2.154
		c-16.677,1.424,28.402-2.643,25.674-2.432c-9.315,0.716-23.688,2.153-33.011,2.501c-1.032,0.039-2.336,0.244-3.167-0.536
		c-1.114-1.045-1.213-4.117-1.306-5.546"/>
	<path fill="none" stroke="#000000" stroke-width="2" stroke-miterlimit="10" d="M78.188,150.602
		c-1.276-19.396-2.288-28.782-4.214-48.123c-1.917-19.315-3.086-29.663-4.5-49.026c-0.127-1.75-0.252-3.505-0.37-5.257
		c-0.079-1.148-0.412-2.783,0.12-3.88c0.843-1.737,4.106-1.858,5.731-2.032"/>
	
		<rect x="80.754" y="93.361" transform="matrix(-0.9961 0.0878 -0.0878 -0.9961 201.7303 189.1252)" fill="#6D5324" stroke="#493419" stroke-width="2" stroke-miterlimit="10" width="31.901" height="11.28"/>
	<path fill="none" stroke="#FFFFFF" stroke-width="2" stroke-miterlimit="10" d="M87.269,99.352
		c-0.712,2.491,2.604,0.666,3.548,0.398c1.905-0.539,3.14,0.004,5.129-0.011c3.541-0.028,6.674-1.594,9.765-0.669"/>
	<path fill="none" stroke="#939598" stroke-width="2" stroke-miterlimit="10" d="M77.942,72.852
		c1.295,2.047,8.877-0.081,12.413-0.04c3.529,0.038,4.279,0.692,7.653,0.177c1.718-0.263,2.302-0.997,4.201-1.183
		c1.758-0.173,4.035,0.315,5.886,0.283c6.332-0.11,13.182-0.722,19.05-1.49c2.662-0.349,5.685-0.632,8.759-1.045
		c1.377-0.186,3.817-0.276,5.409-0.447c2.679-0.289,4.611-1.308,6.142,0.434"/>
	<path fill="none" stroke="#939598" stroke-width="2" stroke-miterlimit="10" d="M79.11,86.803c1.295,2.047,8.877-0.081,12.413-0.04
		c3.529,0.038,4.279,0.692,7.653,0.177c1.718-0.263,2.302-0.997,4.202-1.183c1.757-0.173,4.035,0.315,5.886,0.283
		c6.331-0.11,13.182-0.722,19.05-1.49c2.662-0.349,5.684-0.632,8.759-1.045c1.376-0.185,3.817-0.276,5.409-0.447
		c2.679-0.289,4.61-1.308,6.142,0.434"/>
	<path fill="none" stroke="#939598" stroke-width="2" stroke-miterlimit="10" d="M78.526,79.827
		c1.198,2.055,8.106-0.017,11.334,0.05c3.223,0.064,3.913,0.724,6.989,0.232c1.567-0.251,2.097-0.979,3.83-1.151
		c1.603-0.159,3.686,0.345,5.375,0.326c5.78-0.064,12.032-0.624,17.387-1.351c2.426-0.329,5.185-0.59,7.99-0.981
		c1.256-0.174,3.485-0.246,4.935-0.406c2.445-0.27,4.199-1.274,5.611,0.478"/>
	<text transform="matrix(0.9973 -0.074 0.074 0.9973 83.312 120.9824)"><tspan x="0" y="0" fill="#58595B" font-family="'MyriadPro-Bold'" font-size="9">Travel bundle:</tspan><tspan x="0" y="10" fill="#58595B" font-family="'MyriadPro-Bold'" font-size="9">Top 10 remote</tspan><tspan x="0" y="20" fill="#58595B" font-family="'MyriadPro-Bold'" font-size="9">work gadgets</tspan></text>
	<path fill="none" stroke="#939598" stroke-width="2" stroke-miterlimit="10" d="M85.136,146.856
		c1.295,2.047,8.877-0.081,12.413-0.04c3.529,0.038,4.279,0.692,7.653,0.177c1.718-0.263,2.302-0.997,4.201-1.183
		c1.758-0.173,4.035,0.315,5.886,0.283c6.332-0.11,13.182-0.722,19.05-1.49c2.662-0.349,5.685-0.632,8.759-1.045
		c1.377-0.186,3.817-0.276,5.409-0.447c2.679-0.289,4.611-1.308,6.142,0.434"/>
	<path fill="#414042" d="M74.418,41.333c0,0,50.749-2.161,59.749-4.706S96.583,34,86.25,35.917S71.687,40.525,74.418,41.333z"/>
</g>
</svg>
