<?xml version="1.0" encoding="utf-8"?>
<!-- Generator: Adobe Illustrator 15.1.0, SVG Export Plug-In . SVG Version: 6.00 Build 0)  -->
<!DOCTYPE svg PUBLIC "-//W3C//DTD SVG 1.1//EN" "http://www.w3.org/Graphics/SVG/1.1/DTD/svg11.dtd">
<svg version="1.1" xmlns="http://www.w3.org/2000/svg" xmlns:xlink="http://www.w3.org/1999/xlink" x="0px" y="0px" width="400px"
	 height="200px" viewBox="0 0 400 200" enable-background="new 0 0 400 200" xml:space="preserve">
<g id="Layer_3">
	<path fill="#DC9D3B" d="M150.333,170c-2.233,1.365-12.633,7.608-10.942,11.017c1.225,2.468,11.242,0.983,13.373,0.983
		c5.323,0,10.646,0,15.968,0c12.44,0,24.971-0.048,37.429,0.334c6.875,0.211,13.72,1.406,20.506,1.333
		c4.022-0.043,15.643-0.439,17.008-4.659c1.042-3.221-1.154-7.076-2.757-9.608c-2.411-3.809-5.084-3.399-9.584-3.399"/>
	<path fill="#414042" d="M153.71,17.031l-10.055,144.312c0,0-2.512,7.599,5.75,7.961s83.071,6.546,83.071,6.546
		s5.633,2.345,6.245-7.253s9.182-140.609,9.182-140.609s2.795-4.983-6.016-5.82s-82.29-6.521-82.29-6.521
		S155.087,14.729,153.71,17.031z"/>
	<path fill="#EDEDED" d="M156.667,37.667L149.671,141c0,0-2.004,6.666,4.996,8s77.104,6.206,77.104,6.206s2.648,0.545,3.605-7.997
		S241.667,46,241.667,46s2.42-3.789-6.29-4.895s-73.83-5.754-73.83-5.754S157.334,35.667,156.667,37.667z"/>
</g>
<g id="Layer_2">
	<path fill="none" stroke="#000000" stroke-width="2" stroke-miterlimit="10" d="M159.598,15.647
		c21.026,1.879,35.093,3.009,56.152,4.468c11.062,0.768-57.686-3.882-26.658-1.929c21.021,1.321-7.838-0.707,13.174,0.762
		c10.494,0.735,1.029,0.163,11.52,0.987c10.033,0.788,20.189,1.254,30.18,2.474c1.221,0.149,2.609,0.393,3.338,1.58
		c0.707,1.15,0.638,4.368,0.542,5.754"/>
	<path fill="none" stroke="#000000" stroke-width="2" stroke-miterlimit="10" d="M247.93,29.446
		c-1.967,22.453-3.281,44.955-4.554,67.456c-1.275,22.506-2.508,45.017-4.31,67.489c-0.18,2.242-0.365,4.481-0.558,6.724
		c-0.112,1.313,0.21,3.323-0.862,4.161c-1.298,1.01-4.363,0.645-5.875,0.51"/>
	<path fill="none" stroke="#000000" stroke-width="2" stroke-miterlimit="10" d="M231.924,175.851
		c-21.035-1.88-22.135-2.138-43.203-3.598c-21.049-1.463,14.767,1.04-6.292-0.283c-21.03-1.323,40.753,2.917,19.73,1.446
		c-10.498-0.732-14.009-1.034-24.499-1.857c-10.065-0.792-20.262-1.271-30.272-2.484c-1.107-0.135-2.535-0.125-3.289-1.162
		c-1.011-1.388-0.59-4.917-0.444-6.568"/>
	<path fill="none" stroke="#000000" stroke-width="2" stroke-miterlimit="10" d="M143.593,162.055
		c1.96-22.4,3.265-44.852,4.524-67.301c1.263-22.42,2.487-44.843,4.295-67.23c0.164-2.023,0.332-4.052,0.506-6.075
		c0.113-1.327,0.038-3.253,0.792-4.417c1.198-1.841,4.702-1.416,6.466-1.332"/>
	<path fill="none" stroke="#000000" stroke-width="2" stroke-miterlimit="10" d="M162.606,35.402
		c19.458,1.711-5.96,0.163,13.527,1.51c19.469,1.349-0.96-0.106,18.516,1.125c19.452,1.229-17.962-1.362,1.482-0.007
		c9.71,0.678,9.44,0.715,19.148,1.47c9.285,0.723,13.692,0.832,22.94,1.927c1.129,0.134,2.414,0.351,3.094,1.379
		c0.658,0.998,0.608,3.78,0.525,4.978"/>
	<path fill="none" stroke="#000000" stroke-width="2" stroke-miterlimit="10" d="M241.916,47.528
		c-1.727,19.407-2.247,29.878-3.333,49.33c-1.089,19.454-1.467,28.937-3.042,48.361c-0.156,1.937-0.318,3.873-0.488,5.812
		c-0.098,1.135,0.208,2.873-0.779,3.593c-1.197,0.868-4.035,0.541-5.435,0.418"/>
	<path fill="none" stroke="#000000" stroke-width="2" stroke-miterlimit="10" d="M228.98,155.099
		c-19.468-1.711-23.984-2.173-43.48-3.522c-19.478-1.351,17.91,1.244-1.576,0.015c-19.46-1.229-4-0.114-23.453-1.472
		c-16.697-1.159,28.471,1.759,25.742,1.547c-9.314-0.726-23.738-1.517-33.003-2.607c-1.025-0.12-2.346-0.118-3.047-1.017
		c-0.94-1.204-0.565-4.255-0.438-5.682"/>
	<path fill="none" stroke="#000000" stroke-width="2" stroke-miterlimit="10" d="M149.671,142.975
		c1.723-19.361,2.167-28.791,3.24-48.198c1.077-19.38,1.515-29.785,3.096-49.135c0.144-1.75,0.291-3.502,0.443-5.251
		c0.099-1.147,0.021-2.813,0.715-3.815c1.1-1.587,4.343-1.205,5.976-1.126"/>
	
		<rect x="157.719" y="128.26" transform="matrix(-0.9978 -0.0665 0.0665 -0.9978 377.3215 283.8362)" fill="#6D5324" stroke="#493419" stroke-width="2" stroke-miterlimit="10" width="71.336" height="14.75"/>
	<path fill="none" stroke="#FFFFFF" stroke-width="2" stroke-miterlimit="10" d="M172.389,133.607
		c-2.281,3.02,5.579,1.541,7.747,1.445c4.371-0.192,6.953,0.83,11.363,1.334c7.85,0.893,15.232-0.297,21.818,1.705"/>
	<text transform="matrix(0.9968 0.0803 -0.0803 0.9968 161.5469 67.0239)"><tspan x="0" y="0" fill="#58595B" font-family="'MyriadPro-Bold'" font-size="11.3349">Free webinar:</tspan><tspan x="0" y="12.279" fill="#58595B" font-family="'MyriadPro-Bold'" font-size="11.3349">Best places to</tspan><tspan x="0" y="24.559" fill="#58595B" font-family="'MyriadPro-Bold'" font-size="11.3349">work remotely</tspan></text>
	<path fill="none" stroke="#939598" stroke-width="2" stroke-miterlimit="10" d="M159.089,100.592
		c0.965,2.222,8.784,1.286,12.271,1.87c3.481,0.581,4.122,1.343,7.535,1.353c1.738,0.005,2.428-0.631,4.333-0.522
		c1.763,0.1,3.938,0.933,5.772,1.186c6.273,0.865,13.136,1.315,19.053,1.459c2.684,0.064,5.714,0.25,8.815,0.314
		c1.389,0.029,3.814,0.314,5.413,0.391c2.691,0.127,4.757-0.583,6.002,1.373"/>
	<path fill="none" stroke="#939598" stroke-width="2" stroke-miterlimit="10" d="M158.097,114.557
		c0.965,2.222,8.784,1.286,12.271,1.87c3.481,0.581,4.122,1.343,7.535,1.353c1.738,0.005,2.428-0.631,4.333-0.522
		c1.763,0.1,3.938,0.933,5.772,1.186c6.273,0.865,13.136,1.315,19.053,1.459c2.684,0.064,5.714,0.25,8.815,0.314
		c1.389,0.029,3.814,0.314,5.413,0.391c2.691,0.127,4.757-0.583,6.002,1.373"/>
	<path fill="none" stroke="#939598" stroke-width="2" stroke-miterlimit="10" d="M158.593,107.574
		c0.867,2.215,8.012,1.231,11.192,1.793c3.175,0.56,3.755,1.317,6.87,1.306c1.587-0.007,2.222-0.646,3.961-0.549
		c1.608,0.089,3.589,0.908,5.261,1.149c5.721,0.825,11.985,1.234,17.388,1.341c2.447,0.048,5.214,0.215,8.046,0.259
		c1.268,0.021,3.481,0.293,4.938,0.358c2.457,0.109,4.345-0.613,5.471,1.335"/>
</g>
</svg>
