<svg xmlns="http://www.w3.org/2000/svg" viewBox="0 0 180 120" enable-background="new 0 0 180 120"><g><ellipse fill="#E2E2E2" cx="89.5" cy="86.4" rx="74.8" ry="29.5"/><path fill="#CC4E48" d="M129.3 55.3c3.7-4.3 5.8-9.8 5.8-15.9 0-13.7-11.3-24.8-25.3-24.8-8.3 0-15.7 3.9-20.3 10l2.5.7c-4.6-6.5-12.2-10.7-20.8-10.7-14 0-25.3 11.1-25.3 24.8 0 6 2.2 11.5 5.8 15.8 0 0 33.2 37.7 38.8 37.7 6.3 0 38.8-37.6 38.8-37.6z"/><path fill="#DB5A5A" d="M126.8 23.3c-2.9-4.3-7.9-6.8-13-7.7-8.5-1.5-17.6 1.2-23.9 7l-.4-.1c-3.2-4.8-9.3-6.8-15.1-7.5-2.6-.3-5.8-.4-9.1 0-1.7.6-3.4 1.2-5.1 1.9-1 .6-2 1.2-2.9 2-2.3 2-4.2 4.4-6.5 6.3-1.3 5.3 1.4 10.8 7.4 12.7 3.6 1.1 7.6.9 11.3.3 7.9-1.2 15.8-3.8 23.7-2.5 5.9 1 11.2 4 17 5.6 5.8 1.6 12.8 1.2 16.6-3.4 3.2-4.2 2.9-10.4 0-14.6z"/><path fill="#EA6868" d="M68.3 38.1c8.2-1.1 16.4-4.1 24.6-2.7 6.9 1.2 13 5.4 19.9 6.1-6.3-.3-12.2-3.5-18.4-4.5-7.5-1.3-15.2.6-22.7 1.8-3.3.5-6.7.8-9.8-.5 1.1 0 2.2-.1 3.3-.1"/></g><g><path fill="#753121" d="M91.3 23.5c6.7-8.7 21.7-9.7 30.5-4.4 9.8 5.9 15.3 18.7 10 29.4-4.2 8.6-12.4 16.1-19 22.9-7.3 7.5-15 14.3-23.1 20.9-1 .8.4 2.2 1.4 1.4C102 85 112.2 75.4 121.4 65c7.3-8.2 15.7-16.8 14.1-28.6-1.4-10-8.8-18.3-18.4-21.3-8.6-2.7-21.7.1-27 7.8-.4.6.7 1.2 1.2.6zM91.1 22.8c-5.2-7.6-17.9-10.5-26.3-8-9.9 2.8-17.7 11.2-19.1 21.5-1.6 11.6 6.4 19.9 13.4 28 9.2 10.6 19.2 20.5 30.2 29.3 1 .8 2.4-.6 1.4-1.4-7.7-6.3-15.1-13-21.9-20.2-6.7-7-15-14.8-19.3-23.5-5.2-10.5 0-22.9 9.4-29 8.9-5.7 24.2-4.8 31.1 4.1.4.5 1.6-.1 1.1-.8z"/></g></svg>