<?xml version="1.0" encoding="utf-8"?>
<!-- Generator: Adobe Illustrator 15.1.0, SVG Export Plug-In . SVG Version: 6.00 Build 0)  -->
<!DOCTYPE svg PUBLIC "-//W3C//DTD SVG 1.1//EN" "http://www.w3.org/Graphics/SVG/1.1/DTD/svg11.dtd">
<svg version="1.1" xmlns="http://www.w3.org/2000/svg" xmlns:xlink="http://www.w3.org/1999/xlink" x="0px" y="0px"
	 width="237.528px" height="136.75px" viewBox="0 0 237.528 136.75" enable-background="new 0 0 237.528 136.75"
	 xml:space="preserve">
<g id="Layer_2">
	<path fill="#D06F28" d="M25.407,90.75c-0.102,1.114-0.275,2.271-0.436,3.378c-0.054,0.376-0.134,0.833-0.361,1.136
		c-0.336,0.447-0.53,0.31-1.062,0.36c-0.581,0.055-1.131,0.315-1.704,0.376c-0.455,0.048-0.923-0.043-1.378,0
		c-0.604,0.058-1.815,0.483-1.737,1.303c1.57,0.323,3.43,0.133,5.004-0.102c0.547-0.081,1.508-0.006,1.986-0.264
		c0.524-0.283,0.315-0.501,0.312-1.062c-0.004-1.009,0.312-2.04,0.372-3.062c0.052-0.896,0.571-2.33-0.809-2.251"/>
	<path fill="#1C8B56" d="M14.25,67.834c0.349-0.271,0.477-1.362,0.811-1.852c0.331-0.485,0.814-0.997,1.354-1.252
		c1.074-0.509,2.964-0.486,4.085-0.062c2.796,1.059,2.875,5.285,2.75,7.75c-0.02,0.388,0.133,1.192,0.148,1.581
		c-1.313,0.066-2.848-0.435-4.129-0.602c-0.405-0.053-1.405-0.01-1.664-0.418c-0.233-0.368,0.184-0.918,0.147-1.397
		c-0.104-1.364-1.107-0.955-2.022-1.394c-0.755-0.362-1.545-1.527-1.563-2.354"/>
	<path fill="#CDC779" d="M14.25,68.001c-0.539,1.124-1.465,2.508-2.435,3.314c-0.35,0.291-1.425,0.622-1.131,1.25
		c0.262,0.561,1.405,0.215,1.798,0.083c1.044-0.35,2.402-0.878,3.202-1.711c0.882-0.919,0.266-2.91-1.267-2.855
		c-0.177,0.007-0.422,0.087-0.583,0.169"/>
	<path fill="#857D74" d="M17.583,72.334c-3.154,0.488-5.66,3.463-6.396,6.415c-0.799,3.203,1.395,6.563,3.984,8.229
		c0.448,0.288,1.118,0.97,1.685,0.712c0.394-0.179,0.86-1.22,1.061-1.605c0.634-1.22,0.85-2.541,1.253-3.833
		c0.237-0.761,0.651-1.246,1.021-1.917c0.41-0.745,0.604-1.469,1.147-2.173c0.545-0.705,1.167-1.293,1.809-1.91
		c0.2-0.193,1.938-1.141,1.945-1.167c0.059,0.008,0.083-0.012,0.069-0.06c-0.625-0.263-1.16-0.727-1.762-1.025
		c-0.722-0.358-1.615-0.607-2.4-0.896c-0.642-0.236-1.341-0.472-2-0.602C18.282,72.36,17.681,72.65,17,72.584"/>
	<path fill="#C6C9CA" d="M24.833,75.084c3.311-0.88,7.241,1.436,9.75,3.314c2.735,2.049,5.192,4.677,8.333,6.206
		c0.665,0.324,1.372,0.565,2.083,0.731c0.546,0.128,1.521,0.113,1.929,0.494c-0.581,1.21-2.916,1.535-4.077,1.589
		c-1.748,0.08-3.254-0.364-4.856-0.979C33.721,84.8,29.8,82.4,25.852,80.165c-1.053-0.596-2.144-1.033-3.269-1.397
		c-0.822-0.267-1.613-0.362-1.102-1.267c0.875-1.548,2.526-2.17,4.102-2.5"/>
	<path fill="#D7DAD6" d="M16.25,87.667c2.3,1.543,5.072,3.011,7.833,3.589c2.895,0.605,5.865,0.807,8.917,0.661
		c2.404-0.114,5.523-0.795,7.413-2.397c0.837-0.71,2.043-2.522,0.504-2.849c-1.595-0.338-2.812-0.376-4.169-1.48
		c-1.599-1.304-3.553-2.404-5.452-3.255c-2.05-0.917-3.925-2.247-6.046-3c-1.559-0.554-3.239-1.303-4.833-0.622
		c-1.394,0.595-2.352,1.522-3.146,2.791c-0.89,1.422-2.008,5.572-0.354,6.812"/>
	<path fill="#D06F28" d="M28.167,91.812c-0.102,1.114-0.275,2.271-0.436,3.378c-0.054,0.376-0.134,0.833-0.361,1.136
		c-0.336,0.447-0.53,0.31-1.062,0.36c-0.581,0.055-1.131,0.315-1.704,0.376c-0.455,0.048-0.923-0.043-1.378,0
		c-0.604,0.058-1.815,0.483-1.737,1.303c1.57,0.323,3.43,0.133,5.004-0.102C27.04,98.183,28,98.258,28.479,98
		c0.524-0.283,0.315-0.501,0.312-1.062c-0.004-1.009,0.312-2.04,0.372-3.062c0.052-0.896,0.571-2.33-0.809-2.251"/>
</g>
<g id="Layer_4">
	<path fill="#E8BE9E" d="M205.387,109.498c0,0-6.295,5.4-17.789,5.857s-29.032-5.426-29.032-5.426l-1.24,1.158
		c0,0,7.667,6.975,24.535,6.287s22.477-4.095,22.868-5.5S205.387,109.498,205.387,109.498z"/>
	<path fill="#F3D1B3" d="M182.924,91.703c-12.174-1.036-14.365-0.659-14.365-0.659l-3.711,8.546l1.742,3.412l-3.87,0.29
		l-4.357,6.962c0,0,9.131,5.718,22.134,5.273s25.688-1.865,25.555-9.946S195.098,92.739,182.924,91.703z M176.241,101.611
		c-1.932-0.047-3.676-0.865-4.979-2.289c-0.312-0.34-0.324-0.71-0.178-1.006c-0.121-0.446,0.035-0.999,0.587-1.21
		c1.23-0.472,2.913-0.133,4.138,0.203c1.278,0.351,2.637,0.859,2.995,2.282C179.183,101.096,177.374,101.639,176.241,101.611z"/>
	<path fill="#E8BE9E" d="M170.604,98.5c0.484-0.542,0.549-0.979,1.359-1.328c0.646-0.277,1.336-0.423,2.044-0.422
		c1.139,0.003,2.537,0.46,3.484,1.047c0.642,0.398,2.024,1.596,1.378,2.517c-0.364,0.519-2.666-0.846-3.327-1.017
		c-0.865-0.225-1.745-0.311-2.626-0.438c-0.562-0.08-1.869,0.108-2.125-0.484"/>
	<path fill="#E8BE9E" d="M165.083,100.583c0.107,0.369,0.543,0.608,0.784,0.905c0.196,0.243,0.411,0.571,0.561,0.847
		c0.423,0.784-0.543,1.04-1.242,0.8c-0.529-0.182-1.063-1.013-1.187-1.552c-0.146-0.638,0.219-0.789,0.793-0.791"/>
	<path opacity="0.25" fill="#E39C94" d="M178.948,103.753c-1.624-0.32-1.374-0.107-2.084-0.109
		c-1.142-0.001-2.198,0.469-3.096,1.177c-1.811,1.425-1.175,2.821,0.39,4.259c2.138,1.965,5.407,2.827,8.257,2.997
		c2.397,0.144,5.985,0.098,7.905-1.514c1.024-0.86,1.525-2.779,0.76-3.973c-0.863-1.346-3.176-1.837-4.572-2.413
		c-2.834-1.17-6.219-1.605-9.184-0.744"/>
	<path opacity="0.3" fill="#BFD686" d="M186.75,98.75c-1.579-0.561-4.52,0.471-5.047,2.13c-0.452,1.422-0.188,2.988,0.837,4.037
		c1.189,1.217,2.766,1.369,4.268,2c1.88,0.789,3.648,0.314,5.587,0.147c1.057-0.091,2.138-0.125,3.203-0.147
		c1.045-0.021,2.284,0.208,3.138-0.541c1.34-1.176,0.197-2.573-0.466-3.692c-0.634-1.07,0.761-1.447,0.143-2.573
		c-0.567-1.035-2.172-1.391-3.18-1.738c-1.84-0.635-3.795-0.917-5.685-1.354c-0.892-0.205-3.216-0.957-3.859,0.248
		c-0.459,0.858,0.49,1.132,1.073,1.569c-0.155,0.141-0.363,0.173-0.595,0.164"/>
</g>
<g id="Layer_3">
	<line fill="none" stroke="#D8B593" stroke-miterlimit="10" x1="164.042" y1="101.719" x2="164.848" y2="103.083"/>
	<path fill="none" stroke="#D8B593" stroke-miterlimit="10" d="M205.792,107.312c0.052,0.188-1.062,4.562-1.062,4.562
		s-3.924,5.812-22.868,5.5s-22.577-4.498-24.729-6.468"/>
	<g>
		<path fill="#808285" d="M153.076,31.494l11.764-9.013l0.645,2.898l-8.954,6.552l0.012,0.055l10.887,2.14l0.645,2.896
			l-14.475-3.178L153.076,31.494z"/>
		<path fill="#808285" d="M172.351,30.593l-0.213-0.699c-0.492-1.438-0.359-3.161,0.644-5.104c0.907-1.723,1.354-2.94,1.08-4.17
			c-0.311-1.394-1.391-2.129-3.12-1.773c-0.983,0.219-2.004,0.79-2.571,1.461l-1.039-1.576c0.756-0.856,2.217-1.64,3.665-1.962
			c3.144-0.699,4.997,0.926,5.459,3.002c0.413,1.858-0.328,3.43-1.293,5.279c-0.888,1.688-1.058,2.988-0.665,4.364l0.186,0.705
			L172.351,30.593z M172.601,34.553c-0.226-1.011,0.3-1.874,1.256-2.087c0.957-0.213,1.771,0.353,1.996,1.364
			c0.213,0.956-0.252,1.833-1.263,2.059C173.633,36.102,172.813,35.509,172.601,34.553z"/>
		<path fill="#808285" d="M194.123,24.919L182.34,33.85l-0.645-2.897l9.174-6.601l-0.012-0.055l-11.106-2.091l-0.645-2.897
			l14.456,3.096L194.123,24.919z"/>
	</g>
	<polyline fill="none" stroke="#6D6E71" stroke-linecap="round" stroke-linejoin="round" stroke-miterlimit="10" points="
		49.417,62.125 3.167,62.125 1.917,99.5 56.979,99.5 	"/>
	<polyline fill="none" stroke="#A7A9AC" stroke-linecap="round" stroke-linejoin="round" stroke-miterlimit="10" points="
		25.542,20.25 18.417,40.125 53.053,50.165 	"/>
	
		<line fill="none" stroke="#A7A9AC" stroke-linecap="round" stroke-linejoin="round" stroke-miterlimit="10" x1="41.292" y1="24" x2="64.689" y2="30.535"/>
	<path fill="#F1F2F2" stroke="#808285" stroke-miterlimit="10" d="M169.57,54.153c0.722-0.153,33.472-1.028,33.472-1.028l0.75,25
		l-31.875,0.625"/>
	<circle fill="#F1F2F2" stroke="#808285" stroke-miterlimit="10" cx="174.966" cy="82.167" r="1.367"/>
	<circle fill="#808285" stroke="#808285" stroke-miterlimit="10" cx="179.599" cy="82.167" r="1.367"/>
	<circle fill="#808285" stroke="#808285" stroke-miterlimit="10" cx="184.292" cy="82.167" r="1.367"/>
	<path fill="none" stroke="#808285" stroke-miterlimit="10" d="M203.61,72.08"/>
	<polygon fill="#808285" points="172.333,72.9 203.61,72.08 203.792,78.125 171.917,78.75 	"/>
	<path fill="none" stroke="#FFFFFF" stroke-linecap="round" stroke-linejoin="round" stroke-miterlimit="10" d="M171.729,75.625
		c0.089,0.303,0.21,0.703,0.593,0.696c0.409-0.008,0.63-0.788,0.969-0.768c0.371,0.022,0.268,0.567,0.782,0.499
		c0.138-0.018,0.284-0.249,0.447-0.291c0.236-0.062,0.523,0.055,0.771,0.051"/>
	<path fill="none" stroke="#FFFFFF" stroke-linecap="round" stroke-linejoin="round" stroke-miterlimit="10" d="M176.292,75.812
		c-0.163,1.104,0.797,0.186,1.062-0.07c0.246,0.252,0.719,0.196,0.997,0.271c0.429,0.117,0.36,0.235,0.815,0.112
		c0.293-0.078,0.388-0.3,0.75-0.251"/>
	<path fill="none" stroke="#FFFFFF" stroke-linecap="round" stroke-linejoin="round" stroke-miterlimit="10" d="M180.792,75.875
		c0.015,0.918,0.943-0.235,1.191-0.306c0.247,0.583,0.556,0.265,0.934,0.193c0.396-0.075,0.489-0.037,0.875-0.013
		c0.692,0.043,1.675,0.15,2.312-0.062"/>
	<path fill="none" stroke="#D8B593" stroke-miterlimit="10" d="M164.917,100.125c0.249,1.138,1.386,2.043,2.237,2.85
		c-1.629,0.107-3.162-0.022-4.612,0.65"/>
	<path fill="none" stroke="#D8B593" stroke-miterlimit="10" d="M168.559,91.044c0.982,0.081,30.107-1.044,36.107,9.956
		s-8.375,15-25.375,14.5s-21.625-5.87-21.625-5.87"/>
	
		<circle fill="#E0615C" stroke="#9C4B3B" stroke-width="1.2" stroke-linecap="round" stroke-miterlimit="10" cx="110.667" cy="71" r="61.25"/>
	
		<circle fill="#F1F2F2" stroke="#9C4B3B" stroke-width="1.2" stroke-linecap="round" stroke-miterlimit="10" cx="110.667" cy="71" r="47"/>
	
		<circle fill="#E0615C" stroke="#9C4B3B" stroke-width="1.2" stroke-linecap="round" stroke-miterlimit="10" cx="110.667" cy="71" r="33.25"/>
	
		<circle fill="#F1F2F2" stroke="#9C4B3B" stroke-width="1.2" stroke-linecap="round" stroke-miterlimit="10" cx="110.667" cy="71" r="21.75"/>
	
		<circle fill="#E0615C" stroke="#9C4B3B" stroke-width="1.2" stroke-linecap="round" stroke-miterlimit="10" cx="110.667" cy="71" r="9.75"/>
	<path fill="none" stroke="#D8B593" stroke-miterlimit="10" d="M175.917,97.25c1.86,0.524,3.47,1.104,3.127,3.127
		c-0.346,2.045-4.337,1.271-5.752,0.785c-1.361-0.467-3.562-2.289-1.784-3.693C172.683,96.541,174.719,96.845,175.917,97.25"/>
	<path fill="none" stroke="#808285" stroke-miterlimit="10" d="M172.333,72.9"/>
	<polyline fill="#A7A9AC" stroke="#808285" stroke-linecap="round" stroke-linejoin="round" stroke-miterlimit="10" points="
		29.042,8.875 25.542,19.625 41.292,24 44.417,12.625 29.417,8.875 	"/>
	<path fill="none" stroke="#F1F2F2" stroke-linecap="round" stroke-linejoin="round" stroke-miterlimit="10" d="M31.601,13.156
		c0.188-0.062,8.25,2.188,8.25,2.188"/>
	<path fill="none" stroke="#F1F2F2" stroke-linecap="round" stroke-linejoin="round" stroke-miterlimit="10" d="M30.913,15.345
		c0.188-0.062,8.25,2.188,8.25,2.188"/>
	<path fill="none" stroke="#F1F2F2" stroke-linecap="round" stroke-linejoin="round" stroke-miterlimit="10" d="M30.108,17.533
		c0.188-0.062,8.25,2.188,8.25,2.188"/>
	<path fill="none" stroke="#939598" stroke-linecap="round" stroke-linejoin="round" stroke-miterlimit="10" d="M27.979,24.5
		c0.117,0.441,0.117,1.065,0.62,1.301c0.674,0.315,1.288-0.507,1.958-0.293c0.678,0.217,1.007,1.274,1.641,1.607
		c0.636,0.334,1.13-0.172,1.781-0.181c0.827-0.011,1.076,0.861,1.922,0.88c0.891,0.021,1.396-0.4,2.217,0.014
		c0.905,0.457,1.293,0.335,2.319,0.416c0.562,0.044,1.008,0.332,1.528,0.522c0.691,0.253,1.409,0.298,2.139,0.358"/>
	<path fill="none" stroke="#939598" stroke-linecap="round" stroke-linejoin="round" stroke-miterlimit="10" d="M26.022,30.043
		c-0.101,0.767,0.376,0.901,1.064,0.817c0.351-0.044,0.748-0.305,1.11-0.184c0.357,0.118,0.554,0.562,0.84,0.788
		c0.625,0.491,1.066,0.218,1.815,0.265c0.849,0.054,1.458,0.85,2.373,0.941c0.338,0.034,0.727-0.082,1.057,0.003
		c0.564,0.145,0.898,0.655,1.426,0.889c1.144,0.507,2.357-0.407,3.311,0.306c0.974,0.728,1.343,0.87,2.582,0.813
		c1.367-0.062,2.449,0.997,3.859,0.924"/>
	<path fill="none" stroke="#939598" stroke-linecap="round" stroke-linejoin="round" stroke-miterlimit="10" d="M24.027,35.207
		c0.081,1.144,2.317,0.477,3.02,0.622c0.557,0.115,0.572,0.68,1.057,0.868c0.274,0.107,0.534-0.118,0.771-0.104
		c0.333,0.019,0.313,0.085,0.621,0.226c0.543,0.248,0.922,0.244,1.488,0.384c0.353,0.088,0.591,0.321,0.916,0.43
		c0.376,0.126,0.831,0.021,1.179,0.147c0.618,0.223,0.834,0.899,1.51,0.993c0.291,0.04,0.585-0.14,0.87-0.063
		c0.469,0.126,0.917,0.716,1.381,0.936"/>
	<path fill="none" stroke="#FFFFFF" stroke-linecap="round" stroke-linejoin="round" stroke-miterlimit="10" d="M16.954,80.179
		c0.687,0.544,0.777,1.76,1.625,2.109c1.168,0.481,1.94-0.847,2.909-1.109c1.339-0.362,0.705,0.297,1.932,1.009
		c1.078,0.625,1.851-0.018,2.815-0.509c1.342-0.682,0.998-0.285,2.185,0.35c1.371,0.733,1.444-0.214,2.79-0.483
		c1.561-0.312,4.118-0.138,5.62,0.259"/>
	<path fill="none" stroke="#2E3192" stroke-linecap="round" stroke-linejoin="round" stroke-miterlimit="10" d="M26.917,96.25
		c-0.175,0.282,0.617,0.966,0.9,1.493c0.54-0.425,0.821-1.223,1.35-1.743"/>
	<path fill="none" stroke="#2E3192" stroke-linecap="round" stroke-linejoin="round" stroke-miterlimit="10" d="M5.104,64.188
		c0.751-0.261,1.896-0.049,2.688,0"/>
	<path fill="none" stroke="#2E3192" stroke-linecap="round" stroke-linejoin="round" stroke-miterlimit="10" d="M5.167,65.312
		c0.779-0.021,1.7-0.168,2.438,0.062"/>
	<path fill="none" stroke="#2E3192" stroke-linecap="round" stroke-linejoin="round" stroke-miterlimit="10" d="M4.979,66.438
		c0.909,0,1.784,0.062,2.688,0.062"/>
	<path fill="none" stroke="#D8B593" stroke-miterlimit="10" d="M171.042,99.25c0.871-1.146,3.493-0.372,4.625-0.141
		c1.099,0.226,2.872,0.691,3.062,1.953"/>
</g>
</svg>
