<?xml version="1.0" encoding="utf-8"?>
<!-- Generator: Adobe Illustrator 15.1.0, SVG Export Plug-In . SVG Version: 6.00 Build 0)  -->
<!DOCTYPE svg PUBLIC "-//W3C//DTD SVG 1.1//EN" "http://www.w3.org/Graphics/SVG/1.1/DTD/svg11.dtd">
<svg version="1.1" id="Layer_2" xmlns="http://www.w3.org/2000/svg" xmlns:xlink="http://www.w3.org/1999/xlink" x="0px" y="0px"
	 width="237.528px" height="116.5px" viewBox="0 0 237.528 116.5" enable-background="new 0 0 237.528 116.5" xml:space="preserve">
<path fill="#E6E7E8" d="M40.057,24v-7.138c0,0,1.183-7.792,9.4-7.792c8.217,0,139.922,0,139.922,0s7.922,2.055,7.922,10.273
	c0,2.74,0,4.656,0,4.656H40.057z"/>
<path fill="#414042" d="M191.786,110.841c1.97-0.398,4.504-2.339,4.608-4.517c0.027-0.582,0.454-0.889,0.907-0.942V24H40.057v81.993
	c1.105,0.878,1.875,2.035,2.922,3.002c1.037,0.956,2.242,1.663,3.433,2.397h144.743C191.26,111.127,191.464,110.905,191.786,110.841
	z"/>
<path fill="#A7A9AC" d="M187.901,112.215H49.458c-3.646,0-6.394-1.06-8.168-3.151c-2.638-3.109-2.144-7.379-2.054-8.005V19.344
	c-0.015-0.132-0.383-4.904,2.623-8.177c1.778-1.937,4.335-2.919,7.599-2.919h138.443c10.104,0,10.222,10.984,10.222,11.096v81.775
	c0.021,0.062,0.74,4.652-2.054,7.944C194.294,111.155,191.546,112.215,187.901,112.215z M40.879,103.946
	c0.167,1.286,0.608,2.814,1.671,4.062c1.448,1.7,3.772,2.562,6.907,2.562h138.443c3.141,0,5.467-0.865,6.914-2.57
	c2.307-2.719,1.682-6.708,1.675-6.748l-0.011-81.909c-0.001-0.386-0.124-9.452-8.578-9.452H49.458c-2.78,0-4.927,0.802-6.381,2.38
	c-2.518,2.731-2.204,6.961-2.201,7.003L40.879,103.946z"/>
<rect x="40.057" y="23.179" fill="#A7A9AC" width="157.244" height="1.644"/>
<rect x="183.882" y="16.039" transform="matrix(0.7072 0.707 -0.707 0.7072 66.7079 -127.3498)" fill="#A7A9AC" width="6.441" height="1.643"/>
<rect x="186.28" y="13.641" transform="matrix(0.7071 0.7071 -0.7071 0.7071 66.7233 -127.3627)" fill="#A7A9AC" width="1.643" height="6.441"/>
<rect x="52.059" y="35.235" fill="#F1F2F2" width="9.496" height="1.644"/>
<rect x="63.014" y="35.235" fill="#8DC63F" width="9.496" height="1.644"/>
<rect x="73.969" y="35.235" fill="#F7941E" width="14.243" height="1.644"/>
<rect x="56.258" y="38.946" fill="#ED1C24" width="7.487" height="1.644"/>
<rect x="65.205" y="38.946" fill="#8DC63F" width="9.495" height="1.644"/>
<rect x="76.161" y="38.946" fill="#F7941E" width="26.293" height="1.644"/>
<rect x="60.64" y="42.656" fill="#ED1C24" width="7.487" height="1.644"/>
<rect x="69.45" y="42.656" fill="#F1F2F2" width="27.754" height="1.644"/>
<rect x="98.757" y="42.656" fill="#F1F2F2" width="27.753" height="1.644"/>
<rect x="127.834" y="42.656" fill="#F1F2F2" width="27.753" height="1.644"/>
<rect x="157.14" y="42.656" fill="#F1F2F2" width="27.754" height="1.644"/>
<rect x="60.64" y="46.367" fill="#ED1C24" width="7.487" height="1.644"/>
<rect x="69.682" y="46.367" fill="#ED1C24" width="7.486" height="1.644"/>
<rect x="78.866" y="46.367" fill="#F1F2F2" width="24.137" height="1.644"/>
<rect x="104.327" y="46.367" fill="#F1F2F2" width="27.753" height="1.644"/>
<rect x="133.631" y="46.367" fill="#F1F2F2" width="31.371" height="1.644"/>
<rect x="60.64" y="50.077" fill="#ED1C24" width="7.487" height="1.644"/>
<rect x="69.45" y="50.077" fill="#F1F2F2" width="27.754" height="1.644"/>
<rect x="98.757" y="50.077" fill="#F1F2F2" width="27.753" height="1.644"/>
<rect x="127.834" y="50.077" fill="#F1F2F2" width="27.753" height="1.644"/>
<rect x="157.14" y="50.077" fill="#F1F2F2" width="27.754" height="1.644"/>
<rect x="60.64" y="53.788" fill="#ED1C24" width="7.487" height="1.644"/>
<rect x="69.682" y="53.788" fill="#ED1C24" width="7.486" height="1.644"/>
<rect x="78.866" y="53.788" fill="#F1F2F2" width="24.137" height="1.644"/>
<rect x="104.327" y="53.788" fill="#F1F2F2" width="27.753" height="1.644"/>
<rect x="133.631" y="53.788" fill="#F1F2F2" width="31.371" height="1.644"/>
<rect x="52.059" y="57.498" fill="#F1F2F2" width="9.496" height="1.644"/>
<rect x="63.014" y="57.498" fill="#8DC63F" width="9.496" height="1.644"/>
<rect x="73.969" y="57.498" fill="#F7941E" width="14.243" height="1.644"/>
<rect x="56.258" y="61.209" fill="#ED1C24" width="7.487" height="1.644"/>
<rect x="65.205" y="61.209" fill="#8DC63F" width="9.495" height="1.644"/>
<rect x="76.161" y="61.209" fill="#F7941E" width="26.293" height="1.644"/>
<rect x="60.64" y="64.919" fill="#ED1C24" width="7.487" height="1.644"/>
<rect x="69.45" y="64.919" fill="#F1F2F2" width="27.754" height="1.644"/>
<rect x="98.757" y="64.919" fill="#F1F2F2" width="27.753" height="1.644"/>
<rect x="127.834" y="64.919" fill="#F1F2F2" width="27.753" height="1.644"/>
<rect x="157.14" y="64.919" fill="#F1F2F2" width="27.754" height="1.644"/>
<rect x="60.64" y="68.63" fill="#ED1C24" width="7.487" height="1.644"/>
<rect x="69.682" y="68.63" fill="#ED1C24" width="7.486" height="1.644"/>
<rect x="78.866" y="68.63" fill="#F1F2F2" width="24.137" height="1.644"/>
<rect x="104.327" y="68.63" fill="#F1F2F2" width="27.753" height="1.644"/>
<rect x="133.631" y="68.63" fill="#F1F2F2" width="31.371" height="1.644"/>
<rect x="60.64" y="72.34" fill="#ED1C24" width="7.487" height="1.644"/>
<rect x="69.45" y="72.34" fill="#F1F2F2" width="27.754" height="1.644"/>
<rect x="98.757" y="72.34" fill="#F1F2F2" width="27.753" height="1.644"/>
<rect x="127.834" y="72.34" fill="#F1F2F2" width="27.753" height="1.644"/>
<rect x="157.14" y="72.34" fill="#F1F2F2" width="27.754" height="1.644"/>
<rect x="60.64" y="76.051" fill="#ED1C24" width="7.487" height="1.644"/>
<rect x="69.682" y="76.051" fill="#ED1C24" width="7.486" height="1.644"/>
<rect x="78.866" y="76.051" fill="#F1F2F2" width="24.137" height="1.644"/>
<rect x="104.327" y="76.051" fill="#F1F2F2" width="27.753" height="1.644"/>
<rect x="133.631" y="76.051" fill="#F1F2F2" width="31.371" height="1.644"/>
<rect x="52.059" y="79.761" fill="#F1F2F2" width="9.496" height="1.644"/>
<rect x="63.014" y="79.761" fill="#8DC63F" width="9.496" height="1.644"/>
<rect x="73.969" y="79.761" fill="#F7941E" width="14.243" height="1.644"/>
<rect x="56.258" y="83.472" fill="#ED1C24" width="7.487" height="1.644"/>
<rect x="65.205" y="83.472" fill="#8DC63F" width="9.495" height="1.644"/>
<rect x="76.161" y="83.472" fill="#F7941E" width="26.293" height="1.644"/>
<rect x="60.64" y="87.182" fill="#ED1C24" width="7.487" height="1.644"/>
<rect x="69.45" y="87.182" fill="#F1F2F2" width="27.754" height="1.644"/>
<rect x="98.757" y="87.182" fill="#F1F2F2" width="27.753" height="1.644"/>
<rect x="127.834" y="87.182" fill="#F1F2F2" width="27.753" height="1.644"/>
<rect x="157.14" y="87.182" fill="#F1F2F2" width="27.754" height="1.644"/>
<rect x="60.64" y="90.893" fill="#ED1C24" width="7.487" height="1.644"/>
<rect x="69.682" y="90.893" fill="#ED1C24" width="7.486" height="1.644"/>
<rect x="78.866" y="90.893" fill="#F1F2F2" width="24.137" height="1.644"/>
<rect x="104.327" y="90.893" fill="#F1F2F2" width="27.753" height="1.644"/>
<rect x="133.631" y="90.893" fill="#F1F2F2" width="31.371" height="1.644"/>
<rect x="60.64" y="94.603" fill="#ED1C24" width="7.487" height="1.644"/>
<rect x="69.45" y="94.603" fill="#F1F2F2" width="27.754" height="1.644"/>
<rect x="98.757" y="94.603" fill="#F1F2F2" width="27.753" height="1.644"/>
<rect x="127.834" y="94.603" fill="#F1F2F2" width="27.753" height="1.644"/>
<rect x="157.14" y="94.603" fill="#F1F2F2" width="27.754" height="1.644"/>
<rect x="60.64" y="98.313" fill="#ED1C24" width="7.487" height="1.644"/>
<rect x="69.682" y="98.313" fill="#ED1C24" width="7.486" height="1.644"/>
<rect x="78.866" y="98.313" fill="#F1F2F2" width="24.137" height="1.644"/>
<rect x="104.327" y="98.313" fill="#F1F2F2" width="27.753" height="1.644"/>
<rect x="133.631" y="98.313" fill="#F1F2F2" width="31.371" height="1.644"/>
</svg>
