<?xml version="1.0" encoding="utf-8"?>
<!-- Generator: Adobe Illustrator 15.1.0, SVG Export Plug-In . SVG Version: 6.00 Build 0)  -->
<!DOCTYPE svg PUBLIC "-//W3C//DTD SVG 1.1//EN" "http://www.w3.org/Graphics/SVG/1.1/DTD/svg11.dtd">
<svg version="1.1" id="Layer" xmlns="http://www.w3.org/2000/svg" xmlns:xlink="http://www.w3.org/1999/xlink" x="0px" y="0px" viewBox="0 0 190 60" enable-background="new 0 0 190 60" xml:space="preserve">
<linearGradient id="SVGID_1_" gradientUnits="userSpaceOnUse" x1="71.3628" y1="2.0366" x2="71.3628" y2="46.8286">
	<stop  offset="0" style="stop-color:#FBFBFB"/>
	<stop  offset="1" style="stop-color:#D6D6D6"/>
</linearGradient>
<path fill="url(#SVGID_1_)" d="M82.602,8.44h-7.611v38.388h-7.256V8.44h-7.611V2.037H77.25C77.25,2.037,82.288,2.213,82.602,8.44z"
	/>
<linearGradient id="SVGID_2_" gradientUnits="userSpaceOnUse" x1="95.5747" y1="2.0366" x2="95.5747" y2="46.8286">
	<stop  offset="0" style="stop-color:#FBFBFB"/>
	<stop  offset="1" style="stop-color:#D6D6D6"/>
</linearGradient>
<path fill="url(#SVGID_2_)" d="M84.812,46.828V2.037H95.51c7.217,0,10.828,3.7,10.828,11.101v5.817
	c0,7.38-3.606,11.069-10.819,11.069h-3.445v16.805H84.812z M92.074,23.62h3.453c1.182,0,2.071-0.322,2.662-0.968
	c0.591-0.645,0.889-1.738,0.889-3.28v-6.715c0-1.541-0.298-2.629-0.889-3.264S96.709,8.44,95.527,8.44h-3.453V23.62z"/>
<linearGradient id="SVGID_3_" gradientUnits="userSpaceOnUse" x1="168.7383" y1="1.5366" x2="168.7383" y2="47.3286">
	<stop  offset="0" style="stop-color:#FBFBFB"/>
	<stop  offset="1" style="stop-color:#D6D6D6"/>
</linearGradient>
<path fill="url(#SVGID_3_)" d="M157.963,36.083V12.782c0-3.582,0.925-6.351,2.775-8.309c1.852-1.958,4.519-2.937,8-2.937
	c3.48,0,6.146,0.979,7.998,2.937c1.854,1.958,2.776,4.727,2.776,8.309v23.301c0,3.582-0.923,6.352-2.776,8.309
	c-1.853,1.958-4.518,2.937-7.998,2.937c-3.481,0-6.148-0.979-8-2.937C158.888,42.435,157.963,39.665,157.963,36.083z
	 M165.052,36.493c0.021,2.934,1.255,4.411,3.701,4.432c2.469,0,3.691-1.477,3.671-4.432V12.34c0-2.933-1.229-4.4-3.686-4.4
	s-3.687,1.467-3.687,4.4V36.493z"/>
<g>
	<linearGradient id="SVGID_4_" gradientUnits="userSpaceOnUse" x1="183.2383" y1="41.9668" x2="183.2383" y2="47.418">
		<stop  offset="0" style="stop-color:#FBFBFB"/>
		<stop  offset="1" style="stop-color:#D6D6D6"/>
	</linearGradient>
	<path fill="url(#SVGID_4_)" d="M181.567,42.746v-0.779h3.342v0.779h-1.133v4.672h-1.077v-4.672H181.567z"/>
	<linearGradient id="SVGID_5_" gradientUnits="userSpaceOnUse" x1="187.6641" y1="41.9668" x2="187.6641" y2="47.418">
		<stop  offset="0" style="stop-color:#FBFBFB"/>
		<stop  offset="1" style="stop-color:#D6D6D6"/>
	</linearGradient>
	<path fill="url(#SVGID_5_)" d="M185.368,47.418v-5.451h1.498l0.799,3.883l0.74-3.883h1.554v5.451h-1.077v-3.907l-0.745,3.907
		h-1.024l-0.806-3.845v3.845H185.368z"/>
</g>
<linearGradient id="SVGID_6_" gradientUnits="userSpaceOnUse" x1="119.2627" y1="1.5366" x2="119.2627" y2="46.8286">
	<stop  offset="0" style="stop-color:#93C5EC"/>
	<stop  offset="1" style="stop-color:#7DA8C9"/>
</linearGradient>
<path fill="url(#SVGID_6_)" d="M129.412,46.828h-21.009v-5.497c0-2.437,0.501-4.665,1.505-6.685c1.003-2.02,2.213-3.79,3.63-5.31
	l4.246-4.498c1.415-1.458,2.613-3.186,3.599-5.185s1.478-4.196,1.478-6.591c0-1.916-0.316-3.249-0.947-3.998
	c-0.632-0.75-1.559-1.125-2.78-1.125c-2.507,0-3.759,1.468-3.759,4.404v4.81h-6.971v-4.373c0-3.624,0.938-6.403,2.812-8.34
	c1.875-1.937,4.574-2.905,8.097-2.905c3.521,0,6.205,0.968,8.046,2.905c1.842,1.937,2.764,4.716,2.764,8.34
	c0,2.728-0.542,5.3-1.622,7.715c-1.082,2.416-2.368,4.478-3.856,6.185c-1.488,1.708-2.955,3.306-4.401,4.795
	c-1.445,1.488-2.618,2.993-3.517,4.513c-0.708,1.188-1.062,2.343-1.062,3.468c0,0.333,0.031,0.655,0.097,0.968h8.114
	C123.875,40.425,129.562,40.125,129.412,46.828z"/>
<linearGradient id="SVGID_7_" gradientUnits="userSpaceOnUse" x1="12.3345" y1="1.5366" x2="12.3345" y2="47.3286">
	<stop  offset="0" style="stop-color:#FBFBFB"/>
	<stop  offset="1" style="stop-color:#D6D6D6"/>
</linearGradient>
<path fill="url(#SVGID_7_)" d="M10.551,37.922c0.333,2.003,1.458,3.003,3.379,3.003h0.029c2.302,0,3.454-1.459,3.454-4.378
	c0-1.667-0.497-3.23-1.491-4.689c-0.994-1.458-2.181-2.792-3.563-4.002l-3.734-3.751c-1.542-1.313-2.833-2.938-3.874-4.877
	c-1.04-1.938-1.56-4.085-1.56-6.44c0-3.625,0.981-6.405,2.944-8.343c1.963-1.938,4.628-2.907,7.998-2.907s5.957,0.968,7.763,2.905
	c1.806,1.937,2.709,4.716,2.709,8.34v1.437h-6.869v-1.874c0-2.936-1.215-4.404-3.644-4.404c-2.43,0-3.645,1.47-3.645,4.409
	c0,1.23,0.265,2.402,0.794,3.518c0.529,1.115,1.214,2.121,2.057,3.017c0.843,0.896,1.771,1.782,2.786,2.657
	c1.015,0.875,2.017,1.793,3.006,2.751c0.989,0.959,1.903,1.985,2.741,3.08c0.839,1.094,1.521,2.386,2.048,3.876
	c0.527,1.491,0.791,3.111,0.791,4.862c0,3.614-0.925,6.388-2.774,8.319c-1.849,1.933-4.459,2.898-7.83,2.898
	c-3.371,0-6.059-0.969-8.062-2.905c-1.368-1.321-2.139-3.035-2.574-5.142L3.344,39H0v-6c0,0,0.136,0,5.114,0.019
	C5.114,33.019,10.087,32.969,10.551,37.922"/>
<linearGradient id="SVGID_8_" gradientUnits="userSpaceOnUse" x1="42.5" y1="2" x2="42.5" y2="47.0005">
	<stop  offset="0" style="stop-color:#FBFBFB"/>
	<stop  offset="1" style="stop-color:#D6D6D6"/>
</linearGradient>
<path fill="url(#SVGID_8_)" d="M42.862,33.922L47.846,2h2.404c0,0,7.75,0.208,7.75,9.125V47h-7V14.718L46.035,47H39.15L34,15.231V47
	h-7V2h4.208c0,0,6.562,0.104,7.651,8.191L42.862,33.922z"/>
<linearGradient id="SVGID_9_" gradientUnits="userSpaceOnUse" x1="144" y1="1.5366" x2="144" y2="47.3286">
	<stop  offset="0" style="stop-color:#FBFBFB"/>
	<stop  offset="1" style="stop-color:#D6D6D6"/>
</linearGradient>
<path fill="url(#SVGID_9_)" d="M155,30v6.083c0,3.623-0.825,6.403-2.732,8.34c-1.906,1.937-4.529,2.905-7.992,2.905
	c-3.465,0-6.429-0.969-8.237-2.905S133,39.706,133,36.083V12.782c0-3.624,1.263-6.403,3.071-8.34
	c1.807-1.937,4.624-2.905,8.087-2.905c3.465,0,6.113,0.968,8.02,2.905c1.907,1.937,2.822,4.716,2.822,8.34V17h-7v-4.656
	c0-2.936-1.543-4.404-4-4.404c-2.456,0-4,1.47-4,4.409v24.199c0,2.897,1.549,4.356,4.016,4.377c2.446,0,3.984-1.461,3.984-4.384V28
	h-4v-6h3.835l1.174,0.011c0,0,5.991-0.48,5.991,6.489V30z"/>
<g>
	<linearGradient id="SVGID_10_" gradientUnits="userSpaceOnUse" x1="6.4888" y1="52.1387" x2="6.4888" y2="58.9824">
		<stop  offset="0" style="stop-color:#FBFBFB"/>
		<stop  offset="1" style="stop-color:#D6D6D6"/>
	</linearGradient>
	<path fill="url(#SVGID_10_)" d="M8.282,56.782H8.31l0.907-4.644h1.415l-1.598,6.844H7.76L6.5,54.475H6.472l-1.255,4.508H3.943
		l-1.598-6.844H3.76l0.912,4.64H4.7l1.231-4.64h1.109L8.282,56.782z"/>
	<linearGradient id="SVGID_11_" gradientUnits="userSpaceOnUse" x1="16.4775" y1="52.04" x2="16.4775" y2="59.0811">
		<stop  offset="0" style="stop-color:#FBFBFB"/>
		<stop  offset="1" style="stop-color:#D6D6D6"/>
	</linearGradient>
	<path fill="url(#SVGID_11_)" d="M19.333,56.177c0,0.843-0.265,1.537-0.794,2.084c-0.53,0.547-1.219,0.82-2.068,0.82
		c-0.846,0-1.532-0.274-2.059-0.822c-0.526-0.549-0.79-1.242-0.79-2.082v-1.232c0-0.836,0.262-1.529,0.787-2.079
		s1.209-0.825,2.052-0.825c0.849,0,1.54,0.275,2.073,0.825s0.799,1.243,0.799,2.079V56.177z M17.965,54.936
		c0-0.533-0.133-0.97-0.399-1.312c-0.266-0.342-0.634-0.513-1.104-0.513c-0.464,0-0.825,0.171-1.083,0.513
		c-0.258,0.342-0.388,0.778-0.388,1.312v1.241c0,0.542,0.13,0.983,0.39,1.325s0.624,0.512,1.09,0.512c0.47,0,0.837-0.17,1.1-0.512
		s0.395-0.783,0.395-1.325V54.936z"/>
	<linearGradient id="SVGID_12_" gradientUnits="userSpaceOnUse" x1="25.4771" y1="52.1387" x2="25.4771" y2="58.9824">
		<stop  offset="0" style="stop-color:#FBFBFB"/>
		<stop  offset="1" style="stop-color:#D6D6D6"/>
	</linearGradient>
	<path fill="url(#SVGID_12_)" d="M24.227,56.247v2.735h-1.373v-6.844h2.369c0.78,0,1.39,0.178,1.831,0.533
		c0.44,0.356,0.661,0.852,0.661,1.488c0,0.351-0.093,0.654-0.28,0.909c-0.187,0.256-0.458,0.462-0.815,0.618
		c0.404,0.119,0.695,0.318,0.872,0.597c0.177,0.279,0.266,0.624,0.266,1.034v0.503c0,0.191,0.026,0.391,0.078,0.6
		c0.052,0.208,0.14,0.362,0.266,0.463v0.099h-1.415c-0.125-0.101-0.206-0.267-0.242-0.498c-0.036-0.232-0.054-0.456-0.054-0.672
		v-0.484c0-0.342-0.093-0.607-0.28-0.797s-0.45-0.284-0.792-0.284H24.227z M24.227,55.189h0.973c0.386,0,0.672-0.082,0.86-0.245
		c0.188-0.162,0.282-0.403,0.282-0.724c0-0.313-0.095-0.562-0.285-0.747s-0.468-0.277-0.834-0.277h-0.997V55.189z"/>
	<linearGradient id="SVGID_13_" gradientUnits="userSpaceOnUse" x1="33.6421" y1="52.1387" x2="33.6421" y2="58.9824">
		<stop  offset="0" style="stop-color:#FBFBFB"/>
		<stop  offset="1" style="stop-color:#D6D6D6"/>
	</linearGradient>
	<path fill="url(#SVGID_13_)" d="M32.796,57.93h3.064v1.053h-4.437v-6.844h1.373V57.93z"/>
	<linearGradient id="SVGID_14_" gradientUnits="userSpaceOnUse" x1="41.8423" y1="52.1387" x2="41.8423" y2="58.9824">
		<stop  offset="0" style="stop-color:#FBFBFB"/>
		<stop  offset="1" style="stop-color:#D6D6D6"/>
	</linearGradient>
	<path fill="url(#SVGID_14_)" d="M39.208,58.982v-6.844h2.388c0.837,0,1.526,0.268,2.068,0.802c0.542,0.534,0.813,1.22,0.813,2.056
		v1.133c0,0.84-0.271,1.525-0.813,2.057c-0.542,0.531-1.231,0.797-2.068,0.797H39.208z M40.581,53.196v4.733h1.015
		c0.451,0,0.815-0.169,1.09-0.506c0.276-0.336,0.414-0.769,0.414-1.295v-1.142c0-0.523-0.138-0.953-0.414-1.288
		c-0.275-0.335-0.639-0.503-1.09-0.503H40.581z"/>
	<linearGradient id="SVGID_15_" gradientUnits="userSpaceOnUse" x1="51.6196" y1="52.1387" x2="51.6196" y2="58.9824">
		<stop  offset="0" style="stop-color:#FBFBFB"/>
		<stop  offset="1" style="stop-color:#D6D6D6"/>
	</linearGradient>
	<path fill="url(#SVGID_15_)" d="M53.413,56.782h0.028l0.907-4.644h1.415l-1.598,6.844h-1.274l-1.26-4.508h-0.028l-1.255,4.508
		h-1.274l-1.598-6.844h1.415l0.912,4.64h0.028l1.231-4.64h1.109L53.413,56.782z"/>
	<linearGradient id="SVGID_16_" gradientUnits="userSpaceOnUse" x1="59.7075" y1="52.1387" x2="59.7075" y2="58.9824">
		<stop  offset="0" style="stop-color:#FBFBFB"/>
		<stop  offset="1" style="stop-color:#D6D6D6"/>
	</linearGradient>
	<path fill="url(#SVGID_16_)" d="M60.394,58.982h-1.373v-6.844h1.373V58.982z"/>
	<linearGradient id="SVGID_17_" gradientUnits="userSpaceOnUse" x1="66.8218" y1="52.1387" x2="66.8218" y2="58.9824">
		<stop  offset="0" style="stop-color:#FBFBFB"/>
		<stop  offset="1" style="stop-color:#D6D6D6"/>
	</linearGradient>
	<path fill="url(#SVGID_17_)" d="M64.188,58.982v-6.844h2.388c0.837,0,1.526,0.268,2.068,0.802c0.542,0.534,0.813,1.22,0.813,2.056
		v1.133c0,0.84-0.271,1.525-0.813,2.057c-0.542,0.531-1.231,0.797-2.068,0.797H64.188z M65.56,53.196v4.733h1.015
		c0.451,0,0.815-0.169,1.09-0.506c0.276-0.336,0.414-0.769,0.414-1.295v-1.142c0-0.523-0.138-0.953-0.414-1.288
		c-0.275-0.335-0.639-0.503-1.09-0.503H65.56z"/>
	<linearGradient id="SVGID_18_" gradientUnits="userSpaceOnUse" x1="75.187" y1="52.1387" x2="75.187" y2="58.9824">
		<stop  offset="0" style="stop-color:#FBFBFB"/>
		<stop  offset="1" style="stop-color:#D6D6D6"/>
	</linearGradient>
	<path fill="url(#SVGID_18_)" d="M76.903,55.975h-2.538v1.955h3.018v1.053h-4.39v-6.844h4.381v1.058h-3.008v1.721h2.538V55.975z"/>
	<linearGradient id="SVGID_19_" gradientUnits="userSpaceOnUse" x1="87.9707" y1="52.04" x2="87.9707" y2="59.0811">
		<stop  offset="0" style="stop-color:#FBFBFB"/>
		<stop  offset="1" style="stop-color:#D6D6D6"/>
	</linearGradient>
	<path fill="url(#SVGID_19_)" d="M89.181,57.196c0-0.264-0.091-0.475-0.275-0.635c-0.183-0.159-0.505-0.31-0.966-0.451
		c-0.79-0.238-1.389-0.519-1.798-0.841c-0.409-0.323-0.613-0.764-0.613-1.321c0-0.561,0.23-1.02,0.691-1.375
		c0.46-0.355,1.048-0.533,1.763-0.533c0.758,0,1.368,0.191,1.831,0.573c0.462,0.383,0.686,0.884,0.67,1.504l-0.009,0.028h-1.331
		c0-0.341-0.103-0.604-0.31-0.787s-0.497-0.275-0.87-0.275c-0.338,0-0.6,0.082-0.785,0.245c-0.185,0.163-0.277,0.371-0.277,0.625
		c0,0.231,0.1,0.422,0.301,0.571c0.2,0.148,0.546,0.306,1.039,0.472c0.752,0.214,1.326,0.491,1.72,0.835
		c0.395,0.343,0.592,0.795,0.592,1.355c0,0.586-0.229,1.049-0.686,1.387c-0.458,0.339-1.062,0.508-1.814,0.508
		c-0.736,0-1.369-0.184-1.896-0.55c-0.528-0.366-0.784-0.913-0.769-1.641l0.009-0.028h1.33c0,0.404,0.119,0.702,0.357,0.894
		s0.561,0.286,0.968,0.286c0.367,0,0.646-0.076,0.839-0.229C89.085,57.658,89.181,57.453,89.181,57.196z"/>
	<linearGradient id="SVGID_20_" gradientUnits="userSpaceOnUse" x1="97.5586" y1="52.1387" x2="97.5586" y2="58.9824">
		<stop  offset="0" style="stop-color:#FBFBFB"/>
		<stop  offset="1" style="stop-color:#D6D6D6"/>
	</linearGradient>
	<path fill="url(#SVGID_20_)" d="M97.539,57.183h0.028l1.758-5.044h1.791v6.844h-1.372v-4.672l-0.028-0.005l-1.692,4.677h-0.931
		l-1.692-4.687l-0.028,0.005v4.682H94v-6.844h1.8L97.539,57.183z"/>
	<linearGradient id="SVGID_21_" gradientUnits="userSpaceOnUse" x1="106.8184" y1="52.1387" x2="106.8184" y2="58.9824">
		<stop  offset="0" style="stop-color:#FBFBFB"/>
		<stop  offset="1" style="stop-color:#D6D6D6"/>
	</linearGradient>
	<path fill="url(#SVGID_21_)" d="M109.445,53.196h-1.955v5.786h-1.372v-5.786h-1.928v-1.058h5.255V53.196z"/>
	<linearGradient id="SVGID_22_" gradientUnits="userSpaceOnUse" x1="115.209" y1="52.1387" x2="115.209" y2="58.9824">
		<stop  offset="0" style="stop-color:#FBFBFB"/>
		<stop  offset="1" style="stop-color:#D6D6D6"/>
	</linearGradient>
	<path fill="url(#SVGID_22_)" d="M114.006,56.501v2.481h-1.372v-6.844h2.618c0.786,0,1.405,0.2,1.856,0.602s0.677,0.93,0.677,1.584
		c0,0.655-0.226,1.182-0.677,1.579c-0.451,0.398-1.07,0.598-1.856,0.598H114.006z M114.006,55.443h1.246
		c0.382,0,0.672-0.104,0.869-0.312c0.197-0.209,0.297-0.475,0.297-0.797c0-0.329-0.099-0.601-0.294-0.815
		c-0.196-0.215-0.486-0.322-0.872-0.322h-1.246V55.443z"/>
	<linearGradient id="SVGID_23_" gradientUnits="userSpaceOnUse" x1="128.3926" y1="52.04" x2="128.3926" y2="59.0811">
		<stop  offset="0" style="stop-color:#FBFBFB"/>
		<stop  offset="1" style="stop-color:#D6D6D6"/>
	</linearGradient>
	<path fill="url(#SVGID_23_)" d="M129.604,57.196c0-0.264-0.092-0.475-0.274-0.635c-0.184-0.159-0.506-0.31-0.967-0.451
		c-0.789-0.238-1.389-0.519-1.798-0.841c-0.408-0.323-0.613-0.764-0.613-1.321c0-0.561,0.23-1.02,0.691-1.375
		s1.048-0.533,1.763-0.533c0.758,0,1.368,0.191,1.831,0.573c0.462,0.383,0.685,0.884,0.669,1.504l-0.009,0.028h-1.33
		c0-0.341-0.104-0.604-0.311-0.787s-0.497-0.275-0.869-0.275c-0.339,0-0.601,0.082-0.785,0.245
		c-0.186,0.163-0.277,0.371-0.277,0.625c0,0.231,0.1,0.422,0.301,0.571c0.2,0.148,0.547,0.306,1.039,0.472
		c0.752,0.214,1.325,0.491,1.72,0.835c0.395,0.343,0.593,0.795,0.593,1.355c0,0.586-0.229,1.049-0.687,1.387
		c-0.458,0.339-1.062,0.508-1.814,0.508c-0.736,0-1.368-0.184-1.896-0.55s-0.784-0.913-0.769-1.641l0.01-0.028h1.33
		c0,0.404,0.119,0.702,0.356,0.894c0.238,0.191,0.562,0.286,0.969,0.286c0.366,0,0.646-0.076,0.839-0.229
		C129.507,57.658,129.604,57.453,129.604,57.196z"/>
	<linearGradient id="SVGID_24_" gradientUnits="userSpaceOnUse" x1="136.6172" y1="52.1387" x2="136.6172" y2="58.9824">
		<stop  offset="0" style="stop-color:#FBFBFB"/>
		<stop  offset="1" style="stop-color:#D6D6D6"/>
	</linearGradient>
	<path fill="url(#SVGID_24_)" d="M138.333,55.975h-2.539v1.955h3.018v1.053h-4.39v-6.844h4.381v1.058h-3.009v1.721h2.539V55.975z"/>
	<linearGradient id="SVGID_25_" gradientUnits="userSpaceOnUse" x1="144.834" y1="52.1387" x2="144.834" y2="58.9824">
		<stop  offset="0" style="stop-color:#FBFBFB"/>
		<stop  offset="1" style="stop-color:#D6D6D6"/>
	</linearGradient>
	<path fill="url(#SVGID_25_)" d="M143.583,56.247v2.735h-1.372v-6.844h2.369c0.78,0,1.391,0.178,1.831,0.533
		c0.439,0.356,0.66,0.852,0.66,1.488c0,0.351-0.094,0.654-0.28,0.909c-0.187,0.256-0.458,0.462-0.815,0.618
		c0.404,0.119,0.695,0.318,0.872,0.597c0.177,0.279,0.266,0.624,0.266,1.034v0.503c0,0.191,0.026,0.391,0.078,0.6
		c0.051,0.208,0.14,0.362,0.265,0.463v0.099h-1.414c-0.126-0.101-0.206-0.267-0.242-0.498c-0.036-0.232-0.055-0.456-0.055-0.672
		v-0.484c0-0.342-0.093-0.607-0.279-0.797s-0.45-0.284-0.792-0.284H143.583z M143.583,55.189h0.974c0.385,0,0.672-0.082,0.86-0.245
		c0.188-0.162,0.281-0.403,0.281-0.724c0-0.313-0.095-0.562-0.284-0.747s-0.468-0.277-0.834-0.277h-0.997V55.189z"/>
	<linearGradient id="SVGID_26_" gradientUnits="userSpaceOnUse" x1="153.124" y1="52.1387" x2="153.124" y2="58.9824">
		<stop  offset="0" style="stop-color:#FBFBFB"/>
		<stop  offset="1" style="stop-color:#D6D6D6"/>
	</linearGradient>
	<path fill="url(#SVGID_26_)" d="M153.022,57.126l0.085,0.376h0.028l0.08-0.362l1.489-5.001h1.448l-2.327,6.844h-1.41l-2.321-6.844
		h1.447L153.022,57.126z"/>
	<linearGradient id="SVGID_27_" gradientUnits="userSpaceOnUse" x1="160.0312" y1="52.1387" x2="160.0312" y2="58.9824">
		<stop  offset="0" style="stop-color:#FBFBFB"/>
		<stop  offset="1" style="stop-color:#D6D6D6"/>
	</linearGradient>
	<path fill="url(#SVGID_27_)" d="M160.718,58.982h-1.373v-6.844h1.373V58.982z"/>
	<linearGradient id="SVGID_28_" gradientUnits="userSpaceOnUse" x1="167.0059" y1="52.04" x2="167.0059" y2="59.0811">
		<stop  offset="0" style="stop-color:#FBFBFB"/>
		<stop  offset="1" style="stop-color:#D6D6D6"/>
	</linearGradient>
	<path fill="url(#SVGID_28_)" d="M169.645,56.717l0.01,0.028c0.012,0.73-0.21,1.302-0.668,1.716c-0.457,0.413-1.089,0.62-1.895,0.62
		c-0.82,0-1.483-0.264-1.988-0.792c-0.504-0.528-0.756-1.21-0.756-2.047v-1.358c0-0.834,0.245-1.516,0.737-2.047
		s1.138-0.797,1.937-0.797c0.834,0,1.485,0.204,1.955,0.611c0.471,0.407,0.699,0.98,0.687,1.72l-0.009,0.028h-1.335
		c0-0.438-0.106-0.766-0.317-0.979c-0.212-0.215-0.538-0.322-0.98-0.322c-0.41,0-0.73,0.165-0.961,0.496
		c-0.23,0.33-0.346,0.757-0.346,1.28v1.368c0,0.526,0.121,0.956,0.364,1.288s0.581,0.498,1.013,0.498
		c0.411,0,0.717-0.107,0.919-0.322s0.304-0.544,0.304-0.989H169.645z"/>
	<linearGradient id="SVGID_29_" gradientUnits="userSpaceOnUse" x1="175.2656" y1="52.1387" x2="175.2656" y2="58.9824">
		<stop  offset="0" style="stop-color:#FBFBFB"/>
		<stop  offset="1" style="stop-color:#D6D6D6"/>
	</linearGradient>
	<path fill="url(#SVGID_29_)" d="M176.982,55.975h-2.539v1.955h3.018v1.053h-4.39v-6.844h4.381v1.058h-3.009v1.721h2.539V55.975z"/>
</g>
</svg>
