<?xml version="1.0" encoding="utf-8"?>
<!-- Generator: Adobe Illustrator 15.1.0, SVG Export Plug-In . SVG Version: 6.00 Build 0)  -->
<!DOCTYPE svg PUBLIC "-//W3C//DTD SVG 1.1//EN" "http://www.w3.org/Graphics/SVG/1.1/DTD/svg11.dtd">
<svg version="1.1" id="Layer_1" xmlns="http://www.w3.org/2000/svg" xmlns:xlink="http://www.w3.org/1999/xlink" x="0px" y="0px"
	 width="195px" height="55px" viewBox="38.5 -9 195 55" enable-background="new 38.5 -9 195 55" xml:space="preserve">
<g>
	<g>
		<path fill="#8DCA3D" d="M46.97,21.464v11.692h-6.462V2.684h8.338c3.905,0,6.788,0.754,8.65,2.262s2.794,3.797,2.794,6.869
			c0,1.042-0.14,1.987-0.417,2.835c-0.277,0.848-0.649,1.602-1.115,2.261c-0.466,0.66-1,1.237-1.605,1.731
			c-0.605,0.494-1.24,0.907-1.908,1.24c1.542,2.474,2.924,4.683,4.147,6.629c0.529,0.833,1.04,1.646,1.532,2.438
			c0.494,0.793,0.935,1.503,1.323,2.126c0.39,0.627,0.709,1.126,0.959,1.503l0.354,0.583h-7.17l-6.607-11.692H46.97V21.464z
			 M46.97,16.212h1.751c1.793,0,3.078-0.357,3.856-1.074c0.778-0.715,1.167-1.768,1.167-3.158c0-1.444-0.417-2.474-1.251-3.085
			c-0.834-0.612-2.125-0.918-3.877-0.918H46.97V16.212z"/>
		<path fill="#8DCA3D" d="M75.424,33.576c-1.667,0-3.203-0.244-4.606-0.73c-1.403-0.485-2.612-1.219-3.626-2.2
			c-1.014-0.979-1.803-2.215-2.366-3.709s-0.845-3.248-0.845-5.263c0-2.043,0.257-3.829,0.772-5.357
			c0.514-1.528,1.232-2.803,2.157-3.825c0.924-1.021,2.036-1.789,3.335-2.304c1.299-0.515,2.741-0.771,4.325-0.771
			c1.543,0,2.936,0.233,4.18,0.699c1.243,0.466,2.3,1.149,3.168,2.053c0.868,0.903,1.536,2.012,2.001,3.325s0.699,2.817,0.699,4.512
			v3.086H70.401c0.028,0.889,0.17,1.692,0.428,2.407c0.257,0.716,0.619,1.32,1.083,1.812c0.465,0.494,1.028,0.874,1.689,1.137
			c0.66,0.265,1.414,0.395,2.261,0.395c0.708,0,1.379-0.037,2.012-0.113c0.632-0.076,1.247-0.19,1.844-0.345
			c0.598-0.152,1.188-0.343,1.772-0.573c0.584-0.229,1.18-0.497,1.793-0.803v4.92c-0.556,0.292-1.115,0.537-1.678,0.739
			c-0.562,0.201-1.157,0.372-1.783,0.511c-0.625,0.141-1.299,0.241-2.021,0.304C77.077,33.544,76.284,33.576,75.424,33.576z
			 M74.612,13.939c-1.126,0-2.061,0.396-2.803,1.189c-0.744,0.792-1.171,2.036-1.282,3.731h8.109
			c-0.015-0.709-0.104-1.361-0.271-1.958c-0.166-0.598-0.417-1.115-0.75-1.553c-0.334-0.438-0.75-0.782-1.251-1.032
			C75.861,14.064,75.277,13.939,74.612,13.939z"/>
		<path fill="#8DCA3D" d="M141.9,33.158l-1.23-3.168h-0.188c-0.458,0.625-0.916,1.164-1.376,1.615
			c-0.458,0.452-0.959,0.822-1.501,1.114c-0.541,0.293-1.15,0.509-1.823,0.646c-0.674,0.14-1.456,0.21-2.345,0.21
			c-0.946,0-1.821-0.149-2.626-0.448c-0.805-0.299-1.504-0.752-2.094-1.356c-0.591-0.604-1.052-1.367-1.386-2.292
			c-0.333-0.924-0.5-2.018-0.5-3.283c0-2.472,0.792-4.296,2.376-5.471c1.583-1.174,3.953-1.823,7.107-1.949l3.71-0.125v-1.751
			c0-0.959-0.277-1.668-0.833-2.127c-0.558-0.458-1.335-0.688-2.335-0.688s-1.977,0.146-2.929,0.438
			c-0.952,0.292-1.907,0.681-2.866,1.168l-2.063-4.21c1.168-0.653,2.459-1.167,3.877-1.542c1.417-0.375,2.905-0.563,4.461-0.563
			c2.904,0,5.132,0.681,6.681,2.042c1.548,1.362,2.324,3.433,2.324,6.212v15.527h-4.44V33.158z M140.024,22.36l-2.104,0.084
			c-0.848,0.027-1.564,0.14-2.148,0.334c-0.584,0.193-1.051,0.455-1.407,0.782c-0.354,0.325-0.611,0.716-0.771,1.167
			c-0.16,0.451-0.239,0.955-0.239,1.511c0,0.971,0.236,1.665,0.708,2.074c0.472,0.409,1.09,0.615,1.855,0.615
			c0.583,0,1.125-0.101,1.625-0.304c0.501-0.201,0.935-0.501,1.303-0.895c0.369-0.396,0.656-0.885,0.866-1.459
			c0.208-0.578,0.312-1.241,0.312-1.991V22.36z"/>
		<path fill="#8DCA3D" d="M157.646,33.576c-1.195,0-2.287-0.259-3.272-0.771c-0.988-0.513-1.836-1.274-2.542-2.283
			c-0.71-1.008-1.262-2.262-1.658-3.763s-0.595-3.238-0.595-5.212c0-1.999,0.198-3.755,0.595-5.263
			c0.396-1.507,0.96-2.771,1.688-3.793c0.729-1.021,1.602-1.789,2.615-2.303c1.016-0.514,2.133-0.771,3.357-0.771
			c0.751,0,1.438,0.087,2.063,0.26c0.627,0.175,1.187,0.417,1.687,0.729c0.502,0.313,0.949,0.675,1.346,1.084
			c0.396,0.411,0.747,0.858,1.052,1.345h0.208c-0.083-0.542-0.159-1.091-0.227-1.647c-0.072-0.473-0.131-0.976-0.178-1.511
			c-0.049-0.536-0.073-1.031-0.073-1.49V0.725h6.355v32.433h-4.854l-1.229-3.022h-0.271c-0.293,0.473-0.626,0.921-1.003,1.343
			c-0.373,0.425-0.807,0.79-1.301,1.095c-0.493,0.306-1.05,0.549-1.668,0.729C159.122,33.483,158.424,33.576,157.646,33.576z
			 M159.96,28.51c0.751,0,1.389-0.128,1.917-0.387c0.529-0.256,0.957-0.644,1.281-1.166c0.328-0.521,0.569-1.173,0.73-1.949
			c0.159-0.779,0.247-1.688,0.261-2.731v-0.688c0-1.126-0.068-2.125-0.208-3.001s-0.369-1.608-0.688-2.199
			c-0.318-0.59-0.749-1.039-1.292-1.344c-0.542-0.306-1.223-0.458-2.043-0.458c-1.333,0-2.312,0.602-2.939,1.803
			c-0.626,1.202-0.937,2.949-0.937,5.241c0,2.293,0.316,4.014,0.948,5.16C157.621,27.937,158.61,28.51,159.96,28.51z"/>
		<path fill="#8DCA3D" d="M193.456,9.896v3.46l-3.396,1.063c0.275,0.473,0.471,0.962,0.583,1.469
			c0.109,0.508,0.167,1.053,0.167,1.637c0,1.181-0.188,2.26-0.563,3.24c-0.373,0.979-0.931,1.818-1.668,2.513
			c-0.736,0.693-1.66,1.233-2.772,1.615c-1.111,0.383-2.404,0.573-3.877,0.573c-0.318,0-0.666-0.019-1.043-0.053
			c-0.373-0.034-0.651-0.072-0.833-0.113c-0.278,0.235-0.497,0.483-0.656,0.739c-0.159,0.259-0.24,0.566-0.24,0.928
			c0,0.292,0.091,0.524,0.271,0.698c0.181,0.176,0.417,0.312,0.71,0.417c0.291,0.104,0.632,0.175,1.02,0.21
			c0.391,0.034,0.793,0.052,1.209,0.052h3.628c1.126,0,2.133,0.129,3.023,0.386c0.889,0.257,1.642,0.648,2.261,1.177
			c0.618,0.528,1.095,1.199,1.428,2.011c0.333,0.813,0.5,1.783,0.5,2.907c0,1.32-0.265,2.511-0.793,3.574
			c-0.528,1.062-1.315,1.967-2.364,2.709c-1.052,0.744-2.353,1.313-3.908,1.711c-1.556,0.395-3.357,0.595-5.4,0.595
			c-1.583,0-2.966-0.149-4.148-0.448c-1.179-0.299-2.166-0.729-2.959-1.293c-0.791-0.562-1.385-1.239-1.781-2.032
			s-0.595-1.688-0.595-2.689c0-0.848,0.146-1.584,0.438-2.209c0.292-0.625,0.681-1.161,1.166-1.604
			c0.487-0.444,1.039-0.806,1.658-1.085c0.619-0.276,1.254-0.492,1.907-0.645c-0.291-0.125-0.581-0.299-0.864-0.521
			c-0.286-0.223-0.542-0.479-0.771-0.771c-0.23-0.291-0.417-0.613-0.563-0.968c-0.145-0.354-0.218-0.726-0.218-1.116
			c0-0.444,0.065-0.847,0.198-1.21c0.132-0.36,0.321-0.696,0.571-1.008c0.252-0.313,0.563-0.609,0.939-0.888
			c0.375-0.277,0.799-0.562,1.27-0.854c-1.221-0.528-2.191-1.376-2.907-2.544c-0.715-1.166-1.071-2.542-1.071-4.126
			c0-1.25,0.192-2.369,0.583-3.356c0.39-0.986,0.96-1.823,1.71-2.512c0.749-0.688,1.68-1.212,2.792-1.574
			c1.111-0.36,2.391-0.541,3.835-0.541c0.279,0,0.591,0.018,0.938,0.051c0.346,0.036,0.69,0.078,1.032,0.125
			c0.34,0.049,0.655,0.102,0.948,0.157c0.29,0.055,0.521,0.104,0.687,0.145L193.456,9.896L193.456,9.896z M176.782,36.451
			c0,0.348,0.071,0.685,0.218,1.012c0.146,0.324,0.387,0.613,0.722,0.864c0.333,0.25,0.77,0.447,1.312,0.595
			c0.541,0.144,1.209,0.219,1.999,0.219c2.168,0,3.802-0.306,4.898-0.918c1.098-0.61,1.646-1.431,1.646-2.458
			c0-0.876-0.341-1.461-1.02-1.752c-0.682-0.292-1.738-0.437-3.169-0.437h-2.939c-0.375,0-0.778,0.043-1.209,0.135
			c-0.432,0.089-0.827,0.247-1.188,0.468c-0.36,0.225-0.662,0.518-0.906,0.888C176.902,35.435,176.782,35.895,176.782,36.451z
			 M179.074,17.483c0,1.265,0.237,2.245,0.71,2.938c0.473,0.695,1.188,1.043,2.146,1.043c1.003,0,1.724-0.348,2.169-1.043
			c0.444-0.693,0.667-1.674,0.667-2.938c0-1.25-0.219-2.245-0.658-2.981c-0.437-0.736-1.163-1.105-2.178-1.105
			C180.026,13.397,179.074,14.76,179.074,17.483z"/>
		<path fill="#8DCA3D" d="M206.258,33.576c-1.668,0-3.203-0.244-4.606-0.73c-1.403-0.485-2.613-1.219-3.627-2.2
			c-1.015-0.979-1.803-2.215-2.365-3.709s-0.846-3.248-0.846-5.263c0-2.043,0.257-3.829,0.771-5.357s1.232-2.803,2.157-3.825
			c0.926-1.021,2.036-1.789,3.336-2.304c1.298-0.515,2.74-0.771,4.323-0.771c1.543,0,2.937,0.233,4.181,0.699
			c1.243,0.466,2.298,1.149,3.168,2.053c0.868,0.903,1.534,2.012,2,3.325c0.465,1.313,0.698,2.817,0.698,4.512v3.086h-14.215
			c0.026,0.889,0.171,1.692,0.428,2.407c0.257,0.716,0.617,1.32,1.084,1.812c0.466,0.494,1.027,0.874,1.688,1.137
			c0.66,0.263,1.413,0.395,2.261,0.395c0.71,0,1.379-0.037,2.013-0.113c0.632-0.076,1.245-0.19,1.844-0.345
			c0.598-0.152,1.188-0.343,1.771-0.573c0.583-0.229,1.181-0.497,1.793-0.803v4.92c-0.556,0.292-1.115,0.537-1.678,0.739
			c-0.563,0.201-1.156,0.372-1.783,0.511c-0.625,0.141-1.297,0.241-2.021,0.304C207.909,33.544,207.119,33.576,206.258,33.576z
			 M205.444,13.939c-1.126,0-2.06,0.396-2.804,1.189c-0.744,0.792-1.172,2.036-1.282,3.731h8.108
			c-0.015-0.709-0.104-1.361-0.271-1.958c-0.166-0.598-0.418-1.115-0.751-1.553c-0.335-0.438-0.751-0.782-1.251-1.032
			C206.694,14.064,206.111,13.939,205.444,13.939z"/>
		<path fill="#8DCA3D" d="M228.583,28.51c0.626,0,1.218-0.067,1.782-0.209c0.562-0.138,1.135-0.312,1.72-0.52v4.731
			c-0.598,0.305-1.339,0.559-2.221,0.762c-0.882,0.201-1.845,0.302-2.886,0.302c-1.016,0-1.959-0.118-2.836-0.354
			c-0.875-0.235-1.633-0.649-2.271-1.241c-0.641-0.591-1.144-1.382-1.512-2.376c-0.367-0.992-0.554-2.241-0.554-3.74V14.627h-3.043
			v-2.688l3.502-2.127l1.836-4.919h4.062v4.961h5.67v4.773h-5.67v11.235c0,0.903,0.224,1.57,0.669,2.001
			C227.277,28.296,227.86,28.51,228.583,28.51z"/>
	</g>
</g>
<path fill="#5AA02E" d="M123.156,12.551h-8.458c0,0-2.452-5.336-7.036-5.336l0.079,3.992c0,0-2.529-3.24-7.351-6.837
	c0,0,1.581-5.494,6.285-9.802l0.198,4.783C106.872-0.65,119.284-1.006,123.156,12.551z"/>
<path fill="#8DCA3D" d="M99.757,0.102c0,0-1.542,2.885-1.779,5.256c0,0,1.423,0.87,3.439,2.609c0,0-7.115,4.585-3.677,12.015
	l3.124-2.331c0,0-1.937,5.494-1.739,9.881c0,0-3.241,0.83-10.83-0.237l3.32-2.647c0,0-3.874-5.376-2.056-13.4
	C91.379,3.222,99.757,0.102,99.757,0.102z"/>
<path fill="#B0E245" d="M95.647,30.062c0,0,4.269-0.04,5.692-0.83c0,0-0.198-3.479,0.237-4.784c0,0,6.245,4.31,11.422-0.632
	l-5.021-5.93h15.139v17.828l-5.02-5.851c0,0-4.032,3.872-10.672,3.872C100.785,33.736,96.635,30.734,95.647,30.062z"/>
</svg>
