<?xml version="1.0" encoding="utf-8"?>
<!-- Generator: Adobe Illustrator 15.1.0, SVG Export Plug-In . SVG Version: 6.00 Build 0)  -->
<!DOCTYPE svg PUBLIC "-//W3C//DTD SVG 1.1//EN" "http://www.w3.org/Graphics/SVG/1.1/DTD/svg11.dtd">
<svg version="1.1" id="Layer_1" xmlns="http://www.w3.org/2000/svg" xmlns:xlink="http://www.w3.org/1999/xlink" x="0px" y="0px"
	 width="275px" height="25px" viewBox="-1.5 -8.757 275 25" enable-background="new -1.5 -8.757 275 25" xml:space="preserve">
<g>
	<path fill="#FFFFFF" d="M39.347-3.743v4.299h6.737v5.18h-6.737v9.514h-5.891V-8.925h13.001v5.182H39.347z"/>
	<path fill="#FFFFFF" d="M62.367,10.068v5.182H50.009V-8.925H55.9v18.993H62.367z"/>
	<path fill="#FFFFFF" d="M74.62,10.271c1.862,0,3.385-1.015,3.385-3.385V-8.925h5.89V7.529c0,5.383-4.232,7.957-9.276,7.957
		c-5.011,0-9.242-2.574-9.242-7.957V-8.925h5.856V6.887C71.234,9.257,72.758,10.271,74.62,10.271z"/>
	<path fill="#FFFFFF" d="M102.48-3.743H97.64V15.25h-5.856V-3.743h-4.842v-5.182h15.539V-3.743z"/>
	<path fill="#FFFFFF" d="M120.963-3.743h-4.84V15.25h-5.857V-3.743h-4.842v-5.182h15.54V-3.743z"/>
	<path fill="#FFFFFF" d="M130.44-3.743v4.299h6.702v5.18h-6.702v4.332h7.108v5.182H124.55V-8.925h12.999v5.182H130.44z"/>
	<path fill="#FFFFFF" d="M141.271,15.25V-8.925h9.039c4.334,0,7.754,2.878,7.754,7.619c0,3.621-2.031,6.161-4.91,7.142l6.094,9.414
		h-6.432l-5.654-8.939v8.939H141.271z M149.768,1.099c1.695,0,2.439-0.983,2.439-2.404c0-1.422-0.947-2.437-2.439-2.437h-2.605
		v4.841L149.768,1.099L149.768,1.099z"/>
	<path fill="#FFFFFF" d="M176.986,15.25h-3.455l-4.535-13.509l-2.064,13.509h-5.891L164.9-8.924h6.229l4.131,13.068l4.402-13.068
		h6.125l3.521,24.174h-5.855l-1.965-13.509L176.986,15.25z"/>
	<path fill="#FFFFFF" d="M204.777-8.925l7.449,24.173h-5.857l-1.082-3.487h-7.684l-1.119,3.487h-5.891l7.449-24.173H204.777z
		 M199.193,6.379h4.502l-2.201-7.414L199.193,6.379z"/>
	<path fill="#FFFFFF" d="M215.066,15.25V-8.925h5.893v24.173h-5.893V15.25z"/>
	<path fill="#FFFFFF" d="M237.646,10.068v5.182h-12.355V-8.925h5.891v18.993H237.646z"/>
</g>
<path fill="#FFFFFF" d="M242.068-8.985v5.351h27.758c0,0,1.354-2.676,1.254-5.351H242.068z"/>
<path fill="#FFFFFF" d="M242.068,9.742v5.352h5.352c0,0,6.318-1.115,11.799-5.352H242.068z"/>
<path fill="#FFFFFF" d="M242.068-0.067v5.351h21.404c0,0,3.01-2.284,4.578-5.351H242.068z"/>
<path fill="#FFFFFF" d="M28.928-8.985v5.351H0.76c0,0-1.353-2.676-1.255-5.351H28.928z"/>
<path fill="#FFFFFF" d="M28.928,9.742v5.352h-5.762c0,0-6.319-1.115-11.798-5.352H28.928z"/>
<path fill="#FFFFFF" d="M28.928-0.067v5.351H7.114c0,0-3.01-2.284-4.579-5.351H28.928z"/>
</svg>
