<svg xmlns="http://www.w3.org/2000/svg" width="183" height="249" viewBox="0 0 183 249"><g><ellipse fill="#E5E5E5" cx="95.807" cy="212.667" rx="81.687" ry="26.666"/><path fill="#E2B893" d="M12.06 147.346l23.965 62.313s18.35 20.044 65.405 17.538c47.055-2.505 59.975-18.457 59.975-18.457l13.576-68.186-.14-1.88 1.652-5.335-2.28-4.647-159.32 8.487.443 2.062-1.94 1.822s-1.005 1.49-.35 3.29c.655 1.796-.984 2.992-.984 2.992z"/><path fill="#C69977" d="M15.847 139.466c-.17.12-.286-.12-.344.175 1.403 2.604 2.692 5.855 5.095 7.716 1.317 1.02 3.127 1.047 4.642 1.666 2.063.845 4.1 1.315 6.246 1.97 4 1.214 8.11 2.645 12.33 2.808 5.035.192 10.074 1.418 15.14 1.438 4.86.018 9.77-.227 14.16-2.16.96-.426 2.12-1.157 3.17-1.307 1.89-.27 4.092.827 5.88 1.317 7.573 2.08 14.732 4.02 22.48 2.02 1.694-.437 3-1.12 4.193-2.395.394-.42.823-1.25 1.224-1.565.95-.754 2.213-.582 3.722-.42 4.896.525 10.85 1.03 15.784.008 1.8-.373 3.396-1.53 5.132-2.197 2.14-.824 4.26-1.05 6.55-1.06 3.486-.016 6.648.827 10.06.958 2.245.088 6.027.85 7.605-1.27.804-1.08-.18-2.328.36-3.2.388-.626 2.77-1.02 3.488-1.137 3.067-.498 6.627-1.616 5.684-5.487-.255-1.04-1.122-2.598-1.853-3.36-1.195-1.245-2.765-.854-4.258-1.645l-146.493 7.128z"/><path fill="#BB4343" d="M76.36 60.985s-11.5 3.307-14.022 11.248c-2.523 7.94-2.037 12.497.21 16.78 2.246 4.286 4.57 5.43 4.57 5.43s14.032-1.16 21.892-4.01c7.86-2.848 16.16-2.464 18.946-1.527 2.785.937 5.927 2.376 5.927 2.376s5.786-8.083 4.5-13.438c-1.287-5.354-3.07-13.773-6.797-17.914-3.727-4.14-8.854-9.514-15.99-8.814-7.14.7-15.238 7.974-15.238 7.974l-3.997 1.895z"/><path fill="#CE7281" d="M166.545 119.592c2.615-9.652-2.388-11.943-2.388-11.943L151.293 93.99l-32.66-15.3c-.047 1.762-.498 3.237-1.236 4.47-.17 1.764-.547 3.472-1.35 4.93-2.254 4.105-5.738 1.23-9.025.51-.295-.065-.524-.193-.707-.356-6.787.314-13.393.944-19.857 2.89-1.178.385-2.354.774-3.524 1.187-.547.193-1.067.29-1.56.31-4.07 1.547-8.696 2.682-12.526 1.64-.233.066-.375.103-.404.104l-.103-.236c-.365-.12-.72-.272-1.067-.437-1.396-.238-2.67-1.082-3.387-2.678-2.687-3.21-3.252-7.626-2.762-11.858v-.023c-.022-.49.03-.932.12-1.352l-.51-1.17C46.38 77.468 40.55 87.746 38.61 95.61c-1.94 7.864 4.743 23.656 21.905 30.953 17.162 7.297 93.8 10.203 101.54 9.795 7.74-.408 9.144-4.62 9.144-4.62s-7.27-2.494-4.655-12.146zM108.327 147.238c.147.172-13.394-10.812-28.455-23.043-5.686-.684-10.08-4.426-15.492-5.852-5.183-1.366-11.195-2.16-15.78-5.134-4.4-2.855-9.19-7.218-9.407-12.908-.094-2.445-.297-5.957.796-8.488-18.536 1.078-13.27 41.857-13.348 42.72-.08.862 81.354 12.318 81.685 12.704zM19.826 107.376S17.8 123.13 20.89 127.348c3.09 4.217 13.08 13.198 19.64 14.103 6.556.902 14.67.472 19.853 1.445 5.185.978 11.504 4.52 11.504 4.52s-1.744 3.34-8.23 3.313c-6.487-.024-20.844-1.64-23.097-1.646-2.254-.005-13.602-1.653-19.808-8.834-6.206-7.183-9.544-6.787-9.877-15.2-.333-8.416.083-15.197 8.95-17.672z"/><path fill="#E88591" d="M19.764 117.63s38.66 24.734 38.646 24.73c-.014 0-11.593-.37-14.49-.718-2.897-.348-8.63-1.203-15.994-7.18-7.363-5.972-8.626-11.335-8.162-16.832z"/><path fill="#F7A6B3" d="M40.757 135.93s10.106 4.475 16.197 6.023c6.09 1.55 18.15 7.042 18.15 7.042s14.16 4.97 21.432 2.848c7.272-2.122 10.267-4.66 10.267-4.66s-7.39-2.427-14.38-4.398c-6.99-1.974-10.137-2.308-12.56-3.18-2.425-.872-10.426-4.077-14.01-5.013s-12.106-2.234-17.638-3.316c-5.53-1.082-15.97-3.885-18.48-10.146-2.513-6.26-.683-11.866.504-15.434 1.187-3.568 7.702-13.773 7.702-13.773s-7.323.734-10.902 3.554c-3.578 2.82-5.415 8.3-6.655 10.87-1.24 2.567-5.88 18.086 20.372 29.583zM52.162 114.43s9.55-1.457 20.107 3.268c5.962.713 24.982.593 25.36.627.377.034 47.595 5.216 47.595 5.216l14.418.38 6.873-5.195s7.286 1.357 7.393 4.23c.103 2.874-3.013 9.01-4.236 10.095-1.228 1.087-19.253 1.046-32.84-.233-13.588-1.278-23.526.125-32.662-4.52-9.137-4.647-26.172-4.86-26.172-4.86s-19.98-5.8-25.838-9.007z"/><path fill="#E88591" d="M118.285 80.728c1.83-.168 4.01.84 5.58 1.61 1.93.94 4.023 1.738 5.69 3.135 2.064 1.734 3.74 3.546 6.03 5.105 1.29.878 4.64 1.417 4.662 3.354-1.88.92-5.4.903-7.48.803-3.54-.17-7.18-.84-10.666-1.598-1.124-.244-2.226-.608-3.327-.89-.63-.16-2.29-.984-2.912-.626-1.218.704 4.106 2.857 4.95 3.092 6.176 1.72 12.73 4.192 19.19 4.36 2.44.065 5.65-.593 5.483-3.518-.12-2.13-1.28-4.103-2.655-5.742-1.75-2.085-4.2-2.68-6.497-3.906-2.144-1.147-4.097-2.396-6.195-3.585-2.122-1.202-4.67-1.678-6.685-2.835-1.21-.696-2.27-1.046-3.605-1.313-1.273-.255-2.016-.434-2.146 1.088-.035.4.055.847.07 1.248"/><path fill="#E88591" d="M156.18 98.89c-1.99-3.347-8.277-6.693-10.765-7.998 2.54 1.736 8.708 7.02 6.862 9.95-2.192 3.478-7.045 3.808-11.783 1.978-.766-.295-1.785-.713-2.955-1.205-2.424-.76-4.685-1.82-7.093-2.7-.727-.226-1.4-.484-2.225-.735-.424-.128-.74-.357-.968-.638-1.676-.575-3.37-1.103-5-1.802-.653-.28-.964-.766-1.026-1.29-.912-.457-13.125-6.546-17.57-6.31-4.617.247-17.414 2.063-20.098 3.39-2.683 1.33-12.506 3.355-12.506 3.355s8.09.696 20.794-2.86c12.704-3.555 22.667 2.548 28.773 6.73 6.106 4.18 18.01 11.434 23.41 11.772 0 0 9.335-.998 10.444-1.308.003 0 4.318-5.938 1.706-10.33z"/><path fill="#A35F6F" d="M114.066 90.842s20.733 10.913 30.104 12.917c0 0-17.105-3.895-31.794-11.726l1.69-1.192z"/><path fill="#E88591" d="M60.69 87.55c-.187-.878-.188 2.744-.118 3.64.096 1.207.574 2.375 1.24 3.398 2.39 3.677 5.994 4.798 9.853 6.43 4.63 1.956 9.526 2.75 14.252 4.513 2.108.788 4.02 1.867 5.896 3.147 1.975 1.347 3.99 2.367 5.646 4.083 1.022 1.062 2.124 2.03 3.166 3.085.813.824 1.642 2.246 2.983 1.968 0 0 21.097 1.254 32.97 3.25 11.873 1.997 29.69.423 31.34-6.174 1.652-6.598-2.943-10.61-2.943-10.61s-4.847-4.058-6.83-3.725l.156 2.955s3.01 2.468 1.953 3.776c0 0-1.273 2.002-11.374 2.7-10.1.697-9.087 3.272-19.767 3.715-10.68.444-16.66-3.744-21.635-5.48-4.976-1.74-18.147-4.65-22.485-6.18-4.337-1.53-16.02-7.042-16.02-7.042s-7.284-2.745-8.285-7.448z"/><path fill="#FFBDCA" d="M83.566 117.5s-8.36.512-17.245-1.802c0 0 7.23 4.09 18.726 3.727 11.497-.36 25.108.916 34.78 1.778 9.673.862 33.344 3.357 39.912 4.51 6.568 1.153 11.87 1.996 13.52.03 1.646-1.965.42-1.523.42-1.523s-3.13 1.793-9.348.497c-6.22-1.296-18.038-2.294-18.038-2.294s-21.35-3.62-34.15-4.315c-12.808-.695-22.48-1.336-22.48-1.336l-6.096.73zM139.52 143.312c.396-.02-4.028-.912-18.62-2.015-14.593-1.1-25.753-8.52-35.825-11.985 0 0 14.104 8.638 24.053 12.11 9.95 3.478 22.84 3.417 22.84 3.417s4.553-1.367 7.552-1.528zM20.59 107.853s-3.786 17.46 20.167 28.077c0 0-16.067-5.78-21.27-15.017l1.103-13.06z"/><path fill="#F7A6B3" d="M10.64 118.663s1.733 15.897 13.248 22.92c11.515 7.022 20.417 7.3 20.417 7.3s-13.07.326-21.774-5.097c-8.702-5.423-12.887-17.777-11.89-25.123zM42.165 108.69s5.65 14.435 32.284 23.298c26.633 8.863 28.31 14.533 36.498 15.475 8.187.94 12.028.245 15.583-1.206 3.555-1.45 9.382-3.128 13.718-2.48s15.145 1.444 17.602.563c2.457-.883 5.608-2.803 5.703-8.064 0 0-18.19-.782-28.23-1.252-10.038-.467-22.35 1.065-36.512-3.938-14.16-5.005-23.463-8.14-30.586-10.264-7.125-2.125-23.995-8.612-26.06-12.132z"/><path fill="#CE7281" d="M59.61 78.97s-5.882 6.01-7.647 12.205c-1.765 6.196-1.795 11.83 7.565 14.086 9.36 2.256 17.33 6.265 19.645 8.557s5.245 3.233 5.245 3.233l19.19.76s-7.49-9.054-16.422-12.24c-8.932-3.184-25.037-3.954-26.367-16.4-1.33-12.446-1.21-10.2-1.21-10.2z"/><path fill="#FFBDCA" d="M74.45 131.988c-.69-.3 20.837 6.32 34.843 15.2l-7.062-1.392c0 .003-19.882-10.398-27.78-13.808z"/><path fill="#F7A6B3" d="M104.465 117.39s-8.25-9.454-19.315-12.475c0 0 9.187 3.627 16.706 12.99l2.61-.515zM118.256 80.166c2.217.39 4.346 1.428 6.385 2.37 1.925.886 3.81 1.74 5.542 3 2.24 1.63 4.69 2.9 7.012 4.433.95.626 4.574 3.06 2.705 4.363-.796.554-2.358.656-3.322.756-1.153.12-2.54.114-3.568-.36 1.065-.1 5.792-.41 3.81-2.526-.657-.7-1.662-1.263-2.434-1.876-1.214-.966-2.603-1.74-3.79-2.74-.946-.797-2.017-1.557-3.063-2.22-1.183-.746-2.552-.972-3.806-1.55-.713-.33-5.832-1.624-5.72-2.45"/><path fill="#A35F6F" d="M88.537 102.716c3.362-1.145 7.04-.863 10.55-1.062 5.087-.29 9.904.358 14.745 1.935 3.832 1.248 6.855 3.25 9.977 5.64 1.555 1.188 3.687 2.44 5.526 2.706 0 0-9.04.05-14.923-1.638-5.886-1.688-25.876-7.582-25.876-7.582zM55.32 84.347c.325-.465-9.6 6.503-6.513 15.102 3.087 8.598 16.18 7.65 17.435 7.708 1.255.058-8.857-1.782-12.525-4.84-3.668-3.06-3.81-10.24 1.603-17.97zM19.554 123.413s-3.073 6.006 5.26 12.07c8.336 6.064 14.355 9.417 23.49 8.597 9.138-.82 19.812 5.3 19.812 5.3l4.325-1.995S61.43 142.9 56.983 142.46c-4.447-.44-15.433-.274-18.354-1.66-2.922-1.39-13.02-8.32-13.02-8.32s-5.718-5.414-6.054-9.067z"/><path fill="#9E3838" d="M74.283 67.758c.83-2.356 4.574-4.28 6.54-5.69 2.247-1.607 5.076-3.178 8.022-2.93 2.323.196 1.285.96-.017 2.212-.994.955-1.938 1.64-3.08 2.33-2.02 1.22-3.91 2.573-6.163 3.29-1.574.503-3.27.58-4.785 1.095"/><path fill="#9E3838" d="M61.28 77.463c.297-2.473 1.34 5.953 2.336 7.085 2.183 2.48 5.343 3.758 8.596 4.02 4.568.368 8.237-.515 12.45-2.132 2.816-1.082 5.877-1.19 8.895-1.512 2.752-.294 6.96.424 8.026 3.412 0 0-7.704 1.325-16.677 3.39-8.974 2.068-16.568 2.412-16.568 2.412s-8.904-1.22-7.057-16.675z"/><path fill="#D15252" d="M74.477 68.248c-2.905.054-6.617.988-7.837 4.043-.985 2.47 1.385 5.207 3.382 6.418 5.703 3.457 11.342.956 16.963-1.24 2.96-1.158 5.682-2.056 8.852-2.346 2.6-.237 5.817.21 8.18-.765 5.95-2.454 4.925-10.17 1.37-14.064-2.146-2.35-4.695-4.074-7.723-4.755-2.146-.483-7.048.213-7.16 3.345 0 0-.955 4.05-6.35 6.18-5.393 2.13-9.677 3.185-9.677 3.185z"/><path fill="#51604A" d="M78.513 67.25s1.057-4.448-3.736-7.864-8.508-7.392-14.672-16.577c-6.164-9.187-13.38-27.178-13.38-27.178s-2.243-3.335-.035-3.97c2.21-.635 3.322 1.475 5.366 5.372C54.1 20.93 62.916 42.66 62.916 42.66S69.88 53.325 76.13 56.653c6.252 3.328 11.41 6.174 11.41 6.174s-4.99 3.426-9.027 4.423z"/><path fill="#657A5A" d="M48.03 16.08l14.886 26.58s-11.278-25.77-11.46-26.762c-.182-.992-1.588-5.52-3.662-4.272-2.074 1.247.237 4.455.237 4.455z"/><path fill="#44543B" d="M78.057 63.384c-.03-.197-.365-.227-.034-.352 1.198.4 9.38-2.132 8.727.395-.212.82-3.353 2.003-4.056 2.34-1.36.65-2.94.797-4.284 1.25-.32-.864-.49-1.925-.975-2.765"/><path fill="#EFC5A5" d="M170.39 141.814c-.55.586-1.048.62-1.497.11.082.093.164.187.246.277.208.21.41.428.604.65.513.57.854 1.17 1.127 1.883.428 1.11-.683 2.23-1.788 1.99-1.855-.406-3.652-.567-5.547-.516.3.967.67 1.906 1.058 2.865.485 1.197-.723 2.1-1.788 1.988-1.465-.15-3.02-.52-4.492-.478-.96.03-3.388.868-3.655.522.766.98 1.442 1.875 1.944 3.02.502 1.144-.732 2.168-1.79 1.99-2.27-.382-3.952-2.09-6.32-1.86-.18.018-.34 0-.484-.03-.462 2.466-1.74 5.17-4.74 3.893-1.896-.812-4.538-4.255-6.747-3.654-.136.036-.267.054-.393.058-.02.023-.026.05-.048.073-.554.676-.988 1.438-1.476 2.158-.442 1.063-1.18 1.95-2.088 2.653-.59.453-1.465.273-1.96-.232-.587-.013-1.183-.12-1.76-.29-.407-.12-.69-.355-.875-.647-1.324.66-2.684 1.226-4.044 1.824-1.63.722-3.058 1.85-4.73 2.432-.997.348-1.94-.1-2.66-.73-.474-.42-.722-1.056-1.106-1.54-.71-.897-2.11-1.376-3.152-1.82-1.582 1.81-3.12 3.833-5.3 4.523-3.362 1.065-4.745-.937-6.556-3.313-1.362.563-2.694 1.197-3.923 2.01-1.338.883-2.555 1.643-4.137 1.958-2.497.498-5.125-1.235-7.232-2.347-1.114.49-2.193 1.057-3.194 1.745-.877.604-2.03 1.483-3.16 1.522-2.927.1-3.935-2.062-6.485-2.856-.045-.015-.083-.036-.127-.054-2.007 1.02-4.108 2.01-6.3 2.223-3.27.313-4.8-1.612-6.96-3.712-1.16.185-2.305.465-3.445.846-.958.32-1.85.81-2.852.988-2.015.36-2.926-.988-2.993-2.654-1.536.52-3.1 1.002-4.55 1.64-1.417.622-3.666 2-5.32 1.145-1.2-.62-1.498-2.135-1.66-3.338-.446-3.354-4.848-.64-6.682.088-.755.3-1.725-.197-1.944-.972-1.342-4.695-4.02-.465-6.896-1.718-.568-.247-1.016-1.088-.797-1.696-.64-.9-1.277-1.804-1.915-2.703-.127.014-.245.008-.358-.007-.5.224-.987.478-1.45.673-1.73.73-2.574-1.723-1.332-2.745.95-.564 1.444-1.398 1.482-2.504-.005-.03-.003-.06-.006-.087l-6.07.285 4.746 13.268c-.002 1.815 2.51 7.33 4.854 7.065.224-1.045.618-3.495 1.62-3.908.85 2.217 1.353 4.625 2.06 6.896 1.095 3.524 1.528 8.91 4.15 11.675 1.8-1.27.91-6.413 1.33-8.432.61-2.934 2.146-5.884 3.184-1.294.874 3.86 2.006 7.562 4.022 11.017.716 1.23 2.515 5.14 4.333 5.17 3.188.058.71-9.497 1.11-11.76.192-1.076 1.61-6.14 3.38-5.263 1.9.938 2.06 7.857 2.604 9.963.788 3.05 1.864 6.41 3.705 8.99.762 1.065 3 4.246 4.69 3.81 1.75-.45 1.444-4.937 1.497-6.255.153-3.873-.19-7.91.988-11.666.35-1.112.945-3.293 2.548-3.14 2.443.23 2.893 7.267 3.187 8.888.744 4.11 1.44 8.258 3.435 11.98.582 1.085 2.154 4.16 3.862 3.867 1.35-.23 1.434-4.396 1.556-5.355.56-4.414 1.162-9.9 4.11-13.492 4.938-6.02 4.92 7.135 5.036 9.555.114 2.37.454 14.723 5.578 13.236 2.022-.585 2.93-5.325 3.31-6.893 1.016-4.207 1.844-8.582 3.657-12.54 4.05-8.845 5.07 7.978 5.313 10.38.266 2.617 1.297 12.247 6.094 9.427 2.586-1.52 3.918-6.46 4.834-9.017 1.426-3.97 2.168-10.304 5.498-13.274 5.158-4.604 4.277 11.942 4.537 14.088.233 1.934.85 5.132 3.002 6.004 2.826 1.146 4.02-2.343 4.605-4.384.63-2.194 5.887-22.482 9.318-19.355 2.804 2.553-4.812 20.547 1.593 20.5 2.594-.022 4.33-5.367 5.004-7.127 2.23-5.822 4.085-11.84 7.166-17.3.472-.837 2.293-4.474 3.764-3.333 2.124 1.646-1.302 10.855-1.512 13.113-.328 3.53.56 8.283 2.965 2.635 1.55-3.637 2.438-7.512 3.393-11.328.297-1.193.453-2.952 1.144-3.94 1.397 1.218-.338 4.577 1.312 5.796.754.56 2.31.52 3.02.175l8.088-36.147-.115.006c-1.624 1.01-3.406 1.443-5.25 2.18z"/><path fill="#B28760" d="M172.76 129.202c1.075.476 1.122 1.077.14 1.802-.175.262.01.38.274.42 4.828.73-1.924 4.764-2.938 5.98-.062.074-.15.248-.02.32 1.14.62 2.512 1.334 3.59 1.955.777.446-5.007 1.853-5.283 1.908-.197.04-1.453.374-1.062.787 1.326 1.404 2.867 2.226 3.425 4.23l1.365-.72c-2.76.062-5.5-.074-8.252.188-.18.018-1.607.29-1.365.72.08.145 2.52 4.092.762 3.963-1.373-.1-2.742-.438-4.106-.61-1.75-.223-3.43-.042-5.066.575-.16.063-.85.386-.55.65.493.426.974.87 1.435 1.333 2.663 2.56-.077 2.85-1.944 1.814-.828-.46-1.8-1.176-2.746-1.32-1.027-.157-3.59.09-3.97 1.36-2.233 7.503-9.68-5.056-12.165.312-.516 1.11-1.062 5.674-3.64 4.238-.944-.524-1.858-1.245-2.995-1.264-2.373-.04-3.937.545-5.383 2.447-3.973 5.22-5.91-2.417-9.7-2.222-1.753.09-3.51.472-4.372 2.217-1.04 2.113-2.943 3.834-4.812 1.67-.812-.94-1.456-1.675-2.552-2.25-1.587-.836-3.727.39-4.934 1.297-2.097 1.583-3.82 4.19-6.898 1.63-.7-.58-1.326-1.627-2.328-1.745-2.3-.27-4.164 1.002-5.977 2.28-2.55 1.804-3.765 1.478-5.785-.806-.902-1.02-1.94-1.16-3.2-1.18-3.703-.054-5.59 4.978-9.57 1.747-1.437-1.166-1.62-3.314-3.897-3.033-1.384.174-2.566.615-3.858 1.143-3.03 1.232-3.256.602-3.568-2.453-.036-.354-.9-.163-1.068-.122-2.472.605-4.712 1.925-7.027 2.94-4.335 1.9-3.86-1.174-3.54-2.982.11-.63.007-.95-.448-1.342-1.01-.864-3.624.11-4.663.42-1.954.578-5.03.398-4.075-2.787.046-.15-.06-.205-.176-.267-3.068-1.596-5.648 1.62-8.196 2.58.438.05.876.1 1.314.148.137-1.288 2.02-6.698-1.237-6.026-.655.137-5.528 1.79-5.222.338.41-1.95 2.612-2.928 2.88-5.135.045-.385-.567-.324-.802-.287-.65.078-1.294.188-1.932.328-6.748 1.79-1.735-2.57-.194-3.918.28-.244.262-.484-.145-.537-4.03-.516-1.472-1.278.318-2.123.176-.082.402-.237.39-.457l-.013-.25c-.034-.08-.095-.135-.184-.155-.39-.73-.78-1.46-1.172-2.19.825-.634-1.113-.48-1.51-.173-1.066.817-1.15.577-1.043 1.77.035.372.597.68.953.85 1.34.642-2.024 2.04-2.224 2.16-.187.114-.65.47-.207.614 1.714.56 3.288.345 1.428 1.99-1.15 1.017-1.688 2.032-2.047 3.52-.05.216.178.288.35.306 1.833.185 1.766.185 3.604-.15 3.158-.58 2.59.062 1.1 2.06-.28.375-2.435 2.61-1.32 3.205 1.072.575 2.17.77 3.37.446.75-.2 2.984-1.526 3.573-.646.6.9-.517 3.684-.632 4.764-.06.554 1.07.242 1.314.15.69-.262 5.77-2.7 5.66-2.342-.22.742.095 2.82.263 3.36.76 2.443 4.18.708 5.518-.044 4.948-2.776 3.042.654 3.33 2.588.175 1.17 1.748 1.617 2.695 1.723 3.397.377 7.028-2.92 10.15-3.685l-1.067-.123c.18 1.746-.102 4.437 2.305 4.062 1.355-.21 2.675-.987 3.907-1.528 3.85-1.69 4.26 1.625 6.915 3.123 2.078 1.17 4.38.054 6.188-1.063 5.424-3.35 5.522 3.556 10.034 2.178 1.343-.408 2.092-.842 3.18-1.814 4.338-3.895 4.41-1.397 7.104.206 2.155 1.282 4.74.36 6.597-.927 2.147-1.49 4.286-3.34 6.462-.684.764.933 1.586 1.724 2.826 1.865 2.213.255 4.037-1.134 4.982-2.975 2.105-4.106 4.71-.764 6.81.742 1.134.812 2.257.843 3.557.78 4.02-.19 4.57-6.06 9.09-3.262 1.528.948 3.196.944 4.673-.147 1.312-.972 1.868-2.33 2.264-3.856.63-2.45 5.55 2.016 6.892 2.77 1.27.717 3.67.584 4.657-.647.545-.68 1.352-4.005 2.436-3.572 1.92.766 3.37 2.02 5.437 2.44.968.196 3.5-.6 3.242-2.01-.147-.813-.19-1.247-.772-1.922-.165-.188-2.246-1.805-1.13-1.893 2.086-.166 4.226.58 6.3.73 4.125.303 3.217-2.797 1.733-5.434l-1.364.72c2.752-.265 5.492-.126 8.252-.188.27-.008 1.5-.236 1.365-.72-.564-2.028-2.146-2.93-3.547-4.412-.354.263-.71.524-1.062.787 2.852-.584 5.514-.865 8.145-2.136.13-.063.577-.36.327-.55-.686-.583-1.432-1.075-2.238-1.478-2.28-1.312-2.73-.902-1.056-2.25 1.18-.945 2.403-1.795 3.452-2.895 2.09-2.19-2.48-1.745-.776-4.292.104-.154.12-.322-.104-.385-1.438-.396-1.477-.44-2.884-.15-.828.185-1.664 1.166-.323.89z"/><path fill="#682525" d="M82.13 59.097c4.38-4.603 10.036-7.833 16.568-7.11 5.56.614 9.99 5.982 12.997 10.243 5.476 7.76 7.31 21.263 1.098 29.08-.77.97 1.055 1.34 1.63.617 8.216-10.336 3.522-26.255-4.6-35.05-8.884-9.62-20.84-7.313-29.32 1.603-.848.888 1.002 1.275 1.628.617zM69.237 94.532c-7.03-2.874-8.4-10.62-7.625-17.426.997-8.765 7.57-12.757 15.142-15.682 1.256-.485.117-1.228-.785-.88-7.826 3.023-14.29 6.913-16.11 15.63-1.527 7.307.372 16.28 7.853 19.336.62.255 2.372-.632 1.524-.978z"/><path fill="#5B373E" d="M58.74 79.066c-5.912 4.316-10.99 15.218-7.303 22.22 2.054 3.9 8.83 4.822 12.658 5.822 7.43 1.94 13.438 6.79 19.93 10.636.457.27 2-.53 1.827-.633-5.13-3.04-9.927-6.582-15.366-9.078-5.167-2.37-11.31-2.414-15.968-5.898-6.97-5.214.88-19.554 5.96-23.26.36-.264-1.384-.065-1.737.192zM67.563 95.346c8.74 3.172 16.988 7.518 26.15 9.42 9.648 2.003 18.67 6.402 28.45 7.76 8.513 1.183 17.194-1.396 25.614-2.2 5.36-.512 11.37-.982 15.787-4.38.396-.305-1.387-.113-1.744.162-5.73 4.408-15.897 3.6-22.832 4.726-9.312 1.514-17.356 1.17-26.315-1.7-6.948-2.227-13.737-4.14-20.816-5.88-7.776-1.915-14.97-5.834-22.472-8.557-.534-.194-1.967.596-1.822.65zM117.593 78.232c9.915 2.432 18.527 8.754 27.6 13.25 6.66 3.3 15.52 8.442 10.91 17.012-.17.314 1.642.177 1.91-.325 4.26-7.918-2.73-12.978-9.147-16.413-9.48-5.074-19.188-11.724-29.69-14.3-.47-.116-2.176.63-1.583.775zM157.548 101.02c5.76.776 9.05 6.157 10.022 11.468 1.017 5.544-4.61 8.56-8.535 10.958-1.114.682.59.904 1.19.537 3.85-2.353 9.7-5.436 9.353-10.81-.396-6.11-4.473-12.314-10.842-13.172-.582-.077-2.27.876-1.188 1.02zM59.896 76.293c-6.898.18-13.5 3.33-17.462 9.132-4.276 6.26-6.973 15.714-1.66 22.248 4.94 6.075 12.693 8.805 19.906 11.15 11.775 3.83 23.726 7.135 35.173 11.9 10.502 4.367 22.2 4.815 33.416 4.528 7.04-.18 14.046.6 21.056 1.142 4.287.334 9.79 1.246 14.02.06 8.813-2.466 16.695-18.018 2.702-17.796-.564.01-2.104.88-.812.86 6.908-.11 8.108 5.01 5.222 10.27-4.97 9.046-17.187 5.995-25.688 5.28-9.3-.78-18.54-.303-27.838-.82-9.88-.553-18.314-3.645-27.45-7.06-13.952-5.222-30.397-7.433-43.01-15.693-15.075-9.876-5.266-33.897 11.61-34.338.564-.016 2.104-.895.814-.862zM39.085 90.953c-5.737 1.487-9.693 1.425-14.298 5.53-3.786 3.38-5.675 8.126-6.198 13.07-.59 5.564-.67 11.874 1.308 17.166 1.986 5.315 8.386 9.4 12.97 12.17 4.957 2.99 9.985 4.17 15.743 4.007 5-.14 9.34-.188 14.124 1.48 3.605 1.255 7.02 3.05 10.57 4.453 10.802 4.276 23.46 6.472 33.4-.83 1.06-.774-.532-1.34-1.26-.806-10.206 7.494-23.32 3.697-33.992-.826-4.573-1.938-8.938-4.077-13.89-4.846-6.142-.948-12 .888-18.095-1.23-5.487-1.905-10.628-5.79-14.652-9.884-4.2-4.27-4.565-9.787-4.49-15.477.068-5 .355-9.622 2.88-14.074 1.817-3.206 5.27-6.202 8.726-7.363 2.337-.785 5.066-.676 7.485-1.303 1.19-.31.856-1.544-.33-1.237z"/><path stroke="#5B373E" stroke-miterlimit="10" d="M37.94 91.922c-5.395 6.797-13.484 22.718-7.027 31.137 6.746 9.153 26.494 8.603 36.693 12.065 5.848 1.69 11.29 5.156 17.1 6.1 6.32 1.166 12.18 3.106 18.278 4.784 5.6 1.704 10.62 1.937 16.358 1.633 6.24-.334 11.59-3.37 17.565-3.938 7.23-.638 26.875 6.33 26.643-7.43M19.064 107.417c-12.31 3.91-9.133 21.265-3.964 29 8.43 12.57 21.925 12.103 35.262 13.396 5.782.443 16.413 2.63 21.443-1.643" fill="none"/><path fill="#5B373E" d="M84.85 118.122c5.8-.612 11.626.188 17.423.513 6.17.345 12.25.454 18.4 1.138 12.6 1.4 25.428 4.104 38.103 4.41.914.022 1.98-1.35.677-1.38-12.667-.308-25.522-2.96-38.104-4.41-6.77-.78-13.487-.864-20.278-1.244-5.36-.3-10.678-.982-16.043-.416-1.068.113-1.5 1.527-.18 1.388zM67.593 94.767c14.837 1.27 31.406-11.05 45.272-2.583.742.454 2.427-.556 1.484-1.132-14.595-8.91-30.764 3.594-46.1 2.282-.96-.083-1.965 1.32-.657 1.433z"/><path fill="#3B4933" d="M47.383 14.322c-.504-.743-.797-1.767.004-2.42.07-.058-.643.078-.228.09.188.004.386.092.555.17.538.248.902.73 1.165 1.243.23.448 2.067-.252 1.932-.518-.854-1.672-2.477-1.894-4.142-1.35-1.576.516-2.174 1.894-1.22 3.302.308.452 2.06-.33 1.933-.518zM45.188 14.603c4.71 10.65 9.02 21.227 15.265 31.103 2.894 4.577 6.31 8.894 10.98 11.757 4.28 2.622 5.82 4.68 6.098 9.746.03.552 1.97.172 1.933-.52-.158-2.897-.45-5.463-2.612-7.527-1.41-1.347-3.52-2.365-5.118-3.414-2.687-1.765-4.82-4.32-6.77-6.83-8.06-10.38-12.584-22.948-17.842-34.834-.275-.623-2.165-.01-1.932.517zM49.116 13.142c5.017 10.436 8.428 21.947 14.304 31.936 4.927 8.375 14.187 15.097 23.512 17.92.626.188 2.273-.737 1.178-1.068-10.364-3.137-19.46-10.71-24.278-20.265-4.758-9.438-8.204-19.512-12.784-29.04-.327-.682-2.214-.07-1.932.517z"/><path fill="#682525" d="M90.66 58.445c-3.647 5.338-9.95 8.427-16.223 9.392-.965.148-1.564 1.377-.236 1.173 7.048-1.084 14.165-4.456 18.272-10.47.535-.784-1.425-.664-1.813-.095z"/><path stroke="#B28760" stroke-width="2" stroke-miterlimit="10" d="M11.928 147.354l24.636 63.028s16.306 19.41 66.234 16.752c49.93-2.66 58.604-18.393 58.604-18.393l14.23-69.104M176.426 132.084l-1.68 6.6M12.37 141.57l1.195 2.694" fill="none"/></g><g stroke-width="2" stroke-miterlimit="10" fill="none"><path stroke="#AF6170" d="M129.336 90.842l1.25 1.464M146.75 101.587l-1.258 2.316M114.404 101.587l1.278 2.162M82.998 95.745h1.032M59.37 94.138l3.27 1.607M32.75 106.508l2.5-1.593M48.21 124.5l1.977 2.42"/><path stroke="#CE7281" d="M112.31 139.583h2.733M80.284 129.312l2.714 1.978M127.25 126.92l2.71-1.21"/><path stroke="#AF6170" d="M92.055 112.832h2.754"/><path stroke="#CE7281" d="M152.5 116.516l3.25-.818M154.125 129.312l2.895 1.978M24.523 123.413l2.877-2.104"/><path stroke="#AF6170" d="M99.502 93.053l3.357 1.085"/></g><g stroke="#E1FFE5" stroke-width="1.5" stroke-miterlimit="10" fill="none"><path d="M129.336 89.842l1.25 1.464M146.75 100.587l-1.258 2.316M114.404 100.587l1.278 2.162M82.998 94.745h1.032M59.37 93.138l3.27 1.607M32.75 105.508l2.5-1.593M48.21 123.5l1.977 2.42M112.31 138.583h2.733M80.284 128.312l2.714 1.978M127.25 125.92l2.71-1.21M92.055 111.832h2.754M152.5 115.516l3.25-.818M154.125 128.312l2.895 1.978M24.523 122.413l2.877-2.104M99.502 92.053l3.357 1.085"/></g></svg>