<svg xmlns="http://www.w3.org/2000/svg" width="168.998" height="249" viewBox="0 0 168.998 249"><path fill="#FFF9C2" d="M132.46 5c-.082 13.994-8.486 16.82-8.486 27.04s8.487 10.692 8.487 10.692 8.665 1.466 8.665-10.012S132.46 19.15 132.46 5z"/><path fill="#fe8" d="M132.46 5c-.082 13.994-8.486 16.82-8.486 27.04 0 4.25 1.468 6.81 3.183 8.356-.023-.114-.06-.217-.075-.337-.466-4.342-.122-6.348 1.296-10.522.896-2.64 4.263-5.65 6.458-3.867 4.3 3.493 4.13 10.3 2.582 15.345 1.938-1.49 3.706-3.11 3.706-8.294 0-11.477-8.663-13.57-8.663-27.72z"/><g><path fill="#F7F7F7" stroke="#D6D6D6" stroke-width="1.5" stroke-miterlimit="10" d="M44.004 85.917c.516-1.608-1.028-4.203-.75-6.25.32-2.358 2.156-3.692 4.307-4.688 4.935-2.284 7.623.89 11.894 1.912 1.268-8.94 4.214-16.863 14.744-15.975 2.854.24 5.644 1.012 8.058 2.744 2.864 2.057 4.24 5.19 6.75 7.426 1.548-1.947 1.864-4.714 3.25-6.857 1.773-2.743 3.77-4.326 7-5.007 6.398-1.348 14.247 1.943 16.188 8.394.62 2.062.283 2.94 2.352 3.55 1.56.46 3.594.07 5.268.44 2.346.517 4.568 1.353 6.63 2.61 4.974 3.032 5.932 6.752 4.598 11.644 5.49 2.204 9.95 5.74 10.41 12.32.226 3.216-1.648 9.127-4.943 10.487"/><path fill="#D6D6D6" d="M119.67 72h-7.124l3.5-1.416zM133.88 86.46l-2.25-.79 2.845-.558"/><path fill="#fff" d="M118.63 73.417c-3.58-.98-8.19 1.103-5.85 5.397 2.19 4.022 9.085 5.786 12.854 2.886 2.628-2.022.854-4.56-1.165-6.164-1.994-1.585-3.527-1.57-5.843-2.244M97.88 61.792c2.657-2.383 12.222.948 9.876 5.5-1.38 2.677-8.89 2.978-10.377.5M134.13 89.042c2.577-1.103 4.912 4.48 3.876 6.373-1.788 3.27-8.404 1.314-10.018-1.25-3.043-4.848 2.785-6.573 6.266-4.873M48.944 75.663c-2.303-.085-4.108 2.932-1.727 4.253 2.057 1.14 7.208 1.65 8.203-1.072 1.515-4.146-4.654-3.46-6.726-3.056"/><path fill="#ddd" d="M108.38 81.792c1.718-.125 4.24 1.08 5.757 1.777 1.146.525 2.318 1.24 3.398 1.874 1.59.935 5.685 3.213 5.7 5.34-4.505-1.91-9.034-5.157-14.085-5.262-.162-.397-.295-.812-.396-1.23"/></g><g><ellipse fill="#E5E5E5" cx="87.311" cy="220.334" rx="81.687" ry="26.666"/><path fill="#E2B893" d="M3.565 155.013l23.964 62.313s18.35 20.045 65.404 17.54c47.055-2.506 59.975-18.458 59.975-18.458l13.575-68.187-.14-1.878 1.65-5.336-2.278-4.646-159.32 8.487.443 2.062-1.94 1.82s-1.006 1.49-.35 3.29c.655 1.797-.985 2.993-.985 2.993z"/><path fill="#C69977" d="M7.352 147.133c-.17.12-.286-.12-.344.175 1.403 2.603 2.692 5.854 5.095 7.715 1.317 1.02 3.127 1.047 4.642 1.666 2.063.844 4.1 1.314 6.246 1.968 4.002 1.215 8.11 2.646 12.33 2.81 5.036.19 10.075 1.417 15.14 1.437 4.86.018 9.77-.227 14.16-2.16.962-.426 2.122-1.157 3.172-1.307 1.89-.27 4.09.826 5.88 1.316 7.572 2.08 14.73 4.02 22.48 2.02 1.693-.437 3-1.12 4.192-2.395.395-.42.824-1.25 1.225-1.566.95-.754 2.212-.582 3.72-.42 4.897.525 10.852 1.03 15.785.008 1.8-.373 3.396-1.53 5.132-2.197 2.14-.824 4.26-1.05 6.55-1.06 3.486-.016 6.648.827 10.06.958 2.245.088 6.027.85 7.605-1.27.804-1.08-.18-2.328.36-3.2.388-.626 2.77-1.02 3.488-1.137 3.067-.497 6.627-1.615 5.684-5.486-.254-1.04-1.12-2.598-1.852-3.36-1.195-1.245-2.765-.854-4.258-1.645L7.352 147.133z"/><path fill="#BB4343" d="M67.865 68.652S56.365 71.96 53.842 79.9c-2.523 7.94-2.037 12.497.21 16.78 2.246 4.286 4.57 5.43 4.57 5.43s14.032-1.16 21.892-4.01c7.86-2.848 16.16-2.464 18.946-1.527 2.785.937 5.927 2.376 5.927 2.376s5.786-8.084 4.5-13.44c-1.287-5.353-3.07-13.772-6.797-17.913-3.727-4.14-8.854-9.514-15.99-8.814-7.14.7-15.238 7.974-15.238 7.974l-3.997 1.895z"/><path fill="#CE7281" d="M158.05 127.26c2.614-9.653-2.39-11.944-2.39-11.944l-12.863-13.657-32.66-15.3c-.047 1.76-.498 3.236-1.236 4.468-.17 1.765-.546 3.473-1.35 4.932-2.483 5.188-5.737 1.23-9.024.51-.295-.066-.524-.194-.707-.357-6.788.314-13.394.944-19.858 2.89-1.178.385-2.354.774-3.524 1.187-.547.193-1.067.29-1.56.31-4.07 1.547-8.696 2.682-12.526 1.64-.233.066-.375.103-.404.104l-.103-.236c-.366-.12-.72-.273-1.068-.438-1.396-.238-2.67-1.082-3.387-2.678-2.687-3.21-3.252-7.626-2.762-11.858v-.023c-.022-.488.03-.93.12-1.35l-.51-1.17c-14.353.845-20.184 11.123-22.124 18.987-1.938 7.864 4.744 23.657 21.906 30.953 17.162 7.297 93.8 10.203 101.54 9.795 7.74-.408 9.144-4.62 9.144-4.62s-7.27-2.494-4.655-12.146zM99.832 154.905c.147.172-13.394-10.812-28.455-23.044-5.686-.683-10.08-4.425-15.492-5.85-5.183-1.366-11.195-2.16-15.78-5.135-4.4-2.854-9.19-7.217-9.407-12.907-.094-2.445-.297-5.957.796-8.488-18.535 1.078-13.268 41.857-13.347 42.72-.08.863 81.353 12.32 81.685 12.705zM11.33 115.043s-2.026 15.755 1.064 19.972c3.09 4.217 13.082 13.198 19.64 14.103 6.557.9 14.67.47 19.854 1.444 5.185.978 11.504 4.52 11.504 4.52s-1.744 3.34-8.23 3.313c-6.487-.024-20.844-1.64-23.097-1.646-2.254-.006-13.602-1.654-19.808-8.835-6.206-7.183-9.544-6.787-9.877-15.2-.334-8.416.082-15.197 8.95-17.672z"/><path fill="#E88591" d="M11.27 125.297s38.66 24.734 38.645 24.73c-.014 0-11.593-.37-14.49-.718-2.897-.35-8.63-1.204-15.994-7.18-7.363-5.973-8.626-11.336-8.16-16.833z"/><path fill="#F7A6B3" d="M32.26 143.597s10.107 4.475 16.198 6.023c6.09 1.55 18.15 7.042 18.15 7.042s14.16 4.97 21.432 2.848c7.272-2.122 10.267-4.66 10.267-4.66s-7.39-2.427-14.38-4.398c-6.99-1.974-10.137-2.308-12.56-3.18-2.425-.872-10.426-4.077-14.01-5.013s-12.106-2.235-17.638-3.317c-5.532-1.082-15.972-3.885-18.482-10.146-2.512-6.26-.682-11.866.505-15.434 1.188-3.568 7.703-13.773 7.703-13.773s-7.323.734-10.902 3.554c-3.578 2.82-5.415 8.3-6.655 10.87-1.242 2.567-5.882 18.086 20.37 29.583zM43.667 122.097s9.55-1.457 20.107 3.268c5.963.713 24.983.593 25.36.627.378.033 47.596 5.216 47.596 5.216l14.418.378 6.873-5.193s7.287 1.356 7.394 4.23c.104 2.873-3.012 9.008-4.235 10.094-1.23 1.087-19.254 1.046-32.842-.233-13.587-1.278-23.525.125-32.66-4.52-9.137-4.647-26.172-4.858-26.172-4.858s-19.983-5.8-25.84-9.01z"/><path fill="#E88591" d="M134.333 97.48c-1.75-2.086-4.2-2.68-6.497-3.907-2.145-1.147-4.098-2.396-6.196-3.585-2.122-1.203-4.67-1.68-6.685-2.836-1.21-.696-2.27-1.046-3.605-1.313-1.273-.256-2.016-.435-2.146 1.087-.034.4.056.847.072 1.248l.514.22c1.83-.168 4.01.84 5.58 1.61 1.93.94 4.023 1.738 5.69 3.135 2.064 1.734 3.74 3.546 6.03 5.105 1.29.878 4.64 1.417 4.662 3.354-1.88.918-5.4.902-7.48.802-2.424-.117-4.894-.477-7.33-.93-1.473-.114-2.93-.324-4.373-.705-1.746-.46-3.618-.683-5.375-1.166.18.884 4.38 2.57 5.12 2.778 6.176 1.72 12.73 4.192 19.19 4.36 2.44.065 5.65-.593 5.483-3.518-.12-2.13-1.28-4.102-2.655-5.74zM147.684 106.556c-1.99-3.346-8.277-6.692-10.765-7.997 2.54 1.735 8.707 7.02 6.86 9.948-2.19 3.48-7.044 3.81-11.782 1.98-.766-.296-1.785-.714-2.955-1.206-2.423-.76-4.684-1.82-7.092-2.7-.726-.226-1.4-.484-2.224-.735-.424-.128-.74-.357-.968-.638-1.676-.576-3.37-1.104-5-1.803-.653-.28-.964-.766-1.026-1.29-.912-.457-13.125-6.546-17.57-6.31-4.617.247-17.414 2.063-20.098 3.39-2.683 1.33-12.506 3.355-12.506 3.355s8.09.696 20.794-2.86c12.704-3.555 22.667 2.548 28.773 6.73 6.105 4.18 18.01 11.434 23.408 11.772 0 0 9.336-.998 10.445-1.308.003 0 4.318-5.937 1.706-10.33zM52.194 95.217c-.187-.878-.188 2.744-.118 3.64.096 1.207.574 2.375 1.24 3.398 2.39 3.677 5.994 4.798 9.853 6.43 4.63 1.956 9.525 2.75 14.25 4.513 2.11.787 4.02 1.866 5.897 3.146 1.975 1.347 3.99 2.367 5.646 4.083 1.023 1.062 2.125 2.03 3.167 3.085.813.824 1.642 2.246 2.983 1.97 0 0 21.098 1.253 32.97 3.25s29.69.42 31.342-6.175c1.65-6.597-2.944-10.608-2.944-10.608s-4.846-4.06-6.83-3.727l.157 2.955s3.01 2.468 1.953 3.776c0 0-1.273 2.002-11.374 2.7-10.1.697-9.087 3.272-19.767 3.715-10.68.442-16.66-3.746-21.636-5.483-4.976-1.738-18.147-4.648-22.485-6.18-4.338-1.53-16.022-7.04-16.022-7.04s-7.283-2.747-8.284-7.45z"/><path fill="#FFBDCA" d="M75.07 125.168s-8.36.512-17.245-1.803c0 0 7.228 4.09 18.725 3.727 11.497-.36 25.108.916 34.78 1.778 9.673.862 33.344 3.356 39.912 4.51s11.87 1.996 13.52.03c1.646-1.965.42-1.523.42-1.523s-3.13 1.794-9.348.497c-6.22-1.296-18.038-2.294-18.038-2.294s-21.35-3.62-34.15-4.314c-12.808-.695-22.48-1.336-22.48-1.336l-6.096.728z"/><path fill="#A35F6F" d="M104.013 99.607c.463.288.923.576 1.374.878 12.018 6.13 25.186 9.674 29.117 10.657-9.815-2.572-28.934-12.634-28.934-12.634l-1.557 1.1z"/><path fill="#FFBDCA" d="M131.024 150.98c.396-.022-4.028-.913-18.62-2.016-14.593-1.1-25.753-8.52-35.825-11.985 0 0 14.103 8.637 24.052 12.11 9.95 3.477 22.84 3.416 22.84 3.416s4.554-1.366 7.552-1.527zM12.094 115.52s-3.786 17.46 20.167 28.077c0 0-16.066-5.78-21.27-15.017l1.104-13.06z"/><path fill="#F7A6B3" d="M2.145 126.33s1.733 15.897 13.248 22.92c11.515 7.022 20.417 7.3 20.417 7.3s-13.07.326-21.774-5.097c-8.703-5.423-12.89-17.777-11.89-25.123zM33.67 116.357s5.65 14.435 32.283 23.298c26.634 8.863 28.312 14.533 36.5 15.475 8.186.94 12.027.245 15.582-1.206 3.554-1.45 9.38-3.128 13.717-2.48s15.145 1.444 17.602.563c2.457-.883 5.608-2.803 5.703-8.064 0 0-18.19-.782-28.23-1.252-10.038-.466-22.35 1.066-36.512-3.937-14.16-5.005-23.464-8.14-30.587-10.264-7.124-2.127-23.995-8.613-26.06-12.133z"/><path fill="#CE7281" d="M51.113 86.637s-5.88 6.01-7.646 12.205c-1.765 6.196-1.795 11.83 7.565 14.086 9.36 2.255 17.33 6.264 19.645 8.556 2.316 2.292 5.245 3.233 5.245 3.233l19.19.762s-7.49-9.057-16.422-12.242c-8.932-3.185-25.037-3.955-26.367-16.4-1.33-12.447-1.21-10.2-1.21-10.2z"/><path fill="#FFBDCA" d="M65.954 139.655c-.688-.3 20.838 6.32 34.844 15.2l-7.062-1.392c-.003.003-19.883-10.398-27.782-13.808z"/><path fill="#F7A6B3" d="M95.97 125.057s-8.25-9.454-19.316-12.475c0 0 9.187 3.627 16.706 12.99l2.61-.515zM109.76 87.833c2.217.39 4.346 1.428 6.385 2.37 1.924.886 3.81 1.74 5.54 3 2.24 1.63 4.692 2.9 7.013 4.433.95.627 4.574 3.06 2.705 4.364-.795.554-2.357.656-3.32.756-1.154.12-2.54.115-3.57-.36 1.066-.1 5.793-.408 3.81-2.525-.656-.7-1.66-1.262-2.433-1.875-1.214-.966-2.603-1.74-3.79-2.74-.946-.797-2.017-1.557-3.063-2.22-1.183-.746-2.552-.972-3.806-1.55-.712-.33-5.83-1.624-5.718-2.45"/><path fill="#A35F6F" d="M80.042 110.383c3.362-1.145 7.04-.863 10.55-1.062 5.087-.288 9.904.36 14.745 1.936 3.832 1.25 6.855 3.25 9.977 5.64 1.556 1.19 3.688 2.44 5.527 2.707 0 0-9.038.05-14.922-1.638-5.886-1.688-25.876-7.582-25.876-7.582zM46.824 92.014c.325-.465-9.6 6.503-6.513 15.102 3.088 8.6 16.18 7.65 17.436 7.71 1.255.057-8.857-1.783-12.525-4.842-3.667-3.06-3.807-10.24 1.604-17.97zM11.06 131.08s-3.074 6.006 5.26 12.07c8.335 6.064 14.354 9.417 23.49 8.597 9.137-.82 19.81 5.3 19.81 5.3l4.326-1.995s-11.013-4.486-15.46-4.926c-4.446-.44-15.432-.273-18.353-1.66-2.922-1.388-13.02-8.32-13.02-8.32s-5.718-5.413-6.054-9.066z"/><path fill="#9E3838" d="M65.788 75.425c.83-2.356 4.574-4.28 6.54-5.69 2.247-1.607 5.076-3.178 8.022-2.93 2.323.196 1.285.96-.017 2.212-.994.955-1.938 1.64-3.08 2.33-2.02 1.22-3.91 2.573-6.163 3.29-1.574.503-3.27.58-4.785 1.095"/><path fill="#9E3838" d="M52.785 85.13c.296-2.473 1.338 5.953 2.335 7.085 2.183 2.48 5.343 3.758 8.596 4.02 4.568.368 8.237-.515 12.45-2.132 2.816-1.082 5.877-1.19 8.895-1.512 2.753-.293 6.962.425 8.027 3.413 0 0-7.704 1.325-16.677 3.39-8.974 2.068-16.568 2.412-16.568 2.412s-8.904-1.22-7.057-16.675z"/><path fill="#D15252" d="M65.98 75.915c-2.904.054-6.616.988-7.836 4.043-.985 2.47 1.385 5.206 3.382 6.417 5.703 3.457 11.342.956 16.963-1.24 2.96-1.158 5.68-2.056 8.85-2.346 2.602-.238 5.818.208 8.18-.766 5.95-2.454 4.926-10.17 1.37-14.064-2.145-2.35-4.694-4.074-7.722-4.755-2.146-.483-7.048.213-7.16 3.345 0 0-.955 4.05-6.35 6.18-5.392 2.13-9.677 3.185-9.677 3.185z"/><path fill="#51604A" d="M70.018 74.918s1.057-4.45-3.736-7.865-8.508-7.392-14.672-16.577C45.446 41.29 38.23 23.3 38.23 23.3s-2.243-3.336-.035-3.97c2.21-.636 3.322 1.474 5.366 5.37 2.044 3.898 10.86 25.626 10.86 25.626s6.964 10.667 13.216 13.995c6.25 3.33 11.41 6.175 11.41 6.175s-4.993 3.426-9.028 4.423z"/><path fill="#657A5A" d="M39.535 23.748l14.885 26.58s-11.278-25.77-11.46-26.763c-.182-.992-1.588-5.52-3.662-4.272-2.073 1.247.237 4.455.237 4.455z"/><path fill="#44543B" d="M69.562 71.05c-.03-.196-.365-.226-.034-.35 1.198.4 9.38-2.133 8.727.394-.212.82-3.353 2.003-4.056 2.34-1.362.65-2.94.797-4.285 1.25-.32-.864-.49-1.925-.975-2.765"/><path fill="#EFC5A5" d="M161.895 149.48c-.55.587-1.05.622-1.498.11.082.094.164.188.246.278.21.21.41.427.605.65.513.57.854 1.17 1.127 1.882.427 1.11-.684 2.23-1.79 1.99-1.854-.406-3.65-.567-5.546-.516.3.967.67 1.906 1.057 2.865.485 1.196-.723 2.1-1.788 1.987-1.466-.15-3.02-.52-4.493-.478-.96.03-3.388.867-3.655.52.766.98 1.442 1.876 1.944 3.022.502 1.143-.732 2.167-1.79 1.99-2.27-.383-3.952-2.09-6.32-1.862-.18.02-.34 0-.484-.03-.462 2.467-1.74 5.172-4.74 3.894-1.896-.812-4.538-4.255-6.747-3.654-.137.036-.268.054-.394.058-.018.022-.025.05-.047.072-.553.676-.987 1.438-1.475 2.158-.442 1.062-1.18 1.95-2.088 2.652-.59.453-1.465.273-1.96-.232-.587-.014-1.183-.122-1.76-.292-.407-.118-.69-.354-.875-.646-1.325.66-2.685 1.226-4.045 1.824-1.63.722-3.058 1.85-4.73 2.432-.997.35-1.94-.1-2.66-.73-.474-.42-.722-1.055-1.106-1.54-.71-.896-2.11-1.375-3.152-1.818-1.582 1.81-3.12 3.832-5.3 4.522-3.362 1.065-4.745-.937-6.556-3.313-1.362.563-2.694 1.197-3.923 2.01-1.337.883-2.554 1.643-4.136 1.958-2.497.498-5.125-1.235-7.232-2.347-1.115.488-2.194 1.056-3.195 1.744-.877.604-2.03 1.483-3.16 1.522-2.927.1-3.935-2.062-6.485-2.856-.046-.016-.084-.037-.128-.055-2.007 1.02-4.108 2.01-6.3 2.223-3.27.314-4.8-1.61-6.96-3.71-1.16.184-2.305.464-3.445.845-.958.32-1.85.81-2.852.99-2.015.36-2.926-.99-2.993-2.655-1.536.52-3.1 1.002-4.55 1.64-1.417.622-3.666 2-5.32 1.145-1.2-.62-1.498-2.135-1.66-3.338-.446-3.354-4.848-.64-6.682.088-.756.3-1.726-.197-1.945-.972-1.342-4.696-4.02-.466-6.896-1.72-.568-.246-1.016-1.087-.797-1.695-.64-.9-1.277-1.804-1.915-2.703-.127.014-.245.008-.358-.007-.5.224-.987.478-1.45.673-1.73.732-2.574-1.722-1.332-2.744.95-.564 1.444-1.398 1.482-2.504-.005-.03-.003-.06-.006-.088l-6.07.285 4.746 13.268c-.002 1.815 2.51 7.33 4.854 7.065.224-1.046.618-3.496 1.62-3.91.85 2.218 1.353 4.626 2.06 6.897 1.095 3.524 1.528 8.91 4.15 11.675 1.8-1.27.91-6.413 1.33-8.432.61-2.935 2.146-5.885 3.184-1.295.874 3.86 2.006 7.562 4.022 11.017.716 1.23 2.515 5.14 4.333 5.17 3.188.058.71-9.497 1.11-11.76.192-1.076 1.61-6.14 3.38-5.263 1.9.938 2.06 7.857 2.604 9.963.79 3.05 1.865 6.41 3.706 8.99.762 1.065 3 4.246 4.69 3.81 1.75-.45 1.444-4.937 1.497-6.255.154-3.873-.19-7.91.99-11.666.35-1.113.944-3.294 2.547-3.142 2.443.23 2.893 7.268 3.187 8.89.744 4.108 1.44 8.257 3.435 11.978.582 1.086 2.154 4.162 3.862 3.868 1.35-.23 1.434-4.396 1.556-5.355.56-4.415 1.162-9.902 4.11-13.493 4.938-6.02 4.92 7.135 5.036 9.555.114 2.37.454 14.723 5.578 13.236 2.022-.586 2.93-5.326 3.31-6.894 1.016-4.207 1.844-8.582 3.657-12.54 4.052-8.845 5.07 7.978 5.314 10.38.266 2.617 1.297 12.247 6.094 9.427 2.586-1.52 3.918-6.46 4.834-9.016 1.426-3.97 2.168-10.304 5.498-13.274 5.158-4.604 4.277 11.942 4.537 14.088.233 1.933.85 5.13 3.002 6.003 2.825 1.147 4.02-2.342 4.604-4.383.63-2.194 5.887-22.482 9.318-19.355 2.804 2.553-4.812 20.547 1.593 20.5 2.593-.022 4.33-5.367 5.003-7.127 2.23-5.822 4.085-11.84 7.166-17.3.472-.837 2.293-4.474 3.764-3.333 2.124 1.646-1.302 10.855-1.512 13.113-.328 3.53.56 8.283 2.965 2.635 1.55-3.637 2.44-7.512 3.394-11.328.297-1.193.453-2.952 1.144-3.94 1.397 1.218-.338 4.577 1.312 5.796.754.558 2.31.52 3.02.174l8.088-36.147-.115.006c-1.623 1.012-3.404 1.444-5.248 2.18z"/><path fill="#B28760" d="M164.263 136.87c1.076.475 1.123 1.076.142 1.8-.176.263.01.382.273.422 4.828.728-1.924 4.763-2.938 5.98-.062.073-.15.247-.02.32 1.14.62 2.512 1.333 3.59 1.954.777.447-5.007 1.854-5.283 1.91-.197.04-1.453.373-1.062.786 1.325 1.404 2.866 2.226 3.424 4.23l1.364-.72c-2.76.062-5.5-.074-8.252.188-.18.018-1.607.29-1.365.72.08.145 2.52 4.092.762 3.963-1.374-.1-2.743-.438-4.107-.61-1.75-.223-3.43-.042-5.065.575-.16.062-.85.385-.55.648.493.427.974.872 1.435 1.334 2.664 2.56-.076 2.85-1.943 1.814-.828-.46-1.8-1.176-2.746-1.32-1.027-.157-3.59.09-3.97 1.36-2.233 7.503-9.68-5.056-12.165.312-.517 1.112-1.063 5.675-3.64 4.24-.945-.525-1.86-1.246-2.996-1.265-2.373-.04-3.937.546-5.383 2.448-3.972 5.22-5.91-2.418-9.698-2.223-1.754.09-3.512.472-4.373 2.217-1.042 2.113-2.944 3.834-4.813 1.67-.812-.94-1.456-1.675-2.552-2.25-1.588-.836-3.728.39-4.935 1.297-2.097 1.582-3.82 4.19-6.898 1.63-.7-.582-1.326-1.628-2.328-1.746-2.3-.27-4.164 1.002-5.977 2.28-2.55 1.804-3.765 1.478-5.785-.806-.902-1.02-1.94-1.162-3.2-1.182-3.703-.053-5.59 4.98-9.57 1.748-1.437-1.166-1.62-3.314-3.897-3.033-1.385.175-2.567.616-3.86 1.144-3.03 1.232-3.255.602-3.567-2.453-.036-.353-.9-.162-1.068-.12-2.472.604-4.712 1.924-7.027 2.938-4.334 1.9-3.86-1.173-3.54-2.98.11-.632.008-.952-.447-1.343-1.01-.864-3.624.11-4.663.42-1.953.578-5.028.398-4.074-2.787.045-.152-.062-.206-.177-.268-3.067-1.596-5.647 1.62-8.195 2.58.438.05.876.1 1.314.148.137-1.29 2.02-6.7-1.237-6.027-.656.138-5.53 1.792-5.223.34.41-1.95 2.612-2.93 2.88-5.136.045-.385-.567-.324-.802-.287-.65.078-1.294.188-1.932.328-6.748 1.79-1.735-2.57-.194-3.918.28-.244.262-.484-.145-.537-4.032-.516-1.473-1.278.317-2.123.176-.082.402-.237.39-.457l-.013-.25c-.034-.08-.095-.135-.184-.155-.39-.73-.78-1.46-1.172-2.19.825-.634-1.113-.48-1.51-.173-1.066.817-1.15.577-1.043 1.77.034.372.596.68.952.85 1.34.642-2.024 2.04-2.224 2.16-.186.114-.648.47-.206.614 1.714.562 3.288.346 1.428 1.99-1.15 1.018-1.69 2.033-2.048 3.522-.05.215.178.287.35.305 1.833.185 1.766.185 3.604-.15 3.16-.58 2.59.062 1.1 2.06-.28.375-2.434 2.61-1.32 3.205 1.073.574 2.17.768 3.37.445.75-.2 2.985-1.526 3.574-.646.6.9-.517 3.684-.632 4.764-.06.555 1.07.243 1.314.15.69-.26 5.77-2.698 5.66-2.34-.22.74.095 2.82.263 3.36.76 2.442 4.18.707 5.517-.045 4.948-2.776 3.042.654 3.33 2.588.175 1.17 1.748 1.617 2.695 1.723 3.397.378 7.028-2.92 10.15-3.684l-1.067-.123c.18 1.745-.103 4.436 2.304 4.06 1.354-.21 2.674-.986 3.906-1.527 3.85-1.69 4.26 1.625 6.915 3.123 2.08 1.172 4.382.055 6.19-1.062 5.423-3.35 5.52 3.556 10.033 2.178 1.344-.408 2.093-.842 3.18-1.814 4.34-3.896 4.412-1.398 7.105.205 2.155 1.282 4.74.36 6.597-.927 2.146-1.49 4.285-3.338 6.46-.683.765.933 1.587 1.724 2.827 1.865 2.213.254 4.037-1.135 4.982-2.976 2.105-4.106 4.71-.764 6.81.742 1.134.812 2.257.843 3.557.78 4.022-.19 4.57-6.06 9.09-3.262 1.53.948 3.197.944 4.674-.147 1.312-.972 1.868-2.33 2.264-3.856.63-2.452 5.55 2.015 6.892 2.77 1.27.716 3.67.583 4.657-.648.545-.68 1.352-4.005 2.436-3.572 1.922.766 3.372 2.02 5.438 2.44.97.196 3.5-.6 3.243-2.01-.146-.813-.188-1.247-.77-1.922-.166-.19-2.247-1.806-1.132-1.894 2.088-.166 4.228.58 6.303.73 4.124.303 3.216-2.797 1.732-5.434l-1.365.72c2.752-.265 5.492-.126 8.252-.188.27-.008 1.5-.236 1.365-.72-.564-2.028-2.146-2.93-3.547-4.412-.354.263-.71.524-1.062.787 2.852-.584 5.514-.865 8.145-2.136.13-.062.578-.36.328-.548-.685-.584-1.43-1.076-2.237-1.48-2.28-1.31-2.73-.9-1.055-2.248 1.18-.946 2.403-1.796 3.452-2.896 2.09-2.19-2.48-1.746-.776-4.293.104-.154.12-.322-.104-.385-1.438-.396-1.477-.44-2.884-.15-.828.185-1.664 1.166-.323.89z"/><path fill="#682525" d="M104.977 99.972c.245-.15.47-.325.723-.47.15-.085.31-.154.466-.23 7.873-10.34 3.2-26.022-4.837-34.728-8.886-9.62-20.84-7.313-29.323 1.603-.847.888 1.003 1.275 1.63.617 4.378-4.603 10.034-7.833 16.566-7.11 5.56.614 9.99 5.982 12.997 10.243 5.476 7.76 7.31 21.263 1.098 29.08-.49.613.063.986.68.995zM60.74 102.2c-7.03-2.875-8.4-10.62-7.624-17.427.997-8.765 7.57-12.757 15.142-15.682 1.256-.484.117-1.227-.785-.878-7.825 3.022-14.29 6.912-16.11 15.63-1.526 7.306.373 16.28 7.854 19.335.62.255 2.372-.632 1.524-.978z"/><path fill="#5B373E" d="M61.99 115.7c-5.167-2.372-11.31-2.415-15.968-5.9-6.523-4.878-.066-17.75 4.952-22.42-.042-.302-.003-.616.112-.896-.354.06-.703.15-.84.25-5.914 4.315-10.992 15.217-7.305 22.22 2.055 3.9 8.83 4.82 12.66 5.82 7.428 1.94 13.437 6.79 19.93 10.637.456.272 2-.53 1.826-.633-5.13-3.04-9.927-6.582-15.366-9.078zM59.067 103.013c8.74 3.172 16.988 7.518 26.15 9.42 9.648 2.003 18.67 6.402 28.45 7.76 8.513 1.183 17.194-1.396 25.614-2.2 5.362-.512 11.37-.982 15.788-4.38.396-.305-1.387-.113-1.744.162-5.73 4.408-15.897 3.6-22.832 4.726-9.312 1.515-17.356 1.172-26.315-1.7-6.948-2.226-13.737-4.138-20.816-5.88-7.775-1.914-14.968-5.833-22.47-8.556-.535-.194-1.968.596-1.823.65zM140.37 99.424c-9.48-5.074-19.657-11.84-30.16-14.416-.018-.004-.043 0-.063 0 .057.396.087.794.05 1.19 9.454 2.612 17.767 8.623 26.5 12.95 6.66 3.3 15.52 8.443 10.912 17.013-.17.315 1.64.178 1.91-.324 4.256-7.917-2.732-12.977-9.15-16.412zM149.052 108.688c5.76.775 9.05 6.156 10.022 11.467 1.017 5.544-4.61 8.56-8.535 10.958-1.115.682.588.904 1.188.537 3.85-2.354 9.7-5.437 9.354-10.81-.396-6.11-4.473-12.315-10.842-13.173-.58-.077-2.27.876-1.188 1.02zM158.553 126.323c-.564.01-2.104.88-.812.86 6.91-.11 8.11 5.01 5.223 10.27-4.97 9.046-17.187 5.995-25.688 5.28-9.3-.78-18.54-.303-27.838-.82-9.88-.553-18.314-3.645-27.45-7.06-13.952-5.222-30.397-7.433-43.01-15.693-15.075-9.876-4.702-33.913 12.174-34.354.032 0 .068-.013.102-.02.018-.278.072-.553.153-.82l.002-.006H51.4c-6.897.18-13.498 3.33-17.46 9.132-4.277 6.26-6.974 15.714-1.66 22.248 4.94 6.075 12.692 8.805 19.905 11.15 11.775 3.83 23.726 7.135 35.173 11.9 10.502 4.367 22.2 4.815 33.416 4.528 7.04-.18 14.047.598 21.057 1.14 4.288.335 9.79 1.247 14.022.062 8.813-2.467 16.695-18.018 2.7-17.797zM30.59 98.62c-5.738 1.487-9.694 1.425-14.3 5.53-3.785 3.38-5.674 8.126-6.197 13.07-.59 5.564-.67 11.874 1.31 17.166 1.985 5.316 8.385 9.4 12.97 12.17 4.956 2.99 9.984 4.17 15.742 4.008 4.998-.14 9.338-.188 14.123 1.48 3.605 1.255 7.02 3.05 10.57 4.453 10.802 4.276 23.46 6.472 33.4-.83 1.06-.774-.532-1.34-1.26-.806-10.206 7.495-23.32 3.698-33.992-.825-4.573-1.938-8.938-4.077-13.89-4.846-6.142-.95-12 .887-18.095-1.23-5.486-1.906-10.627-5.79-14.65-9.885-4.2-4.27-4.566-9.787-4.49-15.477.067-5.002.354-9.623 2.88-14.075 1.816-3.206 5.27-6.202 8.725-7.363 2.336-.785 5.065-.676 7.484-1.303 1.188-.31.855-1.544-.33-1.237z"/><path stroke="#5B373E" stroke-miterlimit="10" d="M29.445 99.59c-5.396 6.796-13.485 22.717-7.028 31.137 6.746 9.153 26.494 8.604 36.693 12.065 5.848 1.69 11.29 5.156 17.1 6.1 6.32 1.166 12.18 3.106 18.278 4.784 5.6 1.705 10.62 1.938 16.358 1.634 6.24-.334 11.59-3.37 17.565-3.938 7.23-.638 26.876 6.33 26.644-7.43M10.568 115.084c-12.31 3.91-9.133 21.265-3.964 29 8.43 12.57 21.925 12.103 35.262 13.396 5.782.443 16.413 2.63 21.443-1.643" fill="none"/><path fill="#5B373E" d="M76.355 125.79c5.8-.613 11.625.187 17.422.512 6.17.345 12.25.454 18.4 1.138 12.6 1.4 25.428 4.104 38.103 4.41.914.022 1.98-1.35.677-1.38-12.667-.308-25.522-2.96-38.104-4.41-6.768-.78-13.486-.864-20.277-1.243-5.36-.3-10.678-.98-16.043-.416-1.067.114-1.498 1.528-.178 1.39zM59.097 102.434c14.837 1.27 31.406-11.05 45.272-2.583.74.455 2.426-.555 1.483-1.13-14.594-8.91-30.763 3.593-46.1 2.28-.958-.082-1.963 1.322-.656 1.434z"/><path fill="#3B4933" d="M38.887 21.99c-.504-.744-.797-1.768.004-2.42.072-.06-.642.077-.227.088.19.005.387.093.556.17.537.25.9.73 1.164 1.244.23.448 2.067-.252 1.932-.518-.854-1.672-2.477-1.894-4.142-1.35-1.576.516-2.174 1.894-1.22 3.302.308.453 2.06-.33 1.933-.517zM36.692 22.27c4.71 10.65 9.02 21.227 15.265 31.103 2.894 4.577 6.31 8.894 10.98 11.757 4.28 2.622 5.82 4.68 6.098 9.746.03.553 1.97.173 1.932-.518-.158-2.898-.45-5.464-2.612-7.528-1.41-1.347-3.52-2.365-5.12-3.414-2.686-1.764-4.818-4.32-6.77-6.83-8.06-10.378-12.583-22.947-17.84-34.833-.275-.623-2.166-.01-1.933.517zM40.62 20.81c5.018 10.435 8.43 21.946 14.305 31.935 4.927 8.375 14.187 15.097 23.512 17.92.626.188 2.273-.737 1.178-1.068-10.364-3.137-19.46-10.71-24.278-20.265-4.758-9.438-8.204-19.512-12.784-29.04-.327-.682-2.215-.07-1.932.517z"/><path fill="#682525" d="M82.164 66.112c-3.646 5.338-9.95 8.427-16.222 9.392-.965.148-1.564 1.377-.236 1.173 7.047-1.084 14.164-4.456 18.27-10.47.535-.784-1.425-.664-1.812-.095z"/><path stroke="#B28760" stroke-width="2" stroke-miterlimit="10" d="M3.433 155.02l24.636 63.03s16.305 19.41 66.233 16.75c49.93-2.658 58.604-18.392 58.604-18.392l14.23-69.105M167.93 139.75l-1.68 6.6M3.875 149.237l1.194 2.694" fill="none"/></g><path fill="#F2F2F2" d="M107.33 117.78c1.896.55 3.907 1.128 5.8 1.225.53.027 1.057.05 1.583.08l20.803-74.786c-.046.15-.514 1.27-4.068.52-3.34-.71-3.26-2.036-3.19-2.348L107.33 117.78z"/><path fill="#C4C4C4" d="M134.798 44.08c.01-.037.02-.05.02-.052-.003.006-.502.63-3.216.057-1.852-.392-2.385-.948-2.527-1.168-.086-.133-.09-.228-.096-.244l.018-.068-1.42-.474c-.01.028-.03.082-.048.158l-20.92 75.285 1.44.415 20.44-73.552c.64.483 1.576.857 2.802 1.117 1.224.258 2.237.332 3.035.222l-20.382 73.27c.512.025 1.024.056 1.533.086l20.758-74.623c.01-.032.016-.058.02-.077l-1.458-.35z"/><path fill="#F7F7F7" d="M38.222 90.45l-.375-.437c-.736-.59-.982-1.923.048-2.632 1.85-1.272 3.47-3.025 5.784-3.404.04-.007.082.002.124-.002-.26-2.125-.462-5.655.792-7.03 0 0-2.985-4.25-7.375-2.363s-7.938 5.776-8.078 8.213c0 0-1.267-.512-4.15 1.167s-5.49 4.666-5.49 7.52.25 2.39-1.124 3.602-1.68 2.04-1.483 3.93.945 5.074 3.483 4.657 5.042-1.46 5.85-2.06 1.874-.353 3.106.197 5.57 1.326 7.684-1.832 3.532-3.91 2.696-5.64l-1.492-3.885z"/><g stroke-width="2" stroke-miterlimit="10" fill="none"><path stroke="#AF6170" d="M138.254 109.254l-1.257 2.316M105.91 109.254l1.276 2.162M74.502 103.412h1.032M50.875 101.805l3.27 1.607M24.254 114.175l2.5-1.593M39.715 132.167l1.976 2.42"/><path stroke="#CE7281" d="M103.813 147.25h2.734M71.79 136.98l2.712 1.977M118.754 134.587l2.71-1.21"/><path stroke="#AF6170" d="M83.56 120.5h2.753"/><path stroke="#CE7281" d="M144.004 124.183l3.25-.818M145.63 136.98l2.894 1.977M16.027 131.08l2.877-2.104"/><path stroke="#AF6170" d="M91.006 100.72l3.358 1.085"/></g><g stroke="#E1FFE5" stroke-width="1.5" stroke-miterlimit="10" fill="none"><path d="M138.254 108.254l-1.257 2.316M105.91 108.254l1.276 2.162M74.502 102.412h1.032M50.875 100.805l3.27 1.607M24.254 113.175l2.5-1.593M39.715 131.167l1.976 2.42M103.813 146.25h2.734M71.79 135.98l2.712 1.977M118.754 133.587l2.71-1.21M83.56 119.5h2.753M144.004 123.183l3.25-.818M145.63 135.98l2.894 1.977M16.027 130.08l2.877-2.104M91.006 99.72l3.358 1.085"/></g><path fill="#fff" d="M31.442 89.542c-.537 1.33.054 2.567 1.41 3.114.874.354 2.17.586 3 .064.51-.32 1.25-1.2 1.48-1.734 1.215-2.812-3.482-2.64-5.016-2.318M19.254 95.354c-.746.366-1.205.878-1.395 1.705-.22.956.465 1.573 1.31 1.924 2.03.845 4.864-.238 5.785-2.158.286-.596.54-1.59.088-2.16-.604-.76-2.178-.6-3.02-.625-1.69-.05-4.018.788-4.643 2.502"/><path stroke="#D6D6D6" stroke-width="1.5" stroke-miterlimit="10" d="M30.837 90.5c.056-2.14 2.61-2.58 4.297-2.333 1.653.243 2.538 1.098 3.25 2.617 1.108 2.37 1.518 5.52-.042 7.725-1.097 1.55-3.17 3.13-5 3.498-2.422.484-3.564-.583-5.505-1.34-1.193.24-2.175 1.702-3.384 2.206-.933.39-1.758.41-2.787.46-1.807.09-3.335.075-4.21-1.5-.864-1.56-.71-4.416.335-5.837 1.283-1.743 3.193-1.516 4.88-1.997" fill="none"/><path fill="#fff" d="M21.942 86.167c-1.165.204-2.146 2.167-1.877 3.315.275 1.173 2.13 1.52 3.19 1.56 1.9.078 3.09-1.164 4.615-2.13.848-.535 1.816-1.425 1.935-2.485.24-2.15-1.773-2.556-3.495-2.51-3.146.08-4.418 1.864-6.367 4"/><path stroke="#D6D6D6" stroke-width="1.5" stroke-miterlimit="10" d="M19.503 94.334c0-3.48.075-6.675 2.95-8.997 1.916-1.546 4.356-1.995 6.717-2.003-.284-2.644 1.633-5.436 3.663-6.866 1.842-1.298 3.61-1.703 5.845-1.837 1.522-.09 2.48-.126 3.862.538.8.385 1.622 1.178 2.463 1.333" fill="none"/><path fill="#F7F7F7" d="M42.838 76.208l2.417 1.333v7.4s-4.22 1.305-7.318 3.828c0 0-1.85-1.77-3.682-1.477 0 .002 6.825-11.817 8.583-11.082z"/><path fill="#fff" d="M36.754 76.104c-1.426-.065-3.265 1.39-3.883 2.632-.433.874-.6 2.025.33 2.606 1.455.912 3.68.81 5.29.586 1.454-.202 2.626-.757 3.456-2.08.415-.66.572-2.035.175-2.732-.39-.685-1.588-1.134-2.338-1.203-.64-.06-1.32-.084-1.965-.06-.462.018-.94.258-1.375.188"/><path fill="#E8E8E8" d="M35.754 87.542s4.768-2.924 10.978-2.993c0 0-4.894 1.195-8.795 4.22 0 0-1.254-1.02-2.183-1.228z"/><path fill="#F2F2F2" d="M128.27 42.926s.14-2.134 4.097-1.262c3.956.872 2.954 3.325 2.954 3.325"/><path fill="#C4C4C4" d="M136.016 45.273l-1.39-.567c.004-.01.182-.502-.1-1.017-.315-.582-1.118-1.028-2.32-1.293-1.813-.4-2.58-.085-2.876.137-.265.2-.31.44-.31.44l-1.497-.097c.006-.093.083-.924.906-1.543.89-.67 2.27-.806 4.1-.402 1.685.372 2.807 1.07 3.336 2.08.587 1.117.196 2.147.15 2.26z"/><path fill="#C12F2F" d="M126.822 47.635c1.696 2.805 3.515 5.543 5.5 8.144l3.193-11.48c-.046.15-.514 1.27-4.068.52-3.34-.71-3.26-2.036-3.19-2.348l-1.435 5.163z"/><path fill="#932C2C" d="M132.64 57.432l-.914-1.198c-1.88-2.463-3.694-5.15-5.545-8.21l-.166-.278 1.52-5.476 1.456.363c-.003.01-.02.118.086.283.143.22.676.776 2.527 1.168.756.16 1.414.24 1.955.24 1.036 0 1.26-.293 1.262-.296l1.42.47-3.6 12.934zm-5.008-9.91c1.465 2.408 2.906 4.577 4.377 6.585l2.317-8.333c-.744.107-1.797.04-3.035-.223-1.225-.26-2.163-.633-2.803-1.115l-.858 3.088z"/><path fill="#C12F2F" d="M125.79 59.522c-.557-.76-1.096-1.53-1.633-2.3l-2.02 7.276c1.706 2.828 3.548 5.562 5.468 8.242l2.254-8.103c-1.407-1.664-2.783-3.357-4.07-5.115z"/><path fill="#932C2C" d="M127.907 74.45l-.913-1.273c-2.123-2.964-3.922-5.676-5.5-8.29l-.168-.278 2.535-9.126.913 1.31c.534.766 1.07 1.53 1.622 2.285 1.104 1.507 2.387 3.12 4.037 5.074l.255.303-2.78 9.994zm-4.962-10.063c1.285 2.114 2.72 4.297 4.36 6.634l1.725-6.202c-1.55-1.846-2.778-3.396-3.845-4.852-.247-.336-.49-.674-.73-1.014l-1.51 5.435z"/><path fill="#C12F2F" d="M119.453 73.154l-2.263 8.142c1.735 3.108 3.407 6.26 5.15 9.366l2.724-9.792c-1.92-2.538-3.808-5.098-5.61-7.716z"/><path fill="#932C2C" d="M122.576 92.614l-.89-1.584c-.917-1.635-1.815-3.283-2.712-4.93-.808-1.482-1.616-2.965-2.438-4.438l-.15-.27 2.775-9.985.912 1.322c1.573 2.284 3.298 4.655 5.592 7.687l.224.296-3.312 11.9zm-4.58-11.414c.773 1.39 1.534 2.785 2.295 4.182.605 1.108 1.21 2.216 1.818 3.32l2.135-7.675c-1.77-2.345-3.202-4.298-4.494-6.135l-1.754 6.308z"/><path fill="#C12F2F" d="M114.33 91.59l-2.932 10.548c1.76 2.986 3.512 5.977 5.254 8.973l2.924-10.51c-1.845-2.94-3.557-5.964-5.247-9.01z"/><path fill="#932C2C" d="M116.898 113.026l-.894-1.538c-1.74-2.995-3.493-5.984-5.25-8.97l-.163-.273 3.507-12.62.888 1.602c1.608 2.897 3.354 5.99 5.227 8.975l.176.28-3.49 12.544zm-4.69-10.994c1.404 2.386 2.804 4.774 4.2 7.166l2.358-8.48c-1.485-2.38-2.887-4.818-4.202-7.166l-2.357 8.48z"/><path fill="#C12F2F" d="M112.498 118.95c-1.294-2.25-2.59-4.498-3.898-6.738l-1.526 5.493c1.76.512 3.632 1.06 5.424 1.244z"/><path fill="#932C2C" d="M107.794 117.914l1.053-3.79c.912 1.564 1.817 3.132 2.72 4.702.527.086 1.05.153 1.563.18.092.003.182.008.274.013-1.378-2.4-2.76-4.796-4.157-7.185l-.895-1.532-2 7.196c.473.133.953.272 1.442.414z"/><path fill="#C6B675" d="M131.576 42.705l.98-8.14.982.12-.997 8.273z"/></svg>