<?xml version="1.0" encoding="utf-8"?>
<!-- Generator: Adobe Illustrator 15.1.0, SVG Export Plug-In . SVG Version: 6.00 Build 0)  -->
<!DOCTYPE svg PUBLIC "-//W3C//DTD SVG 1.1//EN" "http://www.w3.org/Graphics/SVG/1.1/DTD/svg11.dtd">
<svg version="1.1" id="Layer_1" xmlns="http://www.w3.org/2000/svg" xmlns:xlink="http://www.w3.org/1999/xlink" x="0px" y="0px"
	 width="218px" height="248.667px" viewBox="0 0 218 248.667" enable-background="new 0 0 218 248.667" xml:space="preserve">
<path fill="#E5E5E5" d="M40,219.833l23.75-9.75l0.87,24.497c0,0-12.599,6.58-22.693-0.417l-0.136-0.726
	C41.792,233.438,42.5,225.833,40,219.833z"/>
<path fill="#D8D8D8" d="M64.108,220.166L42.5,230.169l-2.007-9.509c0,0,23.066-15.959,23.34-8.227S64.108,220.166,64.108,220.166z"
	/>
<path fill="#E5E5E5" d="M70.333,235.333c0,0,5.869-18.543,10.226-23.902s13.548-16.373,26.244-20.235s52.044,1.882,57.973,6.194
	s24.61,21.885,25.917,31.997s-12.859,16.78-30.859,8.946s-47.5-6.5-60.334-3C86.667,238.833,70.333,235.333,70.333,235.333z"/>
<path fill="#D6A381" d="M110.834,171.181l46.666,1.151c0,0,0.439,28.509-0.166,28.666c-0.606,0.157-16.631,2.672-22.316,1.17
	c-5.684-1.502-7.916-0.046-10.691-0.046s-13.514-18.63-13.492-23.456C110.854,173.84,110.834,171.181,110.834,171.181z"/>
<path fill="#E5E5E5" d="M84.57,68.169c0,0-13.293,0-18.325-12.443s-8.642-25.199-3.211-30.422s6.887-7.599,29.632-10.638
	c22.746-3.039,54.571-9.681,62.668-9.333c8.096,0.348,42.627,4.365,51.896,35.933s-6.969,39.204-14.35,39.261
	S84.57,68.169,84.57,68.169z"/>
<path fill="#EFEFEF" d="M70.25,19.583c-5.094,7.17-6.636,15.211-2.938,23.693c1.026,2.353,5.586,10.06,8.381,5.25
	c0.885-1.522-0.032-4.079-0.193-5.693c-0.2-2-0.332-3.937-0.25-6c0.152-3.857,1.928-7.799,3.932-11.013
	c2.203-3.535,5.124-4.525,8.757-5.549c7.226-2.035,18.114-3.967,24.824,1.499c3.522,2.869,5.606,7.083,9.056,10.013
	c3.479,2.957,7.484,5.131,11.931,6.292c4.473,1.168,9.286,0.343,13.757-0.255c5.185-0.694,8.383-3.649,12.606-6.175
	c8.149-4.875,16.126-12.379,26.594-10.756c4.666,0.724,6.569,6.484,6.794,10.681c0.25,4.686-2.71,8.658-2.506,13.263
	c0.14,3.151,1.398,4.098,4.506,4.25c3.039,0.148,4.891,0.307,7.488,1.806c2.221,1.281,3.941,2.539,4.755,4.952
	c0.601,1.783,2.271,4.065,1.797,8.244c0,0,2.64-15.07-4.95-29.786S183.428,9.932,169.339,6.757s-30.323,0.034-40.331,2.055
	s-22.28,4.583-35.395,5.802C80.5,15.833,70.25,19.583,70.25,19.583z"/>
<path fill="#D1D2D1" d="M174.25,56.083c-0.086,0.11-0.612,0.284-0.273,0.267c2.279-1.07,4.574-4.442,5.954-6.517
	c1.688-2.538,2.084-4.649,2.626-7.481c2.093,3.197,0.541,8.249,0.194,11.732c-0.358,3.598,0.806,8.577,2.954,11.218
	c-1.544-3.1-7.258-6.955-10.455-7.969"/>
<path fill="#D1D2D1" d="M191.75,74.583c1.637,1.098,2.245,2.407,4.306,2.938c2.067,0.533,4.002,0.393,5.85-0.462
	c-2.035,2.266-6.644,2.457-9.354,3c-0.219-1.946-1.081-3.438-1.551-5.225"/>
<path fill="#D1D2D1" d="M71,62.333c2.8,1.37,4.78,4.338,8.25,2.568c3.252-1.658,2.096-6.185,2.3-9.292
	c1.161,1.277,1.344,2.762,2.958,3.912c1.463,1.042,3.066,1.086,4.656,1.55c-1.517,1.389-3.512,2.699-4.607,4.312
	c-1.113,1.639-0.341,2.267-2.556,2.456c-0.925,0.079-3.232-0.711-4-1.256"/>
<path fill="#D1D2D1" d="M121.806,50.625l9.694-0.792c-13.852-3.032-15.22-21.595-27.287-25.261c4.546,2.422,6.043,8.68,7.343,13.206
	c0.124,0.432,0.259,0.926,0.406,1.459c0.417,2.866,0.673,5.896-0.165,8.394c-1.137,3.392-4.688,5.544-7.451,7.332
	c1.07-0.086,2.362-0.917,3.488-1.167c0.915-0.203,1.807-0.381,2.695-0.579c3.822,0.022,7.57-1.956,11.277-2.576
	C121.808,50.635,121.805,50.63,121.806,50.625z"/>
<path fill="#C69777" d="M111.334,178.333c0,0,10.193,9.667,44.18,4c0,0,2.435-7.828,1.486-10.014s-4.333,1.262-11.166,1.971
	c-6.834,0.709-19.788-0.074-20.478-0.266s-14.522-2.844-14.522-2.844L111.334,178.333z"/>
<polygon fill="#D8D8D8" points="107.334,216.552 104.334,217.167 104.88,234.163 108.487,233.613 "/>
<ellipse fill="#575D57" cx="114.948" cy="218.806" rx="1.853" ry="1.639"/>
<ellipse fill="#575D57" cx="115.663" cy="232.166" rx="2.106" ry="1.997"/>
<path fill="#EFEFEF" d="M70.333,235.333l9.503,1.291c0,0,3.461-30.839,26.062-40.148L104.902,192c0,0-13.639,5.505-23.271,17.919
	S70.333,235.333,70.333,235.333z"/>
<path fill="#EFEFEF" d="M157.688,201.411c0,0,20.57,21.429,23.441,39.592c0,0,8.336,0.914,10.104-10.128
	c0,0-4.398-13.745-13.898-22.561S162.121,196,162.121,196L157.688,201.411z"/>
<path fill="#EFEFEF" d="M142.25,203.958c0,1.212-3.299,0.714-4.384,1.128c-1.405,0.536-2.784,1.009-4.241,1.375
	c-3.581,0.9-6.928,2.275-10.443,3.375c-2.932,0.917-5.83,1.889-8.688,2.997c-1.67,0.647-3.889,1.557-4.25,3.5
	c-0.527,2.83,0.256,5.708,0.256,8.5c0,2.831,0.29,5.819,0.658,8.459l-1.281,0.146l-2.527-19.771c0,0-0.49-1.492,5.33-3.038
	s16.57-6.354,22.57-6.763S142.25,202.583,142.25,203.958z"/>
<polygon fill="#AF7568" points="56,128.083 11.606,148.761 43.7,220.444 84.877,197.934 "/>
<polygon fill="#945D4D" points="11.606,148.761 9.64,154.833 13.572,162.428 16.84,160.45 "/>
<path fill="#945D4D" d="M23.139,174.29c0,0,1.253,3.027,1.16,2.819s-4.633,1.085-3.09-1.185S23.139,174.29,23.139,174.29z"/>
<path fill="#945D4D" d="M32.5,196.126c0.396-0.047,11.075,24.04,11.075,24.04l-4.477-1.668c0,0-8.531-17.033-8.64-17.347
	S30,196.419,32.5,196.126z"/>
<polygon fill="#EFEFEF" points="17.625,149.333 55.022,132.825 81.632,196.126 45.406,214.312 "/>
<path fill="#F3C09D" d="M9.649,172.212c0.021-0.519,0.172-6.064,4.886-9.784s9.806-4.979,12.323-1.725s-3.635,15.11-6.309,16.308
	c0,0-0.424,0.455,3.951-0.174s6.462,0.092,6.356,2.231s-1.62,6.703-1.62,6.703s5.431,0.565,5.597,3.126s-0.958,5.061-3.208,7.061
	s-0.769,6.25-0.769,6.25s-3.683,1.088-6.553-3.434s-5.303-6.049-6.678-8.37s-4.116-8.066-5.743-11.325S9.549,174.716,9.649,172.212z
	"/>
<path fill="#FDD0B1" d="M25.333,160.167c1.067,0.475,1.088,2.564,0.687,3.49c-0.673,1.557-1.929,1.881-3.324,2.139
	c-2.577,0.477-4.647,1.192-6.566,3.028c-1.186,1.135-2.555,2.763-3.259,4.213c-0.503,1.036-0.693,4.589-2.178,4.438
	c-0.393-2.424-0.879-5.093-0.858-7.604c0.028-3.402,2.042-5.497,4.5-7.495c1.779-1.445,3.847-2.566,6.008-3.033
	c1.845-0.398,6.171-0.741,6.825,1.825"/>
<path fill="#FDD0B1" d="M29.833,178.166c0.813,0.712-0.72,2.66-1.533,2.963c-1.154,0.429-2.72-0.396-3.971-0.296
	c-1.682,0.134-5.877,2.296-5.667-1c0.228-3.574,11.834-4.087,11.837-1.5"/>
<path fill="#FDD0B1" d="M33.167,187.833c0.669,0.599,0.592,1.762-0.042,2.5c-0.993,1.155-2.024,0.564-3.3,0.199
	c-1.361-0.39-5.292-0.486-5.491-2.032c-0.457-3.566,7.752-3.419,9-1"/>
<path fill="#6B423A" d="M34.798,197.464c0.319-1.322,0.377-3.577-0.798-3.464l-0.167-0.167c-1.514,2.059-5.486,5.592-2.371,8.153
	c0.008-0.017,0.018-0.03,0.026-0.046C31.123,199.913,33.133,198.526,34.798,197.464z"/>
<path fill="#6B423A" d="M25.5,170.166C25.097,172.182,26.428,174,25,176c-0.934,1.308-3.125,1.847-4.808,1.808
	c-0.274-1.404,2.031-2.789,2.691-3.938c0.747-1.299,1.228-2.575,1.95-3.87"/>
<path fill="#6B423A" d="M31,182.166c0.137,0.73,0.535,2.862-0.704,3.134c-1.704,0.373-0.087-2.377,0.204-2.967"/>
<g>
	<g>
		<path fill="#CFCECE" d="M39.101,220.203c2.783,4.52,1.736,10.359,1.684,15.389c-0.006,0.551,1.924,0.204,1.932-0.518
			c0.054-5.181,1.042-10.969-1.816-15.611C40.584,218.951,38.702,219.556,39.101,220.203L39.101,220.203z"/>
	</g>
</g>
<g>
	<g>
		<path fill="#CFCECE" d="M61.784,210.342c1.97,8.399,0.935,16.998,2,25.5c0.059,0.473,2.005,0.064,1.932-0.518
			c-1.065-8.502-0.03-17.101-2-25.5C63.597,209.314,61.659,209.808,61.784,210.342L61.784,210.342z"/>
	</g>
</g>
<polyline fill="none" stroke="#CFCECE" stroke-miterlimit="10" points="21.313,158.731 17.167,149.167 55,132.773 81.632,195.958 
	45.406,214.312 30.853,180.739 "/>
<line fill="none" stroke="#CFCECE" stroke-miterlimit="10" x1="29.236" y1="177.011" x2="25.767" y2="169.006"/>
<line fill="none" stroke="#373A38" stroke-width="2" stroke-miterlimit="10" x1="23.139" y1="173.098" x2="24.502" y2="176.843"/>
<polyline fill="none" stroke="#634135" stroke-width="2" stroke-miterlimit="10" points="11.25,147.927 9.64,154.833 
	13.572,163.385 "/>
<g>
	<g>
		<path fill="#AD856F" d="M31.523,201.869c-3.756-0.012-4.639-1.011-6.62-3.889c-1.31-1.903-2.273-3.754-3.75-5.5
			c-1.499-1.771-2.885-2.394-3.938-4.656c-3.009-6.467-8.695-13.56-5.507-20.889c0.202-0.464-1.677-0.259-1.918,0.295
			c-1.792,4.117-1.213,8.146,1.043,11.965c2.162,3.659,3.299,8.171,5.848,11.523c1.714,2.255,3.871,3.828,5.379,6.416
			c0.846,1.451,1.891,2.861,2.936,4.179c1.365,1.72,3.778,1.477,5.729,1.483C31.339,202.799,32.82,201.874,31.523,201.869
			L31.523,201.869z"/>
	</g>
</g>
<polyline fill="none" stroke="#634135" stroke-width="2" stroke-miterlimit="10" points="16.704,160.703 11.25,147.927 56,128.083 
	84.877,197.934 43.7,220.444 32.25,195.583 "/>
<g>
	<g>
		<path fill="#CFCECE" d="M161.233,196.475c8.184,3.553,14.586,10.965,19.829,17.949c5.109,6.805,10.383,15.396,10.639,24.168
			c0.019,0.636,1.954,0.246,1.932-0.518c-0.26-8.926-5.692-17.415-10.778-24.415c-5.16-7.102-11.872-14.568-20.088-18.134
			C162.177,195.27,160.413,196.119,161.233,196.475L161.233,196.475z"/>
	</g>
</g>
<g>
	<g>
		<path fill="#CFCECE" d="M103.744,191.748c-7.949,4.21-15.19,9.265-21.229,15.979c-6.973,7.752-9.502,18.249-13.145,27.738
			c-0.223,0.58,1.693,0.342,1.926-0.264c3.253-8.474,5.657-17.214,10.857-24.779c5.515-8.021,14.321-13.694,22.77-18.17
			C106.072,191.644,104.334,191.436,103.744,191.748L103.744,191.748z"/>
	</g>
</g>
<g>
	<g>
		<path fill="#CFCECE" d="M143.75,202.617c-12.82-0.054-24.545,5.397-36.596,9.045c-0.305,0.092-0.806,0.352-0.8,0.742
			c0.135,8.591,1.84,17.065,1.666,25.667c-0.021,1.022,1.94,0.741,1.959-0.143c0.088-4.372-0.263-8.678-0.722-13.021
			c-0.314-2.982-0.634-5.955-0.835-8.949c-0.267-3.98,2.211-3.908,5.395-4.982c9.719-3.278,19.359-6.97,29.767-6.927
			C144.694,204.054,145.06,202.622,143.75,202.617L143.75,202.617z"/>
	</g>
</g>
<g>
	<g>
		<path fill="#CFCECE" d="M82.791,67.613C63.299,63.786,51.134,27.419,72.644,18.42c9.996-4.181,21.994-3.157,32.543-4.665
			c14.87-2.125,29.358-6.312,44.349-7.696c22.418-2.071,46.953,9.716,55.436,31.576c4.777,12.311,8.616,40.955-10.891,42.288
			c-0.529,0.037-2.105,0.907-0.826,0.819c15.937-1.089,18.583-17.248,16.932-30.42c-2.45-19.544-15.701-34.782-33.912-42.037
			C165,3.795,152.939,4.627,141.191,6.344c-15.508,2.267-30.604,6.671-46.286,7.812c-15.336,1.115-35.749,2.853-35.538,22.77
			c0.134,12.658,8.502,28.841,21.842,31.46C81.679,68.478,83.364,67.726,82.791,67.613L82.791,67.613z"/>
	</g>
</g>
<path fill="#F3C09D" d="M181.354,133.405l9.878-58.188c-0.037-0.05-0.08-0.093-0.115-0.145c-0.701-1.054-1.305-2.111-1.794-3.265
	L91.988,59.985l-6.821,65.791c0,0-11.534,0.663-8.113,14.143c2.233,8.011,9.919,6.682,9.919,6.682l2.012,12.45
	c0,0,18.302,12.054,25.834,13.355c7.534,1.304,29.12,5.586,48.955-2.111l5.51-16.886c0,0,11.381,3.01,15.083-5.889
	C188.07,138.619,181.354,133.405,181.354,133.405z"/>
<path fill="#D6A381" d="M88,106.285c0.63-3.801,1.603-7.546,2.9-11.174c0.402-1.124,0.843-2.251,1.562-3.203
	c0.814-1.077,1.938-1.872,3.056-2.628c2.723-1.844,5.521-3.575,8.384-5.191c0.052,1.682,0.315,3.357,0.781,4.974
	c4.596-3.52,10.485-5.314,16.265-4.954c0.675,0.042,1.476,0.059,1.882-0.481c0.281-0.375,0.262-0.886,0.23-1.353
	c-0.15-2.225-0.301-4.449-0.45-6.673c8.439-1.662,17.147-1.946,25.678-0.84c0.407,1.977,0.505,4.018,0.287,6.025
	c5.849-1.842,12.633-0.319,17.134,3.845c0.284,0.262,0.594,0.551,0.981,0.574c0.292,0.017,0.569-0.124,0.817-0.279
	c1.488-0.936,2.502-2.588,2.663-4.338c5.099,3.946,10.551,8.448,11.785,14.776c0.866,4.443-0.534,9.141,0.612,13.519
	c2.946-6.17,3.165-13.583,0.59-19.917c-0.833-2.046-1.949-3.989-3.402-5.651c-2.142-2.446-4.945-4.214-7.811-5.75
	c-11.763-6.306-25.312-9.233-38.63-8.347c-13.318,0.887-26.359,5.584-37.183,13.395c-2.074,1.495-4.107,3.147-5.455,5.321
	c-2.401,3.869-2.272,8.733-2.066,13.282"/>
<path fill="#575D57" d="M188.048,107c-0.157-3.125-0.337-6.198-1.228-9.215c-0.021-0.073-0.023-0.139-0.04-0.21
	c-0.931,0.789-1.837,1.759-1.837,1.759l-8.092,36l4.61-2.56c4.218-8.44,5.933-18.273,6.618-25.559
	C188.071,107.141,188.052,107.076,188.048,107z"/>
<path fill="#575D57" d="M192.615,77.598c-0.167-0.288-0.315-0.598-0.437-0.936c-0.859-2.385-1.952-4.68-3.215-6.88
	c-0.426-0.241-0.792-0.581-1.014-1.042c-0.857-1.783-2.254-3.154-3.621-4.552c-0.192-0.057-0.384-0.13-0.569-0.222
	c-1.233-0.608-2.119-1.666-2.883-2.785c-4.627-2.921-9.242-5.725-14.178-7.942c-3.804-0.797-7.644-1.45-11.396-2.459
	c-2.481-0.412-4.975-0.747-7.491-0.849c-0.351,0.118-0.76,0.161-1.228,0.106c-0.521-0.062-1.064-0.104-1.598-0.154
	c-2.345,0.001-4.649,0.041-6.996-0.301c-1.58-0.011-3.136,0.016-4.689,0.053c-3.834,0.182-7.636,0.604-11.1,1.296
	c-0.611,0.123-1.159,0.058-1.641-0.118c-0.052,0.009-0.104,0.013-0.154,0.021c-0.276,0.102-0.571,0.181-0.906,0.202
	c-0.139,0.009-0.277,0.027-0.417,0.041c-0.216,0.059-0.437,0.104-0.667,0.126c-0.354,0.034-0.705,0.089-1.059,0.133
	c-0.782,0.154-1.561,0.345-2.34,0.526c-0.518,0.396-1.159,0.677-1.938,0.792c-0.766,0.113-1.528,0.223-2.292,0.333
	c-0.229,0.07-0.461,0.13-0.692,0.195c-0.146,0.065-0.302,0.124-0.477,0.165c-0.242,0.057-0.483,0.116-0.726,0.173
	c-0.002,0-0.004,0-0.005,0.001c-0.345,0.082-0.688,0.164-1.032,0.247c-0.008,0.002-0.016,0.005-0.023,0.008
	c-0.213,0.126-0.445,0.239-0.714,0.321c-0.204,0.057-0.409,0.113-0.613,0.169c-0.267,0.087-0.532,0.174-0.804,0.248
	c-0.053,0.015-0.1,0.017-0.15,0.029c-0.067,0.018-0.135,0.035-0.202,0.053c-0.432,0.325-0.931,0.604-1.52,0.809
	c-1.132,0.392-2.269,0.75-3.411,1.093c-1.881,0.659-3.733,1.389-5.589,2.157c-0.142,0.059-0.278,0.096-0.415,0.141
	c-0.663,0.471-1.34,0.919-2.09,1.254c-0.292,0.13-0.592,0.215-0.893,0.273c-0.53,0.27-1.063,0.534-1.595,0.8
	c-0.759,0.5-1.516,1.021-2.293,1.56c-0.165,0.114-0.333,0.224-0.502,0.334c-1.08,0.959-2.154,1.924-3.196,2.925
	c-0.078,0.22-0.167,0.441-0.277,0.665c-2.446,4.954,0.062,11.217,0.724,16.353c0.254,1.974-0.013,6.881,2.709,6.874
	c0.903-0.002,1.769,0.26,2.521,0.707l0.185-1.526c8.812-12.343,30.036-18.178,45.081-19.75c15.046-1.571,31.206,3.424,40.714,10.187
	c9.506,6.764,9.325,13.323,9.458,19.038c0.002,0.074-0.004,0.17-0.004,0.253c0.274,0.011,0.548,0.039,0.82,0.083
	c0.072-0.048,0.134-0.108,0.207-0.153c0.223-0.155,0.442-0.313,0.671-0.459c0.079-0.05,0.165-0.085,0.246-0.131
	c0.013-0.008,0.027-0.014,0.04-0.021c0.452-1.233,1.291-2.015,2.298-2.395c-0.005-0.188-0.001-0.382,0.013-0.583
	c0.083-1,0.167-2,0.25-3c0.071-0.861,0.319-1.599,0.676-2.231c0.098-0.369,0.199-0.736,0.307-1.103
	c-0.199-1.031-0.09-2.134,0.45-3.189c0.062-0.129,0.133-0.255,0.197-0.383c0.019-0.039,0.033-0.078,0.053-0.117
	c0.447-0.946,0.947-1.862,1.5-2.75c0.009-0.016,0.02-0.029,0.028-0.044c0.055-0.581,0.11-1.16,0.17-1.739
	C192.792,79.55,192.703,78.574,192.615,77.598z"/>
<path fill="#747A74" d="M188.183,70.356c-0.468-0.984-0.605-1.946-0.506-2.839c-0.46-0.576-0.935-1.14-1.433-1.685
	c-0.09-0.059-0.179-0.115-0.268-0.183c-0.349-0.266-0.681-0.527-1.005-0.791c-0.002,0.003-0.005,0.006-0.007,0.009
	c-0.03-0.028-0.058-0.056-0.088-0.084c-1.064-0.873-2.01-1.772-2.912-2.916c-0.255-0.323-0.457-0.67-0.62-1.03
	c-0.016-0.024-0.029-0.049-0.044-0.073c-0.189-0.199-0.376-0.4-0.562-0.602c-1.331-1.032-2.983-1.812-4.263-2.763
	c-0.344-0.256-0.641-0.546-0.899-0.859c-0.442-0.316-0.874-0.651-1.301-0.998c-0.226-0.082-0.452-0.161-0.677-0.246
	c-1.143-0.381-2.286-0.762-3.429-1.143c-0.578-0.193-1.056-0.456-1.486-0.747c-0.005-0.001-0.009-0.002-0.014-0.003l-6-1.5
	c-0.227-0.057-0.44-0.124-0.645-0.2c-1.192-0.091-2.379-0.249-3.562-0.44c-0.498-0.081-0.915-0.34-1.254-0.685
	c-0.495-0.02-0.941-0.111-1.359-0.236c-0.344,0.032-0.709,0.033-1.102-0.01c-1.892-0.206-3.789-0.343-5.686-0.477
	c-0.453,0.163-0.957,0.236-1.516,0.157c-6.781-0.959-13.586,0.473-20.383,0.439c-1.012-0.005-2.016,0.029-3.016,0.08
	c-0.884,0.094-1.768,0.189-2.65,0.3c-0.01,0.001-0.019,0.001-0.027,0.002c-1.983,0.362-3.979,0.662-5.976,0.945
	c-0.332,0.093-0.67,0.16-1.005,0.239c-0.07,0.024-0.135,0.059-0.207,0.078c-1.41,0.358-2.81,0.755-4.227,1.083
	c-3.699,1.453-7.486,2.615-11.258,3.845c-0.146,0.098-0.297,0.194-0.477,0.275c-3.101,1.396-6.072,3.077-9.248,4.287
	c-0.899,0.659-1.8,1.316-2.699,1.977c-1.057,0.985-2.075,2.009-3.091,3.042c1.003,1.44,2.271,2.668,3.821,3.538
	c2.413,1.354,5.265,1.739,8.031,1.635c9.025-0.339,17.049-5.458,25.014-9.715c7.967-4.257,17.299-7.844,25.851-4.936
	c4.691,1.594,8.751,5.053,13.666,5.687c6.104,0.787,12.618-2.929,18.233-0.409c2.505,1.124,4.345,3.327,5.915,5.579
	c1.571,2.25,2.994,4.653,5.038,6.485c0.621,0.557,1.323,1.043,2.066,1.446C189.991,74.07,189.069,72.222,188.183,70.356z"/>
<path fill="#858D86" d="M118.125,63.16c0,0,12.812-8.715,22.25-7.273c9.439,1.443,14.944,5.763,14.944,5.763l18.392-0.128
	c0,0-7.157,1.845-10.703,2.48c-3.545,0.635-8.058-2.557-14.587-4.603s-13.685-2.74-21.991,0.509L118.125,63.16z"/>
<path fill="#444A44" d="M116.673,61.731c0,0-9.28-2.082-16.194,9.389c-6.916,11.47,0.307,16.986,0.307,16.986
	s5.845-10.967,18.594-8.263C119.379,79.843,118.598,63.638,116.673,61.731"/>
<path fill="#444A44" d="M153.045,62.125l-0.853,14.082c0,0,14.347-3.76,19.869,8.267c0,0,7.748-10.633-0.119-18.169
	C164.074,58.769,153.045,62.125,153.045,62.125"/>
<path fill="#FDD0B1" d="M92.395,161c-7.725-5-1.173-18.398-0.17-27.547c0.434-3.971,1.08-7.967,2.637-11.648
	c3.447-8.157,11.132-13.978,19.486-16.922c8.354-2.943,17.383-3.332,26.237-3.139c5.631,0.123,11.572,0.573,16.221,3.752
	c1.558,1.064,2.912,2.403,4.132,3.843c7.253,8.562,9.571,20.587,7.869,31.676c-1.7,11.091-7.064,21.337-13.675,30.402
	C155.132,171.417,125.678,182.544,92.395,161"/>
<path fill="#FFFFFF" d="M110.148,98.92c-1.19,0.346-11.817,5.213-10.014,18.928c1.803,13.716,12.619,16.493,17.484,14.312
	c4.865-2.184,10.27-6.377,7.891-17.927C123.131,102.682,118.3,96.552,110.148,98.92"/>
<path fill="#FFFFFF" d="M145.83,104.84c0,0-9.959,13.268-6.297,21.096c3.661,7.829,14.972,10.399,18.847,4.857
	c3.875-5.54,8.245-20.514,4.986-26.556C160.108,98.193,155.416,93.025,145.83,104.84"/>
<path fill="#EAEAEA" d="M99.945,114.042c0,0,5.213-8.325,21.605-11.158c0,0-14.642-15.314-22.259,11.9"/>
<path fill="#EAEAEA" d="M148.174,102.184c0,0,10.043,0.751,16.045,11.817c0,0,1.779-11.676-3.672-13.936
	C155.096,97.805,152.313,97.236,148.174,102.184"/>
<path fill="#AD856F" d="M85.151,124.854c-6.918-0.005-11.006,6.481-9.842,13.014c0.835,4.679,6.803,12.325,12.273,9.417
	c1.325-0.704,0.085-2.813-1.183-2.006c-3.731,2.381-8.231-4.771-8.799-7.453c-1.095-5.175,1.978-10.792,7.582-11.128
	C86.361,126.626,86.346,124.854,85.151,124.854"/>
<path fill="#AD856F" d="M180.973,135.378c4.204,3.584,4.485,9.122,1.188,13.508c-3.185,4.239-7.82,4.188-12.604,3.471
	c-1.354-0.203-1.921,1.732-0.542,2.104c5.948,1.598,12.467,0.297,15.774-5.291c2.967-5.012,2.807-12.152-2.721-15.228
	C181.194,133.458,180.164,134.688,180.973,135.378"/>
<path fill="#AD856F" d="M84.976,124.08c-1.051,3.176,0.195,7.277,1.461,10.225c0.498,1.156,2.154,0.275,1.923-0.824
	c-0.642-3.056-1.983-6.014-1.708-9.201C86.739,123.271,85.26,123.222,84.976,124.08"/>
<path fill="#AD856F" d="M175.694,137.324c-0.714,2.038-1.663,3.943-2.535,5.913c-0.572,1.298,1.205,2.396,1.952,1.12
	c1.178-2.006,1.938-4.293,2.558-6.524C178.023,136.552,176.121,136.103,175.694,137.324"/>
<path fill="#373A38" d="M117.051,60.263c-13.142-3.05-26.094,17.134-18.043,27.886c0.83,1.107,2.652,0.12,1.897-1.119
	c-6.27-10.286,4.19-25.564,15.921-24.868C117.918,62.228,118.102,60.506,117.051,60.263"/>
<path fill="#373A38" d="M116.553,61.307c0.877,6.171,1.439,12.33,1.73,18.554c0.456-0.36,0.912-0.719,1.369-1.08
	c-8.008-1.932-16.009,1.367-19.908,8.727c-0.721,1.362,1.349,2.557,2.081,1.194c3.355-6.237,10.341-9.58,17.28-7.799
	c0.686,0.176,1.385-0.366,1.369-1.079c-0.134-6.323-0.794-12.594-1.922-18.814C118.35,59.889,116.391,60.16,116.553,61.307"/>
<path fill="#373A38" d="M152.759,62.897c5.579-0.355,11.569,0.018,16.463,3.068c7.353,4.581,5.8,11.557,1.88,17.959
	c-0.752,1.228,1.123,2.258,1.918,1.101c3.74-5.438,5.986-13.212,0.753-18.541c-5.202-5.297-14.291-6.623-21.246-5.158
	C151.643,61.512,151.854,62.955,152.759,62.897"/>
<path fill="#373A38" d="M151.728,62.299c-0.759,4.615-0.84,9.262-0.638,13.927c0.032,0.737,0.7,1.202,1.403,1.041
	c7.074-1.612,15.415,0.931,18.518,7.827c0.645,1.431,2.736,0.179,2.101-1.238c-3.562-7.93-13.178-10.775-21.221-8.708
	c0.467,0.347,0.935,0.694,1.402,1.042c-0.228-4.583-0.015-9.103,0.218-13.679C153.562,61.502,151.894,61.284,151.728,62.299"/>
<path fill="#373A38" d="M97.902,81.757c-1.654-0.594-3.482,1.025-4.682,1.967c-1.665,1.309-3.373,2.905-4.398,4.781
	c-0.551,1.009,0.778,2.051,1.609,1.227c1.114-1.107,2.078-2.341,3.238-3.414c0.945-0.875,2.662-2.828,4.027-2.815
	C98.754,83.512,98.799,82.079,97.902,81.757"/>
<path fill="#373A38" d="M88.841,88.771c-2.654,11.78-3.352,23.884-3.962,35.898c-0.061,1.198,1.811,1.169,1.867-0.031
	c0.561-11.962,2.47-23.783,3.864-35.658C90.728,87.97,89.06,87.797,88.841,88.771"/>
<path fill="#373A38" d="M119.009,72.716c10.464-2.613,21.063-3.138,31.728-1.632c1.263,0.179,1.795-1.74,0.503-1.951
	c-10.994-1.799-21.987-1.072-32.649,2.11C117.645,71.524,118.053,72.955,119.009,72.716"/>
<path fill="#373A38" d="M174.95,80.007c5.242,4.28,8.707,10.188,9.337,16.976c0.127,1.359,2.27,1.332,2.133-0.036
	c-0.735-7.359-4.387-13.979-10.531-18.172C175.166,78.28,174.263,79.445,174.95,80.007"/>
<path fill="#373A38" d="M184.493,96.748c-2.601,13.578-5.105,27.06-8.816,40.396c-0.39,1.399,1.798,1.964,2.187,0.563
	c3.698-13.327,6.965-26.972,8.499-40.737C186.479,95.91,184.693,95.703,184.493,96.748"/>
<path fill="#E0AA86" d="M140.906,127.446c-3.871-6.422,0.499-14.206,3.993-19.813c1.543-2.475,3.11-5.001,5.415-6.832
	c4.751-3.775,10.729-1.584,12.376,4.197c1.675,5.872,0.225,13.461-1.802,19.092c-1.798,4.997-5.034,9.893-11.114,8.91
	c-3.502-0.563-6.657-2.214-8.434-5.374c-0.533-0.948-1.972-0.094-1.45,0.856c3.657,6.657,14.371,9.072,19.32,2.63
	c5.083-6.614,8.052-20.317,4.546-28.184c-3.818-8.569-12.746-6.523-17.564-0.183c-4.782,6.294-12.009,17.643-6.524,25.431
	C140.193,128.923,141.391,128.251,140.906,127.446"/>
<path fill="#E0AA86" d="M124.227,126.066c-5.012,5.572-13.41,7.137-19.216,1.617c-5.392-5.126-5.587-13.834-2.753-20.285
	c1.789-4.069,4.623-6.766,8.969-7.932c5.25-1.408,8.798,1.5,10.908,6.075c2.918,6.322,3.775,14.194,2.152,20.944
	c-0.213,0.888,1.076,1.2,1.361,0.351c2.748-8.181,0.855-21.629-5.933-27.652c-6.339-5.624-16.296,1.079-18.998,7.466
	c-3.198,7.563-2.706,17.711,4.169,23.131c6.438,5.075,15.551,3.452,20.216-3.049C125.469,126.222,124.644,125.603,124.227,126.066"
	/>
<path fill="#AD856F" d="M123.906,113.199c-1.63-1.154-4.312-0.554-5.521,0.972c-1.346,1.698-0.221,4.03,1.326,5.14
	c0.393,0.282,0.791,0.25,1.107,0.052c1.397,0.332,2.881-0.101,3.811-1.329C125.77,116.526,125.467,114.305,123.906,113.199z"/>
<path fill="#AD856F" d="M148.647,112.734c-1.906-0.504-4.253,0.444-4.863,2.425c-0.6,1.937,0.597,4.104,2.643,4.346
	c0.375,0.045,0.664-0.129,0.867-0.388c1.373-0.054,2.705-0.628,3.353-1.95C151.547,115.328,150.644,113.265,148.647,112.734z"/>
<path fill="#AD856F" d="M146.857,139.408c-3.429,2.044-7.275,1.458-10.979,0.608c-0.939-0.215-1.217,1.239-0.286,1.465
	c4.057,0.982,8.309,1.29,11.96-1.043C148.229,140.005,147.541,139.001,146.857,139.408"/>
<path fill="#AD856F" d="M86.051,146.616c0.203,2.754,0.52,5.5,0.863,8.24c0.234,1.869,0.378,3.774,1.501,5.352
	c0.809,1.136,2.606,0.13,1.892-1.115c-1.137-1.978-1.16-4.348-1.472-6.562c-0.292-2.066-0.598-4.131-0.975-6.183
	C87.672,145.326,85.975,145.576,86.051,146.616"/>
<path fill="#AD856F" d="M88.936,160.521c10.933,7.498,23.168,13.268,36.448,14.73c13.102,1.441,26.001-0.765,38.67-3.973
	c1.277-0.323,0.719-2.295-0.559-1.968c-12.267,3.127-25.185,5.036-37.843,3.676c-13.459-1.449-24.113-7.877-35.856-13.964
	C88.799,158.506,88.027,159.896,88.936,160.521"/>
<path fill="#AD856F" d="M168.339,153.849c-1.759,5.271-3.219,10.535-5.421,15.658c-0.581,1.353,1.419,2.516,2.007,1.152
	c2.243-5.221,4.293-10.74,4.987-16.405C170.038,153.236,168.679,152.831,168.339,153.849"/>
<g>
	<g>
		<path fill="#373A38" d="M185.974,98.319c0.45,7.352,0.556,14.038-0.949,21.26c-0.802,3.852-1.741,13.677-6.563,14.642
			c-1.212,0.242-0.858,1.462,0.328,1.225c5.002-1,6.301-7.809,7.305-11.947c2.105-8.681,2.356-16.809,1.812-25.696
			C187.855,96.992,185.92,97.438,185.974,98.319L185.974,98.319z"/>
	</g>
</g>
<g>
	<g>
		<path d="M88.374,89.65c-2.273,2.202-3.112-10.217-3.284-11.142c-0.624-3.351-1.512-6.682-0.959-10.109
			c0.496-3.073,4.314-5.176,6.679-6.65c14.294-8.916,31.543-11.373,48.047-11.244c13.676,0.107,28.379,1.146,39.507,9.968
			c5.367,4.254,10.587,10.822,12.468,17.431c1.107,3.894-1.013,7.082-2.424,10.509c-1.329,3.23,1.406,7.595-2.717,9.783
			c-1.133,0.602,0.656,0.521,1.119,0.275c1.966-1.044,2.876-1.945,3.175-4.184c0.355-2.667-0.231-4.843,0.858-7.491
			c0.693-1.687,1.97-3.347,2.123-5.222c0.716-8.755-7.452-17.541-13.86-22.62c-13.414-10.632-34.89-10.043-51.03-9.086
			c-9.36,0.555-18.479,2.996-27.216,6.287c-5.676,2.138-13.514,5.07-17.313,10.09c-2.273,3.003-1.545,6.606-0.917,10.087
			c0.642,3.559,0.966,7.002,1.348,10.579c0.463,4.348,3.014,5.642,6.149,2.604C90.55,89.106,88.712,89.322,88.374,89.65
			L88.374,89.65z"/>
	</g>
</g>
<g>
	<g>
		<path d="M186.841,83.416c1.423,1.532,1.655,3.606,1.205,5.583c-0.104,0.458,1.796,0.16,1.908-0.332
			c0.484-2.13,0.235-4.27-1.295-5.917C188.315,82.38,186.521,83.073,186.841,83.416L186.841,83.416z"/>
	</g>
</g>
<g>
	<g>
		<path fill="#AD856F" d="M109.368,170.592c1.304,4.025-1.174,8.396,1.079,12.156c0.419,0.699,2.272,0.002,1.773-0.83
			c-2.092-3.491,0.322-8.007-0.921-11.844C111.028,169.234,109.102,169.769,109.368,170.592L109.368,170.592z"/>
	</g>
</g>
<g>
	<g>
		<path fill="#AD856F" d="M156.018,172.727c-0.248,2.631-0.174,5.237-0.166,7.874c0.004,1.064,1.967,0.812,1.965-0.121
			c-0.009-2.638-0.083-5.244,0.166-7.874C158.081,171.557,156.106,171.792,156.018,172.727L156.018,172.727z"/>
	</g>
</g>
<path fill="#575D57" d="M125.537,195.413c0.196-4.448-4.957-7.391-9.273-10.08c-1.243-0.775-2.213-1.498-2.976-2.14
	c-0.262,0.181-0.603,0.258-1.001,0.156c-0.142-0.036-0.276-0.087-0.406-0.145c-0.383,0.052-0.781-0.086-1.113-0.349
	c-0.615-0.486-1.024-1.226-1.229-1.976c-1.074,0.737-2.025,2.674-3.081,5.776c-1.46,4.286,0.263,8.719,1.474,11.276
	c1.212,2.558,8.363,3.916,13.619,4.188C126.806,202.395,125.342,199.861,125.537,195.413z"/>
<path fill="#575D57" d="M161.564,182.333c-0.463-4.8-3.248-5.549-3.797-5.65c-0.002,0.038,0.005,0.075,0,0.113
	c-0.006,0.034-0.015,0.066-0.02,0.101c0.064,0.203,0.082,0.434,0.02,0.69c-0.191,0.783-0.226,1.592-0.417,2.375
	c-0.149,0.609-0.601,0.884-1.078,0.904c-0.329,0.732-0.712,1.458-1.16,2.086c-1.722,2.412-5.612,5.214-12.37,5.344
	s-6.271,4.037-6.271,4.037s0.529,6.667,1.61,9.078s7.456,1.301,14.591,0.634s6.828-3.879,8.893-5.341
	C163.628,195.242,162.078,187.659,161.564,182.333z"/>
<path fill="#747A74" d="M121.541,189.287c-1.639-1.589-3.669-3.363-5.541-4.62c-0.84-0.562-1.82-0.913-2.617-1.469
	c-0.228,0.095-0.498,0.116-0.805,0.026c-0.146-0.043-0.281-0.098-0.416-0.152c-0.112-0.002-0.225-0.015-0.334-0.056
	c-1.184-0.445-1.939-1.65-2.26-2.891c-0.002-0.008-0.129,0.281-0.131,0.273c-1.421,0.615-2.156,3.274-2.104,4.768L107,185.5
	c0.012,4.045,2.24,4.299,5.824,4.842c1.629,0.246,3.121,0.382,4.639,1.2c1.163,0.627,2.166,1.769,3.328,2.332
	C124.072,195.464,123.016,190.718,121.541,189.287z"/>
<path fill="#747A74" d="M161.166,180.833L160.5,180c-0.125-1.039-1.191-3.028-2.513-2.671c-0.155,0.042-0.277,0.108-0.384,0.189
	c-0.021,0.635-0.113,1.263-0.253,1.902c-0.073,0.337-0.304,0.603-0.595,0.762c-0.717,1.893-2.162,3.645-3.802,4.771
	c-1.753,1.205-3.986,2.604-6.12,3.055c-2.297,0.485-5.013-0.249-7.297,0.362c-2.502,0.669-3.587,3.206-1.244,4.666
	c2.65,1.652,5.017,1.209,8.032,0.796c3.807-0.521,8.031-2.894,11.175-5.125C158.654,187.888,163.719,181.833,161.166,180.833z"/>
<path fill="#858D86" d="M152.752,191.615c-0.615,0.325-3.129,1.527-5.652,2.008c-1.934,0.211-2.721,0.527-3.906,0.572
	c0.029,0.01,0.477,0.033,0.507,0.042c2.15,0.197,4.358,0.129,6.359-0.517c2.863-0.923,5.013-2.688,7.164-4.646
	c0.093-0.123,0.187-0.249,0.276-0.367C156.595,189.253,153.536,191.201,152.752,191.615z"/>
<path fill="#858D86" d="M122.809,193.472c-0.018,0.011-0.035,0.015-0.054,0.024c-0.181,0.361-0.833,0.535-1.171,0.503
	c-0.453-0.044-0.914-0.225-1.257-0.535c-0.421-0.203-0.825-0.475-1.196-0.766c-0.76-0.596-1.467-1.092-2.243-1.488
	c-0.06-0.014-0.124-0.033-0.179-0.044l0.148,0.029c-0.407-0.206-0.849-0.377-1.323-0.517c-0.009,0-0.021-0.005-0.028-0.005
	c0.123,0.283,0.642,0.541,0.901,0.753c0.593,0.482,1.31,0.801,1.927,1.282c0.566,0.441,0.988,1.149,1.622,1.499
	c0.583,0.322,1.277,0.488,1.917,0.331c0.46-0.113,1.105-0.57,1.002-1.116C122.852,193.438,122.834,193.457,122.809,193.472z"/>
<g>
	<g>
		<path fill="#CFCECE" d="M124.231,202.791c5.131-2.053,10.799,0.486,16.074,0.645c0.802,0.023,2.032-1.165,0.723-1.205
			c-5.954-0.178-11.771-2.685-17.592-0.355C122.19,202.374,123.316,203.157,124.231,202.791L124.231,202.791z"/>
	</g>
</g>
<g>
	<path fill="#373A38" d="M124.367,199.925c0.143,4.725-13.196,0.283-15.236-1.938c-3.59-3.911-2.793-12.679,0.594-17.082
		c-0.009-0.025-0.027-0.042-0.033-0.068c-0.122-0.468-0.156-0.945-0.164-1.425c-5.283,4.289-7.113,17.798,0.174,21.009
		c2.771,1.221,16.799,5.611,16.598-1.014C126.287,198.992,124.35,199.321,124.367,199.925z"/>
</g>
<g>
	<path fill="#373A38" d="M158.432,176.185c-0.166-0.071-0.422-0.055-0.686,0.011c0,0.338-0.018,0.676-0.059,1.012v0.362
		c4.83,2.941,3.398,11.4,3.354,16.127c-0.008,0.843,1.929,0.443,1.936-0.227C163.027,188.107,164.634,178.828,158.432,176.185z"/>
</g>
<g>
	<g>
		<path fill="#373A38" d="M156.373,179.474c-1.559,4.042-6.07,7.426-10.345,8.205c-2.697,0.492-5.531-0.206-8.156,0.838
			c-3.98,1.583-1.945,7.49-1.838,10.742c0.017,0.509,1.954,0.152,1.932-0.518c-0.09-2.735-0.635-5.458-0.353-8.199
			c0.259-2.508,6.843-1.701,8.903-2.076c4.746-0.866,10.043-4.772,11.778-9.273C158.5,178.661,156.597,178.895,156.373,179.474
			L156.373,179.474z"/>
	</g>
</g>
<g>
	<g>
		<path fill="#373A38" d="M110.585,182.875c6.648,4.423,15.358,7.198,13.772,16.873c-0.154,0.94,1.816,0.668,1.953-0.164
			c1.661-10.137-7.182-13.106-14.228-17.793C111.404,181.339,109.689,182.279,110.585,182.875L110.585,182.875z"/>
	</g>
</g>
<g>
	<g>
		<path fill="#373A38" d="M136.034,199.592c1.889,5.972,10.385,3.466,14.956,3.167c6.461-0.424,11.914-2.613,11.979-9.87
			c0.007-0.852-1.931-0.456-1.938,0.223c-0.06,6.764-5.131,8.204-11.011,8.589c-3.881,0.255-10.492,2.314-12.055-2.626
			C137.738,198.353,135.812,198.893,136.034,199.592L136.034,199.592z"/>
	</g>
</g>
<g>
	<g>
		<path fill="#373A38" d="M113.018,216.197c-1.143,0.775-1.669,2.097-1.011,3.366c0.559,1.075,1.805,1.742,3.01,1.603
			c1.593-0.186,2.993-1.776,2.738-3.422c-0.284-1.831-2.459-2.14-3.941-1.772c-0.397,0.099-0.906,0.482-0.779,0.954
			c0.129,0.482,0.755,0.535,1.152,0.437c0.737-0.184,1.631,0.074,1.632,0.971c0.001,0.419-0.198,0.931-0.494,1.207
			c-0.054,0.047-0.109,0.091-0.168,0.132c0.135-0.1-0.198,0.076,0.023-0.004c-0.034,0.013-0.317,0.056-0.101,0.03
			c-0.272,0.032,0.156,0.028-0.116,0.001c-0.186-0.019-0.44-0.144-0.684-0.334c-0.196-0.154-0.401-0.431-0.5-0.667
			c-0.272-0.656-0.044-1.169,0.535-1.562c0.355-0.241,0.472-0.77,0.092-1.044C113.986,215.79,113.411,215.931,113.018,216.197
			L113.018,216.197z"/>
	</g>
</g>
<g>
	<g>
		<path fill="#373A38" d="M114.917,230.117c-1.604,0.272-2.666,1.454-2.232,3.116c0.428,1.641,2.142,2.386,3.693,1.901
			c1.654-0.517,2.777-2.204,2.22-3.914c-0.618-1.899-2.801-2.07-4.362-1.299c-0.347,0.172-0.747,0.611-0.453,1.007
			c0.29,0.391,0.929,0.342,1.314,0.151c1.678-0.829,2.305,2.059,0.82,2.745c-1.093,0.505-1.783-2.17-1.166-2.274
			c0.429-0.073,1.003-0.273,1.062-0.788C115.866,230.302,115.305,230.052,114.917,230.117L114.917,230.117z"/>
	</g>
</g>
<g>
	<g>
		<path fill="#CFCECE" d="M162.868,233.592c0.566,2.193-0.12,4.342-0.332,6.534c-0.073,0.751,1.867,0.372,1.928-0.254
			c0.222-2.281,0.926-4.517,0.336-6.798C164.633,232.427,162.699,232.938,162.868,233.592L162.868,233.592z"/>
	</g>
</g>
<g>
	<g>
		<path fill="#CFCECE" d="M90.539,231.639c-0.325,1.693-0.492,3.396-0.505,5.119c-0.004,0.492,1.927,0.163,1.932-0.518
			c0.013-1.646,0.185-3.266,0.495-4.881C92.584,230.719,90.651,231.055,90.539,231.639L90.539,231.639z"/>
	</g>
</g>
<g>
	<g>
		<path fill="#AD856F" d="M12.151,166.608c2.174-3.825,7.228-8.936,12.332-6.803c2.859,1.193,2.358,4.498,1.568,6.763
			c-1.419,4.07-4.733,7.212-6.702,10.989c-0.271,0.521,0.409,0.6,0.771,0.569c1.222-0.101,2.381-0.338,3.576-0.598
			c9.816-2.129,5.652,4.93,3.652,8.278c-0.224,0.375,0.188,0.597,0.527,0.581c6.78-0.305,7.514,4.846,3.597,9.029
			c-0.781,0.833,1.108,0.806,1.553,0.33c2.147-2.292,3.902-5.053,2.277-8.146c-0.516-0.982-1.548-1.463-2.494-1.901
			c-1.541-0.714-3.78,0.327-2.365-1.975c1.732-2.819,2.257-6.074-1.279-7.506c-1.266-0.512-2.934-0.173-4.225,0.019
			c-2.157,0.319-4.338,2.048-2.589-0.659c2.171-3.36,10.082-12.337,4.518-16.137c-5.982-4.085-13.574,1.935-16.52,7.115
			C9.891,167.364,11.833,167.167,12.151,166.608L12.151,166.608z"/>
	</g>
</g>
<polyline fill="none" stroke="#634135" stroke-width="2" stroke-miterlimit="10" points="43.7,220.444 39.25,218.806 
	31.125,202.333 "/>
<g>
	<g>
		<path fill="#AD856F" d="M31.003,195.588c-2.212,1.812-2.367,4.664-0.894,7.023c0.405,0.649,2.268-0.026,1.78-0.807
			c-1.024-1.64-1.293-4.124,0.356-5.477C33.261,195.497,31.675,195.037,31.003,195.588L31.003,195.588z"/>
	</g>
</g>
<g>
	<g>
		<path fill="#A09F9F" d="M23.615,152.59c0.625,0.948,1.209,1.927,1.586,3.002c0.305,0.872,2.23,0.333,1.932-0.518
			c-0.416-1.187-1.058-2.284-1.748-3.33C24.909,151.022,23.065,151.757,23.615,152.59L23.615,152.59z"/>
	</g>
</g>
<g>
	<g>
		<path fill="#A09F9F" d="M30.793,163.56c0.17-0.218,0.339-0.443,0.566-0.604c-0.505,0.358-0.758-0.194-0.425,0.328
			c0.279,0.437,0.335,1.087,0.402,1.586c0.151,1.128,0.195,2.458-0.142,3.56c-0.24,0.784,1.318,0.476,1.594,0.274
			c0.653-0.475,1.316-0.562,2.104-0.575c1.041-0.019,1.536-1.279,0.214-1.256c-1.29,0.023-2.507,0.324-3.562,1.091
			c0.531,0.092,1.063,0.184,1.594,0.274c0.46-1.506,0.33-3.511-0.095-5.007c-0.598-2.104-2.751-1.517-3.837-0.124
			C28.471,164.049,30.318,164.169,30.793,163.56L30.793,163.56z"/>
	</g>
</g>
<g>
	<g>
		<path fill="#A09F9F" d="M35.795,176.031c0.121-0.412,0.335-0.729,0.6-1.06c0.416-0.365,0.428-0.401,0.037-0.108
			c0.213,0.19,0.051,0.532-0.017,0.746c-0.229,0.729-0.748,1.329-1.044,2.026c-0.057,0.134,0.07,0.267,0.186,0.303
			c0.85,0.271,1.556,0.812,2.19,1.425c0.307,0.297,0.57,0.637,0.75,1.024c0.233,0.502,0.125,0.451-0.275,0.446
			c-0.661-0.008-2.08,0.982-0.777,0.998c1.061,0.013,3.328-0.231,3.042-1.787c-0.242-1.319-2.05-2.469-3.182-2.922
			c0.234,0.094,2.013-2.657,0.38-3.336c-1.556-0.647-3.421,1.179-3.813,2.516C33.693,176.911,35.619,176.631,35.795,176.031
			L35.795,176.031z"/>
	</g>
</g>
<g>
	<g>
		<path fill="#A09F9F" d="M40.688,187.737c-0.46,1.602,0.009,3.258,1.551,4.026c1.733,0.862,3.548-0.538,4.354-1.98
			c0.241-0.431-0.211-0.779-0.593-0.827c-0.489-0.062-1.014,0.16-1.257,0.595c-0.364,0.652-0.849,1.277-1.573,0.772
			c-0.855-0.597-0.772-1.858-0.522-2.727c0.138-0.481-0.574-0.671-0.896-0.647C41.256,186.985,40.826,187.257,40.688,187.737
			L40.688,187.737z"/>
	</g>
</g>
<g>
	<g>
		<path fill="#A09F9F" d="M43.539,188.307c-0.116,2.033,0.69,3.789,1.893,5.386c0.349,0.464,2.211-0.178,1.804-0.719
			c-1.08-1.435-1.879-3.111-1.774-4.946C45.501,187.331,43.571,187.745,43.539,188.307L43.539,188.307z"/>
	</g>
</g>
<g>
	<g>
		<path fill="#A09F9F" d="M48.711,200.605c0.391-0.407,0.874-0.65,1.449-0.728c-0.055-0.206-0.11-0.412-0.166-0.618
			c-1.018,0.375-2.061,0.79-2.833,1.579c-0.825,0.844-0.605,2.074-0.294,3.087c0.112,0.366,1.105,0.064,1.305-0.019
			c1.885-0.786,2.537,1.669,1.168,1.882c-0.793,0.124-1.706,0.967-0.348,0.756c1.28-0.199,3.378-0.954,2.973-2.637
			c-0.434-1.802-3.426-0.917-4.472-0.481c0.435-0.006,0.87-0.013,1.305-0.019c-0.604-1.966-0.028-2.968,1.874-3.668
			c0.807-0.297,0.695-0.787-0.166-0.618c-1.333,0.263-2.528,0.687-3.551,1.606c-0.338,0.304,0.295,0.357,0.464,0.346
			C47.86,201.043,48.375,200.906,48.711,200.605L48.711,200.605z"/>
	</g>
</g>
<g>
	<g>
		<path fill="#A09F9F" d="M29.117,151.596c2.46,2.81,3.142-0.904,5.719-0.715c1.868,0.137,4.404-1.565,6.034-2.216
			c3.322-1.326,6.984-2.071,10.062-3.916c1.121-0.672,0.094-1.737-0.862-1.164c-4.002,2.399-9.286,3.552-13.617,5.407
			c-1.272,0.545-2.243,0.005-3.465,0.333c-0.54,0.145-1.745,1.822-2.103,1.413C30.294,150.064,28.462,150.849,29.117,151.596
			L29.117,151.596z"/>
	</g>
</g>
<g>
	<g>
		<path fill="#A09F9F" d="M36.201,163.705c2.091,0.077,3.701-0.969,5.704-1.542c4.456-1.274,8.882-3.376,13.407-4.336
			c0.733-0.156,1.729-0.941,0.375-0.654c-3.664,0.777-7.131,2.308-10.725,3.361c-1.802,0.528-3.551,1.202-5.368,1.698
			c-0.595,0.162-1.499,0.751-2.129,0.729C37.085,162.946,35.267,163.671,36.201,163.705L36.201,163.705z"/>
	</g>
</g>
<g>
	<g>
		<path fill="#A09F9F" d="M43.799,175.574c-0.141-0.265-0.207-0.388-0.398-0.603c-0.601,0.241-1.202,0.481-1.803,0.723
			c2.406,1.855,3.458-1.035,5.845-1.033c1.844,0.001,4.015-1.729,5.641-2.345c2.669-1.013,5.24-2.069,7.668-3.584
			c1.104-0.689-0.611-0.813-1.17-0.465c-1.945,1.214-3.993,2.127-6.126,2.957c-1.313,0.511-4.886,2.596-6.278,2.351
			c-0.593-0.104-1.396,0.069-1.929,0.359c-0.841,0.457-1.425,1.362-1.847,1.037c-0.427-0.329-2.274,0.193-1.803,0.723
			c0.09,0.133,0.179,0.265,0.269,0.397C42.188,176.692,44.046,176.036,43.799,175.574L43.799,175.574z"/>
	</g>
</g>
<g>
	<g>
		<path fill="#A09F9F" d="M47.941,187.729c1.398,1.942,3.074,0.737,4.673-0.384c1.841-1.29,3.734-2.021,5.784-2.883
			c3.29-1.383,5.468-4.031,9.32-4.195c1.013-0.043,1.558-1.256,0.229-1.199c-3.252,0.139-5.887,1.648-8.583,3.35
			c-1.883,1.188-3.943,1.822-5.983,2.645c-0.987,0.397-2.772,3.103-3.657,1.876C49.294,186.338,47.432,187.021,47.941,187.729
			L47.941,187.729z"/>
	</g>
</g>
<g>
	<g>
		<path fill="#A09F9F" d="M54.034,199.926c0.528,0.785,1.001,1.083,2.003,0.814c1.935-0.519,3.283-2.091,5.263-2.724
			c1.447-0.463,3.496-2.226,4.872-2.283c2.339-0.097,4.079-2.173,6.333-2.642c0.812-0.168,1.664-1.129,0.322-0.85
			c-1.296,0.269-2.374,0.606-3.547,1.236c-1.606,0.861-2.591,1.05-4.213,1.485c-0.698,0.187-8.832,4.846-9.102,4.444
			C55.605,198.871,53.816,199.602,54.034,199.926L54.034,199.926z"/>
	</g>
</g>
</svg>
