<svg xmlns="http://www.w3.org/2000/svg" width="183" height="146" viewBox="0 103 183 146" enable-background="new 0 103 183 146"><ellipse fill="#E5E5E5" cx="95.807" cy="212.667" rx="81.687" ry="26.666"/><path fill="#E2B893" d="M176.492 133.34l-2.28-4.645-.515.027c-.336-.983-1.327-1.843-1.947-2.56-.516-.595-.803-1.017-1.52-1.017-.487 0-.883.218-1.397.186-.793-.05-1.767-.688-2.146-1.432-.31-.606.014-1.464-.77-1.65-.747-.177-1.8.748-2.415 1.085-1.56.856-2.904.356-3.648-1.17-.426-.874-.688-1.743-1.77-1.748-.895-.005-1.72.407-2.496.77-.656.307-1.734.632-2.75.745-.143-.34-.31-.672-.507-1-.986-1.623-1.977-3.914-4.16-3.118-.708.258-1.45.607-2.086 1.035-.658.444-1.04 1.077-1.834 1.233-1.596.315-2.23-1.59-3.083-2.583-.638-.74-.853-1.303-1.838-1.023-.654.186-1.124.743-1.744 1.023-.86.39-1.943.632-2.52-.185-.396-.556-.315-1.806-.747-2.233-.9-.89-3.347 1.89-4.234 2.11-.862.21-.854-.408-1.167-1.044-.48-.978-.745-.65-1.672-.144-1.34.732-2.65 1.66-4.245 1.665-1.708.004-2.102-1.738-3.648-1.835-1.71-.108-3.57.386-5.105 1-.75.3-1.31.606-2.102.418-.198-.047-.403-.132-.61-.215-.048-.092-.088-.188-.138-.278-1.123-2.008-2.862-1.59-4.81-1.425-1.06.09-3.037.925-4.005.502-.555-.242-.697-1.087-1.25-1.237-.607-.165-1.412.623-1.833.966-.54.44-1.058.823-1.77.937-.977.156-1.118-.218-1.67-.837-.755-.85-1.094-.48-1.808.252-.615.632-1.227 1.19-2.083 1.415-1.82.48-2.03-.69-3.065-1.685-2.217-2.13-4.59 3.295-6.792 1.21-.532-.504-.72-1.265-1.614-1.194-.717.058-1.338.777-1.798 1.25-1.446 1.488-3.16 1.88-4.985.815-.626-.365-.897-1.058-1.646-.79-.535.192-1.05 1.118-1.374 1.56-.49.668-.643 1.19-1.48.936-.672-.203-1.074-.894-1.582-1.35-1.09-.98-2.753-.562-3.733.44-.74.757-1.22 2.217-2.16 2.917-.59-.798-1.366-1.337-2.445-1.775-.847-.344-1.805-.62-2.663-.25-1.436.618-2.298 2.462-3.832 3.024-.82.3-1.36-.364-2-.79-.432-.285-1.494-1.446-1.837-1.385-.442.08-.807 1.326-1.055 1.676-.442.625-.97 1.2-1.775 1.31-1.457.198-2.61-1.51-4.23-1.333-1.56.17-2.014 2.12-3.353 2.854-1.213.666-2.777-.265-4.104-.187-1.67.098-2.165 2-3.73 2.52-.732.245-1.63.507-2.416.563-.614.044-1.742-.376-2.233.102-.5.486.058 1.49-.265 2.064-.312.555-1.102.56-1.753.583-.824.03-1.793-.116-2.52.355-.735.48-.23 1.076-.79 1.748-.623.74-1.654.532-2.44.828-.845.318-.89.852-1.08 1.565-.18.677-.335 1.11-1.003 1.5-.37.218-1.353.244-1.4.757l-.124.007.444 2.062-1.94 1.822s-1.005 1.49-.35 3.29c.655 1.796-.984 2.99-.984 2.99l23.964 62.313s18.35 20.047 65.405 17.54c47.055-2.504 59.976-18.457 59.976-18.457l13.575-68.187-.14-1.878 1.65-5.327z"/><path fill="#EFC5A5" d="M23.61 132.16c-3.183 2.258-3.16 6.465.296 8.296 1.416.75 2.804 1.036 4.204 1.716 2.308 1.122 4.216 3.034 6.963 3.13 1.544.052 3.074 0 4.617.005 3.28.01 6.52.537 9.673 1.47 2.124.628 6.134 3.427 8.31 2.866 2.328-.6 3.882-.582 6.02.53 1.895.986 8.387.08 10.74.16 4.163.14 8.222-.772 12.4-.604 3.664.146 7.334.222 11 .072 8.343-.337 16.71-.657 25.022-1.468 4.994-.486 9.96-1.124 14.9-1.984 3.904-.678 7.64.402 10.885-2.54 1.604-1.454 3.267-3.02 5.526-3.257 4.194-.44 6.974-2.082 10.078-4.807 3.95-3.47 4.244-7.48 2.842-11.302-.163-.17-.303-.353-.4-.544-.134-.262-.15-.57-.187-.85-.113-.238-.232-.473-.355-.708-.063-.038-.138-.07-.23-.092-.745-.177-1.798.748-2.413 1.085-1.56.856-2.904.356-3.648-1.17-.426-.874-.688-1.743-1.77-1.748-.895-.005-1.72.407-2.496.77-.656.307-1.734.632-2.75.745-.143-.34-.31-.672-.507-1-.986-1.623-1.977-3.914-4.16-3.118-.708.258-1.45.607-2.086 1.035-.658.443-1.04 1.076-1.834 1.232-1.596.315-2.23-1.59-3.083-2.583-.638-.74-.853-1.304-1.838-1.024-.654.186-1.124.743-1.744 1.023-.86.388-1.943.63-2.52-.186-.396-.556-.315-1.806-.747-2.233-.9-.887-3.347 1.892-4.234 2.11-.862.213-.854-.406-1.167-1.042-.48-.978-.745-.65-1.672-.144-1.34.732-2.65 1.66-4.245 1.665-1.708.003-2.102-1.74-3.648-1.836-1.71-.108-3.57.386-5.105 1-.75.3-1.31.606-2.102.418-.198-.047-.403-.132-.61-.215-.047-.092-.088-.188-.138-.278-1.123-2.01-2.862-1.59-4.81-1.426-1.06.09-3.036.925-4.005.502-.555-.242-.697-1.087-1.25-1.237-.607-.166-1.412.622-1.833.965-.54.44-1.058.823-1.77.937-.977.156-1.118-.218-1.67-.837-.755-.85-1.094-.48-1.808.252-.615.632-1.227 1.19-2.083 1.415-1.82.48-2.03-.69-3.065-1.685-2.217-2.13-4.59 3.295-6.792 1.21-.532-.504-.72-1.265-1.614-1.194-.717.057-1.338.776-1.798 1.25-1.446 1.487-3.16 1.878-4.985.814-.626-.365-.897-1.058-1.646-.79-.535.192-1.05 1.118-1.374 1.56-.49.668-.643 1.19-1.48.936-.672-.204-1.074-.895-1.582-1.352-1.09-.978-2.753-.56-3.733.442-.74.757-1.22 2.217-2.16 2.917-.59-.8-1.366-1.338-2.445-1.776-.847-.344-1.805-.62-2.663-.25-1.436.618-2.298 2.462-3.832 3.024-.82.3-1.36-.364-2-.79-.432-.285-1.494-1.446-1.837-1.385-.442.08-.807 1.325-1.055 1.675-.442.625-.97 1.2-1.775 1.31-1.457.198-2.61-1.51-4.23-1.333-1.56.17-2.014 2.12-3.353 2.854-1.213.666-2.777-.266-4.104-.188-1.67.098-2.165 2-3.73 2.52-.732.244-1.63.508-2.416.563-.614.044-1.742-.376-2.233.103-.5.485.058 1.49-.265 2.063-.312.557-1.102.56-1.753.585h-.028c.16.603.025 1.294-.612 1.746zM170.762 141.814c-.55.586-1.05.62-1.498.11.082.093.164.187.246.277.21.21.41.428.605.65.513.57.854 1.17 1.127 1.883.427 1.11-.684 2.23-1.79 1.99-1.854-.406-3.65-.567-5.546-.516.3.967.67 1.906 1.058 2.865.485 1.197-.723 2.1-1.788 1.988-1.465-.15-3.02-.52-4.492-.478-.96.03-3.388.868-3.656.522.767.98 1.443 1.875 1.945 3.02.502 1.144-.732 2.168-1.79 1.99-2.27-.382-3.952-2.09-6.32-1.86-.18.018-.34 0-.484-.03-.463 2.466-1.743 5.17-4.74 3.893-1.897-.812-4.54-4.255-6.748-3.654-.137.036-.268.054-.394.058-.02.023-.026.05-.048.073-.553.676-.987 1.438-1.475 2.158-.442 1.063-1.18 1.95-2.088 2.653-.59.453-1.465.273-1.96-.232-.587-.013-1.183-.12-1.76-.29-.407-.12-.69-.355-.875-.647-1.325.66-2.685 1.226-4.045 1.824-1.63.722-3.058 1.85-4.73 2.432-.997.348-1.94-.1-2.66-.73-.474-.42-.722-1.056-1.106-1.54-.708-.897-2.108-1.376-3.15-1.82-1.583 1.81-3.12 3.833-5.302 4.523-3.36 1.065-4.745-.937-6.555-3.313-1.362.563-2.694 1.197-3.924 2.01-1.337.883-2.554 1.643-4.136 1.958-2.497.498-5.125-1.235-7.232-2.347-1.115.49-2.194 1.057-3.195 1.745-.877.604-2.03 1.483-3.16 1.522-2.927.1-3.935-2.062-6.485-2.856-.046-.015-.084-.036-.128-.054-2.007 1.02-4.108 2.01-6.3 2.223-3.27.313-4.8-1.612-6.96-3.712-1.16.185-2.305.465-3.445.846-.96.32-1.852.81-2.853.988-2.015.36-2.926-.988-2.993-2.654-1.536.52-3.1 1.002-4.55 1.64-1.417.622-3.666 2-5.32 1.145-1.2-.62-1.498-2.135-1.66-3.338-.446-3.354-4.848-.64-6.682.088-.756.3-1.726-.197-1.945-.972-1.342-4.695-4.02-.465-6.896-1.718-.567-.247-1.015-1.088-.796-1.696-.64-.9-1.277-1.804-1.915-2.703-.128.014-.246.008-.36-.007-.5.224-.986.478-1.448.673-1.73.73-2.575-1.723-1.333-2.745.95-.564 1.443-1.398 1.48-2.504-.004-.03-.002-.06-.005-.087l-6.07.285 4.746 13.268c0 1.815 2.51 7.33 4.855 7.065.224-1.045.618-3.495 1.62-3.908.85 2.217 1.353 4.625 2.06 6.896 1.095 3.524 1.528 8.91 4.15 11.675 1.8-1.27.91-6.413 1.33-8.432.61-2.934 2.146-5.884 3.184-1.294.873 3.86 2.005 7.562 4.02 11.017.717 1.23 2.516 5.14 4.334 5.17 3.188.058.71-9.497 1.11-11.76.192-1.076 1.61-6.14 3.38-5.263 1.9.938 2.06 7.857 2.604 9.963.788 3.05 1.864 6.41 3.705 8.99.762 1.065 3 4.246 4.69 3.81 1.75-.45 1.444-4.937 1.497-6.255.154-3.873-.19-7.91.99-11.666.35-1.112.944-3.293 2.547-3.14 2.443.23 2.893 7.267 3.187 8.888.744 4.11 1.44 8.258 3.435 11.98.58 1.085 2.153 4.16 3.86 3.867 1.35-.23 1.435-4.396 1.557-5.355.56-4.414 1.162-9.9 4.11-13.492 4.938-6.02 4.92 7.135 5.036 9.555.114 2.37.454 14.723 5.578 13.236 2.023-.585 2.932-5.325 3.31-6.893 1.016-4.207 1.845-8.582 3.657-12.54 4.052-8.845 5.07 7.978 5.314 10.38.267 2.617 1.298 12.247 6.095 9.427 2.586-1.52 3.918-6.46 4.834-9.017 1.425-3.97 2.167-10.304 5.497-13.274 5.158-4.604 4.277 11.942 4.537 14.088.233 1.934.85 5.132 3.002 6.004 2.826 1.146 4.02-2.343 4.605-4.384.632-2.194 5.888-22.482 9.32-19.355 2.803 2.553-4.813 20.547 1.59 20.5 2.595-.022 4.33-5.367 5.005-7.127 2.23-5.822 4.085-11.84 7.166-17.3.473-.837 2.294-4.474 3.765-3.333 2.124 1.646-1.302 10.855-1.512 13.113-.328 3.53.56 8.283 2.965 2.635 1.55-3.637 2.438-7.512 3.393-11.328.298-1.193.454-2.952 1.145-3.94 1.397 1.218-.338 4.577 1.312 5.796.754.56 2.31.52 3.02.175l8.088-36.147-.115.006c-1.623 1.01-3.405 1.443-5.248 2.18z"/><path fill="#B28760" d="M172.76 129.202c1.075.476 1.122 1.077.14 1.802-.175.262.01.38.274.42 4.828.73-1.924 4.764-2.938 5.98-.062.074-.15.248-.02.32 1.14.62 2.512 1.334 3.59 1.955.777.446-5.007 1.853-5.283 1.908-.197.04-1.453.374-1.062.787 1.326 1.404 2.867 2.226 3.425 4.23l1.365-.72c-2.76.062-5.5-.074-8.252.188-.18.018-1.607.29-1.365.72.08.145 2.52 4.092.762 3.963-1.373-.1-2.742-.438-4.106-.61-1.75-.223-3.43-.042-5.066.575-.16.063-.85.386-.55.65.493.426.974.87 1.435 1.333 2.663 2.56-.077 2.85-1.944 1.814-.828-.46-1.8-1.176-2.746-1.32-1.027-.157-3.59.09-3.97 1.36-2.233 7.503-9.68-5.056-12.165.312-.516 1.11-1.062 5.674-3.64 4.238-.944-.524-1.858-1.245-2.995-1.264-2.373-.04-3.937.545-5.383 2.447-3.973 5.22-5.91-2.417-9.7-2.222-1.753.09-3.51.472-4.372 2.217-1.04 2.113-2.943 3.834-4.812 1.67-.812-.94-1.456-1.675-2.552-2.25-1.587-.836-3.727.39-4.934 1.297-2.097 1.583-3.82 4.19-6.898 1.63-.7-.58-1.326-1.627-2.328-1.745-2.3-.27-4.164 1.002-5.977 2.28-2.55 1.804-3.765 1.478-5.785-.806-.902-1.02-1.94-1.16-3.2-1.18-3.703-.054-5.59 4.978-9.57 1.747-1.437-1.166-1.62-3.314-3.897-3.033-1.384.174-2.566.615-3.858 1.143-3.03 1.232-3.256.602-3.568-2.453-.036-.354-.9-.163-1.068-.122-2.472.605-4.712 1.925-7.027 2.94-4.335 1.9-3.86-1.174-3.54-2.982.11-.63.007-.95-.448-1.342-1.01-.864-3.624.11-4.663.42-1.954.578-5.03.398-4.075-2.787.046-.15-.06-.205-.176-.267-3.068-1.596-5.648 1.62-8.196 2.58.438.05.876.1 1.314.148.137-1.288 2.02-6.698-1.237-6.026-.655.137-5.528 1.79-5.222.338.41-1.95 2.612-2.928 2.88-5.135.045-.385-.567-.324-.802-.287-.65.078-1.294.188-1.932.328-6.748 1.79-1.735-2.57-.194-3.918.28-.244.262-.484-.145-.537-4.03-.516-1.472-1.278.318-2.123.176-.082.402-.237.39-.457l-.013-.25c-.034-.08-.095-.135-.184-.155-.39-.73-.78-1.46-1.172-2.19.825-.634-1.113-.48-1.51-.173-1.066.817-1.15.577-1.043 1.77.035.372.597.68.953.85 1.34.642-2.024 2.04-2.224 2.16-.187.114-.65.47-.207.614 1.714.56 3.288.345 1.428 1.99-1.15 1.017-1.688 2.032-2.047 3.52-.05.216.178.288.35.306 1.833.185 1.766.185 3.604-.15 3.158-.58 2.59.062 1.1 2.06-.28.375-2.435 2.61-1.32 3.205 1.072.575 2.17.77 3.37.446.75-.2 2.984-1.526 3.573-.646.6.9-.517 3.684-.632 4.764-.06.554 1.07.242 1.314.15.69-.262 5.77-2.7 5.66-2.342-.22.742.095 2.82.263 3.36.76 2.443 4.18.708 5.518-.044 4.948-2.776 3.042.654 3.33 2.588.175 1.17 1.748 1.617 2.695 1.723 3.397.377 7.028-2.92 10.15-3.685l-1.067-.123c.18 1.746-.102 4.437 2.305 4.062 1.355-.21 2.675-.987 3.907-1.528 3.85-1.69 4.26 1.625 6.915 3.123 2.078 1.17 4.38.054 6.188-1.063 5.424-3.35 5.522 3.556 10.034 2.178 1.343-.408 2.092-.842 3.18-1.814 4.338-3.895 4.41-1.397 7.104.206 2.155 1.282 4.74.36 6.597-.927 2.147-1.49 4.286-3.34 6.462-.684.764.933 1.586 1.724 2.826 1.865 2.213.255 4.037-1.134 4.982-2.975 2.105-4.106 4.71-.764 6.81.742 1.134.812 2.257.843 3.557.78 4.02-.19 4.57-6.06 9.09-3.262 1.528.948 3.196.944 4.673-.147 1.312-.972 1.868-2.33 2.264-3.856.63-2.45 5.55 2.016 6.892 2.77 1.27.717 3.67.584 4.657-.647.545-.68 1.352-4.005 2.436-3.572 1.92.766 3.37 2.02 5.437 2.44.968.196 3.5-.6 3.242-2.01-.147-.813-.19-1.247-.772-1.922-.165-.188-2.246-1.805-1.13-1.893 2.086-.166 4.226.58 6.3.73 4.125.303 3.217-2.797 1.733-5.434l-1.364.72c2.752-.265 5.492-.126 8.252-.188.27-.008 1.5-.236 1.365-.72-.564-2.028-2.146-2.93-3.547-4.412-.354.263-.71.524-1.062.787 2.852-.584 5.514-.865 8.145-2.136.13-.063.577-.36.327-.55-.686-.583-1.432-1.075-2.238-1.478-2.28-1.312-2.73-.902-1.056-2.25 1.18-.945 2.403-1.795 3.452-2.895 2.09-2.19-2.48-1.745-.776-4.292.104-.154.12-.322-.104-.385-1.438-.396-1.477-.44-2.884-.15-.828.185-1.664 1.166-.323.89z"/><path stroke="#B28760" stroke-width="2" stroke-miterlimit="10" d="M11.928 147.354l24.636 63.028s16.306 19.41 66.234 16.752c49.93-2.66 58.604-18.393 58.604-18.393l14.23-69.104M176.426 132.084l-1.68 6.6M12.37 141.57l1.195 2.694" fill="none"/><path stroke="#B28760" stroke-width="1.5" stroke-miterlimit="10" d="M14.5 136.25c2.37.053 4.42-.154 2.77-2.712 3.19-.435 4.54.9 3.764-3 1.79-.093 3.64.02 5.428-.077.144-1.076-.185-2.187-.43-3.172 2.596-.364 3.784 1.065 5.72-.595 1.037-.89.42-1.463 1.77-1.947 1.573-.566 3.532.938 4.972.527 2.948-.84 1.443-4.055 4.727-3.36 1.412.298 2.61 2.087 4.238 1.116.795-.475 1.284-2.474 2.032-3.21 2.735 1.982 3.136 4.127 5.5 1.192 1.02-1.27.937-2.318 2.7-2.28 1.568.036 2.514 2.254 4.1 2.24 2.167-.02 2.823-3.857 4.95-3.697.97.073 1.61 2.22 2.77 2.19 1.08-.03 2.27-2.417 3.27-3.025 1.825 1.324 2.182 2.73 4.41 1.764 1.805-.784 2.122-3.162 4.062-2.47 2.07.735.893 2.333 3.292 1.463 1.643-.595 2.29-2.81 4.146-2.165 1.756.61 1.28 3.102 3.562 2.49 1.523-.41 1.645-2.93 3.512-2.546 1.312.27.637 2.153 2.737 1.54 1.186-.344 1.743-2.044 3.2-2.248.618 3.026 3.034 1.787 5.052 1.287 1.543-.383 2.084-.712 3.56-.142 1.33.513 1.69 1.852 3.372 1.848 1.555-.003 2.916-1.476 4.392-1.778 2.468-.506 1.73.46 3.477 1.53 3.165 1.935 4.286-1.167 7.212-1.75.49.744.87 1.666 1.232 2.472 1.277-.71 2.373-2.19 3.7-2.983 1.25 2.5.86 3.662 3.56 2.512.81-.343 1.427-1.768 2.563-1.492 1.257.305 1.52 2.653 2.62 3.433 2.587 1.837 3.444-.696 5.872-1.41 3.688-1.086 1.627 2.258 4.426 3.667 1.918.965 3.805-1.503 5.525-.98 2.07.632 1.647 3.648 4.488 3.23.91-.134 1.73-1.687 2.812-1.48 1.448.28.69 1.075 1.627 2.03 1.286 1.312 2.223 1.678 3.81.264.645 1.832 2.47 2.91 2.752 4.974" fill="none"/><path fill="#F7D1B7" d="M120.525 126.895c-9.084-2.845-18.575-4.097-27.96-2.658-4.01.614-7.812 1.486-11.642 2.552-3.01.32-5.935 1.405-8.87 2.093-2.457.575-10.4 1.907-10.798 5.4-.472 4.158 6.985 4.923 9.534 5.314 7.05 1.082 14.052.928 21.17.926 5.83 0 11.326-.107 17.018-1.496 4.506-1.098 9.744-1.678 13.807-3.963 1.43-.804 3.593-1.94 3.538-3.873-.072-2.57-3.81-3.672-5.798-4.295z"/></svg>