<?xml version="1.0" encoding="utf-8"?>
<!-- Generator: Adobe Illustrator 15.1.0, SVG Export Plug-In . SVG Version: 6.00 Build 0)  -->
<!DOCTYPE svg PUBLIC "-//W3C//DTD SVG 1.1//EN" "http://www.w3.org/Graphics/SVG/1.1/DTD/svg11.dtd">
<svg version="1.1" id="Layer_2" xmlns="http://www.w3.org/2000/svg" xmlns:xlink="http://www.w3.org/1999/xlink" x="0px" y="0px"
	 width="183px" height="249px" viewBox="0 0 183 249" enable-background="new 0 0 183 249" xml:space="preserve">
<ellipse fill="#E5E5E5" cx="95.807" cy="212.667" rx="81.685" ry="26.666"/>
<path fill="#E2B893" d="M12.061,147.346l23.964,62.313c0,0,18.35,20.045,65.404,17.539c47.055-2.505,59.975-18.457,59.975-18.457
	l13.576-68.186l-0.14-1.878l1.652-5.336l-2.279-4.645l-159.322,8.483l0.444,2.062l-1.939,1.824c0,0-1.006,1.49-0.351,3.288
	S12.061,147.346,12.061,147.346z"/>
<path fill="#C69977" d="M15.847,139.466c-0.169,0.119-0.286-0.121-0.344,0.174c1.403,2.602,2.692,5.854,5.095,7.715
	c1.317,1.02,3.127,1.048,4.642,1.666c2.063,0.844,4.101,1.316,6.246,1.968c4.001,1.215,8.109,2.646,12.33,2.809
	c5.035,0.192,10.074,1.418,15.14,1.437c4.859,0.017,9.769-0.226,14.16-2.162c0.961-0.425,2.121-1.156,3.171-1.306
	c1.89-0.27,4.091,0.827,5.879,1.318c7.573,2.081,14.732,4.022,22.481,2.021c1.695-0.438,3-1.121,4.194-2.395
	c0.394-0.419,0.824-1.25,1.224-1.566c0.95-0.755,2.212-0.582,3.721-0.42c4.896,0.526,10.851,1.03,15.784,0.007
	c1.8-0.372,3.396-1.529,5.132-2.197c2.139-0.824,4.259-1.048,6.549-1.058c3.488-0.016,6.65,0.826,10.062,0.957
	c2.244,0.087,6.026,0.848,7.604-1.271c0.804-1.078-0.18-2.327,0.36-3.198c0.388-0.627,2.771-1.021,3.489-1.138
	c3.068-0.497,6.627-1.615,5.683-5.486c-0.254-1.039-1.121-2.598-1.852-3.36c-1.195-1.247-2.763-0.856-4.256-1.646L15.847,139.466z"
	/>
<path fill="#BB4343" d="M76.361,60.985c0,0-11.501,3.307-14.023,11.248c-2.523,7.94-2.037,12.497,0.21,16.781
	c2.246,4.285,4.57,5.43,4.57,5.43s14.032-1.162,21.892-4.01c7.86-2.849,16.161-2.465,18.946-1.528
	c2.785,0.937,5.927,2.376,5.927,2.376s5.786-8.083,4.5-13.438c-1.287-5.355-3.071-13.773-6.797-17.914s-8.853-9.514-15.991-8.814
	s-15.237,7.974-15.237,7.974L76.361,60.985z"/>
<path fill="#CE7281" d="M166.545,119.592c2.615-9.652-2.388-11.943-2.388-11.943l-12.864-13.657l-32.66-15.3
	c-0.047,1.762-0.498,3.237-1.236,4.469c-0.171,1.765-0.548,3.473-1.35,4.932c-2.254,4.104-5.738,1.229-9.025,0.509
	c-0.296-0.065-0.526-0.193-0.708-0.356c-6.786,0.314-13.392,0.944-19.858,2.889c-1.178,0.386-2.354,0.775-3.524,1.187
	c-0.547,0.193-1.067,0.289-1.561,0.31c-4.069,1.547-8.695,2.682-12.525,1.64c-0.233,0.066-0.375,0.103-0.404,0.104l-0.103-0.236
	c-0.366-0.121-0.721-0.273-1.068-0.438c-1.396-0.238-2.669-1.082-3.387-2.678c-2.687-3.211-3.252-7.626-2.762-11.858
	c0-0.007,0-0.015-0.001-0.023c-0.021-0.489,0.032-0.932,0.121-1.352l-0.509-1.17C46.38,77.468,40.549,87.746,38.609,95.61
	c-1.938,7.864,4.744,23.656,21.906,30.953s93.801,10.203,101.54,9.794s9.142-4.621,9.142-4.621S163.93,129.244,166.545,119.592z"/>
<path fill="#CE7281" d="M108.327,147.238c0.148,0.172-13.394-10.811-28.455-23.043c-5.686-0.684-10.08-4.426-15.492-5.852
	c-5.183-1.366-11.195-2.161-15.78-5.134c-4.401-2.854-9.189-7.217-9.407-12.907c-0.094-2.445-0.297-5.957,0.796-8.488
	c-18.535,1.078-13.268,41.857-13.347,42.72C26.562,135.397,107.996,146.851,108.327,147.238z"/>
<path fill="#CE7281" d="M19.826,107.376c0,0-2.027,15.755,1.063,19.972s13.082,13.198,19.64,14.101
	c6.557,0.902,14.671,0.471,19.854,1.446c5.185,0.976,11.504,4.52,11.504,4.52s-1.744,3.338-8.231,3.312
	c-6.486-0.025-20.843-1.639-23.096-1.645c-2.254-0.005-13.602-1.654-19.808-8.834c-6.206-7.181-9.544-6.787-9.877-15.201
	C10.542,116.632,10.958,109.851,19.826,107.376z"/>
<path fill="#E88591" d="M19.764,117.63c0,0,38.66,24.734,38.646,24.732c-0.014-0.003-11.593-0.373-14.49-0.719
	c-2.897-0.347-8.631-1.203-15.994-7.178S19.3,123.127,19.764,117.63z"/>
<path fill="#F7A6B3" d="M40.757,135.929c0,0,10.106,4.475,16.197,6.024c6.091,1.551,18.15,7.042,18.15,7.042
	s14.159,4.97,21.432,2.848s10.267-4.66,10.267-4.66s-7.39-2.427-14.379-4.4c-6.99-1.973-10.138-2.306-12.562-3.178
	s-10.425-4.077-14.008-5.013s-12.107-2.234-17.639-3.316c-5.531-1.083-15.971-3.885-18.481-10.146
	c-2.512-6.261-0.682-11.866,0.505-15.434c1.188-3.568,7.703-13.773,7.703-13.773s-7.323,0.734-10.902,3.554
	c-3.578,2.819-5.415,8.299-6.655,10.869C19.144,108.914,14.504,124.433,40.757,135.929z"/>
<path fill="#F7A6B3" d="M52.162,114.43c0,0,9.549-1.457,20.107,3.268c5.963,0.713,24.983,0.593,25.361,0.627
	c0.377,0.034,47.594,5.216,47.594,5.216l14.418,0.378l6.874-5.194c0,0,7.286,1.357,7.391,4.23c0.105,2.874-3.011,9.009-4.235,10.095
	c-1.226,1.087-19.253,1.045-32.841-0.234c-13.587-1.279-23.526,0.126-32.661-4.52S78,123.438,78,123.438
	S58.019,117.637,52.162,114.43z"/>
<path fill="#E88591" d="M118.285,80.728c1.831-0.168,4.009,0.841,5.581,1.609c1.93,0.942,4.022,1.739,5.688,3.136
	c2.067,1.734,3.742,3.546,6.033,5.105c1.289,0.878,4.637,1.417,4.662,3.354c-1.881,0.919-5.401,0.903-7.482,0.803
	c-3.539-0.171-7.178-0.841-10.665-1.598c-1.126-0.244-2.226-0.608-3.328-0.89c-0.629-0.161-2.291-0.984-2.912-0.626
	c-1.219,0.703,4.106,2.856,4.949,3.091c6.175,1.719,12.728,4.192,19.192,4.361c2.438,0.064,5.651-0.594,5.484-3.519
	c-0.122-2.13-1.281-4.103-2.657-5.742c-1.749-2.085-4.201-2.679-6.497-3.906c-2.144-1.147-4.097-2.396-6.196-3.585
	c-2.123-1.203-4.671-1.679-6.685-2.836c-1.209-0.696-2.271-1.046-3.606-1.313c-1.273-0.255-2.015-0.434-2.146,1.088
	c-0.034,0.399,0.056,0.847,0.074,1.248"/>
<path fill="#E88591" d="M156.18,98.889c-1.99-3.346-8.277-6.692-10.765-7.997c2.54,1.736,8.708,7.02,6.863,9.949
	c-2.193,3.479-7.045,3.809-11.784,1.979c-0.765-0.295-1.785-0.713-2.955-1.205c-2.423-0.761-4.683-1.821-7.091-2.699
	c-0.728-0.227-1.401-0.485-2.226-0.736c-0.422-0.128-0.74-0.357-0.966-0.638c-1.676-0.575-3.369-1.103-5.001-1.802
	c-0.654-0.281-0.963-0.766-1.027-1.289c-0.911-0.458-13.125-6.547-17.569-6.31c-4.618,0.246-17.415,2.062-20.099,3.39
	c-2.683,1.328-12.506,3.354-12.506,3.354s8.09,0.696,20.794-2.86c12.704-3.555,22.668,2.548,28.773,6.73
	c6.106,4.181,18.009,11.434,23.409,11.772c0,0,9.335-0.998,10.445-1.308C154.477,109.219,158.792,103.282,156.18,98.889z"/>
<path fill="#A35F6F" d="M114.067,90.842c0,0,20.734,10.913,30.104,12.917c0,0-17.106-3.894-31.794-11.725L114.067,90.842z"/>
<path fill="#E88591" d="M60.69,87.55c-0.187-0.878-0.188,2.744-0.118,3.64c0.096,1.207,0.574,2.375,1.239,3.398
	c2.391,3.677,5.995,4.798,9.854,6.429c4.63,1.957,9.526,2.75,14.252,4.514c2.108,0.787,4.02,1.866,5.896,3.146
	c1.975,1.347,3.989,2.367,5.646,4.083c1.024,1.062,2.125,2.031,3.167,3.085c0.814,0.824,1.642,2.246,2.984,1.968
	c0,0,21.097,1.254,32.97,3.251c11.873,1.996,29.689,0.422,31.341-6.175s-2.944-10.608-2.944-10.608s-4.847-4.059-6.831-3.726
	l0.157,2.955c0,0,3.01,2.468,1.953,3.776c0,0-1.274,2.002-11.374,2.7c-10.101,0.697-9.087,3.272-19.767,3.715
	c-10.679,0.443-16.66-3.745-21.635-5.482c-4.974-1.738-18.147-4.648-22.485-6.179c-4.337-1.531-16.021-7.042-16.021-7.042
	S61.691,92.253,60.69,87.55z"/>
<path fill="#FFBDCA" d="M83.566,117.501c0,0-8.359,0.511-17.245-1.803c0,0,7.228,4.089,18.725,3.727
	c11.497-0.361,25.109,0.916,34.781,1.778s33.343,3.357,39.911,4.51s11.871,1.996,13.519,0.031c1.647-1.966,0.42-1.524,0.42-1.524
	s-3.128,1.794-9.347,0.497c-6.218-1.296-18.038-2.294-18.038-2.294s-21.348-3.62-34.152-4.315
	c-12.806-0.695-22.479-1.336-22.479-1.336L83.566,117.501z"/>
<path fill="#FFBDCA" d="M139.519,143.312c0.395-0.021-4.029-0.912-18.621-2.013s-25.752-8.518-35.825-11.987
	c0,0,14.104,8.638,24.053,12.113s22.839,3.416,22.839,3.416S136.522,143.472,139.519,143.312z"/>
<path fill="#FFBDCA" d="M20.59,107.853c0,0-3.786,17.459,20.167,28.076c0,0-16.067-5.779-21.271-15.016L20.59,107.853z"/>
<path fill="#F7A6B3" d="M10.64,118.663c0,0,1.733,15.897,13.248,22.92s20.417,7.3,20.417,7.3s-13.071,0.326-21.774-5.097
	S9.643,126.009,10.64,118.663z"/>
<path fill="#F7A6B3" d="M42.165,108.69c0,0,5.65,14.435,32.284,23.298c26.634,8.864,28.312,14.533,36.499,15.475
	c8.187,0.94,12.029,0.245,15.583-1.206c3.554-1.45,9.381-3.128,13.717-2.482s15.145,1.446,17.601,0.565
	c2.457-0.883,5.609-2.803,5.704-8.065c0,0-18.192-0.783-28.231-1.251c-10.039-0.467-22.35,1.065-36.511-3.938
	c-14.161-5.005-23.466-8.139-30.589-10.264C61.099,118.697,44.229,112.21,42.165,108.69z"/>
<path fill="#CE7281" d="M59.609,78.97c0,0-5.881,6.009-7.646,12.205s-1.795,11.831,7.565,14.086s17.329,6.264,19.645,8.556
	c2.316,2.292,5.245,3.233,5.245,3.233l19.192,0.761c0,0-7.492-9.055-16.424-12.24c-8.932-3.185-25.037-3.955-26.367-16.401
	C59.489,76.724,59.609,78.97,59.609,78.97z"/>
<path fill="#FFBDCA" d="M74.449,131.988c-0.688-0.298,20.838,6.321,34.844,15.2l-7.063-1.39
	C102.229,145.799,82.348,135.399,74.449,131.988z"/>
<path fill="#F7A6B3" d="M104.465,117.39c0,0-8.25-9.454-19.315-12.475c0,0,9.187,3.627,16.705,12.99L104.465,117.39z"/>
<path fill="#F7A6B3" d="M118.256,80.166c2.217,0.391,4.346,1.428,6.385,2.369c1.923,0.887,3.807,1.741,5.54,3.001
	c2.24,1.629,4.692,2.9,7.012,4.433c0.949,0.627,4.575,3.06,2.706,4.364c-0.795,0.554-2.359,0.656-3.323,0.756
	c-1.153,0.12-2.54,0.115-3.568-0.359c1.065-0.101,5.792-0.409,3.808-2.526c-0.657-0.7-1.661-1.263-2.432-1.876
	c-1.214-0.966-2.603-1.74-3.791-2.74c-0.947-0.797-2.016-1.557-3.062-2.219c-1.181-0.747-2.551-0.973-3.805-1.552
	c-0.713-0.33-5.831-1.623-5.718-2.448"/>
<path fill="#A35F6F" d="M88.537,102.716c3.362-1.145,7.041-0.863,10.55-1.062c5.087-0.289,9.904,0.358,14.745,1.935
	c3.832,1.249,6.855,3.25,9.977,5.64c1.554,1.189,3.686,2.44,5.527,2.707c0,0-9.039,0.049-14.923-1.638
	C108.528,108.61,88.537,102.716,88.537,102.716z"/>
<path fill="#A35F6F" d="M55.32,84.347c0.325-0.465-9.6,6.503-6.513,15.102s16.18,7.65,17.435,7.709
	c1.255,0.058-8.857-1.782-12.525-4.841C50.049,99.257,49.908,92.077,55.32,84.347z"/>
<path fill="#A35F6F" d="M19.554,123.413c0,0-3.073,6.006,5.261,12.071c8.335,6.065,14.354,9.416,23.49,8.596
	c9.137-0.819,19.811,5.301,19.811,5.301l4.325-1.996c0,0-11.013-4.487-15.459-4.926c-4.447-0.439-15.433-0.273-18.354-1.66
	c-2.922-1.388-13.021-8.32-13.021-8.32S19.89,127.066,19.554,123.413z"/>
<path fill="#9E3838" d="M74.283,67.758c0.829-2.356,4.574-4.281,6.541-5.689c2.246-1.608,5.075-3.179,8.021-2.931
	c2.323,0.196,1.285,0.961-0.017,2.212c-0.994,0.955-1.938,1.641-3.079,2.33c-2.021,1.221-3.912,2.573-6.164,3.291
	c-1.574,0.502-3.269,0.58-4.785,1.094"/>
<path fill="#9E3838" d="M61.281,77.463c0.296-2.473,1.338,5.953,2.335,7.085c2.183,2.481,5.343,3.758,8.596,4.02
	c4.568,0.368,8.237-0.515,12.45-2.132c2.816-1.082,5.877-1.19,8.895-1.512c2.752-0.294,6.96,0.424,8.026,3.412
	c0,0-7.704,1.325-16.677,3.391c-8.974,2.067-16.568,2.411-16.568,2.411S59.434,92.917,61.281,77.463z"/>
<path fill="#D15252" d="M74.477,68.248c-2.905,0.054-6.617,0.988-7.837,4.043c-0.985,2.469,1.385,5.206,3.382,6.417
	c5.703,3.457,11.342,0.956,16.963-1.241c2.961-1.157,5.682-2.055,8.852-2.345c2.6-0.237,5.818,0.209,8.179-0.765
	c5.951-2.454,4.925-10.169,1.37-14.064c-2.145-2.35-4.695-4.074-7.722-4.755c-2.147-0.483-7.048,0.213-7.161,3.345
	c0,0-0.954,4.049-6.348,6.18C78.761,67.193,74.477,68.248,74.477,68.248z"/>
<path fill="#51604A" d="M78.513,67.251c0,0,1.057-4.449-3.736-7.865s-8.508-7.392-14.672-16.577
	c-6.164-9.186-13.38-27.177-13.38-27.177s-2.243-3.335-0.035-3.97c2.209-0.635,3.322,1.475,5.366,5.372
	c2.043,3.897,10.86,25.625,10.86,25.625s6.963,10.667,13.215,13.995c6.251,3.328,11.409,6.174,11.409,6.174
	S82.549,66.254,78.513,67.251z"/>
<path fill="#657A5A" d="M48.031,16.081L62.916,42.66c0,0-11.278-25.77-11.46-26.762s-1.588-5.52-3.662-4.272
	C45.72,12.873,48.031,16.081,48.031,16.081z"/>
<path fill="#44543B" d="M78.057,63.384c-0.031-0.197-0.365-0.227-0.034-0.352c1.198,0.4,9.38-2.132,8.727,0.395
	c-0.212,0.819-3.353,2.003-4.056,2.339c-1.361,0.651-2.94,0.798-4.284,1.25c-0.321-0.863-0.491-1.924-0.975-2.764"/>
<path fill="#EFC5A5" d="M170.391,141.815c-0.55,0.585-1.049,0.621-1.498,0.11c0.082,0.092,0.164,0.186,0.246,0.278
	c0.209,0.21,0.411,0.427,0.605,0.65c0.513,0.571,0.854,1.171,1.127,1.884c0.427,1.109-0.683,2.231-1.789,1.989
	c-1.855-0.405-3.652-0.568-5.547-0.515c0.301,0.967,0.67,1.906,1.058,2.865c0.485,1.198-0.723,2.101-1.788,1.989
	c-1.465-0.15-3.02-0.522-4.492-0.477c-0.961,0.03-3.388,0.868-3.657,0.524c0.766,0.979,1.443,1.875,1.945,3.021
	c0.502,1.143-0.733,2.167-1.789,1.989c-2.27-0.381-3.953-2.088-6.323-1.861c-0.178,0.018-0.336,0.001-0.483-0.03
	c-0.462,2.466-1.742,5.172-4.74,3.892c-1.898-0.811-4.539-4.255-6.748-3.654c-0.136,0.036-0.267,0.052-0.393,0.056
	c-0.017,0.024-0.028,0.05-0.048,0.073c-0.551,0.676-0.987,1.438-1.473,2.159c-0.444,1.062-1.18,1.949-2.088,2.652
	c-0.589,0.455-1.465,0.274-1.959-0.232c-0.588-0.014-1.184-0.123-1.76-0.292c-0.408-0.119-0.691-0.356-0.876-0.645
	c-1.325,0.66-2.685,1.225-4.045,1.825c-1.629,0.72-3.057,1.847-4.729,2.43c-0.998,0.349-1.942-0.098-2.661-0.73
	c-0.474-0.419-0.723-1.054-1.108-1.54c-0.709-0.896-2.111-1.375-3.153-1.818c-1.582,1.809-3.119,3.831-5.3,4.522
	c-3.363,1.066-4.745-0.936-6.555-3.313c-1.362,0.563-2.694,1.197-3.923,2.009c-1.336,0.883-2.553,1.643-4.134,1.958
	c-2.497,0.498-5.126-1.235-7.234-2.346c-1.115,0.488-2.194,1.055-3.195,1.744c-0.877,0.604-2.031,1.484-3.161,1.523
	c-2.926,0.099-3.934-2.062-6.484-2.857c-0.046-0.015-0.084-0.037-0.128-0.054c-2.007,1.021-4.108,2.009-6.3,2.221
	c-3.271,0.316-4.799-1.611-6.96-3.71c-1.161,0.184-2.305,0.464-3.445,0.845c-0.958,0.321-1.851,0.81-2.852,0.989
	c-2.015,0.361-2.926-0.989-2.993-2.655c-1.536,0.522-3.099,1.002-4.549,1.639c-1.418,0.623-3.667,2-5.32,1.146
	c-1.201-0.62-1.499-2.135-1.66-3.338c-0.447-3.353-4.849-0.638-6.683,0.088c-0.756,0.3-1.726-0.197-1.945-0.971
	c-1.342-4.697-4.019-0.465-6.896-1.718c-0.568-0.247-1.016-1.088-0.797-1.697c-0.64-0.901-1.277-1.803-1.915-2.704
	c-0.127,0.014-0.245,0.009-0.358-0.005c-0.501,0.223-0.987,0.476-1.449,0.671c-1.73,0.734-2.575-1.72-1.333-2.743
	c0.95-0.565,1.444-1.399,1.482-2.505c-0.005-0.03-0.003-0.058-0.006-0.087l-6.071,0.286l4.747,13.266
	c-0.002,1.817,2.51,7.33,4.854,7.067c0.224-1.046,0.618-3.496,1.619-3.911c0.852,2.217,1.354,4.625,2.061,6.896
	c1.095,3.524,1.528,8.91,4.151,11.675c1.799-1.27,0.909-6.413,1.329-8.432c0.609-2.933,2.146-5.885,3.184-1.295
	c0.874,3.862,2.006,7.562,4.022,11.017c0.716,1.229,2.515,5.139,4.333,5.171c3.188,0.056,0.709-9.498,1.11-11.761
	c0.192-1.076,1.611-6.139,3.38-5.263c1.9,0.94,2.06,7.859,2.604,9.963c0.788,3.051,1.864,6.41,3.705,8.99
	c0.762,1.067,3,4.246,4.69,3.811c1.749-0.451,1.444-4.938,1.497-6.256c0.154-3.873-0.189-7.91,0.989-11.666
	c0.35-1.112,0.945-3.293,2.548-3.14c2.443,0.232,2.893,7.267,3.187,8.889c0.744,4.108,1.439,8.257,3.435,11.979
	c0.582,1.086,2.154,4.163,3.862,3.869c1.349-0.23,1.434-4.398,1.556-5.357c0.561-4.414,1.162-9.901,4.109-13.492
	c4.939-6.019,4.92,7.135,5.037,9.555c0.114,2.371,0.454,14.722,5.578,13.236c2.022-0.585,2.931-5.326,3.309-6.892
	c1.016-4.207,1.845-8.582,3.658-12.542c4.051-8.843,5.07,7.979,5.314,10.381c0.267,2.617,1.297,12.246,6.094,9.427
	c2.587-1.521,3.918-6.461,4.835-9.017c1.424-3.969,2.167-10.303,5.497-13.274c5.159-4.604,4.278,11.942,4.537,14.087
	c0.234,1.933,0.849,5.131,3.002,6.003c2.827,1.146,4.021-2.342,4.606-4.384c0.631-2.194,5.887-22.482,9.318-19.355
	c2.804,2.553-4.812,20.547,1.593,20.499c2.593-0.02,4.33-5.367,5.003-7.126c2.231-5.823,4.085-11.841,7.166-17.301
	c0.472-0.836,2.293-4.472,3.764-3.332c2.124,1.647-1.302,10.856-1.512,13.114c-0.328,3.53,0.561,8.282,2.965,2.634
	c1.548-3.636,2.438-7.512,3.392-11.328c0.298-1.193,0.454-2.952,1.143-3.939c1.399,1.217-0.338,4.576,1.311,5.794
	c0.754,0.557,2.309,0.518,3.018,0.174l8.089-36.148l-0.115,0.005C174.016,140.645,172.235,141.077,170.391,141.815z"/>
<g>
	<g>
		<path fill="#B28760" d="M172.759,129.202c1.076,0.476,1.123,1.077,0.141,1.802c-0.175,0.261,0.009,0.381,0.274,0.421
			c4.828,0.728-1.924,4.762-2.938,5.98c-0.062,0.073-0.149,0.248-0.019,0.319c1.141,0.622,2.511,1.334,3.59,1.956
			c0.778,0.448-5.006,1.854-5.284,1.91c-0.197,0.041-1.452,0.374-1.062,0.787c1.325,1.404,2.866,2.225,3.424,4.229
			c0.455-0.239,0.91-0.479,1.365-0.719c-2.76,0.063-5.5-0.074-8.252,0.189c-0.179,0.018-1.607,0.289-1.365,0.719
			c0.081,0.146,2.521,4.092,0.762,3.964c-1.373-0.101-2.742-0.438-4.108-0.611c-1.75-0.222-3.427-0.042-5.067,0.575
			c-0.159,0.061-0.847,0.384-0.549,0.649c0.494,0.427,0.973,0.872,1.434,1.334c2.664,2.56-0.075,2.849-1.943,1.815
			c-0.828-0.458-1.8-1.175-2.746-1.32c-1.028-0.158-3.591,0.089-3.969,1.36c-2.234,7.504-9.68-5.055-12.166,0.313
			c-0.516,1.113-1.062,5.675-3.639,4.24c-0.945-0.525-1.859-1.246-2.996-1.265c-2.372-0.04-3.935,0.546-5.383,2.449
			c-3.971,5.217-5.91-2.418-9.698-2.223c-1.755,0.091-3.513,0.472-4.373,2.217c-1.042,2.114-2.944,3.834-4.812,1.669
			c-0.811-0.938-1.456-1.674-2.552-2.25c-1.588-0.835-3.726,0.388-4.933,1.298c-2.097,1.583-3.821,4.19-6.9,1.629
			c-0.699-0.582-1.326-1.627-2.328-1.746c-2.3-0.271-4.164,1.002-5.977,2.282c-2.55,1.802-3.765,1.476-5.785-0.806
			c-0.902-1.02-1.939-1.162-3.2-1.181c-3.703-0.052-5.591,4.98-9.571,1.748c-1.436-1.166-1.619-3.315-3.896-3.032
			c-1.385,0.172-2.567,0.615-3.859,1.141c-3.03,1.233-3.256,0.6-3.568-2.453c-0.036-0.354-0.901-0.163-1.068-0.122
			c-2.472,0.605-4.712,1.923-7.027,2.939c-4.334,1.902-3.86-1.171-3.54-2.981c0.111-0.631,0.008-0.952-0.447-1.342
			c-1.01-0.864-3.624,0.112-4.663,0.42c-1.953,0.578-5.028,0.399-4.074-2.787c0.046-0.153-0.061-0.207-0.176-0.268
			c-3.067-1.594-5.647,1.62-8.195,2.58c0.438,0.051,0.876,0.101,1.314,0.15c0.137-1.289,2.02-6.7-1.237-6.028
			c-0.656,0.136-5.529,1.792-5.223,0.337c0.41-1.95,2.612-2.927,2.879-5.133c0.046-0.385-0.566-0.326-0.801-0.288
			c-0.649,0.079-1.294,0.188-1.932,0.328c-6.748,1.792-1.735-2.571-0.194-3.917c0.28-0.244,0.262-0.486-0.145-0.538
			c-4.031-0.515-1.472-1.279,0.318-2.122c0.176-0.082,0.402-0.239,0.391-0.457c-0.005-0.083-0.009-0.167-0.014-0.25
			c-0.034-0.082-0.095-0.135-0.184-0.157c-0.391-0.73-0.781-1.461-1.172-2.191c0.825-0.633-1.113-0.478-1.51-0.172
			c-1.066,0.817-1.15,0.577-1.043,1.767c0.034,0.373,0.596,0.681,0.952,0.852c1.341,0.641-2.024,2.038-2.224,2.159
			c-0.186,0.114-0.648,0.469-0.206,0.614c1.714,0.562,3.288,0.346,1.428,1.991c-1.151,1.017-1.689,2.034-2.048,3.523
			c-0.051,0.215,0.178,0.287,0.349,0.304c1.834,0.185,1.767,0.184,3.605-0.152c3.158-0.578,2.589,0.065,1.1,2.06
			c-0.281,0.376-2.435,2.61-1.32,3.206c1.072,0.574,2.169,0.767,3.37,0.445c0.75-0.201,2.984-1.526,3.573-0.646
			c0.601,0.899-0.517,3.684-0.632,4.763c-0.059,0.553,1.071,0.242,1.314,0.15c0.69-0.261,5.769-2.699,5.661-2.341
			c-0.222,0.742,0.094,2.82,0.262,3.361c0.761,2.444,4.18,0.708,5.518-0.044c4.948-2.777,3.042,0.655,3.33,2.587
			c0.175,1.171,1.748,1.617,2.695,1.723c3.397,0.378,7.028-2.919,10.151-3.684c-0.356-0.041-0.713-0.081-1.068-0.122
			c0.179,1.745-0.103,4.436,2.304,4.062c1.355-0.21,2.675-0.988,3.907-1.529c3.849-1.69,4.259,1.624,6.915,3.122
			c2.078,1.173,4.381,0.056,6.188-1.061c5.424-3.349,5.522,3.556,10.034,2.178c1.344-0.41,2.093-0.842,3.18-1.816
			c4.339-3.894,4.412-1.398,7.105,0.206c2.155,1.283,4.741,0.362,6.598-0.926c2.145-1.49,4.286-3.338,6.461-0.683
			c0.763,0.933,1.585,1.724,2.827,1.866c2.212,0.253,4.037-1.134,4.982-2.975c2.106-4.106,4.71-0.764,6.81,0.742
			c1.133,0.812,2.257,0.843,3.555,0.781c4.019-0.192,4.571-6.061,9.089-3.262c1.53,0.948,3.197,0.945,4.674-0.148
			c1.312-0.972,1.868-2.33,2.262-3.857c0.631-2.45,5.551,2.015,6.892,2.771c1.27,0.716,3.671,0.583,4.658-0.649
			c0.544-0.68,1.351-4.004,2.435-3.573c1.922,0.766,3.372,2.023,5.437,2.442c0.967,0.196,3.501-0.601,3.243-2.01
			c-0.148-0.815-0.188-1.247-0.771-1.922c-0.165-0.19-2.246-1.804-1.131-1.893c2.087-0.166,4.227,0.581,6.302,0.732
			c4.124,0.302,3.216-2.798,1.732-5.434c-0.455,0.239-0.91,0.479-1.365,0.719c2.752-0.265,5.492-0.126,8.252-0.189
			c0.27-0.007,1.5-0.235,1.365-0.719c-0.564-2.029-2.146-2.929-3.547-4.412c-0.354,0.262-0.708,0.524-1.062,0.787
			c2.851-0.584,5.514-0.865,8.145-2.136c0.131-0.063,0.578-0.361,0.328-0.549c-0.686-0.584-1.432-1.076-2.238-1.477
			c-2.281-1.314-2.731-0.903-1.056-2.249c1.181-0.948,2.404-1.796,3.453-2.896c2.09-2.191-2.482-1.747-0.776-4.293
			c0.104-0.155,0.118-0.323-0.104-0.385c-1.437-0.396-1.477-0.44-2.884-0.151C172.254,128.498,171.418,129.478,172.759,129.202
			L172.759,129.202z"/>
	</g>
</g>
<g>
	<g>
		<path fill="#682525" d="M82.131,59.097c4.379-4.603,10.035-7.833,16.567-7.111c5.561,0.615,9.992,5.983,12.998,10.244
			c5.475,7.759,7.309,21.263,1.097,29.079c-0.772,0.971,1.054,1.342,1.629,0.618c8.216-10.336,3.524-26.255-4.598-35.05
			c-8.884-9.621-20.84-7.313-29.322,1.603C79.655,59.368,81.505,59.755,82.131,59.097L82.131,59.097z"/>
	</g>
</g>
<g>
	<g>
		<path fill="#682525" d="M69.237,94.532c-7.03-2.874-8.4-10.619-7.625-17.426c0.997-8.765,7.569-12.757,15.142-15.682
			c1.256-0.485,0.117-1.228-0.785-0.879c-7.825,3.022-14.289,6.912-16.109,15.629c-1.527,7.307,0.372,16.28,7.853,19.336
			C68.333,95.765,70.085,94.878,69.237,94.532L69.237,94.532z"/>
	</g>
</g>
<g>
	<g>
		<path fill="#5B373E" d="M58.741,79.066c-5.913,4.316-10.991,15.218-7.304,22.221c2.054,3.9,8.83,4.821,12.658,5.821
			c7.429,1.94,13.438,6.789,19.931,10.636c0.456,0.271,2-0.53,1.826-0.633c-5.131-3.041-9.927-6.583-15.366-9.079
			c-5.167-2.371-11.311-2.414-15.968-5.898c-6.97-5.214,0.881-19.554,5.959-23.261C60.838,78.61,59.094,78.809,58.741,79.066
			L58.741,79.066z"/>
	</g>
</g>
<g>
	<g>
		<path fill="#5B373E" d="M67.563,95.346c8.74,3.172,16.988,7.518,26.151,9.42c9.648,2.003,18.668,6.402,28.45,7.761
			c8.512,1.182,17.193-1.397,25.614-2.201c5.361-0.512,11.369-0.982,15.786-4.38c0.396-0.305-1.386-0.113-1.744,0.162
			c-5.729,4.408-15.897,3.599-22.832,4.726c-9.312,1.514-17.356,1.171-26.315-1.7c-6.948-2.227-13.738-4.139-20.816-5.881
			c-7.776-1.914-14.969-5.833-22.472-8.556C68.851,94.503,67.418,95.293,67.563,95.346L67.563,95.346z"/>
	</g>
</g>
<g>
	<g>
		<path fill="#5B373E" d="M117.593,78.232c9.915,2.432,18.527,8.754,27.598,13.249c6.66,3.3,15.521,8.443,10.912,17.013
			c-0.169,0.314,1.64,0.177,1.91-0.325c4.258-7.917-2.731-12.977-9.149-16.412c-9.479-5.074-19.187-11.724-29.69-14.3
			C118.705,77.341,117,78.087,117.593,78.232L117.593,78.232z"/>
	</g>
</g>
<g>
	<g>
		<path fill="#5B373E" d="M157.548,101.021c5.758,0.775,9.05,6.156,10.023,11.467c1.016,5.544-4.611,8.56-8.536,10.958
			c-1.114,0.682,0.589,0.904,1.189,0.537c3.85-2.353,9.703-5.436,9.355-10.809c-0.395-6.11-4.472-12.315-10.841-13.173
			C158.154,99.923,156.466,100.876,157.548,101.021L157.548,101.021z"/>
	</g>
</g>
<g>
	<g>
		<path fill="#5B373E" d="M59.896,76.293c-6.898,0.181-13.499,3.329-17.462,9.132c-4.276,6.261-6.973,15.714-1.659,22.248
			c4.939,6.075,12.692,8.805,19.905,11.15c11.775,3.83,23.726,7.135,35.174,11.899c10.502,4.37,22.2,4.818,33.416,4.531
			c7.04-0.18,14.047,0.597,21.056,1.14c4.288,0.333,9.789,1.245,14.022,0.06c8.813-2.467,16.695-18.019,2.702-17.797
			c-0.565,0.009-2.104,0.88-0.814,0.86c6.908-0.109,8.109,5.011,5.222,10.27c-4.969,9.046-17.186,5.995-25.689,5.281
			c-9.299-0.78-18.54-0.303-27.837-0.822c-9.88-0.552-18.316-3.643-27.45-7.06c-13.952-5.219-30.397-7.43-43.01-15.692
			c-15.075-9.876-5.266-33.897,11.61-34.338C59.646,77.139,61.186,76.26,59.896,76.293L59.896,76.293z"/>
	</g>
</g>
<g>
	<g>
		<path fill="#5B373E" d="M39.085,90.953c-5.737,1.487-9.693,1.425-14.298,5.531c-3.786,3.378-5.675,8.125-6.198,13.07
			c-0.59,5.563-0.669,11.873,1.309,17.165c1.986,5.316,8.386,9.401,12.971,12.169c4.956,2.991,9.984,4.17,15.742,4.009
			c4.998-0.14,9.338-0.19,14.123,1.477c3.605,1.256,7.021,3.05,10.569,4.454c10.803,4.277,23.462,6.472,33.402-0.829
			c1.059-0.777-0.533-1.34-1.262-0.805c-10.204,7.494-23.318,3.696-33.991-0.828c-4.573-1.938-8.938-4.077-13.891-4.844
			c-6.141-0.95-12,0.886-18.094-1.231c-5.487-1.906-10.628-5.791-14.652-9.885c-4.199-4.271-4.565-9.787-4.489-15.477
			c0.067-5.002,0.354-9.623,2.879-14.075c1.817-3.206,5.271-6.202,8.726-7.363c2.336-0.785,5.065-0.676,7.484-1.303
			C40.604,91.88,40.271,90.646,39.085,90.953L39.085,90.953z"/>
	</g>
</g>
<path fill="none" stroke="#5B373E" stroke-miterlimit="10" d="M37.941,91.922c-5.396,6.797-13.485,22.718-7.028,31.137
	c6.746,9.154,26.494,8.604,36.693,12.066c5.848,1.691,11.29,5.156,17.099,6.099c6.32,1.166,12.182,3.107,18.28,4.785
	c5.599,1.705,10.618,1.938,16.359,1.633c6.241-0.333,11.587-3.371,17.565-3.939c7.227-0.636,26.875,6.329,26.643-7.428"/>
<path fill="none" stroke="#5B373E" stroke-miterlimit="10" d="M19.064,107.417c-12.31,3.91-9.133,21.265-3.964,29.001
	c8.431,12.569,21.925,12.102,35.262,13.395c5.782,0.443,16.413,2.631,21.443-1.643"/>
<g>
	<g>
		<path fill="#5B373E" d="M84.851,118.122c5.8-0.612,11.625,0.188,17.422,0.513c6.17,0.345,12.25,0.454,18.401,1.138
			c12.6,1.401,25.428,4.104,38.105,4.41c0.915,0.022,1.982-1.35,0.676-1.381c-12.667-0.307-25.523-2.96-38.106-4.41
			c-6.766-0.78-13.485-0.863-20.276-1.243c-5.36-0.3-10.679-0.981-16.044-0.415C83.962,116.847,83.531,118.261,84.851,118.122
			L84.851,118.122z"/>
	</g>
</g>
<g>
	<g>
		<path fill="#5B373E" d="M67.593,94.767c14.837,1.27,31.406-11.049,45.272-2.583c0.743,0.454,2.427-0.556,1.484-1.132
			c-14.592-8.909-30.761,3.594-46.097,2.282C67.291,93.251,66.285,94.655,67.593,94.767L67.593,94.767z"/>
	</g>
</g>
<g>
	<g>
		<path fill="#3B4933" d="M47.383,14.322c-0.504-0.743-0.797-1.767,0.004-2.419c0.071-0.059-0.643,0.077-0.228,0.088
			c0.189,0.005,0.387,0.093,0.556,0.171c0.538,0.248,0.902,0.729,1.165,1.243c0.229,0.448,2.067-0.252,1.932-0.518
			c-0.854-1.672-2.477-1.894-4.142-1.35c-1.576,0.516-2.174,1.894-1.219,3.302C45.758,15.292,47.51,14.509,47.383,14.322
			L47.383,14.322z"/>
	</g>
</g>
<g>
	<g>
		<path fill="#3B4933" d="M45.188,14.603c4.71,10.649,9.021,21.227,15.265,31.103c2.894,4.577,6.31,8.894,10.981,11.757
			c4.279,2.622,5.819,4.679,6.097,9.746c0.03,0.553,1.97,0.173,1.932-0.518c-0.158-2.898-0.45-5.464-2.612-7.528
			c-1.411-1.347-3.521-2.365-5.119-3.414c-2.687-1.764-4.819-4.319-6.77-6.83c-8.06-10.378-12.584-22.947-17.842-34.833
			C46.845,13.463,44.955,14.076,45.188,14.603L45.188,14.603z"/>
	</g>
</g>
<g>
	<g>
		<path fill="#3B4933" d="M49.116,13.142c5.017,10.436,8.428,21.947,14.304,31.936c4.927,8.375,14.187,15.097,23.512,17.919
			c0.626,0.189,2.273-0.736,1.178-1.067C77.746,58.793,68.65,51.22,63.832,41.665c-4.758-9.438-8.204-19.512-12.784-29.041
			C50.721,11.943,48.834,12.554,49.116,13.142L49.116,13.142z"/>
	</g>
</g>
<g>
	<g>
		<path fill="#682525" d="M90.659,58.445c-3.646,5.338-9.95,8.427-16.222,9.392c-0.965,0.148-1.564,1.377-0.236,1.173
			c7.047-1.084,14.164-4.456,18.271-10.47C93.007,57.756,91.047,57.876,90.659,58.445L90.659,58.445z"/>
	</g>
</g>
<path fill="none" stroke="#B28760" stroke-width="2" stroke-miterlimit="10" d="M11.928,147.353l24.636,63.029
	c0,0,16.306,19.41,66.234,16.752c49.93-2.659,58.605-18.393,58.605-18.393l14.23-69.105"/>
<line fill="none" stroke="#B28760" stroke-width="2" stroke-miterlimit="10" x1="176.426" y1="132.084" x2="174.745" y2="138.683"/>
<line fill="none" stroke="#B28760" stroke-width="2" stroke-miterlimit="10" x1="12.371" y1="141.57" x2="13.565" y2="144.264"/>
</svg>
