<?xml version="1.0" encoding="utf-8"?>
<!-- Generator: Adobe Illustrator 15.1.0, SVG Export Plug-In . SVG Version: 6.00 Build 0)  -->
<!DOCTYPE svg PUBLIC "-//W3C//DTD SVG 1.1//EN" "http://www.w3.org/Graphics/SVG/1.1/DTD/svg11.dtd">
<svg version="1.1" id="Layer_18" xmlns="http://www.w3.org/2000/svg" xmlns:xlink="http://www.w3.org/1999/xlink" x="0px" y="0px"
	 width="299.37px" height="212px" viewBox="0 0 299.37 212" enable-background="new 0 0 299.37 212" xml:space="preserve">
<circle fill="#EAB978" cx="248.618" cy="105.723" r="50.752"/>
<circle fill="#9BC9C7" cx="106" cy="106" r="106"/>
<g enable-background="new    ">
	<path fill="#608985" d="M72.904,98.695h1.89c0.195,0,0.358,0.045,0.491,0.135c0.132,0.09,0.219,0.21,0.259,0.36l1.688,6.135
		c0.04,0.175,0.081,0.36,0.124,0.555c0.042,0.195,0.084,0.403,0.124,0.623c0.045-0.22,0.092-0.429,0.142-0.626
		c0.05-0.198,0.105-0.381,0.165-0.551l1.965-6.135c0.04-0.125,0.126-0.239,0.259-0.341c0.132-0.102,0.293-0.153,0.483-0.153h0.66
		c0.195,0,0.354,0.046,0.476,0.139c0.123,0.092,0.214,0.211,0.274,0.356l1.958,6.135c0.055,0.16,0.109,0.335,0.161,0.525
		c0.053,0.19,0.099,0.39,0.139,0.6c0.04-0.21,0.08-0.41,0.12-0.6s0.08-0.365,0.12-0.525l1.688-6.135
		c0.035-0.13,0.12-0.245,0.255-0.345c0.135-0.1,0.297-0.15,0.488-0.15h1.77l-3.375,10.882h-2.033l-2.228-7.118
		c-0.04-0.1-0.076-0.21-0.109-0.33c-0.032-0.12-0.063-0.245-0.094-0.375c-0.035,0.13-0.069,0.255-0.101,0.375
		c-0.033,0.12-0.066,0.23-0.101,0.33l-2.25,7.118h-2.04L72.904,98.695z"/>
	<path fill="#608985" d="M96.754,98.695v1.762h-4.665v2.797h3.63v1.703h-3.63v2.857h4.665v1.763h-6.93V98.695H96.754z"/>
	<path fill="#608985" d="M98.434,109.578V98.695h3.862c0.73,0,1.354,0.068,1.871,0.206c0.518,0.138,0.94,0.333,1.268,0.585
		c0.328,0.252,0.566,0.559,0.716,0.919c0.15,0.36,0.225,0.762,0.225,1.208c0,0.25-0.036,0.49-0.109,0.72
		c-0.072,0.23-0.185,0.446-0.337,0.649s-0.349,0.386-0.589,0.551c-0.24,0.165-0.525,0.305-0.855,0.42
		c1.45,0.34,2.175,1.138,2.175,2.393c0,0.46-0.089,0.888-0.267,1.282c-0.177,0.395-0.436,0.738-0.776,1.028
		c-0.34,0.29-0.759,0.516-1.256,0.679s-1.069,0.244-1.714,0.244H98.434z M100.684,103.345h1.478c0.315,0,0.595-0.026,0.84-0.079
		c0.245-0.053,0.45-0.136,0.615-0.251c0.165-0.115,0.291-0.266,0.378-0.454s0.131-0.414,0.131-0.679c0-0.27-0.036-0.5-0.109-0.69
		c-0.072-0.19-0.184-0.342-0.333-0.458c-0.15-0.115-0.34-0.199-0.57-0.251c-0.23-0.053-0.502-0.079-0.817-0.079h-1.612V103.345z
		 M100.684,104.875v2.978h1.927c0.36,0,0.656-0.043,0.889-0.131c0.233-0.087,0.419-0.204,0.559-0.349
		c0.14-0.145,0.237-0.311,0.292-0.499c0.055-0.188,0.083-0.381,0.083-0.582c0-0.22-0.033-0.417-0.098-0.592s-0.17-0.324-0.315-0.446
		s-0.334-0.216-0.566-0.281s-0.519-0.098-0.858-0.098H100.684z"/>
	<path fill="#608985" d="M114.282,100.78c-0.07,0.115-0.142,0.199-0.214,0.251c-0.073,0.053-0.167,0.079-0.281,0.079
		c-0.11,0-0.229-0.039-0.356-0.116c-0.127-0.077-0.276-0.161-0.446-0.251s-0.365-0.174-0.585-0.251
		c-0.22-0.077-0.478-0.116-0.772-0.116c-0.52,0-0.91,0.116-1.17,0.349c-0.26,0.233-0.39,0.537-0.39,0.912
		c0,0.24,0.071,0.438,0.214,0.596c0.143,0.157,0.33,0.294,0.562,0.409c0.232,0.115,0.496,0.217,0.792,0.308
		c0.295,0.09,0.597,0.188,0.907,0.296c0.31,0.108,0.612,0.234,0.908,0.379c0.295,0.145,0.559,0.328,0.791,0.547
		c0.232,0.22,0.42,0.489,0.562,0.807c0.143,0.317,0.214,0.704,0.214,1.159c0,0.495-0.086,0.958-0.259,1.391s-0.421,0.81-0.746,1.132
		c-0.325,0.323-0.727,0.577-1.204,0.761c-0.478,0.185-1.019,0.278-1.624,0.278c-0.345,0-0.689-0.035-1.031-0.105
		c-0.342-0.07-0.672-0.167-0.99-0.292c-0.317-0.125-0.616-0.275-0.896-0.45c-0.28-0.175-0.525-0.37-0.735-0.585l0.66-1.065
		c0.055-0.08,0.127-0.146,0.218-0.199c0.09-0.053,0.185-0.079,0.285-0.079c0.135,0,0.278,0.05,0.428,0.15s0.322,0.21,0.518,0.33
		c0.195,0.12,0.421,0.23,0.679,0.33c0.257,0.1,0.566,0.15,0.926,0.15c0.525,0,0.931-0.12,1.219-0.36
		c0.288-0.24,0.431-0.597,0.431-1.072c0-0.275-0.071-0.498-0.214-0.667c-0.142-0.17-0.329-0.312-0.559-0.428
		c-0.23-0.115-0.493-0.213-0.788-0.296s-0.598-0.174-0.907-0.274c-0.31-0.1-0.613-0.22-0.908-0.36
		c-0.295-0.14-0.558-0.325-0.788-0.555s-0.416-0.515-0.559-0.855s-0.214-0.763-0.214-1.268c0-0.405,0.08-0.797,0.24-1.177
		c0.16-0.38,0.395-0.718,0.705-1.013c0.31-0.295,0.691-0.533,1.144-0.712c0.453-0.18,0.971-0.27,1.556-0.27
		c0.655,0,1.261,0.101,1.819,0.304s1.029,0.484,1.414,0.844L114.282,100.78z"/>
	<path fill="#608985" d="M118.917,109.578h-2.265V98.695h2.265V109.578z"/>
	<path fill="#608985" d="M128.899,98.695v1.815h-3.18v9.067h-2.258v-9.067h-3.18v-1.815H128.899z"/>
	<path fill="#608985" d="M137.186,98.695v1.762h-4.665v2.797h3.63v1.703h-3.63v2.857h4.665v1.763h-6.93V98.695H137.186z"/>
</g>
<g>
	<g enable-background="new    ">
		<path fill="#A3794B" d="M235.423,100.055v1.698h-4.495v2.696h3.498v1.641h-3.498v2.754h4.495v1.698h-6.678v-10.487H235.423z"/>
		<path fill="#A3794B" d="M242.596,106.509c0.08,0.178,0.155,0.361,0.228,0.549c0.072-0.193,0.149-0.381,0.231-0.564
			s0.169-0.359,0.261-0.527l2.912-5.572c0.044-0.082,0.089-0.146,0.138-0.191c0.048-0.046,0.1-0.08,0.155-0.102
			c0.056-0.021,0.118-0.035,0.188-0.04c0.07-0.005,0.153-0.007,0.25-0.007h1.647v10.487h-1.915v-6.439
			c0-0.13,0.004-0.272,0.011-0.426s0.018-0.313,0.032-0.477l-2.992,5.688c-0.163,0.313-0.416,0.47-0.759,0.47h-0.304
			c-0.168,0-0.317-0.04-0.447-0.12c-0.131-0.079-0.234-0.196-0.312-0.351l-3.014-5.702c0.015,0.164,0.026,0.324,0.036,0.48
			c0.01,0.157,0.015,0.303,0.015,0.438v6.439h-1.915v-10.487h1.647c0.092,0,0.174,0.002,0.246,0.007s0.136,0.018,0.191,0.04
			c0.056,0.022,0.105,0.056,0.151,0.102c0.046,0.045,0.091,0.109,0.134,0.191l2.935,5.594
			C242.434,106.157,242.517,106.331,242.596,106.509z"/>
		<path fill="#A3794B" d="M259.974,110.542h-1.685c-0.188,0-0.341-0.044-0.458-0.134c-0.118-0.089-0.206-0.204-0.265-0.343
			l-0.708-2.002h-4.177l-0.709,2.002c-0.048,0.121-0.133,0.23-0.253,0.329c-0.12,0.099-0.272,0.148-0.455,0.148h-1.698l4.098-10.487
			h2.219L259.974,110.542z M253.209,106.559h3.122l-1.135-3.208c-0.067-0.169-0.139-0.366-0.213-0.593
			c-0.075-0.227-0.148-0.47-0.221-0.73c-0.067,0.265-0.138,0.512-0.21,0.741s-0.142,0.428-0.209,0.596L253.209,106.559z"/>
		<path fill="#A3794B" d="M263.125,110.542h-2.183v-10.487h2.183V110.542z"/>
		<path fill="#A3794B" d="M267.49,108.778h4.055v1.764h-6.223v-10.487h2.168V108.778z"/>
	</g>
</g>
<path fill="#C94343" d="M207.688,135.721c2.802-9.513,4.312-19.578,4.312-29.998c0-10.419-1.511-20.486-4.312-29.999
	c-6.17,8.405-9.821,18.772-9.821,29.999C197.866,116.949,201.518,127.317,207.688,135.721z"/>
</svg>
