<?xml version="1.0" encoding="utf-8"?>
<!-- Generator: Adobe Illustrator 15.1.0, SVG Export Plug-In . SVG Version: 6.00 Build 0)  -->
<!DOCTYPE svg PUBLIC "-//W3C//DTD SVG 1.1//EN" "http://www.w3.org/Graphics/SVG/1.1/DTD/svg11.dtd">
<svg version="1.1" id="Layer_18" xmlns="http://www.w3.org/2000/svg" xmlns:xlink="http://www.w3.org/1999/xlink" x="0px" y="0px"
	 width="380.75px" height="220px" viewBox="0 0 380.75 220" enable-background="new 0 0 380.75 220" xml:space="preserve">
<circle fill="#9BC9C7" cx="184.764" cy="110" r="110"/>
<circle fill="#EAB978" cx="214.764" cy="110" r="110"/>
<path fill="#C94343" d="M199.764,1.021c-53.654,7.318-95,53.316-95,108.98c0,55.661,41.347,101.661,95,108.979
	c53.654-7.316,95-53.316,95-108.979S253.418,8.34,199.764,1.021z"/>
<g>
	<g enable-background="new    ">
		<path fill="#AAAAAA" d="M0.085,102.42h1.961c0.203,0,0.373,0.047,0.51,0.14c0.138,0.094,0.227,0.218,0.269,0.374l1.751,6.366
			c0.041,0.182,0.084,0.374,0.128,0.576c0.044,0.202,0.086,0.418,0.128,0.646c0.046-0.228,0.096-0.444,0.147-0.649
			s0.109-0.396,0.171-0.572l2.039-6.366c0.042-0.13,0.131-0.248,0.269-0.354c0.138-0.106,0.305-0.159,0.502-0.159h0.685
			c0.202,0,0.367,0.048,0.494,0.144c0.127,0.097,0.222,0.22,0.284,0.37l2.031,6.366c0.057,0.166,0.113,0.348,0.167,0.545
			s0.103,0.404,0.144,0.623c0.042-0.219,0.083-0.426,0.125-0.623s0.083-0.379,0.125-0.545l1.751-6.366
			c0.037-0.135,0.125-0.254,0.265-0.358c0.14-0.104,0.309-0.155,0.506-0.155h1.837l-3.502,11.293h-2.109l-2.312-7.386
			c-0.042-0.104-0.079-0.219-0.113-0.343c-0.034-0.125-0.066-0.254-0.097-0.39c-0.036,0.136-0.071,0.265-0.105,0.39
			c-0.034,0.124-0.069,0.238-0.105,0.343l-2.335,7.386H3.58L0.085,102.42z"/>
		<path fill="#AAAAAA" d="M24.835,102.42v1.829h-4.841v2.902h3.767v1.768h-3.767v2.965h4.841v1.829h-7.191V102.42H24.835z"/>
		<path fill="#AAAAAA" d="M26.579,113.713V102.42h4.008c0.757,0,1.405,0.071,1.942,0.214s0.975,0.345,1.315,0.607
			c0.339,0.262,0.587,0.579,0.743,0.953c0.156,0.373,0.233,0.791,0.233,1.253c0,0.26-0.038,0.509-0.113,0.747
			c-0.075,0.239-0.192,0.463-0.35,0.674c-0.159,0.21-0.362,0.4-0.611,0.571c-0.249,0.172-0.544,0.316-0.887,0.437
			c1.505,0.353,2.257,1.18,2.257,2.482c0,0.478-0.092,0.921-0.276,1.331c-0.185,0.41-0.453,0.766-0.806,1.066
			s-0.788,0.535-1.304,0.704s-1.109,0.253-1.778,0.253H26.579z M28.914,107.245h1.533c0.327,0,0.617-0.027,0.872-0.082
			c0.254-0.054,0.467-0.141,0.638-0.261c0.171-0.119,0.302-0.276,0.393-0.471s0.136-0.429,0.136-0.704
			c0-0.28-0.038-0.519-0.113-0.716s-0.191-0.355-0.346-0.475c-0.156-0.12-0.353-0.207-0.592-0.261
			c-0.239-0.055-0.521-0.082-0.848-0.082h-1.673V107.245z M28.914,108.833v3.09h2c0.374,0,0.681-0.046,0.922-0.137
			c0.241-0.09,0.435-0.211,0.58-0.361c0.145-0.15,0.246-0.323,0.303-0.518s0.086-0.396,0.086-0.604c0-0.229-0.034-0.433-0.102-0.614
			s-0.176-0.336-0.327-0.464c-0.15-0.127-0.346-0.224-0.588-0.291c-0.241-0.067-0.538-0.102-0.891-0.102H28.914z"/>
		<path fill="#AAAAAA" d="M43.024,104.583c-0.073,0.12-0.146,0.207-0.222,0.261c-0.075,0.055-0.172,0.082-0.292,0.082
			c-0.114,0-0.237-0.04-0.37-0.12c-0.132-0.081-0.287-0.168-0.463-0.261c-0.177-0.094-0.379-0.181-0.607-0.261
			c-0.229-0.081-0.496-0.121-0.802-0.121c-0.54,0-0.944,0.121-1.214,0.362c-0.27,0.241-0.405,0.556-0.405,0.945
			c0,0.249,0.074,0.455,0.222,0.619c0.147,0.163,0.342,0.305,0.583,0.424s0.515,0.226,0.821,0.319
			c0.306,0.093,0.62,0.195,0.941,0.307c0.322,0.112,0.636,0.243,0.942,0.394s0.58,0.34,0.821,0.568s0.436,0.507,0.583,0.837
			c0.148,0.329,0.222,0.729,0.222,1.202c0,0.514-0.09,0.995-0.269,1.443c-0.179,0.449-0.438,0.841-0.774,1.176
			c-0.337,0.334-0.754,0.598-1.25,0.79c-0.496,0.191-1.057,0.288-1.685,0.288c-0.358,0-0.715-0.037-1.07-0.109
			c-0.355-0.072-0.698-0.174-1.027-0.304c-0.33-0.13-0.64-0.285-0.93-0.467s-0.545-0.384-0.763-0.607l0.685-1.104
			c0.057-0.083,0.132-0.152,0.226-0.207c0.093-0.054,0.192-0.081,0.295-0.081c0.14,0,0.288,0.052,0.444,0.155
			s0.334,0.218,0.537,0.343c0.202,0.124,0.437,0.238,0.704,0.342c0.267,0.104,0.588,0.156,0.961,0.156
			c0.545,0,0.966-0.125,1.265-0.374s0.448-0.62,0.448-1.112c0-0.286-0.074-0.517-0.222-0.693c-0.148-0.176-0.341-0.324-0.58-0.443
			c-0.239-0.119-0.511-0.222-0.817-0.308c-0.306-0.085-0.62-0.18-0.942-0.284c-0.322-0.104-0.635-0.228-0.941-0.373
			s-0.579-0.338-0.817-0.576s-0.432-0.534-0.58-0.888c-0.148-0.353-0.222-0.791-0.222-1.315c0-0.42,0.083-0.827,0.249-1.222
			s0.41-0.744,0.732-1.051c0.321-0.306,0.717-0.553,1.187-0.739c0.47-0.187,1.008-0.28,1.615-0.28c0.68,0,1.309,0.105,1.887,0.315
			s1.068,0.502,1.467,0.876L43.024,104.583z"/>
		<path fill="#AAAAAA" d="M47.834,113.713h-2.351V102.42h2.351V113.713z"/>
		<path fill="#AAAAAA" d="M58.193,102.42v1.883h-3.3v9.41h-2.342v-9.41h-3.3v-1.883H58.193z"/>
		<path fill="#AAAAAA" d="M66.793,102.42v1.829h-4.841v2.902h3.767v1.768h-3.767v2.965h4.841v1.829h-7.191V102.42H66.793z"/>
	</g>
</g>
<g enable-background="new    ">
	<path fill="#7A2929" d="M142.652,98.062c0,0.825-0.139,1.59-0.416,2.296c-0.278,0.706-0.669,1.315-1.175,1.829
		s-1.115,0.917-1.825,1.21c-0.711,0.293-1.5,0.44-2.366,0.44s-1.655-0.147-2.366-0.44s-1.32-0.696-1.829-1.21
		c-0.509-0.514-0.902-1.123-1.179-1.829c-0.278-0.706-0.417-1.471-0.417-2.296s0.139-1.589,0.417-2.292
		c0.277-0.703,0.67-1.312,1.179-1.825c0.508-0.514,1.118-0.917,1.829-1.21c0.711-0.294,1.5-0.44,2.366-0.44s1.655,0.146,2.366,0.44
		c0.71,0.293,1.319,0.697,1.825,1.214s0.897,1.126,1.175,1.829C142.513,96.481,142.652,97.242,142.652,98.062z M140.263,98.062
		c0-0.592-0.078-1.122-0.233-1.592c-0.156-0.47-0.38-0.869-0.673-1.198c-0.293-0.33-0.649-0.581-1.066-0.755
		s-0.891-0.261-1.42-0.261s-1.004,0.087-1.424,0.261s-0.777,0.425-1.07,0.755c-0.293,0.329-0.518,0.729-0.673,1.198
		c-0.156,0.47-0.234,1-0.234,1.592c0,0.597,0.078,1.13,0.234,1.6c0.155,0.47,0.38,0.867,0.673,1.194
		c0.293,0.327,0.65,0.577,1.07,0.751s0.895,0.261,1.424,0.261s1.003-0.087,1.42-0.261s0.773-0.424,1.066-0.751
		c0.293-0.327,0.518-0.725,0.673-1.194C140.185,99.192,140.263,98.659,140.263,98.062z"/>
	<path fill="#7A2929" d="M145.847,92.432c0.07,0.008,0.134,0.025,0.191,0.055c0.057,0.028,0.111,0.065,0.164,0.112
		c0.052,0.047,0.109,0.109,0.171,0.187l5.666,7.199c-0.021-0.196-0.036-0.389-0.046-0.575c-0.011-0.188-0.016-0.363-0.016-0.529
		v-6.46h2.062v11.293h-1.207c-0.182,0-0.334-0.03-0.459-0.09s-0.247-0.162-0.366-0.307l-5.627-7.153
		c0.016,0.182,0.027,0.359,0.035,0.533s0.012,0.336,0.012,0.486v6.53h-2.062V92.42h1.229
		C145.692,92.42,145.777,92.424,145.847,92.432z"/>
	<path fill="#7A2929" d="M163.596,92.42v1.829h-4.841v2.902h3.767v1.768h-3.767v2.965h4.841v1.829h-7.191V92.42H163.596z"/>
	<path fill="#7A2929" d="M171.387,103.713h-2.351V92.42h2.351V103.713z"/>
	<path fill="#7A2929" d="M175.235,92.432c0.07,0.008,0.134,0.025,0.191,0.055c0.057,0.028,0.111,0.065,0.164,0.112
		c0.052,0.047,0.109,0.109,0.171,0.187l5.666,7.199c-0.021-0.196-0.036-0.389-0.046-0.575c-0.011-0.188-0.016-0.363-0.016-0.529
		v-6.46h2.062v11.293h-1.207c-0.182,0-0.334-0.03-0.459-0.09s-0.247-0.162-0.366-0.307l-5.627-7.153
		c0.016,0.182,0.027,0.359,0.035,0.533s0.012,0.336,0.012,0.486v6.53h-2.062V92.42h1.229
		C175.081,92.42,175.165,92.424,175.235,92.432z"/>
	<path fill="#7A2929" d="M193.786,92.42v1.883h-3.3v9.41h-2.342v-9.41h-3.3V92.42H193.786z"/>
	<path fill="#7A2929" d="M202.386,92.42v1.829h-4.841v2.902h3.767v1.768h-3.767v2.965h4.841v1.829h-7.191V92.42H202.386z"/>
	<path fill="#7A2929" d="M211.426,103.546c-0.65,0.194-1.34,0.292-2.066,0.292c-0.929,0-1.77-0.145-2.521-0.433
		s-1.396-0.688-1.93-1.202c-0.535-0.514-0.947-1.123-1.238-1.829s-0.436-1.477-0.436-2.312c0-0.846,0.139-1.621,0.416-2.327
		s0.674-1.312,1.188-1.821s1.135-0.905,1.863-1.19c0.729-0.286,1.545-0.429,2.448-0.429c0.468,0,0.903,0.038,1.308,0.113
		s0.778,0.179,1.121,0.312c0.342,0.132,0.656,0.289,0.941,0.471s0.545,0.381,0.778,0.599l-0.677,1.043
		c-0.104,0.167-0.239,0.268-0.405,0.304s-0.348-0.005-0.544-0.124c-0.188-0.114-0.371-0.217-0.549-0.308
		c-0.18-0.091-0.37-0.17-0.572-0.237c-0.203-0.067-0.424-0.119-0.662-0.156c-0.238-0.036-0.514-0.054-0.824-0.054
		c-0.525,0-1,0.091-1.425,0.272c-0.426,0.182-0.788,0.438-1.086,0.771s-0.528,0.731-0.688,1.198
		c-0.161,0.467-0.242,0.988-0.242,1.564c0,0.622,0.089,1.179,0.266,1.669c0.176,0.491,0.426,0.904,0.747,1.242
		c0.321,0.337,0.706,0.594,1.155,0.771c0.449,0.176,0.949,0.265,1.498,0.265c0.374,0,0.707-0.038,1-0.113
		c0.294-0.075,0.58-0.178,0.861-0.308v-1.898h-1.277c-0.15,0-0.268-0.041-0.354-0.121s-0.129-0.183-0.129-0.308v-1.3h3.876v4.662
		C212.691,103.044,212.077,103.351,211.426,103.546z"/>
	<path fill="#7A2929" d="M217.508,99.409v4.304h-2.334V92.42h3.549c0.788,0,1.463,0.081,2.023,0.245
		c0.561,0.163,1.02,0.391,1.377,0.681c0.358,0.291,0.621,0.637,0.787,1.039s0.248,0.845,0.248,1.327
		c0,0.374-0.053,0.728-0.159,1.062s-0.261,0.64-0.463,0.914c-0.202,0.275-0.452,0.52-0.747,0.732
		c-0.296,0.212-0.636,0.384-1.02,0.514c0.15,0.083,0.291,0.183,0.424,0.299c0.133,0.117,0.25,0.256,0.354,0.417l2.631,4.062h-2.109
		c-0.394,0-0.68-0.15-0.855-0.451l-2.148-3.464c-0.088-0.135-0.186-0.233-0.291-0.296c-0.107-0.062-0.264-0.093-0.471-0.093H217.508
		z M217.508,97.767h1.199c0.379,0,0.705-0.048,0.98-0.144c0.275-0.097,0.5-0.229,0.678-0.397c0.176-0.168,0.305-0.367,0.389-0.596
		c0.082-0.228,0.125-0.477,0.125-0.747c0-0.534-0.178-0.949-0.533-1.245s-0.896-0.443-1.623-0.443h-1.215V97.767z"/>
	<path fill="#7A2929" d="M235.168,103.713h-1.814c-0.201,0-0.367-0.048-0.494-0.144c-0.127-0.097-0.221-0.22-0.283-0.37
		l-0.764-2.156h-4.498l-0.763,2.156c-0.052,0.13-0.143,0.248-0.272,0.354s-0.293,0.159-0.49,0.159h-1.829l4.413-11.293h2.389
		L235.168,103.713z M227.883,99.425h3.362l-1.222-3.456c-0.073-0.182-0.149-0.395-0.23-0.639c-0.08-0.243-0.159-0.506-0.236-0.785
		c-0.073,0.285-0.148,0.551-0.227,0.797c-0.078,0.247-0.152,0.461-0.226,0.643L227.883,99.425z"/>
	<path fill="#7A2929" d="M243.099,92.42v1.883h-3.3v9.41h-2.343v-9.41h-3.3V92.42H243.099z"/>
	<path fill="#7A2929" d="M251.699,92.42v1.829h-4.842v2.902h3.768v1.768h-3.768v2.965h4.842v1.829h-7.191V92.42H251.699z"/>
	<path fill="#7A2929" d="M263.567,98.062c0,0.825-0.139,1.584-0.416,2.276c-0.278,0.692-0.669,1.288-1.175,1.786
		s-1.115,0.888-1.826,1.168s-1.499,0.42-2.365,0.42h-4.344V92.42h4.344c0.866,0,1.654,0.14,2.365,0.42s1.32,0.671,1.826,1.172
		c0.506,0.5,0.896,1.096,1.175,1.786C263.429,96.487,263.567,97.242,263.567,98.062z M261.17,98.062
		c0-0.592-0.077-1.123-0.232-1.596c-0.156-0.472-0.379-0.872-0.67-1.198c-0.291-0.327-0.645-0.579-1.062-0.755
		c-0.418-0.177-0.891-0.265-1.42-0.265h-1.992v7.635h1.992c0.529,0,1.002-0.087,1.42-0.261s0.771-0.426,1.062-0.755
		s0.514-0.73,0.67-1.202C261.093,99.193,261.17,98.659,261.17,98.062z"/>
</g>
<g enable-background="new    ">
	<path fill="#7A2929" d="M159.773,111.1v1.829h-4.841v2.902h3.767v1.768h-3.767v2.965h4.841v1.829h-7.191V111.1H159.773z"/>
	<path fill="#7A2929" d="M164,116.586l-3.557-5.486h2.335c0.156,0,0.27,0.021,0.342,0.062c0.073,0.041,0.138,0.108,0.195,0.202
		l2.42,3.992c0.026-0.062,0.056-0.126,0.089-0.19s0.071-0.131,0.113-0.198l2.179-3.564c0.062-0.104,0.131-0.181,0.206-0.23
		c0.075-0.049,0.167-0.073,0.276-0.073h2.234l-3.588,5.386l3.682,5.907h-2.335c-0.156,0-0.282-0.039-0.377-0.117
		c-0.096-0.077-0.172-0.168-0.229-0.271l-2.452-4.156c-0.021,0.057-0.044,0.112-0.07,0.167s-0.052,0.105-0.078,0.151l-2.319,3.838
		c-0.067,0.099-0.147,0.188-0.237,0.268c-0.091,0.081-0.207,0.121-0.347,0.121h-2.179L164,116.586z"/>
	<path fill="#7A2929" d="M174.429,118.509v3.884h-2.335V111.1h3.813c0.773,0,1.441,0.091,2.004,0.272s1.026,0.435,1.389,0.759
		s0.632,0.709,0.806,1.155s0.261,0.932,0.261,1.456c0,0.555-0.091,1.063-0.272,1.525s-0.457,0.858-0.825,1.19
		c-0.368,0.332-0.833,0.591-1.393,0.774c-0.561,0.185-1.217,0.276-1.969,0.276H174.429z M174.429,116.719h1.479
		c0.732,0,1.268-0.177,1.607-0.529s0.51-0.835,0.51-1.447c0-0.28-0.043-0.536-0.128-0.767c-0.085-0.231-0.215-0.429-0.389-0.592
		s-0.393-0.289-0.658-0.378c-0.265-0.088-0.579-0.132-0.942-0.132h-1.479V116.719z"/>
	<path fill="#7A2929" d="M189.045,111.1v1.829h-4.841v2.902h3.767v1.768h-3.767v2.965h4.841v1.829h-7.191V111.1H189.045z"/>
	<path fill="#7A2929" d="M193.123,118.089v4.304h-2.334V111.1h3.549c0.788,0,1.463,0.081,2.023,0.245
		c0.561,0.163,1.02,0.391,1.377,0.681c0.358,0.291,0.621,0.637,0.787,1.039s0.248,0.845,0.248,1.327
		c0,0.374-0.053,0.728-0.159,1.062s-0.261,0.64-0.463,0.914c-0.202,0.275-0.452,0.52-0.747,0.732
		c-0.296,0.212-0.636,0.384-1.02,0.514c0.15,0.083,0.291,0.183,0.424,0.299c0.133,0.117,0.25,0.256,0.354,0.417l2.631,4.062h-2.109
		c-0.394,0-0.68-0.15-0.855-0.451l-2.148-3.464c-0.088-0.135-0.186-0.233-0.291-0.296c-0.107-0.062-0.264-0.093-0.471-0.093H193.123
		z M193.123,116.446h1.199c0.379,0,0.705-0.048,0.98-0.144c0.275-0.097,0.5-0.229,0.678-0.397c0.176-0.168,0.305-0.367,0.389-0.596
		c0.082-0.228,0.125-0.477,0.125-0.747c0-0.534-0.178-0.949-0.533-1.245s-0.896-0.443-1.623-0.443h-1.215V116.446z"/>
	<path fill="#7A2929" d="M203.249,122.393h-2.351V111.1h2.351V122.393z"/>
	<path fill="#7A2929" d="M212.807,111.1v1.829h-4.842v2.902h3.768v1.768h-3.768v2.965h4.842v1.829h-7.191V111.1H212.807z"/>
	<path fill="#7A2929" d="M216.032,111.111c0.07,0.008,0.134,0.025,0.19,0.055c0.058,0.028,0.111,0.065,0.164,0.112
		c0.052,0.047,0.109,0.109,0.171,0.187l5.666,7.199c-0.021-0.196-0.036-0.389-0.046-0.575c-0.012-0.188-0.016-0.363-0.016-0.529
		v-6.46h2.062v11.293h-1.207c-0.182,0-0.334-0.03-0.459-0.09s-0.246-0.162-0.365-0.307l-5.628-7.153
		c0.016,0.182,0.027,0.359,0.035,0.533s0.012,0.336,0.012,0.486v6.53h-2.062V111.1h1.229
		C215.878,111.1,215.963,111.104,216.032,111.111z"/>
	<path fill="#7A2929" d="M234.279,119.614c0.131,0,0.239,0.047,0.328,0.14l0.926,0.988c-0.457,0.582-1.023,1.022-1.701,1.323
		c-0.677,0.301-1.482,0.452-2.416,0.452c-0.846,0-1.606-0.145-2.281-0.433c-0.674-0.288-1.248-0.688-1.72-1.202
		s-0.835-1.123-1.089-1.829c-0.255-0.706-0.382-1.477-0.382-2.312c0-0.561,0.062-1.094,0.183-1.6c0.122-0.506,0.3-0.972,0.533-1.396
		c0.233-0.426,0.516-0.81,0.845-1.152s0.702-0.635,1.116-0.876c0.416-0.241,0.868-0.425,1.359-0.552
		c0.49-0.128,1.012-0.191,1.567-0.191c0.415,0,0.808,0.036,1.179,0.109c0.371,0.072,0.718,0.174,1.039,0.304
		c0.322,0.13,0.619,0.286,0.892,0.471c0.272,0.184,0.518,0.385,0.735,0.603l-0.785,1.074c-0.047,0.067-0.107,0.128-0.18,0.18
		s-0.172,0.077-0.296,0.077s-0.25-0.044-0.378-0.132c-0.127-0.088-0.282-0.187-0.467-0.296c-0.184-0.109-0.414-0.207-0.692-0.296
		c-0.277-0.088-0.629-0.132-1.055-0.132c-0.472,0-0.905,0.085-1.3,0.257c-0.395,0.171-0.732,0.419-1.016,0.743
		s-0.502,0.723-0.657,1.194c-0.155,0.473-0.233,1.01-0.233,1.611c0,0.607,0.084,1.147,0.252,1.623c0.17,0.475,0.4,0.875,0.693,1.202
		s0.636,0.574,1.027,0.743s0.811,0.253,1.257,0.253c0.265,0,0.505-0.013,0.72-0.039c0.216-0.025,0.416-0.069,0.6-0.132
		s0.357-0.143,0.521-0.241s0.328-0.224,0.494-0.374c0.057-0.047,0.117-0.086,0.18-0.116
		C234.14,119.63,234.207,119.614,234.279,119.614z"/>
	<path fill="#7A2929" d="M244.039,111.1v1.829h-4.84v2.902h3.766v1.768h-3.766v2.965h4.84v1.829h-7.191V111.1H244.039z"/>
</g>
<g>
	<g enable-background="new    ">
		<path fill="#AAAAAA" d="M340.375,103.42v1.829h-4.842v2.902h3.768v1.768h-3.768v2.965h4.842v1.829h-7.191V103.42H340.375z"/>
		<path fill="#AAAAAA" d="M348.099,110.37c0.086,0.191,0.167,0.389,0.245,0.592c0.078-0.208,0.161-0.41,0.25-0.607
			c0.088-0.197,0.181-0.387,0.279-0.568l3.137-6.001c0.047-0.088,0.096-0.156,0.148-0.206c0.051-0.049,0.107-0.086,0.167-0.108
			c0.06-0.023,0.127-0.038,0.202-0.043c0.075-0.006,0.164-0.008,0.269-0.008h1.774v11.293h-2.062v-6.935
			c0-0.141,0.004-0.293,0.012-0.459s0.02-0.338,0.035-0.514l-3.223,6.125c-0.176,0.337-0.448,0.506-0.816,0.506h-0.327
			c-0.182,0-0.343-0.043-0.482-0.129c-0.14-0.085-0.252-0.211-0.335-0.377l-3.246-6.141c0.016,0.176,0.029,0.349,0.039,0.518
			c0.011,0.168,0.016,0.325,0.016,0.471v6.935h-2.062V103.42h1.775c0.098,0,0.187,0.002,0.264,0.008
			c0.078,0.005,0.146,0.02,0.207,0.043c0.059,0.022,0.113,0.06,0.163,0.108c0.05,0.05,0.097,0.118,0.144,0.206l3.16,6.024
			C347.924,109.991,348.014,110.178,348.099,110.37z"/>
		<path fill="#AAAAAA" d="M366.812,114.713H365c-0.203,0-0.367-0.048-0.494-0.144c-0.127-0.097-0.223-0.22-0.285-0.37l-0.762-2.156
			h-4.499l-0.763,2.156c-0.052,0.13-0.143,0.248-0.272,0.354s-0.293,0.159-0.49,0.159h-1.829l4.413-11.293h2.39L366.812,114.713z
			 M359.528,110.425h3.362l-1.223-3.456c-0.072-0.182-0.148-0.395-0.229-0.639c-0.081-0.243-0.16-0.506-0.238-0.785
			c-0.072,0.285-0.147,0.551-0.226,0.797c-0.077,0.247-0.153,0.461-0.226,0.643L359.528,110.425z"/>
		<path fill="#AAAAAA" d="M370.207,114.713h-2.351V103.42h2.351V114.713z"/>
		<path fill="#AAAAAA" d="M374.908,112.813h4.365v1.899h-6.701V103.42h2.336V112.813z"/>
	</g>
</g>
</svg>
