<?xml version="1.0" encoding="utf-8"?>
<!-- Generator: Adobe Illustrator 15.1.0, SVG Export Plug-In . SVG Version: 6.00 Build 0)  -->
<!DOCTYPE svg PUBLIC "-//W3C//DTD SVG 1.1//EN" "http://www.w3.org/Graphics/SVG/1.1/DTD/svg11.dtd">
<svg version="1.1" id="Layer_18" xmlns="http://www.w3.org/2000/svg" xmlns:xlink="http://www.w3.org/1999/xlink" x="0px" y="0px"
	 width="366.75px" height="220px" viewBox="0 0 366.75 220" enable-background="new 0 0 366.75 220" xml:space="preserve">
<circle fill="#9BC9C7" cx="110" cy="110" r="110"/>
<g enable-background="new    ">
	<path fill="#608985" d="M75.655,102.419h1.961c0.203,0,0.373,0.047,0.51,0.14c0.138,0.094,0.227,0.218,0.269,0.374l1.751,6.366
		c0.041,0.182,0.084,0.374,0.128,0.576c0.044,0.202,0.086,0.418,0.128,0.646c0.046-0.228,0.096-0.444,0.147-0.649
		s0.109-0.396,0.171-0.572l2.039-6.366c0.042-0.13,0.131-0.248,0.269-0.354c0.138-0.106,0.305-0.159,0.502-0.159h0.685
		c0.202,0,0.367,0.048,0.494,0.144c0.127,0.097,0.222,0.22,0.284,0.37l2.031,6.366c0.057,0.166,0.113,0.348,0.167,0.545
		s0.103,0.404,0.144,0.623c0.042-0.219,0.083-0.426,0.125-0.623s0.083-0.379,0.125-0.545l1.751-6.366
		c0.037-0.135,0.125-0.254,0.265-0.358c0.14-0.104,0.309-0.155,0.506-0.155h1.837l-3.502,11.293h-2.109l-2.312-7.386
		c-0.042-0.104-0.079-0.219-0.113-0.343c-0.034-0.125-0.066-0.254-0.097-0.39c-0.036,0.136-0.071,0.265-0.105,0.39
		c-0.034,0.124-0.069,0.238-0.105,0.343l-2.335,7.386h-2.117L75.655,102.419z"/>
	<path fill="#608985" d="M100.405,102.419v1.829h-4.841v2.902h3.767v1.768h-3.767v2.965h4.841v1.829h-7.191v-11.293H100.405z"/>
	<path fill="#608985" d="M102.148,113.712v-11.293h4.008c0.757,0,1.405,0.071,1.942,0.214s0.975,0.345,1.315,0.607
		c0.339,0.262,0.587,0.579,0.743,0.953c0.156,0.373,0.233,0.791,0.233,1.253c0,0.26-0.038,0.509-0.113,0.747
		c-0.075,0.239-0.192,0.463-0.35,0.674c-0.159,0.21-0.362,0.4-0.611,0.571c-0.249,0.172-0.544,0.316-0.887,0.437
		c1.505,0.353,2.257,1.18,2.257,2.482c0,0.478-0.092,0.921-0.276,1.331c-0.185,0.41-0.453,0.766-0.806,1.066
		s-0.788,0.535-1.304,0.704s-1.109,0.253-1.778,0.253H102.148z M104.483,107.245h1.533c0.327,0,0.617-0.027,0.872-0.082
		c0.254-0.054,0.467-0.141,0.638-0.261c0.171-0.119,0.302-0.276,0.393-0.471s0.136-0.429,0.136-0.704
		c0-0.28-0.038-0.519-0.113-0.716s-0.191-0.355-0.346-0.475c-0.156-0.12-0.353-0.207-0.592-0.261
		c-0.239-0.055-0.521-0.082-0.848-0.082h-1.673V107.245z M104.483,108.833v3.09h2c0.374,0,0.681-0.046,0.922-0.137
		c0.241-0.09,0.435-0.211,0.58-0.361c0.145-0.15,0.246-0.323,0.303-0.518s0.086-0.396,0.086-0.604c0-0.229-0.034-0.433-0.102-0.614
		s-0.176-0.336-0.327-0.464c-0.15-0.127-0.346-0.224-0.588-0.291c-0.241-0.067-0.538-0.102-0.891-0.102H104.483z"/>
	<path fill="#608985" d="M118.594,104.583c-0.073,0.12-0.146,0.207-0.222,0.261c-0.075,0.055-0.172,0.082-0.292,0.082
		c-0.114,0-0.237-0.04-0.37-0.12c-0.132-0.081-0.287-0.168-0.463-0.261c-0.177-0.094-0.379-0.181-0.607-0.261
		c-0.229-0.081-0.496-0.121-0.802-0.121c-0.54,0-0.944,0.121-1.214,0.362c-0.27,0.241-0.405,0.556-0.405,0.945
		c0,0.249,0.074,0.455,0.222,0.619c0.147,0.163,0.342,0.305,0.583,0.424s0.515,0.226,0.821,0.319
		c0.306,0.093,0.62,0.195,0.941,0.307c0.322,0.112,0.636,0.243,0.942,0.394s0.58,0.34,0.821,0.568s0.436,0.507,0.583,0.837
		c0.148,0.329,0.222,0.729,0.222,1.202c0,0.514-0.09,0.995-0.269,1.443c-0.179,0.449-0.438,0.841-0.774,1.176
		c-0.337,0.334-0.754,0.598-1.25,0.79c-0.496,0.191-1.057,0.288-1.685,0.288c-0.358,0-0.715-0.037-1.07-0.109
		c-0.355-0.072-0.698-0.174-1.027-0.304c-0.33-0.13-0.64-0.285-0.93-0.467s-0.545-0.384-0.763-0.607l0.685-1.104
		c0.057-0.083,0.132-0.152,0.226-0.207c0.093-0.054,0.192-0.081,0.295-0.081c0.14,0,0.288,0.052,0.444,0.155
		s0.334,0.218,0.537,0.343c0.202,0.124,0.437,0.238,0.704,0.342c0.267,0.104,0.588,0.156,0.961,0.156
		c0.545,0,0.966-0.125,1.265-0.374s0.448-0.62,0.448-1.112c0-0.286-0.074-0.517-0.222-0.693c-0.148-0.176-0.341-0.324-0.58-0.443
		c-0.239-0.119-0.511-0.222-0.817-0.308c-0.306-0.085-0.62-0.18-0.942-0.284c-0.322-0.104-0.635-0.228-0.941-0.373
		s-0.579-0.338-0.817-0.576s-0.432-0.534-0.58-0.888c-0.148-0.353-0.222-0.791-0.222-1.315c0-0.42,0.083-0.827,0.249-1.222
		s0.41-0.744,0.732-1.051c0.321-0.306,0.717-0.553,1.187-0.739c0.47-0.187,1.008-0.28,1.615-0.28c0.68,0,1.309,0.105,1.887,0.315
		s1.068,0.502,1.467,0.876L118.594,104.583z"/>
	<path fill="#608985" d="M123.404,113.712h-2.351v-11.293h2.351V113.712z"/>
	<path fill="#608985" d="M133.763,102.419v1.883h-3.3v9.41h-2.342v-9.41h-3.3v-1.883H133.763z"/>
	<path fill="#608985" d="M142.363,102.419v1.829h-4.841v2.902h3.767v1.768h-3.767v2.965h4.841v1.829h-7.191v-11.293H142.363z"/>
</g>
<g>
	<g enable-background="new    ">
		<path fill="#AAAAAA" d="M249.652,101.886c0.07,0.008,0.133,0.025,0.19,0.055c0.058,0.028,0.111,0.065,0.163,0.112
			c0.053,0.047,0.109,0.109,0.172,0.187l5.666,7.199c-0.021-0.196-0.037-0.389-0.047-0.575c-0.011-0.188-0.016-0.363-0.016-0.529
			v-6.46h2.062v11.293h-1.207c-0.182,0-0.334-0.03-0.459-0.09c-0.124-0.06-0.246-0.162-0.365-0.307l-5.627-7.153
			c0.016,0.182,0.027,0.359,0.035,0.533s0.012,0.336,0.012,0.486v6.53h-2.062v-11.293h1.229
			C249.498,101.875,249.582,101.878,249.652,101.886z"/>
		<path fill="#AAAAAA" d="M271.121,107.517c0,0.825-0.139,1.59-0.416,2.296s-0.669,1.315-1.175,1.829s-1.114,0.917-1.825,1.21
			s-1.5,0.44-2.366,0.44s-1.655-0.147-2.366-0.44s-1.32-0.696-1.828-1.21c-0.51-0.514-0.902-1.123-1.18-1.829
			s-0.416-1.471-0.416-2.296s0.139-1.589,0.416-2.292s0.67-1.312,1.18-1.825c0.508-0.514,1.117-0.917,1.828-1.21
			c0.711-0.294,1.5-0.44,2.366-0.44s1.655,0.146,2.366,0.44c0.711,0.293,1.319,0.697,1.825,1.214s0.897,1.126,1.175,1.829
			S271.121,106.697,271.121,107.517z M268.732,107.517c0-0.592-0.078-1.122-0.233-1.592s-0.38-0.869-0.673-1.198
			c-0.294-0.33-0.649-0.581-1.066-0.755c-0.418-0.174-0.892-0.261-1.421-0.261s-1.004,0.087-1.425,0.261
			c-0.42,0.174-0.776,0.425-1.07,0.755c-0.293,0.329-0.518,0.729-0.672,1.198c-0.156,0.47-0.234,1-0.234,1.592
			c0,0.597,0.078,1.13,0.234,1.6c0.154,0.47,0.379,0.867,0.672,1.194c0.294,0.327,0.65,0.577,1.07,0.751
			c0.421,0.174,0.896,0.261,1.425,0.261s1.003-0.087,1.421-0.261c0.417-0.174,0.772-0.424,1.066-0.751
			c0.293-0.327,0.518-0.725,0.673-1.194S268.732,108.114,268.732,107.517z"/>
		<path fill="#AAAAAA" d="M283.722,101.875v1.829h-4.841v3.121h4.062v1.836h-4.062v4.507h-2.351v-11.293H283.722z"/>
		<path fill="#AAAAAA" d="M296.151,107.517c0,0.825-0.139,1.59-0.416,2.296c-0.278,0.706-0.669,1.315-1.175,1.829
			s-1.115,0.917-1.826,1.21s-1.499,0.44-2.365,0.44c-0.867,0-1.656-0.147-2.367-0.44s-1.32-0.696-1.828-1.21
			c-0.509-0.514-0.902-1.123-1.18-1.829s-0.416-1.471-0.416-2.296s0.139-1.589,0.416-2.292s0.671-1.312,1.18-1.825
			c0.508-0.514,1.117-0.917,1.828-1.21c0.711-0.294,1.5-0.44,2.367-0.44c0.866,0,1.654,0.146,2.365,0.44
			c0.711,0.293,1.32,0.697,1.826,1.214s0.896,1.126,1.175,1.829C296.013,105.936,296.151,106.697,296.151,107.517z M293.762,107.517
			c0-0.592-0.078-1.122-0.232-1.592c-0.156-0.47-0.381-0.869-0.674-1.198c-0.293-0.33-0.648-0.581-1.066-0.755
			s-0.891-0.261-1.42-0.261s-1.004,0.087-1.425,0.261s-0.776,0.425-1.07,0.755c-0.293,0.329-0.518,0.729-0.673,1.198
			c-0.156,0.47-0.234,1-0.234,1.592c0,0.597,0.078,1.13,0.234,1.6c0.155,0.47,0.38,0.867,0.673,1.194
			c0.294,0.327,0.649,0.577,1.07,0.751s0.896,0.261,1.425,0.261s1.002-0.087,1.42-0.261s0.773-0.424,1.066-0.751
			s0.518-0.725,0.674-1.194C293.684,108.647,293.762,108.114,293.762,107.517z"/>
		<path fill="#AAAAAA" d="M300.199,111.268h4.365v1.899h-6.701v-11.293h2.336V111.268z"/>
		<path fill="#AAAAAA" d="M308.324,111.268h4.366v1.899h-6.701v-11.293h2.335V111.268z"/>
		<path fill="#AAAAAA" d="M324.684,107.517c0,0.825-0.139,1.59-0.416,2.296s-0.67,1.315-1.176,1.829s-1.114,0.917-1.824,1.21
			c-0.711,0.293-1.5,0.44-2.367,0.44c-0.866,0-1.654-0.147-2.365-0.44s-1.32-0.696-1.829-1.21s-0.901-1.123-1.179-1.829
			c-0.278-0.706-0.417-1.471-0.417-2.296s0.139-1.589,0.417-2.292c0.277-0.703,0.67-1.312,1.179-1.825s1.118-0.917,1.829-1.21
			c0.711-0.294,1.499-0.44,2.365-0.44c0.867,0,1.656,0.146,2.367,0.44c0.71,0.293,1.318,0.697,1.824,1.214s0.898,1.126,1.176,1.829
			S324.684,106.697,324.684,107.517z M322.295,107.517c0-0.592-0.078-1.122-0.234-1.592c-0.155-0.47-0.38-0.869-0.673-1.198
			c-0.294-0.33-0.649-0.581-1.066-0.755s-0.892-0.261-1.421-0.261s-1.004,0.087-1.424,0.261s-0.777,0.425-1.07,0.755
			c-0.293,0.329-0.518,0.729-0.673,1.198s-0.233,1-0.233,1.592c0,0.597,0.078,1.13,0.233,1.6s0.38,0.867,0.673,1.194
			s0.65,0.577,1.07,0.751s0.895,0.261,1.424,0.261s1.004-0.087,1.421-0.261s0.772-0.424,1.066-0.751
			c0.293-0.327,0.518-0.725,0.673-1.194C322.217,108.647,322.295,108.114,322.295,107.517z"/>
		<path fill="#AAAAAA" d="M325.033,101.875h1.962c0.202,0,0.372,0.047,0.51,0.14c0.138,0.094,0.228,0.218,0.269,0.374l1.752,6.366
			c0.041,0.182,0.084,0.374,0.128,0.576s0.087,0.418,0.128,0.646c0.047-0.228,0.096-0.444,0.148-0.649
			c0.051-0.205,0.109-0.396,0.171-0.572l2.039-6.366c0.042-0.13,0.132-0.248,0.269-0.354c0.138-0.106,0.305-0.159,0.502-0.159h0.686
			c0.201,0,0.367,0.048,0.494,0.144c0.127,0.097,0.221,0.22,0.283,0.37l2.031,6.366c0.058,0.166,0.113,0.348,0.168,0.545
			s0.103,0.404,0.145,0.623c0.041-0.219,0.082-0.426,0.124-0.623s0.083-0.379,0.124-0.545l1.752-6.366
			c0.036-0.135,0.124-0.254,0.264-0.358c0.141-0.104,0.309-0.155,0.506-0.155h1.838l-3.503,11.293h-2.108l-2.312-7.386
			c-0.041-0.104-0.079-0.219-0.113-0.343c-0.033-0.125-0.065-0.254-0.097-0.39c-0.036,0.136-0.071,0.265-0.104,0.39
			c-0.034,0.124-0.069,0.238-0.105,0.343l-2.335,7.386h-2.117L325.033,101.875z"/>
		<path fill="#AAAAAA" d="M347.215,111.299c0.379,0,0.719-0.063,1.02-0.19s0.556-0.308,0.764-0.541
			c0.207-0.233,0.365-0.517,0.475-0.849s0.163-0.705,0.163-1.12v-6.725h2.335v6.725c0,0.685-0.11,1.313-0.33,1.887
			c-0.221,0.574-0.537,1.068-0.946,1.483c-0.41,0.415-0.908,0.739-1.494,0.973c-0.587,0.233-1.248,0.351-1.985,0.351
			c-0.736,0-1.399-0.117-1.988-0.351s-1.088-0.558-1.498-0.973s-0.725-0.909-0.945-1.483c-0.221-0.573-0.331-1.202-0.331-1.887
			v-6.725h2.335v6.725c0,0.415,0.055,0.788,0.164,1.12c0.108,0.332,0.267,0.615,0.475,0.849c0.207,0.233,0.461,0.414,0.762,0.541
			S346.831,111.299,347.215,111.299z"/>
		<path fill="#AAAAAA" d="M356.531,109.284v3.884h-2.334v-11.293h3.812c0.773,0,1.441,0.091,2.005,0.272s1.026,0.435,1.39,0.759
			s0.631,0.709,0.805,1.155s0.262,0.932,0.262,1.456c0,0.555-0.092,1.063-0.273,1.525s-0.456,0.858-0.824,1.19
			c-0.369,0.332-0.833,0.591-1.394,0.774c-0.561,0.185-1.217,0.276-1.97,0.276H356.531z M356.531,107.494h1.479
			c0.732,0,1.268-0.177,1.607-0.529s0.51-0.835,0.51-1.447c0-0.28-0.043-0.536-0.128-0.767c-0.085-0.231-0.216-0.429-0.39-0.592
			s-0.393-0.289-0.657-0.378c-0.265-0.088-0.579-0.132-0.942-0.132h-1.479V107.494z"/>
	</g>
</g>
</svg>
