<?xml version="1.0" encoding="utf-8"?>
<!-- Generator: Adobe Illustrator 15.1.0, SVG Export Plug-In . SVG Version: 6.00 Build 0)  -->
<!DOCTYPE svg PUBLIC "-//W3C//DTD SVG 1.1//EN" "http://www.w3.org/Graphics/SVG/1.1/DTD/svg11.dtd">
<svg version="1.1" id="Layer_18" xmlns="http://www.w3.org/2000/svg" xmlns:xlink="http://www.w3.org/1999/xlink" x="0px" y="0px"
	 width="318.75px" height="220px" viewBox="0 0 318.75 220" enable-background="new 0 0 318.75 220" xml:space="preserve">
<circle fill="#9BC9C7" cx="110" cy="110" r="110"/>
<circle fill="#C94343" cx="169.586" cy="163.827" r="24.078"/>
<g enable-background="new    ">
	<path fill="#608985" d="M49.846,82.198h1.961c0.203,0,0.373,0.047,0.51,0.14c0.138,0.094,0.227,0.218,0.269,0.374l1.751,6.366
		c0.041,0.182,0.084,0.374,0.128,0.576c0.044,0.202,0.086,0.418,0.128,0.646c0.046-0.228,0.096-0.444,0.147-0.649
		s0.109-0.396,0.171-0.572l2.039-6.366c0.042-0.13,0.131-0.248,0.269-0.354c0.138-0.106,0.305-0.159,0.502-0.159h0.685
		c0.202,0,0.367,0.048,0.494,0.144c0.127,0.097,0.222,0.22,0.284,0.37l2.031,6.366c0.057,0.166,0.113,0.348,0.167,0.545
		s0.103,0.404,0.144,0.623c0.042-0.219,0.083-0.426,0.125-0.623s0.083-0.379,0.125-0.545l1.751-6.366
		c0.037-0.135,0.125-0.254,0.265-0.358c0.14-0.104,0.309-0.155,0.506-0.155h1.837l-3.502,11.293h-2.109l-2.312-7.386
		c-0.042-0.104-0.079-0.219-0.113-0.343c-0.034-0.125-0.066-0.254-0.097-0.39c-0.036,0.136-0.071,0.265-0.105,0.39
		c-0.034,0.124-0.069,0.238-0.105,0.343l-2.335,7.386h-2.117L49.846,82.198z"/>
	<path fill="#608985" d="M77.079,93.491h-2.351v-4.864h-4.973v4.864h-2.351V82.198h2.351v4.794h4.973v-4.794h2.351V93.491z"/>
	<path fill="#608985" d="M90.357,87.841c0,0.825-0.139,1.59-0.416,2.296c-0.278,0.706-0.669,1.315-1.175,1.829
		s-1.115,0.917-1.825,1.21c-0.711,0.293-1.5,0.44-2.366,0.44s-1.655-0.147-2.366-0.44s-1.32-0.696-1.829-1.21
		c-0.509-0.514-0.902-1.123-1.179-1.829c-0.278-0.706-0.417-1.471-0.417-2.296s0.139-1.589,0.417-2.292
		c0.277-0.703,0.67-1.312,1.179-1.825c0.508-0.514,1.118-0.917,1.829-1.21c0.711-0.294,1.5-0.44,2.366-0.44s1.655,0.146,2.366,0.44
		c0.71,0.293,1.319,0.697,1.825,1.214s0.897,1.126,1.175,1.829C90.218,86.26,90.357,87.021,90.357,87.841z M87.968,87.841
		c0-0.592-0.078-1.122-0.233-1.592c-0.156-0.47-0.38-0.869-0.673-1.198c-0.293-0.33-0.649-0.581-1.066-0.755
		s-0.891-0.261-1.42-0.261s-1.004,0.087-1.424,0.261s-0.777,0.425-1.07,0.755c-0.293,0.329-0.518,0.729-0.673,1.198
		c-0.156,0.47-0.234,1-0.234,1.592c0,0.597,0.078,1.13,0.234,1.6c0.155,0.47,0.38,0.867,0.673,1.194
		c0.293,0.327,0.65,0.577,1.07,0.751s0.895,0.261,1.424,0.261s1.003-0.087,1.42-0.261s0.773-0.424,1.066-0.751
		c0.293-0.327,0.518-0.725,0.673-1.194C87.89,88.971,87.968,88.438,87.968,87.841z"/>
	<path fill="#608985" d="M94.404,91.592h4.366v1.899h-6.701V82.198h2.335V91.592z"/>
	<path fill="#608985" d="M107.386,82.198v1.829h-4.841v2.902h3.767v1.768h-3.767v2.965h4.841v1.829h-7.191V82.198H107.386z"/>
	<path fill="#608985" d="M120.018,82.198v1.829h-4.841v3.121h4.062v1.836h-4.062v4.507h-2.351V82.198H120.018z"/>
	<path fill="#608985" d="M126.259,91.623c0.379,0,0.719-0.063,1.02-0.19s0.555-0.308,0.763-0.541s0.366-0.517,0.475-0.849
		c0.109-0.332,0.163-0.705,0.163-1.12v-6.725h2.335v6.725c0,0.685-0.11,1.313-0.331,1.887c-0.221,0.574-0.536,1.068-0.946,1.483
		c-0.41,0.415-0.908,0.739-1.494,0.973c-0.586,0.233-1.248,0.351-1.985,0.351s-1.4-0.117-1.989-0.351s-1.088-0.558-1.498-0.973
		c-0.41-0.415-0.725-0.909-0.946-1.483c-0.22-0.573-0.331-1.202-0.331-1.887v-6.725h2.335v6.725c0,0.415,0.054,0.788,0.164,1.12
		c0.109,0.332,0.267,0.615,0.475,0.849s0.462,0.414,0.763,0.541S125.875,91.623,126.259,91.623z"/>
	<path fill="#608985" d="M134.723,82.21c0.07,0.008,0.134,0.025,0.191,0.055c0.057,0.028,0.111,0.065,0.164,0.112
		c0.052,0.047,0.109,0.109,0.171,0.187l5.666,7.199c-0.021-0.196-0.036-0.389-0.046-0.575c-0.011-0.188-0.016-0.363-0.016-0.529
		v-6.46h2.062v11.293h-1.207c-0.182,0-0.334-0.03-0.459-0.09s-0.247-0.162-0.366-0.307l-5.627-7.153
		c0.016,0.182,0.027,0.359,0.035,0.533s0.012,0.336,0.012,0.486v6.53h-2.062V82.198h1.229
		C134.569,82.198,134.653,82.202,134.723,82.21z"/>
	<path fill="#608985" d="M146.764,82.21c0.07,0.008,0.134,0.025,0.191,0.055c0.057,0.028,0.111,0.065,0.164,0.112
		c0.052,0.047,0.109,0.109,0.171,0.187l5.666,7.199c-0.021-0.196-0.036-0.389-0.046-0.575c-0.011-0.188-0.016-0.363-0.016-0.529
		v-6.46h2.062v11.293h-1.207c-0.182,0-0.334-0.03-0.459-0.09s-0.247-0.162-0.366-0.307l-5.627-7.153
		c0.016,0.182,0.027,0.359,0.035,0.533s0.012,0.336,0.012,0.486v6.53h-2.062V82.198h1.229
		C146.609,82.198,146.694,82.202,146.764,82.21z"/>
	<path fill="#608985" d="M164.513,82.198v1.829h-4.841v2.902h3.767v1.768h-3.767v2.965h4.841v1.829h-7.191V82.198H164.513z"/>
	<path fill="#608985" d="M168.591,91.592h4.366v1.899h-6.701V82.198h2.335V91.592z"/>
</g>
<g enable-background="new    ">
	<path fill="#AAAAAA" d="M202.914,189.086h1.962c0.202,0,0.372,0.047,0.51,0.139c0.138,0.094,0.228,0.219,0.269,0.375l1.752,6.365
		c0.041,0.182,0.084,0.375,0.128,0.576c0.044,0.203,0.087,0.418,0.128,0.646c0.047-0.229,0.096-0.445,0.148-0.65
		c0.051-0.205,0.109-0.395,0.171-0.572l2.039-6.365c0.042-0.131,0.132-0.248,0.269-0.355c0.138-0.105,0.305-0.158,0.502-0.158h0.686
		c0.201,0,0.367,0.047,0.494,0.143c0.127,0.098,0.221,0.221,0.283,0.371l2.031,6.365c0.058,0.166,0.113,0.348,0.168,0.545
		s0.103,0.404,0.145,0.623c0.041-0.219,0.082-0.426,0.124-0.623s0.083-0.379,0.124-0.545l1.752-6.365
		c0.036-0.135,0.124-0.254,0.264-0.359c0.141-0.104,0.309-0.154,0.506-0.154h1.838l-3.503,11.293h-2.108l-2.312-7.387
		c-0.041-0.104-0.079-0.219-0.113-0.342c-0.033-0.125-0.065-0.254-0.097-0.391c-0.036,0.137-0.071,0.266-0.104,0.391
		c-0.034,0.123-0.069,0.238-0.105,0.342l-2.335,7.387h-2.117L202.914,189.086z"/>
	<path fill="#AAAAAA" d="M230.147,200.379h-2.351v-4.865h-4.973v4.865h-2.352v-11.293h2.352v4.793h4.973v-4.793h2.351V200.379z"/>
	<path fill="#AAAAAA" d="M242.398,200.379h-1.814c-0.201,0-0.367-0.049-0.494-0.145s-0.221-0.219-0.283-0.369l-0.764-2.156h-4.498
		l-0.763,2.156c-0.052,0.129-0.143,0.248-0.272,0.354c-0.13,0.107-0.293,0.16-0.49,0.16h-1.829l4.413-11.293h2.389L242.398,200.379z
		 M235.113,196.09h3.362l-1.222-3.455c-0.073-0.182-0.149-0.395-0.23-0.639c-0.08-0.244-0.159-0.506-0.236-0.785
		c-0.073,0.285-0.148,0.551-0.227,0.797s-0.152,0.461-0.226,0.643L235.113,196.09z"/>
	<path fill="#AAAAAA" d="M250.329,189.086v1.883h-3.3v9.41h-2.343v-9.41h-3.3v-1.883H250.329z"/>
	<path fill="#AAAAAA" d="M259.42,196.043v4.336h-2.336v-4.336l-4.102-6.957h2.055c0.203,0,0.365,0.047,0.486,0.143
		c0.123,0.098,0.22,0.221,0.293,0.371l1.852,3.557c0.125,0.238,0.238,0.461,0.339,0.668c0.101,0.209,0.188,0.416,0.261,0.623
		c0.146-0.398,0.34-0.83,0.584-1.291l1.836-3.557c0.062-0.125,0.156-0.242,0.281-0.352c0.124-0.107,0.285-0.162,0.482-0.162h2.07
		L259.42,196.043z"/>
	<path fill="#AAAAAA" d="M274.783,194.729c0,0.824-0.139,1.59-0.416,2.295c-0.277,0.707-0.67,1.316-1.176,1.83
		s-1.114,0.916-1.824,1.209c-0.711,0.293-1.5,0.441-2.367,0.441c-0.866,0-1.654-0.148-2.365-0.441s-1.32-0.695-1.829-1.209
		s-0.901-1.123-1.179-1.83c-0.278-0.705-0.417-1.471-0.417-2.295c0-0.826,0.139-1.59,0.417-2.293
		c0.277-0.703,0.67-1.311,1.179-1.824s1.118-0.918,1.829-1.211s1.499-0.439,2.365-0.439c0.867,0,1.656,0.146,2.367,0.439
		c0.71,0.293,1.318,0.697,1.824,1.215c0.506,0.516,0.898,1.125,1.176,1.828S274.783,193.909,274.783,194.729z M272.395,194.729
		c0-0.592-0.078-1.123-0.234-1.592c-0.155-0.471-0.38-0.869-0.673-1.199c-0.294-0.33-0.649-0.58-1.066-0.754
		s-0.892-0.262-1.421-0.262s-1.004,0.088-1.424,0.262s-0.777,0.424-1.07,0.754s-0.518,0.729-0.673,1.199
		c-0.155,0.469-0.233,1-0.233,1.592c0,0.596,0.078,1.129,0.233,1.6c0.155,0.469,0.38,0.867,0.673,1.193
		c0.293,0.328,0.65,0.578,1.07,0.752s0.895,0.26,1.424,0.26s1.004-0.086,1.421-0.26s0.772-0.424,1.066-0.752
		c0.293-0.326,0.518-0.725,0.673-1.193C272.316,195.858,272.395,195.325,272.395,194.729z"/>
	<path fill="#AAAAAA" d="M281.118,198.51c0.379,0,0.719-0.062,1.02-0.189s0.556-0.309,0.763-0.541
		c0.207-0.234,0.365-0.518,0.475-0.85s0.164-0.705,0.164-1.119v-6.725h2.334v6.725c0,0.684-0.109,1.312-0.33,1.887
		s-0.536,1.068-0.945,1.482c-0.41,0.416-0.908,0.74-1.494,0.973c-0.587,0.234-1.248,0.352-1.985,0.352s-1.399-0.117-1.989-0.352
		c-0.588-0.232-1.088-0.557-1.498-0.973c-0.41-0.414-0.725-0.908-0.945-1.482s-0.33-1.203-0.33-1.887v-6.725h2.334v6.725
		c0,0.414,0.055,0.787,0.164,1.119s0.268,0.615,0.475,0.85c0.207,0.232,0.462,0.414,0.763,0.541S280.734,198.51,281.118,198.51z"/>
	<path fill="#AAAAAA" d="M297.914,191.249c-0.073,0.121-0.146,0.207-0.223,0.262c-0.074,0.055-0.172,0.082-0.291,0.082
		c-0.114,0-0.238-0.041-0.37-0.121s-0.286-0.168-0.463-0.26c-0.177-0.094-0.379-0.182-0.606-0.262
		c-0.229-0.08-0.496-0.121-0.803-0.121c-0.539,0-0.943,0.121-1.214,0.363c-0.27,0.24-0.405,0.555-0.405,0.945
		c0,0.248,0.074,0.455,0.223,0.619c0.147,0.162,0.342,0.305,0.584,0.424c0.24,0.119,0.515,0.225,0.82,0.318
		c0.307,0.094,0.62,0.195,0.941,0.307c0.322,0.113,0.637,0.244,0.942,0.395s0.58,0.34,0.821,0.568s0.436,0.506,0.584,0.836
		c0.147,0.33,0.222,0.73,0.222,1.203c0,0.514-0.09,0.994-0.269,1.443c-0.18,0.449-0.438,0.84-0.774,1.176
		c-0.337,0.334-0.754,0.598-1.249,0.789c-0.496,0.191-1.058,0.289-1.686,0.289c-0.357,0-0.715-0.037-1.07-0.109
		s-0.697-0.174-1.027-0.305c-0.329-0.129-0.639-0.285-0.93-0.467s-0.545-0.383-0.763-0.607l0.685-1.104
		c0.057-0.084,0.133-0.152,0.227-0.207c0.093-0.055,0.191-0.082,0.295-0.082c0.141,0,0.288,0.053,0.443,0.156
		c0.156,0.104,0.335,0.217,0.537,0.342c0.203,0.125,0.438,0.238,0.705,0.342c0.267,0.105,0.588,0.156,0.961,0.156
		c0.545,0,0.967-0.125,1.265-0.373c0.298-0.25,0.448-0.621,0.448-1.113c0-0.285-0.074-0.516-0.223-0.693
		c-0.148-0.176-0.342-0.324-0.58-0.443s-0.511-0.221-0.816-0.307c-0.307-0.086-0.621-0.18-0.942-0.285
		c-0.321-0.104-0.636-0.227-0.941-0.373c-0.306-0.145-0.579-0.338-0.817-0.576s-0.432-0.533-0.58-0.887
		c-0.147-0.354-0.222-0.791-0.222-1.316c0-0.42,0.083-0.826,0.249-1.221s0.41-0.744,0.732-1.051c0.32-0.307,0.717-0.553,1.186-0.74
		c0.471-0.186,1.009-0.279,1.615-0.279c0.68,0,1.309,0.105,1.888,0.314c0.579,0.211,1.067,0.502,1.468,0.877L297.914,191.249z"/>
	<path fill="#AAAAAA" d="M307.564,189.086v1.828h-4.84v2.902h3.766v1.768h-3.766v2.965h4.84v1.83h-7.191v-11.293H307.564z"/>
	<path fill="#AAAAAA" d="M316.5,189.086v1.828h-4.842v2.902h3.768v1.768h-3.768v2.965h4.842v1.83h-7.191v-11.293H316.5z"/>
</g>
<line fill="none" stroke="#AAAAAA" stroke-width="2" stroke-miterlimit="10" x1="201.966" y1="178.836" x2="207.846" y2="183.333"/>
</svg>
