<svg xmlns="http://www.w3.org/2000/svg" viewBox="0 0 210 44" enable-background="new 0 0 210 44"><path fill="#E655AE" d="M21.9 8.5C19.2 3.2 12.7-.1 6.8 1.8.1 4-.1 13.5 2.5 18.9c.6 1.3 2.6 3.6 4.8 6.2-3.2 1.7-5.9 4.8-6.7 8.1-1.3 5.6 3.8 10.4 9.3 9.7 2.4-.3 4.7-1.6 5.7-3.9 1.3-2.9.3-6.1-1.2-8.7-.7-1.3-1.6-2.6-2.6-3.8.6-.1 1.3-.1 1.9-.1 1.8.1 1.7-2.6 0-2.8-1.3-.1-2.7 0-4 .4-3-3.5-5.9-7-6-11.8-.1-2.1.3-4.6 1.6-6.2 1.3-1.7 3.5-2.2 5.6-2.2 3.9.1 7.4 2.2 9.4 5.6.6 1.1 2.2.2 1.6-.9zM10.8 39.9c-4.5 1.7-9.3-2.8-7-7.3 1.1-2.2 3-4.1 5.2-5.1 3.9 4.9 6.9 10.4 1.8 12.4zM26.2 16.5c-.4-.4-1.2-.5-1.7-.2-2.7 1.9-4.3 4.8-5.3 7.9-.9 3-1.7 7-.5 10.1.3.8 1.5.7 1.5-.2.1-2.3.3-4.8.8-7.2 1.6-.2 3.2-.4 4.9-.4-.1 1.7-.3 3.3-.3 4.7-.1 1.8 2.7 1.8 2.8 0 .3-4.9 1.2-10.8-2.2-14.7zm-4.5 8.1c.7-2 1.7-3.8 3.3-5.2.7 1.3 1 2.9 1.1 4.6H26c-1.5.1-2.9.3-4.3.6zM30.6 17.1c-.3 4.3-.3 8.9 0 13.2.1 1.6 2.6 1.7 2.5 0-.1-4.4-.3-8.8-.5-13.2-.1-1.3-1.9-1.3-2 0zM45.1 23.3c.6-.4 1.1-.8 1.6-1.4 1.3-1.6 1.1-3.8-.2-5.3-2.8-3.4-9.9-1.9-11.8 1.9-.1.2-.1.4-.1.6v.2c0 2.7.3 5.4.3 8.1-.3.3-.5.7-.3 1.3.1.4.2.8.4 1.3.5 1.3 2.7 1.2 2.6-.4-.3-3.4-.6-6.9-1.2-10.3 1.7-1.4 5.2-2.7 7.3-1.5 1.7 1 .8 2.7-.6 3.4-1.3.6-2.8.9-4.2 1.1-1.8.3-1 3 .7 2.7 2.4-.4 5.2.3 4.5 3.5-.4 1.8 2.3 2.5 2.7.7.5-2.3 0-4.3-1.7-5.9zM60.2 14.2c-.1-1.3-2-1.3-2 0-.2 2.8-.2 5.5-.1 8.3-2.2.1-4.5.1-6.7.4-.2-2.6-.5-5.1-.8-7.6-.1-1.1-1.9-1.2-1.8 0 .2 4.5.1 9 .2 13.5 0 1.7 2.5 1.7 2.6 0v-3.9c2.2 0 4.3-.2 6.5.2h.1c.1 1.3.1 2.7.2 4 .1 1.7 2.8 1.7 2.6 0-.5-5-.7-9.9-.8-14.9zM71.4 13.8c-1.5-.2-2.9-.3-4.4-.4-1.1 0-2.8-.3-3.7.3-1.8 1.1-1.5 5.5-1.5 7.2 0 1.6.1 3.2.2 4.7.1 1.1 0 2.5.6 3.5 1.2 2.1 4.4 1.2 6.2.8 1.7-.5 1-3.1-.7-2.7-.5.1-2.6.8-3 .4-.3-.3-.2-1.6-.2-2 0-.5-.1-1-.1-1.5.8 0 1.7 0 2.5-.1 1.7-.1 1.6-2.7 0-2.5-.9.1-1.8.2-2.6.3v-1.3c0-.9 0-1.7.1-2.6.1-.4.1-.9.2-1.3.2-.6.7-.8 1.3-.7 1.5-.4 3.4-.1 4.9-.1 1 0 1.4-1.8.2-2zM83.1 21.3c-.1-2.1.1-6-1.8-7.3-.4-.3-1-.2-1.4 0-2.6 1.3-5.1 4.9-6.5 7.3-.2.4-.5.9-.7 1.3-.8.1-1.5.2-2.3.4-1 .3-.7 1.6.2 1.7.4 0 .8 0 1.2.1-.6 1.8-.9 3.7-.8 5.5.1 1.3 1.8 1.2 1.9 0 .2-1.9.6-3.8 1.4-5.6 1.4-.1 2.8-.2 4.1-.2 1.6 0 1.5-2.3 0-2.4-.9-.1-1.9 0-2.8.1 1-1.6 2.6-3.8 4.2-5.1.1.5.2 1.1.3 1.6.2 1.4.2 2.8.2 4.1 0 2.6-.3 5.2-.7 7.7-.3 1.8 2.4 2.5 2.7.7.6-3.2.9-6.6.8-9.9zM92 17.5c-1.3-.8-3.2-1.5-4.7-1.2-.5.1-.9.3-1.2.6-.5-.5-1.6-.3-1.5.6.1 1.9.1 3.7.2 5.6-.3 3-.3 5.9-.2 8.9v.1c.2 1.5 2.5 1.5 2.6 0 0-3.3.1-6.5.4-9.7.1-.7.1-1.5.2-2.3.1-1.1 0-1.3 1.1-1 1.7.4 3.1 1.7 4 3.2 1.9 3.5.8 8.4-1.4 11.5-2.4 3.2-6.6 2.7-10.1 2.3-15.6-1.8-31.6-3.9-47.3-1.8-3.9.5-7.9 1.4-11.6 2.8-1.9.7-4.5 1.5-6 3.1-1.2 1.3.8 3.3 2 2 1.7-1.9 5.8-2.8 8.2-3.5 4.6-1.3 9.3-1.9 14-2.1 9.6-.4 19.3 0 28.9 1 4.6.5 9.3 1.2 14 1.6 3.4.2 7.2-.2 9.6-2.8 4.5-5.2 5.1-14.9-1.2-18.9z"/><g fill="#E655AE"><path d="M110.9 16.8c-.9-.5-1.9-.7-3.1-.7-1.2 0-2.3.2-3.3.7-1 .5-1.8 1.2-2.5 2-.7.9-1.2 1.9-1.6 3.1-.4 1.2-.6 2.5-.6 3.9s.2 2.7.5 3.9c.3 1.2.8 2.2 1.5 3.1.7.9 1.5 1.6 2.4 2 .9.5 2 .7 3.1.7 1.3 0 2.4-.3 3.3-.8.9-.5 1.7-1.3 2.3-2.2.1-.1.1-.2 0-.3l-1.1-1.5c-.2-.3-.4-.3-.6-.3-.1 0-.3 0-.4.1-.1.1-.2.1-.3.2-.2.2-.4.5-.7.6-.2.2-.5.3-.7.4-.2.1-.5.2-.8.2-.3 0-.6.1-1 .1-.6 0-1.2-.1-1.7-.4-.5-.3-1-.7-1.4-1.2-.4-.5-.7-1.2-.9-2-.2-.8-.4-1.7-.4-2.7 0-1 .1-1.9.4-2.7.2-.8.6-1.5 1-2s.9-1 1.5-1.2c.6-.3 1.2-.4 1.9-.4.6 0 1 .1 1.4.2.4.1.7.3.9.5.3.2.5.3.6.5.4.4.9.4 1.2.1l.3-.3.9-1.6v-.3c-.5-.7-1.2-1.3-2.1-1.7zM123.3 28.1c-.2-.4-.4-.7-.7-.9.4-.2.8-.4 1.1-.7.4-.4.8-.8 1.1-1.3.3-.5.5-1 .7-1.6.2-.6.2-1.2.2-1.8 0-.8-.1-1.6-.3-2.2-.2-.7-.6-1.3-1.1-1.8-.5-.5-1.1-.9-1.9-1.2-.8-.3-1.7-.4-2.7-.4h-4.6c-.1 0-.2.2-.2.3v18.6c0 .1 0 .3.2.3h2.8c.1 0 .3-.2.3-.3v-7.2h.9c.2 0 .4.1.5.2.1.1.2.2.3.4l3.2 6c.1.3.3.5.5.6.2.1.5.3.8.3h2.5c.1 0 .2-.1.2-.3 0-.1 0-.1-.1-.2l-3.7-6.8zm-5.1-8.6h1.5c1 0 1.7.2 2.1.7.5.5.7 1.1.7 2 0 .4-.1.9-.2 1.2-.1.4-.3.7-.5.9-.2.3-.5.5-.9.6-.4.2-.8.2-1.3.2h-1.4v-5.6zM138.2 16.2h-9.5c-.1 0-.2.2-.2.3v18.6c0 .1 0 .3.2.3h9.5c.1 0 .1-.2.1-.3v-2.8c0-.1 0-.2-.1-.2h-6.4v-4.7h5c.1 0 .2-.2.2-.4v-2.7c0-.1 0-.3-.2-.3h-5v-4.7h6.4c.1 0 .1-.1.1-.2v-2.8c.1.1.1-.1-.1-.1zM148.2 16.4c0-.1-.1-.2-.2-.2h-2.9c-.1 0-.2.1-.2.2L139 35v.2c0 .1.1.1.2.1h2.2c.3 0 .6-.1.8-.3.2-.2.3-.4.4-.7l1.1-3.7h5.9l1.1 3.7c.1.3.2.5.4.7.2.2.5.3.8.3h2.2c.1 0 .2-.1.2-.3v-.2l-6.1-18.4zm-1.7 4.6c0-.1 0-.2.1-.3 0 .1 0 .2.1.3.1.4.2.7.3 1l1.8 5.9h-4.2l1.7-5.9c0-.3.1-.6.2-1zM163.8 16.2h-11.9c-.1 0-.4.2-.4.3v2.8c0 .1.3.1.4.1h4.3V35c0 .1.2.3.3.3h2.8c.1 0 .2-.2.2-.3V19.5h4.4c.1 0 .3 0 .3-.1v-2.8c0-.2-.2-.4-.4-.4zM168.9 16.4c0-.1-.1-.2-.2-.2h-2.8c-.1 0-.2.1-.2.2v18.8c0 .1.1.2.2.2h2.8c.1 0 .2-.1.2-.2V16.4zM185.5 16.2h-2.3c-.3 0-.6.1-.8.3-.2.2-.3.4-.4.7l-3.5 11.4c-.1.5-.3 1-.4 1.5 0-.1 0-.2-.1-.3-.1-.4-.2-.9-.3-1.2l-3.6-11.4c-.1-.3-.2-.5-.4-.7-.2-.2-.5-.3-.8-.3h-2.3c-.1 0-.1.1-.2.1 0 .1-.1.2 0 .2l6.1 18.7c0 .1.1.2.2.2h2.5c.1 0 .2-.1.2-.2l6.1-18.6v-.3c.1 0 0-.1 0-.1zM196.6 19.5c.1 0 .4-.1.4-.2v-2.8c0-.1-.3-.3-.4-.3H187c-.1 0-.4.2-.4.3v18.6c0 .1.2.3.4.3h9.5c.1 0 .4-.2.4-.3v-2.8c0-.1-.3-.2-.4-.2H190v-4.7h5.2c.1 0 .4-.2.4-.4v-2.7c0-.1-.3-.3-.4-.3H190v-4.7h6.6z"/></g><g fill="#E655AE"><path d="M202.9 7.9V9h-1.6v4.8H200V9h-1.6V7.9h4.5zM206.4 11.4c0 .1.1.2.1.3 0-.1.1-.2.1-.3s.1-.2.1-.3l1.4-3c0-.1.1-.1.1-.1s.1 0 .1-.1h1.2v5.8h-1.1V9.8l-1.5 3c0 .1-.1.2-.2.2s-.2.1-.3.1h-.2c-.1 0-.2 0-.3-.1-.1 0-.1-.1-.2-.2l-1.5-3v4h-1.1V7.9H204.3s.1 0 .1.1l.1.1 1.4 3c.4.1.4.2.5.3z"/></g></svg>