<?xml version="1.0" encoding="utf-8"?>
<!-- Generator: Adobe Illustrator 18.1.1, SVG Export Plug-In . SVG Version: 6.00 Build 0)  -->
<svg version="1.1" id="Logo" xmlns="http://www.w3.org/2000/svg" xmlns:xlink="http://www.w3.org/1999/xlink" x="0px" y="0px"
	 viewBox="0 0 210 44" enable-background="new 0 0 210 44" xml:space="preserve">
<path fill="#369BDB" d="M21.9,8.5c-2.7-5.3-9.2-8.6-15.1-6.7C0.1,4-0.1,13.5,2.5,18.9c0.6,1.3,2.6,3.6,4.8,6.2
	c-3.2,1.7-5.9,4.8-6.7,8.1c-1.3,5.6,3.8,10.4,9.3,9.7c2.4-0.3,4.7-1.6,5.7-3.9c1.3-2.9,0.3-6.1-1.2-8.7c-0.7-1.3-1.6-2.6-2.6-3.8
	c0.6-0.1,1.3-0.1,1.9-0.1c1.8,0.1,1.7-2.6,0-2.8c-1.3-0.1-2.7,0-4,0.4c-3-3.5-5.9-7-6-11.8c-0.1-2.1,0.3-4.6,1.6-6.2
	c1.3-1.7,3.5-2.2,5.6-2.2c3.9,0.1,7.4,2.2,9.4,5.6C20.9,10.5,22.5,9.6,21.9,8.5z M10.8,39.9c-4.5,1.7-9.3-2.8-7-7.3
	c1.1-2.2,3-4.1,5.2-5.1C12.9,32.4,15.9,37.9,10.8,39.9z"/>
<path fill="#369BDB" d="M26.2,16.5c-0.4-0.4-1.2-0.5-1.7-0.2c-2.7,1.9-4.3,4.8-5.3,7.9c-0.9,3-1.7,7-0.5,10.1
	c0.3,0.8,1.5,0.7,1.5-0.2c0.1-2.3,0.3-4.8,0.8-7.2c1.6-0.2,3.2-0.4,4.9-0.4c0,0,0,0,0,0c-0.1,1.7-0.3,3.3-0.3,4.7
	c-0.1,1.8,2.7,1.8,2.8,0C28.7,26.3,29.6,20.4,26.2,16.5z M21.7,24.6c0.7-2,1.7-3.8,3.3-5.2c0.7,1.3,1,2.9,1.1,4.6c0,0,0,0-0.1,0
	C24.5,24.1,23.1,24.3,21.7,24.6z"/>
<path fill="#369BDB" d="M30.6,17.1c-0.3,4.3-0.3,8.9,0,13.2c0.1,1.6,2.6,1.7,2.5,0c-0.1-4.4-0.3-8.8-0.5-13.2
	C32.5,15.8,30.7,15.8,30.6,17.1L30.6,17.1z"/>
<path fill="#369BDB" d="M45.1,23.3c0.6-0.4,1.1-0.8,1.6-1.4c1.3-1.6,1.1-3.8-0.2-5.3c-2.8-3.4-9.9-1.9-11.8,1.9
	c-0.1,0.2-0.1,0.4-0.1,0.6c0,0.1,0,0.1,0,0.2c0,2.7,0.3,5.4,0.3,8.1c-0.3,0.3-0.5,0.7-0.3,1.3c0.1,0.4,0.2,0.8,0.4,1.3
	c0.5,1.3,2.7,1.2,2.6-0.4c-0.3-3.4-0.6-6.9-1.2-10.3c1.7-1.4,5.2-2.7,7.3-1.5c1.7,1,0.8,2.7-0.6,3.4c-1.3,0.6-2.8,0.9-4.2,1.1
	c-1.8,0.3-1,3,0.7,2.7c2.4-0.4,5.2,0.3,4.5,3.5c-0.4,1.8,2.3,2.5,2.7,0.7C47.3,26.9,46.8,24.9,45.1,23.3z"/>
<path fill="#369BDB" d="M60.2,14.2c-0.1-1.3-2-1.3-2,0c-0.2,2.8-0.2,5.5-0.1,8.3c-2.2,0.1-4.5,0.1-6.7,0.4c-0.2-2.6-0.5-5.1-0.8-7.6
	c-0.1-1.1-1.9-1.2-1.8,0c0.2,4.5,0.1,9,0.2,13.5c0,1.7,2.5,1.7,2.6,0c0-1.3,0-2.6,0-3.9c2.2,0,4.3-0.2,6.5,0.2c0,0,0.1,0,0.1,0
	c0.1,1.3,0.1,2.7,0.2,4c0.1,1.7,2.8,1.7,2.6,0C60.5,24.1,60.3,19.2,60.2,14.2z"/>
<path fill="#369BDB" d="M71.4,13.8c-1.5-0.2-2.9-0.3-4.4-0.4c-1.1,0-2.8-0.3-3.7,0.3c-1.8,1.1-1.5,5.5-1.5,7.2
	c0,1.6,0.1,3.2,0.2,4.7c0.1,1.1,0,2.5,0.6,3.5c1.2,2.1,4.4,1.2,6.2,0.8c1.7-0.5,1-3.1-0.7-2.7c-0.5,0.1-2.6,0.8-3,0.4
	c-0.3-0.3-0.2-1.6-0.2-2c0-0.5-0.1-1-0.1-1.5c0.8,0,1.7,0,2.5-0.1c1.7-0.1,1.6-2.7,0-2.5c-0.9,0.1-1.8,0.2-2.6,0.3
	c0-0.4,0-0.9,0-1.3c0-0.9,0-1.7,0.1-2.6c0.1-0.4,0.1-0.9,0.2-1.3c0.2-0.6,0.7-0.8,1.3-0.7c1.5-0.4,3.4-0.1,4.9-0.1
	C72.2,15.8,72.6,14,71.4,13.8z"/>
<path fill="#369BDB" d="M83.1,21.3c-0.1-2.1,0.1-6-1.8-7.3c-0.4-0.3-1-0.2-1.4,0c-2.6,1.3-5.1,4.9-6.5,7.3c-0.2,0.4-0.5,0.9-0.7,1.3
	c-0.8,0.1-1.5,0.2-2.3,0.4c-1,0.3-0.7,1.6,0.2,1.7c0.4,0,0.8,0,1.2,0.1c-0.6,1.8-0.9,3.7-0.8,5.5c0.1,1.3,1.8,1.2,1.9,0
	c0.2-1.9,0.6-3.8,1.4-5.6c1.4-0.1,2.8-0.2,4.1-0.2c1.6,0,1.5-2.3,0-2.4c-0.9-0.1-1.9,0-2.8,0.1c1-1.6,2.6-3.8,4.2-5.1
	c0.1,0.5,0.2,1.1,0.3,1.6c0.2,1.4,0.2,2.8,0.2,4.1c0,2.6-0.3,5.2-0.7,7.7c-0.3,1.8,2.4,2.5,2.7,0.7C82.9,28,83.2,24.6,83.1,21.3z"/>
<path fill="#369BDB" d="M92,17.5c-1.3-0.8-3.2-1.5-4.7-1.2c-0.5,0.1-0.9,0.3-1.2,0.6c-0.5-0.5-1.6-0.3-1.5,0.6
	c0.1,1.9,0.1,3.7,0.2,5.6c-0.3,3-0.3,5.9-0.2,8.9c0,0,0,0,0,0c0,0,0,0.1,0,0.1c0,0,0,0,0,0c0.2,1.5,2.5,1.5,2.6,0c0,0,0,0,0,0
	c0-3.3,0.1-6.5,0.4-9.7c0.1-0.7,0.1-1.5,0.2-2.3c0.1-1.1,0-1.3,1.1-1c1.7,0.4,3.1,1.7,4,3.2c1.9,3.5,0.8,8.4-1.4,11.5
	c-2.4,3.2-6.6,2.7-10.1,2.3c-15.6-1.8-31.6-3.9-47.3-1.8c-3.9,0.5-7.9,1.4-11.6,2.8c-1.9,0.7-4.5,1.5-6,3.1c-1.2,1.3,0.8,3.3,2,2
	c1.7-1.9,5.8-2.8,8.2-3.5c4.6-1.3,9.3-1.9,14-2.1c9.6-0.4,19.3,0,28.9,1c4.6,0.5,9.3,1.2,14,1.6c3.4,0.2,7.2-0.2,9.6-2.8
	C97.7,31.2,98.3,21.5,92,17.5z"/>
<g>
	<path fill="#369BDB" d="M110.9,16.8c-0.9-0.5-1.9-0.7-3.1-0.7c-1.2,0-2.3,0.2-3.3,0.7c-1,0.5-1.8,1.2-2.5,2
		c-0.7,0.9-1.2,1.9-1.6,3.1c-0.4,1.2-0.6,2.5-0.6,3.9c0,1.4,0.2,2.7,0.5,3.9c0.3,1.2,0.8,2.2,1.5,3.1c0.7,0.9,1.5,1.6,2.4,2
		c0.9,0.5,2,0.7,3.1,0.7c1.3,0,2.4-0.3,3.3-0.8c0.9-0.5,1.7-1.3,2.3-2.2c0.1-0.1,0.1-0.2,0-0.3l-1.1-1.5c-0.2-0.3-0.4-0.3-0.6-0.3
		c-0.1,0-0.3,0-0.4,0.1c-0.1,0.1-0.2,0.1-0.3,0.2c-0.2,0.2-0.4,0.5-0.7,0.6c-0.2,0.2-0.5,0.3-0.7,0.4c-0.2,0.1-0.5,0.2-0.8,0.2
		c-0.3,0-0.6,0.1-1,0.1c-0.6,0-1.2-0.1-1.7-0.4c-0.5-0.3-1-0.7-1.4-1.2c-0.4-0.5-0.7-1.2-0.9-2c-0.2-0.8-0.4-1.7-0.4-2.7
		c0-1,0.1-1.9,0.4-2.7c0.2-0.8,0.6-1.5,1-2c0.4-0.5,0.9-1,1.5-1.2c0.6-0.3,1.2-0.4,1.9-0.4c0.6,0,1,0.1,1.4,0.2
		c0.4,0.1,0.7,0.3,0.9,0.5c0.3,0.2,0.5,0.3,0.6,0.5c0.4,0.4,0.9,0.4,1.2,0.1c0.1-0.1,0.2-0.2,0.3-0.3l0.9-1.6c0-0.1,0-0.2,0-0.3
		C112.5,17.8,111.8,17.2,110.9,16.8z"/>
	<path fill="#369BDB" d="M123.3,28.1c-0.2-0.4-0.4-0.7-0.7-0.9c0.4-0.2,0.8-0.4,1.1-0.7c0.4-0.4,0.8-0.8,1.1-1.3
		c0.3-0.5,0.5-1,0.7-1.6c0.2-0.6,0.2-1.2,0.2-1.8c0-0.8-0.1-1.6-0.3-2.2c-0.2-0.7-0.6-1.3-1.1-1.8c-0.5-0.5-1.1-0.9-1.9-1.2
		c-0.8-0.3-1.7-0.4-2.7-0.4h-4.6c-0.1,0-0.2,0.2-0.2,0.3v18.6c0,0.1,0,0.3,0.2,0.3h2.8c0.1,0,0.3-0.2,0.3-0.3v-7.2h0.9
		c0.2,0,0.4,0.1,0.5,0.2c0.1,0.1,0.2,0.2,0.3,0.4l3.2,6c0.1,0.3,0.3,0.5,0.5,0.6c0.2,0.1,0.5,0.3,0.8,0.3h2.5c0,0,0,0,0,0
		c0.1,0,0.2-0.1,0.2-0.3c0-0.1,0-0.1-0.1-0.2L123.3,28.1z M118.2,19.5h1.5c1,0,1.7,0.2,2.1,0.7c0.5,0.5,0.7,1.1,0.7,2
		c0,0.4-0.1,0.9-0.2,1.2c-0.1,0.4-0.3,0.7-0.5,0.9c-0.2,0.3-0.5,0.5-0.9,0.6c-0.4,0.2-0.8,0.2-1.3,0.2h-1.4V19.5z"/>
	<path fill="#369BDB" d="M138.2,16.2h-9.5c-0.1,0-0.2,0.2-0.2,0.3v18.6c0,0.1,0,0.3,0.2,0.3h9.5c0.1,0,0.1-0.2,0.1-0.3v-2.8
		c0-0.1,0-0.2-0.1-0.2h-6.4v-4.7h5c0.1,0,0.2-0.2,0.2-0.4v-2.7c0-0.1,0-0.3-0.2-0.3h-5v-4.7h6.4c0.1,0,0.1-0.1,0.1-0.2v-2.8
		C138.4,16.4,138.4,16.2,138.2,16.2z"/>
	<path fill="#369BDB" d="M148.2,16.4c0-0.1-0.1-0.2-0.2-0.2h-2.9c-0.1,0-0.2,0.1-0.2,0.2L139,35c0,0.1,0,0.2,0,0.2
		c0,0.1,0.1,0.1,0.2,0.1h2.2c0.3,0,0.6-0.1,0.8-0.3c0.2-0.2,0.3-0.4,0.4-0.7l1.1-3.7h5.9l1.1,3.7c0.1,0.3,0.2,0.5,0.4,0.7
		c0.2,0.2,0.5,0.3,0.8,0.3h2.2c0,0,0,0,0,0c0.1,0,0.2-0.1,0.2-0.3c0,0,0-0.1,0-0.2L148.2,16.4z M146.5,21c0-0.1,0-0.2,0.1-0.3
		c0,0.1,0,0.2,0.1,0.3c0.1,0.4,0.2,0.7,0.3,1l1.8,5.9h-4.2l1.7-5.9C146.3,21.7,146.4,21.4,146.5,21z"/>
	<path fill="#369BDB" d="M163.8,16.2h-11.9c-0.1,0-0.4,0.2-0.4,0.3v2.8c0,0.1,0.3,0.1,0.4,0.1h4.3v15.6c0,0.1,0.2,0.3,0.3,0.3h2.8
		c0.1,0,0.2-0.2,0.2-0.3V19.5h4.4c0.1,0,0.3,0,0.3-0.1v-2.8C164.2,16.4,164,16.2,163.8,16.2z"/>
	<path fill="#369BDB" d="M168.9,16.4c0-0.1-0.1-0.2-0.2-0.2h-2.8c-0.1,0-0.2,0.1-0.2,0.2v18.8c0,0.1,0.1,0.2,0.2,0.2h2.8
		c0.1,0,0.2-0.1,0.2-0.2V16.4z"/>
	<path fill="#369BDB" d="M185.5,16.2h-2.3c-0.3,0-0.6,0.1-0.8,0.3c-0.2,0.2-0.3,0.4-0.4,0.7l-3.5,11.4c-0.1,0.5-0.3,1-0.4,1.5
		c0-0.1,0-0.2-0.1-0.3c-0.1-0.4-0.2-0.9-0.3-1.2l-3.6-11.4c-0.1-0.3-0.2-0.5-0.4-0.7c-0.2-0.2-0.5-0.3-0.8-0.3h-2.3
		c-0.1,0-0.1,0.1-0.2,0.1c0,0.1-0.1,0.2,0,0.2l6.1,18.7c0,0.1,0.1,0.2,0.2,0.2h2.5c0.1,0,0.2-0.1,0.2-0.2l6.1-18.6
		c0-0.1,0-0.2,0-0.3C185.6,16.3,185.5,16.2,185.5,16.2z"/>
	<path fill="#369BDB" d="M196.6,19.5c0.1,0,0.4-0.1,0.4-0.2v-2.8c0-0.1-0.3-0.3-0.4-0.3H187c-0.1,0-0.4,0.2-0.4,0.3v18.6
		c0,0.1,0.2,0.3,0.4,0.3h9.5c0.1,0,0.4-0.2,0.4-0.3v-2.8c0-0.1-0.3-0.2-0.4-0.2H190v-4.7h5.2c0.1,0,0.4-0.2,0.4-0.4v-2.7
		c0-0.1-0.3-0.3-0.4-0.3H190v-4.7H196.6z"/>
</g>
<g>
	<path fill="#369BDB" d="M202.9,7.9V9h-1.6v4.8H200V9h-1.6V7.9H202.9z"/>
	<path fill="#369BDB" d="M206.4,11.4c0,0.1,0.1,0.2,0.1,0.3c0-0.1,0.1-0.2,0.1-0.3s0.1-0.2,0.1-0.3l1.4-3c0-0.1,0.1-0.1,0.1-0.1
		c0,0,0.1,0,0.1-0.1c0,0,0.1,0,0.1,0c0,0,0.1,0,0.1,0h1v5.8h-1.1v-3.4c0-0.2,0-0.3,0-0.5l-1.5,3c0,0.1-0.1,0.2-0.2,0.2
		c-0.1,0-0.2,0.1-0.3,0.1h-0.2c-0.1,0-0.2,0-0.3-0.1c-0.1,0-0.1-0.1-0.2-0.2l-1.5-3c0,0.1,0,0.2,0,0.3c0,0.1,0,0.2,0,0.3v3.4h-1.1
		V7.9h1c0.1,0,0.1,0,0.1,0c0,0,0.1,0,0.1,0c0,0,0.1,0,0.1,0.1c0,0,0.1,0.1,0.1,0.1l1.4,3C206.3,11.2,206.3,11.3,206.4,11.4z"/>
</g>
</svg>
