<?xml version="1.0" encoding="utf-8"?>
<!-- Generator: Adobe Illustrator 15.1.0, SVG Export Plug-In . SVG Version: 6.00 Build 0)  -->
<!DOCTYPE svg PUBLIC "-//W3C//DTD SVG 1.1//EN" "http://www.w3.org/Graphics/SVG/1.1/DTD/svg11.dtd">
<svg version="1.1" id="Layer_1" xmlns="http://www.w3.org/2000/svg" xmlns:xlink="http://www.w3.org/1999/xlink" x="0px" y="0px"
	 width="235px" height="348.544px" viewBox="317 15.5 235 348.544" enable-background="new 317 15.5 235 348.544"
	 xml:space="preserve">
<rect x="464.809" y="173.538" fill="#827E7A" width="3.203" height="24.554"/>
<g>
	<g>
		<path fill="#827E7A" d="M528.257,149.748c0,0,13.011-0.921,13.203,3.02c0.191,3.941-1.356,13.123-1.356,13.123
			s-1.476,18.123-1.062,26.469c0.412,8.347,1.033,17.199-1.814,17.515c-2.846,0.314-9.812,0.061-9.812,0.061L528.257,149.748z"/>
	</g>
	<path fill="#83B1B1" d="M531.153,136.733c-0.416-0.354-0.814-0.631-1.198-0.844c-1.182-2.34-3.531-3.967-5.138-5.908
		c-1.642-1.983-3.58-3.491-5.694-4.722c-0.252-0.067-0.502-0.136-0.751-0.214c-1.997-0.63-3.996-0.627-5.904-1.589
		c-0.763-0.384-1.103-0.988-1.149-1.62c-0.722-0.254-1.445-0.502-2.171-0.75c-0.726-0.249-1.176-0.733-1.402-1.297
		c-1.974-0.901-3.848-2.027-5.598-3.325c-3.234-0.267-6.482-0.398-9.737-0.367c-1.747,0.017-3.479,0.086-5.197,0.198
		c0.003,0.743-0.335,1.475-1.116,1.89c-1.987,1.056-4.026,1.966-6.104,2.768c-0.136,0.505-0.481,0.955-1.102,1.236
		c-3.602,1.632-7.314,2.831-11.109,3.822c-0.462,0.259-0.928,0.517-1.39,0.78c-0.186,0.288-0.459,0.543-0.846,0.736l-1.438,0.718
		c-0.226,0.165-0.447,0.331-0.661,0.509c-0.346,0.354-0.801,0.589-1.346,0.641c-0.066,0.008-0.133,0.012-0.198,0.015
		c-0.052,0.001-0.095,0.015-0.146,0.011l-0.034,0.017c1.068,0.16,0.961-0.256-0.003,0.545c-0.409,0.341-0.818,0.684-1.222,1.034
		c-0.282,0.245-0.559,0.498-0.842,0.742c-0.888,1.054-1.803,2.085-2.728,3.109c-0.795,1.292-1.427,2.697-2.136,4.056
		c0.035,0.17,0.075,0.346,0.111,0.519l-6.268,9.231l10.343-0.072c3.681,11.463,8.028,23.336,8.025,28.939
		c-0.009,8.803,2.518,24.816-12.92,34.561c0,0,3.333,3.262,12.92,4.861c9.583,1.6,14.151,4.139,20.843-3.162
		c0,0-0.892,4.646,3.646,10.35c0,0,2.896-4.393,15.047-4.459c12.153-0.064,22.328-1.588,22.328-1.588s-1.975-8.775-1.444-21.537
		c1.479-0.188,3.051-0.635,4.483-1.187c4.625-1.778,5.511-7.971,5.511-7.971s0.716-13.737,0.716-30.64
		C538.137,139.866,531.153,136.733,531.153,136.733z"/>
	<g>
		<path fill="#827E7A" d="M456.269,241.217c0,0,0.675,2.609,8.212,3.164c7.534,0.553,16.477,1.34,16.877,0.947
			c0.399-0.396,20.946,1.551,33.56-4.359s14.968-8.979,15.021-12.639c0.054-3.662,0.372-5.809-4.421-6.746
			C520.723,220.646,454.667,230.164,456.269,241.217"/>
	</g>
	<g>
		<path fill="#827E7A" d="M490.677,272.369c0,0-0.228,4.684-2.854,8.254c-2.631,3.572-5.909,5.766-5.515,9.389
			c0.398,3.621,0.177,6.938,5.95,6.617s13.388-6.107,15.546-9.309c2.161-3.201,7.707-13.988,7.707-13.988l-2.666-6.781
			L490.677,272.369z"/>
	</g>
	<g>
		<path fill="#827E7A" d="M427.206,252.846c0,0-10.043,5.023-14.11,10.098c-4.068,5.076-3.278,9.811-2.263,10.943
			c1.018,1.133,6.118,3.623,12.34,1.619c6.224-2.004,23.153-10.971,23.153-10.971s2.337-2.012,1.669-4.066
			C447.327,258.412,431.508,251.287,427.206,252.846"/>
	</g>
	<g>
		<path fill="#DACDBC" d="M509.097,236.953c6.836-2.021,16.407-4.021,16.529-17.578c-1.008,0.004-2.015-0.055-2.951-0.055
			c-4.521,0.002-9.008,0.902-13.54,0.98c-0.592,0.01-0.804-0.568-0.642-0.996c-0.222,0.025-0.442,0.053-0.662,0.076
			c-6.605,0.727-13.377,1.963-20.035,1.836c-6.648-0.129-13.223-1.182-19.688-2.713c-4.937-1.17-10.305-2.277-14.569-5.176
			c-2.179,0.191-13.015,1.287-17.812,4.518c0,0-9.207,11.887-9.812,32.029c0,0,13.257,10.531,23.675,9.934
			c0,0,3.951-1.438,4.115-17.23c0,0,13.065-8.908,22.428-6.014c0,0-1.005,5.188-0.959,9.182c0,0,2.156,12.617,13.91,25.385
			c0,0,15.586-0.232,22.146-6.076c0,0,0.44-9.895-3.092-13.607c-3.537-3.715-5.896-5.943-5.896-5.943
			S502.229,238.984,509.097,236.953z"/>
	</g>
	<g>
		<path fill="#E5DCD1" d="M453.846,215.404c-1.19-0.6-2.416-1.207-3.74-1.35c-1.559-0.168-3.104,0.324-4.592,0.812
			c-3.168,1.041-6.329,2.104-9.479,3.186c6.31,0.832,12.04,5.178,14.547,11.029c5.615-3,11.884-4.764,18.239-5.129
			c-1.642-1.842-3.902-2.99-6.106-4.098C459.759,218.371,456.802,216.887,453.846,215.404"/>
	</g>
	<g>
		<path fill="#E5DCD1" d="M485.585,221.723c-2.54,0.482-4.65,2.346-6.005,4.547c-1.355,2.201-2.057,4.734-2.692,7.24
			c-0.807,3.193-1.538,6.467-1.304,9.754c5.642-2.779,12.27-3.506,18.379-2.012c0.874-7.469,5.388-14.424,11.854-18.262
			c-5.081,0.031-10.165-0.32-15.189-1.053C488.953,221.693,487.247,221.408,485.585,221.723"/>
	</g>
	<g>
		<path fill="#BAAC9D" d="M509.096,219.205c-3.011-0.494-5.98-1.293-8.687-2.74c-2.708-1.447-8.16-4.16-11.354-2.867
			c-2.85,1.154-4.807,3.656-7.989,4.201c-2.289,0.393-4.526,0.375-6.827,0.02c-2.955-0.457-5.832-1.139-8.681-1.92
			c-0.154,0.217-0.413,0.355-0.741,0.285c-3.46-0.754-6.723-1.936-9.909-3.449c-0.44,0.184-0.846,0.371-1.205,0.562l-3.762,0.682
			c3.097,2.926,6.774,5.469,10.739,6.535h-0.005c0,0,11.319,4.291,13.062,15.338l1.516,0.365l4.445-12.135
			c0.56,0.148,1.121,0.307,1.695,0.35c1.588,0.115,3.147-0.395,4.653-0.914c0.713,2.664,1.979,5.184,3.694,7.338
			c3.086-3.877,8.128-5.625,13.012-6.473c7.307-1.27,14.781-0.938,22.188-0.6c0-0.002,1.451-1.02,0.744-5.969
			C520.358,219.41,514.611,220.111,509.096,219.205z"/>
	</g>
	<g>
		<path fill="#9BC9C7" d="M512.317,200.605c-0.356-3.061-0.956-6.27-2.113-9.136c-0.188-0.631-0.438-1.249-0.716-1.842
			c-4.581-9.765-15.338-15.679-19.395-25.674c0.166,4.289,1.544,8.525,3.937,12.089c1.555,2.319,3.557,4.418,4.415,7.075
			c0.742,2.293,0.56,4.815,1.364,7.085c0.166,0.467,0.38,0.911,0.612,1.343c-0.088,2.3-0.882,4.549-1.82,6.668
			c-2.312,5.22-5.564,10.023-9.559,14.103c-0.521,0.533-1.069,1.08-1.301,1.787c-0.235,0.723-0.105,1.508,0.028,2.256
			c0.272,1.523,0.562,3.09,1.367,4.412c0.809,1.322,2.264,2.365,3.807,2.229c1.344-0.119,2.438-1.066,3.58-1.785
			c5.91-3.725,13.663-1.559,20.52-2.9C513.34,213.355,513.033,206.752,512.317,200.605"/>
	</g>
	<g>
		<path fill="#D6A380" d="M481.14,123.524l-1.038,5.375c0,0-5.011,1.069-5.146,3.903c-0.137,2.835,7.869,4.816,7.869,4.816
			s7.587-0.862,7.664,6.718c0,0,3.947-5.673,9.953-6.718c6.004-1.047,9.044-2.56,8.592-5.273c-0.453-2.712-2.619-5.338-5.139-4.359
			l-1.312-4.713L481.14,123.524z"/>
	</g>
	<g>
		<path fill="#759B9A" d="M483.001,137.555c-2.992,0.16-5.1,3.069-6.023,5.92c-0.501,1.543-0.79,2.126-0.505,3.723
			c0.239,1.326,0.928-0.331,1.987-0.519c0.35-1.378,1.001-2.73,2.021-3.605c1.082-1.333,2.753-1.847,4.657-2.035
			c2.343-0.233,4.857,1.385,5.22,3.71c0.087-0.125,0.183-0.244,0.272-0.367c-0.771-1.61-1.567-3.233-2.771-4.549
			C486.614,138.468,484.849,137.456,483.001,137.555z"/>
		<path fill="#759B9A" d="M508.099,143.881c-0.452-1.545-1.333-2.928-2.242-4.256c-0.354-0.514-0.722-1.034-1.216-1.412
			c-1.198-0.916-2.88-0.826-4.347-0.479c-3.203,0.758-6.126,2.588-8.264,5.085c1.202-1.104,2.646-1.928,4.241-2.239
			c2.428-0.477,5.166,0.378,6.604,2.392c1.488,2.082,1.381,3.848,0.728,6.322c1.541,0.468,3.282-0.416,4.107-1.801
			C508.535,146.11,508.553,145.427,508.099,143.881z"/>
	</g>
	<g>
		<path fill="#9BC9C7" d="M513.098,128.754c-0.191-0.554-0.442-1.105-0.447-1.692c-0.006-0.587,0.324-1.231,0.898-1.352
			c0.534-0.113,1.045,0.252,1.445,0.625c3.838,3.556,4.768,9.588,2.987,14.507c-1.781,4.918-5.896,7.675-10.576,10.014
			c1.301-3.084,1.46-5.566,0.443-8.756c-0.188-0.59-0.399-1.283-0.044-1.788c0.199-0.285,0.532-0.433,0.844-0.588
			C512.503,137.792,514.518,132.822,513.098,128.754"/>
	</g>
	<g>
		<path fill="#9BC9C7" d="M474.729,140.831c0.243,0.125,0.515,0.208,0.714,0.396c0.333,0.317,0.36,0.829,0.367,1.286
			c0.06,4.095,0.117,2.851,0.177,6.944c-3.678-4.934-5.725-5.724-5.751-11.877c-0.004-0.765,0.204-1.75,0.961-1.861
			c0.665-0.099,1.161,0.593,1.399,1.223C473.133,138.364,473.374,140.137,474.729,140.831"/>
	</g>
	<g>
		<path fill="#759B9A" d="M463.894,128.178c2.479,0.947,5.053,1.649,7.674,2.06c1.089-3.046,4.038-5.338,7.26-5.634
			c0.328-0.031,0.769-0.171,0.715-0.494c-1.471-0.142-2.937-0.33-4.397-0.552C471.408,125.134,467.673,126.711,463.894,128.178z"/>
	</g>
	<g>
		<path fill="#759B9A" d="M480.344,128.856c0.146-0.171,0.205-0.394,0.258-0.61c0.265-1.129,0.329-2.304,0.189-3.454
			c-0.012-0.091-0.023-0.185-0.079-0.256c-0.062-0.085-0.169-0.125-0.271-0.158c-2.343-0.756-5.128,0.194-6.521,2.224
			c0.844,0.515,1.689,1.028,2.534,1.543c0.943,0.573,1.976,1.169,3.075,1.065C479.83,129.181,480.146,129.087,480.344,128.856"/>
	</g>
	<g>
		<path fill="#759B9A" d="M502.547,123.683c0.182,0.892,0.415,1.771,0.697,2.637c0.118,0.359,0.254,0.731,0.531,0.988
			c0.605,0.565,1.68,0.394,2.24,1.005c1.498-2.424,4.18-4.081,7.018-4.336c-1.077-1.016-2.285-2.089-3.764-2.171
			c-0.601-0.032-1.194,0.105-1.78,0.243c-1.535,0.358-3.069,0.717-4.604,1.076c-0.109,0.025-0.231,0.058-0.302,0.148
			C502.495,123.387,502.52,123.545,502.547,123.683"/>
	</g>
	<g>
		<path fill="#759B9A" d="M488.537,162.253c-0.021-3.624,1.391-7.108,1.693-10.72c0.052,7.36-0.266,13.463,3.8,24.508
			C492.343,172.467,488.561,166.206,488.537,162.253"/>
	</g>
	<g>
		<path fill="#759B9A" d="M500.126,192.359c0.124,2.848,0.244,5.743-0.465,8.504c-0.696,2.725-2.164,5.184-3.613,7.594
			c-2.127,3.543-4.346,7.188-7.704,9.594c-0.024-1.041-0.053-2.082-0.077-3.123c-0.017-0.613-0.025-1.248,0.212-1.811
			c0.24-0.557,0.697-0.984,1.146-1.389c2.004-1.809,4.195-4.455,5.925-6.523c1.73-2.068,3.826-5.629,4.088-8.314"/>
	</g>
	<g>
		<path fill="#C69777" d="M502.73,126.898c-0.117-1.147-0.236-2.294-0.354-3.442c-6.696,0.625-13.423,0.935-20.15,0.926
			c-0.235,0-0.495,0.008-0.669,0.169c-0.195,0.179-0.205,0.475-0.224,0.74c-0.062,0.942-0.385,1.866-0.93,2.638
			c6.812,2.6,14.526,2.754,21.435,0.429c0.285-0.096,0.582-0.208,0.755-0.45C502.793,127.625,502.767,127.246,502.73,126.898"/>
	</g>
	<g>
		<path fill="#9BC9C7" d="M492.565,180.165L492.565,180.165c-2.136-3.89-5.73-8.405-7.041-12.73
			c-1.312-4.325-1.601-9.127,0.191-13.277c0.263-0.604,0.55-1.226,0.518-1.886c-0.033-0.659-0.584-1.35-1.238-1.267
			c-0.505,0.064-0.854,0.529-1.126,0.959c-1.569,2.469-2.896,5.092-3.956,7.819c-0.79,2.037-1.443,4.206-1.221,6.381
			c0.2,1.978,1.106,3.807,1.601,5.732c1.021,3.986,0.152,8.4-2.275,11.719c-0.451,0.384-0.914,0.755-1.399,1.096
			c-3.185,2.239-7.192,3.661-9.215,6.988c-1.113,1.832-1.461,4.009-2.066,6.066c-1.797,6.1-6.117,11.413-11.723,14.415
			c0.499,0.422,1.015,0.814,1.543,1.195c14.575,5.863,31.273-2.041,38.604-15.333c1.33-2.75,2.367-5.668,2.662-8.717
			C496.117,185.959,494.701,182.725,492.565,180.165"/>
	</g>
	<g>
		<path fill="#A09D9C" d="M414.464,269.148c0.076,0.031,0.152,0.064,0.231,0.092c0.077,0.025,0.153,0.057,0.23,0.08
			c2.972,0.787,7.55-1.895,9.562-3.109c2.296-1.389,5.67-3.479,7.458-6.039c-2.854-1.254-5.237-3.572-6.528-6.412
			c-1.61,0.664-3.03,1.709-4.429,2.744c-1.316,0.973-2.631,1.945-3.946,2.918c-1.521,1.123-3.089,2.305-3.975,3.973
			c-0.886,1.67-0.868,3.982,0.554,5.225C413.877,268.842,414.161,269.012,414.464,269.148"/>
	</g>
	<g>
		<path fill="#A09D9C" d="M485.676,290.684c-1.217-0.084-2.541-0.795-2.731-2c-0.166-1.041,0.555-1.988,1.195-2.826
			c2.262-2.949,4.045-6.266,5.265-9.775c2.567,0.588,5.269,0.602,7.843,0.039c-0.111,4.828-2.473,9.559-6.271,12.547
			C489.457,289.867,487.605,290.818,485.676,290.684"/>
	</g>
	<g>
		<path fill="#706D6B" d="M508.721,268.023c0.188,0.256,0.374,0.512,0.561,0.77c-2.419,2.594-5.771,4.303-9.289,4.738
			c-0.119,0.014-0.242,0.023-0.356-0.002c-0.145-0.039-0.264-0.143-0.376-0.24c-0.803-0.695-1.606-1.396-2.413-2.094
			c3.564-1.617,7.407-2.514,11.222-3.398c0.138-0.033,0.285-0.064,0.415-0.006C508.584,267.838,508.654,267.932,508.721,268.023"/>
	</g>
	<g>
		<path fill="#706D6B" d="M446.945,263.451c0.104-0.111,0.142-0.27,0.176-0.418c0.177-0.795,0.354-1.592,0.533-2.387
			c-3.771-0.344-7.337-1.797-10.836-3.232c0.062,0.715-0.387,1.463-0.102,2.121c0.092,0.209,0.248,0.381,0.409,0.545
			c2.375,2.438,5.837,3.773,9.232,3.564C446.57,263.633,446.801,263.604,446.945,263.451"/>
	</g>
	<g>
		<path fill="#9B948F" d="M540.065,153.456c-0.7-0.866-1.807-1.394-2.908-1.488c0.018,0.041,0.035,0.083,0.053,0.124
			c0.006,0.015,0.016,0.022,0.021,0.037c0.007,0.02,0.014,0.041,0.021,0.062c0.477,1.132,0.907,2.276,1.172,3.465
			c0.416,0.192,0.798,0.476,1.093,0.82c0.743,0.87,1.06,2.021,1.323,3.137C541.482,157.556,541.42,155.131,540.065,153.456z"/>
	</g>
	<g>
		<path fill="#827E7A" d="M477.887,255.654c0,0-10.88,2.488-12.426,6.492c-1.543,4.004-0.017,4.404-0.017,4.404
			s-4.478-0.158-4.069,4.346c0.408,4.506,2.454,5.332,5.568,5.363c3.112,0.031,9.116-0.354,8.828-3.541s-3.248-5.355-3.248-5.355
			l10.395-4.08L477.887,255.654z"/>
	</g>
	<g>
		<path fill="#9B948F" d="M468.152,266.766c-1.273,0.246-2.766-0.148-3.417-1.27c-0.635-1.082-0.294-2.521,0.489-3.5
			c0.784-0.979,1.93-1.588,3.053-2.143c3.183-1.568,6.48-2.9,9.86-3.979c0.161,0.512,0.321,1.023,0.481,1.535
			c-3.006,1.264-6.013,2.525-9.021,3.787c-1.299,0.547-2.793,1.348-2.913,2.75C466.595,265.037,467.4,265.973,468.152,266.766"/>
	</g>
	<g>
		<path fill="#9B948F" d="M465.455,274.793c0.323,0.248,0.729,0.541,0.676,0.945c-1.756,0.512-3.816-0.592-4.366-2.334
			c-0.368-1.18-0.057-7.766,1.758-5.035C464.9,270.447,463.058,272.947,465.455,274.793"/>
	</g>
	<g>
		<path fill="#827E7A" d="M518.324,266.551c0,0,1.524-0.4-0.019-4.404c-0.869-2.252-4.7-4.027-7.884-5.15
			c0.625,1.248,0.54,3.057,0.641,4.289c0.116,1.49,0.61,3.086-0.362,4.395c-0.303,0.408-0.696,0.738-1.132,1.029l1.675,0.656
			c0,0-2.96,2.168-3.249,5.354c-0.288,3.189,5.717,3.574,8.83,3.543c3.115-0.033,5.16-0.857,5.568-5.363
			C522.8,266.393,518.324,266.551,518.324,266.551"/>
	</g>
	<g>
		<path fill="#9B948F" d="M518.543,261.996c-0.785-0.979-1.93-1.588-3.052-2.143c-1.57-0.773-3.169-1.488-4.791-2.146
			c0.189,0.684,0.261,1.438,0.296,2.158c1.057,0.443,2.114,0.889,3.172,1.332c1.3,0.547,2.794,1.348,2.914,2.75
			c0.092,1.088-0.713,2.023-1.465,2.816c1.271,0.246,2.765-0.146,3.417-1.268C519.666,264.416,519.326,262.975,518.543,261.996"/>
	</g>
	<g>
		<path fill="#9B948F" d="M518.312,274.793c-0.323,0.248-0.729,0.541-0.677,0.945c1.756,0.512,3.818-0.592,4.367-2.334
			c0.369-1.18,0.056-7.766-1.758-5.035C518.867,270.447,520.712,272.947,518.312,274.793"/>
	</g>
	<g>
		<path fill="#AED6D3" d="M480.787,173.538c-0.25-0.845-0.479-1.593-0.692-2.263c-0.21-0.769-0.452-1.549-0.747-2.341
			c-0.117-0.317-0.214-0.63-0.299-0.938c-0.356-1.799-0.385-3.001-0.357-3.593c0.006-0.084,0.01-0.172,0.018-0.253
			c0-0.004,0-0.011,0-0.013c0.247-1.186,0.416-2.026,0.571-2.475c-1.264,3.217-1.175,5.75-0.663,7.719l-0.015-0.025
			c0,0,0.011,0.023,0.021,0.057c0.14,0.53,0.304,1.023,0.473,1.489c0.463,1.562,1.074,3.997,1.05,5.853
			c-0.014,0.283-0.033,0.583-0.064,0.894c-0.057,0.342-0.088,0.59-0.104,0.765c-0.228,1.525-0.715,3.168-1.749,4.269
			c-2.409,2.57-5.753,3.755-7.25,5.513c0,0,4.074-2.377,6.026-3.378C478.954,183.813,482.819,180.411,480.787,173.538"/>
	</g>
	<g>
		<path fill="#AED6D3" d="M509.804,190.347c0,0,2.69,5.543,3.713,19.334c0,0-1.288-7.586-2.444-12.211
			c-1.157-4.627-3.074-9.503-4.963-13.292C506.108,184.177,508.848,187.702,509.804,190.347"/>
	</g>
</g>
<g>
	<g>
		<path fill="#605D5B" d="M537.164,150.162c0.25,0.615,0.435,1.252,0.58,1.902c0.228,0.027,0.454,0.054,0.7,0.107
			c2.146,1.832,2.807,3.844,1.973,6.038c-0.087,0.925-0.45,1.979-0.609,2.91c-0.822,4.771-1.104,9.714-1.383,14.545
			c-0.277,4.864-0.376,9.74-0.287,14.612c0.086,4.601,1.578,10.509,0.38,14.978c-1.438,5.363-6.923,4.973-7.393-0.443
			c-0.158-1.834-0.018-3.715,0.021-5.551c0.028-1.348,0.077-2.694,0.119-4.041c-0.452,0.537-1.354,0.697-2.055,0.807
			c-0.096,2.957-0.084,5.901,0.15,8.786c0.609,7.527,9.551,8.512,10.833,0.732c0.597-3.623-0.104-7.446-0.24-11.094
			c-0.156-4.17-0.179-8.352-0.068-12.525c0.118-4.523,0.397-9.041,0.834-13.545c0.404-4.204,1.692-8.437,1.962-12.604
			C542.919,152.119,539.998,150.198,537.164,150.162z"/>
	</g>
	<g>
		<path fill="#605D5B" d="M510.441,257.984c2.688,1.131,7.344,2.129,8.126,5.258c1.288,5.145-5.326,2.777-7.707,1.916
			c-1.008-0.367-1.441,1.238-0.441,1.604c2.924,1.062,9.743,3.234,9.839-2.246c0.086-4.893-5.432-6.916-9.417-7.979
			C509.876,256.279,509.58,257.621,510.441,257.984"/>
	</g>
	<g>
		<path fill="#605D5B" d="M509.984,275.758c2.192,1.344,5.234,0.963,7.709,0.951c1.949-0.014,3.687-0.074,4.909-1.84
			c2.154-3.111,0.58-8.312-3.214-9.078c-0.99-0.201-1.389,1.201-0.42,1.52c1.582,0.521,2.412,1.422,2.736,3.057
			c0.414,2.086-0.247,4.404-2.677,4.676c-2.521,0.281-6.314,0.625-8.624-0.281C509.814,274.531,509.479,275.447,509.984,275.758"/>
	</g>
	<g>
		<path fill="#605D5B" d="M512.028,276.443c3.979-0.281,7.133-2.578,5.38-6.812c-1.162-2.807-4.737-4.391-7.545-2.797
			c-0.76,0.432-0.253,1.736,0.606,1.439c1.806-0.623,4.142-0.438,5.147,1.398c0.703,1.287,1.135,2.877-0.022,4.033
			c-0.978,0.975-2.438,1.27-3.713,1.666C511.319,275.545,511.392,276.488,512.028,276.443"/>
	</g>
	<g>
		<path fill="#605D5B" d="M477.688,254.93c-4.186,1.24-15.943,3.881-13.794,10.58c2.111,6.586,14.977,0.049,18.618-1.756
			c0.959-0.475,0.116-1.91-0.841-1.438c-2.231,1.107-4.543,2.023-6.904,2.818c-0.866,0.289-1.736,0.562-2.615,0.816
			c-2.257,0.643-3.297,1.1-5.307-0.395c-1.605-0.455-2.04-1.381-1.302-2.771c0.694-0.734,1.392-1.471,2.087-2.207
			c0.957-0.711,2.898-1.357,3.891-1.75c2.171-0.863,4.391-1.602,6.564-2.453C478.963,256.033,478.634,254.65,477.688,254.93"/>
	</g>
	<g>
		<path fill="#605D5B" d="M463.929,170.326c-0.905,10.023-0.871,20.206-0.644,30.26c0.023,1.1,1.724,1.104,1.71,0
			c-0.12-10.098,0.234-20.167,0.306-30.26C465.307,169.428,464.007,169.459,463.929,170.326"/>
	</g>
	<g>
		<path fill="#605D5B" d="M527.796,210.256c2.191,0.264,4.393,0.455,6.584,0.727c0.879,0.107,1.085-1.395,0.209-1.555
			c-2.216-0.41-4.55-0.578-6.793-0.316C527.062,209.195,527.062,210.168,527.796,210.256"/>
	</g>
	<g>
		<path fill="#605D5B" d="M455.695,242.232c1.138,1.654,3.105,1.889,4.986,2.086c4.629,0.49,9.325,0.732,13.975,0.984
			c1.027,0.057,1.007-1.504,0-1.588c-3.178-0.268-6.361-0.463-9.542-0.67c-2.399-0.156-6.631,0.354-8.377-1.615
			C456.243,240.875,455.268,241.609,455.695,242.232"/>
	</g>
	<g>
		<path fill="#605D5B" d="M502.33,244.98c8.784-1.021,19.492-4.523,25.539-11.373c3.565-4.043,5.062-12.18-2.062-12.771
			c-0.826-0.066-1.03,1.328-0.197,1.469c6.067,1.021,3.275,7.877,0.62,10.732c-2.108,2.266-4.882,3.854-7.589,5.291
			c-5.235,2.783-10.654,4.455-16.474,5.475C501.509,243.916,501.652,245.061,502.33,244.98"/>
	</g>
	<g>
		<path fill="#605D5B" d="M481.738,289.854c-0.705,3.082,0.708,5.877,3.733,7.045c4.968,1.918,10.535-1.816,14.269-4.664
			c4.436-3.383,6.831-7.65,9.254-12.559c1.046-2.119,3.903-5.271,3.616-7.898c-0.2-1.828-2.139-3.516-3.148-4.84
			c-0.733-0.957-2.104,0.07-1.325,1.023c2.722,3.334,2.008,6.02,0.159,9.5c-1.378,2.594-2.225,5.342-3.927,7.779
			c-2.182,3.129-4.896,5.555-8.106,7.598c-3.637,2.316-14.558,6.223-13.36-2.826C482.992,289.348,481.887,289.211,481.738,289.854"
			/>
	</g>
	<g>
		<path fill="#605D5B" d="M412.172,262.406c-2.289,3.637-5.882,10.207-0.861,13.533c3.188,2.113,9.293,1.08,12.751,0.516
			c6.438-1.049,11.428-5.756,17.233-8.312c3.537-1.557,8.298-2.926,7.767-7.674c-0.15-1.352-2.288-1.365-2.135,0
			c0.481,4.322-5.568,5.115-8.414,6.588c-3.823,1.979-7.239,4.525-11.239,6.211c-2.929,1.232-5.974,1.461-9.138,1.512
			c-1.374,0.02-3.664,0.279-4.934-0.324c-5.055-2.404-0.786-8.43,0.813-10.975C414.749,262.316,412.904,261.244,412.172,262.406"/>
	</g>
	<g>
		<path fill="#587572" d="M479.567,128.293c-2.665,0.453-6.328,2.373-5.165,5.696c1.106,3.157,5.452,4.379,8.421,4.337
			c0.916-0.015,0.918-1.422,0-1.426c-2.161-0.006-4.586-0.633-6.152-2.227c-2.659-2.707,1.033-4.443,3.229-5.165
			C480.685,129.252,480.359,128.159,479.567,128.293"/>
	</g>
	<g>
		<path fill="#587572" d="M503.707,128.712c2.607-0.655,5.515,2.333,3.947,4.852c-0.978,1.57-3.255,3.188-5.082,3.377
			c-1.034,0.107-1.084,1.681,0,1.652c2.957-0.077,7.164-3.166,7.315-6.324c0.159-3.321-3.459-6.015-6.515-4.756
			C502.655,127.81,502.906,128.913,503.707,128.712"/>
	</g>
	<g>
		<path fill="#A39686" d="M525.015,219.174c-0.255,4.699-1.502,9.521-5.245,12.668c-3.151,2.646-7.064,2.766-10.737,4.221
			c-4.146,1.645-7.351,4.59-7.333,9.266c0.003,1.031,1.517,1.01,1.587,0c0.66-9.451,12.129-7.445,17.578-12.24
			c3.954-3.479,5.405-8.818,5.388-13.914C526.249,218.371,525.056,218.383,525.015,219.174"/>
	</g>
	<g>
		<path fill="#A39686" d="M435.913,218.521c5.714-1.982,12.646-4.924,18.776-4.287c0.812,0.088,0.981-1.242,0.191-1.422
			c-6.087-1.363-14.009,2.047-19.507,4.43C434.648,217.553,435.165,218.781,435.913,218.521"/>
	</g>
	<g>
		<path fill="#997261" d="M480.497,123.628c-0.026,1.535-0.419,2.928-0.912,4.365c-0.479,1.396-0.771,2.827-1.942,3.823
			c-0.667,0.565,0.187,1.578,0.91,1.178c1.496-0.83,1.86-2.498,2.354-4.02c0.6-1.854,1.092-3.549,0.754-5.504
			C481.544,122.796,480.508,122.982,480.497,123.628"/>
	</g>
	<g>
		<path fill="#997261" d="M501.785,123.367c0.349,2.604,0.526,6.254,3.049,7.756c0.953,0.568,1.816-0.914,0.868-1.487
			c-1.927-1.167-1.972-4.508-2.489-6.462C503.01,122.409,501.675,122.536,501.785,123.367"/>
	</g>
	<g>
		<path fill="#587572" d="M479.938,123.496c-5.511,0.171-9.875,6.077-10.536,11.228c-0.803,6.238,1.643,12.417,7.065,16.226
			c0.613,0.431,1.365-0.545,0.803-1.041c-7.453-6.56-10.432-23.391,2.819-25.284C480.733,124.536,480.574,123.476,479.938,123.496"
			/>
	</g>
	<g>
		<path fill="#587572" d="M507.507,152.106c6.597-4.313,13.371-10.508,12.422-19.037c-0.671-6.024-6.396-12.837-12.901-11.819
			c-0.899,0.14-0.696,1.701,0.216,1.599c7.026-0.78,11.988,7.515,11.113,13.635c-0.957,6.685-6.233,10.788-11.381,14.715
			C506.456,151.597,506.926,152.486,507.507,152.106"/>
	</g>
	<g>
		<path fill="#587572" d="M465.993,185.919c-0.121,9.97-3.136,19.47-12.31,25.493c-0.854,0.561-0.087,1.91,0.808,1.381
			c10.685-6.307,13.959-16.576,13.692-28.028C467.697,185.529,466.825,185.918,465.993,185.919z"/>
	</g>
	<g>
		<path fill="#587572" d="M477.463,150.195c-1.282-5.323,0.067-12.642,7.146-11.333c6.391,1.245,4.736,6.911,4.237,11.431
			c-0.541,4.894-1.47,9.842-0.88,14.777c0.624,5.196,3.188,8.682,6.172,12.805c3.945,5.452,6.414,11.548,4.845,18.322
			c-1.437,6.202-5.916,11.239-10.619,15.27c-2.145,1.836-4.86,4.619-7.499,5.773c-2.914,1.27-6.25-0.219-9.196-0.646
			c-6.142-0.895-12.479-0.479-17.509-4.762c-0.816-0.691-2.002,0.479-1.183,1.182c5.853,4.998,12.952,4.107,20.057,5.506
			c2.526,0.498,4.882,1.975,7.424,0.99c2.53-0.979,4.98-3.463,7.09-5.146c12.016-9.588,18.246-22.925,8.596-36.628
			c-3.348-4.752-6.316-8.543-6.642-14.654c-0.228-4.279,0.541-8.551,0.999-12.788c0.518-4.792,1.719-6.962-1.887-10.984
			c-2.521-2.815-7.558-3.054-10.31-0.472c-4.216,3.952-3.505,6.812-2.161,11.724C476.372,151.412,477.669,151.054,477.463,150.195"
			/>
	</g>
	<g>
		<path fill="#587572" d="M487.271,213.801c-0.15,4.197,1.099,7.6,3.725,10.85c0.258,0.318,0.73,0.221,1.002,0
			c6.026-4.896,13.487-4.119,20.732-4.049c5.433,0.051,10.775-0.523,16.082-1.664c1.002-0.213,0.575-1.73-0.421-1.529
			c-8.876,1.793-17.446,0.701-26.307,1.717c-2.337,0.268-4.665,0.75-6.82,1.729c-0.131,0.061-2.98,1.744-3.002,1.74
			c-3.475-0.41-3.775-6.32-3.836-8.791C488.41,213.057,487.299,213.059,487.271,213.801"/>
	</g>
	<g>
		<path fill="#587572" d="M528.224,196.142c-0.504,0.145-1.014,0.262-1.529,0.355c-0.475,7.305-0.372,14.584,1.568,21.772
			c0.211,0.793,1.398,0.459,1.22-0.336C527.837,210.619,527.783,203.383,528.224,196.142z"/>
	</g>
	<g>
		<path fill="#587572" d="M490.554,145.804c1.745-4.542,11.664-9.652,14.779-5.39c2.904,3.751,2.197,6.243,1.161,10.417
			c-0.204,0.822,0.979,1.38,1.403,0.592c0.002-0.004,0.004-0.011,0.007-0.015c0.469-0.87-0.857-1.646-1.325-0.775
			c-0.002,0.004-0.005,0.009-0.007,0.014c0.469,0.198,0.936,0.394,1.401,0.592c0.657-2.133,1.407-4.71,1.148-6.964
			c-0.289-2.497-2.256-5.54-4.567-6.733c-2.72-1.403-6.897,0.222-9.29,1.667c-2.836,1.717-4.736,3.193-5.888,6.269
			C489.102,146.219,490.274,146.529,490.554,145.804"/>
	</g>
	<g>
		<path fill="#A39686" d="M434.66,218.072c-6.487,9.113-10.112,20.582-9.469,31.807c0.053,0.924,1.422,0.936,1.445,0
			c0.293-11.4,3.021-21.473,9.098-31.178C436.164,218.012,435.117,217.43,434.66,218.072"/>
	</g>
	<g>
		<path fill="#A39686" d="M434.788,256.906c4.348,2.764,14.214,7.568,17.929,1.537c3.15-5.111,0.838-12.184,2.229-17.764
			c0.332-1.334-1.728-1.904-2.061-0.568c-1.098,4.4-0.33,8.986-0.916,13.445c-0.333,2.527-1.091,5.219-4.008,5.58
			c-3.817,0.473-9.009-2.111-12.098-4.076C434.703,254.324,433.631,256.168,434.788,256.906"/>
	</g>
	<g>
		<path fill="#A39686" d="M425.158,250.633c1.356,1.105,2.761,2.154,4.212,3.135c1.143,0.771,2.213-1.078,1.078-1.844
			c-1.302-0.877-2.562-1.809-3.78-2.801C425.612,248.26,424.093,249.762,425.158,250.633"/>
	</g>
	<g>
		<path fill="#A39686" d="M454.007,243.098c5.629-2.795,14.517-7.453,21.036-5.895c0.998,0.24,1.425-1.293,0.423-1.543
			c-6.95-1.742-16.25,2.902-22.065,6.398C452.729,242.463,453.317,243.439,454.007,243.098"/>
	</g>
	<g>
		<path fill="#A39686" d="M479.804,223.594c-3.267,7.512-6.876,16.838-4.896,25.123c1.898,7.957,7.665,16.727,13.394,22.498
			c0.722,0.725,1.794-0.367,1.114-1.115c-5.136-5.646-10.619-13.48-12.757-20.896c-2.351-8.156,1.082-17.594,4.234-25.148
			C481.149,223.438,480.073,222.977,479.804,223.594"/>
	</g>
	<g>
		<path fill="#A39686" d="M501.854,245.891c2.533,2.893,5.713,5.135,7.153,8.842c1.272,3.273,1.293,6.863,1.433,10.322
			c0.039,1.01,1.588,1.02,1.576,0c-0.039-3.654-0.187-7.496-1.557-10.934c-1.504-3.781-4.691-6.555-7.829-9.008
			C502.082,244.688,501.378,245.348,501.854,245.891"/>
	</g>
	<g>
		<path fill="#A39686" d="M489.084,271.852c4.463,0.51,8.777-0.342,12.999-1.785c2.971-1.016,7.47-2.197,9.637-4.518
			c0.516-0.551-0.173-1.576-0.845-1.094c-5.782,4.129-14.823,6.15-21.791,5.955C488.135,270.383,488.185,271.75,489.084,271.852"/>
	</g>
	<g>
		<path fill="#605D5B" d="M426.528,253.658c5.911-1.037,12.724,3.668,5.94,9.648c-1.276,1.127-2.91,1.766-4.394,2.566
			c-2.669,1.441-5.14,3.238-7.91,4.498c-2.787,1.264-7.506,3.359-7.657-3.799c-0.043-2.045,1.836-3.746,3.146-5.078
			c3.116-3.168,7.234-5.646,11.087-7.787c0.855-0.479,0.104-1.676-0.755-1.291c-6.07,2.727-14.479,7.955-15.489,15.152
			c-0.896,6.361,5.07,6.555,9.446,4.789c3.672-1.479,6.938-3.844,10.413-5.717c2.734-1.475,5.566-3.189,6.561-6.326
			c2.159-6.82-5.541-9.283-10.718-7.85C425.423,252.684,425.759,253.791,426.528,253.658"/>
	</g>
	<g>
		<path fill="#605D5B" d="M490.839,273.193c3.043-2.949,7.665-0.59,8.537,3.146c0.704,3.02-0.585,6.123-2.271,8.584
			c-1.246,1.822-2.69,3.49-4.426,4.855c-1.763,1.391-9.221,5.232-9.101-0.639c0.06-2.895,3.299-5.359,4.742-7.662
			c1.591-2.533,2.353-5.232,2.674-8.184c0.118-1.1-1.574-1.072-1.711,0c-0.621,4.885-2.845,7.311-5.481,11.186
			c-1.121,1.645-2.326,3.895-1.972,5.945c1.034,5.938,9.058,3.074,12.022,0.699c4.532-3.627,9.144-10.357,6.805-16.373
			c-1.748-4.492-7.348-6.262-10.748-2.49C489.347,272.889,490.229,273.783,490.839,273.193"/>
	</g>
	<g>
		<path fill="#605D5B" d="M472.104,275.371c-0.562-0.137-1.147-0.248-1.698-0.438c-1.375-0.473-2.735-1.92-2.777-3.486
			c-0.035-1.4,1.561-3.217,2.856-3.463c1.283-0.244,3.041,0.385,3.61,1.643c0.264,0.58,0.289,1.748,0.246,2.406
			c-0.125,1.979-1.135,2.775-3.288,3.037c-1.787,0.217-5.063,0.471-6.81-0.184c-1.673-0.629-2.333-3.086-1.896-4.826
			c0.362-1.445,1.212-2.295,2.669-2.75c0.97-0.303,0.571-1.75-0.42-1.52c-4.068,0.939-5.772,7.119-2.431,9.938
			c1.986,1.676,5.63,1.012,7.983,1.002c2.412-0.008,4.678-0.314,5.568-2.879c0.659-1.891,0.451-5.152-1.258-6.43
			c-1.638-1.225-4.065-1.523-5.834-0.41c-1.569,0.992-2.751,3.432-2.567,5.273c0.289,2.904,3.327,3.789,5.755,4.137
			C472.488,276.521,472.807,275.539,472.104,275.371"/>
	</g>
</g>
<g>
	<g>
		<path fill="#F9F9F9" d="M355.916,283.828l-29.893,13.949c10.841,11.721,43.398,29.455,43.398,29.455s59.173,39.27,149.469,36.689
			l26.391-44.766l-39.247-9.354"/>
	</g>
	<g>
		<path fill="#998368" d="M373.247,199.07c0,0-41.096,19.102-50.565,28.811l18.4,69.896c0,0,9.766,9.1,72.44,29.971
			c62.672,20.875,100.231,24.742,100.231,24.742l18.557-37.979c0,0,17.505-62.418,16.175-72.436
			C548.486,242.078,440.611,227.586,373.247,199.07"/>
	</g>
	<g>
		<path fill="#AF967B" d="M385.128,203.174c-5.529-2.309-13.724,4.004-16.693,9.211c-2.972,5.207-2.846,12.033,0.312,17.127
			c4.356,7.027,12.986,9.777,20.541,13.135c5.384,2.395,10.521,5.334,15.984,7.539c4.685,1.891,9.567,3.225,14.391,4.721
			c14.846,4.604,29.249,10.777,44.466,13.943c15.217,3.17,31.812,3.062,45.438-4.414c4.42-2.424,8.67-5.918,10.009-10.773
			c1.765-6.4-2.08-11.365-6.079-16.666C513.498,236.994,431.424,222.49,385.128,203.174"/>
	</g>
	<g>
		<path fill="#998368" d="M518.325,257.832c-0.938-0.043-1.88-0.24-2.799-0.439c-13.596-2.975-27.204-5.988-40.468-10.205
			c15.016,5.775,30.6,10.07,46.452,12.799c0.111-0.434,0.296-0.836,0.505-1.23C520.767,258.52,519.532,258.223,518.325,257.832"/>
	</g>
	<g>
		<path fill="#998368" d="M505.06,247.225c1.217-0.686,2.733-0.328,4.059,0.113c3.385,1.123,6.763,2.693,10.323,2.514l-4.824-2.551
			c2.688-0.385,5.274,1.611,7.974,1.307c0.217,1.107-0.021,2.295-0.645,3.232c-2.784-0.629-5.567-1.256-8.353-1.885
			c-2.123-0.479-4.253-0.957-6.318-1.654C506.492,248.041,505.706,247.74,505.06,247.225"/>
	</g>
	<g>
		<path fill="#998368" d="M367.484,212.027c-0.94,0.521-1.2,1.84-0.811,2.844c0.393,1,1.271,1.73,2.184,2.303
			c3.192,2,7.129,2.605,10.238,4.734c0.197,0.135,0.406,0.299,0.454,0.531c0.067,0.342-0.263,0.658-0.606,0.707
			c-0.346,0.053-0.688-0.088-1.008-0.225c-4.152-1.762-8.246-3.668-12.267-5.717c-0.434-0.223-0.88-0.455-1.197-0.826
			c-0.367-0.436-0.517-1.02-0.556-1.588c-0.097-1.42,0.462-2.871,1.481-3.859c0.878-0.85,3.387-2.16,4.218-3.051
			c3.615,1.332,6.849,2.473,10.306,4.182c1.26,0.621,1.082,2.045-0.146,1.717c-2.62-1.533-5.541-2.549-8.545-2.979
			c1.875,0.869,3.752,1.742,5.627,2.613c-2.58,0.758-5.104-1.354-7.779-1.623C368.535,211.734,367.961,211.764,367.484,212.027"/>
	</g>
	<g>
		<path fill="#7F6C58" d="M323.11,229.426c0,0,98.422,63.156,200.307,72.314c0,0-1.284,27.572-9.662,50.75
			c0,0-43.339-3.98-100.233-24.742c-56.895-20.764-63.072-20.32-72.438-29.973L323.11,229.426z"/>
	</g>
	<g>
		<path fill="#6B533B" d="M547.153,246.771c0,0-15.037,39.85-23.736,54.971c0,0,0.155,20.775-7.074,44.771
			c0,0,13.011-25.277,15.968-32.002C532.311,314.512,547.561,254.617,547.153,246.771"/>
	</g>
</g>
<g>
	<g>
		<path fill="#6B533B" d="M373.896,199.465c28.561,11.525,57.397,20.759,87.442,27.564c28.711,6.5,57.781,11.686,86.916,15.879
			c1.083,0.154,1.562-1.492,0.46-1.666c-29.108-4.572-58.162-9.379-86.916-15.879c-29.994-6.779-58.978-15.842-87.529-27.257
			C373.429,197.772,373.067,199.13,373.896,199.465"/>
	</g>
	<g>
		<path fill="#6B533B" d="M373.062,198.393c-18.09,6.257-35.661,17.201-50.801,28.771c-0.831,0.637-0.039,2.07,0.842,1.438
			c7.904-5.689,15.945-11.105,24.416-15.93c8.482-4.83,17.364-8.656,26.082-12.998C374.307,199.322,373.814,198.133,373.062,198.393
			"/>
	</g>
	<g>
		<path fill="#6B533B" d="M321.962,228.471c14.301,12.791,32.271,20.119,49.507,28.066c15.891,7.324,31.854,14.518,48.166,20.855
			c15.316,5.953,30.866,11.559,46.748,15.818c18.807,5.041,38.187,7.408,57.499,9.521c1.153,0.125,1.146-1.68,0-1.803
			c-19.636-2.145-39.317-4.578-58.409-9.816c-14.86-4.078-29.436-9.285-43.807-14.822c-16.076-6.193-31.799-13.23-47.453-20.406
			c-17.761-8.143-36.208-15.732-51.43-28.238C322.216,227.182,321.396,227.965,321.962,228.471"/>
	</g>
	<g>
		<path fill="#6B533B" d="M548.002,242.248c-7.405,20.197-15.771,39.791-25.281,59.086c-0.454,0.924,0.907,1.736,1.394,0.812
			c10.022-19.02,18.548-39.092,25.229-59.529C549.621,241.76,548.305,241.42,548.002,242.248"/>
	</g>
	<g>
		<path fill="#6B533B" d="M322.083,228.049c5.891,23.34,11.653,46.781,18.227,69.941c0.282,0.992,1.82,0.572,1.549-0.428
			c-6.315-23.229-11.578-46.809-18.576-69.846C323.05,226.953,321.887,227.27,322.083,228.049"/>
	</g>
	<g>
		<path fill="#6B533B" d="M523.323,301.975c-1.938,16.936-5.364,33.992-10.354,50.299c-0.309,1.008,1.269,1.438,1.575,0.436
			c4.967-16.279,8.987-33.717,10.14-50.732C524.743,301.088,523.419,301.123,523.323,301.975"/>
	</g>
	<g>
		<path fill="#6B533B" d="M340.531,297.846c11.15,9.553,25.243,14.004,38.859,18.803c14.679,5.174,29.304,10.49,44.054,15.457
			c29.199,9.828,59.401,19.186,90.311,21.285c1.163,0.08,1.146-1.707,0-1.801c-30.161-2.537-59.453-11.115-88.052-20.662
			c-13.733-4.584-27.361-9.473-41.018-14.281c-14.977-5.27-30.645-9.693-43.342-19.615
			C340.775,296.586,339.96,297.355,340.531,297.846"/>
	</g>
	<g>
		<path fill="#6B533B" d="M548.163,243.549c-4.425,23.92-9.392,47.49-16.57,70.764c-0.283,0.918,1.148,1.309,1.438,0.396
			c7.271-23.08,13.265-46.961,16.223-71.012C549.329,243.082,548.276,242.936,548.163,243.549"/>
	</g>
	<g>
		<path fill="#6B533B" d="M531.761,314.189c-6.191,11.662-11.846,23.607-17.956,35.314c-0.48,0.922,0.881,1.73,1.4,0.82
			c6.527-11.471,12.062-23.553,17.654-35.492C533.203,314.102,532.15,313.457,531.761,314.189"/>
	</g>
</g>
<path fill="#FFFFFF" d="M384.54,165.224c0,0-11.275,6.987-9.97,9.815c1.305,2.829,11.278-2.88,15.956-7.374
	c4.677-4.494,7.068-6.402,5.97-7.749C395.396,158.569,387.691,162.444,384.54,165.224"/>
<path fill="#F66EAD" d="M373.725,175.027c0,0,6.432-7.095,10.564-9.487c4.135-2.394,11.826-6.089,11.826-6.089
	s-7.702-10.573-12.83-15.463c-5.129-4.891-12.728-12.133-18.699-6.026C358.614,144.07,365.844,165.511,373.725,175.027"/>
<path fill="#F66EAD" d="M355.172,218.91c0,0-4.392,0.375-4.537,4.002c-0.145,3.627,4.787,8.484,13.128,7.904
	c8.343-0.58,17.665-5.367,16.993-8.484c-0.674-3.119-9.89-6.283-20.259-4.848c0,0-6.255-34.681-6.825-40.702
	c-0.571-6.021-0.854-20.818,10.711-19.077l-1.578-5.537c0,0-8.137-0.836-12.111,7.282c-3.976,8.12-2.283,18.401,0.09,32.054
	C353.154,205.156,355.172,218.91,355.172,218.91"/>
<polygon fill="#D1D1D1" points="364.234,137.961 360.988,136.492 362.812,134.501 365.269,136.78 "/>
<path fill="#FF85C2" d="M387.04,158.114c0.327,0.28,0.683,0.562,1.108,0.642c0.983,0.187,1.862-0.845,1.896-1.847
	c0.033-1.003-0.513-1.925-1.066-2.761c-4.793-7.241-11.638-13.108-19.525-16.737c-0.211-0.096-0.427-0.193-0.657-0.213
	c-0.425-0.035-0.822,0.193-1.188,0.413c-0.593,0.355-1.2,0.728-1.604,1.292c-0.401,0.562-0.542,1.372-0.146,1.94
	c0.414,0.595,1.226,0.719,1.941,0.834c1.199,0.192,2.382,0.498,3.504,0.959c3.436,1.412,6.112,4.191,8.449,7.077
	C382.088,152.599,384.219,155.699,387.04,158.114"/>
<path fill="#FF85C2" d="M373.73,219.986c0.52,0.062,1.052,0.152,1.502,0.42c1.309,0.771,1.381,2.785,0.499,4.025
	c-0.882,1.238-2.391,1.854-3.852,2.273c-2.322,0.666-4.729,0.994-7.132,1.236c-0.505,0.053-1.027,0.1-1.505-0.07
	c-0.479-0.166-0.898-0.609-0.869-1.115c0.05-0.846,1.122-1.137,1.953-1.303c1.115-0.225,2.194-0.625,3.186-1.189
	c0.615-0.348,1.25-0.844,1.334-1.547c0.074-0.613-0.295-1.178-0.514-1.758c-0.081-0.211-0.136-0.465-0.005-0.65
	c0.116-0.162,0.333-0.209,0.529-0.238C370.469,219.82,372.113,219.791,373.73,219.986"/>
<path fill="#777777" d="M364.207,137.651c-0.925-0.825-2.036-1.361-3.234-1.658c0.071,0.268,0.144,0.536,0.212,0.803
	c0.311-0.329,0.619-0.661,0.928-0.991c0.146-0.158,0.294-0.365,0.464-0.497c0.3-0.23,0.17-0.265,0.493-0.068
	c0.324,0.196,0.629,0.714,0.884,1c0.33,0.375,0.656,0.754,0.997,1.121c0.4,0.431,1-0.198,0.637-0.637
	c-0.494-0.602-1.015-1.182-1.525-1.771c-0.283-0.327-0.579-0.795-1.03-0.892c-0.378-0.08-0.617,0.096-0.893,0.331
	c-0.587,0.504-1.101,1.161-1.633,1.725c-0.239,0.254-0.15,0.714,0.213,0.803c1.106,0.27,2.038,0.76,2.957,1.421
	C364.079,138.632,364.578,137.981,364.207,137.651"/>
<path fill="#CC508E" d="M374.826,175.354c-4.133-4.743-7.117-11.367-9.407-17.185c-2.233-5.675-4.979-14.942-0.081-20.004
	c5.729-5.917,13.809,2.312,17.643,6.514c4.58,5.02,8.729,10.467,13.021,15.731c0.569,0.696,1.552-0.297,0.987-0.987
	c-5.45-6.675-10.604-14.055-17.104-19.767c-4.193-3.689-10.744-7.381-15.527-2.471c-4.847,4.974-3.011,13.602-1.003,19.411
	c1.213,3.508,2.845,6.856,4.563,10.138c1.72,3.285,3.325,6.882,6.112,9.416C374.571,176.638,375.301,175.899,374.826,175.354"/>
<path fill="none" stroke="#CC508E" stroke-width="2" stroke-miterlimit="10" d="M355.664,220.445
	c-0.01-0.072-1.081-7.617-6.366-37.331c-2.304-12.943-1.017-22.051,3.823-27.072c4.421-4.586,9.446-3.906,9.684-3.873"/>
<path fill="none" stroke="#CC508E" stroke-width="2" stroke-miterlimit="10" d="M364.383,157.401
	c-0.136-0.016-5.021-0.368-7.563,2.331c-2.446,2.596-4.847,8.601-2.38,22.466c5.313,29.878,6.355,37.224,6.397,37.522"/>
<path fill="#CC508E" d="M355.001,218.289c-2.445,0.754-5.293,1.896-5.532,4.846c-0.197,2.439,1.735,4.613,3.633,5.861
	c5.967,3.918,15.445,2.098,21.652-0.361c2.277-0.902,5.609-2.426,6.521-4.945c0.887-2.449-1.014-4.357-3.067-5.301
	c-5.021-2.303-11.896-1.809-17.273-1.686c-1.036,0.023-1.042,1.635,0,1.613c3.392-0.062,6.798-0.021,10.181,0.248
	c1.582,0.125,3.191,0.266,4.735,0.654c1.994,0.504,5.567,1.658,3.13,5.197c-0.597,0.863-2.111,1.592-3.014,2.057
	c-4.261,2.197-9.552,3.146-14.309,3.213c-2.71,0.037-5.548-0.361-7.854-1.895c-1.097-0.73-2.433-1.969-2.784-3.283
	c-0.843-3.16,2.001-4.225,4.323-4.979C356.128,219.277,355.798,218.045,355.001,218.289"/>
<path fill="#FFC0E3" d="M395.125,159.032c-6.091,2.123-11.696,5.702-16.467,10.018c-1.297,1.172-2.533,2.411-3.709,3.706
	c-0.52,0.571-1.501,1.367-1.497,2.253c0.009,1.388,1.648,1.542,2.707,1.463c3.075-0.232,6.418-2.323,8.933-3.958
	c2.688-1.751,5.159-3.83,7.526-5.989c1.391-1.268,5.051-3.576,5.142-5.685c0.051-1.187-1.084-2.251-2.211-1.894
	c-0.809,0.255-0.473,1.508,0.353,1.276c0.258,0.937,0,1.635-0.773,2.095c-0.226,0.22-0.453,0.44-0.68,0.66
	c-0.797,0.771-1.599,1.539-2.41,2.295c-1.487,1.382-3.009,2.724-4.605,3.978c-1.704,1.337-3.483,2.578-5.383,3.624
	c-0.61,0.335-6.566,3.662-6.537,1.119c0.015-1.033,3.255-3.343,4.041-4.047c1.618-1.447,3.328-2.79,5.117-4.021
	c3.426-2.358,7.101-4.174,10.896-5.847C396.153,159.817,395.735,158.82,395.125,159.032"/>
<g>
	<g>
		<path fill="#587572" d="M474.023,123.49c-8.062,2.046-14.607,6.866-19.494,13.549c-2.9,3.966-4.405,8.499-5.811,13.146
			c-1.668,5.525-3.564,10.979-5.275,16.49c-2.264,7.284-6.438,17.104-1.5,24.135c3.641,5.184,11.476,5,16.946,4.031
			c0.836-0.148,1.66-1.118,0.314-0.881c-6.46,1.146-13.834,0.387-16.812-6.271c-2.982-6.667,1.476-16.5,3.471-22.925
			c5.093-16.398,9.183-35.638,28.368-40.507C475.378,123.968,475.166,123.2,474.023,123.49L474.023,123.49z"/>
	</g>
</g>
<g>
	<g>
		<path fill="#587572" d="M513.499,124.307c7.553,1.776,13.563,7.269,17.899,13.49c4.59,6.585,4.957,14.841,5.312,22.603
			c0.366,7.991-0.213,15.995-0.021,23.988c0.103,4.275-1.915,10.623-6.688,11.693c-4.677,1.05-12.776,0.164-17.286-1.648
			c-0.525-0.211-1.984,0.584-1.822,0.648c6.292,2.529,15.262,3.025,21.78,0.843c7.946-2.661,5.789-16.44,5.941-22.488
			c0.262-10.41,1.193-22.757-3.17-32.47c-3.637-8.09-11.694-15.354-20.354-17.392C514.65,123.472,512.971,124.183,513.499,124.307
			L513.499,124.307z"/>
	</g>
</g>
<g>
	<g>
		<path fill="#D1D1D1" d="M422.458,148.905c0,0-5.371-1.592-5.371,4.603v43.514c0,0,0.306,3.912,5.494,3.912h66.12
			c0,0,4.273,0.545,4.273-5.975v-42.321c0,0,0.248-3.699-5.318-3.699C482.089,148.938,422.458,148.905,422.458,148.905"/>
		<path fill="#DBDBDB" d="M417.277,197.408c13.655-11.75,15.533-20.903,32.108-27.026c7.954-2.941,14.144-5.144,22.299-7.369
			c10.97-2.995,10.303-2.762,21.29-5.754v-4.621c0,0,1.426-3.912-6.512-3.912H422.58c0,0-5.494-0.869-5.494,6.52
			S417.277,197.408,417.277,197.408"/>
		<path fill="#EDEDED" d="M454.206,166.319c-0.106,0.017-6.302,0.896-6.302,6.728s8.245,9.2,11.399,3.224
			C462.458,170.296,458.465,165.712,454.206,166.319"/>
	</g>
	<g>
		<path fill="#777777" d="M416.604,153.508c-0.104,15.698-0.381,28.253-0.013,43.948c0.017,0.683,0.978,0.684,0.994,0
			c0.369-15.695,0.093-28.25-0.013-43.948C417.567,152.842,416.609,152.842,416.604,153.508"/>
		<path fill="#777777" d="M422.581,149.18c30.934,0.535,34.678,0.536,65.613,0.104c0.672-0.007,0.673-1.106,0-1.114
			c-30.937-0.432-34.681-0.432-65.613,0.104C422.037,148.282,422.037,149.17,422.581,149.18"/>
		<path fill="#777777" d="M417.399,153.599c0.322-1.35-0.072-2.63,1.266-3.479c1.141-0.725,2.616-0.946,3.916-0.899
			c0.61,0.019,0.575-0.916,0-0.988c-2.848-0.367-7.152,1.569-5.805,5.366C416.883,153.9,417.316,153.954,417.399,153.599"/>
		<path fill="#777777" d="M493.637,195.904c0.104-15.701,0.381-28.255,0.014-43.95c-0.02-0.685-0.979-0.685-0.996,0
			c-0.369,15.695-0.094,28.25,0.012,43.95C492.672,196.567,493.629,196.568,493.637,195.904"/>
		<path fill="#777777" d="M487.657,200.23c-31.376-0.535-35.56-0.535-66.937-0.104c-0.674,0.008-0.674,1.104,0,1.113
			c31.377,0.432,35.561,0.432,66.937-0.105C488.203,201.127,488.204,200.24,487.657,200.23"/>
		<path fill="#777777" d="M492.839,195.811c-0.322,1.349,0.073,2.631-1.266,3.479c-1.144,0.725-2.62,0.946-3.916,0.901
			c-0.609-0.023-0.575,0.912,0,0.984c2.848,0.367,7.15-1.568,5.806-5.365C493.357,195.511,492.924,195.455,492.839,195.811"/>
		<path fill="#777777" d="M493.688,153.733c0.294-2.037,0.116-3.116-0.93-4.041c-1.352-1.188-3.58-1.68-5.274-1.428
			c-0.74,0.111-0.676,1.11,0.05,1.099c1.275-0.021,2.81,0.447,3.938,1.153c1.32,0.826,1.094,1.516,1.232,3.335
			c0.03,0.394,0.635,0.524,0.848,0.118"/>
		<path fill="#777777" d="M416.979,195.811c-1.346,3.796,2.961,5.732,5.808,5.365c0.574-0.072,0.608-1.008,0-0.984
			c-1.301,0.045-2.771-0.178-3.917-0.901c-1.34-0.846-0.943-2.131-1.266-3.479C417.519,195.455,417.086,195.511,416.979,195.811"/>
		<path fill="#FFFFFF" d="M450.002,167.278c-3.254,1.544-3.479,6.817-1.81,9.67c1.939,3.318,6.396,4.251,9.458,2.185
			c3.171-2.136,5.02-7.502,2.677-10.971c-2.646-3.919-7.644-2.884-10.989-0.798c-0.803,0.499-0.092,1.784,0.725,1.323
			c2.477-1.396,5.791-2.525,8.234-0.411c2.88,2.485,1.484,7.64-1.341,9.588c-2.223,1.533-5.394,1.143-7.202-0.944
			c-1.898-2.191-2.04-7.17,0.846-8.553C451.294,168.035,450.693,166.951,450.002,167.278"/>
	</g>
	<polygon fill="#777777" points="493.782,158.889 493.851,169.746 492.493,168.422 	"/>
</g>
<g>
	<g>
		<path fill="#587572" d="M515.432,183.106c4.975,0.03,8.078,0.042,8.278-5.742c0.24-6.923-0.679-14.627-3.571-20.936
			c-0.318-0.697-1.851-0.252-1.545,0.414c2.287,4.988,3.022,10.136,3.276,15.588c0.079,1.68,0.205,3.362,0.271,5.042
			c0.185,4.633-3.409,4.489-6.58,4.47C514.665,181.938,514.386,183.1,515.432,183.106L515.432,183.106z"/>
	</g>
</g>
<path fill="#B5A38C" d="M506.377,176.921c0,0,0.268-1.646,2.625-0.445s6.806,4.759,6.806,4.759s0.534,4.761-0.578,4.895
	c-1.112,0.133-3.559-0.757-3.559-0.757l2.49,3.336c0,0-2.225,6.94-4.182,7.03c-1.957,0.088-9.207-3.07-9.118-4.671
	s1.69,0.533,3.336-0.49c1.646-1.022,3.736-3.915,4.226-5.872S508.289,178.078,506.377,176.921z"/>
<g>
	<path fill="#F4C09D" d="M507.09,177.098c0,0,2.668,5.116,0.979,8.407c-1.689,3.292-5.293,5.338-5.293,5.338
		s-4.183-0.579-6.672-0.979c-2.491-0.4-7.785-4.182-7.785-4.182s-4.804-0.533-6.449,0.49c-1.646,1.023-2.314,1.78-3.826,0.935
		c-1.512-0.846-3.114-1.602-1.468-3.737c1.646-2.135,4.537-4.137,4.537-4.137s-3.336-0.223-4.671,0.711
		c-1.334,0.934-2.49,1.646-3.559,0.489c-1.067-1.156-0.979-4.893,1.779-6.227c0,0-1.469-5.249,2.045-6.672
		c3.515-1.423,11.7-0.312,16.237,2.09l0.534-7.339c0,0,2.802,0.89,4.092,4.582c1.289,3.691,1.558,5.961,4.715,7.518
		C505.443,175.941,507.09,177.098,507.09,177.098z"/>
	<path fill="#FFD0B0" d="M493.276,165.71c1.624-0.212,2.923,2.416,3.137,3.659c0.078,0.46,0.371,1.545-0.116,1.882
		c-0.4,0.277-1.637-0.247-2.054-0.43c-2.047-0.896-3.958-2.295-6.187-2.86c-2.623-0.667-5.081-1.578-7.859-0.85
		c-0.772,0.203-2.088,0.582-2.584,1.2c-0.671,0.834-0.156,1.932,0.781,2.284c0.709,0.267,1.854,0.219,2.604,0.253
		c0.96,0.046,1.886-0.06,2.804,0.199c1.18,0.332,4.078,1.248,4.262,2.724c-1.49,0.092-2.978,0.069-4.395-0.325
		c-1.026-0.287-2.074-0.397-3.201-0.397c-1.966,0-5.534,0.419-5.674,2.984c-0.1,1.843,3.198,1.424,4.47,1.487
		c1.091,0.054,2.218,0.209,3.271,0.486c1.062,0.277,1.78,0.928,2.711,1.433c-0.827,0.494-2.282-0.003-3.245,0.083
		c-1.199,0.108-1.998,0.651-2.922,1.42c-0.799,0.665-1.785,1.766-1.468,2.915c0.369,1.337,2.218,1.338,3.19,0.82
		c0.88-0.468,1.735-1.09,2.665-1.47c1.299-0.532,2.734-0.548,4.143-0.548c3.434,0,6.568,2.084,9.969,2.399
		c2.793,0.258,5.37-0.152,7.025-2.614c1.147-1.707,0.892-4.869-0.484-6.394c-1.429-1.583-4.005-2.317-5.057-4.264
		c-0.285-0.533-0.388-1.191-0.631-1.738c-0.241-0.541-0.555-1.071-0.7-1.649c-0.291-1.155-0.187-2.437-0.852-3.488
		c-0.936-1.48-2.411-1.958-4.009-2.311c0.009,0.406-0.007,0.785-0.062,1.176"/>
	<path fill="none" stroke="#AD846F" stroke-width="1.1" stroke-linecap="round" stroke-miterlimit="10" d="M494.366,170.47
		c-1.04-0.968-2.781-1.487-4.25-2.071c-1.475-0.585-2.924-1.108-4.493-1.331c-3.07-0.438-6.595-0.674-9.41,0.979
		c-1.201,0.705-1.742,1.324-1.774,2.691c-0.027,1.126,0.243,2.302,0.801,3.203"/>
	<path fill="none" stroke="#AD846F" stroke-width="1.1" stroke-linecap="round" stroke-miterlimit="10" d="M487.961,173.94
		c-0.833-0.212-3.259-0.666-4.092-0.801c-1.414-0.229-3.062-0.087-4.537-0.09c-2.803-0.005-5.998,1.301-7.207,4.088
		c-0.754,1.74,0.576,4.234,2.578,4.01c0.759-0.085,1.568-1.271,2.403-1.604c1.004-0.401,4.094-0.533,4.981-0.177"/>
	<path fill="none" stroke="#AD846F" stroke-width="1.1" stroke-linecap="round" stroke-miterlimit="10" d="M493.299,162.464
		c0.853-0.988,3.147,1.728,3.56,2.402c0.629,1.035,1.168,2.433,1.518,3.554c0.388,1.248,0.413,2.947,1.263,3.99
		c0.925,1.134,2.47,1.886,3.649,2.687c0.165,0.111,3.718,2.34,3.901,2.524"/>
	<path fill="none" stroke="#AD846F" stroke-linecap="round" stroke-miterlimit="10" d="M487.16,179.9
		c-1.838-0.34-4.906-1.07-6.793-0.086c-1.244,0.648-2.51,1.628-3.373,2.753c-0.843,1.098-1.562,2.59-0.401,3.719
		c0.865,0.841,2.448,1.862,3.626,1.243c0.576-0.302,0.914-1.008,1.448-1.378c0.638-0.442,1.366-0.481,2.112-0.557
		c1.514-0.153,3.087-0.185,4.518,0.374c2.626,1.026,5.067,3.786,7.938,4.069c0.829,0.082,1.975,0.353,2.758,0.353h-0.089
		c1.103,0,2.312,0.455,3.381,0.721"/>
</g>
<path fill="none" stroke="#82786F" stroke-miterlimit="10" d="M507.122,177.587c0.915,1.104,1.271,2.49,1.342,3.903
	c0.064,1.324,0.194,2.68-0.266,3.955c-0.525,1.451-1.476,2.504-2.52,3.608c-0.374,0.395-0.792,0.73-1.19,1.084
	c-0.381,0.337-0.803,0.722-1.301,0.829c-0.373,0.079-0.619-0.002-1.036-0.135"/>
<path fill="none" stroke="#82786F" stroke-miterlimit="10" d="M505.933,176.698c0.516-0.675,1.604-0.646,2.314-0.389
	c0.824,0.298,1.583,0.775,2.268,1.332c0.761,0.62,1.581,1.118,2.358,1.725c0.417,0.325,0.841,0.642,1.289,0.927
	c0.537,0.34,0.984,0.771,1.512,1.12"/>
<path fill="#DACDBC" d="M509.891,180.256c0.229,1.404,0.549,2.842,0.203,4.306c-0.374,1.578-0.984,3.483-1.984,4.783
	c-0.54,0.701-2.131,1.567-1.825,2.586c0.345,1.152,2.293,1.534,3.159,1.02c1.294-0.771,2.606-2.518,3.185-3.888
	c0.104-0.244,0.345-0.746,0.333-1c-0.021-0.497-0.419-0.611-0.804-1.004c-0.479-0.487-0.937-1.276-1.057-1.922
	c0.575-0.028,1.184-0.053,1.728,0.105c0.501,0.148,0.925,0.54,1.458,0.475c0.472-1.69-0.146-3.539-1.393-4.727
	c-0.493-0.471-1.043-0.813-1.666-1.001c-0.338-0.101-1.686-0.353-1.337,0.4"/>
<path fill="none" stroke="#82786F" stroke-miterlimit="10" d="M500.771,190.532c0,0.887,0.224,1.415,0.981,1.902
	c0.798,0.513,1.499,1.158,2.354,1.601c0.781,0.404,1.782,0.75,2.626,1.002c0.804,0.242,1.667,0.47,2.491,0.646
	c0.444,0.097,0.878,0.265,1.286,0.062c0.377-0.188,0.726-0.664,0.983-0.985c0.607-0.757,1.072-1.616,1.553-2.455
	c0.411-0.719,0.66-1.313,0.834-2.123c0.102-0.47,0.28-0.805,0.325-1.427c-0.312-0.4-1.148-1.216-1.468-1.513
	c-0.667-0.623-1.157-1.334-1.603-2.135c0.327-0.166,2.979,0.49,4.227,1.468"/>
<path fill="none" stroke="#82786F" stroke-miterlimit="10" d="M515.541,181.412c0.636-0.079,0.298,4.635-0.534,5.25"/>
<path fill="none" stroke="#82786F" stroke-miterlimit="10" d="M511.138,185.104c1.022-0.177,2.979,0.49,4.227,1.468"/>
<polygon fill="#777777" points="493.788,160.105 493.832,169.313 492.453,168.601 492.587,160.239 "/>
<path fill="#F4C09D" d="M418.231,177.855c0.817,0.032,1.739-0.308,2.425,0.269c0.656,0.553,1.097,1.294,1.23,2.212
	c0.111,0.764-0.142,1.512-0.604,2.068c-0.388,0.465-0.972,0.792-1.34,1.269c1.188,0.053,2.632,0.982,2.747,2.344
	c0.112,1.337-1.591,2.079-2.149,3.092c0.883,0.239,1.621,0.914,2.023,1.824c0.479,1.087,0.114,1.95-0.625,2.76
	c-0.723,0.79-2.013,1.496-2.988,1.866c-0.837,0.317-2.149,0.728-3.051,0.578c-0.331-0.054-0.729-0.229-1.031-0.367
	c-0.349-0.155-0.746-0.248-1.106-0.401c-1.001-0.422-1.728-1.513-2.119-2.533c-0.341-0.883-0.479-1.67-0.159-2.571
	c0.3-0.849,0.762-1.231,0.427-2.145c-0.332-0.913-0.518-2.108-0.261-3.058c0.116-0.432,0.317-0.935,0.637-1.237
	c0.272-0.26,0.962-0.368,1.146-0.69c0.184-0.316-0.931-1.668-1.123-2.126c-0.321-0.763-0.033-1.745,0.342-2.443
	c0.468-0.872,1.774-1.397,2.667-1.56c0.389-0.071,0.871,0.003,1.249,0.049c0.538,0.065,1.073,0.398,1.625,0.353"/>
<path fill="#FFD0B0" d="M414.066,177.722c-0.523-0.292-0.716,1.247-0.574,1.602c0.25,0.637,0.958,0.836,1.543,0.89
	c1.09,0.101,2.447,0.224,3.446-0.301c0.581-0.307,1.382-0.775,0.76-1.49c-0.61-0.704-1.937-0.882-2.789-0.924
	c-0.452-0.022-1.115-0.084-1.511,0.133"/>
<path fill="#FFD0B0" d="M417.94,183.949c0.146,0.312,0.818,0.381,1.032,0.754c0.206,0.365,0.106,0.917-0.084,1.257
	c-0.686,1.228-2.491,1.245-3.655,1.013c-0.851-0.169-2.184-0.759-2.494-1.727c-0.257-0.8,0.83-1.436,1.452-1.565
	c0.931-0.195,2.103-0.079,3.04-0.044"/>
<path fill="none" stroke="#AD846F" stroke-linecap="round" stroke-miterlimit="10" d="M417.561,177.377
	c-1.792-0.504-5.059-0.639-5.224,2.211c-0.173,2.985,1.276,3.989,3.815,3.981c1.578-0.003,4.075,0.433,5.152-1.097
	c1.085-1.54,0.208-4.142-1.333-4.543c-0.737-0.192-1.537-0.009-2.209-0.442"/>
<path fill="#FFD0B0" d="M418.523,190.087c0.876-0.104,1.139,0.864,0.812,1.573c-0.565,1.226-2.525,1.221-3.616,1.264
	c-1.138,0.045-2.789-0.338-3.693-1.148c-0.563-0.504-1.016-1.884-0.213-2.412c1.007-0.663,2.659,0.099,3.702,0.268
	c1.057,0.171,2.117-0.011,3.176,0.143"/>
<path fill="none" stroke="#AD846F" stroke-linecap="round" stroke-miterlimit="10" d="M414.357,183.415
	c-2.874-0.757-3.267,3.784-2.249,5.275c0.884,1.298,3.98,1.388,5.351,1.298c1.663-0.109,3.705-1.008,4.751-2.54
	c1.316-1.929-0.336-3.23-2.036-3.434c-0.554-0.067-0.97-0.174-1.508-0.332"/>
<path fill="none" stroke="#AD846F" stroke-linecap="round" stroke-miterlimit="10" d="M419.975,189.324
	c1.701-0.744,3.114,1.534,2.621,3.317c-0.542,1.952-3.999,2.742-5.536,2.992c-1.988,0.323-4.271-0.111-5.147-2.326
	c-0.395-0.996-1.007-4.26,0.828-3.984"/>
<g>
	<path fill="#F4C09D" d="M451.55,96.299c0,0-8.662,1.95-4.377,11.741c2.697,5.792,8.359,3.821,8.359,3.821l3.087,9.188
		c0,0,15.389,6.843,21.263,6.885c5.879,0.044,22.782,0.582,36.855-7.743l2.06-13.494c0,0,9.006,0.854,10.698-6.357
		c1.689-7.213-4.058-10.326-4.058-10.326l0.2-47.784l-77.172,3.328L451.55,96.299z"/>
	<path fill="#D6A380" d="M451.251,81.165c0.001-2.962,0.271-5.921,0.798-8.836c0.163-0.901,0.356-1.812,0.781-2.625
		c0.481-0.918,1.236-1.662,1.988-2.376c1.832-1.739,3.735-3.403,5.703-4.987c0.252,1.27,0.661,2.506,1.218,3.674
		c3.044-3.247,7.282-5.346,11.71-5.799c0.518-0.052,1.127-0.14,1.367-0.6c0.168-0.319,0.09-0.705,0.006-1.054
		c-0.395-1.667-0.787-3.335-1.18-5.003c6.19-2.319,12.758-3.627,19.365-3.858c0.556,1.448,0.887,2.983,0.972,4.532
		c4.204-2.13,9.539-1.827,13.477,0.765c0.247,0.165,0.519,0.344,0.813,0.312c0.227-0.023,0.417-0.165,0.586-0.315
		c1.013-0.896,1.571-2.276,1.476-3.623c4.36,2.353,9.061,5.083,10.789,9.725c1.215,3.261,0.743,6.998,2.162,10.174
		c1.459-5.049,0.693-10.698-2.053-15.178c-0.888-1.445-1.979-2.779-3.289-3.857c-1.932-1.586-4.278-2.575-6.644-3.38
		c-9.711-3.305-20.352-3.824-30.34-1.481c-9.985,2.342-19.285,7.541-26.51,14.821c-1.387,1.395-2.723,2.903-3.471,4.72
		c-1.336,3.234-0.626,6.906,0.101,10.33"/>
	<path fill="#565C56" d="M451.553,94.818c0.156-1.097-9.861-9.21-11.646-32.555c-1.783-23.345,0.028-35.872,0.028-35.872
		s13.722-10.782,46.166-8.878c32.444,1.905,44.642,13.594,49.793,31.023c0,0-5.743,38.908-13.295,44.282
		c0,0,2.013-25.416,1.19-29.729c-0.817-4.315-1.503-9.312-9.561-13.248c-8.059-3.935-20.938-5.694-32.146-2.616
		c-11.212,3.079-26.572,10.166-31.705,20.63L451.553,94.818z"/>
	<path fill="#747A74" d="M440,33.431c-0.65,3.822-1.302,7.736-0.612,11.55c0.692,3.814,3.007,7.572,6.654,8.891
		c1.998,0.724,4.21,0.658,6.294,0.232c6.8-1.39,12.241-6.278,17.746-10.505c5.507-4.227,12.133-8.117,18.98-6.986
		c3.759,0.62,7.271,2.733,11.075,2.597c4.729-0.169,9.2-3.804,13.775-2.598c2.039,0.538,3.711,1.979,5.185,3.489
		c1.475,1.509,2.854,3.152,4.635,4.285c1.778,1.132,4.1,1.683,6.012,0.795c1.913-0.888,2.984-3.554,1.731-5.253
		c0,0-7.017-21.022-41.943-22.021c-34.93-0.999-49.597,8.485-49.597,8.485L440,33.431z"/>
	<path fill="#858C85" d="M468.683,44.686c0,0,8.622-8.215,15.959-8.306c7.337-0.089,12.056,2.495,12.056,2.495l13.928-2.404
		c0,0-5.194,2.296-7.804,3.223c-2.608,0.927-6.432-0.928-11.639-1.659c-5.207-0.732-10.72-0.361-16.608,3.144L468.683,44.686z"/>
	<path fill="#434943" d="M467.402,43.785c0,0-7.299-0.415-11.102,9.151c-3.806,9.563,2.363,12.84,2.363,12.84
		s3.057-9.048,13.062-8.597C471.729,57.179,469.104,44.988,467.402,43.785"/>
	<path fill="#434943" d="M495.03,39.521l1.121,10.785c0,0,10.404-4.652,16.101,3.774c0,0,4.543-9.035-2.368-13.762
		C502.972,35.592,495.03,39.521,495.03,39.521"/>
	<path fill="#FFD0B0" d="M461.449,122.101c-6.484-2.823-3.198-13.803-3.586-20.867c-0.167-3.065-0.182-6.177,0.538-9.163
		c1.591-6.617,6.688-11.995,12.651-15.274c5.966-3.281,12.763-4.708,19.5-5.671c4.286-0.615,8.848-1.019,12.771,0.809
		c1.312,0.612,2.509,1.456,3.613,2.395c6.573,5.581,9.841,14.408,9.94,23.031c0.104,8.622-2.68,17.064-6.556,24.767
		C510.324,122.127,489.387,134.259,461.449,122.101"/>
	<path fill="#FFFFFF" d="M467.122,72.801c-0.86,0.413-8.307,5.437-5.217,15.609c3.086,10.175,11.637,10.922,15.05,8.657
		c3.417-2.265,6.987-6.123,3.735-14.582C477.438,74.025,473.005,69.983,467.122,72.801"/>
	<path fill="#FFFFFF" d="M494.92,72.813c0,0-5.888,11.311-2.128,16.784c3.759,5.479,12.656,6.008,14.899,1.32
		c2.242-4.687,3.678-16.589,0.448-20.762C504.912,65.981,500.704,62.653,494.92,72.813"/>
	<path fill="#EAEAEA" d="M461.283,85.548c0,0,2.907-6.966,14.98-11.171c0,0-13.021-9.775-15.386,11.815"/>
	<path fill="#EAEAEA" d="M496.364,70.506c0,0,7.708-0.691,13.646,6.948c0,0-0.114-9.079-4.533-10.107
		C501.062,66.317,498.882,66.236,496.364,70.506"/>
</g>
<path fill="#AD846F" d="M451.421,95.6c-5.245,0.865-7.53,6.297-5.827,11.103c1.221,3.442,6.704,8.493,10.486,5.601
	c0.916-0.701-0.288-2.144-1.149-1.372c-2.529,2.272-6.839-2.585-7.606-4.547c-1.479-3.787,0.146-8.431,4.353-9.387
	C452.562,96.793,452.327,95.452,451.421,95.6"/>
<path fill="#AD846F" d="M525.398,91.559c3.636,2.189,4.544,6.353,2.594,10.094c-1.883,3.613-5.402,4.156-9.122,4.212
	c-1.051,0.016-1.238,1.554-0.146,1.663c4.709,0.466,9.489-1.34,11.296-5.991c1.62-4.173,0.604-9.567-3.973-11.204
	C525.325,90.075,524.698,91.138,525.398,91.559"/>
<path fill="#AD846F" d="M451.193,95.036c-0.4,2.541,1.059,5.494,2.389,7.57c0.523,0.815,1.67-0.062,1.355-0.868
	c-0.869-2.235-2.259-4.31-2.448-6.762C452.426,94.202,451.299,94.351,451.193,95.036"/>
<path fill="#AD846F" d="M521.64,93.698c-0.286,1.634-0.766,3.197-1.181,4.801c-0.271,1.056,1.213,1.666,1.622,0.604
	c0.641-1.669,0.931-3.498,1.118-5.267C523.309,92.819,521.809,92.718,521.64,93.698"/>
<path fill="#373A37" d="M439.174,26.325c-1.72,13.03-1.465,26.374,0.253,39.393c1.404,10.629,3.973,21.579,11.45,29.667
	c0.771,0.832,2.119-0.287,1.354-1.132c-7.558-8.339-9.907-19.439-11.231-30.298c-1.521-12.495-1.355-24.975-0.302-37.495
	C440.781,25.473,439.303,25.35,439.174,26.325"/>
<path fill="#373A37" d="M440.19,26.929c17.105-9.016,36.255-9.809,55.147-7.981c9.238,0.894,17.744,3.112,25.189,8.875
	c7.006,5.422,11.403,12.563,14.344,20.799c0.342,0.961,1.966,0.446,1.712-0.55c-4.443-17.312-20.533-28.252-37.55-30.283
	c-19.76-2.358-41.736-2.424-59.352,8.065C439.04,26.239,439.502,27.292,440.19,26.929"/>
<path fill="#373A37" d="M535.2,48.474c-1.44,8.053-2.945,16.075-4.924,24.016c-1.796,7.192-3.519,14.294-7.849,20.433
	c-0.646,0.92,0.693,1.822,1.4,0.994c4.854-5.681,6.416-13.728,8.147-20.792c1.982-8.078,3.621-16.264,4.611-24.527
	C536.696,47.697,535.356,47.606,535.2,48.474"/>
<path fill="#373A37" d="M467.506,42.624c-10.349-0.663-17.636,16.266-10.183,23.408c0.769,0.735,2.025-0.242,1.297-1.087
	c-6.044-7.012-0.029-19.908,8.952-20.852C468.41,44.004,468.332,42.677,467.506,42.624"/>
<path fill="#373A37" d="M467.258,43.479c1.44,4.568,2.641,9.168,3.642,13.851c0.299-0.329,0.602-0.66,0.902-0.99
	c-6.313-0.461-11.967,3.045-14,9.114c-0.376,1.125,1.343,1.771,1.729,0.645c1.761-5.148,6.639-8.561,12.123-8.08
	c0.543,0.046,1.004-0.451,0.901-0.99c-0.894-4.778-2.182-9.45-3.815-14.024C468.443,42.178,466.991,42.63,467.258,43.479"/>
<path fill="#373A37" d="M494.91,40.141c4.186-0.97,8.774-1.438,12.867,0.262c6.149,2.55,5.85,8.034,3.68,13.38
	c-0.417,1.026,1.134,1.57,1.592,0.594c2.154-4.593,2.882-10.77-1.756-14.153c-4.607-3.363-11.667-3.228-16.756-1.245
	C493.889,39.231,494.23,40.299,494.91,40.141"/>
<path fill="#373A37" d="M494.054,39.817c0.004,3.595,0.524,7.129,1.265,10.64c0.115,0.555,0.682,0.823,1.193,0.612
	c5.162-2.109,11.806-1.227,15.023,3.611c0.668,1.005,2.098-0.208,1.437-1.202c-3.693-5.565-11.343-6.516-17.183-3.94
	c0.398,0.204,0.796,0.409,1.194,0.614c-0.748-3.447-1.153-6.902-1.553-10.401C495.344,38.983,494.052,39.027,494.054,39.817"/>
<path fill="#373A37" d="M455.684,61.325c-1.327-0.242-2.514,1.213-3.305,2.079c-1.098,1.201-2.191,2.625-2.734,4.176
	c-0.291,0.833,0.848,1.458,1.375,0.728c0.705-0.978,1.281-2.035,2.026-2.994c0.606-0.782,1.662-2.477,2.702-2.64
	C456.549,62.548,456.403,61.456,455.684,61.325"/>
<path fill="#373A37" d="M449.692,67.779c-0.534,9.266,0.455,18.53,1.499,27.717c0.104,0.917,1.52,0.659,1.412-0.256
	c-1.075-9.141-1.111-18.343-1.545-27.523C451.023,66.936,449.736,67.014,449.692,67.779"/>
<path fill="#373A37" d="M470.553,51.821c7.605-3.294,15.577-5.023,23.853-5.219c0.979-0.021,1.143-1.543,0.137-1.542
	c-8.563,0.016-16.807,1.946-24.491,5.695C469.369,51.088,469.856,52.121,470.553,51.821"/>
<path fill="#373A37" d="M513.883,50.33c4.514,2.587,7.882,6.632,9.209,11.7c0.269,1.015,1.891,0.726,1.615-0.294
	c-1.481-5.488-5.081-10.049-10.266-12.458C513.831,48.994,513.292,49.991,513.883,50.33"/>
<path fill="#373A37" d="M523.22,61.827c-0.269,10.622-0.475,21.159-1.616,31.734c-0.119,1.111,1.608,1.265,1.729,0.154
	c1.132-10.569,1.897-21.325,1.333-31.955C524.621,60.941,523.241,61.008,523.22,61.827"/>
<path fill="#E0AA86" d="M494.021,90.572c-3.74-4.383-1.402-10.835,0.544-15.525c0.857-2.069,1.729-4.183,3.245-5.858
	c3.131-3.459,7.938-2.549,9.912,1.628c2.006,4.242,1.858,10.178,1.029,14.702c-0.736,4.014-2.575,8.133-7.309,8.15
	c-2.728,0.012-5.325-0.843-7.068-3.017c-0.524-0.651-1.508,0.175-0.993,0.833c3.607,4.587,12.034,5.074,14.979-0.43
	c3.023-5.654,3.557-16.417-0.088-21.941c-3.973-6.02-10.484-3.348-13.343,2.066c-2.837,5.371-6.892,14.883-1.757,20.1
	C493.668,91.782,494.49,91.121,494.021,90.572"/>
<path fill="#E0AA86" d="M481.202,91.618c-3.103,4.855-9.272,7.094-14.368,3.639c-4.729-3.211-5.972-9.79-4.631-15.036
	c0.845-3.309,2.655-5.711,5.806-7.14c3.804-1.727,6.858,0.034,9.032,3.238c3.006,4.427,4.645,10.288,4.261,15.61
	c-0.052,0.699,0.966,0.774,1.075,0.095c1.057-6.547-2.064-16.508-7.969-20.221c-5.511-3.47-12.22,2.862-13.468,8.044
	c-1.477,6.136,0.17,13.768,6.062,17.015c5.52,3.041,12.227,0.667,14.945-4.847C482.162,91.58,481.459,91.215,481.202,91.618"/>
<path fill="#AD846F" d="M475.11,94.395c0.484,0.205,1.046,0.221,1.544,0.053c0.783-0.267,1.392-1.03,1.408-1.859
	c0.018-0.826-0.604-1.641-1.42-1.785c-0.617-0.106-1.248,0.15-1.769,0.5c-0.35,0.235-0.686,0.538-0.806,0.942
	c-0.252,0.849,0.517,1.635,1.208,2.19"/>
<path fill="#AD846F" d="M474.887,94.997c1.381,0.531,2.937,0.05,3.64-1.291c0.676-1.287,0.169-2.934-1.154-3.575
	c-1.38-0.67-3.338,0.12-4.063,1.429c-0.807,1.458,0.339,3.084,1.649,3.731c0.878,0.433,1.518-0.78,1.019-1.442
	c-0.225-0.298-1.045-0.88-0.963-1.305c0.096-0.501,1.122-0.951,1.554-0.857c0.567,0.125,0.828,0.78,0.657,1.294
	c-0.264,0.794-1.157,1.039-1.888,0.81C474.55,93.547,474.109,94.7,474.887,94.997"/>
<path fill="#AD846F" d="M497.723,90.592c0.884,0.051,1.834-0.243,2.359-0.952c0.527-0.71,0.453-1.869-0.291-2.348
	c-0.262-0.168-0.576-0.242-0.887-0.26c-0.98-0.055-2.02,0.525-2.307,1.464c-0.287,0.936,0.401,2.104,1.383,2.141"/>
<path fill="#AD846F" d="M497.665,91.238c1.404,0.065,2.952-0.527,3.39-1.986c0.452-1.509-0.49-2.959-2.071-3.11
	c-1.509-0.144-3.169,0.87-3.385,2.448c-0.21,1.544,0.969,3.036,2.55,2.964c0.914-0.042,1.013-1.554,0.157-1.789
	c-1.373-0.375-0.691-1.817,0.521-1.841c0.638-0.014,1.015,0.459,0.797,1.078c-0.256,0.725-1.158,0.95-1.843,0.944
	C496.956,89.939,496.822,91.199,497.665,91.238"/>
<path fill="#AD846F" d="M454.836,111.991c0.498,2.062,1.083,4.104,1.686,6.139c0.413,1.388,0.762,2.814,1.811,3.869
	c0.757,0.759,1.993-0.229,1.294-1.082c-1.108-1.356-1.424-3.153-1.938-4.792c-0.479-1.53-0.973-3.057-1.516-4.566
	C455.902,110.808,454.646,111.21,454.836,111.991"/>
<path fill="#AD846F" d="M458.768,122.169c9.229,4.315,19.231,7.155,29.484,6.598c10.113-0.551,19.618-3.842,28.822-7.864
	c0.928-0.406,0.257-1.831-0.672-1.423c-8.907,3.911-18.464,6.979-28.23,7.536c-10.39,0.59-19.271-2.947-28.94-6.088
	C458.41,120.66,457.999,121.812,458.768,122.169"/>
<path fill="#AD846F" d="M518.136,107.15c-0.674,4.217-1.12,8.393-2.145,12.551c-0.272,1.1,1.391,1.73,1.665,0.623
	c1.045-4.239,1.906-8.682,1.725-13.063C519.346,106.472,518.266,106.334,518.136,107.15"/>
<path fill="#373A37" d="M445.186,23.735c-1.278,5.373-1.745,10.92-1.709,16.436c0.011,1.189,1.869,1.368,1.86,0.165
	c-0.037-5.494,0.483-10.853,1.207-16.291C446.646,23.274,445.371,22.956,445.186,23.735"/>
<path fill="#373A37" d="M450.395,21.875c-0.432,2.417-0.612,4.912-0.66,7.365c-0.019,1.036,1.553,1.2,1.624,0.144
	c0.161-2.458,0.381-4.917,0.531-7.377C451.95,21.028,450.562,20.934,450.395,21.875"/>
<path fill="#373A37" d="M456.541,20.102c-0.454,5.392-0.596,10.824-0.262,16.227c0.062,0.992,1.785,0.923,1.767-0.082
	c-0.1-5.344-0.149-10.666,0.033-16.008C458.112,19.254,456.626,19.106,456.541,20.102"/>
<path fill="#FFFFFF" d="M476.667,103.578c0,0,18.245,1.622,30.642-3.434c0,0,6.15,9.588-8.951,14.935
	c-10.754,2.745-14.478,1.205-14.478,1.205S477.482,109.108,476.667,103.578"/>
<path fill="#DBDBDB" d="M500.889,106.662c-0.306-0.091,5.522-0.158,7.745-1.875l0.235,1.803
	C508.868,106.589,506.042,108.181,500.889,106.662"/>
<path fill="#AD846F" d="M476.61,103.981c10.383,1.831,21.02,0.015,30.909-3.331c0.674-0.227,0.241-1.234-0.427-1.015
	c-9.898,3.248-19.974,4.887-30.371,3.541C476.202,103.109,476.097,103.89,476.61,103.981"/>
<path fill="#AD846F" d="M475.947,103.831c0.756,4.976,4.212,9.182,7.492,12.794c0.478,0.525,1.356-0.136,0.883-0.682
	c-3.316-3.808-5.969-7.485-7.479-12.354C476.686,103.078,475.868,103.316,475.947,103.831"/>
<path fill="#AD846F" d="M484.327,116.858c7.055,0.84,16.194-1.065,21.712-5.766c3.075-2.622,5.17-8.163,1.64-11.427
	c-0.581-0.538-1.279,0.422-0.739,0.959c2.096,2.081,1.121,6.537-0.388,8.396c-1.577,1.947-4.02,3.239-6.277,4.173
	c-4.956,2.049-10.466,3.119-15.812,2.721C483.855,115.871,483.715,116.785,484.327,116.858"/>
</svg>
