<?xml version="1.0" encoding="utf-8"?>
<!-- Generator: Adobe Illustrator 15.1.0, SVG Export Plug-In . SVG Version: 6.00 Build 0)  -->
<!DOCTYPE svg PUBLIC "-//W3C//DTD SVG 1.1//EN" "http://www.w3.org/Graphics/SVG/1.1/DTD/svg11.dtd">
<svg version="1.1" id="Layer_1" xmlns="http://www.w3.org/2000/svg" xmlns:xlink="http://www.w3.org/1999/xlink" x="0px" y="0px"
	 width="857px" height="398px" viewBox="0 0 857 398" enable-background="new 0 0 857 398" xml:space="preserve">
<path fill="#F9F9F9" d="M552,293.133c0,4.621-3.746,8.367-8.367,8.367H124.367c-4.621,0-8.367-3.746-8.367-8.367v-0.266
	c0-4.621,3.746-8.367,8.367-8.367h419.266c4.621,0,8.367,3.746,8.367,8.367V293.133z"/>
<path fill="#F2F2F2" stroke="#E2E2E2" stroke-width="2" stroke-miterlimit="10" d="M536,274.486c0,8.844-7.17,16.014-16.014,16.014
	H142.014c-8.844,0-16.014-7.17-16.014-16.014V38.514c0-8.844,7.169-16.014,16.014-16.014h377.973C528.83,22.5,536,29.669,536,38.514
	V274.486z"/>
<g>
	<rect x="175" y="33.5" fill="#FFFFFF" width="311" height="248"/>
	<path fill="#E2E2E2" d="M485,34.5v246H176v-246H485 M487,32.5H174v250h313V32.5L487,32.5z"/>
</g>
<g>
	<path fill="#E6E6E6" d="M511.302,171.866c-8.475,0-15.369-6.895-15.369-15.371c0-8.475,6.895-15.369,15.369-15.369
		s15.369,6.895,15.369,15.369C526.671,164.971,519.776,171.866,511.302,171.866z"/>
	<path fill="#E2E2E2" d="M511.302,142.126c7.923,0,14.369,6.446,14.369,14.369c0,7.924-6.446,14.371-14.369,14.371
		s-14.369-6.447-14.369-14.371C496.933,148.572,503.379,142.126,511.302,142.126 M511.302,140.126
		c-9.041,0-16.369,7.329-16.369,16.369c0,9.041,7.328,16.371,16.369,16.371s16.369-7.33,16.369-16.371
		C527.671,147.456,520.343,140.126,511.302,140.126L511.302,140.126z"/>
</g>
<path fill="#E6E6E6" stroke="#E2E2E2" stroke-width="2" stroke-miterlimit="10" d="M153,183c0,1.381-1.119,2.5-2.5,2.5l0,0
	c-1.381,0-2.5-1.119-2.5-2.5v-59c0-1.381,1.119-2.5,2.5-2.5l0,0c1.381,0,2.5,1.119,2.5,2.5V183z"/>
<rect x="663.809" y="170.148" fill="#827E7A" width="3.203" height="24.554"/>
<g>
	<g>
		<path fill="#827E7A" d="M727.257,146.358c0,0,13.011-0.921,13.203,3.02c0.191,3.941-1.357,13.123-1.357,13.123
			s-1.475,18.123-1.062,26.469c0.412,8.347,1.033,17.199-1.814,17.515c-2.846,0.315-9.812,0.061-9.812,0.061L727.257,146.358z"/>
	</g>
	<path fill="#83B1B1" d="M730.153,133.343c-0.416-0.354-0.814-0.631-1.198-0.844c-1.182-2.34-3.531-3.967-5.138-5.908
		c-1.641-1.983-3.58-3.491-5.694-4.722c-0.252-0.067-0.502-0.136-0.751-0.214c-1.997-0.63-3.996-0.627-5.904-1.589
		c-0.763-0.384-1.103-0.988-1.15-1.62c-0.721-0.254-1.445-0.502-2.171-0.75c-0.725-0.249-1.175-0.733-1.402-1.297
		c-1.974-0.901-3.848-2.027-5.598-3.325c-3.234-0.267-6.482-0.398-9.737-0.367c-1.747,0.017-3.478,0.086-5.197,0.198
		c0.003,0.743-0.335,1.475-1.116,1.89c-1.988,1.056-4.027,1.966-6.105,2.768c-0.136,0.505-0.481,0.955-1.101,1.236
		c-3.602,1.632-7.315,2.831-11.11,3.822c-0.462,0.259-0.927,0.517-1.389,0.78c-0.186,0.288-0.459,0.543-0.846,0.736l-1.438,0.718
		c-0.225,0.165-0.447,0.331-0.661,0.509c-0.345,0.355-0.801,0.589-1.345,0.641c-0.067,0.008-0.133,0.012-0.199,0.015
		c-0.051,0.001-0.094,0.015-0.146,0.011l-0.034,0.017c1.068,0.16,0.961-0.256-0.003,0.545c-0.41,0.341-0.819,0.684-1.222,1.034
		c-0.282,0.245-0.559,0.498-0.842,0.742c-0.888,1.054-1.803,2.085-2.727,3.109c-0.795,1.292-1.427,2.697-2.136,4.056
		c0.035,0.17,0.075,0.346,0.111,0.519l-6.267,9.231l10.342-0.072c3.681,11.463,8.029,23.336,8.026,28.939
		c-0.009,8.803,2.517,24.816-12.92,34.561c0,0,3.333,3.26,12.92,4.86c9.583,1.601,14.151,4.139,20.843-3.161
		c0,0-0.892,4.645,3.646,10.349c0,0,2.896-4.393,15.047-4.459c12.153-0.064,22.328-1.587,22.328-1.587s-1.975-8.777-1.444-21.537
		c1.479-0.188,3.05-0.635,4.483-1.187c4.625-1.778,5.511-7.971,5.511-7.971s0.716-13.737,0.716-30.64
		C737.137,136.476,730.153,133.343,730.153,133.343z"/>
	<g>
		<path fill="#827E7A" d="M655.269,237.827c0,0,0.674,2.609,8.211,3.163c7.535,0.553,16.477,1.341,16.877,0.947
			c0.4-0.395,20.947,1.552,33.56-4.359c12.613-5.91,14.968-8.979,15.021-12.639c0.053-3.661,0.372-5.808-4.421-6.745
			C719.723,217.256,653.667,226.773,655.269,237.827"/>
	</g>
	<g>
		<path fill="#827E7A" d="M689.677,268.979c0,0-0.228,4.684-2.854,8.254c-2.631,3.571-5.909,5.766-5.514,9.389
			c0.398,3.621,0.176,6.936,5.95,6.616c5.773-0.319,13.387-6.107,15.546-9.308c2.161-3.201,7.707-13.989,7.707-13.989l-2.666-6.781
			L689.677,268.979z"/>
	</g>
	<g>
		<path fill="#827E7A" d="M626.206,249.456c0,0-10.043,5.022-14.11,10.098c-4.069,5.075-3.279,9.809-2.263,10.942
			c1.018,1.133,6.118,3.623,12.34,1.619c6.223-2.004,23.153-10.97,23.153-10.97s2.337-2.011,1.669-4.066
			C646.327,255.021,630.508,247.896,626.206,249.456"/>
	</g>
	<g>
		<path fill="#DACDBC" d="M708.097,233.562c6.836-2.021,16.407-4.021,16.529-17.577c-1.008,0.003-2.015-0.055-2.951-0.055
			c-4.522,0.001-9.008,0.903-13.54,0.98c-0.592,0.011-0.804-0.567-0.642-0.995c-0.222,0.025-0.442,0.052-0.662,0.076
			c-6.605,0.726-13.377,1.963-20.035,1.835c-6.649-0.129-13.223-1.182-19.688-2.713c-4.936-1.17-10.304-2.277-14.569-5.176
			c-2.179,0.192-13.015,1.287-17.813,4.518c0,0-9.207,11.887-9.812,32.029c0,0,13.257,10.532,23.675,9.934
			c0,0,3.951-1.438,4.115-17.231c0,0,13.066-8.908,22.428-6.013c0,0-1.005,5.188-0.959,9.181c0,0,2.156,12.617,13.91,25.385
			c0,0,15.586-0.232,22.146-6.075c0,0,0.44-9.896-3.092-13.609c-3.537-3.713-5.896-5.942-5.896-5.942
			S701.229,235.594,708.097,233.562z"/>
	</g>
	<g>
		<path fill="#E5DCD1" d="M652.846,212.013c-1.191-0.599-2.416-1.206-3.741-1.348c-1.558-0.168-3.103,0.323-4.591,0.811
			c-3.168,1.041-6.329,2.104-9.48,3.187c6.31,0.832,12.04,5.177,14.547,11.028c5.615-3,11.884-4.763,18.239-5.128
			c-1.641-1.842-3.902-2.991-6.106-4.098C658.759,214.981,655.802,213.496,652.846,212.013"/>
	</g>
	<g>
		<path fill="#E5DCD1" d="M684.585,218.333c-2.54,0.482-4.65,2.345-6.005,4.546c-1.355,2.201-2.057,4.735-2.692,7.24
			c-0.807,3.194-1.538,6.468-1.304,9.754c5.642-2.778,12.27-3.505,18.379-2.011c0.874-7.469,5.388-14.424,11.854-18.263
			c-5.081,0.033-10.165-0.319-15.189-1.052C687.953,218.303,686.247,218.017,684.585,218.333"/>
	</g>
	<g>
		<path fill="#BAAC9D" d="M708.096,215.814c-3.011-0.494-5.981-1.292-8.687-2.739c-2.708-1.447-8.16-4.161-11.353-2.867
			c-2.85,1.154-4.807,3.655-7.99,4.2c-2.289,0.393-4.526,0.376-6.827,0.02c-2.955-0.457-5.832-1.138-8.68-1.919
			c-0.155,0.215-0.413,0.355-0.742,0.284c-3.46-0.753-6.722-1.936-9.909-3.448c-0.44,0.183-0.845,0.37-1.205,0.562l-3.762,0.682
			c3.097,2.924,6.775,5.467,10.74,6.534h-0.005c0,0,11.319,4.291,13.062,15.339l1.516,0.365l4.445-12.135
			c0.56,0.148,1.121,0.306,1.696,0.349c1.588,0.115,3.147-0.395,4.653-0.913c0.713,2.663,1.979,5.183,3.694,7.338
			c3.086-3.877,8.128-5.625,13.012-6.473c7.307-1.27,14.781-0.938,22.188-0.601c-0.001-0.002,1.451-1.019,0.744-5.967
			C719.358,216.02,713.611,216.721,708.096,215.814z"/>
	</g>
	<g>
		<path fill="#9BC9C7" d="M711.317,197.215c-0.356-3.061-0.956-6.27-2.113-9.136c-0.188-0.631-0.438-1.249-0.716-1.842
			c-4.581-9.765-15.338-15.679-19.394-25.674c0.166,4.289,1.544,8.525,3.936,12.089c1.555,2.319,3.557,4.418,4.415,7.075
			c0.742,2.293,0.56,4.815,1.365,7.085c0.166,0.467,0.379,0.911,0.612,1.343c-0.088,2.3-0.882,4.549-1.82,6.668
			c-2.312,5.22-5.565,10.022-9.559,14.104c-0.521,0.532-1.069,1.079-1.301,1.786c-0.235,0.723-0.105,1.507,0.029,2.256
			c0.272,1.524,0.561,3.089,1.367,4.412c0.808,1.322,2.263,2.366,3.806,2.229c1.344-0.119,2.439-1.066,3.58-1.785
			c5.911-3.725,13.663-1.56,20.52-2.901C712.34,209.965,712.033,203.361,711.317,197.215"/>
	</g>
	<g>
		<path fill="#D6A380" d="M680.14,120.134l-1.038,5.375c0,0-5.011,1.069-5.147,3.903c-0.137,2.835,7.869,4.816,7.869,4.816
			s7.587-0.862,7.664,6.718c0,0,3.948-5.673,9.953-6.718c6.004-1.047,9.044-2.56,8.592-5.273c-0.453-2.712-2.619-5.338-5.138-4.359
			l-1.312-4.713L680.14,120.134z"/>
	</g>
	<g>
		<path fill="#759B9A" d="M682.001,134.165c-2.992,0.16-5.1,3.069-6.023,5.92c-0.501,1.543-0.79,2.126-0.505,3.723
			c0.239,1.326,0.927-0.331,1.987-0.519c0.35-1.378,1.001-2.73,2.021-3.605c1.082-1.333,2.752-1.847,4.657-2.035
			c2.343-0.233,4.857,1.385,5.22,3.71c0.086-0.125,0.182-0.244,0.272-0.367c-0.77-1.61-1.567-3.233-2.77-4.549
			C685.614,135.078,683.849,134.066,682.001,134.165z"/>
		<path fill="#759B9A" d="M707.099,140.491c-0.452-1.545-1.333-2.928-2.243-4.256c-0.353-0.514-0.721-1.034-1.215-1.412
			c-1.199-0.916-2.88-0.826-4.347-0.479c-3.203,0.758-6.126,2.588-8.264,5.085c1.202-1.104,2.646-1.928,4.241-2.239
			c2.428-0.477,5.166,0.378,6.605,2.392c1.488,2.082,1.381,3.848,0.727,6.322c1.542,0.468,3.283-0.416,4.108-1.801
			C707.535,142.72,707.553,142.037,707.099,140.491z"/>
	</g>
	<g>
		<path fill="#9BC9C7" d="M712.098,125.364c-0.192-0.554-0.443-1.105-0.448-1.692c-0.006-0.587,0.325-1.231,0.899-1.352
			c0.534-0.113,1.045,0.252,1.445,0.625c3.838,3.556,4.768,9.588,2.987,14.507c-1.781,4.918-5.895,7.675-10.576,10.014
			c1.301-3.084,1.46-5.566,0.444-8.756c-0.188-0.59-0.4-1.283-0.044-1.788c0.199-0.285,0.532-0.433,0.843-0.588
			C711.503,134.402,713.518,129.432,712.098,125.364"/>
	</g>
	<g>
		<path fill="#9BC9C7" d="M673.728,137.441c0.244,0.125,0.515,0.208,0.714,0.396c0.333,0.317,0.361,0.829,0.368,1.286
			c0.059,4.095,0.117,2.851,0.176,6.944c-3.677-4.934-5.724-5.724-5.751-11.877c-0.004-0.765,0.204-1.75,0.961-1.861
			c0.665-0.099,1.161,0.593,1.4,1.223C672.133,134.974,672.374,136.747,673.728,137.441"/>
	</g>
	<g>
		<path fill="#759B9A" d="M662.894,124.788c2.479,0.947,5.052,1.649,7.673,2.06c1.089-3.046,4.039-5.338,7.26-5.634
			c0.328-0.031,0.769-0.171,0.715-0.494c-1.471-0.142-2.937-0.33-4.397-0.552C670.408,121.744,666.673,123.321,662.894,124.788z"/>
	</g>
	<g>
		<path fill="#759B9A" d="M679.344,125.466c0.146-0.171,0.205-0.394,0.258-0.61c0.264-1.129,0.329-2.304,0.189-3.454
			c-0.012-0.091-0.023-0.185-0.079-0.256c-0.063-0.085-0.169-0.125-0.271-0.158c-2.342-0.756-5.128,0.194-6.521,2.224
			c0.844,0.515,1.689,1.028,2.534,1.543c0.943,0.573,1.976,1.169,3.075,1.065C678.83,125.791,679.146,125.697,679.344,125.466"/>
	</g>
	<g>
		<path fill="#759B9A" d="M701.547,120.293c0.182,0.892,0.415,1.771,0.697,2.637c0.118,0.359,0.254,0.731,0.531,0.988
			c0.606,0.565,1.68,0.394,2.241,1.005c1.498-2.424,4.179-4.081,7.017-4.336c-1.077-1.016-2.285-2.089-3.764-2.171
			c-0.6-0.032-1.194,0.105-1.78,0.243c-1.535,0.358-3.069,0.717-4.604,1.076c-0.11,0.025-0.232,0.058-0.302,0.148
			C701.495,119.997,701.52,120.155,701.547,120.293"/>
	</g>
	<g>
		<path fill="#759B9A" d="M687.537,158.863c-0.021-3.624,1.391-7.108,1.693-10.72c0.052,7.36-0.265,13.463,3.8,24.508
			C691.343,169.077,687.561,162.816,687.537,158.863"/>
	</g>
	<g>
		<path fill="#759B9A" d="M699.126,188.969c0.124,2.847,0.244,5.743-0.465,8.504c-0.696,2.725-2.164,5.183-3.613,7.594
			c-2.127,3.542-4.346,7.187-7.704,9.593c-0.025-1.041-0.053-2.081-0.077-3.123c-0.017-0.613-0.026-1.247,0.212-1.81
			c0.24-0.557,0.697-0.984,1.146-1.389c2.004-1.808,4.195-4.454,5.925-6.523s3.826-5.629,4.088-8.314"/>
	</g>
	<g>
		<path fill="#C69777" d="M701.73,123.508c-0.117-1.147-0.236-2.294-0.354-3.442c-6.696,0.625-13.423,0.935-20.15,0.926
			c-0.236,0-0.496,0.008-0.669,0.169c-0.196,0.179-0.205,0.475-0.224,0.74c-0.061,0.942-0.385,1.866-0.93,2.638
			c6.813,2.6,14.527,2.754,21.435,0.429c0.285-0.096,0.582-0.208,0.755-0.45C701.793,124.235,701.767,123.856,701.73,123.508"/>
	</g>
	<g>
		<path fill="#9BC9C7" d="M691.565,176.775L691.565,176.775c-2.135-3.89-5.73-8.405-7.041-12.73
			c-1.312-4.325-1.6-9.127,0.192-13.277c0.262-0.604,0.55-1.226,0.517-1.886c-0.033-0.659-0.584-1.35-1.238-1.267
			c-0.505,0.064-0.854,0.529-1.126,0.959c-1.569,2.469-2.896,5.092-3.956,7.819c-0.79,2.037-1.443,4.206-1.221,6.381
			c0.201,1.978,1.107,3.807,1.601,5.732c1.021,3.986,0.152,8.4-2.276,11.719c-0.451,0.384-0.914,0.755-1.399,1.096
			c-3.185,2.239-7.192,3.661-9.215,6.988c-1.113,1.831-1.461,4.01-2.066,6.066c-1.797,6.099-6.117,11.412-11.723,14.414
			c0.499,0.422,1.015,0.815,1.543,1.195c14.575,5.864,31.274-2.041,38.604-15.331c1.33-2.751,2.367-5.668,2.662-8.718
			C695.117,182.569,693.701,179.335,691.565,176.775"/>
	</g>
	<g>
		<path fill="#A09D9C" d="M613.464,265.758c0.076,0.031,0.152,0.064,0.231,0.092c0.077,0.026,0.154,0.056,0.231,0.079
			c2.971,0.789,7.55-1.894,9.562-3.109c2.296-1.389,5.67-3.478,7.458-6.038c-2.854-1.255-5.237-3.572-6.528-6.412
			c-1.61,0.663-3.03,1.709-4.429,2.743c-1.316,0.973-2.631,1.945-3.946,2.918c-1.521,1.124-3.089,2.305-3.975,3.974
			c-0.885,1.669-0.868,3.981,0.554,5.224C612.877,265.451,613.161,265.622,613.464,265.758"/>
	</g>
	<g>
		<path fill="#A09D9C" d="M684.676,287.293c-1.217-0.084-2.541-0.795-2.732-2c-0.166-1.04,0.555-1.988,1.196-2.825
			c2.261-2.95,4.045-6.266,5.264-9.777c2.568,0.588,5.269,0.602,7.843,0.039c-0.111,4.828-2.473,9.559-6.27,12.548
			C688.457,286.476,686.605,287.428,684.676,287.293"/>
	</g>
	<g>
		<path fill="#706D6B" d="M707.721,264.633c0.188,0.256,0.374,0.512,0.56,0.769c-2.419,2.594-5.77,4.303-9.289,4.738
			c-0.119,0.015-0.242,0.025-0.356-0.002c-0.145-0.039-0.264-0.141-0.376-0.239c-0.803-0.696-1.607-1.396-2.413-2.094
			c3.564-1.618,7.407-2.513,11.221-3.399c0.138-0.032,0.286-0.063,0.415-0.005C707.584,264.447,707.654,264.542,707.721,264.633"/>
	</g>
	<g>
		<path fill="#706D6B" d="M645.945,260.061c0.105-0.112,0.142-0.269,0.176-0.419c0.177-0.794,0.354-1.59,0.533-2.386
			c-3.77-0.344-7.337-1.797-10.836-3.233c0.062,0.715-0.386,1.464-0.101,2.122c0.092,0.208,0.248,0.38,0.409,0.545
			c2.375,2.438,5.837,3.774,9.232,3.565C645.57,260.242,645.801,260.214,645.945,260.061"/>
	</g>
	<g>
		<path fill="#9B948F" d="M739.065,150.066c-0.7-0.866-1.806-1.394-2.908-1.488c0.018,0.041,0.035,0.083,0.053,0.124
			c0.006,0.015,0.016,0.022,0.021,0.037c0.006,0.02,0.013,0.041,0.021,0.062c0.477,1.132,0.907,2.276,1.172,3.465
			c0.416,0.192,0.798,0.476,1.093,0.82c0.743,0.87,1.059,2.021,1.323,3.137C740.482,154.166,740.42,151.741,739.065,150.066z"/>
	</g>
	<g>
		<path fill="#827E7A" d="M676.887,252.263c0,0-10.88,2.49-12.426,6.494c-1.543,4.003-0.017,4.403-0.017,4.403
			s-4.477-0.157-4.069,4.347c0.408,4.506,2.454,5.332,5.568,5.362c3.113,0.032,9.117-0.354,8.829-3.54
			c-0.289-3.188-3.249-5.356-3.249-5.356l10.395-4.08L676.887,252.263z"/>
	</g>
	<g>
		<path fill="#9B948F" d="M667.152,263.375c-1.273,0.247-2.765-0.148-3.417-1.269c-0.634-1.082-0.294-2.522,0.49-3.501
			c0.784-0.978,1.929-1.588,3.052-2.142c3.183-1.568,6.481-2.9,9.861-3.979c0.161,0.513,0.321,1.024,0.481,1.536
			c-3.006,1.263-6.013,2.525-9.02,3.786c-1.299,0.547-2.793,1.349-2.913,2.751C665.595,261.646,666.4,262.583,667.152,263.375"/>
	</g>
	<g>
		<path fill="#9B948F" d="M664.455,271.402c0.323,0.248,0.729,0.542,0.676,0.946c-1.756,0.511-3.817-0.592-4.366-2.335
			c-0.369-1.179-0.057-7.764,1.757-5.035C663.9,267.057,662.058,269.556,664.455,271.402"/>
	</g>
	<g>
		<path fill="#827E7A" d="M717.324,263.16c0,0,1.525-0.4-0.018-4.403c-0.869-2.253-4.701-4.029-7.884-5.151
			c0.625,1.247,0.54,3.056,0.64,4.289c0.117,1.491,0.611,3.085-0.362,4.394c-0.303,0.408-0.696,0.739-1.132,1.03l1.675,0.656
			c0,0-2.96,2.167-3.249,5.354c-0.288,3.188,5.717,3.574,8.83,3.543c3.115-0.033,5.16-0.859,5.569-5.363
			C721.8,263.003,717.324,263.16,717.324,263.16"/>
	</g>
	<g>
		<path fill="#9B948F" d="M717.543,258.605c-0.785-0.978-1.93-1.588-3.052-2.142c-1.57-0.774-3.169-1.489-4.791-2.146
			c0.19,0.683,0.261,1.438,0.296,2.157c1.057,0.444,2.114,0.889,3.172,1.332c1.3,0.547,2.794,1.348,2.914,2.751
			c0.092,1.088-0.713,2.023-1.465,2.816c1.272,0.246,2.765-0.147,3.417-1.268C718.666,261.025,718.326,259.584,717.543,258.605"/>
	</g>
	<g>
		<path fill="#9B948F" d="M717.313,271.402c-0.324,0.248-0.73,0.542-0.677,0.946c1.756,0.511,3.818-0.592,4.367-2.335
			c0.369-1.179,0.056-7.764-1.758-5.035C717.867,267.057,719.712,269.556,717.313,271.402"/>
	</g>
	<g>
		<path fill="#AED6D3" d="M679.787,170.148c-0.25-0.845-0.479-1.593-0.692-2.263c-0.21-0.769-0.452-1.549-0.747-2.341
			c-0.118-0.317-0.214-0.63-0.299-0.938c-0.357-1.799-0.385-3.001-0.358-3.593c0.006-0.084,0.01-0.172,0.018-0.253
			c0-0.004,0-0.011,0-0.013c0.247-1.186,0.416-2.026,0.571-2.475c-1.263,3.217-1.175,5.75-0.663,7.719l-0.014-0.025
			c0,0,0.01,0.023,0.021,0.057c0.14,0.53,0.304,1.023,0.473,1.489c0.463,1.562,1.074,3.997,1.05,5.852
			c-0.014,0.283-0.034,0.583-0.065,0.894c-0.057,0.342-0.088,0.59-0.104,0.765c-0.228,1.525-0.715,3.168-1.749,4.269
			c-2.41,2.57-5.753,3.755-7.25,5.513c0,0,4.074-2.377,6.026-3.378C677.954,180.423,681.819,177.021,679.787,170.148"/>
	</g>
	<g>
		<path fill="#AED6D3" d="M708.804,186.957c0,0,2.69,5.543,3.713,19.334c0,0-1.289-7.585-2.445-12.211
			c-1.157-4.627-3.074-9.503-4.963-13.292C705.108,180.787,707.848,184.312,708.804,186.957"/>
	</g>
</g>
<g>
	<g>
		<path fill="#605D5B" d="M736.164,146.772c0.25,0.615,0.435,1.252,0.58,1.902c0.228,0.027,0.454,0.054,0.7,0.107
			c2.147,1.832,2.807,3.844,1.973,6.038c-0.087,0.925-0.45,1.979-0.609,2.91c-0.823,4.771-1.105,9.714-1.383,14.545
			c-0.278,4.864-0.376,9.74-0.287,14.612c0.086,4.6,1.578,10.509,0.379,14.978c-1.438,5.362-6.922,4.973-7.392-0.443
			c-0.158-1.834-0.018-3.715,0.021-5.552c0.029-1.347,0.078-2.694,0.12-4.041c-0.453,0.537-1.355,0.697-2.055,0.807
			c-0.096,2.957-0.084,5.901,0.15,8.786c0.61,7.527,9.551,8.51,10.833,0.732c0.597-3.623-0.103-7.446-0.24-11.094
			c-0.156-4.171-0.179-8.352-0.068-12.526c0.118-4.523,0.397-9.041,0.834-13.545c0.404-4.204,1.692-8.437,1.962-12.604
			C741.919,148.729,738.998,146.808,736.164,146.772z"/>
	</g>
	<g>
		<path fill="#605D5B" d="M709.441,254.594c2.689,1.131,7.344,2.128,8.126,5.257c1.288,5.146-5.326,2.778-7.707,1.916
			c-1.007-0.367-1.441,1.24-0.441,1.604c2.924,1.062,9.743,3.234,9.839-2.245c0.086-4.894-5.432-6.917-9.417-7.979
			C708.876,252.889,708.58,254.23,709.441,254.594"/>
	</g>
	<g>
		<path fill="#605D5B" d="M708.984,272.368c2.193,1.343,5.235,0.963,7.709,0.95c1.95-0.013,3.687-0.073,4.91-1.84
			c2.154-3.111,0.58-8.311-3.214-9.078c-0.991-0.2-1.389,1.201-0.42,1.521c1.582,0.521,2.412,1.421,2.736,3.056
			c0.414,2.086-0.247,4.405-2.677,4.676c-2.521,0.28-6.314,0.625-8.624-0.281C708.814,271.14,708.478,272.057,708.984,272.368"/>
	</g>
	<g>
		<path fill="#605D5B" d="M711.028,273.054c3.979-0.282,7.133-2.58,5.38-6.813c-1.162-2.807-4.737-4.391-7.545-2.797
			c-0.76,0.431-0.253,1.736,0.607,1.44c1.805-0.623,4.141-0.438,5.147,1.398c0.703,1.286,1.135,2.876-0.022,4.032
			c-0.978,0.976-2.438,1.271-3.713,1.667C710.319,272.154,710.392,273.098,711.028,273.054"/>
	</g>
	<g>
		<path fill="#605D5B" d="M676.687,251.539c-4.185,1.241-15.943,3.882-13.793,10.58c2.111,6.587,14.976,0.05,18.618-1.755
			c0.959-0.475,0.116-1.911-0.841-1.438c-2.231,1.107-4.543,2.024-6.904,2.819c-0.867,0.289-1.737,0.562-2.616,0.815
			c-2.256,0.644-3.296,1.1-5.306-0.393c-1.606-0.456-2.04-1.382-1.302-2.773c0.694-0.734,1.392-1.47,2.087-2.206
			c0.957-0.712,2.898-1.357,3.891-1.751c2.171-0.862,4.39-1.6,6.564-2.452C677.963,252.643,677.634,251.26,676.687,251.539"/>
	</g>
	<g>
		<path fill="#605D5B" d="M662.929,166.936c-0.906,10.023-0.871,20.206-0.644,30.26c0.024,1.099,1.724,1.104,1.71,0
			c-0.12-10.098,0.234-20.167,0.306-30.26C664.307,166.038,663.007,166.069,662.929,166.936"/>
	</g>
	<g>
		<path fill="#605D5B" d="M726.796,206.865c2.191,0.264,4.392,0.456,6.584,0.727c0.879,0.107,1.085-1.395,0.209-1.555
			c-2.216-0.409-4.55-0.578-6.793-0.317C726.062,205.805,726.062,206.777,726.796,206.865"/>
	</g>
	<g>
		<path fill="#605D5B" d="M654.695,238.843c1.138,1.653,3.106,1.888,4.987,2.085c4.629,0.49,9.325,0.732,13.974,0.984
			c1.028,0.057,1.007-1.503,0-1.587c-3.178-0.269-6.361-0.464-9.542-0.671c-2.399-0.156-6.631,0.354-8.377-1.614
			C655.243,237.484,654.268,238.22,654.695,238.843"/>
	</g>
	<g>
		<path fill="#605D5B" d="M701.33,241.591c8.784-1.023,19.492-4.524,25.539-11.374c3.566-4.043,5.062-12.179-2.061-12.771
			c-0.827-0.067-1.031,1.328-0.198,1.468c6.068,1.022,3.276,7.878,0.62,10.732c-2.108,2.267-4.881,3.854-7.588,5.292
			c-5.236,2.782-10.655,4.454-16.474,5.474C700.509,240.525,700.652,241.67,701.33,241.591"/>
	</g>
	<g>
		<path fill="#605D5B" d="M680.738,286.464c-0.705,3.081,0.708,5.876,3.734,7.045c4.967,1.918,10.535-1.818,14.268-4.665
			c4.436-3.382,6.831-7.65,9.254-12.558c1.046-2.119,3.903-5.272,3.616-7.899c-0.2-1.828-2.138-3.516-3.148-4.84
			c-0.734-0.957-2.104,0.071-1.325,1.024c2.721,3.334,2.008,6.02,0.159,9.5c-1.378,2.594-2.225,5.342-3.927,7.779
			c-2.181,3.128-4.896,5.554-8.106,7.598c-3.637,2.316-14.558,6.223-13.361-2.827C681.992,285.958,680.887,285.82,680.738,286.464"
			/>
	</g>
	<g>
		<path fill="#605D5B" d="M611.172,259.015c-2.289,3.638-5.882,10.208-0.861,13.535c3.188,2.113,9.293,1.079,12.751,0.514
			c6.438-1.048,11.427-5.755,17.233-8.311c3.537-1.557,8.298-2.926,7.767-7.675c-0.151-1.351-2.289-1.364-2.135,0
			c0.481,4.323-5.569,5.115-8.414,6.588c-3.824,1.979-7.239,4.526-11.24,6.211c-2.928,1.233-5.973,1.461-9.137,1.511
			c-1.374,0.021-3.664,0.281-4.934-0.323c-5.054-2.404-0.786-8.43,0.814-10.974C613.749,258.926,611.904,257.853,611.172,259.015"/>
	</g>
	<g>
		<path fill="#587572" d="M678.567,124.903c-2.665,0.453-6.328,2.373-5.165,5.696c1.107,3.157,5.452,4.379,8.421,4.337
			c0.916-0.015,0.918-1.422,0-1.426c-2.161-0.006-4.586-0.633-6.152-2.227c-2.659-2.707,1.033-4.443,3.229-5.165
			C679.685,125.862,679.359,124.769,678.567,124.903"/>
	</g>
	<g>
		<path fill="#587572" d="M702.707,125.322c2.607-0.655,5.515,2.333,3.947,4.852c-0.977,1.57-3.255,3.188-5.082,3.377
			c-1.034,0.107-1.084,1.681,0,1.652c2.957-0.077,7.164-3.166,7.316-6.324c0.159-3.321-3.459-6.015-6.515-4.756
			C701.655,124.42,701.906,125.523,702.707,125.322"/>
	</g>
	<g>
		<path fill="#A39686" d="M724.015,215.783c-0.255,4.7-1.502,9.521-5.246,12.668c-3.151,2.646-7.064,2.766-10.737,4.222
			c-4.146,1.644-7.35,4.589-7.333,9.265c0.003,1.031,1.517,1.009,1.587,0c0.66-9.452,12.129-7.446,17.578-12.24
			c3.954-3.479,5.406-8.819,5.388-13.914C725.249,214.981,724.056,214.992,724.015,215.783"/>
	</g>
	<g>
		<path fill="#A39686" d="M634.913,215.131c5.714-1.982,12.646-4.924,18.776-4.286c0.812,0.086,0.982-1.244,0.192-1.422
			c-6.087-1.364-14.009,2.046-19.507,4.428C633.648,214.163,634.165,215.391,634.913,215.131"/>
	</g>
	<g>
		<path fill="#997261" d="M679.497,120.238c-0.026,1.535-0.419,2.928-0.912,4.365c-0.479,1.396-0.771,2.827-1.942,3.823
			c-0.667,0.565,0.186,1.578,0.91,1.178c1.496-0.83,1.86-2.498,2.354-4.02c0.6-1.854,1.092-3.549,0.754-5.504
			C680.544,119.406,679.508,119.592,679.497,120.238"/>
	</g>
	<g>
		<path fill="#997261" d="M700.785,119.977c0.349,2.604,0.527,6.254,3.049,7.756c0.953,0.568,1.816-0.914,0.868-1.487
			c-1.927-1.167-1.971-4.508-2.489-6.462C702.01,119.019,700.675,119.146,700.785,119.977"/>
	</g>
	<g>
		<path fill="#587572" d="M678.937,120.106c-5.51,0.171-9.874,6.077-10.536,11.228c-0.802,6.238,1.643,12.417,7.066,16.226
			c0.613,0.431,1.365-0.545,0.803-1.041c-7.454-6.56-10.432-23.391,2.819-25.284C679.733,121.146,679.574,120.086,678.937,120.106"
			/>
	</g>
	<g>
		<path fill="#587572" d="M706.507,148.716c6.597-4.313,13.371-10.508,12.422-19.037c-0.671-6.024-6.397-12.837-12.902-11.819
			c-0.899,0.14-0.696,1.701,0.216,1.599c7.027-0.78,11.988,7.515,11.113,13.635c-0.957,6.685-6.233,10.788-11.38,14.715
			C705.456,148.207,705.926,149.096,706.507,148.716"/>
	</g>
	<g>
		<path fill="#587572" d="M664.993,182.529c-0.121,9.97-3.136,19.47-12.309,25.492c-0.854,0.561-0.087,1.91,0.807,1.381
			c10.685-6.306,13.959-16.575,13.693-28.027C666.697,182.139,665.825,182.528,664.993,182.529z"/>
	</g>
	<g>
		<path fill="#587572" d="M676.463,146.805c-1.282-5.323,0.067-12.642,7.145-11.333c6.391,1.245,4.737,6.911,4.238,11.431
			c-0.541,4.894-1.47,9.842-0.88,14.777c0.624,5.196,3.188,8.682,6.172,12.805c3.945,5.452,6.414,11.548,4.844,18.322
			c-1.436,6.201-5.916,11.238-10.619,15.27c-2.144,1.835-4.86,4.619-7.499,5.772c-2.914,1.271-6.25-0.217-9.196-0.646
			c-6.142-0.895-12.478-0.478-17.509-4.762c-0.816-0.691-2.002,0.48-1.182,1.182c5.852,4.999,12.952,4.108,20.056,5.507
			c2.527,0.497,4.882,1.974,7.424,0.989c2.53-0.979,4.981-3.463,7.09-5.146c12.015-9.587,18.246-22.925,8.596-36.628
			c-3.348-4.752-6.317-8.543-6.642-14.654c-0.228-4.279,0.541-8.551,0.999-12.788c0.518-4.792,1.719-6.962-1.887-10.984
			c-2.521-2.815-7.557-3.054-10.309-0.472c-4.216,3.952-3.505,6.812-2.161,11.724C675.372,148.022,676.669,147.664,676.463,146.805"
			/>
	</g>
	<g>
		<path fill="#587572" d="M686.272,210.411c-0.151,4.196,1.098,7.599,3.724,10.849c0.258,0.318,0.731,0.221,1.002,0
			c6.026-4.897,13.487-4.119,20.732-4.049c5.433,0.051,10.776-0.523,16.083-1.663c1.001-0.214,0.575-1.732-0.421-1.531
			c-8.876,1.794-17.447,0.702-26.307,1.717c-2.337,0.269-4.665,0.751-6.82,1.729c-0.131,0.061-2.981,1.744-3.002,1.741
			c-3.475-0.411-3.776-6.32-3.836-8.792C687.41,209.667,686.299,209.669,686.272,210.411"/>
	</g>
	<g>
		<path fill="#587572" d="M727.224,192.752c-0.504,0.144-1.014,0.262-1.53,0.356c-0.474,7.305-0.372,14.583,1.569,21.772
			c0.211,0.792,1.398,0.459,1.22-0.336C726.837,207.228,726.783,199.992,727.224,192.752z"/>
	</g>
	<g>
		<path fill="#587572" d="M689.554,142.414c1.745-4.542,11.664-9.652,14.779-5.39c2.904,3.751,2.197,6.243,1.161,10.417
			c-0.204,0.822,0.979,1.38,1.403,0.592c0.002-0.004,0.004-0.011,0.007-0.015c0.469-0.87-0.857-1.646-1.325-0.775
			c-0.002,0.004-0.005,0.009-0.007,0.014c0.469,0.198,0.936,0.394,1.402,0.592c0.657-2.133,1.407-4.71,1.148-6.964
			c-0.289-2.497-2.256-5.54-4.567-6.733c-2.72-1.403-6.898,0.222-9.29,1.667c-2.836,1.717-4.737,3.193-5.888,6.269
			C688.102,142.829,689.274,143.139,689.554,142.414"/>
	</g>
	<g>
		<path fill="#A39686" d="M633.66,214.682c-6.487,9.114-10.112,20.581-9.469,31.806c0.053,0.925,1.422,0.937,1.446,0
			c0.293-11.399,3.021-21.473,9.097-31.178C635.164,214.621,634.117,214.04,633.66,214.682"/>
	</g>
	<g>
		<path fill="#A39686" d="M633.788,253.515c4.348,2.764,14.214,7.57,17.929,1.538c3.15-5.111,0.838-12.183,2.229-17.764
			c0.332-1.334-1.727-1.903-2.06-0.568c-1.098,4.401-0.33,8.986-0.916,13.446c-0.333,2.527-1.091,5.219-4.008,5.58
			c-3.817,0.472-9.009-2.112-12.098-4.076C633.703,250.933,632.631,252.777,633.788,253.515"/>
	</g>
	<g>
		<path fill="#A39686" d="M624.158,247.242c1.357,1.106,2.761,2.155,4.212,3.136c1.143,0.771,2.213-1.078,1.078-1.844
			c-1.301-0.878-2.562-1.81-3.78-2.802C624.612,244.87,623.093,246.372,624.158,247.242"/>
	</g>
	<g>
		<path fill="#A39686" d="M653.007,239.707c5.629-2.794,14.516-7.453,21.036-5.895c0.998,0.241,1.425-1.292,0.423-1.542
			c-6.95-1.743-16.25,2.903-22.066,6.399C651.729,239.072,652.317,240.05,653.007,239.707"/>
	</g>
	<g>
		<path fill="#A39686" d="M678.804,220.204c-3.267,7.511-6.876,16.837-4.896,25.122c1.899,7.958,7.665,16.728,13.394,22.498
			c0.721,0.726,1.794-0.367,1.114-1.115c-5.136-5.647-10.619-13.48-12.757-20.896c-2.35-8.156,1.082-17.594,4.235-25.149
			C680.149,220.047,679.073,219.587,678.804,220.204"/>
	</g>
	<g>
		<path fill="#A39686" d="M700.853,242.5c2.534,2.893,5.713,5.135,7.154,8.843c1.272,3.273,1.293,6.862,1.432,10.321
			c0.04,1.01,1.588,1.019,1.577,0c-0.039-3.654-0.187-7.495-1.557-10.934c-1.504-3.78-4.691-6.554-7.829-9.007
			C701.082,241.297,700.378,241.958,700.853,242.5"/>
	</g>
	<g>
		<path fill="#A39686" d="M688.084,268.462c4.463,0.509,8.777-0.342,12.999-1.785c2.971-1.017,7.47-2.199,9.637-4.519
			c0.515-0.551-0.173-1.576-0.845-1.094c-5.782,4.13-14.823,6.152-21.791,5.956C687.135,266.993,687.185,268.359,688.084,268.462"/>
	</g>
	<g>
		<path fill="#605D5B" d="M625.528,250.267c5.911-1.036,12.724,3.668,5.941,9.649c-1.277,1.127-2.91,1.766-4.394,2.566
			c-2.669,1.443-5.139,3.239-7.91,4.499c-2.787,1.264-7.506,3.359-7.657-3.799c-0.043-2.044,1.836-3.747,3.146-5.079
			c3.116-3.168,7.235-5.645,11.087-7.787c0.856-0.477,0.104-1.676-0.755-1.291c-6.07,2.727-14.478,7.956-15.489,15.154
			c-0.895,6.361,5.07,6.554,9.446,4.789c3.672-1.48,6.939-3.845,10.413-5.718c2.735-1.475,5.567-3.19,6.561-6.326
			c2.159-6.82-5.541-9.284-10.718-7.849C624.423,249.294,624.759,250.4,625.528,250.267"/>
	</g>
	<g>
		<path fill="#605D5B" d="M689.839,269.803c3.043-2.95,7.665-0.589,8.537,3.146c0.704,3.021-0.585,6.124-2.27,8.585
			c-1.247,1.821-2.691,3.49-4.426,4.855c-1.763,1.391-9.221,5.233-9.101-0.639c0.06-2.895,3.299-5.36,4.742-7.662
			c1.591-2.533,2.353-5.232,2.674-8.184c0.118-1.099-1.574-1.072-1.711,0c-0.621,4.885-2.844,7.312-5.481,11.186
			c-1.121,1.645-2.326,3.894-1.972,5.945c1.034,5.938,9.058,3.074,12.023,0.7c4.532-3.627,9.143-10.358,6.804-16.374
			c-1.748-4.491-7.347-6.262-10.748-2.489C688.347,269.498,689.229,270.393,689.839,269.803"/>
	</g>
	<g>
		<path fill="#605D5B" d="M671.104,271.981c-0.562-0.137-1.148-0.248-1.699-0.438c-1.375-0.472-2.735-1.919-2.777-3.486
			c-0.035-1.401,1.56-3.216,2.856-3.463c1.284-0.244,3.041,0.384,3.611,1.642c0.263,0.581,0.289,1.748,0.246,2.407
			c-0.125,1.979-1.135,2.775-3.288,3.036c-1.787,0.217-5.064,0.472-6.81-0.182c-1.673-0.629-2.333-3.086-1.896-4.827
			c0.362-1.445,1.212-2.294,2.669-2.749c0.969-0.304,0.571-1.751-0.42-1.521c-4.069,0.941-5.773,7.12-2.431,9.938
			c1.986,1.675,5.63,1.011,7.983,1.002c2.413-0.007,4.678-0.315,5.569-2.879c0.659-1.891,0.451-5.152-1.258-6.43
			c-1.638-1.225-4.065-1.522-5.834-0.409c-1.569,0.991-2.751,3.431-2.567,5.273c0.289,2.904,3.327,3.788,5.754,4.137
			C671.488,273.131,671.807,272.149,671.104,271.981"/>
	</g>
</g>
<g>
	<g>
		<path fill="#F9F9F9" d="M554.916,280.437l-29.893,13.949c10.841,11.721,43.399,29.457,43.399,29.457s59.173,39.268,149.469,36.689
			l26.39-44.767l-39.247-9.353"/>
	</g>
	<g>
		<path fill="#998368" d="M572.247,195.679c0,0-41.096,19.102-50.565,28.812l18.4,69.896c0,0,9.766,9.099,72.44,29.971
			c62.672,20.874,100.232,24.742,100.232,24.742l18.556-37.979c0,0,17.505-62.417,16.175-72.435
			C747.486,238.687,639.611,224.195,572.247,195.679"/>
	</g>
	<g>
		<path fill="#AF967B" d="M584.128,199.783c-5.529-2.308-13.724,4.005-16.693,9.211c-2.972,5.207-2.846,12.033,0.312,17.128
			c4.356,7.026,12.986,9.776,20.541,13.134c5.384,2.394,10.521,5.334,15.984,7.54c4.685,1.889,9.568,3.224,14.391,4.72
			c14.846,4.603,29.249,10.778,44.466,13.943c15.217,3.17,31.812,3.062,45.438-4.414c4.42-2.423,8.67-5.917,10.009-10.774
			c1.765-6.4-2.08-11.365-6.079-16.665C712.498,233.603,630.424,219.099,584.128,199.783"/>
	</g>
	<g>
		<path fill="#998368" d="M717.325,254.442c-0.937-0.044-1.88-0.24-2.799-0.44c-13.595-2.975-27.204-5.988-40.467-10.205
			c15.015,5.776,30.599,10.07,46.452,12.799c0.111-0.434,0.296-0.836,0.505-1.23C719.767,255.13,718.532,254.832,717.325,254.442"/>
	</g>
	<g>
		<path fill="#998368" d="M704.06,243.835c1.216-0.687,2.733-0.328,4.058,0.112c3.385,1.124,6.763,2.694,10.323,2.515l-4.824-2.552
			c2.689-0.384,5.275,1.611,7.974,1.307c0.217,1.107-0.021,2.295-0.645,3.232c-2.784-0.628-5.567-1.256-8.352-1.884
			c-2.123-0.479-4.253-0.958-6.319-1.655C705.492,244.651,704.706,244.35,704.06,243.835"/>
	</g>
	<g>
		<path fill="#998368" d="M566.484,208.637c-0.94,0.522-1.2,1.84-0.81,2.843c0.392,1.001,1.27,1.731,2.183,2.303
			c3.193,2.001,7.129,2.606,10.239,4.735c0.197,0.135,0.406,0.298,0.454,0.531c0.067,0.342-0.263,0.659-0.607,0.708
			c-0.345,0.051-0.687-0.088-1.007-0.225c-4.153-1.762-8.247-3.669-12.267-5.717c-0.434-0.222-0.88-0.455-1.197-0.826
			c-0.367-0.436-0.517-1.02-0.556-1.589c-0.097-1.42,0.462-2.87,1.482-3.859c0.877-0.849,3.386-2.159,4.217-3.051
			c3.616,1.333,6.849,2.473,10.306,4.182c1.26,0.621,1.082,2.045-0.145,1.716c-2.621-1.532-5.541-2.548-8.545-2.978
			c1.875,0.87,3.752,1.742,5.627,2.614c-2.581,0.757-5.105-1.354-7.78-1.624C567.535,208.344,566.961,208.373,566.484,208.637"/>
	</g>
	<g>
		<path fill="#7F6C58" d="M522.11,226.036c0,0,98.422,63.156,200.307,72.313c0,0-1.284,27.573-9.662,50.75
			c0,0-43.339-3.979-100.233-24.741c-56.895-20.764-63.073-20.321-72.439-29.973L522.11,226.036z"/>
	</g>
	<g>
		<path fill="#6B533B" d="M746.153,243.382c0,0-15.037,39.849-23.736,54.969c0,0,0.155,20.777-7.074,44.772
			c0,0,13.01-25.277,15.968-32.002C731.311,311.121,746.561,251.227,746.153,243.382"/>
	</g>
</g>
<g>
	<g>
		<path fill="#6B533B" d="M572.896,196.075c28.561,11.525,57.398,20.76,87.443,27.563c28.711,6.501,57.781,11.687,86.916,15.88
			c1.083,0.155,1.562-1.492,0.46-1.667c-29.109-4.571-58.162-9.378-86.916-15.878c-29.994-6.78-58.978-15.841-87.529-27.257
			C572.429,194.382,572.067,195.74,572.896,196.075"/>
	</g>
	<g>
		<path fill="#6B533B" d="M572.062,195.003c-18.089,6.257-35.661,17.2-50.8,28.77c-0.831,0.638-0.039,2.071,0.841,1.438
			c7.905-5.689,15.946-11.106,24.416-15.929c8.483-4.83,17.365-8.656,26.083-12.999
			C573.307,195.932,572.814,194.743,572.062,195.003"/>
	</g>
	<g>
		<path fill="#6B533B" d="M520.962,225.08c14.301,12.791,32.271,20.12,49.507,28.066c15.89,7.325,31.854,14.518,48.166,20.857
			c15.316,5.953,30.866,11.558,46.748,15.818c18.806,5.041,38.186,7.408,57.499,9.521c1.153,0.126,1.146-1.679,0-1.803
			c-19.636-2.144-39.318-4.577-58.409-9.816c-14.861-4.079-29.436-9.285-43.807-14.822c-16.076-6.194-31.799-13.231-47.453-20.407
			c-17.761-8.143-36.208-15.731-51.43-28.237C521.216,223.791,520.397,224.574,520.962,225.08"/>
	</g>
	<g>
		<path fill="#6B533B" d="M747.002,238.857c-7.405,20.198-15.771,39.791-25.281,59.086c-0.454,0.924,0.907,1.737,1.393,0.814
			c10.023-19.021,18.548-39.093,25.229-59.53C748.621,238.369,747.305,238.029,747.002,238.857"/>
	</g>
	<g>
		<path fill="#6B533B" d="M521.083,224.658c5.891,23.341,11.653,46.782,18.227,69.942c0.282,0.993,1.82,0.573,1.548-0.427
			c-6.315-23.229-11.578-46.809-18.576-69.847C522.05,223.562,520.887,223.879,521.083,224.658"/>
	</g>
	<g>
		<path fill="#6B533B" d="M722.323,298.585c-1.938,16.935-5.364,33.992-10.354,50.298c-0.309,1.007,1.268,1.438,1.575,0.435
			c4.967-16.278,8.987-33.716,10.14-50.732C723.743,297.698,722.419,297.733,722.323,298.585"/>
	</g>
	<g>
		<path fill="#6B533B" d="M539.531,294.455c11.151,9.554,25.243,14.004,38.86,18.803c14.678,5.174,29.303,10.491,44.053,15.458
			c29.2,9.827,59.402,19.185,90.311,21.285c1.163,0.08,1.146-1.707,0-1.802c-30.161-2.536-59.453-11.114-88.052-20.662
			c-13.733-4.584-27.361-9.473-41.017-14.28c-14.977-5.271-30.645-9.694-43.342-19.617
			C539.775,293.195,538.96,293.965,539.531,294.455"/>
	</g>
	<g>
		<path fill="#6B533B" d="M747.163,240.158c-4.425,23.921-9.392,47.491-16.57,70.765c-0.283,0.918,1.148,1.307,1.437,0.396
			c7.272-23.08,13.265-46.961,16.223-71.013C748.329,239.691,747.276,239.546,747.163,240.158"/>
	</g>
	<g>
		<path fill="#6B533B" d="M730.761,310.8c-6.192,11.661-11.846,23.607-17.956,35.313c-0.481,0.923,0.881,1.732,1.4,0.82
			c6.527-11.469,12.062-23.551,17.654-35.491C732.203,310.712,731.15,310.066,730.761,310.8"/>
	</g>
</g>
<path fill="#FFFFFF" d="M583.54,161.834c0,0-11.275,6.987-9.97,9.815c1.305,2.829,11.279-2.88,15.956-7.374
	c4.677-4.494,7.069-6.402,5.97-7.749C594.396,155.179,586.691,159.054,583.54,161.834"/>
<path fill="#F66EAD" d="M572.725,171.637c0,0,6.431-7.095,10.564-9.487c4.135-2.394,11.826-6.089,11.826-6.089
	s-7.702-10.573-12.83-15.463c-5.129-4.891-12.727-12.133-18.699-6.026C557.614,140.68,564.844,162.121,572.725,171.637"/>
<path fill="#F66EAD" d="M554.172,215.52c0,0-4.392,0.375-4.537,4.001c-0.145,3.627,4.787,8.486,13.128,7.905
	c8.342-0.58,17.665-5.367,16.993-8.485c-0.674-3.119-9.89-6.283-20.259-4.847c0,0-6.255-34.681-6.825-40.702
	c-0.571-6.021-0.854-20.818,10.711-19.077l-1.578-5.537c0,0-8.137-0.836-12.112,7.282c-3.975,8.12-2.283,18.401,0.09,32.054
	C552.154,201.766,554.172,215.52,554.172,215.52"/>
<polygon fill="#D1D1D1" points="563.234,134.571 559.988,133.102 561.813,131.111 564.269,133.39 "/>
<path fill="#FF85C2" d="M586.04,154.724c0.327,0.28,0.683,0.562,1.108,0.642c0.984,0.187,1.863-0.845,1.896-1.847
	c0.033-1.003-0.513-1.925-1.066-2.761c-4.793-7.241-11.638-13.108-19.526-16.737c-0.211-0.096-0.427-0.193-0.657-0.213
	c-0.425-0.035-0.822,0.193-1.188,0.413c-0.592,0.355-1.2,0.728-1.604,1.292c-0.401,0.562-0.542,1.372-0.146,1.94
	c0.415,0.595,1.226,0.719,1.942,0.834c1.199,0.192,2.382,0.498,3.504,0.959c3.435,1.412,6.112,4.191,8.449,7.077
	C581.088,149.209,583.219,152.309,586.04,154.724"/>
<path fill="#FF85C2" d="M572.73,216.596c0.52,0.062,1.052,0.152,1.502,0.419c1.309,0.773,1.381,2.786,0.499,4.026
	c-0.881,1.238-2.39,1.854-3.851,2.274c-2.322,0.666-4.729,0.993-7.132,1.237c-0.505,0.052-1.027,0.098-1.505-0.071
	c-0.479-0.167-0.898-0.61-0.869-1.116c0.05-0.846,1.122-1.137,1.953-1.303c1.115-0.223,2.195-0.625,3.186-1.188
	c0.615-0.349,1.25-0.845,1.334-1.547c0.074-0.614-0.295-1.179-0.514-1.758c-0.081-0.211-0.136-0.466-0.005-0.65
	c0.116-0.162,0.333-0.209,0.529-0.239C569.469,216.429,571.113,216.4,572.73,216.596"/>
<path fill="#777777" d="M563.207,134.261c-0.925-0.825-2.036-1.361-3.234-1.658c0.071,0.268,0.143,0.536,0.212,0.803
	c0.31-0.329,0.619-0.661,0.927-0.991c0.147-0.158,0.294-0.365,0.464-0.497c0.3-0.23,0.17-0.265,0.493-0.068
	c0.325,0.196,0.629,0.714,0.884,1c0.33,0.375,0.656,0.754,0.997,1.121c0.401,0.431,1-0.198,0.637-0.637
	c-0.494-0.602-1.015-1.182-1.525-1.771c-0.284-0.327-0.579-0.795-1.031-0.892c-0.378-0.08-0.617,0.096-0.892,0.331
	c-0.587,0.504-1.101,1.161-1.633,1.725c-0.239,0.254-0.15,0.714,0.213,0.803c1.106,0.27,2.038,0.76,2.957,1.421
	C563.079,135.242,563.578,134.591,563.207,134.261"/>
<path fill="#CC508E" d="M573.826,171.964c-4.133-4.743-7.117-11.367-9.407-17.185c-2.233-5.675-4.98-14.942-0.081-20.004
	c5.729-5.917,13.808,2.312,17.642,6.514c4.58,5.02,8.729,10.467,13.022,15.731c0.569,0.696,1.552-0.297,0.987-0.987
	c-5.45-6.675-10.604-14.055-17.103-19.767c-4.194-3.689-10.744-7.381-15.528-2.471c-4.846,4.974-3.01,13.602-1.002,19.411
	c1.212,3.508,2.844,6.856,4.563,10.138c1.72,3.285,3.325,6.882,6.112,9.416C573.571,173.248,574.301,172.509,573.826,171.964"/>
<path fill="none" stroke="#CC508E" stroke-width="2" stroke-miterlimit="10" d="M554.664,217.055
	c-0.01-0.073-1.081-7.618-6.366-37.331c-2.304-12.943-1.017-22.051,3.823-27.072c4.421-4.586,9.446-3.906,9.684-3.873"/>
<path fill="none" stroke="#CC508E" stroke-width="2" stroke-miterlimit="10" d="M563.383,154.011
	c-0.136-0.016-5.022-0.368-7.564,2.331c-2.446,2.596-4.846,8.601-2.379,22.466c5.313,29.877,6.355,37.223,6.397,37.522"/>
<path fill="#CC508E" d="M554.001,214.899c-2.445,0.754-5.293,1.897-5.532,4.846c-0.197,2.438,1.735,4.613,3.633,5.86
	c5.966,3.918,15.445,2.099,21.652-0.36c2.277-0.902,5.609-2.427,6.521-4.946c0.887-2.45-1.013-4.357-3.067-5.3
	c-5.021-2.303-11.895-1.81-17.273-1.686c-1.037,0.023-1.042,1.634,0,1.614c3.391-0.064,6.798-0.023,10.18,0.247
	c1.582,0.125,3.192,0.266,4.736,0.654c1.994,0.505,5.567,1.658,3.129,5.198c-0.596,0.863-2.111,1.591-3.013,2.056
	c-4.261,2.197-9.552,3.147-14.309,3.213c-2.71,0.038-5.548-0.361-7.853-1.895c-1.097-0.73-2.433-1.968-2.784-3.283
	c-0.843-3.16,2.001-4.225,4.323-4.978C555.128,215.887,554.798,214.654,554.001,214.899"/>
<path fill="#FFC0E3" d="M594.125,155.642c-6.091,2.123-11.696,5.702-16.467,10.018c-1.297,1.172-2.533,2.411-3.709,3.706
	c-0.519,0.571-1.501,1.367-1.497,2.253c0.009,1.388,1.649,1.542,2.707,1.463c3.075-0.232,6.418-2.323,8.933-3.958
	c2.688-1.751,5.159-3.83,7.526-5.989c1.391-1.268,5.051-3.576,5.142-5.685c0.051-1.187-1.084-2.251-2.211-1.894
	c-0.809,0.255-0.473,1.508,0.352,1.276c0.258,0.937,0,1.635-0.773,2.095c-0.226,0.22-0.453,0.44-0.68,0.66
	c-0.797,0.771-1.598,1.539-2.41,2.295c-1.487,1.382-3.009,2.724-4.605,3.978c-1.705,1.337-3.484,2.578-5.383,3.624
	c-0.611,0.335-6.567,3.662-6.537,1.119c0.014-1.033,3.254-3.343,4.041-4.047c1.618-1.447,3.328-2.79,5.117-4.021
	c3.426-2.358,7.1-4.174,10.896-5.847C595.153,156.427,594.735,155.43,594.125,155.642"/>
<g>
	<g>
		<path fill="#587572" d="M673.023,120.1c-8.062,2.046-14.607,6.866-19.494,13.549c-2.9,3.966-4.405,8.499-5.81,13.146
			c-1.668,5.525-3.565,10.979-5.276,16.49c-2.263,7.284-6.438,17.104-1.5,24.135c3.641,5.184,11.476,5,16.947,4.031
			c0.836-0.148,1.66-1.118,0.314-0.88c-6.46,1.145-13.834,0.386-16.812-6.271c-2.983-6.667,1.475-16.5,3.47-22.925
			c5.093-16.398,9.183-35.638,28.368-40.507C674.378,120.578,674.166,119.81,673.023,120.1L673.023,120.1z"/>
	</g>
</g>
<g>
	<g>
		<path fill="#587572" d="M712.499,120.917c7.553,1.776,13.563,7.269,17.899,13.49c4.59,6.585,4.957,14.841,5.312,22.603
			c0.366,7.991-0.213,15.995-0.021,23.988c0.103,4.275-1.915,10.623-6.688,11.693c-4.677,1.05-12.776,0.165-17.286-1.648
			c-0.526-0.211-1.985,0.584-1.822,0.649c6.292,2.529,15.261,3.025,21.78,0.842c7.946-2.661,5.789-16.44,5.941-22.488
			c0.262-10.41,1.194-22.757-3.17-32.47c-3.636-8.09-11.694-15.354-20.354-17.392C713.65,120.082,711.971,120.793,712.499,120.917
			L712.499,120.917z"/>
	</g>
</g>
<g>
	<g>
		<path fill="#D1D1D1" d="M621.458,145.515c0,0-5.371-1.592-5.371,4.603v43.514c0,0,0.306,3.911,5.494,3.911h66.12
			c0,0,4.274,0.545,4.274-5.975v-42.321c0,0,0.248-3.699-5.319-3.699S621.458,145.515,621.458,145.515"/>
		<path fill="#DBDBDB" d="M616.277,194.017c13.656-11.75,15.534-20.903,32.109-27.026c7.954-2.941,14.143-5.144,22.299-7.369
			c10.969-2.995,10.302-2.762,21.29-5.754v-4.621c0,0,1.425-3.912-6.512-3.912h-63.883c0,0-5.494-0.869-5.494,6.52
			S616.277,194.017,616.277,194.017"/>
		<path fill="#EDEDED" d="M653.206,162.929c-0.106,0.017-6.302,0.896-6.302,6.728c0,5.832,8.245,9.2,11.4,3.224
			C661.458,166.906,657.465,162.322,653.206,162.929"/>
	</g>
	<g>
		<path fill="#777777" d="M615.604,150.118c-0.105,15.698-0.381,28.253-0.013,43.949c0.016,0.682,0.977,0.683,0.994,0
			c0.369-15.696,0.093-28.251-0.013-43.949C616.567,149.452,615.609,149.452,615.604,150.118"/>
		<path fill="#777777" d="M621.581,145.79c30.934,0.535,34.678,0.536,65.613,0.104c0.672-0.007,0.673-1.106,0-1.114
			c-30.936-0.432-34.68-0.432-65.613,0.105C621.037,144.892,621.037,145.78,621.581,145.79"/>
		<path fill="#777777" d="M616.399,150.209c0.323-1.35-0.072-2.63,1.266-3.479c1.141-0.725,2.616-0.946,3.916-0.899
			c0.61,0.019,0.575-0.916,0-0.988c-2.848-0.367-7.152,1.569-5.805,5.366C615.883,150.51,616.316,150.564,616.399,150.209"/>
		<path fill="#777777" d="M692.637,192.513c0.104-15.7,0.381-28.254,0.013-43.949c-0.019-0.685-0.978-0.685-0.996,0
			c-0.369,15.695-0.093,28.25,0.012,43.949C691.672,193.177,692.629,193.178,692.637,192.513"/>
		<path fill="#777777" d="M686.657,196.841c-31.376-0.537-35.559-0.536-66.936-0.104c-0.674,0.007-0.674,1.104,0,1.112
			c31.377,0.432,35.56,0.432,66.936-0.104C687.203,197.736,687.204,196.85,686.657,196.841"/>
		<path fill="#777777" d="M691.839,192.421c-0.322,1.349,0.073,2.631-1.266,3.48c-1.143,0.725-2.62,0.945-3.916,0.9
			c-0.609-0.023-0.575,0.912,0,0.985c2.848,0.367,7.151-1.568,5.806-5.365C692.357,192.121,691.924,192.064,691.839,192.421"/>
		<path fill="#777777" d="M692.688,150.343c0.293-2.037,0.116-3.116-0.93-4.041c-1.352-1.188-3.58-1.68-5.275-1.428
			c-0.74,0.111-0.675,1.11,0.05,1.099c1.276-0.021,2.81,0.447,3.938,1.153c1.32,0.826,1.093,1.516,1.232,3.335
			c0.03,0.394,0.635,0.524,0.848,0.118"/>
		<path fill="#777777" d="M615.979,192.421c-1.346,3.797,2.96,5.732,5.807,5.365c0.574-0.073,0.609-1.008,0-0.985
			c-1.301,0.045-2.771-0.177-3.917-0.9c-1.34-0.846-0.943-2.132-1.266-3.48C616.519,192.064,616.086,192.121,615.979,192.421"/>
		<path fill="#FFFFFF" d="M649.002,163.888c-3.254,1.544-3.48,6.817-1.81,9.67c1.94,3.318,6.396,4.251,9.458,2.185
			c3.171-2.136,5.02-7.502,2.677-10.971c-2.646-3.919-7.643-2.884-10.989-0.798c-0.803,0.499-0.092,1.784,0.724,1.323
			c2.477-1.396,5.792-2.525,8.235-0.411c2.88,2.485,1.484,7.64-1.341,9.588c-2.223,1.533-5.393,1.143-7.202-0.944
			c-1.899-2.191-2.04-7.17,0.846-8.553C650.294,164.645,649.693,163.561,649.002,163.888"/>
	</g>
	<polygon fill="#777777" points="692.782,155.499 692.851,166.356 691.493,165.032 	"/>
</g>
<g>
	<g>
		<path fill="#587572" d="M714.432,179.716c4.974,0.03,8.078,0.042,8.278-5.742c0.24-6.923-0.679-14.627-3.571-20.936
			c-0.319-0.697-1.851-0.252-1.545,0.414c2.287,4.988,3.022,10.136,3.276,15.588c0.079,1.68,0.205,3.362,0.271,5.042
			c0.184,4.633-3.41,4.489-6.581,4.47C713.665,178.548,713.386,179.71,714.432,179.716L714.432,179.716z"/>
	</g>
</g>
<path fill="#B5A38C" d="M705.377,173.531c0,0,0.268-1.646,2.625-0.445c2.357,1.201,6.806,4.759,6.806,4.759s0.534,4.761-0.579,4.894
	c-1.112,0.133-3.558-0.757-3.558-0.757l2.49,3.336c0,0-2.225,6.94-4.182,7.029c-1.957,0.089-9.207-3.069-9.118-4.67
	s1.691,0.533,3.336-0.49c1.646-1.022,3.737-3.915,4.226-5.872C707.912,179.358,707.289,174.688,705.377,173.531z"/>
<g>
	<path fill="#F4C09D" d="M706.09,173.708c0,0,2.668,5.116,0.978,8.407c-1.689,3.292-5.293,5.338-5.293,5.338
		s-4.182-0.579-6.672-0.979c-2.491-0.4-7.785-4.182-7.785-4.182s-4.803-0.533-6.449,0.49c-1.646,1.023-2.314,1.78-3.826,0.935
		c-1.512-0.846-3.114-1.602-1.468-3.737s4.537-4.137,4.537-4.137s-3.336-0.223-4.671,0.711c-1.334,0.934-2.49,1.645-3.558,0.489
		c-1.068-1.156-0.979-4.893,1.779-6.227c0,0-1.469-5.249,2.045-6.672c3.515-1.423,11.7-0.312,16.237,2.09l0.534-7.339
		c0,0,2.802,0.89,4.092,4.582c1.289,3.691,1.558,5.961,4.715,7.518C704.443,172.551,706.09,173.708,706.09,173.708z"/>
	<path fill="#FFD0B0" d="M692.276,162.32c1.624-0.212,2.923,2.416,3.137,3.659c0.078,0.46,0.371,1.545-0.116,1.882
		c-0.4,0.277-1.637-0.247-2.054-0.43c-2.047-0.896-3.958-2.295-6.186-2.86c-2.623-0.667-5.081-1.578-7.86-0.85
		c-0.772,0.203-2.088,0.582-2.584,1.2c-0.671,0.834-0.156,1.932,0.781,2.284c0.709,0.267,1.854,0.219,2.604,0.253
		c0.96,0.046,1.886-0.06,2.804,0.199c1.179,0.332,4.078,1.248,4.261,2.724c-1.49,0.092-2.977,0.069-4.394-0.325
		c-1.027-0.287-2.074-0.397-3.201-0.397c-1.966,0-5.535,0.419-5.674,2.984c-0.1,1.843,3.198,1.424,4.47,1.487
		c1.09,0.054,2.217,0.209,3.271,0.486c1.062,0.277,1.78,0.928,2.711,1.433c-0.827,0.494-2.282-0.003-3.245,0.083
		c-1.199,0.108-1.998,0.651-2.922,1.42c-0.799,0.665-1.785,1.766-1.468,2.915c0.369,1.337,2.218,1.338,3.191,0.82
		c0.88-0.468,1.735-1.09,2.665-1.47c1.299-0.532,2.734-0.548,4.142-0.548c3.434,0,6.569,2.084,9.969,2.399
		c2.793,0.258,5.37-0.152,7.026-2.614c1.147-1.707,0.891-4.869-0.485-6.394c-1.429-1.583-4.005-2.317-5.056-4.264
		c-0.286-0.533-0.388-1.191-0.631-1.738c-0.242-0.541-0.555-1.071-0.701-1.649c-0.291-1.155-0.186-2.437-0.851-3.488
		c-0.936-1.48-2.411-1.958-4.009-2.311c0.009,0.406-0.007,0.785-0.062,1.176"/>
	<path fill="none" stroke="#AD846F" stroke-width="1.1" stroke-linecap="round" stroke-miterlimit="10" d="M693.366,167.08
		c-1.04-0.968-2.781-1.487-4.25-2.071c-1.474-0.585-2.924-1.108-4.493-1.331c-3.07-0.438-6.595-0.674-9.41,0.978
		c-1.201,0.705-1.742,1.324-1.775,2.691c-0.027,1.126,0.244,2.302,0.801,3.203"/>
	<path fill="none" stroke="#AD846F" stroke-width="1.1" stroke-linecap="round" stroke-miterlimit="10" d="M686.961,170.55
		c-0.833-0.212-3.259-0.666-4.092-0.801c-1.414-0.229-3.061-0.087-4.537-0.09c-2.803-0.005-5.998,1.301-7.207,4.088
		c-0.754,1.74,0.576,4.234,2.578,4.01c0.759-0.085,1.568-1.271,2.403-1.604c1.004-0.401,4.094-0.533,4.982-0.177"/>
	<path fill="none" stroke="#AD846F" stroke-width="1.1" stroke-linecap="round" stroke-miterlimit="10" d="M692.299,159.074
		c0.852-0.988,3.147,1.728,3.559,2.402c0.629,1.035,1.168,2.433,1.518,3.554c0.388,1.248,0.413,2.947,1.263,3.99
		c0.924,1.134,2.469,1.886,3.649,2.687c0.165,0.111,3.718,2.34,3.901,2.524"/>
	<path fill="none" stroke="#AD846F" stroke-linecap="round" stroke-miterlimit="10" d="M686.16,176.51
		c-1.838-0.34-4.906-1.07-6.793-0.086c-1.244,0.648-2.51,1.628-3.373,2.753c-0.843,1.098-1.562,2.59-0.401,3.719
		c0.865,0.841,2.448,1.862,3.626,1.243c0.576-0.302,0.914-1.008,1.448-1.378c0.638-0.442,1.366-0.481,2.112-0.557
		c1.514-0.153,3.087-0.185,4.518,0.374c2.626,1.026,5.067,3.786,7.938,4.069c0.83,0.082,1.975,0.353,2.758,0.353h-0.089
		c1.103,0,2.313,0.455,3.381,0.721"/>
</g>
<path fill="none" stroke="#82786F" stroke-miterlimit="10" d="M706.122,174.197c0.915,1.104,1.272,2.49,1.342,3.903
	c0.064,1.324,0.194,2.68-0.266,3.955c-0.525,1.451-1.475,2.504-2.519,3.608c-0.374,0.395-0.792,0.73-1.191,1.084
	c-0.381,0.337-0.803,0.722-1.301,0.829c-0.373,0.079-0.619-0.002-1.036-0.135"/>
<path fill="none" stroke="#82786F" stroke-miterlimit="10" d="M704.933,173.308c0.515-0.675,1.604-0.646,2.314-0.389
	c0.824,0.298,1.583,0.775,2.268,1.332c0.76,0.62,1.581,1.118,2.358,1.725c0.417,0.325,0.841,0.642,1.289,0.927
	c0.537,0.34,0.984,0.771,1.512,1.12"/>
<path fill="#DACDBC" d="M708.891,176.866c0.229,1.404,0.548,2.842,0.203,4.306c-0.374,1.578-0.985,3.483-1.985,4.783
	c-0.54,0.701-2.13,1.567-1.825,2.586c0.345,1.152,2.293,1.534,3.159,1.019c1.294-0.771,2.607-2.517,3.185-3.887
	c0.103-0.244,0.345-0.746,0.333-1c-0.022-0.497-0.419-0.611-0.804-1.004c-0.478-0.487-0.936-1.276-1.056-1.922
	c0.575-0.028,1.183-0.053,1.727,0.105c0.501,0.148,0.925,0.54,1.458,0.475c0.472-1.69-0.146-3.539-1.392-4.727
	c-0.494-0.471-1.043-0.813-1.666-1.001c-0.338-0.101-1.686-0.353-1.337,0.4"/>
<path fill="none" stroke="#82786F" stroke-miterlimit="10" d="M699.772,187.142c0,0.887,0.223,1.414,0.981,1.902
	c0.798,0.513,1.499,1.158,2.354,1.601c0.782,0.404,1.783,0.749,2.626,1.002c0.804,0.242,1.667,0.469,2.492,0.645
	c0.444,0.096,0.878,0.264,1.286,0.061c0.377-0.188,0.725-0.663,0.983-0.985c0.608-0.757,1.072-1.616,1.553-2.455
	c0.411-0.719,0.66-1.313,0.834-2.123c0.102-0.47,0.28-0.805,0.325-1.427c-0.312-0.4-1.148-1.216-1.468-1.513
	c-0.667-0.623-1.157-1.334-1.602-2.135c0.327-0.166,2.979,0.49,4.226,1.468"/>
<path fill="none" stroke="#82786F" stroke-miterlimit="10" d="M714.541,178.022c0.636-0.079,0.298,4.635-0.534,5.25"/>
<path fill="none" stroke="#82786F" stroke-miterlimit="10" d="M710.138,181.714c1.022-0.177,2.979,0.49,4.226,1.468"/>
<polygon fill="#777777" points="692.788,156.715 692.832,165.923 691.453,165.211 691.587,156.849 "/>
<path fill="#F4C09D" d="M617.231,174.465c0.818,0.032,1.74-0.308,2.425,0.269c0.656,0.553,1.097,1.294,1.231,2.212
	c0.111,0.764-0.142,1.512-0.605,2.068c-0.388,0.465-0.971,0.792-1.34,1.269c1.188,0.053,2.632,0.982,2.747,2.344
	c0.113,1.337-1.59,2.079-2.149,3.092c0.883,0.239,1.621,0.914,2.023,1.824c0.48,1.087,0.115,1.95-0.625,2.76
	c-0.722,0.79-2.012,1.496-2.988,1.866c-0.837,0.317-2.149,0.728-3.051,0.578c-0.331-0.054-0.728-0.229-1.031-0.367
	c-0.349-0.156-0.746-0.248-1.106-0.401c-1.001-0.423-1.728-1.513-2.119-2.534c-0.341-0.883-0.479-1.67-0.16-2.571
	c0.3-0.849,0.762-1.231,0.427-2.145c-0.332-0.913-0.517-2.108-0.261-3.058c0.117-0.432,0.318-0.935,0.637-1.237
	c0.273-0.26,0.962-0.368,1.146-0.69c0.183-0.316-0.931-1.668-1.123-2.126c-0.322-0.763-0.034-1.745,0.341-2.443
	c0.468-0.872,1.775-1.397,2.667-1.56c0.389-0.071,0.871,0.003,1.249,0.049c0.538,0.065,1.074,0.398,1.625,0.353"/>
<path fill="#FFD0B0" d="M613.066,174.332c-0.523-0.292-0.715,1.247-0.574,1.602c0.25,0.637,0.958,0.836,1.543,0.89
	c1.09,0.101,2.447,0.224,3.446-0.301c0.581-0.307,1.382-0.775,0.76-1.49c-0.61-0.704-1.936-0.882-2.789-0.924
	c-0.452-0.022-1.115-0.084-1.511,0.133"/>
<path fill="#FFD0B0" d="M616.94,180.559c0.146,0.312,0.819,0.381,1.033,0.754c0.206,0.365,0.106,0.917-0.084,1.257
	c-0.686,1.228-2.492,1.245-3.656,1.013c-0.85-0.169-2.183-0.759-2.494-1.727c-0.257-0.8,0.83-1.436,1.452-1.565
	c0.931-0.195,2.103-0.079,3.04-0.044"/>
<path fill="none" stroke="#AD846F" stroke-linecap="round" stroke-miterlimit="10" d="M616.561,173.987
	c-1.792-0.504-5.059-0.639-5.224,2.211c-0.173,2.985,1.276,3.989,3.815,3.981c1.578-0.003,4.076,0.433,5.153-1.097
	c1.085-1.54,0.208-4.142-1.333-4.543c-0.738-0.192-1.537-0.009-2.209-0.442"/>
<path fill="#FFD0B0" d="M617.523,186.697c0.876-0.103,1.139,0.864,0.812,1.573c-0.565,1.226-2.525,1.221-3.616,1.264
	c-1.138,0.045-2.789-0.338-3.694-1.148c-0.563-0.504-1.015-1.884-0.213-2.412c1.007-0.663,2.66,0.099,3.703,0.268
	c1.056,0.171,2.117-0.011,3.175,0.143"/>
<path fill="none" stroke="#AD846F" stroke-linecap="round" stroke-miterlimit="10" d="M613.357,180.025
	c-2.874-0.757-3.266,3.784-2.249,5.275c0.884,1.298,3.981,1.388,5.351,1.298c1.663-0.109,3.705-1.008,4.751-2.54
	c1.316-1.929-0.336-3.23-2.036-3.434c-0.554-0.067-0.97-0.174-1.508-0.332"/>
<path fill="none" stroke="#AD846F" stroke-linecap="round" stroke-miterlimit="10" d="M618.975,185.934
	c1.701-0.744,3.114,1.534,2.621,3.317c-0.542,1.952-3.999,2.742-5.536,2.992c-1.989,0.324-4.271-0.111-5.148-2.326
	c-0.394-0.996-1.007-4.26,0.828-3.984"/>
<g>
	<path fill="#F4C09D" d="M650.55,92.909c0,0-8.662,1.95-4.377,11.741c2.697,5.792,8.359,3.821,8.359,3.821l3.087,9.188
		c0,0,15.389,6.843,21.263,6.885c5.879,0.044,22.782,0.582,36.855-7.743l2.06-13.494c0,0,9.006,0.854,10.698-6.357
		c1.69-7.213-4.057-10.326-4.057-10.326l0.2-47.784l-77.172,3.328L650.55,92.909z"/>
	<path fill="#D6A380" d="M650.251,77.775c0.001-2.962,0.27-5.921,0.798-8.836c0.163-0.901,0.356-1.812,0.781-2.625
		c0.482-0.918,1.236-1.662,1.988-2.376c1.832-1.739,3.736-3.403,5.704-4.987c0.252,1.27,0.661,2.506,1.217,3.674
		c3.044-3.247,7.283-5.346,11.71-5.799c0.518-0.052,1.127-0.14,1.367-0.6c0.168-0.319,0.09-0.705,0.006-1.054
		c-0.394-1.667-0.787-3.335-1.179-5.003c6.19-2.319,12.758-3.627,19.365-3.858c0.556,1.448,0.887,2.983,0.972,4.532
		c4.204-2.13,9.539-1.827,13.476,0.765c0.247,0.165,0.519,0.344,0.814,0.312c0.226-0.023,0.417-0.165,0.586-0.315
		c1.012-0.896,1.571-2.276,1.475-3.623c4.361,2.353,9.061,5.083,10.789,9.725c1.215,3.261,0.743,6.998,2.162,10.174
		c1.459-5.049,0.694-10.698-2.052-15.178c-0.888-1.445-1.979-2.779-3.289-3.857c-1.932-1.586-4.279-2.575-6.644-3.38
		c-9.711-3.305-20.352-3.824-30.34-1.481c-9.985,2.342-19.285,7.541-26.51,14.821c-1.386,1.395-2.722,2.903-3.47,4.72
		c-1.336,3.234-0.626,6.906,0.1,10.33"/>
	<path fill="#565C56" d="M650.553,91.428c0.156-1.097-9.862-9.21-11.646-32.555c-1.783-23.345,0.029-35.872,0.029-35.872
		s13.721-10.782,46.166-8.878c32.444,1.905,44.641,13.594,49.793,31.023c0,0-5.744,38.908-13.295,44.282
		c0,0,2.012-25.416,1.19-29.73c-0.817-4.315-1.503-9.312-9.561-13.248c-8.058-3.935-20.937-5.694-32.146-2.616
		c-11.212,3.079-26.572,10.166-31.705,20.63L650.553,91.428z"/>
	<path fill="#747A74" d="M639,30.041c-0.65,3.822-1.302,7.736-0.612,11.55c0.692,3.814,3.007,7.572,6.654,8.891
		c1.998,0.724,4.21,0.658,6.294,0.232c6.8-1.39,12.241-6.278,17.746-10.505c5.507-4.227,12.133-8.117,18.981-6.986
		c3.758,0.62,7.27,2.733,11.075,2.597c4.729-0.169,9.2-3.804,13.775-2.598c2.039,0.538,3.711,1.979,5.185,3.489
		c1.474,1.509,2.854,3.152,4.634,4.285c1.779,1.132,4.1,1.683,6.012,0.795c1.913-0.888,2.984-3.554,1.732-5.253
		c0,0-7.017-21.022-41.944-22.021c-34.929-0.999-49.596,8.485-49.596,8.485L639,30.041z"/>
	<path fill="#858C85" d="M667.683,41.296c0,0,8.622-8.215,15.959-8.306c7.337-0.089,12.055,2.495,12.055,2.495l13.928-2.404
		c0,0-5.194,2.296-7.804,3.223c-2.608,0.927-6.431-0.928-11.638-1.659c-5.207-0.732-10.72-0.361-16.609,3.144L667.683,41.296z"/>
	<path fill="#434943" d="M666.402,40.395c0,0-7.298-0.415-11.101,9.151c-3.806,9.563,2.363,12.84,2.363,12.84
		s3.057-9.048,13.062-8.597C670.728,53.789,668.104,41.598,666.402,40.395"/>
	<path fill="#434943" d="M694.03,36.131l1.121,10.785c0,0,10.405-4.652,16.101,3.774c0,0,4.543-9.035-2.368-13.762
		C701.972,32.202,694.03,36.131,694.03,36.131"/>
	<path fill="#FFD0B0" d="M660.449,118.711c-6.484-2.823-3.198-13.803-3.586-20.867c-0.167-3.065-0.181-6.177,0.538-9.163
		c1.591-6.617,6.688-11.995,12.652-15.274c5.966-3.281,12.762-4.708,19.5-5.671c4.286-0.615,8.847-1.019,12.771,0.809
		c1.313,0.612,2.509,1.456,3.614,2.395c6.573,5.581,9.84,14.408,9.94,23.031c0.103,8.622-2.68,17.064-6.556,24.767
		C709.324,118.737,688.387,130.869,660.449,118.711"/>
	<path fill="#FFFFFF" d="M666.122,69.411c-0.86,0.413-8.307,5.437-5.217,15.609c3.086,10.175,11.637,10.922,15.05,8.657
		c3.417-2.265,6.987-6.123,3.735-14.582C676.438,70.635,672.005,66.593,666.122,69.411"/>
	<path fill="#FFFFFF" d="M693.92,69.423c0,0-5.888,11.311-2.128,16.784c3.759,5.479,12.656,6.008,14.899,1.32
		c2.243-4.687,3.678-16.589,0.449-20.762C703.912,62.591,699.704,59.263,693.92,69.423"/>
	<path fill="#EAEAEA" d="M660.283,82.158c0,0,2.907-6.966,14.981-11.171c0,0-13.022-9.775-15.386,11.815"/>
	<path fill="#EAEAEA" d="M695.364,67.116c0,0,7.708-0.691,13.647,6.948c0,0-0.115-9.079-4.533-10.107
		C700.062,62.927,697.882,62.846,695.364,67.116"/>
</g>
<path fill="#AD846F" d="M650.421,92.21c-5.245,0.865-7.53,6.297-5.827,11.103c1.22,3.442,6.704,8.493,10.486,5.601
	c0.916-0.701-0.288-2.144-1.149-1.372c-2.53,2.272-6.839-2.585-7.607-4.547c-1.479-3.787,0.146-8.431,4.353-9.387
	C651.562,93.403,651.327,92.062,650.421,92.21"/>
<path fill="#AD846F" d="M724.398,88.169c3.636,2.189,4.544,6.353,2.594,10.094c-1.883,3.613-5.402,4.156-9.122,4.212
	c-1.051,0.016-1.238,1.554-0.146,1.663c4.709,0.466,9.489-1.34,11.296-5.991c1.62-4.173,0.604-9.567-3.973-11.204
	C724.325,86.685,723.698,87.748,724.398,88.169"/>
<path fill="#AD846F" d="M650.193,91.646c-0.4,2.541,1.059,5.494,2.389,7.57c0.523,0.815,1.67-0.062,1.356-0.868
	c-0.87-2.235-2.259-4.31-2.449-6.762C651.426,90.812,650.299,90.961,650.193,91.646"/>
<path fill="#AD846F" d="M720.64,90.308c-0.286,1.634-0.766,3.197-1.181,4.801c-0.271,1.056,1.213,1.666,1.622,0.604
	c0.641-1.669,0.931-3.498,1.118-5.267C722.309,89.429,720.809,89.328,720.64,90.308"/>
<path fill="#373A37" d="M638.174,22.935c-1.72,13.03-1.465,26.374,0.253,39.393c1.404,10.629,3.972,21.579,11.45,29.667
	c0.771,0.832,2.119-0.287,1.354-1.132c-7.557-8.339-9.907-19.439-11.231-30.298c-1.522-12.495-1.355-24.975-0.302-37.495
	C639.781,22.083,638.303,21.96,638.174,22.935"/>
<path fill="#373A37" d="M639.19,23.539c17.106-9.016,36.255-9.809,55.148-7.981c9.238,0.894,17.744,3.112,25.189,8.875
	c7.006,5.422,11.404,12.563,14.344,20.799c0.342,0.961,1.966,0.446,1.712-0.55c-4.443-17.312-20.533-28.252-37.55-30.283
	c-19.76-2.358-41.736-2.424-59.351,8.065C638.04,22.849,638.502,23.902,639.19,23.539"/>
<path fill="#373A37" d="M734.2,45.084c-1.44,8.053-2.945,16.075-4.924,24.016c-1.796,7.192-3.518,14.294-7.848,20.433
	c-0.647,0.92,0.693,1.822,1.4,0.994c4.854-5.681,6.416-13.728,8.148-20.792c1.982-8.078,3.621-16.264,4.611-24.527
	C735.696,44.307,734.356,44.216,734.2,45.084"/>
<path fill="#373A37" d="M666.506,39.234c-10.349-0.663-17.636,16.266-10.183,23.408c0.769,0.735,2.026-0.242,1.297-1.087
	c-6.044-7.012-0.029-19.908,8.952-20.852C667.41,40.614,667.332,39.287,666.506,39.234"/>
<path fill="#373A37" d="M666.258,40.089c1.44,4.568,2.64,9.168,3.641,13.851c0.299-0.329,0.602-0.66,0.903-0.99
	c-6.314-0.461-11.967,3.045-14,9.114c-0.376,1.125,1.343,1.771,1.728,0.645c1.761-5.148,6.639-8.561,12.123-8.08
	c0.543,0.046,1.004-0.451,0.902-0.99c-0.894-4.778-2.182-9.45-3.816-14.024C667.443,38.788,665.991,39.24,666.258,40.089"/>
<path fill="#373A37" d="M693.91,36.751c4.186-0.97,8.775-1.438,12.867,0.262c6.15,2.55,5.85,8.034,3.68,13.38
	c-0.417,1.026,1.134,1.57,1.592,0.594c2.154-4.593,2.882-10.77-1.756-14.153c-4.607-3.363-11.667-3.228-16.756-1.245
	C692.889,35.841,693.23,36.909,693.91,36.751"/>
<path fill="#373A37" d="M693.054,36.427c0.004,3.595,0.524,7.129,1.264,10.64c0.116,0.555,0.682,0.823,1.194,0.612
	c5.162-2.109,11.805-1.227,15.023,3.611c0.668,1.005,2.098-0.208,1.437-1.202c-3.694-5.565-11.343-6.516-17.183-3.94
	c0.398,0.204,0.796,0.409,1.194,0.614c-0.748-3.447-1.153-6.902-1.552-10.401C694.344,35.593,693.052,35.637,693.054,36.427"/>
<path fill="#373A37" d="M654.684,57.935c-1.328-0.242-2.514,1.213-3.305,2.079c-1.098,1.201-2.192,2.625-2.735,4.176
	c-0.291,0.833,0.848,1.458,1.375,0.728c0.706-0.978,1.282-2.035,2.027-2.994c0.606-0.782,1.662-2.477,2.702-2.64
	C655.549,59.158,655.403,58.066,654.684,57.935"/>
<path fill="#373A37" d="M648.692,64.389c-0.534,9.266,0.455,18.53,1.499,27.717c0.104,0.917,1.52,0.659,1.412-0.256
	c-1.075-9.141-1.111-18.343-1.544-27.523C650.023,63.546,648.736,63.624,648.692,64.389"/>
<path fill="#373A37" d="M669.553,48.431c7.605-3.294,15.577-5.023,23.852-5.219c0.979-0.021,1.143-1.543,0.137-1.542
	c-8.563,0.016-16.807,1.946-24.491,5.695C668.369,47.698,668.856,48.731,669.553,48.431"/>
<path fill="#373A37" d="M712.883,46.94c4.513,2.587,7.882,6.632,9.209,11.7c0.268,1.015,1.89,0.726,1.615-0.294
	c-1.481-5.488-5.081-10.049-10.266-12.458C712.831,45.604,712.292,46.601,712.883,46.94"/>
<path fill="#373A37" d="M722.22,58.437c-0.269,10.622-0.475,21.159-1.616,31.734c-0.12,1.111,1.608,1.265,1.729,0.154
	c1.132-10.569,1.898-21.325,1.333-31.955C723.621,57.551,722.241,57.618,722.22,58.437"/>
<path fill="#E0AA86" d="M693.022,87.182c-3.741-4.383-1.403-10.835,0.543-15.525c0.858-2.069,1.729-4.183,3.246-5.858
	c3.13-3.459,7.938-2.549,9.912,1.628c2.006,4.242,1.858,10.178,1.029,14.702c-0.736,4.014-2.575,8.133-7.309,8.15
	c-2.727,0.012-5.325-0.843-7.068-3.017c-0.524-0.651-1.508,0.175-0.993,0.833c3.607,4.587,12.034,5.074,14.979-0.43
	c3.024-5.654,3.557-16.417-0.088-21.941c-3.972-6.02-10.484-3.348-13.342,2.066c-2.837,5.371-6.892,14.883-1.757,20.1
	C692.668,88.392,693.49,87.731,693.022,87.182"/>
<path fill="#E0AA86" d="M680.202,88.228c-3.102,4.855-9.272,7.094-14.368,3.639c-4.73-3.211-5.972-9.79-4.631-15.036
	c0.845-3.309,2.655-5.711,5.806-7.14c3.803-1.727,6.858,0.034,9.032,3.238c3.006,4.427,4.644,10.288,4.261,15.61
	c-0.052,0.699,0.966,0.774,1.075,0.095c1.057-6.547-2.065-16.508-7.969-20.221c-5.511-3.47-12.22,2.862-13.468,8.044
	c-1.476,6.136,0.17,13.768,6.063,17.015c5.519,3.041,12.226,0.667,14.945-4.847C681.162,88.19,680.459,87.825,680.202,88.228"/>
<path fill="#AD846F" d="M674.11,91.005c0.485,0.205,1.046,0.221,1.544,0.053c0.783-0.267,1.392-1.03,1.409-1.859
	c0.017-0.826-0.604-1.641-1.42-1.785c-0.618-0.106-1.248,0.15-1.769,0.5c-0.35,0.235-0.686,0.538-0.806,0.942
	c-0.252,0.849,0.517,1.635,1.208,2.19"/>
<path fill="#AD846F" d="M673.887,91.607c1.381,0.531,2.936,0.05,3.639-1.291c0.676-1.287,0.169-2.934-1.154-3.575
	c-1.38-0.67-3.338,0.12-4.063,1.429c-0.807,1.458,0.338,3.084,1.649,3.731c0.878,0.433,1.518-0.78,1.019-1.442
	c-0.225-0.298-1.045-0.88-0.963-1.305c0.095-0.501,1.122-0.951,1.553-0.857c0.568,0.125,0.829,0.78,0.658,1.294
	c-0.264,0.794-1.158,1.039-1.888,0.81C673.55,90.157,673.109,91.31,673.887,91.607"/>
<path fill="#AD846F" d="M696.723,87.202c0.883,0.051,1.834-0.243,2.359-0.952c0.527-0.71,0.453-1.869-0.291-2.348
	c-0.262-0.168-0.576-0.242-0.887-0.26c-0.98-0.055-2.019,0.525-2.306,1.464c-0.287,0.936,0.401,2.104,1.382,2.141"/>
<path fill="#AD846F" d="M696.665,87.848c1.404,0.065,2.952-0.527,3.39-1.986c0.452-1.509-0.491-2.959-2.072-3.11
	c-1.508-0.144-3.169,0.87-3.384,2.448c-0.21,1.544,0.968,3.036,2.549,2.964c0.914-0.042,1.013-1.554,0.158-1.789
	c-1.373-0.375-0.692-1.817,0.52-1.841c0.638-0.014,1.015,0.459,0.797,1.078c-0.256,0.725-1.158,0.95-1.843,0.944
	C695.956,86.549,695.822,87.809,696.665,87.848"/>
<path fill="#AD846F" d="M653.836,108.601c0.498,2.062,1.083,4.104,1.686,6.139c0.413,1.388,0.761,2.814,1.81,3.869
	c0.757,0.759,1.993-0.229,1.294-1.082c-1.108-1.356-1.424-3.153-1.938-4.792c-0.48-1.53-0.973-3.057-1.516-4.566
	C654.902,107.418,653.646,107.82,653.836,108.601"/>
<path fill="#AD846F" d="M657.768,118.779c9.229,4.315,19.231,7.155,29.484,6.598c10.113-0.551,19.618-3.842,28.822-7.864
	c0.928-0.406,0.257-1.831-0.672-1.423c-8.907,3.911-18.464,6.979-28.23,7.536c-10.39,0.59-19.272-2.947-28.941-6.088
	C657.41,117.27,656.999,118.422,657.768,118.779"/>
<path fill="#AD846F" d="M717.136,103.76c-0.674,4.217-1.12,8.393-2.145,12.551c-0.272,1.1,1.391,1.73,1.665,0.623
	c1.045-4.239,1.907-8.682,1.725-13.063C718.346,103.082,717.266,102.944,717.136,103.76"/>
<path fill="#373A37" d="M644.186,20.345c-1.279,5.373-1.746,10.92-1.709,16.435c0.01,1.19,1.869,1.368,1.86,0.165
	c-0.037-5.494,0.483-10.853,1.207-16.291C645.647,19.884,644.371,19.566,644.186,20.345"/>
<path fill="#373A37" d="M649.395,18.485c-0.432,2.417-0.613,4.912-0.661,7.365c-0.018,1.036,1.553,1.2,1.624,0.144
	c0.162-2.458,0.381-4.917,0.532-7.377C650.95,17.638,649.562,17.544,649.395,18.485"/>
<path fill="#373A37" d="M655.541,16.712c-0.454,5.392-0.596,10.824-0.262,16.227c0.062,0.992,1.785,0.923,1.767-0.082
	c-0.1-5.344-0.15-10.666,0.033-16.008C657.112,15.864,655.626,15.716,655.541,16.712"/>
<path fill="#FFFFFF" d="M675.667,100.188c0,0,18.245,1.622,30.642-3.434c0,0,6.15,9.588-8.952,14.935
	c-10.753,2.745-14.477,1.205-14.477,1.205S676.482,105.718,675.667,100.188"/>
<path fill="#DBDBDB" d="M699.889,103.272c-0.306-0.091,5.522-0.158,7.745-1.875l0.235,1.803
	C707.868,103.199,705.042,104.791,699.889,103.272"/>
<path fill="#AD846F" d="M675.61,100.591c10.383,1.831,21.02,0.015,30.91-3.331c0.673-0.227,0.241-1.234-0.427-1.015
	c-9.899,3.248-19.974,4.887-30.371,3.541C675.202,99.719,675.097,100.5,675.61,100.591"/>
<path fill="#AD846F" d="M674.947,100.441c0.756,4.976,4.212,9.182,7.492,12.794c0.478,0.525,1.357-0.136,0.883-0.682
	c-3.316-3.808-5.968-7.485-7.478-12.355C675.686,99.688,674.868,99.926,674.947,100.441"/>
<path fill="#AD846F" d="M683.327,113.468c7.055,0.84,16.194-1.065,21.712-5.766c3.075-2.622,5.17-8.163,1.64-11.427
	c-0.581-0.538-1.28,0.422-0.74,0.959c2.096,2.081,1.122,6.537-0.387,8.396c-1.577,1.947-4.02,3.239-6.278,4.173
	c-4.956,2.049-10.465,3.119-15.812,2.721C682.855,112.481,682.715,113.395,683.327,113.468"/>
</svg>
