<?xml version="1.0" encoding="utf-8"?>
<!-- Generator: Adobe Illustrator 15.1.0, SVG Export Plug-In . SVG Version: 6.00 Build 0)  -->
<!DOCTYPE svg PUBLIC "-//W3C//DTD SVG 1.1//EN" "http://www.w3.org/Graphics/SVG/1.1/DTD/svg11.dtd">
<svg version="1.1" id="Layer_1" xmlns="http://www.w3.org/2000/svg" xmlns:xlink="http://www.w3.org/1999/xlink" x="0px" y="0px"
	 width="440px" height="286px" viewBox="112 15.5 440 286" enable-background="new 112 15.5 440 286" xml:space="preserve">
<path fill="#F9F9F9" d="M551,292.133c0,4.621-3.746,8.367-8.367,8.367H123.367c-4.621,0-8.367-3.746-8.367-8.367v-0.266
	c0-4.621,3.746-8.367,8.367-8.367h419.266c4.621,0,8.367,3.746,8.367,8.367V292.133z"/>
<path fill="#F2F2F2" stroke="#E2E2E2" stroke-width="2" stroke-miterlimit="10" d="M536,274.486c0,8.844-7.17,16.014-16.014,16.014
	H142.014c-8.844,0-16.014-7.17-16.014-16.014V38.514c0-8.844,7.169-16.014,16.014-16.014h377.973C528.83,22.5,536,29.669,536,38.514
	V274.486z"/>
<g>
	<rect x="175" y="33.5" fill="#FFFFFF" width="311" height="248"/>
	<path fill="#E2E2E2" d="M485,34.5v246H176v-246H485 M487,32.5H174v250h313V32.5L487,32.5z"/>
</g>
<g>
	<path fill="#E6E6E6" d="M511.302,171.866c-8.475,0-15.369-6.895-15.369-15.371c0-8.475,6.896-15.369,15.369-15.369
		c8.475,0,15.369,6.895,15.369,15.369C526.671,164.971,519.776,171.866,511.302,171.866z"/>
	<path fill="#E2E2E2" d="M511.302,142.126c7.923,0,14.369,6.446,14.369,14.369c0,7.924-6.446,14.371-14.369,14.371
		s-14.369-6.447-14.369-14.371C496.933,148.572,503.379,142.126,511.302,142.126 M511.302,140.126
		c-9.041,0-16.369,7.329-16.369,16.369c0,9.041,7.328,16.371,16.369,16.371s16.369-7.33,16.369-16.371
		C527.671,147.456,520.343,140.126,511.302,140.126L511.302,140.126z"/>
</g>
<path fill="#E6E6E6" stroke="#E2E2E2" stroke-width="2" stroke-miterlimit="10" d="M153,183c0,1.381-1.119,2.5-2.5,2.5l0,0
	c-1.381,0-2.5-1.119-2.5-2.5v-59c0-1.381,1.119-2.5,2.5-2.5l0,0c1.381,0,2.5,1.119,2.5,2.5V183z"/>
</svg>
