<?xml version="1.0" encoding="utf-8"?>
<!-- Generator: Adobe Illustrator 15.1.0, SVG Export Plug-In . SVG Version: 6.00 Build 0)  -->
<!DOCTYPE svg PUBLIC "-//W3C//DTD SVG 1.1//EN" "http://www.w3.org/Graphics/SVG/1.1/DTD/svg11.dtd">
<svg version="1.1" id="Layer_1" xmlns="http://www.w3.org/2000/svg" xmlns:xlink="http://www.w3.org/1999/xlink" x="0px" y="0px"
	 width="857px" height="398px" viewBox="0 0 857 398" enable-background="new 0 0 857 398" xml:space="preserve">
<circle fill="#CE3C3C" cx="702" cy="248.5" r="12.374"/>
<circle fill="#FF4848" cx="702" cy="248.5" r="10.625"/>
<g>
	<g>
		<path fill="#FFFFFF" d="M700.346,244.499c-0.158,2.767-0.102,5.528-0.026,8.296c0.021,0.919,1.963,0.545,1.941-0.195
			c-0.07-2.768-0.129-5.531,0.028-8.295C702.341,243.398,700.389,243.744,700.346,244.499L700.346,244.499z"/>
	</g>
</g>
<path fill="#E6E6E6" d="M682.833,280.083c0,0-3.916,0.501-5.083-1.333s-1.417-3.252-0.917-7.584s1.5-15.416,1.5-15.416
	s-0.667-3.584,4.583-3.167s10.667,2.167,10.667,2.167s1.083,4.417-0.417,10S688.666,279.666,682.833,280.083z"/>
<path fill="#A66132" d="M673,277.333c0,0,1.916,12.999,2.166,12.583s4.417-5.833,4.417-6.083s-1.833-4.667-1.833-4.667l5.5,1.084
	l1.666-3c0,0-4-5.666-2.083-6.5s-0.5-4.834,2.25-3.667s2.833,2.5,3.333-0.5s1.084-3.417,2.834-2.5s3.833,4.833,2.583,10.25
	s-6,11.75-6,11.75l-4.166,14.333c0,0-4.833,8.084-8.25,8.417s-5.5-1.083-5.5-1.083S668,279.166,668,278.833S673,277.333,673,277.333
	z"/>
<g>
	<g>
		<path fill="#624321" d="M676.875,279.814c-0.285,1.953,1.321,3.623,2.888,4.537c0.368,0.213,0.889,0.088,1.259-0.057
			c0.101-0.038,0.901-0.439,0.552-0.646c-1.396-0.812-3.04-2.351-2.78-4.135C678.88,278.911,676.953,279.273,676.875,279.814
			L676.875,279.814z"/>
	</g>
</g>
<g>
	<g>
		<path fill="#B3B3B3" d="M683.451,279.657c-2.083-0.281-4.22-0.438-6.163-1.304c-0.448-0.201-2.216,0.506-1.576,0.793
			c2.043,0.91,4.314,1.063,6.503,1.36C682.672,280.57,684.455,279.794,683.451,279.657L683.451,279.657z"/>
	</g>
</g>
<g>
	<g>
		<path fill="#B3B3B3" d="M691.372,254.538c3.97,0.612,0.912,8.758,0.829,11.222c-0.01,0.283,1.913,0.039,1.932-0.518
			c0.091-2.695,3.274-10.76-1.171-11.444C692.51,253.729,690.856,254.459,691.372,254.538L691.372,254.538z"/>
	</g>
</g>
<g>
	<g>
		<path fill="#624321" d="M675.291,291.682c0.776-4.662-0.726-9.313-1.159-13.938c-0.044-0.47-1.987-0.083-1.932,0.518
			c0.425,4.54,1.938,9.151,1.175,13.728C673.279,292.562,675.202,292.213,675.291,291.682L675.291,291.682z"/>
	</g>
</g>
<g>
	<g>
		<path fill="#624321" d="M673.816,293.98c2.24-3.479,4.944-6.662,6.861-10.351c0.521-1.001-1.439-1.065-1.857-0.264
			c-1.851,3.558-4.475,6.625-6.639,9.983C671.51,294.398,673.305,294.775,673.816,293.98L673.816,293.98z"/>
	</g>
</g>
<g>
	<g>
		<path fill="#624321" d="M686.034,286.092c0.621,4.02-1.505,8.454-2.844,12.119c-1.848,5.05-5.85,12.871-12.771,9.266
			c-0.675-0.353-2.408,0.578-1.508,1.049c4.602,2.396,10.696-0.174,13.573-4.125c1.883-2.584,2.713-6.369,3.729-9.352
			c1.027-3.01,2.248-6.251,1.75-9.475C687.841,284.766,685.902,285.242,686.034,286.092L686.034,286.092z"/>
	</g>
</g>
<path fill="#F9F9F9" d="M545,384.662c0,4.329-3.509,7.838-7.838,7.838H324.838c-4.329,0-7.838-3.509-7.838-7.838v-0.324
	c0-4.329,3.509-7.838,7.838-7.838h212.324c4.329,0,7.838,3.509,7.838,7.838V384.662z"/>
<path fill="#F2F2F2" stroke="#E2E2E2" stroke-width="2" stroke-miterlimit="10" d="M520,369.5c0,8.284-6.716,15-15,15H354
	c-8.284,0-15-6.716-15-15v-343c0-8.284,6.716-15,15-15h151c8.284,0,15,6.716,15,15V369.5z"/>
<g>
	<g>
		<path fill="#EFEFEF" d="M693.525,375.79c0,7.95-21.143,14.395-47.221,14.395c-26.08,0-47.222-6.444-47.222-14.395
			s21.144-14.395,47.222-14.395C672.384,361.396,693.525,367.84,693.525,375.79"/>
	</g>
	<g>
		<path fill="#D3D3D3" d="M627.663,331.677c0,0-0.374,8.812-4.604,13.149l-1.684,25.709c0,0,0.143,2.562,5.411,0
			c5.267-2.565,9.312-5.016,12.59-2.604c3.28,2.413,6.015,5.451,12.317,1.01c6.305-4.44,15.408,0.199,15.408,0.199
			s1.629-1.104,0.896-5.541c-0.731-4.433,0.14-11.771,0.189-16.252s-1.382-22.494-1.382-22.494S653.826,336.52,627.663,331.677"/>
	</g>
	<g>
		<path fill="#A06944" d="M614.67,206.891c0,0-7.604-1.705-8.721,5.868c-1.116,7.574,11.126,6.802,11.126,6.802
			s0.791,15.45,14.94,21.611s40.98-1.602,48.314-8.803c0,0,3.557-7.827,1.195-20.348c0,0,7.562,0.229,7.268-5.812
			c-0.295-6.042-7.527-4.045-7.527-4.045l-2.527-29.082c0,0-10.355-2.994-20.213,0.379c-9.858,3.372-18.367-3.995-31.863,4.939
			c-7.914,5.1-2.16,26.493-2.16,26.493l-5.754,7.129L614.67,206.891z"/>
	</g>
	<g>
		<path fill="#724830" d="M679.13,173.361c-5.631-1.919-11.784-2.274-17.601-1.016c-1.781,0.385-3.534,0.919-5.34,1.175
			c-2.344,0.333-4.725,0.19-7.088,0.084c-3.901-0.175-7.838-0.248-11.692,0.373c-3.858,0.622-7.665,1.976-10.728,4.406
			c-1.279,1.018-2.435,2.235-3.178,3.693c-0.962,1.887-1.186,4.059-1.25,6.176c-0.145,4.643,0.396,9.306,1.59,13.794
			c0.313,1.174,0.672,2.418,0.318,3.581c-0.252,0.83-0.84,1.51-1.411,2.163c-1.03,1.177-2.062,2.354-3.093,3.532
			c0.756,0.984,1.512,1.97,2.268,2.955c1.241-1.603,2.955-4.279,4.197-5.881l0.759-1.223c-1.435-6.05-4.76-11.221-3.493-17.309
			c0.312-1.492,0.842-2.949,1.664-4.232c1.008-1.569,2.424-2.834,3.92-3.948c4.491-3.344,10.063-5.51,15.645-5.027
			c2.207,0.191,4.365,0.787,6.572,0.973c4.783,0.404,9.488-1.119,14.225-1.915c4.734-0.796,10.059-0.713,13.752,2.354"/>
	</g>
	<g>
		<path fill="#B27850" d="M637.379,242.12c-3.449-0.822-5.418-4.647-6.736-7.938c-1.315-3.293-1.771-6.861-2.031-10.396
			c-0.389-5.263-0.325-10.737,1.822-15.554c2.489-5.576,7.6-9.693,13.26-11.985c5.656-2.292,11.854-2.923,17.963-2.977
			c2.541-0.022,5.127,0.058,7.548,0.834c5.399,1.732,9.231,6.757,11.002,12.147c1.769,5.392,1.796,11.174,1.789,16.849
			c-0.005,3.368-0.074,6.952-1.919,9.773C680.074,232.871,658.508,247.157,637.379,242.12"/>
	</g>
	<g>
		<path fill="#F2EFC2" d="M640.667,190c0,0-5.385,0.705-4.526,11.77c0.859,11.063,5.188,12.25,9.023,11.74s7.083-4.259,5.979-11.707
			C650.04,194.355,646.167,188.833,640.667,190"/>
	</g>
	<g>
		<path fill="#F2EFC2" d="M667.333,188.5c0,0-5.203-0.627-5.853,9.353c-0.647,9.98-0.48,13.638,5.853,13.059
			s9.581-3.904,7.957-12.241C673.667,190.333,672.833,188.333,667.333,188.5"/>
	</g>
	<g>
		<path fill="#DDD6AB" d="M639.634,190.095c-1.421,0.694-2.303,2.16-2.862,3.638c-0.89,2.344-1.166,4.916-0.795,7.395
			c3.062-3.539,7.479-5.877,12.127-6.42c0.191-0.023,0.414-0.061,0.508-0.231c0.117-0.218-0.062-0.473-0.23-0.655
			c-1.16-1.249-2.347-2.521-3.841-3.342S641.166,189.346,639.634,190.095"/>
	</g>
	<g>
		<path fill="#DDD6AB" d="M675.354,197.505c0.16-1.795-1.094-3.359-2.076-4.868c-0.742-1.139-1.389-2.382-2.438-3.245
			c-1.383-1.136-3.399-1.434-5.055-0.748c-1.652,0.687-2.865,2.329-3.036,4.11c4.4,0.063,8.753,1.847,11.934,4.889
			c0.151,0.145,0.381,0.301,0.549,0.175C675.32,197.748,675.346,197.621,675.354,197.505"/>
	</g>
	<g>
		<path fill="#565C56" d="M610.833,219.296c0,0-3.091,5.524,1.038,9.405c4.13,3.882,8.5,1.703,8.5,1.703s-3.85-7.555-3.673-10.252
			L610.833,219.296z"/>
	</g>
	<g>
		<path fill="#565C56" d="M606.95,209.755c0,0,4.14-5.933,7.72-2.864c3.58,3.067,4.078,5.131,4.078,5.131l5.753-7.131
			c0,0-3.153-14.318-2.051-19.188c1.102-4.871,4.55-11.746,21.254-11.87c11.251,1.502,21.618-1.344,24.812-2.225
			c3.191-0.882,10.225,1.476,10.225,1.476l2.527,29.082l4.435-1.026c0,0,3.138-4.76,0.741-9.966
			c-2.398-5.205-0.887-7.68-0.356-10.029s3.058-12.186-4.39-17.373c0,0,3.825-13.669-7.248-16.615
			c-11.072-2.947-15.316-6.568-17.822-6.565c-2.507,0.003-10.594-0.208-20.484,6.893c0,0-4.769-9.143-17.393,0.166
			c-6.623,3.829-5.764,12.775-5.764,12.775s-7.894,1.771-10.5,8.902c-2.609,7.132,0.832,13.376,0.832,13.376
			s-2.821,5.804-1.962,10.081c0.86,4.277,2.476,8.224,2.476,8.224S601.9,205.302,606.95,209.755"/>
	</g>
	<g>
		<path fill="#76714E" d="M629.251,252.113c0,0-8.3,2.847-12.942,9.949c-4.643,7.104-4.115,27.103-4.115,27.103
			s1.568,2.731,10.604,1.783l3.784-0.314l0.206,40.814c0,0,23.34,5.075,40.941-6.604c0,0,2.727-35.845-0.086-45.512
			c0,0,6.965-0.646,6.58-6.833c-0.382-6.187-0.084-23.411-14.902-24.206c0,0-5.416,7.824-15.035,8.016
			C634.667,256.5,629.251,252.113,629.251,252.113"/>
	</g>
	<g>
		<path fill="#8E5C3A" d="M632.826,242.166c0,0,1.312,4.973-0.288,6.846c-1.604,1.873-3.286,3.104-3.286,3.104
			s8.953,5.171,16.352,4.193c7.396-0.976,13.719-7.01,13.719-7.01l-4.146-2l-0.199-4.129c0,0-15.308,0.162-21.308-1.004"/>
		<path fill="#A06944" d="M644.5,255.75c-1.405-1.389-1.957-4.398-2.125-6.25c-0.186-2.038,1.314-1.766,3.243-2.031
			c2.095-0.287,4.169-0.465,6.229-0.873c1.056-0.211,1.88-0.298,2.903,0.123c1.032,0.426,1.646,0.547,2.747,0.781
			c3.604,0.77-1.381,2.882-2.372,3.616c-3.266,2.417-5.749,3.978-9.878,4.259"/>
	</g>
	<g>
		<path fill="#A66132" d="M626.582,290.333l0.206,47.174c0,0-0.666,8.788-6.479,6.271c0,0-2.959,3.177-6.744-0.522
			c-3.787-3.696-7.658-7.087-0.277-14.755l0.271-37.562L626.582,290.333z"/>
	</g>
	<g>
		<path fill="#EAEAEA" d="M631.318,332.836c-0.271,8.078-0.543,16.157-0.813,24.234c-0.045,1.35-0.021,2.873,0.959,3.8
			c0.649,0.614,1.578,0.812,2.456,0.981c3.307,0.65,7.443,0.986,9.339-1.801c0.729-1.07,0.94-2.414,0.984-3.71
			c0.073-2.18-0.271-4.358-0.117-6.536c0.151-2.175,0.906-4.459,2.67-5.738c1.765-1.282,4.679-1.045,5.703,0.879
			c0.442,0.83,0.481,1.809,0.509,2.746c0.074,2.396,0.148,4.797,0.223,7.191c0.037,1.225,0.14,2.588,1.045,3.411
			c0.713,0.647,1.74,0.779,2.699,0.881c3.03,0.32,6.584,0.446,8.566-1.866c1.085-1.267,1.422-2.994,1.666-4.646
			c1.302-8.791,1.098-17.803-0.604-26.525c-0.372,0.051-0.742,0.1-1.113,0.146C665.488,326.284,651.549,334.574,631.318,332.836"/>
	</g>
	<g>
		<path fill="#AFAFAF" d="M651.148,349.016c-0.816,0.154-1.639,0.312-2.469,0.367c-0.81,0.059-1.623,0.021-2.433-0.017
			c-0.767-0.035-1.534-0.07-2.3-0.104c0.49,1.159,1.285,2.188,2.281,2.957c0.387,0.299,0.812,0.562,1.293,0.656
			c0.631,0.123,1.276-0.062,1.888-0.273c0.879-0.302,1.764-0.672,2.424-1.322c0.661-0.653,1.054-1.651,0.766-2.534
			C652.116,348.833,651.632,348.925,651.148,349.016"/>
	</g>
	<g>
		<path fill="#BABABA" d="M666.922,328.645c-0.025-1.012-0.154-2.021-0.38-3.006c-2.349,1.785-5.003,3.166-7.813,4.063
			c-2.379,0.761-4.854,1.173-7.317,1.583c-8,1.328-16.291,2.646-24.127,0.559c0.405,5.285-1.343,10.703-4.761,14.754
			c2.381,0.436,4.801-1.061,6.086-3.107c1.283-2.053,1.629-4.547,1.707-6.965c6.189,0.604,12.459,0.809,18.613-0.082
			c6.156-0.895,12.223-2.914,17.324-6.475c0.208-0.145,0.422-0.3,0.542-0.521C666.926,329.204,666.93,328.917,666.922,328.645"/>
	</g>
	<g>
		<path fill="#434943" d="M659.462,168.963l0.537,8.287c0,0,10.476-1.123,15.112,3.167c0,0,0.888-16.074-16.028-11.454"/>
	</g>
	<g>
		<path fill="#434943" d="M644.268,179.697c0,0-7.602,0.636-11.852,4.136c0,0,0.41-13.397,11.289-11.823
			C643.705,172.01,646.37,175.312,644.268,179.697"/>
	</g>
	<g>
		<path fill="#434943" d="M610.968,219.902c-0.438,0.591-0.87,1.271-0.796,2.008c0.032,0.32,0.161,0.626,0.34,0.895
			c0.461,0.688,1.23,1.121,2.029,1.338c0.799,0.215,1.636,0.237,2.464,0.258c0.821,0.021,1.644,0.041,2.462,0.062
			c0.289-1.447,0.201-2.967-0.253-4.371c-1.804,0.438-3.739,0.309-5.47-0.363c-0.167-0.062-0.354-0.135-0.521-0.063
			C611.115,219.709,611.039,219.807,610.968,219.902"/>
	</g>
	<g>
		<path fill="#434943" d="M612.27,202.312c-1.18,0.57-2.353,1.22-3.242,2.181c-0.893,0.96-1.473,2.289-1.26,3.582
			c0.267,0.04,0.491-0.168,0.697-0.337c1.49-1.221,3.681-0.916,5.51-1.516c0.121-0.039,0.248-0.09,0.327-0.188
			c0.153-0.193,0.066-0.474-0.024-0.701c-0.358-0.877-0.719-1.755-1.074-2.632c-0.083-0.204-0.189-0.43-0.399-0.495
			C612.625,202.15,612.438,202.232,612.27,202.312"/>
	</g>
	<g>
		<path fill="none" stroke="#373A37" stroke-width="0.7" stroke-miterlimit="10" d="M681.23,199.016
			c1.506,0.311,3.213-0.325,4.535,0.458c0.084,0.049,0.168,0.11,0.205,0.2c0.045,0.11,0.006,0.233-0.031,0.346
			c-0.135,0.393-0.271,0.782-0.403,1.174c-0.033,0.097-0.069,0.195-0.147,0.261c-0.089,0.071-0.213,0.082-0.328,0.088
			c-1.086,0.056-2.174,0.108-3.26,0.165c-0.06,0.003-0.123,0.005-0.178-0.02c-0.119-0.054-0.15-0.205-0.166-0.334
			c-0.074-0.627-0.102-1.262-0.084-1.895"/>
	</g>
	<g>
		<path fill="#724830" d="M632.87,242.084c0.022,0.986,0.048,1.975,0.071,2.962c6.4,4.338,15.002,5.226,22.152,2.287
			c0.307-1.411,0.272-2.894-0.097-4.289c-0.041-0.158-0.092-0.321-0.212-0.433c-0.201-0.188-0.514-0.152-0.784-0.108
			C646.986,243.646,639.67,244.152,632.87,242.084"/>
	</g>
	<g>
		<path fill="#747A74" d="M662.727,158.604c-0.514-0.252-1.029-0.541-1.58-0.568c-0.651-0.032-1.275,0.307-1.885,0.614
			c-5.753,2.911-12.24,3.414-18.228,1.414c-3.646,4.79-8.582,7.956-13.775,8.833c-2.169,0.367-4.809,0.046-5.874-2.388
			c-1.167-2.668,0.379-5.961,2.158-8.01c4.352-5.016,10.568-7.285,16.348-5.967c2.203-4.394,5.907-7.519,9.944-8.387
			c4.037-0.869,8.343,0.531,11.558,3.759c0.289,0.291,0.58,0.602,0.932,0.749c0.402,0.17,0.843,0.104,1.265,0.039
			c2.11-0.322,4.263-0.547,6.349-0.033c2.09,0.514,4.129,1.853,5.312,4.099c0.709,1.344,1.059,3.2,0.368,4.558
			c-0.499,0.98-1.412,1.466-2.29,1.802C669.876,160.438,666.085,160.253,662.727,158.604"/>
	</g>
	<g>
		<path fill="#858C85" d="M661.014,157.666c0.475-0.071,0.948,0.072,1.41,0.218c3.416,1.075,6.999,2.334,10.395,1.151
			c-3.738,1.357-7.748,1.478-11.532,0.35c-0.191-0.056-0.384-0.117-0.58-0.101c-0.196,0.016-0.384,0.109-0.565,0.198
			c-5.979,2.895-12.654,3.416-18.871,1.473c-0.742,1.646-2.152,2.578-3.488,3.424c-1.857,1.176-3.735,2.362-5.754,2.979
			c3.168-1.641,6.084-4.057,8.547-7.077c0.189-0.235,0.396-0.486,0.66-0.545c0.181-0.041,0.363,0.016,0.545,0.07
			c5.992,1.818,12.427,1.212,18.145-1.71C660.275,157.915,660.633,157.722,661.014,157.666"/>
	</g>
	<g>
		<path fill="#635653" d="M673.391,381.557c0,0,1.121,3.866-2.801,4.303c-3.923,0.434-7.839,1.639-11.923-1.15
			c-4.083-2.79-8.21-3.009-9.522-7.439c-1.311-4.434-2.203-5.396-2.203-5.396s0.203-1.705,1.795,0.394
			c1.592,2.1,8.827,9.401,11.504,10.151C662.917,383.166,671.195,382.587,673.391,381.557"/>
	</g>
	<g>
		<path fill="#83B1B1" d="M648.326,371.602c0,0,2.35-0.222,5.179-0.742c2.828-0.523,1.563-3.353,7.158-3.842
			c5.594-0.488,6.587,3.315,6.587,3.315s0.083,1,2.083,1.917c2,0.916,3.094,2.377,3.797,4.73c0.703,2.353,0.703,5.186-2.88,5.77
			c-3.584,0.583-5.811,0.794-9.339-0.634C657.381,380.688,650.068,376.202,648.326,371.602"/>
	</g>
	<g>
		<path fill="#635653" d="M648.391,382.557c0,0,1.121,3.866-2.801,4.303c-3.923,0.434-7.839,1.639-11.923-1.15
			c-4.083-2.79-8.21-3.009-9.522-7.439c-1.311-4.434-2.203-5.396-2.203-5.396s0.203-1.705,1.795,0.394
			c1.592,2.1,8.827,9.401,11.504,10.151C637.917,384.166,646.195,383.587,648.391,382.557"/>
	</g>
	<g>
		<path fill="#83B1B1" d="M623.326,372.602c0,0,2.35-0.222,5.179-0.742c2.828-0.523,1.563-3.353,7.158-3.842
			c5.594-0.488,6.587,3.315,6.587,3.315s0.083,1,2.083,1.917c2,0.916,3.094,2.377,3.797,4.73c0.703,2.353,0.703,5.186-2.88,5.77
			c-3.584,0.583-5.811,0.794-9.339-0.634C632.381,381.688,625.068,377.202,623.326,372.602"/>
	</g>
	<g>
		<path fill="#759B9A" d="M623.544,371.779c-0.204,1.521,0.758,3.121,2.198,3.652c0.633,0.233,1.32,0.274,1.996,0.282
			c0.744,0.007,1.486-0.024,2.228-0.099c0.193-0.354-0.088-0.77-0.353-1.067c-0.508-0.577-1.02-1.155-1.525-1.731
			c-0.121-0.139-0.245-0.277-0.406-0.364c-0.244-0.134-0.539-0.123-0.816-0.122C625.736,372.335,624.609,372.148,623.544,371.779"/>
	</g>
	<g>
		<path fill="#759B9A" d="M651.99,375.287c0.75-0.032,1.496-0.148,2.221-0.348c0.182-0.053,0.377-0.119,0.471-0.279
			c0.146-0.244-0.021-0.549-0.182-0.78c-0.557-0.812-1.113-1.627-1.672-2.438c-0.111-0.162-0.229-0.328-0.389-0.439
			c-0.23-0.156-0.523-0.186-0.803-0.205c-0.877-0.066-1.752-0.137-2.627-0.204c-0.105-0.009-0.223-0.014-0.307,0.052
			c-0.1,0.076-0.112,0.215-0.112,0.336c-0.002,1.039,0.493,2.011,0.978,2.933c0.188,0.364,0.392,0.741,0.716,0.994
			C650.754,375.27,651.395,375.312,651.99,375.287"/>
	</g>
	<g>
		<path fill="#759B9A" d="M658.186,375.968c2.965-2.686,7.073-4.061,11.058-3.696c-1.835-1.547-4.479-1.904-6.808-1.313
			c-2.322,0.591-4.356,2.03-6.053,3.729c-0.17,0.17-0.349,0.404-0.253,0.625c0.048,0.11,0.157,0.184,0.259,0.246
			c0.264,0.164,0.524,0.328,0.785,0.493c0.17,0.105,0.358,0.218,0.557,0.19C657.908,376.218,658.052,376.089,658.186,375.968"/>
	</g>
	<g>
		<path fill="#759B9A" d="M640.307,371.79c-3.267,0.39-6.428,1.636-9.082,3.58c-0.199,0.146-0.414,0.319-0.478,0.562
			c-0.112,0.435,0.3,0.824,0.714,0.986s0.887,0.218,1.223,0.512c3.457-2.389,7.627-3.729,11.828-3.81
			c-0.354-0.812-1.064-1.456-1.908-1.729C641.867,371.656,641.073,371.698,640.307,371.79"/>
	</g>
	<path fill="#8C8662" d="M671.121,254.379c-1.229-2.316-2.878-3.465-5.074-4.758c-1.103-0.648-2.121-1.368-3.38-1.63
		c-1.332-0.277-2.264,0.272-3.638,0.2c-0.381,2.949-4.325,4.094-6.492,5.013c-1.311,0.556-2.56,1.397-3.88,1.962
		c-1.685,0.718-7.407,0.959-8.407,1.209c-0.083,2.391,1.81,6.114,3.496,9.025c1.664,4.182,3.826,8.158,7.921,10.434
		c4.787,2.659,10.897,3.854,16.17,1.994c1.229-0.434,2.992-0.846,4.131-1.791c0.416,0.081,0.796,0.102,1.04-0.029
		c1.553-0.822,1.432-5.033,1.492-6.508C674.697,264.68,673.333,258.548,671.121,254.379z"/>
</g>
<g>
	<g>
		<path fill="#373A37" d="M607.396,209.309c-2.412-1.9-3.607-5.137-2.854-8.104c0.201-0.792-0.943-1.326-1.35-0.569
			c-1.729,3.226,0.711,7.813,3.438,9.666C607.217,210.699,607.963,209.754,607.396,209.309"/>
	</g>
	<g>
		<path fill="#332B18" d="M609.9,219.693c-1.836,3.046-1.604,6.371,0.791,9.004c2.133,2.343,5.818,4.771,8.979,3.055
			c0.773-0.42,0.246-1.762-0.611-1.45c-2.617,0.954-5.17-0.659-6.949-2.54c-2.098-2.211-2.301-4.662-1.033-7.382
			C611.439,219.598,610.359,218.93,609.9,219.693"/>
	</g>
	<g>
		<path fill="#725038" d="M616.309,219.41c-3.101,0.291-6.188-0.65-8.137-3.202c-1.552-2.035-1.527-4.466,0.273-6.36
			c1.527-1.608,3.957-3.64,6.158-2.033c0.758,0.555,1.758-0.726,1.012-1.31c-4.047-3.166-10.902,2.329-10.526,6.904
			c0.435,5.265,6.61,8.647,11.371,7.118C617.039,220.341,616.979,219.348,616.309,219.41"/>
	</g>
	<g>
		<path fill="#878787" d="M622.484,344.667c-0.91,4.03-0.727,8.028-0.555,12.129c0.19,4.529-1.141,8.812-1.072,13.312
			c0.015,1.002,1.551,1.004,1.559,0c0.035-4.226,1.32-8.217,1.125-12.45c-0.199-4.339-0.314-8.497,0.119-12.828
			C623.729,344.154,622.631,344.016,622.484,344.667"/>
	</g>
	<g>
		<path fill="#878787" d="M666.279,325.837c-0.342,7.353,1.636,14.524,1.221,21.812c-0.201,3.511-1.018,7.069-1.043,10.576
			c-0.021,3.135,0.995,6.155,1.264,9.269c0.084,0.956,1.533,0.989,1.518,0c-0.064-3.604-1.313-6.896-0.994-10.566
			c0.268-3.088,0.652-6.178,0.836-9.274c0.426-7.285-1.619-14.51-1.661-21.812C667.413,325.102,666.314,325.107,666.279,325.837"/>
	</g>
	<g>
		<path fill="#443F12" d="M667.372,324.23c-12.153,7.146-25.656,9.822-39.479,6.447c-1.08-0.264-1.541,1.407-0.459,1.666
			c13.791,3.312,28.86,1.232,40.656-6.888C668.834,324.945,668.172,323.761,667.372,324.23"/>
	</g>
	<g>
		<path fill="#624321" d="M625.997,290.634c-0.19,8.651-0.122,17.302-0.091,25.953c0.015,4.166,0.027,8.331,0.048,12.496
			c0.021,4.847,1.11,11.185-3.022,14.623c-0.639,0.53,0.209,1.644,0.896,1.159c6.099-4.297,3.744-15.203,3.71-21.551
			c-0.062-10.896-0.029-21.791-0.369-32.684C627.145,289.882,626.014,289.879,625.997,290.634"/>
	</g>
	<g>
		<path fill="#583A17" d="M632.193,242.166c-0.055,1.637-0.023,3.287-0.149,4.921c-0.069,0.899-0.081,1.876-0.746,2.595
			c-0.521,0.563-1.332,0.834-2.002,1.168c-0.729,0.365-0.221,1.604,0.562,1.33c1.5-0.521,2.861-1.326,3.387-2.908
			c0.71-2.143,0.359-4.897,0.213-7.104C633.404,241.359,632.221,241.346,632.193,242.166"/>
	</g>
	<g>
		<path fill="#583A17" d="M654.408,243.17c0.121,1.357,0.212,2.773,0.049,4.129c-0.035,0.29,0.246,0.637,0.525,0.692
			c1.25,0.247,2.574,0.657,3.852,0.685c0.812,0.018,0.88-1.093,0.184-1.349c-1.136-0.415-2.463-0.507-3.652-0.72
			c0.177,0.229,0.352,0.461,0.525,0.689c-0.094-1.438-0.142-2.852-0.369-4.277C655.42,242.395,654.352,242.535,654.408,243.17"/>
	</g>
	<g>
		<path fill="#373A37" d="M679.297,162.473c2.766,2.418,5.08,5.385,6.088,8.98c0.536,1.91,0.743,3.987,0.605,5.966
			c-0.231,3.323-1.6,4.115-2.26,7.195c-0.484,2.248-0.361,0.624,0.11,2.832c0.38,1.768,1.783,3.412,2.142,5.347
			c0.545,2.96,0.086,5.601-1.155,8.368c-0.407,0.907,0.925,1.706,1.351,0.789c1.407-3.03,2.032-6.142,1.416-9.484
			c-0.369-2.009-2.095-3.983-2.391-5.815c-0.288-1.78,1.611-4.986,1.969-6.647c1.542-7.168-1.334-14.161-7.163-18.454
			C679.475,161.155,678.796,162.035,679.297,162.473"/>
	</g>
	<g>
		<path fill="#725038" d="M681.424,202.73c1.342-0.405,2.84-0.756,4.197-0.213c1.587,0.633,2.324,2.402,2.384,4.031
			c0.124,3.358-2.604,5.436-5.696,4.184c-0.843-0.342-1.229,0.922-0.58,1.379c3.828,2.695,8.03-1.73,7.842-5.562
			c-0.24-4.854-4.411-6.726-8.6-4.894C680.357,201.925,680.795,202.921,681.424,202.73"/>
	</g>
	<g>
		<path fill="#725038" d="M680.682,202.165c0.182,9.881,1.789,21.021-1.73,30.459c-0.354,0.94,1.214,1.394,1.519,0.419
			c3.087-9.876,1.884-20.691,1.368-30.878C681.799,201.428,680.668,201.417,680.682,202.165"/>
	</g>
	<g>
		<path fill="#373A37" d="M678.163,173.083c1.267,9.503,2.301,19.093,2.467,28.687c0.019,1.02,1.644,1.006,1.575,0
			c-0.643-9.663-1.296-19.278-2.909-28.838C679.188,172.295,678.076,172.437,678.163,173.083"/>
	</g>
	<g>
		<path fill="#725038" d="M679.189,232.547c-16.823,9.879-45.051,17.6-58.195-1.896c-0.52-0.768-1.77-0.045-1.247,0.729
			c13.567,20.119,42.712,12.896,60.043,2.197C680.439,233.173,679.854,232.157,679.189,232.547"/>
	</g>
	<g>
		<path fill="#725038" d="M620.721,230.861c-0.691-1.834-1.707-3.53-2.312-5.399c-0.625-1.924-0.708-3.894-0.656-5.901
			c0.023-0.871-1.318-0.867-1.35,0c-0.159,4.283,1.036,8.09,3.27,11.742C619.997,231.835,620.958,231.492,620.721,230.861"/>
	</g>
	<g>
		<path fill="#373A37" d="M672.042,172.558c0.804,0.397,1.823,0.527,2.7,0.726c0.975,0.221,1.938,0.436,2.88,0.781
			c1.103,0.403,1.577-1.356,0.483-1.757c-0.935-0.342-1.922-0.553-2.902-0.696c-0.896-0.13-1.948-0.342-2.842-0.236
			C671.807,171.442,671.414,172.248,672.042,172.558"/>
	</g>
	<g>
		<path fill="#373A37" d="M644.75,174.333c3.051,0.307,6.003,0.863,9.029,1.267c2.212,0.295,3.908-0.832,5.9-1.626
			c1.075-0.428,0.606-2.19-0.482-1.756c-1.146,0.455-2.447,1.294-3.615,1.557c-1.337,0.302-3.014-0.228-4.337-0.42
			c-2.125-0.309-4.358-0.483-6.495-0.291C643.932,173.139,643.938,174.252,644.75,174.333"/>
	</g>
	<g>
		<path fill="#373A37" d="M612.223,202.049c1.193,4.258,3.36,7.747,6.482,10.864c0.311,0.308,0.947,0.286,1.15-0.149
			c1.084-2.309,2.933-3.748,4.27-5.781c0.178-0.271,0.914-0.808,1.062-1.297c0.679-2.248-0.789-5.269-1.143-7.438
			c-0.689-4.272-1.979-11.155-0.512-15.336c1.551-4.418,8.296-6.048,12.322-7.156c1.129-0.311,0.648-2.068-0.483-1.756
			c-3.827,1.053-8.979,2.51-11.823,5.48c-2.88,3.007-2.251,7.923-2.027,11.732c0.236,4.089,3.17,11.919,0.899,15.124
			c-0.394,0.556-3.187,4.358-3.51,4.384c-2.043,0.156-5.06-7.837-5.468-9.006C613.182,200.949,612,201.253,612.223,202.049"/>
	</g>
	<g>
		<path fill="#373A37" d="M606.195,201.885c-5.846-5.168-5.33-15.907-0.188-21.295c0.707-0.74-0.409-1.863-1.125-1.125
			c-5.708,5.89-6.46,17.924,0.445,23.286C605.936,203.221,606.799,202.419,606.195,201.885"/>
	</g>
	<g>
		<path fill="#373A37" d="M603.354,181.53c-2.889-8.854,0.467-17.676,9.834-20.377c0.299-0.086,0.582-0.4,0.556-0.729
			c-0.808-9.69,13.282-22.659,21.808-13.416c0.732,0.793,1.914-0.393,1.186-1.183c-7.896-8.552-20.783,0.093-23.922,9.005
			c-0.383,1.084-0.273,3.082-0.748,4.029c-0.853,1.7-1.023,1.014-2.289,1.889c-2.28,1.576-4.338,2.641-6.062,4.924
			c-3.577,4.738-3.981,11.043-1.334,16.269C602.65,182.477,603.541,182.104,603.354,181.53"/>
	</g>
	<g>
		<path fill="#373A37" d="M635.322,149.128c3.73-3.612,8.158-6.17,13.271-7.219c3.018-0.618,6.196-0.734,9.24-0.209
			c3.501,0.603,4.854,1.838,7.667,4.088c2.576,2.058,4.575,1.322,7.866,1.981c7.474,1.498,8.264,8.114,7.719,14.596
			c-0.093,1.099,1.617,1.09,1.711,0c0.432-4.938,0.602-10.793-3.802-14.104c-1.897-1.427-4.261-1.992-6.574-2.265
			c-3.097-0.365-3.212,0.052-6.396-2.219c-0.438-0.31-0.728-0.874-1.197-1.178c-9.484-6.114-23.133-2.013-30.324,5.713
			C634.001,148.855,634.786,149.646,635.322,149.128"/>
	</g>
	<g>
		<path fill="#725038" d="M661.604,204.219c0.5-2.525,0.399-5.024,0.621-7.578c0.146-1.671,0.434-3.967,1.493-5.411
			c4.021-5.466,8.763-0.664,10.046,3.23c0.914,2.777,1.448,6.927,0.86,9.853c-1.19,5.924-13.368,9.098-12.972,0.766
			c0.043-0.9-1.316-0.883-1.391,0c-0.616,7.559,5.098,7.417,11.062,5.792c6.124-1.667,5.277-9.215,4.432-14.256
			c-0.771-4.583-4.271-10.929-9.964-8.812c-6.319,2.351-4.56,11.039-5.385,16.089C660.279,204.664,661.447,205.011,661.604,204.219"
			/>
	</g>
	<g>
		<path fill="#725038" d="M651.775,204.602c0.338-5.878-1.614-13-7.729-15.418c-5.556-2.198-8.955,4.632-9.123,9.206
			c-0.186,5.078,0.689,14.882,7.016,15.788c6.168,0.884,10.275-3.317,9.985-9.202c-0.038-0.771-1.197-0.779-1.202,0
			c-0.021,3.545-1.156,6.361-4.922,7.5c-3.134,0.945-6.549-0.49-7.672-3.613c-1.322-3.678-2.211-8.062-1.623-11.922
			c0.924-6.071,6.37-8.313,10.523-3.794c2.948,3.207,3.83,7.208,3.724,11.458C650.736,205.264,651.738,205.255,651.775,204.602"/>
	</g>
	<g>
		<path fill="#44311D" d="M665.719,207.521c-0.281,0.364-0.134,0.961,0.268,1.192c0.398,0.231,0.955,0.095,1.238-0.269
			c0.287-0.363,0.308-0.897,0.094-1.307c-0.159-0.305-0.462-0.553-0.805-0.568c-0.344-0.016-0.695,0.264-0.69,0.605"/>
	</g>
	<g>
		<path fill="#44311D" d="M665.056,206.55c-0.586,0.711-0.476,1.795,0.35,2.3c0.889,0.541,2.033,0.035,2.418-0.871
			c0.371-0.877,0.031-1.961-0.806-2.438c-0.909-0.518-2.069,0.066-2.112,1.125c-0.032,0.791,1.248,0.989,1.4,0.189
			c0.021-0.104,0.021-0.137,0.133,0.037c0.09,0.142,0.152,0.368,0.058,0.523c-0.11,0.174-0.548,0.199-0.417-0.078
			C666.366,206.725,665.56,205.938,665.056,206.55"/>
	</g>
	<g>
		<path fill="#44311D" d="M645.66,209.113c0.055,0.481,0.676,0.8,1.1,0.561c0.412-0.232,0.502-0.781,0.528-1.254
			c0.022-0.436-0.052-0.994-0.472-1.113c-0.229-0.062-0.475,0.043-0.662,0.187c-0.375,0.284-0.625,0.731-0.672,1.202"/>
	</g>
	<g>
		<path fill="#44311D" d="M645.051,209.295c0.105,0.911,0.949,1.611,1.893,1.335c0.928-0.272,1.215-1.354,1.196-2.212
			c-0.019-0.91-0.569-1.866-1.61-1.688c-0.979,0.168-1.697,1.185-1.673,2.146c0.021,0.817,1.167,0.968,1.411,0.19
			c0.053-0.16,0.105-0.322,0.191-0.469c0.057-0.101,0.18-0.188,0.227-0.283c0.036-0.014,0.062-0.035,0.076-0.065
			c0.042-0.065-0.018-0.099-0.178-0.101c0.007-0.004,0.037,0.229,0.039,0.27c0.012,0.184,0.016,0.529-0.09,0.695
			c-0.061,0.095-0.07,0.109-0.107-0.004C646.199,208.398,644.955,208.473,645.051,209.295"/>
	</g>
	<g>
		<path fill="#443F12" d="M629.014,252.521c9.797,7.037,22.836,5.066,30.723-3.813c0.5-0.562-0.323-1.392-0.828-0.828
			c-7.869,8.79-19.504,9.902-29.416,3.825C628.962,251.381,628.527,252.173,629.014,252.521"/>
	</g>
	<g>
		<path fill="#443F12" d="M628.896,251.165c-17.185,5.021-18.344,24.499-17.428,39.396c0.021,0.354,0.232,0.672,0.586,0.771
			c3.473,0.957,6.778,1.021,10.348,0.479c1.979-0.303,6.342-0.461,7.74-2.129c1.697-2.021,0.672-8.145,0.596-10.566
			c-0.107-3.514-0.36-6.737-1.941-9.912c-0.447-0.896-1.754-0.111-1.336,0.781c1.623,3.473,1.727,7.209,1.783,10.973
			c0.021,1.525,0.086,3.084-0.049,4.604c-0.213,2.405-0.071,2.726-2.197,3.684c-2.611,1.178-6.184,1.396-8.996,1.386
			c-5.527-0.021-5.117-2.335-5.209-6.929c-0.259-13.026,3.122-26.25,16.439-31.307C629.98,252.105,629.695,250.932,628.896,251.165"
			/>
	</g>
	<g>
		<path fill="#443F12" d="M658.951,248.506c2.615,0.518,5.54,0.9,7.775,2.452c3.219,2.231,4.408,6.373,5.313,9.978
			c0.796,3.168,1.192,6.426,1.312,9.688c0.164,4.401-0.062,6.399-4.84,6.918c-1.096,0.119-1.104,1.853,0,1.729
			c2.192-0.244,5.449,0.274,6.377-2.041c0.727-1.813,0.174-5.586,0.066-7.521c-0.141-2.487-0.447-4.992-0.96-7.435
			c-1.827-8.691-5.526-14.399-14.906-14.822C658.499,247.426,658.354,248.389,658.951,248.506"/>
	</g>
	<g>
		<path fill="#443F12" d="M664.336,263.346c4.35,20.326,5.369,40.891,2.643,61.508c-0.141,1.066,1.541,1.061,1.682,0
			c2.707-20.617,1.768-41.609-3.167-61.826C665.307,262.275,664.175,262.596,664.336,263.346"/>
	</g>
	<g>
		<path fill="#624321" d="M613.045,291.999c-1.087,12.062-0.572,24.558-0.541,36.668c0.003,1.008,1.546,1.007,1.564,0
			c0.216-12.106,0.92-24.592,0.016-36.668C614.034,291.328,613.105,291.334,613.045,291.999"/>
	</g>
	<g>
		<path fill="#624321" d="M621.232,340.489c-1.137,2.301-2.654,5.346-6.184,3.507c-1.164-0.605-2.38-2.497-3.275-3.464
			c-1.803-1.939-3.229-4.216-1.633-6.957c0.799-1.368,2.133-2.511,3.267-3.597c0.604-0.58-0.22-1.723-0.919-1.19
			c-2.054,1.556-4.25,3.765-4.944,6.328c-0.787,2.903,1.21,4.616,3.063,6.581c1.586,1.678,3.793,5.193,6.51,4.92
			c2.601-0.264,4.326-3.401,5.244-5.469C622.698,340.396,621.611,339.725,621.232,340.489"/>
	</g>
	<g>
		<path fill="#624321" d="M619.846,344.124c0.891,1.235,2.694,1.647,3.994,0.788c0.698-0.461,0.09-1.514-0.656-1.122
			c-0.842,0.438-1.785,0.319-2.49-0.319C620.264,343.084,619.471,343.602,619.846,344.124"/>
	</g>
	<g>
		<path fill="#878787" d="M646.811,371.604c1.776-2.364,1.069-6.479,0.994-9.233c-0.119-4.371-0.471-8.772-1.259-13.077
			c-0.147-0.822-1.571-0.646-1.478,0.2c0.39,3.483,0.863,6.95,1.091,10.452c0.188,2.9,1.261,8.546-0.271,11.123
			C645.529,371.672,646.409,372.139,646.811,371.604"/>
	</g>
	<g>
		<path fill="#878787" d="M643.812,349.412c2.201,0.051,4.143,0.721,6.385,0.443c1.867-0.229,3.664-0.85,5.26-1.848
			c0.837-0.521,0.102-1.777-0.773-1.322c-1.896,0.994-3.812,1.741-5.971,1.854c-1.645,0.085-3.264-0.318-4.9-0.12
			C643.195,348.497,643.157,349.396,643.812,349.412"/>
	</g>
	<g>
		<path fill="#373A37" d="M658.87,169.665c-0.019,2.548-0.527,5.777,0.219,8.222c0.11,0.361,0.404,0.547,0.765,0.581
			c2.32,0.217,4.614-0.634,7.012-0.276c2.867,0.428,5.404,1.637,7.646,3.463c0.43,0.348,1.281,0.315,1.393-0.367
			c0.691-4.357-0.844-8.706-4.608-11.201c-2.928-1.939-8.97-3.717-12.249-1.839c-0.929,0.531-0.104,1.93,0.836,1.431
			c2.493-1.323,7.525,0.099,9.779,1.388c3.521,2.016,5.27,5.771,4.639,9.779c0.463-0.122,0.926-0.244,1.391-0.366
			c-2.69-2.183-5.738-3.613-9.213-3.98c-1.158-0.122-4.705,0.602-5.559-0.078c-1.08-0.863-0.57-5.344-0.626-6.757
			C660.255,168.754,658.875,168.746,658.87,169.665"/>
	</g>
	<g>
		<path fill="#332B18" d="M644.825,179.229c-4.503-1.117-9.729,2.371-13.202,4.862c0.384,0.221,0.77,0.441,1.152,0.662
			c0.293-3.74,1.451-7.535,4.466-9.985c1.219-0.991,3.002-2.099,4.637-2.027c2.933,0.128,2.308,4.298,2.021,6.342
			c-0.147,1.049,1.41,1.543,1.635,0.451c0.414-2.023,0.92-6.173-0.702-7.897c-1.283-1.363-4.229-0.512-5.681,0.082
			c-5.297,2.167-7.516,7.678-7.907,13.034c-0.04,0.55,0.692,0.997,1.151,0.662c3.317-2.42,7.992-5.606,12.273-5.042
			C645.326,180.46,645.451,179.385,644.825,179.229"/>
	</g>
	<g>
		<path fill="#443A38" d="M648.271,381.229c0.024,8.063-11.895,5.021-15.92,2.994c-3.395-1.705-10.244-6.74-9.322-11.305
			c0.188-0.926-1.116-1.293-1.418-0.391c-2.084,6.236,8.232,12.724,12.887,14.334c3.72,1.289,8.227,1.832,12.025,0.543
			c3.336-1.137,3.402-2.858,3.06-6.18C649.498,380.404,648.268,380.364,648.271,381.229"/>
	</g>
	<g>
		<path fill="#587572" d="M647.104,375.965c3.533,8.217-6.371,8.161-11.451,6.295c-1.975-0.726-12.711-7.312-11.367-9.976
			c0.346-0.688-0.645-1.28-1.039-0.606c-1.26,2.133,2.127,4.758,3.436,6.032c3.271,3.19,6.812,5.886,11.42,6.718
			c2.58,0.463,8.457,0.77,10.639-1.277c2.015-1.896,0.472-5.846-0.627-7.771C647.729,374.708,646.816,375.296,647.104,375.965"/>
	</g>
	<g>
		<path fill="#443A38" d="M673.271,380.229c0.024,8.063-11.895,5.021-15.92,2.994c-3.395-1.705-10.244-6.74-9.322-11.305
			c0.188-0.926-1.116-1.293-1.418-0.391c-2.084,6.236,8.232,12.724,12.887,14.334c3.72,1.289,8.227,1.832,12.025,0.543
			c3.336-1.137,3.402-2.858,3.06-6.18C674.498,379.404,673.268,379.364,673.271,380.229"/>
	</g>
	<g>
		<path fill="#587572" d="M672.104,374.965c3.523,8.211-6.367,8.162-11.451,6.295c-4.602-1.688-8.469-5.49-11.396-9.301
			c-0.457-0.594-1.476-0.057-1.039,0.607c3.964,6.017,10.584,11.113,18.032,11.139c1.959,0.006,6.352-0.068,7.679-1.734
			c1.681-2.104,0.319-5.604-0.815-7.594C672.729,373.708,671.816,374.296,672.104,374.965"/>
	</g>
	<g>
		<path fill="#878787" d="M667.875,367.326c-0.157,1.052-2.466-1.145-2.609-1.229c-0.664-0.4-1.449-0.688-2.203-0.852
			c-1.754-0.375-3.572-0.004-5.215,0.626c-1.63,0.627-3.17,1.599-4.428,2.813c-2.169,2.099-3.83,1.629-6.627,2.228
			c-1.057,0.228-0.605,1.819,0.445,1.612c1.57-0.311,3.613,0.25,5.107-0.479c1.188-0.58,1.973-1.934,2.989-2.762
			c2.197-1.787,4.956-2.996,7.771-2.141c1.813,0.553,2.705,2.016,4.401,2.684c0.25,0.1,0.588-0.02,0.768-0.202
			c0.855-0.89,0.846-0.865,0.829-2.136C669.096,366.816,667.982,366.605,667.875,367.326"/>
	</g>
	<g>
		<path fill="#878787" d="M620.865,370.234c-1.891,3.99,4.179,3.146,6.304,2.332c1.733-0.664,3.226-2.799,5.034-3.66
			c3.59-1.717,6.474-1.92,8.875,1.255c1.602,2.114,2.146,2.763,5.25,2.53c1.053-0.08,1.062-1.73,0-1.651
			c-4.075,0.305-3.08-3.069-5.344-4.628c-1.213-0.838-3.506-0.395-4.807-0.221c-2.925,0.389-5.005,1.531-7.523,3.062
			c-1.399,0.853-1.608,1.729-3.485,2.074c-0.401,0.071-3.457,0.164-3.219-0.638C622.137,370.062,621.158,369.618,620.865,370.234"/>
	</g>
	<g>
		<path fill="#587572" d="M628.091,373.302c3.644-3.26,7.193-5.991,12.312-3.745c0.854,0.375,1.605-0.867,0.74-1.27
			c-5.332-2.479-10.42-0.161-13.879,4.188C626.802,373.055,627.518,373.814,628.091,373.302"/>
	</g>
	<g>
		<path fill="#587572" d="M627.398,373.566c0.922,1.121,1.873,2.158,2.942,3.141c0.308,0.279,0.718,0.202,0.948-0.121
			c2.534-3.574,7.154-4.264,11.227-4.145c0.506,0.016,0.828-0.488,0.723-0.946c-0.338-1.457-0.922-2.292-2.105-3.19
			c-0.642-0.488-1.494,0.606-0.867,1.125c0.863,0.549,1.373,1.371,1.53,2.465l0.722-0.947c-4.855,0-8.904,1.227-12.175,4.91h0.854
			c-1.035-0.998-2.045-2.01-3.008-3.078C627.701,372.236,626.951,373.021,627.398,373.566"/>
	</g>
	<g>
		<path fill="#587572" d="M642.445,372.713c1.093,0.646,4.939,2.948,4.791,4.086c-0.287,2.168-3.516,1.896-5.084,1.948
			c-3.299,0.112-8.356-1.14-11.006-3.11c-0.674-0.502-1.572,0.649-0.904,1.172c2.402,1.877,5.652,2.494,8.57,3.215
			c2.352,0.576,5.151,0.375,7.5-0.188c1.92-0.459,2.91-1.402,2.44-3.456c-0.589-2.579-3.508-3.757-5.683-4.739
			C642.357,371.318,641.742,372.297,642.445,372.713"/>
	</g>
	<g>
		<path fill="#587572" d="M653.091,372.302c3.644-3.26,7.193-5.991,12.312-3.745c0.854,0.375,1.605-0.867,0.74-1.27
			c-5.332-2.479-10.42-0.161-13.879,4.188C651.802,372.055,652.518,372.814,653.091,372.302"/>
	</g>
	<g>
		<path fill="#587572" d="M652.398,372.566c0.922,1.121,1.873,2.158,2.942,3.141c0.308,0.279,0.718,0.202,0.948-0.121
			c2.534-3.574,7.154-4.264,11.227-4.145c0.506,0.016,0.828-0.488,0.723-0.946c-0.338-1.457-0.922-2.292-2.105-3.19
			c-0.642-0.488-1.494,0.606-0.867,1.125c0.863,0.549,1.373,1.371,1.53,2.465c0.24-0.314,0.481-0.633,0.722-0.947
			c-4.855,0-8.904,1.227-12.175,4.91h0.854c-1.035-0.998-2.045-2.01-3.008-3.078C652.701,371.236,651.951,372.021,652.398,372.566"
			/>
	</g>
	<g>
		<path fill="#587572" d="M667.445,371.713c1.093,0.646,4.939,2.948,4.791,4.086c-0.287,2.168-3.516,1.896-5.084,1.948
			c-3.299,0.112-8.356-1.14-11.006-3.11c-0.674-0.502-1.572,0.649-0.904,1.172c2.402,1.877,5.652,2.494,8.57,3.215
			c2.352,0.576,5.151,0.375,7.5-0.188c1.92-0.459,2.91-1.402,2.44-3.456c-0.589-2.579-3.508-3.757-5.683-4.739
			C667.357,370.318,666.742,371.297,667.445,371.713"/>
	</g>
	<g>
		<g>
			<path fill="#624321" d="M656.627,217.955c-1.123-0.232-2.556,0.141-3.34,1.005c-0.708,0.781-0.452,1.856,0.37,2.445
				c0.86,0.614,2.351,0.108,3.126-0.412c0.733-0.494,1.193-1.388,0.85-2.252c-0.188-0.478-2.082,0.141-1.932,0.518
				c0.174,0.435,0.146,0.837-0.064,1.251c-0.077,0.152-0.199,0.312-0.336,0.414c-0.173,0.131-0.14,0.038,0.284-0.055
				c0.261-0.057,0.13-0.004-0.021-0.075c-0.474-0.226-0.774-0.813-0.777-1.317c-0.002-0.222,0.12-0.48,0.253-0.651
				c0.062-0.079,0.141-0.155,0.222-0.216c0.065-0.047-0.586,0.027-0.219,0.104c0.438,0.093,0.958-0.056,1.352-0.243
				C656.541,218.396,657.067,218.047,656.627,217.955L656.627,217.955z"/>
		</g>
	</g>
</g>
<g>
	<g>
		<path fill="#624321" d="M685.599,284.223c-2.21-1.724-1.194-5.029,0.303-6.896c0.414-0.517-1.456-0.259-1.757,0.116
			c-1.632,2.033-2.791,5.558-0.36,7.453C684.219,285.236,685.926,284.479,685.599,284.223L685.599,284.223z"/>
	</g>
</g>
<g>
	<g>
		<path fill="#624321" d="M687.449,278.15c-1.226-2.211-4.977-3.657-4.42-6.623c0.028-0.166,0.065-0.088-0.115-0.028
			c0.075-0.024,0.259,0.05,0.342,0.071c0.531,0.138,1.021,0.412,1.485,0.693c0.875,0.525,1.706,1.196,2.318,2.02
			c0.508,0.676,2.354-0.062,1.773-0.836c-1.298-1.733-4.713-4.387-6.963-2.906c-1.334,0.878-0.847,2.736-0.252,3.91
			c0.932,1.841,3.053,2.723,4.056,4.535C686.077,279.712,687.927,279.016,687.449,278.15L687.449,278.15z"/>
	</g>
</g>
<g>
	<g>
		<path fill="#624321" d="M684.408,269.773c-0.229-0.371-0.358-0.734-0.446-1.158c-0.038-0.2-0.038-0.4,0.001-0.6
			c0.027-0.095,0.054-0.188,0.081-0.277c-0.294-0.146-0.344-0.174-0.149-0.079c0.62,0.294,1.157,0.827,1.666,1.276
			c0.948,0.834,2.262,1.857,2.853,3.004c0.356,0.692,2.238,0.076,1.932-0.519c-0.433-0.838-1.181-1.521-1.84-2.178
			c-0.873-0.869-1.799-1.722-2.826-2.404c-0.866-0.575-2.308-0.403-3.043,0.345c-0.969,0.983-0.677,2.282-0.015,3.362
			C682.974,271.126,684.849,270.493,684.408,269.773L684.408,269.773z"/>
	</g>
</g>
<g>
	<g>
		<path fill="#624321" d="M689.484,270.148c-0.311-1.604-0.481-3.188-0.226-4.812c0.46-2.909,2.896,1.35,3.013,1.664
			c0.351,0.958,0.423,2.041,0.529,3.044c0.604,5.621-1.719,12.397-6.049,16.077c-0.816,0.695,1.11,0.568,1.523,0.219
			c3.271-2.781,4.983-6.636,6.03-10.73c0.751-2.937,1.21-8.465-0.935-10.926c-1.066-1.226-3.473-2.151-4.927-0.838
			c-1.854,1.676-1.319,4.618-0.896,6.821C687.662,271.236,689.604,270.77,689.484,270.148L689.484,270.148z"/>
	</g>
</g>
<g>
	<g>
		<path fill="#B3B3B3" d="M677.466,278.491c-0.178-7.853,0.686-16.548,1.829-24.292c0.102-0.688-1.836-0.328-1.924,0.27
			c-1.161,7.848-2.019,16.58-1.837,24.54C675.546,279.542,677.481,279.186,677.466,278.491L677.466,278.491z"/>
	</g>
</g>
<g>
	<g>
		<path fill="#B3B3B3" d="M679.299,254.409c-0.102-2.759,10.716,0.362,12.652,0.45c0.704,0.033,2.066-0.993,0.764-1.053
			c-2.542-0.115-15.552-4.443-15.348,1.118C677.389,255.508,679.325,255.13,679.299,254.409L679.299,254.409z"/>
	</g>
</g>
<g>
	<g>
		<path fill="#B3B3B3" d="M682.903,262.882c-0.64,0.554-0.854,1.292-0.047,1.804c0.827,0.523,1.944,0.478,2.819,0.099
			c0.814-0.354,1.417-0.968,1.413-1.884c-0.004-0.785-0.666-1.426-1.312-1.756c-0.511-0.258-2.295,0.502-1.555,0.879
			c0.636,0.322,1.225,1.211,0.804,1.916c-0.109,0.185-0.312,0.199,0.037,0.139c0.1,0.001,0.071-0.005-0.08-0.021
			c-0.119-0.017-0.229-0.066-0.336-0.115c-0.364-0.157-0.549-0.532-0.218-0.819c0.293-0.254,0.24-0.542-0.161-0.604
			C683.828,262.447,683.244,262.586,682.903,262.882L682.903,262.882z"/>
	</g>
</g>
<g>
	<g>
		<path fill="#B3B3B3" d="M677.016,278.104c-2.442-0.193,0.262-24.742,2.553-24.621c0.864,0.045,2.009-1.227,0.697-1.295
			c-3.055-0.16-3.708,1.344-3.987,4.237c-0.73,7.511-2.442,14.63-2.084,22.25c0.018,0.375,0.271,0.509,0.624,0.558
			c0.497,0.082,0.997,0.14,1.5,0.166C677.188,279.468,678.324,278.208,677.016,278.104L677.016,278.104z"/>
	</g>
</g>
<g>
	<g>
		<path fill="#FFFFFF" d="M699.512,246.268c0.731-0.479,1.361-1.088,1.979-1.707c0.306-0.306,0.188-0.701-0.22-0.817
			c-0.461-0.134-1.03,0.028-1.366,0.364c-0.517,0.517-1.024,1.021-1.638,1.42c-0.305,0.199-0.533,0.646-0.134,0.888
			C698.547,246.658,699.136,246.514,699.512,246.268L699.512,246.268z"/>
	</g>
</g>
<g>
	<g>
		<path fill="#FFFFFF" d="M700.077,253.727c0.845-0.187,1.786,0.039,2.644,0.041c0.427,0,1.004-0.156,1.281-0.506
			c0.286-0.356-0.243-0.479-0.5-0.479c-1.246-0.002-2.414-0.166-3.648,0.105c-0.235,0.053-0.95,0.312-0.854,0.678
			C699.101,253.943,699.84,253.777,700.077,253.727L700.077,253.727z"/>
	</g>
</g>
<g>
	<rect x="348" y="50.5" fill="#FFFFFF" width="162" height="287"/>
	<path fill="#E2E2E2" d="M509,51.5v285H349v-285H509 M511,49.5H347v289h164V49.5L511,49.5z"/>
</g>
<g>
	<path fill="#E6E6E6" d="M428.333,375.5c-7.903,0-14.333-6.43-14.333-14.333s6.43-14.333,14.333-14.333s14.333,6.43,14.333,14.333
		S436.236,375.5,428.333,375.5z"/>
	<path fill="#E2E2E2" d="M428.333,347.834c7.352,0,13.333,5.98,13.333,13.333s-5.981,13.333-13.333,13.333S415,368.52,415,361.167
		S420.981,347.834,428.333,347.834 M428.333,345.834c-8.468,0-15.333,6.865-15.333,15.333s6.865,15.333,15.333,15.333
		s15.333-6.865,15.333-15.333S436.801,345.834,428.333,345.834L428.333,345.834z"/>
</g>
<g>
	<path fill="#E6E6E6" d="M401.5,33.5c-0.827,0-1.5-0.673-1.5-1.5s0.673-1.5,1.5-1.5h55c0.827,0,1.5,0.673,1.5,1.5
		s-0.673,1.5-1.5,1.5H401.5z"/>
	<path fill="#E2E2E2" d="M456.5,31.5c0.275,0,0.5,0.224,0.5,0.5s-0.225,0.5-0.5,0.5h-55c-0.276,0-0.5-0.224-0.5-0.5
		s0.224-0.5,0.5-0.5H456.5 M456.5,29.5h-55c-1.381,0-2.5,1.119-2.5,2.5s1.119,2.5,2.5,2.5h55c1.381,0,2.5-1.119,2.5-2.5
		S457.881,29.5,456.5,29.5L456.5,29.5z"/>
</g>
</svg>
