<?xml version="1.0" encoding="utf-8"?>
<!-- Generator: Adobe Illustrator 15.1.0, SVG Export Plug-In . SVG Version: 6.00 Build 0)  -->
<!DOCTYPE svg PUBLIC "-//W3C//DTD SVG 1.1//EN" "http://www.w3.org/Graphics/SVG/1.1/DTD/svg11.dtd">
<svg version="1.1" id="Layer_1" xmlns="http://www.w3.org/2000/svg" xmlns:xlink="http://www.w3.org/1999/xlink" x="0px" y="0px"
	 width="115.292px" height="250.54px" viewBox="329 0 115.292 250.54" enable-background="new 329 0 115.292 250.54"
	 xml:space="preserve">
<g>
	<path fill="#EFEFEF" d="M423.443,236.145c0,7.95-21.144,14.396-47.222,14.396c-26.08,0-47.222-6.444-47.222-14.396
		s21.144-14.396,47.222-14.396C402.302,221.751,423.443,228.194,423.443,236.145"/>
</g>
<circle fill="#CE3C3C" cx="431.918" cy="108.854" r="12.374"/>
<circle fill="#FF4848" cx="431.918" cy="108.854" r="10.625"/>
<g>
	<g>
		<path fill="#FFFFFF" d="M430.264,104.854c-0.158,2.767-0.102,5.528-0.025,8.296c0.021,0.919,1.963,0.545,1.94-0.195
			c-0.069-2.768-0.129-5.531,0.028-8.295C432.259,103.753,430.307,104.099,430.264,104.854L430.264,104.854z"/>
	</g>
</g>
<path fill="#E6E6E6" d="M412.751,140.438c0,0-3.916,0.501-5.083-1.333s-1.417-3.252-0.917-7.584s1.5-15.416,1.5-15.416
	s-0.667-3.584,4.583-3.167s10.667,2.167,10.667,2.167s1.083,4.417-0.417,10S418.584,140.021,412.751,140.438z"/>
<path fill="#A66132" d="M402.918,137.688c0,0,1.916,12.999,2.166,12.583s4.417-5.833,4.417-6.083s-1.833-4.667-1.833-4.667
	l5.5,1.084l1.666-3c0,0-4-5.666-2.083-6.5s-0.5-4.834,2.25-3.667s2.833,2.5,3.333-0.5s1.084-3.417,2.834-2.5
	s3.833,4.833,2.583,10.25s-6,11.75-6,11.75l-4.166,14.333c0,0-4.833,8.084-8.25,8.417s-5.5-1.083-5.5-1.083
	s-1.917-28.584-1.917-28.917S402.918,137.688,402.918,137.688z"/>
<g>
	<g>
		<path fill="#624321" d="M406.793,140.169c-0.285,1.953,1.321,3.623,2.888,4.537c0.368,0.213,0.89,0.088,1.259-0.058
			c0.102-0.038,0.901-0.438,0.553-0.646c-1.396-0.812-3.04-2.352-2.78-4.136C408.798,139.266,406.871,139.628,406.793,140.169
			L406.793,140.169z"/>
	</g>
</g>
<g>
	<g>
		<path fill="#B3B3B3" d="M413.369,140.012c-2.083-0.281-4.22-0.438-6.163-1.304c-0.448-0.201-2.216,0.506-1.576,0.793
			c2.043,0.91,4.314,1.062,6.503,1.359C412.59,140.925,414.373,140.148,413.369,140.012L413.369,140.012z"/>
	</g>
</g>
<g>
	<g>
		<path fill="#B3B3B3" d="M421.29,114.893c3.97,0.612,0.912,8.758,0.829,11.222c-0.01,0.283,1.913,0.039,1.932-0.518
			c0.091-2.695,3.274-10.76-1.171-11.444C422.428,114.083,420.774,114.813,421.29,114.893L421.29,114.893z"/>
	</g>
</g>
<g>
	<g>
		<path fill="#624321" d="M405.209,152.036c0.776-4.662-0.726-9.312-1.159-13.938c-0.044-0.471-1.987-0.083-1.932,0.518
			c0.425,4.541,1.938,9.151,1.175,13.729C403.197,152.917,405.12,152.567,405.209,152.036L405.209,152.036z"/>
	</g>
</g>
<g>
	<g>
		<path fill="#624321" d="M403.734,154.335c2.239-3.479,4.943-6.662,6.86-10.352c0.521-1.001-1.438-1.064-1.856-0.264
			c-1.852,3.558-4.476,6.625-6.64,9.982C401.428,154.753,403.223,155.13,403.734,154.335L403.734,154.335z"/>
	</g>
</g>
<g>
	<g>
		<path fill="#624321" d="M415.952,146.446c0.621,4.02-1.505,8.454-2.844,12.119c-1.849,5.05-5.851,12.871-12.771,9.266
			c-0.675-0.353-2.408,0.578-1.508,1.049c4.602,2.396,10.696-0.174,13.573-4.125c1.883-2.584,2.713-6.368,3.729-9.352
			c1.027-3.01,2.248-6.251,1.75-9.475C417.759,145.12,415.82,145.597,415.952,146.446L415.952,146.446z"/>
	</g>
</g>
<g>
	<g>
		<path fill="#D3D3D3" d="M357.581,192.031c0,0-0.374,8.812-4.604,13.149l-1.684,25.709c0,0,0.143,2.562,5.411,0
			c5.267-2.565,9.312-5.016,12.59-2.604c3.28,2.412,6.015,5.45,12.317,1.01c6.305-4.44,15.408,0.199,15.408,0.199
			s1.629-1.104,0.896-5.541c-0.731-4.434,0.14-11.771,0.189-16.252c0.049-4.481-1.383-22.494-1.383-22.494
			S383.744,196.874,357.581,192.031"/>
	</g>
	<g>
		<path fill="#A06944" d="M344.588,67.245c0,0-7.604-1.705-8.721,5.868c-1.116,7.574,11.126,6.802,11.126,6.802
			s0.791,15.45,14.939,21.611c14.149,6.161,40.98-1.602,48.314-8.803c0,0,3.557-7.827,1.195-20.348c0,0,7.562,0.229,7.268-5.812
			c-0.295-6.042-7.527-4.045-7.527-4.045l-2.526-29.082c0,0-10.355-2.994-20.213,0.379c-9.858,3.372-18.367-3.995-31.863,4.939
			c-7.914,5.1-2.16,26.493-2.16,26.493l-5.754,7.129L344.588,67.245z"/>
	</g>
	<g>
		<path fill="#724830" d="M409.048,33.715c-5.631-1.919-11.784-2.274-17.601-1.016c-1.781,0.385-3.534,0.919-5.34,1.175
			c-2.345,0.333-4.726,0.19-7.089,0.084c-3.9-0.175-7.838-0.248-11.691,0.373c-3.858,0.622-7.665,1.976-10.729,4.406
			c-1.278,1.018-2.435,2.235-3.178,3.693c-0.962,1.887-1.186,4.059-1.25,6.176c-0.146,4.643,0.396,9.307,1.59,13.794
			c0.313,1.174,0.672,2.418,0.318,3.581c-0.252,0.83-0.84,1.51-1.411,2.163c-1.03,1.177-2.062,2.354-3.093,3.532
			c0.756,0.984,1.512,1.97,2.268,2.955c1.241-1.604,2.955-4.279,4.197-5.881l0.759-1.224c-1.435-6.05-4.76-11.221-3.493-17.309
			c0.312-1.492,0.842-2.949,1.664-4.232c1.008-1.569,2.424-2.834,3.92-3.948c4.491-3.344,10.063-5.51,15.646-5.027
			c2.207,0.191,4.365,0.787,6.572,0.973c4.782,0.404,9.487-1.119,14.225-1.915c4.734-0.796,10.059-0.713,13.752,2.354"/>
	</g>
	<g>
		<path fill="#B27850" d="M367.297,102.475c-3.449-0.822-5.418-4.647-6.736-7.938c-1.314-3.293-1.771-6.861-2.03-10.396
			c-0.39-5.263-0.325-10.737,1.821-15.554c2.489-5.576,7.601-9.693,13.261-11.985c5.655-2.292,11.854-2.923,17.963-2.977
			c2.541-0.022,5.127,0.058,7.548,0.834c5.398,1.732,9.23,6.757,11.002,12.147c1.769,5.392,1.796,11.174,1.789,16.849
			c-0.005,3.368-0.074,6.952-1.919,9.773C409.992,93.226,388.426,107.512,367.297,102.475"/>
	</g>
	<g>
		<path fill="#F2EFC2" d="M370.585,50.354c0,0-5.385,0.705-4.526,11.77c0.859,11.063,5.188,12.25,9.023,11.74
			s7.083-4.259,5.979-11.707C379.958,54.709,376.085,49.188,370.585,50.354"/>
	</g>
	<g>
		<path fill="#F2EFC2" d="M397.251,48.854c0,0-5.203-0.627-5.853,9.354c-0.647,9.979-0.48,13.638,5.853,13.059
			s9.581-3.904,7.957-12.241C403.585,50.688,402.751,48.688,397.251,48.854"/>
	</g>
	<g>
		<path fill="#DDD6AB" d="M369.552,50.449c-1.421,0.694-2.303,2.16-2.862,3.638c-0.89,2.344-1.166,4.916-0.795,7.395
			c3.062-3.539,7.479-5.877,12.127-6.42c0.191-0.023,0.414-0.061,0.509-0.231c0.116-0.218-0.062-0.473-0.23-0.655
			c-1.16-1.249-2.347-2.521-3.841-3.342S371.084,49.701,369.552,50.449"/>
	</g>
	<g>
		<path fill="#DDD6AB" d="M405.271,57.859c0.16-1.795-1.094-3.359-2.075-4.868c-0.742-1.139-1.39-2.382-2.438-3.245
			c-1.383-1.136-3.398-1.434-5.055-0.748c-1.652,0.687-2.865,2.329-3.036,4.11c4.4,0.063,8.753,1.847,11.934,4.889
			c0.151,0.146,0.382,0.301,0.55,0.176C405.238,58.103,405.264,57.976,405.271,57.859"/>
	</g>
	<g>
		<path fill="#565C56" d="M340.751,79.65c0,0-3.091,5.524,1.038,9.405c4.13,3.882,8.5,1.703,8.5,1.703s-3.85-7.555-3.673-10.252
			L340.751,79.65z"/>
	</g>
	<g>
		<path fill="#565C56" d="M336.868,70.109c0,0,4.14-5.933,7.72-2.864c3.58,3.067,4.078,5.131,4.078,5.131l5.753-7.131
			c0,0-3.153-14.317-2.051-19.188c1.102-4.871,4.55-11.746,21.254-11.87c11.251,1.502,21.618-1.344,24.812-2.225
			c3.191-0.882,10.226,1.476,10.226,1.476l2.526,29.082l4.436-1.025c0,0,3.138-4.761,0.741-9.967
			c-2.398-5.205-0.888-7.68-0.356-10.029s3.058-12.186-4.39-17.373c0,0,3.825-13.669-7.248-16.615
			c-11.072-2.947-15.316-6.568-17.822-6.565c-2.507,0.003-10.594-0.208-20.484,6.893c0,0-4.769-9.143-17.393,0.166
			c-6.623,3.829-5.764,12.775-5.764,12.775s-7.895,1.771-10.5,8.902c-2.609,7.132,0.832,13.376,0.832,13.376
			s-2.821,5.804-1.962,10.081s2.476,8.224,2.476,8.224S331.818,65.656,336.868,70.109"/>
	</g>
	<g>
		<path fill="#76714E" d="M359.169,112.468c0,0-8.3,2.847-12.942,9.949c-4.643,7.104-4.114,27.103-4.114,27.103
			s1.567,2.731,10.604,1.783l3.784-0.314l0.206,40.814c0,0,23.34,5.075,40.94-6.604c0,0,2.728-35.845-0.086-45.512
			c0,0,6.966-0.646,6.58-6.833c-0.382-6.187-0.084-23.411-14.901-24.206c0,0-5.416,7.824-15.035,8.016
			S359.169,112.468,359.169,112.468"/>
	</g>
	<g>
		<path fill="#8E5C3A" d="M362.744,102.521c0,0,1.312,4.973-0.288,6.846c-1.604,1.873-3.286,3.104-3.286,3.104
			s8.953,5.171,16.352,4.192c7.396-0.976,13.72-7.01,13.72-7.01l-4.146-2l-0.199-4.129c0,0-15.308,0.162-21.308-1.004"/>
		<path fill="#A06944" d="M374.418,116.104c-1.405-1.389-1.957-4.398-2.125-6.25c-0.186-2.038,1.314-1.766,3.243-2.031
			c2.095-0.287,4.169-0.465,6.229-0.873c1.057-0.211,1.88-0.298,2.903,0.123c1.032,0.426,1.646,0.547,2.747,0.781
			c3.604,0.77-1.381,2.882-2.372,3.616c-3.266,2.417-5.749,3.978-9.878,4.259"/>
	</g>
	<g>
		<path fill="#A66132" d="M356.5,150.688l0.206,47.174c0,0-0.666,8.788-6.479,6.271c0,0-2.959,3.178-6.744-0.521
			c-3.786-3.695-7.657-7.087-0.276-14.755l0.271-37.562L356.5,150.688z"/>
	</g>
	<g>
		<path fill="#EAEAEA" d="M361.236,193.19c-0.271,8.078-0.543,16.157-0.813,24.234c-0.045,1.35-0.021,2.873,0.959,3.8
			c0.649,0.614,1.578,0.812,2.456,0.981c3.307,0.649,7.443,0.985,9.339-1.802c0.729-1.069,0.94-2.414,0.984-3.71
			c0.073-2.18-0.271-4.357-0.117-6.535c0.151-2.176,0.906-4.46,2.67-5.738c1.765-1.282,4.679-1.045,5.703,0.879
			c0.442,0.83,0.481,1.809,0.509,2.746c0.074,2.396,0.148,4.797,0.223,7.19c0.037,1.226,0.141,2.589,1.046,3.411
			c0.713,0.646,1.739,0.779,2.698,0.881c3.03,0.32,6.584,0.446,8.566-1.865c1.085-1.268,1.422-2.994,1.666-4.646
			c1.302-8.791,1.098-17.803-0.604-26.525c-0.372,0.051-0.741,0.1-1.112,0.146C395.406,186.639,381.467,194.929,361.236,193.19"/>
	</g>
	<g>
		<path fill="#AFAFAF" d="M381.066,209.37c-0.816,0.154-1.64,0.312-2.47,0.367c-0.81,0.059-1.623,0.021-2.433-0.017
			c-0.768-0.035-1.534-0.07-2.3-0.104c0.489,1.159,1.285,2.188,2.28,2.957c0.388,0.299,0.812,0.562,1.294,0.656
			c0.631,0.123,1.275-0.062,1.888-0.273c0.879-0.302,1.764-0.672,2.424-1.322c0.661-0.652,1.054-1.65,0.766-2.533
			C382.034,209.188,381.55,209.279,381.066,209.37"/>
	</g>
	<g>
		<path fill="#BABABA" d="M396.84,188.999c-0.025-1.012-0.154-2.021-0.38-3.006c-2.349,1.785-5.003,3.166-7.813,4.063
			c-2.379,0.761-4.854,1.173-7.316,1.583c-8,1.328-16.291,2.646-24.127,0.559c0.405,5.285-1.343,10.703-4.761,14.754
			c2.381,0.437,4.801-1.061,6.086-3.106c1.282-2.054,1.629-4.548,1.707-6.966c6.188,0.604,12.459,0.81,18.612-0.082
			c6.156-0.895,12.224-2.914,17.324-6.475c0.208-0.145,0.422-0.3,0.542-0.521C396.844,189.559,396.848,189.271,396.84,188.999"/>
	</g>
	<g>
		<path fill="#434943" d="M389.38,29.317l0.537,8.287c0,0,10.476-1.123,15.112,3.167c0,0,0.888-16.074-16.028-11.454"/>
	</g>
	<g>
		<path fill="#434943" d="M374.186,40.052c0,0-7.602,0.636-11.852,4.136c0,0,0.41-13.397,11.289-11.823
			C373.623,32.364,376.288,35.667,374.186,40.052"/>
	</g>
	<g>
		<path fill="#434943" d="M340.886,80.257c-0.438,0.591-0.87,1.271-0.796,2.008c0.032,0.32,0.161,0.626,0.34,0.895
			c0.461,0.688,1.23,1.121,2.029,1.338c0.799,0.215,1.636,0.237,2.464,0.258c0.821,0.021,1.645,0.041,2.462,0.062
			c0.289-1.447,0.201-2.967-0.253-4.371c-1.804,0.438-3.739,0.309-5.47-0.363c-0.167-0.062-0.354-0.135-0.521-0.062
			C341.033,80.063,340.957,80.161,340.886,80.257"/>
	</g>
	<g>
		<path fill="#434943" d="M342.188,62.667c-1.18,0.569-2.353,1.22-3.241,2.181c-0.894,0.96-1.474,2.289-1.261,3.582
			c0.268,0.04,0.491-0.168,0.697-0.337c1.49-1.221,3.682-0.916,5.51-1.516c0.121-0.039,0.248-0.091,0.327-0.188
			c0.153-0.193,0.066-0.474-0.023-0.701c-0.358-0.877-0.72-1.755-1.074-2.632c-0.083-0.204-0.189-0.43-0.399-0.495
			C342.543,62.505,342.355,62.587,342.188,62.667"/>
	</g>
	<g>
		<path fill="none" stroke="#373A37" stroke-width="0.7" stroke-miterlimit="10" d="M411.148,59.37
			c1.506,0.312,3.213-0.324,4.534,0.459c0.084,0.049,0.168,0.109,0.205,0.199c0.045,0.11,0.006,0.233-0.03,0.346
			c-0.136,0.394-0.271,0.782-0.403,1.174c-0.033,0.098-0.069,0.195-0.147,0.262c-0.089,0.07-0.213,0.082-0.328,0.088
			c-1.086,0.057-2.174,0.107-3.26,0.165c-0.06,0.003-0.123,0.005-0.178-0.021c-0.119-0.054-0.15-0.205-0.166-0.334
			c-0.074-0.627-0.102-1.262-0.084-1.895"/>
	</g>
	<g>
		<path fill="#724830" d="M362.788,102.438c0.021,0.986,0.048,1.975,0.071,2.962c6.399,4.338,15.002,5.226,22.151,2.287
			c0.308-1.411,0.272-2.894-0.097-4.289c-0.041-0.158-0.092-0.321-0.212-0.433c-0.201-0.188-0.515-0.152-0.784-0.108
			C376.904,104.001,369.588,104.507,362.788,102.438"/>
	</g>
	<g>
		<path fill="#747A74" d="M392.645,18.958c-0.514-0.252-1.028-0.541-1.58-0.568c-0.65-0.032-1.274,0.307-1.885,0.614
			c-5.753,2.911-12.24,3.414-18.228,1.414c-3.646,4.79-8.582,7.956-13.775,8.833c-2.169,0.367-4.809,0.046-5.874-2.388
			c-1.167-2.668,0.379-5.961,2.158-8.01c4.352-5.016,10.568-7.285,16.348-5.967c2.203-4.394,5.907-7.519,9.944-8.387
			c4.037-0.869,8.343,0.531,11.558,3.759c0.289,0.291,0.58,0.602,0.933,0.749c0.401,0.17,0.843,0.104,1.265,0.039
			c2.11-0.322,4.263-0.547,6.35-0.033c2.09,0.514,4.129,1.853,5.312,4.099c0.709,1.344,1.059,3.2,0.368,4.558
			c-0.499,0.98-1.412,1.466-2.29,1.802C399.794,20.792,396.003,20.607,392.645,18.958"/>
	</g>
	<g>
		<path fill="#858C85" d="M390.932,18.021c0.476-0.071,0.948,0.072,1.41,0.218c3.416,1.075,6.999,2.334,10.396,1.151
			c-3.738,1.357-7.748,1.478-11.532,0.35c-0.191-0.056-0.384-0.117-0.58-0.101c-0.196,0.016-0.384,0.109-0.565,0.198
			c-5.979,2.895-12.653,3.416-18.87,1.473c-0.742,1.646-2.152,2.578-3.488,3.424c-1.857,1.176-3.735,2.362-5.754,2.979
			c3.168-1.641,6.084-4.057,8.547-7.077c0.188-0.235,0.396-0.486,0.66-0.545c0.181-0.041,0.362,0.016,0.545,0.07
			c5.992,1.818,12.427,1.212,18.145-1.71C390.193,18.27,390.551,18.077,390.932,18.021"/>
	</g>
	<g>
		<path fill="#635653" d="M403.309,241.911c0,0,1.121,3.866-2.801,4.303c-3.923,0.435-7.839,1.64-11.923-1.149
			c-4.083-2.79-8.21-3.009-9.522-7.438c-1.311-4.435-2.202-5.396-2.202-5.396s0.202-1.705,1.795,0.395
			c1.592,2.1,8.827,9.4,11.504,10.15C392.835,243.521,401.113,242.941,403.309,241.911"/>
	</g>
	<g>
		<path fill="#83B1B1" d="M378.244,231.956c0,0,2.35-0.222,5.179-0.742c2.828-0.522,1.563-3.353,7.158-3.842
			c5.594-0.488,6.587,3.315,6.587,3.315s0.083,1,2.083,1.917c2,0.916,3.094,2.377,3.797,4.73c0.703,2.353,0.703,5.186-2.88,5.77
			c-3.584,0.583-5.811,0.794-9.339-0.634C387.299,241.042,379.986,236.557,378.244,231.956"/>
	</g>
	<g>
		<path fill="#635653" d="M378.309,242.911c0,0,1.121,3.866-2.801,4.303c-3.923,0.435-7.839,1.64-11.923-1.149
			c-4.083-2.79-8.21-3.009-9.522-7.438c-1.311-4.435-2.202-5.396-2.202-5.396s0.202-1.705,1.795,0.395
			c1.592,2.1,8.827,9.4,11.504,10.15C367.835,244.521,376.113,243.941,378.309,242.911"/>
	</g>
	<g>
		<path fill="#83B1B1" d="M353.244,232.956c0,0,2.35-0.222,5.179-0.742c2.828-0.522,1.563-3.353,7.158-3.842
			c5.594-0.488,6.587,3.315,6.587,3.315s0.083,1,2.083,1.917c2,0.916,3.094,2.377,3.797,4.73c0.703,2.353,0.703,5.186-2.88,5.77
			c-3.584,0.583-5.811,0.794-9.339-0.634C362.299,242.042,354.986,237.557,353.244,232.956"/>
	</g>
	<g>
		<path fill="#759B9A" d="M353.462,232.134c-0.204,1.521,0.758,3.121,2.198,3.652c0.633,0.232,1.32,0.273,1.996,0.281
			c0.744,0.008,1.485-0.023,2.228-0.099c0.193-0.354-0.088-0.771-0.353-1.067c-0.508-0.576-1.021-1.154-1.525-1.73
			c-0.121-0.139-0.245-0.277-0.406-0.364c-0.244-0.134-0.539-0.123-0.815-0.122C355.654,232.689,354.527,232.503,353.462,232.134"/>
	</g>
	<g>
		<path fill="#759B9A" d="M381.908,235.642c0.75-0.032,1.496-0.148,2.221-0.348c0.182-0.054,0.377-0.119,0.471-0.279
			c0.146-0.244-0.021-0.549-0.182-0.78c-0.557-0.812-1.113-1.627-1.672-2.438c-0.111-0.161-0.229-0.327-0.389-0.438
			c-0.23-0.155-0.523-0.187-0.804-0.205c-0.877-0.065-1.752-0.137-2.627-0.204c-0.104-0.009-0.223-0.014-0.307,0.053
			c-0.101,0.076-0.112,0.215-0.112,0.336c-0.002,1.039,0.493,2.011,0.979,2.933c0.188,0.364,0.392,0.741,0.716,0.994
			C380.672,235.624,381.312,235.667,381.908,235.642"/>
	</g>
	<g>
		<path fill="#759B9A" d="M388.104,236.322c2.966-2.686,7.073-4.061,11.059-3.696c-1.835-1.547-4.479-1.903-6.809-1.312
			c-2.321,0.591-4.355,2.029-6.053,3.729c-0.17,0.17-0.349,0.404-0.253,0.625c0.048,0.11,0.157,0.185,0.259,0.246
			c0.265,0.164,0.524,0.328,0.785,0.493c0.17,0.105,0.358,0.218,0.557,0.19C387.826,236.572,387.97,236.443,388.104,236.322"/>
	</g>
	<g>
		<path fill="#759B9A" d="M370.225,232.145c-3.267,0.39-6.428,1.636-9.082,3.58c-0.198,0.146-0.414,0.319-0.478,0.562
			c-0.112,0.436,0.3,0.824,0.714,0.986s0.887,0.218,1.223,0.512c3.457-2.389,7.627-3.729,11.828-3.81
			c-0.354-0.812-1.063-1.456-1.908-1.729C371.785,232.011,370.991,232.053,370.225,232.145"/>
	</g>
	<path fill="#8C8662" d="M401.039,114.733c-1.229-2.316-2.878-3.465-5.074-4.758c-1.103-0.648-2.121-1.368-3.38-1.63
		c-1.332-0.277-2.264,0.272-3.638,0.2c-0.381,2.949-4.325,4.094-6.492,5.013c-1.312,0.556-2.561,1.397-3.88,1.962
		c-1.686,0.718-7.407,0.959-8.407,1.209c-0.083,2.391,1.81,6.114,3.496,9.025c1.664,4.182,3.826,8.158,7.921,10.434
		c4.787,2.659,10.897,3.854,16.17,1.994c1.229-0.434,2.992-0.846,4.131-1.791c0.416,0.081,0.796,0.102,1.04-0.029
		c1.553-0.822,1.432-5.033,1.492-6.508C404.615,125.034,403.251,118.902,401.039,114.733z"/>
</g>
<g>
	<g>
		<path fill="#373A37" d="M337.314,69.663c-2.412-1.899-3.607-5.137-2.854-8.104c0.201-0.792-0.943-1.326-1.35-0.569
			c-1.729,3.226,0.711,7.813,3.438,9.666C337.135,71.054,337.881,70.108,337.314,69.663"/>
	</g>
	<g>
		<path fill="#332B18" d="M339.818,80.048c-1.836,3.046-1.604,6.371,0.791,9.004c2.133,2.343,5.817,4.771,8.979,3.055
			c0.773-0.42,0.246-1.762-0.611-1.45c-2.616,0.954-5.17-0.659-6.948-2.54c-2.099-2.211-2.302-4.662-1.033-7.382
			C341.357,79.952,340.277,79.284,339.818,80.048"/>
	</g>
	<g>
		<path fill="#725038" d="M346.227,79.765c-3.101,0.291-6.188-0.65-8.137-3.202c-1.552-2.035-1.527-4.466,0.273-6.36
			c1.526-1.607,3.957-3.64,6.158-2.033c0.758,0.556,1.758-0.726,1.012-1.31c-4.047-3.166-10.902,2.329-10.526,6.904
			c0.436,5.265,6.61,8.647,11.371,7.118C346.957,80.695,346.896,79.702,346.227,79.765"/>
	</g>
	<g>
		<path fill="#878787" d="M352.402,205.021c-0.91,4.03-0.728,8.028-0.556,12.129c0.19,4.529-1.141,8.812-1.071,13.312
			c0.015,1.002,1.551,1.004,1.559,0c0.035-4.226,1.32-8.217,1.125-12.449c-0.199-4.34-0.314-8.497,0.119-12.828
			C353.646,204.509,352.549,204.37,352.402,205.021"/>
	</g>
	<g>
		<path fill="#878787" d="M396.197,186.191c-0.342,7.353,1.636,14.524,1.221,21.812c-0.201,3.512-1.018,7.069-1.043,10.576
			c-0.021,3.135,0.995,6.155,1.264,9.27c0.084,0.956,1.533,0.988,1.519,0c-0.064-3.604-1.313-6.896-0.994-10.566
			c0.268-3.088,0.651-6.178,0.836-9.273c0.426-7.285-1.619-14.51-1.661-21.812C397.331,185.456,396.232,185.462,396.197,186.191"/>
	</g>
	<g>
		<path fill="#443F12" d="M397.29,184.585c-12.153,7.146-25.656,9.821-39.479,6.446c-1.08-0.264-1.541,1.407-0.459,1.666
			c13.791,3.312,28.86,1.232,40.656-6.888C398.752,185.3,398.09,184.115,397.29,184.585"/>
	</g>
	<g>
		<path fill="#624321" d="M355.915,150.988c-0.19,8.651-0.122,17.302-0.091,25.953c0.015,4.166,0.026,8.331,0.048,12.496
			c0.021,4.847,1.11,11.185-3.022,14.623c-0.639,0.53,0.209,1.644,0.896,1.159c6.099-4.297,3.744-15.203,3.71-21.551
			c-0.062-10.896-0.029-21.791-0.369-32.685C357.062,150.236,355.932,150.233,355.915,150.988"/>
	</g>
	<g>
		<path fill="#583A17" d="M362.111,102.521c-0.056,1.637-0.023,3.287-0.149,4.921c-0.069,0.899-0.081,1.876-0.746,2.595
			c-0.521,0.563-1.332,0.834-2.002,1.168c-0.729,0.365-0.221,1.604,0.562,1.33c1.5-0.521,2.86-1.326,3.387-2.908
			c0.71-2.143,0.359-4.896,0.213-7.104C363.322,101.714,362.139,101.7,362.111,102.521"/>
	</g>
	<g>
		<path fill="#583A17" d="M384.326,103.524c0.121,1.357,0.212,2.773,0.049,4.129c-0.035,0.29,0.246,0.637,0.525,0.692
			c1.25,0.247,2.573,0.657,3.852,0.685c0.812,0.018,0.88-1.093,0.184-1.349c-1.136-0.415-2.463-0.507-3.651-0.72
			c0.177,0.229,0.352,0.461,0.524,0.688c-0.094-1.438-0.142-2.853-0.368-4.276C385.338,102.749,384.27,102.89,384.326,103.524"/>
	</g>
	<g>
		<path fill="#373A37" d="M409.215,22.828c2.766,2.418,5.08,5.385,6.088,8.98c0.536,1.91,0.743,3.987,0.605,5.966
			c-0.231,3.323-1.601,4.115-2.26,7.195c-0.484,2.248-0.361,0.624,0.109,2.832c0.38,1.768,1.783,3.412,2.143,5.347
			c0.545,2.96,0.086,5.602-1.155,8.368c-0.407,0.907,0.925,1.706,1.351,0.789c1.407-3.03,2.032-6.142,1.416-9.484
			c-0.369-2.009-2.095-3.983-2.391-5.815c-0.288-1.78,1.611-4.986,1.969-6.647c1.542-7.168-1.334-14.161-7.163-18.454
			C409.393,21.51,408.714,22.39,409.215,22.828"/>
	</g>
	<g>
		<path fill="#725038" d="M411.342,63.085c1.342-0.405,2.84-0.756,4.197-0.213c1.587,0.633,2.324,2.401,2.384,4.03
			c0.124,3.358-2.604,5.437-5.696,4.185c-0.843-0.342-1.229,0.922-0.58,1.379c3.828,2.695,8.03-1.73,7.843-5.562
			c-0.24-4.854-4.411-6.726-8.601-4.894C410.275,62.279,410.713,63.275,411.342,63.085"/>
	</g>
	<g>
		<path fill="#725038" d="M410.6,62.52c0.183,9.881,1.789,21.021-1.729,30.459c-0.354,0.94,1.214,1.394,1.519,0.419
			c3.087-9.876,1.885-20.691,1.368-30.878C411.717,61.782,410.586,61.771,410.6,62.52"/>
	</g>
	<g>
		<path fill="#373A37" d="M408.081,33.438c1.267,9.503,2.301,19.093,2.467,28.687c0.02,1.021,1.645,1.006,1.575,0
			c-0.643-9.663-1.296-19.277-2.909-28.837C409.105,32.649,407.994,32.792,408.081,33.438"/>
	</g>
	<g>
		<path fill="#725038" d="M409.107,92.901c-16.823,9.879-45.052,17.6-58.195-1.896c-0.521-0.768-1.771-0.045-1.247,0.729
			c13.567,20.119,42.712,12.896,60.043,2.197C410.357,93.527,409.771,92.512,409.107,92.901"/>
	</g>
	<g>
		<path fill="#725038" d="M350.639,91.216c-0.69-1.834-1.707-3.53-2.312-5.399c-0.625-1.924-0.708-3.894-0.656-5.901
			c0.023-0.871-1.318-0.867-1.35,0c-0.159,4.283,1.036,8.09,3.27,11.742C349.915,92.189,350.876,91.847,350.639,91.216"/>
	</g>
	<g>
		<path fill="#373A37" d="M401.96,32.913c0.804,0.397,1.823,0.527,2.7,0.726c0.975,0.221,1.938,0.436,2.88,0.781
			c1.103,0.403,1.577-1.356,0.483-1.757c-0.936-0.342-1.923-0.553-2.902-0.696c-0.896-0.13-1.948-0.342-2.842-0.236
			C401.725,31.796,401.332,32.603,401.96,32.913"/>
	</g>
	<g>
		<path fill="#373A37" d="M374.668,34.688c3.051,0.307,6.003,0.863,9.029,1.267c2.212,0.295,3.908-0.832,5.899-1.626
			c1.075-0.428,0.606-2.19-0.481-1.756c-1.146,0.455-2.447,1.294-3.615,1.557c-1.337,0.302-3.014-0.228-4.337-0.42
			c-2.125-0.309-4.358-0.483-6.495-0.291C373.85,33.494,373.855,34.606,374.668,34.688"/>
	</g>
	<g>
		<path fill="#373A37" d="M342.141,62.403c1.193,4.258,3.36,7.747,6.482,10.864c0.311,0.308,0.947,0.286,1.15-0.149
			c1.084-2.309,2.933-3.748,4.27-5.781c0.178-0.271,0.914-0.808,1.062-1.297c0.679-2.248-0.789-5.269-1.144-7.438
			c-0.688-4.272-1.979-11.155-0.512-15.336c1.551-4.418,8.296-6.048,12.322-7.156c1.129-0.311,0.647-2.068-0.483-1.756
			c-3.827,1.053-8.979,2.51-11.823,5.48c-2.88,3.007-2.251,7.923-2.026,11.732c0.235,4.089,3.17,11.919,0.898,15.124
			c-0.394,0.557-3.187,4.357-3.51,4.384c-2.043,0.156-5.061-7.837-5.468-9.006C343.1,61.304,341.918,61.607,342.141,62.403"/>
	</g>
	<g>
		<path fill="#373A37" d="M336.113,62.239c-5.847-5.168-5.33-15.907-0.188-21.295c0.707-0.74-0.409-1.863-1.125-1.125
			c-5.708,5.89-6.46,17.924,0.445,23.286C335.854,63.575,336.717,62.773,336.113,62.239"/>
	</g>
	<g>
		<path fill="#373A37" d="M333.271,41.885c-2.889-8.854,0.468-17.676,9.834-20.377c0.3-0.086,0.582-0.4,0.557-0.729
			c-0.809-9.69,13.282-22.659,21.808-13.416c0.732,0.793,1.914-0.393,1.187-1.183c-7.896-8.552-20.783,0.093-23.922,9.005
			c-0.384,1.084-0.273,3.082-0.748,4.029c-0.854,1.7-1.023,1.014-2.289,1.889c-2.28,1.576-4.338,2.641-6.062,4.924
			c-3.577,4.738-3.98,11.043-1.334,16.269C332.568,42.832,333.459,42.458,333.271,41.885"/>
	</g>
	<g>
		<path fill="#373A37" d="M365.24,9.482c3.729-3.612,8.158-6.17,13.271-7.219c3.019-0.618,6.196-0.734,9.24-0.209
			c3.501,0.603,4.854,1.838,7.667,4.088c2.576,2.058,4.575,1.322,7.866,1.981c7.474,1.498,8.264,8.114,7.719,14.596
			c-0.093,1.099,1.617,1.09,1.711,0c0.433-4.938,0.603-10.793-3.802-14.104c-1.897-1.427-4.261-1.992-6.574-2.265
			c-3.097-0.365-3.212,0.052-6.396-2.219c-0.438-0.31-0.729-0.874-1.197-1.178c-9.484-6.114-23.133-2.013-30.324,5.713
			C363.919,9.209,364.704,10,365.24,9.482"/>
	</g>
	<g>
		<path fill="#725038" d="M391.521,64.573c0.5-2.525,0.399-5.023,0.621-7.578c0.146-1.671,0.435-3.967,1.493-5.411
			c4.021-5.466,8.763-0.664,10.046,3.23c0.914,2.776,1.448,6.927,0.86,9.853c-1.19,5.924-13.368,9.099-12.972,0.767
			c0.043-0.899-1.316-0.884-1.392,0c-0.616,7.56,5.099,7.417,11.062,5.792c6.124-1.667,5.276-9.215,4.432-14.256
			c-0.771-4.583-4.271-10.929-9.964-8.812c-6.319,2.351-4.56,11.039-5.385,16.09C390.197,65.019,391.365,65.365,391.521,64.573"/>
	</g>
	<g>
		<path fill="#725038" d="M381.693,64.956c0.338-5.877-1.614-13-7.729-15.417c-5.556-2.198-8.955,4.632-9.123,9.207
			c-0.186,5.077,0.689,14.881,7.017,15.787c6.168,0.885,10.274-3.316,9.984-9.201c-0.038-0.771-1.197-0.779-1.202,0
			c-0.021,3.545-1.155,6.36-4.922,7.5c-3.134,0.944-6.549-0.49-7.672-3.613c-1.322-3.678-2.211-8.062-1.623-11.922
			c0.924-6.071,6.37-8.313,10.523-3.794c2.947,3.207,3.83,7.208,3.724,11.458C380.654,65.618,381.656,65.609,381.693,64.956"/>
	</g>
	<g>
		<path fill="#44311D" d="M395.637,67.876c-0.281,0.363-0.134,0.961,0.269,1.191c0.397,0.23,0.955,0.096,1.237-0.27
			c0.287-0.362,0.309-0.896,0.095-1.307c-0.159-0.305-0.462-0.553-0.806-0.568s-0.694,0.265-0.689,0.605"/>
	</g>
	<g>
		<path fill="#44311D" d="M394.974,66.904c-0.586,0.711-0.476,1.795,0.351,2.3c0.889,0.541,2.033,0.035,2.418-0.871
			c0.371-0.877,0.031-1.961-0.807-2.438c-0.908-0.518-2.068,0.066-2.111,1.125c-0.032,0.791,1.248,0.989,1.399,0.189
			c0.021-0.104,0.021-0.138,0.134,0.037c0.09,0.142,0.151,0.367,0.058,0.522c-0.11,0.174-0.548,0.199-0.417-0.078
			C396.284,67.079,395.478,66.292,394.974,66.904"/>
	</g>
	<g>
		<path fill="#44311D" d="M375.578,69.468c0.055,0.48,0.676,0.8,1.1,0.561c0.412-0.232,0.502-0.781,0.528-1.254
			c0.021-0.436-0.052-0.994-0.472-1.113c-0.229-0.062-0.476,0.043-0.662,0.188c-0.375,0.283-0.625,0.73-0.672,1.201"/>
	</g>
	<g>
		<path fill="#44311D" d="M374.969,69.649c0.105,0.911,0.949,1.611,1.894,1.335c0.928-0.272,1.215-1.354,1.195-2.212
			c-0.019-0.91-0.568-1.866-1.609-1.688c-0.979,0.168-1.697,1.185-1.673,2.146c0.021,0.817,1.167,0.968,1.41,0.19
			c0.054-0.16,0.105-0.322,0.191-0.469c0.057-0.102,0.18-0.188,0.227-0.283c0.036-0.015,0.062-0.035,0.076-0.065
			c0.042-0.065-0.018-0.099-0.178-0.101c0.007-0.004,0.037,0.229,0.039,0.27c0.012,0.184,0.016,0.529-0.09,0.695
			c-0.062,0.095-0.07,0.109-0.107-0.004C376.117,68.753,374.873,68.827,374.969,69.649"/>
	</g>
	<g>
		<path fill="#443F12" d="M358.932,112.876c9.797,7.037,22.836,5.065,30.724-3.813c0.5-0.562-0.323-1.392-0.828-0.828
			c-7.869,8.79-19.504,9.902-29.416,3.825C358.88,111.735,358.445,112.527,358.932,112.876"/>
	</g>
	<g>
		<path fill="#443F12" d="M358.814,111.52c-17.186,5.021-18.345,24.499-17.429,39.396c0.021,0.354,0.232,0.672,0.586,0.771
			c3.474,0.957,6.778,1.021,10.349,0.479c1.979-0.303,6.342-0.461,7.739-2.129c1.697-2.021,0.673-8.145,0.597-10.565
			c-0.107-3.515-0.36-6.737-1.941-9.912c-0.447-0.896-1.754-0.111-1.336,0.78c1.623,3.474,1.728,7.209,1.783,10.974
			c0.021,1.524,0.086,3.084-0.049,4.604c-0.213,2.404-0.071,2.726-2.197,3.684c-2.611,1.178-6.184,1.396-8.996,1.386
			c-5.527-0.021-5.117-2.335-5.209-6.929c-0.259-13.026,3.122-26.25,16.439-31.307C359.898,112.46,359.613,111.286,358.814,111.52"
			/>
	</g>
	<g>
		<path fill="#443F12" d="M388.869,108.86c2.615,0.518,5.54,0.9,7.774,2.452c3.22,2.231,4.408,6.373,5.313,9.978
			c0.796,3.168,1.192,6.426,1.312,9.688c0.164,4.401-0.062,6.399-4.84,6.918c-1.096,0.119-1.104,1.853,0,1.729
			c2.192-0.244,5.449,0.273,6.377-2.041c0.728-1.813,0.175-5.586,0.066-7.521c-0.142-2.486-0.447-4.992-0.96-7.436
			c-1.827-8.69-5.526-14.398-14.906-14.821C388.417,107.78,388.271,108.743,388.869,108.86"/>
	</g>
	<g>
		<path fill="#443F12" d="M394.254,123.7c4.35,20.326,5.369,40.891,2.643,61.508c-0.141,1.066,1.541,1.062,1.683,0
			c2.707-20.617,1.768-41.608-3.167-61.826C395.225,122.63,394.093,122.95,394.254,123.7"/>
	</g>
	<g>
		<path fill="#624321" d="M342.963,152.354c-1.087,12.062-0.572,24.558-0.541,36.668c0.003,1.008,1.546,1.007,1.564,0
			c0.216-12.106,0.92-24.592,0.016-36.668C343.952,151.683,343.023,151.688,342.963,152.354"/>
	</g>
	<g>
		<path fill="#624321" d="M351.15,200.844c-1.138,2.301-2.654,5.346-6.185,3.507c-1.164-0.605-2.38-2.497-3.274-3.464
			c-1.804-1.939-3.229-4.216-1.634-6.957c0.8-1.368,2.134-2.511,3.268-3.597c0.604-0.58-0.22-1.724-0.919-1.19
			c-2.055,1.556-4.25,3.765-4.944,6.328c-0.787,2.903,1.21,4.616,3.063,6.581c1.586,1.678,3.793,5.193,6.51,4.92
			c2.601-0.264,4.326-3.401,5.244-5.469C352.616,200.751,351.529,200.079,351.15,200.844"/>
	</g>
	<g>
		<path fill="#624321" d="M349.764,204.479c0.892,1.235,2.694,1.647,3.994,0.788c0.698-0.461,0.09-1.514-0.656-1.122
			c-0.842,0.438-1.784,0.319-2.489-0.319C350.182,203.438,349.389,203.956,349.764,204.479"/>
	</g>
	<g>
		<path fill="#878787" d="M376.729,231.958c1.776-2.363,1.069-6.479,0.994-9.232c-0.119-4.371-0.471-8.771-1.259-13.077
			c-0.146-0.821-1.571-0.646-1.478,0.2c0.39,3.482,0.862,6.949,1.091,10.451c0.188,2.9,1.261,8.547-0.271,11.123
			C375.447,232.026,376.327,232.493,376.729,231.958"/>
	</g>
	<g>
		<path fill="#878787" d="M373.73,209.767c2.2,0.051,4.143,0.721,6.385,0.443c1.867-0.229,3.664-0.851,5.26-1.849
			c0.837-0.521,0.102-1.776-0.773-1.321c-1.896,0.994-3.812,1.74-5.971,1.854c-1.645,0.085-3.264-0.318-4.9-0.12
			C373.113,208.852,373.075,209.751,373.73,209.767"/>
	</g>
	<g>
		<path fill="#373A37" d="M388.788,30.02c-0.02,2.548-0.527,5.777,0.219,8.222c0.11,0.361,0.404,0.547,0.765,0.581
			c2.32,0.217,4.614-0.634,7.013-0.276c2.867,0.428,5.403,1.637,7.646,3.463c0.431,0.348,1.281,0.315,1.394-0.367
			c0.69-4.357-0.845-8.706-4.608-11.201c-2.928-1.939-8.97-3.717-12.249-1.839c-0.929,0.531-0.104,1.93,0.836,1.431
			c2.493-1.323,7.525,0.099,9.779,1.388c3.521,2.016,5.27,5.771,4.639,9.779c0.463-0.122,0.927-0.244,1.392-0.366
			c-2.69-2.183-5.738-3.613-9.213-3.98c-1.158-0.122-4.705,0.602-5.56-0.078c-1.08-0.863-0.57-5.344-0.626-6.757
			C390.173,29.108,388.793,29.101,388.788,30.02"/>
	</g>
	<g>
		<path fill="#332B18" d="M374.743,39.583c-4.503-1.117-9.729,2.371-13.202,4.862c0.384,0.221,0.77,0.441,1.152,0.662
			c0.293-3.74,1.45-7.535,4.466-9.985c1.219-0.991,3.002-2.099,4.637-2.027c2.933,0.128,2.308,4.298,2.021,6.342
			c-0.147,1.049,1.409,1.543,1.635,0.451c0.414-2.023,0.92-6.173-0.702-7.897c-1.283-1.363-4.229-0.512-5.681,0.082
			c-5.298,2.167-7.517,7.678-7.907,13.034c-0.04,0.55,0.691,0.997,1.15,0.662c3.317-2.42,7.992-5.606,12.273-5.042
			C375.244,40.814,375.369,39.739,374.743,39.583"/>
	</g>
	<g>
		<path fill="#443A38" d="M378.189,241.583c0.023,8.063-11.896,5.021-15.921,2.994c-3.395-1.705-10.243-6.74-9.321-11.305
			c0.188-0.926-1.116-1.293-1.418-0.391c-2.084,6.236,8.231,12.724,12.887,14.334c3.72,1.289,8.227,1.832,12.025,0.543
			c3.336-1.137,3.401-2.858,3.06-6.18C379.416,240.759,378.186,240.719,378.189,241.583"/>
	</g>
	<g>
		<path fill="#587572" d="M377.021,236.319c3.533,8.217-6.37,8.161-11.45,6.295c-1.976-0.726-12.711-7.312-11.367-9.976
			c0.346-0.688-0.646-1.28-1.039-0.606c-1.26,2.133,2.127,4.758,3.436,6.032c3.271,3.19,6.812,5.886,11.42,6.718
			c2.58,0.463,8.457,0.771,10.64-1.277c2.015-1.896,0.472-5.846-0.627-7.771C377.646,235.062,376.734,235.65,377.021,236.319"/>
	</g>
	<g>
		<path fill="#443A38" d="M403.189,240.583c0.023,8.063-11.896,5.021-15.921,2.994c-3.395-1.705-10.243-6.74-9.321-11.305
			c0.188-0.926-1.116-1.293-1.418-0.391c-2.084,6.236,8.231,12.724,12.887,14.334c3.72,1.289,8.227,1.832,12.025,0.543
			c3.336-1.137,3.401-2.858,3.06-6.18C404.416,239.759,403.186,239.719,403.189,240.583"/>
	</g>
	<g>
		<path fill="#587572" d="M402.021,235.319c3.523,8.211-6.366,8.162-11.45,6.295c-4.603-1.688-8.47-5.49-11.396-9.301
			c-0.457-0.594-1.476-0.057-1.039,0.607c3.964,6.017,10.584,11.113,18.032,11.139c1.959,0.006,6.352-0.068,7.679-1.734
			c1.682-2.104,0.319-5.604-0.814-7.594C402.646,234.062,401.734,234.65,402.021,235.319"/>
	</g>
	<g>
		<path fill="#878787" d="M397.793,227.681c-0.157,1.052-2.466-1.145-2.609-1.229c-0.664-0.4-1.448-0.688-2.203-0.853
			c-1.754-0.375-3.571-0.004-5.215,0.626c-1.63,0.627-3.17,1.6-4.428,2.812c-2.169,2.1-3.83,1.629-6.627,2.229
			c-1.057,0.229-0.605,1.818,0.445,1.611c1.569-0.311,3.612,0.25,5.106-0.479c1.188-0.58,1.974-1.934,2.989-2.762
			c2.197-1.787,4.956-2.996,7.771-2.141c1.812,0.553,2.704,2.016,4.4,2.684c0.25,0.1,0.588-0.02,0.769-0.202
			c0.854-0.89,0.846-0.865,0.828-2.136C399.014,227.171,397.9,226.96,397.793,227.681"/>
	</g>
	<g>
		<path fill="#878787" d="M350.783,230.589c-1.892,3.99,4.179,3.146,6.304,2.332c1.733-0.664,3.226-2.799,5.034-3.66
			c3.59-1.717,6.474-1.92,8.875,1.255c1.602,2.114,2.146,2.763,5.25,2.53c1.053-0.08,1.062-1.73,0-1.651
			c-4.075,0.306-3.08-3.069-5.344-4.628c-1.213-0.838-3.506-0.395-4.808-0.221c-2.925,0.389-5.005,1.531-7.522,3.062
			c-1.399,0.853-1.608,1.729-3.485,2.074c-0.401,0.071-3.457,0.164-3.219-0.638C352.055,230.417,351.076,229.973,350.783,230.589"/>
	</g>
	<g>
		<path fill="#587572" d="M358.009,233.656c3.645-3.26,7.193-5.991,12.312-3.745c0.854,0.375,1.604-0.867,0.739-1.27
			c-5.332-2.479-10.42-0.161-13.879,4.188C356.72,233.409,357.436,234.169,358.009,233.656"/>
	</g>
	<g>
		<path fill="#587572" d="M357.316,233.921c0.922,1.121,1.873,2.158,2.941,3.141c0.309,0.279,0.718,0.202,0.948-0.121
			c2.534-3.574,7.154-4.264,11.227-4.145c0.507,0.016,0.828-0.488,0.724-0.946c-0.338-1.457-0.922-2.292-2.105-3.19
			c-0.642-0.488-1.494,0.606-0.867,1.125c0.863,0.549,1.373,1.371,1.53,2.465l0.722-0.946c-4.854,0-8.903,1.227-12.175,4.909h0.854
			c-1.035-0.998-2.045-2.01-3.008-3.078C357.619,232.591,356.869,233.376,357.316,233.921"/>
	</g>
	<g>
		<path fill="#587572" d="M372.363,233.067c1.093,0.646,4.938,2.948,4.791,4.086c-0.287,2.168-3.517,1.896-5.084,1.948
			c-3.299,0.112-8.356-1.14-11.006-3.11c-0.675-0.502-1.572,0.649-0.904,1.172c2.402,1.877,5.652,2.494,8.57,3.215
			c2.352,0.576,5.15,0.375,7.5-0.188c1.92-0.459,2.909-1.402,2.439-3.456c-0.589-2.579-3.508-3.757-5.683-4.739
			C372.275,231.673,371.66,232.651,372.363,233.067"/>
	</g>
	<g>
		<path fill="#587572" d="M383.009,232.656c3.645-3.26,7.193-5.991,12.312-3.745c0.854,0.375,1.604-0.867,0.739-1.27
			c-5.332-2.479-10.42-0.161-13.879,4.188C381.72,232.409,382.436,233.169,383.009,232.656"/>
	</g>
	<g>
		<path fill="#587572" d="M382.316,232.921c0.922,1.121,1.873,2.158,2.941,3.141c0.309,0.279,0.718,0.202,0.948-0.121
			c2.534-3.574,7.154-4.264,11.227-4.145c0.507,0.016,0.828-0.488,0.724-0.946c-0.338-1.457-0.922-2.292-2.105-3.19
			c-0.642-0.488-1.494,0.606-0.867,1.125c0.863,0.549,1.373,1.371,1.53,2.465c0.24-0.313,0.481-0.633,0.722-0.946
			c-4.854,0-8.903,1.227-12.175,4.909h0.854c-1.035-0.998-2.045-2.01-3.008-3.078C382.619,231.591,381.869,232.376,382.316,232.921"
			/>
	</g>
	<g>
		<path fill="#587572" d="M397.363,232.067c1.093,0.646,4.938,2.948,4.791,4.086c-0.287,2.168-3.517,1.896-5.084,1.948
			c-3.299,0.112-8.356-1.14-11.006-3.11c-0.675-0.502-1.572,0.649-0.904,1.172c2.402,1.877,5.652,2.494,8.57,3.215
			c2.352,0.576,5.15,0.375,7.5-0.188c1.92-0.459,2.909-1.402,2.439-3.456c-0.589-2.579-3.508-3.757-5.683-4.739
			C397.275,230.673,396.66,231.651,397.363,232.067"/>
	</g>
	<g>
		<g>
			<path fill="#624321" d="M386.545,78.31c-1.123-0.232-2.556,0.141-3.34,1.005c-0.708,0.781-0.452,1.856,0.37,2.445
				c0.859,0.614,2.351,0.108,3.126-0.412c0.732-0.494,1.192-1.388,0.85-2.252c-0.188-0.478-2.082,0.141-1.932,0.518
				c0.174,0.435,0.146,0.837-0.064,1.251c-0.077,0.152-0.199,0.312-0.336,0.414c-0.173,0.131-0.14,0.038,0.284-0.055
				c0.261-0.057,0.13-0.004-0.021-0.075c-0.474-0.226-0.773-0.813-0.776-1.317c-0.002-0.222,0.12-0.479,0.253-0.65
				c0.062-0.079,0.141-0.155,0.222-0.217c0.065-0.047-0.586,0.027-0.219,0.104c0.438,0.093,0.958-0.056,1.352-0.243
				C386.459,78.751,386.985,78.401,386.545,78.31L386.545,78.31z"/>
		</g>
	</g>
</g>
<g>
	<g>
		<path fill="#624321" d="M415.517,144.577c-2.21-1.724-1.193-5.029,0.304-6.896c0.414-0.517-1.456-0.259-1.758,0.116
			c-1.632,2.033-2.791,5.558-0.359,7.453C414.137,145.591,415.844,144.833,415.517,144.577L415.517,144.577z"/>
	</g>
</g>
<g>
	<g>
		<path fill="#624321" d="M417.367,138.505c-1.227-2.211-4.978-3.657-4.42-6.623c0.027-0.166,0.064-0.088-0.115-0.028
			c0.075-0.024,0.259,0.05,0.342,0.071c0.531,0.138,1.021,0.412,1.485,0.693c0.875,0.524,1.706,1.195,2.317,2.02
			c0.509,0.676,2.354-0.062,1.773-0.836c-1.298-1.733-4.713-4.387-6.963-2.906c-1.334,0.878-0.848,2.736-0.252,3.91
			c0.932,1.841,3.053,2.723,4.056,4.535C415.995,140.066,417.845,139.37,417.367,138.505L417.367,138.505z"/>
	</g>
</g>
<g>
	<g>
		<path fill="#624321" d="M414.326,130.128c-0.229-0.371-0.358-0.734-0.446-1.158c-0.038-0.2-0.038-0.4,0.001-0.6
			c0.027-0.096,0.054-0.188,0.081-0.277c-0.294-0.146-0.344-0.174-0.149-0.079c0.62,0.294,1.157,0.827,1.666,1.276
			c0.948,0.834,2.263,1.856,2.854,3.004c0.356,0.691,2.238,0.076,1.932-0.52c-0.433-0.838-1.181-1.521-1.84-2.178
			c-0.873-0.869-1.799-1.723-2.826-2.404c-0.865-0.575-2.308-0.402-3.043,0.346c-0.969,0.982-0.677,2.281-0.015,3.361
			C412.892,131.48,414.767,130.848,414.326,130.128L414.326,130.128z"/>
	</g>
</g>
<g>
	<g>
		<path fill="#624321" d="M419.402,130.503c-0.312-1.604-0.481-3.188-0.227-4.812c0.46-2.909,2.896,1.35,3.014,1.664
			c0.351,0.958,0.423,2.041,0.528,3.044c0.604,5.621-1.719,12.397-6.049,16.077c-0.816,0.695,1.11,0.568,1.523,0.219
			c3.271-2.781,4.982-6.636,6.029-10.73c0.751-2.937,1.21-8.465-0.935-10.926c-1.066-1.226-3.473-2.15-4.927-0.838
			c-1.854,1.676-1.319,4.618-0.896,6.821C417.58,131.591,419.521,131.124,419.402,130.503L419.402,130.503z"/>
	</g>
</g>
<g>
	<g>
		<path fill="#B3B3B3" d="M407.384,138.846c-0.178-7.853,0.687-16.548,1.829-24.292c0.102-0.688-1.836-0.328-1.924,0.27
			c-1.161,7.848-2.02,16.58-1.837,24.54C405.464,139.896,407.399,139.54,407.384,138.846L407.384,138.846z"/>
	</g>
</g>
<g>
	<g>
		<path fill="#B3B3B3" d="M409.217,114.764c-0.102-2.759,10.716,0.362,12.652,0.45c0.704,0.033,2.065-0.993,0.764-1.053
			c-2.542-0.115-15.552-4.443-15.348,1.117C407.307,115.862,409.243,115.484,409.217,114.764L409.217,114.764z"/>
	</g>
</g>
<g>
	<g>
		<path fill="#B3B3B3" d="M412.821,123.236c-0.641,0.554-0.854,1.292-0.047,1.804c0.826,0.523,1.943,0.479,2.818,0.1
			c0.814-0.354,1.417-0.969,1.413-1.885c-0.004-0.784-0.666-1.426-1.312-1.756c-0.512-0.258-2.295,0.502-1.556,0.879
			c0.637,0.322,1.226,1.211,0.805,1.916c-0.109,0.186-0.312,0.199,0.037,0.14c0.1,0.001,0.07-0.005-0.08-0.021
			c-0.119-0.018-0.229-0.066-0.336-0.115c-0.364-0.157-0.55-0.532-0.219-0.819c0.293-0.254,0.24-0.542-0.161-0.604
			C413.746,122.802,413.162,122.94,412.821,123.236L412.821,123.236z"/>
	</g>
</g>
<g>
	<g>
		<path fill="#B3B3B3" d="M406.934,138.458c-2.441-0.192,0.263-24.742,2.554-24.621c0.863,0.045,2.009-1.227,0.696-1.295
			c-3.055-0.16-3.708,1.345-3.986,4.237c-0.73,7.511-2.442,14.63-2.084,22.25c0.018,0.375,0.271,0.509,0.624,0.558
			c0.497,0.082,0.997,0.141,1.5,0.166C407.105,139.822,408.242,138.562,406.934,138.458L406.934,138.458z"/>
	</g>
</g>
<g>
	<g>
		<path fill="#FFFFFF" d="M429.43,106.622c0.731-0.479,1.361-1.088,1.979-1.707c0.306-0.306,0.188-0.701-0.22-0.816
			c-0.461-0.135-1.03,0.027-1.366,0.363c-0.518,0.518-1.024,1.021-1.639,1.42c-0.305,0.199-0.532,0.646-0.134,0.889
			C428.465,107.013,429.054,106.868,429.43,106.622L429.43,106.622z"/>
	</g>
</g>
<g>
	<g>
		<path fill="#FFFFFF" d="M429.995,114.081c0.845-0.187,1.786,0.039,2.644,0.041c0.428,0,1.004-0.156,1.281-0.506
			c0.286-0.355-0.243-0.479-0.5-0.479c-1.246-0.002-2.414-0.166-3.648,0.105c-0.234,0.053-0.949,0.312-0.854,0.678
			C429.019,114.298,429.758,114.132,429.995,114.081L429.995,114.081z"/>
	</g>
</g>
</svg>
