<?xml version="1.0" encoding="utf-8"?>
<!-- Generator: Adobe Illustrator 15.1.0, SVG Export Plug-In . SVG Version: 6.00 Build 0)  -->
<!DOCTYPE svg PUBLIC "-//W3C//DTD SVG 1.1//EN" "http://www.w3.org/Graphics/SVG/1.1/DTD/svg11.dtd">
<svg version="1.1" id="Layer_1" xmlns="http://www.w3.org/2000/svg" xmlns:xlink="http://www.w3.org/1999/xlink" x="0px" y="0px"
	 width="228px" height="382px" viewBox="329 0 228 382" enable-background="new 329 0 228 382" xml:space="preserve">
<path fill="#F9F9F9" d="M557,374.162c0,4.329-3.509,7.838-7.838,7.838H336.838c-4.329,0-7.838-3.509-7.838-7.838v-0.324
	c0-4.329,3.509-7.838,7.838-7.838h212.324c4.329,0,7.838,3.509,7.838,7.838V374.162z"/>
<path fill="#F2F2F2" stroke="#E2E2E2" stroke-width="2" stroke-miterlimit="10" d="M532,359c0,8.284-6.716,15-15,15H366
	c-8.284,0-15-6.716-15-15V16c0-8.284,6.716-15,15-15h151c8.284,0,15,6.716,15,15V359z"/>
<g>
	<rect x="360" y="40" fill="#FFFFFF" width="162" height="287"/>
	<path fill="#E2E2E2" d="M521,41v285H361V41H521 M523,39H359v289h164V39L523,39z"/>
</g>
<g>
	<path fill="#E6E6E6" d="M440.333,365C432.43,365,426,358.57,426,350.667s6.43-14.333,14.333-14.333s14.333,6.43,14.333,14.333
		S448.236,365,440.333,365z"/>
	<path fill="#E2E2E2" d="M440.333,337.334c7.352,0,13.333,5.98,13.333,13.333S447.685,364,440.333,364S427,358.02,427,350.667
		S432.981,337.334,440.333,337.334 M440.333,335.334c-8.468,0-15.333,6.865-15.333,15.333S431.865,366,440.333,366
		s15.333-6.865,15.333-15.333S448.801,335.334,440.333,335.334L440.333,335.334z"/>
</g>
<g>
	<path fill="#E6E6E6" d="M413.5,23c-0.827,0-1.5-0.673-1.5-1.5s0.673-1.5,1.5-1.5h55c0.827,0,1.5,0.673,1.5,1.5s-0.673,1.5-1.5,1.5
		H413.5z"/>
	<path fill="#E2E2E2" d="M468.5,21c0.275,0,0.5,0.224,0.5,0.5s-0.225,0.5-0.5,0.5h-55c-0.276,0-0.5-0.224-0.5-0.5s0.224-0.5,0.5-0.5
		H468.5 M468.5,19h-55c-1.381,0-2.5,1.119-2.5,2.5s1.119,2.5,2.5,2.5h55c1.381,0,2.5-1.119,2.5-2.5S469.881,19,468.5,19L468.5,19z"
		/>
</g>
</svg>
