<?xml version="1.0" encoding="utf-8"?>
<!-- Generator: Adobe Illustrator 15.1.0, SVG Export Plug-In . SVG Version: 6.00 Build 0)  -->
<!DOCTYPE svg PUBLIC "-//W3C//DTD SVG 1.1//EN" "http://www.w3.org/Graphics/SVG/1.1/DTD/svg11.dtd">
<svg version="1.1" id="Layer_1" xmlns="http://www.w3.org/2000/svg" xmlns:xlink="http://www.w3.org/1999/xlink" x="0px" y="0px"
	 width="857px" height="398px" viewBox="0 0 857 398" enable-background="new 0 0 857 398" xml:space="preserve">
<g>
	<g>
		<path fill="#F9F9F9" d="M685.91,353.155c0,10.59,16.952,19.175,37.863,19.175s37.864-8.585,37.864-19.175
			s-16.953-19.174-37.864-19.174S685.91,342.565,685.91,353.155"/>
	</g>
	<g>
		<path fill="#DACDBC" d="M740.354,315.178c0,0,0.84,5.803,0.605,10.952c-0.233,5.149-0.182,17.953-0.182,17.953
			s-1.121,3.521-6.585,2.874s-12.624-2.395-13.472-3.954c0,0-12.468,0.207-14.541-1.932c-2.074-2.137-1.235-8.214-1.235-8.214
			s-1.635-18.732-0.169-25.863c1.468-7.131,34.5,8.517,34.5,8.517"/>
	</g>
	<g>
		<path fill="#E5D8CA" d="M706.199,309.212l9.445,3.428c0.002-0.001,0.002-0.001,0.003-0.003c0.263-0.223,0.659-0.162,0.998-0.087
			c1.313,0.293,2.627,0.591,3.937,0.897c1.391,0.325,2.793,0.664,4.067,1.298c0.268,0.135,0.54,0.296,0.766,0.492l8.136,0.31
			c-0.239,5.521-0.499,11.044-0.779,16.564c-0.034,0.656-0.071,1.331-0.354,1.926c-0.496,1.049-1.682,1.655-2.853,1.769
			c-1.173,0.113-2.342-0.191-3.464-0.545c-1.119-0.35-2.301-0.809-2.937-1.775c-0.564-0.86-0.581-1.944-0.581-2.967
			c0.001-4.217,0.003-8.434,0.005-12.653c-0.096-0.135-0.198-0.263-0.314-0.379c-0.665-0.651-1.601-0.977-2.531-1.107
			c-0.9-0.129-1.987-0.005-2.44,0.769c-0.062,0.104-0.114,0.222-0.17,0.339c0.006,4.545,0.012,9.091,0.02,13.639
			c0,0.492-0.012,1.023-0.316,1.415c-0.418,0.542-1.209,0.604-1.902,0.616c-1.846,0.029-3.828-0.01-5.33-1.063
			c-1.794-1.259-2.379-3.585-2.734-5.723C705.932,320.705,705.706,314.928,706.199,309.212"/>
	</g>
	<g>
		<path fill="#BFB09D" d="M737.542,316.73c1.051-0.113,2.101-0.13,3.156-0.112c0-0.243-0.01-0.495-0.136-0.702
			c-0.18-0.3,0.103-0.526-0.234-0.635c-10.734-3.431-22.427-5.707-33.458-8.054c-0.417-0.088-0.85-0.177-1.267-0.09
			s-0.82,0.399-0.864,0.82c-0.063,0.597,0.562,1.016,1.104,1.288c9.732,4.85,20.617,7.428,31.521,7.47"/>
	</g>
	<g>
		<path fill="#BFB09D" d="M720.273,323.256c-0.747,0.353-1.703,0.15-2.29-0.427c-0.587-0.575-0.804-1.473-0.614-2.27
			c1.404,0.513,2.895,0.789,4.392,0.818C721.438,322.125,721.018,322.908,720.273,323.256"/>
	</g>
	<g>
		<path fill="#635653" d="M699.649,351.387c0,0-0.897,3.062,2.246,3.406c3.146,0.344,6.286,1.298,9.562-0.911
			c3.273-2.21,6.582-2.384,7.635-5.892c1.051-3.512,1.768-4.274,1.768-4.274s-0.164-1.35-1.438,0.312
			c-1.276,1.662-7.079,7.445-9.225,8.039C708.049,352.662,701.41,352.202,699.649,351.387"/>
	</g>
	<g>
		<path fill="#F2C5B6" d="M719.748,343.503c0,0-1.885-0.177-4.152-0.59c-2.269-0.414-1.254-2.654-5.741-3.041
			c-4.484-0.388-5.281,2.625-5.281,2.625s-0.065,0.792-1.669,1.52c-1.604,0.726-2.481,1.882-3.045,3.746
			c-0.564,1.862-0.564,4.107,2.31,4.569c2.873,0.461,4.658,0.628,7.488-0.503C712.486,350.699,718.351,347.146,719.748,343.503"/>
	</g>
	<g>
		<path fill="#635653" d="M718.093,355.347c0,0-0.899,3.062,2.245,3.406c3.146,0.344,6.285,1.298,9.561-0.911
			c3.274-2.21,6.583-2.384,7.636-5.892c1.051-3.512,1.768-4.274,1.768-4.274s-0.164-1.35-1.438,0.312
			c-1.276,1.662-7.079,7.445-9.225,8.039C726.491,356.622,719.853,356.162,718.093,355.347"/>
	</g>
	<g>
		<path fill="#A09D9C" d="M738.19,347.463c0,0-1.884-0.177-4.152-0.59c-2.268-0.414-1.255-2.654-5.739-3.041
			c-4.486-0.388-5.282,2.625-5.282,2.625s-0.067,0.792-1.671,1.52c-1.604,0.726-2.479,1.882-3.044,3.746
			c-0.563,1.862-0.563,4.107,2.309,4.569c2.875,0.461,4.658,0.628,7.488-0.503C730.931,354.658,736.793,351.105,738.19,347.463"/>
	</g>
	<g>
		<path fill="#827E7A" d="M738.016,346.812c0.164,1.205-0.607,2.472-1.762,2.895c-0.509,0.184-1.061,0.216-1.602,0.223
			c-0.596,0.006-1.192-0.021-1.786-0.077c-0.154-0.279,0.071-0.608,0.283-0.847l1.223-1.372c0.098-0.108,0.196-0.22,0.325-0.289
			c0.197-0.105,0.434-0.098,0.656-0.096C736.258,347.251,737.161,347.104,738.016,346.812"/>
	</g>
	<g>
		<path fill="#827E7A" d="M716.81,346.422c-0.602-0.026-1.199-0.118-1.78-0.275c-0.146-0.04-0.302-0.095-0.377-0.222
			c-0.116-0.193,0.017-0.435,0.146-0.618c0.445-0.644,0.893-1.289,1.34-1.933c0.09-0.128,0.182-0.26,0.312-0.348
			c0.186-0.125,0.42-0.147,0.643-0.162c0.702-0.055,1.404-0.108,2.106-0.163c0.086-0.006,0.178-0.011,0.245,0.042
			c0.079,0.059,0.091,0.169,0.091,0.267c0.002,0.822-0.396,1.59-0.783,2.32c-0.152,0.289-0.313,0.587-0.573,0.787
			C717.801,346.408,717.288,346.441,716.81,346.422"/>
	</g>
	<g>
		<path fill="#D3A99F" d="M711.842,346.96c-2.376-2.127-5.671-3.216-8.864-2.927c1.471-1.225,3.591-1.51,5.456-1.042
			c1.864,0.467,3.495,1.608,4.854,2.954c0.136,0.135,0.278,0.32,0.202,0.495c-0.038,0.088-0.125,0.144-0.207,0.194
			c-0.21,0.132-0.421,0.262-0.63,0.392c-0.137,0.084-0.287,0.172-0.446,0.15C712.064,347.158,711.949,347.056,711.842,346.96"/>
	</g>
	<g>
		<path fill="#827E7A" d="M724.575,346.819c2.619,0.31,5.153,1.296,7.281,2.835c0.162,0.118,0.334,0.254,0.383,0.445
			c0.091,0.343-0.239,0.653-0.571,0.781c-0.332,0.129-0.712,0.172-0.98,0.405c-2.771-1.892-6.116-2.954-9.484-3.018
			c0.283-0.642,0.854-1.152,1.531-1.369C723.323,346.714,723.96,346.746,724.575,346.819"/>
	</g>
	<g>
		<path fill="#443A38" d="M718.188,354.295c-0.012,6.071,8.925,4.152,12.225,2.638c3.229-1.48,9.07-5.597,7.537-9.858
			c-0.223-0.617,0.802-1.055,1.082-0.45c2.417,5.236-5.018,10.349-9.23,11.94c-2.946,1.114-6.437,1.597-9.521,0.792
			c-3.116-0.813-3.47-1.995-3.144-5.062C717.205,353.644,718.189,353.61,718.188,354.295"/>
	</g>
	<g>
		<path fill="#605D5B" d="M719.125,350.126c-2.834,6.507,5.11,6.46,9.184,4.982c1.58-0.573,10.192-5.789,9.113-7.897
			c-0.276-0.543,0.517-1.014,0.835-0.479c1.009,1.688-1.707,3.768-2.755,4.776c-2.625,2.529-5.459,4.664-9.157,5.322
			c-2.07,0.368-6.78,0.608-8.528-1.015c-1.618-1.502-0.38-4.626,0.502-6.154C718.623,349.13,719.354,349.596,719.125,350.126"/>
	</g>
	<g>
		<path fill="#443A38" d="M699.746,350.335c-0.014,6.071,8.923,4.152,12.225,2.638c3.228-1.48,9.068-5.597,7.536-9.858
			c-0.223-0.617,0.803-1.055,1.081-0.45c2.418,5.236-5.019,10.349-9.229,11.94c-2.947,1.114-6.437,1.597-9.523,0.792
			c-3.116-0.813-3.47-1.995-3.142-5.062C698.764,349.684,699.747,349.65,699.746,350.335"/>
	</g>
	<g>
		<path fill="#605D5B" d="M700.682,346.166c-2.833,6.507,5.111,6.46,9.184,4.982c1.58-0.573,10.193-5.789,9.115-7.897
			c-0.276-0.543,0.516-1.014,0.833-0.479c1.01,1.688-1.705,3.768-2.755,4.776c-2.624,2.529-5.458,4.664-9.157,5.322
			c-2.07,0.368-6.779,0.608-8.529-1.015c-1.616-1.502-0.378-4.626,0.504-6.154C700.182,345.17,700.913,345.636,700.682,346.166"/>
	</g>
	<g>
		<path fill="#A39686" d="M715.89,342.173c1.42,0.07,2.822,0.001,4.237-0.115c1.029-0.085,1.023,1.499,0,1.584
			c-1.415,0.116-2.817,0.186-4.237,0.115C714.863,343.705,714.856,342.121,715.89,342.173"/>
	</g>
	<g>
		<path fill="#93815A" d="M705.528,307.635c-0.316,10.879-0.324,21.671,1.067,32.486c0.13,1.009-1.475,1-1.604,0
			c-1.392-10.815-1.384-21.606-1.067-32.486C703.954,306.618,705.558,306.613,705.528,307.635"/>
	</g>
	<g>
		<path fill="#A39686" d="M734.071,346.493c3.144-0.122,5.482-0.39,6.107-3.767c0.367-1.976-0.054-4.438-0.027-6.454
			c0.05-4.085,0.041-8.164,0.018-12.252c-0.004-0.696,1.099-0.698,1.096,0c-0.019,6.236-0.022,12.469,0.047,18.706
			c0.015,1.359,0.396,2.547-0.639,3.465c-1.536,1.362-4.662,1.41-6.602,1.389C733.36,347.571,733.364,346.521,734.071,346.493"/>
	</g>
	<g>
		<path fill="#A39686" d="M720.471,321.693c0.088,3.784,0.222,7.57,0.468,11.35c0.221,3.394-1.028,9.996,2.968,11.316
			c0.667,0.22,0.376,1.271-0.292,1.045c-4.368-1.496-3.177-2.325-3.456-6.881c-0.341-5.597-0.973-11.218-0.788-16.83
			C719.392,320.996,720.454,320.991,720.471,321.693"/>
	</g>
	<g>
		<path fill="#A39686" d="M722.374,321.362c-1.696,0.866-3.276,0.527-4.891-0.353c-0.635-0.345-0.071-1.295,0.567-0.957
			c1.255,0.665,2.513,1.2,3.896,0.588C722.434,320.425,722.866,321.11,722.374,321.362"/>
	</g>
	<g>
		<path fill="#B5897C" d="M715.928,344.057c-2.919-2.58-5.771-4.741-9.869-2.964c-0.688,0.299-1.296-0.689-0.599-1.009
			c4.278-1.961,8.357-0.127,11.13,3.318C716.961,343.861,716.387,344.463,715.928,344.057"/>
	</g>
	<g>
		<path fill="#B5897C" d="M716.483,344.267c-0.739,0.889-1.503,1.711-2.361,2.487c-0.245,0.222-0.575,0.16-0.761-0.096
			c-2.032-2.832-5.737-3.378-9.002-3.279c-0.405,0.013-0.666-0.39-0.58-0.753c0.271-1.155,0.74-1.816,1.688-2.529
			c0.518-0.389,1.204,0.482,0.699,0.896c-0.692,0.435-1.102,1.086-1.226,1.95c-0.194-0.252-0.388-0.501-0.582-0.753
			c3.895,0.003,7.141,0.972,9.763,3.891h-0.685c0.831-0.791,1.64-1.591,2.413-2.438C716.24,343.214,716.841,343.835,716.483,344.267
			"/>
	</g>
	<g>
		<path fill="#B5897C" d="M704.417,343.591c-0.874,0.512-3.961,2.339-3.841,3.236c0.232,1.715,2.818,1.499,4.076,1.54
			c2.645,0.09,6.699-0.901,8.823-2.464c0.542-0.397,1.266,0.517,0.728,0.933c-1.926,1.487-4.532,1.978-6.873,2.545
			c-1.885,0.459-4.133,0.299-6.014-0.146c-1.541-0.364-2.337-1.112-1.961-2.741c0.473-2.044,2.813-2.974,4.56-3.751
			C704.488,342.486,704.98,343.262,704.417,343.591"/>
	</g>
	<g>
		<path fill="#605D5B" d="M734.369,348.017c-2.917-2.58-5.771-4.741-9.868-2.964c-0.688,0.299-1.295-0.689-0.599-1.009
			c4.278-1.961,8.356-0.127,11.131,3.318C735.403,347.821,734.829,348.423,734.369,348.017"/>
	</g>
	<g>
		<path fill="#605D5B" d="M734.925,348.227c-0.739,0.889-1.502,1.711-2.361,2.487c-0.244,0.222-0.575,0.159-0.759-0.096
			c-2.033-2.832-5.738-3.378-9.003-3.279c-0.406,0.013-0.665-0.39-0.58-0.753c0.271-1.156,0.739-1.816,1.688-2.529
			c0.518-0.389,1.205,0.482,0.699,0.896c-0.692,0.435-1.101,1.086-1.227,1.95c-0.194-0.252-0.388-0.501-0.581-0.753
			c3.895,0.003,7.142,0.972,9.762,3.891h-0.684c0.83-0.791,1.64-1.591,2.412-2.438C734.682,347.174,735.283,347.795,734.925,348.227
			"/>
	</g>
	<g>
		<path fill="#605D5B" d="M722.86,347.551c-0.876,0.512-3.961,2.339-3.84,3.236c0.231,1.715,2.816,1.499,4.073,1.54
			c2.646,0.09,6.7-0.901,8.825-2.464c0.542-0.397,1.266,0.517,0.728,0.933c-1.926,1.487-4.532,1.978-6.873,2.545
			c-1.887,0.459-4.133,0.299-6.015-0.147c-1.541-0.363-2.336-1.111-1.961-2.74c0.473-2.044,2.814-2.974,4.56-3.752
			C722.93,346.446,723.424,347.222,722.86,347.551"/>
	</g>
	<g>
		<path fill="#83B1B1" d="M749.482,271.666c-0.074-4.917,0.073-10.341-1.052-15.225c-0.739-1.584-1.771-3.516-1.698-5.109
			c0.057-1.262,0.353-2.613,0.296-3.911c-0.135-0.456-0.293-0.903-0.501-1.334c-0.082-0.199-0.095-0.377-0.08-0.542
			c-1.131-1.267-2.091-2.621-3.094-4.04c-2.27-0.934-5.126-0.567-8.096-0.233c-0.804,0.09-1.607,0.14-2.412,0.18
			c-2.58,1.295-5.679,0.455-8.496,0.342c-1.33-0.054-1.542-1.534-0.763-2.215c-0.212-0.165-0.421-0.336-0.646-0.531
			c-3.88-1.898-11.093-0.1-14.461,0.484c-2.591,0.45-5.229,1.095-7.874,1.558c0.076,1.347,0.127,2.729,0.131,4.153
			c0.026,10,5.186,28.268,4.297,34.495c-0.892,6.229-0.715,17.812-12.616,23.152c0,0,2.03,2.643,8.652,4.74
			c6.62,2.098,9.596,4.351,15.064-0.141c0,0-1.098,3.197,1.54,7.688c0,0,2.489-2.814,11.096-1.641
			c8.604,1.176,15.957,1.121,15.957,1.121s-0.09-1.18-0.069-3.207c-0.35-0.391-0.412-1.005-0.191-1.479
			c-0.055-0.267-0.102-0.534-0.132-0.805c-0.061-0.146-0.102-0.308-0.102-0.498c0-0.963-0.02-1.924-0.027-2.887
			c-0.323-0.196-0.556-0.538-0.556-1.032v-2.666c0-0.176,0.034-0.329,0.087-0.468c-1.021-2.971-0.959-7.538-0.157-10.515
			c0.409-1.52,1.088-2.473,2.064-3.125c-0.025-0.171-0.014-0.359,0.051-0.564c1.578-5.031,2.96-9.819,3.622-15.078
			c0.025-0.203,0.092-0.377,0.182-0.529C749.493,271.759,749.483,271.716,749.482,271.666z"/>
	</g>
	<g>
		<path fill="#9BC9C7" d="M734.773,300.613c0.055-2.201-0.046-4.533-0.577-6.677c-0.069-0.466-0.183-0.929-0.321-1.375
			c-0.151-0.494-0.327-0.977-0.519-1.453c-1.509,0.053-3.032-0.071-4.444-0.633c-0.21-0.083-0.373-0.205-0.502-0.348
			c-0.249-0.104-0.496-0.222-0.74-0.347c-0.284-0.028-0.566-0.065-0.848-0.105c-0.013,0.779-0.007,1.557,0.147,2.318
			c0.069,0.348,0.177,0.684,0.3,1.013c-0.295,1.619-1.083,3.129-1.959,4.536c-2.162,3.461-4.946,6.528-8.182,9.016
			c-0.423,0.323-0.865,0.656-1.102,1.131c-0.237,0.49-0.225,1.06-0.205,1.602c0.038,1.104,0.086,2.243,0.524,3.26
			s1.363,1.902,2.468,1.959c0.963,0.049,1.834-0.508,2.713-0.903c4.557-2.04,9.823,0.271,14.81,0.01
			C734.215,309.736,734.661,305.033,734.773,300.613z"/>
	</g>
	<g>
		<path fill="#D6A380" d="M721.002,239.162l-1.275,3.7c0,0-3.654,0.252-4.032,2.244c-0.385,1.993,5.082,4.199,5.082,4.199
			s5.346,0.909,4.639,6.281c0,0,3.472-4.373,7.825-4.511c4.353-0.136,6.657-0.899,6.609-2.864c-0.048-1.967-1.316-4.041-3.196-3.603
			l-0.454-3.468L721.002,239.162z"/>
	</g>
	<g>
		<path fill="#759B9A" d="M725.663,255.014c-0.396-1.262-0.8-2.543-1.546-3.635c-0.744-1.091-1.892-1.985-3.209-2.102
			c-2.135-0.188-3.916,1.66-4.856,3.584c-0.51,1.042-0.881,2.18-0.84,3.339c0.043,1.158,0.551,2.339,1.509,2.994
			c-0.021-1.684,0.27-3.418,1.17-4.837c0.901-1.421,2.497-2.472,4.18-2.4c1.68,0.069,3.297,1.468,3.319,3.151
			c1.192-1.307,2.838-2.263,4.603-2.354c1.768-0.092,3.618,0.787,4.434,2.357c0.845,1.62,0.483,3.615-0.229,5.301
			c1.044,0.487,2.364,0.035,3.088-0.861c0.722-0.896,0.909-2.135,0.744-3.274c-0.165-1.137-0.649-2.203-1.159-3.236
			c-0.199-0.397-0.405-0.803-0.717-1.12c-0.756-0.767-1.955-0.874-3.027-0.775C730.264,251.405,727.526,252.825,725.663,255.014"/>
	</g>
	<g>
		<path fill="#9BC9C7" d="M743.088,246.077c-0.081-0.411-0.202-0.826-0.146-1.241c0.054-0.418,0.354-0.84,0.771-0.867
			c0.391-0.026,0.715,0.285,0.96,0.588c2.358,2.903,2.409,7.263,0.655,10.563c-1.756,3.302-5.052,5.594-8.598,6.777
			c1.23-2.051,1.699-4.547,1.302-6.906c-0.073-0.438-0.154-0.947,0.147-1.269c0.17-0.181,0.423-0.254,0.657-0.332
			C741.758,252.415,743.684,249.099,743.088,246.077"/>
	</g>
	<g>
		<path fill="#9BC9C7" d="M714.726,250.766c0.16,0.111,0.343,0.198,0.466,0.351c0.202,0.256,0.172,0.622,0.131,0.947
			c-0.372,2.901-0.741,5.805-1.111,8.706c-2.105-3.86-2.938-8.402-2.339-12.76c0.074-0.541,0.322-1.215,0.868-1.218
			c0.48-0.004,0.761,0.535,0.867,1.005C713.846,248.858,713.838,250.137,714.726,250.766"/>
	</g>
	<g>
		<path fill="#759B9A" d="M719.903,242.855c0.119-0.107,0.185-0.257,0.243-0.405c0.302-0.772,0.465-1.598,0.481-2.424
			c0.002-0.066,0.002-0.135-0.03-0.19c-0.037-0.066-0.106-0.105-0.176-0.139c-1.581-0.77-3.646-0.379-4.838,0.917
			c0.546,0.45,1.092,0.897,1.64,1.347c0.607,0.5,1.278,1.027,2.067,1.062C719.506,243.034,719.74,243,719.903,242.855"/>
	</g>
	<g>
		<path fill="#759B9A" d="M736.134,241.429c0.038,0.649,0.115,1.296,0.227,1.936c0.048,0.268,0.107,0.543,0.277,0.752
			c0.372,0.462,1.148,0.449,1.483,0.937c1.304-1.562,3.367-2.466,5.4-2.362c-0.659-0.826-1.405-1.706-2.442-1.913
			c-0.422-0.084-0.857-0.046-1.285-0.008c-1.122,0.099-2.245,0.198-3.366,0.299c-0.08,0.006-0.169,0.016-0.229,0.073
			C736.125,241.213,736.128,241.329,736.134,241.429"/>
	</g>
	<g>
		<path fill="#759B9A" d="M721.805,271.087c0.349-2.566,1.699-4.891,2.275-7.415c-0.702,5.213-1.54,9.5,0.225,17.722
			C723.469,278.695,721.424,273.887,721.805,271.087"/>
	</g>
	<g>
		<path fill="#759B9A" d="M726.977,293.552c-0.198,2.027-0.407,4.088-1.183,5.972c-0.769,1.857-2.054,3.449-3.322,5.01
			c-1.86,2.292-3.798,4.646-6.416,6.011c0.088-0.738,0.174-1.478,0.26-2.216c0.05-0.436,0.108-0.883,0.333-1.26
			c0.225-0.37,0.593-0.627,0.949-0.869c1.6-1.073,3.417-2.729,4.849-4.019c1.433-1.29,3.272-3.599,3.728-5.471"/>
	</g>
	<g>
		<path fill="#C69777" d="M735.938,243.723c0.033-0.825,0.063-1.649,0.097-2.472c-4.802-0.23-9.592-0.689-14.351-1.372
			c-0.167-0.024-0.353-0.043-0.49,0.051c-0.157,0.108-0.193,0.316-0.233,0.504c-0.137,0.659-0.46,1.279-0.923,1.771
			c4.561,2.526,10.001,3.41,15.124,2.459c0.211-0.037,0.432-0.087,0.578-0.241C735.91,244.243,735.929,243.972,735.938,243.723"/>
	</g>
	<g>
		<path fill="#9BC9C7" d="M719.726,265.67c0.107,0.176,0.201,0.358,0.303,0.538c0.176-0.388,0.371-0.767,0.595-1.133
			c0.247-0.4,0.513-0.812,0.556-1.282c0.041-0.47-0.278-1.014-0.751-1.021c-0.362-0.005-0.656,0.289-0.891,0.564
			c-0.181,0.212-0.352,0.432-0.527,0.647C719.248,264.548,719.481,265.112,719.726,265.67z"/>
		<path fill="#9BC9C7" d="M720.923,286.003c-1.453-1.22-2.766-2.295-4.563-3.011c-0.723-0.288-1.438-0.574-2.142-0.888
			c-0.481,1.122-1.151,2.163-2.006,3.039c-0.356,0.227-0.722,0.443-1.102,0.634c-2.477,1.266-5.455,1.869-7.222,4.018
			c-0.972,1.186-1.436,2.691-2.071,4.085c-1.885,4.134-5.476,7.458-9.743,9.02c0.311,0.349,0.636,0.681,0.972,1.001
			c9.723,5.615,22.332,1.701,28.855-6.965c1.217-1.812,2.245-3.771,2.761-5.9c0.048-0.948-0.032-1.899-0.217-2.827
			C723.142,287.807,721.953,286.867,720.923,286.003z"/>
	</g>
	<g>
		<path fill="#AED6D3" d="M715.187,278.291c-0.093-0.622-0.179-1.176-0.263-1.671c-0.07-0.564-0.164-1.14-0.294-1.729
			c-0.051-0.239-0.088-0.469-0.116-0.696c-0.072-1.31,0.03-2.162,0.107-2.58c0.013-0.058,0.025-0.118,0.037-0.176
			c0.002-0.002,0.002-0.008,0.004-0.01c0.293-0.812,0.496-1.391,0.651-1.693c-1.217,2.147-1.409,3.95-1.245,5.395l-0.006-0.02
			c0,0,0.003,0.018,0.007,0.042c0.046,0.391,0.112,0.755,0.186,1.101c0.17,1.152,0.359,2.937,0.153,4.247
			c-0.037,0.199-0.081,0.407-0.135,0.624c-0.074,0.237-0.121,0.41-0.151,0.531c-0.314,1.057-0.824,2.17-1.667,2.846
			c-1.964,1.574-4.448,2.077-5.684,3.17c0,0,3.122-1.272,4.603-1.782C712.856,285.377,715.934,283.357,715.187,278.291"/>
	</g>
	<g>
		<path fill="#AED6D3" d="M734.025,293.103c-0.136-0.654-0.402-1.396-0.696-2.095c-0.027,0.001-0.052,0.014-0.079,0.013
			c-0.146-0.003-0.29-0.021-0.436-0.033c0.623,2.309,1.14,4.858,1.393,7.283c0.352,3.387,0.503,8.886,0.503,8.886
			C735.372,297.295,734.025,293.103,734.025,293.103z"/>
	</g>
	<g>
		<path fill="#587572" d="M719.41,242.38c-1.931,0.052-4.717,1.042-4.227,3.51c0.465,2.346,3.417,3.647,5.521,3.916
			c0.649,0.081,0.794-0.913,0.145-1.01c-1.53-0.222-3.183-0.908-4.129-2.193c-1.61-2.184,1.178-3.041,2.805-3.329
			C720.104,243.17,719.983,242.363,719.41,242.38"/>
	</g>
	<g>
		<path fill="#587572" d="M736.445,245.103c1.912-0.201,3.671,2.206,2.308,3.831c-0.849,1.013-2.624,1.929-3.937,1.877
			c-0.741-0.027-0.936,1.082-0.164,1.169c2.1,0.243,5.387-1.519,5.812-3.738c0.446-2.334-1.843-4.603-4.131-4.02
			C735.794,244.359,735.86,245.166,736.445,245.103"/>
	</g>
	<g>
		<path fill="#997261" d="M720.537,239.172c-0.173,1.083-0.59,2.029-1.085,2.997c-0.478,0.94-0.828,1.923-1.759,2.511
			c-0.527,0.332-0.027,1.135,0.525,0.923c1.141-0.436,1.567-1.579,2.07-2.605c0.609-1.252,1.13-2.402,1.087-3.819
			C721.362,238.688,720.61,238.717,720.537,239.172"/>
	</g>
	<g>
		<path fill="#997261" d="M735.626,241.128c-0.016,1.876-0.256,4.479,1.377,5.795c0.617,0.498,1.376-0.464,0.763-0.966
			c-1.244-1.02-0.94-3.388-1.111-4.822C736.588,240.573,735.63,240.528,735.626,241.128"/>
	</g>
	<g>
		<path fill="#587572" d="M720.153,239.021c-3.916-0.434-7.598,3.308-8.583,6.886c-1.194,4.333-0.624,12.727,2.831,15.967
			c0.391,0.368,1.021-0.249,0.673-0.655c-4.615-5.391-4.493-21.376,5.074-21.382C720.612,239.839,720.606,239.071,720.153,239.021"
			/>
	</g>
	<g>
		<path fill="#587572" d="M736.678,262.793c5.1-2.389,10.623-6.847,10.809-12.976c0.131-4.329-3.234-9.728-7.939-9.66
			c-0.65,0.008-0.664,1.133-0.008,1.153c5.051,0.155,7.726,6.521,6.492,10.765c-1.35,4.634-5.603,7.761-9.64,10.023
			C735.984,262.328,736.227,263.003,736.678,262.793"/>
	</g>
	<g>
		<path fill="#587572" d="M699.949,242.151c0.009,0.196,0.016,0.392,0.025,0.589c0.475,10.196,2.922,20.162,3.755,30.319
			c0.902,10.985-0.283,24.01-11.528,29.303c-0.66,0.312-0.253,1.341,0.433,1.058c20.536-8.49,10.659-39.268,8.977-55.3
			c-0.235-2.235-0.312-4.492-0.386-6.749C700.804,241.635,700.378,241.896,699.949,242.151z"/>
	</g>
	<g>
		<path fill="#587572" d="M715.182,261.439c-0.372-3.895,0.547-13.22,6.73-11.074c4.396,1.521,2.121,9.142,1.314,12.289
			c-0.466,1.812-1.006,3.623-1.425,5.456c0.282,0.131,0.516,0.38,0.611,0.802c0.086,0.38,0.15,0.766,0.215,1.151
			c0.408-2.449,1.157-4.845,1.767-7.242c0.85-3.34,2.454-8.53,0.308-11.737c-1.501-2.246-5.039-2.921-7.247-1.373
			c-3.381,2.373-3.701,8.244-3.245,11.855C714.288,262.193,715.241,262.067,715.182,261.439z"/>
		<path fill="#587572" d="M726.545,289.639c0.271,2.139,0.085,4.317-0.764,6.513c-1.639,4.243-5.316,7.357-9.05,9.736
			c-1.7,1.083-3.904,2.78-5.887,3.331c-2.189,0.605-4.399-0.782-6.441-1.382c-4.256-1.252-8.78-1.592-11.91-5.129
			c-0.507-0.573-1.464,0.14-0.953,0.717c3.637,4.125,8.75,4.209,13.637,5.913c1.738,0.606,3.254,1.887,5.152,1.445
			c1.889-0.439,3.873-1.947,5.534-2.927c7.232-4.26,12.288-10.41,11.844-17.831C727.285,290.082,726.837,289.951,726.545,289.639z"
			/>
	</g>
	<g>
		<path fill="#587572" d="M715.727,307.431c-0.53,2.954,0.012,5.487,1.543,8.052c0.15,0.25,0.495,0.229,0.708,0.101
			c4.758-2.86,9.957-1.56,15.077-0.782c3.838,0.585,7.677,0.715,11.545,0.443c0.73-0.053,0.582-1.169-0.144-1.128
			c-6.459,0.379-12.415-1.258-18.782-1.429c-1.683-0.047-3.378,0.062-5,0.536c-0.101,0.03-2.286,0.934-2.302,0.931
			c-2.416-0.641-2.034-4.852-1.829-6.607C716.605,307.019,715.818,306.909,715.727,307.431"/>
	</g>
	<g>
		<path fill="#587572" d="M725.314,256.628c1.691-3.038,8.502-7.655,11.106-3.081c1.678,2.944,0.821,5.393-0.333,8.241
			c-0.226,0.562,0.555,1.074,0.933,0.562c0.003-0.003,0.004-0.006,0.007-0.01c0.418-0.569-0.44-1.252-0.86-0.683
			c0,0.003-0.004,0.007-0.006,0.01c0.312,0.188,0.623,0.373,0.934,0.56c0.679-1.443,1.47-3.192,1.513-4.811
			c0.047-1.797-0.933-4.903-2.448-5.979c-1.781-1.266-4.903-0.536-6.739,0.246c-2.18,0.929-3.78,2.537-4.903,4.597
			C724.246,256.777,725.044,257.114,725.314,256.628"/>
	</g>
</g>
<rect x="740.188" y="315.377" fill="#A39686" width="1.104" height="8.831"/>
<path fill="#A66132" d="M106.616,287.129c0,0,2.638,26.76,0.294,37.105l-1.526,1.382l1.526,8.23l0.398,5.233
	c0,0,2.563,1.874,4.188-1.639c1.625-3.51,2.51-6.703,0.134-13.541c0,0,0.144-37.378-0.416-37.965S107.288,285.612,106.616,287.129"
	/>
<path fill="#624321" d="M108.946,327.526c0.199,1.137,0.424,2.271,0.604,3.409c0.327,2.068-0.965,2.265-2.641,2.301
	c-0.657,0.015-0.869,1.09-0.163,1.2c1.411,0.22,3.198-0.102,3.838-1.562c0.289-0.658,0.176-1.319,0.032-1.996
	c-0.255-1.197-0.564-2.388-0.85-3.578C109.638,326.76,108.854,326.996,108.946,327.526"/>
<path fill="#624321" d="M109.735,286.451c0.856,12.214,0.9,24.452,0.943,36.688c0.005,1.066,1.66,1.067,1.655,0
	c-0.043-12.237-0.087-24.475-0.943-36.688C111.317,285.394,109.66,285.386,109.735,286.451"/>
<path fill="#624321" d="M111.033,323.521c0.522,2.387,1.539,4.799,1.746,7.23c0.271,3.187-1.465,6.185-3.518,8.49
	c-0.568,0.636,0.368,1.581,0.941,0.939c1.834-2.058,3.462-4.586,3.879-7.372c0.46-3.074-1.146-6.688-2.137-9.54
	C111.746,322.694,110.902,322.922,111.033,323.521"/>
<path fill="#624321" d="M108.423,334.559c-0.536,1.246-0.756,2.487-0.503,3.833c0.179,0.964,0.502,2.077,1.594,2.216
	c0.646,0.083,0.684-0.876,0.146-1.07c-0.512-0.186-0.684-1.551-0.721-2.017c-0.071-0.886,0.129-1.735,0.439-2.559
	C109.586,334.412,108.657,334.014,108.423,334.559"/>
<path fill="#F9F9F9" d="M698.834,349H133.838c-4.329,0-7.838,3.509-7.838,7.838v0.324c0,4.329,3.509,7.838,7.838,7.838h571.729
	C701.246,360.903,699.991,355.176,698.834,349z"/>
<rect x="148" y="26.5" fill="#E6E6E6" width="569" height="333"/>
<rect x="155" y="33.5" fill="#FFFFFF" width="555" height="319"/>
<path fill="#E6E6E6" d="M717,29.5V15c0-6.627-5.373-11.5-12-11.5H160c-6.627,0-12,4.873-12,11.5v14.5H717z"/>
<circle fill="#CCCCCC" cx="162.184" cy="16" r="5.273"/>
<circle fill="#CCCCCC" cx="177.184" cy="16" r="5.273"/>
<circle fill="#CCCCCC" cx="192.184" cy="16" r="5.273"/>
<g>
	<g>
		<path fill="#EFEFEF" d="M126.588,374.376c0,11.114-17.573,20.124-39.25,20.124c-21.679,0-39.253-9.01-39.253-20.124
			c0-11.115,17.574-20.125,39.253-20.125C109.015,354.251,126.588,363.261,126.588,374.376"/>
	</g>
	<g>
		<path fill="#D3D3D3" d="M73.503,333.55c0,0-0.311,7.323-3.826,10.931l-1.399,21.371c0,0,0.118,2.131,4.498,0
			c4.378-2.133,7.74-4.168,10.465-2.163c2.727,2.006,5,4.531,10.239,0.839c5.241-3.692,12.81,0.166,12.81,0.166
			s1.352-0.92,0.743-4.605c-0.608-3.685,0.116-9.784,0.158-13.511c0.041-3.726-1.148-18.698-1.148-18.698
			S95.251,337.576,73.503,333.55"/>
	</g>
	<g>
		<path fill="#A06944" d="M62.703,229.822c0,0-6.322-1.417-7.25,4.878c-0.928,6.296,9.249,5.653,9.249,5.653
			s0.658,12.844,12.421,17.965c11.762,5.121,34.065-1.331,40.161-7.317c0,0,2.957-6.506,0.994-16.914c0,0,6.286,0.191,6.041-4.831
			c-0.245-5.022-6.257-3.362-6.257-3.362l-2.103-24.175c0,0-8.608-2.488-16.802,0.315c-8.195,2.803-15.268-3.321-26.486,4.105
			c-6.579,4.239-1.795,22.021-1.795,22.021l-4.783,5.926L62.703,229.822z"/>
	</g>
	<g>
		<path fill="#724830" d="M116.285,201.951c-4.681-1.596-9.796-1.891-14.63-0.846c-1.481,0.321-2.938,0.765-4.439,0.977
			c-1.947,0.278-3.926,0.159-5.89,0.07c-3.245-0.145-6.515-0.206-9.721,0.311c-3.208,0.518-6.372,1.643-8.916,3.662
			c-1.065,0.846-2.024,1.858-2.642,3.07c-0.8,1.568-0.985,3.374-1.039,5.134c-0.12,3.858,0.328,7.735,1.321,11.466
			c0.261,0.976,0.559,2.01,0.265,2.977c-0.209,0.69-0.698,1.255-1.173,1.798c-0.856,0.979-1.714,1.958-2.571,2.937
			c0.628,0.818,1.256,1.638,1.885,2.456c1.032-1.331,2.457-3.558,3.489-4.888l0.63-1.017c-1.192-5.029-3.957-9.327-2.903-14.388
			c0.258-1.24,0.698-2.451,1.383-3.519c0.837-1.304,2.015-2.355,3.258-3.281c3.733-2.78,8.365-4.58,13.003-4.179
			c1.834,0.159,3.628,0.654,5.463,0.809c3.978,0.336,7.889-0.931,11.824-1.592c3.936-0.662,8.361-0.593,11.431,1.957"/>
	</g>
	<g>
		<path fill="#B27850" d="M81.579,259.106c-2.867-0.684-4.503-3.863-5.6-6.599c-1.095-2.737-1.474-5.703-1.69-8.643
			c-0.321-4.373-0.271-8.926,1.517-12.93c2.069-4.635,6.315-8.058,11.021-9.963c4.703-1.904,9.855-2.429,14.931-2.475
			c2.112-0.018,4.262,0.049,6.274,0.693c4.49,1.439,7.675,5.617,9.146,10.098c1.47,4.479,1.493,9.288,1.487,14.004
			c-0.004,2.801-0.062,5.78-1.595,8.125C117.069,251.418,99.143,263.294,81.579,259.106"/>
	</g>
	<g>
		<path fill="#F2EFC2" d="M84.312,215.782c0,0-4.476,0.586-3.763,9.783c0.714,9.196,4.312,10.183,7.501,9.759
			c3.188-0.424,5.888-3.54,4.971-9.731C92.104,219.402,88.884,214.812,84.312,215.782"/>
	</g>
	<g>
		<path fill="#F2EFC2" d="M106.479,214.535c0,0-4.325-0.521-4.865,7.775c-0.539,8.295-0.399,11.336,4.865,10.854
			s7.964-3.245,6.614-10.176C111.744,216.059,111.05,214.396,106.479,214.535"/>
	</g>
	<g>
		<path fill="#DDD6AB" d="M83.454,215.861c-1.181,0.576-1.914,1.795-2.379,3.023c-0.739,1.948-0.969,4.086-0.661,6.147
			c2.545-2.942,6.216-4.886,10.081-5.337c0.159-0.019,0.344-0.051,0.42-0.192c0.099-0.181-0.051-0.393-0.191-0.544
			c-0.965-1.038-1.951-2.095-3.193-2.777C86.288,215.498,84.727,215.238,83.454,215.861"/>
	</g>
	<g>
		<path fill="#DDD6AB" d="M113.146,222.021c0.133-1.492-0.909-2.792-1.728-4.047c-0.617-0.946-1.153-1.979-2.027-2.696
			c-1.149-0.945-2.828-1.193-4.202-0.622c-1.374,0.57-2.382,1.936-2.524,3.416c3.658,0.052,7.276,1.535,9.92,4.063
			c0.125,0.121,0.315,0.25,0.455,0.146C113.118,222.223,113.139,222.117,113.146,222.021"/>
	</g>
	<g>
		<path fill="#565C56" d="M59.513,240.134c0,0-2.569,4.593,0.863,7.818c3.433,3.227,7.065,1.416,7.065,1.416s-3.2-6.28-3.053-8.522
			L59.513,240.134z"/>
	</g>
	<g>
		<path fill="#565C56" d="M56.286,232.203c0,0,3.441-4.932,6.417-2.381c2.976,2.55,3.39,4.265,3.39,4.265l4.782-5.928
			c0,0-2.621-11.901-1.705-15.951c0.916-4.049,3.782-9.764,17.667-9.866c9.353,1.248,17.97-1.118,20.625-1.851
			c2.653-0.732,8.498,1.228,8.498,1.228l2.103,24.175l3.685-0.854c0,0,2.608-3.955,0.616-8.283
			c-1.994-4.326-0.735-6.384-0.296-8.337c0.439-1.952,2.542-10.129-3.649-14.441c0,0,3.181-11.361-6.025-13.812
			c-9.204-2.449-12.731-5.459-14.814-5.456c-2.084,0.003-8.806-0.173-17.028,5.729c0,0-3.964-7.6-14.458,0.138
			c-5.505,3.184-4.791,10.619-4.791,10.619s-6.56,1.473-8.728,7.4c-2.169,5.929,0.691,11.119,0.691,11.119s-2.345,4.824-1.63,8.38
			c0.716,3.556,2.057,6.836,2.057,6.836S52.088,228.501,56.286,232.203"/>
	</g>
	<g>
		<path fill="#76714E" d="M74.823,267.413c0,0-6.899,2.366-10.758,8.271c-3.859,5.905-3.422,22.529-3.422,22.529
			s1.305,2.271,8.816,1.481l3.146-0.261l0.171,33.927c0,0,19.401,4.219,34.034-5.49c0,0,2.265-29.796-0.071-37.831
			c0,0,5.788-0.537,5.47-5.68c-0.317-5.143-0.07-19.461-12.389-20.122c0,0-4.502,6.504-12.498,6.663
			C79.325,271.06,74.823,267.413,74.823,267.413"/>
	</g>
	<g>
		<path fill="#8E5C3A" d="M77.795,259.145c0,0,1.091,4.134-0.24,5.69c-1.332,1.558-2.731,2.578-2.731,2.578
			s7.442,4.299,13.592,3.487c6.148-0.811,11.402-5.826,11.402-5.826l-3.447-1.663l-0.166-3.432c0,0-12.725,0.135-17.712-0.835"/>
		<path fill="#A06944" d="M87.499,270.437c-1.168-1.153-1.627-3.657-1.767-5.195c-0.154-1.694,1.093-1.468,2.696-1.688
			c1.741-0.239,3.465-0.387,5.18-0.727c0.876-0.175,1.562-0.247,2.414,0.103c0.858,0.354,1.366,0.454,2.283,0.649
			c2.996,0.64-1.148,2.396-1.972,3.007c-2.714,2.009-4.779,3.306-8.211,3.54"/>
	</g>
	<g>
		<path fill="#A66132" d="M72.604,299.184l0.171,39.213c0,0-0.553,7.305-5.384,5.212c0,0-2.459,2.641-5.607-0.435
			c-3.148-3.073-6.366-5.891-0.231-12.265l0.228-31.225L72.604,299.184z"/>
	</g>
	<g>
		<path fill="#EAEAEA" d="M76.542,334.514c-0.226,6.715-0.452,13.431-0.676,20.146c-0.038,1.121-0.019,2.389,0.797,3.158
			c0.54,0.511,1.312,0.675,2.042,0.817c2.749,0.54,6.187,0.819,7.763-1.497c0.606-0.892,0.782-2.007,0.818-3.084
			c0.061-1.812-0.223-3.624-0.098-5.433c0.126-1.809,0.753-3.708,2.22-4.771c1.467-1.066,3.889-0.869,4.741,0.73
			c0.368,0.689,0.4,1.503,0.423,2.283c0.062,1.993,0.123,3.986,0.185,5.979c0.031,1.018,0.114,2.151,0.867,2.836
			c0.593,0.538,1.448,0.647,2.246,0.731c2.519,0.267,5.473,0.371,7.121-1.552c0.902-1.052,1.182-2.489,1.385-3.861
			c1.083-7.308,0.913-14.799-0.501-22.05c-0.31,0.041-0.619,0.082-0.927,0.121C104.945,329.067,93.358,335.959,76.542,334.514"/>
	</g>
	<g>
		<path fill="#AFAFAF" d="M93.025,347.963c-0.678,0.129-1.36,0.259-2.05,0.306c-0.673,0.047-1.349,0.017-2.022-0.014
			c-0.637-0.029-1.275-0.059-1.912-0.087c0.408,0.963,1.068,1.819,1.896,2.458c0.321,0.247,0.676,0.468,1.075,0.545
			c0.524,0.103,1.062-0.052,1.569-0.227c0.73-0.251,1.466-0.559,2.015-1.102c0.55-0.543,0.876-1.372,0.636-2.106
			C93.83,347.812,93.427,347.888,93.025,347.963"/>
	</g>
	<g>
		<path fill="#BABABA" d="M106.137,331.029c-0.021-0.841-0.128-1.679-0.316-2.498c-1.952,1.483-4.159,2.632-6.495,3.378
			c-1.978,0.632-4.036,0.975-6.084,1.315c-6.65,1.104-13.542,2.2-20.055,0.465c0.337,4.393-1.116,8.896-3.958,12.264
			c1.979,0.36,3.991-0.882,5.059-2.585c1.068-1.704,1.354-3.779,1.419-5.789c5.146,0.503,10.356,0.672,15.474-0.068
			c5.118-0.742,10.159-2.422,14.401-5.38c0.173-0.12,0.351-0.25,0.45-0.436C106.14,331.495,106.143,331.256,106.137,331.029"/>
	</g>
	<g>
		<path fill="#434943" d="M101.354,207.329l0.447,6.889c0,0,8.708-0.934,12.562,2.633c0,0,0.738-13.362-13.324-9.521"/>
	</g>
	<g>
		<path fill="#434943" d="M87.305,207.218c0,0-6.318,0.528-9.852,3.438c0,0,0.341-11.137,9.384-9.828
			C86.838,200.827,89.053,203.573,87.305,207.218"/>
	</g>
	<g>
		<path fill="#434943" d="M59.625,240.638c-0.366,0.491-0.723,1.059-0.662,1.669c0.027,0.267,0.134,0.521,0.283,0.744
			c0.383,0.572,1.022,0.932,1.687,1.112c0.664,0.179,1.36,0.197,2.048,0.214c0.683,0.018,1.364,0.034,2.046,0.052
			c0.24-1.203,0.167-2.466-0.21-3.633c-1.499,0.363-3.108,0.256-4.546-0.303c-0.139-0.053-0.294-0.111-0.432-0.054
			C59.748,240.478,59.684,240.559,59.625,240.638"/>
	</g>
	<g>
		<path fill="#434943" d="M60.707,226.017c-0.98,0.475-1.956,1.014-2.697,1.812c-0.74,0.798-1.222,1.903-1.045,2.978
			c0.22,0.033,0.408-0.14,0.58-0.28c1.239-1.015,3.059-0.761,4.58-1.26c0.101-0.032,0.206-0.073,0.272-0.156
			c0.127-0.161,0.055-0.394-0.022-0.583c-0.298-0.729-0.596-1.459-0.893-2.188c-0.069-0.17-0.157-0.357-0.332-0.412
			C61.002,225.882,60.847,225.95,60.707,226.017"/>
	</g>
	<g>
		<path fill="none" stroke="#373A37" stroke-width="0.7" stroke-miterlimit="10" d="M118.031,223.276
			c1.251,0.259,2.67-0.27,3.771,0.381c0.07,0.041,0.14,0.091,0.17,0.166c0.037,0.092,0.005,0.194-0.028,0.287
			c-0.11,0.326-0.223,0.65-0.335,0.976c-0.028,0.08-0.058,0.163-0.123,0.217c-0.074,0.06-0.177,0.067-0.273,0.072
			c-0.903,0.046-1.807,0.091-2.709,0.138c-0.05,0.002-0.103,0.004-0.148-0.016c-0.099-0.045-0.125-0.171-0.138-0.277
			c-0.062-0.521-0.084-1.049-0.07-1.575"/>
	</g>
	<g>
		<path fill="#724830" d="M77.831,259.076c0.021,0.82,0.04,1.642,0.06,2.463c5.322,3.605,12.47,4.344,18.416,1.9
			c0.253-1.173,0.227-2.405-0.08-3.565c-0.034-0.131-0.077-0.267-0.176-0.359c-0.167-0.154-0.427-0.126-0.652-0.09
			C89.565,260.375,83.483,260.796,77.831,259.076"/>
	</g>
	<g>
		<path fill="#747A74" d="M102.649,189.684c-0.427-0.209-0.857-0.449-1.313-0.472c-0.543-0.026-1.062,0.255-1.567,0.511
			c-4.782,2.419-10.174,2.838-15.151,1.176c-3.03,3.98-7.134,6.612-11.451,7.341c-1.803,0.306-3.997,0.039-4.883-1.984
			c-0.97-2.218,0.315-4.955,1.794-6.658c3.617-4.17,8.785-6.056,13.589-4.96c1.832-3.652,4.911-6.25,8.266-6.973
			c3.356-0.722,6.935,0.442,9.607,3.126c0.24,0.241,0.482,0.5,0.773,0.622c0.336,0.142,0.7,0.086,1.051,0.032
			c1.754-0.267,3.543-0.454,5.277-0.026c1.736,0.426,3.431,1.539,4.416,3.406c0.589,1.117,0.88,2.66,0.306,3.789
			c-0.415,0.814-1.174,1.219-1.903,1.498C108.592,191.208,105.441,191.055,102.649,189.684"/>
	</g>
	<g>
		<path fill="#858C85" d="M101.226,188.904c0.393-0.059,0.788,0.061,1.172,0.181c2.839,0.895,5.818,1.94,8.639,0.957
			c-3.107,1.129-6.44,1.229-9.586,0.291c-0.159-0.046-0.319-0.098-0.482-0.084s-0.319,0.091-0.47,0.165
			c-4.972,2.406-10.521,2.84-15.687,1.225c-0.619,1.368-1.791,2.143-2.901,2.846c-1.544,0.978-3.105,1.964-4.783,2.476
			c2.633-1.363,5.057-3.372,7.104-5.882c0.159-0.195,0.331-0.404,0.549-0.453c0.15-0.034,0.304,0.014,0.453,0.059
			c4.982,1.511,10.33,1.007,15.083-1.422C100.612,189.111,100.909,188.951,101.226,188.904"/>
	</g>
	<g>
		<path fill="#635653" d="M111.514,375.013c0,0,0.932,3.214-2.328,3.575c-3.261,0.36-6.516,1.362-9.911-0.956
			c-3.394-2.319-6.825-2.501-7.916-6.186c-1.089-3.685-1.833-4.483-1.833-4.483s0.17-1.418,1.492,0.326
			c1.323,1.744,7.338,7.815,9.562,8.438C102.808,376.351,109.689,375.869,111.514,375.013"/>
	</g>
	<g>
		<path fill="#83B1B1" d="M90.679,366.737c0,0,1.953-0.184,4.305-0.617c2.351-0.437,1.3-2.786,5.95-3.193
			c4.65-0.407,5.476,2.757,5.476,2.757s0.069,0.831,1.731,1.593c1.662,0.762,2.571,1.977,3.156,3.933
			c0.584,1.955,0.584,4.311-2.394,4.796c-2.979,0.484-4.83,0.66-7.763-0.527C98.206,374.29,92.127,370.562,90.679,366.737"/>
	</g>
	<g>
		<path fill="#635653" d="M90.732,375.844c0,0,0.932,3.214-2.328,3.575c-3.261,0.36-6.516,1.362-9.911-0.956
			c-3.394-2.319-6.825-2.501-7.916-6.185c-1.089-3.685-1.833-4.484-1.833-4.484s0.17-1.418,1.492,0.326
			c1.323,1.744,7.338,7.815,9.562,8.439C82.026,377.182,88.908,376.7,90.732,375.844"/>
	</g>
	<g>
		<path fill="#83B1B1" d="M69.898,367.569c0,0,1.953-0.185,4.305-0.618c2.351-0.436,1.3-2.786,5.95-3.193
			c4.65-0.407,5.476,2.757,5.476,2.757s0.069,0.831,1.731,1.593s2.572,1.977,3.156,3.933s0.584,4.311-2.394,4.796
			c-2.979,0.484-4.83,0.66-7.763-0.526C77.425,375.121,71.346,371.394,69.898,367.569"/>
	</g>
	<g>
		<path fill="#759B9A" d="M70.079,366.886c-0.17,1.266,0.63,2.595,1.827,3.037c0.526,0.194,1.098,0.229,1.659,0.234
			c0.619,0.005,1.237-0.021,1.852-0.082c0.161-0.293-0.073-0.638-0.293-0.887c-0.422-0.48-0.846-0.961-1.268-1.441
			c-0.101-0.114-0.204-0.23-0.337-0.303c-0.203-0.11-0.448-0.102-0.681-0.102C71.901,367.348,70.964,367.192,70.079,366.886"/>
	</g>
	<g>
		<path fill="#759B9A" d="M93.725,369.801c0.624-0.026,1.244-0.123,1.846-0.288c0.151-0.043,0.313-0.099,0.391-0.232
			c0.12-0.203-0.018-0.456-0.151-0.648c-0.463-0.677-0.925-1.353-1.39-2.028c-0.093-0.136-0.188-0.273-0.323-0.366
			c-0.191-0.131-0.435-0.153-0.666-0.17c-0.729-0.057-1.457-0.114-2.184-0.17c-0.089-0.007-0.185-0.012-0.255,0.043
			c-0.081,0.062-0.093,0.178-0.093,0.278c-0.002,0.864,0.41,1.671,0.811,2.438c0.159,0.303,0.326,0.615,0.595,0.826
			C92.697,369.786,93.229,369.822,93.725,369.801"/>
	</g>
	<g>
		<path fill="#759B9A" d="M98.875,370.367c2.463-2.232,5.88-3.375,9.19-3.072c-1.525-1.286-3.723-1.585-5.657-1.094
			c-1.932,0.491-3.623,1.688-5.031,3.1c-0.141,0.142-0.29,0.337-0.21,0.52c0.04,0.093,0.13,0.152,0.215,0.205
			c0.218,0.137,0.436,0.273,0.653,0.41c0.141,0.088,0.298,0.181,0.463,0.159C98.644,370.575,98.764,370.468,98.875,370.367"/>
	</g>
	<g>
		<path fill="#759B9A" d="M84.013,366.895c-2.715,0.323-5.343,1.359-7.549,2.976c-0.167,0.123-0.344,0.266-0.397,0.467
			c-0.093,0.359,0.25,0.686,0.593,0.82c0.344,0.135,0.737,0.181,1.017,0.424c2.874-1.984,6.34-3.1,9.832-3.165
			c-0.294-0.676-0.886-1.211-1.586-1.438C85.31,366.783,84.65,366.818,84.013,366.895"/>
	</g>
	<path fill="#8C8662" d="M109.627,269.297c-1.022-1.926-2.393-2.881-4.218-3.955c-0.917-0.54-1.763-1.138-2.81-1.354
		c-1.107-0.231-1.881,0.227-3.023,0.167c-0.317,2.451-3.596,3.402-5.397,4.166c-1.087,0.462-2.126,1.162-3.225,1.631
		c-1.398,0.597-6.157,0.797-6.988,1.005c-0.069,1.987,1.504,5.082,2.906,7.502c1.383,3.477,3.18,6.781,6.584,8.673
		c3.979,2.211,9.059,3.204,13.441,1.658c1.02-0.36,2.487-0.703,3.434-1.489c0.346,0.067,0.662,0.084,0.865-0.024
		c1.291-0.685,1.19-4.184,1.24-5.409C112.6,277.858,111.466,272.762,109.627,269.297z"/>
</g>
<g>
	<g>
		<path fill="#373A37" d="M56.656,231.832c-2.005-1.58-2.999-4.27-2.372-6.736c0.167-0.659-0.784-1.103-1.122-0.474
			c-1.438,2.681,0.591,6.495,2.858,8.035C56.507,232.988,57.127,232.202,56.656,231.832"/>
	</g>
	<g>
		<path fill="#332B18" d="M58.738,240.465c-1.526,2.531-1.333,5.296,0.658,7.484c1.772,1.947,4.838,3.966,7.465,2.539
			c0.643-0.35,0.205-1.465-0.508-1.206c-2.177,0.794-4.297-0.548-5.778-2.111c-1.742-1.838-1.911-3.875-0.858-6.136
			C60.017,240.385,59.119,239.83,58.738,240.465"/>
	</g>
	<g>
		<path fill="#725038" d="M64.064,240.229c-2.577,0.242-5.143-0.54-6.764-2.661c-1.29-1.692-1.27-3.712,0.228-5.287
			c1.271-1.338,3.289-3.025,5.119-1.69c0.63,0.461,1.461-0.603,0.841-1.088c-3.364-2.632-9.062,1.936-8.75,5.738
			c0.359,4.377,5.495,7.188,9.452,5.917C64.672,241.003,64.622,240.177,64.064,240.229"/>
	</g>
	<g>
		<path fill="#878787" d="M69.198,344.349c-0.757,3.35-0.603,6.674-0.459,10.082c0.158,3.765-0.948,7.323-0.893,11.063
			c0.012,0.833,1.289,0.835,1.295,0c0.029-3.511,1.098-6.829,0.936-10.35c-0.166-3.605-0.262-7.062,0.099-10.663
			C70.232,343.922,69.32,343.806,69.198,344.349"/>
	</g>
	<g>
		<path fill="#878787" d="M105.603,328.696c-0.284,6.109,1.36,12.073,1.015,18.131c-0.167,2.918-0.846,5.878-0.867,8.793
			c-0.018,2.604,0.827,5.116,1.05,7.702c0.07,0.795,1.274,0.823,1.26,0c-0.054-2.997-1.092-5.73-0.826-8.783
			c0.222-2.566,0.544-5.135,0.695-7.711c0.354-6.056-1.346-12.06-1.381-18.132C106.545,328.085,105.632,328.09,105.603,328.696"/>
	</g>
	<g>
		<path fill="#443F12" d="M106.511,327.36c-10.102,5.941-21.327,8.167-32.817,5.361c-0.898-0.22-1.281,1.17-0.382,1.385
			c11.464,2.753,23.99,1.024,33.795-5.726C107.726,327.955,107.176,326.97,106.511,327.36"/>
	</g>
	<g>
		<path fill="#624321" d="M72.118,299.434c-0.158,7.191-0.102,14.382-0.076,21.573c0.012,3.463,0.024,6.925,0.04,10.388
			c0.017,4.028,0.923,9.297-2.513,12.155c-0.531,0.441,0.174,1.365,0.744,0.963c5.069-3.571,3.112-12.637,3.084-17.913
			c-0.05-9.056-0.024-18.114-0.307-27.167C73.072,298.809,72.132,298.806,72.118,299.434"/>
	</g>
	<g>
		<path fill="#583A17" d="M77.269,259.145c-0.043,1.36-0.02,2.732-0.124,4.091c-0.058,0.747-0.067,1.56-0.62,2.156
			c-0.435,0.469-1.107,0.693-1.664,0.972c-0.608,0.304-0.184,1.331,0.467,1.105c1.247-0.433,2.38-1.103,2.815-2.418
			c0.59-1.78,0.299-4.072,0.177-5.906C78.275,258.475,77.292,258.463,77.269,259.145"/>
	</g>
	<g>
		<path fill="#583A17" d="M95.735,259.979c0.101,1.128,0.176,2.305,0.041,3.432c-0.029,0.241,0.205,0.529,0.437,0.576
			c1.039,0.205,2.142,0.546,3.202,0.568c0.675,0.015,0.731-0.908,0.153-1.121c-0.944-0.345-2.047-0.421-3.038-0.598
			c0.147,0.192,0.292,0.383,0.438,0.574c-0.078-1.196-0.118-2.369-0.308-3.557C96.576,259.335,95.688,259.451,95.735,259.979"/>
	</g>
	<g>
		<path fill="#373A37" d="M116.423,192.899c2.299,2.011,4.223,4.477,5.061,7.466c0.446,1.588,0.618,3.313,0.503,4.959
			c-0.192,2.762-1.328,3.421-1.878,5.98c-0.403,1.868-0.3,0.519,0.093,2.354c0.316,1.47,1.482,2.836,1.779,4.445
			c0.453,2.461,0.071,4.656-0.96,6.956c-0.338,0.754,0.769,1.418,1.123,0.656c1.17-2.52,1.689-5.105,1.177-7.884
			c-0.307-1.67-1.741-3.312-1.987-4.835c-0.24-1.479,1.339-4.144,1.636-5.524c1.282-5.958-1.109-11.771-5.954-15.34
			C116.571,191.804,116.007,192.536,116.423,192.899"/>
	</g>
	<g>
		<path fill="#725038" d="M118.191,226.364c1.115-0.337,2.361-0.629,3.489-0.177c1.319,0.525,1.932,1.997,1.982,3.352
			c0.103,2.791-2.167,4.518-4.735,3.477c-0.701-0.284-1.022,0.768-0.482,1.146c3.182,2.24,6.675-1.438,6.517-4.623
			c-0.2-4.035-3.667-5.591-7.146-4.068C117.305,225.694,117.668,226.522,118.191,226.364"/>
	</g>
	<g>
		<path fill="#725038" d="M117.574,225.894c0.149,8.214,1.487,17.474-1.44,25.319c-0.292,0.782,1.009,1.158,1.262,0.349
			c2.566-8.21,1.566-17.2,1.138-25.668C118.503,225.281,117.563,225.272,117.574,225.894"/>
	</g>
	<g>
		<path fill="#373A37" d="M115.481,201.72c1.053,7.899,1.913,15.871,2.05,23.846c0.014,0.847,1.365,0.836,1.31,0
			c-0.534-8.032-1.077-16.026-2.418-23.974C116.333,201.064,115.409,201.183,115.481,201.72"/>
	</g>
	<g>
		<path fill="#725038" d="M116.334,251.148c-13.984,8.212-37.447,14.63-48.375-1.576c-0.43-0.638-1.469-0.037-1.037,0.604
			c11.278,16.725,35.504,10.722,49.911,1.827C117.373,251.669,116.886,250.825,116.334,251.148"/>
	</g>
	<g>
		<path fill="#725038" d="M67.732,249.748c-0.576-1.524-1.419-2.935-1.924-4.488c-0.52-1.6-0.588-3.236-0.545-4.906
			c0.02-0.724-1.096-0.721-1.122,0c-0.132,3.561,0.862,6.726,2.718,9.761C67.13,250.557,67.929,250.272,67.732,249.748"/>
	</g>
	<g>
		<path fill="#373A37" d="M87.707,202.759c2.536,0.256,4.99,0.717,7.505,1.053c1.839,0.245,3.249-0.691,4.906-1.351
			c0.894-0.356,0.504-1.821-0.402-1.461c-0.952,0.379-2.035,1.076-3.005,1.295c-1.111,0.251-2.505-0.189-3.605-0.349
			c-1.767-0.258-3.623-0.402-5.399-0.242C87.026,201.766,87.031,202.691,87.707,202.759"/>
	</g>
	<g>
		<path fill="#373A37" d="M60.668,225.798c0.992,3.539,2.793,6.439,5.389,9.03c0.258,0.256,0.788,0.238,0.956-0.124
			c0.901-1.919,2.438-3.115,3.549-4.806c0.147-0.227,0.76-0.671,0.883-1.078c0.564-1.868-0.656-4.379-0.948-6.184
			c-0.575-3.551-1.646-9.273-0.425-12.748c1.289-3.673,6.896-5.028,10.243-5.949c0.938-0.258,0.541-1.719-0.402-1.459
			c-3.181,0.875-7.464,2.086-9.828,4.556c-2.394,2.498-1.871,6.585-1.687,9.752c0.198,3.398,2.635,9.907,0.749,12.571
			c-0.327,0.461-2.649,3.624-2.917,3.645c-1.698,0.13-4.206-6.515-4.545-7.486C61.465,224.884,60.483,225.136,60.668,225.798"/>
	</g>
	<g>
		<path fill="#373A37" d="M55.658,225.661c-4.857-4.296-4.43-13.222-0.155-17.701c0.588-0.615-0.34-1.549-0.935-0.936
			c-4.745,4.896-5.37,14.899,0.37,19.356C55.442,226.771,56.16,226.105,55.658,225.661"/>
	</g>
	<g>
		<path fill="#373A37" d="M53.296,208.74c-2.401-7.358,0.386-14.692,8.174-16.938c0.247-0.072,0.484-0.332,0.46-0.606
			c-0.67-8.054,11.041-18.835,18.127-11.151c0.609,0.659,1.591-0.326,0.984-0.983c-6.564-7.108-17.276,0.077-19.885,7.485
			c-0.316,0.901-0.227,2.562-0.622,3.35c-0.707,1.412-0.851,0.843-1.903,1.569c-1.896,1.311-3.606,2.195-5.039,4.094
			c-2.974,3.938-3.312,9.179-1.109,13.523C52.711,209.528,53.452,209.218,53.296,208.74"/>
	</g>
	<g>
		<path fill="#373A37" d="M79.87,181.807c3.103-3.002,6.781-5.129,11.034-6c2.506-0.514,5.15-0.61,7.681-0.174
			c2.91,0.501,4.033,1.527,6.373,3.398c2.142,1.71,3.803,1.098,6.539,1.646c6.212,1.246,6.869,6.744,6.416,12.133
			c-0.077,0.913,1.344,0.906,1.422,0c0.357-4.104,0.499-8.972-3.16-11.725c-1.578-1.186-3.542-1.654-5.465-1.883
			c-2.574-0.303-2.67,0.043-5.316-1.844c-0.362-0.258-0.603-0.728-0.995-0.979c-7.884-5.084-19.229-1.674-25.207,4.748
			C78.771,181.58,79.424,182.238,79.87,181.807"/>
	</g>
	<g>
		<path fill="#725038" d="M101.716,227.602c0.416-2.1,0.332-4.176,0.516-6.3c0.121-1.389,0.359-3.297,1.241-4.497
			c3.34-4.544,7.284-0.552,8.351,2.685c0.76,2.308,1.204,5.758,0.715,8.189c-0.99,4.925-11.112,7.562-10.783,0.636
			c0.036-0.748-1.094-0.732-1.154,0c-0.513,6.283,4.236,6.166,9.194,4.814c5.091-1.386,4.389-7.659,3.684-11.85
			c-0.641-3.811-3.552-9.086-8.283-7.325c-5.253,1.954-3.79,9.176-4.476,13.373C100.615,227.972,101.586,228.26,101.716,227.602"/>
	</g>
	<g>
		<path fill="#725038" d="M93.546,227.919c0.281-4.887-1.342-10.806-6.424-12.817c-4.618-1.826-7.444,3.851-7.583,7.653
			c-0.154,4.221,0.573,12.371,5.83,13.123c5.127,0.733,8.543-2.759,8.302-7.65c-0.032-0.64-0.996-0.647-1,0
			c-0.019,2.947-0.962,5.289-4.091,6.234c-2.605,0.788-5.444-0.407-6.377-3.002c-1.099-3.057-1.838-6.702-1.349-9.911
			c0.768-5.046,5.295-6.91,8.748-3.153c2.452,2.666,3.184,5.991,3.095,9.523C92.683,228.47,93.515,228.463,93.546,227.919"/>
	</g>
	<g>
		<path fill="#44311D" d="M110.137,226.693c-0.234,0.304-0.111,0.8,0.221,0.992c0.333,0.192,0.794,0.077,1.031-0.224
			c0.239-0.302,0.254-0.746,0.077-1.085c-0.132-0.254-0.383-0.46-0.667-0.474c-0.286-0.012-0.58,0.219-0.576,0.504"/>
	</g>
	<g>
		<path fill="#44311D" d="M109.898,226.293c-0.487,0.591-0.396,1.492,0.289,1.911c0.739,0.449,1.69,0.029,2.01-0.725
			c0.309-0.729,0.026-1.63-0.669-2.025c-0.756-0.43-1.721,0.056-1.756,0.936c-0.027,0.657,1.037,0.822,1.166,0.158
			c0.016-0.087,0.018-0.114,0.109,0.03c0.075,0.117,0.128,0.307,0.048,0.436c-0.092,0.145-0.456,0.166-0.347-0.065
			C110.987,226.438,110.317,225.783,109.898,226.293"/>
	</g>
	<g>
		<path fill="#44311D" d="M90.835,228.881c0.045,0.4,0.562,0.665,0.914,0.466c0.343-0.194,0.417-0.649,0.439-1.042
			c0.02-0.362-0.043-0.827-0.392-0.926c-0.19-0.053-0.393,0.036-0.551,0.154c-0.312,0.237-0.52,0.608-0.558,0.999"/>
	</g>
	<g>
		<path fill="#44311D" d="M90.238,228.991c0.087,0.758,0.789,1.34,1.571,1.11c0.771-0.227,1.01-1.126,0.996-1.839
			c-0.015-0.757-0.475-1.552-1.34-1.402c-0.812,0.14-1.411,0.984-1.39,1.783c0.017,0.68,0.97,0.805,1.174,0.158
			c0.042-0.133,0.088-0.268,0.159-0.389c0.047-0.084,0.149-0.157,0.188-0.236c0.03-0.011,0.052-0.029,0.063-0.055
			c0.035-0.055-0.015-0.082-0.147-0.083c0.005-0.004,0.031,0.189,0.032,0.224c0.01,0.151,0.013,0.439-0.075,0.578
			c-0.048,0.078-0.058,0.092-0.089-0.004C91.192,228.246,90.158,228.308,90.238,228.991"/>
	</g>
	<g>
		<path fill="#443F12" d="M74.625,267.753c8.144,5.85,18.982,4.213,25.537-3.17c0.416-0.467-0.269-1.157-0.688-0.688
			c-6.541,7.307-16.212,8.231-24.452,3.18C74.583,266.805,74.221,267.463,74.625,267.753"/>
	</g>
	<g>
		<path fill="#443F12" d="M74.528,266.625c-14.283,4.174-15.247,20.365-14.485,32.747c0.018,0.294,0.193,0.559,0.487,0.64
			c2.885,0.796,5.634,0.85,8.6,0.396c1.646-0.25,5.271-0.383,6.436-1.77c1.411-1.679,0.557-6.769,0.494-8.783
			c-0.089-2.921-0.299-5.601-1.614-8.239c-0.372-0.746-1.458-0.093-1.11,0.649c1.349,2.887,1.435,5.992,1.482,9.121
			c0.02,1.268,0.071,2.563-0.041,3.826c-0.177,2-0.059,2.264-1.826,3.061c-2.171,0.979-5.14,1.16-7.478,1.152
			c-4.595-0.018-4.254-1.941-4.33-5.76c-0.215-10.828,2.595-21.82,13.666-26.022C75.429,267.407,75.192,266.431,74.528,266.625"/>
	</g>
	<g>
		<path fill="#443F12" d="M99.511,264.415c2.174,0.43,4.605,0.748,6.465,2.038c2.674,1.854,3.664,5.298,4.417,8.294
			c0.662,2.633,0.991,5.341,1.092,8.053c0.137,3.659-0.053,5.32-4.023,5.75c-0.911,0.1-0.918,1.539,0,1.438
			c1.822-0.203,4.53,0.229,5.301-1.697c0.603-1.507,0.145-4.643,0.055-6.249c-0.117-2.069-0.372-4.15-0.798-6.179
			c-1.519-7.227-4.594-11.972-12.391-12.322C99.135,263.517,99.014,264.317,99.511,264.415"/>
	</g>
	<g>
		<path fill="#443F12" d="M103.987,276.75c3.615,16.896,4.463,33.99,2.196,51.129c-0.117,0.886,1.281,0.88,1.396,0
			c2.25-17.139,1.469-34.59-2.633-51.394C104.794,275.86,103.853,276.127,103.987,276.75"/>
	</g>
	<g>
		<path fill="#624321" d="M61.352,300.568c-0.903,10.026-0.476,20.413-0.45,30.48c0.002,0.837,1.285,0.837,1.3,0
			c0.18-10.063,0.765-20.442,0.013-30.48C62.174,300.011,61.402,300.016,61.352,300.568"/>
	</g>
	<g>
		<path fill="#624321" d="M68.157,340.876c-0.943,1.912-2.206,4.443-5.138,2.915c-0.968-0.504-1.979-2.076-2.724-2.88
			c-1.497-1.612-2.685-3.504-1.356-5.783c0.663-1.137,1.771-2.087,2.714-2.989c0.502-0.482-0.183-1.431-0.764-0.989
			c-1.707,1.293-3.533,3.129-4.11,5.26c-0.654,2.413,1.006,3.837,2.547,5.471c1.318,1.395,3.153,4.317,5.411,4.09
			c2.162-0.219,3.596-2.828,4.359-4.546C69.376,340.799,68.473,340.24,68.157,340.876"/>
	</g>
	<g>
		<path fill="#624321" d="M67.005,343.897c0.739,1.027,2.24,1.369,3.32,0.654c0.581-0.383,0.075-1.258-0.545-0.933
			c-0.7,0.364-1.485,0.266-2.072-0.266C67.352,343.032,66.693,343.463,67.005,343.897"/>
	</g>
	<g>
		<path fill="#878787" d="M89.419,366.739c1.477-1.967,0.889-5.387,0.826-7.677c-0.099-3.634-0.391-7.293-1.046-10.87
			c-0.124-0.685-1.306-0.538-1.228,0.166c0.324,2.897,0.719,5.777,0.907,8.689c0.157,2.411,1.048,7.103-0.225,9.245
			C88.354,366.796,89.085,367.184,89.419,366.739"/>
	</g>
	<g>
		<path fill="#878787" d="M86.927,348.293c1.831,0.042,3.443,0.599,5.307,0.369c1.552-0.19,3.046-0.705,4.372-1.535
			c0.696-0.435,0.084-1.479-0.643-1.1c-1.577,0.827-3.168,1.448-4.963,1.541c-1.367,0.071-2.713-0.265-4.073-0.1
			C86.414,347.532,86.382,348.279,86.927,348.293"/>
	</g>
	<g>
		<path fill="#373A37" d="M100.862,207.913c-0.014,2.117-0.438,4.801,0.182,6.834c0.092,0.3,0.336,0.454,0.636,0.482
			c1.929,0.182,3.835-0.526,5.827-0.229c2.383,0.356,4.494,1.361,6.358,2.879c0.355,0.29,1.065,0.262,1.156-0.305
			c0.577-3.621-0.7-7.237-3.831-9.311c-2.434-1.611-7.456-3.09-10.182-1.529c-0.772,0.442-0.087,1.604,0.695,1.189
			c2.073-1.1,6.256,0.082,8.129,1.153c2.929,1.677,4.38,4.798,3.855,8.129c0.385-0.101,0.77-0.202,1.155-0.303
			c-2.237-1.815-4.77-3.004-7.657-3.31c-0.964-0.101-3.913,0.501-4.621-0.064c-0.898-0.718-0.474-4.442-0.521-5.616
			C102.013,207.155,100.866,207.148,100.862,207.913"/>
	</g>
	<g>
		<path fill="#332B18" d="M87.769,206.828c-3.743-0.929-8.086,1.971-10.975,4.042c0.319,0.184,0.64,0.366,0.958,0.55
			c0.244-3.107,1.208-6.264,3.712-8.3c1.013-0.823,2.495-1.745,3.854-1.685c2.438,0.106,1.918,3.572,1.68,5.271
			c-0.123,0.872,1.174,1.283,1.359,0.375c0.344-1.681,0.765-5.131-0.583-6.564c-1.067-1.134-3.514-0.426-4.722,0.068
			c-4.401,1.802-6.246,6.382-6.573,10.834c-0.033,0.457,0.577,0.829,0.958,0.551c2.758-2.012,6.644-4.66,10.202-4.191
			C88.186,207.852,88.289,206.958,87.769,206.828"/>
	</g>
	<g>
		<path fill="#443A38" d="M90.634,374.739c0.022,6.703-9.886,4.173-13.232,2.489c-2.822-1.418-8.517-5.604-7.751-9.396
			c0.157-0.77-0.928-1.075-1.178-0.325c-1.732,5.186,6.845,10.577,10.712,11.916c3.092,1.071,6.838,1.523,9.996,0.451
			c2.773-0.943,2.83-2.376,2.543-5.136C91.653,374.056,90.63,374.021,90.634,374.739"/>
	</g>
	<g>
		<path fill="#587572" d="M89.663,370.364c2.937,6.83-5.297,6.784-9.52,5.233c-1.64-0.604-10.566-6.079-9.449-8.293
			c0.288-0.571-0.534-1.063-0.864-0.504c-1.047,1.772,1.768,3.954,2.856,5.015c2.719,2.652,5.661,4.893,9.493,5.583
			c2.145,0.386,7.03,0.639,8.842-1.062c1.675-1.574,0.392-4.857-0.521-6.46C90.182,369.32,89.424,369.809,89.663,370.364"/>
	</g>
	<g>
		<path fill="#443A38" d="M111.415,373.908c0.022,6.703-9.885,4.172-13.231,2.489c-2.822-1.418-8.517-5.604-7.751-9.396
			c0.157-0.77-0.928-1.075-1.179-0.325c-1.732,5.185,6.845,10.576,10.712,11.916c3.092,1.07,6.838,1.522,9.996,0.45
			c2.773-0.943,2.83-2.376,2.543-5.135C112.435,373.225,111.412,373.19,111.415,373.908"/>
	</g>
	<g>
		<path fill="#587572" d="M110.444,369.533c2.929,6.825-5.294,6.785-9.521,5.232c-3.823-1.403-7.038-4.563-9.472-7.73
			c-0.38-0.494-1.227-0.047-0.864,0.505c3.295,5.001,8.798,9.239,14.989,9.259c1.628,0.005,5.28-0.058,6.383-1.441
			c1.396-1.75,0.266-4.658-0.679-6.312C110.963,368.488,110.205,368.978,110.444,369.533"/>
	</g>
	<g>
		<path fill="#878787" d="M106.929,363.184c-0.131,0.874-2.05-0.949-2.169-1.021c-0.552-0.334-1.206-0.572-1.831-0.707
			c-1.458-0.312-2.971-0.004-4.335,0.52c-1.355,0.521-2.635,1.329-3.681,2.34c-1.803,1.744-3.184,1.354-5.508,1.851
			c-0.878,0.188-0.503,1.514,0.37,1.342c1.307-0.258,3.005,0.207,4.247-0.399c0.988-0.481,1.638-1.606,2.485-2.295
			c1.826-1.486,4.12-2.491,6.459-1.778c1.508,0.458,2.249,1.674,3.66,2.229c0.208,0.083,0.489-0.015,0.636-0.168
			c0.713-0.74,0.703-0.72,0.69-1.775C107.944,362.76,107.018,362.585,106.929,363.184"/>
	</g>
	<g>
		<path fill="#878787" d="M67.852,365.602c-1.57,3.318,3.474,2.615,5.24,1.938c1.441-0.552,2.681-2.325,4.185-3.043
			c2.984-1.426,5.381-1.596,7.377,1.043c1.331,1.759,1.786,2.297,4.364,2.104c0.875-0.065,0.883-1.438,0-1.373
			c-3.387,0.254-2.56-2.551-4.442-3.847c-1.008-0.696-2.914-0.327-3.994-0.184c-2.432,0.323-4.161,1.274-6.256,2.547
			c-1.163,0.707-1.337,1.438-2.897,1.724c-0.333,0.061-2.874,0.137-2.676-0.529C68.909,365.458,68.096,365.089,67.852,365.602"/>
	</g>
	<g>
		<path fill="#587572" d="M73.858,368.151c3.027-2.71,5.979-4.98,10.232-3.113c0.709,0.312,1.336-0.722,0.617-1.056
			c-4.432-2.059-8.661-0.134-11.537,3.48C72.787,367.945,73.382,368.577,73.858,368.151"/>
	</g>
	<g>
		<path fill="#587572" d="M73.283,368.371c0.767,0.933,1.557,1.795,2.448,2.61c0.254,0.233,0.597,0.168,0.788-0.101
			c2.106-2.971,5.947-3.544,9.332-3.444c0.419,0.013,0.688-0.406,0.599-0.787c-0.281-1.211-0.766-1.905-1.75-2.653
			c-0.533-0.405-1.242,0.505-0.721,0.936c0.717,0.457,1.141,1.141,1.272,2.049l0.6-0.787c-4.038-0.001-7.403,1.019-10.12,4.08h0.708
			c-0.86-0.829-1.7-1.67-2.5-2.558C73.535,367.266,72.911,367.918,73.283,368.371"/>
	</g>
	<g>
		<path fill="#587572" d="M85.791,367.661c0.909,0.538,4.107,2.451,3.982,3.396c-0.238,1.803-2.92,1.576-4.226,1.62
			c-2.742,0.094-6.946-0.947-9.148-2.586c-0.559-0.417-1.307,0.54-0.751,0.975c1.997,1.56,4.698,2.073,7.124,2.671
			c1.955,0.479,4.284,0.312,6.234-0.155c1.596-0.381,2.42-1.166,2.03-2.872c-0.49-2.145-2.916-3.123-4.724-3.939
			C85.718,366.502,85.206,367.315,85.791,367.661"/>
	</g>
	<g>
		<path fill="#587572" d="M94.64,367.319c3.027-2.709,5.979-4.979,10.232-3.112c0.709,0.312,1.336-0.722,0.617-1.056
			c-4.432-2.059-8.662-0.134-11.537,3.479C93.568,367.114,94.163,367.746,94.64,367.319"/>
	</g>
	<g>
		<path fill="#587572" d="M94.064,367.54c0.767,0.933,1.557,1.794,2.448,2.61c0.254,0.232,0.597,0.168,0.788-0.101
			c2.106-2.972,5.947-3.544,9.332-3.444c0.419,0.012,0.688-0.407,0.599-0.787c-0.281-1.212-0.766-1.905-1.75-2.653
			c-0.534-0.406-1.242,0.505-0.721,0.936c0.718,0.457,1.142,1.141,1.272,2.049c0.2-0.263,0.4-0.525,0.6-0.788
			c-4.038,0-7.403,1.02-10.12,4.081h0.708c-0.86-0.829-1.7-1.67-2.5-2.558C94.316,366.434,93.692,367.087,94.064,367.54"/>
	</g>
	<g>
		<path fill="#587572" d="M106.572,366.83c0.908,0.537,4.107,2.451,3.982,3.396c-0.239,1.802-2.92,1.576-4.226,1.619
			c-2.742,0.095-6.946-0.946-9.148-2.585c-0.559-0.417-1.307,0.54-0.751,0.974c1.997,1.561,4.698,2.073,7.124,2.672
			c1.955,0.479,4.284,0.312,6.234-0.155c1.596-0.381,2.42-1.166,2.03-2.873c-0.489-2.144-2.916-3.122-4.724-3.939
			C106.499,365.671,105.987,366.484,106.572,366.83"/>
	</g>
	<g>
		<g>
			<path fill="#624321" d="M97.706,238.931c-1.054-0.209-2.238,0.098-3.012,0.86c-0.665,0.655-0.446,1.629,0.252,2.155
				c0.801,0.604,2.112,0.124,2.855-0.333c0.663-0.407,1.069-1.235,0.777-1.984c-0.208-0.532-2.107,0.069-1.932,0.518
				c0.128,0.329,0.124,0.61-0.015,0.935c-0.053,0.123-0.145,0.251-0.248,0.336c-0.127,0.084-0.109,0.081,0.052-0.008
				c0.4-0.172,0.669-0.018,0.38-0.115c-0.354-0.12-0.573-0.641-0.605-0.973c-0.017-0.176,0.071-0.39,0.171-0.529
				c0.222-0.311,0.169,0.028-0.249-0.055c0.455,0.09,0.946-0.017,1.356-0.227C97.644,239.432,98.165,239.022,97.706,238.931
				L97.706,238.931z"/>
		</g>
	</g>
</g>
<g>
	<g>
		<path fill="#373A37" d="M100.198,202.405c1.911-0.932,4.836-0.671,6.932-0.727c2.666-0.07,5.369,0.241,7.988,0.727
			c0.781,0.146,3.179-1.096,1.682-1.373c-5.477-1.017-13.063-1.84-18.248,0.688C96.922,202.514,99.381,202.804,100.198,202.405
			L100.198,202.405z"/>
	</g>
</g>
<path fill="#587572" d="M734.938,292.057c-4.427,0-9.768-1.551-15.196-6.781l0.693-0.721c12.002,11.565,23.47,4.354,24.741,3.489
	c8.162-21.756,1.009-35.669,0.936-35.808l0.883-0.469c0.076,0.143,7.469,14.518-0.938,36.774l-0.052,0.138l-0.118,0.087
	C745.812,288.822,741.33,292.057,734.938,292.057z"/>
<path fill="#587572" d="M744.232,315c-0.021,0-2.024-13.35-1.13-25.377l0.998,0.141c-0.887,11.91,0.969,24.495,0.968,24.854
	L744.232,315z"/>
<path fill="#587572" d="M738.61,280.373c-0.023,0-0.047-0.002-0.07-0.005c-0.146-0.021-3.67-0.535-10.497-3.214
	c-0.257-0.102-0.384-0.392-0.283-0.648c0.102-0.257,0.394-0.384,0.648-0.283c6.699,2.63,10.236,3.15,10.271,3.155
	c0.272,0.039,0.463,0.292,0.425,0.565C739.069,280.192,738.855,280.373,738.61,280.373z"/>
<path fill="#587572" d="M736.184,279.325c-0.035,0-0.071-0.004-0.107-0.012c-0.27-0.06-0.44-0.326-0.381-0.596
	c0.008-0.037,0.822-3.736,1.438-7.014c0.051-0.272,0.314-0.447,0.584-0.398c0.271,0.051,0.449,0.312,0.398,0.584
	c-0.619,3.292-1.437,7.006-1.444,7.043C736.62,279.166,736.414,279.325,736.184,279.325z"/>
<g>
	<path fill="#B5A38C" d="M722.463,269.303c0,0,0.792-1.179,2.189,0.588c1.396,1.766,3.573,6.097,3.573,6.097
		s-1.276,3.872-2.184,3.58c-0.908-0.292-2.484-1.849-2.484-1.849l0.742,3.465c0,0-4.185,4.576-5.729,3.952
		c-1.546-0.628-6.032-5.644-5.395-6.851c0.637-1.206,1.118,1.013,2.754,0.807c1.636-0.207,4.28-1.703,5.353-3.043
		C722.355,274.709,723.531,270.876,722.463,269.303z"/>
	<g>
		<path fill="#F4C09D" d="M722.952,269.692c0,0,0.247,4.904-2.229,6.851c-2.475,1.945-5.987,2.249-5.987,2.249
			s-3.03-1.933-4.814-3.125c-1.784-1.194-4.536-5.999-4.536-5.999s-3.525-2.118-5.162-1.91c-1.636,0.206-2.422,0.555-3.29-0.636
			c-0.87-1.191-1.841-2.344,0.191-3.411c2.029-1.068,4.977-1.59,4.977-1.59s-2.5-1.356-3.864-1.108
			c-1.364,0.249-2.51,0.389-2.926-0.885c-0.415-1.272,0.979-4.131,3.586-4.185c0,0,0.728-4.582,3.95-4.434
			c3.225,0.146,9.16,3.912,11.816,7.38l3.02-5.486c0,0,1.851,1.683,1.538,4.996c-0.313,3.313-0.912,5.164,0.978,7.489
			C722.09,268.214,722.952,269.692,722.952,269.692z"/>
		<path fill="#FFD0B0" d="M716.312,255.98c1.331,0.413,1.402,2.907,1.127,3.943c-0.104,0.385-0.263,1.327-0.759,1.415
			c-0.408,0.072-1.178-0.771-1.436-1.062c-1.265-1.421-2.246-3.181-3.77-4.408c-1.792-1.447-3.37-3.024-5.776-3.448
			c-0.67-0.117-1.822-0.291-2.425,0.011c-0.815,0.406-0.807,1.439-0.207,2.044c0.454,0.459,1.355,0.827,1.924,1.12
			c0.726,0.377,1.479,0.624,2.098,1.149c0.795,0.676,2.712,2.413,2.33,3.62c-1.186-0.458-2.328-1.004-3.284-1.812
			c-0.692-0.586-1.463-1.043-2.335-1.443c-1.52-0.698-4.429-1.641-5.447,0.293c-0.732,1.39,1.968,2.236,2.929,2.737
			c0.825,0.429,1.642,0.948,2.357,1.537c0.724,0.59,1.048,1.35,1.589,2.07c-0.815,0.089-1.765-0.812-2.539-1.088
			c-0.967-0.342-1.777-0.205-2.765,0.062c-0.854,0.23-2.008,0.732-2.171,1.732c-0.188,1.166,1.241,1.823,2.178,1.768
			c0.847-0.05,1.729-0.227,2.583-0.191c1.193,0.05,2.309,0.549,3.397,1.048c2.656,1.22,4.341,3.944,6.858,5.395
			c2.069,1.191,4.208,1.788,6.362,0.473c1.494-0.913,2.419-3.449,1.896-5.117c-0.543-1.731-2.275-3.215-2.397-5.093
			c-0.031-0.515,0.123-1.06,0.129-1.568c0.006-0.505-0.048-1.026,0.045-1.525c0.185-0.997,0.721-1.95,0.579-2.999
			c-0.198-1.478-1.169-2.371-2.28-3.211c-0.138,0.317-0.284,0.604-0.466,0.888"/>
		<path fill="none" stroke="#AD846F" stroke-width="1.1" stroke-linecap="round" stroke-miterlimit="10" d="M715.464,260.049
			c-0.46-1.118-1.622-2.138-2.551-3.11c-0.934-0.976-1.868-1.896-3.003-2.625c-2.22-1.428-4.862-2.862-7.626-2.584
			c-1.179,0.119-1.817,0.406-2.328,1.452c-0.42,0.86-0.629,1.865-0.518,2.761"/>
		<path fill="none" stroke="#AD846F" stroke-width="1.1" stroke-linecap="round" stroke-miterlimit="10" d="M709.278,260.459
			c-0.568-0.46-2.284-1.672-2.88-2.072c-1.013-0.679-2.338-1.154-3.478-1.68c-2.166-0.998-5.101-1.124-7.026,0.603
			c-1.2,1.078-1.057,3.479,0.571,4.017c0.616,0.203,1.664-0.426,2.428-0.388c0.919,0.047,3.355,1.041,3.916,1.633"/>
		<path fill="none" stroke="#AD846F" stroke-width="1.1" stroke-linecap="round" stroke-miterlimit="10" d="M717.48,253.479
			c1.011-0.462,1.821,2.453,1.9,3.121c0.119,1.023,0.04,2.297-0.088,3.288c-0.143,1.103-0.727,2.426-0.439,3.533
			c0.312,1.206,1.24,2.337,1.868,3.374c0.089,0.145,1.811,2.145,1.887,2.352"/>
		<path fill="none" stroke="#AD846F" stroke-linecap="round" stroke-miterlimit="10" d="M706.543,264.784
			c-1.301-0.915-3.415-2.569-5.224-2.478c-1.192,0.06-2.519,0.368-3.586,0.932c-1.042,0.55-2.128,1.449-1.631,2.733
			c0.371,0.957,1.232,2.31,2.363,2.249c0.553-0.029,1.064-0.455,1.609-0.552c0.649-0.115,1.228,0.113,1.831,0.319
			c1.227,0.419,2.454,0.953,3.361,1.893c1.667,1.727,2.575,4.728,4.695,5.965c0.612,0.358,1.402,0.975,2.009,1.253l-0.069-0.032
			c0.853,0.392,1.273,1.219,2.358,1.759"/>
	</g>
	<path fill="none" stroke="#82786F" stroke-linecap="round" stroke-miterlimit="10" d="M722.35,268.758
		c0.316,1.178,0.554,3.703,0.106,4.819c-0.421,1.047-0.802,2.142-1.61,2.965c-0.922,0.936-2.03,1.412-3.229,1.896
		c-0.431,0.173-0.873,0.282-1.307,0.415c-0.414,0.126-0.877,0.273-1.3,0.181c-0.316-0.072-1.392-0.346-1.667-0.597"/>
	<path fill="none" stroke="#82786F" stroke-miterlimit="10" d="M722.199,268.973c0.638-0.34,1.47,0.07,1.928,0.521
		c0.532,0.521,0.949,1.159,1.281,1.834c0.368,0.75,0.826,1.427,1.211,2.172c0.207,0.399,0.423,0.795,0.668,1.174
		c0.295,0.454,0.488,0.946,0.772,1.404"/>
	<path fill="#DACDBC" d="M723.997,273.129c-0.32,1.167-0.585,2.394-1.372,3.403c-0.85,1.088-1.998,2.344-3.232,2.995
		c-0.667,0.351-2.204,0.455-2.33,1.352c-0.142,1.015,1.229,2.001,2.082,1.91c1.274-0.138,2.91-1.021,3.844-1.876
		c0.166-0.151,0.531-0.455,0.612-0.656c0.159-0.392-0.107-0.619-0.266-1.061c-0.197-0.547-0.271-1.32-0.136-1.862
		c0.456,0.183,0.936,0.379,1.3,0.694c0.335,0.293,0.523,0.747,0.959,0.886c0.966-1.141,1.144-2.79,0.601-4.15
		c-0.214-0.54-0.518-1-0.933-1.365c-0.226-0.198-1.179-0.872-1.176-0.166"/>
	<path fill="none" stroke="#82786F" stroke-miterlimit="10" d="M713.295,277.841c-0.314,0.685-0.328,1.173,0.084,1.818
		c0.437,0.68,0.749,1.429,1.254,2.073c0.46,0.591,1.111,1.213,1.675,1.708c0.536,0.473,1.122,0.955,1.698,1.384
		c0.31,0.232,0.585,0.517,0.972,0.504c0.359-0.013,0.798-0.256,1.111-0.413c0.739-0.37,1.403-0.869,2.072-1.347
		c0.574-0.412,0.978-0.782,1.398-1.348c0.246-0.326,0.504-0.522,0.759-0.987c-0.1-0.421-0.457-1.349-0.598-1.691
		c-0.296-0.719-0.422-1.442-0.482-2.22c0.312-0.013,2.131,1.437,2.747,2.636"/>
	<path fill="none" stroke="#82786F" stroke-miterlimit="10" d="M723.24,277.322c0.854,0.226,2.131,1.437,2.748,2.635"/>
	<path fill="none" stroke="#82786F" stroke-miterlimit="10" d="M727.957,276.029c0.52,0.165-1.415,3.691-2.276,3.871"/>
</g>
<g>
	<g>
		<path fill="#565C56" d="M704.333,189.001c0,0,6.917-8.289,22.167-2.937s20.687,20.524,21.833,24.853s1.252,8.416-4.457,14.083
			L746,236.751c0,0,9.875-2.001,18.124-12.218c7.821-12.355,9.183-22.388,7.656-29.484s-0.938-17.893-11.859-26.387
			s-25.776-14.218-32.599-14.814c0,0-10.905,5.319-18.322,17.986C703.583,182.251,704.333,189.001,704.333,189.001z"/>
		<path fill="#F4C09D" d="M703.737,189.018c0,0-1.054,10.135-2.458,21.496s-0.779,23.611-0.779,23.611s7.875,15.236,24.625,12.118
			s20.375-9.299,20.375-9.299s4.697-2.633,3.296-5.699S744.015,227,744.015,227l-0.515-1.625c0,0,10.111-5.324,4.306-18.1
			S723.225,175.035,703.737,189.018z"/>
		<path fill="#D6A380" d="M713,187v2c0,0,8.429-0.501,11.423,2.083l0.827-3.396C725.25,187.687,719,185.417,713,187z"/>
		<path fill="#D6A380" d="M706.795,187.687c0,0,11.454-4.438,22.871,4.729s18.945,14.5,18.14,28c0,0,3.361-14.167-6.431-23.75
			S719.757,178.957,706.795,187.687z"/>
		<path fill="#FFD0B0" d="M700.625,217.875c0.637-4.231,1.938-9.433,6.625-10.493c5.341-1.209,10.256-0.396,15.118,2.24
			c3.467,1.88,7.35,4.647,8.878,8.5c1.745,4.397,1.684,9.815-0.611,13.973c-2.433,4.402-5.058,8.599-8.76,12.062
			c-1.874,1.753-3.195,2.061-5.777,1.941c-2.603-0.121-4.006-1.36-6.229-2.348c-4.116-1.827-7.549-4.466-8.989-8.881
			c-0.65-1.991-0.379-4.357-0.379-6.494c0-2.177-0.262-4.324-0.125-6.5c0.061-0.951,0.229-1.905,0.375-2.875"/>
		<path fill="#D6A380" d="M735.552,196.496l-1.167,2.004c0,0,5.282,3.666,7.865,9.083l2.906-1.083
			C745.156,206.5,740.937,198.575,735.552,196.496z"/>
		<path fill="#434943" d="M724.75,180.001l-2.625,8.374c0,0-5.902-2.63-12.139-1.502
			C709.986,186.873,712.083,175.335,724.75,180.001z"/>
		<path fill="#434943" d="M736.125,186.417l-3.125,7.5c0,0,7.5,6.582,7.5,12.208c0,0,6.249,0.21,5.333-8.624
			S737.583,186.5,736.125,186.417z"/>
		<path fill="#747A74" d="M771.625,203.5c0.24,3.365-5.002-2.881-5.503-6c-0.255-1.584-0.663-3.176-1.278-4.656
			c-1.32-3.18-5.364-4.602-8.479-5.472c-3.012-0.842-6.451-0.994-9.273-2.372c-2.362-1.153-3.41-3.104-4.28-5.432
			c-0.979-2.618-1.513-4.644-4.309-5.824c-2.766-1.168-6.463-0.896-9.409-0.751c-2.724,0.134-6.133,0.601-8.446-1.271
			c-1.886-1.525-2.273-4.212-1.932-6.466c0.521-3.434,2.478-8.28,5.784-9.756c0,0,2.58-3.196,8.125-0.991s25.25,7.991,33,21.366
			S771.43,200.759,771.625,203.5z"/>
		<path fill="#858C85" d="M743.418,179.584c-1.066-2.971-2.237-4.535-3.808-5.891c-1.248-0.521-2.553-0.854-3.84-1.251
			c-3.334-0.052-8.094,0.633-8.094,0.633c12.365-1.366,13.376,4.676,13.376,4.676c3.302,9.5,10.758,8.666,10.758,8.666
			C747.256,185.462,744.68,183.1,743.418,179.584z"/>
		<g>
			<g>
				<path fill="#373A37" d="M704.216,192.741c1.358-15.256,9.296-31.358,23.351-38.576c1.146-0.588-0.64-0.584-1.133-0.331
					c-14.499,7.446-22.744,23.636-24.149,39.424C702.254,193.594,704.16,193.364,704.216,192.741L704.216,192.741z"/>
			</g>
		</g>
		<g>
			<g>
				<path fill="#373A37" d="M726.35,154.466c4.901-0.993,9.908,2.307,14.207,4.23c5.013,2.243,9.994,3.675,14.54,6.927
					c7.564,5.411,13.062,13.992,14.939,23.051c1.972,9.519,1.935,19.397-2.146,28.342c-4.245,9.301-12.531,16.934-22.5,19.517
					c-1.15,0.298-0.926,1.121,0.221,0.824c9.805-2.541,17.84-9.236,22.832-17.967c5.329-9.319,5.469-19.628,3.76-29.966
					c-1.654-10.007-7.72-19.095-15.942-24.977c-4.714-3.373-10.199-4.786-15.382-7.174c-4.42-2.037-9.188-4.76-14.228-3.738
					C725.805,153.706,725.013,154.737,726.35,154.466L726.35,154.466z"/>
			</g>
		</g>
		<g>
			<g>
				<path fill="#373A37" d="M744.376,203.119c1.845,3.358,3.625,6.857,4.035,10.72c0.495,4.666-2.471,8.349-5.912,11.09
					c-0.805,0.642,1.127,0.441,1.502,0.143c3.238-2.58,5.966-5.66,6.353-9.941c0.399-4.419-1.996-8.796-4.046-12.528
					C746.012,202.062,744.173,202.749,744.376,203.119L744.376,203.119z"/>
			</g>
		</g>
		<g>
			<g>
				<path fill="#373A37" d="M722.113,185.428c4.097,0.968,8.001,2.434,11.36,5.018c0.416,0.32,2.087-0.447,1.822-0.65
					c-3.421-2.632-7.425-4.118-11.591-5.104C723.263,184.587,721.58,185.301,722.113,185.428L722.113,185.428z"/>
			</g>
		</g>
		<g>
			<g>
				<path fill="#373A37" d="M704.231,192.937c0.622-3.439,3.012-6.066,6.295-7.208c1.159-0.402,0.808-1.812-0.375-1.4
					c-4.047,1.405-7.106,4.439-7.883,8.735C702.086,194.073,704.066,193.849,704.231,192.937L704.231,192.937z"/>
			</g>
		</g>
		<path fill="none" stroke="#373A37" stroke-width="1.5" stroke-linecap="round" stroke-miterlimit="10" d="M733.25,155.125
			c-3.671,1.691-7.367,6.232-9.125,9.75"/>
		<path fill="none" stroke="#373A37" stroke-width="1.5" stroke-linecap="round" stroke-miterlimit="10" d="M739.875,158.125
			c-2.279,0.797-4.639,4.715-5.875,6.875"/>
		<g>
			<g>
				<path fill="#373A37" d="M735.251,186.34c-1.009,2.746-2.555,5.23-3.5,8c-0.053,0.153,0.08,0.292,0.191,0.366
					c4.109,2.683,6.849,6.539,7.688,11.402c0.118,0.688,1.863,0.258,1.738-0.467c-0.601-3.481-2.111-6.339-4.462-8.954
					c-1.324-1.474-3.687-2.097-2.595-4.637c0.856-1.992,1.937-3.849,2.687-5.891C737.246,185.486,735.486,185.698,735.251,186.34
					L735.251,186.34z"/>
			</g>
		</g>
		<path fill="none" stroke="#373A37" stroke-width="1.4" stroke-linecap="round" stroke-miterlimit="10" d="M709.875,187.375
			c2.066-0.587,4.133-0.494,6.507-0.5c1.595-0.004,4.611,0.42,5.743,1.625"/>
		
			<path fill="none" stroke="#AD846F" stroke-width="1.6" stroke-linecap="round" stroke-linejoin="round" stroke-miterlimit="10" d="
			M713.135,228.167c1.217,0.525,2.562,1.467,2.463,2.917c-0.053,0.774-0.358,1.445-1.115,1.303
			c-0.289-0.055-1.155-1.489-1.593-1.768c-0.414-0.263-0.731-0.481-1.226-0.491"/>
		
			<path fill="none" stroke="#AD846F" stroke-width="1.6" stroke-linecap="round" stroke-linejoin="round" stroke-miterlimit="10" d="
			M703.25,193.5c0,0-3.375,16.375-2.75,40.625c0,0,6,14.125,24.625,11.875"/>
		<g>
			<g>
				<path fill="#AD846F" d="M744.379,227.916c2.96,0.021,3.825,2.755,3.29,5.271c-0.242,1.139-0.785,2.245-1.614,3.065
					c-0.919,0.911-2.097-0.243-2.771-0.965c-0.354-0.38-2.154,0.312-1.816,0.674c2.521,2.695,6.234,1.33,7.663-1.749
					c1.464-3.154,0.426-7.1-3.509-7.129C745.188,227.081,743.408,227.908,744.379,227.916L744.379,227.916z"/>
			</g>
		</g>
		<path fill="none" stroke="#373A37" stroke-width="2" stroke-linecap="round" stroke-miterlimit="10" d="M743.5,225.375
			c0.296,0.448,0.583,0.995,0.5,1.625"/>
		<g>
			<g>
				<path fill="#373A37" d="M735.327,186.61c4.377,0.619,7.504,4.617,9.123,8.46c1.317,3.129,0.611,9.732-3.272,10.785
					c-1.119,0.303-0.976,0.843,0.145,0.539c10.745-2.91,4.409-19.257-4.399-20.504C736.481,185.828,734.846,186.542,735.327,186.61
					L735.327,186.61z"/>
			</g>
		</g>
		<path fill="none" stroke="#373A37" stroke-width="1.4" stroke-linecap="round" stroke-miterlimit="10" d="M725,180.375
			c-1.132-1.175-4.312-1.683-5.142-1.65c-3.018,0.117-8.358,0.65-9.983,8.65"/>
		<path fill="none" stroke="#373A37" stroke-width="1.4" stroke-linecap="round" stroke-miterlimit="10" d="M725.25,180.625
			c-1.888,0.872-2.89,5.838-2.75,7.75"/>
		<path fill="#FFFFFF" d="M734.454,207.543c0.531,0.431,4.884,5.184,1.055,11.814c-3.827,6.634-9.901,5.751-11.904,3.599
			c-2.001-2.153-3.85-5.45-0.19-10.852C727.074,206.703,730.824,204.596,734.454,207.543"/>
		<path fill="#FFFFFF" d="M715.108,202.972c0,0,2.23,8.909-1.289,12.134c-3.521,3.224-9.8,2.132-10.587-1.529
			c-0.787-3.66,0.18-12.25,3.114-14.648C709.283,196.53,712.761,194.887,715.108,202.972"/>
		<path fill="#EAEAEA" d="M736.413,217.451c0,0-0.873-5.367-8.581-10.309c0,0,10.677-4.716,8.756,10.828"/>
		<path fill="#EAEAEA" d="M714.484,201.114c0,0-5.251-1.754-10.644,2.629c0,0,1.578-6.354,4.822-6.349
			C711.906,197.399,713.438,197.702,714.484,201.114"/>
		<path fill="#E0AA86" d="M712.802,215.586c3.326-2.461,2.765-7.375,2.185-10.988c-0.255-1.593-0.513-3.22-1.293-4.646
			c-1.605-2.943-5.102-3.097-7.166-0.488c-2.097,2.646-2.973,6.837-3.142,10.149c-0.15,2.939,0.449,6.133,3.741,6.926
			c1.894,0.456,3.845,0.285,5.416-0.953c0.473-0.372,1.02,0.371,0.554,0.746c-3.27,2.628-9.213,1.58-10.353-2.77
			c-1.173-4.466,0.234-12.107,3.684-15.385c3.756-3.571,7.847-0.623,8.942,3.647c1.088,4.238,2.34,11.582-2.096,14.398
			C712.849,216.492,712.385,215.894,712.802,215.586"/>
		<path fill="#E0AA86" d="M721.55,218.432c1.357,3.92,5.282,6.507,9.397,4.92c3.822-1.474,5.772-5.887,5.706-9.792
			c-0.042-2.462-0.906-4.444-2.862-5.967c-2.361-1.838-4.778-1.105-6.819,0.785c-2.822,2.613-4.93,6.458-5.542,10.256
			c-0.081,0.499-0.799,0.385-0.765-0.11c0.346-4.771,4.162-11.246,8.883-12.883c4.408-1.527,8.031,4.023,8.044,7.865
			c0.016,4.552-2.391,9.638-7.028,10.946c-4.34,1.226-8.616-1.547-9.6-5.865C720.887,218.246,721.438,218.105,721.55,218.432"/>
		<path fill="#AD846F" d="M706.08,208.659c-1.123-0.155-2.021,0.708-1.954,1.84c0.047,0.813,0.6,1.392,1.284,1.712
			c0.048,0.177,0.157,0.328,0.357,0.385c1.089,0.312,2.156-0.543,2.264-1.661C708.144,209.792,707.155,208.807,706.08,208.659z"/>
		<path fill="#AD846F" d="M726.053,216.692c-0.288-1.038-1.52-1.917-2.591-1.673c-1.027,0.232-1.652,1.305-1.395,2.319
			c0.211,0.825,0.87,1.362,1.648,1.491c0.118,0.169,0.313,0.271,0.573,0.21C725.309,218.802,726.374,217.848,726.053,216.692z"/>
	</g>
	<path fill="none" stroke="#373A37" stroke-width="1.5" stroke-linecap="round" stroke-miterlimit="10" d="M734.625,156.75
		c-0.396-0.047-2.077,2.01-2.625,2.625"/>
</g>
<path fill="#E6E6E6" d="M566,186.129c0,23.419-18.985,42.404-42.404,42.404H345.404c-23.419,0-42.404-18.985-42.404-42.404l0,0
	c0-23.419,18.985-42.404,42.404-42.404h178.191C547.015,143.725,566,162.71,566,186.129L566,186.129z"/>
<g>
	<path fill="#FFFFFF" d="M333.649,172.197h12.085c2.229,0,4.017,0.511,5.364,1.533c1.346,1.022,2.02,2.566,2.02,4.632
		c0,1.254-0.308,2.328-0.923,3.222c-0.616,0.894-1.492,1.585-2.63,2.072v0.07c1.533,0.326,2.693,1.051,3.483,2.177
		c0.789,1.126,1.184,2.537,1.184,4.232c0,0.975-0.174,1.887-0.522,2.734c-0.348,0.848-0.894,1.579-1.637,2.194
		c-0.743,0.615-1.695,1.103-2.856,1.462c-1.161,0.36-2.542,0.54-4.145,0.54h-11.424V172.197z M338.002,182.611h7.105
		c1.045,0,1.916-0.296,2.612-0.888c0.696-0.592,1.045-1.446,1.045-2.56c0-1.254-0.313-2.136-0.94-2.647
		c-0.627-0.51-1.533-0.766-2.717-0.766h-7.105V182.611z M338.002,193.512h7.697c1.323,0,2.351-0.342,3.082-1.027
		c0.731-0.685,1.097-1.654,1.097-2.908c0-1.23-0.366-2.177-1.097-2.838s-1.759-0.993-3.082-0.993h-7.697V193.512z"/>
	<path fill="#FFFFFF" d="M373.423,197.064h-3.901v-2.508h-0.069c-0.488,0.906-1.214,1.632-2.177,2.177
		c-0.963,0.545-1.945,0.819-2.943,0.819c-2.368,0-4.081-0.586-5.137-1.759c-1.057-1.172-1.584-2.943-1.584-5.311v-11.424h3.97
		v11.041c0,1.58,0.302,2.694,0.906,3.344c0.604,0.65,1.451,0.975,2.542,0.975c0.836,0,1.532-0.127,2.09-0.383
		c0.557-0.255,1.01-0.597,1.358-1.027c0.349-0.429,0.598-0.946,0.749-1.55c0.151-0.604,0.227-1.254,0.227-1.95v-10.449h3.97V197.064
		z"/>
	<path fill="#FFFFFF" d="M375.617,179.058h4.354l4.702,13.444h0.07l4.562-13.444h4.145l-7,18.981
		c-0.325,0.812-0.644,1.59-0.958,2.333s-0.697,1.398-1.149,1.968c-0.453,0.568-1.016,1.021-1.689,1.358
		c-0.673,0.336-1.532,0.505-2.577,0.505c-0.929,0-1.846-0.069-2.751-0.209v-3.344c0.325,0.047,0.638,0.099,0.94,0.157
		c0.301,0.058,0.615,0.087,0.94,0.087c0.464,0,0.847-0.059,1.149-0.174c0.301-0.117,0.551-0.285,0.749-0.506
		s0.366-0.481,0.505-0.783c0.139-0.302,0.267-0.65,0.383-1.045l0.453-1.393L375.617,179.058z"/>
	<path fill="#FFFFFF" d="M413.615,197.552c-1.44,0-2.723-0.239-3.849-0.714c-1.126-0.476-2.078-1.132-2.856-1.968
		c-0.778-0.836-1.37-1.834-1.776-2.995c-0.406-1.161-0.609-2.438-0.609-3.831c0-1.37,0.203-2.635,0.609-3.796
		c0.406-1.161,0.998-2.159,1.776-2.995c0.778-0.836,1.729-1.492,2.856-1.968c1.126-0.476,2.409-0.714,3.849-0.714
		c1.439,0,2.722,0.239,3.849,0.714c1.125,0.476,2.078,1.132,2.855,1.968s1.37,1.834,1.776,2.995c0.406,1.161,0.61,2.427,0.61,3.796
		c0,1.393-0.204,2.67-0.61,3.831c-0.406,1.161-0.999,2.159-1.776,2.995s-1.73,1.492-2.855,1.968
		C416.336,197.313,415.054,197.552,413.615,197.552z M413.615,194.417c0.882,0,1.648-0.186,2.298-0.557
		c0.65-0.371,1.185-0.859,1.603-1.463c0.417-0.604,0.725-1.283,0.923-2.038c0.197-0.754,0.296-1.526,0.296-2.316
		c0-0.766-0.099-1.533-0.296-2.299c-0.198-0.766-0.505-1.445-0.923-2.038c-0.418-0.592-0.953-1.074-1.603-1.445
		c-0.65-0.371-1.417-0.557-2.298-0.557c-0.883,0-1.649,0.186-2.299,0.557c-0.65,0.372-1.184,0.854-1.602,1.445
		c-0.418,0.592-0.726,1.271-0.923,2.038c-0.198,0.766-0.296,1.533-0.296,2.299c0,0.79,0.099,1.562,0.296,2.316
		c0.197,0.755,0.505,1.434,0.923,2.038c0.418,0.604,0.952,1.092,1.602,1.463C411.966,194.232,412.732,194.417,413.615,194.417z"/>
	<path fill="#FFFFFF" d="M441.826,197.064h-3.902v-2.508h-0.068c-0.488,0.906-1.215,1.632-2.178,2.177
		c-0.963,0.545-1.945,0.819-2.943,0.819c-2.367,0-4.081-0.586-5.137-1.759c-1.057-1.172-1.584-2.943-1.584-5.311v-11.424h3.971
		v11.041c0,1.58,0.301,2.694,0.904,3.344c0.604,0.65,1.451,0.975,2.543,0.975c0.836,0,1.533-0.127,2.09-0.383
		c0.557-0.255,1.01-0.597,1.357-1.027c0.35-0.429,0.598-0.946,0.75-1.55c0.15-0.604,0.227-1.254,0.227-1.95v-10.449h3.971V197.064z"
		/>
	<path fill="#FFFFFF" d="M446.005,179.058h3.727v3.483h0.069c0.116-0.488,0.343-0.963,0.68-1.428
		c0.336-0.464,0.742-0.888,1.219-1.271c0.476-0.383,1.004-0.69,1.585-0.923c0.58-0.232,1.172-0.349,1.776-0.349
		c0.464,0,0.783,0.012,0.957,0.035c0.175,0.023,0.354,0.047,0.54,0.069v3.832c-0.278-0.046-0.563-0.087-0.854-0.122
		s-0.574-0.052-0.853-0.052c-0.674,0-1.307,0.134-1.898,0.4c-0.592,0.267-1.109,0.662-1.55,1.184
		c-0.441,0.522-0.79,1.167-1.045,1.933c-0.256,0.766-0.383,1.649-0.383,2.647v8.568h-3.971V179.058z"/>
	<path fill="#FFFFFF" d="M470.941,191.283c0.116,1.162,0.558,1.974,1.323,2.438c0.767,0.465,1.684,0.697,2.752,0.697
		c0.371,0,0.795-0.029,1.271-0.087c0.477-0.058,0.924-0.168,1.342-0.331c0.418-0.162,0.76-0.4,1.027-0.714
		c0.267-0.313,0.389-0.726,0.365-1.236s-0.209-0.929-0.557-1.254c-0.349-0.325-0.796-0.586-1.342-0.784
		c-0.545-0.197-1.166-0.366-1.863-0.505c-0.696-0.14-1.404-0.29-2.124-0.453c-0.743-0.162-1.457-0.359-2.142-0.592
		c-0.686-0.232-1.301-0.545-1.847-0.94c-0.546-0.395-0.98-0.899-1.306-1.515c-0.325-0.615-0.487-1.375-0.487-2.281
		c0-0.975,0.237-1.793,0.714-2.456c0.476-0.662,1.079-1.195,1.811-1.602c0.731-0.406,1.544-0.69,2.438-0.853
		c0.894-0.162,1.747-0.244,2.56-0.244c0.929,0,1.816,0.099,2.664,0.296s1.614,0.517,2.299,0.958
		c0.685,0.441,1.254,1.016,1.707,1.724c0.452,0.708,0.736,1.562,0.854,2.56h-4.145c-0.187-0.952-0.622-1.59-1.307-1.916
		s-1.469-0.488-2.351-0.488c-0.279,0-0.609,0.023-0.993,0.07c-0.383,0.046-0.743,0.134-1.079,0.261
		c-0.337,0.128-0.622,0.313-0.854,0.557c-0.232,0.244-0.349,0.563-0.349,0.958c0,0.488,0.169,0.883,0.505,1.185
		c0.337,0.302,0.778,0.552,1.324,0.749c0.545,0.198,1.166,0.366,1.863,0.505c0.696,0.14,1.416,0.291,2.159,0.453
		c0.72,0.163,1.428,0.36,2.124,0.592c0.697,0.232,1.318,0.546,1.864,0.94c0.545,0.395,0.986,0.894,1.323,1.498
		c0.336,0.604,0.505,1.347,0.505,2.229c0,1.068-0.244,1.974-0.731,2.717c-0.487,0.743-1.12,1.347-1.898,1.811
		c-0.778,0.465-1.643,0.801-2.595,1.01s-1.893,0.313-2.821,0.313c-1.138,0-2.188-0.128-3.151-0.383
		c-0.964-0.255-1.8-0.645-2.508-1.167c-0.709-0.522-1.266-1.172-1.672-1.95c-0.406-0.778-0.621-1.701-0.645-2.769H470.941z"/>
	<path fill="#FFFFFF" d="M484.211,179.058h2.995v-5.398h3.971v5.398h3.588v2.96h-3.588v9.613c0,0.418,0.018,0.778,0.053,1.08
		c0.034,0.302,0.115,0.557,0.243,0.766s0.319,0.366,0.575,0.47c0.255,0.104,0.604,0.157,1.045,0.157
		c0.278,0,0.557-0.005,0.836-0.018c0.278-0.011,0.557-0.052,0.836-0.122v3.065c-0.441,0.046-0.871,0.092-1.289,0.139
		c-0.418,0.046-0.848,0.07-1.289,0.07c-1.044,0-1.887-0.099-2.524-0.296c-0.639-0.197-1.138-0.487-1.498-0.871
		c-0.36-0.383-0.604-0.865-0.731-1.445c-0.128-0.58-0.203-1.242-0.227-1.985v-10.623h-2.995V179.058z"/>
	<path fill="#FFFFFF" d="M513.433,197.064h-3.901v-2.508h-0.069c-0.488,0.906-1.214,1.632-2.177,2.177
		c-0.964,0.545-1.945,0.819-2.943,0.819c-2.368,0-4.081-0.586-5.137-1.759c-1.058-1.172-1.585-2.943-1.585-5.311v-11.424h3.971
		v11.041c0,1.58,0.301,2.694,0.905,3.344c0.604,0.65,1.451,0.975,2.542,0.975c0.836,0,1.533-0.127,2.09-0.383
		c0.558-0.255,1.011-0.597,1.358-1.027c0.349-0.429,0.598-0.946,0.749-1.55c0.15-0.604,0.227-1.254,0.227-1.95v-10.449h3.971
		V197.064z"/>
	<path fill="#FFFFFF" d="M515.835,179.058h2.96v-1.498c0-1.137,0.14-2.061,0.418-2.769c0.279-0.708,0.65-1.254,1.115-1.637
		c0.464-0.383,0.992-0.639,1.584-0.766c0.593-0.127,1.214-0.192,1.863-0.192c1.277,0,2.206,0.082,2.787,0.244v3.1
		c-0.256-0.07-0.528-0.122-0.818-0.157c-0.291-0.035-0.634-0.052-1.028-0.052c-0.534,0-0.992,0.128-1.375,0.383
		c-0.384,0.256-0.575,0.755-0.575,1.498v1.846h3.379v2.96h-3.379v15.046h-3.971v-15.046h-2.96V179.058z"/>
	<path fill="#FFFFFF" d="M526.179,179.058h2.96v-1.498c0-1.137,0.14-2.061,0.418-2.769c0.279-0.708,0.65-1.254,1.115-1.637
		c0.464-0.383,0.992-0.639,1.584-0.766c0.593-0.127,1.214-0.192,1.863-0.192c1.277,0,2.206,0.082,2.787,0.244v3.1
		c-0.256-0.07-0.528-0.122-0.818-0.157c-0.291-0.035-0.634-0.052-1.028-0.052c-0.534,0-0.992,0.128-1.375,0.383
		c-0.384,0.256-0.575,0.755-0.575,1.498v1.846h3.379v2.96h-3.379v15.046h-3.971v-15.046h-2.96V179.058z"/>
</g>
<g>
	<g>
		<path fill="#FFFFFF" d="M36.19,152.42c-0.433,3.613-1.699,13.737,3.409,14.721c7.374,1.42,5.158-11.532,5.449-15.277
			c0.076-0.979-2.074-0.604-2.138,0.22c-0.19,2.458,0.099,4.947,0.06,7.41c-0.022,1.397-0.709,8.535-3.346,5.646
			c-1.491-1.635-1.516-4.757-1.583-6.817c-0.066-2.038,0.044-4.098,0.287-6.122C38.443,151.236,36.289,151.594,36.19,152.42
			L36.19,152.42z"/>
	</g>
</g>
<g>
	<g>
		<path fill="#FFFFFF" d="M47.81,151.939c-0.627,4.693-0.614,9.347,0.013,14.038c0.129,0.965,2.26,0.438,2.125-0.569
			c-0.61-4.566-0.597-9.075,0.013-13.638C50.104,150.699,47.937,150.996,47.81,151.939L47.81,151.939z"/>
	</g>
</g>
<g>
	<g>
		<path fill="#FFFFFF" d="M53.535,151.131c0.619,4.62,0.053,9.297,0.672,13.919c0.123,0.917,2.254,0.397,2.125-0.569
			c-0.619-4.62-0.053-9.297-0.672-13.919C55.538,149.646,53.406,150.165,53.535,151.131L53.535,151.131z"/>
	</g>
</g>
<g>
	<g>
		<path fill="#FFFFFF" d="M50.041,158.911c1.368-0.528,2.745-0.781,4.2-0.532c1.1,0.188,2.136-1.384,0.714-1.628
			c-2.042-0.35-3.973,0.079-5.88,0.814c-0.425,0.164-0.788,0.733-0.486,1.154C48.926,159.189,49.583,159.088,50.041,158.911
			L50.041,158.911z"/>
	</g>
</g>
<g>
	<g>
		<path fill="#FFFFFF" d="M68.858,151.643c-0.042,4.49-0.628,8.95-0.672,13.439c-0.011,1.056,1.94,0.572,2.14-0.209
			c1.264-4.953,0.459-10.111,1.343-15.121c-0.71,0.13-1.421,0.26-2.132,0.39c1.443,4.796,3.951,9.331,8.294,12.043
			c0.555,0.346,1.763,0.031,1.901-0.673c0.917-4.663-0.26-9.304-0.677-13.955c-0.076-0.852-2.208-0.36-2.125,0.569
			c0.406,4.533,1.556,9.049,0.662,13.594c0.633-0.224,1.267-0.448,1.901-0.673c-4.13-2.579-6.461-6.924-7.831-11.476
			c-0.256-0.851-2.003-0.341-2.132,0.39c-0.884,5.01-0.08,10.167-1.343,15.12c0.713-0.069,1.426-0.14,2.14-0.209
			c0.044-4.49,0.631-8.95,0.672-13.44C71.008,150.415,68.866,150.805,68.858,151.643L68.858,151.643z"/>
	</g>
</g>
<g>
	<g>
		<path fill="#FFFFFF" d="M84.275,149.246c-6.62,3.521-2.333,18.629,5.213,12.96c5.106-3.836-0.03-17.552-5.548-11.677
			c-0.588,0.626,1.532,0.461,1.967-0.001c1.19-1.268,2.926,3.19,3.215,4.269c0.579,2.158,0.757,5.261-1.042,6.916
			c-2.69,2.475-4.589-2.96-4.825-4.664c-0.314-2.268,0.023-6.031,2.316-7.25C86.835,149.126,84.922,148.902,84.275,149.246
			L84.275,149.246z"/>
	</g>
</g>
<g>
	<g>
		<path fill="#FFFFFF" d="M94.27,161.194c-0.037-0.005-0.074-0.01-0.111-0.015c0.15,0.051,0.3,0.103,0.45,0.154
			c0.064,0.16,0.076,0.168,0.034,0.024c-0.008-0.053-0.009-0.106-0.005-0.16c-0.006-1.102-2.155-0.764-2.15,0.17
			c0.004,0.748,0.227,1.235,1.04,1.346c0.499,0.068,1.153-0.172,1.385-0.646C95.148,161.584,94.703,161.253,94.27,161.194
			L94.27,161.194z"/>
	</g>
</g>
<g>
	<g>
		<path fill="#FFFFFF" d="M58.089,163.913c-0.07,0.623-0.151,1.241-0.297,1.852c-0.128,0.538,0.609,0.767,0.994,0.742
			c0.538-0.036,1.036-0.347,1.164-0.884c0.146-0.61,0.228-1.229,0.297-1.852C60.374,162.638,58.202,162.906,58.089,163.913
			L58.089,163.913z"/>
	</g>
</g>
<g>
	<g>
		<path fill="#FFFFFF" d="M754.78,138.815c-0.49,3.25-1.529,6.389-2.062,9.634c-0.343,2.098-0.624,4.904,0.95,6.596
			c0.636,0.683,2.404,0.014,2.947-0.491c1.472-1.37,2.047-3.529,2.9-5.293c-0.703,0.158-1.407,0.315-2.11,0.473
			c0.22,1.499,0.38,4.195,2.092,4.821c0.905,0.331,2.396-0.396,2.935-1.102c1.555-2.04,2.048-4.989,2.796-7.412
			c0.654-2.121,1.533-4.905,0.543-7.042c-0.24-0.518-2.291,0.21-2.125,0.569c1.285,2.774-0.365,6.445-1.246,9.141
			c-0.534,1.633-0.9,3.295-1.803,4.778c0.474,0.13,0.449-0.033-0.074-0.49c-0.158-0.302-0.288-0.616-0.392-0.94
			c-0.339-0.92-0.46-1.93-0.601-2.893c-0.073-0.499-1.943,0.127-2.11,0.473c-0.628,1.298-1.148,2.641-1.838,3.91
			c-0.184,0.334-0.397,0.647-0.643,0.94c0.863,0.041,0.969-0.203,0.317-0.732c-0.543-0.892-0.61-2.013-0.65-3.023
			c-0.166-4.21,1.676-8.363,2.298-12.486C756.941,138.003,754.878,138.168,754.78,138.815L754.78,138.815z"/>
	</g>
</g>
<g>
	<g>
		<path fill="#FFFFFF" d="M768.414,140.223c-0.537,2.531-0.979,5.084-1.319,7.649c-0.228,1.718-0.991,4.961,0.197,6.503
			c0.555,0.721,2.588-0.086,1.951-0.911c-1.042-1.353-0.128-4.833,0.074-6.357c0.314-2.371,0.747-4.732,1.243-7.071
			C770.771,139.04,768.604,139.331,768.414,140.223L768.414,140.223z"/>
	</g>
</g>
<g>
	<g>
		<path fill="#FFFFFF" d="M773.762,139.884c-0.973,4.737-1.105,9.572-1.702,14.36c-0.124,0.995,2.034,0.654,2.141-0.205
			c0.597-4.788,0.729-9.623,1.702-14.36C776.1,138.721,773.937,139.031,773.762,139.884L773.762,139.884z"/>
	</g>
</g>
<g>
	<g>
		<path fill="#FFFFFF" d="M768.082,147.897c1.558-0.026,3.119-0.123,4.571-0.738c0.153-0.065,0.946-0.423,0.606-0.703
			c-0.33-0.273-1.044-0.08-1.384,0.063c-0.917,0.389-1.93,0.366-2.911,0.382c-0.463,0.008-1.095,0.176-1.414,0.537
			C767.218,147.813,767.837,147.902,768.082,147.897L768.082,147.897z"/>
	</g>
</g>
<g>
	<g>
		<path fill="#FFFFFF" d="M776.91,140.73c-0.074,2.286,0.67,5.914,3.561,6.147c3.194,0.258,4.176-2.755,4.159-5.412
			c-0.711,0.131-1.421,0.262-2.132,0.393c0.272,2.373,0.33,4.773,0.164,7.156c-0.091,1.318-0.282,2.678-0.752,3.919
			c-0.579,1.534-1.334,1.534-2.657,0.715c-0.686-0.424-2.612,0.537-1.666,1.122c7.919,4.9,7.513-9.327,7.036-13.482
			c-0.092-0.804-2.136-0.35-2.132,0.393c0.006,0.907-0.019,4.535-1.705,3.589c-1.543-0.865-1.788-3.218-1.737-4.757
			C779.081,139.516,776.938,139.906,776.91,140.73L776.91,140.73z"/>
	</g>
</g>
<g>
	<g>
		<path fill="#FFFFFF" d="M796.426,142.861c-0.21,4.154-1.057,8.233-1.445,12.369c-0.069,0.745,1.9,0.17,2.109-0.326
			c1.691-4.018,0.813-8.492,1.479-12.699c-0.706,0.149-1.411,0.298-2.117,0.448c1.652,4.16,1.96,8.764,4.533,12.532
			c0.312,0.455,1.921-0.078,2.05-0.549c1.021-3.738,1.051-7.602,1.515-11.426c0.082-0.683-2.037-0.266-2.109,0.326
			c-0.463,3.825-0.492,7.689-1.515,11.426c0.684-0.183,1.366-0.366,2.05-0.549c-2.514-3.679-2.785-8.268-4.398-12.33
			c-0.225-0.565-2.033-0.083-2.117,0.448c-0.666,4.211,0.211,8.686-1.479,12.699c0.703-0.109,1.406-0.217,2.109-0.326
			c0.396-4.218,1.247-8.376,1.461-12.612C798.574,141.832,796.462,142.142,796.426,142.861L796.426,142.861z"/>
	</g>
</g>
<g>
	<g>
		<path fill="#FFFFFF" d="M808.224,142.691c-2.767,2.65-4.125,7.821-2.226,11.276c1.604,2.919,5.756,2.313,7.617,0.146
			c3.363-3.916,2.634-15.06-4.608-12.472c-1.247,0.446-0.923,1.799,0.359,1.341c4.998-1.787,4.244,7.141,3.085,9.619
			c-1.274,2.725-4.07,2.144-4.951-0.637c-0.885-2.791,0.421-6.755,2.479-8.729C810.925,142.331,808.85,142.091,808.224,142.691
			L808.224,142.691z"/>
	</g>
</g>
<g>
	<g>
		<path fill="#FFFFFF" d="M818.903,143.339c2.35-0.235,4.639,0.344,6.974,0.509c0.146-0.55,0.291-1.101,0.436-1.65
			c-7.493-0.265-6.677,7.052-7.908,12.367c-0.255,1.099,1.928,0.871,2.16-0.133c0.495-2.135,0.626-4.321,0.983-6.479
			c0.456-2.752,1.695-4.196,4.604-4.094c1.02,0.036,1.712-1.561,0.436-1.65c-2.523-0.178-4.986-0.785-7.524-0.53
			C817.839,141.8,817.461,143.483,818.903,143.339L818.903,143.339z"/>
	</g>
</g>
<g>
	<g>
		<path fill="#FFFFFF" d="M832.754,145.676c-0.524-1.911,1.089-1.912,2.351-1.084c0.784,0.514,1.047,1.39,0.776,2.259
			c-0.414,1.327-1.854,2.479-3.115,2.947c-0.337,0.125-0.883,0.375-0.878,0.823c0.011,0.863,0.24,1.514,0.698,2.243
			c0.525,0.835,2.546,0.013,1.943-0.946c-0.334-0.425-0.496-0.907-0.485-1.448c-0.293,0.274-0.585,0.549-0.878,0.823
			c2.607-0.967,6.212-3.848,4.536-6.96c-1.792-3.328-8.259-2.409-7.073,1.913C830.905,147.252,833.029,146.681,832.754,145.676
			L832.754,145.676z"/>
	</g>
</g>
<g>
	<g>
		<path fill="#FFFFFF" d="M832.845,156.057c-0.002,0.187,0.008,0.354,0.074,0.528c0.045,0.094,0.091,0.187,0.138,0.279
			c0.116,0.227-0.084,0.041,0.039-0.081c0.232-0.137,0.464-0.273,0.695-0.409c-0.122,0.024,0.357-0.055,0.097-0.02
			c-0.22,0.029,0.093,0.015,0.136,0.032c0.119,0.08,0.238,0.16,0.357,0.24c0.073,0.152,0.059,0.123-0.045-0.086
			c0.034,0.077,0.033,0.068-0.003-0.027c-0.018-0.055-0.032-0.109-0.044-0.165c-0.039-0.167-0.01,0.064-0.062,0.141
			c-0.612,0.164-1.224,0.328-1.835,0.492c-0.054-0.063-0.108-0.125-0.162-0.188c0.036,0.092,0.069,0.185,0.099,0.278
			c0.319,0.952,2.438,0.362,2.125-0.569c-0.087-0.259-0.169-0.575-0.419-0.728c-0.623-0.381-1.453-0.074-1.835,0.492
			c-0.175,0.26-0.05,0.704,0.066,0.965c0.107,0.199,0.121,0.235,0.041,0.107c0.021,0.129,0.176,0.287,0.277,0.354
			c0.269,0.179,0.622,0.206,0.935,0.192c0.577-0.024,1.031-0.188,1.45-0.603c0.242-0.24,0.275-0.559,0.248-0.875
			c-0.017-0.183-0.225-0.34-0.223-0.521C835.007,154.789,832.854,155.125,832.845,156.057L832.845,156.057z"/>
	</g>
</g>
</svg>
