<?xml version="1.0" encoding="utf-8"?>
<!-- Generator: Adobe Illustrator 15.1.0, SVG Export Plug-In . SVG Version: 6.00 Build 0)  -->
<!DOCTYPE svg PUBLIC "-//W3C//DTD SVG 1.1//EN" "http://www.w3.org/Graphics/SVG/1.1/DTD/svg11.dtd">
<svg version="1.1" id="Layer_1" xmlns="http://www.w3.org/2000/svg" xmlns:xlink="http://www.w3.org/1999/xlink" x="0px" y="0px"
	 width="146.507px" height="196px" viewBox="710.493 85.5 146.507 196" enable-background="new 710.493 85.5 146.507 196"
	 xml:space="preserve">
<g>
	<g>
		<path fill="#82786F" d="M803.794,183.573c0,0-1.739,2.634,0.265,3.894c2.005,1.26,5.985,10.855,6.019,11.159
			c0.03,0.304,0.011,4.528,2.678,3.544C815.422,201.188,817.343,187.364,803.794,183.573"/>
	</g>
	<g>
		<path fill="#82786F" d="M727.814,137.313c0,0-0.189,2.869,7.587,3.229c7.777,0.36,9.232,0.924,10.081-1.132
			C746.329,137.354,727.814,137.313,727.814,137.313"/>
	</g>
	<g>
		<path fill="#83B1B1" d="M805.828,186.46l-28.172,13.377l-36.031-51.758l3.425-17.649c0,0-6.982,4.829-15.245,6.665
			c0,0-0.141,6.719-3.117,14.583c-2.974,7.864-5.832,16.612-6.714,20.791c-0.881,4.18-3.243,12.338-8.197,21.024
			c-4.953,8.687-9.57,27.099-13.439,32.059c-3.874,4.958-9.485,15.095-22.466,13.804c0,0,0.446,3.303,5.146,8.416
			c4.697,5.113,6.157,8.551,13.137,7.375c0,0-2.543,2.228-2.49,7.437c0,0,3.561-1.203,10.439,4.099
			c6.878,5.303,13.282,8.914,13.282,8.914s3.496-7.42,11.103-15.525c7.604-8.108,13.552-14.871,17.403-21.521
			c3.854-6.648,16.472-15.627,29.562-22.475s31.762-15.242,31.762-15.242s2.531-2.581,7.376-1.763
			C812.59,199.07,819.818,176.354,805.828,186.46"/>
	</g>
	<g>
		<path fill="#759B9A" d="M729.704,139.272c0,0,7.38-2.501,13.081,2.827l3.233-9.862c0,0-14.524-6.229-15.167-0.441
			C730.211,137.583,729.704,139.272,729.704,139.272"/>
	</g>
	<g>
		<path fill="#9BC9C7" d="M789.231,201.484c-5.485,1.918-10.854,4.176-16.062,6.75c-3.754,1.856-7.618,3.931-11.806,3.924
			c1.646-2.59,3.453-5.319,6.266-6.547c1.739-0.758,3.702-0.857,5.468-1.553c1.271-0.502,2.416-1.301,3.724-1.699
			c1.306-0.396,2.918-0.28,3.773,0.781"/>
	</g>
	<g>
		<path fill="#9BC9C7" d="M713.742,258.46c1.143-1.883,2.216-3.955,2.822-6.078c0.171-0.438,0.303-0.896,0.405-1.354
			c1.707-7.516-1.756-15.575,0.35-22.989c-1.791,2.489-2.875,5.481-3.095,8.543c-0.143,1.989,0.064,4.052-0.618,5.927
			c-0.59,1.617-1.801,2.959-2.345,4.594c-0.111,0.336-0.187,0.681-0.244,1.026c-1.062,1.259-2.495,2.175-3.957,2.959
			c-3.597,1.926-7.537,3.202-11.582,3.749c-0.527,0.07-1.077,0.139-1.519,0.434c-0.45,0.307-0.723,0.807-0.976,1.287
			c-0.517,0.978-1.041,1.987-1.167,3.088c-0.126,1.1,0.234,2.328,1.165,2.928c0.812,0.521,1.844,0.471,2.803,0.566
			c4.968,0.498,8.386,5.123,12.841,7.379C708.717,266.095,711.444,262.238,713.742,258.46"/>
	</g>
	<g>
		<path fill="#759B9A" d="M804.213,187.27c0,0,7.577,3.262,5.863,11.356l2.919-0.075l-1.448-14.681L804.213,187.27z"/>
	</g>
	<g>
		<path fill="#F4C09D" d="M720.36,181.332l3.398-7.906c0,0-3.9-3.278-0.06-7.299c3.841-4.022,6.138,0.063,6.138,0.063
			s4.082-4.08,5.806-7.931c1.727-3.849,14.309-25.238,38.516-5.402c24.21,19.836,10.206,28.968,5.084,35.931
			s-6.747,8.327-6.572,8.935c0.174,0.606,5.971,3.489,3.28,7.195c-2.689,3.707-8.599-0.384-8.599-0.384l-6.604,8.237
			c0,0-15.925-4.127-24.905-11.27C722.139,190.601,720.36,181.332,720.36,181.332"/>
	</g>
	<g>
		<path fill="#FFD0B0" d="M773.411,189.933c0.792-1.29,1.574-2.655,1.699-4.164c0.232-2.813-1.821-5.248-3.78-7.282
			c-6.645-6.895-13.927-13.475-22.731-17.241c-2.1-0.899-4.373-1.64-6.636-1.328c-4.268,0.586-7.101,4.583-9.403,8.222
			l-10.286,16.255c-0.13,0.204-0.264,0.419-0.285,0.661c-0.034,0.34,0.155,0.659,0.341,0.947
			c7.31,11.408,18.321,20.657,31.271,24.638c0.652,0.2,1.347,0.391,2.008,0.226c0.641-0.158,1.154-0.62,1.635-1.072
			C763.477,203.924,768.929,197.228,773.411,189.933 M752.14,171.727c-0.99,0.289-1.918,1.231-2.832,1.726
			c-1.024,0.554-2.151,0.951-3.331,0.882c-2.003-0.119-3.91-1.237-4.481-3.202c-0.01-0.019-0.021-0.037-0.029-0.055
			c0.003-0.001,0.006-0.002,0.008-0.003c-0.008-0.032-0.023-0.06-0.029-0.091c-0.03-0.117-0.005-0.21,0.051-0.277
			c-0.173-0.438-0.284-0.897-0.271-1.405c0.049-1.789,1.196-3.208,2.332-4.479c-0.07-0.176-0.024-0.394,0.205-0.478
			c2.386-0.859,5.347-0.476,7.155,1.41c1.414,1.474,2.355,3.716,1.496,5.69c-0.012,0.026-0.03,0.042-0.044,0.062
			C752.339,171.604,752.271,171.688,752.14,171.727 M767.824,188.432c-0.115,0.075-0.232,0.076-0.334,0.041
			c-1.979,0.922-4.658,0.891-6.286-0.074c-2.943-1.747-2.751-5.577-1.575-8.355c0-0.021-0.008-0.04-0.006-0.064
			c0.11-1.005,0.537-2.104,1.422-2.674c0.791-0.507,1.638-0.3,2.312,0.229c1.253,0.165,2.425,0.944,3.389,1.976
			c1.614,1.162,3.102,2.931,3.289,4.846c0.421,0.672,0.679,1.44,0.23,2.182C769.739,187.412,768.646,187.894,767.824,188.432"/>
	</g>
	<g>
		<path fill="#D6A380" d="M742.561,150.63c-1.589,2.584,6.142,0.072,8.813,1.506c-0.355,0.53-0.712,1.062-1.065,1.592
			c2.886,1.044,5.803,2.012,8.74,2.899c0.496,0.149,1.027,0.296,1.521,0.142c0.422-0.132,0.745-0.467,1.049-0.789
			c0.982-1.041,1.966-2.082,2.951-3.122c3.979,4.131,10.28,5.935,13.105,10.924c0.739,1.309,1.16,3.028,0.299,4.259
			c-0.329,0.474-0.84,0.866-0.932,1.436c-0.118,0.738,0.509,1.358,1.028,1.895c1.225,1.263,2.129,2.832,2.611,4.524
			c0.347,1.214,0.519,2.568,1.403,3.465c0.897,0.908,2.446,1.074,3.517,0.377c1.066-0.699,1.537-2.186,1.066-3.37
			c0,0-1.013-12.674-14.371-21.123C758.94,146.797,745.612,145.669,742.561,150.63"/>
	</g>
	<g>
		<path fill="#565C56" d="M737.37,154.41c0,0,13.575-22.544,29.456-28.307c0,0,15.88-2.337,29.133,19.178
			c13.252,21.515,3.948,32.409,3.948,32.409s-11.504,18.826-23.865,23.141l-3.371-3.108l14.227-19.341
			c0,0,1.356-11.794-14.599-23.135c-17.021-12.098-27.639-6.844-27.639-6.844S736.688,157.667,737.37,154.41"/>
	</g>
	<g>
		<path fill="#434943" d="M783.129,160.111l-6.294,6.722c0,0,5.891,1.52,7.01,9.651c0,0,1.95,0.057,3.615-3.231
			C789.129,169.966,790.265,163.034,783.129,160.111"/>
	</g>
	<g>
		<path fill="#434943" d="M766.072,147.89l-6.62,6.611l-10.543-2.868C748.909,151.633,756.72,139.883,766.072,147.89"/>
	</g>
	<g>
		<path fill="#FFFFFF" d="M738.367,177.833c0,0,11.008,13.324,22.62,18.293c0,0-2.36,10.487-15.963,3.894
			c-8.972-5.399-10.405-8.92-10.405-8.92S735.195,182.045,738.367,177.833"/>
	</g>
	<g>
		<path fill="#747A74" d="M760.373,130.489c-2.086,1.976-4.121,4.009-6.002,6.183c-0.495,0.572-1.008,1.228-0.978,1.982
			c0.034,0.823,0.735,1.494,1.511,1.767c0.774,0.274,1.622,0.241,2.444,0.23c4.021-0.053,8.05,0.542,11.883,1.756
			c1.738,0.549,3.575,1.34,4.456,2.937c0.398,0.719,0.565,1.543,0.893,2.298c1.317,3.044,4.824,4.345,7.883,5.632
			c2.775,1.168,5.487,2.595,7.707,4.631c2.221,2.037,3.928,4.742,4.331,7.727c0.181,1.336,0.104,2.718,0.508,4.003
			c0.402,1.286,1.487,2.508,2.834,2.481c1.565-0.031,2.593-1.632,3.132-3.101c1.535-4.181,1.483-8.924-0.145-13.07
			c0,0-4.001-17.596-18.885-25.562c-14.886-7.967-15.119-4.279-15.119-4.279S762.054,128.899,760.373,130.489"/>
	</g>
	<g>
		<path fill="#B5A38C" d="M727.486,127.316c0,0,8.764-5.991,21.765,3.8l-4.433,8.375l-3.247-1.657l1.9-5.655
			c0,0-3.4,3.465-4.728,5.007c0,0-5.604-2.145-10.718-0.151C728.027,137.036,726.814,129.773,727.486,127.316"/>
	</g>
	<g>
		<path fill="#B5A38C" d="M807.516,179.431l-3.58,4.933l3.483,2.102l3.665-2.479l-2.422,3.424c0,0,7.16,4.006,3.48,13.996
			l8.668-1.14c0,0,5.24-6.626-1.306-14.981C813.481,178.79,807.516,179.431,807.516,179.431"/>
	</g>
	<g>
		<path fill="#D6A380" d="M732.379,198.307l-2.948,2.574c0,0-3.294-1.6-4.613-0.062c-1.324,1.539,2.318,6.173,2.318,6.173
			s4.186,3.448,0.897,7.756c0,0,5.188-2.063,9.031-0.017c3.844,2.049,6.223,2.531,7.158,0.805c0.938-1.729,0.869-4.161-0.979-4.715
			l1.331-3.234L732.379,198.307z"/>
	</g>
	<g>
		<path fill="#759B9A" d="M728.533,214.375c0.284-1.291,0.572-2.604,0.468-3.922c-0.102-1.317-0.652-2.664-1.737-3.42
			c-1.758-1.225-4.223-0.512-5.996,0.691c-0.96,0.648-1.849,1.451-2.39,2.479c-0.539,1.025-0.687,2.303-0.181,3.347
			c0.817-1.471,1.934-2.829,3.422-3.612s3.396-0.899,4.818-0.002c1.423,0.896,2.13,2.914,1.312,4.385
			c1.685-0.539,3.588-0.549,5.164,0.25c1.579,0.799,2.746,2.481,2.673,4.25c-0.075,1.826-1.381,3.378-2.837,4.483
			c0.663,0.941,2.033,1.207,3.107,0.79c1.07-0.419,1.851-1.398,2.273-2.469c0.423-1.068,0.533-2.234,0.604-3.385
			c0.025-0.443,0.049-0.897-0.063-1.328c-0.272-1.042-1.261-1.73-2.24-2.18C734.319,213.535,731.238,213.402,728.533,214.375"/>
	</g>
	<g>
		<path fill="#9BC9C7" d="M748.095,215.295c0.136-0.396,0.235-0.816,0.49-1.148c0.255-0.336,0.726-0.553,1.101-0.369
			c0.353,0.173,0.479,0.604,0.541,0.988c0.602,3.69-1.524,7.498-4.688,9.487c-3.166,1.99-7.165,2.339-10.83,1.601
			c2.088-1.166,3.736-3.098,4.565-5.342c0.153-0.416,0.338-0.898,0.761-1.027c0.236-0.071,0.492-0.01,0.733,0.039
			C743.787,220.13,747.107,218.212,748.095,215.295"/>
	</g>
	<g>
		<path fill="#9BC9C7" d="M721.16,205.245c0.083,0.178,0.199,0.344,0.229,0.537c0.049,0.323-0.16,0.626-0.356,0.887
			c-1.768,2.332-3.531,4.666-5.297,6.999c0.095-4.396,1.633-8.75,4.32-12.23c0.334-0.434,0.886-0.896,1.359-0.625
			c0.419,0.236,0.394,0.845,0.252,1.304C721.347,203.152,720.703,204.259,721.16,205.245"/>
	</g>
	<g>
		<path fill="#FFD0B0" d="M745.546,162.223c0,0,6.071-5.821,10.474-1.905c4.403,3.917-2.604,10.115-2.604,10.115
			S752.359,163.332,745.546,162.223"/>
	</g>
	<g>
		<path fill="#FFD0B0" d="M765.729,172.963c0,0,12.207-4.161,8.316,8.879C774.045,181.842,765.362,176.142,765.729,172.963"/>
	</g>
	<g>
		<path fill="#759B9A" d="M720.081,191.669c-0.054,0.146-0.109,0.297-0.101,0.452c0.01,0.169,0.092,0.323,0.175,0.471
			c1.071,1.913,2.379,3.695,3.878,5.294c1.952-1.239,4.621-1.234,6.565,0.014c0.199,0.127,0.509,0.24,0.62,0.035
			c-3.35-3.173-6.316-6.75-8.815-10.632C721.26,188.508,720.655,190.112,720.081,191.669"/>
	</g>
	<g>
		<path fill="#759B9A" d="M729.588,200.963c0.157-0.033,0.288-0.132,0.413-0.23c0.646-0.521,1.198-1.153,1.624-1.863
			c0.034-0.057,0.068-0.114,0.068-0.179c0.001-0.077-0.04-0.146-0.083-0.208c-0.989-1.455-2.977-2.145-4.653-1.612
			c0.249,0.661,0.5,1.322,0.752,1.983c0.278,0.737,0.598,1.527,1.265,1.952C729.155,200.92,729.375,201.007,729.588,200.963"/>
	</g>
	<g>
		<path fill="#759B9A" d="M744.375,207.803c-0.289,0.582-0.544,1.182-0.766,1.791c-0.093,0.256-0.178,0.524-0.135,0.791
			c0.095,0.586,0.772,0.961,0.82,1.551c1.909-0.707,4.147-0.463,5.86,0.64c-0.161-1.045-0.37-2.181-1.167-2.876
			c-0.324-0.282-0.722-0.467-1.11-0.646c-1.021-0.472-2.046-0.943-3.067-1.416c-0.073-0.033-0.155-0.068-0.235-0.05
			C744.476,207.611,744.421,207.712,744.375,207.803"/>
	</g>
	<g>
		<path fill="#759B9A" d="M755.457,216.453c-0.188,0.107-0.418,0.102-0.632,0.088c-1.352-0.092-2.684-0.412-3.924-0.945
			c-0.156-2.066-0.832-4.093-1.944-5.841c1.161,0.106,2.215,0.687,3.271,1.181c1.865,0.869,3.844,1.5,5.868,1.868
			c-0.764,1.095-1.527,2.188-2.295,3.282C755.705,216.227,755.604,216.369,755.457,216.453"/>
	</g>
	<g>
		<path fill="#759B9A" d="M766.821,204.756c0.263-0.104,0.547,0.057,0.782,0.21c0.644,0.421,1.285,0.841,1.928,1.261
			c-0.323,0.918-1.096,1.668-2.022,1.969c-0.929,0.299-1.991,0.14-2.791-0.418c0.576-0.881,1.152-1.764,1.728-2.645
			C766.544,204.98,766.653,204.82,766.821,204.756"/>
	</g>
	<g>
		<path fill="#759B9A" d="M722.407,172.146c-0.645,0.493-1.037,1.297-1.033,2.109c0.006,0.812,0.409,1.611,1.061,2.095
			c0.803-0.891,1.39-1.974,1.701-3.131c-0.589-0.345-1.062-0.876-1.336-1.5"/>
	</g>
	<g>
		<path fill="#759B9A" d="M717.188,226.396c1.58-2.054,3.907-3.396,5.664-5.299c-3.203,4.172-6.062,7.473-8.625,15.482
			C714.845,233.824,715.464,228.634,717.188,226.396"/>
	</g>
	<g>
		<path fill="#759B9A" d="M710.493,248.455c-1.182,1.66-2.388,3.344-3.998,4.591c-1.591,1.229-3.497,1.97-5.374,2.69
			c-2.754,1.062-5.606,2.142-8.557,2.021c0.442-0.597,0.886-1.195,1.327-1.792c0.261-0.354,0.533-0.714,0.916-0.928
			c0.38-0.209,0.825-0.249,1.257-0.281c1.922-0.136,4.32-0.667,6.204-1.071c1.886-0.406,4.631-1.492,5.956-2.892"/>
	</g>
	<g>
		<path fill="#C69777" d="M743.065,209.693c0.438-0.697,0.876-1.396,1.312-2.096c-4.05-2.59-7.977-5.369-11.765-8.332
			c-0.133-0.103-0.283-0.213-0.45-0.198c-0.19,0.016-0.325,0.178-0.453,0.319c-0.446,0.503-1.035,0.882-1.682,1.077
			c2.697,4.46,6.978,7.935,11.894,9.66c0.202,0.071,0.418,0.138,0.622,0.077C742.781,210.133,742.933,209.905,743.065,209.693"/>
	</g>
	<g>
		<path fill="#DACDBC" d="M732.64,127.152c-1.018,0.083-2.134,0.276-2.781,1.066c-0.489,0.599-0.603,1.41-0.693,2.179
			c-0.084,0.687-0.166,1.372-0.249,2.058c-0.096,0.789-0.116,1.751,0.548,2.188c0.438,0.287,1.007,0.221,1.525,0.161
			c2.534-0.291,5.118-0.159,7.61,0.393c0.367,0.081,0.754,0.171,1.116,0.075c0.335-0.087,0.607-0.321,0.866-0.546
			c0.948-0.825,1.896-1.647,2.846-2.47c-0.104,1.076-0.205,2.152-0.307,3.229c-0.046,0.49-0.038,1.093,0.389,1.338
			c0.517,0.294,1.118-0.204,1.479-0.678c0.783-1.03,1.431-2.163,1.924-3.36c0.089-0.215,0.174-0.446,0.134-0.674
			c-0.044-0.246-0.227-0.443-0.403-0.619C743.054,127.95,737.665,126.752,732.64,127.152"/>
	</g>
	<g>
		<path fill="#DACDBC" d="M819.649,186.274c0.837,0.97,1.572,2.074,1.862,3.323c0.295,1.272,0.108,2.604-0.14,3.888
			c-0.244,1.27-0.574,2.584-1.435,3.55c-0.857,0.967-2.399,1.443-3.477,0.729c-0.87-0.575-1.173-1.688-1.426-2.7
			c-0.818-3.301-1.87-6.726-4.308-9.099c-0.126-0.122-0.262-0.251-0.293-0.423c-0.103-0.535,0.822-0.976,0.545-1.442
			c-0.777,0.319-1.61,0.503-2.45,0.542c-0.54,0.024-1.149-0.044-1.492-0.464c-0.535-0.658-0.055-1.625,0.43-2.323
			c0.241-0.347,0.497-0.708,0.871-0.905c0.463-0.243,1.019-0.192,1.535-0.111C813.635,181.429,817.163,183.392,819.649,186.274"/>
	</g>
	<g>
		<path fill="#9BC9C7" d="M711.589,238.26L711.589,238.26c0.506-3.13,0.462-7.254,1.624-10.268c1.161-3.014,3.109-5.848,5.942-7.398
			c0.412-0.226,0.848-0.449,1.119-0.836c0.271-0.387,0.263-1.018-0.144-1.258c-0.312-0.188-0.714-0.077-1.055,0.045
			c-1.97,0.702-3.87,1.598-5.665,2.67c-1.341,0.803-2.662,1.736-3.491,3.061c-0.757,1.203-1.05,2.633-1.618,3.935
			c-1.175,2.696-3.604,4.802-6.431,5.604c-0.423,0.02-0.848,0.025-1.271,0.002c-2.777-0.135-5.661-1.094-8.264-0.108
			c-1.434,0.545-2.585,1.619-3.83,2.511c-3.691,2.649-8.461,3.745-12.939,2.977c0.097,0.455,0.214,0.904,0.346,1.352
			c5.639,9.709,18.523,12.59,28.494,8.319c1.958-0.968,3.824-2.154,5.332-3.744C711.045,243.087,711.669,240.643,711.589,238.26"/>
	</g>
	<g>
		<path fill="#9BC9C7" d="M739.352,142.443c1.017,0.419,2.047,1.052,2.439,2.076c0.364,0.949,0.096,2.039-0.411,2.92
			c-0.506,0.881-1.229,1.611-1.862,2.407c-2.014,2.53-3.073,5.661-4.325,8.642s-2.827,5.995-5.489,7.832
			c-0.393-1.691-2.014-3.016-3.749-3.062c1.683-6.845,3.779-13.588,6.276-20.18c0.181-0.477,0.385-0.982,0.805-1.272
			c0.372-0.258,0.849-0.299,1.301-0.308C736.048,141.466,737.767,141.789,739.352,142.443"/>
	</g>
	<g>
		<path fill="#9BC9C7" d="M806.059,194.409c-0.007,0.634-0.148,1.278-0.502,1.807c-0.407,0.612-1.056,1.018-1.696,1.379
			c-8.771,4.949-19.404,5.087-28.927,8.366c0.852-0.379,1.313-1.352,1.345-2.281c0.03-0.931-0.292-1.832-0.636-2.697
			c7.19-3.339,14.384-6.676,21.574-10.016c1.455-0.676,2.996-1.367,4.595-1.232C804.119,189.93,806.086,192.094,806.059,194.409"/>
	</g>
	<g>
		<path fill="#E5B595" d="M738.114,92.719c0,0,4.325-2.688,5.339-1.238c1.013,1.451,5.284,9.095,5.53,18.67
			c0,0,5.686-1.745,6.536-0.953c0.851,0.791,2.262,3.582-0.431,5.164c-2.689,1.582-4.018,1.738-5.032,4.409
			c-1.017,2.669-2.385,6.054-6.352,6.474l-0.495,2.309l-9.731-1.889c0,0,2.852-9.495,0.712-13.586
			c-1.609-6.028-4.884-7.465-6.279-8.931c-1.396-1.465-2.246-3.023-0.972-4.218c1.272-1.195,5.353-0.973,5.353-0.973
			s-2.331-3.168-0.877-4.762C732.871,91.603,733.242,90.615,738.114,92.719"/>
	</g>
	<g>
		<path fill="#FFD0B0" d="M750.963,117.651c0.542-1.232,1.261-2.385,2.111-3.429c1.663-0.497,2.938-1.604,2.396-3.273
			c-0.792-2.424-3.959-1.699-6.245-0.274c-0.169-0.108-0.351-0.191-0.544-0.166c-0.18,0.025-0.324,0.138-0.47,0.255
			c0.321-0.607,0.45-1.305,0.505-1.993c0.354-4.536-0.896-10.041-3.022-14.062c-0.822-1.557-1.97-3.324-3.729-3.367
			c-0.764-0.019-1.583,0.4-1.816,1.128c-0.237,0.739,0.167,1.516,0.562,2.187c1.778,3.029,3.677,6.188,4.149,9.622
			c0.004,0.18,0.011,0.361,0.012,0.552c0.005-0.079,0.009-0.156,0.011-0.237c0.043,0.379,0.084,0.76,0.088,1.146
			c0.002,0.18-0.033,0.404-0.084,0.646c-0.012-0.527-0.012-1.054-0.015-1.554c-0.087,1.268-0.539,2.309-1.106,1.604
			c-0.218-0.478-0.396-0.834-0.552-1.106c-0.626-2.797-1.087-5.119-2.524-7.941c-0.559-1.099-2.25-3.167-3.117-4.042
			c-0.87-0.876-2.035-1.52-3.27-1.522c-1.231-0.003-2.031,0.143-2.406,1.318c-0.357,1.119,0.603,1.757,1.369,2.647
			c0.767,0.889,1.312,2.123,2.24,2.843c2.462,1.911,3.938,5.075,4.98,8.044c-0.093,0.338-0.32,0.625-0.656,0.616
			c-0.2-0.005-0.382-0.119-0.552-0.228c-0.057-0.036-0.109-0.071-0.165-0.106c-0.308-0.618-0.687-1.208-1.07-1.782
			c-1.074-1.599-1.423-3.733-3.006-4.83c-1.063-0.735-2.114-1.899-3.327-2.346c-0.656-0.241-1.332-0.486-2.03-0.469
			c-0.699,0.018-1.437,0.357-1.721,0.996c-0.348,0.781,0.103,1.725,0.78,2.244c0.678,0.521,1.534,0.735,2.344,1.007
			c0.356,0.119,0.692,0.271,1.012,0.448l1.494,1.098c1.191,1.099,2.16,2.541,3.114,3.921c0.976,2.24,1.479,4.768,1.528,7.066
			c0.05,2.25-0.378,4.705,0.85,6.592c0.914,1.409,2.637,2.175,4.318,2.191c1.679,0.016,3.313-0.639,4.713-1.574
			c0.668-0.448,1.302-0.969,1.764-1.627C750.352,119.209,750.627,118.412,750.963,117.651"/>
	</g>
	<g>
		<path fill="#D6A380" d="M731.105,93.908c0,0-0.329,4.613,4.562,7.421l-3.961-3.333C731.708,97.997,730.975,95.142,731.105,93.908"
			/>
	</g>
	<g>
		<path fill="#C69777" d="M739.729,91.854c0,0-1.163,0.411,0.263,3.314l-2.423-1.827L739.729,91.854z"/>
	</g>
	<g>
		<path fill="#D6A380" d="M736.957,121.2c0,0-0.699,3.038,2.316,4.443c3.017,1.405,4.149,1.242,4.149,1.242l0.284-1.64
			C743.708,125.245,738.258,123.909,736.957,121.2"/>
	</g>
	<g>
		<path fill="#E5B595" d="M853.792,181.817c0,0,1.55-4.851-0.104-5.479c-1.652-0.628-10.108-2.904-19.455-0.806
			c0,0,0.305-5.939-0.672-6.57c-0.975-0.633-4.025-1.32-4.902,1.676c-0.877,2.996-0.705,4.321-3.046,5.957
			c-2.341,1.637-5.288,3.79-4.729,7.739l-2.119,1.044l4.207,8.976c0,0,8.513-5.082,13.003-4.005
			c6.237,0.088,8.432,2.912,10.193,3.908s3.479,1.439,4.326-0.088c0.849-1.526-0.362-5.428-0.362-5.428s3.642,1.488,4.83-0.312
			C856.153,186.629,857.021,186.029,853.792,181.817"/>
	</g>
	<g>
		<path fill="#FFD0B0" d="M826.479,175.444c1.062-0.828,2.003-1.806,2.811-2.884c0.075-1.735,0.838-3.243,2.588-3.124
			c2.544,0.176,2.615,3.424,1.792,5.99c0.146,0.137,0.271,0.292,0.292,0.484c0.021,0.181-0.054,0.35-0.132,0.519
			c0.51-0.461,1.154-0.756,1.811-0.976c4.312-1.451,9.955-1.582,14.373-0.501c1.711,0.418,3.705,1.097,4.177,2.795
			c0.204,0.736-0.003,1.632-0.65,2.037c-0.66,0.409-1.512,0.208-2.256-0.009c-3.372-0.986-6.899-2.057-10.347-1.676
			c-0.175,0.038-0.353,0.077-0.536,0.123c0.073-0.024,0.148-0.048,0.227-0.069c-0.378,0.052-0.757,0.104-1.133,0.195
			c-0.173,0.042-0.383,0.132-0.604,0.239c0.514-0.117,1.024-0.247,1.511-0.365c-1.209,0.393-2.108,1.085-1.284,1.464
			c0.517,0.095,0.903,0.181,1.206,0.265c2.864-0.077,5.229-0.195,8.315,0.509c1.203,0.273,3.622,1.41,4.684,2.038
			c1.062,0.629,1.971,1.602,2.273,2.797c0.303,1.194,0.355,2.005-0.689,2.655c-0.998,0.621-1.854-0.156-2.901-0.682
			c-1.053-0.527-2.38-0.753-3.305-1.479c-2.454-1.921-5.883-2.579-9.018-2.865c-0.306,0.172-0.527,0.461-0.438,0.785
			c0.055,0.195,0.209,0.343,0.356,0.48c0.046,0.044,0.096,0.088,0.144,0.133c0.675,0.146,1.338,0.371,1.988,0.604
			c1.812,0.651,3.968,0.468,5.419,1.736c0.973,0.851,2.357,1.587,3.086,2.653c0.395,0.576,0.797,1.173,0.95,1.854
			c0.153,0.683,0.006,1.479-0.545,1.911c-0.672,0.528-1.697,0.321-2.367-0.208c-0.672-0.53-1.088-1.31-1.549-2.028
			c-0.201-0.315-0.432-0.604-0.682-0.871l-1.429-1.18c-1.356-0.888-2.99-1.476-4.562-2.063c-2.41-0.399-4.983-0.272-7.227,0.241
			c-2.191,0.503-4.47,1.517-6.6,0.788c-1.59-0.544-2.753-2.027-3.179-3.653s-0.189-3.371,0.376-4.954
			c0.271-0.758,0.621-1.5,1.147-2.109C825.115,176.416,825.821,175.954,826.479,175.444"/>
	</g>
	<g>
		<path fill="#D6A380" d="M854.348,188.904c0,0-4.392,1.446-8.311-2.613l4.199,3.026
			C850.236,189.317,853.184,189.332,854.348,188.904"/>
	</g>
	<g>
		<path fill="#C69777" d="M854.235,180.042c0,0-0.114,1.228-3.277,0.553l2.362,1.905L854.235,180.042z"/>
	</g>
	<g>
		<path fill="#D6A380" d="M826.453,189.891c0,0-2.774,1.421-4.873-1.162c-2.099-2.581-2.217-3.72-2.217-3.72l1.521-0.676
			C820.884,184.334,823.511,189.292,826.453,189.891"/>
	</g>
	<g>
		<path fill="#AED6D3" d="M707.862,229.352c0.229-0.586,0.43-1.108,0.603-1.58c0.221-0.524,0.426-1.07,0.606-1.646
			c0.075-0.23,0.157-0.449,0.245-0.66c0.59-1.172,1.103-1.861,1.377-2.185c0.04-0.044,0.081-0.091,0.12-0.134
			c0.003-0.002,0.006-0.006,0.008-0.008c0.659-0.56,1.123-0.959,1.408-1.146c-2.124,1.259-3.188,2.725-3.766,4.062l0.004-0.021
			c0,0-0.006,0.018-0.015,0.041c-0.154,0.359-0.277,0.711-0.386,1.046c-0.428,1.085-1.15,2.726-1.98,3.761
			c-0.132,0.153-0.273,0.312-0.429,0.475c-0.184,0.168-0.311,0.295-0.396,0.386c-0.799,0.76-1.795,1.472-2.861,1.639
			c-2.486,0.39-4.893-0.412-6.508-0.078c0,0,3.342,0.449,4.88,0.743C702.314,234.337,705.988,234.117,707.862,229.352"/>
	</g>
	<g>
		<path fill="#AED6D3" d="M716.831,251.573c0,0-0.918,4.307-6.4,12.53c0,0,2.605-4.845,3.986-7.959
			c1.381-3.115,2.441-6.707,3.043-9.674C717.46,246.473,717.456,249.662,716.831,251.573"/>
	</g>
	<g>
		<path fill="#858C85" d="M775.052,146.789c0.696,1.725,2.019,3.141,3.522,4.237c1.504,1.095,3.195,1.901,4.876,2.699
			c-1.71-0.522-3.432-1.048-5.018-1.875c-1.586-0.826-3.044-1.978-3.962-3.513c-0.895-1.493-1.32-3.383-2.766-4.355
			c-0.458-0.308-0.986-0.495-1.506-0.678c-2.068-0.729-4.135-1.457-6.202-2.186c2.623,0.23,5.21,0.857,7.646,1.853
			c0.936,0.382,1.887,0.85,2.474,1.67C774.572,145.279,774.759,146.063,775.052,146.789"/>
	</g>
</g>
<g>
	<g>
		<path fill="#605D5B" d="M699.771,220.133c-4.915,5.252-9.369,11.006-13.658,16.773c-0.471,0.632,0.485,1.38,0.964,0.752
			c4.369-5.744,8.992-11.264,13.467-16.922C700.941,220.232,700.194,219.682,699.771,220.133"/>
	</g>
	<g>
		<path fill="#AD846F" d="M823.042,194.911c6.014-2.763,12.479-5.339,18.995-2.729c2.127,0.852,5.562,5.21,8.104,3.185
			c2.291-1.824,1.524-4.451,0.01-6.509c-2.294-3.12-6.177-4.4-9.859-4.834c-0.533-0.064-0.639,0.738-0.11,0.827
			c3.745,0.635,10.464,2.762,10.223,7.534c-0.188,3.658-3.728,1.218-5.542,0.073c-1.318-0.832-2.79-1.415-4.284-1.845
			c-6.074-1.749-12.471,0.662-17.876,3.449C822.188,194.327,822.5,195.16,823.042,194.911"/>
	</g>
	<g>
		<path fill="#AD846F" d="M820.776,183.916c-0.324,0.024-0.642,0.181-0.938,0.305c-0.312,0.127-0.617,0.262-0.906,0.434
			c-0.565,0.338-0.021,1.12,0.531,0.95c0.291-0.088,0.564-0.224,0.838-0.355c0.277-0.131,0.602-0.253,0.823-0.465
			C821.467,184.46,821.29,183.877,820.776,183.916"/>
	</g>
	<g>
		<path fill="#AD846F" d="M826.402,189.11c-2.249-0.605-3.681-2.256-4.417-4.398c-0.904-2.628,0.878-5.075,2.71-6.767
			c1.375-1.271,2.52-2.143,3.328-3.876c0.796-1.698,0.719-4.927,2.784-5.432c3.842-0.936,2.916,4.944,2.683,7.042
			c-0.062,0.536,0.745,0.646,0.831,0.11c0.375-2.327,1.161-6.792-1.704-8.016c-1.966-0.838-3.451,0.295-4.212,1.897
			c-1.38,2.907-0.399,4.336-3.284,6.722c-0.982,0.812-2.165,1.253-3.086,2.168c-1.223,1.214-1.705,2.544-1.646,4.257
			c0.121,3.43,2.356,6.642,5.743,7.293C826.703,190.225,826.979,189.266,826.402,189.11"/>
	</g>
	<g>
		<path fill="#AD846F" d="M833.924,176.244c2.811-1.51,7.266-1.045,10.338-0.951c3.526,0.109,12.258,0.223,9.09,6.425
			c-0.247,0.487,0.529,0.801,0.782,0.324c0.729-1.372,1.732-3.854,0.675-5.368c-0.926-1.327-3.834-1.673-5.273-1.938
			c-3.008-0.552-6.098-0.555-9.149-0.49c-2.381,0.051-4.866-0.181-6.829,1.34C833.231,175.84,833.532,176.455,833.924,176.244"/>
	</g>
	<g>
		<path fill="#AD846F" d="M849.453,189.059c1.552,0.51,3.669,1.776,5.104,0.672c1.459-1.124,2.088-3.319,1.36-4.987
			c-2.083-4.774-10.293-6.002-14.752-5.124c-0.601,0.119-0.496,1.057,0.117,0.953c3.217-0.545,7.012-0.023,9.981,1.344
			c1.817,0.836,6.421,4.244,2.995,6.629c-1.338,0.934-3.178-0.049-4.564-0.392C849.181,188.028,848.944,188.891,849.453,189.059"/>
	</g>
	<g>
		<path fill="#AD846F" d="M733.878,125.793c1.319-5.649,2.172-12.308-0.693-17.613c-0.771-1.434-6.859-7.33-6.049-8.66
			c0.876-1.438,3.444-1.374,4.749-0.796c1.317,0.583,2.267,1.436,3.225,2.451c1.491,1.581,2.562,3.431,3.438,5.419
			c0.217,0.491,0.967,0.194,0.774-0.31c-1.326-3.485-3.509-6.888-7.096-8.382c-2.376-0.988-5.076-1.093-6.116,1.651
			c-1.23,3.257,3.292,4.849,4.875,7.03c4.117,5.68,3.198,12.586,1.989,19.088C732.864,126.257,733.746,126.357,733.878,125.793"/>
	</g>
	<g>
		<path fill="#AD846F" d="M743.26,125.06c-0.175,0.328-0.214,0.749-0.286,1.111c-0.072,0.377-0.156,0.762-0.182,1.146
			c-0.034,0.574,0.867,0.92,1.051,0.283c0.116-0.396,0.179-0.801,0.239-1.208c0.058-0.389,0.162-0.815,0.104-1.207
			C744.113,124.68,743.481,124.646,743.26,125.06"/>
	</g>
	<g>
		<path fill="#587572" d="M729.396,200.305c-1.699-0.916-4.609-1.444-5.413,0.94c-0.764,2.267,1.148,4.864,2.841,6.146
			c0.521,0.394,1.143-0.398,0.627-0.805c-1.216-0.953-2.309-2.371-2.489-3.958c-0.311-2.694,2.535-2.051,4.09-1.492
			C729.605,201.336,729.903,200.576,729.396,200.305"/>
	</g>
	<g>
		<path fill="#587572" d="M742.818,211.145c1.759,0.777,2.085,3.739,0.095,4.472c-1.24,0.456-3.236,0.366-4.349-0.33
			c-0.631-0.394-1.351,0.472-0.726,0.932c1.7,1.257,5.429,1.363,6.901-0.35c1.549-1.804,0.692-4.91-1.582-5.544
			C742.623,210.176,742.279,210.908,742.818,211.145"/>
	</g>
	<g>
		<path fill="#997261" d="M731.972,198.083c-0.688,0.854-1.521,1.467-2.433,2.06c-0.883,0.577-1.676,1.256-2.775,1.303
			c-0.623,0.024-0.589,0.972-0.004,1.062c1.207,0.189,2.146-0.591,3.093-1.23c1.151-0.781,2.176-1.521,2.845-2.771
			C732.928,198.074,732.261,197.724,731.972,198.083"/>
	</g>
	<g>
		<path fill="#997261" d="M744.085,207.288c-0.947,1.62-2.45,3.758-1.688,5.712c0.287,0.739,1.425,0.282,1.142-0.457
			c-0.571-1.504,0.871-3.407,1.437-4.736C745.196,207.287,744.387,206.771,744.085,207.288"/>
	</g>
	<g>
		<path fill="#587572" d="M806.229,185.655c-10.003,5.24-20.007,10.22-30.381,14.688c-0.622,0.269-0.24,1.228,0.391,0.978
			c10.474-4.122,20.718-9.195,30.417-14.902C807.079,186.166,806.67,185.423,806.229,185.655"/>
	</g>
	<g>
		<path fill="#587572" d="M743.021,139.403c-0.983,2.343-1.789,4.932-2.12,7.458c-0.097,0.721,0.917,0.813,1.092,0.146
			c0.632-2.422,1.226-4.818,1.985-7.206C744.183,139.173,743.283,138.776,743.021,139.403"/>
	</g>
	<g>
		<path fill="#AD846F" d="M728.536,168.926c1.876-2.545,4.263-4.622,5.641-7.515c0.309-0.646-0.701-1.052-1.021-0.424
			c-1.421,2.781-3.775,4.842-5.313,7.534C727.611,168.921,728.269,169.29,728.536,168.926"/>
	</g>
	<g>
		<path fill="#DBDBDB" d="M752.355,196.138c-0.143-0.267,3.768,3.604,6.395,3.957l-1.056,1.354
			C757.694,201.448,754.752,200.605,752.355,196.138"/>
	</g>
	<g>
		<path fill="#373A37" d="M767.144,125.099c-14.853,7.229-27.186,20.602-33.896,35.625c-0.303,0.676,0.739,1.103,1.06,0.439
			c7.353-15.241,18.76-26.762,33.248-35.327C767.97,125.59,767.575,124.888,767.144,125.099"/>
	</g>
	<g>
		<path fill="#373A37" d="M767.361,125.978c11.074-0.208,20.145,8.531,26.21,16.947c6.604,9.164,10.048,20.257,7.802,31.498
			c-0.152,0.767,1.036,0.916,1.201,0.16c2.604-11.951-1.469-23.918-8.724-33.464c-6.292-8.278-15.501-16.759-26.607-16.109
			C766.605,125.046,766.744,125.988,767.361,125.978"/>
	</g>
	<g>
		<path fill="#373A37" d="M801.562,174.215c-3.599,4.841-6.762,9.849-10.967,14.226c-4.455,4.636-9.502,8.472-14.962,11.841
			c-0.753,0.464,0.069,1.547,0.816,1.098c10.451-6.307,20.422-15.644,25.883-26.715C802.559,174.207,801.862,173.81,801.562,174.215
			"/>
	</g>
	<g>
		<path fill="#373A37" d="M772.591,125.658c-3.458,1.747-6.557,4.108-9.401,6.722c-0.553,0.509,0.126,1.455,0.71,0.952
			c2.889-2.487,5.895-4.848,9.229-6.715C773.67,126.314,773.149,125.375,772.591,125.658"/>
	</g>
	<g>
		<path fill="#373A37" d="M775.85,126.674c-1.604,0.739-3.103,1.657-4.506,2.729c-0.675,0.516,0.117,1.578,0.787,1.058
			c1.311-1.017,2.701-1.878,4.186-2.619C777.032,127.484,776.591,126.331,775.85,126.674"/>
	</g>
	<g>
		<path fill="#373A37" d="M778.062,128.144c-2.485,1.319-4.84,2.889-7.063,4.609c-0.695,0.538,0.108,1.618,0.815,1.096
			c2.224-1.643,4.523-3.131,6.881-4.575C779.318,128.89,778.717,127.795,778.062,128.144"/>
	</g>
	<g>
		<path fill="#373A37" d="M783.016,159.69c-3.119,0.975-5.34,4.822-7.269,7.247c-0.464,0.583,0.072,1.288,0.725,1.277
			c3.999-0.076,6.263,5.718,6.893,8.93c0.137,0.692,1.089,0.559,1.073-0.131c-0.091-4.236-3.242-10.189-7.957-10.374
			c0.173,0.424,0.346,0.85,0.52,1.274c2.015-2.501,3.86-5.467,6.518-7.323C784.025,160.236,783.554,159.523,783.016,159.69"/>
	</g>
	<g>
		<path fill="#373A37" d="M783.054,160.396c6.821,3.376,6.594,12.144,0.651,16.339c-0.436,0.31-0.032,1.071,0.465,0.832
			c3.1-1.497,5.143-5.65,5.275-9.002c0.156-4.045-2.308-7.572-6.058-8.977C782.857,159.389,782.55,160.147,783.054,160.396"/>
	</g>
	<g>
		<path fill="#373A37" d="M766.506,147.437c-0.972-0.248-2.256,1.456-2.802,1.988c-1.497,1.465-2.991,2.987-4.242,4.671
			c-0.396,0.531,0.354,1.079,0.796,0.62c1.129-1.174,2.177-2.422,3.318-3.586c0.84-0.856,1.882-2.334,3.035-2.835
			C767.05,148.104,766.922,147.543,766.506,147.437"/>
	</g>
	<g>
		<path fill="#373A37" d="M766.598,147.217c-6.371-4.556-14.865-1.892-18.488,4.743c-0.196,0.36,0.193,0.835,0.581,0.761
			c3.758-0.714,7.198,0.762,10.549,2.294c0.65,0.298,1.08-0.733,0.428-1.029c-3.577-1.623-7.133-3.056-11.113-2.364
			c0.192,0.254,0.386,0.508,0.578,0.761c3.573-6.388,10.843-7.77,17.01-4.385C766.594,148.248,767.013,147.513,766.598,147.217"/>
	</g>
	<g>
		<path fill="#373A37" d="M751.991,147.149c-3.701-0.269-6.175-0.571-8.938,2.054c-3.062,2.908-5.973,5.92-8.495,9.313
			c-0.265,0.357,0.259,0.761,0.544,0.423c2.255-2.666,4.68-5.184,7.175-7.624c1.924-1.881,2.686-2.966,5.673-3.207
			c1.313-0.105,2.706,0.071,4.037,0.021C752.543,148.107,752.55,147.189,751.991,147.149"/>
	</g>
	<g>
		<path fill="#373A37" d="M763.44,150.797c5.223,3.666,11.712,6.137,15.331,11.646c0.508,0.774,1.606-0.079,1.142-0.85
			c-3.31-5.476-10.355-8.979-15.994-11.618C763.434,149.748,762.997,150.485,763.44,150.797"/>
	</g>
	<g>
		<path fill="#AD846F" d="M771.643,200.35c0.784-0.912,1.415-1.929,2.004-2.977c0.283-0.507-0.58-1.018-0.896-0.521
			c-0.618,0.978-1.179,1.976-1.836,2.93C770.579,200.271,771.253,200.802,771.643,200.35"/>
	</g>
	<g>
		<path fill="#587572" d="M731.713,197.762c-3.181-2.324-8.234-0.913-10.871,1.7c-3.191,3.164-6.875,10.729-5.491,15.259
			c0.156,0.514,1.011,0.293,0.91-0.232c-1.319-6.973,6.741-20.776,15.042-16.021C731.705,198.698,732.081,198.031,731.713,197.762"
			/>
	</g>
	<g>
		<path fill="#373A37" d="M786.552,174.827c0.129,0.622,0.195,1.254,0.146,1.889c-0.047,0.61-0.138,1.308-0.309,1.888
			c-0.144,0.49,0.516,0.785,0.744,0.309c0.354-0.731,0.562-1.335,0.589-2.161c0.024-0.74-0.072-1.444-0.272-2.155
			C787.306,174.088,786.443,174.307,786.552,174.827"/>
	</g>
	<g>
		<path fill="#373A37" d="M786.294,178.518c-4.499,5.844-8.635,11.959-13.183,17.777c-0.458,0.588,0.459,1.305,0.916,0.714
			c4.487-5.832,8.965-11.777,12.886-18.008C787.175,178.582,786.607,178.11,786.294,178.518"/>
	</g>
	<g>
		<path fill="#AD846F" d="M729.824,165.835c0.371,0.103,0.124-0.102-0.127-0.553c-0.373-0.674-0.937-1.424-1.659-1.749
			c-1.476-0.666-2.979,0.377-4.007,1.375c-2.138,2.075-3.943,7.096-0.079,8.498c0.632,0.229,1.009-0.676,0.4-0.963
			c-2.713-1.284-1.386-4.688,0.132-6.366c1.03-1.143,2.896-2.011,4.037-0.594c0.297,0.363,0.475,0.795,0.864,1.073
			c0.162,0.115,0.35,0.111,0.515,0.006c0.004-0.003,0.009-0.007,0.014-0.01C730.162,166.392,730.124,165.918,729.824,165.835"/>
	</g>
	<g>
		<path fill="#587572" d="M734.215,226.604c5.612,0.467,12.622-0.65,15.834-5.875c2.269-3.689,2.035-10.047-2.079-12.33
			c-0.567-0.315-1.141,0.652-0.582,0.996c4.306,2.647,3.456,9.502,0.274,12.567c-3.477,3.349-8.722,3.942-13.35,3.896
			C733.846,225.854,733.72,226.562,734.215,226.604"/>
	</g>
	<g>
		<path fill="#AD846F" d="M772.656,198.787c2.406,1.037,4.83,4.134,2.049,6.329c-1.765,1.394-5.608,1.085-6.857-0.95
			c-0.363-0.591-1.371-0.03-1.066,0.596c1.504,3.076,7.021,3.182,9.21,0.875c2.8-2.955,0.22-6.64-2.954-7.768
			C772.438,197.657,772.062,198.531,772.656,198.787"/>
	</g>
	<g>
		<path fill="#AD846F" d="M723.892,173.031c-1.894,2.023-3.038,5.062-3.872,7.658c-0.187,0.576,0.668,0.95,0.883,0.366
			c0.937-2.542,1.896-5.407,3.607-7.542C724.831,173.112,724.23,172.668,723.892,173.031"/>
	</g>
	<g>
		<path fill="#AD846F" d="M719.946,181.382c0.428,8.019,9.294,15.104,14.861,19.97c7.373,6.443,16.041,10.191,25.616,12.047
			c0.797,0.153,0.952-1.078,0.168-1.243c-8.849-1.882-16.971-5.026-23.938-10.931c-6.09-5.159-14.097-11.779-15.882-19.944
			C720.66,180.757,719.918,180.841,719.946,181.382"/>
	</g>
	<g>
		<path fill="#AD846F" d="M767.003,204.26c-2.028,2.912-4.46,5.428-6.71,8.154c-0.485,0.589,0.406,1.232,0.915,0.715
			c2.44-2.493,4.688-5.341,6.496-8.32C767.993,204.331,767.336,203.781,767.003,204.26"/>
	</g>
	<g>
		<path fill="#E0AA86" d="M760.962,176.429c-2.981,3.647-4.352,9.459,0.03,12.707c4.49,3.326,9.32-1.101,12.088-4.569
			c2.68-3.359,4.325-9.229,0.089-12.183c-4.536-3.164-9.196,0.875-12.279,3.989c-0.385,0.388,0.255,1.03,0.671,0.686
			c1.798-1.479,3.438-3.345,5.7-4.125c3.379-1.165,6.856,0.571,7.235,4.326c0.229,2.267-0.749,4.304-2.052,6.08
			c-2.119,2.889-5.696,6.732-9.557,5.301c-5.257-1.952-3.892-8.171-1.307-11.729C761.877,176.504,761.282,176.039,760.962,176.429"
			/>
	</g>
	<g>
		<path fill="#E0AA86" d="M752.646,170.765c-1.311,1.177-2.726,2.177-4.442,2.685c-2.931,0.864-7.142,0.244-6.362-4.64
			c0.397-2.497,4.209-6.735,6.206-7.968c1.445-0.895,3.32-1.479,5.04-1.188c4.521,0.767,3.271,4.877,1.678,7.558
			c-0.734,1.238-1.646,2.428-2.271,3.722c-0.187,0.382,0.339,0.797,0.666,0.519c2.423-2.062,6.184-7.656,3.938-10.831
			c-2.842-4.025-8.79-1.915-11.606,0.84c-2.573,2.517-7.233,8.311-3.788,11.827c3.366,3.435,8.739,0.866,11.526-1.927
			C753.562,171.028,752.998,170.447,752.646,170.765"/>
	</g>
	<g>
		<path fill="#AD846F" d="M760.984,177.478c5.113,0.206,8.487,3.706,9.229,8.633c0.107,0.726,1.159,0.583,1.122-0.14
			c-0.292-5.476-4.871-9.373-10.219-9.478C760.488,176.481,760.34,177.452,760.984,177.478"/>
	</g>
	<g>
		<path fill="#AD846F" d="M743.872,164.517c4.392-1.47,8.485,1.891,8.072,6.448c-0.068,0.763,1.098,0.93,1.187,0.159
			c0.633-5.463-4.499-9.354-9.594-7.441C742.994,163.887,743.328,164.698,743.872,164.517"/>
	</g>
	<g>
		<path fill="#AD846F" d="M738.059,178.061c5.654,8.186,13.925,14.122,22.729,18.544c0.598,0.301,0.989-0.655,0.397-0.959
			c-8.741-4.492-16.521-10.169-22.512-18.044C738.375,177.209,737.78,177.657,738.059,178.061"/>
	</g>
	<g>
		<path fill="#AD846F" d="M737.721,177.517c-2.84,3.807-3.373,8.915-3.622,13.513c-0.036,0.667,0.991,0.82,1.043,0.139
			c0.356-4.749,1.067-8.968,3.337-13.21C738.715,177.514,738.014,177.123,737.721,177.517"/>
	</g>
	<g>
		<path fill="#AD846F" d="M734.531,191.779c4.11,5.293,11.45,10.167,18.264,10.754c3.799,0.326,8.909-1.942,8.76-6.476
			c-0.023-0.747-1.133-0.579-1.135,0.139c-0.008,2.788-3.645,5.087-5.894,5.308c-2.354,0.23-4.839-0.551-6.964-1.447
			c-4.661-1.97-9.031-4.96-12.311-8.812C734.88,190.808,734.173,191.319,734.531,191.779"/>
	</g>
	<g>
		<path fill="#587572" d="M729.357,137.034c-0.47,9.601-4.944,18.005-7.853,26.979c-1.331,4.112-2.01,8.345-3,12.543
			c-1.231,5.227-3.716,9.66-6.146,14.388c-4.663,9.08-7.5,18.94-11.832,28.166c-4.686,9.979-12.195,20.687-24.583,19.68
			c-0.729-0.059-0.888,1.038-0.151,1.134c22.039,2.854,28.788-28.755,35.308-43.498c2.187-4.948,5.229-9.544,7.112-14.618
			c1.938-5.222,2.403-10.843,4.006-16.162c2.858-9.482,7.914-18.369,8.032-28.492C730.259,136.588,729.388,136.445,729.357,137.034"
			/>
	</g>
	<g>
		<path fill="#587572" d="M716.243,214.732c1.616-3.562,7.055-11.193,11.351-6.258c3.057,3.51-2.71,8.985-4.977,11.312
			c-2.455,2.521-5.153,4.902-6.988,7.943c-1.932,3.203-2.019,6.293-2.146,9.929c-0.172,4.807-1.458,9.327-5.318,12.455
			c-3.534,2.864-8.271,3.735-12.694,3.939c-2.015,0.095-4.771,0.47-6.765-0.04c-2.2-0.563-3.427-2.867-4.899-4.404
			c-3.067-3.202-6.822-5.75-7.776-10.375c-0.155-0.75-1.34-0.607-1.185,0.146c1.103,5.39,5.494,8.007,8.886,11.916
			c1.206,1.392,1.884,3.257,3.75,3.819c1.855,0.559,4.328,0.236,6.257,0.214c10.983-0.125,20.355-4.905,20.937-16.868
			c0.201-4.148,0.192-7.591,2.694-11.179c1.753-2.513,4.062-4.581,6.182-6.769c2.398-2.476,6.374-6.179,6.108-10.029
			c-0.186-2.694-2.918-5.041-5.604-4.795c-4.112,0.375-7.312,5.309-8.715,8.668C715.094,214.939,715.982,215.307,716.243,214.732"/>
	</g>
	<g>
		<path fill="#587572" d="M693.828,254.895c-1.93,2.299-2.721,4.766-2.668,7.752c0.006,0.291,0.314,0.444,0.563,0.438
			c5.55-0.112,9.412,3.604,13.467,6.827c3.038,2.415,6.303,4.439,9.794,6.129c0.658,0.318,1.086-0.725,0.436-1.05
			c-5.79-2.888-10.142-7.269-15.58-10.589c-1.436-0.877-2.96-1.627-4.604-2.021c-0.103-0.023-2.447-0.327-2.459-0.338
			c-1.777-1.758,0.648-5.223,1.7-6.641C694.796,254.975,694.168,254.486,693.828,254.895"/>
	</g>
	<g>
		<path fill="#587572" d="M715.804,275.77c4.81-10.192,13.406-17.104,20.472-25.602c3.272-3.939,5.849-8.354,8.852-12.486
			c3.337-4.593,7.377-8.358,12.08-11.523c8.845-5.953,18.58-11.029,28.153-15.704c4.519-2.208,9.126-4.131,13.795-5.993
			c1.98-0.791,3.913-1.646,5.757-2.725c2.271-1.327,4.664-3.312,7.459-2.137c0.683,0.287,1.107-0.748,0.439-1.06
			c-2.873-1.344-5.375,0.286-7.862,1.74c-5.128,3-10.877,4.751-16.254,7.264c-10.203,4.767-20.333,10.296-29.871,16.29
			c-4.407,2.77-8.568,5.932-11.954,9.915c-3.917,4.606-6.738,10.019-10.489,14.75c-7.116,8.979-16.864,16.12-21.411,26.923
			C714.738,275.962,715.555,276.296,715.804,275.77"/>
	</g>
	<g>
		<path fill="#587572" d="M727.428,215.602c2.979-1.793,11.185-2.408,11.167,2.854c-0.011,3.39-1.973,5.086-4.392,6.983
			c-0.476,0.373-0.053,1.207,0.531,0.949c0.003-0.002,0.006-0.004,0.01-0.005c0.646-0.284,0.241-1.305-0.406-1.02
			c-0.002,0.002-0.007,0.004-0.01,0.005c0.177,0.316,0.354,0.633,0.531,0.949c1.307-0.913,2.861-2.036,3.705-3.42
			c0.936-1.534,1.632-4.717,0.854-6.404c-0.916-1.984-3.986-2.905-5.968-3.141c-2.354-0.279-4.542,0.318-6.542,1.547
			C726.427,215.198,726.951,215.889,727.428,215.602"/>
	</g>
	<g>
		<path fill="#82786F" d="M806.969,179.396c-1.327,1.468-2.513,3.057-3.494,4.776c-0.274,0.483,0.562,0.977,0.854,0.498
			c1.015-1.657,2.096-3.234,3.342-4.727C808.037,179.5,807.348,178.976,806.969,179.396"/>
	</g>
	<g>
		<path fill="#82786F" d="M803.599,184.926c1.367,0.402,2.405,1.061,3.502,1.948c0.444,0.358,1.125-0.271,0.733-0.717
			c-1.007-1.149-2.519-1.848-4.021-2.022C803.366,184.084,803.134,184.79,803.599,184.926"/>
	</g>
	<g>
		<path fill="#82786F" d="M810.945,183.638c-1.252,0.643-2.422,1.488-3.595,2.262c-0.518,0.34,0.062,1.115,0.572,0.77
			c1.135-0.765,2.338-1.498,3.384-2.382C811.613,184.03,811.345,183.432,810.945,183.638"/>
	</g>
	<g>
		<path fill="#82786F" d="M811.059,183.713c-0.9,1.156-1.84,2.274-2.762,3.412c-0.385,0.475,0.327,0.995,0.733,0.572
			c1.006-1.045,1.9-2.252,2.677-3.479C811.984,183.781,811.39,183.287,811.059,183.713"/>
	</g>
	<g>
		<path fill="#82786F" d="M808.44,187.857c2.158,1.98,4.06,3.894,4.013,7.017c-0.029,1.956,0.304,4.499-0.733,6.204
			c-0.349,0.572,0.433,1.23,0.847,0.66c0.75-1.033,0.93-2.067,0.938-3.325c0.011-1.395,0.147-2.87,0.063-4.256
			c-0.178-2.973-2.249-5.351-4.635-6.935C808.501,186.935,808.057,187.506,808.44,187.857"/>
	</g>
	<g>
		<path fill="#82786F" d="M807.568,179.855c9.731-0.227,17.314,11.693,12.689,20.183c-0.318,0.586,0.685,1.181,1.024,0.598
			c2.328-3.973,2.304-9.838-0.284-13.678c-2.783-4.13-8.263-8.59-13.534-7.951C806.906,179.073,807.029,179.868,807.568,179.855"/>
	</g>
	<g>
		<path fill="#82786F" d="M820.622,200.201c-2.814-0.075-5.725,0.322-8.456,0.992c-0.703,0.174-0.607,1.276,0.143,1.146
			c2.766-0.475,5.537-0.826,8.311-1.254C821.096,201.014,821.149,200.215,820.622,200.201"/>
	</g>
	<g>
		<path fill="#82786F" d="M748.9,130.844c-1.782,2.655-2.444,5.815-4.468,8.348c-0.399,0.5,0.343,1.042,0.771,0.6
			c2.236-2.315,3.048-5.682,4.459-8.504C749.883,130.843,749.181,130.426,748.9,130.844"/>
	</g>
	<g>
		<path fill="#82786F" d="M744.922,139.134c-0.834-0.809-2.075-1.552-3.234-1.723c-0.552-0.083-0.698,0.663-0.242,0.898
			c0.473,0.243,0.98,0.413,1.456,0.657c0.511,0.263,0.969,0.592,1.442,0.912C744.854,140.222,745.354,139.553,744.922,139.134"/>
	</g>
	<g>
		<path fill="#82786F" d="M743.304,132.065c-0.685,1.831-1.532,3.52-2.383,5.274c-0.217,0.45,0.485,0.87,0.769,0.446
			c1.104-1.649,1.854-3.605,2.354-5.521C744.152,131.841,743.455,131.661,743.304,132.065"/>
	</g>
	<g>
		<path fill="#82786F" d="M743.229,131.853c-2.012,1.294-3.696,3.137-4.796,5.262c-0.262,0.505,0.571,1.003,0.874,0.51
			c1.225-1.99,2.601-3.627,4.408-5.118C744.123,132.17,743.669,131.57,743.229,131.853"/>
	</g>
	<g>
		<path fill="#82786F" d="M738.744,137.081c-3.078-1.774-7.186-1.787-10.386-0.316c-0.592,0.271-0.24,1.154,0.374,0.938
			c3.32-1.167,6.395-1.007,9.691,0.151C738.943,138.034,739.199,137.344,738.744,137.081"/>
	</g>
	<g>
		<path fill="#82786F" d="M728.438,136.985c-0.656-3.128-0.694-6.29-0.424-9.462c0.056-0.625-0.843-0.745-0.964-0.129
			c-0.639,3.291-0.316,6.597,0.592,9.797C727.771,137.64,728.537,137.446,728.438,136.985"/>
	</g>
	<g>
		<path fill="#82786F" d="M727.646,127.72c7.353-3.338,15.069-0.629,21.271,3.824c0.566,0.405,1.235-0.448,0.668-0.855
			c-6.369-4.571-14.804-7.684-22.261-3.779C726.837,127.167,727.129,127.956,727.646,127.72"/>
	</g>
	<g>
		<path fill="#AD846F" d="M736.871,121.505c1.454,3.117,5.131,4.506,8.475,3.788c1.614-0.347,2.748-1.141,3.649-2.507
			c0.741-1.122,0.79-2.512,1.419-3.652c1.302-2.355,2.936-3.234,5.173-4.533c1.82-1.058,2.883-3.202,0.925-5.254
			c-1.894-1.983-5.671,0.105-7.518,0.947c-0.49,0.223-0.193,0.98,0.311,0.779c0.761-0.303,1.623-0.813,2.412-1.01
			c2.02-0.503,5.349,0.336,4.068,2.755c-0.916,1.731-3.332,2.302-4.727,3.738c-0.98,1.015-1.314,2.205-2.034,3.374
			c-1.315,2.143-3.049,4.522-5.905,4.278c-2.258-0.194-4.206-1.178-5.342-3.208C737.488,120.481,736.622,120.972,736.871,121.505"/>
	</g>
	<g>
		<path fill="#AD846F" d="M749.146,110.756c0.92-2.098,0.259-4.164-0.227-6.327c-0.716-3.182-1.492-6.398-2.852-9.376
			c-0.618-1.354-1.623-4.012-3.107-4.625c-1.721-0.709-3.955,0.916-5.1,1.95c-0.4,0.361,0.093,1.04,0.506,0.68
			c5.241-4.587,7.484,3.854,8.449,7.248c0.844,2.956,2.379,7.162,1.602,10.254C748.31,110.988,748.979,111.139,749.146,110.756"/>
	</g>
	<g>
		<path fill="#AD846F" d="M732.729,97.783c-0.595-1.131-1.924-2.975-1.014-4.16c0.818-1.067,3.423-1.162,4.467-0.705
			c1.146,0.501,2.094,1.632,2.814,2.617c1.854,2.533,3.182,5.825,3.428,8.948c0.048,0.62,0.983,0.493,0.952-0.119
			c-0.236-4.513-3.412-12.147-8.512-13.038c-1.785-0.312-3.062,0.544-4.113,1.916c-1.425,1.856,0.026,3.136,1.164,4.997
			C732.189,98.691,732.979,98.255,732.729,97.783"/>
	</g>
</g>
</svg>
