<?xml version="1.0" encoding="utf-8"?>
<!-- Generator: Adobe Illustrator 15.1.0, SVG Export Plug-In . SVG Version: 6.00 Build 0)  -->
<!DOCTYPE svg PUBLIC "-//W3C//DTD SVG 1.1//EN" "http://www.w3.org/Graphics/SVG/1.1/DTD/svg11.dtd">
<svg version="1.1" id="Layer_1" xmlns="http://www.w3.org/2000/svg" xmlns:xlink="http://www.w3.org/1999/xlink" x="0px" y="0px"
	 width="857px" height="398px" viewBox="0 0 857 398" enable-background="new 0 0 857 398" xml:space="preserve">
<path fill="#F9F9F9" d="M724,357.162c0,4.329-3.509,7.838-7.838,7.838H133.838c-4.329,0-7.838-3.509-7.838-7.838v-0.324
	c0-4.329,3.509-7.838,7.838-7.838h582.324c4.329,0,7.838,3.509,7.838,7.838V357.162z"/>
<g>
	<g>
		<path fill="#82786F" d="M803.794,183.573c0,0-1.739,2.634,0.265,3.894s5.985,10.855,6.018,11.159
			c0.03,0.304,0.011,4.528,2.678,3.544C815.422,201.188,817.343,187.364,803.794,183.573"/>
	</g>
	<g>
		<path fill="#82786F" d="M727.814,137.313c0,0-0.189,2.869,7.587,3.229c7.778,0.36,9.233,0.924,10.081-1.132
			C746.329,137.354,727.814,137.313,727.814,137.313"/>
	</g>
	<g>
		<path fill="#83B1B1" d="M805.828,186.46l-28.172,13.377l-36.031-51.758l3.425-17.649c0,0-6.983,4.829-15.245,6.665
			c0,0-0.141,6.719-3.117,14.583c-2.974,7.864-5.833,16.612-6.714,20.791c-0.881,4.18-3.244,12.338-8.198,21.024
			c-4.953,8.687-9.57,27.099-13.439,32.059c-3.874,4.958-9.485,15.094-22.466,13.803c0,0,0.446,3.303,5.146,8.417
			c4.697,5.113,6.157,8.55,13.136,7.375c0,0-2.543,2.227-2.49,7.436c0,0,3.561-1.203,10.44,4.098
			c6.878,5.303,13.282,8.915,13.282,8.915s3.496-7.42,11.102-15.526c7.604-8.108,13.552-14.871,17.404-21.521
			c3.853-6.648,16.471-15.627,29.561-22.475c13.09-6.847,31.762-15.242,31.762-15.242s2.531-2.581,7.376-1.763
			C812.59,199.07,819.818,176.354,805.828,186.46"/>
	</g>
	<g>
		<path fill="#759B9A" d="M729.704,139.272c0,0,7.38-2.501,13.081,2.827l3.234-9.862c0,0-14.525-6.229-15.167-0.441
			C730.211,137.583,729.704,139.272,729.704,139.272"/>
	</g>
	<g>
		<path fill="#9BC9C7" d="M789.231,201.485c-5.485,1.918-10.853,4.175-16.062,6.75c-3.754,1.856-7.618,3.93-11.806,3.923
			c1.647-2.59,3.453-5.319,6.266-6.546c1.739-0.758,3.702-0.858,5.468-1.554c1.27-0.501,2.416-1.3,3.723-1.698
			c1.306-0.396,2.918-0.281,3.774,0.781"/>
	</g>
	<g>
		<path fill="#9BC9C7" d="M713.742,258.46c1.143-1.883,2.216-3.955,2.822-6.078c0.171-0.438,0.303-0.896,0.406-1.354
			c1.707-7.516-1.756-15.576,0.349-22.99c-1.791,2.49-2.875,5.482-3.094,8.543c-0.143,1.989,0.064,4.052-0.619,5.927
			c-0.589,1.617-1.8,2.959-2.344,4.594c-0.112,0.336-0.187,0.68-0.244,1.026c-1.062,1.259-2.496,2.175-3.957,2.959
			c-3.597,1.926-7.538,3.202-11.583,3.749c-0.527,0.07-1.077,0.138-1.518,0.434c-0.45,0.306-0.723,0.806-0.976,1.286
			c-0.516,0.978-1.041,1.988-1.167,3.088s0.235,2.328,1.165,2.928c0.812,0.522,1.844,0.471,2.803,0.566
			c4.968,0.499,8.386,5.124,12.841,7.38C708.717,266.095,711.444,262.238,713.742,258.46"/>
	</g>
	<g>
		<path fill="#759B9A" d="M804.213,187.27c0,0,7.577,3.262,5.863,11.356l2.919-0.075l-1.448-14.681L804.213,187.27z"/>
	</g>
	<g>
		<path fill="#F4C09D" d="M720.36,181.332l3.399-7.906c0,0-3.901-3.278-0.06-7.299c3.841-4.022,6.138,0.063,6.138,0.063
			s4.082-4.08,5.806-7.931c1.726-3.849,14.308-25.238,38.515-5.402c24.21,19.836,10.206,28.968,5.084,35.931
			s-6.747,8.327-6.572,8.935c0.174,0.606,5.971,3.489,3.28,7.195c-2.689,3.707-8.598-0.384-8.598-0.384l-6.604,8.237
			c0,0-15.925-4.127-24.905-11.269C722.139,190.601,720.36,181.332,720.36,181.332"/>
	</g>
	<g>
		<path fill="#FFD0B0" d="M773.411,189.933c0.792-1.29,1.574-2.655,1.699-4.164c0.233-2.813-1.821-5.248-3.78-7.282
			c-6.644-6.895-13.927-13.475-22.731-17.241c-2.1-0.899-4.373-1.64-6.636-1.328c-4.268,0.586-7.101,4.583-9.403,8.222
			l-10.286,16.255c-0.13,0.204-0.264,0.419-0.286,0.661c-0.034,0.34,0.156,0.659,0.341,0.947
			c7.31,11.408,18.321,20.657,31.271,24.638c0.652,0.2,1.346,0.39,2.008,0.225c0.64-0.158,1.154-0.62,1.634-1.072
			C763.477,203.924,768.929,197.228,773.411,189.933 M752.14,171.727c-0.991,0.289-1.918,1.231-2.832,1.726
			c-1.025,0.554-2.152,0.951-3.331,0.882c-2.003-0.119-3.911-1.237-4.482-3.202c-0.01-0.019-0.021-0.037-0.029-0.055
			c0.003-0.001,0.006-0.002,0.008-0.003c-0.008-0.032-0.024-0.06-0.03-0.091c-0.03-0.117-0.005-0.21,0.051-0.277
			c-0.173-0.438-0.284-0.897-0.271-1.405c0.048-1.789,1.196-3.208,2.332-4.479c-0.071-0.176-0.025-0.394,0.205-0.478
			c2.385-0.859,5.346-0.476,7.155,1.41c1.414,1.474,2.355,3.716,1.496,5.69c-0.012,0.026-0.03,0.042-0.044,0.062
			C752.339,171.604,752.271,171.688,752.14,171.727 M767.824,188.432c-0.115,0.075-0.232,0.076-0.334,0.041
			c-1.979,0.922-4.658,0.891-6.286-0.074c-2.943-1.747-2.751-5.577-1.575-8.355c0-0.021-0.008-0.04-0.006-0.064
			c0.11-1.005,0.537-2.104,1.422-2.674c0.791-0.507,1.638-0.3,2.312,0.229c1.253,0.165,2.425,0.944,3.389,1.976
			c1.614,1.162,3.102,2.931,3.289,4.846c0.421,0.672,0.679,1.44,0.231,2.182C769.739,187.412,768.646,187.894,767.824,188.432"/>
	</g>
	<g>
		<path fill="#D6A380" d="M742.561,150.63c-1.589,2.584,6.141,0.072,8.813,1.506c-0.355,0.53-0.712,1.062-1.065,1.592
			c2.885,1.044,5.802,2.012,8.74,2.899c0.496,0.149,1.027,0.296,1.52,0.142c0.422-0.132,0.745-0.467,1.049-0.789
			c0.983-1.041,1.966-2.082,2.951-3.122c3.979,4.131,10.281,5.935,13.106,10.924c0.739,1.309,1.16,3.028,0.299,4.259
			c-0.329,0.474-0.84,0.866-0.932,1.436c-0.118,0.738,0.509,1.358,1.028,1.895c1.225,1.263,2.129,2.832,2.612,4.524
			c0.346,1.214,0.518,2.568,1.403,3.465c0.897,0.908,2.446,1.074,3.517,0.377c1.066-0.699,1.537-2.185,1.066-3.37
			c0,0-1.013-12.674-14.371-21.123C758.94,146.797,745.612,145.669,742.561,150.63"/>
	</g>
	<g>
		<path fill="#565C56" d="M737.37,154.41c0,0,13.575-22.544,29.456-28.307c0,0,15.88-2.337,29.133,19.178
			c13.252,21.515,3.948,32.409,3.948,32.409s-11.504,18.826-23.865,23.141l-3.371-3.108l14.226-19.341
			c0,0,1.357-11.794-14.598-23.135c-17.021-12.098-27.639-6.844-27.639-6.844S736.688,157.667,737.37,154.41"/>
	</g>
	<g>
		<path fill="#434943" d="M783.129,160.111l-6.294,6.722c0,0,5.891,1.52,7.01,9.651c0,0,1.95,0.057,3.615-3.231
			C789.129,169.966,790.265,163.034,783.129,160.111"/>
	</g>
	<g>
		<path fill="#434943" d="M766.072,147.89l-6.62,6.611l-10.543-2.868C748.909,151.633,756.72,139.883,766.072,147.89"/>
	</g>
	<g>
		<path fill="#FFFFFF" d="M738.367,177.833c0,0,11.008,13.324,22.62,18.293c0,0-2.36,10.487-15.963,3.893
			c-8.971-5.399-10.405-8.92-10.405-8.92S735.195,182.045,738.367,177.833"/>
	</g>
	<g>
		<path fill="#747A74" d="M760.373,130.489c-2.086,1.976-4.121,4.009-6.002,6.183c-0.495,0.572-1.008,1.228-0.977,1.982
			c0.034,0.823,0.735,1.494,1.51,1.767c0.775,0.274,1.622,0.241,2.445,0.23c4.02-0.053,8.049,0.542,11.882,1.756
			c1.739,0.549,3.576,1.34,4.457,2.937c0.398,0.719,0.565,1.543,0.892,2.298c1.317,3.044,4.824,4.345,7.883,5.632
			c2.775,1.168,5.487,2.595,7.707,4.631c2.221,2.037,3.928,4.742,4.331,7.727c0.181,1.336,0.104,2.718,0.508,4.003
			c0.402,1.286,1.487,2.508,2.834,2.481c1.565-0.031,2.593-1.632,3.132-3.101c1.535-4.181,1.483-8.924-0.145-13.07
			c0,0-4.001-17.596-18.885-25.562c-14.885-7.967-15.119-4.279-15.119-4.279S762.054,128.899,760.373,130.489"/>
	</g>
	<g>
		<path fill="#B5A38C" d="M727.486,127.316c0,0,8.764-5.991,21.765,3.8l-4.433,8.375l-3.247-1.657l1.901-5.655
			c0,0-3.401,3.465-4.728,5.007c0,0-5.604-2.145-10.718-0.151C728.027,137.036,726.814,129.773,727.486,127.316"/>
	</g>
	<g>
		<path fill="#B5A38C" d="M807.516,179.431l-3.58,4.933l3.483,2.102l3.665-2.479l-2.422,3.424c0,0,7.16,4.006,3.481,13.996
			l8.668-1.14c0,0,5.24-6.626-1.306-14.981C813.481,178.79,807.516,179.431,807.516,179.431"/>
	</g>
	<g>
		<path fill="#D6A380" d="M732.379,198.307l-2.948,2.574c0,0-3.294-1.6-4.614-0.062c-1.324,1.538,2.319,6.172,2.319,6.172
			s4.185,3.449,0.897,7.756c0,0,5.188-2.064,9.032-0.017c3.843,2.049,6.222,2.532,7.158,0.805c0.938-1.729,0.869-4.161-0.979-4.715
			l1.331-3.234L732.379,198.307z"/>
	</g>
	<g>
		<path fill="#759B9A" d="M728.533,214.375c0.284-1.291,0.572-2.604,0.468-3.922c-0.102-1.317-0.652-2.664-1.737-3.42
			c-1.758-1.225-4.223-0.511-5.996,0.691c-0.96,0.649-1.849,1.452-2.39,2.479c-0.539,1.025-0.687,2.303-0.181,3.347
			c0.818-1.471,1.934-2.829,3.422-3.612c1.488-0.784,3.396-0.9,4.818-0.002c1.423,0.896,2.13,2.914,1.312,4.385
			c1.685-0.54,3.588-0.549,5.164,0.249c1.579,0.799,2.746,2.482,2.673,4.25c-0.075,1.826-1.381,3.378-2.837,4.484
			c0.663,0.941,2.033,1.207,3.107,0.79c1.071-0.419,1.851-1.398,2.274-2.469c0.423-1.069,0.533-2.234,0.604-3.385
			c0.026-0.443,0.049-0.897-0.063-1.328c-0.273-1.042-1.261-1.73-2.24-2.18C734.319,213.535,731.238,213.403,728.533,214.375"/>
	</g>
	<g>
		<path fill="#9BC9C7" d="M748.095,215.295c0.135-0.396,0.235-0.817,0.49-1.149c0.255-0.336,0.726-0.552,1.101-0.369
			c0.352,0.173,0.479,0.604,0.541,0.988c0.601,3.691-1.525,7.499-4.689,9.488c-3.166,1.99-7.165,2.339-10.83,1.601
			c2.088-1.167,3.736-3.098,4.566-5.342c0.153-0.416,0.337-0.899,0.76-1.027c0.237-0.072,0.492-0.011,0.734,0.038
			C743.787,220.13,747.107,218.212,748.095,215.295"/>
	</g>
	<g>
		<path fill="#9BC9C7" d="M721.16,205.245c0.083,0.178,0.199,0.344,0.229,0.537c0.049,0.323-0.16,0.626-0.357,0.887
			c-1.767,2.332-3.531,4.666-5.297,6.999c0.095-4.396,1.633-8.75,4.321-12.23c0.334-0.434,0.885-0.896,1.359-0.626
			c0.419,0.237,0.394,0.845,0.252,1.304C721.347,203.153,720.703,204.259,721.16,205.245"/>
	</g>
	<g>
		<path fill="#FFD0B0" d="M745.546,162.223c0,0,6.071-5.821,10.474-1.905c4.403,3.917-2.604,10.115-2.604,10.115
			S752.359,163.332,745.546,162.223"/>
	</g>
	<g>
		<path fill="#FFD0B0" d="M765.728,172.963c0,0,12.208-4.161,8.317,8.879C774.045,181.842,765.362,176.142,765.728,172.963"/>
	</g>
	<g>
		<path fill="#759B9A" d="M720.081,191.669c-0.054,0.146-0.109,0.297-0.101,0.452c0.01,0.169,0.092,0.323,0.175,0.471
			c1.072,1.913,2.379,3.695,3.878,5.294c1.952-1.239,4.621-1.234,6.566,0.014c0.199,0.127,0.508,0.24,0.62,0.035
			c-3.35-3.173-6.317-6.75-8.816-10.632C721.26,188.508,720.655,190.112,720.081,191.669"/>
	</g>
	<g>
		<path fill="#759B9A" d="M729.588,200.963c0.157-0.033,0.288-0.132,0.413-0.23c0.646-0.521,1.198-1.154,1.624-1.864
			c0.034-0.057,0.068-0.114,0.068-0.179c0.001-0.077-0.04-0.146-0.083-0.208c-0.989-1.455-2.976-2.145-4.653-1.612
			c0.249,0.661,0.5,1.322,0.752,1.983c0.278,0.737,0.598,1.527,1.265,1.952C729.155,200.92,729.375,201.007,729.588,200.963"/>
	</g>
	<g>
		<path fill="#759B9A" d="M744.375,207.803c-0.289,0.582-0.544,1.181-0.766,1.791c-0.092,0.255-0.177,0.524-0.134,0.791
			c0.094,0.586,0.772,0.961,0.82,1.551c1.909-0.707,4.147-0.463,5.86,0.639c-0.161-1.045-0.37-2.181-1.167-2.876
			c-0.324-0.282-0.721-0.466-1.11-0.646c-1.022-0.472-2.046-0.944-3.068-1.416c-0.073-0.034-0.155-0.069-0.235-0.05
			C744.476,207.611,744.421,207.712,744.375,207.803"/>
	</g>
	<g>
		<path fill="#759B9A" d="M755.457,216.453c-0.188,0.107-0.418,0.102-0.632,0.088c-1.351-0.092-2.683-0.412-3.924-0.945
			c-0.156-2.067-0.832-4.093-1.944-5.841c1.161,0.106,2.215,0.686,3.271,1.18c1.865,0.87,3.843,1.501,5.868,1.869
			c-0.764,1.095-1.528,2.188-2.295,3.282C755.705,216.226,755.604,216.369,755.457,216.453"/>
	</g>
	<g>
		<path fill="#759B9A" d="M766.821,204.756c0.263-0.104,0.547,0.057,0.783,0.21c0.643,0.421,1.285,0.84,1.927,1.26
			c-0.323,0.919-1.095,1.669-2.022,1.969c-0.929,0.299-1.991,0.14-2.791-0.418c0.576-0.881,1.152-1.763,1.727-2.644
			C766.544,204.981,766.653,204.821,766.821,204.756"/>
	</g>
	<g>
		<path fill="#759B9A" d="M722.407,172.146c-0.644,0.493-1.037,1.297-1.033,2.109c0.006,0.812,0.409,1.611,1.061,2.095
			c0.802-0.891,1.389-1.974,1.701-3.131c-0.589-0.345-1.062-0.876-1.336-1.5"/>
	</g>
	<g>
		<path fill="#759B9A" d="M717.188,226.396c1.58-2.053,3.907-3.396,5.664-5.299c-3.204,4.172-6.063,7.473-8.625,15.483
			C714.845,233.824,715.464,228.634,717.188,226.396"/>
	</g>
	<g>
		<path fill="#759B9A" d="M710.493,248.455c-1.181,1.66-2.387,3.344-3.998,4.591c-1.591,1.229-3.497,1.969-5.374,2.691
			c-2.754,1.062-5.606,2.141-8.557,2.021c0.443-0.597,0.886-1.195,1.328-1.792c0.26-0.354,0.533-0.714,0.916-0.928
			c0.379-0.209,0.825-0.249,1.256-0.281c1.922-0.136,4.321-0.667,6.205-1.072c1.885-0.406,4.63-1.492,5.956-2.891"/>
	</g>
	<g>
		<path fill="#C69777" d="M743.065,209.694c0.439-0.698,0.876-1.397,1.313-2.096c-4.05-2.59-7.977-5.37-11.765-8.332
			c-0.133-0.103-0.283-0.213-0.45-0.198c-0.19,0.016-0.325,0.178-0.453,0.319c-0.446,0.504-1.035,0.882-1.682,1.077
			c2.698,4.46,6.978,7.935,11.894,9.66c0.202,0.071,0.418,0.138,0.622,0.077C742.781,210.133,742.933,209.905,743.065,209.694"/>
	</g>
	<g>
		<path fill="#DACDBC" d="M732.64,127.152c-1.018,0.083-2.134,0.276-2.782,1.066c-0.489,0.599-0.602,1.41-0.693,2.179
			c-0.084,0.687-0.166,1.372-0.249,2.058c-0.096,0.789-0.116,1.751,0.548,2.188c0.438,0.287,1.007,0.221,1.525,0.161
			c2.534-0.291,5.118-0.159,7.611,0.393c0.367,0.081,0.753,0.171,1.116,0.075c0.335-0.087,0.607-0.321,0.866-0.546
			c0.948-0.825,1.896-1.647,2.846-2.47c-0.104,1.076-0.205,2.152-0.307,3.229c-0.046,0.49-0.038,1.093,0.389,1.338
			c0.516,0.294,1.118-0.204,1.478-0.678c0.783-1.03,1.431-2.163,1.924-3.36c0.089-0.215,0.174-0.446,0.134-0.674
			c-0.044-0.246-0.227-0.443-0.404-0.619C743.054,127.95,737.665,126.752,732.64,127.152"/>
	</g>
	<g>
		<path fill="#DACDBC" d="M819.649,186.274c0.837,0.97,1.573,2.074,1.863,3.323c0.295,1.272,0.108,2.604-0.14,3.888
			c-0.244,1.27-0.574,2.584-1.434,3.55c-0.858,0.967-2.4,1.443-3.477,0.729c-0.87-0.575-1.173-1.688-1.426-2.7
			c-0.818-3.301-1.87-6.726-4.307-9.099c-0.126-0.122-0.262-0.251-0.293-0.423c-0.103-0.535,0.822-0.976,0.545-1.442
			c-0.778,0.319-1.611,0.503-2.451,0.542c-0.54,0.024-1.149-0.044-1.492-0.464c-0.535-0.658-0.054-1.625,0.43-2.323
			c0.241-0.347,0.497-0.708,0.871-0.905c0.463-0.243,1.019-0.192,1.535-0.111C813.635,181.429,817.163,183.392,819.649,186.274"/>
	</g>
	<g>
		<path fill="#9BC9C7" d="M711.589,238.26L711.589,238.26c0.506-3.13,0.462-7.254,1.624-10.268c1.161-3.014,3.109-5.847,5.942-7.398
			c0.412-0.226,0.848-0.45,1.119-0.836c0.271-0.387,0.263-1.018-0.143-1.258c-0.312-0.187-0.714-0.077-1.055,0.045
			c-1.97,0.702-3.87,1.598-5.665,2.67c-1.341,0.802-2.662,1.736-3.491,3.061c-0.757,1.203-1.05,2.632-1.618,3.934
			c-1.175,2.696-3.604,4.802-6.431,5.605c-0.423,0.019-0.848,0.025-1.271,0.002c-2.778-0.136-5.662-1.095-8.264-0.109
			c-1.434,0.545-2.585,1.619-3.83,2.511c-3.692,2.649-8.461,3.745-12.94,2.976c0.097,0.456,0.214,0.905,0.346,1.352
			c5.639,9.709,18.523,12.59,28.494,8.319c1.958-0.967,3.824-2.154,5.332-3.744C711.045,243.087,711.669,240.642,711.589,238.26"/>
	</g>
	<g>
		<path fill="#9BC9C7" d="M739.352,142.443c1.016,0.419,2.046,1.052,2.439,2.076c0.364,0.949,0.096,2.039-0.411,2.92
			c-0.506,0.881-1.23,1.611-1.862,2.407c-2.014,2.53-3.074,5.661-4.326,8.642c-1.252,2.981-2.827,5.995-5.489,7.832
			c-0.392-1.691-2.014-3.016-3.749-3.062c1.683-6.845,3.779-13.588,6.276-20.18c0.181-0.477,0.385-0.982,0.805-1.272
			c0.372-0.258,0.849-0.299,1.301-0.308C736.048,141.466,737.767,141.789,739.352,142.443"/>
	</g>
	<g>
		<path fill="#9BC9C7" d="M806.059,194.409c-0.007,0.634-0.149,1.278-0.502,1.807c-0.408,0.612-1.056,1.018-1.697,1.379
			c-8.771,4.949-19.404,5.086-28.926,8.366c0.851-0.379,1.313-1.352,1.344-2.281c0.031-0.931-0.292-1.833-0.635-2.698
			c7.19-3.339,14.383-6.676,21.574-10.015c1.455-0.676,2.996-1.367,4.595-1.232C804.119,189.93,806.086,192.094,806.059,194.409"/>
	</g>
	<g>
		<path fill="#E5B595" d="M738.114,92.719c0,0,4.325-2.688,5.339-1.238c1.013,1.451,5.284,9.095,5.53,18.67
			c0,0,5.686-1.745,6.536-0.953c0.851,0.791,2.262,3.582-0.43,5.164c-2.69,1.582-4.018,1.738-5.032,4.409
			c-1.017,2.669-2.385,6.054-6.352,6.474l-0.495,2.309l-9.732-1.889c0,0,2.852-9.495,0.712-13.586
			c-1.609-6.028-4.883-7.465-6.279-8.931c-1.396-1.465-2.246-3.023-0.972-4.218c1.273-1.195,5.353-0.973,5.353-0.973
			s-2.331-3.168-0.877-4.762C732.871,91.603,733.242,90.615,738.114,92.719"/>
	</g>
	<g>
		<path fill="#FFD0B0" d="M750.963,117.651c0.542-1.232,1.261-2.385,2.111-3.429c1.663-0.497,2.939-1.604,2.396-3.273
			c-0.792-2.424-3.959-1.699-6.245-0.274c-0.169-0.108-0.351-0.191-0.544-0.166c-0.18,0.025-0.325,0.138-0.47,0.255
			c0.321-0.607,0.45-1.305,0.505-1.993c0.354-4.536-0.896-10.041-3.023-14.062c-0.822-1.557-1.969-3.324-3.729-3.367
			c-0.764-0.019-1.583,0.4-1.817,1.128c-0.237,0.739,0.167,1.516,0.562,2.186c1.778,3.029,3.677,6.188,4.149,9.622
			c0.004,0.18,0.011,0.361,0.012,0.552c0.005-0.079,0.009-0.156,0.011-0.237c0.043,0.379,0.084,0.76,0.088,1.146
			c0.002,0.18-0.034,0.404-0.084,0.646c-0.012-0.527-0.012-1.054-0.015-1.554c-0.087,1.268-0.539,2.309-1.106,1.604
			c-0.218-0.478-0.396-0.834-0.552-1.106c-0.626-2.797-1.087-5.119-2.525-7.941c-0.558-1.099-2.25-3.167-3.117-4.042
			c-0.87-0.876-2.035-1.52-3.269-1.522c-1.232-0.003-2.031,0.143-2.407,1.318c-0.357,1.119,0.603,1.757,1.37,2.647
			c0.766,0.889,1.312,2.123,2.24,2.843c2.462,1.911,3.937,5.075,4.98,8.044c-0.092,0.338-0.32,0.625-0.656,0.616
			c-0.2-0.005-0.382-0.119-0.552-0.228c-0.056-0.036-0.109-0.071-0.165-0.106c-0.307-0.618-0.686-1.208-1.07-1.782
			c-1.074-1.599-1.423-3.733-3.006-4.83c-1.063-0.735-2.114-1.899-3.327-2.346c-0.656-0.241-1.332-0.486-2.03-0.469
			c-0.699,0.018-1.437,0.357-1.721,0.996c-0.348,0.781,0.103,1.725,0.78,2.244c0.678,0.521,1.534,0.735,2.344,1.007
			c0.356,0.119,0.692,0.271,1.012,0.448l1.494,1.098c1.191,1.099,2.16,2.541,3.114,3.921c0.976,2.24,1.48,4.768,1.528,7.066
			c0.05,2.25-0.378,4.705,0.85,6.592c0.914,1.409,2.637,2.175,4.318,2.191c1.679,0.016,3.314-0.639,4.713-1.574
			c0.668-0.448,1.302-0.969,1.764-1.627C750.352,119.209,750.627,118.412,750.963,117.651"/>
	</g>
	<g>
		<path fill="#D6A380" d="M731.105,93.908c0,0-0.329,4.613,4.563,7.421l-3.961-3.333C731.708,97.997,730.975,95.142,731.105,93.908"
			/>
	</g>
	<g>
		<path fill="#C69777" d="M739.728,91.854c0,0-1.163,0.411,0.263,3.314l-2.423-1.827L739.728,91.854z"/>
	</g>
	<g>
		<path fill="#D6A380" d="M736.957,121.2c0,0-0.699,3.038,2.316,4.443c3.017,1.405,4.15,1.242,4.15,1.242l0.284-1.64
			C743.708,125.245,738.258,123.909,736.957,121.2"/>
	</g>
	<g>
		<path fill="#E5B595" d="M853.792,181.817c0,0,1.55-4.851-0.104-5.479c-1.653-0.628-10.109-2.904-19.456-0.806
			c0,0,0.305-5.939-0.671-6.57c-0.975-0.633-4.026-1.32-4.903,1.676c-0.877,2.996-0.705,4.321-3.046,5.957
			c-2.34,1.637-5.288,3.79-4.728,7.739l-2.119,1.044l4.207,8.976c0,0,8.512-5.082,13.003-4.005
			c6.237,0.088,8.431,2.912,10.193,3.908s3.479,1.439,4.326-0.088c0.849-1.526-0.362-5.428-0.362-5.428s3.642,1.488,4.83-0.312
			C856.153,186.629,857.021,186.029,853.792,181.817"/>
	</g>
	<g>
		<path fill="#FFD0B0" d="M826.478,175.444c1.062-0.828,2.003-1.806,2.811-2.884c0.075-1.735,0.838-3.243,2.588-3.124
			c2.544,0.176,2.615,3.424,1.792,5.99c0.145,0.137,0.27,0.292,0.292,0.484c0.02,0.181-0.054,0.35-0.132,0.519
			c0.51-0.461,1.154-0.756,1.811-0.976c4.311-1.451,9.955-1.582,14.373-0.501c1.711,0.418,3.705,1.097,4.176,2.795
			c0.205,0.736-0.002,1.632-0.65,2.037c-0.66,0.409-1.512,0.208-2.256-0.009c-3.372-0.986-6.899-2.057-10.346-1.676
			c-0.175,0.038-0.353,0.077-0.537,0.123c0.074-0.024,0.149-0.048,0.227-0.069c-0.378,0.052-0.757,0.104-1.133,0.195
			c-0.173,0.042-0.383,0.132-0.604,0.239c0.513-0.117,1.024-0.247,1.51-0.365c-1.209,0.393-2.108,1.085-1.284,1.464
			c0.517,0.095,0.904,0.181,1.206,0.265c2.865-0.077,5.229-0.195,8.316,0.509c1.203,0.273,3.622,1.41,4.683,2.038
			c1.062,0.629,1.971,1.602,2.274,2.797c0.303,1.194,0.355,2.005-0.69,2.655c-0.998,0.621-1.853-0.156-2.901-0.682
			c-1.053-0.527-2.38-0.753-3.305-1.479c-2.454-1.921-5.883-2.579-9.017-2.865c-0.306,0.172-0.528,0.461-0.438,0.785
			c0.055,0.195,0.209,0.343,0.357,0.48c0.046,0.044,0.095,0.088,0.143,0.133c0.675,0.146,1.338,0.371,1.989,0.604
			c1.812,0.651,3.967,0.468,5.418,1.736c0.973,0.851,2.358,1.587,3.086,2.653c0.395,0.576,0.797,1.173,0.951,1.854
			c0.153,0.683,0.005,1.479-0.545,1.911c-0.672,0.528-1.698,0.321-2.368-0.208c-0.671-0.53-1.087-1.31-1.548-2.028
			c-0.202-0.315-0.432-0.604-0.682-0.871l-1.429-1.18c-1.356-0.888-2.99-1.476-4.562-2.063c-2.41-0.399-4.984-0.272-7.227,0.241
			c-2.191,0.503-4.47,1.517-6.599,0.788c-1.59-0.544-2.753-2.027-3.179-3.653s-0.19-3.371,0.376-4.954
			c0.271-0.758,0.621-1.5,1.147-2.109C825.115,176.416,825.821,175.954,826.478,175.444"/>
	</g>
	<g>
		<path fill="#D6A380" d="M854.348,188.904c0,0-4.392,1.446-8.311-2.613l4.199,3.026
			C850.236,189.317,853.184,189.332,854.348,188.904"/>
	</g>
	<g>
		<path fill="#C69777" d="M854.235,180.042c0,0-0.114,1.228-3.277,0.553l2.362,1.905L854.235,180.042z"/>
	</g>
	<g>
		<path fill="#D6A380" d="M826.453,189.891c0,0-2.774,1.421-4.873-1.162c-2.099-2.581-2.217-3.72-2.217-3.72l1.521-0.676
			C820.884,184.334,823.511,189.292,826.453,189.891"/>
	</g>
	<g>
		<path fill="#AED6D3" d="M707.862,229.351c0.229-0.586,0.43-1.108,0.603-1.579c0.221-0.525,0.426-1.071,0.606-1.647
			c0.075-0.231,0.157-0.449,0.245-0.66c0.59-1.172,1.103-1.861,1.377-2.185c0.04-0.044,0.081-0.091,0.12-0.134
			c0.003-0.002,0.006-0.006,0.008-0.008c0.659-0.559,1.123-0.959,1.408-1.145c-2.124,1.259-3.188,2.725-3.765,4.061l0.004-0.021
			c0,0-0.006,0.018-0.015,0.041c-0.154,0.36-0.277,0.711-0.386,1.046c-0.427,1.085-1.15,2.725-1.98,3.761
			c-0.132,0.153-0.274,0.312-0.429,0.474c-0.183,0.169-0.31,0.295-0.396,0.386c-0.799,0.76-1.795,1.472-2.862,1.639
			c-2.486,0.389-4.892-0.412-6.507-0.078c0,0,3.341,0.449,4.879,0.743C702.314,234.337,705.988,234.117,707.862,229.351"/>
	</g>
	<g>
		<path fill="#AED6D3" d="M716.831,251.573c0,0-0.918,4.307-6.4,12.53c0,0,2.605-4.844,3.986-7.958
			c1.381-3.116,2.441-6.707,3.043-9.674C717.46,246.472,717.456,249.662,716.831,251.573"/>
	</g>
	<g>
		<path fill="#858C85" d="M775.052,146.789c0.696,1.725,2.018,3.141,3.522,4.237c1.504,1.095,3.196,1.901,4.876,2.699
			c-1.71-0.522-3.431-1.048-5.017-1.875c-1.586-0.826-3.044-1.978-3.962-3.513c-0.895-1.493-1.321-3.383-2.766-4.355
			c-0.458-0.308-0.986-0.495-1.506-0.678c-2.068-0.729-4.135-1.457-6.202-2.186c2.623,0.23,5.21,0.857,7.647,1.853
			c0.935,0.382,1.886,0.85,2.473,1.67C774.572,145.279,774.759,146.063,775.052,146.789"/>
	</g>
</g>
<g>
	<g>
		<path fill="#605D5B" d="M699.771,220.133c-4.915,5.252-9.369,11.006-13.658,16.773c-0.47,0.632,0.486,1.38,0.964,0.752
			c4.369-5.744,8.992-11.264,13.467-16.922C700.941,220.233,700.194,219.681,699.771,220.133"/>
	</g>
	<g>
		<path fill="#AD846F" d="M823.042,194.911c6.014-2.763,12.479-5.339,18.995-2.729c2.127,0.852,5.562,5.21,8.105,3.185
			c2.291-1.824,1.524-4.451,0.009-6.509c-2.294-3.12-6.176-4.4-9.859-4.834c-0.533-0.064-0.639,0.738-0.11,0.827
			c3.745,0.635,10.464,2.762,10.222,7.534c-0.187,3.658-3.727,1.218-5.542,0.073c-1.318-0.832-2.79-1.415-4.284-1.845
			c-6.074-1.749-12.471,0.662-17.876,3.449C822.188,194.327,822.5,195.16,823.042,194.911"/>
	</g>
	<g>
		<path fill="#AD846F" d="M820.776,183.916c-0.324,0.024-0.641,0.181-0.938,0.305c-0.312,0.127-0.617,0.262-0.906,0.434
			c-0.566,0.338-0.022,1.12,0.531,0.95c0.291-0.088,0.564-0.224,0.838-0.355c0.277-0.131,0.601-0.253,0.823-0.465
			C821.467,184.46,821.29,183.877,820.776,183.916"/>
	</g>
	<g>
		<path fill="#AD846F" d="M826.402,189.11c-2.249-0.605-3.68-2.256-4.417-4.398c-0.904-2.628,0.878-5.075,2.71-6.767
			c1.375-1.271,2.52-2.143,3.328-3.876c0.796-1.698,0.719-4.927,2.785-5.432c3.841-0.936,2.916,4.944,2.682,7.042
			c-0.061,0.536,0.745,0.645,0.831,0.11c0.375-2.327,1.161-6.792-1.704-8.016c-1.966-0.838-3.451,0.295-4.212,1.897
			c-1.38,2.907-0.399,4.336-3.284,6.722c-0.982,0.812-2.165,1.253-3.086,2.168c-1.223,1.214-1.705,2.544-1.646,4.257
			c0.121,3.43,2.356,6.642,5.743,7.293C826.703,190.225,826.979,189.266,826.402,189.11"/>
	</g>
	<g>
		<path fill="#AD846F" d="M833.924,176.244c2.81-1.51,7.265-1.045,10.338-0.951c3.526,0.109,12.257,0.223,9.09,6.425
			c-0.248,0.487,0.529,0.801,0.782,0.324c0.728-1.372,1.732-3.854,0.675-5.368c-0.926-1.327-3.834-1.673-5.274-1.938
			c-3.008-0.552-6.098-0.555-9.149-0.49c-2.381,0.051-4.867-0.181-6.829,1.34C833.231,175.84,833.532,176.455,833.924,176.244"/>
	</g>
	<g>
		<path fill="#AD846F" d="M849.453,189.059c1.552,0.51,3.669,1.776,5.104,0.672c1.459-1.124,2.088-3.319,1.36-4.987
			c-2.083-4.774-10.293-6.002-14.752-5.124c-0.601,0.119-0.496,1.057,0.117,0.953c3.217-0.545,7.012-0.023,9.982,1.344
			c1.817,0.836,6.421,4.244,2.995,6.629c-1.338,0.934-3.178-0.049-4.565-0.392C849.181,188.028,848.944,188.891,849.453,189.059"/>
	</g>
	<g>
		<path fill="#AD846F" d="M733.878,125.793c1.319-5.649,2.172-12.308-0.693-17.613c-0.772-1.434-6.86-7.33-6.049-8.66
			c0.876-1.438,3.444-1.374,4.749-0.796c1.317,0.583,2.266,1.436,3.224,2.451c1.492,1.581,2.562,3.431,3.438,5.419
			c0.217,0.491,0.967,0.194,0.774-0.31c-1.326-3.485-3.509-6.888-7.095-8.382c-2.376-0.988-5.077-1.093-6.117,1.651
			c-1.23,3.257,3.292,4.849,4.875,7.03c4.118,5.68,3.199,12.586,1.99,19.088C732.864,126.257,733.746,126.357,733.878,125.793"/>
	</g>
	<g>
		<path fill="#AD846F" d="M743.26,125.06c-0.175,0.328-0.214,0.749-0.286,1.111c-0.073,0.377-0.157,0.762-0.182,1.146
			c-0.034,0.574,0.867,0.92,1.051,0.283c0.116-0.396,0.178-0.801,0.239-1.208c0.058-0.389,0.162-0.815,0.104-1.207
			C744.113,124.68,743.481,124.646,743.26,125.06"/>
	</g>
	<g>
		<path fill="#587572" d="M729.397,200.304c-1.7-0.915-4.61-1.443-5.414,0.941c-0.763,2.267,1.149,4.864,2.841,6.145
			c0.522,0.394,1.143-0.398,0.627-0.804c-1.216-0.953-2.308-2.371-2.489-3.958c-0.311-2.694,2.535-2.051,4.09-1.492
			C729.605,201.336,729.903,200.576,729.397,200.304"/>
	</g>
	<g>
		<path fill="#587572" d="M742.818,211.145c1.759,0.777,2.085,3.739,0.095,4.471c-1.24,0.456-3.236,0.367-4.349-0.33
			c-0.63-0.394-1.35,0.472-0.725,0.932c1.7,1.256,5.429,1.363,6.901-0.35c1.549-1.803,0.693-4.91-1.582-5.544
			C742.623,210.176,742.279,210.908,742.818,211.145"/>
	</g>
	<g>
		<path fill="#997261" d="M731.972,198.083c-0.689,0.854-1.522,1.467-2.433,2.06c-0.883,0.577-1.676,1.255-2.775,1.302
			c-0.623,0.025-0.589,0.972-0.004,1.063c1.207,0.189,2.146-0.591,3.093-1.231c1.151-0.781,2.175-1.521,2.844-2.771
			C732.928,198.074,732.261,197.724,731.972,198.083"/>
	</g>
	<g>
		<path fill="#997261" d="M744.085,207.288c-0.947,1.62-2.45,3.758-1.689,5.712c0.288,0.739,1.425,0.282,1.142-0.457
			c-0.571-1.504,0.871-3.407,1.437-4.737C745.196,207.287,744.387,206.771,744.085,207.288"/>
	</g>
	<g>
		<path fill="#587572" d="M806.229,185.655c-10.003,5.24-20.007,10.22-30.381,14.688c-0.622,0.268-0.241,1.227,0.39,0.977
			c10.474-4.122,20.718-9.195,30.417-14.902C807.079,186.166,806.67,185.423,806.229,185.655"/>
	</g>
	<g>
		<path fill="#587572" d="M743.021,139.403c-0.983,2.343-1.789,4.932-2.12,7.458c-0.096,0.721,0.917,0.813,1.092,0.146
			c0.632-2.422,1.226-4.818,1.986-7.206C744.183,139.173,743.283,138.776,743.021,139.403"/>
	</g>
	<g>
		<path fill="#AD846F" d="M728.536,168.926c1.876-2.545,4.263-4.622,5.641-7.515c0.308-0.646-0.701-1.052-1.022-0.424
			c-1.421,2.781-3.775,4.842-5.313,7.534C727.611,168.921,728.269,169.29,728.536,168.926"/>
	</g>
	<g>
		<path fill="#DBDBDB" d="M752.355,196.138c-0.142-0.267,3.768,3.604,6.395,3.957l-1.056,1.354
			C757.694,201.448,754.752,200.605,752.355,196.138"/>
	</g>
	<g>
		<path fill="#373A37" d="M767.144,125.099c-14.853,7.229-27.186,20.602-33.896,35.625c-0.303,0.676,0.739,1.103,1.06,0.439
			c7.352-15.241,18.759-26.762,33.248-35.327C767.97,125.59,767.575,124.888,767.144,125.099"/>
	</g>
	<g>
		<path fill="#373A37" d="M767.361,125.978c11.075-0.208,20.145,8.531,26.21,16.947c6.605,9.164,10.048,20.257,7.802,31.498
			c-0.152,0.767,1.036,0.916,1.201,0.16c2.604-11.951-1.469-23.918-8.723-33.464c-6.292-8.278-15.501-16.759-26.608-16.109
			C766.605,125.046,766.744,125.988,767.361,125.978"/>
	</g>
	<g>
		<path fill="#373A37" d="M801.562,174.215c-3.598,4.841-6.761,9.849-10.966,14.226c-4.455,4.636-9.502,8.472-14.962,11.841
			c-0.753,0.464,0.069,1.547,0.816,1.098c10.451-6.307,20.422-15.644,25.883-26.715C802.559,174.207,801.862,173.81,801.562,174.215
			"/>
	</g>
	<g>
		<path fill="#373A37" d="M772.591,125.658c-3.458,1.747-6.557,4.108-9.402,6.722c-0.552,0.509,0.126,1.455,0.71,0.952
			c2.889-2.487,5.895-4.848,9.229-6.715C773.67,126.314,773.149,125.375,772.591,125.658"/>
	</g>
	<g>
		<path fill="#373A37" d="M775.85,126.674c-1.604,0.739-3.103,1.657-4.506,2.729c-0.675,0.516,0.117,1.578,0.787,1.058
			c1.31-1.017,2.701-1.878,4.185-2.619C777.032,127.484,776.591,126.331,775.85,126.674"/>
	</g>
	<g>
		<path fill="#373A37" d="M778.062,128.144c-2.485,1.319-4.839,2.889-7.063,4.609c-0.695,0.538,0.108,1.618,0.815,1.096
			c2.224-1.643,4.524-3.131,6.881-4.575C779.318,128.89,778.717,127.795,778.062,128.144"/>
	</g>
	<g>
		<path fill="#373A37" d="M783.016,159.69c-3.119,0.975-5.34,4.822-7.269,7.247c-0.464,0.583,0.072,1.288,0.725,1.277
			c3.999-0.076,6.262,5.718,6.892,8.93c0.137,0.692,1.089,0.559,1.073-0.131c-0.09-4.236-3.242-10.189-7.957-10.374
			c0.173,0.424,0.346,0.85,0.52,1.274c2.015-2.501,3.86-5.467,6.518-7.323C784.025,160.236,783.554,159.523,783.016,159.69"/>
	</g>
	<g>
		<path fill="#373A37" d="M783.054,160.396c6.821,3.376,6.593,12.144,0.651,16.339c-0.436,0.31-0.032,1.071,0.465,0.832
			c3.1-1.497,5.142-5.65,5.275-9.002c0.156-4.045-2.307-7.572-6.057-8.977C782.857,159.389,782.55,160.147,783.054,160.396"/>
	</g>
	<g>
		<path fill="#373A37" d="M766.506,147.437c-0.972-0.248-2.256,1.456-2.802,1.988c-1.497,1.465-2.991,2.987-4.242,4.671
			c-0.396,0.531,0.353,1.079,0.796,0.62c1.129-1.174,2.177-2.422,3.318-3.586c0.84-0.856,1.882-2.334,3.035-2.835
			C767.05,148.104,766.922,147.543,766.506,147.437"/>
	</g>
	<g>
		<path fill="#373A37" d="M766.598,147.217c-6.371-4.556-14.866-1.892-18.489,4.743c-0.196,0.36,0.194,0.835,0.581,0.761
			c3.758-0.714,7.199,0.762,10.549,2.294c0.651,0.298,1.08-0.733,0.428-1.029c-3.577-1.623-7.133-3.056-11.113-2.364
			c0.192,0.254,0.385,0.508,0.578,0.761c3.573-6.388,10.843-7.77,17.01-4.385C766.594,148.248,767.013,147.513,766.598,147.217"/>
	</g>
	<g>
		<path fill="#373A37" d="M751.991,147.149c-3.701-0.269-6.175-0.571-8.938,2.054c-3.062,2.908-5.973,5.92-8.495,9.313
			c-0.265,0.357,0.258,0.761,0.543,0.423c2.255-2.666,4.68-5.184,7.175-7.624c1.924-1.881,2.686-2.966,5.673-3.207
			c1.314-0.105,2.706,0.071,4.037,0.021C752.543,148.107,752.55,147.189,751.991,147.149"/>
	</g>
	<g>
		<path fill="#373A37" d="M763.44,150.797c5.223,3.666,11.712,6.137,15.331,11.646c0.508,0.774,1.607-0.079,1.142-0.85
			c-3.31-5.476-10.355-8.979-15.994-11.618C763.434,149.748,762.997,150.485,763.44,150.797"/>
	</g>
	<g>
		<path fill="#AD846F" d="M771.643,200.349c0.784-0.911,1.415-1.928,2.003-2.976c0.284-0.507-0.58-1.018-0.895-0.521
			c-0.618,0.978-1.179,1.976-1.836,2.93C770.579,200.271,771.253,200.802,771.643,200.349"/>
	</g>
	<g>
		<path fill="#587572" d="M731.713,197.762c-3.181-2.324-8.235-0.913-10.871,1.7c-3.192,3.164-6.875,10.729-5.491,15.259
			c0.156,0.513,1.01,0.293,0.91-0.233c-1.32-6.973,6.741-20.776,15.042-16.021C731.705,198.698,732.081,198.031,731.713,197.762"/>
	</g>
	<g>
		<path fill="#373A37" d="M786.552,174.827c0.129,0.622,0.195,1.254,0.146,1.889c-0.047,0.61-0.137,1.308-0.308,1.888
			c-0.144,0.49,0.515,0.785,0.744,0.309c0.353-0.731,0.562-1.335,0.589-2.161c0.024-0.74-0.073-1.444-0.273-2.155
			C787.306,174.088,786.443,174.307,786.552,174.827"/>
	</g>
	<g>
		<path fill="#373A37" d="M786.294,178.518c-4.499,5.844-8.635,11.959-13.183,17.777c-0.458,0.588,0.459,1.305,0.916,0.714
			c4.488-5.832,8.965-11.777,12.886-18.008C787.175,178.582,786.607,178.11,786.294,178.518"/>
	</g>
	<g>
		<path fill="#AD846F" d="M729.824,165.835c0.371,0.103,0.124-0.102-0.127-0.553c-0.373-0.674-0.936-1.424-1.659-1.749
			c-1.475-0.666-2.979,0.377-4.007,1.375c-2.137,2.075-3.943,7.096-0.079,8.498c0.632,0.229,1.009-0.676,0.401-0.963
			c-2.713-1.284-1.386-4.688,0.131-6.366c1.031-1.143,2.896-2.011,4.038-0.594c0.296,0.363,0.474,0.795,0.864,1.073
			c0.162,0.115,0.349,0.111,0.514,0.006c0.004-0.003,0.009-0.007,0.014-0.01C730.162,166.392,730.124,165.918,729.824,165.835"/>
	</g>
	<g>
		<path fill="#587572" d="M734.215,226.603c5.612,0.467,12.622-0.65,15.834-5.875c2.268-3.689,2.035-10.046-2.079-12.33
			c-0.568-0.315-1.141,0.653-0.582,0.997c4.305,2.647,3.456,9.502,0.274,12.567c-3.477,3.348-8.722,3.943-13.35,3.896
			C733.846,225.854,733.72,226.562,734.215,226.603"/>
	</g>
	<g>
		<path fill="#AD846F" d="M772.656,198.787c2.406,1.037,4.83,4.134,2.049,6.329c-1.765,1.394-5.608,1.085-6.857-0.95
			c-0.364-0.591-1.371-0.03-1.067,0.596c1.504,3.076,7.022,3.182,9.21,0.875c2.8-2.955,0.22-6.64-2.954-7.768
			C772.437,197.657,772.062,198.531,772.656,198.787"/>
	</g>
	<g>
		<path fill="#AD846F" d="M723.892,173.031c-1.894,2.023-3.039,5.063-3.872,7.658c-0.187,0.576,0.667,0.95,0.882,0.366
			c0.937-2.542,1.897-5.407,3.608-7.542C724.831,173.112,724.23,172.668,723.892,173.031"/>
	</g>
	<g>
		<path fill="#AD846F" d="M719.946,181.382c0.428,8.019,9.294,15.104,14.862,19.97c7.373,6.443,16.041,10.191,25.616,12.047
			c0.797,0.153,0.952-1.078,0.168-1.244c-8.849-1.882-16.971-5.026-23.938-10.93c-6.09-5.159-14.096-11.779-15.882-19.945
			C720.66,180.757,719.918,180.841,719.946,181.382"/>
	</g>
	<g>
		<path fill="#AD846F" d="M767.003,204.26c-2.028,2.912-4.46,5.427-6.71,8.154c-0.485,0.589,0.406,1.233,0.915,0.715
			c2.44-2.493,4.688-5.341,6.496-8.321C767.993,204.331,767.336,203.781,767.003,204.26"/>
	</g>
	<g>
		<path fill="#E0AA86" d="M760.962,176.429c-2.982,3.647-4.352,9.459,0.03,12.707c4.49,3.326,9.321-1.101,12.088-4.569
			c2.68-3.359,4.325-9.229,0.089-12.183c-4.536-3.164-9.196,0.875-12.279,3.989c-0.385,0.388,0.254,1.03,0.671,0.686
			c1.797-1.479,3.437-3.345,5.7-4.125c3.379-1.165,6.856,0.571,7.235,4.326c0.23,2.267-0.749,4.304-2.052,6.08
			c-2.119,2.889-5.696,6.732-9.556,5.301c-5.257-1.952-3.892-8.171-1.307-11.729C761.877,176.504,761.282,176.039,760.962,176.429"
			/>
	</g>
	<g>
		<path fill="#E0AA86" d="M752.646,170.765c-1.31,1.177-2.725,2.177-4.442,2.685c-2.931,0.864-7.141,0.244-6.362-4.64
			c0.397-2.497,4.209-6.735,6.206-7.968c1.445-0.895,3.32-1.479,5.04-1.188c4.52,0.767,3.271,4.877,1.678,7.558
			c-0.735,1.238-1.646,2.428-2.272,3.722c-0.186,0.382,0.339,0.797,0.666,0.519c2.423-2.062,6.184-7.656,3.939-10.831
			c-2.842-4.025-8.79-1.915-11.607,0.84c-2.573,2.517-7.233,8.311-3.788,11.827c3.366,3.435,8.739,0.866,11.526-1.927
			C753.563,171.028,752.998,170.447,752.646,170.765"/>
	</g>
	<g>
		<path fill="#AD846F" d="M760.984,177.478c5.114,0.206,8.488,3.706,9.229,8.633c0.107,0.726,1.159,0.583,1.122-0.14
			c-0.292-5.476-4.871-9.373-10.219-9.478C760.488,176.481,760.34,177.452,760.984,177.478"/>
	</g>
	<g>
		<path fill="#AD846F" d="M743.872,164.517c4.392-1.47,8.485,1.891,8.072,6.448c-0.068,0.763,1.098,0.93,1.187,0.159
			c0.633-5.463-4.499-9.354-9.594-7.441C742.994,163.887,743.328,164.698,743.872,164.517"/>
	</g>
	<g>
		<path fill="#AD846F" d="M738.059,178.061c5.654,8.186,13.924,14.122,22.729,18.544c0.598,0.301,0.989-0.655,0.398-0.959
			c-8.742-4.492-16.521-10.169-22.512-18.044C738.375,177.209,737.78,177.657,738.059,178.061"/>
	</g>
	<g>
		<path fill="#AD846F" d="M737.721,177.517c-2.84,3.807-3.373,8.915-3.622,13.513c-0.037,0.667,0.991,0.82,1.043,0.139
			c0.356-4.749,1.067-8.968,3.337-13.21C738.715,177.514,738.014,177.123,737.721,177.517"/>
	</g>
	<g>
		<path fill="#AD846F" d="M734.531,191.779c4.111,5.293,11.45,10.166,18.264,10.754c3.799,0.327,8.909-1.942,8.76-6.476
			c-0.024-0.747-1.133-0.579-1.135,0.139c-0.008,2.788-3.645,5.087-5.894,5.308c-2.353,0.231-4.838-0.551-6.964-1.448
			c-4.661-1.969-9.031-4.96-12.31-8.812C734.88,190.808,734.173,191.319,734.531,191.779"/>
	</g>
	<g>
		<path fill="#587572" d="M729.357,137.034c-0.469,9.601-4.944,18.005-7.852,26.979c-1.331,4.112-2.01,8.345-3,12.543
			c-1.232,5.227-3.716,9.66-6.146,14.388c-4.663,9.08-7.5,18.94-11.832,28.165c-4.685,9.979-12.195,20.687-24.583,19.68
			c-0.728-0.059-0.887,1.038-0.151,1.134c22.039,2.855,28.788-28.755,35.308-43.498c2.186-4.948,5.229-9.544,7.112-14.618
			c1.937-5.222,2.403-10.843,4.006-16.162c2.858-9.482,7.914-18.369,8.032-28.492C730.259,136.588,729.388,136.445,729.357,137.034"
			/>
	</g>
	<g>
		<path fill="#587572" d="M716.243,214.732c1.616-3.562,7.055-11.193,11.351-6.257c3.056,3.509-2.71,8.985-4.977,11.312
			c-2.455,2.521-5.153,4.903-6.988,7.943c-1.932,3.204-2.019,6.294-2.147,9.929c-0.171,4.807-1.458,9.327-5.318,12.455
			c-3.534,2.865-8.272,3.735-12.694,3.94c-2.015,0.094-4.771,0.469-6.765-0.041c-2.2-0.563-3.427-2.866-4.899-4.403
			c-3.068-3.203-6.823-5.751-7.777-10.376c-0.155-0.749-1.34-0.607-1.184,0.146c1.102,5.39,5.494,8.007,8.885,11.916
			c1.206,1.391,1.884,3.257,3.75,3.819c1.856,0.559,4.329,0.237,6.257,0.214c10.984-0.125,20.356-4.905,20.937-16.868
			c0.201-4.149,0.192-7.591,2.694-11.179c1.753-2.512,4.062-4.581,6.182-6.769c2.398-2.475,6.374-6.178,6.108-10.028
			c-0.185-2.695-2.918-5.041-5.604-4.796c-4.113,0.375-7.313,5.309-8.715,8.668C715.094,214.94,715.982,215.307,716.243,214.732"/>
	</g>
	<g>
		<path fill="#587572" d="M693.828,254.895c-1.93,2.299-2.721,4.765-2.668,7.751c0.006,0.292,0.315,0.445,0.564,0.439
			c5.549-0.112,9.412,3.604,13.466,6.827c3.038,2.415,6.303,4.439,9.794,6.129c0.659,0.318,1.086-0.725,0.436-1.05
			c-5.79-2.887-10.142-7.269-15.58-10.588c-1.436-0.877-2.96-1.627-4.604-2.022c-0.102-0.023-2.447-0.327-2.459-0.338
			c-1.777-1.758,0.649-5.222,1.701-6.641C694.796,254.975,694.168,254.487,693.828,254.895"/>
	</g>
	<g>
		<path fill="#587572" d="M715.804,275.77c4.809-10.193,13.406-17.104,20.471-25.602c3.273-3.939,5.849-8.354,8.852-12.487
			c3.337-4.592,7.377-8.358,12.08-11.523c8.845-5.953,18.58-11.029,28.153-15.704c4.519-2.208,9.126-4.131,13.795-5.993
			c1.981-0.791,3.913-1.646,5.757-2.725c2.271-1.327,4.664-3.311,7.459-2.136c0.683,0.287,1.107-0.748,0.439-1.06
			c-2.873-1.344-5.374,0.286-7.862,1.74c-5.128,3-10.877,4.751-16.254,7.264c-10.203,4.767-20.333,10.296-29.871,16.29
			c-4.407,2.77-8.568,5.932-11.954,9.915c-3.917,4.606-6.738,10.018-10.489,14.75c-7.116,8.98-16.864,16.12-21.411,26.923
			C714.738,275.962,715.555,276.296,715.804,275.77"/>
	</g>
	<g>
		<path fill="#587572" d="M727.428,215.602c2.979-1.793,11.184-2.409,11.167,2.854c-0.011,3.39-1.973,5.086-4.392,6.983
			c-0.475,0.374-0.053,1.207,0.531,0.95c0.003-0.002,0.006-0.004,0.01-0.005c0.646-0.285,0.241-1.305-0.406-1.02
			c-0.002,0.002-0.007,0.004-0.01,0.005c0.177,0.317,0.354,0.633,0.531,0.949c1.307-0.913,2.862-2.036,3.706-3.42
			c0.935-1.534,1.631-4.716,0.853-6.404c-0.916-1.984-3.986-2.905-5.968-3.141c-2.354-0.279-4.542,0.319-6.542,1.548
			C726.427,215.198,726.951,215.889,727.428,215.602"/>
	</g>
	<g>
		<path fill="#82786F" d="M806.969,179.396c-1.327,1.468-2.513,3.057-3.494,4.776c-0.275,0.483,0.561,0.977,0.854,0.498
			c1.015-1.657,2.096-3.234,3.342-4.727C808.037,179.5,807.348,178.976,806.969,179.396"/>
	</g>
	<g>
		<path fill="#82786F" d="M803.599,184.926c1.367,0.402,2.405,1.061,3.502,1.948c0.444,0.358,1.125-0.271,0.733-0.717
			c-1.007-1.149-2.519-1.848-4.021-2.022C803.366,184.084,803.134,184.79,803.599,184.926"/>
	</g>
	<g>
		<path fill="#82786F" d="M810.945,183.638c-1.252,0.643-2.422,1.488-3.594,2.262c-0.518,0.34,0.062,1.115,0.572,0.77
			c1.135-0.765,2.338-1.498,3.384-2.382C811.613,184.03,811.345,183.432,810.945,183.638"/>
	</g>
	<g>
		<path fill="#82786F" d="M811.059,183.713c-0.901,1.156-1.84,2.274-2.762,3.412c-0.385,0.475,0.327,0.995,0.733,0.572
			c1.006-1.045,1.901-2.252,2.677-3.479C811.984,183.781,811.39,183.287,811.059,183.713"/>
	</g>
	<g>
		<path fill="#82786F" d="M808.44,187.857c2.159,1.98,4.06,3.894,4.013,7.017c-0.029,1.956,0.304,4.499-0.733,6.204
			c-0.349,0.573,0.432,1.23,0.846,0.66c0.75-1.033,0.93-2.067,0.939-3.325c0.011-1.395,0.147-2.87,0.063-4.256
			c-0.177-2.973-2.249-5.351-4.634-6.935C808.501,186.935,808.057,187.506,808.44,187.857"/>
	</g>
	<g>
		<path fill="#82786F" d="M807.568,179.855c9.732-0.227,17.315,11.693,12.69,20.183c-0.319,0.586,0.684,1.181,1.024,0.598
			c2.328-3.973,2.304-9.838-0.284-13.678c-2.783-4.13-8.263-8.59-13.534-7.951C806.906,179.073,807.029,179.868,807.568,179.855"/>
	</g>
	<g>
		<path fill="#82786F" d="M820.622,200.201c-2.814-0.075-5.725,0.323-8.456,0.993c-0.703,0.173-0.607,1.276,0.143,1.146
			c2.765-0.475,5.537-0.827,8.31-1.254C821.096,201.013,821.149,200.215,820.622,200.201"/>
	</g>
	<g>
		<path fill="#82786F" d="M748.9,130.844c-1.782,2.655-2.444,5.815-4.467,8.348c-0.4,0.5,0.342,1.042,0.77,0.6
			c2.236-2.315,3.048-5.682,4.459-8.504C749.883,130.843,749.181,130.426,748.9,130.844"/>
	</g>
	<g>
		<path fill="#82786F" d="M744.922,139.134c-0.834-0.809-2.075-1.552-3.235-1.723c-0.551-0.083-0.698,0.663-0.242,0.898
			c0.473,0.243,0.981,0.413,1.456,0.657c0.511,0.263,0.969,0.592,1.443,0.912C744.854,140.222,745.354,139.553,744.922,139.134"/>
	</g>
	<g>
		<path fill="#82786F" d="M743.304,132.065c-0.685,1.831-1.533,3.52-2.383,5.274c-0.217,0.45,0.485,0.87,0.768,0.446
			c1.105-1.649,1.854-3.605,2.354-5.521C744.152,131.841,743.455,131.661,743.304,132.065"/>
	</g>
	<g>
		<path fill="#82786F" d="M743.229,131.853c-2.012,1.294-3.697,3.137-4.796,5.262c-0.262,0.505,0.571,1.003,0.874,0.51
			c1.224-1.99,2.6-3.627,4.408-5.118C744.123,132.17,743.669,131.57,743.229,131.853"/>
	</g>
	<g>
		<path fill="#82786F" d="M738.744,137.081c-3.078-1.774-7.185-1.787-10.386-0.316c-0.591,0.271-0.24,1.154,0.374,0.938
			c3.321-1.167,6.395-1.007,9.692,0.151C738.943,138.034,739.199,137.344,738.744,137.081"/>
	</g>
	<g>
		<path fill="#82786F" d="M728.438,136.985c-0.657-3.128-0.695-6.29-0.424-9.462c0.055-0.625-0.843-0.745-0.964-0.129
			c-0.639,3.291-0.317,6.597,0.592,9.797C727.771,137.64,728.537,137.446,728.438,136.985"/>
	</g>
	<g>
		<path fill="#82786F" d="M727.646,127.72c7.353-3.338,15.07-0.629,21.271,3.824c0.566,0.405,1.235-0.448,0.668-0.855
			c-6.369-4.571-14.804-7.684-22.261-3.779C726.837,127.167,727.129,127.956,727.646,127.72"/>
	</g>
	<g>
		<path fill="#AD846F" d="M736.871,121.505c1.454,3.117,5.131,4.506,8.475,3.788c1.614-0.347,2.748-1.141,3.649-2.507
			c0.741-1.122,0.79-2.512,1.419-3.652c1.302-2.355,2.936-3.234,5.173-4.533c1.82-1.058,2.883-3.202,0.925-5.254
			c-1.894-1.983-5.671,0.105-7.518,0.947c-0.49,0.223-0.193,0.98,0.311,0.779c0.761-0.303,1.623-0.813,2.412-1.01
			c2.019-0.503,5.349,0.336,4.068,2.755c-0.916,1.731-3.332,2.302-4.726,3.738c-0.981,1.015-1.315,2.205-2.034,3.374
			c-1.316,2.143-3.049,4.522-5.906,4.278c-2.257-0.194-4.206-1.178-5.342-3.208C737.488,120.481,736.622,120.972,736.871,121.505"/>
	</g>
	<g>
		<path fill="#AD846F" d="M749.146,110.756c0.92-2.098,0.259-4.164-0.226-6.327c-0.716-3.182-1.492-6.398-2.852-9.376
			c-0.618-1.355-1.623-4.012-3.107-4.625c-1.721-0.709-3.955,0.916-5.1,1.95c-0.4,0.361,0.093,1.04,0.506,0.68
			c5.241-4.587,7.485,3.854,8.449,7.248c0.844,2.956,2.379,7.162,1.602,10.254C748.31,110.988,748.978,111.139,749.146,110.756"/>
	</g>
	<g>
		<path fill="#AD846F" d="M732.729,97.783c-0.595-1.131-1.924-2.975-1.014-4.16c0.818-1.067,3.423-1.162,4.467-0.705
			c1.145,0.501,2.093,1.632,2.814,2.617c1.855,2.533,3.182,5.825,3.428,8.948c0.048,0.62,0.983,0.493,0.952-0.119
			c-0.236-4.513-3.412-12.147-8.512-13.038c-1.785-0.312-3.062,0.544-4.113,1.916c-1.425,1.856,0.026,3.136,1.164,4.997
			C732.189,98.691,732.979,98.255,732.729,97.783"/>
	</g>
</g>
<rect x="148" y="26" fill="#E6E6E6" width="569" height="333"/>
<path fill="#E6E6E6" d="M717,29V15c0-6.627-5.373-12-12-12H160c-6.627,0-12,5.373-12,12v14H717z"/>
<g>
	<g>
		<path fill="#6B533B" d="M161.321,251.812c-13.419,4.642-26.455,12.76-37.686,21.344c-0.617,0.472-0.03,1.536,0.624,1.065
			c5.864-4.22,11.83-8.238,18.113-11.815c6.293-3.584,12.882-6.422,19.35-9.644C162.245,252.502,161.88,251.619,161.321,251.812"/>
	</g>
	<g>
		<path fill="#6B533B" d="M123.503,273.812c4.37,17.315,8.645,34.705,13.521,51.888c0.209,0.736,1.35,0.424,1.148-0.317
			c-4.686-17.233-8.59-34.726-13.781-51.816C124.22,272.998,123.357,273.233,123.503,273.812"/>
	</g>
</g>
<g>
	<g>
		<path fill="#FFFFFF" d="M167.136,157.746c0,16.342-13.248,29.59-29.589,29.59c-16.342,0-29.59-13.248-29.59-29.59
			c0-16.342,13.248-29.589,29.59-29.589C153.889,128.156,167.136,141.404,167.136,157.746"/>
	</g>
	<g>
		<circle fill="none" stroke="#C5D8E2" stroke-width="2" stroke-miterlimit="10" cx="137.546" cy="157.746" r="29.59"/>
	</g>
	<g>
		<path fill="#FF4848" d="M148.927,159.426c1.071-1.261,1.715-2.883,1.715-4.652c0-4.021-3.326-7.279-7.432-7.279
			c-2.437,0-4.599,1.149-5.955,2.924l0.737,0.212c-1.342-1.895-3.579-3.136-6.112-3.136c-4.104,0-7.432,3.258-7.432,7.279
			c0,1.763,0.64,3.38,1.706,4.64c0,0,9.743,11.053,11.391,11.053C139.372,170.467,148.927,159.426,148.927,159.426L148.927,159.426z
			"/>
	</g>
</g>
<g>
	<g>
		<path fill="#CE3C3C" d="M137.861,170.146c-3.967-3.756-10.583-7.784-11.893-13.436c-1.08-4.666,3.944-11.134,8.725-7.346
			c0.927,0.734,1.578,1.626,2.742,1.841c0.673,0.125,0.592-0.156,1.042-0.29c0.741-1.494,1.82-2.256,3.241-2.288
			c0.826-0.178,1.653-0.155,2.484,0.071c2.149,0.539,4.332,2.275,4.826,4.55c1.334,6.141-7.528,13.627-11.811,16.767
			c-0.579,0.424-0.036,1.399,0.573,0.979c4.976-3.434,14.347-11.017,12.665-18.14c-0.669-2.833-3.11-4.911-5.903-5.422
			c-1.265-0.231-2.738-0.249-3.975,0.173c-0.978,0.334-1.717,1.508-2.519,1.78c-1.505,0.509-2.052-1.109-3.204-1.705
			c-1.06-0.547-2.47-0.745-3.651-0.585c-2.513,0.337-5.07,2.48-6.048,4.771c-3.37,7.888,7.063,14.89,11.99,18.996
			C137.638,171.274,138.343,170.602,137.861,170.146"/>
	</g>
</g>
<g>
	<g>
		<path fill="#F9F9F9" d="M173.965,377.085c0,10.59-16.743,19.175-37.397,19.175c-20.654,0-37.399-8.585-37.399-19.175
			s16.745-19.174,37.399-19.174C157.222,357.911,173.965,366.495,173.965,377.085"/>
	</g>
	<g>
		<path fill="#D3A36A" d="M157.312,328.41c0,0,3.842,1.683,5.288,1.585c1.445-0.099,1.845-0.048,1.845-0.048
			s0.374,4.025-0.757,7.886c-1.131,3.863-2.037,6.529-3.612,7.464c0,0-1.946-0.723-1.167-4.596c0,0-1.289,1.431-2.779,1.451
			c-1.49,0.02-1.269-1.938,0.65-5.612l-3.429-0.733l1.09-4.128C154.442,331.679,157.51,330.784,157.312,328.41"/>
	</g>
	<g>
		<path fill="#BA8F60" d="M158.123,334.566c-0.065,1.104,0.037,2.218,0.303,3.292c0.161,0.652,0.4,1.317,0.888,1.781
			c0.489,0.465,1.286,0.658,1.849,0.288c0.564-0.371,0.694-1.124,0.845-1.785c0.196-0.866,0.51-1.706,0.931-2.488
			c0.101,1.164-0.195,2.323-0.487,3.455c-0.241,0.932-0.49,1.878-1.021,2.68c-0.532,0.798-1.409,1.434-2.369,1.417
			c0.114-0.743,0.146-1.498,0.099-2.246c-0.666,0.343-2.845,1.495-3.565,1.285c-0.854-0.246,0.112-2.028,0.155-2.916
			c0.045-0.888,0.473-1.704,0.88-2.495c0.086-0.167,0.171-0.371,0.074-0.533c-0.101-0.169-0.334-0.183-0.529-0.18
			c-0.418,0.008-0.836,0.016-1.254,0.024c-0.146,0.003-0.306,0-0.415-0.096c-0.106-0.096-0.13-0.252-0.142-0.395
			c-0.087-0.956-0.022-1.927,0.192-2.861c0.032-0.145,0.108-0.322,0.256-0.319c0.091,0.002,0.162,0.074,0.225,0.14
			c0.538,0.546,1.263,0.903,2.022,0.996c0.375,0.045,0.83,0.073,1.002,0.407C158.147,334.183,158.134,334.379,158.123,334.566"/>
	</g>
	<g>
		<path fill="#DBD7B6" d="M121.256,339.44c0,0-1.895,5.47-1.663,10.619c0.231,5.149,0.18,17.953,0.18,17.953
			s1.108,3.521,6.504,2.874c5.396-0.646,12.469-2.395,13.306-3.954c0,0,12.314,0.207,14.362-1.932
			c2.049-2.137,1.221-8.214,1.221-8.214s1.614-18.732,0.166-25.863S121.256,339.44,121.256,339.44"/>
	</g>
	<g>
		<path fill="#F2EFC9" d="M153.926,333.142l-9.329,3.428c-0.001-0.001-0.001-0.001-0.003-0.003c-0.258-0.223-0.65-0.162-0.985-0.087
			c-1.298,0.293-2.595,0.591-3.889,0.897c-1.373,0.325-2.758,0.664-4.017,1.298c-0.265,0.135-0.534,0.296-0.756,0.492l-8.036,0.31
			c0.236,5.521,0.493,11.044,0.769,16.564c0.034,0.656,0.071,1.331,0.35,1.926c0.49,1.049,1.662,1.655,2.819,1.769
			c1.157,0.113,2.312-0.191,3.42-0.545c1.105-0.35,2.273-0.809,2.9-1.775c0.557-0.86,0.574-1.944,0.574-2.967
			c-0.001-4.217-0.003-8.434-0.004-12.653c0.093-0.135,0.195-0.263,0.31-0.379c0.657-0.651,1.581-0.977,2.5-1.107
			c0.889-0.129,1.964-0.005,2.411,0.769c0.06,0.104,0.113,0.222,0.167,0.339c-0.005,4.545-0.012,9.091-0.019,13.639
			c0,0.492,0.011,1.023,0.312,1.415c0.414,0.542,1.195,0.604,1.879,0.616c1.823,0.029,3.781-0.01,5.265-1.063
			c1.773-1.259,2.35-3.585,2.701-5.723C154.19,344.635,154.413,338.857,153.926,333.142"/>
	</g>
	<g>
		<path fill="#AFAA84" d="M119.849,340.613c-0.001-0.263,0-0.542,0.136-0.768c0.178-0.3,0.538-0.432,0.871-0.54
			c10.602-3.431,21.513-5.802,32.408-8.148c0.412-0.088,0.838-0.177,1.251-0.09c0.412,0.087,0.81,0.399,0.853,0.82
			c0.062,0.597-0.554,1.016-1.089,1.288c-9.613,4.85-20.364,7.428-31.132,7.47c0.32,1.589,0.641,3.192,0.603,4.813
			c-0.037,1.621-0.464,3.281-1.494,4.534c-0.574,0.697-1.523,1.281-2.349,0.913C119.887,347.475,119.868,344.044,119.849,340.613"/>
	</g>
	<g>
		<path fill="#DBD7B6" d="M99.893,201.878c0,0-3.943,69.311-3.607,69.742c0.335,0.434,22.758,1.722,22.758,1.722
			s8.592-2.911,9.968-5.798c1.375-2.886,0.443-10.507,0.443-10.507l39.694-16.629c0,0,3.312,10.291,4.846,10.34
			c1.535,0.05,0.217-8.464,0.217-8.464s3.139-59.594-5.097-66.625c0,0-16.967,0.553-38.045,7.552
			C109.992,190.211,102.006,198.514,99.893,201.878"/>
	</g>
	<g>
		<path fill="#D3A36A" d="M121.102,212.329c0,0-1.039,12.46,0.01,23.156c1.049,10.697,2.071,17.45,2.071,17.45l5.479,4.102
			l11.355,5.707c0,0,12.231-1.476,19.015-7.049c6.784-5.572,10.199-7.695,9.324-17.504s-2.066-31.445-3.453-34.037
			c0,0-11.557-1.629-24.886,1.189C126.69,208.162,121.102,212.329,121.102,212.329"/>
	</g>
	<g>
		<path fill="#D3A36A" d="M109.923,233.452c0,0-5.448,1.314-4.24,5.172c1.208,3.856,6.024,4.317,7.312,2.437
			C114.282,239.182,109.923,233.452,109.923,233.452"/>
	</g>
	<g>
		<path fill="#D3A36A" d="M174.737,221.493v9.504c0,0,3.139-1.558,3.139-5.465S174.737,221.493,174.737,221.493"/>
	</g>
	<g>
		<path fill="#EAB978" d="M126.431,254.642c2.159,3.267,5.957,4.98,9.552,6.529c1.941,0.837,3.961,1.689,6.074,1.626
			c1.657-0.051,3.239-0.662,4.765-1.31c3.665-1.557,7.221-3.368,10.635-5.418c2.958-1.777,5.876-3.799,7.856-6.627
			c1.978-2.829,4.409-8.08,3.044-11.251c-0.694-1.615-0.542-5.34-3.137-10.263c-2.108-4.001-1.258-1.603-2.457-5.964
			c-0.139-0.506-0.311-1.023-0.665-1.411c-0.402-0.438-0.986-0.654-1.552-0.841c-10.582-3.477-24.377-0.733-33.349,5.869
			c-0.701,0.516-1.402,1.08-1.808,1.85c-0.438,0.831-0.484,1.806-0.521,2.745c-0.17,4.344-0.34,7.894-0.51,12.237
			C124.193,246.617,124.112,251.133,126.431,254.642"/>
	</g>
	<g>
		<path fill="#EAB978" d="M110.266,234.656c-0.448,0.355-0.901,0.717-1.236,1.182c-0.773,1.071-0.76,2.646,0.032,3.705
			c0.792,1.058,2.299,1.516,3.545,1.076c0.157-0.056,0.316-0.128,0.422-0.255c0.196-0.236,0.162-0.583,0.111-0.886
			c-0.22-1.305-0.548-2.592-0.982-3.842c-0.179-0.518-0.397-1.058-0.836-1.384c-0.44-0.326-1.167-0.321-1.452,0.146"/>
	</g>
	<g>
		<path fill="#BA8F60" d="M120.607,227.451c0.075-4.366,0.15-8.732,0.225-13.1c0.012-0.684-0.218-0.745,0.026-1.385
			c0.551-1.443,2.613-1.969,4.041-2.561c11.624-4.811,24.11-7.732,36.655-6.784c1.042,0.079,2.14,0.198,2.979,0.82
			c0.838,0.622,1.265,1.923,0.611,2.737c-13.041-0.46-26.162,1.459-38.525,5.635l-1.805,0.547
			c-2.337,7.263-3.305,14.965-2.837,22.579L120.607,227.451z"/>
	</g>
	<g>
		<path fill="#F2EFC9" d="M124.066,205.75c-2.336,0.797-4.856,0.811-7.325,0.814l-7.189,0.014c-0.994,0.002-2.024-0.004-2.927-0.42
			c-1.593-0.735-2.403-2.641-2.276-4.391c0.126-1.75,1.021-3.354,2.069-4.76c5.047-6.766,18.953-12.493,27.059-14.848
			c12.83-3.727,20.178-4.691,33.44-6.305c0.441-0.054,1.787-0.365,2.196-0.196c0.569,0.234,0.375,1.969,0.646,2.52
			c1.665,3.365,3.092,7.007,2.885,10.756c-0.208,3.749-2.441,7.607-6.042,8.665c-2.683,0.787-5.53-0.056-8.271-0.601
			c-9.482-1.883-19.657-0.014-27.849,5.119C128.394,203.428,126.398,204.953,124.066,205.75"/>
	</g>
	<g>
		<path fill="#AFAA84" d="M108.95,229.046c-1.125,1.703-1.995,3.575-2.572,5.533c0.832-0.63,1.837-1.026,2.875-1.134
			c0.531-0.056,1.251-0.213,1.238-0.747c-0.003-0.136-0.062-0.262-0.119-0.385c-0.49-1.047-0.979-2.093-1.47-3.142"/>
	</g>
	<g>
		<path fill="#AFAA84" d="M128.247,257.001c-0.198-0.548-0.635-0.971-1.059-1.371c-1.044-0.988-2.089-1.979-3.135-2.968
			c-0.048,2.743,0.203,5.494,0.748,8.184c-0.801,0.688-1.92-0.346-2.444-1.259c-3.488-6.08-6.473-12.448-8.913-19.019
			c-2.254,2.093-6.27,1.816-8.216-0.564c-0.556,10.302,3.775,20.764,11.452,27.656c2.078,1.865,4.889,3.565,7.521,2.63
			c2.052-0.73,3.284-2.887,3.714-5.02c0.432-2.135,0.983-3.59,1.157-5.761C129.117,258.92,128.447,257.557,128.247,257.001"/>
	</g>
	<g>
		<path fill="#AFAA84" d="M164.64,203.395c0,0,3.8,0.905,4.475,8.314c0.673,7.408,1.762,27.957,4.88,37.978
			c0,0-5.705-6.367-6.243-17.875C167.213,220.305,165.497,205.902,164.64,203.395"/>
	</g>
	<g>
		<path fill="#AFAA84" d="M121.102,212.329c0,0-5.482,5.983-2.851,23.611c2.631,17.629,5.999,26.804,5.999,26.804
			s-2.265-15.555-2.954-25.423C120.608,227.451,121.102,212.329,121.102,212.329"/>
	</g>
	<g>
		<path fill="#F7F5E4" d="M160.503,197.598c-8.838-1.723-18.209-0.592-26.385,3.184c-1.332,0.615-2.632,1.298-3.909,2.021
			c-3.187,1.803-6.499,3.928-10.155,3.742c4.308-1.102,7.896-3.983,11.78-6.148c9.49-5.292,21.294-6.24,31.508-2.529
			C162.395,197.996,161.44,197.781,160.503,197.598"/>
	</g>
	<g>
		<path fill="#AE3A30" d="M122.244,271.676c0,0-8.195,2.545-11.643,11.029c-3.447,8.482-4.217,28.684-4.2,32.639
			c0.017,3.957-0.192,13.854-0.192,13.854s-1.561,0.665-1.49,3.57s0.155,6.056,3.605,7.12c3.45,1.064,12.011-0.386,13.736-1.441
			c0,0,4.216,2.374,17.374-2.31c8.88-2.755,17.549-6.537,17.549-6.537s-0.414-1.464,6.476,0.651c2.514-0.427,1.528-1.825,1.85-4.859
			c0.584-5.514-1.854-5.714-1.854-5.714l0.004-19.906c0,0,0.741-4.503,0-9.793c-0.74-5.292,0.135-15.396-4.007-18.896
			c-4.142-3.501-6.649-5.046-6.649-5.046s-1.435-6.354-6.514-3.734l0.773,5.759c0,0-2.695,2.317-9.751,3.02
			c-7.058,0.704-9.248-1.653-9.248-1.653s1.788-3.966,1.395-5.227C129.065,262.941,121.759,264.438,122.244,271.676"/>
	</g>
	<g>
		<path fill="#D3A36A" d="M141.35,262.582c-1.751-0.277-3.241-1.148-4.8-1.942c-2.103-1.069-4.212-2.112-6.402-2.992
			c-0.213-0.086-0.281-0.292-0.253-0.473l-0.441-0.138l-1.391,12.392c0,0,11.783,4.548,18.999-1.366l-0.761-5.665
			C144.66,262.707,142.997,262.842,141.35,262.582"/>
	</g>
	<g>
		<polygon fill="#BA8F60" points="129.348,261.667 142.773,267.824 146.676,266.505 146.301,262.397 140.549,262.993 
			128.663,257.037 		"/>
	</g>
	<g>
		<path fill="#C94343" d="M119.653,279.768c-0.357-2.042,2.301-3.423,4.331-3.001c2.029,0.421,3.706,1.849,5.675,2.498
			c2.894,0.956,6.037,0.141,8.989-0.618c4.559-1.175,9.151-2.214,13.772-3.114c1.282-0.249,2.714-0.463,3.81,0.249
			c0.794,0.517,1.238,1.415,1.645,2.271l2.692,5.662c0.721,1.516,1.459,3.203,0.997,4.816c-0.685,2.395-3.528,3.312-5.959,3.856
			c-7.626,1.711-15.28,3.427-23.066,4.108c-0.661,0.058-1.352,0.104-1.965-0.15c-1.141-0.473-1.63-1.784-2.067-2.94
			c-1.601-4.231-4.104-8.121-7.293-11.33C120.547,281.405,119.815,280.697,119.653,279.768"/>
	</g>
	<g>
		<path fill="#C1403A" d="M143.669,317.302c1.194-0.278,2.417-0.411,3.641-0.491c1.985-0.131,4.085-0.094,5.814,0.894
			c2.071,1.181,3.236,3.555,3.547,5.918c0.312,2.365-0.106,4.757-0.524,7.105c-8.503,2.283-16.917,4.904-25.211,7.86
			c-0.843-4.488-0.16-9.29,2.115-13.25C135.325,321.378,139.218,318.331,143.669,317.302"/>
	</g>
	<g>
		<path fill="#932F2A" d="M126.229,275.297c0,0-3.036-1.886-7.978-0.016c-4.941,1.872-6.776,4.373-6.776,4.373
			s6.72-7.428,10.77-7.979L126.229,275.297z"/>
	</g>
	<g>
		<path fill="#932F2A" d="M151.001,269.849c0.373,0.089,4.333,0.129,5.982-1.013l-5.048-2.879L151.001,269.849z"/>
	</g>
	<g>
		<path fill="#932F2A" d="M121.377,293.828c0,0,1.881,31.913,2.277,33.843c0,0,3.038,1.711,2.575,11.456
			c0,0-3.309-0.135-3.471-0.399c-0.163-0.265,0.877-9.525-2.545-10.316C120.212,328.411,120.288,299.372,121.377,293.828"/>
	</g>
	<g>
		<path fill="#932F2A" d="M159.953,303.597c0,0-0.924,17.95,0,26.003l-2.641-1.189C157.312,328.41,156.785,305.312,159.953,303.597"
			/>
	</g>
	<g>
		<path fill="#D3A36A" d="M105.756,338.034c0,0-3.5,1.048-2.8,3.682c0.7,2.635,3.659,7.535,4.529,8.421
			c0.87,0.887,3.36,3.283,6.448,1.074c3.088-2.208,2.972-3.164,2.972-3.164s3.229,1.178,4.197-2.496
			c0.968-3.676-0.016-6.339-0.016-6.339S115.379,342.41,105.756,338.034"/>
	</g>
	<g>
		<path fill="#EAB978" d="M105.472,342.174c0.272-0.405,0.806-0.564,1.293-0.529c0.487,0.034,0.947,0.228,1.406,0.395
			c1.718,0.627,3.563,0.905,5.389,0.81c0.827-0.044,1.854-0.061,2.245,0.668c0.395,0.736-0.204,1.595-0.769,2.21
			c-0.608,0.661-1.229,1.328-1.996,1.795c-0.768,0.469-1.711,0.718-2.576,0.477c-0.394-0.111-0.753-0.317-1.098-0.537
			c-1.309-0.835-2.473-1.897-3.42-3.126C105.464,343.708,105.032,342.83,105.472,342.174"/>
	</g>
	<g>
		<path fill="#BA8F60" d="M118.134,345.738c0.042-0.042,0.089-0.082,0.145-0.101c0.061-0.021,0.127-0.016,0.191-0.007
			c0.71,0.107,1.293,0.775,1.302,1.493c0.003,0.25-0.07,0.521-0.274,0.665c-0.142,0.099-0.322,0.12-0.494,0.139
			c-0.425,0.047-0.875,0.087-1.263-0.091c-0.058-0.026-0.116-0.062-0.144-0.119c-0.03-0.061-0.017-0.133-0.003-0.199
			c0.07-0.349,0.141-0.698,0.212-1.046c0.029-0.144,0.059-0.288,0.117-0.422C117.975,345.935,118.046,345.827,118.134,345.738"/>
	</g>
	<g>
		<path fill="#BA8F60" d="M121.341,340.72c-0.007-0.332-0.014-0.667-0.021-1.001c-0.003-0.096-0.007-0.201-0.064-0.278
			c-0.107-0.146-0.326-0.12-0.5-0.077c-0.479,0.121-0.945,0.286-1.417,0.43c-2.097,0.641-4.322,0.854-6.502,0.628
			c-0.964-0.099-1.918-0.282-2.871-0.469c-1.617-0.312-3.282-0.645-4.653-1.558c-0.217,0.183-0.434,0.368-0.652,0.551
			c1.048,1.066,2.422,1.767,3.85,2.208c1.428,0.443,2.917,0.642,4.4,0.825c2.743,0.341,5.691,0.595,8.121-0.725
			c0.102-0.055,0.209-0.119,0.264-0.222C121.344,340.938,121.343,340.826,121.341,340.72"/>
	</g>
	<g>
		<path fill="#BA8F60" d="M163.897,331.703c0.224,0.01,0.498-0.014,0.594-0.217c0.046-0.097,0.037-0.21,0.025-0.316
			c-0.036-0.349-0.073-0.699-0.109-1.048c-2.072,0.302-4.238-0.083-6.079-1.079c-0.225-0.121-0.452-0.254-0.704-0.296
			c-0.252-0.04-0.542,0.032-0.681,0.248c-0.141,0.221-0.081,0.525,0.079,0.732c0.159,0.208,0.396,0.339,0.63,0.457
			C159.578,331.157,161.74,331.616,163.897,331.703"/>
	</g>
	<g>
		<path fill="#D85555" d="M135.892,296.1c8.061-1.501,16.066-3.31,23.99-5.421c-1.677,1.048-3.579,1.679-5.486,2.2
			c-4.674,1.279-9.489,1.957-14.288,2.63C138.703,295.705,137.297,295.902,135.892,296.1"/>
	</g>
	<g>
		<path fill="#AFAA84" d="M140.024,347.186c0.738,0.353,1.683,0.15,2.263-0.427c0.58-0.575,0.794-1.473,0.606-2.27
			c-1.387,0.513-2.86,0.789-4.337,0.818C138.875,346.055,139.291,346.838,140.024,347.186"/>
	</g>
	<g>
		<path fill="#635653" d="M160.395,375.316c0,0,0.888,3.062-2.218,3.406c-3.107,0.344-6.208,1.298-9.443-0.911
			c-3.234-2.21-6.502-2.384-7.542-5.892c-1.038-3.512-1.747-4.274-1.747-4.274s0.163-1.35,1.421,0.312
			c1.261,1.662,6.992,7.445,9.111,8.039C152.1,376.592,158.656,376.132,160.395,375.316"/>
	</g>
	<g>
		<path fill="#F2C5B6" d="M140.544,367.433c0,0,1.861-0.177,4.102-0.59c2.24-0.414,1.238-2.654,5.669-3.041
			c4.43-0.388,5.217,2.625,5.217,2.625s0.065,0.792,1.649,1.52c1.584,0.726,2.45,1.882,3.007,3.746
			c0.557,1.862,0.557,4.107-2.281,4.569c-2.839,0.461-4.602,0.628-7.396-0.503C147.715,374.629,141.924,371.075,140.544,367.433"/>
	</g>
	<g>
		<path fill="#635653" d="M142.179,379.276c0,0,0.888,3.062-2.218,3.406c-3.107,0.344-6.208,1.298-9.443-0.911
			c-3.234-2.21-6.502-2.384-7.542-5.892c-1.038-3.512-1.746-4.274-1.746-4.274s0.162-1.35,1.421,0.312
			c1.26,1.662,6.991,7.445,9.111,8.039C133.884,380.552,140.44,380.092,142.179,379.276"/>
	</g>
	<g>
		<path fill="#F2C5B6" d="M122.328,371.393c0,0,1.861-0.177,4.102-0.59c2.24-0.414,1.239-2.654,5.669-3.041
			c4.43-0.388,5.217,2.625,5.217,2.625s0.065,0.792,1.649,1.52c1.584,0.726,2.45,1.882,3.007,3.746
			c0.557,1.862,0.557,4.107-2.281,4.569c-2.839,0.461-4.602,0.628-7.396-0.503C129.5,378.588,123.708,375.035,122.328,371.393"/>
	</g>
	<g>
		<path fill="#D3A99F" d="M122.501,370.741c-0.162,1.205,0.6,2.472,1.741,2.895c0.501,0.184,1.046,0.216,1.582,0.223
			c0.588,0.006,1.178-0.021,1.764-0.077c0.153-0.279-0.07-0.608-0.28-0.847l-1.208-1.372c-0.096-0.108-0.194-0.22-0.321-0.289
			c-0.194-0.105-0.428-0.098-0.649-0.096C124.237,371.181,123.344,371.033,122.501,370.741"/>
	</g>
	<g>
		<path fill="#D3A99F" d="M143.446,370.352c0.594-0.026,1.185-0.118,1.759-0.275c0.144-0.04,0.299-0.095,0.373-0.222
			c0.114-0.193-0.017-0.435-0.144-0.618c-0.441-0.644-0.882-1.289-1.324-1.933c-0.088-0.128-0.179-0.26-0.308-0.348
			c-0.183-0.125-0.415-0.147-0.634-0.162c-0.694-0.055-1.388-0.108-2.081-0.163c-0.084-0.006-0.176-0.011-0.242,0.042
			c-0.078,0.059-0.089,0.169-0.089,0.267c-0.002,0.822,0.391,1.59,0.772,2.32c0.151,0.289,0.31,0.587,0.567,0.787
			C142.467,370.338,142.974,370.371,143.446,370.352"/>
	</g>
	<g>
		<path fill="#D3A99F" d="M148.353,370.89c2.347-2.127,5.602-3.216,8.756-2.927c-1.453-1.225-3.547-1.51-5.39-1.042
			c-1.841,0.467-3.452,1.608-4.794,2.954c-0.135,0.135-0.276,0.32-0.2,0.495c0.038,0.088,0.125,0.144,0.205,0.194
			c0.207,0.132,0.415,0.262,0.622,0.392c0.135,0.084,0.284,0.172,0.441,0.15C148.133,371.088,148.247,370.985,148.353,370.89"/>
	</g>
	<g>
		<path fill="#D3A99F" d="M135.776,370.749c-2.587,0.31-5.09,1.296-7.192,2.835c-0.16,0.118-0.329,0.254-0.378,0.445
			c-0.089,0.343,0.237,0.653,0.565,0.781c0.328,0.129,0.703,0.172,0.968,0.405c2.738-1.892,6.042-2.954,9.368-3.018
			c-0.28-0.642-0.845-1.152-1.512-1.369C137.013,370.644,136.384,370.676,135.776,370.749"/>
	</g>
	<g>
		<path fill="#AFAA84" d="M135.097,203.996l1.169,3.553l-6.176,3.618C130.09,211.167,130.036,205.773,135.097,203.996"/>
	</g>
	<g>
		<path fill="#AFAA84" d="M153.502,201.615l-0.451,2.787c0,0,5.043,1.773,6.104,3.076
			C159.155,207.479,159.929,202.014,153.502,201.615"/>
	</g>
	<g>
		<path fill="#FFFFFF" d="M135.058,219.018c0,0-5.068,1.188-5.662,6.535c-0.594,5.346-0.675,13.179,6.593,13.42
			c7.267,0.241,7.547-7.24,7.703-9.687C143.85,226.84,143.194,218.424,135.058,219.018"/>
	</g>
	<g>
		<path fill="#FFFFFF" d="M157.46,217.264c0,0-7.134,0.072-7.006,10.467c0.127,10.396,7.647,10.904,11.006,8.21
			c3.358-2.693,4.169-10.026,3.179-12.731C163.649,220.504,161.17,217.39,157.46,217.264"/>
	</g>
	<g>
		<path fill="#E2E2E2" d="M130.089,224.002c0,0,3.662-3.301,8.876-4.158C138.965,219.844,133.686,216.28,130.089,224.002"/>
	</g>
	<g>
		<path fill="#E2E2E2" d="M161.174,221.829c1.491,1.612,3.026,3.654,3.747,5.904c0.159-1.588,0.146-3.437-0.436-4.92
			c-1.297-3.3-4.707-6.742-9.965-4.46C154.52,218.354,158.749,219.193,161.174,221.829"/>
	</g>
</g>
<g>
	<g>
		<path fill="#443A38" d="M142.085,378.225c0.012,6.071-8.814,4.152-12.075,2.638c-3.188-1.48-8.958-5.597-7.444-9.858
			c0.219-0.617-0.792-1.055-1.068-0.45c-2.388,5.236,4.957,10.349,9.116,11.94c2.911,1.114,6.357,1.597,9.406,0.792
			c3.078-0.813,3.427-1.995,3.104-5.062C143.055,377.573,142.083,377.54,142.085,378.225"/>
	</g>
	<g>
		<path fill="#C18B5D" d="M162.665,219.201c0.963,0.047,1.753-0.986,1.477-1.905c-0.176-0.581-1.084-0.486-1.076,0.146
			c0.004,0.393-0.127,0.74-0.517,0.904C162.113,218.53,162.143,219.177,162.665,219.201"/>
	</g>
	<g>
		<path fill="#C18B5D" d="M156.039,217.306c0.617-0.638,0.482-1.815-0.234-2.319c-0.512-0.36-1.125,0.443-0.667,0.863
			c0.235,0.216,0.349,0.602,0.16,0.885C154.997,217.184,155.669,217.688,156.039,217.306"/>
	</g>
	<g>
		<path fill="#C18B5D" d="M160.081,217.315c0.597-0.479,0.698-1.702,0.193-2.265c-0.393-0.436-1.129,0.022-0.97,0.565
			c0.089,0.306,0.206,0.827,0.015,1.111C158.989,217.221,159.683,217.635,160.081,217.315"/>
	</g>
	<g>
		<path fill="#C18B5D" d="M140.514,219.84c0.337-0.385,0.692-0.951,0.64-1.486c-0.068-0.684-1.022-0.697-1.075,0
			c-0.024,0.332-0.121,0.639-0.292,0.926C139.521,219.721,140.161,220.243,140.514,219.84"/>
	</g>
	<g>
		<path fill="#C18B5D" d="M136.781,218.549c0.474-0.518,0.738-1.488,0.377-2.127c-0.354-0.625-1.339-0.053-0.965,0.564
			c0.112,0.186,0.04,0.678-0.111,0.863C135.689,218.333,136.343,219.025,136.781,218.549"/>
	</g>
	<g>
		<path fill="#C18B5D" d="M133.25,219.549c0.099-0.659-0.014-1.436-0.495-1.933c-0.528-0.544-1.391,0.341-0.824,0.823
			c0.256,0.221,0.339,0.65,0.328,0.976C132.237,219.971,133.164,220.119,133.25,219.549"/>
	</g>
	<g>
		<path fill="#B5897C" d="M141.16,374.056c2.798,6.507-5.048,6.46-9.07,4.982c-1.562-0.573-10.068-5.789-9.003-7.897
			c0.273-0.543-0.509-1.014-0.823-0.479c-0.997,1.688,1.685,3.768,2.721,4.776c2.592,2.529,5.392,4.664,9.044,5.322
			c2.045,0.368,6.697,0.608,8.424-1.015c1.597-1.502,0.375-4.626-0.496-6.154C141.655,373.06,140.932,373.525,141.16,374.056"/>
	</g>
	<g>
		<path fill="#443A38" d="M160.3,374.265c0.013,6.071-8.814,4.152-12.075,2.638c-3.188-1.48-8.958-5.597-7.443-9.858
			c0.22-0.617-0.793-1.055-1.069-0.45c-2.387,5.236,4.957,10.349,9.116,11.94c2.911,1.114,6.357,1.597,9.406,0.792
			c3.078-0.813,3.427-1.995,3.104-5.062C161.271,373.613,160.299,373.58,160.3,374.265"/>
	</g>
	<g>
		<path fill="#B5897C" d="M159.375,370.096c2.798,6.507-5.049,6.46-9.071,4.982c-1.561-0.573-10.067-5.789-9.003-7.897
			c0.274-0.543-0.509-1.014-0.823-0.479c-0.998,1.688,1.685,3.768,2.721,4.776c2.592,2.529,5.391,4.664,9.044,5.322
			c2.045,0.368,6.696,0.608,8.424-1.015c1.597-1.502,0.375-4.626-0.497-6.154C159.871,369.1,159.148,369.565,159.375,370.096"/>
	</g>
	<g>
		<path fill="#A5764C" d="M155.296,333.7c0.379,0.314,0.743,0.609,1.211,0.779c0.191,0.07,0.784,0.28,0.602,0.095
			c0.628,0.633,0.413,2.615,0.555,3.459c0.243,1.437,1.226,3.735,3.108,3.104c1.409-0.472,1.967-2.407,2.309-3.673
			c0.431-1.593,0.796-3.42,0.665-5.079c-0.08-1.011-1.665-1.019-1.584,0c0.098,1.235-0.131,2.541-0.389,3.746
			c-0.164,0.765-0.562,3.267-1.495,3.499c-1.198,0.3-1.24-3.946-1.41-4.718c-0.121-0.543-0.283-1.174-0.739-1.536
			c-0.523-0.413-1.167-0.347-1.712-0.795C155.636,331.937,154.509,333.051,155.296,333.7"/>
	</g>
	<g>
		<path fill="#A5764C" d="M158.765,340.579c-0.389,1.973-0.747,3.989,1.107,5.065c0.162,0.094,0.355,0.06,0.49-0.062
			c4.043-3.689,5.193-11.312,4.444-16.483c-0.069-0.479-0.908-0.372-0.85,0.114c0.407,3.403-0.153,6.724-1.048,10.013
			c-0.422,1.547-0.979,4.209-2.404,5.122c-1.854,1.186-1.214-2.559-1.032-3.572C159.557,340.314,158.856,340.112,158.765,340.579"/>
	</g>
	<g>
		<path fill="#A5764C" d="M156.402,338.842c0.37-0.83,0.846-1.595,1.457-2.268c0.554-0.609,0.002-1.467-0.77-1.324
			c-0.492,0.09-0.995,0.105-1.487,0.196c-1.001,0.186-0.578,1.713,0.42,1.528c0.492-0.091,0.995-0.106,1.488-0.196
			c-0.257-0.44-0.514-0.883-0.771-1.324c-0.701,0.773-1.279,1.634-1.706,2.59c-0.174,0.39-0.114,0.851,0.284,1.083
			C155.657,339.323,156.227,339.234,156.402,338.842"/>
	</g>
	<g>
		<path fill="#A5764C" d="M158.35,340.142c-0.5,0.465-1.478,1.462-2.246,1.087c-0.913-0.443-1.717,0.922-0.799,1.369
			c1.582,0.771,3.025-0.275,4.165-1.337C160.218,340.565,159.096,339.448,158.35,340.142"/>
	</g>
	<g>
		<path fill="#A5764C" d="M120.978,339.912c0.059,2.062,0.363,8.425-3.163,7.432c-0.713-0.201-1.012,0.896-0.305,1.105
			c4.779,1.414,4.705-5.709,4.441-8.537C121.895,339.3,120.959,339.275,120.978,339.912"/>
	</g>
	<g>
		<path fill="#A5764C" d="M117.216,345.625c-0.992,2.557-3.664,6.505-6.93,5.595c-2.058-0.572-3.17-2.89-4.048-4.638
			c-0.587-1.169-0.998-2.425-1.601-3.577c-0.21-0.404-0.67-0.784-0.791-1.226c-0.454-1.652,0.952-2.451,2.189-3.262
			c0.849-0.556,0.056-1.93-0.799-1.368c-1.796,1.178-3.84,2.723-2.919,5.093c0.322,0.827,0.885,1.605,1.249,2.41
			c0.698,1.54,1.403,3.134,2.303,4.57c1.358,2.167,3.454,4.142,6.223,3.663c3.239-0.56,5.559-4.024,6.651-6.839
			C119.112,345.096,117.581,344.685,117.216,345.625"/>
	</g>
	<g>
		<path fill="#753121" d="M128.259,263.737c-3.059-0.013-5.954,2.05-6.496,5.163c-0.531,3.054,1.563,6.162,4.53,6.913
			c0.691,0.175,0.958-0.833,0.292-1.061c-5.768-1.963-4.156-9.758,1.673-10.083C128.854,264.636,128.864,263.74,128.259,263.737"/>
	</g>
	<g>
		<path fill="#A5764C" d="M128.093,256.56c0.035,4.283,0.377,8.468-0.777,12.66c-0.268,0.973,1.177,1.354,1.498,0.413
			c1.393-4.097,1.407-9.033,0.593-13.252C129.261,255.633,128.087,255.818,128.093,256.56"/>
	</g>
	<g>
		<path fill="#753121" d="M146.393,262.68c1.129-0.352,3.3-0.225,4.169,0.666c1.095,1.125,1.102,4.968,0.039,6.102
			c-0.498,0.533,0.282,1.319,0.802,0.803c0.906-0.902,1.015-2.065,1.014-3.292c-0.003-1.329-0.006-3.084-0.882-4.184
			c-1.136-1.427-3.9-1.469-5.443-0.81C145.681,262.138,145.975,262.811,146.393,262.68"/>
	</g>
	<g>
		<path fill="#A5764C" d="M109.923,232.881c-3.096,0.287-6.038,3.009-4.716,6.314c1.216,3.042,5.739,4.889,8.231,2.309
			c0.562-0.582-0.294-1.432-0.885-0.886c-1.948,1.8-5.372,0.333-6.177-2.004c-0.882-2.565,1.471-4.229,3.699-4.61
			C110.703,233.896,110.565,232.821,109.923,232.881"/>
	</g>
	<g>
		<path fill="#A5764C" d="M174.474,222.09c2.29,0.068,3.067,2.516,2.674,4.432c-0.33,1.604-1.303,2.776-2.653,3.661
			c-0.651,0.426-0.084,1.396,0.61,1.043c2.196-1.115,3.576-3.611,3.382-6.069c-0.17-2.148-1.671-4.248-4.013-3.975
			C173.906,221.247,173.874,222.072,174.474,222.09"/>
	</g>
	<g>
		<path fill="#A5764C" d="M123.948,253.236c4.466,4.207,9.918,7.592,15.672,9.739c0.54,0.202,0.902-0.666,0.392-0.93
			c-5.51-2.844-10.671-5.361-15.46-9.413C124.137,252.282,123.542,252.854,123.948,253.236"/>
	</g>
	<g>
		<path fill="#A5764C" d="M140.018,263.181c8.884-0.047,17.523-5.003,24.136-10.62c4.535-3.854,4.071-9.604,4.897-15.087
			c0.112-0.744-1.03-1.059-1.136-0.313c-0.625,4.45-0.506,10.681-3.739,13.869c-6.382,6.296-15.305,10.426-24.159,11.277
			C139.468,262.358,139.444,263.186,140.018,263.181"/>
	</g>
	<g>
		<path fill="#93815A" d="M100.268,202.871c0.619-3.25,4.92-5.802,7.361-7.559c2.186-1.571,4.459-3.021,6.797-4.357
			c5.234-2.993,10.786-5.404,16.491-7.345c12.105-4.119,24.782-6.101,37.44-7.607c0.752-0.089,0.76-1.283,0-1.191
			c-14.092,1.696-28.249,3.946-41.562,9.047c-5.716,2.191-11.256,4.871-16.416,8.178c-3.631,2.327-10.423,5.944-11.113,10.558
			C99.169,203.242,100.141,203.537,100.268,202.871"/>
	</g>
	<g>
		<path fill="#93815A" d="M99.253,203.014c-0.847,22.945-2.488,45.727-4.322,68.606c-0.059,0.73,1.034,0.699,1.122,0
			c2.832-22.654,4.055-45.784,4.227-68.606C100.285,202.352,99.278,202.354,99.253,203.014"/>
	</g>
	<g>
		<path fill="#93815A" d="M95.701,272.516c7.396,1.623,15.01,2.036,22.55,1.391c0.717-0.061,0.731-1.177,0-1.131
			c-7.542,0.497-14.836,0.055-22.294-1.187C95.357,271.49,95.087,272.381,95.701,272.516"/>
	</g>
	<g>
		<path fill="#93815A" d="M168.01,175.753c4.098,5.23,4.93,11.697,5.165,18.139c0.228,6.213,0.317,12.428,0.36,18.645
			c0.091,12.735-0.316,25.478-0.167,38.211c0.01,0.807,1.229,0.806,1.251,0c0.412-14.216,0.368-28.499,0.153-42.719
			c-0.161-10.637,1.332-24.243-6.071-32.968C168.289,174.574,167.629,175.269,168.01,175.753"/>
	</g>
	<g>
		<path fill="#93815A" d="M164.03,203.798c2.126,9.04,2.026,18.272,2.986,27.458c0.71,6.806,1.831,14.611,6.589,19.881
			c0.487,0.537,1.202-0.235,0.778-0.777c-5.404-6.926-6.08-16.359-6.659-24.811c-0.506-7.393-0.784-14.82-2.88-21.975
			C164.69,203.051,163.905,203.27,164.03,203.798"/>
	</g>
	<g>
		<path fill="#93815A" d="M158.01,203.936c2.029,0.076,4.012-0.02,6.027,0.313c0.749,0.124,1.071-1.024,0.315-1.148
			c-2.168-0.359-4.291-0.428-6.461-0.042C157.379,203.148,157.528,203.916,158.01,203.936"/>
	</g>
	<g>
		<path fill="#93815A" d="M136.107,206.722c5.512-1.072,11.063-1.751,16.652-2.257c0.757-0.068,0.764-1.261,0-1.191
			c-5.689,0.515-11.37,1.058-16.89,2.588C135.311,206.016,135.549,206.83,136.107,206.722"/>
	</g>
	<g>
		<path fill="#93815A" d="M121.13,212.889c3.249-1.653,6.361-3.395,9.854-4.5c0.728-0.23,0.417-1.381-0.316-1.148
			c-3.597,1.138-6.86,2.777-9.989,4.879C120.203,212.438,120.616,213.15,121.13,212.889"/>
	</g>
	<g>
		<path fill="#93815A" d="M120.408,212.504c-1.249,16.456,0.246,33.245,3.875,49.332c0.181,0.805,1.401,0.463,1.232-0.34
			c-3.421-16.222-4.604-32.439-4.115-48.992C121.419,211.859,120.456,211.875,120.408,212.504"/>
	</g>
	<g>
		<path fill="#93815A" d="M108.797,229.396c2.345,6.652,5.021,13.19,7.857,19.648c1.408,3.207,2.842,6.412,4.376,9.562
			c0.986,2.022,1.676,3.804,3.948,4.37c0.736,0.184,1.048-0.942,0.313-1.136c-2.871-0.754-4.07-5.573-5.151-7.912
			c-1.155-2.501-2.283-5.013-3.388-7.534c-2.495-5.695-4.814-11.46-7.15-17.221C109.406,228.689,108.615,228.881,108.797,229.396"/>
	</g>
	<g>
		<path fill="#C18B5D" d="M128.999,224.73c-0.764,4.822-1.544,11.88,3.978,14.226c4.604,1.958,9.343-1.225,10.66-5.719
			c1.449-4.942,1.104-11.157-3.816-14.029c-4.792-2.798-9.79,0.631-10.816,5.523c-0.12,0.568,0.684,0.79,0.869,0.24
			c1.78-5.294,8.038-7.666,11.747-2.47c2.266,3.174,2.054,8.013,0.47,11.473c-2.314,5.057-9.423,6.177-11.828,0.529
			c-1.205-2.829-0.561-6.668-0.368-9.652C129.928,224.346,129.079,224.219,128.999,224.73"/>
	</g>
	<g>
		<path fill="#C18B5D" d="M150.382,223.146c-0.764,4.822-1.543,11.88,3.979,14.226c4.604,1.958,9.343-1.225,10.66-5.719
			c1.449-4.942,1.104-11.157-3.816-14.029c-4.792-2.798-9.79,0.631-10.816,5.523c-0.119,0.568,0.684,0.79,0.87,0.24
			c1.779-5.294,8.037-7.666,11.747-2.47c2.266,3.174,2.054,8.013,0.47,11.473c-2.314,5.057-9.423,6.177-11.827,0.529
			c-1.205-2.829-0.562-6.668-0.368-9.652C151.312,222.762,150.462,222.635,150.382,223.146"/>
	</g>
	<g>
		<path fill="#8E643A" d="M140.61,243.387c-0.043,1.143,0.695,1.816,1.751,1.837c2.319,0.045,4.634-0.438,6.786-1.276
			c0.69-0.268,0.398-1.389-0.309-1.122c-1.015,0.382-7.221,2.415-7.21,0.562C141.632,242.729,140.635,242.732,140.61,243.387"/>
	</g>
	<g>
		<path fill="#A5764C" d="M145.494,262.302c0.21,1.725,0.208,3.557,0.746,5.223c0.334,1.039,1.971,0.602,1.646-0.455
			c-0.492-1.598-0.544-3.335-0.83-4.979C146.905,261.219,145.386,261.409,145.494,262.302"/>
	</g>
	<g>
		<path fill="#753121" d="M125.905,268.935c3.128,3.502,9.459,3.142,13.729,2.837c3.824-0.273,7.902-2.088,9.267-5.863
			c0.2-0.556-0.709-0.947-0.962-0.406c-1.878,4.021-6.161,5.133-10.31,5.146c-3.654,0.013-8.261,0.319-11.078-2.36
			C126.123,267.88,125.515,268.499,125.905,268.935"/>
	</g>
	<g>
		<path fill="#753121" d="M122.054,270.889c-4.696,2.302-9.562,4.481-11.782,9.517c-2.142,4.855-2.921,10.41-3.552,15.637
			c-1.35,11.191-1.442,22.708-0.851,33.953c0.053,1.014,1.638,1.021,1.584,0c-0.521-9.931-0.389-19.98,0.443-29.891
			c0.435-5.173,1.134-10.431,2.561-15.432c1.075-3.773,2.438-6.61,5.752-8.852c2.083-1.41,4.392-2.461,6.644-3.563
			C123.77,271.808,122.968,270.441,122.054,270.889"/>
	</g>
	<g>
		<path fill="#753121" d="M159.097,280.003c1.44,4.048,3.358,8.144,4.339,12.333c0.832,3.555,0.029,6.18-2.454,8.728
			c-1.18,1.211-2.225,2.127-2.914,3.718c-1.282,2.963-0.931,6.737-1.064,9.874c-0.212,4.98-0.444,9.962-0.625,14.944
			c-0.029,0.779,1.171,0.774,1.208,0c0.237-4.979,0.422-9.964,0.629-14.944c0.108-2.611-0.094-5.647,0.571-8.193
			c0.732-2.794,2.92-4.063,4.554-6.185c4.438-5.769-1.243-14.864-3.455-20.493C159.699,279.304,158.917,279.498,159.097,280.003"/>
	</g>
	<g>
		<path fill="#753121" d="M151.75,265.896c3.927,2.379,8.846,5.43,9.774,10.243c0.789,4.085,0.671,8.517,0.984,12.667
			c0.046,0.606,0.987,0.617,0.955,0c-0.247-4.601,0.558-11.139-1.538-15.345c-1.844-3.697-6.185-6.526-9.806-8.2
			C151.698,265.066,151.337,265.646,151.75,265.896"/>
	</g>
	<g>
		<path fill="#753121" d="M162.243,300.495c0.158,6.46,0.268,12.923,0.426,19.383c0.024,1.016,1.608,1.021,1.584,0
			c-0.158-6.46-0.268-12.921-0.426-19.383C163.803,299.478,162.219,299.473,162.243,300.495"/>
	</g>
	<g>
		<path fill="#753121" d="M106.327,328.771c-3.074-0.477-2.441,6.148-1.991,7.753c1.067,3.797,6.124,4.132,9.407,4.313
			c2.875,0.16,8.489,0.271,9.304-3.343c0.395-1.746,0.271-5.65-0.347-7.338c-0.426-1.168-0.848-1.589-2.078-1.692
			c-0.698-0.059-0.698,1.038,0,1.091c1.469,0.114,1.542,5.182,1.427,6.098c-0.473,3.717-3.895,4.092-7.043,4.104
			c-2.02,0.007-4.353-0.096-6.265-0.744c-2.399-0.809-3.167-2.57-3.462-4.649c-0.116-0.821,0.008-4.749,0.931-4.726
			C106.693,329.65,106.827,328.848,106.327,328.771"/>
	</g>
	<g>
		<path fill="#753121" d="M120.95,293.267c-1.654,12.433-1.56,25.396-1.217,37.912c0.016,0.577,0.863,0.572,0.892,0
			c0.649-12.648,0.269-25.268,1.178-37.912C121.843,292.709,121.021,292.739,120.95,293.267"/>
	</g>
	<g>
		<path fill="#753121" d="M106.185,333.957c-0.052,1.934,0.54,3.706,1.848,5.129c0.316,0.346,0.889-0.099,0.646-0.498
			c-0.861-1.417-1.451-2.971-1.571-4.631C107.065,333.369,106.201,333.355,106.185,333.957"/>
	</g>
	<g>
		<path fill="#753121" d="M108.914,336.434c0.129,1.251,0.488,2.686,1.215,3.73c0.327,0.471,1.25,0.193,1.002-0.422
			c-0.466-1.157-0.969-2.22-1.298-3.433C109.698,335.819,108.857,335.896,108.914,336.434"/>
	</g>
	<g>
		<path fill="#753121" d="M157.176,329.221c2.015,0.281,3.929,1.876,6.019,1.598c1.754-0.235,2.355-1.398,2.559-3.014
			c0.178-1.412,0.139-2.896,0.084-4.312c-0.038-0.996,0.058-2.387-0.317-3.33c-0.68-1.708-2.353-0.821-3.709-0.432
			c-0.732,0.212-0.419,1.359,0.316,1.144c1.027-0.301,1.676-0.8,2.413,0.66c0.244,0.482,0.12,1.434,0.149,1.958
			c0.068,1.208,0.414,3.152,0.011,4.312c-1.234,3.552-4.916,0.565-7.389,0.404C156.741,328.172,156.597,329.14,157.176,329.221"/>
	</g>
	<g>
		<path fill="#753121" d="M161.938,326.827c-0.075,1.06-0.221,2.108-0.301,3.165c-0.044,0.569,0.872,0.69,0.996,0.135
			c0.236-1.052,0.255-2.226,0.163-3.3C162.749,326.281,161.979,326.273,161.938,326.827"/>
	</g>
	<g>
		<path fill="#93815A" d="M144.354,366.103c-1.402,0.07-2.787,0.001-4.184-0.115c-1.017-0.085-1.011,1.499,0,1.584
			c1.397,0.116,2.782,0.186,4.184,0.115C145.368,367.635,145.375,366.051,144.354,366.103"/>
	</g>
	<g>
		<path fill="#93815A" d="M154.589,331.564c0.312,10.879,0.32,21.671-1.055,32.486c-0.128,1.009,1.457,1,1.584,0
			c1.375-10.815,1.367-21.606,1.055-32.486C156.144,330.548,154.56,330.543,154.589,331.564"/>
	</g>
	<g>
		<path fill="#753121" d="M121.934,338.907c2.555,0.97,4.906,0.761,7.523,0.115c3.667-0.903,7.381-1.613,11.038-2.543
			c3.596-0.914,7.086-2.199,10.586-3.421c2.029-0.709,4.989-1.029,6.193-2.985c0.368-0.601-0.542-1.109-0.931-0.547
			c-1.154,1.67-5.776,2.421-7.597,3.057c-2.833,0.99-5.665,1.986-8.568,2.749c-2.602,0.684-5.271,1.004-7.864,1.717
			c-3.392,0.935-6.612,2.189-10.125,0.937C121.604,337.774,121.365,338.691,121.934,338.907"/>
	</g>
	<g>
		<path fill="#93815A" d="M126.396,370.423c-3.104-0.122-5.415-0.39-6.032-3.767c-0.362-1.976,0.052-4.438,0.027-6.454
			c-0.05-4.085-0.041-8.164-0.018-12.252c0.004-0.696-1.085-0.698-1.082,0c0.019,6.236,0.022,12.469-0.046,18.706
			c-0.014,1.359-0.391,2.547,0.63,3.465c1.518,1.362,4.605,1.41,6.521,1.389C127.099,371.501,127.095,370.45,126.396,370.423"/>
	</g>
	<g>
		<path fill="#93815A" d="M139.83,345.623c-0.087,3.784-0.219,7.57-0.462,11.35c-0.217,3.394,1.016,9.996-2.931,11.316
			c-0.658,0.22-0.372,1.271,0.289,1.045c4.315-1.496,3.138-2.325,3.414-6.881c0.337-5.597,0.961-11.218,0.779-16.83
			C140.895,344.926,139.846,344.921,139.83,345.623"/>
	</g>
	<g>
		<path fill="#93815A" d="M137.95,345.292c1.676,0.866,3.236,0.527,4.831-0.353c0.626-0.345,0.07-1.295-0.56-0.957
			c-1.24,0.665-2.482,1.2-3.849,0.588C137.892,344.354,137.464,345.04,137.95,345.292"/>
	</g>
	<g>
		<path fill="#B5897C" d="M144.317,367.986c2.883-2.58,5.7-4.741,9.748-2.964c0.679,0.299,1.279-0.689,0.591-1.009
			c-4.226-1.961-8.254-0.127-10.994,3.318C143.297,367.791,143.864,368.393,144.317,367.986"/>
	</g>
	<g>
		<path fill="#B5897C" d="M143.769,368.196c0.73,0.889,1.483,1.711,2.332,2.487c0.242,0.222,0.568,0.16,0.751-0.096
			c2.007-2.832,5.666-3.378,8.892-3.279c0.4,0.013,0.657-0.39,0.573-0.753c-0.268-1.155-0.731-1.816-1.668-2.529
			c-0.511-0.389-1.189,0.482-0.69,0.896c0.683,0.435,1.087,1.086,1.211,1.95c0.191-0.252,0.382-0.501,0.574-0.753
			c-3.847,0.003-7.054,0.972-9.643,3.891h0.675c-0.82-0.791-1.62-1.591-2.382-2.438
			C144.009,367.144,143.415,367.765,143.769,368.196"/>
	</g>
	<g>
		<path fill="#B5897C" d="M155.686,367.521c0.864,0.512,3.912,2.339,3.793,3.236c-0.229,1.715-2.783,1.499-4.025,1.54
			c-2.612,0.09-6.617-0.901-8.715-2.464c-0.535-0.397-1.25,0.517-0.719,0.933c1.902,1.487,4.477,1.978,6.789,2.545
			c1.862,0.459,4.082,0.299,5.94-0.146c1.522-0.364,2.308-1.112,1.937-2.741c-0.467-2.044-2.779-2.974-4.503-3.751
			C155.617,366.416,155.129,367.191,155.686,367.521"/>
	</g>
	<g>
		<path fill="#B5897C" d="M126.102,371.946c2.882-2.58,5.699-4.741,9.748-2.964c0.679,0.299,1.279-0.689,0.591-1.009
			c-4.226-1.961-8.254-0.127-10.994,3.318C125.081,371.751,125.648,372.353,126.102,371.946"/>
	</g>
	<g>
		<path fill="#B5897C" d="M125.554,372.156c0.73,0.889,1.483,1.711,2.332,2.487c0.242,0.222,0.569,0.159,0.751-0.096
			c2.007-2.832,5.667-3.378,8.891-3.279c0.401,0.013,0.658-0.39,0.573-0.753c-0.268-1.156-0.73-1.816-1.668-2.529
			c-0.511-0.389-1.189,0.482-0.69,0.896c0.684,0.435,1.087,1.086,1.211,1.95c0.191-0.252,0.383-0.501,0.574-0.753
			c-3.847,0.003-7.054,0.972-9.642,3.891h0.676c-0.82-0.791-1.62-1.591-2.382-2.438
			C125.793,371.104,125.199,371.725,125.554,372.156"/>
	</g>
	<g>
		<path fill="#B5897C" d="M137.47,371.48c0.864,0.512,3.912,2.339,3.793,3.236c-0.229,1.715-2.783,1.499-4.024,1.54
			c-2.613,0.09-6.618-0.901-8.716-2.464c-0.535-0.397-1.25,0.517-0.719,0.933c1.902,1.487,4.476,1.978,6.789,2.545
			c1.863,0.459,4.082,0.299,5.94-0.147c1.522-0.363,2.308-1.111,1.937-2.74c-0.467-2.044-2.779-2.974-4.503-3.752
			C137.401,370.376,136.914,371.151,137.47,371.48"/>
	</g>
	<g>
		<path fill="#93815A" d="M152.991,201.312c-0.207,1.097-0.342,2.208-0.391,3.321c-0.01,0.244,0.215,0.449,0.451,0.449
			c2.822,0.01,4.909,1.729,6.641,3.779c0.274,0.326,0.892,0.068,0.859-0.355c-0.155-2.013-0.825-3.915-2.197-5.429
			c-1.209-1.334-3.244-2.726-5.108-2.13c-0.596,0.189-0.354,1.096,0.259,0.941c1.659-0.421,3.51,1.173,4.447,2.365
			c0.971,1.234,1.54,2.68,1.592,4.252c0.288-0.118,0.573-0.236,0.86-0.355c-1.835-2.317-4.311-4.021-7.353-3.968
			c0.149,0.149,0.299,0.3,0.449,0.45c0.045-1.075,0.21-2.143,0.274-3.215C153.801,200.975,153.075,200.867,152.991,201.312"/>
	</g>
	<g>
		<path fill="#93815A" d="M134.571,204.284c0.935,0.946,1.003,2.364,1.291,3.595c0.109-0.193,0.219-0.386,0.329-0.578
			c-2.55,0.568-5.626,2.621-6.734,5.055c0.288,0.079,0.578,0.156,0.866,0.234c-0.039-3.417,1.838-6.49,4.794-8.155
			c0.57-0.321,0.06-1.196-0.514-0.878c-3.327,1.842-5.223,5.258-5.21,9.033c0.001,0.437,0.662,0.668,0.866,0.236
			c1.019-2.161,3.909-4.053,6.182-4.619c0.25-0.062,0.391-0.337,0.329-0.578c-0.365-1.402-0.502-2.895-1.62-3.922
			C134.762,203.353,134.199,203.908,134.571,204.284"/>
	</g>
	<g>
		<path fill="#8E643A" d="M163.241,227.036c-0.108,0.222-0.217,0.452-0.231,0.698c-0.013,0.246,0.091,0.517,0.313,0.625
			c0.2,0.097,0.449,0.038,0.624-0.1c0.173-0.138,0.282-0.341,0.358-0.55c0.088-0.24,0.138-0.494,0.15-0.749
			c0.014-0.298-0.043-0.632-0.281-0.812c-0.237-0.181-0.676-0.061-0.686,0.236"/>
	</g>
	<g>
		<path fill="#8E643A" d="M162.768,226.76c-0.37,0.675-0.554,1.656,0.255,2.114c0.855,0.484,1.637-0.322,1.897-1.073
			c0.25-0.723,0.307-1.796-0.449-2.248c-0.726-0.433-1.555,0.03-1.645,0.833c-0.084,0.75,1.123,0.889,1.301,0.177
			c-0.039,0.051-0.078,0.101-0.116,0.15c-0.059,0.037-0.112,0.033-0.163-0.011c-0.074-0.056-0.094-0.055-0.06,0.004
			c0.014,0.025,0.023,0.053,0.026,0.081c-0.029,0.245,0.008,0.441-0.078,0.688c-0.038,0.112-0.179,0.309-0.14,0.353
			c-0.104-0.114,0.126-0.532,0.171-0.646C164.006,226.603,163.062,226.223,162.768,226.76"/>
	</g>
	<g>
		<path fill="#8E643A" d="M142.643,228.669c-0.181,0.177-0.104,0.519,0.114,0.647c0.218,0.128,0.512,0.066,0.704-0.098
			c0.193-0.163,0.3-0.408,0.357-0.654c0.113-0.479,0.062-0.994-0.143-1.44c-0.049-0.108-0.128-0.227-0.247-0.229
			c-0.082-0.003-0.154,0.053-0.214,0.108c-0.463,0.428-0.703,1.06-0.739,1.689"/>
	</g>
	<g>
		<path fill="#8E643A" d="M142.269,228.294c-0.517,0.644-0.156,1.625,0.726,1.648c0.998,0.026,1.446-1.015,1.468-1.864
			c0.019-0.744-0.35-2.191-1.396-1.741c-0.818,0.352-1.259,1.532-1.213,2.355c0.038,0.67,1.062,0.887,1.225,0.166
			c0.063-0.28,0.119-0.573,0.228-0.84c0.043-0.103,0.094-0.203,0.156-0.296c0.144-0.22,0.38-0.251-0.051-0.274
			c-0.416-0.022-0.216,0.038-0.156,0.301c0.037,0.163,0.05,0.325,0.034,0.493c-0.013,0.145-0.039,0.34-0.127,0.458
			c-0.029,0.035-0.058,0.069-0.088,0.104c-0.088,0.02-0.079,0.063,0.028,0.133C143.426,228.441,142.648,227.819,142.269,228.294"/>
	</g>
</g>
<circle fill="#CCCCCC" cx="162.184" cy="16" r="5.273"/>
<circle fill="#CCCCCC" cx="177.184" cy="16" r="5.273"/>
<circle fill="#CCCCCC" cx="192.184" cy="16" r="5.273"/>
</svg>
