<?xml version="1.0" encoding="utf-8"?>
<!-- Generator: Adobe Illustrator 15.1.0, SVG Export Plug-In . SVG Version: 6.00 Build 0)  -->
<!DOCTYPE svg PUBLIC "-//W3C//DTD SVG 1.1//EN" "http://www.w3.org/Graphics/SVG/1.1/DTD/svg11.dtd">
<svg version="1.1" id="Layer_1" xmlns="http://www.w3.org/2000/svg" xmlns:xlink="http://www.w3.org/1999/xlink" x="0px" y="0px"
	 width="586px" height="368.5px" viewBox="138 0 586 368.5" enable-background="new 138 0 586 368.5" xml:space="preserve">
<path fill="#F9F9F9" d="M724,357.162c0,4.329-3.509,7.838-7.838,7.838H145.838c-4.329,0-7.838-3.509-7.838-7.838v-0.324
	c0-4.329,3.509-7.838,7.838-7.838h570.324c4.329,0,7.838,3.509,7.838,7.838V357.162z"/>
<rect x="148" y="26" fill="#E6E6E6" width="569" height="333"/>
<path fill="#E6E6E6" d="M717,29V15c0-6.627-5.373-12-12-12H160c-6.627,0-12,5.373-12,12v14H717z"/>
<circle fill="#CCCCCC" cx="162.184" cy="16" r="5.273"/>
<circle fill="#CCCCCC" cx="177.184" cy="16" r="5.273"/>
<circle fill="#CCCCCC" cx="192.184" cy="16" r="5.273"/>
</svg>
