<?xml version="1.0" encoding="utf-8"?>
<!-- Generator: Adobe Illustrator 15.1.0, SVG Export Plug-In . SVG Version: 6.00 Build 0)  -->
<!DOCTYPE svg PUBLIC "-//W3C//DTD SVG 1.1//EN" "http://www.w3.org/Graphics/SVG/1.1/DTD/svg11.dtd">
<svg version="1.1" id="Layer_1" xmlns="http://www.w3.org/2000/svg" xmlns:xlink="http://www.w3.org/1999/xlink" x="0px" y="0px"
	 width="89.505px" height="276.5px" viewBox="89 121.5 89.505 276.5" enable-background="new 89 121.5 89.505 276.5"
	 xml:space="preserve">
<g>
	<g>
		<path fill="#6B533B" d="M161.321,251.812c-13.419,4.642-26.455,12.76-37.686,21.344c-0.617,0.472-0.03,1.535,0.624,1.064
			c5.864-4.22,11.83-8.238,18.113-11.814c6.293-3.584,12.882-6.422,19.35-9.645C162.245,252.502,161.88,251.619,161.321,251.812"/>
	</g>
	<g>
		<path fill="#6B533B" d="M123.503,273.812c4.37,17.314,8.645,34.705,13.521,51.888c0.209,0.735,1.35,0.424,1.148-0.317
			c-4.686-17.232-8.59-34.726-13.781-51.816C124.22,272.998,123.357,273.232,123.503,273.812"/>
	</g>
</g>
<g>
	<g>
		<path fill="#FFFFFF" d="M167.136,157.746c0,16.342-13.248,29.59-29.589,29.59c-16.342,0-29.59-13.248-29.59-29.59
			c0-16.342,13.248-29.589,29.59-29.589C153.889,128.156,167.136,141.404,167.136,157.746"/>
	</g>
	<g>
		<circle fill="none" stroke="#C5D8E2" stroke-width="2" stroke-miterlimit="10" cx="137.546" cy="157.746" r="29.59"/>
	</g>
	<g>
		<path fill="#FF4848" d="M148.927,159.426c1.071-1.261,1.715-2.883,1.715-4.652c0-4.021-3.326-7.279-7.432-7.279
			c-2.437,0-4.599,1.149-5.955,2.924l0.737,0.212c-1.342-1.895-3.579-3.136-6.112-3.136c-4.104,0-7.432,3.258-7.432,7.279
			c0,1.763,0.64,3.38,1.706,4.64c0,0,9.743,11.053,11.391,11.053C139.372,170.467,148.927,159.426,148.927,159.426L148.927,159.426z
			"/>
	</g>
</g>
<g>
	<g>
		<path fill="#CE3C3C" d="M137.861,170.146c-3.967-3.756-10.583-7.784-11.893-13.436c-1.08-4.666,3.944-11.134,8.725-7.346
			c0.927,0.734,1.578,1.626,2.742,1.841c0.673,0.125,0.592-0.156,1.042-0.29c0.741-1.494,1.82-2.256,3.241-2.288
			c0.826-0.178,1.653-0.155,2.484,0.071c2.149,0.539,4.332,2.275,4.826,4.55c1.334,6.141-7.528,13.627-11.811,16.767
			c-0.579,0.424-0.036,1.399,0.573,0.979c4.976-3.434,14.347-11.017,12.665-18.14c-0.669-2.833-3.11-4.911-5.903-5.422
			c-1.265-0.231-2.738-0.249-3.975,0.173c-0.978,0.334-1.717,1.508-2.519,1.78c-1.505,0.509-2.052-1.109-3.204-1.705
			c-1.06-0.547-2.47-0.745-3.651-0.585c-2.513,0.337-5.07,2.48-6.048,4.771c-3.37,7.888,7.063,14.89,11.99,18.996
			C137.638,171.274,138.343,170.602,137.861,170.146"/>
	</g>
</g>
<g>
	<g>
		<path fill="#F9F9F9" d="M173.965,377.085c0,10.59-16.743,19.175-37.397,19.175c-20.654,0-37.399-8.585-37.399-19.175
			s16.745-19.174,37.399-19.174C157.222,357.911,173.965,366.495,173.965,377.085"/>
	</g>
	<g>
		<path fill="#D3A36A" d="M157.312,328.41c0,0,3.842,1.683,5.288,1.585c1.445-0.099,1.845-0.048,1.845-0.048
			s0.374,4.025-0.757,7.886c-1.131,3.862-2.037,6.528-3.612,7.464c0,0-1.946-0.723-1.167-4.596c0,0-1.289,1.431-2.779,1.451
			c-1.49,0.02-1.269-1.938,0.65-5.612l-3.429-0.733l1.09-4.128C154.442,331.68,157.51,330.784,157.312,328.41"/>
	</g>
	<g>
		<path fill="#BA8F60" d="M158.123,334.566c-0.065,1.104,0.037,2.218,0.303,3.291c0.161,0.652,0.4,1.317,0.888,1.781
			c0.489,0.465,1.286,0.658,1.849,0.288c0.564-0.37,0.694-1.124,0.845-1.784c0.196-0.867,0.51-1.707,0.931-2.488
			c0.101,1.164-0.195,2.322-0.487,3.455c-0.241,0.932-0.49,1.877-1.021,2.68c-0.532,0.798-1.409,1.434-2.369,1.417
			c0.114-0.743,0.146-1.498,0.099-2.246c-0.666,0.343-2.845,1.495-3.565,1.285c-0.854-0.246,0.112-2.028,0.155-2.916
			c0.045-0.888,0.473-1.704,0.88-2.495c0.086-0.167,0.171-0.371,0.074-0.533c-0.101-0.169-0.334-0.183-0.529-0.18
			c-0.418,0.008-0.836,0.016-1.254,0.023c-0.146,0.004-0.306,0-0.415-0.096c-0.106-0.096-0.13-0.252-0.142-0.395
			c-0.087-0.956-0.022-1.928,0.192-2.861c0.032-0.145,0.108-0.322,0.256-0.318c0.091,0.002,0.162,0.073,0.225,0.14
			c0.538,0.546,1.263,0.903,2.022,0.995c0.375,0.046,0.83,0.074,1.002,0.408C158.147,334.184,158.134,334.379,158.123,334.566"/>
	</g>
	<g>
		<path fill="#DBD7B6" d="M121.256,339.439c0,0-1.895,5.471-1.663,10.619c0.231,5.149,0.18,17.953,0.18,17.953
			s1.108,3.521,6.504,2.874c5.396-0.646,12.469-2.395,13.306-3.954c0,0,12.314,0.207,14.362-1.932
			c2.049-2.137,1.221-8.214,1.221-8.214s1.614-18.731,0.166-25.863C153.884,323.792,121.256,339.439,121.256,339.439"/>
	</g>
	<g>
		<path fill="#F2EFC9" d="M153.926,333.143l-9.329,3.428c-0.001-0.002-0.001-0.002-0.003-0.004c-0.258-0.223-0.65-0.161-0.985-0.086
			c-1.298,0.293-2.595,0.59-3.889,0.896c-1.373,0.325-2.758,0.664-4.017,1.298c-0.265,0.136-0.534,0.296-0.756,0.492l-8.036,0.31
			c0.236,5.521,0.493,11.045,0.769,16.564c0.034,0.656,0.071,1.331,0.35,1.926c0.49,1.049,1.662,1.655,2.819,1.77
			c1.157,0.113,2.312-0.191,3.42-0.545c1.105-0.351,2.273-0.81,2.9-1.775c0.557-0.859,0.574-1.943,0.574-2.967
			c-0.001-4.217-0.003-8.434-0.004-12.653c0.093-0.135,0.195-0.263,0.31-0.379c0.657-0.651,1.581-0.978,2.5-1.106
			c0.889-0.129,1.964-0.006,2.411,0.769c0.06,0.104,0.113,0.222,0.167,0.339c-0.005,4.545-0.012,9.091-0.019,13.639
			c0,0.492,0.011,1.023,0.312,1.416c0.414,0.541,1.195,0.604,1.879,0.615c1.823,0.029,3.781-0.01,5.265-1.062
			c1.773-1.26,2.35-3.586,2.701-5.723C154.19,344.635,154.413,338.857,153.926,333.143"/>
	</g>
	<g>
		<path fill="#AFAA84" d="M119.849,340.613c-0.001-0.264,0-0.543,0.136-0.768c0.178-0.301,0.538-0.433,0.871-0.541
			c10.602-3.431,21.513-5.802,32.408-8.147c0.412-0.089,0.838-0.177,1.251-0.091c0.412,0.088,0.81,0.399,0.853,0.82
			c0.062,0.598-0.554,1.016-1.089,1.288c-9.613,4.851-20.364,7.429-31.132,7.47c0.32,1.59,0.641,3.192,0.603,4.813
			c-0.037,1.621-0.464,3.28-1.494,4.534c-0.574,0.697-1.523,1.281-2.349,0.912C119.887,347.475,119.868,344.044,119.849,340.613"/>
	</g>
	<g>
		<path fill="#DBD7B6" d="M99.893,201.878c0,0-3.943,69.312-3.607,69.742c0.335,0.434,22.758,1.722,22.758,1.722
			s8.592-2.91,9.968-5.798c1.375-2.886,0.443-10.507,0.443-10.507l39.694-16.629c0,0,3.312,10.291,4.846,10.34
			c1.535,0.05,0.217-8.464,0.217-8.464s3.139-59.594-5.097-66.625c0,0-16.967,0.553-38.045,7.552
			C109.992,190.211,102.006,198.514,99.893,201.878"/>
	</g>
	<g>
		<path fill="#D3A36A" d="M121.102,212.329c0,0-1.039,12.46,0.01,23.155c1.049,10.697,2.071,17.451,2.071,17.451l5.479,4.102
			l11.355,5.707c0,0,12.231-1.477,19.015-7.049c6.784-5.572,10.199-7.695,9.324-17.504c-0.875-9.81-2.066-31.445-3.453-34.037
			c0,0-11.557-1.629-24.886,1.188C126.69,208.162,121.102,212.329,121.102,212.329"/>
	</g>
	<g>
		<path fill="#D3A36A" d="M109.923,233.452c0,0-5.448,1.313-4.24,5.172c1.208,3.856,6.024,4.317,7.312,2.437
			C114.282,239.182,109.923,233.452,109.923,233.452"/>
	</g>
	<g>
		<path fill="#D3A36A" d="M174.737,221.493v9.504c0,0,3.139-1.558,3.139-5.465S174.737,221.493,174.737,221.493"/>
	</g>
	<g>
		<path fill="#EAB978" d="M126.431,254.643c2.159,3.267,5.957,4.979,9.552,6.528c1.941,0.837,3.961,1.688,6.074,1.626
			c1.657-0.051,3.239-0.662,4.765-1.311c3.665-1.557,7.221-3.367,10.635-5.418c2.958-1.776,5.876-3.799,7.856-6.627
			c1.978-2.828,4.409-8.08,3.044-11.25c-0.694-1.615-0.542-5.34-3.137-10.264c-2.108-4.001-1.258-1.603-2.457-5.964
			c-0.139-0.506-0.311-1.022-0.665-1.411c-0.402-0.438-0.986-0.654-1.552-0.841c-10.582-3.478-24.377-0.733-33.349,5.869
			c-0.701,0.517-1.402,1.08-1.808,1.851c-0.438,0.83-0.484,1.805-0.521,2.744c-0.17,4.344-0.34,7.895-0.51,12.237
			C124.193,246.617,124.112,251.133,126.431,254.643"/>
	</g>
	<g>
		<path fill="#EAB978" d="M110.266,234.656c-0.448,0.354-0.901,0.717-1.236,1.182c-0.773,1.071-0.76,2.646,0.032,3.705
			s2.299,1.516,3.545,1.076c0.157-0.057,0.316-0.128,0.422-0.255c0.196-0.236,0.162-0.583,0.111-0.886
			c-0.22-1.306-0.548-2.593-0.982-3.843c-0.179-0.518-0.397-1.058-0.836-1.384c-0.44-0.326-1.167-0.32-1.452,0.146"/>
	</g>
	<g>
		<path fill="#BA8F60" d="M120.607,227.451c0.075-4.366,0.15-8.732,0.225-13.1c0.012-0.685-0.218-0.746,0.026-1.386
			c0.551-1.442,2.613-1.969,4.041-2.561c11.624-4.812,24.11-7.732,36.655-6.784c1.042,0.079,2.14,0.197,2.979,0.82
			c0.838,0.621,1.265,1.923,0.611,2.736c-13.041-0.46-26.162,1.459-38.525,5.635l-1.805,0.547
			c-2.337,7.264-3.305,14.966-2.837,22.58L120.607,227.451z"/>
	</g>
	<g>
		<path fill="#F2EFC9" d="M124.066,205.75c-2.336,0.797-4.856,0.811-7.325,0.814l-7.189,0.014c-0.994,0.002-2.024-0.004-2.927-0.42
			c-1.593-0.735-2.403-2.641-2.276-4.391c0.126-1.75,1.021-3.354,2.069-4.761c5.047-6.766,18.953-12.493,27.059-14.848
			c12.83-3.727,20.178-4.691,33.44-6.305c0.441-0.054,1.787-0.365,2.196-0.196c0.569,0.234,0.375,1.969,0.646,2.52
			c1.665,3.365,3.092,7.007,2.885,10.756c-0.208,3.749-2.441,7.607-6.042,8.665c-2.683,0.787-5.53-0.056-8.271-0.601
			c-9.482-1.883-19.657-0.014-27.849,5.119C128.394,203.428,126.398,204.953,124.066,205.75"/>
	</g>
	<g>
		<path fill="#AFAA84" d="M108.95,229.046c-1.125,1.703-1.995,3.575-2.572,5.533c0.832-0.63,1.837-1.026,2.875-1.134
			c0.531-0.057,1.251-0.213,1.238-0.747c-0.003-0.136-0.062-0.263-0.119-0.386c-0.49-1.047-0.979-2.092-1.47-3.142"/>
	</g>
	<g>
		<path fill="#AFAA84" d="M128.247,257.001c-0.198-0.548-0.635-0.971-1.059-1.371c-1.044-0.987-2.089-1.979-3.135-2.968
			c-0.048,2.743,0.203,5.494,0.748,8.184c-0.801,0.688-1.92-0.346-2.444-1.259c-3.488-6.08-6.473-12.448-8.913-19.019
			c-2.254,2.093-6.27,1.815-8.216-0.564c-0.556,10.303,3.775,20.764,11.452,27.656c2.078,1.865,4.889,3.564,7.521,2.63
			c2.052-0.729,3.284-2.888,3.714-5.021c0.432-2.135,0.983-3.59,1.157-5.761C129.117,258.92,128.447,257.557,128.247,257.001"/>
	</g>
	<g>
		<path fill="#AFAA84" d="M164.64,203.395c0,0,3.8,0.905,4.475,8.314c0.673,7.408,1.762,27.957,4.88,37.979
			c0,0-5.705-6.367-6.243-17.875C167.213,220.305,165.497,205.902,164.64,203.395"/>
	</g>
	<g>
		<path fill="#AFAA84" d="M121.102,212.329c0,0-5.482,5.983-2.851,23.61c2.631,17.629,5.999,26.805,5.999,26.805
			s-2.265-15.555-2.954-25.423C120.608,227.451,121.102,212.329,121.102,212.329"/>
	</g>
	<g>
		<path fill="#F7F5E4" d="M160.503,197.598c-8.838-1.723-18.209-0.592-26.385,3.184c-1.332,0.614-2.632,1.298-3.909,2.021
			c-3.187,1.803-6.499,3.928-10.155,3.742c4.308-1.102,7.896-3.982,11.78-6.148c9.49-5.292,21.294-6.239,31.508-2.528
			C162.395,197.996,161.44,197.781,160.503,197.598"/>
	</g>
	<g>
		<path fill="#AE3A30" d="M122.244,271.676c0,0-8.195,2.545-11.643,11.029c-3.447,8.482-4.217,28.684-4.2,32.639
			c0.017,3.957-0.192,13.854-0.192,13.854s-1.561,0.665-1.49,3.569c0.071,2.905,0.155,6.057,3.605,7.121
			c3.45,1.063,12.011-0.387,13.736-1.441c0,0,4.216,2.373,17.374-2.311c8.88-2.755,17.549-6.537,17.549-6.537
			s-0.414-1.463,6.476,0.651c2.514-0.427,1.528-1.825,1.85-4.858c0.584-5.515-1.854-5.715-1.854-5.715l0.004-19.906
			c0,0,0.741-4.502,0-9.793c-0.74-5.291,0.135-15.396-4.007-18.896c-4.142-3.501-6.649-5.046-6.649-5.046s-1.435-6.354-6.514-3.734
			l0.773,5.76c0,0-2.695,2.316-9.751,3.02c-7.058,0.704-9.248-1.653-9.248-1.653s1.788-3.966,1.395-5.227
			S121.759,264.438,122.244,271.676"/>
	</g>
	<g>
		<path fill="#D3A36A" d="M141.35,262.582c-1.751-0.277-3.241-1.148-4.8-1.941c-2.103-1.069-4.212-2.113-6.402-2.992
			c-0.213-0.086-0.281-0.293-0.253-0.474l-0.441-0.138l-1.391,12.393c0,0,11.783,4.547,18.999-1.367l-0.761-5.664
			C144.66,262.707,142.997,262.842,141.35,262.582"/>
	</g>
	<g>
		<polygon fill="#BA8F60" points="129.348,261.667 142.773,267.824 146.676,266.505 146.301,262.396 140.549,262.993 
			128.663,257.037 		"/>
	</g>
	<g>
		<path fill="#C94343" d="M119.653,279.768c-0.357-2.041,2.301-3.423,4.331-3c2.029,0.42,3.706,1.849,5.675,2.498
			c2.894,0.955,6.037,0.141,8.989-0.619c4.559-1.174,9.151-2.213,13.772-3.113c1.282-0.249,2.714-0.463,3.81,0.249
			c0.794,0.517,1.238,1.415,1.645,2.271l2.692,5.662c0.721,1.516,1.459,3.203,0.997,4.816c-0.685,2.395-3.528,3.312-5.959,3.855
			c-7.626,1.711-15.28,3.428-23.066,4.108c-0.661,0.058-1.352,0.104-1.965-0.15c-1.141-0.473-1.63-1.784-2.067-2.94
			c-1.601-4.23-4.104-8.12-7.293-11.329C120.547,281.404,119.815,280.697,119.653,279.768"/>
	</g>
	<g>
		<path fill="#C1403A" d="M143.669,317.302c1.194-0.278,2.417-0.411,3.641-0.491c1.985-0.131,4.085-0.094,5.814,0.895
			c2.071,1.182,3.236,3.555,3.547,5.918c0.312,2.365-0.106,4.757-0.524,7.105c-8.503,2.283-16.917,4.903-25.211,7.859
			c-0.843-4.488-0.16-9.29,2.115-13.25C135.325,321.378,139.218,318.331,143.669,317.302"/>
	</g>
	<g>
		<path fill="#932F2A" d="M126.229,275.297c0,0-3.036-1.886-7.978-0.016c-4.941,1.871-6.776,4.373-6.776,4.373
			s6.72-7.428,10.77-7.979L126.229,275.297z"/>
	</g>
	<g>
		<path fill="#932F2A" d="M151.001,269.85c0.373,0.088,4.333,0.129,5.982-1.014l-5.048-2.879L151.001,269.85z"/>
	</g>
	<g>
		<path fill="#932F2A" d="M121.377,293.828c0,0,1.881,31.913,2.277,33.843c0,0,3.038,1.711,2.575,11.456
			c0,0-3.309-0.135-3.471-0.398c-0.163-0.266,0.877-9.525-2.545-10.316C120.212,328.411,120.288,299.372,121.377,293.828"/>
	</g>
	<g>
		<path fill="#932F2A" d="M159.953,303.598c0,0-0.924,17.949,0,26.002l-2.641-1.188C157.312,328.41,156.785,305.312,159.953,303.598
			"/>
	</g>
	<g>
		<path fill="#D3A36A" d="M105.756,338.034c0,0-3.5,1.048-2.8,3.682c0.7,2.636,3.659,7.535,4.529,8.421
			c0.87,0.887,3.36,3.283,6.448,1.074c3.088-2.208,2.972-3.164,2.972-3.164s3.229,1.178,4.197-2.496
			c0.968-3.676-0.016-6.339-0.016-6.339S115.379,342.41,105.756,338.034"/>
	</g>
	<g>
		<path fill="#EAB978" d="M105.472,342.174c0.272-0.404,0.806-0.564,1.293-0.529c0.487,0.035,0.947,0.229,1.406,0.396
			c1.718,0.627,3.563,0.905,5.389,0.81c0.827-0.043,1.854-0.061,2.245,0.668c0.395,0.736-0.204,1.596-0.769,2.211
			c-0.608,0.66-1.229,1.328-1.996,1.795c-0.768,0.469-1.711,0.718-2.576,0.477c-0.394-0.111-0.753-0.316-1.098-0.537
			c-1.309-0.835-2.473-1.896-3.42-3.126C105.464,343.708,105.032,342.83,105.472,342.174"/>
	</g>
	<g>
		<path fill="#BA8F60" d="M118.134,345.738c0.042-0.043,0.089-0.082,0.145-0.102c0.061-0.021,0.127-0.016,0.191-0.007
			c0.71,0.106,1.293,0.774,1.302,1.493c0.003,0.25-0.07,0.521-0.274,0.665c-0.142,0.099-0.322,0.12-0.494,0.14
			c-0.425,0.047-0.875,0.086-1.263-0.092c-0.058-0.025-0.116-0.062-0.144-0.119c-0.03-0.061-0.017-0.133-0.003-0.199
			c0.07-0.349,0.141-0.697,0.212-1.045c0.029-0.145,0.059-0.289,0.117-0.423C117.975,345.936,118.046,345.827,118.134,345.738"/>
	</g>
	<g>
		<path fill="#BA8F60" d="M121.341,340.721c-0.007-0.332-0.014-0.668-0.021-1.002c-0.003-0.096-0.007-0.201-0.064-0.277
			c-0.107-0.146-0.326-0.121-0.5-0.078c-0.479,0.121-0.945,0.287-1.417,0.431c-2.097,0.642-4.322,0.854-6.502,0.628
			c-0.964-0.1-1.918-0.281-2.871-0.469c-1.617-0.312-3.282-0.645-4.653-1.559c-0.217,0.184-0.434,0.369-0.652,0.551
			c1.048,1.066,2.422,1.768,3.85,2.209c1.428,0.443,2.917,0.642,4.4,0.824c2.743,0.342,5.691,0.596,8.121-0.725
			c0.102-0.055,0.209-0.119,0.264-0.222C121.344,340.938,121.343,340.826,121.341,340.721"/>
	</g>
	<g>
		<path fill="#BA8F60" d="M163.897,331.703c0.224,0.01,0.498-0.014,0.594-0.217c0.046-0.098,0.037-0.211,0.025-0.316
			c-0.036-0.35-0.073-0.699-0.109-1.048c-2.072,0.302-4.238-0.083-6.079-1.079c-0.225-0.121-0.452-0.254-0.704-0.296
			c-0.252-0.04-0.542,0.032-0.681,0.248c-0.141,0.221-0.081,0.524,0.079,0.731c0.159,0.209,0.396,0.34,0.63,0.457
			C159.578,331.157,161.74,331.616,163.897,331.703"/>
	</g>
	<g>
		<path fill="#D85555" d="M135.892,296.1c8.061-1.5,16.066-3.31,23.99-5.42c-1.677,1.047-3.579,1.678-5.486,2.199
			c-4.674,1.279-9.489,1.957-14.288,2.63C138.703,295.705,137.297,295.902,135.892,296.1"/>
	</g>
	<g>
		<path fill="#AFAA84" d="M140.024,347.186c0.738,0.354,1.683,0.15,2.263-0.427c0.58-0.575,0.794-1.473,0.606-2.27
			c-1.387,0.513-2.86,0.788-4.337,0.817C138.875,346.055,139.291,346.838,140.024,347.186"/>
	</g>
	<g>
		<path fill="#635653" d="M160.395,375.316c0,0,0.888,3.062-2.218,3.406c-3.107,0.344-6.208,1.297-9.443-0.912
			c-3.234-2.209-6.502-2.384-7.542-5.892c-1.038-3.512-1.747-4.274-1.747-4.274s0.163-1.35,1.421,0.312
			c1.261,1.662,6.992,7.445,9.111,8.039C152.1,376.592,158.656,376.132,160.395,375.316"/>
	</g>
	<g>
		<path fill="#F2C5B6" d="M140.544,367.434c0,0,1.861-0.178,4.102-0.591c2.24-0.413,1.238-2.653,5.669-3.04
			c4.43-0.389,5.217,2.625,5.217,2.625s0.065,0.791,1.649,1.52c1.584,0.726,2.45,1.882,3.007,3.746
			c0.557,1.861,0.557,4.106-2.281,4.568c-2.839,0.461-4.602,0.629-7.396-0.503C147.715,374.629,141.924,371.075,140.544,367.434"/>
	</g>
	<g>
		<path fill="#635653" d="M142.179,379.275c0,0,0.888,3.062-2.218,3.406c-3.107,0.344-6.208,1.299-9.443-0.91
			c-3.234-2.211-6.502-2.385-7.542-5.893c-1.038-3.512-1.746-4.273-1.746-4.273s0.162-1.351,1.421,0.312
			c1.26,1.662,6.991,7.444,9.111,8.039C133.884,380.552,140.44,380.092,142.179,379.275"/>
	</g>
	<g>
		<path fill="#F2C5B6" d="M122.328,371.393c0,0,1.861-0.177,4.102-0.59c2.24-0.414,1.239-2.654,5.669-3.041
			c4.43-0.388,5.217,2.625,5.217,2.625s0.065,0.793,1.649,1.521c1.584,0.726,2.45,1.882,3.007,3.745
			c0.557,1.863,0.557,4.107-2.281,4.57c-2.839,0.461-4.602,0.627-7.396-0.504C129.5,378.588,123.708,375.035,122.328,371.393"/>
	</g>
	<g>
		<path fill="#D3A99F" d="M122.501,370.741c-0.162,1.204,0.6,2.472,1.741,2.895c0.501,0.185,1.046,0.216,1.582,0.224
			c0.588,0.006,1.178-0.021,1.764-0.077c0.153-0.279-0.07-0.608-0.28-0.847l-1.208-1.373c-0.096-0.107-0.194-0.22-0.321-0.289
			c-0.194-0.104-0.428-0.098-0.649-0.096C124.237,371.182,123.344,371.033,122.501,370.741"/>
	</g>
	<g>
		<path fill="#D3A99F" d="M143.446,370.352c0.594-0.025,1.185-0.117,1.759-0.274c0.144-0.04,0.299-0.095,0.373-0.222
			c0.114-0.193-0.017-0.436-0.144-0.619c-0.441-0.644-0.882-1.288-1.324-1.932c-0.088-0.129-0.179-0.261-0.308-0.349
			c-0.183-0.125-0.415-0.147-0.634-0.162c-0.694-0.055-1.388-0.108-2.081-0.163c-0.084-0.006-0.176-0.011-0.242,0.042
			c-0.078,0.06-0.089,0.169-0.089,0.267c-0.002,0.822,0.391,1.59,0.772,2.32c0.151,0.289,0.31,0.588,0.567,0.787
			C142.467,370.338,142.974,370.371,143.446,370.352"/>
	</g>
	<g>
		<path fill="#D3A99F" d="M148.353,370.891c2.347-2.127,5.602-3.217,8.756-2.928c-1.453-1.225-3.547-1.51-5.39-1.042
			c-1.841,0.468-3.452,1.608-4.794,2.954c-0.135,0.135-0.276,0.32-0.2,0.495c0.038,0.088,0.125,0.144,0.205,0.194
			c0.207,0.131,0.415,0.262,0.622,0.392c0.135,0.084,0.284,0.172,0.441,0.149C148.133,371.088,148.247,370.984,148.353,370.891"/>
	</g>
	<g>
		<path fill="#D3A99F" d="M135.776,370.749c-2.587,0.31-5.09,1.296-7.192,2.835c-0.16,0.118-0.329,0.254-0.378,0.445
			c-0.089,0.343,0.237,0.652,0.565,0.781s0.703,0.172,0.968,0.404c2.738-1.892,6.042-2.954,9.368-3.018
			c-0.28-0.643-0.845-1.152-1.512-1.369C137.013,370.645,136.384,370.676,135.776,370.749"/>
	</g>
	<g>
		<path fill="#AFAA84" d="M135.097,203.996l1.169,3.553l-6.176,3.618C130.09,211.167,130.036,205.773,135.097,203.996"/>
	</g>
	<g>
		<path fill="#AFAA84" d="M153.502,201.615l-0.451,2.787c0,0,5.043,1.772,6.104,3.076
			C159.155,207.479,159.929,202.014,153.502,201.615"/>
	</g>
	<g>
		<path fill="#FFFFFF" d="M135.058,219.018c0,0-5.068,1.188-5.662,6.535c-0.594,5.346-0.675,13.18,6.593,13.42
			c7.267,0.241,7.547-7.24,7.703-9.687C143.85,226.84,143.194,218.424,135.058,219.018"/>
	</g>
	<g>
		<path fill="#FFFFFF" d="M157.46,217.264c0,0-7.134,0.072-7.006,10.467c0.127,10.396,7.647,10.904,11.006,8.211
			c3.358-2.693,4.169-10.026,3.179-12.731C163.649,220.504,161.17,217.391,157.46,217.264"/>
	</g>
	<g>
		<path fill="#E2E2E2" d="M130.089,224.002c0,0,3.662-3.301,8.876-4.158C138.965,219.844,133.686,216.28,130.089,224.002"/>
	</g>
	<g>
		<path fill="#E2E2E2" d="M161.174,221.829c1.491,1.612,3.026,3.653,3.747,5.903c0.159-1.588,0.146-3.437-0.436-4.92
			c-1.297-3.299-4.707-6.742-9.965-4.459C154.52,218.354,158.749,219.193,161.174,221.829"/>
	</g>
</g>
<g>
	<g>
		<path fill="#443A38" d="M142.085,378.225c0.012,6.071-8.814,4.152-12.075,2.639c-3.188-1.48-8.958-5.598-7.444-9.858
			c0.219-0.616-0.792-1.055-1.068-0.45c-2.388,5.236,4.957,10.35,9.116,11.94c2.911,1.114,6.357,1.597,9.406,0.792
			c3.078-0.812,3.427-1.995,3.104-5.062C143.055,377.573,142.083,377.54,142.085,378.225"/>
	</g>
	<g>
		<path fill="#C18B5D" d="M162.665,219.201c0.963,0.047,1.753-0.986,1.477-1.905c-0.176-0.581-1.084-0.485-1.076,0.146
			c0.004,0.394-0.127,0.74-0.517,0.904C162.113,218.53,162.143,219.177,162.665,219.201"/>
	</g>
	<g>
		<path fill="#C18B5D" d="M156.039,217.307c0.617-0.639,0.482-1.815-0.234-2.32c-0.512-0.359-1.125,0.443-0.667,0.863
			c0.235,0.217,0.349,0.603,0.16,0.885C154.997,217.184,155.669,217.688,156.039,217.307"/>
	</g>
	<g>
		<path fill="#C18B5D" d="M160.081,217.314c0.597-0.479,0.698-1.701,0.193-2.265c-0.393-0.436-1.129,0.022-0.97,0.565
			c0.089,0.306,0.206,0.826,0.015,1.111C158.989,217.221,159.683,217.635,160.081,217.314"/>
	</g>
	<g>
		<path fill="#C18B5D" d="M140.514,219.84c0.337-0.385,0.692-0.951,0.64-1.486c-0.068-0.684-1.022-0.696-1.075,0
			c-0.024,0.332-0.121,0.64-0.292,0.927C139.521,219.721,140.161,220.243,140.514,219.84"/>
	</g>
	<g>
		<path fill="#C18B5D" d="M136.781,218.549c0.474-0.518,0.738-1.488,0.377-2.127c-0.354-0.625-1.339-0.053-0.965,0.564
			c0.112,0.186,0.04,0.678-0.111,0.863C135.689,218.333,136.343,219.025,136.781,218.549"/>
	</g>
	<g>
		<path fill="#C18B5D" d="M133.25,219.549c0.099-0.658-0.014-1.436-0.495-1.933c-0.528-0.544-1.391,0.341-0.824,0.823
			c0.256,0.221,0.339,0.649,0.328,0.976C132.237,219.971,133.164,220.119,133.25,219.549"/>
	</g>
	<g>
		<path fill="#B5897C" d="M141.16,374.057c2.798,6.506-5.048,6.459-9.07,4.981c-1.562-0.573-10.068-5.789-9.003-7.897
			c0.273-0.543-0.509-1.014-0.823-0.479c-0.997,1.688,1.685,3.768,2.721,4.775c2.592,2.529,5.392,4.664,9.044,5.322
			c2.045,0.368,6.697,0.608,8.424-1.015c1.597-1.502,0.375-4.626-0.496-6.154C141.655,373.061,140.932,373.525,141.16,374.057"/>
	</g>
	<g>
		<path fill="#443A38" d="M160.3,374.266c0.013,6.07-8.814,4.151-12.075,2.637c-3.188-1.479-8.958-5.596-7.443-9.857
			c0.22-0.617-0.793-1.055-1.069-0.449c-2.387,5.235,4.957,10.348,9.116,11.939c2.911,1.113,6.357,1.597,9.406,0.792
			c3.078-0.813,3.427-1.995,3.104-5.062C161.271,373.613,160.299,373.58,160.3,374.266"/>
	</g>
	<g>
		<path fill="#B5897C" d="M159.375,370.096c2.798,6.508-5.049,6.461-9.071,4.982c-1.561-0.573-10.067-5.789-9.003-7.896
			c0.274-0.543-0.509-1.015-0.823-0.479c-0.998,1.688,1.685,3.769,2.721,4.776c2.592,2.528,5.391,4.664,9.044,5.321
			c2.045,0.368,6.696,0.608,8.424-1.015c1.597-1.502,0.375-4.626-0.497-6.154C159.871,369.1,159.148,369.564,159.375,370.096"/>
	</g>
	<g>
		<path fill="#A5764C" d="M155.296,333.7c0.379,0.313,0.743,0.608,1.211,0.778c0.191,0.07,0.784,0.28,0.602,0.096
			c0.628,0.633,0.413,2.615,0.555,3.459c0.243,1.438,1.226,3.734,3.108,3.104c1.409-0.472,1.967-2.406,2.309-3.673
			c0.431-1.593,0.796-3.42,0.665-5.079c-0.08-1.011-1.665-1.019-1.584,0c0.098,1.235-0.131,2.541-0.389,3.746
			c-0.164,0.766-0.562,3.268-1.495,3.499c-1.198,0.3-1.24-3.946-1.41-4.718c-0.121-0.543-0.283-1.174-0.739-1.536
			c-0.523-0.413-1.167-0.347-1.712-0.795C155.636,331.938,154.509,333.051,155.296,333.7"/>
	</g>
	<g>
		<path fill="#A5764C" d="M158.765,340.579c-0.389,1.973-0.747,3.989,1.107,5.065c0.162,0.094,0.355,0.06,0.49-0.062
			c4.043-3.689,5.193-11.312,4.444-16.482c-0.069-0.479-0.908-0.373-0.85,0.113c0.407,3.403-0.153,6.725-1.048,10.014
			c-0.422,1.547-0.979,4.209-2.404,5.121c-1.854,1.187-1.214-2.559-1.032-3.572C159.557,340.314,158.856,340.111,158.765,340.579"/>
	</g>
	<g>
		<path fill="#A5764C" d="M156.402,338.842c0.37-0.83,0.846-1.595,1.457-2.268c0.554-0.609,0.002-1.467-0.77-1.324
			c-0.492,0.09-0.995,0.105-1.487,0.195c-1.001,0.187-0.578,1.714,0.42,1.529c0.492-0.092,0.995-0.106,1.488-0.197
			c-0.257-0.439-0.514-0.883-0.771-1.323c-0.701,0.772-1.279,1.634-1.706,2.59c-0.174,0.39-0.114,0.851,0.284,1.083
			C155.657,339.323,156.227,339.234,156.402,338.842"/>
	</g>
	<g>
		<path fill="#A5764C" d="M158.35,340.143c-0.5,0.465-1.478,1.461-2.246,1.086c-0.913-0.442-1.717,0.922-0.799,1.369
			c1.582,0.771,3.025-0.274,4.165-1.337C160.218,340.564,159.096,339.448,158.35,340.143"/>
	</g>
	<g>
		<path fill="#A5764C" d="M120.978,339.912c0.059,2.062,0.363,8.425-3.163,7.432c-0.713-0.201-1.012,0.896-0.305,1.105
			c4.779,1.414,4.705-5.709,4.441-8.537C121.895,339.3,120.959,339.275,120.978,339.912"/>
	</g>
	<g>
		<path fill="#A5764C" d="M117.216,345.625c-0.992,2.557-3.664,6.505-6.93,5.596c-2.058-0.572-3.17-2.891-4.048-4.639
			c-0.587-1.169-0.998-2.425-1.601-3.577c-0.21-0.403-0.67-0.784-0.791-1.226c-0.454-1.652,0.952-2.451,2.189-3.262
			c0.849-0.557,0.056-1.931-0.799-1.369c-1.796,1.179-3.84,2.724-2.919,5.094c0.322,0.826,0.885,1.605,1.249,2.41
			c0.698,1.539,1.403,3.134,2.303,4.57c1.358,2.166,3.454,4.141,6.223,3.662c3.239-0.56,5.559-4.023,6.651-6.839
			C119.112,345.096,117.581,344.686,117.216,345.625"/>
	</g>
	<g>
		<path fill="#753121" d="M128.259,263.736c-3.059-0.012-5.954,2.051-6.496,5.164c-0.531,3.054,1.563,6.162,4.53,6.912
			c0.691,0.176,0.958-0.832,0.292-1.061c-5.768-1.963-4.156-9.758,1.673-10.083C128.854,264.636,128.864,263.74,128.259,263.736"/>
	</g>
	<g>
		<path fill="#A5764C" d="M128.093,256.561c0.035,4.282,0.377,8.467-0.777,12.659c-0.268,0.974,1.177,1.354,1.498,0.413
			c1.393-4.097,1.407-9.033,0.593-13.252C129.261,255.633,128.087,255.818,128.093,256.561"/>
	</g>
	<g>
		<path fill="#753121" d="M146.393,262.68c1.129-0.352,3.3-0.225,4.169,0.666c1.095,1.125,1.102,4.969,0.039,6.103
			c-0.498,0.532,0.282,1.319,0.802,0.803c0.906-0.901,1.015-2.065,1.014-3.292c-0.003-1.329-0.006-3.084-0.882-4.184
			c-1.136-1.428-3.9-1.469-5.443-0.811C145.681,262.139,145.975,262.811,146.393,262.68"/>
	</g>
	<g>
		<path fill="#A5764C" d="M109.923,232.881c-3.096,0.287-6.038,3.01-4.716,6.314c1.216,3.041,5.739,4.889,8.231,2.309
			c0.562-0.582-0.294-1.432-0.885-0.886c-1.948,1.8-5.372,0.333-6.177-2.004c-0.882-2.565,1.471-4.229,3.699-4.61
			C110.703,233.896,110.565,232.82,109.923,232.881"/>
	</g>
	<g>
		<path fill="#A5764C" d="M174.474,222.09c2.29,0.068,3.067,2.516,2.674,4.432c-0.33,1.604-1.303,2.776-2.653,3.662
			c-0.651,0.426-0.084,1.396,0.61,1.043c2.196-1.115,3.576-3.611,3.382-6.069c-0.17-2.148-1.671-4.248-4.013-3.976
			C173.906,221.247,173.874,222.072,174.474,222.09"/>
	</g>
	<g>
		<path fill="#A5764C" d="M123.948,253.236c4.466,4.207,9.918,7.592,15.672,9.738c0.54,0.202,0.902-0.666,0.392-0.93
			c-5.51-2.844-10.671-5.361-15.46-9.413C124.137,252.282,123.542,252.854,123.948,253.236"/>
	</g>
	<g>
		<path fill="#A5764C" d="M140.018,263.182c8.884-0.048,17.523-5.004,24.136-10.621c4.535-3.854,4.071-9.604,4.897-15.086
			c0.112-0.744-1.03-1.06-1.136-0.313c-0.625,4.45-0.506,10.681-3.739,13.869c-6.382,6.296-15.305,10.426-24.159,11.276
			C139.468,262.357,139.444,263.186,140.018,263.182"/>
	</g>
	<g>
		<path fill="#93815A" d="M100.268,202.871c0.619-3.25,4.92-5.802,7.361-7.559c2.186-1.571,4.459-3.021,6.797-4.357
			c5.234-2.993,10.786-5.404,16.491-7.345c12.105-4.119,24.782-6.101,37.44-7.607c0.752-0.089,0.76-1.283,0-1.191
			c-14.092,1.696-28.249,3.946-41.562,9.047c-5.716,2.191-11.256,4.871-16.416,8.178c-3.631,2.327-10.423,5.944-11.113,10.558
			C99.169,203.242,100.141,203.537,100.268,202.871"/>
	</g>
	<g>
		<path fill="#93815A" d="M99.253,203.014c-0.847,22.945-2.488,45.728-4.322,68.606c-0.059,0.729,1.034,0.698,1.122,0
			c2.832-22.654,4.055-45.784,4.227-68.606C100.285,202.352,99.278,202.354,99.253,203.014"/>
	</g>
	<g>
		<path fill="#93815A" d="M95.701,272.516c7.396,1.623,15.01,2.036,22.55,1.392c0.717-0.062,0.731-1.177,0-1.132
			c-7.542,0.498-14.836,0.056-22.294-1.187C95.357,271.49,95.087,272.381,95.701,272.516"/>
	</g>
	<g>
		<path fill="#93815A" d="M168.01,175.753c4.098,5.23,4.93,11.697,5.165,18.139c0.228,6.213,0.317,12.428,0.36,18.645
			c0.091,12.734-0.316,25.479-0.167,38.211c0.01,0.807,1.229,0.807,1.251,0c0.412-14.216,0.368-28.499,0.153-42.719
			c-0.161-10.637,1.332-24.243-6.071-32.968C168.289,174.574,167.629,175.269,168.01,175.753"/>
	</g>
	<g>
		<path fill="#93815A" d="M164.03,203.798c2.126,9.04,2.026,18.272,2.986,27.458c0.71,6.807,1.831,14.611,6.589,19.881
			c0.487,0.537,1.202-0.234,0.778-0.777c-5.404-6.926-6.08-16.358-6.659-24.811c-0.506-7.393-0.784-14.82-2.88-21.975
			C164.69,203.051,163.905,203.27,164.03,203.798"/>
	</g>
	<g>
		<path fill="#93815A" d="M158.01,203.936c2.029,0.076,4.012-0.02,6.027,0.313c0.749,0.124,1.071-1.024,0.315-1.147
			c-2.168-0.359-4.291-0.429-6.461-0.043C157.379,203.148,157.528,203.916,158.01,203.936"/>
	</g>
	<g>
		<path fill="#93815A" d="M136.107,206.723c5.512-1.072,11.063-1.752,16.652-2.258c0.757-0.068,0.764-1.261,0-1.191
			c-5.689,0.516-11.37,1.059-16.89,2.588C135.311,206.016,135.549,206.83,136.107,206.723"/>
	</g>
	<g>
		<path fill="#93815A" d="M121.13,212.889c3.249-1.652,6.361-3.395,9.854-4.5c0.728-0.229,0.417-1.381-0.316-1.147
			c-3.597,1.138-6.86,2.776-9.989,4.879C120.203,212.438,120.616,213.15,121.13,212.889"/>
	</g>
	<g>
		<path fill="#93815A" d="M120.408,212.504c-1.249,16.456,0.246,33.245,3.875,49.332c0.181,0.805,1.401,0.463,1.232-0.34
			c-3.421-16.223-4.604-32.439-4.115-48.992C121.419,211.859,120.456,211.875,120.408,212.504"/>
	</g>
	<g>
		<path fill="#93815A" d="M108.797,229.396c2.345,6.651,5.021,13.189,7.857,19.647c1.408,3.207,2.842,6.412,4.376,9.562
			c0.986,2.022,1.676,3.805,3.948,4.371c0.736,0.184,1.048-0.942,0.313-1.137c-2.871-0.754-4.07-5.572-5.151-7.912
			c-1.155-2.501-2.283-5.013-3.388-7.533c-2.495-5.695-4.814-11.461-7.15-17.222C109.406,228.689,108.615,228.881,108.797,229.396"
			/>
	</g>
	<g>
		<path fill="#C18B5D" d="M128.999,224.73c-0.764,4.821-1.544,11.879,3.978,14.226c4.604,1.958,9.343-1.226,10.66-5.72
			c1.449-4.941,1.104-11.156-3.816-14.028c-4.792-2.798-9.79,0.631-10.816,5.522c-0.12,0.568,0.684,0.791,0.869,0.24
			c1.78-5.294,8.038-7.666,11.747-2.47c2.266,3.174,2.054,8.013,0.47,11.474c-2.314,5.057-9.423,6.176-11.828,0.528
			c-1.205-2.829-0.561-6.668-0.368-9.651C129.928,224.346,129.079,224.219,128.999,224.73"/>
	</g>
	<g>
		<path fill="#C18B5D" d="M150.382,223.146c-0.764,4.821-1.543,11.879,3.979,14.226c4.604,1.958,9.343-1.226,10.66-5.72
			c1.449-4.941,1.104-11.156-3.816-14.028c-4.792-2.798-9.79,0.631-10.816,5.522c-0.119,0.568,0.684,0.791,0.87,0.24
			c1.779-5.294,8.037-7.666,11.747-2.47c2.266,3.174,2.054,8.013,0.47,11.474c-2.314,5.057-9.423,6.176-11.827,0.528
			c-1.205-2.829-0.562-6.668-0.368-9.651C151.312,222.762,150.462,222.635,150.382,223.146"/>
	</g>
	<g>
		<path fill="#8E643A" d="M140.61,243.387c-0.043,1.144,0.695,1.816,1.751,1.838c2.319,0.045,4.634-0.438,6.786-1.276
			c0.69-0.269,0.398-1.39-0.309-1.122c-1.015,0.382-7.221,2.415-7.21,0.562C141.632,242.729,140.635,242.732,140.61,243.387"/>
	</g>
	<g>
		<path fill="#A5764C" d="M145.494,262.302c0.21,1.726,0.208,3.558,0.746,5.224c0.334,1.039,1.971,0.602,1.646-0.455
			c-0.492-1.598-0.544-3.336-0.83-4.979C146.905,261.219,145.386,261.409,145.494,262.302"/>
	</g>
	<g>
		<path fill="#753121" d="M125.905,268.936c3.128,3.502,9.459,3.142,13.729,2.836c3.824-0.272,7.902-2.088,9.267-5.862
			c0.2-0.556-0.709-0.947-0.962-0.406c-1.878,4.021-6.161,5.133-10.31,5.146c-3.654,0.014-8.261,0.319-11.078-2.359
			C126.123,267.88,125.515,268.499,125.905,268.936"/>
	</g>
	<g>
		<path fill="#753121" d="M122.054,270.889c-4.696,2.303-9.562,4.481-11.782,9.518c-2.142,4.855-2.921,10.41-3.552,15.637
			c-1.35,11.191-1.442,22.708-0.851,33.953c0.053,1.014,1.638,1.021,1.584,0c-0.521-9.932-0.389-19.98,0.443-29.891
			c0.435-5.174,1.134-10.432,2.561-15.433c1.075-3.772,2.438-6.61,5.752-8.852c2.083-1.41,4.392-2.462,6.644-3.563
			C123.77,271.809,122.968,270.441,122.054,270.889"/>
	</g>
	<g>
		<path fill="#753121" d="M159.097,280.003c1.44,4.048,3.358,8.144,4.339,12.333c0.832,3.555,0.029,6.18-2.454,8.729
			c-1.18,1.211-2.225,2.127-2.914,3.718c-1.282,2.963-0.931,6.737-1.064,9.874c-0.212,4.979-0.444,9.962-0.625,14.943
			c-0.029,0.779,1.171,0.774,1.208,0c0.237-4.979,0.422-9.964,0.629-14.943c0.108-2.611-0.094-5.647,0.571-8.193
			c0.732-2.794,2.92-4.062,4.554-6.186c4.438-5.769-1.243-14.863-3.455-20.492C159.699,279.304,158.917,279.498,159.097,280.003"/>
	</g>
	<g>
		<path fill="#753121" d="M151.75,265.896c3.927,2.379,8.846,5.43,9.774,10.242c0.789,4.086,0.671,8.518,0.984,12.668
			c0.046,0.605,0.987,0.616,0.955,0c-0.247-4.602,0.558-11.14-1.538-15.346c-1.844-3.697-6.185-6.525-9.806-8.2
			C151.698,265.066,151.337,265.646,151.75,265.896"/>
	</g>
	<g>
		<path fill="#753121" d="M162.243,300.495c0.158,6.46,0.268,12.923,0.426,19.383c0.024,1.017,1.608,1.021,1.584,0
			c-0.158-6.46-0.268-12.921-0.426-19.383C163.803,299.479,162.219,299.473,162.243,300.495"/>
	</g>
	<g>
		<path fill="#753121" d="M106.327,328.771c-3.074-0.478-2.441,6.147-1.991,7.752c1.067,3.797,6.124,4.133,9.407,4.313
			c2.875,0.16,8.489,0.271,9.304-3.343c0.395-1.746,0.271-5.65-0.347-7.338c-0.426-1.168-0.848-1.59-2.078-1.692
			c-0.698-0.06-0.698,1.038,0,1.091c1.469,0.114,1.542,5.182,1.427,6.098c-0.473,3.718-3.895,4.093-7.043,4.104
			c-2.02,0.007-4.353-0.096-6.265-0.743c-2.399-0.81-3.167-2.57-3.462-4.649c-0.116-0.821,0.008-4.749,0.931-4.726
			C106.693,329.65,106.827,328.848,106.327,328.771"/>
	</g>
	<g>
		<path fill="#753121" d="M120.95,293.268c-1.654,12.433-1.56,25.396-1.217,37.912c0.016,0.576,0.863,0.571,0.892,0
			c0.649-12.648,0.269-25.269,1.178-37.912C121.843,292.709,121.021,292.739,120.95,293.268"/>
	</g>
	<g>
		<path fill="#753121" d="M106.185,333.957c-0.052,1.934,0.54,3.706,1.848,5.129c0.316,0.346,0.889-0.1,0.646-0.498
			c-0.861-1.417-1.451-2.971-1.571-4.631C107.065,333.369,106.201,333.355,106.185,333.957"/>
	</g>
	<g>
		<path fill="#753121" d="M108.914,336.434c0.129,1.252,0.488,2.687,1.215,3.73c0.327,0.471,1.25,0.193,1.002-0.422
			c-0.466-1.157-0.969-2.221-1.298-3.434C109.698,335.818,108.857,335.896,108.914,336.434"/>
	</g>
	<g>
		<path fill="#753121" d="M157.176,329.221c2.015,0.281,3.929,1.877,6.019,1.598c1.754-0.234,2.355-1.397,2.559-3.014
			c0.178-1.412,0.139-2.896,0.084-4.312c-0.038-0.996,0.058-2.388-0.317-3.33c-0.68-1.708-2.353-0.821-3.709-0.433
			c-0.732,0.213-0.419,1.359,0.316,1.145c1.027-0.301,1.676-0.8,2.413,0.66c0.244,0.482,0.12,1.434,0.149,1.958
			c0.068,1.208,0.414,3.151,0.011,4.312c-1.234,3.553-4.916,0.565-7.389,0.404C156.741,328.172,156.597,329.141,157.176,329.221"/>
	</g>
	<g>
		<path fill="#753121" d="M161.938,326.827c-0.075,1.06-0.221,2.108-0.301,3.165c-0.044,0.568,0.872,0.689,0.996,0.135
			c0.236-1.052,0.255-2.227,0.163-3.3C162.749,326.281,161.979,326.273,161.938,326.827"/>
	</g>
	<g>
		<path fill="#93815A" d="M144.354,366.104c-1.402,0.069-2.787,0-4.184-0.115c-1.017-0.086-1.011,1.498,0,1.584
			c1.397,0.115,2.782,0.186,4.184,0.115C145.368,367.635,145.375,366.051,144.354,366.104"/>
	</g>
	<g>
		<path fill="#93815A" d="M154.589,331.564c0.312,10.879,0.32,21.67-1.055,32.485c-0.128,1.009,1.457,1,1.584,0
			c1.375-10.815,1.367-21.606,1.055-32.485C156.144,330.548,154.56,330.543,154.589,331.564"/>
	</g>
	<g>
		<path fill="#753121" d="M121.934,338.907c2.555,0.97,4.906,0.761,7.523,0.114c3.667-0.902,7.381-1.612,11.038-2.543
			c3.596-0.914,7.086-2.199,10.586-3.42c2.029-0.709,4.989-1.029,6.193-2.985c0.368-0.601-0.542-1.109-0.931-0.548
			c-1.154,1.671-5.776,2.422-7.597,3.058c-2.833,0.99-5.665,1.985-8.568,2.749c-2.602,0.684-5.271,1.004-7.864,1.717
			c-3.392,0.936-6.612,2.189-10.125,0.938C121.604,337.773,121.365,338.691,121.934,338.907"/>
	</g>
	<g>
		<path fill="#93815A" d="M126.396,370.423c-3.104-0.122-5.415-0.39-6.032-3.767c-0.362-1.977,0.052-4.438,0.027-6.454
			c-0.05-4.085-0.041-8.164-0.018-12.252c0.004-0.696-1.085-0.698-1.082,0c0.019,6.235,0.022,12.469-0.046,18.706
			c-0.014,1.359-0.391,2.547,0.63,3.465c1.518,1.361,4.605,1.41,6.521,1.389C127.099,371.501,127.095,370.45,126.396,370.423"/>
	</g>
	<g>
		<path fill="#93815A" d="M139.83,345.623c-0.087,3.784-0.219,7.57-0.462,11.35c-0.217,3.395,1.016,9.996-2.931,11.316
			c-0.658,0.22-0.372,1.271,0.289,1.045c4.315-1.496,3.138-2.325,3.414-6.881c0.337-5.598,0.961-11.219,0.779-16.83
			C140.895,344.926,139.846,344.921,139.83,345.623"/>
	</g>
	<g>
		<path fill="#93815A" d="M137.95,345.292c1.676,0.866,3.236,0.526,4.831-0.353c0.626-0.346,0.07-1.295-0.56-0.957
			c-1.24,0.664-2.482,1.199-3.849,0.588C137.892,344.354,137.464,345.04,137.95,345.292"/>
	</g>
	<g>
		<path fill="#B5897C" d="M144.317,367.986c2.883-2.58,5.7-4.741,9.748-2.965c0.679,0.299,1.279-0.688,0.591-1.008
			c-4.226-1.962-8.254-0.128-10.994,3.317C143.297,367.791,143.864,368.393,144.317,367.986"/>
	</g>
	<g>
		<path fill="#B5897C" d="M143.769,368.195c0.73,0.89,1.483,1.712,2.332,2.488c0.242,0.221,0.568,0.159,0.751-0.097
			c2.007-2.832,5.666-3.378,8.892-3.278c0.4,0.012,0.657-0.391,0.573-0.754c-0.268-1.154-0.731-1.815-1.668-2.529
			c-0.511-0.389-1.189,0.482-0.69,0.896c0.683,0.436,1.087,1.086,1.211,1.95c0.191-0.252,0.382-0.501,0.574-0.753
			c-3.847,0.003-7.054,0.972-9.643,3.891h0.675c-0.82-0.791-1.62-1.591-2.382-2.438
			C144.009,367.145,143.415,367.766,143.769,368.195"/>
	</g>
	<g>
		<path fill="#B5897C" d="M155.686,367.521c0.864,0.512,3.912,2.338,3.793,3.235c-0.229,1.716-2.783,1.499-4.025,1.54
			c-2.612,0.09-6.617-0.9-8.715-2.464c-0.535-0.397-1.25,0.517-0.719,0.933c1.902,1.487,4.477,1.979,6.789,2.545
			c1.862,0.459,4.082,0.299,5.94-0.146c1.522-0.364,2.308-1.112,1.937-2.741c-0.467-2.044-2.779-2.974-4.503-3.751
			C155.617,366.416,155.129,367.191,155.686,367.521"/>
	</g>
	<g>
		<path fill="#B5897C" d="M126.102,371.945c2.882-2.579,5.699-4.74,9.748-2.963c0.679,0.299,1.279-0.689,0.591-1.01
			c-4.226-1.961-8.254-0.127-10.994,3.318C125.081,371.751,125.648,372.354,126.102,371.945"/>
	</g>
	<g>
		<path fill="#B5897C" d="M125.554,372.156c0.73,0.889,1.483,1.711,2.332,2.486c0.242,0.223,0.569,0.159,0.751-0.096
			c2.007-2.832,5.667-3.378,8.891-3.279c0.401,0.014,0.658-0.39,0.573-0.752c-0.268-1.156-0.73-1.816-1.668-2.529
			c-0.511-0.389-1.189,0.481-0.69,0.896c0.684,0.435,1.087,1.086,1.211,1.95c0.191-0.252,0.383-0.501,0.574-0.753
			c-3.847,0.003-7.054,0.972-9.642,3.892h0.676c-0.82-0.791-1.62-1.592-2.382-2.438
			C125.793,371.104,125.199,371.725,125.554,372.156"/>
	</g>
	<g>
		<path fill="#B5897C" d="M137.47,371.48c0.864,0.512,3.912,2.338,3.793,3.235c-0.229,1.716-2.783,1.499-4.024,1.54
			c-2.613,0.09-6.618-0.9-8.716-2.464c-0.535-0.397-1.25,0.517-0.719,0.933c1.902,1.487,4.476,1.979,6.789,2.545
			c1.863,0.459,4.082,0.299,5.94-0.146c1.522-0.363,2.308-1.111,1.937-2.74c-0.467-2.044-2.779-2.974-4.503-3.752
			C137.401,370.376,136.914,371.15,137.47,371.48"/>
	</g>
	<g>
		<path fill="#93815A" d="M152.991,201.312c-0.207,1.097-0.342,2.207-0.391,3.32c-0.01,0.244,0.215,0.449,0.451,0.449
			c2.822,0.01,4.909,1.729,6.641,3.779c0.274,0.326,0.892,0.068,0.859-0.355c-0.155-2.013-0.825-3.915-2.197-5.429
			c-1.209-1.334-3.244-2.726-5.108-2.13c-0.596,0.188-0.354,1.096,0.259,0.941c1.659-0.422,3.51,1.172,4.447,2.364
			c0.971,1.233,1.54,2.681,1.592,4.252c0.288-0.118,0.573-0.235,0.86-0.354c-1.835-2.317-4.311-4.021-7.353-3.969
			c0.149,0.149,0.299,0.301,0.449,0.45c0.045-1.075,0.21-2.143,0.274-3.215C153.801,200.975,153.075,200.867,152.991,201.312"/>
	</g>
	<g>
		<path fill="#93815A" d="M134.571,204.284c0.935,0.946,1.003,2.364,1.291,3.595c0.109-0.193,0.219-0.386,0.329-0.578
			c-2.55,0.568-5.626,2.621-6.734,5.055c0.288,0.08,0.578,0.156,0.866,0.234c-0.039-3.417,1.838-6.49,4.794-8.154
			c0.57-0.321,0.06-1.196-0.514-0.879c-3.327,1.842-5.223,5.258-5.21,9.033c0.001,0.438,0.662,0.668,0.866,0.236
			c1.019-2.161,3.909-4.053,6.182-4.619c0.25-0.062,0.391-0.337,0.329-0.578c-0.365-1.402-0.502-2.895-1.62-3.922
			C134.762,203.354,134.199,203.908,134.571,204.284"/>
	</g>
	<g>
		<path fill="#8E643A" d="M163.241,227.036c-0.108,0.222-0.217,0.452-0.231,0.698c-0.013,0.246,0.091,0.517,0.313,0.625
			c0.2,0.097,0.449,0.037,0.624-0.101c0.173-0.138,0.282-0.341,0.358-0.55c0.088-0.24,0.138-0.494,0.15-0.749
			c0.014-0.298-0.043-0.632-0.281-0.812c-0.237-0.182-0.676-0.062-0.686,0.235"/>
	</g>
	<g>
		<path fill="#8E643A" d="M162.768,226.76c-0.37,0.676-0.554,1.656,0.255,2.114c0.855,0.483,1.637-0.322,1.897-1.073
			c0.25-0.723,0.307-1.796-0.449-2.248c-0.726-0.433-1.555,0.03-1.645,0.833c-0.084,0.75,1.123,0.89,1.301,0.177
			c-0.039,0.052-0.078,0.102-0.116,0.15c-0.059,0.037-0.112,0.033-0.163-0.011c-0.074-0.056-0.094-0.056-0.06,0.004
			c0.014,0.024,0.023,0.053,0.026,0.081c-0.029,0.245,0.008,0.441-0.078,0.688c-0.038,0.112-0.179,0.31-0.14,0.354
			c-0.104-0.114,0.126-0.532,0.171-0.646C164.006,226.604,163.062,226.223,162.768,226.76"/>
	</g>
	<g>
		<path fill="#8E643A" d="M142.643,228.669c-0.181,0.177-0.104,0.519,0.114,0.647c0.218,0.127,0.512,0.065,0.704-0.099
			c0.193-0.163,0.3-0.407,0.357-0.653c0.113-0.479,0.062-0.994-0.143-1.44c-0.049-0.108-0.128-0.228-0.247-0.229
			c-0.082-0.002-0.154,0.054-0.214,0.108c-0.463,0.429-0.703,1.06-0.739,1.688"/>
	</g>
	<g>
		<path fill="#8E643A" d="M142.269,228.294c-0.517,0.644-0.156,1.625,0.726,1.647c0.998,0.026,1.446-1.015,1.468-1.863
			c0.019-0.744-0.35-2.191-1.396-1.741c-0.818,0.353-1.259,1.532-1.213,2.354c0.038,0.67,1.062,0.888,1.225,0.166
			c0.063-0.279,0.119-0.572,0.228-0.84c0.043-0.103,0.094-0.203,0.156-0.295c0.144-0.221,0.38-0.252-0.051-0.274
			c-0.416-0.022-0.216,0.038-0.156,0.301c0.037,0.163,0.05,0.325,0.034,0.493c-0.013,0.145-0.039,0.34-0.127,0.458
			c-0.029,0.034-0.058,0.069-0.088,0.104c-0.088,0.021-0.079,0.063,0.028,0.134C143.426,228.441,142.648,227.818,142.269,228.294"/>
	</g>
</g>
</svg>
