<?xml version="1.0" encoding="utf-8"?>
<!-- Generator: Adobe Illustrator 15.1.0, SVG Export Plug-In . SVG Version: 6.00 Build 0)  -->
<!DOCTYPE svg PUBLIC "-//W3C//DTD SVG 1.1//EN" "http://www.w3.org/Graphics/SVG/1.1/DTD/svg11.dtd">
<svg version="1.1" xmlns="http://www.w3.org/2000/svg" xmlns:xlink="http://www.w3.org/1999/xlink" x="0px" y="0px" width="400px"
	 height="200px" viewBox="0 0 400 200" enable-background="new 0 0 400 200" xml:space="preserve">
<g id="Layer_3">
	<path fill="#DC9D3B" d="M25.5,183.5c-2.211,4.043-18.173,11.126-3.5,13.5c7.863,1.272,17.02,0,25,0
		c24.851,0,49.978,0.441,74.875-0.5c40.296-1.523,81.037,0,121.373,0c29.968,0,60.312-1.041,90.154,0.498
		c16.488,0.851,33.238,0.137,49.599-0.498c17.282-0.671-3.443-15.51-11.5-13.5L25.5,183.5z"/>
	<path fill="#A7A9AC" d="M69.25,155.5c0,0-8.342,2.588-13.192,4.873s-37.968,17.094-37.968,17.094s-3.023,4.191-1.806,7.737
		s4.973,2.803,9.72,2.803s353.997,0,353.997,0s4.477,1.253,4.477-8.502c0,0,2.021-0.562-4.477-3.488s-39.398-17.334-39.398-17.334
		s-3.195-2.683-11.148-2.183S69.25,155.5,69.25,155.5z"/>
	<path fill="#414042" d="M68.486,147.341v9.194c20.577,2.74,41.502,0.576,62.21,0.934c24.609,0.425,49.139,0.371,73.745-0.396
		c12.321-0.385,24.602-0.824,36.931-0.443c12.382,0.382,24.773,1.102,37.166,0.938c9.969-0.131,19.83,0.455,29.784,0.867
		c7.346,0.304,14.819,0.544,22.092-0.631c0.047-0.312,0.073-0.625,0.081-0.94c-0.169,0.018-0.262,0.029-0.262,0.029
		s0.327-136.647,0.482-146.191S318.16,3.062,318.16,3.062H71.696c-4.054,0.312-3.471,17.344-3.471,17.344S68.486,142,68.486,147.341
		z"/>
	<path fill="#EDEDED" d="M320.869,142.875c0,0,0-114.365,0-122.469s-9.365-7.032-9.365-7.032s-220.767,0-226.982,0
		s-6.218,3.511-6.218,3.511v123.06l-0.03,0.617c-0.03,7.062,5.227,6.779,5.227,6.779s70.091,0.198,133.303,0.373
		c0.658-0.347,1.443-0.552,2.364-0.548c7.839,0.037,15.638,0.145,23.437,0.325c0.322-0.133,0.678-0.239,1.067-0.312
		c6.587-1.243,12.889-0.111,19.496,0.154c3.646,0.147,7.292,0.215,10.935,0.357c5.738-0.569,11.733-0.165,17.421-0.037
		c2.137,0.049,4.264,0.151,6.388,0.28c10.094,0.025,16.607,0.041,17.859,0.041C323.797,147.975,320.869,142.875,320.869,142.875z"/>
</g>
<g id="Layer_2">
	<path fill="none" stroke="#818081" stroke-width="2" stroke-miterlimit="10" d="M72.762,156.755
		c-8.262-0.507-13.527,2.114-18.567,4.496c-5.75,2.717-11.417,5.364-17.2,7.937c-2.218,0.986-21.566,7.925-20.768,10.317
		c0.312,0.935,3.111,0.495,4.023,0.495"/>
	<path fill="none" stroke="#818081" stroke-width="2" stroke-miterlimit="10" d="M329.453,157.75
		c5.499-1.933,12.016,1.119,17.056,3.501c5.751,2.717,11.417,5.364,17.2,7.937c2.218,0.986,21.566,7.925,20.768,10.317
		C384.165,180.439,380.912,180,380,180"/>
	<rect x="95.899" y="41.447" fill="#6D5324" width="97" height="90.5"/>
	<rect x="95.899" y="25.354" fill="#FFFFFF" width="97" height="16.094"/>
	<path fill="none" stroke="#000000" stroke-width="2" stroke-miterlimit="10" d="M74.658,2.855
		c21.104,0.465,42.215,0.649,63.325,0.693c21.09,0.047,42.184-0.048,63.272-0.137c21.063-0.091,42.132-0.18,63.195-0.124
		c10.52,0.03,21.038,0.094,31.56,0.213c10.064,0.113,20.229-0.102,30.278,0.445c1.228,0.067,2.629,0.217,3.436,1.352
		c0.782,1.101,0.93,4.316,0.927,5.705"/>
	<path fill="none" stroke="#000000" stroke-width="2" stroke-miterlimit="10" d="M330.716,10.701
		c-0.456,22.535-0.259,45.073-0.021,67.61c0.236,22.54,0.516,45.083,0.225,67.625c-0.028,2.249-0.063,4.496-0.105,6.746
		c-0.023,1.318,0.433,3.302-0.581,4.209c-1.228,1.095-4.311,0.937-5.828,0.903"/>
	<path fill="none" stroke="#000000" stroke-width="2" stroke-miterlimit="10" d="M324.562,157.849
		c-21.114-0.465-42.229-0.648-63.347-0.693c-21.1-0.048-42.197,0.048-63.297,0.14c-21.071,0.09-42.144,0.178-63.217,0.12
		c-10.523-0.027-21.047-0.093-31.568-0.211c-10.096-0.115-20.302,0.091-30.371-0.449c-1.114-0.061-2.538,0.045-3.359-0.938
		c-1.102-1.317-0.918-4.867-0.883-6.524"/>
	<path fill="none" stroke="#000000" stroke-width="2" stroke-miterlimit="10" d="M68.504,150.006
		c0.455-22.481,0.251-44.97,0.002-67.454c-0.243-22.453-0.525-44.908-0.222-67.366c0.028-2.03,0.06-4.065,0.098-6.096
		c0.023-1.332-0.181-3.249,0.495-4.46c1.071-1.917,4.596-1.728,6.362-1.763"/>
	<path fill="none" stroke="#000000" stroke-width="2" stroke-miterlimit="10" d="M83.984,13.363
		c19.529,0.402,39.064,0.562,58.598,0.599c19.516,0.041,39.035-0.041,58.549-0.118c19.491-0.079,38.987-0.155,58.479-0.106
		c9.734,0.026,19.468,0.081,29.204,0.184c9.312,0.098,18.718-0.088,28.018,0.385c1.136,0.058,2.433,0.188,3.18,1.168
		c0.724,0.952,0.86,3.731,0.857,4.932"/>
	<path fill="none" stroke="#000000" stroke-width="2" stroke-miterlimit="10" d="M320.929,20.145
		c-0.422,19.479-0.239,38.961-0.019,58.443c0.218,19.483,0.477,38.97,0.207,58.456c-0.025,1.943-0.059,3.886-0.098,5.831
		c-0.021,1.14,0.4,2.854-0.537,3.638c-1.136,0.946-3.989,0.81-5.394,0.781"/>
	<path fill="none" stroke="#000000" stroke-width="2" stroke-miterlimit="10" d="M315.233,147.341
		c-19.538-0.402-39.076-0.561-58.618-0.6c-19.524-0.042-39.047,0.041-58.572,0.12c-19.499,0.078-38.998,0.154-58.499,0.104
		c-9.737-0.023-19.476-0.08-29.212-0.183c-9.342-0.1-18.786,0.078-28.104-0.389c-1.031-0.052-2.349,0.039-3.109-0.811
		c-1.019-1.139-0.849-4.207-0.817-5.64"/>
	<path fill="none" stroke="#000000" stroke-width="2" stroke-miterlimit="10" d="M78.29,140.562
		c0.42-19.434,0.232-38.872,0.001-58.308c-0.225-19.409-0.486-38.819-0.205-58.231c0.026-1.755,0.055-3.514,0.09-5.27
		c0.022-1.151-0.167-2.808,0.458-3.855c0.991-1.657,4.253-1.493,5.887-1.524"/>
	<path fill="none" stroke="#818081" stroke-width="2" stroke-miterlimit="10" d="M20.25,180c5.167,0,150.084,0,155.25,0h49.703
		c5.166,0,150.084,0,155.25,0"/>
	<path fill="none" stroke="#818081" stroke-width="2" stroke-miterlimit="10" d="M19.583,188.007
		c5.167,0,150.75-0.007,155.917-0.007h49.703c5.166,0,150.084,0,155.25,0"/>
	<path fill="none" stroke="#818081" stroke-width="2" stroke-miterlimit="10" d="M16.227,179.505c0,1.915-0.707,4.165,0.057,5.699
		c0.624,1.251,2.57,2.918,3.967,2.796"/>
	<path fill="none" stroke="#818081" stroke-width="2" stroke-miterlimit="10" d="M384.477,179.505c0.018,1,0,3.34,0,4.168
		c0,0.886-0.254,1.678-0.644,2.493c-0.635,1.329-2.315,1.952-3.833,1.834"/>
	<text transform="matrix(1 0 0 1 103.3994 65.9473)"><tspan x="0" y="0" fill="#FFFFFF" font-family="'MyriadPro-Bold'" font-size="12">The Expert’s</tspan><tspan x="0" y="14.4" fill="#FFFFFF" font-family="'MyriadPro-Bold'" font-size="12">Guide to</tspan><tspan x="0" y="28.8" fill="#FFFFFF" font-family="'MyriadPro-Bold'" font-size="12">Working While</tspan><tspan x="0" y="43.2" fill="#FFFFFF" font-family="'MyriadPro-Bold'" font-size="12">Traveling</tspan></text>
	<text transform="matrix(1 0 0 1 204.7324 51.2808)"><tspan x="0" y="0" fill="#58595B" font-family="'MyriadPro-Bold'" font-size="12">Keep the desk job,</tspan><tspan x="0" y="14.4" fill="#58595B" font-family="'MyriadPro-Bold'" font-size="12">ditch the desk.</tspan></text>
	<path fill="none" stroke="#493419" stroke-width="2" stroke-miterlimit="10" d="M95.899,25.354c0.01,3.436,0.193,103.253,0,106.594
		h97V25.354H95.899z"/>
	<circle fill="#493419" cx="175.399" cy="41.447" r="8.5"/>
	<path fill="none" stroke="#FFFFFF" stroke-width="2" stroke-miterlimit="10" d="M104.149,118.933
		c0.588,2.147,4.646,0.66,6.494,0.995c1.843,0.333,2.207,1.048,3.993,0.815c0.911-0.119,1.249-0.801,2.25-0.828
		c0.926-0.025,2.095,0.651,3.065,0.773c3.316,0.418,6.925,0.382,10.028,0.105c1.408-0.126,3.001-0.156,4.628-0.312
		c0.729-0.069,2.008,0.044,2.848,0.006c1.413-0.064,2.467-0.919,3.193,0.944"/>
	<path fill="none" stroke="#939598" stroke-width="2" stroke-miterlimit="10" d="M204.732,74.937
		c1.269,2.147,10.029,0.66,14.018,0.995c3.98,0.333,4.765,1.048,8.622,0.815c1.965-0.119,2.694-0.801,4.856-0.828
		c1.999-0.025,4.524,0.651,6.617,0.773c7.157,0.418,14.948,0.382,21.647,0.105c3.037-0.126,6.478-0.156,9.987-0.312
		c1.572-0.069,4.336,0.044,6.148,0.006c3.051-0.064,5.327-0.919,6.892,0.944"/>
	<path fill="none" stroke="#939598" stroke-width="2" stroke-miterlimit="10" d="M204.732,88.937
		c1.269,2.147,10.029,0.66,14.018,0.995c3.98,0.333,4.765,1.048,8.622,0.815c1.965-0.119,2.694-0.801,4.856-0.828
		c1.999-0.025,4.524,0.651,6.617,0.773c7.157,0.418,14.948,0.382,21.647,0.105c3.037-0.126,6.478-0.156,9.987-0.312
		c1.572-0.069,4.336,0.044,6.148,0.006c3.051-0.064,5.327-0.919,6.892,0.944"/>
	<path fill="none" stroke="#939598" stroke-width="2" stroke-miterlimit="10" d="M204.732,81.937
		c1.157,2.147,9.152,0.66,12.791,0.995c3.633,0.333,4.349,1.048,7.868,0.815c1.793-0.119,2.459-0.801,4.432-0.828
		c1.824-0.025,4.129,0.651,6.038,0.773c6.531,0.418,13.642,0.382,19.755,0.105c2.771-0.126,5.91-0.156,9.113-0.312
		c1.435-0.069,3.957,0.044,5.61,0.006c2.784-0.064,4.861-0.919,6.289,0.944"/>
	
		<rect x="204.732" y="99" fill="#FFFFFF" stroke="#939598" stroke-width="2" stroke-miterlimit="10" width="54.768" height="14.75"/>
	<rect x="259.5" y="99" fill="#6D5324" stroke="#493419" stroke-width="2" stroke-miterlimit="10" width="34.25" height="14.75"/>
	<path fill="none" stroke="#FFFFFF" stroke-width="2" stroke-miterlimit="10" d="M266.5,105.75
		c-0.997,3.163,2.722,1.165,3.757,0.926c2.089-0.482,3.357,0.366,5.487,0.574c3.789,0.369,7.286-1.31,10.506,0.25"/>
</g>
</svg>
