<svg xmlns="http://www.w3.org/2000/svg" viewBox="0 0 180 120" enable-background="new 0 0 180 120"><g><path fill="#E2E2E2" d="M133.9 114.9c-3.3.5-6.7.7-10 0s-6.5-2.4-8.4-5.1c-.8-1.2-1.4-2.7-.7-4 .3-.6.7-1 1.2-1.4 4.6-3.7 10.8-4.5 16.6-6 6.1-1.7 11.8-4.4 17.4-7.1 1.9-.9 3.9-1.9 5.7-3 1.4-.9 2.8-2.1 4.5-2.2s3.7 1.1 3.4 2.8c3 0 6.2 2 6.4 5 .2 3.4-3.5 5.7-6.8 6.5-5.4 1.3-11.2.8-16.3 3-.6.3-1.2.6-1.6 1.1-.6.9-.4 2-.5 3.1-.2 2.3-1.9 4.4-4 5.5-2.2 1-4.6 1.4-6.9 1.8z"/><ellipse fill="#E2E2E2" cx="68" cy="83.5" rx="59.2" ry="23.4"/><path fill="#565C56" d="M16.4 36.6c-.5.3 23.8 7.7 23.8 7.7s-1.7 20.3-8.3 29.5c0 0 23.3 16.2 50.5 3.7l5.1 6.1 12.7-5s-8-28-7.1-35l20.5-5S91.4 27.6 71 21c.1.1-50.8 13.1-54.6 15.6z"/><path fill="#434943" d="M40.2 49.7c6.3 2.3 12.5 5.7 16.4 11.2 5.3-3.8 11.5-6.1 17.8-7.6s12.8-2.2 19.2-2.9l-1.2-7.2-30.8 8.9s-10.8-9-21.3-8.4l-.1 6z"/><path fill="#747A74" d="M85.5 39.2c-3.3-.5-6.6-1.2-10-1.8l-8.4-.9c-.6-.1-.6-1.1 0-1H67.4c2.6.1 5.2.4 7.8.8 8.3.9 16.6 2 24.9 3 1.7-1.6 2.8-4 2.5-6.4l-6.2-3.1c-2.1-.6-4.2-1.3-6.3-2.1-3.1-1.1-6.4-2.9-9.6-3.6-.9-.2-1.9-.4-2.8-.6-5.9-1.1-11.9 0-17.7 1.6-5.8 1.5-11.4 3.5-17.3 4.2l-2.8.9c-1.5.3-2.7 1.6-3.2 3.1s-.5 3.1-.4 4.6c0 1.3.1 2.7 1 3.5.5.5 1.3.8 2 1 4.3 1.4 8.7 2.9 13.1 4.1 4.2 1.2 8.4 2.2 12.8 2 3.4-.1 6.7-1 9.9-1.9 6.7-1.8 13.4-3.6 20.1-5.3l2.1-.6c-3.8-.3-7.8-.9-11.8-1.5z"/><path fill="#EAD5B0" d="M26.8 67.8s-14.8 6-7.3 20.9c0 0 30.2-3.4 46.4 13 0 0 13.2 9.9 21.4-2.9s-4.9-21.2-4.9-21.2-14.7 6.7-27.1 4.3-25.2-5.3-28.5-14.1z"/><path fill="#EDC27E" d="M104.8 73.2s-6.5.4-4.9 8.2c1.6 7.8 11.8 17.1 19.7 8.9 0 0-8.5 1.3-7.7-8.9.8-10.2-3.9-9-7.1-8.2zM103.5 57.1s-4.2 2.3-2.9 5.8c1.2 3.5 4.4 4.1 6.4 1.7 2-2.4 2-7.5-3.5-7.5z"/><path fill="#AFAFAF" d="M120.4 106.8s-3.6-7.2 3.9-10.2 9-1.5 9-1.5l17.1-8.2s1.7-7.7 11.2-5.1l.2 3.5-3.8 1.2s-.5 2.8 1.8 1.5 5.1-2.8 5.1-2.8 1.2.6 1.2 3.6v3.1s-3.9 6.7-12.5 3.3l-13.5 6.6v7.1s-5.3 6.2-12.3 2.6c0 0-1.4-1.9 1.9-4.5s2.3-3.8 2.3-3.8l-5.4.5c0 .1-6.2 5.2-6.2 3.1z"/><path fill="#969696" d="M120.2 105.4l.6 1.9 5.8-3.5 5.4-.5 1.2-2.5-6.4.3zM161.8 82.5v2.9l-5 2.3-.2-3.2z"/><path fill="#BCBCBC" d="M139.7 99.7l13.6-8.3s3 1.7 6.6.6c3.6-1.1 6.5-3.6 6.5-3.6l-.2 4s-3.6 3-6.5 3.3-6.3-.5-6.3-.5l-13.2 7.2-.5-2.7zM140 105.2l.9 4.1s-5.4 4.7-12.4 2.4c0 0-2.9-3.1 0-2.7 2.9.4 9.7-.7 11.5-3.8z"/><path fill="#898989" d="M36.6 36.8c-.2-1.3-.3-2.5 0-3.8.3-1.2 1.1-2.4 2.3-2.8-1.4 1.9-2.3 4.3-2.3 6.6zM102.5 32.8c0 1.5-.2 3-.5 4.4.9-.8 1.4-1.9 1.6-3.1 0-.3-.1-.8-.4-.8"/><path fill="#898989" d="M64.9 24.6c1.2-1.1 2.9-1.5 4.5-1.6 1.6-.1 3.3.1 4.9-.1h.4c.2.1.2.4.3.6-1.9.3-3.8.4-5.8.5-1.4 0-2.9 0-4.3.6z"/><path fill="#CEBA99" d="M82.9 93.9c-.5 4.3-3.6 8.1-7.6 9.6-.7.2-1.4.4-2.1.5-2.7.2-5.3-1.7-6.3-4.2s-.6-5.5.8-7.8c.8-1.4 2-2.6 3.4-3.5 1.9-1.2 4.2-1.8 6.3-1.2 2.2.5 4.1 2.2 4.5 4.4"/><path fill="#B7A386" d="M78.8 88.8c-1.8-.4-3.7-.2-5.3.6-1.6.9-2.9 2.3-3.5 4-.9-.2-1.9-.4-2.9-.5.2-1.3 1.1-2.3 2.1-3.2 1.1-1.1 2.4-2 3.8-2.6 1.4-.6 3-.9 4.5-.6.4.1.9.3 1.1.6l.2 1.7zM67.1 93c.7.1 5.8.9 5.8.9l.7 4.2-7-1.6.5-3.5z"/><path fill="#F7E4C4" d="M65 85.8c-1.3-.2-2.5-.6-3.8-1-2.4-.4-4.8-.9-7.1-1.5-2.5-.7-5-1.4-7.6-2-2.1-.5-3.5-1.1-5.5-2.3-.2-.1-.3-.4-.2-.6h-.1c-5.1-2.4-10.4-5.1-13.5-9.7-.2-.4-.5-.8-1-.8-.5-.1-.9.3-1.2.7-1.3 1.5-2 2.3-3.3 3.8 7.6 7.4 4.8 4 7.4 5.9 1.3 1 2.5 2 3.9 2.8 1.3.7 2.8 1.3 4.2 1.8 8.9 3.1 18.1 5.5 27.4 7 1.4.2 2.8.4 4.1 0 1.4-.5 2.4-1.5 3.3-2.7-2.2-.9-4.6-1-7-1.4z"/><path fill="#FFEFD7" d="M25.5 75.8s8.9 5.4 12.5 6.8 14.4 5 17.2 5.3c0 0-11.5-1.4-18.4-4.7-9-4.2-11.3-7.4-11.3-7.4z"/></g><g><path fill="#373A37" d="M13.8 37.2c9.7-2.3 19.4-4.8 29.1-7.2 9.3-2.4 19.1-4.1 28-7.8.9-.4.5-1.9-.4-1.5-9 3.5-18.7 5.4-28 7.8-9.7 2.5-19.4 4.9-29 7.6-.9.1-.5 1.3.3 1.1zM70.7 21.7c13.9 6.9 29.6 8.7 42.5 17.8.8.6 1.8-.7 1.1-1.4-12.3-9.8-28.9-11.2-42.9-17.5-.8-.3-1.4.7-.7 1.1zM14 37.8c8.8.3 16.7 4.4 25.1 6.5 7.7 1.9 15.4 3.4 22 8 .9.7 1.8-.9.9-1.5-6.7-4.8-14.6-6.3-22.4-8.2-8.6-2.2-16.7-6.4-25.6-6.2-.9 0-.9 1.4 0 1.4zM61.7 52.3c17-5.8 34.5-9.9 52.2-12.6 1.1-.2.6-1.9-.5-1.7-17.8 2.6-35.1 7.1-52.1 13-.9.2-.5 1.6.4 1.3zM39.6 44.3c-.7 10.2-3.4 19.3-7.8 28.5-.4.9.8 1.6 1.3.8 4.9-9 7.4-19.1 7.8-29.3 0-.8-1.3-.8-1.3 0zM92.4 43.2c.6 11.8 2.7 23.3 6.4 34.6.3 1 1.9.6 1.5-.4-3.7-11.1-5.8-22.5-6.4-34.2 0-1-1.6-1.1-1.5 0zM99.4 78.4c-3.4 2.5-7.3 3.7-11.6 3.4-1-.1-1 1.5 0 1.6 4.5.3 8.8-1 12.4-3.6.8-.6 0-2-.8-1.4z"/><path fill="#96866E" d="M26.2 68.1c4.2 8.8 16.3 12 25 13.8 10.7 2.3 21.8 1.5 31.5-3.6 1-.5.1-2-.9-1.5-9.4 4.9-19.9 5.6-30.2 3.6-8.4-1.7-20.1-4.6-24.3-12.9-.3-.8-1.5-.1-1.1.6zM82 78c4 3.7 7 8.5 6.5 14.2-.5 6.5-5.6 12.1-12.3 12.1-3.9 0-7.8-1.9-8.9-6-1.1-4.2 1.7-9.3 6-10.4 2.9-.8 6.5.5 7.7 3.3 2.5 5.6-6.8 9.9-7.8 3.2-.1-.8-1.6-.7-1.5.2 1 8 12.7 5.8 11.2-2.4-1.8-9.9-15.3-6.5-17.3 1.7-2.6 11 11.3 14.8 18.6 9.3 9.1-6.8 6.7-20.1-1.6-26.3-.4-.3-1.1.6-.6 1.1zM26.6 66.8c-4.3 1.6-7.7 5-9.3 9.3-1.4 3.9-1.9 10.1 1.7 13.1.7.6 1.7-.3 1-1-6.2-7 .7-16.7 7.1-20.2.6-.4.2-1.5-.5-1.2zM19.8 89.6c10.5-2 23.5-.3 33.1 4.5 6.9 3.4 14.1 12.4 22.3 11.5.8-.1.9-1.3 0-1.3-5.7.1-10.8-5.1-15.4-8.1-4-2.6-8.1-4.8-12.6-6.1-8.5-2.4-19.2-4.4-27.7-1.7-.7.3-.5 1.3.3 1.2zM66.8 93.8c1.8.4 3.4.9 5.1 1.5.8.3 1.3-1 .6-1.3-1.7-.9-3.6-1.4-5.5-1.5-.7 0-.9 1.2-.2 1.3zM66.1 96.9c3.2 1.5 6.8 2.4 10.4 2.5.8 0 .8-1.2 0-1.2-3.5-.4-6.7-1.1-10-2.2-.6-.3-1 .6-.4.9z"/><path fill="#898989" d="M133.5 95.8c5.9-1.9 11.3-5.2 16.7-8.2.8-.4.1-1.6-.7-1.2-5.5 2.7-10.8 5.8-16.5 8.4-.5.2-.1 1.2.5 1zM150.9 87.1c.5-2.2 2.1-3.8 4.3-4.4 1.3-.4 4.9-1.2 6.2 0 .7.7 1.6-.3 1-1-1.6-1.9-5.9-.9-8-.3-2.5.8-4.6 2.9-4.7 5.6-.1.6 1 .8 1.2.1zM133.4 94.5c-3.6-.4-8.1.4-11 2.6-2.7 2-4.6 5.7-2.3 8.7.5.7 1.8 0 1.2-.7-2.5-3.6 1.5-7 4.6-8.2 2.4-.9 5-1.3 7.5-1 .9.1.9-1.3 0-1.4zM121.2 105.7c1.8-1.5 3.5-3 5.3-4.3.6-.4 0-1.4-.6-1-1.9 1.4-3.9 2.8-5.7 4.3-.6.6.3 1.5 1 1zM126.4 101.6c2.2.1 4.5.2 6.6 0 .9-.1.9-1.3 0-1.4-2.2-.1-4.4.1-6.6.3-.7 0-.8 1 0 1.1zM132.7 100.8c-.6 1.3-1.1 2.6-1.4 4-.2.9 1.2 1.3 1.4.4.3-1.4.6-2.6 1.1-3.9.2-.7-.8-1.1-1.1-.5zM131.5 104.9c-1.4.9-3.1 2-4.3 3.2-.5.5.2 1.5.8 1.1 1.5-.9 2.8-2.2 4.2-3.4.6-.4-.1-1.2-.7-.9z"/><path fill="#D8D8D8" d="M139.6 100.3c4.6-3.1 9.7-5.1 14-8.6.6-.5-.3-1.3-.9-.9-4.3 3.3-9.5 5.1-13.8 8.4-.6.4 0 1.5.7 1.1z"/><path fill="#898989" d="M161.5 81.9c-1.7.6-3.5 1.3-5.1 2.2-.7.4-.2 1.5.5 1.3 1.7-.5 3.4-1.5 5-2.3.7-.3.2-1.4-.4-1.2zM155.8 84.9c-.1 1.1 0 2.3 0 3.4 0 .8 1.3.8 1.3 0 0-1.1-.1-2.2-.2-3.4 0-.8-1-.7-1.1 0zM156.4 89c1.2.1 2.5.3 3.6-.3.7-.4.1-1.3-.6-1-.9.4-2 .4-3 .3-.6-.1-.6.9 0 1zM119 104.3c.3 1.3.6 2.6 1.1 3.9.3.8 1.6.5 1.3-.4-.3-1.3-.9-2.6-1.3-3.8-.2-.7-1.3-.4-1.1.3zM121 108.6c1.5-1.1 2.9-2.3 4.5-3.4 1.8-1.3 4-1.4 6.2-1.3.8 0 .8-1.1 0-1.2-1.9-.2-4.3-.2-5.9.8-1.9 1.1-3.8 2.7-5.5 4.2-.5.4.2 1.3.7.9zM126.1 101.6v1.6c0 .9 1.4.8 1.2-.2-.1-.5-.2-1.1-.2-1.6-.1-.5-1-.4-1 .2zM126.5 109.2c-.1.8-.1 1.4 0 2.2 0 .3.2.6.5.7 4.8 1.4 10.2 1.3 13.7-2.8.5-.5-.3-1.3-.8-.8-1.8 1.8-4 2.9-6.6 3.1-2.1.2-5.6.3-5.6-2.4-.1-.7-1.2-.7-1.2 0zM139.5 103.1c0 1.7 0 3.5.1 5.2.1.9 1.5.9 1.4 0-.2-1.7-.4-3.5-.4-5.2-.1-.6-1.1-.6-1.1 0z"/><path fill="#ccc" d="M152.8 92.1c0 1 0 2-.1 3-.1.9 1.4.9 1.4 0-.1-1-.1-2-.1-3-.1-.7-1.2-.7-1.2 0z"/><path fill="#898989" d="M161.6 82.4c-.3 1-.5 2-.4 3 .2-.2.3-.4.5-.7-1.1.5-2.3.8-3.4 1.2-.8.3-1 1-1.4 1.8-.3.8.9 1.3 1.3.6.2-.3.3-.7.5-.9.2-.2.6-.3 1-.4.9-.3 1.7-.6 2.6-1 .2-.1.3-.4.3-.6 0-.9 0-1.8.2-2.7.1-.8-1-1.1-1.2-.3zM156.2 84.7c0 1.1-.1 2.3-.1 3.4 0 .8 1.3.8 1.3 0 0-1.1 0-2.3-.1-3.4 0-.7-1.1-.7-1.1 0z"/><path fill="#9B7845" d="M103.5 73c-3.2-.2-4.3 3.2-4.3 6-.1 4 1.8 7.9 4.4 10.8 4.9 5.6 13.3 6.5 17.5-.5.4-.7-.5-1.4-1.1-.9-3.7 3.1-7-1-7.4-4.2-.2-1.6.1-3 .3-4.6.2-1.8.3-3.7-.6-5.3-1.7-3.2-5.5-3-8.5-2.4-.8.1-.7 1.6.2 1.5 2.6-.3 6-.9 7.3 2.7.7 1.9-.1 4-.2 5.9-.1 2.3.1 4.5 1.5 6.4 2.1 2.9 5.8 3.3 8.5 1.1-.4-.3-.8-.6-1.1-.9-3.3 5-9.5 5.4-13.8 1.5-1.6-1.5-3-3.3-4-5.2-1-2-3.3-10.6 1.5-10.4.8 0 .8-1.4-.2-1.5z"/><path fill="#373A37" d="M103.3 66.6L103 75c0 1 1.6 1 1.6 0l.3-8.4c.1-1-1.5-1-1.6 0z"/><path fill="#9B7845" d="M103.2 56.7c-5.8.1-4.3 11 1.4 10.2 6-.9 5.2-11.1-1.1-10.5-.8.1-1.1 1.3-.2 1.5 1.9.5 3.4.8 3.7 3 .3 1.6-.2 3.4-1.8 4.1-1.7.8-3.1-.2-3.7-1.8-.8-2.2-.4-4.3 1.9-5.2.7-.2.6-1.3-.2-1.3z"/><path fill="#373A37" d="M65.9 36.2c9.8.7 19.5 2.2 29.2 3.6.9.1 1.8.2 2.8.3 2.9.4 4.3.3 5.4 3.3 1.8 4.7.5 10.6.3 15.5 0 1 1.6 1 1.6 0 .3-7.2 4-18.4-5.5-20.1-11.1-2-22.5-3.4-33.8-4.2-1-.1-1 1.5 0 1.6z"/><path fill="#D8D8D8" d="M152.8 92c2.5 1.9 5.8 1.3 8.7.5 2.5-.6 5-1.7 5.7-4.4.3-1-1.3-1.4-1.6-.4-1 4-9.3 4.9-12.1 3.2-.7-.6-1.3.6-.7 1.1z"/><path fill="#898989" d="M165.1 94.2c1.6-.9 1.8-1.6 1.9-3.4 0-1.2.3-2.7 0-3.9-.2-.9-1.3-2.2-2.3-2.3-.7-.1-1.5.7-2.1 1-1.1.6-2.2 1.2-3.3 1.9-.8.5-.1 1.7.7 1.2 1.6-.9 3.3-1.9 4.9-2.8h-.7c1 .5 1.4 1.2 1.4 2 .1 1.6.3 4.2-1.2 5.2-.6.4 0 1.5.7 1.1zM127.3 109.3c3.6 1.1 7.6 1.1 10.7-1.4 2.5-2 3.7-5.7 2-8.6-.4-.7-1.6-.2-1.3.6 1 3 .2 5.9-2.6 7.6-2.5 1.5-5.7 1.4-8.4.8-.8-.1-1.1.8-.4 1zM141.1 102.3c3.8-2.8 8.6-4.2 12.7-6.5.8-.5.1-1.6-.7-1.2-4.2 1.9-9 4-12.6 6.9-.5.3.1 1.2.6.8zM152.9 95.7c3.9 2 8.5.9 12.1-1.2.8-.5.1-1.7-.8-1.3-3.5 1.8-7.1 2.9-10.9 1.4-.5-.2-1 .8-.4 1.1z"/><path fill="#96866E" d="M75.4 86.5C61.1 84.2 47.2 83.4 35 74.8c-.8-.6-1.6.8-.8 1.4 11.9 8.4 26.7 10.7 41.1 11.6.6 0 .8-1.2.1-1.3z"/><path fill="#753121" d="M46.9 79.8c0-.1.1-.1.1-.2.1-.2.1-.7-.1-.8-2.7-2.1-6.6 1.8-7.5 4.1-1.3 3.2-1.2 6.9 2.7 7.6.9.2 1.3-1.2.4-1.4-2.8-.7-2.6-3.4-1.7-5.5.4-.9.9-1.8 1.6-2.4.3-.2 3.2-1.6 3.3-1.5.1.5.9.5 1.2.1z"/></g></svg>