<svg xmlns="http://www.w3.org/2000/svg" viewBox="0 0 449 281" enable-background="new 0 0 449 281"><g><path fill="#83B1B1" d="M187.2 167.6c-.9.8 93.1 0 93.1 0s-5.6-6.7-17.8-7.5c0 0-.6-11.7-13.4-13.2-12.9-1.4-46.6-5-44.9 15 0 .1-12.2 1.6-17 5.7z"/><path fill="#F4C09D" d="M182.5 113.6s-11 3.5-4.3 15.7c4.2 7.2 11.3 4 11.3 4l5.1 11.6s20.7 7.1 28.4 6.5c7.6-.6 29.6-1.9 46.9-14.3l1.1-17.7s11.8.1 13.1-9.5c1.4-9.5-6.4-12.9-6.4-12.9l-5.2-62-99.6 13.2 9.6 65.4z"/><path fill="#D6A380" d="M180.4 94c-.3-3.8-.3-7.7 0-11.5.1-1.2.3-2.4.7-3.5.5-1.2 1.4-2.3 2.3-3.3 2.2-2.5 4.5-4.8 6.8-7.1.5 1.6 1.1 3.2 2 4.6 3.6-4.6 8.8-7.8 14.5-8.9.7-.1 1.4-.3 1.7-.9.2-.4 0-.9-.1-1.4l-2.1-6.3c7.8-3.7 16.1-6.2 24.7-7.2.9 1.8 1.5 3.8 1.8 5.8 5.2-3.2 12.2-3.5 17.6-.6.3.2.7.4 1.1.3.3-.1.5-.3.7-.5 1.2-1.3 1.8-3.1 1.5-4.9 5.9 2.5 12.3 5.5 15.1 11.4 1.9 4.1 1.8 9 4 12.9 1.3-6.7-.3-13.9-4.4-19.4-1.3-1.8-2.9-3.4-4.7-4.6-2.7-1.8-5.8-2.8-9-3.6-13-3.2-26.8-2.6-39.5 1.6s-24.1 12-32.7 22.3c-1.6 2-3.2 4.1-4 6.5-1.4 4.3 0 9 1.3 13.4"/><path fill="#D1D1D1" d="M153.8 168.3s-8.8-2.4-8.8 7.1v71.7s.5 6 9 6h153s7 .8 7-9.2v-69.8s.4-5.7-8.7-5.7-151.5-.1-151.5-.1z"/><path fill="#DBDBDB" d="M145.3 247.6c22.4-18 47.8-32.1 74.9-41.5 13-4.5 26.4-7.9 39.8-11.3 18-4.6 35.9-9.1 53.9-13.7V174s2.3-6-10.7-6H153.9s-9-1.3-9 10 .4 69.6.4 69.6z"/><path fill="#565C56" d="M182.3 111.7c.1-1.4-13.8-10.8-18.8-40.9-5-30.1-4.1-46.5-4.1-46.5S176 8.8 218.2 7.5 277.6 20 286.3 42c0 0-3 51.1-12.2 58.9 0 0-.3-33.2-1.9-38.7-1.6-5.5-3-11.9-13.9-16.1s-27.8-5-42 .3-33.3 16.2-38.7 30.4l4.7 34.9z"/><path fill="#747A74" d="M160.3 33.4c-.4 5-.8 10.2.5 15s4.8 9.5 9.6 10.8c2.7.7 5.5.4 8.2-.4 8.7-2.6 15.1-9.5 21.8-15.7 6.7-6.1 14.8-11.9 23.8-11.2 4.9.4 9.7 2.7 14.7 2.1 6.1-.8 11.5-6 17.6-4.9 2.7.5 5 2.1 7.1 3.9 2.1 1.8 4.1 3.8 6.5 5s5.5 1.7 7.9.3c2.4-1.4 3.5-4.9 1.6-7 0 0-11.5-26.4-56.9-23.7s-63.3 16.7-63.3 16.7l.9 9.1z"/><path fill="#858C85" d="M198.8 44.7s10.2-11.6 19.7-12.6 15.9 1.9 15.9 1.9l17.8-4.7s-6.5 3.6-9.7 5.1-8.4-.5-15.3-.8c-6.8-.4-13.9.8-21.2 6s-7.2 5.1-7.2 5.1z"/><path fill="#434943" d="M197 43.7s-9.5.3-13.3 13.1c-3.8 12.8 4.5 16.4 4.5 16.4s2.9-12.1 15.9-12.6c0 0-4.8-15.5-7.1-16.9zM232.3 35l2.7 13.8s13-7.2 21.3 3c0 0 4.8-12.2-4.7-17.6-9.4-5.2-19.3.8-19.3.8z"/><path fill="#FFD0B0" d="M198.3 145.9c-8.7-2.9-5.7-17.5-7-26.6-.6-4-.9-8-.4-11.9 1.3-8.8 7.3-16.3 14.6-21.3 7.4-4.9 16-7.6 24.6-9.6 5.5-1.3 11.3-2.3 16.6-.4 1.8.6 3.4 1.6 5 2.7 9.2 6.5 14.4 17.5 15.5 28.7 1.1 11.2-1.5 22.4-5.7 32.9.1-.1-25.6 18-63.2 5.5z"/><path fill="#fff" d="M200 81.3c-1.1.6-10.1 8-5 20.8s16.3 12.8 20.5 9.5c4.2-3.3 8.4-8.7 3.2-19.3S207.3 77 200 81.3zM236 78.2s-6.3 15.3-.8 22c5.5 6.7 17.1 6.3 19.5 0 2.4-6.3 2.9-21.9-1.8-27-4.7-5-10.6-8.9-16.9 5z"/><path fill="#EAEAEA" d="M193.9 98.5s3-9.4 18.1-16.2c0 0-18-11.2-18.6 17.1"/><path fill="#EAEAEA" d="M237.6 75s9.9-1.8 18.5 7.4c0 0-1.2-11.8-7-12.6-5.9-.8-8.7-.6-11.5 5.2z"/><path fill="#D6A380" d="M216.4 151l4.9 17.2 26-1.1 1.8-20.3c0 .1-24.6 4-32.7 4.2z"/><path fill="#C69777" d="M217.8 156.9s24.8 10.6 30.6-3.2c.4-.8.6-6.7.6-6.7s-24.7 5-32.6 3.4l1.4 6.5z"/><path fill="#759B9A" d="M216 150c-1.6-.3-3.2-.5-4.7-.6-.3 0-.6 0-.9.1-.4.1-.7.4-1 .6-.8.7-1.5 1.5-2.1 2.4 3.4.7 6.1 3.8 9.6 4.2.2 0 .5 0 .6-.1.1-.1.1-.3.1-.4.1-1.3.1-2.5.1-3.8 0-.7-.1-1.4-.6-1.9-.3-.3-.7-.4-1.1-.5zM252.5 146.8c-.8-.3-1.6-.5-2.4-.3-.2 0-.4.1-.5.2-.1.1-.1.3-.2.5-.2 1.7-.3 3.5 0 5.2 1.6-2 4.3-3.3 6.8-2.8-.9-1.3-2.2-2.2-3.7-2.8z"/><path fill="#E5E5E5" d="M183.7 222.2s21.5-15.5 85.5-29.7c0 0-50.2 12.8-85.5 29.7z"/><path fill="#759B9A" d="M261.3 160l-.9 7h4.6l.7-7zM203.9 162.1l2.3 4.9H200v-4z"/><path fill="#fff" d="M67.6 163.5s-19.4 12-17.2 16.9 19.4-5 27.5-12.7c8.1-7.7 12.2-11 10.3-13.4-1.9-2.3-15.2 4.4-20.6 9.2z"/><path fill="#F66EAD" d="M48.9 180.4S60 168.2 67.1 164s20.4-10.5 20.4-10.5-13.3-18.2-22.1-26.7-21.9-20.9-32.2-10.4 2.1 47.6 15.7 64zM16.9 256s-7.6.6-7.8 6.9 8.2 14.6 22.6 13.6 30.4-9.2 29.3-14.6-17-10.8-34.9-8.4c0 0-10.8-59.8-11.8-70.1s-1.5-35.9 18.5-32.9l-2.7-9.5s-14-1.4-20.9 12.6-3.9 31.7.2 55.2 7.5 47.2 7.5 47.2z"/><path fill="#D1D1D1" d="M32.6 116.5l-5.6-2.6 3.1-3.4 4.2 3.9z"/><path fill="#FF85C2" d="M71.9 151.2c.6.5 1.2 1 1.9 1.1 1.7.3 3.2-1.5 3.3-3.2s-.9-3.3-1.8-4.8c-8.3-12.5-20.1-22.6-33.7-28.8-.4-.2-.7-.3-1.1-.4-.7-.1-1.4.3-2 .7-1 .6-2.1 1.3-2.8 2.2-.7 1-.9 2.4-.3 3.3.7 1 2.1 1.2 3.3 1.4 2.1.3 4.1.9 6 1.7 5.9 2.4 10.5 7.2 14.6 12.2S67 147 71.9 151.2zM48.9 257.8c.9.1 1.8.3 2.6.7 2.3 1.3 2.4 4.8.9 6.9-1.5 2.1-4.1 3.2-6.6 3.9-4 1.1-8.1 1.7-12.3 2.1-.9.1-1.8.2-2.6-.1-.8-.3-1.5-1.1-1.5-1.9.1-1.5 1.9-2 3.4-2.2 1.9-.4 3.8-1.1 5.5-2 1.1-.6 2.2-1.5 2.3-2.7.1-1.1-.5-2-.9-3-.1-.4-.2-.8 0-1.1.2-.3.6-.4.9-.4 2.7-.5 5.5-.5 8.3-.2z"/><path fill="#EDEDED" d="M228.1 199.9c-.2 0-10.3 1.4-10.3 10.3s13.5 14.1 18.7 4.9c5.2-9.1-1.4-16.1-8.4-15.2z"/></g><g><path fill="#777" d="M32.5 115.9c-1.6-1.4-3.5-2.3-5.6-2.9.1.5.2.9.4 1.4.5-.6 1.1-1.1 1.6-1.7.3-.3.5-.6.8-.9.5-.4.3-.5.9-.1.6.3 1.1 1.2 1.5 1.7.6.6 1.1 1.3 1.7 1.9.7.7 1.7-.3 1.1-1.1-.9-1-1.7-2-2.6-3-.5-.6-1-1.4-1.8-1.5-.7-.1-1.1.2-1.5.6-1 .9-1.9 2-2.8 3-.4.4-.3 1.2.4 1.4 1.9.5 3.5 1.3 5.1 2.4.6.5 1.5-.6.8-1.2z"/><path fill="#AD846F" d="M182.2 112.7c-6.7 1.7-9 9-6.3 15.1 2 4.3 9.7 10.2 14.2 6.1 1.1-1-.6-2.7-1.6-1.6-3 3.2-9.2-2.6-10.4-5-2.4-4.7-.8-10.9 4.6-12.7 1.2-.5.7-2.2-.5-1.9zM277.7 99c5 2.4 6.6 7.7 4.5 12.8-2 4.9-6.5 6-11.3 6.5-1.4.1-1.4 2.2 0 2.2 6.2.1 12.1-2.8 14-9.1 1.6-5.6-.3-12.5-6.4-14.1-1.1-.2-1.8 1.2-.8 1.7zM181.9 112c-.2 3.3 2 7 4 9.5.8 1 2.2-.3 1.7-1.3-1.4-2.8-3.4-5.3-4-8.5-.2-.9-1.7-.6-1.7.3zM273 102.2c-.2 2.2-.6 4.2-1 6.4-.2 1.4 1.8 2 2.2.6.6-2.2.8-4.6.8-7 .1-1.4-1.9-1.3-2 0z"/><path fill="#587572" d="M250.9 147.3c3.4 1.5 6.8 3.6 8.4 7 2 4 .8 9-.3 13.1-.4 1.5 1.8 2.1 2.3.6 1.5-4.5 2.5-10.4.3-14.8-2-3.9-5.9-6.3-10-7.4-.9-.2-1.5 1.1-.7 1.5zM262.3 160.9c6.9 1.2 12.3 3.5 17.9 7.7 1.1.8 2.2-.9 1.4-1.8-4.7-5.1-12.3-7.3-19-7.5-1-.1-1.2 1.4-.3 1.6zM209.5 149.3c-3 1.7-5.6 4.6-6.5 8-1 3.8.7 7.6 2.5 10.9.7 1.2 2.5.1 1.9-1.1-1.6-3.1-3.2-6.4-1.9-10 1-2.6 3-4.6 5-6.4.8-.8-.2-1.9-1-1.4zM187.8 168.2c1.8-1.6 5.7-2.3 7.9-3.1 2.4-.8 5.3-2.2 7.8-1.9 1.5.1 1.4-2.1 0-2.3-3.1-.4-6.6 1.6-9.4 2.7-2.5 1-5.5 1.5-7.5 3.3-.9.8.3 2.1 1.2 1.3z"/><path fill="#373A37" d="M158.4 24.3c-.7 17.1 1.1 34.4 4.8 51 3 13.6 7.6 27.5 18.2 37.1 1.1 1 2.7-.6 1.6-1.6-10.7-9.9-15.1-24.1-18-38-3.4-16-4.6-32.2-4.7-48.6.1-1.2-1.8-1.2-1.9.1zM159.8 25c21.1-13.6 45.9-16.9 70.6-16.7 12.1.1 23.4 2 33.7 8.6 9.7 6.2 16.2 15 21 25.3.6 1.2 2.6.4 2.2-.9-7.9-21.9-30-34.2-52.3-34.9-25.9-.8-54.4 1.6-76 17.3-.8.5 0 1.8.8 1.3zM285.4 42c-.9 10.6-2 21.2-3.6 31.7-1.5 9.5-2.9 18.9-7.8 27.4-.7 1.3 1.1 2.3 1.9 1.1 5.6-7.9 6.7-18.5 8.2-27.9 1.6-10.7 2.8-21.5 3.2-32.3 0-1.2-1.8-1.1-1.9 0zM197 42.2c-13.5.3-21 23.1-10.5 31.5 1.1.9 2.6-.5 1.6-1.6-8.6-8.4-2.3-25.8 9.2-28.1 1-.1.8-1.8-.3-1.8zM196.8 43.3c2.4 5.8 4.5 11.6 6.3 17.5.4-.5.7-.9 1.1-1.4-8.2.1-15.2 5.3-17.1 13.4-.4 1.5 1.9 2.1 2.3.6 1.7-6.9 7.6-11.9 14.8-11.9.7 0 1.2-.7 1.1-1.4-1.7-6.1-3.9-12-6.6-17.7-.5-.9-2.4-.2-1.9.9zM232.2 35.8c5.3-1.7 11.2-2.9 16.7-1.1 8.3 2.6 8.5 9.7 6.3 16.9-.4 1.4 1.7 1.9 2.1.6 2.3-6.2 2.5-14.3-3.9-18.1-6.4-3.8-15.5-2.8-21.9.3-.7.4-.1 1.7.7 1.4zM231.1 35.5c.4 4.7 1.5 9.2 2.9 13.6.2.7 1 1 1.6.7 6.4-3.3 15.2-2.9 19.9 3 1 1.2 2.7-.5 1.7-1.7-5.4-6.8-15.4-7.1-22.7-3.1.5.2 1.1.4 1.6.7-1.4-4.4-2.3-8.8-3.2-13.3-.2-1.1-1.9-.9-1.8.1zM183.8 67.8c-1.7-.2-3.1 1.9-4 3.1-1.3 1.7-2.5 3.7-3.1 5.7-.3 1.1 1.3 1.8 1.9.8.8-1.4 1.4-2.8 2.3-4.1.7-1.1 1.9-3.4 3.2-3.7 1-.3.7-1.7-.3-1.8zM176.8 76.8c.4 12.1 2.7 24 5.1 35.8.2 1.2 2 .7 1.8-.5-2.4-11.7-3.5-23.6-5.2-35.5-.1-1-1.7-.8-1.7.2zM202 53.8c9.5-5.1 19.6-8.3 30.3-9.5 1.3-.1 1.3-2.1 0-2-11.1 1-21.6 4.5-31.1 10.2-.8.4-.1 1.7.8 1.3zM258 46.9c6.1 2.8 11 7.7 13.3 14.1.5 1.3 2.5.7 2.1-.6-2.5-6.9-7.7-12.4-14.7-15-.9-.3-1.5 1.1-.7 1.5zM271.4 60.7c.9 13.8 1.8 27.5 1.5 41.3 0 1.5 2.2 1.5 2.3 0 .3-13.8 0-27.9-1.9-41.6-.2-1-1.9-.8-1.9.3z"/><path fill="#E0AA86" d="M236.9 101.3c-5.4-5.3-3.1-13.9-1.1-20.2.9-2.8 1.8-5.6 3.5-8 3.7-4.8 10-4.2 13 1 3.1 5.3 3.6 13 3 18.9-.5 5.3-2.4 10.8-8.5 11.4-3.5.3-7-.5-9.5-3.1-.8-.8-1.9.4-1.2 1.2 5.2 5.5 16.2 5.2 19.4-2.3 3.3-7.7 2.7-21.7-2.6-28.4-5.8-7.3-14-3.1-17.1 4.2-3.1 7.3-7.2 20.1 0 26.3.8.6 1.7-.4 1.1-1zM220.4 104.1c-3.5 6.6-11.2 10.3-18.2 6.4-6.5-3.6-8.9-12-7.7-19 .7-4.4 2.8-7.7 6.7-9.9 4.7-2.7 8.9-.7 12.1 3.2 4.4 5.4 7.2 12.8 7.3 19.7 0 .9 1.3.9 1.4 0 .6-8.6-4.6-21.2-12.6-25.3-7.5-3.9-15.5 5.1-16.5 12-1.2 8.1 1.8 17.8 9.8 21.4 7.5 3.3 15.9-.5 18.8-8 .1-.6-.8-1-1.1-.5z"/><path fill="#AD846F" d="M212.8 108.4c.7.2 1.4.2 2-.1 1-.4 1.7-1.5 1.6-2.6-.1-1.1-1-2.1-2-2.2-.8-.1-1.6.3-2.2.9-.4.3-.8.8-.9 1.3-.2 1.1.9 2.1 1.8 2.7"/><path fill="#AD846F" d="M212.6 109.2c1.9.5 3.8-.3 4.6-2.1.7-1.7-.1-3.8-1.9-4.5-1.9-.7-4.3.5-5.1 2.3-.9 2 .8 4 2.6 4.6 1.2.5 1.9-1.2 1.2-2-.3-.4-1.5-1-1.4-1.6.1-.7 1.3-1.4 1.9-1.3.8.1 1.2.9 1 1.6-.3 1.1-1.4 1.5-2.4 1.3-1.1-.1-1.6 1.4-.5 1.7zM241.7 100.9c1.1 0 2.3-.5 2.9-1.5.6-1 .4-2.5-.6-3-.4-.2-.8-.2-1.2-.2-1.3 0-2.6.9-2.8 2.2s.8 2.7 2 2.6"/><path fill="#AD846F" d="M241.7 101.7c1.8-.1 3.8-1 4.2-3 .4-2-1-3.8-3-3.8s-4 1.5-4.1 3.6c-.1 2 1.6 3.8 3.6 3.5 1.2-.2 1.1-2.1 0-2.3-1.8-.3-1.1-2.3.5-2.4.8-.1 1.4.5 1.2 1.3-.2 1-1.4 1.4-2.3 1.4-1.2.1-1.2 1.8-.1 1.7zM234.8 118.9c3-2.7 6.9-2.8 10.7-2.7 1 0 1-1.4 0-1.5-4.2-.2-8.4.3-11.5 3.3-.6.5.3 1.4.8.9zM188.5 133.5c.9 2.6 1.9 5.2 2.9 7.8.7 1.8 1.3 3.6 2.8 4.8 1.1.9 2.6-.5 1.6-1.6-1.6-1.6-2.2-3.9-3.1-6-.8-1.9-1.6-3.9-2.5-5.7-.4-.9-2-.2-1.7.7zM194.8 146.3c12.5 4.5 25.7 7.1 39 5.2 13-1.9 25-7.2 36.5-13.5 1.2-.6.1-2.4-1-1.8-11.1 6.1-23.1 11.2-35.7 13-13.4 2-25.3-1.6-38.2-4.6-1.2-.2-1.6 1.3-.6 1.7zM270 120c-.4 5.5-.5 11-1.3 16.5-.2 1.5 2 2.1 2.2.6.9-5.6 1.5-11.5.7-17.1-.1-1-1.5-1.1-1.6 0zM215.6 151.6c.8 5.6 2.7 11 5.2 16 .7 1.4 2.6.2 2-1.2-2.3-5-4-10-5.3-15.4-.4-1.2-2.1-.6-1.9.6zM248.1 147.2c-.6 6.6-.3 13.3-1.9 19.8-.3 1.3 1.6 1.8 2 .6 2-6.3 1.7-13.7 1.7-20.3.1-1.3-1.6-1.3-1.8-.1z"/><path fill="#373A37" d="M165.9 20.3c-1 7.1-1 14.4-.3 21.5.1 1.5 2.6 1.6 2.4 0-.7-7.1-.6-14.1-.3-21.3.1-1-1.6-1.3-1.8-.2zM172.4 17.3c-.3 3.2-.2 6.4 0 9.6.1 1.3 2.1 1.4 2.1 0-.1-3.2-.1-6.4-.2-9.6.1-1.3-1.7-1.3-1.9 0zM180.2 14.3c0 7 .5 14.1 1.5 21.1.2 1.3 2.4 1 2.3-.3-.7-6.9-1.4-13.8-1.8-20.8 0-1.3-2-1.4-2 0z"/><path fill="#777" d="M144.2 175.3c-.2 24.1-.6 48.3 0 72.3 0 1 1.6 1.1 1.6 0 .6-24.1.2-48.3 0-72.3 0-1-1.6-1-1.6 0zM154 168.7c50.7.8 101.5.8 152.2.2 1.1 0 1.1-1.7 0-1.7-50.7-.7-101.5-.7-152.2.2-.9-.1-.9 1.3 0 1.3zM145.5 175.5c.5-2.1-.1-4 2.1-5.3 1.9-1.1 4.3-1.5 6.4-1.4 1 0 .9-1.4 0-1.5-4.7-.6-11.7 2.4-9.5 8.2.2.4.9.5 1 0zM315.1 245.3c.2-24.1.6-48.3 0-72.3 0-1-1.6-1.1-1.6 0-.6 24.1-.2 48.3 0 72.3 0 1 1.6 1 1.6 0zM305.3 251.9c-51.4-.8-102.9-.8-154.3-.2-1.1 0-1.1 1.7 0 1.7 51.4.7 102.9.7 154.3-.2.9.1.9-1.3 0-1.3zM313.8 245.1c-.5 2.1.1 4-2.1 5.3-1.9 1.1-4.3 1.5-6.4 1.4-1 0-.9 1.4 0 1.5 4.7.6 11.7-2.4 9.5-8.2-.2-.4-.9-.5-1 0zM314.9 176c1.1-2 .4-5.1-1.3-6.6-2.2-1.8-5.9-2.6-8.6-2.2-1.2.2-.9 2.1.3 2.1 2.1 0 4.4.3 6.3 1.3 2.2 1.3 1.2 3.2 2 5.1.2.7 1 1 1.3.3zM144.8 245.1c-2.2 5.8 4.8 8.8 9.5 8.2.9-.1 1-1.5 0-1.5-2.1.1-4.5-.3-6.4-1.4-2.2-1.3-1.5-3.3-2.1-5.3-.1-.5-.8-.4-1 0z"/><path fill="#fff" d="M221.3 201.4c-5.3 2.4-5.7 10.5-3 14.8 3.2 5.1 10.5 6.5 15.5 3.4 5.2-3.3 8.2-11.5 4.4-16.8-4.3-6-12.5-4.4-18-1.2-1.3.8-.1 2.7 1.2 2 4.1-2.1 9.5-3.9 13.5-.6 4.7 3.8 2.4 11.7-2.2 14.7-3.6 2.4-8.8 1.8-11.8-1.4-3.1-3.4-3.3-11 1.4-13.1 1.1-.7.1-2.3-1-1.8z"/><path fill="#CC508E" d="M50.8 180.9c-7.1-8.2-12.3-19.6-16.2-29.6-3.8-9.8-8.6-25.8-.1-34.5 9.9-10.2 23.8 4 30.4 11.2 7.9 8.7 15 18 22.4 27.1 1 1.2 2.7-.5 1.7-1.7-9.4-11.5-18.3-24.2-29.5-34.1-7.2-6.4-18.5-12.7-26.8-4.3-8.4 8.6-5.2 23.4-1.7 33.5 2.1 6 4.9 11.8 7.9 17.5 3 5.7 5.7 11.9 10.5 16.2 1 .9 2.2-.3 1.4-1.3z"/><path stroke="#CC508E" stroke-width="2" stroke-miterlimit="10" d="M17.8 258.6c0-.1-1.9-13.1-11-64.3-4-22.3-1.8-38 6.6-46.7 7.6-7.9 16.3-6.7 16.7-6.7M32.8 150c-.2 0-8.7-.6-13 4-4.2 4.5-8.4 14.8-4.1 38.7 9.2 51.5 11 64.2 11 64.7" fill="none"/><path fill="#CC508E" d="M16.7 254.9c-4.2 1.3-9.1 3.3-9.5 8.4-.3 4.2 3 8 6.3 10.1 10.3 6.8 26.6 3.6 37.3-.6 3.9-1.6 9.7-4.2 11.2-8.5 1.5-4.2-1.7-7.5-5.3-9.1-8.7-4-20.5-3.1-29.8-2.9-1.8 0-1.8 2.8 0 2.8 5.8-.1 11.7 0 17.5.4 2.7.2 5.5.5 8.2 1.1 3.4.9 9.6 2.9 5.4 9-1 1.5-3.6 2.7-5.2 3.5-7.3 3.8-16.5 5.4-24.7 5.5-4.7.1-9.6-.6-13.5-3.3-1.9-1.3-4.2-3.4-4.8-5.7-1.5-5.4 3.4-7.3 7.4-8.6 1.4-.4.8-2.5-.5-2.1z"/><path fill="#FFC0E3" d="M85.8 152.8c-10.5 3.7-20.2 9.8-28.4 17.3-2.2 2-4.4 4.2-6.4 6.4-.9 1-2.6 2.4-2.6 3.9 0 2.4 2.8 2.7 4.7 2.5 5.3-.4 11.1-4 15.4-6.8 4.6-3 8.9-6.6 13-10.3 2.4-2.2 8.7-6.2 8.9-9.8.1-2-1.9-3.9-3.8-3.3-1.4.4-.8 2.6.6 2.2.4 1.6 0 2.8-1.3 3.6-.4.4-.8.8-1.2 1.1-1.4 1.3-2.8 2.7-4.2 4-2.6 2.4-5.2 4.7-7.9 6.9-2.9 2.3-6 4.4-9.3 6.2-1.1.6-11.3 6.3-11.3 1.9 0-1.8 5.6-5.8 7-7 2.8-2.5 5.7-4.8 8.8-6.9 5.9-4.1 12.2-7.2 18.8-10.1 1-.5.3-2.2-.8-1.8z"/></g></svg>