<?xml version="1.0" encoding="utf-8"?>
<!-- Generator: Adobe Illustrator 15.1.0, SVG Export Plug-In . SVG Version: 6.00 Build 0)  -->
<!DOCTYPE svg PUBLIC "-//W3C//DTD SVG 1.1//EN" "http://www.w3.org/Graphics/SVG/1.1/DTD/svg11.dtd">
<svg version="1.1" xmlns="http://www.w3.org/2000/svg" xmlns:xlink="http://www.w3.org/1999/xlink" x="0px" y="0px" width="400px"
	 height="200px" viewBox="0 0 400 200" enable-background="new 0 0 400 200" xml:space="preserve">
<g id="Layer_3">
	<path fill="#DC9D3B" d="M261.517,178.885c-4.925,1.697-11.757,1-16.927,1c-6.965,0-13.897-0.342-20.824-0.333
		c-10.847,0.014-21.764,0.028-32.548,0.341c-24.081,0.697-39.497-0.887-59.809-1.882c-7.06-0.346-14.23-0.008-21.409-0.008
		c-6.203,0-14.337-0.147-20.576-0.147c-5.667,0-10.09-0.001-15.757,0c-4.156,0.001-13.288,2.301-14.333,6.822
		c10.634,0.663,28.059,1.465,38.667,1c8.623-0.378,23.693-0.563,32.333-0.562c33.272,0.005,53.522,0.781,90.728,1.552
		c23.512,0.487,37.352,0,60.938,0c13.949,0,35.513,2.837,49.465,2.167c0.089-2.342-7.471-9.022-9.948-8.949"/>
	<path fill="#6D6E71" stroke="#6D6E71" stroke-miterlimit="10" d="M65.299,160.651l-0.463,9.183
		c20.413,3.773,41.421,2.666,62.084,4.066c24.557,1.664,49.058,2.846,73.671,3.319c12.326,0.236,24.612,0.416,36.907,1.417
		c12.347,1.005,24.687,2.349,37.071,2.809c9.963,0.371,19.782,1.453,29.702,2.366c7.321,0.674,14.773,1.29,22.096,0.483
		c0.062-0.309,0.104-0.621,0.129-0.936c-0.17,0.009-0.264,0.017-0.264,0.017s7.211-136.458,7.847-145.981
		s-12.155-8.261-12.155-8.261L75.772,16.718c-4.064,0.108-4.34,17.147-4.34,17.147S65.568,155.317,65.299,160.651z"/>
	<path fill="#EDEDED" d="M317.587,168.905c0,0,5.761-114.22,6.169-122.313s-8.999-7.495-8.999-7.495S94.27,27.976,88.062,27.663
		s-6.387,3.193-6.387,3.193l-6.199,122.903l-0.061,0.615c-0.386,7.051,4.879,7.034,4.879,7.034s69.992,3.729,133.114,7.087
		c0.675-0.312,1.47-0.478,2.39-0.428c7.826,0.432,15.61,0.933,23.39,1.506c0.329-0.117,0.689-0.205,1.082-0.259
		c6.642-0.91,12.878,0.538,19.464,1.137c3.633,0.33,7.271,0.581,10.902,0.907c5.76-0.279,11.727,0.427,17.4,0.841
		c2.132,0.156,4.251,0.366,6.366,0.602c10.079,0.534,16.584,0.878,17.834,0.94C320.254,174.146,317.587,168.905,317.587,168.905z"/>
	<path fill="none" stroke="#FFFFFF" stroke-width="2" stroke-miterlimit="10" d="M76.355,165.374
		c-0.607,0.247,4.378-0.002,4.959,0.056c2.006,0.197,1.993,1.09,3.611,1.354c1.324,0.214,2.408-0.337,3.371-0.257
		c2.315,0.191,4.497,0.656,6.736,0.54c0.639-0.033,3.113-0.396,3.789-0.34c1.644,0.134,2.007,2.475,3.723,0.219"/>
</g>
<g id="Layer_2">
	
		<rect x="122.04" y="42.739" transform="matrix(0.9987 0.0504 -0.0504 0.9987 5.65 -9.7646)" fill="#FFFFFF" stroke="#D1D3D4" stroke-width="2" stroke-miterlimit="10" width="148.999" height="128.932"/>
	
		<rect x="152.969" y="156.256" transform="matrix(-0.9987 -0.0504 0.0504 -0.9987 338.1948 335.3519)" fill="#6D5324" stroke="#493419" stroke-width="2" stroke-miterlimit="10" width="40.71" height="14.317"/>
	
		<rect x="196.916" y="158.383" transform="matrix(-0.9987 -0.0504 0.0504 -0.9987 422.4249 341.734)" fill="#6D5324" stroke="#493419" stroke-width="2" stroke-miterlimit="10" width="37.209" height="14.317"/>
	
		<rect x="133.679" y="78.678" transform="matrix(0.9987 0.0504 -0.0504 0.9987 6.0091 -9.7373)" fill="#FFFFFF" stroke="#D1D3D4" stroke-width="2" stroke-miterlimit="10" width="125.001" height="71.333"/>
	
		<rect x="141.017" y="92.833" transform="matrix(0.9987 0.0504 -0.0504 0.9987 6.117 -8.2716)" fill="#6D5324" width="52.239" height="48.739"/>
	
		<rect x="142.463" y="84.202" transform="matrix(0.9987 0.0504 -0.0504 0.9987 4.6736 -8.3792)" fill="#FFFFFF" width="52.24" height="8.667"/>
	<path fill="none" stroke="#414042" stroke-width="2" stroke-miterlimit="10" d="M78.742,16.66
		c21.054,1.528,42.129,2.775,63.21,3.882c21.061,1.11,42.133,2.077,63.199,3.051c21.041,0.97,42.088,1.943,63.121,3.06
		c10.505,0.56,21.007,1.153,31.509,1.802c10.046,0.62,20.208,0.917,30.218,1.97c1.223,0.129,2.614,0.35,3.363,1.523
		c0.726,1.139,0.711,4.357,0.638,5.745"/>
	<path fill="none" stroke="#414042" stroke-width="2" stroke-miterlimit="10" d="M334.079,37.395
		c-1.591,22.483-2.529,45.003-3.427,67.523c-0.899,22.522-1.756,45.052-3.182,67.551c-0.142,2.245-0.29,4.487-0.445,6.732
		c-0.09,1.315,0.266,3.319-0.793,4.175c-1.28,1.031-4.352,0.718-5.866,0.608"/>
	<g>
		<path fill="#FFFFFF" d="M157.603,163.566l-0.507,1.523l-1.411-0.071l2.144-5.926l1.786,0.09l1.563,6.113l-1.465-0.074
			l-0.386-1.568L157.603,163.566z M159.181,162.626l-0.311-1.296c-0.089-0.363-0.174-0.814-0.245-1.177l-0.018-0.001
			c-0.107,0.354-0.22,0.804-0.336,1.147l-0.421,1.259L159.181,162.626z"/>
		<path fill="#FFFFFF" d="M162.027,162.429c0.029-0.571,0.036-1.063,0.039-1.466l1.179,0.06l0.032,0.61l0.018,0.001
			c0.345-0.448,0.857-0.664,1.492-0.632c0.955,0.048,1.771,0.922,1.7,2.314c-0.08,1.59-1.127,2.289-2.101,2.239
			c-0.527-0.026-0.927-0.261-1.109-0.557l-0.018-0.001l-0.109,2.17l-1.358-0.068L162.027,162.429z M163.333,163.524
			c-0.005,0.107-0.001,0.206,0.012,0.287c0.071,0.37,0.37,0.664,0.762,0.684c0.589,0.029,0.962-0.444,1-1.186
			c0.035-0.696-0.25-1.239-0.857-1.27c-0.384-0.02-0.738,0.249-0.848,0.646c-0.021,0.07-0.035,0.159-0.039,0.239L163.333,163.524z"
			/>
		<path fill="#FFFFFF" d="M167.367,162.698c0.029-0.571,0.036-1.063,0.038-1.466l1.179,0.06l0.032,0.609l0.018,0.001
			c0.345-0.448,0.857-0.663,1.492-0.632c0.955,0.049,1.771,0.923,1.7,2.315c-0.08,1.59-1.127,2.288-2.101,2.239
			c-0.527-0.026-0.927-0.261-1.109-0.557l-0.018-0.001l-0.109,2.17l-1.357-0.068L167.367,162.698z M168.673,163.794
			c-0.005,0.107-0.001,0.206,0.013,0.287c0.071,0.37,0.369,0.663,0.762,0.684c0.589,0.029,0.962-0.444,1-1.186
			c0.035-0.696-0.25-1.239-0.857-1.27c-0.384-0.02-0.738,0.249-0.847,0.646c-0.022,0.07-0.035,0.159-0.039,0.239L168.673,163.794z"
			/>
		<path fill="#FFFFFF" d="M172.708,162.941c0.032-0.644,0.036-1.064,0.037-1.439l1.17,0.059l0.004,0.806l0.036,0.002
			c0.255-0.623,0.805-0.863,1.224-0.842c0.125,0.006,0.188,0.009,0.285,0.031l-0.064,1.277c-0.098-0.022-0.213-0.046-0.364-0.054
			c-0.501-0.025-0.853,0.226-0.964,0.641c-0.022,0.088-0.037,0.195-0.042,0.302l-0.112,2.215l-1.357-0.068L172.708,162.941z"/>
		<path fill="#FFFFFF" d="M180.308,164.022c-0.081,1.599-1.252,2.273-2.422,2.215c-1.277-0.064-2.217-0.953-2.146-2.364
			c0.071-1.411,1.045-2.267,2.448-2.195C179.528,161.745,180.375,162.71,180.308,164.022z M177.144,163.907
			c-0.038,0.751,0.247,1.329,0.828,1.358c0.526,0.026,0.892-0.483,0.932-1.27c0.033-0.651-0.184-1.325-0.799-1.355
			C177.452,162.607,177.177,163.265,177.144,163.907z"/>
		<path fill="#FFFFFF" d="M182.183,161.978l0.488,2.057c0.088,0.371,0.151,0.724,0.196,1.075l0.027,0.002
			c0.089-0.354,0.178-0.681,0.294-1.051l0.665-1.999l1.429,0.072l-1.846,4.285l-1.357-0.068l-1.369-4.447L182.183,161.978z"/>
		<path fill="#FFFFFF" d="M186.686,164.828c0.016,0.564,0.557,0.86,1.19,0.893c0.464,0.023,0.843-0.021,1.215-0.118l0.132,0.93
			c-0.456,0.155-1.004,0.217-1.594,0.188c-1.482-0.075-2.287-0.976-2.218-2.342c0.056-1.106,0.805-2.295,2.323-2.219
			c1.411,0.071,1.892,1.196,1.837,2.276c-0.012,0.232-0.049,0.437-0.072,0.534L186.686,164.828z M188.331,163.979
			c0.017-0.33-0.099-0.891-0.724-0.923c-0.572-0.028-0.83,0.478-0.884,0.842L188.331,163.979z"/>
		<path fill="#FFFFFF" d="M201.433,161.373c0.504-0.056,1.158-0.067,1.847-0.032c1.143,0.058,1.874,0.3,2.432,0.767
			c0.602,0.496,0.957,1.257,0.903,2.32c-0.058,1.151-0.518,1.925-1.123,2.387c-0.66,0.495-1.638,0.696-2.816,0.637
			c-0.705-0.035-1.203-0.104-1.54-0.167L201.433,161.373z M202.551,166.354c0.115,0.032,0.303,0.042,0.473,0.051
			c1.231,0.07,2.069-0.567,2.142-2.006c0.073-1.249-0.626-1.947-1.796-2.006c-0.304-0.016-0.502,0.001-0.619,0.022L202.551,166.354z
			"/>
		<path fill="#FFFFFF" d="M208.437,165.925c0.016,0.564,0.557,0.861,1.19,0.893c0.464,0.023,0.843-0.02,1.215-0.117l0.132,0.929
			c-0.455,0.155-1.005,0.218-1.594,0.188c-1.482-0.074-2.288-0.975-2.219-2.341c0.056-1.107,0.805-2.296,2.323-2.22
			c1.411,0.071,1.892,1.196,1.837,2.277c-0.012,0.232-0.049,0.437-0.072,0.534L208.437,165.925z M210.082,165.076
			c0.017-0.33-0.099-0.891-0.724-0.922c-0.571-0.029-0.83,0.477-0.884,0.841L210.082,165.076z"/>
		<path fill="#FFFFFF" d="M215.301,167.919c-0.247,0.095-0.707,0.161-1.225,0.135c-1.411-0.071-2.27-0.975-2.2-2.35
			c0.064-1.277,0.992-2.277,2.618-2.195c0.356,0.018,0.746,0.101,1.026,0.222l-0.265,0.999c-0.157-0.08-0.395-0.155-0.752-0.173
			c-0.715-0.036-1.205,0.449-1.232,1.164c-0.04,0.804,0.475,1.251,1.136,1.284c0.321,0.017,0.573-0.024,0.783-0.095L215.301,167.919
			z"/>
		<path fill="#FFFFFF" d="M216.364,161.723l1.357,0.068l-0.319,6.341l-1.358-0.068L216.364,161.723z"/>
		<path fill="#FFFFFF" d="M218.5,168.188l0.22-4.367l1.358,0.068l-0.221,4.367L218.5,168.188z M220.184,162.677
			c-0.02,0.375-0.32,0.664-0.767,0.642c-0.429-0.021-0.699-0.34-0.671-0.714c0.011-0.394,0.311-0.674,0.749-0.651
			C219.933,161.975,220.194,162.283,220.184,162.677z"/>
		<path fill="#FFFFFF" d="M221.098,165.337c0.027-0.545,0.032-1.01,0.033-1.395l1.18,0.06l0.032,0.601l0.026,0.002
			c0.192-0.269,0.66-0.665,1.384-0.629c0.893,0.045,1.533,0.668,1.468,1.954l-0.131,2.59l-1.357-0.068l0.122-2.42
			c0.028-0.562-0.148-0.957-0.64-0.981c-0.375-0.02-0.611,0.229-0.713,0.475c-0.04,0.078-0.065,0.212-0.071,0.337l-0.127,2.518
			l-1.356-0.068L221.098,165.337z"/>
		<path fill="#FFFFFF" d="M227.312,166.877c0.017,0.564,0.556,0.861,1.189,0.893c0.465,0.023,0.844-0.02,1.215-0.117l0.134,0.929
			c-0.456,0.155-1.006,0.218-1.595,0.188c-1.482-0.074-2.288-0.975-2.219-2.341c0.056-1.107,0.805-2.296,2.323-2.22
			c1.41,0.071,1.892,1.196,1.837,2.277c-0.012,0.232-0.05,0.436-0.072,0.533L227.312,166.877z M228.958,166.028
			c0.017-0.33-0.099-0.891-0.725-0.922c-0.571-0.029-0.829,0.477-0.883,0.841L228.958,166.028z"/>
	</g>
	<path fill="none" stroke="#414042" stroke-width="2" stroke-miterlimit="10" d="M320.521,184.046
		c-21.064-1.528-42.143-2.775-63.231-3.884c-21.07-1.11-42.146-2.078-63.224-3.049c-21.049-0.972-42.099-1.945-63.143-3.064
		c-10.508-0.558-21.015-1.153-31.518-1.801c-10.077-0.624-20.28-0.933-30.309-1.979c-1.11-0.117-2.537-0.083-3.308-1.107
		c-1.034-1.371-0.671-4.907-0.553-6.561"/>
	<path fill="none" stroke="#414042" stroke-width="2" stroke-miterlimit="10" d="M65.183,163.314
		c1.586-22.431,2.516-44.9,3.4-67.368c0.889-22.437,1.737-44.877,3.172-67.292c0.131-2.026,0.265-4.057,0.405-6.083
		c0.09-1.329-0.017-3.253,0.719-4.429c1.167-1.861,4.677-1.494,6.442-1.44"/>
	<polygon fill="#6D6E71" points="102.796,161.955 285.025,171.894 282.723,177.855 111.939,169.241 	"/>
	<path fill="none" stroke="#000000" stroke-width="2" stroke-miterlimit="10" d="M87.527,27.625
		c19.484,1.385,38.986,2.528,58.493,3.55c19.489,1.024,38.988,1.925,58.481,2.831c19.471,0.903,38.946,1.809,58.41,2.839
		c9.721,0.517,19.438,1.062,29.157,1.655c9.296,0.567,18.698,0.855,27.963,1.795c1.131,0.115,2.42,0.311,3.117,1.327
		c0.674,0.987,0.671,3.77,0.607,4.969"/>
	<path fill="none" stroke="#000000" stroke-width="2" stroke-miterlimit="10" d="M323.828,46.334
		c-1.402,19.433-2.201,38.9-2.962,58.367c-0.765,19.47-1.487,38.944-2.738,58.393c-0.123,1.939-0.254,3.878-0.392,5.819
		c-0.078,1.137,0.257,2.869-0.719,3.605c-1.183,0.888-4.025,0.607-5.427,0.509"/>
	<path fill="none" stroke="#000000" stroke-width="2" stroke-miterlimit="10" d="M311.733,173.081
		c-19.493-1.386-38.999-2.528-58.514-3.552c-19.498-1.025-39-1.926-58.504-2.83c-19.478-0.904-38.956-1.811-58.429-2.843
		c-9.724-0.514-19.447-1.061-29.166-1.653c-9.326-0.57-18.767-0.869-28.048-1.805c-1.027-0.104-2.348-0.079-3.064-0.966
		c-0.96-1.188-0.636-4.244-0.533-5.674"/>
	<path fill="none" stroke="#000000" stroke-width="2" stroke-miterlimit="10" d="M75.432,154.375
		c1.399-19.388,2.189-38.812,2.938-58.234c0.753-19.395,1.47-38.794,2.729-58.167c0.115-1.752,0.232-3.507,0.356-5.258
		c0.08-1.148-0.025-2.813,0.651-3.827c1.074-1.605,4.323-1.277,5.956-1.226"/>
	<text transform="matrix(0.9987 0.0504 -0.0504 0.9987 145.647 104.9297)"><tspan x="0" y="0" fill="#FFFFFF" font-family="'MyriadPro-Bold'" font-size="6.4626">The Expert’s</tspan><tspan x="0" y="7.755" fill="#FFFFFF" font-family="'MyriadPro-Bold'" font-size="6.4626">Guide to</tspan><tspan x="0" y="15.51" fill="#FFFFFF" font-family="'MyriadPro-Bold'" font-size="6.4626">Working While</tspan><tspan x="0" y="23.265" fill="#FFFFFF" font-family="'MyriadPro-Bold'" font-size="6.4626">Traveling</tspan></text>
	<text transform="matrix(0.9987 0.0504 -0.0504 0.9987 200.5488 99.7891)"><tspan x="0" y="0" fill="#58595B" font-family="'MyriadPro-Bold'" font-size="6.4626">Keep the desk job,</tspan><tspan x="0" y="7.756" fill="#58595B" font-family="'MyriadPro-Bold'" font-size="6.4626">ditch the desk.</tspan></text>
	
		<text transform="matrix(0.9987 0.0504 -0.0504 0.9987 136.6133 54.5845)" fill="#58595B" font-family="'MyriadPro-Bold'" font-size="8.9404">New landing page design comp</text>
	<path fill="none" stroke="#493419" stroke-width="2" stroke-miterlimit="10" d="M142.714,82.892
		c-0.088,1.849-2.697,55.542-2.892,57.333l52.173,2.632l2.892-57.334L142.714,82.892z"/>
	<circle fill="#493419" cx="185.038" cy="93.705" r="4.578"/>
	<path fill="none" stroke="#FFFFFF" stroke-width="2" stroke-miterlimit="10" d="M144.613,133.449
		c0.258,1.171,2.48,0.481,3.466,0.711c0.982,0.229,1.159,0.623,2.125,0.547c0.494-0.039,0.693-0.397,1.233-0.384
		c0.499,0.012,1.109,0.406,1.628,0.499c1.772,0.314,3.714,0.393,5.391,0.328c0.76-0.029,1.618-0.002,2.498-0.042
		c0.394-0.017,1.079,0.078,1.531,0.081c0.762,0.004,1.353-0.427,1.692,0.594"/>
	<path fill="none" stroke="#939598" stroke-width="2" stroke-miterlimit="10" d="M199.907,112.514
		c0.625,1.189,5.376,0.627,7.513,0.916c2.132,0.287,2.534,0.693,4.615,0.673c1.06-0.011,1.471-0.358,2.635-0.315
		c1.075,0.041,2.416,0.475,3.538,0.597c3.838,0.419,8.03,0.611,11.641,0.645c1.637,0.014,3.488,0.091,5.38,0.104
		c0.848,0.005,2.331,0.141,3.308,0.169c1.643,0.048,2.89-0.35,3.681,0.695"/>
	<path fill="none" stroke="#939598" stroke-width="2" stroke-miterlimit="10" d="M136.784,62.618
		c1.679,1.243,13.711,1.048,19.163,1.503c5.439,0.455,6.492,0.893,11.78,1.034c2.692,0.071,3.708-0.245,6.67-0.11
		c2.736,0.125,6.176,0.663,9.036,0.873c9.787,0.719,20.453,1.238,29.629,1.551c4.161,0.142,8.871,0.363,13.681,0.522
		c2.154,0.072,5.934,0.323,8.417,0.428c4.177,0.175,7.315-0.127,9.406,0.983"/>
	<path fill="none" stroke="#939598" stroke-width="2" stroke-miterlimit="10" d="M136.532,67.611
		c1.471,1.232,12.066,0.965,16.864,1.387c4.787,0.421,5.711,0.853,10.367,0.963c2.37,0.055,3.266-0.267,5.874-0.151
		c2.408,0.108,5.433,0.626,7.951,0.818c8.613,0.66,18.001,1.114,26.08,1.373c3.663,0.117,7.809,0.309,12.042,0.439
		c1.897,0.059,5.223,0.288,7.409,0.377c3.677,0.15,6.442-0.171,8.276,0.926"/>
	<path fill="none" stroke="#939598" stroke-width="2" stroke-miterlimit="10" d="M199.527,120.044
		c0.625,1.189,5.376,0.628,7.513,0.915c2.132,0.287,2.534,0.693,4.615,0.673c1.06-0.011,1.471-0.358,2.635-0.312
		c1.075,0.04,2.416,0.472,3.538,0.595c3.838,0.418,8.03,0.61,11.641,0.644c1.637,0.015,3.488,0.092,5.381,0.104
		c0.847,0.006,2.33,0.141,3.307,0.171c1.643,0.047,2.89-0.352,3.681,0.693"/>
	<path fill="none" stroke="#939598" stroke-width="2" stroke-miterlimit="10" d="M199.717,116.278
		c0.564,1.188,4.905,0.604,6.854,0.883c1.945,0.278,2.31,0.682,4.209,0.652c0.968-0.016,1.345-0.364,2.406-0.325
		c0.982,0.035,2.203,0.462,3.227,0.58c3.502,0.401,7.327,0.574,10.624,0.593c1.492,0.007,3.183,0.076,4.909,0.079
		c0.773,0.002,2.128,0.131,3.018,0.155c1.5,0.041,2.64-0.363,3.357,0.679"/>
	
		<rect x="199.035" y="126.195" transform="matrix(0.9987 0.0504 -0.0504 0.9987 6.8264 -10.6008)" fill="#FFFFFF" stroke="#939598" stroke-width="2" stroke-miterlimit="10" width="29.495" height="7.944"/>
	
		<rect x="228.5" y="127.402" transform="matrix(-0.9987 -0.0504 0.0504 -0.9987 468.5216 274.5629)" fill="#6D5324" stroke="#493419" stroke-width="2" stroke-miterlimit="10" width="18.445" height="7.944"/>
	<path fill="none" stroke="#FFFFFF" stroke-width="2" stroke-miterlimit="10" d="M232.294,130.764
		c-0.622,1.674,1.433,0.699,1.996,0.599c1.136-0.202,1.795,0.288,2.936,0.458c2.027,0.301,3.954-0.506,5.644,0.42"/>
</g>
</svg>
