<svg xmlns="http://www.w3.org/2000/svg" width="612" height="324.632" viewBox="0 233.208 612 324.632" enable-background="new 0 233.208 612 324.632"><text transform="translate(130.56 409.228)" font-family="'Lato-Bold'" font-size="22.993">THEM</text><path fill="#EAB978" d="M306 309.096c-28.696-45.56-79.56-75.888-137.36-75.888-89.624 0-162.248 72.76-162.248 162.384S79.016 557.84 168.64 557.84c57.8 0 108.664-30.328 137.36-75.888-15.776-25.024-24.888-54.672-24.888-86.36 0-31.824 9.112-61.472 24.888-86.496z"/><path fill="#9BC9C7" d="M443.36 233.208c-57.8 0-108.664 30.328-137.36 75.888 15.776 25.024 24.888 54.672 24.888 86.36 0 31.824-9.11 61.336-24.888 86.36 28.696 45.56 79.56 75.888 137.36 75.888 89.624 0 162.248-72.624 162.248-162.248S532.984 233.208 443.36 233.208z"/><path fill="#C94343" d="M306 309.096c-15.776 25.024-24.888 54.672-24.888 86.36 0 31.824 9.112 61.336 24.888 86.36 15.776-25.024 24.888-54.673 24.888-86.36 0-31.688-9.112-61.336-24.888-86.36z"/></svg>