<?xml version="1.0" encoding="utf-8"?>
<!-- Generator: Adobe Illustrator 18.1.1, SVG Export Plug-In . SVG Version: 6.00 Build 0)  -->
<svg version="1.1" id="Layer_18" xmlns="http://www.w3.org/2000/svg" xmlns:xlink="http://www.w3.org/1999/xlink" x="0px" y="0px"
	 viewBox="0 0 450 250" enable-background="new 0 0 450 250" xml:space="preserve">
<rect x="20" y="0.7" fill="#9BC9C7" width="403" height="246.8"/>
<g>
	<g>
		<path fill="#83B1B1" d="M188.8,87.1c-3.6,0.5-5.8,4.3-5,7.7c0.8,3.6,4.4,6.3,8.1,5.8c3.4-0.5,6.5-3.7,5.9-7.3
			c-0.6-3.6-4.4-5.8-7.9-5c-1.5,0.3-0.9,2.7,0.7,2.4c2.2-0.5,5,1.1,5,3.6c0,2.5-2.7,4.3-5,4.1c-5-0.4-6.7-8.3-1.2-9.3
			C190.6,88.9,190,87,188.8,87.1L188.8,87.1z"/>
	</g>
</g>
<g>
	<g>
		<path fill="#83B1B1" d="M269.4,114.6c-1.6-1.8-4.7-1.1-5.7,1c-1.3,2.8,1.2,5.5,3.5,6.7c2,1.1,5.7,2.6,6.8-0.5
			c0.9-2.8-1.9-6-3.9-7.5c-1.1-0.9-2.7,1.1-1.6,2c1.1,0.9,2,1.9,2.6,3.1c0.2,0.3,0.7,1.4,0.3,1.7c-0.4,0.3-1.8-0.5-2.1-0.6
			c-1.2-0.5-2.6-1.2-3.2-2.4c-0.3-0.6-0.4-1.4,0-1.9c0.4-0.5,1.2-0.6,1.7-0.1C268.8,117.2,270.3,115.7,269.4,114.6L269.4,114.6z"/>
	</g>
</g>
<g>
	<g>
		<path fill="#83B1B1" d="M278.8,117.1c2.1,2.6,5.2,5.1,8.4,6.2c1.3,0.4,2-1.5,0.9-2.1c-1.4-0.8-2.8-1.4-4.1-2.3
			c-1.4-0.9-2.5-2.1-3.7-3.2C279.3,114.6,277.9,116.1,278.8,117.1L278.8,117.1z"/>
	</g>
</g>
<g>
	<g>
		<path fill="#83B1B1" d="M289.9,114.4c-1.9-3.9-9.5,6.2-10.4,7.6c-0.7,1.1,1,2.4,1.8,1.4c1.1-1.4,2.2-2.9,3.4-4.2
			c0.5-0.6,3.7-3.3,3.4-3.7C288.8,116.6,290.5,115.6,289.9,114.4L289.9,114.4z"/>
	</g>
</g>
<g>
	<g>
		<path fill="#83B1B1" d="M320,107.3c1.7,2.5,3.6,4.8,5.7,6.9c1.1,1.1,2.8-0.6,1.7-1.7c-2-1.9-3.9-4.1-5.5-6.4
			C321.1,105.1,319.2,106.2,320,107.3L320,107.3z"/>
	</g>
</g>
<g>
	<g>
		<path fill="#83B1B1" d="M326.5,105.3c-2.9,2.7-5.4,5.7-7.5,9c-0.9,1.3,1.3,2.6,2.1,1.2c2-3.2,4.4-6,7-8.7
			C329.2,105.9,327.6,104.3,326.5,105.3L326.5,105.3z"/>
	</g>
</g>
<g>
	<g>
		<path fill="#83B1B1" d="M158.2,124.8c2.4,2.7,5.3,5.1,8.7,6.5c1.4,0.6,2.7-1.4,1.3-2.2c-3.1-1.6-5.9-3.4-8.3-6
			C158.8,122.1,157.3,123.7,158.2,124.8L158.2,124.8z"/>
	</g>
</g>
<g>
	<g>
		<path fill="#83B1B1" d="M165.1,122.7c-3.1,3-5.7,6.3-8.1,9.9c-0.8,1.3,1.3,2.5,2.1,1.2c2.1-3.5,4.6-6.7,7.4-9.7
			C167.4,123.2,166.1,121.8,165.1,122.7L165.1,122.7z"/>
	</g>
</g>
<g>
	<g>
		<path fill="#83B1B1" d="M124.5,141.4c-0.1-1.7-1.9-1.9-3.1-1.2c-1.6,0.9-2.3,3-1.9,4.7c0.9,4.2,6.4,5.6,9.9,3.9
			c3.9-2,3.9-6.8,0.1-8.9c-1.4-0.7-4.1-1.7-5.3-0.2c-1.1,1.4,0.3,3.1,1.8,2.7c1.6-0.3,0.9-2.8-0.7-2.5c-0.1,0-0.2,0-0.3,0.1
			c0.4,0.1,0.8,0.2,1.3,0.3c-0.5,1-0.2,1.4,0.7,1.3c0.4,0.1,0.9,0.2,1.3,0.4c0.6,0.3,1.2,0.7,1.5,1.3c0.9,1.7-0.7,3-2.2,3.5
			c-1.5,0.5-3,0.2-4.3-0.7c-0.7-0.5-1.3-1.1-1.4-1.9c-0.1-0.5,0-1,0.2-1.5c0.3-0.3,0.5-0.7,0.7-1.1
			C122.8,142.7,124.6,142.5,124.5,141.4L124.5,141.4z"/>
	</g>
</g>
<g>
	<g>
		<path fill="#83B1B1" d="M196.6,184.2c-2.7,0-4.6,2.5-4.2,5.1c0.4,2.8,3.2,5.8,6,6.3c2.7,0.5,4.5-1.6,4.1-4.2
			c-0.5-3.2-3-6.3-5.2-8.6c-1.1-1.2-2.9,0.6-1.8,1.8c1,1.1,1.9,2.2,2.7,3.4c0.7,1,1.9,2.6,1.8,3.9c-0.1,2.9-3.3,0.2-4-0.6
			c-1.1-1.2-2.5-4.7,0.5-4.9C198,186.3,198,184.2,196.6,184.2L196.6,184.2z"/>
	</g>
</g>
<g>
	<g>
		<path fill="#83B1B1" d="M200.3,185.9c19.2-18.7,44.2-23.7,69.5-28.7c1.7-0.3,0.9-2.7-0.7-2.5c-24.8,3.5-52.5,10.9-70.1,29.9
			C198.3,185.5,199.5,186.7,200.3,185.9L200.3,185.9z"/>
	</g>
</g>
<g>
	<g>
		<path fill="#83B1B1" d="M267.9,151.4c3,1.5,6.1,2.7,9,4.5c0-0.8,0-1.6,0-2.3c-3.1,1.5-6.1,3.1-9.1,4.7c-1.6,0.9-0.2,3.4,1.5,2.5
			c3-1.6,6.1-3.2,9-4.9c0.9-0.5,0.9-1.9,0-2.3c-3-1.6-6.2-3.3-9.5-4.2C267.6,149.1,266.8,150.9,267.9,151.4L267.9,151.4z"/>
	</g>
</g>
<g>
	<g>
		<path fill="#83B1B1" d="M228.2,182.3c2.2,4.3,7.9,4.1,10.7,7.7c0.9,1.2,3,0.2,2.1-1.3c-2.4-4.1-8.3-3.7-10.8-7.6
			C229.4,179.9,227.5,181,228.2,182.3L228.2,182.3z"/>
	</g>
</g>
<g>
	<g>
		<path fill="#83B1B1" d="M231.6,193c-0.7-0.8,2.7-5.4,3.1-6.1c1.1-1.9,2.2-3.7,3.4-5.6c0.8-1.3-1.2-2.4-2-1.2
			c-1.8,3.2-3.7,6.4-5.5,9.6c-0.8,1.5-1.8,3.1-0.3,4.5C231.2,195.2,232.4,193.9,231.6,193L231.6,193z"/>
	</g>
</g>
<g>
	<g>
		<path fill="#83B1B1" d="M160.2,205c2.7,2.2,5.8,4.2,9,5.6c1.2,0.5,2-1.5,0.9-2.1c-2.9-1.6-5.8-3.2-8.6-5.1
			C160.6,202.7,159.3,204.2,160.2,205L160.2,205z"/>
	</g>
</g>
<g>
	<g>
		<path fill="#83B1B1" d="M161.4,213.2c1.5-4.1,3.9-7.8,6.9-10.9c1-1.1-0.6-2.7-1.6-1.6c-3.4,3.4-5.9,7.4-7.4,12
			C158.9,213.9,161,214.4,161.4,213.2L161.4,213.2z"/>
	</g>
</g>
<g>
	<g>
		<path fill="#83B1B1" d="M122.6,66.1c-2.4,1-3.7,3.5-3.1,6.1c0.7,3,3.8,5.1,6.7,5.8c2.5,0.6,5.7-0.4,5.4-3.5
			c-0.4-3.7-4.5-4.2-6.6-6.6c-1.1-1.2-2.7,0.5-1.7,1.7c1,1.2,2.3,1.9,3.7,2.6c0.8,0.4,2,1.1,2.1,2c0.3,1.6-1.3,1.7-2.5,1.4
			c-1.7-0.4-3.5-1.4-4.4-2.9c-1-1.7-0.5-3.8,1.3-4.6C124.6,67.6,123.8,65.7,122.6,66.1L122.6,66.1z"/>
	</g>
</g>
<g>
	<g>
		<path fill="#83B1B1" d="M186.9,25.2c-2.3-1.5-5.2,0.3-5,3c0.3,3.9,5.4,5.6,8.7,6c2.8,0.3,6.5-1.2,6.4-4.6
			c-0.1-4.3-5.3-4.8-8.4-4.6c-1.5,0.1-1.5,2.5,0,2.4c1.5-0.1,3.3-0.3,4.7,0.4c2.6,1.4,1,4.1-1.5,4.3c-1.3,0.1-2.8-0.3-4-0.8
			c-0.9-0.3-1.8-0.6-2.5-1.2c-0.4-0.2-0.7-0.5-0.9-1c-0.9-1-0.3-1.8,1.6-2.3C187,27.4,187.9,25.9,186.9,25.2L186.9,25.2z"/>
	</g>
</g>
<g>
	<g>
		<path fill="#83B1B1" d="M181,32.7c-24.9,20.3-24.2,56.6-3.7,79.7c1.2,1.3,3.1-0.6,1.9-1.9c-20-22.6-19.4-55.9,3.2-76.3
			C183.4,33.3,182,31.9,181,32.7L181,32.7z"/>
	</g>
</g>
<g>
	<g>
		<path fill="#83B1B1" d="M168.9,110.7c3,3,6.6,5.1,10.6,6.4c0.8,0.2,1.8-0.6,1.4-1.4c-1.6-4-2.5-8-2.6-12.3c0-1.6-2.6-1.6-2.5,0
			c0,4.6,1.1,9,3,13.2c0.4-0.6,0.9-1.1,1.3-1.7c-3.8-1-7.1-2.8-9.9-5.5C169.3,108.5,168,109.8,168.9,110.7L168.9,110.7z"/>
	</g>
</g>
<g>
	<g>
		<path fill="#83B1B1" d="M194,87.3c8.9-32.6,39.5-53.6,73-52.3c1.8,0.1,1.8-2.7,0-2.8c-34.3-1.2-66.7,20.5-74.9,54.5
			C191.8,88,193.7,88.5,194,87.3L194,87.3z"/>
	</g>
</g>
<g>
	<g>
		<path fill="#83B1B1" d="M257.7,31.4c1.8,0.5,3.5,0.9,5.2,1.5c0.4,0.1,5.6,1.8,5.6,2.1c0.1-1.1-2.1,0.8-2,0.7
			c-0.7,0.5-1.4,1.1-2.2,1.6c-1.5,1.2-3.1,2.3-4.6,3.5c-1.1,0.9,0.4,2.9,1.6,2c2.3-1.7,4.5-3.5,6.7-5.2c1.1-0.9,3.4-2,2.9-3.8
			c-0.5-1.5-3.3-2.1-4.6-2.5c-2.6-0.9-5.3-1.7-8-2.3C256.9,29,256.3,31.1,257.7,31.4L257.7,31.4z"/>
	</g>
</g>
<g>
	<g>
		<path fill="#83B1B1" d="M234,59.1c3.2,3.8,6.9,7.2,10.9,10.1c1.2,0.9,2.4-1.2,1.2-2c-3.9-2.8-7.5-5.9-10.7-9.5
			C234.6,56.7,233.2,58.1,234,59.1L234,59.1z"/>
	</g>
</g>
<g>
	<g>
		<path fill="#83B1B1" d="M235.6,70.9c3.1-3.6,6.1-7.2,9.2-10.9c1-1.1-0.7-2.8-1.7-1.7c-3,3.7-6.1,7.3-9.1,11
			C233.3,70.4,234.7,71.9,235.6,70.9L235.6,70.9z"/>
	</g>
</g>
<g>
	<g>
		<path fill="#83B1B1" d="M90.6,22.3c-3.1-2-5.7,1.5-5.2,4.4c0.5,3.5,3.4,6.4,6.7,7.6c3,1.1,6.7,0.2,6-3.7c-0.6-3.7-4.5-6.7-7.8-8.1
			c-1.2-0.5-2.1,1.5-0.9,2.1c1.6,0.8,3.2,1.7,4.4,3.1c0.6,0.6,1.3,1.4,1.6,2.2c0.7,1.6-0.2,2.8-2,2.4c-1.8-0.4-3.4-1.5-4.5-2.9
			c-0.6-0.7-1-1.5-1.3-2.4c-0.3-1.1-0.2-4.5,1.9-3.1C90.7,24.6,91.6,22.9,90.6,22.3L90.6,22.3z"/>
	</g>
</g>
<g>
	<g>
		<path fill="#83B1B1" d="M96.1,32.7c6.2,5.4,12.5,8.9,20.3,11.5c8,2.7,16.1,5.2,24.6,4.7c1.7-0.1,1.7-2.7,0-2.6
			c-15.2,0.6-31.8-5.7-43.6-15C96.5,30.6,95.2,31.9,96.1,32.7L96.1,32.7z"/>
	</g>
</g>
<g>
	<g>
		<path fill="#83B1B1" d="M134.9,42.9c3.4,1.5,6.5,3.2,9.5,5.4c-0.1-0.6-0.2-1.3-0.2-1.9c-1,1.1-2,2-3.2,2.8
			c-0.4,0.2-3.6,2.1-3.8,1.7c-0.7-1.5-2.9-0.2-2.2,1.3c2,4.1,9.3-2.2,10.9-4c0.5-0.6,0.4-1.4-0.2-1.9c-3.1-2.1-6.4-3.8-9.8-5.3
			C134.6,40.5,133.8,42.4,134.9,42.9L134.9,42.9z"/>
	</g>
</g>
<g>
	<g>
		<path fill="#83B1B1" d="M127,23.5c4.8,3.6,10.7,6.9,16.7,7.8c1.3,0.2,1.9-1.6,0.6-2c-5.9-2-11.2-3.9-16.2-7.6
			C127,21,126,22.7,127,23.5L127,23.5z"/>
	</g>
</g>
<g>
	<g>
		<path fill="#83B1B1" d="M132.3,32.3c0.5-3.9,2.3-7.3,5-10.2c1-1.1-0.6-2.7-1.6-1.6c-3.2,3.2-5.1,7.3-5.5,11.8
			C130,33.6,132.2,33.6,132.3,32.3L132.3,32.3z"/>
	</g>
</g>
<g>
	<g>
		<path fill="#83B1B1" d="M328.6,55.1c-3.3-0.4-6.7,2.2-6.6,5.7c0,3.4,3.5,6.1,6.8,5.8c3.3-0.3,6-3.4,5.9-6.6
			c-0.1-3.7-3.3-6.3-6.8-6.7c-1.6-0.2-1.6,2.4,0,2.6c4.5,0.5,6.2,7.1,1.2,8.3c-2.1,0.5-4.7-1.1-4.9-3.4c-0.1-2.4,2.3-3.8,4.4-3.6
			C329.9,57.3,329.9,55.3,328.6,55.1L328.6,55.1z"/>
	</g>
</g>
<g>
	<g>
		<path fill="#83B1B1" d="M330.9,65.4c0.4,4.1,5.3,6.8,8.2,9.3c4.5,3.9,9,7.9,13.6,11.7c1.2,1,2.9-0.7,1.7-1.7
			c-3.5-3.1-7.1-6-10.6-9c-1.7-1.4-3.3-2.8-5-4.2c-1.6-1.4-5.6-3.8-5.8-6C332.9,64.1,330.8,64,330.9,65.4L330.9,65.4z"/>
	</g>
</g>
<g>
	<g>
		<path fill="#83B1B1" d="M350.8,76.4c0.4,1.2,0.9,2.3,1.3,3.5c0.3,0.7,0.6,1.4,0.8,2.1c0.2,0.7,0.4,0.5-0.1,0.8
			c-0.8,0.6-2.9,0.5-3.9,0.6c-1.3,0.1-2.6,0.1-3.9,0.1c-1.6,0-1.6,2.5,0,2.5c1.9,0,3.8-0.1,5.6-0.4c1.3-0.2,3.3-0.3,4.3-1.2
			c0.7-0.7,0.6-1.6,0.3-2.5c-0.8-2.1-1.7-4.1-2.7-6.1C352,74.8,350.5,75.4,350.8,76.4L350.8,76.4z"/>
	</g>
</g>
<g>
	<g>
		<path fill="#83B1B1" d="M343.6,60.7c2.1,3.5,5.3,6.3,9.2,7.7c1.3,0.5,1.9-1.6,0.6-2.1c-3.3-1.4-6.1-3.6-7.9-6.6
			C344.7,58.5,342.9,59.5,343.6,60.7L343.6,60.7z"/>
	</g>
</g>
<g>
	<g>
		<path fill="#83B1B1" d="M345.2,68.7c1.9-2.6,3.9-5,6.1-7.3c1-1-0.6-2.5-1.5-1.5c-2.3,2.4-4.4,5-6.3,7.8
			C342.7,68.8,344.4,69.7,345.2,68.7L345.2,68.7z"/>
	</g>
</g>
<g>
	<g>
		<path fill="#83B1B1" d="M377.1,119.2c2.3,2.8,5,5.2,8,7.1c1.2,0.8,2.4-1.2,1.1-1.9c-2.9-1.8-5.5-4-7.7-6.6
			C377.7,116.6,376.2,118.1,377.1,119.2L377.1,119.2z"/>
	</g>
</g>
<g>
	<g>
		<path fill="#83B1B1" d="M379.7,127.8c1.5-3.2,3.4-6.1,5.7-8.7c1-1.1-0.6-2.8-1.6-1.6c-2.5,2.8-4.4,5.9-5.9,9.3
			C377.3,128,379.1,129.1,379.7,127.8L379.7,127.8z"/>
	</g>
</g>
<g>
	<g>
		<path fill="#83B1B1" d="M317,183c3.3,2.4,6.1,5,8.8,8.1c0.9,1.1,2.4-0.5,1.5-1.5c-2.6-3.2-5.9-6-9.4-8.1
			C316.9,180.8,316.1,182.3,317,183L317,183z"/>
	</g>
</g>
<g>
	<g>
		<path fill="#83B1B1" d="M317,192.3c2.6-3.3,5.6-6.2,8.9-8.8c1.1-0.9-0.5-2.5-1.6-1.6c-3.3,2.8-6.2,5.8-8.8,9.2
			C314.8,192,316.3,193.2,317,192.3L317,192.3z"/>
	</g>
</g>
<g>
	<g>
		<path fill="#83B1B1" d="M318.3,160.8c-3-0.7-5.7,1.5-6.3,4.4c-0.6,3.3,2.1,6.1,4.9,7.3c2.5,1.1,6.8,1.7,7.6-1.9
			c0.9-4-3.3-6-5.7-8.1c-1.1-1-2.8,0.7-1.7,1.7c1.4,1.2,3.2,2,4.4,3.4c0.6,0.7,1.1,1.8,0.7,2.7c-0.6,1.4-2.7,0.9-3.9,0.4
			c-1.7-0.6-3.6-1.9-4.2-3.7c-0.7-2.2,1.2-4.9,3.6-4.5C319,162.8,319.5,161.1,318.3,160.8L318.3,160.8z"/>
	</g>
</g>
<g>
	<g>
		<path fill="#83B1B1" d="M58.7,104.8c-3.6-1.9-6,2.6-5.1,5.7c1,3.5,5.4,6.5,9,4.9c3.4-1.5,3.3-5.8,2.4-8.8
			c-0.5-1.8-1.4-3.8-3.3-4.5c-1.5-0.6-3.1-0.4-4.2,0.8c-1,1.2,0.6,2.8,1.7,1.7c2.6-2.5,4.7,5.9,3.3,7.8c-1.3,1.9-4,0.7-5.3-0.5
			c-0.7-0.7-1.3-1.6-1.5-2.6c-0.2-1,0.4-3.4,1.9-2.7C58.8,107.2,59.9,105.4,58.7,104.8L58.7,104.8z"/>
	</g>
</g>
<g>
	<g>
		<path fill="#83B1B1" d="M107.8,221.8c-3.3-0.8-6.6,2.2-5.9,5.6c0.7,3.6,4.8,5.5,8.1,5.2c3.5-0.3,6.3-3.1,5.2-6.7
			c-1.3-4.2-5.9-5.3-9.8-5.7c-1.6-0.2-1.6,2.4,0,2.6c2.1,0.2,4.6,0.5,6.2,2c1.8,1.7,1.9,4.5-0.7,5.3c-1.8,0.6-4,0.1-5.4-1.1
			c-0.8-0.7-1.5-1.7-1.3-2.8c0.2-1.4,1.6-2.6,3.1-2.3C108.6,224.1,109.1,222.1,107.8,221.8L107.8,221.8z"/>
	</g>
</g>
<g>
	<g>
		<path fill="#83B1B1" d="M117,229.4c64.5-0.9,129-1.7,193.5-1.5c1.7,0,1.7-2.7,0-2.7c-64.5-0.4-129.1,0-193.5,2.2
			C115.7,227.4,115.7,229.5,117,229.4L117,229.4z"/>
	</g>
</g>
<g>
	<g>
		<path fill="#83B1B1" d="M306.8,221.8c3,2.5,6.5,4.2,10.3,5.1c-0.1-0.7-0.2-1.5-0.3-2.2c-3.3,2.4-6.8,4.5-10.5,6.2
			c-1.5,0.7-0.2,3,1.3,2.3c3.7-1.8,7.2-3.9,10.4-6.4c0.7-0.6,0.8-2-0.3-2.2c-3.5-0.7-6.6-2.1-9.4-4.4
			C307.3,219.3,305.7,220.9,306.8,221.8L306.8,221.8z"/>
	</g>
</g>
<g>
	<g>
		<path fill="#AED6D3" d="M20,1.6c104.8,2.4,209.6,2.3,314.4,1c29.6-0.4,59.2-0.7,88.8-1.1c1.5,0,1.5-2.3,0-2.3
			c-104.7,1.3-209.3,3-314,1.6C79.6,0.5,49.8,0,20-0.3C18.8-0.3,18.8,1.6,20,1.6L20,1.6z"/>
	</g>
</g>
<g>
	<g>
		<path fill="#AED6D3" d="M18.4,0.9c-1,41.4-0.3,82.9-0.3,124.3c0,41.4-0.2,82.8,0,124.3c0,1.5,2.4,1.6,2.4,0
			c0.3-41.4,0-82.8,0-124.3c0-41.4,0.7-82.9-0.3-124.3C20.2-0.3,18.4-0.3,18.4,0.9L18.4,0.9z"/>
	</g>
</g>
<g>
	<g>
		<path fill="#AED6D3" d="M221.4,0.9c-1,41.4-0.3,82.9-0.3,124.3c0,41.4-0.2,82.8,0,124.3c0,1.5,2.4,1.6,2.4,0
			c0.3-41.4,0-82.8,0-124.3c0-41.4,0.7-82.9-0.3-124.3C223.2-0.3,221.4-0.3,221.4,0.9L221.4,0.9z"/>
	</g>
</g>
<g>
	<g>
		<path fill="#AED6D3" d="M423.3,247.2c-52.6-0.8-105.2-0.3-157.7-0.3c-52.2,0-104.5,0-156.7,0c-29.6,0-59.2-0.1-88.8,0
			c-1.5,0-1.6,2.4,0,2.4c104.8,0.4,209.6,0,314.5,0c29.6,0,59.2,0.2,88.8-0.3C424.5,249,424.5,247.2,423.3,247.2L423.3,247.2z"/>
	</g>
</g>
<g>
	<g>
		<path fill="#AED6D3" d="M423.4,0.9c-1,41.4-0.3,82.9-0.3,124.3c0,41.4-0.2,82.8,0,124.3c0,1.5,2.4,1.6,2.4,0
			c0.3-41.4,0-82.8,0-124.3c0-41.4,0.7-82.9-0.3-124.3C425.2-0.3,423.4-0.3,423.4,0.9L423.4,0.9z"/>
	</g>
</g>
<g>
	<g>
		<path fill="#AED6D3" d="M21.3,69.2c17.8-0.5,35.5-0.4,53.3,1c-0.3-0.3-0.7-0.7-1-1c-0.3,37.1,0,74.2,1.1,111.4
			c0.3-0.3,0.7-0.7,1-1c-18.3,2-36.7,2.3-55.1,1c-1.5-0.1-1.5,2.2,0,2.3c18.4,1.3,36.7,0.8,55.1-1.3c0.5-0.1,1-0.4,1-1
			c-1.1-37.1-1.6-74.3-1.1-111.4c0-0.6-0.5-1-1-1c-17.7-1.4-35.6-1.8-53.3-0.7C20.1,67.5,20.1,69.2,21.3,69.2L21.3,69.2z"/>
	</g>
</g>
<g>
	<g>
		<path fill="#AED6D3" d="M75.7,106.8c5.5,5.1,9,11.7,9.6,19.2c0.6,7-1.4,17.9-9,20.4c-1.3,0.4-0.8,2.5,0.6,2
			c7.8-2.4,10.7-12.4,10.7-19.7c0.1-8.9-3.9-17.4-10.7-23.1C76.1,105,75,106.1,75.7,106.8L75.7,106.8z"/>
	</g>
</g>
<g>
	<g>
		<path fill="#AED6D3" d="M20,101.1c6.6-0.2,13.1-0.3,19.6-0.6c-0.4-0.4-0.7-0.7-1.1-1.1c-2.2,17.4,0.1,35.8,0.8,53.2
			c0.4-0.4,0.7-0.7,1.1-1.1c-6.8-0.1-13.6-0.2-20.4,0.4c-1.4,0.1-1.4,2.2,0,2.2c6.8-0.2,13.6-0.6,20.4-0.4c0.6,0,1.1-0.5,1.1-1.1
			c-0.6-17.5-2.9-35.8-0.7-53.2c0.1-0.6-0.6-1.1-1.1-1.1C33.1,98.6,26.6,99,20,99.4C18.9,99.5,18.9,101.2,20,101.1L20,101.1z"/>
	</g>
</g>
<g>
	<g>
		<path fill="#AED6D3" d="M421.9,67.4c-17-1-34.2-0.6-51.2,0.7c-0.5,0-1,0.4-1,1c0.5,37.1,0,74.3-1.1,111.4c0,0.6,0.5,0.9,1,1
			c17.6,2.1,35.2,2.6,52.8,1.3c1.5-0.1,1.5-2.4,0-2.3c-17.6,1.3-35.3,1.1-52.8-1c0.3,0.3,0.7,0.7,1,1c1.1-37.1,1.4-74.2,1.1-111.4
			c-0.3,0.3-0.7,0.7-1,1c17-1.3,34.1-1.5,51.2-1C423.1,69.2,423.1,67.5,421.9,67.4L421.9,67.4z"/>
	</g>
</g>
<g>
	<g>
		<path fill="#AED6D3" d="M368.5,105.6c-6.6,5.8-10.3,14.3-10.3,23.1c0,7.2,2.6,17.3,10.3,19.7c1.3,0.4,1.8-1.6,0.6-2
			c-7.5-2.6-9.2-13.6-8.6-20.4c0.6-7.4,3.9-14,9.2-19.2C370.5,106.1,369.3,105,368.5,105.6L368.5,105.6z"/>
	</g>
</g>
<g>
	<g>
		<path fill="#AED6D3" d="M423.2,99.4c-6.3-0.4-12.6-0.8-18.9-1.1c-0.5,0-1.2,0.5-1.1,1.1c2.1,17.4-0.1,35.7-0.7,53.2
			c0,0.6,0.5,1.1,1.1,1.1c6.5-0.1,13,0.2,19.6,0.4c1.4,0.1,1.4-2.1,0-2.2c-6.5-0.5-13.1-0.5-19.6-0.4c0.4,0.4,0.7,0.7,1.1,1.1
			c0.7-17.5,2.9-35.8,0.7-53.2c-0.4,0.4-0.7,0.7-1.1,1.1c6.3,0.3,12.6,0.4,18.9,0.6C424.3,101.2,424.3,99.5,423.2,99.4L423.2,99.4z"
			/>
	</g>
</g>
<g>
	<g>
		<path fill="#AED6D3" d="M220.1,98.4c-11.6,1.1-24,4.8-26.8,17.7c-2.4,11.1-1.6,25.6,9.1,31.9c5.1,3,11.4,5.9,17.4,5.9
			c7.1,0.1,14.6-3.2,20.8-6.5c10.3-5.5,20-16.7,14.9-29c-6-14.5-23.6-17-37.2-18.6c-1.5-0.2-1.5,2.2,0,2.3
			c13,1.5,32.2,4.2,35.9,19.6c3.9,16.4-17.7,27.5-30.8,29.5c-7,1-14.4-1.9-20.2-5.6c-7.2-4.6-7.8-11.9-8-19.8
			c-0.2-7.5,0.9-15.3,7.5-19.9c5.2-3.6,11.7-4.7,17.8-5.8C221.3,100,221.1,98.3,220.1,98.4L220.1,98.4z"/>
	</g>
</g>
</svg>
