<?xml version="1.0" encoding="utf-8"?>
<!-- Generator: Adobe Illustrator 15.1.0, SVG Export Plug-In . SVG Version: 6.00 Build 0)  -->
<!DOCTYPE svg PUBLIC "-//W3C//DTD SVG 1.1//EN" "http://www.w3.org/Graphics/SVG/1.1/DTD/svg11.dtd">
<svg version="1.1" id="Layer_2" xmlns="http://www.w3.org/2000/svg" xmlns:xlink="http://www.w3.org/1999/xlink" x="0px" y="0px"
	 width="340px" height="200px" viewBox="0 0 340 200" enable-background="new 0 0 340 200" xml:space="preserve">
<line fill="none" stroke="#D58528" stroke-width="2" stroke-miterlimit="10" x1="319.167" y1="160.832" x2="340" y2="160.832"/>
<line fill="none" stroke="#D58528" stroke-width="2" stroke-miterlimit="10" x1="195" y1="123.27" x2="340" y2="123.27"/>
<circle fill="#EB9D2C" cx="26" cy="53.937" r="12.667"/>
<polyline fill="none" stroke="#D58528" stroke-width="2" stroke-miterlimit="10" points="26,66.604 26,154.998 80.25,154.998 
	80.25,54.102 135,54.102 135,150.082 197,150.082 197,78.082 308.501,78.082 308.501,22.646 "/>
<rect x="2.25" y="101.25" fill="#D58528" width="48" height="12"/>
<rect x="58" y="101.25" fill="#D58528" width="45" height="12"/>
<rect x="111.625" y="101.25" fill="#D58528" width="47.125" height="12"/>
<rect x="172.541" y="97.25" fill="#D58528" width="49.377" height="12"/>
<rect x="169.625" y="117.25" fill="#D58528" width="55.209" height="12"/>
<rect x="179.541" y="154.583" fill="#D58528" width="33.293" height="12"/>
<polyline fill="none" stroke="#D58528" stroke-width="2" stroke-miterlimit="10" points="134.75,160.832 309.02,160.832 309.02,200 
	"/>
<circle fill="#EB9D2C" cx="135" cy="53.937" r="12.666"/>
<circle fill="#EB9D2C" cx="135" cy="155.438" r="12.666"/>
<rect x="118.083" y="141.248" fill="#D58528" width="9.833" height="9.834"/>
<text transform="matrix(1 0 0 1 120.834 149.6875)" fill="#EB9D2C" font-family="'MyriadPro-Bold'" font-size="10.0419">?</text>
<text transform="matrix(1 0 0 1 5.2505 109.6738)" fill="#F9A638" font-family="'MyriadPro-Bold'" font-size="7">AFTER DELAY</text>
<text transform="matrix(1 0 0 1 8.2505 177.0068)" fill="#BF7029" font-family="'MyriadPro-Bold'" font-size="8">WELCOME</text>
<text transform="matrix(1 0 0 1 116 76.5068)" fill="#BF7029" font-family="'MyriadPro-Bold'" font-size="8">WAIT 24HR</text>
<text transform="matrix(1 0 0 1 5.2505 76.5068)" fill="#BF7029" font-family="'MyriadPro-Bold'" font-size="8">SUBSCRIBE</text>
<text transform="matrix(1 0 0 1 113.25 178.0068)" fill="#BF7029" font-family="'MyriadPro-Bold'" font-size="8">LIQUIDATOR</text>
<text transform="matrix(1 0 0 1 238 185.0068)" fill="#BF7029" font-family="'MyriadPro-Bold'" font-size="8">WEBINAR</text>
<g>
	<text transform="matrix(1 0 0 1 114.584 109.6738)" fill="#F9A638" font-family="'MyriadPro-Bold'" font-size="7">AFTER DELAY</text>
</g>
<g>
	<text transform="matrix(1 0 0 1 176 105.6738)" fill="#F9A638" font-family="'MyriadPro-Bold'" font-size="7">IF UNOPENED</text>
</g>
<g>
	<text transform="matrix(1 0 0 1 172 125.6738)" fill="#F9A638" font-family="'MyriadPro-Bold'" font-size="7">PAGE ABANDON</text>
</g>
<rect x="280.896" y="45.333" fill="#D58528" width="55.209" height="12"/>
<g>
	<text transform="matrix(1 0 0 1 283.2715 53.7568)" fill="#F9A638" font-family="'MyriadPro-Bold'" font-size="7">PAGE ABANDON</text>
</g>
<g>
	<text transform="matrix(1 0 0 1 189 163.1035)" fill="#F9A638" font-family="'MyriadPro-Bold'" font-size="7">ELSE</text>
</g>
<g>
	<text transform="matrix(1 0 0 1 61.9175 109.6738)" fill="#F9A638" font-family="'MyriadPro-Bold'" font-size="7">EMAIL SENT</text>
</g>
<circle fill="#EB9D2C" cx="26" cy="154.998" r="12.667"/>
<rect x="19.469" y="150.666" fill="#D58528" width="13.062" height="8.584"/>
<polyline fill="#EB9D2C" points="20.392,151.59 26,154.998 31.663,151.534 "/>
<text transform="matrix(1 0 0 1 239.918 100.2788)" fill="#BF7029" font-family="'MyriadPro-Bold'" font-size="8">RE-SEND</text>
<circle fill="#EB9D2C" cx="255.667" cy="78.27" r="12.667"/>
<rect x="249.137" y="73.938" fill="#D58528" width="13.061" height="8.584"/>
<polyline fill="#EB9D2C" points="250.059,74.862 255.667,78.27 261.33,74.806 "/>
<text transform="matrix(1 0 0 1 233.918 145.2793)" fill="#BF7029" font-family="'MyriadPro-Bold'" font-size="8">NEED HELP?</text>
<circle fill="#EB9D2C" cx="255.667" cy="123.271" r="12.667"/>
<rect x="249.137" y="118.938" fill="#D58528" width="13.061" height="8.584"/>
<polyline fill="#EB9D2C" points="250.059,119.861 255.667,123.27 261.33,119.807 "/>
<text transform="matrix(1 0 0 1 285.877 35.6753)" fill="#BF7029" font-family="'MyriadPro-Bold'" font-size="8">NEED HELP?</text>
<circle fill="#EB9D2C" cx="308.626" cy="13.667" r="12.667"/>
<rect x="302.096" y="9.334" fill="#D58528" width="13.061" height="8.584"/>
<polyline fill="#EB9D2C" points="303.018,10.258 308.626,13.666 314.289,10.203 "/>
<circle fill="#EB9D2C" cx="255.667" cy="163.433" r="12.667"/>
<rect x="249.137" y="159.1" fill="#D58528" width="13.061" height="8.584"/>
<polyline fill="#EB9D2C" points="250.059,160.023 255.667,163.432 261.33,159.969 "/>
<rect x="128.469" y="151.145" fill="#D58528" width="13.062" height="8.584"/>
<polyline fill="#EB9D2C" points="129.393,152.068 135,155.477 140.662,152.014 "/>
<circle fill="#EB9D2C" cx="308.627" cy="164.193" r="12.666"/>
<rect x="291.709" y="150.004" fill="#D58528" width="9.834" height="9.834"/>
<text transform="matrix(1 0 0 1 294.4609 158.4434)" fill="#EB9D2C" font-family="'MyriadPro-Bold'" font-size="10.0419">?</text>
<rect x="302.096" y="159.9" fill="#D58528" width="13.062" height="8.584"/>
<polyline fill="#EB9D2C" points="303.02,160.824 308.627,164.232 314.289,160.77 "/>
<rect x="133.125" y="45.875" fill="#D58528" width="3.75" height="2.163"/>
<rect x="19.333" y="46.562" fill="#D58528" width="13.333" height="15.08"/>
<rect x="20.417" y="47.728" fill="#EB9D2C" width="11.083" height="12.667"/>
<rect x="21.667" y="57.167" fill="#D58528" width="8.667" height="2.204"/>
<circle fill="#D58528" cx="135" cy="54.102" r="6.064"/>
<circle fill="#EB9D2C" cx="135" cy="54.102" r="5.064"/>
<line fill="none" stroke="#D58528" stroke-miterlimit="10" x1="135" y1="50.25" x2="135" y2="54.102"/>
<circle fill="#EB9D2C" cx="308.501" cy="77.57" r="12.666"/>
<text transform="matrix(1 0 0 1 289.501 100.1396)" fill="#BF7029" font-family="'MyriadPro-Bold'" font-size="8">WAIT 24HR</text>
<rect x="306.626" y="69.508" fill="#D58528" width="3.75" height="2.163"/>
<circle fill="#D58528" cx="308.501" cy="77.735" r="6.064"/>
<circle fill="#EB9D2C" cx="308.501" cy="77.735" r="5.064"/>
<line fill="none" stroke="#D58528" stroke-miterlimit="10" x1="308.501" y1="73.883" x2="308.501" y2="77.735"/>
<circle fill="#EB9D2C" cx="308.501" cy="123.57" r="12.666"/>
<text transform="matrix(1 0 0 1 289.501 145.1396)" fill="#BF7029" font-family="'MyriadPro-Bold'" font-size="8">WAIT 24HR</text>
<rect x="306.626" y="115.508" fill="#D58528" width="3.75" height="2.162"/>
<circle fill="#D58528" cx="308.501" cy="123.734" r="6.064"/>
<circle fill="#EB9D2C" cx="308.501" cy="123.734" r="5.064"/>
<line fill="none" stroke="#D58528" stroke-miterlimit="10" x1="308.501" y1="119.883" x2="308.501" y2="123.734"/>
</svg>
