<?xml version="1.0" encoding="utf-8"?>
<!-- Generator: Adobe Illustrator 15.1.0, SVG Export Plug-In . SVG Version: 6.00 Build 0)  -->
<!DOCTYPE svg PUBLIC "-//W3C//DTD SVG 1.1//EN" "http://www.w3.org/Graphics/SVG/1.1/DTD/svg11.dtd">
<svg version="1.1" id="Layer_3" xmlns="http://www.w3.org/2000/svg" xmlns:xlink="http://www.w3.org/1999/xlink" x="0px" y="0px"
	 width="237.528px" height="151.75px" viewBox="0 0 237.528 151.75" enable-background="new 0 0 237.528 151.75"
	 xml:space="preserve">
<path fill="#F2F2F2" d="M48.279,35.305c0,0,13.977-15.284,31.12-20.482s37.018-6.573,37.018-6.573s-7.803,22.814-4.839,34.032
	c0,0-22.65,2.407-33.156,11.812c0,0,1.245-9.595-9.255-14.345S48.279,35.305,48.279,35.305z"/>
<path fill="#F2F2F2" d="M139.951,45.781c0,0-0.357-10.506,2.486-17.984c2.844-7.479,5.722-14.522,5.722-14.522
	s20.127,6.045,32.067,17.385s20.892,22.358,22.187,35.147c0,0-4.246-11.017-21.746-9.725s-16.414,5.085-18.332,10.001
	c0,0-6.043-15.021-22.668-20.303"/>
<path fill="#F2F2F2" d="M163.369,82.012c0,0-3.636,10.639-15.419,15.438s-26.945,5.814-26.945,5.814s-3.014,8.655-4.739,20.82
	S111.5,143.67,111.5,143.67s31.87,2.025,52.769-9.76s33.035-28.88,35.702-38.11c0,0-0.148-8.502-14.624-11.869
	S163.369,82.012,163.369,82.012z"/>
<path fill="#F2F2F2" d="M88.042,96.811c0,0-6.301,6.358-9.032,16.846s-3.288,21.562-3.288,21.562s-18.281-9.515-26.753-20.018
	S33.548,96.957,31.92,83.854s0.822-21.689,0.822-21.689s10.704-5.107,19.752-2.261s16.235,10.845,17.228,12.743
	c0,0-0.805,5.229,3.945,11.104S86.292,95.246,88.042,96.811z"/>
<path fill="#EF3837" d="M47.771,35.836c0,0,12.267-1.811,19.646,3.039s10.386,8.689,11.005,15.22c0,0-8.271,8.323-8.701,18.552
	c0,0-6.275-11.09-17.228-12.743s-14.177-0.69-19.752,1.828C32.742,61.731,36.75,47.047,47.771,35.836z"/>
<path fill="#EF3837" d="M111.491,41.916c0,0-1.696-7.746,0.826-18.137c2.522-10.391,4.1-15.529,4.1-15.529s20.984,1.55,31.742,5.025
	c0,0-8.117,13.788-8.492,32.506C139.667,45.781,126.065,40.082,111.491,41.916z"/>
<path fill="#EF3837" d="M162.334,66.084c0,0-0.033-10.428,19.712-9.943s20.366,9.667,20.366,9.667s3.98,10.132-1.758,28.1
	c0,0-3.525-8.252-17.609-10.484s-19.677-1.411-19.677-1.411S165.002,76.168,162.334,66.084z"/>
<path fill="#EF3837" d="M120.951,103.377c0,0-2.421,7.334-4.291,18.122S111.5,143.67,111.5,143.67s-12.823-1.209-19.953-2.439
	s-15.38-5.48-15.38-5.48s-1.068-12.18,2.785-21.87s8.465-17.886,10.055-17.069S106.364,105.519,120.951,103.377z"/>
<path fill="#C92027" d="M73.955,43.34c0,0-9.712,7.688-11.625,20.986l7.392,8.32c0,0,1.206-12.082,8.701-18.552s-0.659,0.6-0.33,0.3
	S78.743,46.93,73.955,43.34"/>
<path fill="#C92027" d="M110.933,32.75c0,0,14.789-1.49,29.636,2.755l0,0L139.667,46c0,0-13.459-5.846-28.167-3.985s0,0,0,0
	S110.199,35.875,110.933,32.75"/>
<path fill="#C92027" d="M167.571,58.572c0.002-0.003,4.594,8.049,2.345,22.988l0,0l-6.271-0.451c0,0,1.482-7.316-1.311-15.025l0,0
	C162.334,66.084,164.018,60.097,167.571,58.572"/>
<path fill="#C92027" d="M76.917,121.125c0,0,13.555,9.637,38.402,7.756l0,0L111.5,143.67c0,0-17.269,0.756-35.238-7.77
	s-0.095-0.15-0.095-0.15S74.792,126.75,76.917,121.125"/>
<path fill="#E8E8E8" d="M115.319,128.881c1.015-0.214,60.515-1.048,80.015-23.548c0,0-15.541,25.254-43.771,33.877
	C130,145.5,111.5,143.67,111.5,143.67L115.319,128.881z"/>
<path fill="#E8E8E8" d="M76.87,121.125c0,0-42.736-26.993-44.803-51.059s0,0,0,0S26.833,85.502,42,106.668
	s33.032,28.551,33.032,28.551S75.74,123.583,76.87,121.125"/>
<path fill="#E8E8E8" d="M73.957,43.342c0,0,8.242-9.674,36.976-10.674c-0.391,2.832,0.307,9.653,0.307,9.653
	s-20.837,2.284-32.518,11.513C77.435,48.83,75.661,44.914,73.957,43.342"/>
<path fill="#E8E8E8" d="M140.569,35.61c0,0,19.368,7.764,26.941,22.993c-2.927,2.729-4.425,3.731-5.176,7.48
	c-3.084-5.834-8.767-14.604-22.384-20.303"/>
<path fill="#E8E8E8" d="M140.569,35.61"/>
<path fill="#D1D3D4" d="M140.398,46.628c6.039,2.702,10.392,6.397,14.665,10.03l0.549,0.466c2.199,1.867,4.578,5.159,6.181,9.178
	c0.04-0.1,0.073-0.202,0.116-0.301c0.157-0.36,0.335-0.751,0.601-1.053c-1.669-3.809-3.976-6.918-6.12-8.738l-0.549-0.466
	c-4.488-3.815-9.062-7.699-15.516-10.475C140.377,45.72,140.393,46.173,140.398,46.628z"/>
<path fill="#D1D3D4" d="M78.792,54.573c9.055-8.067,25.655-10.828,32.593-11.657c-0.099-0.396-0.199-0.793-0.286-1.192
	c-7.011,0.812-23.069,3.479-32.478,11.397C78.7,53.604,78.757,54.088,78.792,54.573z"/>
<path fill="#D1D3D4" d="M89.286,96.217c-11.691-6.296-16.645-14.873-16.721-15.009l-0.084-0.116
	c-0.04-0.042-2.497-2.811-2.139-8.604c-0.393-0.273-0.782-0.552-1.168-0.834c-0.652,6.429,1.955,9.713,2.379,10.2
	c0.47,0.798,5.466,8.914,16.566,15.087C88.513,96.704,88.896,96.452,89.286,96.217z"/>
<path fill="#D1D3D4" d="M162.828,81.67c-2.551,8.723-10.914,15.025-24.307,18.249c-5.862,1.471-11.545,2.371-16.96,2.705
	c-0.14,0.433-0.354,0.834-0.576,1.231c5.684-0.304,11.658-1.225,17.822-2.771c17.5-4.213,23.441-12.725,25.28-19.393
	C163.672,81.707,163.249,81.677,162.828,81.67z"/>
<path fill="#D1D3D4" d="M200.464,92.479c-5.533,17.548-19.604,32.826-40.06,42.73c-10.517,5.092-25.966,8.013-42.389,8.013h-0.004
	c-2.144,0-4.266-0.05-6.356-0.145c-0.134,0.388-0.237,0.783-0.317,1.184c2.194,0.104,4.421,0.16,6.673,0.16c0.002,0,0.002,0,0.004,0
	c16.841,0,32.082-2.888,42.912-8.132c20.307-9.833,34.413-24.907,40.29-42.271C200.966,93.508,200.704,92.998,200.464,92.479z"/>
<path fill="#D1D3D4" d="M76.281,135.127c-10.033-5.522-41.979-25.407-44.267-55.423c-0.492-6.46,0.07-12.3,1.388-17.622
	c-0.461,0.227-0.928,0.442-1.399,0.648c-1.178,5.182-1.659,10.84-1.185,17.065c2.345,30.782,35.082,51.013,45.06,56.48
	c0.127,0.069,0.266,0.136,0.395,0.204C76.251,136.031,76.254,135.58,76.281,135.127z"/>
<path fill="#D1D3D4" d="M168.973,21.734C154.38,13.07,136.212,8.2,116.395,7.65c-0.354,0.013-35.647,1.412-54.082,14.865
	c-5.177,3.778-10.571,8.14-15.413,13.301c0.585-0.084,1.175-0.117,1.769-0.113c4.55-4.699,9.546-8.712,14.351-12.218
	C81.157,10.25,116.087,8.862,116.4,8.85c19.575,0.544,37.543,5.356,51.96,13.917c4.995,2.966,27.596,17.549,33.367,41.306
	c0.612,0.592,1.366,2.359,1.857,3.053C198.613,41.59,174.203,24.839,168.973,21.734z"/>
<path fill="none" stroke="#9C4B3B" stroke-width="1.2" stroke-linecap="round" stroke-miterlimit="10" d="M78.422,54.095
	c0,0,0.62-10.345-11.505-15.47s-19.146-2.789-19.146-2.789S36.733,45.912,32.742,62.164c0,0,10.175-6.248,21.925-1.498
	s15.055,11.98,15.055,11.98S71.094,60.606,78.422,54.095z"/>
<path fill="none" stroke="#9C4B3B" stroke-width="1.2" stroke-linecap="round" stroke-miterlimit="10" d="M116.417,8.25
	c0,0-2.583,7.5-4.25,16.5s-1.928,13.23-0.589,17.532c0,0,17.157-2.054,28.373,3.499c0,0-0.701-9.865,3.216-20.031
	c3.917-10.167,4.992-12.475,4.992-12.475S132.667,8.417,116.417,8.25z"/>
<path fill="none" stroke="#9C4B3B" stroke-width="1.2" stroke-linecap="round" stroke-miterlimit="10" d="M203.104,67.875
	c0,0-1.771-9.958-15.104-11.291s-23.164-0.584-25.665,9.5c0,0,3.403,9.188,1.034,15.928c0,0,7.797-1.511,18.381,0.989
	s16.322,5.609,18.453,12.18C200.203,95.181,205.708,81.416,203.104,67.875z"/>
<path fill="none" stroke="#9C4B3B" stroke-width="1.2" stroke-linecap="round" stroke-miterlimit="10" d="M89.007,96.811
	c0,0-3.34-0.144-7.924,11.273s-6.25,20.165-4.917,27.666c0,0,14.416,7.84,35.333,7.92c0,0,4.128-13.418,5.48-24.252
	s4.025-16.153,4.025-16.153S103.848,105.37,89.007,96.811z"/>
<path fill="#E0C9AD" d="M108.104,144.25c0.432,0.2,3.956,1.557,7.352-1.051s10.522-7.584,13.408-15.683s8.207-18.224,10.797-23.661
	s14.369-11.323,18.575-15.541s11.247-8.742,19.006-8.361s15.975,3.712,18.249,8.49s4.051,11.889,5.988,11.182
	s-0.763-5.589-1.509-7.418s-3.921-10.27-13.362-12.779s-14.492-3.142-21.842,0.966s-10.029,8.548-16.356,12.369
	s-10.158,7.399-14.909,17.235s-7.431,19.196-12.549,24.933S108.104,144.25,108.104,144.25z"/>
<path fill="#E0C9AD" d="M77.333,137.083c0,0-6.346-6.168-5.256-13.75s4.678-12.571,8.471-18s7.297-9.732,5.5-13.407
	s-5.555-3.232-12.385-13.787c0,0-9.118-11.395-13.961-13.544s-8.401-4.082-18.017-1.603s-10.323,4.299-10.323,4.299l0.222-2.541
	c0,0-4.514,3.882-3.132,6.441s2.715,3.309,3.798-0.107s1.5-4.166,11-6.083s12.577-1.842,19.08,4.537S74.991,83.716,76.87,85.483
	s5.046,4.852,5.879,6.268s1.215,3.81-1.149,7.453s-5.602,7.67-7.434,11.129s-4.693,8.919-4.722,14.335s1.352,8.201,3.662,10.809
	S77.333,137.083,77.333,137.083z"/>
<path fill="none" stroke="#A8967E" stroke-miterlimit="10" d="M108.104,144.25c0,0,11.188-3.5,17.562-16.625s9.5-26.25,20-33
	s18.75-16.625,27-17.125s22,2.25,26.25,12.125c3.062,7.5,3.938,9.5,2.562,10s-1.938-0.562-2.875-3.75S195.292,84,186.417,81.562
	s-15.5-2.375-21.25,1.688s-9.5,7.062-14.25,10.562s-7.438,4.441-10.938,9.564s-5.875,12.041-7.875,16.863
	s-5.511,13.385-11.099,18.447s-6.463,5.125-8.776,5.875S108.104,144.25,108.104,144.25z"/>
<path fill="#A8967E" d="M76.519,137.681C76.519,137.681,76.519,137.681,76.519,137.681c-2.347,0-4.705-2.141-6.309-5.727
	c-3.533-9.419,1.232-17.827,3.521-21.867c1.395-2.462,2.727-4.279,4.014-6.037c1.353-1.847,2.631-3.591,3.896-5.953
	c2.429-4.533,1.215-5.688-0.32-7.151c-1.783-1.698-7.774-8.186-10.562-12.071c-2.835-3.951-9.147-9.753-14.37-13.207
	c-1.218-0.806-3.073-1.214-5.514-1.214c-6.42,0-14.999,2.868-16.802,3.86c-0.848,0.466-1.194,1.736-1.5,2.856
	c-0.332,1.216-0.675,2.473-1.776,2.473c-0.533,0-1.132-0.326-1.888-1.025c-0.877-0.813-1.294-1.77-1.24-2.843
	c0.141-2.776,3.471-5.317,3.612-5.424l0.482-0.515l-0.403,2.83c1.515-1.067,5.545-3.238,13.452-4.905
	c1.664-0.351,3.299-0.528,4.858-0.528c7.953,0,12.874,4.574,16.13,7.602c0.579,0.537,1.111,1.032,1.605,1.451
	c1.688,1.432,3.961,4.232,6.593,7.475c3.341,4.118,7.129,8.784,10.308,11.262c5.63,4.388,1.288,10.293-2.913,16.003
	c-0.332,0.451-0.663,0.902-0.99,1.353c-5.523,7.606-8.109,13.91-7.905,19.271c0.239,6.294,5.129,11.026,5.178,11.073l0.663,0.633
	l-0.89,0.216C77.144,137.644,76.83,137.681,76.519,137.681z M50.876,63.453c2.641,0,4.682,0.465,6.066,1.38
	c5.309,3.512,11.735,9.423,14.63,13.459c2.707,3.772,8.726,10.298,10.438,11.929c1.933,1.841,3.101,3.518,0.513,8.349
	c-1.299,2.424-2.597,4.196-3.972,6.072c-1.271,1.734-2.584,3.527-3.951,5.938c-2.215,3.909-6.824,12.042-3.467,20.995
	c1.056,2.358,2.945,4.901,5.119,5.095c-1.454-1.646-4.555-5.748-4.753-10.984c-0.212-5.593,2.436-12.101,8.095-19.896
	c0.329-0.452,0.661-0.904,0.994-1.356c4.097-5.571,7.967-10.833,3.104-14.622c-3.269-2.548-7.095-7.262-10.47-11.42
	c-2.492-3.071-4.846-5.972-6.462-7.342c-0.505-0.429-1.048-0.934-1.64-1.482c-3.329-3.096-7.889-7.334-15.449-7.334
	c-1.491,0-3.056,0.17-4.652,0.507c-11.642,2.455-13.337,4.986-13.353,5.012l-1.208,1.938l0.462-3.694
	c-0.92,0.892-2.179,2.369-2.252,3.833c-0.039,0.773,0.263,1.446,0.921,2.056c0.74,0.686,1.091,0.76,1.208,0.76
	c0.338,0,0.59-0.922,0.812-1.736c0.34-1.247,0.764-2.799,1.983-3.47C35.694,66.281,44.354,63.453,50.876,63.453z"/>
</svg>
