<?xml version="1.0" encoding="utf-8"?>
<!-- Generator: Adobe Illustrator 15.1.0, SVG Export Plug-In . SVG Version: 6.00 Build 0)  -->
<!DOCTYPE svg PUBLIC "-//W3C//DTD SVG 1.1//EN" "http://www.w3.org/Graphics/SVG/1.1/DTD/svg11.dtd">
<svg version="1.1" xmlns="http://www.w3.org/2000/svg" xmlns:xlink="http://www.w3.org/1999/xlink" x="0px" y="0px"
	 width="237.528px" height="208.083px" viewBox="0 0 237.528 208.083" enable-background="new 0 0 237.528 208.083"
	 xml:space="preserve">
<g id="Layer_5">
	<path fill="#B5A38C" d="M21.361,88.789l-2.494,6.767l4.641,1.276l1.718,0.676c0,0,9.437,2.265,8.451,14.821l9.505-4.075
		c0,0,3.843-9.227-6.289-16.641C27.947,86.146,21.361,88.789,21.361,88.789"/>
	<path fill="#DACEBD" d="M37.37,92.689c-3.754-2.484-8.401-3.586-12.872-3.056c-0.613,0.073-1.262,0.195-1.711,0.619
		c-0.362,0.344-0.539,0.839-0.701,1.311c-0.328,0.949-0.566,2.205,0.257,2.783c0,0,0.429,0.432,1.347,0.387
		c0.917-0.044,2.646,0,3.426,0.465c3.458,2.058,5.832,5.483,7.823,8.979c0.611,1.072,1.313,2.242,2.487,2.618
		c1.458,0.466,3.058-0.569,3.728-1.946c0.668-1.376,0.623-2.978,0.493-4.502c-0.13-1.54-0.344-3.117-1.088-4.47
		C39.829,94.546,38.635,93.527,37.37,92.689"/>
	<path fill="#837970" d="M42.945,108.237c-3.229,0.816-6.415,2.201-9.311,3.842c-0.745,0.422-0.282,1.648,0.53,1.261
		c2.997-1.429,6.041-2.719,9.059-4.093C43.745,109.01,43.551,108.084,42.945,108.237"/>
	<path fill="#837970" d="M33.203,103.771c-1.606-7.69-10.797-8.437-13.646-8.481c0.594-2.039,1.273-4.021,2.143-5.966
		c0.018-0.04,0.018-0.075,0.025-0.112c2.431-0.713,4.927-0.721,7.314-0.185c0.075-0.356,0.183-0.705,0.321-1.036
		c-2.808-0.683-5.677-0.717-8.193,0.332c-0.215,0.09-0.301,0.255-0.302,0.423c-0.054,0.046-0.102,0.105-0.139,0.181
		c-0.996,2.014-1.807,4.116-2.37,6.292l-0.006-0.001c0,0-0.007,0.034-0.019,0.088c-0.015,0.061-0.035,0.119-0.05,0.18
		c-0.01,0.042-0.002,0.078-0.002,0.117c-0.119,0.743-0.289,2.402,0.326,3.486c0.383,0.675,2.4,0.699,4.26,0.404
		c3.05,2.937,7.002,6.402,9.077,6.845c0.452-0.445,0.975-0.78,1.533-1.016c-0.043-0.165-0.08-0.333-0.125-0.496
		C33.333,104.522,33.287,104.175,33.203,103.771z"/>
	<path fill="#DACEBD" d="M30.262,204.056c3.672-0.08,7.282-0.621,11.016,0.044c4.528,0.808,8.394,1.959,13,1.669
		c0.549-0.347,1.276-0.387,1.873,0.205c2.203,2.187,8.031,2.236,10.796,1.407c3.217-0.966,5.831-2.729,7.269-5.451
		c0.777-5.536,1.038-11.261,0.239-15.681l-15.732,0.246v-3.674l-9.828-0.385c0,0,0.318,4.658-2.385,5.094
		s-15.773,1.617-15.773,1.617s-3.867,3.209-0.467,14.109C30.269,203.257,30.279,203.57,30.262,204.056z"/>
	<path fill="#E5DBD1" d="M57.042,194.228c0.826,1.128,1.055,2.576,1.141,3.971c0.024,0.388,0.016,0.776,0.022,1.165
		c0.453,2.604,1.682,5.199,4.793,5.081c2.958-0.111,5.145-1.33,6-4.289c0.278-0.962,0.463-1.933,0.6-2.909
		c-0.296-3.056-1.032-6.117-1.777-9.103c-0.076-0.304-0.158-0.621-0.371-0.853c-0.352-0.385-0.941-0.411-1.463-0.411
		c-2.395,0.004-4.791,0.008-7.184,0.011c-0.436,0.001-0.936-0.029-1.193-0.378c-0.158-0.211-0.182-0.487-0.201-0.75
		c-0.078-1.032-0.154-2.066-0.23-3.1c-2.652-0.014-5.305-0.028-7.955-0.043c-0.43-0.002-0.936,0.037-1.156,0.404
		c-0.193,0.32-0.064,0.728,0.018,1.094c0.465,2.067-1.283,4.435-3.398,4.306c2.42,0.09,4.797,1.087,6.557,2.751
		c-2.93-0.151-5.975-0.285-8.678,0.857c-1.117,0.473-2.182,1.195-2.766,2.259c-0.702,1.271-0.611,2.773-0.517,4.249
		c1.871,2.979,3.73,5.077,7.761,5.671c1.418,0.208,5.392,0.647,5.734-1.67c0.083-0.565,0.101-1.135,0.096-1.706
		c-0.093-0.36-0.177-0.724-0.287-1.08c-0.367-1.188-0.83-2.376-0.854-3.621c-0.023-1.244,0.514-2.597,1.641-3.123
		C54.64,192.42,56.218,193.101,57.042,194.228z"/>
	<path fill="#BBAD9E" d="M74.195,186.473c-2.66,0.254-5.32,0.509-7.98,0.764c-1.469,0.14-2.941,0.28-4.418,0.312
		c-1.229,0.027-2.498-0.03-3.609-0.551c-0.229-0.107-0.459-0.243-0.584-0.461c-0.125-0.216-0.129-0.479-0.131-0.729
		c-0.002-0.873-0.006-1.744-0.008-2.616c-2.227,0.25-4.492,0.162-6.693-0.259c-0.656-0.125-1.434-0.248-1.912,0.22
		c-0.346,0.339-0.398,0.865-0.48,1.343c-0.236,1.393-0.941,2.761-2.133,3.521c-0.781,0.499-1.707,0.706-2.611,0.905
		c-1.129,0.247-2.266,0.493-3.404,0.714c0.002-0.178-0.01-0.359-0.035-0.532c-0.008-0.062-0.02-0.132-0.068-0.173
		c-0.051-0.043-0.125-0.04-0.191-0.034c-2.93,0.221-5.867,0.304-8.805,0.25c-0.127-0.003-0.262-0.003-0.369,0.065
		c-0.109,0.07-0.166,0.196-0.219,0.315c-0.111,0.267-0.227,0.532-0.34,0.799c0.199,0.033,0.402,0.05,0.602,0.08
		c1.316,0.974,3.109,1.062,4.77,1.089c1.736,0.027,3.473,0.054,5.209,0.081c3.383,0.053,6.797,0.103,10.119-0.552
		c-0.119-1.581-0.125-3.171-0.021-4.752c0.012-0.171,0.035-0.361,0.172-0.464c0.096-0.07,0.221-0.08,0.34-0.086
		c1.133-0.055,2.268-0.11,3.4-0.167c0.227-0.011,0.484-0.009,0.635,0.16c0.111,0.127,0.127,0.311,0.131,0.479
		c0.027,0.837-0.025,1.678-0.158,2.506c-0.031,0.198-0.066,0.414,0.033,0.589c0.111,0.202,0.357,0.28,0.58,0.338
		c5.906,1.551,12.221,1.513,18.107-0.109C74.371,188.526,74.396,187.477,74.195,186.473"/>
	<path fill="#A39686" d="M30.097,189.38c-3.701,3.015-2.43,9.923-0.93,13.741c0.334,0.852,1.697,0.522,1.404-0.387
		c-1.145-3.534-2.598-9.448,0.408-12.472C31.556,189.681,30.708,188.883,30.097,189.38"/>
	<path fill="#A39686" d="M72.595,205.782c0.143,0.328,0.38,0.547,0.766,0.536c0.248-0.007,0.474-0.155,0.683-0.375
		c0.14-0.711,0.28-1.422,0.407-2.139c1.012-5.733,1.219-11.513,0.752-17.31c-0.076-0.973-1.604-0.98-1.523,0
		c0.459,5.675,0.363,11.304-0.604,16.931C72.94,204.218,72.772,205.001,72.595,205.782z"/>
	<path fill="#A39686" d="M53.785,205.54c0.258,0.348,0.611,0.587,1.116,0.567c0.205-0.008,0.384-0.057,0.552-0.121
		c-0.368-3.19-1.034-6.24-1.693-8.735c-0.256-0.967-1.738-0.558-1.498,0.413C52.871,200.129,53.441,202.812,53.785,205.54z"/>
	<path fill="#A39686" d="M30.404,206.09c0.501-1.309,0.928-2.654,1.308-3.979c0.178-0.624-0.746-1.033-1.061-0.447
		c-0.596,1.106-1.051,2.325-1.526,3.529C29.4,205.805,29.865,206.071,30.404,206.09z"/>
	<path fill="#A39686" d="M49.894,196.384c1.404,0.123,2,0.92,3.088,1.604c0.648,0.408,1.346,0.415,2.098,0.412
		c1.674-0.006,3.324-0.252,4.561-1.461c0.682-0.665-0.312-1.587-1.021-1.021c-1.539,1.232-3.805,1.359-5.484,0.426
		c-1.119-0.622-1.91-1.05-3.24-1.038C49.191,195.312,49.214,196.323,49.894,196.384"/>
	<path fill="#DACEBD" d="M119.625,204.229c0.051-0.021,0.1-0.03,0.15-0.047c-0.064-0.538-0.106-1.078-0.132-1.621
		c-0.143-0.853-0.85-1.381,0.239-1.311c4.841,0.313,8.717,3.58,13.66,3.656c4.853,0.075,9.139-2.015,11.266-6.056
		c-0.752-5.056-1.591-10.067-1.591-10.067s-13.07-1.182-15.774-1.617c-2.703-0.436-2.385-5.094-2.385-5.094l-9.827,0.385v3.674
		l-15.733-0.246c-0.493,2.727-0.667,5.955-0.608,9.33c3.12-0.039,5.812,0.995,8.489,2.762
		C110.992,200.36,114.373,206.45,119.625,204.229z"/>
	<path fill="#E5DBD1" d="M133.778,193.399c-0.61-0.774-1.476-1.344-2.393-1.731c-2.702-1.143-5.748-1.009-8.677-0.857
		c1.76-1.664,4.137-2.661,6.557-2.751c-2.115,0.129-3.863-2.238-3.399-4.306c0.082-0.366,0.211-0.773,0.018-1.094
		c-0.221-0.367-0.727-0.406-1.155-0.404c-2.651,0.015-5.304,0.029-7.955,0.043c-0.076,1.033-0.153,2.067-0.23,3.1
		c-0.02,0.263-0.044,0.539-0.201,0.75c-0.259,0.349-0.759,0.379-1.193,0.378c-2.394-0.003-4.789-0.007-7.184-0.011
		c-0.522,0-1.111,0.026-1.464,0.411c-0.212,0.231-0.295,0.549-0.371,0.853c-0.24,0.96-0.473,1.929-0.697,2.901
		c0.012,2.509,0.927,4.778,3.419,5.854c2.422,1.046,4.594,0.795,6.223-1.368c1.118-1.485,2.21-2.813,4.103-2.701
		c0.474-0.07,0.956-0.026,1.399,0.181c1.127,0.526,1.664,1.879,1.641,3.123c-0.005,0.276-0.038,0.55-0.081,0.821
		c0.341,4.909,5.657,5.862,9.356,3.493C133.702,198.669,134.813,195.74,133.778,193.399z"/>
	<path fill="#BBAD9E" d="M100.124,185.17c2.66,0.254,4.953,1.447,7.613,1.702c1.47,0.14,2.037-0.142,3.513-0.109
		c1.229,0.027,3.69-2.158,4.803-2.679c0.229-0.107,0.184-0.43,0.31-0.647c0.125-0.216,0.115,2.257,0.116,2.007
		c0.003-0.873,0.006-1.744,0.009-2.616c2.227,0.25,4.491,0.162,6.692-0.259c0.657-0.125,1.435-0.248,1.912,0.22
		c0.346,0.339,0.399,0.865,0.48,1.343c0.237,1.393,0.941,2.761,2.133,3.521c0.781,0.499,1.707,0.706,2.612,0.905
		c1.129,0.247,2.265,0.493,3.404,0.714c-0.003-0.178,0.01-0.359,0.034-0.532c0.008-0.062,0.021-0.132,0.069-0.173
		c0.051-0.043,0.125-0.04,0.19-0.034c2.93,0.221,5.868,0.304,8.806,0.25c0.127-0.003,0.262-0.003,0.369,0.065
		c0.109,0.07,0.166,0.196,0.218,0.315c0.112,0.267,0.227,0.532,0.341,0.799c-0.2,0.033-0.402,0.05-0.603,0.08
		c-1.315,0.974-3.109,1.062-4.769,1.089c-1.737,0.027-3.473,0.054-5.209,0.081c-3.384,0.053-6.798,0.103-10.119-0.552
		c0.118-1.581,0.125-3.171,0.021-4.752c-0.012-0.171-0.035-0.361-0.171-0.464c-0.096-0.07-0.222-0.08-0.34-0.086
		c-1.134-0.055-2.268-0.11-3.401-0.167c-0.227-0.011-0.484-0.009-0.634,0.16c-0.111,0.127-0.127,0.311-0.132,0.479
		c-0.027,0.837,0.025,1.678,0.158,2.506c0.032,0.198,0.066,0.414-0.032,0.589c-0.112,0.202-0.357,0.28-0.581,0.338
		c-5.905,1.551-12.221,1.513-18.106-0.109c-0.25-0.992-0.276-2.042-0.074-3.046"/>
	<path fill="#A39686" d="M99.335,197.812c0.049-0.029,0.087-0.07,0.134-0.102c-0.113-3.877,0.127-7.743,0.64-11.617
		c0.129-0.975-1.396-1.044-1.522-0.077c-0.494,3.754-0.697,7.516-0.584,11.278C98.311,197.779,98.752,198.159,99.335,197.812z"/>
	<path fill="#A39686" d="M121.792,206.006c-0.743-2.904-1.192-5.879-1.516-8.627c-0.117-0.993-1.647-0.855-1.547,0.14
		c0.244,2.405,0.651,5.268,1.341,8.181C120.535,206.175,121.279,206.412,121.792,206.006z"/>
	<path fill="#A39686" d="M124.057,196.02c-1.404,0.123-1.999,0.92-3.087,1.604c-0.648,0.408-1.346,0.415-2.098,0.412
		c-1.675-0.006-3.325-0.252-4.562-1.461c-0.681-0.665,0.312-1.587,1.021-1.021c1.54,1.232,3.805,1.359,5.485,0.426
		c1.118-0.622,1.91-1.05,3.239-1.038C124.76,194.948,124.738,195.959,124.057,196.02"/>
	<path fill="#A39686" d="M143.945,195.773c0.038,0.372,0.072,0.746,0.106,1.119c0.083,0.89,0.168,1.81,0.299,2.711
		c0.075,0.514,0.119,1.071,0.164,1.633c0.035,0.437,0.074,0.878,0.125,1.312c0.012,0.04,0.03,0.075,0.04,0.118
		c0.074,0.313,0.339,0.837,0.622,0.755c0.281-0.081,0.033,0.089,0.234-0.127c0.13-0.14,0.202-0.243,0.307-0.452
		c0.014-0.027,0.021-0.056,0.033-0.083c-0.072-0.519-0.121-1.072-0.165-1.619c-0.047-0.588-0.095-1.172-0.173-1.709
		c-0.126-0.87-0.21-1.774-0.291-2.648c-0.035-0.377-0.07-0.754-0.108-1.131c-0.033-0.322-0.103-0.706-0.179-1.117
		c-0.173-0.938-0.388-2.105-0.12-2.707l-1.096-0.488c-0.419,0.941-0.178,2.254,0.036,3.413
		C143.849,195.127,143.915,195.479,143.945,195.773z"/>
</g>
<g id="Layer_1">
	<path fill="#84B2B2" d="M186.188,45.38l-19.994,31.007l-39.088-16.89c-3.628,2.849-7.104,5.911-10.438,9.149
		c-6.467,6.282-13.741,12.996-19.042,20.674c-5.942-5.479-19.055-2.848-31.435-0.654c-16.972,3.007-4.462,13.729,6.096,12.841
		c8.442-0.711,19.241,2.01,23.235,3.129c0.221,2.058,0.39,4.198,0.471,6.427c0.433,11.821,7.265,33.214,6.462,40.612
		c-0.804,7.399-0.13,21.088-13.988,27.882c0,0,2.506,3.041,10.418,5.255c7.91,2.213,11.521,4.76,17.807-0.771
		c0,0-1.17,3.824,2.129,9.029c0,0,2.831-3.431,13.053-2.384c10.221,1.045,18.909,0.687,18.909,0.687s-1.105-9.639,1.489-22.53
		c2.595-12.894,4.361-23.399,4.091-32.486c-0.269-9.087,6.826-25.979,15.722-41.021c8.896-15.042,22.44-35.122,22.44-35.122
		s0.937-4.171,6.318-6.368C200.844,53.847,193.958,26.5,186.188,45.38z"/>
	<path fill="#9BC9C7" d="M66.191,93.146c0,0,20.23-5.502,30.913,0.396s3.306-4.953-1.431-6.382s-13.735-2.702-20.496,0.173
		S64.591,91.46,66.191,93.146z"/>
	<path fill="#597673" d="M77.217,86.852c7.071-0.994,13.996,0.574,20.746,2.605c0.996,0.3,2.854-1.146,1.406-1.582
		c-7.11-2.139-14.476-3.774-21.921-2.728C76.144,85.331,75.572,87.083,77.217,86.852L77.217,86.852z"/>
	<path fill="#597673" d="M96.307,104.393l-0.071-0.404c0,0-1.911-0.281-3.71-0.9c-3.612-0.946-7.061-2.066-10.977-2.253
		c-5.818-0.275-11.588,0.169-17.39,0.563c-0.772,0.053-2.597,1.312-0.984,1.203c5.154-0.35,10.288-0.739,15.457-0.654
		c5.635,0.092,10.521,2.11,15.944,3.141c0.405,0.077,1.384-0.293,1.769-0.646C96.322,104.413,96.307,104.393,96.307,104.393z"/>
	<g>
		<path fill="#837970" d="M182.34,43.745c0,0-0.091,3.508,2.466,3.73c0.633-0.694,1.452-1.212,2.364-1.463
			c1.414-0.389,2.562-0.059,3.853,0.504c-1.306-0.57-0.242-0.123,0.03-0.021c0.614,0.228,1.203,0.482,1.811,0.738
			c0.507,0.214,0.968,0.453,1.409,0.783c0.764,0.571,1.28,1.082,1.808,1.75c1.05,0.604,1.876,1.58,2.24,2.905
			c0.235,0.855,0.207,1.782-0.031,2.653c0.734,1.042,2.889,3.799,4.652,1.539C205.011,54.212,198.329,39.114,182.34,43.745z"/>
		<path fill="#9BC9C7" d="M178.862,70.832c-4.323,5.348-8.313,10.96-11.945,16.798c-2.616,4.204-5.213,8.698-9.427,11.299
			c0.042-3.63,0.159-7.5,2.221-10.484c1.275-1.848,3.188-3.171,4.53-4.971c0.967-1.294,1.619-2.813,2.686-4.027
			c1.065-1.212,2.76-2.103,4.283-1.566"/>
		<path fill="#9BC9C7" d="M138.453,175.165c-0.022-2.605-0.234-5.358-0.947-7.871c-0.101-0.548-0.257-1.09-0.436-1.613
			c-2.965-8.623-11.474-14.567-13.977-23.337c-0.248,3.619,0.526,7.306,2.215,10.518c1.095,2.09,2.589,4.036,3.068,6.346
			c0.418,1.996,0.035,4.099,0.505,6.081c0.098,0.406,0.236,0.8,0.396,1.184c-0.284,1.925-1.156,3.743-2.136,5.44
			c-2.416,4.18-5.586,7.922-9.312,10.989c-0.485,0.399-0.996,0.811-1.254,1.384c-0.264,0.585-0.225,1.257-0.18,1.897
			c0.092,1.309,0.192,2.647,0.75,3.834c0.559,1.185,1.688,2.194,2.998,2.219c1.139,0.02,2.146-0.678,3.17-1.178
			c5.308-2.596,11.628-0.074,17.511-0.581C138.159,185.976,138.499,180.396,138.453,175.165"/>
		<path fill="#769B9A" d="M185.067,47.2c0,0,9.652-1.441,12.973,7.767l2.889-1.895l-10.604-13.86L185.067,47.2z"/>
		<path fill="#F3C09D" d="M97.046,93.481l-1.506-10.068c0,0-5.967-0.864-4.61-7.302c1.355-6.438,6.212-3.762,6.212-3.762
			s1.562-6.646,0.898-11.593c-0.666-4.946-1.342-34.294,35.36-29.433c36.704,4.861,28.315,22.769,27.504,32.964
			c-0.812,10.193-1.595,12.577-1.042,13.079c0.554,0.502,8.18-0.213,7.784,5.191c-0.396,5.405-8.887,4.973-8.887,4.973
			l-1.508,12.398c0,0-18.587,5.773-32.067,4.188C104.61,101.697,97.046,93.481,97.046,93.481"/>
		<path fill="#FDD0B1" d="M155.752,69.073c-0.006-1.79-0.071-3.65-0.886-5.245c-1.52-2.975-5.102-4.143-8.339-4.967
			c-10.978-2.793-22.401-4.872-33.601-3.172c-2.671,0.405-5.419,1.075-7.5,2.799c-3.925,3.249-4.284,9.034-4.332,14.128
			l-0.215,22.756c-0.002,0.287-0.002,0.587,0.124,0.844c0.179,0.363,0.569,0.564,0.933,0.74c14.459,6.916,31.296,9.354,46.8,5.286
			c0.781-0.202,1.598-0.445,2.159-1.023c0.546-0.558,0.773-1.344,0.975-2.096C154.481,89.335,155.792,79.202,155.752,69.073
			 M123.018,64.021c-0.815,0.907-1.161,2.435-1.772,3.5c-0.687,1.196-1.57,2.297-2.8,2.962c-2.089,1.13-4.705,1.195-6.503-0.425
			c-0.022-0.014-0.042-0.024-0.064-0.038c0.001-0.001,0.005-0.004,0.007-0.007c-0.03-0.027-0.062-0.044-0.09-0.072
			c-0.103-0.101-0.135-0.209-0.121-0.311c-0.446-0.334-0.845-0.726-1.147-1.244c-1.067-1.83-0.796-3.972-0.448-5.958
			c-0.18-0.134-0.27-0.38-0.09-0.607c1.86-2.351,5.078-3.811,8.073-3.041c2.34,0.6,4.683,2.269,5.05,4.789
			c0.004,0.033-0.003,0.061-0.005,0.09C123.142,63.773,123.126,63.9,123.018,64.021 M149.201,71.046
			c-0.069,0.147-0.187,0.221-0.311,0.249c-1.416,2.16-4.129,3.798-6.367,3.842c-4.05,0.079-6.243-3.892-6.792-7.419
			c-0.013-0.022-0.032-0.036-0.045-0.061c-0.516-1.08-0.771-2.45-0.236-3.574c0.479-1.005,1.46-1.322,2.47-1.211
			c1.36-0.614,3.026-0.562,4.639-0.125c2.347,0.163,4.945,1.015,6.326,2.824c0.843,0.414,1.579,1.025,1.592,2.049
			C150.491,68.827,149.69,69.992,149.201,71.046"/>
		<path fill="#D6A381" d="M100.24,48.777c0.012,3.587,6.22-3.755,9.801-3.979c-0.027,0.755-0.054,1.511-0.081,2.267
			c3.555-0.748,7.089-1.593,10.597-2.532c0.591-0.159,1.216-0.342,1.616-0.804c0.342-0.396,0.458-0.933,0.562-1.446
			c0.342-1.659,0.683-3.319,1.021-4.978c6.575,1.674,14.038-0.44,19.987,2.818c1.56,0.854,3.052,2.32,2.956,4.096
			c-0.037,0.682-0.307,1.394-0.043,2.024c0.341,0.815,1.357,1.048,2.216,1.263c2.018,0.508,3.906,1.521,5.446,2.923
			c1.103,1.006,2.12,2.259,3.571,2.608c1.467,0.355,3.128-0.444,3.768-1.811c0.639-1.367,0.187-3.154-1.028-4.052
			c0,0-8.916-12.114-27.614-12.287C114.322,34.714,100.217,41.886,100.24,48.777"/>
		<path fill="#575D57" d="M97.376,55.811c0,0-0.398-31.129,11.98-46.819c0,0,14.513-12.246,41.245,1.129
			c26.734,13.377,24.167,30.13,24.167,30.13s0.163,26.1-9.578,38.142l-5.327-1.026l2.253-28.312c0,0-5.983-12.707-29.098-14.168
			c-24.651-1.558-32.056,10.342-32.056,10.342S98.719,59.512,97.376,55.811"/>
		<path fill="#444A44" d="M146.942,33.029l-2.139,10.682c0,0,6.871-2.143,13.063,5.336c0,0,1.998-1.157,1.621-5.503
			C159.114,39.2,155.94,31.522,146.942,33.029"/>
		<path fill="#444A44" d="M122.176,31.369l-2.539,10.773l-12.388,3.686C107.249,45.829,107.78,29.145,122.176,31.369"/>
		<path fill="#FFFFFF" d="M112.974,78.743c0,0,19.371,6.54,34.147,4.301c0,0,4.16,12.016-13.627,13.861
			c-12.386,0.162-16.023-2.484-16.023-2.484S112.409,84.956,112.974,78.743"/>
		<path fill="#747A74" d="M105.601,17.423c-0.868,3.287-1.648,6.6-2.184,9.957c-0.14,0.882-0.248,1.862,0.253,2.602
			c0.547,0.807,1.67,1.044,2.621,0.836c0.952-0.208,1.781-0.769,2.602-1.292c4.011-2.558,8.432-4.47,13.043-5.639
			c2.094-0.531,4.43-0.88,6.313,0.175c0.848,0.476,1.528,1.201,2.326,1.756c3.222,2.241,7.562,1.363,11.435,0.75
			c3.521-0.554,7.137-0.809,10.637-0.145c3.504,0.664,6.904,2.321,9.171,5.07c1.014,1.231,1.798,2.668,3.005,3.709
			c1.209,1.042,3.059,1.595,4.397,0.727c1.554-1.005,1.589-3.256,1.216-5.068c-1.061-5.162-4.069-9.899-8.288-13.054
			c0,0-14.989-15.201-34.92-13.937c-19.932,1.264-17.871,5.12-17.871,5.12S106.298,14.776,105.601,17.423"/>
		<path fill="#B5A38C" d="M183.504,37.26l-0.525,7.192l4.812-0.057l2.14-4.777l-0.301,4.952c0,0,9.695-0.434,12.221,11.905
			l8.007-6.547c0,0,1.142-9.928-10.646-14.25C189.102,32.898,183.504,37.26,183.504,37.26"/>
		<path fill="#D6A381" d="M119.71,103.063l-1.358,4.425c0,0-4.31,0.444-4.682,2.815c-0.372,2.37,6.179,4.76,6.179,4.76
			s6.358,0.859,5.737,7.239c0,0,3.929-5.309,9.071-5.646c5.142-0.333,7.834-1.33,7.7-3.651c-0.135-2.321-1.72-4.724-3.926-4.131
			l-0.676-4.079L119.71,103.063z"/>
		<path fill="#769B9A" d="M125.856,121.617c-0.517-1.476-1.048-2.975-1.973-4.235c-0.925-1.263-2.317-2.272-3.878-2.356
			c-2.529-0.135-4.566,2.12-5.599,4.431c-0.56,1.254-0.954,2.613-0.858,3.982c0.097,1.367,0.745,2.743,1.903,3.478
			c-0.093-1.987,0.181-4.048,1.191-5.764c1.008-1.717,2.854-3.021,4.844-3.006c1.99,0.019,3.957,1.603,4.051,3.593
			c1.354-1.594,3.264-2.788,5.348-2.969c2.084-0.179,4.31,0.788,5.335,2.608c1.062,1.886,0.717,4.259-0.057,6.278
			c1.253,0.533,2.796-0.053,3.614-1.142c0.817-1.089,0.992-2.559,0.751-3.899c-0.24-1.341-0.856-2.58-1.5-3.78
			c-0.251-0.464-0.512-0.934-0.895-1.297c-0.925-0.877-2.345-0.954-3.609-0.796C131.152,117.167,127.97,118.955,125.856,121.617"/>
		<path fill="#9BC9C7" d="M146.101,110.354c-0.111-0.482-0.273-0.97-0.224-1.464c0.048-0.494,0.383-1.007,0.877-1.054
			c0.459-0.046,0.857,0.308,1.159,0.654c2.904,3.337,3.139,8.493,1.196,12.466c-1.941,3.974-5.747,6.816-9.892,8.356
			c1.371-2.475,1.829-5.444,1.264-8.217c-0.105-0.515-0.222-1.114,0.125-1.508c0.191-0.22,0.484-0.316,0.76-0.417
			C144.782,117.897,146.925,113.902,146.101,110.354"/>
		<path fill="#9BC9C7" d="M112.753,117.03c0.193,0.126,0.415,0.222,0.565,0.398c0.25,0.297,0.228,0.729,0.192,1.115
			c-0.321,3.445-0.643,6.891-0.964,10.338c-2.644-4.48-3.811-9.816-3.274-14.991c0.065-0.644,0.331-1.452,0.976-1.478
			c0.568-0.021,0.924,0.604,1.067,1.154C111.636,114.812,111.679,116.325,112.753,117.03"/>
		<path fill="#FDD0B1" d="M110.465,58.573c0,0,2.478-9.638,9.346-8.442c6.868,1.196,3.683,11.795,3.683,11.795
			S118.007,55.441,110.465,58.573"/>
		<path fill="#FDD0B1" d="M137.453,56.797c0,0,9.683-11.791,13.897,3.745C151.35,60.542,139.066,60.22,137.453,56.797"/>
		<path fill="#769B9A" d="M103.208,104.053c0.037,0.181,0.076,0.365,0.181,0.517c0.115,0.164,0.295,0.267,0.47,0.364
			c2.27,1.255,4.693,2.233,7.198,2.907c1.189-2.463,3.878-4.121,6.611-4.079c0.279,0.003,0.662-0.075,0.646-0.351
			c-5.347-1.103-10.561-2.852-15.492-5.196C102.424,100.139,102.816,102.128,103.208,104.053"/>
		<path fill="#769B9A" d="M118.559,107.473c0.136-0.13,0.208-0.312,0.272-0.489c0.323-0.924,0.484-1.907,0.472-2.886
			c-0.002-0.078-0.004-0.158-0.043-0.224c-0.046-0.077-0.131-0.121-0.214-0.156c-1.901-0.848-4.329-0.302-5.683,1.278
			c0.663,0.509,1.327,1.018,1.99,1.525c0.741,0.569,1.554,1.163,2.489,1.174C118.098,107.699,118.372,107.647,118.559,107.473"/>
		<path fill="#769B9A" d="M137.692,105.135c0.071,0.769,0.187,1.528,0.347,2.281c0.065,0.312,0.146,0.636,0.355,0.877
			c0.46,0.531,1.377,0.485,1.794,1.05c1.479-1.903,3.881-3.051,6.29-3.01c-0.812-0.951-1.731-1.964-2.966-2.167
			c-0.502-0.081-1.014-0.019-1.519,0.045c-1.325,0.162-2.646,0.324-3.97,0.486c-0.095,0.013-0.199,0.027-0.268,0.099
			C137.673,104.881,137.68,105.017,137.692,105.135"/>
		<path fill="#769B9A" d="M154.225,106.931c-0.121,0.225-0.356,0.361-0.581,0.48c-1.413,0.75-2.952,1.257-4.534,1.496
			c-1.446-1.98-3.386-3.599-5.595-4.662c1.233-0.616,2.655-0.689,4.025-0.853c2.417-0.287,4.8-0.887,7.066-1.776
			c-0.088,1.575-0.175,3.151-0.263,4.728C154.333,106.546,154.32,106.753,154.225,106.931"/>
		<path fill="#769B9A" d="M158.365,88.085c0.198-0.268,0.584-0.284,0.918-0.276c0.906,0.023,1.814,0.044,2.721,0.066
			c0.247,1.127-0.06,2.36-0.808,3.239c-0.744,0.879-1.915,1.381-3.066,1.319c0.03-1.245,0.061-2.49,0.091-3.734
			C158.226,88.486,158.236,88.256,158.365,88.085"/>
		<path fill="#769B9A" d="M121.939,140.775c0.309-3.05,1.812-5.851,2.393-8.86c-0.623,6.193-1.441,11.296,0.977,20.946
			C124.212,149.703,121.6,144.1,121.939,140.775"/>
		<path fill="#769B9A" d="M128.954,167.13c-0.153,2.404-0.315,4.849-1.16,7.106c-0.833,2.229-2.29,4.161-3.725,6.056
			c-2.108,2.784-4.303,5.647-7.345,7.365c0.073-0.877,0.146-1.753,0.218-2.63c0.042-0.516,0.089-1.051,0.343-1.504
			c0.251-0.446,0.675-0.764,1.089-1.064c1.848-1.337,3.93-3.364,5.571-4.945c1.641-1.583,3.727-4.386,4.19-6.618"/>
		<path fill="#C69777" d="M137.552,107.855c0.007-0.976,0.011-1.95,0.014-2.927c-5.683-0.081-11.366-0.431-17.02-1.045
			c-0.199-0.023-0.418-0.04-0.579,0.078c-0.181,0.136-0.215,0.382-0.254,0.604c-0.136,0.787-0.493,1.534-1.021,2.133
			c5.491,2.804,11.962,3.63,17.979,2.303c0.247-0.055,0.508-0.122,0.674-0.311C137.541,108.47,137.551,108.148,137.552,107.855"/>
		<path fill="#DACEBD" d="M199.968,36.581c1.447,0.455,2.876,1.104,3.945,2.18c1.09,1.095,1.731,2.551,2.282,3.996
			c0.547,1.428,1.033,2.957,0.771,4.463c-0.263,1.508-1.515,2.947-3.044,2.901c-1.232-0.037-2.23-0.967-3.114-1.828
			c-2.88-2.809-6.072-5.598-10.001-6.465c-0.204-0.045-0.419-0.091-0.559-0.244c-0.435-0.474,0.221-1.493-0.352-1.789
			c-0.582,0.806-1.305,1.511-2.126,2.072c-0.527,0.36-1.184,0.672-1.787,0.463c-0.95-0.328-1.069-1.601-1.017-2.604
			c0.026-0.499,0.059-1.021,0.312-1.453c0.314-0.532,0.904-0.828,1.473-1.068C190.903,35.458,195.673,35.232,199.968,36.581"/>
		<path fill="#9BC9C7" d="M123.703,156.195l0-0.002c-1.443-3.462-4.056-7.582-4.766-11.336c-0.71-3.755-0.519-7.817,1.364-11.143
			c0.275-0.486,0.573-0.98,0.605-1.54c0.031-0.556-0.369-1.187-0.927-1.175c-0.431,0.007-0.765,0.366-1.033,0.702
			c-1.542,1.935-2.896,4.02-4.033,6.215c-0.849,1.642-1.594,3.405-1.604,5.254c-0.009,1.68,0.585,3.302,0.826,4.964
			c0.498,3.442-0.634,7.073-2.974,9.644c-0.414,0.281-0.837,0.552-1.275,0.797c-2.88,1.592-6.377,2.425-8.378,5.037
			c-1.101,1.44-1.591,3.238-2.286,4.911c-2.063,4.966-6.176,9.039-11.159,11.056c0.38,0.399,0.779,0.776,1.189,1.144
			c11.721,6.249,26.472,1.118,33.836-9.391c1.37-2.191,2.503-4.549,3.03-7.087C126.163,161.388,125.266,158.539,123.703,156.195"/>
		<path fill="#9BC9C7" d="M191.374,53.229c0.388,0.642,0.644,1.381,0.619,2.131c-0.029,0.87-0.428,1.682-0.847,2.444
			c-5.735,10.442-16.342,17.207-23.874,26.438c0.621-0.911,0.479-2.177-0.07-3.132c-0.55-0.954-1.435-1.66-2.32-2.317
			c5.152-7.837,10.304-15.675,15.455-23.513c1.043-1.586,2.159-3.243,3.853-4.102C186.63,49.934,189.958,50.885,191.374,53.229"/>
		<path fill="#E5B695" d="M231.525,10.823c0,0-1.464-5.844-3.518-5.445c-2.055,0.398-11.977,3.379-20.067,11.313
			c0,0-3.394-6.162-4.769-6.189c-1.374-0.028-4.871,1.182-3.886,4.742c0.984,3.559,1.983,4.784,0.651,7.888
			c-1.333,3.105-2.958,7.106,0.065,10.728l-1.479,2.371l9.824,6.404c0,0,5.392-10.415,10.579-12.13
			c6.327-3.798,10.292-2.325,12.685-2.421c2.393-0.097,4.396-0.722,4.297-2.785c-0.1-2.064-3.748-5.231-3.748-5.231
			s4.59-0.774,4.665-3.326C236.898,14.19,237.396,13.046,231.525,10.823"/>
		<path fill="#FDD0B1" d="M200.086,21.435c0.553-1.493,0.891-3.064,1.028-4.651c-1.006-1.792-1.177-3.783,0.659-4.754
			c2.666-1.409,4.762,1.814,5.532,4.907c0.231,0.046,0.454,0.126,0.597,0.306c0.133,0.169,0.163,0.385,0.191,0.603
			c0.227-0.781,0.69-1.48,1.211-2.109c3.433-4.146,9.026-7.794,14.143-9.462c1.98-0.645,4.408-1.205,5.939,0.208
			c0.666,0.613,1.017,1.644,0.616,2.455c-0.408,0.823-1.39,1.15-2.274,1.396c-4.006,1.11-8.22,2.231-11.447,4.76
			c-0.151,0.149-0.307,0.299-0.464,0.459c0.06-0.07,0.122-0.141,0.184-0.21c-0.347,0.288-0.695,0.578-1.015,0.902
			c-0.151,0.15-0.304,0.372-0.46,0.616c0.443-0.438,0.877-0.886,1.291-1.308c-0.968,1.149-1.443,2.405-0.38,2.273
			c0.578-0.228,1.022-0.381,1.38-0.486c2.833-1.863,5.135-3.455,8.68-4.67c1.38-0.475,4.52-0.839,5.979-0.869
			c1.457-0.029,2.979,0.383,4.029,1.396c1.05,1.012,1.608,1.793,0.962,3.101c-0.618,1.244-1.961,0.997-3.345,1.122
			s-2.861,0.725-4.243,0.573c-3.666-0.403-7.523,1.072-10.854,2.736c-0.198,0.364-0.242,0.794,0.049,1.063
			c0.177,0.163,0.424,0.214,0.658,0.261c0.076,0.016,0.151,0.031,0.227,0.045c0.77-0.272,1.578-0.46,2.376-0.631
			c2.23-0.475,4.283-2.003,6.531-1.632c1.51,0.25,3.359,0.126,4.757,0.745c0.755,0.335,1.532,0.684,2.111,1.274
			s0.928,1.485,0.643,2.262c-0.347,0.95-1.506,1.381-2.511,1.266c-1.005-0.117-1.908-0.639-2.82-1.075
			c-0.4-0.192-0.811-0.338-1.228-0.452l-2.173-0.295c-1.918-0.047-3.927,0.38-5.874,0.769c-2.673,1.099-5.181,2.833-7.116,4.746
			c-1.892,1.872-3.551,4.311-6.145,4.904c-1.938,0.443-4.032-0.323-5.474-1.693s-2.293-3.271-2.709-5.216
			c-0.198-0.931-0.31-1.895-0.16-2.836C199.323,23.261,199.744,22.357,200.086,21.435"/>
		<path fill="#D6A381" d="M236.5,17.603c0,0-3.516,4.191-9.985,2.55l6.108,0.427C232.624,20.58,235.596,18.759,236.5,17.603"/>
		<path fill="#C69777" d="M230.866,8.761c0,0,0.649,1.307-2.953,2.6l3.563,0.442L230.866,8.761z"/>
		<path fill="#D6A381" d="M209.066,35.978c0,0-1.906,3.157-5.625,1.869c-3.719-1.289-4.549-2.361-4.549-2.361l1.109-1.627
			C200.001,33.859,205.732,37.209,209.066,35.978"/>
		<path fill="#AFD6D3" d="M114.401,149.559c-0.133-0.731-0.259-1.383-0.376-1.964c-0.107-0.667-0.24-1.343-0.417-2.037
			c-0.07-0.279-0.123-0.548-0.167-0.815c-0.137-1.545-0.052-2.559,0.024-3.052c0.014-0.071,0.024-0.145,0.038-0.213
			c0-0.003,0-0.009,0.002-0.011c0.314-0.975,0.531-1.664,0.704-2.028c-1.353,2.588-1.509,4.727-1.257,6.429l-0.009-0.022
			c0,0,0.005,0.02,0.012,0.051c0.068,0.457,0.163,0.887,0.263,1.291c0.247,1.355,0.541,3.457,0.352,5.016
			c-0.037,0.236-0.082,0.485-0.134,0.743c-0.079,0.285-0.129,0.49-0.158,0.635c-0.33,1.261-0.888,2.599-1.856,3.43
			c-2.26,1.941-5.177,2.636-6.594,3.979c0,0,3.64-1.628,5.371-2.294C111.931,158.03,115.488,155.519,114.401,149.559"/>
		<path fill="#AFD6D3" d="M137.269,166.313c0,0,1.759,4.904,1.371,16.59c0,0-0.396-6.493-0.949-10.485
			c-0.554-3.994-1.725-8.268-2.969-11.624C134.722,160.794,136.707,164.004,137.269,166.313"/>
		<path fill="#858D86" d="M130.519,24.667c1.774,1.301,3.986,1.901,6.181,2.065c2.195,0.164,4.398-0.08,6.586-0.325
			c-2.045,0.54-4.104,1.084-6.214,1.24c-2.11,0.158-4.294-0.091-6.174-1.062c-1.827-0.945-3.437-2.58-5.494-2.657
			c-0.651-0.025-1.3,0.117-1.937,0.257c-2.534,0.555-5.065,1.112-7.598,1.667c2.78-1.402,5.772-2.385,8.845-2.903
			c1.176-0.198,2.425-0.32,3.527,0.14C129.095,23.447,129.77,24.12,130.519,24.667"/>
	</g>
	<g>
		<path fill="#AD856F" d="M208.762,43.151c4.325-6.525,9.223-13.146,17.402-14.582c2.669-0.469,8.84,1.772,10.136-1.848
			c1.167-3.263-1.241-5.426-4.048-6.552c-4.252-1.707-8.952-0.575-12.927,1.283c-0.577,0.27-0.186,1.141,0.403,0.9
			c4.16-1.695,12.243-3.743,14.973,1.207c2.093,3.794-2.989,3.547-5.527,3.527c-1.844-0.015-3.688,0.316-5.457,0.814
			c-7.197,2.026-12.126,8.437-15.825,14.608C207.542,43.097,208.373,43.739,208.762,43.151"/>
		<path fill="#AD856F" d="M199.632,33.508c-0.312,0.225-0.53,0.581-0.753,0.89c-0.233,0.322-0.456,0.649-0.641,1.003
			c-0.36,0.693,0.675,1.14,1.126,0.624c0.237-0.271,0.43-0.579,0.622-0.881c0.196-0.304,0.445-0.628,0.538-0.98
			C200.667,33.624,200.125,33.148,199.632,33.508"/>
		<path fill="#AD856F" d="M208.525,35.225c-2.635,0.792-5.104,0.025-7.179-1.669c-2.549-2.08-2.28-5.65-1.494-8.494
			c0.591-2.134,1.199-3.725,0.935-5.972c-0.26-2.202-2.351-5.401-0.586-7.197c3.277-3.334,6.014,3.154,7.084,5.41
			c0.275,0.577,1.153,0.184,0.906-0.407c-1.073-2.573-3.064-7.554-6.709-6.998c-2.5,0.381-3.286,2.447-3.052,4.532
			c0.421,3.783,2.299,4.609,0.886,8.806c-0.484,1.429-1.397,2.609-1.754,4.104c-0.473,1.982-0.13,3.621,0.998,5.306
			c2.257,3.374,6.509,5.21,10.319,3.756C209.523,36.157,209.206,35.021,208.525,35.225"/>
		<path fill="#AD856F" d="M208.075,17.598c1.884-3.268,6.652-5.577,9.801-7.397c3.614-2.089,12.465-7.415,13.145,0.796
			c0.054,0.645,1.032,0.477,0.99-0.161c-0.124-1.833-0.661-4.956-2.667-5.818c-1.759-0.758-4.897,0.705-6.511,1.337
			c-3.37,1.32-6.479,3.242-9.505,5.208c-2.363,1.536-5.008,2.852-6.032,5.604C207.125,17.624,207.811,18.055,208.075,17.598"/>
		<path fill="#AD856F" d="M231.673,20.808c1.88-0.453,4.798-0.5,5.553-2.505c0.766-2.039,0.031-4.638-1.741-5.862
			c-5.067-3.504-14.088,0.378-18.026,4.04c-0.529,0.494,0.16,1.372,0.712,0.885c2.895-2.554,7.035-4.392,10.874-4.869
			c2.351-0.292,9.102,0.266,7.146,4.799c-0.765,1.773-3.228,1.932-4.835,2.452C230.758,19.941,231.058,20.957,231.673,20.808"/>
		<path fill="#597673" d="M117.958,106.929c-2.281,0.138-5.534,1.421-4.857,4.32c0.645,2.755,4.187,4.176,6.685,4.407
			c0.772,0.072,0.902-1.112,0.129-1.196c-1.816-0.203-3.798-0.947-4.97-2.429c-1.989-2.517,1.271-3.645,3.184-4.05
			C118.81,107.837,118.636,106.889,117.958,106.929"/>
		<path fill="#597673" d="M138.208,109.469c2.251-0.315,4.426,2.458,2.882,4.435c-0.965,1.232-3.027,2.386-4.578,2.378
			c-0.881-0.003-1.064,1.315-0.15,1.389c2.492,0.202,6.309-2.014,6.724-4.651c0.433-2.777-2.365-5.371-5.046-4.59
			C137.409,108.614,137.519,109.563,138.208,109.469"/>
		<path fill="#997362" d="M119.161,103.094c-0.161,1.287-0.616,2.423-1.162,3.586c-0.528,1.13-0.903,2.307-1.979,3.038
			c-0.611,0.414,0.014,1.344,0.658,1.071c1.333-0.562,1.79-1.932,2.342-3.164c0.671-1.505,1.24-2.886,1.132-4.559
			C120.116,102.487,119.229,102.549,119.161,103.094"/>
		<path fill="#997362" d="M137.079,104.8c0.058,2.219-0.123,5.306,1.86,6.797c0.75,0.562,1.61-0.604,0.865-1.171
			c-1.513-1.157-1.249-3.968-1.509-5.659C138.196,104.104,137.062,104.09,137.079,104.8"/>
		<path fill="#597673" d="M186.086,44.321c-6.792,11.502-13.749,22.744-21.396,33.702c-0.458,0.656,0.521,1.383,1.001,0.738
			c7.964-10.671,15.102-22.157,21.298-33.939C187.263,44.305,186.386,43.814,186.086,44.321"/>
		<path fill="#AD856F" d="M97.538,75.914c0.3-3.729,1.406-7.305,0.99-11.072c-0.094-0.842-1.36-0.622-1.292,0.21
			c0.303,3.682-0.78,7.224-0.65,10.889C96.604,76.484,97.496,76.446,97.538,75.914"/>
		<path fill="#DCDBDB" d="M138.448,88.433c-0.309-0.178,6.033,1.277,8.894-0.005l-0.217,2.018
			C147.125,90.445,143.642,91.432,138.448,88.433"/>
		<path fill="#373A38" d="M109.049,7.783c-10.43,16.524-14.5,37.657-11.886,56.946c0.119,0.869,1.433,0.647,1.342-0.219
			c-2.105-19.906,2.186-38.601,11.418-56.243C110.185,7.763,109.352,7.302,109.049,7.783"/>
		<path fill="#373A38" d="M109.817,8.531c11.006-7.11,25.573-3.974,36.916,0.708c12.352,5.099,22.726,14.11,27.474,26.812
			c0.323,0.867,1.611,0.277,1.305-0.586c-4.826-13.64-16.38-23.138-29.623-28.215c-11.486-4.404-26.031-7.193-36.796,0.382
			C108.477,8.066,109.203,8.927,109.817,8.531"/>
		<path fill="#373A38" d="M174.266,35.726c-0.602,7.11-0.66,14.117-2.162,21.139c-1.592,7.439-4.273,14.439-7.666,21.23
			c-0.469,0.936,1.036,1.512,1.505,0.595c6.58-12.854,10.788-28.457,9.38-42.992C175.265,35.096,174.317,35.132,174.266,35.726"/>
		<path fill="#373A38" d="M114.875,4.951c-2.389,3.912-4.03,8.218-5.264,12.618c-0.239,0.856,1.032,1.387,1.307,0.517
			c1.355-4.302,2.905-8.55,5.096-12.503C116.371,4.938,115.262,4.318,114.875,4.951"/>
		<path fill="#373A38" d="M118.785,3.941c-1.151,1.742-2.087,3.601-2.831,5.552c-0.357,0.939,1.101,1.514,1.45,0.573
			c0.685-1.838,1.548-3.572,2.577-5.241C120.479,4.02,119.317,3.136,118.785,3.941"/>
		<path fill="#373A38" d="M121.926,4.041c-1.677,2.876-3.064,5.92-4.229,9.037c-0.365,0.975,1.116,1.56,1.501,0.593
			c1.213-3.037,2.6-5.966,4.069-8.887C123.654,4.009,122.367,3.284,121.926,4.041"/>
		<path fill="#373A38" d="M146.565,32.677c-2.527,2.924-2.363,8.176-2.79,11.817c-0.104,0.875,0.872,1.251,1.521,0.832
			c3.976-2.568,9.86,1.849,12.496,4.687c0.567,0.611,1.44-0.117,0.998-0.801c-2.731-4.203-9.609-8.227-14.468-5.473
			c0.439,0.318,0.88,0.638,1.318,0.957c0.467-3.771,0.475-7.904,1.99-11.427C147.921,32.597,147.003,32.173,146.565,32.677"/>
		<path fill="#373A38" d="M147.044,33.364c8.962-0.856,14.195,8.103,10.838,16.025c-0.248,0.583,0.633,1.096,0.984,0.546
			c2.184-3.437,1.65-8.886-0.306-12.339c-2.361-4.167-7.038-6.177-11.684-5.254C146.219,32.472,146.382,33.427,147.044,33.364"/>
		<path fill="#373A38" d="M122.328,30.645c-1.13,0.356-1.36,2.869-1.577,3.743c-0.593,2.406-1.146,4.868-1.357,7.341
			c-0.067,0.781,1.029,0.866,1.188,0.128c0.405-1.884,0.679-3.792,1.102-5.674c0.311-1.385,0.439-3.52,1.287-4.742
			C123.291,30.975,122.813,30.491,122.328,30.645"/>
		<path fill="#373A38" d="M122.283,30.365c-9.246-0.611-16.128,7.362-15.636,16.291c0.026,0.484,0.717,0.717,1.058,0.404
			c3.335-3.061,7.714-3.721,12.039-4.269c0.84-0.105,0.629-1.41-0.212-1.301c-4.607,0.598-9.077,1.373-12.648,4.549
			c0.352,0.135,0.704,0.269,1.057,0.404c-0.388-8.65,6.06-14.569,14.372-15.009C122.921,31.403,122.885,30.404,122.283,30.365"/>
		<path fill="#373A38" d="M107.553,39.399c-3.89,2.036-6.565,3.273-7.708,7.635c-1.267,4.831-2.316,9.674-2.739,14.659
			c-0.043,0.524,0.733,0.605,0.811,0.087c0.604-4.085,1.475-8.129,2.463-12.138c0.762-3.089,0.852-4.656,3.706-6.757
			c1.256-0.925,2.766-1.616,4.072-2.495C108.706,40.019,108.141,39.092,107.553,39.399"/>
		<path fill="#373A38" d="M121.34,35.932c7.533,0.433,15.601-1.127,22.674,2.158c0.993,0.463,1.565-1.081,0.618-1.565
			c-6.739-3.444-16.011-2.577-23.322-1.716C120.679,34.882,120.698,35.896,121.34,35.932"/>
		<path fill="#AD856F" d="M160.465,80.649c0.221-1.404,0.221-2.821,0.159-4.24c-0.029-0.688-1.216-0.663-1.222,0.033
			c-0.014,1.369,0.045,2.723-0.021,4.09C159.347,81.233,160.357,81.347,160.465,80.649"/>
		<path fill="#597673" d="M118.702,102.931c-4.646-0.355-8.85,4.214-9.873,8.483c-1.239,5.172-0.227,15.074,3.987,18.767
			c0.476,0.417,1.197-0.336,0.769-0.803c-5.671-6.188-6.166-25.093,5.143-25.482C119.278,103.876,119.24,102.972,118.702,102.931"/>
		<path fill="#373A38" d="M159.554,45.694c0.517,0.544,0.978,1.139,1.322,1.809c0.334,0.644,0.679,1.4,0.868,2.09
			c0.16,0.583,1.006,0.468,0.939-0.153c-0.101-0.956-0.267-1.692-0.754-2.541c-0.437-0.759-0.973-1.406-1.618-1.997
			C159.853,44.481,159.121,45.24,159.554,45.694"/>
		<path fill="#373A38" d="M161.594,49.566c-0.884,8.682-1.23,17.409-2.176,26.091c-0.097,0.877,1.273,1.027,1.364,0.147
			c0.88-8.662,1.676-17.429,1.734-26.138C162.522,49.083,161.657,48.961,161.594,49.566"/>
		<path fill="#AD856F" d="M96.907,72.002c0.437-0.128,0.061-0.179-0.474-0.477c-0.794-0.444-1.827-0.848-2.756-0.726
			c-1.899,0.25-2.761,2.235-3.173,3.88c-0.855,3.419,0.457,9.592,5.217,8.595c0.777-0.163,0.593-1.308-0.199-1.218
			c-3.528,0.398-4.314-3.852-3.835-6.483c0.326-1.793,1.66-3.826,3.692-3.115c0.521,0.182,0.97,0.506,1.536,0.542
			c0.236,0.014,0.42-0.106,0.52-0.314c0.003-0.007,0.006-0.012,0.008-0.019C97.595,72.353,97.262,71.898,96.907,72.002"/>
		<path fill="#597673" d="M139.19,130.373c5.935-3.027,12.287-8.519,12.262-15.774c-0.02-5.125-4.215-11.37-9.775-11.103
			c-0.769,0.036-0.741,1.366,0.035,1.362c5.979-0.018,9.399,7.401,8.107,12.47c-1.408,5.531-6.312,9.399-10.994,12.234
			C138.352,129.851,138.667,130.641,139.19,130.373"/>
		<path fill="#AD856F" d="M160.51,78.448c3.066-0.458,7.437,1.146,6.006,5.086c-0.906,2.501-4.964,4.587-7.487,3.318
			c-0.734-0.368-1.399,0.824-0.702,1.264c3.43,2.157,9.044-1.175,9.805-4.859c0.976-4.716-3.916-6.814-7.81-5.969
			C159.588,77.447,159.757,78.56,160.51,78.448"/>
		<path fill="#AD856F" d="M95.425,82.935c-0.643,3.213,0.099,6.984,0.878,10.113c0.172,0.696,1.264,0.541,1.116-0.183
			c-0.643-3.14-1.461-6.618-1.072-9.831C96.421,82.432,95.541,82.36,95.425,82.935"/>
		<path fill="#AD856F" d="M96.662,93.792c5.427,7.796,18.757,9.396,27.388,10.819c11.43,1.886,22.482,0.251,33.268-3.849
			c0.896-0.343,0.285-1.678-0.607-1.355c-10.071,3.622-20.197,5.519-30.881,3.926c-9.338-1.395-21.515-3.062-28.398-10.16
			C96.99,92.717,96.296,93.265,96.662,93.792"/>
		<path fill="#AD856F" d="M158.238,87.475c-0.225,4.192-1.104,8.233-1.667,12.381c-0.121,0.894,1.179,0.987,1.365,0.147
			c0.898-4.028,1.386-8.291,1.348-12.416C159.277,86.927,158.275,86.784,158.238,87.475"/>
		<path fill="#E0AA86" d="M134.82,63.252c-0.726,5.526,1.52,12.226,7.946,12.759c6.591,0.546,8.689-6.916,9.311-12.128
			c0.602-5.047-1.401-11.976-7.502-12.306c-6.534-0.354-8.704,6.611-9.862,11.664c-0.146,0.63,0.896,0.877,1.102,0.272
			c0.885-2.607,1.373-5.505,3.162-7.701c2.674-3.276,7.249-3.697,9.971-0.159c1.645,2.137,1.929,4.796,1.727,7.393
			c-0.33,4.226-1.534,10.32-6.307,11.285c-6.501,1.313-9.006-5.792-8.623-10.98C135.787,62.757,134.9,62.66,134.82,63.252"/>
		<path fill="#E0AA86" d="M122.929,62.738c-0.584,2-1.383,3.887-2.794,5.468c-2.408,2.697-7.028,4.695-9.291-0.701
			c-1.156-2.758,0.036-9.395,1.276-11.88c0.897-1.8,2.418-3.556,4.33-4.334c5.021-2.045,6.326,2.866,6.396,6.555
			c0.032,1.704-0.143,3.467,0.034,5.159c0.053,0.5,0.839,0.59,0.994,0.107c1.151-3.584,1.446-11.551-2.788-13.347
			c-5.366-2.275-10.033,3.553-11.149,8.079c-1.019,4.135-2.095,12.865,3.561,14.253c5.525,1.356,9.328-4.575,10.39-9.121
			C124.015,62.432,123.084,62.2,122.929,62.738"/>
		<path fill="#AD856F" d="M135.497,64.293c5.271-2.981,10.844-1.564,14.657,2.93c0.562,0.663,1.53-0.137,1.043-0.839
			c-3.705-5.325-10.738-6.391-16.183-3.163C134.375,63.599,134.832,64.668,135.497,64.293"/>
		<path fill="#AD856F" d="M110.211,61.922c3.502-4.214,9.711-3.386,12.137,1.454c0.406,0.811,1.682,0.251,1.292-0.58
			c-2.768-5.887-10.353-6.603-14.283-1.504C108.937,61.837,109.777,62.444,110.211,61.922"/>
		<path fill="#AD856F" d="M112.807,79.166c10.786,4.708,22.802,5.524,34.412,4.484c0.79-0.069,0.585-1.275-0.198-1.213
			c-11.592,0.931-22.952,0.07-33.881-4.115C112.593,78.111,112.273,78.932,112.807,79.166"/>
		<path fill="#AD856F" d="M112.127,78.829c-0.485,5.598,2.164,11.067,4.777,15.845c0.38,0.694,1.508,0.208,1.136-0.508
			c-2.599-5-4.512-9.685-4.875-15.367C113.125,78.206,112.176,78.249,112.127,78.829"/>
		<path fill="#AD856F" d="M117.807,95.158c7.433,2.759,17.85,3.087,25.067-0.569c4.022-2.037,7.747-7.502,4.773-11.969
			c-0.489-0.736-1.5,0.123-1.055,0.847c1.729,2.807-0.496,7.386-2.62,9.011c-2.223,1.696-5.208,2.459-7.906,2.881
			c-5.915,0.926-12.17,0.643-17.869-1.188C117.552,93.964,117.162,94.918,117.807,95.158"/>
		<path fill="#597673" d="M113.721,129.636c-0.596-4.59,0.118-15.653,7.516-13.367c5.26,1.626,2.871,10.727,2.043,14.479
			c-0.896,4.064-2.125,8.141-2.077,12.342c0.052,4.426,1.892,7.587,4.028,11.322c2.824,4.94,4.346,10.288,2.413,15.839
			c-1.769,5.083-5.991,8.911-10.311,11.874c-1.967,1.348-4.503,3.443-6.826,4.174c-2.564,0.804-5.233-0.748-7.671-1.376
			c-5.082-1.308-10.445-1.531-14.288-5.588c-0.623-0.655-1.725,0.224-1.1,0.885c4.467,4.733,10.515,4.628,16.359,6.447
			c2.081,0.646,3.925,2.1,6.152,1.503c2.216-0.595,4.5-2.46,6.425-3.684c10.966-6.969,17.412-17.618,10.542-30.009
			c-2.384-4.298-4.538-7.754-4.256-12.92c0.196-3.617,1.229-7.139,1.999-10.661c0.869-3.979,2.558-10.181-0.109-13.888
			c-1.864-2.594-6.074-3.253-8.623-1.333c-3.901,2.941-4.046,9.896-3.362,14.147C112.694,130.561,113.817,130.377,113.721,129.636"
			/>
		<path fill="#597673" d="M116.208,183.99c-0.507,3.514,0.234,6.484,2.147,9.456c0.188,0.29,0.595,0.251,0.841,0.09
			c5.509-3.571,11.71-2.24,17.795-1.526c4.561,0.536,9.104,0.537,13.668,0.061c0.862-0.091,0.642-1.405-0.215-1.325
			c-7.623,0.703-14.729-0.991-22.266-0.94c-1.989,0.014-3.991,0.209-5.889,0.837c-0.117,0.036-2.666,1.193-2.683,1.191
			c-2.883-0.661-2.603-5.656-2.429-7.738C117.233,183.467,116.297,183.368,116.208,183.99"/>
		<path fill="#597673" d="M151.313,191.286c-1.514-13.246,2.824-25.554,4.631-38.501c0.841-5.999,0.678-12.043,1.121-18.071
			c0.494-6.697,2.209-13.003,4.967-19.114c5.185-11.501,11.812-22.671,18.523-33.336c3.168-5.037,6.604-9.841,10.138-14.624
			c1.499-2.032,2.909-4.095,4.093-6.328c1.453-2.75,2.626-6.235,6.168-6.795c0.865-0.137,0.648-1.442-0.22-1.339
			c-3.726,0.439-5.225,3.637-6.818,6.649c-3.288,6.213-7.979,11.556-11.819,17.433c-7.291,11.151-14.032,23.022-19.888,34.993
			c-2.706,5.533-4.921,11.306-5.844,17.423c-1.065,7.07-0.531,14.27-1.353,21.366c-1.562,13.467-6.915,26.721-4.756,40.416
			C150.364,192.144,151.391,191.97,151.313,191.286"/>
		<path fill="#597673" d="M125.508,123.54c1.88-3.658,9.745-9.393,13.01-4.089c2.102,3.416,1.185,6.345-0.064,9.759
			c-0.246,0.673,0.697,1.248,1.124,0.626c0.004-0.003,0.006-0.009,0.008-0.012c0.474-0.689-0.569-1.461-1.044-0.771
			c-0.001,0.004-0.003,0.008-0.007,0.011c0.376,0.209,0.752,0.415,1.126,0.624c0.746-1.732,1.61-3.831,1.598-5.748
			c-0.017-2.127-1.299-5.761-3.134-6.972c-2.158-1.425-5.82-0.439-7.961,0.561c-2.539,1.186-4.367,3.151-5.613,5.632
			C124.251,123.756,125.21,124.124,125.508,123.54"/>
		<path fill="#837970" d="M182.93,37.567c-0.416,2.302-0.62,4.639-0.534,6.979c0.023,0.656,1.17,0.633,1.168-0.031
			c-0.011-2.3,0.091-4.558,0.413-6.836C184.072,37.004,183.051,36.907,182.93,37.567"/>
		<path fill="#837970" d="M182.99,45.227c1.625-0.447,3.08-0.432,4.735-0.224c0.669,0.085,0.962-0.973,0.289-1.178
			c-1.728-0.528-3.685-0.289-5.303,0.474C182.231,44.524,182.437,45.38,182.99,45.227"/>
		<path fill="#837970" d="M189.573,39.354c-0.856,1.426-1.505,3.005-2.202,4.514c-0.308,0.664,0.757,1.083,1.056,0.417
			c0.662-1.476,1.417-2.963,1.918-4.503C190.491,39.332,189.847,38.898,189.573,39.354"/>
		<path fill="#837970" d="M189.736,39.358c-0.187,1.725-0.435,3.434-0.652,5.153c-0.092,0.716,0.948,0.795,1.095,0.118
			c0.359-1.678,0.508-3.451,0.523-5.167C190.708,38.851,189.803,38.725,189.736,39.358"/>
		<path fill="#837970" d="M189.683,45.157c3.406,0.645,6.512,1.386,8.411,4.555c1.188,1.985,3.105,4.335,3.127,6.696
			c0.006,0.793,1.198,0.969,1.261,0.136c0.11-1.505-0.354-2.657-1.128-3.93c-0.857-1.407-1.639-2.977-2.587-4.317
			c-2.032-2.88-5.597-3.979-8.981-4.086C189.17,44.191,189.081,45.043,189.683,45.157"/>
		<path fill="#837970" d="M183.822,37.653c9.645-6.29,24.696,0.968,25.336,12.389c0.046,0.788,1.424,0.761,1.405-0.038
			c-0.136-5.445-3.816-11.327-8.811-13.577c-5.373-2.419-13.66-3.489-18.565,0.438C182.668,37.28,183.287,38.003,183.822,37.653"/>
		<path fill="#837970" d="M209.626,49.979c-2.877,1.678-5.557,3.892-7.885,6.268c-0.6,0.611,0.185,1.662,0.857,1.064
			c2.484-2.201,5.053-4.283,7.573-6.439C210.608,50.501,210.166,49.664,209.626,49.979"/>
	</g>
	<g>
		<path fill="#C49B84" d="M54.681,129.401l2.374,36.618c0,0,4.948,2.695,8.38-0.298c3.431-2.994,17.771-12.762,29.071-13.042
			c0,0,3.566-9.622-1.766-30.851c0,0-3.029-4.703-10.9-6.339C73.969,113.854,58.093,123.474,54.681,129.401"/>
		<path fill="#D4AB97" d="M62.658,129.998l1.407,35.062c0,0-5.058,2.104-5.972,0.352c-0.915-1.754-5.402-33.672-3.151-35.171
			C57.193,128.746,60.967,129.118,62.658,129.998"/>
		<path fill="#F3C09D" d="M21.33,78.303c0,0-3.564,0.884-5.646-4.526c-2.082-5.409-0.213-7.013-0.213-7.013
			S8.314,51.54,15.479,31.006c7.166-20.533,13.389-23.37,28.663-24.475c15.273-1.106,28.93,3.156,33.815,20.785
			c4.884,17.629,4.838,25.804,4.838,25.804s6.273-2.704,6.927,4.244c0.653,6.949-5.453,7.782-5.453,7.782l-0.689,14.657
			c0,0-6.204,12.411-23.102,14.861c-16.899,2.452-24.376,2.349-32.516-6.646C22.591,78.542,21.33,78.303,21.33,78.303"/>
		<path fill="#FDD0B1" d="M77.615,49.634c0.813,0.763,1.346,1.774,1.812,2.786c3.37,7.308,4.032,15.528,4.645,23.552
			c0.082,1.076,0.161,2.182-0.157,3.212c-0.314,1.02-0.993,1.882-1.657,2.717c-2.139,2.691-4.321,5.425-7.146,7.382
			c-2.295,1.592-4.936,2.617-7.599,3.46c-8.09,2.57-16.66,3.622-25.132,3.086c-0.819-0.052-1.681-0.134-2.349-0.61
			c-0.821-0.584-1.156-1.627-1.43-2.598c-2.677-9.444-4.455-19.143-5.298-28.922c-0.153-1.769-0.25-3.658,0.619-5.206
			c0.786-1.399,2.23-2.279,3.637-3.048c8.024-4.386,16.925-7.161,26.021-8.111c3.756-0.393,7.638-0.464,11.213,0.75
			C75.818,48.431,76.827,48.896,77.615,49.634"/>
		<path fill="#F3C09D" d="M39.081,57.803c0,0,1.726,11.954,8.912,9.852c7.185-2.103,3.585-14.019,3.585-14.019
			S43.539,53.153,39.081,57.803"/>
		<path fill="#F3C09D" d="M63.894,52.006c0,0-0.929,10.892,5.732,11.356c6.661,0.463,6.071-11.151,6.071-11.151
			S71.845,49.891,63.894,52.006"/>
		<path fill="#FDD0B1" d="M39.081,57.803c0,0-4.806-11.387,2.773-12.914c7.58-1.526,9.724,8.747,9.724,8.747
			S43.546,53.274,39.081,57.803"/>
		<path fill="#FDD0B1" d="M63.861,51.455c0,0,0.075-10.667,4.449-10.366c4.374,0.301,7.438,8.647,7.387,11.122
			c0,0-3.866-2.559-11.804-0.204"/>
		<path fill="#FFFFFF" d="M45.317,74.387c0.197,0.004,17.613,2.123,24.748-3.587c0,0,0.297,10.238-3.966,13.204
			c-4.263,2.966-17.587,0.467-19.773-2.014C44.138,79.506,45.317,74.387,45.317,74.387"/>
		<path fill="#E2AF8D" d="M14.68,66.607c0,0,4.62-4.568,7.284,1.307c2.663,5.874,3.632,5.512,3.632,5.512l2.745-1.534
			c0,0-8.743-25.367-0.418-39.161c8.325-13.794,35.721-21.069,49.271-7.857c0,0-4.046-20.443-31.512-18.41
			C18.214,8.498,12.675,30.322,12.724,45.411C12.775,60.5,14.68,66.607,14.68,66.607"/>
		<path fill="#E0AA86" d="M40.714,96.224c0,0,0.203,5.345-5.264,7.373c0,0,0.953,1.924,4.467,6.641
			c3.514,4.721,4.766,6.457,4.766,6.457s11.442,2.827,21.022-2.044c0,0,0.299-12.978-0.404-14.181
			c-0.702-1.2-5.812-0.027-5.869-5.253L40.714,96.224z"/>
		<path fill="#F3C09D" d="M37.597,103.054c9.085,2.9,18.992,1.922,28.128-0.819c0,0,0.912,10.964-0.594,13.017
			c-1.504,2.05-16.476,3.318-20.447,1.443l-9.871-12.633C34.813,104.062,36.136,102.586,37.597,103.054"/>
		<path fill="#426B94" d="M34.813,104.062c0,0,9.796,10.537,12.201,16.367c2.404,5.83,4.906,13.815,4.906,13.815
			s-8.714,10.852,0.52,23.715c0,0-1.96,1.956-3.262,2.863l0.934,23.912c0,0,1.627,4.301-3.846,5.476
			c-5.474,1.175-15.881,1.254-18.619,0.248c0,0,5.488-12.011,2.687-31.275c0,0-11.125-0.778-18.63-5.016
			c0,0-2.164-30.166,14.915-45.012C26.618,109.155,32.31,103.448,34.813,104.062"/>
		<path fill="#426B94" d="M65.301,100.472c0,0,2.827,12.045-1.46,20.373c0,0,12.963-5.831,17.999-5.353
			C81.839,115.492,78.582,98.893,65.301,100.472"/>
		<path fill="#426B94" d="M58.15,166.396l0.197,21.502c0,0,16.364,0.833,17.426-1.716c1.062-2.553,1.27-13.141,1.127-14.217
			c-0.144-1.079-0.835-12.981-0.835-12.981s-5.13,2.521-9.456,5.565C62.284,167.592,58.15,166.396,58.15,166.396"/>
		<path fill="#D3D3D3" d="M45.386,117.371c0,0,5.43,9.979,5.434,16.938l3.607-1.9c0,0-1.539-5.001,9.415-11.563l1.863-6.194
			C65.705,114.65,56.076,120.325,45.386,117.371"/>
		<polygon fill="#D3D3D3" points="52.488,158.133 49.221,161.217 50.149,185.349 58.033,184.882 58.159,166.526 57.131,159.452 		
			"/>
		<path fill="#F3C09D" d="M54.427,132.408c0,0-4.146,1.309-6.201,9.675c-2.055,8.364,0.845,14.724,4.873,16.014
			c4.029,1.289,12.282,0.454,14.999-2.947c2.716-3.4,1.998-6.971,1.998-6.971s1.83-5.435-1.26-7.312c0,0,1.609-3.508,0.704-4.79
			c-0.906-1.282-3.32-0.789-6.584,0.52c-3.265,1.31-5.858,1.506-8.271,0.488L54.427,132.408z"/>
		<path fill="#EAEAEA" d="M48.453,122.67c4.574,1.099,9.479,0.779,13.871-0.907c0.427-0.164,0.858-0.347,1.198-0.651
			c0.479-0.428,0.726-1.054,0.927-1.663c0.442-1.345,0.738-2.738,0.881-4.146c-1.629,0.198-3.142,0.916-4.7,1.436
			c-4.42,1.474-9.25,1.351-13.815,0.409c-0.229-0.046-0.464-0.095-0.691-0.044c-0.625,0.141-0.784,1.151-0.234,1.479"/>
		<path fill="#EAEAEA" d="M49.983,179.029c-0.053,0.069,0.044,0.155,0.127,0.184c1.528,0.545,3.126-0.565,4.28-1.707
			c1.154-1.144,2.399-2.481,4.023-2.512c0.081,3.204,0.048,6.416-0.101,9.618c-2.643,0.691-5.451,0.739-8.116,0.146"/>
		<path fill="#385E7D" d="M27.714,110.8c0.001,1.67,0.714,3.249,1.431,4.76c1.139,2.4,2.324,4.78,3.554,7.136
			c0.355,0.679,0.723,1.37,1.275,1.905c1.285,1.247,3.295,1.409,4.75,2.458c1.661,1.198,2.319,3.31,3.116,5.193
			c0.399,0.945,0.908,1.92,1.805,2.417c1.431,0.791,3.192,0.069,4.658-0.652c-0.23-0.63-0.899-0.962-1.473-1.312
			c-1.281-0.776-2.337-1.925-3.01-3.267c-0.637-1.27-0.959-2.741-1.948-3.76c-1.188-1.222-3.032-1.482-4.535-2.288
			c-1.459-0.78-2.575-2.062-3.655-3.314c-1.14-1.323-2.28-2.646-3.419-3.969C28.944,114.577,27.544,112.812,27.714,110.8"/>
		<path fill="#385E7D" d="M74.727,105.408c0.566,3.34,0.525,6.785-0.119,10.11c-0.049,0.25-0.114,0.521-0.316,0.674
			c-0.135,0.102-0.309,0.136-0.474,0.166c-1.268,0.243-2.502,0.671-3.646,1.27c1.063-2.663,2.127-5.326,3.191-7.987
			C73.914,108.26,74.469,106.869,74.727,105.408"/>
		<path fill="#385E7D" d="M48.78,160.211c-0.959,0.113-1.87,0.572-2.836,0.553c-1.093-0.023-2.097-0.672-2.8-1.508
			c-0.704-0.836-1.156-1.851-1.599-2.851c-2.302,1.39-4.885,2.31-7.546,2.688c-0.968,0.14-1.989,0.22-2.807,0.758
			c-0.818,0.534-1.313,1.718-0.747,2.515c3.093,0.504,6.35-0.057,9.094-1.571c1.989,3.478,6.57,5.222,10.368,3.947
			c-0.165-1.338-0.331-2.676-0.497-4.012c-0.02-0.161-0.049-0.34-0.175-0.443C49.111,160.188,48.937,160.191,48.78,160.211"/>
		<path fill="#385E7D" d="M58.55,174.645c-0.039-2.838-0.216-5.676-0.531-8.5c1.777,0.362,3.639,0.306,5.391-0.162
			c4.678-1.249,8.237-5.255,12.91-6.524c0.461,0.261-0.052,0.923-0.508,1.196c-3.617,2.145-5.061,6.61-7.914,9.702
			C65.512,172.942,62.067,174.521,58.55,174.645"/>
		<path fill="#B7B7B8" d="M53.538,157.806c-0.269-0.062-0.546-0.127-0.817-0.079c-0.295,0.054-0.549,0.234-0.791,0.411
			c-0.538,0.39-1.075,0.777-1.612,1.166c-0.201,0.146-0.411,0.301-0.525,0.521c-0.131,0.252-0.118,0.554-0.099,0.838
			c0.083,1.232-0.575,3.176-0.351,4.391c2.201-0.23,5.181-1.493,7.228-2.331c0.186-0.077,0.382-0.164,0.492-0.334
			c0.093-0.146,0.107-0.329,0.114-0.502c0.042-0.905,0.022-1.814-0.06-2.717c-0.013-0.145-0.031-0.298-0.119-0.414
			c-0.111-0.146-0.304-0.198-0.482-0.239C55.523,158.279,54.531,158.043,53.538,157.806"/>
		<path fill="#527EA5" d="M31.79,109.375c-0.154,0.959,0.104,1.931,0.357,2.87c0.445,1.646,0.956,3.398,2.253,4.506
			c1.967,1.681,5.047,1.312,7.167,2.792c1.73,1.207,2.456,3.361,3.339,5.277c0.884,1.917,2.326,3.917,4.429,4.094
			c0.229,0.02,0.494-0.002,0.635-0.182c0.113-0.148,0.107-0.353,0.091-0.538c-0.182-2.157-0.808-4.275-1.829-6.187
			c-0.473-0.886-1.029-1.724-1.583-2.562l-3.243-4.899c-1.676-2.528-3.379-5.092-5.665-7.085c-0.643-0.562-1.343-1.091-1.771-1.831
			C34.041,106.096,32.103,107.415,31.79,109.375"/>
		<path fill="#527EA5" d="M67.296,104.271c0.722-0.027,1.456-0.052,2.155,0.132c0.697,0.184,1.368,0.612,1.665,1.271
			c0.306,0.677,0.176,1.459,0.025,2.183c-0.738,3.568-1.845,7.061-3.298,10.4c-0.089,0.207-0.184,0.418-0.345,0.575
			c-0.221,0.214-0.533,0.295-0.827,0.386c-1,0.302-1.948,0.78-2.788,1.402c1.54-4.794,2.278-9.844,2.177-14.878
			c-0.008-0.448,0.006-0.965,0.354-1.245C66.654,104.303,66.987,104.282,67.296,104.271"/>
		<path fill="#527EA5" d="M50.074,137.673c0.239-0.358,0.499-0.727,0.55-1.155c0.114-0.961-0.87-1.706-1.809-1.945
			c-2.833-0.718-5.747,1.229-7.34,3.68c-0.136,0.211-0.277,0.434-0.498,0.55c-0.315,0.166-0.696,0.069-1.04-0.02
			c-6.136-1.614-10.526-0.205-16.601,3.124c-0.895,0.489-3.179,1.463-3.611,2.388c-0.435,0.925-0.386,2.146,0.361,2.844
			c0.408,0.382,0.964,0.562,1.511,0.682c3.956,0.874,7.987-0.826,12.028-1.134c1.273-0.099,2.57-0.059,3.804-0.386
			c1.235-0.329,2.441-1.114,2.849-2.325c-0.174,1.282,0.617,2.569,1.728,3.234c1.11,0.67,2.474,0.795,3.759,0.64
			c0.499-0.06,1.041-0.188,1.339-0.59c0.263-0.354,0.271-0.827,0.287-1.265C47.5,143.044,48.439,140.129,50.074,137.673"/>
		<path fill="#527EA5" d="M48.099,183.065c0.151-0.807,0.304-1.634,0.194-2.448c-0.032-0.236-0.092-0.479-0.259-0.646
			c-0.159-0.155-0.387-0.217-0.605-0.261c-2.348-0.489-4.897,0.091-6.8,1.55c-2.074,1.586-3.601,4.233-6.188,4.585
			c-0.663,0.091-1.438,0.054-1.868,0.568c-0.389,0.464-0.274,1.203,0.11,1.673c0.386,0.469,0.971,0.722,1.547,0.913
			c2.355,0.784,4.908,0.827,7.365,0.463c1.9-0.28,3.901-0.885,5.08-2.404C47.549,185.931,47.837,184.468,48.099,183.065"/>
		<path fill="#527EA5" d="M59.843,180.882c0.128-0.738,0.435-1.568,1.149-1.797c0.287-0.093,0.598-0.068,0.893-0.006
			c1.307,0.282,2.335,1.284,3.57,1.799c1.461,0.609,3.111,0.498,4.688,0.357c0.732-0.064,1.501-0.131,2.174,0.166
			c0.673,0.296,1.191,1.084,0.922,1.768c-0.161,0.411-0.55,0.679-0.926,0.909c-2.439,1.488-5.228,2.402-8.074,2.647
			c-0.555,0.046-1.121,0.069-1.663-0.06c-1.144-0.274-2.054-1.216-2.49-2.308C59.651,183.264,59.643,182.041,59.843,180.882"/>
		<path fill="#6495BA" d="M33.506,115.537c0.42,0.639,1.154,0.996,1.884,1.225c1.262,0.398,2.838,1.59,4.133,1.865
			c1.296,0.272,2.616,0.677,3.477,1.684c0.551,0.642,0.633,0.439,0.946,1.226c0.62,1.561,1.24,3.118,1.861,4.678
			c-0.983-2.213-2.107-4.583-4.242-5.729c-1.16-0.622-2.498-0.808-3.726-1.277C36.035,118.52,34.48,117.203,33.506,115.537"/>
		<path fill="#6495BA" d="M68.884,114.545c-0.224,0.447-0.447,0.896-0.721,1.313c-0.193,0.296-0.41,0.575-0.612,0.864
			c-0.563,0.804-1.022,1.683-1.36,2.604c0.34-0.062,0.678-0.141,1.012-0.233c0.155-0.043,0.316-0.091,0.431-0.205
			c0.091-0.09,0.143-0.209,0.193-0.327c0.861-2.023,1.584-4.106,2.165-6.229C69.622,113.07,69.253,113.806,68.884,114.545"/>
		<path fill="#6495BA" d="M43.859,179.783c-1.953-0.152-3.727,1.1-5.147,2.448c-1.422,1.349-2.756,2.899-4.579,3.615
			c1.958,0.043,3.61-1.383,4.979-2.784C40.478,181.662,41.927,180.111,43.859,179.783"/>
		<path fill="#6495BA" d="M67.33,181.04c-0.663-0.069-1.292-0.317-1.913-0.565c-0.636-0.254-1.272-0.508-1.909-0.762
			c0.93,0.894,1.92,1.648,3.194,1.848c1.275,0.198,2.846-0.14,4.128-0.29c-0.743,0.133-1.493-0.125-2.246-0.184
			C68.168,181.057,67.747,181.085,67.33,181.04"/>
		<path fill="#6495BA" d="M40.302,143.887c-0.036,0.711,0.3,1.409,0.796,1.922c0.496,0.513,1.14,0.857,1.805,1.116
			c1.329,0.518,2.977,0.666,4.062-0.261c0.294,0.343,0.143,0.911-0.208,1.193c-0.352,0.284-0.83,0.347-1.281,0.352
			c-2.264,0.03-4.628-1.273-5.353-3.419c-0.199,0.689-0.776,1.221-1.426,1.525c-0.65,0.304-1.373,0.411-2.084,0.495
			c-2.095,0.248-4.208,0.328-6.315,0.246c1.087-0.248,2.197-0.395,3.311-0.438c0.986-0.035,1.982,0.008,2.947-0.194
			C38.071,146.11,39.447,145.178,40.302,143.887"/>
		<path fill="#DCDBDB" d="M44.65,78.038c0,0,4.527,1.288,7.605,0.808c0,0-3.148,1.516-7.107,1.475
			C45.149,80.32,44.982,79.577,44.65,78.038"/>
		<path fill="#D4AB97" d="M90.047,118.466c0.421,0.364-20.602,3.217-26.519,10.97l-9.007,0.402c0,0,1.19-4.16,10.406-9.279
			C74.142,115.442,84.227,113.428,90.047,118.466"/>
		<path fill="#D1D2D2" d="M45.524,27.176l0.451,7.643c0,0-7.987,0.712-12.526,7.032C33.449,41.851,31.834,28.044,45.524,27.176"/>
		<path fill="#D1D2D2" d="M63,23.411l0.594,7.312c0,0,9.983,1.208,11.615,3.089C75.209,33.811,72.511,21.014,63,23.411"/>
	</g>
	<g>
		<path fill="#EFE0BE" d="M70.891,143.688c5.48-2.271,11.515-2.511,16.968-4.771c0.763-0.318,0.386-1.482-0.418-1.229
			c-5.569,1.756-11.676,2.239-16.958,4.799C69.768,142.833,70.12,144.01,70.891,143.688"/>
		<path fill="#E5C1B4" d="M62.937,158.614c-0.139,1.92-0.207,6.718,2.537,6.97c0.816,0.075,1.027-0.963,0.263-1.232
			c-1.731-0.613-1.56-4.329-1.547-5.812C64.197,157.715,62.994,157.834,62.937,158.614"/>
		<path fill="#A5897C" d="M83.134,116.403c3.147,0.619,5.461,1.955,8.064,3.741c0.644,0.439,1.343-0.323,0.808-0.907
			c-2.113-2.312-5.577-3.647-8.631-3.965C82.651,115.195,82.389,116.255,83.134,116.403"/>
		<path fill="#878787" d="M50.014,185.198c2.792,0.627,5.571,0.487,8.311-0.327c0.72-0.212,0.343-1.334-0.377-1.105
			c-2.545,0.81-5.107,0.952-7.736,0.504C49.61,184.166,49.414,185.064,50.014,185.198"/>
		<path fill="#32536E" d="M57.621,166.429c0.361,7.335,0.314,14.583-0.042,21.917c-0.011,0.23,0.228,0.512,0.46,0.537
			c4.47,0.455,8.805-0.366,13.215-1.037c2.117-0.325,4.698-0.215,5.793-2.376c1.481-2.924,0.467-8.046,0.442-11.176
			c-0.04-5.12-0.274-10.252-0.802-15.347c-0.082-0.795-1.288-0.732-1.244,0.072c0.282,5.117,0.605,10.228,0.767,15.352
			c0.077,2.447,0.474,5.274,0.073,7.684c-0.359,2.148-0.953,3.435-2.9,4.151c-1.397,0.511-3.462,0.552-4.913,0.78
			c-2.084,0.323-4.827,1.211-6.931,0.911c-3.822-0.547-2.526-2.704-2.428-5.52c0.185-5.342,0.072-10.689-0.432-16.012
			C58.615,165.688,57.587,165.743,57.621,166.429"/>
		<path fill="#878787" d="M44.56,117.28c6.89,2.093,14.207,1.416,20.802-1.354c0.839-0.354,0.394-1.704-0.459-1.35
			c-6.604,2.725-13.155,3.028-20.094,1.535C44.046,115.945,43.834,117.061,44.56,117.28"/>
		<path fill="#AD856F" d="M82.959,79.485c-7.175,11.11-18.084,14.327-30.695,15.297c-5.674,0.438-12.233,1.113-17.417-1.755
			c-5.523-3.055-9.987-9.297-11.606-15.347c-0.244-0.904-1.598-0.43-1.374,0.468c1.451,5.802,5.418,11.605,10.301,15.122
			c5.409,3.893,12.239,3.705,18.594,3.279c13.466-0.898,26.239-3.959,33.44-16.431C84.66,79.328,83.437,78.746,82.959,79.485"/>
		<path fill="#AD856F" d="M15.217,66.424c-3.421-8.392-2.312-19.934-1.008-28.71c1.387-9.333,5.07-18.8,12.692-24.793
			C34.579,6.882,45.534,6.372,54.9,7.472c4.486,0.526,9.145,1.806,12.723,4.68c4.227,3.396,6.425,8.391,8.58,13.218
			c0.343,0.771,1.594,0.368,1.259-0.428C73.621,15.825,68.696,8.845,58.561,6.65c-9.546-2.068-21.81-1.732-30.252,3.586
			c-8.097,5.102-12.768,14.152-14.757,23.272c-1.206,5.529-1.542,11.209-1.626,16.855c-0.082,5.632-0.123,11.196,2.217,16.426
			C14.436,67.447,15.497,67.11,15.217,66.424"/>
		<path fill="#AD856F" d="M83.152,54.428c2.817-2.846,5.889,0.943,5.98,3.786c0.095,2.957-1.558,6.378-4.905,6.223
			c-0.792-0.037-0.904,1.339-0.106,1.404c4.752,0.388,7.014-4.977,6.173-9.048c-0.729-3.533-5.062-6.247-7.888-3.028
			C81.977,54.25,82.703,54.883,83.152,54.428"/>
		<path fill="#AD856F" d="M77.332,26.846c3.995,17.458,6.04,35.078,5.561,52.997c-0.023,0.889,1.353,0.8,1.377-0.081
			c0.508-17.921-1.323-35.91-6.004-53.234C78.099,25.91,77.193,26.237,77.332,26.846"/>
		<path fill="#AD856F" d="M27.976,72.021c-0.943,0.297-1.618,0.647-2.416,1.256c0.297,0.059,0.595,0.119,0.892,0.178
			c-1.504-1.875-2.623-3.863-3.874-5.899c-0.746-1.213-1.624-2.416-2.997-2.962c-2.651-1.055-4.483,0.696-5.293,3.09
			c-1.394,4.117,1.473,13.308,7.268,11.28c0.846-0.296,0.406-1.6-0.45-1.322c-2.622,0.853-4.806-2.434-5.438-4.498
			c-0.537-1.759-0.671-4.105,0.308-5.742c2.487-4.153,5.004,0.301,6.25,2.407c0.953,1.608,2.024,3.083,3.263,4.483
			c0.242,0.273,0.685,0.165,0.909-0.054l1.907-1.251C28.904,72.736,28.607,71.822,27.976,72.021"/>
		<path fill="#E0AA86" d="M65.466,60.44c-0.504-2.798-0.894-5.604-0.878-8.454c0.016-3.062,0.455-14.214,6.76-8.483
			c2.608,2.37,3.624,6.031,3.728,9.436c0.043,1.447,0.028,2.99-0.279,4.412c-0.553,2.564-6.862,10.938-9.037,2.666
			c-0.214-0.813-1.394-0.38-1.223,0.416c0.95,4.38,6.029,5.016,9.026,2.101c3.875-3.767,3.563-11.678,1.356-16.159
			c-1.472-2.989-5.807-8.334-9.404-4.754c-1.659,1.65-1.794,4.809-2,6.953c-0.393,4.08-0.054,8.1,0.9,12.074
			C64.556,61.23,65.575,61.041,65.466,60.44"/>
		<path fill="#E0AA86" d="M52.768,55.926c-1.319-4.585-3.894-12.537-10.052-11.881c-6.323,0.673-6.148,7.514-4.778,12.114
			c1.779,5.979,1.749,13.195,9.844,12.164C54.183,67.51,53.888,60.743,52.768,55.926c-0.157-0.679-1.157-0.319-1.019,0.347
			c0.995,4.772,0.768,11.205-5.905,10.846c-4.569-0.247-5.794-7.917-6.782-11.341c-0.54-1.868-1.477-4.345-0.744-6.256
			c1.739-4.529,7.023-5.326,9.834-1.22c1.541,2.253,2.586,5.443,3.597,7.972C52.006,56.914,52.96,56.595,52.768,55.926"/>
		<path fill="#AD856F" d="M44.806,74.914c8.67,0.119,18.139,1.493,25.599-3.805c-0.336-0.168-0.674-0.336-1.01-0.503
			c0.113,3.366-0.721,6.312-1.906,9.417c-1.4,3.676-3.521,3.894-7.114,4.147c-2.749,0.194-5.639,0.398-8.356-0.151
			c-4.123-0.835-8.688-4.455-6.092-9.083c0.394-0.704-0.676-1.208-1.097-0.557c-4.921,7.587,6.001,11.356,11.606,11.333
			c3.003-0.012,8.685,0.568,10.896-2.021c2.568-3.01,3.497-9.385,3.362-13.162c-0.022-0.606-0.748-0.757-1.136-0.394
			c-5.888,5.501-17.422,3.688-24.815,3.721C44.059,73.858,44.128,74.904,44.806,74.914"/>
		<path fill="#AD856F" d="M58.858,95.654c0.019,3.331,3.553,5.206,6.298,5.496c0.871,0.093,1.188-1.197,0.29-1.361
			c-2.073-0.371-5.223-1.64-5.306-4.356c-0.026-0.847-1.287,0.086-1.282,0.926"/>
		<path fill="#AD856F" d="M40.147,96.103c-0.27,1.603-0.538,3.152-1.641,4.417c-0.951,1.088-2.239,1.739-3.434,2.511
			c-0.751,0.488-0.004,1.525,0.755,1.135c1.467-0.76,2.977-1.738,3.989-3.065c1.047-1.371,1.31-3.081,1.465-4.754
			C41.35,95.622,40.274,95.351,40.147,96.103"/>
		<path fill="#32536E" d="M34.416,104.325c7.401,8.967,14.808,18.038,16.003,30.006c0.08,0.801,1.264,0.732,1.248-0.073
			c-0.243-11.954-8.941-22.191-16.537-30.554C34.77,103.308,34.07,103.906,34.416,104.325"/>
		<path fill="#32536E" d="M64.902,100.198c1.386,6.74,1.072,13.978-1.617,20.364c-0.309,0.736,0.792,1.302,1.11,0.564
			c2.825-6.548,3.259-14.378,1.463-21.256C65.691,99.231,64.775,99.574,64.902,100.198"/>
		<path fill="#32536E" d="M65.408,100.621c4.239,0.443,8.903,1.394,7.838,6.707c-0.703,3.513-2.064,6.747-3.605,9.959
			c-0.347,0.724,0.714,1.256,1.105,0.561c1.206-2.133,2.146-4.404,2.872-6.744c0.655-2.116,1.902-5.469,1.332-7.701
			c-0.827-3.228-6.796-3.688-9.474-3.678C64.974,99.729,64.896,100.566,65.408,100.621"/>
		<path fill="#32536E" d="M73.59,102.622c3.78,3.388,5.929,7.365,6.664,12.379c0.121,0.83,1.384,0.786,1.323-0.077
			c-0.367-5.154-3.122-10.059-7.346-13.021C73.735,101.554,73.114,102.196,73.59,102.622"/>
		<path fill="#32536E" d="M34.609,103.267c-2.783,0.839-7.354,3.222-7.65,6.615c-0.262,2.992,4.284,7.985,6.022,10.166
			c1.071,1.344,2.248,2.678,3.692,3.63c1.808,1.189,4.001,1.064,4.755,3.345c0.317,0.961-0.029,1.642,0.594,2.59
			c1.28,1.945,4.404,3.894,6.215,5.303c0.649,0.506,1.504-0.442,0.854-0.961c-1.505-1.196-3.435-2.538-4.688-3.982
			c-1.314-1.521-0.915-2.583-1.585-4.247c-0.705-1.752-0.589-1.168-2.192-1.876c-4.275-1.882-6.345-4.064-8.955-8.009
			c-0.757-1.145-1.952-2.504-2.34-3.799c-1.33-4.435,2.298-6.367,5.643-7.705C35.646,104.066,35.31,103.056,34.609,103.267"/>
		<path fill="#32536E" d="M26.274,108.852c-5.417,5.331-8.705,11.967-11.012,19.15c-2.593,8.074-5.095,17.319-4.205,25.839
			c0.073,0.694,1.125,0.641,1.089-0.064c-0.408-8.052,1.691-16.427,3.945-24.126c2.192-7.493,5.455-14.471,10.871-20.189
			C27.373,109.026,26.693,108.438,26.274,108.852"/>
		<path fill="#32536E" d="M11.483,154.602c8.985,5.172,20.371,7.287,29.964,2.56c0.774-0.383,0.355-1.678-0.44-1.294
			c-9.708,4.686-19.746,2.072-29.082-2.136C11.35,153.475,10.938,154.289,11.483,154.602"/>
		<path fill="#32536E" d="M24.04,141.89c4.798-2.161,12.157-4.883,17.125-2.009c0.646,0.375,1.129-0.633,0.519-1.021
			c-5.111-3.254-13.197-0.221-18.04,2.224C23.19,141.314,23.572,142.101,24.04,141.89"/>
		<path fill="#32536E" d="M41.025,142.642c0.186-2.091,0.788-4.191,2.267-5.751c1.77-1.862,4.508-2.607,6.66-1.006
			c0.637,0.478,1.411-0.365,0.826-0.93c-2.058-1.986-4.958-1.445-7.13,0.076c-2.476,1.738-3.531,4.604-3.616,7.535
			C40.017,143.126,40.976,143.208,41.025,142.642"/>
		<path fill="#32536E" d="M40.771,155.528c1.074,2.661,1.478,5.266,4.734,5.863c2.874,0.525,5.396-1.15,7.391-3.027
			c0.577-0.543-0.338-1.328-0.912-0.811c-1.665,1.502-3.63,2.974-6.001,2.679c-2.905-0.364-3.225-2.83-4.199-5.047
			C41.512,154.563,40.51,154.884,40.771,155.528"/>
		<path fill="#32536E" d="M30.444,139.484c1.39-1.136,2.611-2.473,3.622-3.958c0.385-0.564-0.586-1.232-0.996-0.679
			c-1.015,1.371-2.113,2.631-3.341,3.814C29.289,139.09,29.96,139.879,30.444,139.484"/>
		<path fill="#32536E" d="M21.434,115.522c3.438,2.349,6.071,5.38,8.125,8.985c0.417,0.73,1.466,0.008,1.078-0.718
			c-2.009-3.765-5.056-6.813-8.658-9.067C21.514,114.431,20.976,115.21,21.434,115.522"/>
		<path fill="#AD856F" d="M67.935,156.082c0.885-1.052,2.192-1.736,2.673-3.088c0.547-1.533,0.472-3.464,0.062-5.01
			c-0.175-0.659-1.244-0.445-1.178,0.23c0.152,1.528,0.477,3.37-0.231,4.812c-0.482,0.984-1.497,1.611-2.08,2.54
			C66.901,156.013,67.603,156.477,67.935,156.082"/>
		<path fill="#AD856F" d="M63.052,152.516c4.643-0.607,11.524-7.191,6.62-11.572c-0.541-0.484-1.211,0.314-0.734,0.825
			c3.578,3.836-2.018,9.151-5.948,9.694C62.323,151.555,62.376,152.604,63.052,152.516"/>
		<path fill="#E5C1B4" d="M93.926,127.375c-0.168-2.449,0.416-7.291-2.255-8.56c-1.599-0.757-4.93,0.075-6.552,0.279
			c-2.39,0.3-4.746,0.784-7.058,1.459c-4.74,1.39-10.373,3.611-14.171,6.871c-2.783,2.386-1.699,5.193-1.283,8.612
			c0.093,0.773,1.305,0.707,1.212-0.071c-0.485-4.09-0.421-6.903,3.367-9.243c2.836-1.75,5.889-3.185,9.042-4.26
			c3.152-1.077,6.433-1.827,9.739-2.238c2.468-0.307,4.651-0.882,6.262,2.169c0.651,1.23,0.411,3.722,0.533,5.051
			C92.831,128.188,93.978,128.125,93.926,127.375"/>
		<path fill="#E5C1B4" d="M55.536,130.454c2.324-0.845,4.462-0.799,6.804-0.071c0.646,0.199,1.011-0.847,0.395-1.118
			c-2.454-1.079-5.268-0.906-7.645,0.283C54.573,129.809,55.004,130.646,55.536,130.454"/>
		<path fill="#A5897C" d="M65.925,165.623c7.964-5.035,15.775-10.454,25.349-11.777c1.638-0.225,3.252,0.02,4.364-1.373
			c1.227-1.536,0.87-4.412,0.759-6.196c-0.049-0.793-1.274-0.722-1.233,0.073c0.124,2.357,0.445,4.787-2.299,6.033
			c-0.778,0.355-2.552,0.291-3.49,0.47c-3.028,0.575-5.963,1.56-8.767,2.826c-5.381,2.434-10.435,5.699-15.252,9.091
			C64.817,165.149,65.365,165.977,65.925,165.623"/>
		<path fill="#A5897C" d="M56.544,159.42c0.042,1.618,0.153,3.279,0.488,4.863c0.178,0.84,0.385,1.581,1.131,2.086
			c1.977,1.337,5.455,0.249,7.428-0.544c0.557-0.224,0.449-1.2-0.215-1.101c-1.702,0.259-4.057,1.48-5.746,0.802
			c-1.916-0.77-1.76-4.379-1.919-6.174C57.645,158.603,56.523,158.666,56.544,159.42"/>
		<path fill="#32536E" d="M29.831,159.76c-0.354,4.553,0.663,9.11,0.498,13.697c-0.199,5.535-1.473,10.918-3.289,16.13
			c-0.256,0.735,0.93,0.977,1.185,0.253c1.677-4.775,2.724-9.66,3.117-14.711c0.402-5.164-0.539-10.159-0.414-15.285
			C30.943,159.224,29.88,159.133,29.831,159.76"/>
		<path fill="#32536E" d="M27.422,190.899c3.944,1.409,8.029,1.748,12.193,1.302c2.551-0.271,8.513-0.576,10.122-2.747
			c1.456-1.961,0.864-8.067,0.92-10.526c0.141-6.065-0.172-12.113-0.85-18.144c-0.091-0.804-1.347-0.733-1.258,0.075
			c0.854,7.771,1.073,15.521,0.669,23.328c-0.211,4.072-0.071,4.411-3.834,5.565c-1.89,0.578-3.889,0.901-5.847,1.145
			c-4.031,0.497-7.873,0.177-11.788-0.925C27.218,189.822,26.892,190.71,27.422,190.899"/>
		<path fill="#AD856F" d="M74.264,21.464c0,0,2.952,4.62,3.706,8.11c0.755,3.49,0.978-0.837,0.978-0.837s-0.751-4.382-3.604-8.295
			C72.487,16.528,74.264,21.464,74.264,21.464"/>
		<path fill="#AD856F" d="M39.357,58.219c3.205-2.738,7.085-4.031,11.294-3.702c0.787,0.062,1.074-1.142,0.262-1.228
			c-4.568-0.485-8.894,1.01-12.208,4.181C38.301,57.858,38.924,58.589,39.357,58.219"/>
		<path fill="#AD856F" d="M64.381,52.471c1.902-0.388,3.814-0.881,5.769-0.867c1.836,0.012,3.323,0.608,5.042,1.117
			c0.722,0.213,1.104-0.916,0.437-1.235c-3.813-1.825-7.691-1.295-11.6-0.051C63.338,51.654,63.711,52.608,64.381,52.471"/>
		<path fill="#AD856F" d="M54.161,132.008c-8.083,4.202-8.237,15.193-5.32,22.754c2.774,7.192,14.634,5.641,19.057,0.949
			c0.37-0.394-0.255-0.945-0.625-0.556c-3.017,3.154-7.443,3.529-11.518,2.773c-2.676-0.496-4.385-0.847-5.68-3.586
			c-0.624-1.318-0.825-3.014-1.088-4.423c-1.223-6.542-0.074-13.129,5.707-17.112C55.214,132.449,54.699,131.729,54.161,132.008"/>
		<path fill="#A5897C" d="M55.208,137.207c0.024-3.4-0.541-7.014,1.598-9.765c1.827-2.354,4.952-4.272,7.485-5.805
			c5.213-3.154,12.7-6.371,18.912-5.272c0.792,0.14,1.054-1.082,0.261-1.222c-6.866-1.213-14.775,2.24-20.488,5.858
			c-2.688,1.702-6.231,4.051-8.099,6.71c-1.834,2.608-0.873,6.537-0.708,9.556C54.206,137.942,55.203,137.871,55.208,137.207"/>
		<path fill="#AD856F" d="M62.25,144.716c4.252-0.161,9.804-3.788,7.839-8.827c-0.742-1.9-2.152-2.145-3.916-1.308
			c-3.757,1.788-6.624,3.685-10.953,2.195c-0.8-0.275-1.074,1.027-0.275,1.291c3.18,1.064,6.409,0.579,9.362-0.964
			c0.667-0.349,1.333-0.978,2.027-1.243c2.404-0.922,3.015,0.646,2.776,2.515c-0.443,3.472-3.753,5.142-6.914,5.444
			C61.621,143.872,61.667,144.738,62.25,144.716"/>
		<path fill="#EFE0BE" d="M65.591,120.069c1.722,0.041,4.247,0.308,5.921,1.064c4.406,2.001,3.874,3.912,4.119,7.282
			c0.227,3.146,0.528,6.289,0.896,9.423c0.367,3.133,0.82,6.257,1.347,9.366c0.455,2.683,2.25,7.545,0.897,10.029
			c-0.434,0.8,0.781,1.386,1.245,0.632c1.894-3.083-0.074-7.459-0.638-10.748c-0.919-5.375-1.669-10.783-2.219-16.207
			c-0.287-2.831,0.385-7.47-1.97-9.5c-2.339-2.017-6.738-2.447-9.659-2.376C64.856,119.055,64.932,120.056,65.591,120.069"/>
		<path fill="#A3A3A2" d="M45.806,34.569c-5.554-0.128-9.573,3.84-12.837,7.866c0.385,0.077,0.771,0.155,1.155,0.233
			c-2.454-7.146,4.135-14.732,11.345-15.036l-0.734-0.652c0.514,2.68,0.835,5.375,1.04,8.096c0.055,0.735,1.142,0.664,1.139-0.067
			c-0.016-2.754-0.299-5.403-0.792-8.111c-0.069-0.375-0.321-0.668-0.735-0.652c-8.118,0.332-15.366,8.856-12.555,16.862
			c0.164,0.464,0.828,0.644,1.156,0.234c3.133-3.918,6.608-7.352,11.881-7.708C46.561,35.585,46.482,34.585,45.806,34.569"/>
		<path fill="#A3A3A2" d="M62.594,25.809c0.056,1.901,0.138,3.799,0.286,5.696c0.025,0.318,0.325,0.645,0.668,0.594
			c3.972-0.588,7.926,0.038,11.142,2.549c0.436,0.34,1.105,0.062,1.077-0.521c-0.225-4.651-2.821-8.905-7.155-10.803
			c-1.497-0.655-4.103-1.501-5.752-0.949c-1.707,0.571-0.794,2.743-0.252,3.945c0.314,0.697,1.368,0.368,1.141-0.388
			c-0.32-1.069-0.504-2.093,0.807-2.228c0.564-0.058,1.251,0.136,1.798,0.27c1.642,0.403,3.146,1.151,4.434,2.247
			c2.38,2.023,3.569,4.907,3.687,7.981l1.076-0.522c-3.363-2.964-7.813-3.2-12.078-2.844c0.223,0.198,0.446,0.396,0.669,0.594
			c-0.165-1.895-0.329-3.788-0.456-5.686C63.64,25.04,62.574,25.104,62.594,25.809"/>
	</g>
	<path fill="#597673" d="M97.142,114.431c-0.452-3.246-0.618-6.77-0.845-10.097l-0.061-0.346c0,0-0.218-0.032-0.562-0.096
		c-0.326,0.326-0.65,0.654-0.944,1.003c0.075,0.967,0.186,2.26,0.265,3.238c0.969,12.037,4.261,23.721,5.653,35.695
		c1.508,12.956,0.627,28.402-12.456,35.109c-0.769,0.395-0.246,1.597,0.554,1.234C112.686,169.311,99.775,133.317,97.142,114.431z"
		/>
	<path fill="#F3C09D" d="M89.844,128.754c0,0-3.448,0.395-2.386,3.311c1.064,2.919,1.324,1.803,1.324,1.803s-2.22,3-0.324,4.191
		c1.897,1.189,5.74,2.775,5.74,2.775s-2.387,2.928-1.596,4.276c0.789,1.351,4.816,1.685,6.559-0.388
		c1.743-2.068,4.223-5.557-0.038-7.705c0,0,0.279-2.96-2.312-3.974c0,0-0.105-3.977-2.099-5.026
		C92.718,126.968,89.844,128.754,89.844,128.754"/>
	<path fill="#AD856F" d="M87.623,130.077c1.364-0.463,2.719-0.938,4.121-1.271c1.292-0.31,2.573-0.691,3.688,0.33
		c0.857,0.788,1.497,2.458,0.405,3.374c-1.052,0.882-3.311,1.093-4.586,1.157c-2.186,0.105-3.476-1.052-3.641-3.281
		c-0.053-0.714-1.124-0.648-1.108,0.064c0.046,2.142,1.26,4.18,3.521,4.464c1.926,0.242,5.958-0.366,7.178-2.046
		c1.152-1.587-0.07-4.086-1.553-5.027c-2.298-1.461-6.19,0.309-8.329,1.347C86.792,129.443,87.032,130.278,87.623,130.077"/>
	<path fill="#AD856F" d="M88.637,134.109c-1.6,1.419-1.644,3.887,0.217,5.141c1.947,1.312,5.808,1.734,8.109,1.517
		c3.757-0.357,4.056-8.864-0.19-8.316c-0.76,0.099-0.698,1.181,0.07,1.188c2.327,0.021,1.988,4.178,1.014,5.254
		c-0.809,0.894-2.392,0.594-3.388,0.486c-2.121-0.23-8.084-1.34-5.04-4.563C89.91,134.305,89.133,133.671,88.637,134.109"/>
	<path fill="#AD856F" d="M93.933,140.438c-1.641,1.022-2.692,2.865-1.518,4.708c1.228,1.928,3.52,1.642,5.322,0.816
		c1.901-0.866,4.093-2.663,4.687-4.767c0.474-1.679-0.583-4.117-2.372-4.485c-0.634-0.13-1.026,0.845-0.39,1.104
		c3.22,1.312,0.737,4.947-1.067,6.247c-0.815,0.588-1.782,1.109-2.781,1.271c-0.871,0.139-1.896-0.013-2.408-0.847
		c-0.768-1.247,0.077-2.506,1.058-3.253C94.949,140.863,94.458,140.109,93.933,140.438"/>
</g>
<g id="Layer_4">
	<path fill="#E5B695" d="M2.518,114.669c0,0,2.542-7.382,11.493-12.324s10.465-4.843,13.083-2.67s5.815,4.639,4.707,6.98
		c-1.107,2.342-1.195,4.875-0.822,7.135c0.374,2.259,1.373,5.963-2.918,8.298c-4.291,2.334-5.085,0.742-5.085,0.742
		s-0.734,5.748-3.093,6.339c-2.359,0.591-6.439,1.082-7.304-3.037c0,0-5.306,0.91-6.151-3.266
		C6.428,122.866,1.169,122.329,2.518,114.669z"/>
	<path fill="#FDD0B1" d="M30.869,103.981c0,0-6.747,9.128-9.529,14.099s-8.849,4.997-13.498,0.04
		c-4.648-4.957-4.876-6.87,0.425-12.069c5.301-5.199,15.316-9.269,18.21-6.854C29.372,101.61,30.869,103.981,30.869,103.981z"/>
	<path fill="none" stroke="#AD856F" stroke-width="1.2" stroke-linecap="round" stroke-linejoin="round" stroke-miterlimit="10" d="
		M20.711,99.088c-1.806,0.562-3.161,0.686-5.204,1.841c-2.285,1.293-4.854,2.89-6.757,4.665c-3.064,2.854-5.706,5.982-6.489,10.162
		c-0.251,1.341-0.364,3.527,0.255,4.786c0.736,1.497,1.867,1.811,3.298,1.68"/>
	<path fill="none" stroke="#AD856F" stroke-width="1.2" stroke-linecap="round" stroke-linejoin="round" stroke-miterlimit="10" d="
		M12.891,110.689c-1.633,0.585-2.59,2.462-3.308,3.495c-0.797,1.146-1.409,2.374-2.047,3.611c-0.888,1.726-1.382,3.108-1.107,5.07
		c0.223,1.582,0.841,2.531,2.412,3.085c1.02,0.36,3.108,0.689,3.742-0.505"/>
	<path fill="none" stroke="#AD856F" stroke-width="1.2" stroke-linecap="round" stroke-linejoin="round" stroke-miterlimit="10" d="
		M18.777,113.181c-1.901,1.953-4.25,6.535-5.313,9.036c-0.594,1.396-1.148,3.563-0.714,5.063c0.718,2.479,6.233,3.408,7.73,1.348
		c1.115-1.533,1.435-3.754,2.153-5.509c0.426-1.04,0.666-2.137,1.192-3.119c0.652-1.217,1.476-3.101,2.725-3.593"/>
	<path fill="none" stroke="#AD856F" stroke-width="1.2" stroke-linecap="round" stroke-linejoin="round" stroke-miterlimit="10" d="
		M21.061,98.87c-0.104-0.231,1.859-0.472,2.36-0.492c0.968-0.042,1.693,0.077,2.549,0.572c1.541,0.893,2.929,2.116,4.21,3.339
		c1.458,1.389,1.833,2.602,1.109,4.505c-0.546,1.439-0.764,2.712-0.699,4.242c0.128,2.983,1.814,6.586,0.039,9.242
		c-1.428,2.137-5.26,4.32-7.652,2.552"/>
</g>
</svg>
