<?xml version="1.0" encoding="utf-8"?>
<!-- Generator: Adobe Illustrator 15.1.0, SVG Export Plug-In . SVG Version: 6.00 Build 0)  -->
<!DOCTYPE svg PUBLIC "-//W3C//DTD SVG 1.1//EN" "http://www.w3.org/Graphics/SVG/1.1/DTD/svg11.dtd">
<svg version="1.1" xmlns="http://www.w3.org/2000/svg" xmlns:xlink="http://www.w3.org/1999/xlink" x="0px" y="0px"
	 width="237.528px" height="151.75px" viewBox="0 0 237.528 151.75" enable-background="new 0 0 237.528 151.75"
	 xml:space="preserve">
<g id="Layer_5">
	<path fill="#EAB978" d="M151.788,51.77c0,0,2.366,6.453-1.807,11.266L151.788,51.77z"/>
	<path fill="none" stroke="#A5774C" stroke-miterlimit="10" d="M151.482,51.24c1.704,2.686,1.14,5.406,0.627,8.33
		c-0.183,1.045-0.452,1.02-0.895,1.982c-0.321,0.699-0.972,2.16-1.732,2.438"/>
	<polygon fill="#6D6E71" points="147.856,43.326 150.315,43.326 146.481,68.035 135.93,66.682 139.465,43.994 	"/>
	<path fill="#939598" d="M150.315,43.326c0.385,0,2.25,0.898,2.25,0.898l-3.584,24.498l-2.5-0.688L150.315,43.326z"/>
	<path fill="#58595B" d="M146.481,46.857h3.5l-2.875,16.52c0,0-9.199-1.033-9.193-1.156s2.756-15.363,2.756-15.363H146.481z"/>
	<path fill="#AF3B31" d="M150.129,71.461c0,0,0.779-2.471,1.09-5.176c0.07-0.619-0.492-1.205-1.43-1.678
		c-0.146,1.158-0.299,2.314-0.498,3.465c-0.083,0.482-0.693,0.793-1.139,0.646c-1.955-0.637-3.908-0.756-5.918-1.082
		c-1.732-0.281-3.579-1.234-5.34-0.75c-0.025,0.006-0.047,0-0.07,0.004c-2.867,5.246,1.186,5.641,1.186,5.641l2.221,6.879
		c-6.916-2.918-15-2.5-15-2.5s3.334,12.75,8.457,12.584c5.122-0.168,6.543,2.25,13.418,2.686s6.757-5.504,7.048-8.854
		C154.446,79.977,150.129,71.461,150.129,71.461z"/>
</g>
<g id="Layer_4">
	<path fill="none" stroke="#753222" stroke-miterlimit="10" d="M136.543,67.035c-0.281,1.248-0.64,2.723-0.327,3.953
		c0.292,1.148,1.312,1.512,2.458,1.668c1.45,0.197,3.117,0.203,4.572,0.064c1.618-0.154,3.352-0.049,4.922-0.512
		c0.73-0.217,1.78-0.623,2.266-1.221c0.527-0.65,0.455-1.674,0.484-2.48c0.047-1.281,0.707-3.828-1.375-3.66"/>
	<polyline fill="none" stroke="#58595B" stroke-miterlimit="10" points="136.155,64.402 135.774,66.66 146.481,68.186 
		150.315,43.326 145.004,43.326 	"/>
	<polyline fill="none" stroke="#58595B" stroke-miterlimit="10" points="150.7,43.326 152.565,44.225 148.981,68.723 
		146.481,68.186 	"/>
	<line fill="none" stroke="#58595B" stroke-miterlimit="10" x1="137.913" y1="62.219" x2="147.106" y2="63.035"/>
	<line fill="none" stroke="#58595B" stroke-miterlimit="10" x1="146.186" y1="47.221" x2="149.738" y2="47.221"/>
</g>
<g id="Layer_3">
	<g>
		<path fill="#DCD7B6" d="M114.86,147.186c0.308-0.189,0.598-0.064,0.762,0.162c0.006,0.004,0.012,0.002,0.018,0.006
			c4.01,2.291,10.36,0.795,12.669-3.281c0.061-0.109,0.143-0.176,0.229-0.223c0.199-4.84,0.245-10.518-0.387-13.629
			c-1.246-6.133-29.295,7.322-29.295,7.322s-1.628,4.701-1.43,9.129c0.012,0.273,0.023,0.572,0.034,0.891
			c0.041-0.014,0.077-0.037,0.124-0.043C103.513,146.725,109.298,150.623,114.86,147.186z"/>
		<path fill="#F2EEC9" d="M117.516,138.947c0.052,0.09,0.098,0.191,0.144,0.293c-0.002,1.809-0.005,3.621-0.007,5.432
			c0.595,1.539,1.867,2.225,3.674,2.006c1.159-0.141,2.519-0.383,3.551-0.961c1.146-0.643,1.694-1.555,1.988-2.592
			c0.362-3.654,0.389-7.34,0.077-11l-8.021,2.949c0-0.002-0.001-0.002-0.002-0.002c-0.223-0.193-0.56-0.141-0.848-0.076
			c-1.116,0.252-2.23,0.508-3.343,0.771c-1.18,0.279-2.371,0.57-3.453,1.115c-0.228,0.115-0.459,0.254-0.65,0.424l-6.909,0.264
			c0.118,2.756,0.254,5.512,0.384,8.268c0.848,1.764,2.387,2.107,4.681,1.846c1.348-0.154,3.298-0.359,3.935-1.785
			c0.128-0.287,0.228-0.578,0.312-0.871c0-1.82-0.001-3.641-0.002-5.461c0.08-0.117,0.167-0.227,0.267-0.326
			c0.564-0.561,1.359-0.84,2.149-0.953C116.207,138.176,117.131,138.283,117.516,138.947z"/>
		<path fill="#B0AA84" d="M127.45,130.344c-0.355-0.074-0.723,0.002-1.076,0.078c-9.366,2.016-18.747,4.055-27.862,7.006
			c-0.286,0.092-0.596,0.205-0.749,0.463c-0.116,0.193-0.118,0.434-0.117,0.66c0.014,2.557,0.028,5.113,0.042,7.672
			c2.18,0.062,3.036-2.809,3.237-4.953c-0.095-0.902-0.266-1.801-0.445-2.691c9.258-0.037,18.5-2.254,26.766-6.422
			c0.46-0.232,0.99-0.596,0.936-1.109C128.145,130.688,127.805,130.418,127.45,130.344z"/>
		<path fill="#DCD7B6" d="M80.489,23.274c0,0-3.39,58.589-3.101,58.96c0.288,0.373,19.565,1.48,19.565,1.48s7.387-2.504,8.57-4.986
			c1.182-2.48,0.381-9.031,0.381-9.031L140.032,56.4c0,0,2.846,7.848,4.166,7.889c1.318,0.043,0.186-6.275,0.186-6.275
			s2.699-50.236-4.381-56.281c0,0-14.588,0.476-32.71,6.492C89.171,14.244,82.306,20.383,80.489,23.274"/>
		<path fill="#D3A36B" d="M98.724,32.26c0,0-0.893,10.713,0.009,19.908c0.901,9.197,1.78,14.002,1.78,14.002l4.71,3.527l9.763,4.906
			c0,0,10.517-1.27,16.349-6.061s8.768-5.615,8.016-14.049s-1.777-27.035-2.969-29.263c0,0-9.936-1.4-21.396,1.023
			C103.528,28.676,98.724,32.26,98.724,32.26"/>
		<path fill="#D3A36B" d="M89.112,50.42c0,0-4.684,1.131-3.646,4.447c1.039,3.314,5.18,3.711,6.287,2.094
			C92.86,55.346,89.112,50.42,89.112,50.42"/>
		<path fill="#EAB978" d="M103.305,67.637c1.856,2.809,5.121,4.281,8.212,5.613c1.668,0.721,3.406,1.453,5.222,1.398
			c1.424-0.043,2.784-0.568,4.096-1.127c3.15-1.338,6.207-2.895,9.142-4.656c2.545-1.529,5.053-3.268,6.756-5.697
			c1.701-2.434,3.791-5.947,2.617-8.674c-0.598-1.389-0.465-4.59-2.697-8.822c-1.812-3.441-1.082-1.379-2.111-5.129
			c-0.121-0.434-0.268-0.879-0.572-1.213c-0.346-0.377-0.848-0.561-1.334-0.721c-9.098-2.992-20.958-0.633-28.671,5.043
			c-0.603,0.443-1.206,0.93-1.555,1.592c-0.377,0.715-0.417,1.553-0.449,2.359c-0.146,3.734-0.292,6.787-0.438,10.521
			C101.381,61.738,101.311,64.621,103.305,67.637"/>
		<path fill="#EAB978" d="M89.407,51.455c-0.385,0.307-0.775,0.617-1.062,1.016c-0.665,0.922-0.654,2.275,0.027,3.186
			c0.681,0.91,1.977,1.303,3.048,0.926c0.135-0.049,0.271-0.109,0.363-0.219c0.169-0.203,0.139-0.5,0.095-0.762
			c-0.189-1.121-0.472-2.229-0.844-3.303c-0.154-0.445-0.341-0.91-0.719-1.189c-0.379-0.281-1.004-0.277-1.249,0.125"/>
		<path fill="#BA8F60" d="M98.298,45.262c0.064-3.754,0.128-7.51,0.193-11.264c0.01-0.588-0.188-0.639,0.022-1.189
			c0.474-1.242,2.246-1.692,3.474-2.202c9.993-4.136,20.729-6.647,31.513-5.833c0.896,0.068,1.84,0.171,2.562,0.706
			c0.721,0.535,1.088,1.652,0.525,2.353c-11.212-0.396-22.493,1.255-33.122,4.843l-1.552,0.473
			c-2.009,6.244-2.841,12.865-2.439,19.412L98.298,45.262z"/>
		<path fill="#F2EEC9" d="M101.271,26.604c-2.008,0.686-4.174,0.695-6.297,0.7l-6.181,0.011c-0.854,0.002-1.74-0.003-2.517-0.361
			c-1.369-0.632-2.066-2.27-1.957-3.773c0.108-1.505,0.878-2.883,1.779-4.093c4.339-5.816,16.294-9.741,23.263-11.765
			c11.03-3.205,17.347-4.034,28.75-5.421c0.379-0.047,1.537-0.314,1.889-0.168c0.488,0.201,0.322,1.692,0.555,2.166
			c1.432,2.894,2.658,5.024,2.48,8.247c-0.178,3.224-2.098,6.54-5.193,7.45c-2.307,0.677-4.754-0.048-7.111-0.517
			c-8.152-1.619-16.899-0.012-23.943,4.401C104.993,24.607,103.277,25.918,101.271,26.604"/>
		<path fill="#B0AA84" d="M88.276,46.631c-0.967,1.465-1.715,3.074-2.211,4.758c0.715-0.541,1.58-0.883,2.472-0.975
			c0.457-0.049,1.076-0.184,1.064-0.643c-0.002-0.117-0.053-0.225-0.102-0.332c-0.421-0.898-0.842-1.799-1.264-2.699"/>
		<path fill="#B0AA84" d="M104.866,69.666c-0.17-0.471-0.546-0.834-0.911-1.18c-0.898-0.85-1.796-1.699-2.695-2.551
			c-0.042,2.359,0.174,4.723,0.643,7.035c-0.689,0.59-1.651-0.297-2.102-1.082c-2.999-5.227-5.565-9.701-7.663-15.352
			c-1.938,1.799-5.39,1.562-7.063-0.484C84.597,64.91,88.32,72.904,94.92,78.83c1.787,1.604,4.203,3.064,6.466,2.26
			c1.764-0.627,2.823-2.48,3.193-4.314c0.371-1.836,0.845-3.088,0.995-4.953C105.615,71.316,105.038,70.143,104.866,69.666"/>
		<path fill="#B0AA84" d="M136.155,24.578c0,0,3.268,0.779,3.848,7.149c0.578,6.369,1.514,23.035,4.195,31.65
			c0,0-4.904-4.475-5.367-14.367S136.891,26.735,136.155,24.578"/>
		<path fill="#B0AA84" d="M98.724,32.26c0,0-4.713,5.145-2.451,20.299c2.262,15.156,5.157,22.045,5.157,22.045
			s-1.948-12.373-2.539-20.857C98.299,45.262,98.724,32.26,98.724,32.26"/>
		<path fill="#F7F5E4" d="M132.598,19.595c-7.598-1.482-15.655-0.51-22.684,2.736c-1.145,0.529-2.263,1.115-3.36,1.738
			c-2.74,1.55-5.588,3.376-8.731,3.217c3.703-0.947,6.789-3.425,10.128-5.286c8.158-4.55,18.307-5.364,27.087-2.175
			C134.225,19.937,133.405,19.752,132.598,19.595"/>
		<path fill="#AF3B31" d="M134.959,96.193c-0.075-0.062-0.143-0.139-0.194-0.232c-0.569-1.018-0.851-2.191-1.476-3.174
			c-0.539-0.85-1.139-1.633-1.368-2.631c-0.234-1.02,1.109-1.523,1.625-0.848c0.133-0.025,0.275-0.023,0.431,0.041
			c0.198,0.084,0.385,0.174,0.564,0.271c-0.324-3.229-1.01-6.297-2.848-7.85c-3.56-3.01-5.715-4.338-5.715-4.338
			s-1.234-5.463-5.601-3.211l0.665,4.953c0,0-2.316,1.99-8.383,2.596c-6.068,0.604-7.95-1.422-7.95-1.422s1.537-3.41,1.199-4.494
			c-0.337-1.082-6.619,0.203-6.202,6.426c0,0-7.046,2.188-10.01,9.482c-2.964,7.295-3.625,21.66-3.61,25.062
			c0.014,3.4-0.166,11.908-0.166,11.908s-1.342,0.572-1.281,3.07c0.061,2.498,0.133,5.207,3.099,6.121
			c2.966,0.916,10.327-0.33,11.81-1.238c0,0,3.624,2.041,14.937-1.986c7.634-2.369,15.087-5.621,15.087-5.621
			s-0.063-0.232,0.335-0.352c0.051-5.803-0.098-8.76,0.32-14.492c0.24-3.277,1.592-6.186,4.62-7.627
			c0.101-0.047,0.196-0.061,0.292-0.072v-0.1c0,0,0.637-3.871,0-8.42C135.063,97.465,135.006,96.85,134.959,96.193z"/>
		<path fill="#D3A36B" d="M116.132,74.463c-1.505-0.238-2.787-0.986-4.127-1.668c-1.808-0.92-3.622-1.816-5.504-2.574
			c-0.183-0.074-0.242-0.25-0.217-0.404l-0.379-0.119l-1.196,10.959c0,0,10.131,3.604,16.334-1.48l-0.654-4.871
			C118.977,74.572,117.547,74.688,116.132,74.463"/>
		<polygon fill="#BA8F60" points="105.812,73.678 117.354,78.971 120.71,77.836 120.389,74.307 115.443,74.818 105.224,69.697 		"/>
		<path fill="#C94544" d="M97.478,89.24c-0.307-1.756,1.979-2.943,3.724-2.58c1.745,0.361,3.186,1.588,4.878,2.146
			c2.488,0.822,5.19,0.121,7.728-0.531c3.92-1.012,7.868-1.904,11.84-2.678c1.103-0.213,2.334-0.396,3.276,0.215
			c0.684,0.445,1.064,1.217,1.414,1.951l2.314,4.869c0.619,1.303,1.254,2.754,0.857,4.141c-0.59,2.061-3.034,2.848-5.123,3.316
			c-6.557,1.471-13.137,2.945-19.831,3.531c-0.569,0.051-1.163,0.09-1.69-0.129c-0.98-0.406-1.401-1.535-1.777-2.527
			c-1.376-3.639-3.528-6.982-6.27-9.742C98.247,90.646,97.617,90.039,97.478,89.24"/>
		<path fill="#C2413B" d="M118.125,118.508c1.026-0.238,2.079-0.354,3.131-0.422c1.707-0.111,3.512-0.08,5,0.768
			c1.78,1.016,2.781,3.057,3.05,5.088c0.268,2.033-0.093,4.09-0.452,6.107c-7.311,1.963-14.544,4.219-21.674,6.758
			c-0.725-3.857-0.138-7.984,1.818-11.389C110.952,122.014,114.299,119.393,118.125,118.508"/>
		<path fill="#94302B" d="M103.131,85.395c0,0-2.61-1.621-6.858-0.012c-4.248,1.607-5.826,3.758-5.826,3.758
			s5.778-6.387,9.259-6.859L103.131,85.395z"/>
		<path fill="#94302B" d="M98.96,101.328c0,0,1.617,24.438,1.958,26.096c0,0,2.611,1.469,2.213,9.848c0,0-2.844-0.115-2.984-0.344
			c-0.141-0.227,0.753-8.189-2.189-8.867C97.958,128.061,98.023,106.094,98.96,101.328"/>
		<path fill="#D3A36B" d="M85.53,136.334c0,0-3.009,0.9-2.407,3.164c0.602,2.266,3.146,6.479,3.894,7.24
			c0.748,0.764,2.889,2.822,5.543,0.924c2.655-1.898,2.556-2.719,2.556-2.719s2.776,1.012,3.608-2.148
			c0.833-3.16-0.014-5.449-0.014-5.449S93.804,140.096,85.53,136.334"/>
		<path fill="#EAB978" d="M85.286,139.893c0.234-0.35,0.693-0.486,1.112-0.455c0.419,0.029,0.814,0.195,1.208,0.34
			c1.478,0.537,3.063,0.775,4.633,0.695c0.711-0.037,1.594-0.053,1.931,0.574c0.339,0.633-0.175,1.371-0.661,1.9
			c-0.522,0.568-1.057,1.141-1.716,1.543c-0.66,0.402-1.471,0.617-2.214,0.408c-0.338-0.096-0.648-0.271-0.944-0.461
			c-1.125-0.719-2.126-1.633-2.941-2.689C85.279,141.211,84.908,140.455,85.286,139.893"/>
		<path fill="#BA8F60" d="M96.172,142.957c0.036-0.037,0.076-0.07,0.125-0.088c0.053-0.018,0.11-0.012,0.165-0.004
			c0.611,0.092,1.112,0.664,1.12,1.283c0.003,0.215-0.06,0.447-0.235,0.57c-0.122,0.086-0.277,0.104-0.424,0.119
			c-0.366,0.041-0.752,0.076-1.086-0.078c-0.049-0.023-0.1-0.053-0.124-0.102c-0.026-0.053-0.014-0.115-0.003-0.172
			c0.061-0.301,0.122-0.6,0.183-0.9c0.025-0.123,0.05-0.248,0.101-0.363C96.035,143.125,96.096,143.033,96.172,142.957"/>
		<path fill="#BA8F60" d="M98.929,138.643c-0.006-0.287-0.012-0.574-0.018-0.861c-0.002-0.082-0.005-0.172-0.055-0.238
			c-0.092-0.125-0.28-0.104-0.43-0.066c-0.412,0.104-0.812,0.246-1.219,0.369c-1.803,0.549-3.716,0.734-5.59,0.541
			c-0.83-0.086-1.649-0.244-2.469-0.404c-1.39-0.268-2.821-0.555-4.001-1.34c-0.187,0.158-0.373,0.316-0.56,0.475
			c0.901,0.916,2.082,1.518,3.31,1.898c1.227,0.381,2.508,0.551,3.782,0.709c2.358,0.293,4.893,0.512,6.982-0.623
			c0.088-0.047,0.18-0.102,0.227-0.191C98.931,138.83,98.931,138.734,98.929,138.643"/>
		<path fill="#D95656" d="M111.439,103.279c6.931-1.289,13.812-2.844,20.624-4.66c-1.441,0.902-3.076,1.443-4.715,1.893
			c-4.019,1.1-8.159,1.682-12.285,2.26C113.855,102.941,112.647,103.111,111.439,103.279"/>
		<path fill="#B0AA84" d="M114.992,144.201c0.635,0.303,1.447,0.129,1.945-0.367s0.682-1.268,0.521-1.951
			c-1.193,0.439-2.458,0.678-3.729,0.703C114.003,143.229,114.361,143.9,114.992,144.201"/>
		<path fill="#B0AA84" d="M110.755,25.095l1.005,3.056l-5.31,3.11C106.451,31.261,106.404,26.625,110.755,25.095"/>
		<path fill="#B0AA84" d="M126.58,23.048l-0.388,2.396c0,0,4.336,1.523,5.247,2.645C131.439,28.089,132.104,23.391,126.58,23.048"/>
		<path fill="#FFFFFF" d="M110.722,38.01c0,0-4.357,1.021-4.868,5.619c-0.511,4.596-0.58,11.33,5.667,11.537
			c6.248,0.207,6.489-6.225,6.623-8.328C118.281,44.734,117.718,37.5,110.722,38.01"/>
		<path fill="#FFFFFF" d="M129.981,36.502c0,0-6.133,0.062-6.023,9c0.11,8.936,6.575,9.373,9.463,7.057
			c2.889-2.314,3.584-8.619,2.734-10.945C135.303,39.287,133.17,36.609,129.981,36.502"/>
		<path fill="#E2E2E2" d="M106.45,42.295c0,0,3.148-2.838,7.631-3.574C114.082,38.721,109.542,35.656,106.45,42.295"/>
		<path fill="#E2E2E2" d="M133.174,40.428c1.283,1.385,2.602,3.141,3.221,5.076c0.139-1.365,0.127-2.955-0.375-4.23
			c-1.115-2.838-4.045-5.797-8.566-3.834C127.454,37.439,131.089,38.16,133.174,40.428"/>
	</g>
	<path fill="#94302B" d="M100.169,81.848c0.006-1.064,0.574-2.311,1.497-3.076c0.499-0.412,1.197-0.828,1.802-1.035
		c0.525-0.18,1.034,0.02,1.25-0.465c0.159-0.359,0.164-1.258-0.111-1.363c-0.358-0.137-1.395,0.383-1.751,0.518
		c-1.245,0.471-2.03,0.93-2.641,2.174c-0.508,1.037-0.464,1.982-0.67,3.061"/>
	<path fill="#94302B" d="M125.231,80.447c0,0,2.167-0.416,4.5-1.477c2.334-1.061,8.182,0,8.182,0s-12.224-4.312-12.682-1.113
		c-0.457,3.199-0.457,3.199-0.457,3.199"/>
	<path fill="#94302B" d="M120.856,75.66c0.846-0.217,2.011-0.406,2.812,0.062c0.831,0.484,0.672,1.285,1.188,1.82
		c0.835-1.219-0.352-2.92-1.513-3.4c-0.609-0.252-1.402-0.32-2.047-0.17c-0.578,0.135-0.588,0.166-0.613,0.766
		c-0.015,0.381,0.01,0.941,0.174,1.297"/>
	<g>
		<path fill="#C08B5D" d="M134.458,38.168c0.826,0.041,1.506-0.848,1.268-1.637c-0.148-0.5-0.932-0.42-0.924,0.125
			c0.004,0.336-0.109,0.637-0.443,0.777C133.983,37.592,134.006,38.146,134.458,38.168"/>
		<path fill="#C08B5D" d="M128.759,36.539c0.531-0.549,0.415-1.562-0.2-1.994c-0.441-0.311-0.967,0.381-0.574,0.742
			c0.203,0.186,0.3,0.516,0.138,0.76C127.864,36.434,128.442,36.867,128.759,36.539"/>
		<path fill="#C08B5D" d="M132.235,36.547c0.514-0.412,0.602-1.465,0.166-1.947c-0.337-0.373-0.971,0.02-0.834,0.486
			c0.077,0.262,0.178,0.711,0.014,0.955C131.295,36.465,131.893,36.82,132.235,36.547"/>
		<path fill="#C08B5D" d="M115.412,38.717c0.29-0.33,0.595-0.816,0.55-1.277c-0.058-0.588-0.879-0.6-0.923,0
			c-0.021,0.285-0.104,0.549-0.252,0.795C114.559,38.615,115.109,39.064,115.412,38.717"/>
		<path fill="#C08B5D" d="M112.203,37.605c0.408-0.443,0.635-1.279,0.325-1.826c-0.304-0.539-1.15-0.047-0.83,0.484
			c0.096,0.16,0.034,0.584-0.096,0.742C111.264,37.422,111.827,38.016,112.203,37.605"/>
		<path fill="#C08B5D" d="M109.168,38.467c0.085-0.566-0.013-1.234-0.426-1.66c-0.454-0.469-1.195,0.291-0.708,0.707
			c0.22,0.189,0.292,0.559,0.282,0.838C108.297,38.83,109.094,38.957,109.168,38.467"/>
		<path fill="#A5774C" d="M98.617,137.947c0.051,1.773,0.312,7.242-2.719,6.389c-0.613-0.172-0.87,0.771-0.262,0.951
			c4.109,1.217,4.045-4.908,3.818-7.34C99.405,137.42,98.601,137.4,98.617,137.947"/>
		<path fill="#A5774C" d="M95.382,142.859c-0.854,2.199-3.15,5.592-5.958,4.811c-1.769-0.492-2.726-2.486-3.48-3.988
			c-0.505-1.004-0.858-2.084-1.376-3.076c-0.181-0.346-0.576-0.674-0.68-1.053c-0.39-1.42,0.818-2.107,1.883-2.805
			c0.729-0.479,0.048-1.658-0.687-1.176c-1.544,1.012-3.301,2.34-2.509,4.379c0.276,0.711,0.761,1.381,1.073,2.072
			c0.601,1.324,1.207,2.693,1.98,3.928c1.167,1.863,2.969,3.561,5.35,3.15c2.784-0.482,4.779-3.461,5.718-5.881
			C97.012,142.404,95.696,142.051,95.382,142.859"/>
		<path fill="#753222" d="M104.877,75.457c-2.629-0.01-5.119,1.764-5.585,4.438c-0.457,2.627,1.344,5.299,3.895,5.943
			c0.594,0.15,0.824-0.717,0.251-0.912c-4.958-1.688-3.573-8.389,1.439-8.666C105.388,76.23,105.396,75.459,104.877,75.457"/>
		<path fill="#A5774C" d="M104.734,69.287c0.03,3.682,0.324,7.281-0.669,10.885c-0.23,0.834,1.013,1.162,1.288,0.355
			c1.198-3.521,1.209-7.768,0.509-11.395C105.738,68.49,104.729,68.648,104.734,69.287"/>
		<path fill="#753222" d="M120.467,74.549c0.97-0.303,2.837-0.193,3.584,0.572c0.941,0.967,0.947,4.27,0.033,5.246
			c-0.429,0.457,0.242,1.133,0.689,0.689c0.779-0.775,0.873-1.777,0.871-2.832c-0.002-1.143-0.004-2.65-0.758-3.596
			c-0.977-1.229-3.354-1.264-4.679-0.697C119.856,74.082,120.107,74.66,120.467,74.549"/>
		<path fill="#A5774C" d="M89.112,49.928c-2.662,0.248-5.191,2.588-4.055,5.43c1.046,2.615,4.934,4.203,7.077,1.984
			c0.483-0.5-0.253-1.23-0.761-0.76c-1.675,1.547-4.619,0.285-5.311-1.725c-0.759-2.203,1.265-3.635,3.181-3.963
			C89.784,50.801,89.665,49.877,89.112,49.928"/>
		<path fill="#A5774C" d="M101.17,66.43c3.839,3.615,8.527,6.527,13.474,8.373c0.464,0.174,0.775-0.572,0.337-0.799
			c-4.737-2.445-9.174-4.609-13.292-8.094C101.333,65.609,100.821,66.102,101.17,66.43"/>
		<path fill="#A5774C" d="M114.986,74.98c7.639-0.041,15.065-4.303,20.75-9.133c3.898-3.312,3.5-7.256,4.211-11.969
			c0.096-0.641-0.887-0.912-0.977-0.271c-0.537,3.826-0.436,8.184-3.215,10.924c-5.486,5.414-13.158,8.965-20.77,9.695
			C114.514,74.271,114.493,74.982,114.986,74.98"/>
		<path fill="#93815A" d="M80.812,24.128c0.532-2.795,4.229-4.988,6.328-6.498c1.879-1.352,3.834-2.598,5.844-3.746
			c4.5-2.574,9.273-3.646,14.178-5.315c10.407-3.541,21.307-5.245,32.188-6.54c0.646-0.077,0.654-1.103,0-1.024
			c-12.115,1.458-24.287,3.394-35.732,7.779c-4.915,1.884-9.678,3.188-14.113,6.03c-3.122,2.001-8.961,5.111-9.555,9.077
			C79.867,24.447,80.703,24.701,80.812,24.128"/>
		<path fill="#93815A" d="M79.94,24.25c-0.729,19.728-2.139,38.314-3.716,57.984c-0.05,0.629,0.889,0.602,0.964,0
			c2.434-19.477,3.486-38.361,3.634-57.984C80.826,23.682,79.961,23.684,79.94,24.25"/>
		<path fill="#93815A" d="M76.885,83.004c6.359,1.395,12.905,1.75,19.388,1.195c0.616-0.051,0.628-1.012,0-0.971
			c-6.484,0.426-12.755,0.047-19.167-1.021C76.59,82.123,76.357,82.889,76.885,83.004"/>
		<path fill="#93815A" d="M139.051,1.814c3.523,4.497,4.238,9.057,4.441,14.595c0.195,5.342,0.271,10.686,0.311,16.029
			c0.078,10.951-0.273,20.904-0.145,31.852c0.008,0.695,1.057,0.693,1.076,0c0.354-12.221,0.316-23.502,0.131-35.726
			c-0.139-9.146,1.146-19.843-5.219-27.344C139.292,0.8,138.725,1.397,139.051,1.814"/>
		<path fill="#93815A" d="M135.629,24.925c1.828,7.772,1.742,15.709,2.568,23.606c0.609,5.852,1.574,11.562,5.666,16.092
			c0.418,0.463,1.031-0.201,0.668-0.668c-4.646-5.953-5.229-13.064-5.727-20.33c-0.434-6.355-0.672-12.742-2.475-18.892
			C136.2,24.284,135.524,24.47,135.629,24.925"/>
		<path fill="#93815A" d="M130.456,25.042c1.744,0.067,3.449-0.016,5.182,0.271c0.645,0.106,0.922-0.881,0.271-0.987
			c-1.865-0.309-3.689-0.368-5.556-0.035C129.913,24.368,130.041,25.027,130.456,25.042"/>
		<path fill="#93815A" d="M111.624,27.439c4.739-0.922,9.511-1.505,14.316-1.94c0.652-0.06,0.658-1.084,0-1.024
			c-4.89,0.442-9.773,0.909-14.52,2.226C110.939,26.833,111.144,27.533,111.624,27.439"/>
		<path fill="#93815A" d="M98.748,32.74c2.793-1.421,5.469-2.917,8.472-3.868c0.626-0.198,0.358-1.188-0.272-0.987
			c-3.092,0.978-5.898,2.388-8.587,4.193C97.951,32.354,98.306,32.967,98.748,32.74"/>
		<path fill="#93815A" d="M98.127,32.41c-1.074,14.148,0.211,27.582,3.331,41.412c0.156,0.691,1.205,0.398,1.059-0.291
			c-2.941-13.947-3.958-26.891-3.538-41.121C98.996,31.856,98.168,31.869,98.127,32.41"/>
		<path fill="#93815A" d="M88.145,46.934c2.016,5.721,4.317,10.34,6.755,15.893c1.21,2.758,2.443,5.514,3.762,8.221
			c0.848,1.738,1.441,3.27,3.395,3.758c0.633,0.158,0.901-0.812,0.27-0.977c-2.468-0.648-3.499-4.793-4.429-6.805
			c-0.993-2.148-1.963-4.309-2.913-6.477c-2.145-4.896-4.139-8.852-6.147-13.805C88.668,46.324,87.988,46.49,88.145,46.934"/>
		<path fill="#C08B5D" d="M105.512,42.922c-0.657,4.146-1.327,10.215,3.42,12.23c3.958,1.684,8.033-1.053,9.165-4.916
			c1.246-4.25,0.948-9.594-3.281-12.062c-4.12-2.406-8.416,0.543-9.299,4.748c-0.103,0.49,0.588,0.68,0.747,0.207
			c1.53-4.553,6.911-6.59,10.1-2.123c1.948,2.729,1.766,6.889,0.404,9.863c-1.99,4.348-8.102,5.311-10.168,0.455
			c-1.036-2.432-0.482-5.732-0.316-8.299C106.312,42.59,105.582,42.482,105.512,42.922"/>
		<path fill="#C08B5D" d="M123.897,41.559c-0.658,4.146-1.328,10.215,3.42,12.232c3.958,1.682,8.031-1.055,9.164-4.918
			c1.246-4.248,0.949-9.592-3.281-12.061c-4.119-2.406-8.416,0.543-9.299,4.748c-0.102,0.488,0.588,0.68,0.748,0.207
			c1.529-4.553,6.91-6.592,10.1-2.123c1.949,2.727,1.766,6.889,0.404,9.863c-1.99,4.348-8.103,5.311-10.169,0.455
			c-1.036-2.432-0.481-5.732-0.316-8.299C124.696,41.229,123.965,41.119,123.897,41.559"/>
		<path fill="#8E653B" d="M115.496,58.961c-0.037,0.982,0.598,1.561,1.505,1.58c1.995,0.039,3.984-0.377,5.835-1.098
			c0.593-0.23,0.341-1.193-0.266-0.965c-0.873,0.328-6.208,2.076-6.199,0.482C116.374,58.396,115.517,58.398,115.496,58.961"/>
		<path fill="#A5774C" d="M119.694,74.223c0.181,1.482,0.179,3.059,0.641,4.49c0.288,0.895,1.694,0.518,1.416-0.391
			c-0.423-1.375-0.468-2.867-0.714-4.281C120.907,73.291,119.601,73.457,119.694,74.223"/>
		<path fill="#753222" d="M102.853,79.926c2.689,3.012,8.132,2.701,11.803,2.439c3.288-0.236,6.793-1.795,7.967-5.041
			c0.172-0.477-0.61-0.814-0.827-0.35c-1.614,3.457-5.297,4.412-8.863,4.424c-3.142,0.012-7.102,0.275-9.524-2.029
			C103.04,79.02,102.518,79.549,102.853,79.926"/>
		<path fill="#753222" d="M99.542,81.605c-4.037,1.979-8.22,3.852-10.129,8.182c-1.841,4.174-2.512,8.949-3.054,13.443
			c-1.16,9.621-1.239,16.523-0.731,26.191c0.046,0.871,1.409,0.877,1.362,0c-0.448-8.537-0.334-14.178,0.381-22.699
			c0.374-4.447,0.975-8.967,2.201-13.268c0.925-3.242,2.097-5.682,4.946-7.609c1.791-1.213,3.776-2.115,5.712-3.064
			C101.017,82.396,100.328,81.221,99.542,81.605"/>
		<path fill="#753222" d="M131.389,89.441c1.238,3.48,2.887,7.002,3.73,10.602c0.715,3.057,0.025,5.314-2.109,7.504
			c-1.014,1.043-1.912,1.828-2.506,3.197c-1.102,2.547-0.801,2.793-0.914,5.49c-0.183,4.281-0.383,8.564-0.537,12.848
			c-0.024,0.67,1.006,0.666,1.039,0c0.203-4.281,0.361-8.566,0.541-12.848c0.093-2.246-0.082-1.857,0.49-4.047
			c0.629-2.4,2.51-3.492,3.914-5.316c3.818-4.957-1.066-12.777-2.969-17.617C131.906,88.84,131.236,89.008,131.389,89.441"/>
		<path fill="#753222" d="M86.021,128.369c-2.644-0.41-2.099,5.285-1.712,6.664c0.917,3.266,5.265,3.553,8.088,3.709
			c2.472,0.137,7.298,0.232,7.999-2.873c0.339-1.502,0.232-4.857-0.298-6.309c-0.366-1.004-0.729-1.365-1.786-1.455
			c-0.601-0.051-0.6,0.893,0,0.938c1.263,0.098,1.326,4.455,1.227,5.242c-0.407,3.197-3.349,3.518-6.055,3.529
			c-1.737,0.006-3.743-0.082-5.386-0.639c-2.063-0.697-2.723-2.213-2.976-3.998c-0.1-0.707,0.007-4.084,0.8-4.062
			C86.336,129.125,86.451,128.436,86.021,128.369"/>
		<path fill="#753222" d="M98.593,100.846c-1.423,10.688-1.341,18.832-1.046,29.594c0.014,0.496,0.741,0.492,0.767,0
			c0.558-10.875,0.23-18.725,1.012-29.594C99.361,100.365,98.654,100.391,98.593,100.846"/>
		<path fill="#753222" d="M85.899,132.828c-0.045,1.662,0.463,3.186,1.589,4.408c0.272,0.297,0.764-0.086,0.555-0.428
			c-0.74-1.219-1.247-2.555-1.351-3.98C86.655,132.322,85.913,132.311,85.899,132.828"/>
		<path fill="#753222" d="M88.245,134.957c0.111,1.076,0.419,2.309,1.044,3.207c0.281,0.404,1.074,0.166,0.861-0.363
			c-0.401-0.994-0.833-1.908-1.116-2.951C88.919,134.428,88.196,134.494,88.245,134.957"/>
		<path fill="#93815A" d="M127.526,147.029c0.215,0.711,0.812,1.027,1.344,0.521c0.229-5.58,0.167-11.166,0.006-16.779
			c-0.024-0.875-1.387-0.879-1.361,0C127.67,136.209,127.729,141.623,127.526,147.029z"/>
		<path fill="#753222" d="M99.438,137.084c2.196,0.832,4.218,0.654,6.468,0.1c3.153-0.777,6.346-1.387,9.49-2.188
			c3.091-0.785,6.092-1.891,9.1-2.941c1.744-0.609,4.29-0.885,5.324-2.566c0.316-0.516-0.465-0.953-0.801-0.469
			c-0.99,1.434-4.965,2.08-6.531,2.627c-2.435,0.852-4.869,1.707-7.366,2.363c-2.237,0.588-4.532,0.863-6.762,1.477
			c-2.916,0.803-5.684,1.881-8.705,0.805C99.155,136.109,98.95,136.898,99.438,137.084"/>
		<path fill="#93815A" d="M97.569,149.084c0.214-0.107,0.382-0.252,0.517-0.422c0.002-1.268,0.004-2.535,0.012-3.805
			c0.003-0.598-0.933-0.6-0.931,0c0.004,1.385,0.003,2.768,0.004,4.152C97.235,149.141,97.35,149.193,97.569,149.084z"/>
		<path fill="#93815A" d="M114.998,148.766c0.28,0.055,0.542-0.146,0.665-0.383c0.013-0.023,0.018-0.051,0.03-0.076
			c0.087-1.816,0.126-3.633,0.068-5.449c-0.02-0.602-0.921-0.604-0.935,0c-0.042,1.811-0.101,3.621-0.176,5.43
			C114.703,148.504,114.797,148.725,114.998,148.766z"/>
		<path fill="#93815A" d="M113.208,142.572c1.44,0.746,2.781,0.453,4.153-0.303c0.538-0.297,0.06-1.113-0.481-0.824
			c-1.066,0.572-2.135,1.033-3.309,0.506C113.158,141.768,112.79,142.355,113.208,142.572"/>
		<path fill="#93815A" d="M126.139,22.788c-0.178,0.942-0.293,1.897-0.335,2.855c-0.009,0.21,0.185,0.386,0.388,0.387
			c2.426,0.007,4.221,1.486,5.709,3.249c0.236,0.279,0.766,0.059,0.738-0.306c-0.133-1.73-0.709-3.366-1.888-4.668
			c-1.039-1.146-2.788-2.343-4.393-1.83c-0.513,0.163-0.304,0.941,0.224,0.809c1.426-0.362,3.017,1.008,3.823,2.033
			c0.834,1.062,1.323,2.304,1.368,3.656c0.247-0.103,0.492-0.204,0.738-0.307c-1.576-1.992-3.704-3.456-6.32-3.411
			c0.129,0.129,0.258,0.259,0.387,0.388c0.038-0.925,0.18-1.842,0.234-2.764C126.836,22.498,126.211,22.406,126.139,22.788"/>
		<path fill="#93815A" d="M110.303,25.343c0.804,0.814,0.863,2.033,1.11,3.091c0.094-0.166,0.188-0.331,0.282-0.497
			c-2.191,0.489-4.837,2.253-5.79,4.346c0.248,0.068,0.497,0.135,0.745,0.201c-0.034-2.937,1.58-5.581,4.122-7.012
			c0.49-0.275,0.052-1.027-0.442-0.755c-2.861,1.584-4.49,4.521-4.479,7.767c0,0.375,0.569,0.574,0.744,0.203
			c0.875-1.858,3.361-3.484,5.314-3.971c0.214-0.054,0.336-0.289,0.282-0.498c-0.313-1.204-0.431-2.487-1.393-3.371
			C110.468,24.542,109.984,25.02,110.303,25.343"/>
		<path fill="#8E653B" d="M133.233,50.062c-0.094,0.189-0.188,0.389-0.199,0.6s0.078,0.445,0.27,0.537
			c0.172,0.084,0.385,0.033,0.535-0.084c0.15-0.119,0.244-0.295,0.309-0.473c0.076-0.207,0.119-0.426,0.129-0.645
			c0.012-0.256-0.037-0.543-0.242-0.697c-0.203-0.156-0.58-0.053-0.588,0.203"/>
		<path fill="#8E653B" d="M132.825,49.824c-0.316,0.58-0.475,1.424,0.219,1.818c0.736,0.416,1.408-0.277,1.633-0.924
			c0.215-0.621,0.264-1.543-0.387-1.932c-0.623-0.373-1.338,0.025-1.414,0.717c-0.072,0.645,0.967,0.764,1.119,0.152
			c-0.033,0.043-0.066,0.084-0.102,0.127c-0.049,0.033-0.096,0.029-0.139-0.008c-0.062-0.047-0.08-0.047-0.051,0.002
			c0.012,0.023,0.02,0.047,0.021,0.07c-0.025,0.211,0.008,0.381-0.066,0.592c-0.033,0.098-0.154,0.266-0.121,0.303
			c-0.088-0.098,0.109-0.457,0.148-0.555C133.889,49.689,133.079,49.363,132.825,49.824"/>
		<path fill="#8E653B" d="M115.523,51.465c-0.155,0.154-0.088,0.447,0.099,0.559c0.187,0.109,0.44,0.057,0.605-0.084
			s0.257-0.352,0.307-0.562c0.097-0.412,0.053-0.855-0.123-1.238c-0.042-0.094-0.11-0.195-0.212-0.197
			c-0.07-0.004-0.132,0.045-0.184,0.092c-0.398,0.367-0.604,0.912-0.636,1.453"/>
		<path fill="#8E653B" d="M115.201,51.145c-0.444,0.553-0.134,1.396,0.625,1.416c0.857,0.021,1.243-0.871,1.262-1.604
			c0.016-0.639-0.301-1.883-1.201-1.496c-0.704,0.303-1.083,1.316-1.042,2.025c0.033,0.576,0.913,0.762,1.053,0.143
			c0.055-0.24,0.103-0.492,0.196-0.723c0.037-0.088,0.08-0.174,0.133-0.254c0.124-0.189,0.327-0.217-0.043-0.236
			c-0.358-0.02-0.187,0.033-0.135,0.258c0.032,0.141,0.043,0.281,0.03,0.426c-0.012,0.125-0.034,0.291-0.109,0.393
			c-0.025,0.031-0.051,0.061-0.076,0.09c-0.076,0.018-0.067,0.055,0.024,0.115C116.197,51.27,115.529,50.736,115.201,51.145"/>
	</g>
</g>
<g id="Layer_2">
	<path fill="none" stroke="#753222" stroke-miterlimit="10" d="M125.231,76.91c2.393-0.785,6.025,0.465,8.393,0.938
		c2.254,0.451,4.497,0.975,6.695,1.648c1.202,0.367,2.557,0.992,3.83,0.998"/>
	<path fill="none" stroke="#753222" stroke-miterlimit="10" d="M138.01,72.531c1.007,4.293,0.618,3.859,2.221,6.879"/>
	<path fill="none" stroke="#753222" stroke-miterlimit="10" d="M149.981,71.16c2.392,4.85,6.794,13.625,2.091,18.971
		c-4.829,5.49-14.839-1.902-20.466-0.846"/>
</g>
</svg>
