<svg xmlns="http://www.w3.org/2000/svg" width="452" height="500" viewBox="0 0 452 500"><linearGradient id="a" gradientUnits="userSpaceOnUse" x1="164.431" y1="202.36" x2="206.213" y2="87.563"><stop offset="0" stop-color="#242926"/><stop offset=".619" stop-color="#262B28"/><stop offset=".928" stop-color="#2C3330"/><stop offset="1" stop-color="#2F3633"/></linearGradient><circle fill="url(#a)" cx="185.321" cy="144.961" r="61.065"/><linearGradient id="b" gradientUnits="userSpaceOnUse" x1="49.363" y1="281.044" x2="94.748" y2="156.349"><stop offset="0" stop-color="#242926"/><stop offset=".668" stop-color="#262B28"/><stop offset=".908" stop-color="#2B322F"/><stop offset="1" stop-color="#303734"/></linearGradient><circle fill="url(#b)" cx="72.056" cy="218.696" r="66.331"/><linearGradient id="c" gradientUnits="userSpaceOnUse" x1="149.963" y1="348.392" x2="86.531" y2="414.077"><stop offset="0" stop-color="#1C2020"/><stop offset=".368" stop-color="#303734"/><stop offset=".446" stop-color="#343B38"/><stop offset=".529" stop-color="#404844"/><stop offset=".614" stop-color="#535E58"/><stop offset=".638" stop-color="#5A655F"/><stop offset=".714" stop-color="#68716C"/><stop offset=".858" stop-color="#8D928F"/><stop offset="1" stop-color="#B7B7B7"/></linearGradient><path fill="url(#c)" d="M176.114 373.646v126.94L-.336 324.755h111.293z"/><path fill="#1F2422" d="M125.364 292.683L109.348 274.2s17.578-16.037 21.267-41.446c2.25-15.5-6.75-32.25-6.75-32.25l29.25-17.77s-.29 31.336 33.5 23.02l12.72 18.782-73.97 68.147z"/><linearGradient id="d" gradientUnits="userSpaceOnUse" x1="163.486" y1="407.339" x2="154.485" y2="407.339" gradientTransform="matrix(.705 -.709 .919 .913 -341.978 95.616)"><stop offset=".08" stop-color="#303734"/><stop offset=".706" stop-color="#5A655F"/></linearGradient><path fill="url(#d)" d="M180.59 384.635c2.03 2.02 2.413 4.925.856 6.49l-.706.71c-1.558 1.565-4.467 1.2-6.494-.818L108.1 325.252c-2.03-2.02-2.412-4.924-.855-6.49l.706-.708c1.56-1.567 4.468-1.202 6.496.817l66.145 65.765z"/><linearGradient id="e" gradientUnits="userSpaceOnUse" x1="169.43" y1="203.36" x2="211.212" y2="88.564"><stop offset=".172" stop-color="#303734"/><stop offset=".198" stop-color="#2F3633"/><stop offset=".55" stop-color="#272C29"/><stop offset="1" stop-color="#242926"/></linearGradient><circle fill="url(#e)" cx="190.321" cy="145.961" r="61.065"/><linearGradient id="f" gradientUnits="userSpaceOnUse" x1="325.251" y1="423.313" x2="325.251" y2="-13.918" gradientTransform="matrix(.991 .133 -.133 .991 27.698 -31.673)"><stop offset=".061" stop-color="#56843A"/><stop offset=".294" stop-color="#365324"/><stop offset=".324" stop-color="#334D23"/><stop offset=".437" stop-color="#293922"/><stop offset=".567" stop-color="#212B21"/><stop offset=".726" stop-color="#1D2220"/><stop offset="1" stop-color="#1C2020"/></linearGradient><path fill="url(#f)" d="M197.326 388.09s2.46 37.323 37.158 33.902c34.7-3.42 99.836-54.828 135.962-146.202 36.127-91.374 79.055-243.42 81.89-264.563l-23.457-3.144-84.537 214.067s-35.886 117.178-69.784 136.727c-33.898 19.55-60.9 47.882-51.323 21.587 9.577-26.294-12.847-24.59-25.91 7.626z"/><linearGradient id="g" gradientUnits="userSpaceOnUse" x1="93.353" y1="250.813" x2="241.64" y2="237.701" gradientTransform="matrix(.707 -.707 .707 .707 -94.722 250.202)"><stop offset="0" stop-color="#303734"/><stop offset="1" stop-color="#242926"/></linearGradient><path fill="url(#g)" d="M283.394 292.564c3.513 3.516 3.512 9.214-.005 12.73l-86.29 86.242c-3.518 3.513-9.216 3.51-12.73-.005l-74.933-74.974c-3.513-3.516-3.51-9.213.005-12.728l86.29-86.243c3.518-3.513 9.215-3.512 12.73.004l74.932 74.974z"/><path opacity=".89" fill="#1C2020" d="M276.768 285.934s1.985 15.46-7.084 33.056l-14.652 14.68 16.417-53.058 5.318 5.322z"/><linearGradient id="h" gradientUnits="userSpaceOnUse" x1="329.679" y1="397.495" x2="329.679" y2="-15.914" gradientTransform="matrix(.991 .133 -.133 .991 27.698 -31.673)"><stop offset=".117" stop-color="#476338"/><stop offset=".197" stop-color="#3A4E31"/><stop offset=".304" stop-color="#2C3A29"/><stop offset=".425" stop-color="#232B24"/><stop offset=".57" stop-color="#1E2321"/><stop offset=".804" stop-color="#1C2020"/></linearGradient><path fill="url(#h)" d="M379.256-.587s-41.166 342.13-146.567 375.76c0 0-9.096 22.36 7.69 22.593 0 0 148.5-38.012 188.5-389.683l-49.624-8.67z"/><linearGradient id="i" gradientUnits="userSpaceOnUse" x1="241.759" y1="402.084" x2="241.759" y2="189.243" gradientTransform="matrix(.991 .133 -.133 .991 27.698 -31.673)"><stop offset=".215" stop-color="#476338"/><stop offset=".333" stop-color="#3D5530"/><stop offset=".563" stop-color="#2E4024"/><stop offset=".788" stop-color="#25331C"/><stop offset="1" stop-color="#222F1A"/></linearGradient><path fill="url(#i)" d="M232.098 377.2s86.143-123.404 8.146-188.847c0 0-33.627-12.58-43.8 29.442 0 0 3.77-5.548 10.11-.158S237.986 249 237.986 249s-4.37 84.76-16.065 113.48c-18.26 41.08 2.225 43.825 25.333 31.886 23.07-16.2-15.155-17.165-15.155-17.165z"/><path opacity=".3" d="M204.78 185.754s15.326-8.313 12.46 2.645l-1.25 1.104c-3.69 3.972-11.876 9.085-15.59 16.693 0 0-6.474.928-8.075.795-.09-1.538 5.12-17.572 12.455-21.238"/><linearGradient id="j" gradientUnits="userSpaceOnUse" x1="240.475" y1="407.996" x2="240.475" y2="217.46" gradientTransform="matrix(.991 .133 -.133 .991 27.698 -31.673)"><stop offset=".08" stop-color="#56843A"/><stop offset=".706" stop-color="#365324"/></linearGradient><path fill="url(#j)" d="M217.066 375.154s6.848-19.822 21.096-48.854c11.165-25.072 22.623-75.665 7.34-96.884s-29.312-17.52-32.212-5.438l19.98 20.164s.725 43.51-9.704 72.382c-10.428 28.87-33.694 57.078-24.97 78.78s11.69-3.74 18.47-20.15z"/><linearGradient id="k" gradientUnits="userSpaceOnUse" x1="230.731" y1="245.262" x2="222.626" y2="222.994"><stop offset="0" stop-color="#242926"/><stop offset=".243" stop-color="#283226"/><stop offset=".646" stop-color="#334C24"/><stop offset=".742" stop-color="#365324"/></linearGradient><path fill="url(#k)" d="M233.272 244.336s.508-16.333-8.158-22.25l-5.553 8.22 13.712 14.03z"/><path opacity=".89" fill="#1C2020" d="M202.487 215.43s-4.373 20.074-4.123 50.824-7.5 56.04-27.75 58.77 3.75-12.77 5.5-13.27 13.25-52.47 12.5-68.484 2.615-21.182 2.615-21.182l5.634-5.52c0-.002 3.46-1.997 5.623-1.137z"/><linearGradient id="l" gradientUnits="userSpaceOnUse" x1="163.688" y1="180.252" x2="163.688" y2="353.235" gradientTransform="matrix(.991 .133 -.133 .991 27.698 -31.673)"><stop offset="0" stop-color="#25321D"/><stop offset="1" stop-color="#2D3D21"/></linearGradient><path fill="url(#l)" d="M109.348 274.2s-18.784 47.282 12.615 61.412c22.946 9.466 55.705 3.432 63.41-35.22 7.702-38.653 2.622-81.037 7.633-95.836 5.01-14.8 20.138-23.533 15.792-30 0 0-10.99-3.324-19.767 9.457-8.774 12.78-17.85 45.364-18.22 68.184s-2.385 56.686-11.18 64.587c-8.793 7.902-31.15 9.11-38.624.876s-5.408-36.246-5.408-36.246l-6.25-7.214z"/><path opacity=".89" fill="#1C2020" d="M120.863 292.415l5.27-5.267s5.73 24.23 27.48 10.48-18.75 12.626-19.5 12.626-11.376-.43-13.25-17.84z"/><linearGradient id="m" gradientUnits="userSpaceOnUse" x1="165.72" y1="178.413" x2="165.72" y2="340.002" gradientTransform="matrix(.991 .133 -.133 .991 27.698 -31.673)"><stop offset="0" stop-color="#56843A"/><stop offset=".079" stop-color="#527D37"/><stop offset=".416" stop-color="#42662D"/><stop offset=".73" stop-color="#395826"/><stop offset="1" stop-color="#365324"/></linearGradient><path fill="url(#m)" d="M113.423 278.902s-19.12 49.807 23.273 45.904 40.97-45.964 42.018-80.128c1.05-34.164 3.282-62.114 30.084-70.125 0 0-.594-3.106-5.418-2.24s-36.507 11.417-38.614 48.466-5.173 81.87-26.47 84.566c-21.297 2.694-17.11-17.487-17.11-17.487l-7.763-8.958z"/><linearGradient id="n" gradientUnits="userSpaceOnUse" x1="233.128" y1="375.625" x2="246.523" y2="385.004"><stop offset="0" stop-color="#25321D"/><stop offset=".126" stop-color="#344729"/><stop offset=".266" stop-color="#3F5731"/><stop offset=".427" stop-color="#456036"/><stop offset=".656" stop-color="#476338"/></linearGradient><path fill="url(#n)" d="M233.676 374.845s-7.772 10.68 0 17.96c.94-.384 10.105-3.884 10.105-3.884l4-19.832-14.104 5.757z"/><linearGradient id="o" gradientUnits="userSpaceOnUse" x1="54.364" y1="282.044" x2="99.749" y2="157.349"><stop offset=".172" stop-color="#303734"/><stop offset=".198" stop-color="#2F3633"/><stop offset=".55" stop-color="#272C29"/><stop offset="1" stop-color="#242926"/></linearGradient><circle fill="url(#o)" cx="77.056" cy="219.696" r="66.331"/></svg>