<svg xmlns="http://www.w3.org/2000/svg" width="800" height="670" viewBox="0 0 800 670"><path fill="#1C2020" d="M-.5 0h800v670H-.5z"/><radialGradient id="a" cx="435.61" cy="337.15" r="328.674" gradientTransform="matrix(1 0 0 -1 -21 673.5)" gradientUnits="userSpaceOnUse"><stop offset="0" stop-color="#2B3526"/><stop offset=".767" stop-color="#1E251F"/><stop offset=".964" stop-color="#1D2220"/><stop offset="1" stop-color="#1C2020"/></radialGradient><circle fill="url(#a)" cx="414.609" cy="336.35" r="328.674"/><linearGradient id="b" gradientUnits="userSpaceOnUse" x1="269.705" y1="389.16" x2="269.705" y2="666.5" gradientTransform="matrix(1 0 0 -1 -21 673.5)"><stop offset="0" stop-color="#191C1B"/><stop offset="1" stop-color="#1C2020"/></linearGradient><path fill="url(#b)" d="M390.167 7S155.71 121.34 126.71 284.34l-19.34-4.108S94.833 167 319.5 7h70.667z"/><path fill="#191C1B" d="M82.5 271.333l77 19.667-14.667 48.667L70.167 317zm71.333 32l22-2-9.333 38.334-18.333-13.334z"/><circle fill="#191C1B" cx="131.64" cy="282.118" r="6.882"/><circle fill="#191C1B" cx="103.64" cy="275.118" r="6.882"/><path fill="#191C1B" d="M338.087 170.923l53.26-17.65L377.02 116.5 327.147 137zm48.66-26.058l15.592.323-8.467-26.537-12.254 10.297z"/><circle fill="#191C1B" cx="372.163" cy="160.902" r="4.859"/><circle fill="#191C1B" cx="352.789" cy="167.214" r="4.859"/><path fill="#191C1B" d="M329.33 145.67S280.5 121 268.5 75.5l-12 15s66.325 88.805 115.663 70.402L329.33 145.67z"/><circle fill="#191C1B" cx="330.031" cy="120.92" r="19.277"/><circle fill="#191C1B" cx="364.801" cy="106.239" r="22.195"/><g fill="#1E2319"><circle opacity=".7" cx="366.648" cy="94.929" r="6.001"/><circle opacity=".7" cx="363.57" cy="117.585" r="6.001"/><circle opacity=".7" cx="376.496" cy="107.66" r="6.001"/><circle opacity=".7" cx="353.155" cy="104.659" r="6.001"/></g><g fill="#1E2319"><circle opacity=".7" cx="339.721" cy="118.032" r="4.983"/><circle opacity=".7" cx="321.528" cy="123.452" r="4.983"/><circle opacity=".7" cx="333.458" cy="129.836" r="4.982"/><circle opacity=".7" cx="327.745" cy="111.152" r="4.982"/></g><circle fill="#191C1B" cx="82.582" cy="333.104" r="22.019"/><circle fill="#191C1B" cx="123.28" cy="347.324" r="25.351"/><g opacity=".87" fill="#1E2319"><circle opacity=".7" cx="133.513" cy="339.162" r="6.856"/><circle opacity=".7" cx="113.539" cy="355.989" r="6.854"/><circle opacity=".7" cx="132.093" cy="357.493" r="6.854"/><circle opacity=".7" cx="114.628" cy="337.059" r="6.855"/></g><g opacity=".68" fill="#1E2319"><circle opacity=".7" cx="93.001" cy="338.086" r="5.691"/><circle opacity=".7" cx="73.441" cy="328.73" r="5.691"/><circle opacity=".7" cx="78.649" cy="343.281" r="5.69"/><circle opacity=".7" cx="88.133" cy="323.08" r="5.691"/></g></svg>