<?xml version="1.0" encoding="utf-8"?>
<!-- Generator: Adobe Illustrator 18.1.1, SVG Export Plug-In . SVG Version: 6.00 Build 0)  -->
<svg version="1.1" id="Image" xmlns="http://www.w3.org/2000/svg" xmlns:xlink="http://www.w3.org/1999/xlink" x="0px" y="0px"
	 viewBox="0 0 322 288" enable-background="new 0 0 322 288" xml:space="preserve">
<g>
	<path fill="#D1D1D1" d="M89.2,227.7l-0.5,1.8c0,0-0.8,1.6,7.3,4.8c8.1,3.3,21.5,8.5,21.5,8.5l0.8,40.8l87.1,1.4c0,0,0.7-33,0-42.3
		l24.4-13.3l1.1-3.4C230.9,226,126.1,224.1,89.2,227.7z"/>
	<path fill="#898989" d="M122.2,246.4c0,0,40.4-5.7,77.4,0l-0.2,18.7l-77.1,0L122.2,246.4z"/>
	<path fill="#BCBCBC" d="M90.6,231.5c0,0,21.2,9.3,27,11.3c0,0,59.9-4.7,87.8-0.1l24.4-13.3c0,0-37.3-0.1-66.5,0
		C134.2,229.5,90.6,231.5,90.6,231.5z"/>
	<path fill="#FFFFFF" d="M102.5,233.5c0,0,12.5,3.5,15.7,6.7c0,0,42.9-3.8,83.2-1.3l16-7.5L102.5,233.5z"/>
	<g>
		<g>
			<path fill="#E2E2E2" d="M227.9,228.6c-45.6-1-91.2,1-136.8,2.1c-0.5,0-0.5,0.8,0,0.8c45.6-1.2,91.2-3.1,136.8-2.1
				C228.4,229.4,228.4,228.6,227.9,228.6L227.9,228.6z"/>
		</g>
	</g>
	<g>
		<g>
			<path fill="#777777" d="M89,231.2c8.7,5.6,18.8,8.1,28.2,12.2c0.8,0.3,1.5-0.8,0.7-1.2c-9.4-4.2-19.4-6.7-28.3-12
				C88.9,229.8,88.4,230.8,89,231.2L89,231.2z"/>
		</g>
	</g>
	<g>
		<g>
			<path fill="#777777" d="M118,243.3c29.2-2.3,58.1-2.2,87.2-0.2c0.8,0.1,0.8-1.2,0-1.2c-28.9-2.7-58.4-2.5-87.2,0.4
				C117.3,242.3,117.3,243.3,118,243.3L118,243.3z"/>
		</g>
	</g>
	<g>
		<g>
			<path fill="#777777" d="M229.7,228.9c-8.6,3.5-16.8,8.1-24.8,12.9c-0.8,0.5-0.1,1.7,0.7,1.2c8.1-4.5,16.2-9,24.5-13.1
				C230.7,229.7,230.3,228.7,229.7,228.9L229.7,228.9z"/>
		</g>
	</g>
	<g>
		<g>
			<path fill="#777777" d="M101.6,233.4c38.9-0.4,77.8-1.1,116.8-1.7c0.6,0,0.6-0.9,0-0.9c-38.9,0.6-77.8,1.1-116.8,1.8
				C101.2,232.7,101.2,233.4,101.6,233.4L101.6,233.4z"/>
		</g>
	</g>
	<g>
		<g>
			<path fill="#777777" d="M118.2,240.4c27.6-2.1,55.1-2.8,82.8-0.8c0.6,0,0.6-0.9,0-0.9c-27.5-2-55.4-2.1-82.8,1
				C117.8,239.7,117.8,240.4,118.2,240.4L118.2,240.4z"/>
		</g>
	</g>
	<g>
		<g>
			<path fill="#777777" d="M201.1,239.4c5.9-2.4,11.7-5,17.5-7.7c0.5-0.2,0.1-1-0.3-0.8c-5.9,2.5-11.7,5.2-17.4,7.9
				C200.5,238.9,200.7,239.5,201.1,239.4L201.1,239.4z"/>
		</g>
	</g>
	<g>
		<g>
			<path fill="#777777" d="M101.7,233.6c5.4,2.2,11.5,3.1,16.2,6.7c0.5,0.4,1.1-0.3,0.7-0.7c-4.7-3.7-10.9-5.3-16.6-6.7
				C101.5,232.8,101.4,233.4,101.7,233.6L101.7,233.6z"/>
		</g>
	</g>
	<g>
		<g>
			<path fill="#777777" d="M117,242.7c-0.4,13.6-0.2,27.4,0.8,40.9c0,0.6,0.9,0.6,0.9,0c0-13.6-0.3-27.3-0.5-40.9
				C118.2,242,117.1,242,117,242.7L117,242.7z"/>
		</g>
	</g>
	<g>
		<g>
			<path fill="#777777" d="M204.8,242.7c0.3,14.1,0.5,28.1-0.2,42.3c0,1,1.4,1,1.5,0c0.7-14,0.9-28.2-0.2-42.3
				C205.9,242,204.8,242,204.8,242.7L204.8,242.7z"/>
		</g>
	</g>
	<g>
		<g>
			<path fill="#777777" d="M118.6,284.6c28.9,0.8,57.7-0.9,86.5,1.1c0.9,0.1,0.9-1.4,0-1.5c-28.7-2.1-57.7-1.5-86.5-1
				C117.8,283.2,117.8,284.5,118.6,284.6L118.6,284.6z"/>
		</g>
	</g>
	<g>
		<g>
			<path fill="#686868" d="M122.2,246.7c25.7-2.6,51.7-3.3,77.4-0.1c0.6,0.1,0.6-0.8,0-0.9c-25.3-3.1-52.2-3.5-77.5,0.4
				C121.8,246.1,121.9,246.8,122.2,246.7L122.2,246.7z"/>
		</g>
	</g>
	<g>
		<g>
			<path fill="#686868" d="M121.7,246.9c-0.1,6-0.1,11.9,0.2,17.9c0,0.5,0.8,0.5,0.8,0c-0.1-6-0.2-11.9-0.3-17.9
				C122.4,246.4,121.7,246.4,121.7,246.9L121.7,246.9z"/>
		</g>
	</g>
	<g>
		<g>
			<path fill="#686868" d="M122.6,265.5c25.5-0.4,50.9-0.8,76.4-0.2c0.5,0,0.5-0.8,0-0.8c-25.4-0.7-51-1-76.4,0.2
				C122.1,264.8,122.1,265.5,122.6,265.5L122.6,265.5z"/>
		</g>
	</g>
	<g>
		<g>
			<path fill="#686868" d="M199.3,246.2c-0.1,3,0.1,6,0.2,9c0,0.7-0.1,9.6-0.4,9.4c-0.5-0.2-0.9,0.5-0.4,0.7
				c1.7,0.9,1.6-1.5,1.7-2.6c0.6-5.4-0.1-11.1-0.4-16.5C200.1,245.8,199.4,245.7,199.3,246.2L199.3,246.2z"/>
		</g>
	</g>
	<g>
		<g>
			<path fill="#686868" d="M128.2,250.9c-0.4,2.4-0.3,4.8,0.4,7.2c0.1,0.5,0.9,0.3,0.8-0.2c-0.6-2.2-0.8-4.5-0.4-6.8
				C129.1,250.6,128.3,250.4,128.2,250.9L128.2,250.9z"/>
		</g>
	</g>
	<g>
		<g>
			<path fill="#686868" d="M135,251c0.1,2.1,0.2,4.2,0.3,6.3c0,0.5,0.8,0.5,0.7,0c-0.1-2.1-0.2-4.2-0.3-6.3
				C135.7,250.5,134.9,250.5,135,251L135,251z"/>
		</g>
	</g>
	<g>
		<g>
			<path fill="#686868" d="M124.8,255.7c10.1-1.5,20.1-1.8,30.2-0.9c0.5,0,0.5-0.8,0-0.8c-10.2-0.9-20.3-0.5-30.4,1
				C124.1,255,124.3,255.8,124.8,255.7L124.8,255.7z"/>
		</g>
	</g>
	<g>
		<g>
			<path fill="#777777" d="M90.6,230.6c-1.2,0-1.6-1.5-0.9-2.4c0.5-0.6-0.4-1.4-0.8-0.8c-1.4,1.7-0.5,4.4,1.8,4.4
				C91.3,231.8,91.3,230.6,90.6,230.6L90.6,230.6z"/>
		</g>
	</g>
	<g>
		<g>
			<path fill="#777777" d="M89.2,228.3c23.9-1.3,47.9-2.1,71.9-2.4c11.8-0.1,23.6-0.1,35.5,0c5.9,0.1,11.8,0.1,17.7,0.3
				c2.9,0.1,5.9,0.1,8.8,0.2c2.5,0.1,7.5-1,7,2.5c-0.1,0.8,1.1,0.8,1.2,0c0.2-1,0.3-1.9,0.2-2.9c0-0.3-0.3-0.6-0.6-0.6
				c-47.2-1.4-94.5-0.9-141.7,1.7C88.5,227.2,88.5,228.4,89.2,228.3L89.2,228.3z"/>
		</g>
	</g>
</g>
<g>
	<path fill="#D1D1D1" d="M294,146.6l1.7-0.8c0,0,1.7-0.4-1.1-8.7c-2.8-8.3-7.6-21.8-7.6-21.8l30.5-27.1l-55.7-67
		c0,0-25.5,21-32.1,27.5l-26-9.9l-3.3,1.4C200.5,40.1,267.2,120.9,294,146.6z"/>
	<path fill="#898989" d="M286.7,109.4c0,0-30.6-26.9-50.4-58.8l14.4-12l50.2,58.5L286.7,109.4z"/>
	<path fill="#BCBCBC" d="M296,143.1c0,0-6.7-22.1-9-27.8c0,0-42.5-42.4-57.2-66.6l-26-9.9c0,0,24.2,28.4,43.3,50.5
		S296,143.1,296,143.1z"/>
	<path fill="#FFFFFF" d="M289.7,132.7c0,0-5.5-11.7-5.2-16.3c0,0-30.8-30.1-55.2-62.3l-16.1-7.2L289.7,132.7z"/>
	<g>
		<g>
			<path fill="#E2E2E2" d="M204.4,40.8c28.9,35.3,60.1,68.6,90.7,102.5c0.3,0.4,0.9-0.2,0.6-0.6C265.1,108.8,234,75.5,205,40.2
				C204.7,39.8,204.1,40.4,204.4,40.8L204.4,40.8z"/>
		</g>
	</g>
	<g>
		<g>
			<path fill="#777777" d="M296.7,144.5c-1.4-10.2-6.1-19.6-9.1-29.4c-0.2-0.8-1.6-0.5-1.3,0.4c2.9,9.9,7.5,19.1,9.3,29.3
				C295.8,145.5,296.8,145.2,296.7,144.5L296.7,144.5z"/>
		</g>
	</g>
	<g>
		<g>
			<path fill="#777777" d="M287,114.6C266.3,94,247.6,72,230.1,48.6c-0.5-0.6-1.5,0-1.1,0.6c16.7,23.8,36.2,46,57.2,66.1
				C286.8,115.8,287.5,115.1,287,114.6L287,114.6z"/>
		</g>
	</g>
	<g>
		<g>
			<path fill="#777777" d="M203.5,39.2c8.3,4.2,17.1,7.5,25.9,10.4c0.9,0.3,1.2-1,0.4-1.4c-8.7-3.2-17.2-6.4-25.7-10
				C203.4,38,202.8,38.9,203.5,39.2L203.5,39.2z"/>
		</g>
	</g>
	<g>
		<g>
			<path fill="#777777" d="M290.2,133.4C264.6,104.2,238.7,75,213,45.9c-0.4-0.4-1,0.2-0.6,0.6c25.8,29.2,51.5,58.4,77.4,87.4
				C290,134.3,290.5,133.8,290.2,133.4L290.2,133.4z"/>
		</g>
	</g>
	<g>
		<g>
			<path fill="#777777" d="M284.7,116.3c-19.6-19.6-38-39.9-54.4-62.2c-0.4-0.5-1.2,0-0.8,0.5c16.4,22.2,34.5,43.5,54.7,62.3
				C284.5,117.2,285,116.6,284.7,116.3L284.7,116.3z"/>
		</g>
	</g>
	<g>
		<g>
			<path fill="#777777" d="M230,54.1c-5.6-2.9-11.4-5.6-17.1-8.3c-0.5-0.2-1,0.5-0.4,0.8c5.7,2.8,11.5,5.5,17.2,8
				C230,54.8,230.4,54.2,230,54.1L230,54.1z"/>
		</g>
	</g>
	<g>
		<g>
			<path fill="#777777" d="M290.3,133.3c-1.9-5.6-5.1-10.7-5.4-16.7c0-0.6-1-0.6-0.9,0c0.3,5.9,3.2,11.7,5.7,17
				C289.8,133.9,290.4,133.7,290.3,133.3L290.3,133.3z"/>
		</g>
	</g>
	<g>
		<g>
			<path fill="#777777" d="M287.3,115.7c10.5-8.5,20.9-17.6,30.5-27.2c0.4-0.4-0.2-1-0.6-0.6c-10.3,8.9-20.5,18-30.7,27
				C285.8,115.3,286.7,116.1,287.3,115.7L287.3,115.7z"/>
		</g>
	</g>
	<g>
		<g>
			<path fill="#777777" d="M230.2,49c10.5-9.4,21-18.7,32.2-27.4c0.8-0.6-0.3-1.6-1.1-1.1c-11.1,8.6-22.1,17.7-31.9,27.7
				C228.9,48.7,229.6,49.5,230.2,49L230.2,49z"/>
		</g>
	</g>
	<g>
		<g>
			<path fill="#777777" d="M318,87.2c-18.2-22.4-38.2-43.1-55.3-66.3c-0.6-0.7-1.8,0-1.3,0.7c17.1,23.2,36.5,44.9,55.7,66.5
				C317.6,88.8,318.5,87.9,318,87.2L318,87.2z"/>
		</g>
	</g>
	<g>
		<g>
			<path fill="#686868" d="M286.9,109.1c-18.7-17.8-36.1-37.1-50.4-58.6c-0.3-0.5-1.1,0-0.8,0.4c14.1,21.2,31.3,42,50.7,58.6
				C286.8,109.9,287.2,109.4,286.9,109.1L286.9,109.1z"/>
		</g>
	</g>
	<g>
		<g>
			<path fill="#686868" d="M287.4,109.4c4.6-3.7,9.2-7.7,13.4-11.8c0.4-0.4-0.2-0.9-0.6-0.6c-4.5,3.9-8.9,7.9-13.4,11.8
				C286.5,109.2,287,109.7,287.4,109.4L287.4,109.4z"/>
		</g>
	</g>
	<g>
		<g>
			<path fill="#686868" d="M300.9,96.6C284,77.5,267.2,58.5,251,38.7c-0.3-0.4-0.9,0.2-0.6,0.6c16,19.7,32.5,39.3,49.9,57.8
				C300.7,97.5,301.2,97,300.9,96.6L300.9,96.6z"/>
		</g>
	</g>
	<g>
		<g>
			<path fill="#686868" d="M236.4,50.9c2.3-1.9,4.5-4,6.7-6c0.7-0.7,7.3-6.1,7.4-5.7c0.2,0.5,0.9,0.3,0.8-0.2
				c-0.5-2.3-3.7,0.9-4.5,1.5c-3.8,3.1-7.4,6.6-10.9,9.9C235.5,50.7,236,51.2,236.4,50.9L236.4,50.9z"/>
		</g>
	</g>
	<g>
		<g>
			<path fill="#686868" d="M286.2,101.9c2.1-1.3,3.8-3,5.2-5c0.3-0.4-0.4-0.8-0.7-0.4c-1.3,1.9-2.9,3.5-4.9,4.7
				C285.4,101.5,285.8,102.1,286.2,101.9L286.2,101.9z"/>
		</g>
	</g>
	<g>
		<g>
			<path fill="#686868" d="M281.9,96.7c1.5-1.4,3.1-2.9,4.6-4.4c0.3-0.3-0.2-0.8-0.5-0.5c-1.6,1.4-3.1,2.9-4.6,4.4
				C281,96.5,281.5,97,281.9,96.7L281.9,96.7z"/>
		</g>
	</g>
	<g>
		<g>
			<path fill="#686868" d="M292.1,101.4c-7.7-6.6-14.5-14.1-20.4-22.3c-0.3-0.4-1,0-0.7,0.4c5.9,8.3,12.8,15.8,20.6,22.4
				C292,102.3,292.5,101.8,292.1,101.4L292.1,101.4z"/>
		</g>
	</g>
	<g>
		<g>
			<path fill="#777777" d="M295.3,143.7c0.8,1-0.2,2.2-1.3,2.2c-0.8,0-0.8,1.2,0,1.2c2.2-0.1,3.6-2.5,2.1-4.3
				C295.7,142.3,294.8,143.1,295.3,143.7L295.3,143.7z"/>
		</g>
	</g>
	<g>
		<g>
			<path fill="#777777" d="M294.4,146.1c-16.3-17-32.2-34.4-47.8-52.1c-7.7-8.7-15.2-17.5-22.7-26.4c-3.8-4.5-7.5-9-11.3-13.5
				c-1.9-2.3-3.7-4.6-5.6-6.8c-1.4-1.7-6.9-6.5-3.9-8.4c0.6-0.4,0-1.5-0.6-1c-1.4,0.9-1.2,0.8-2.5,1.8c-0.3,0.2-0.2,0.6,0,0.8
				c29.7,36.8,60.9,72.3,93.5,106.5C294.1,147.5,294.9,146.7,294.4,146.1L294.4,146.1z"/>
		</g>
	</g>
</g>
<g>
	<path fill="#D1D1D1" d="M122.1,40.6l-1-1.5c0,0-0.7-1.6-8.4,2.5S92.4,52.6,92.4,52.6L60.6,27L3.7,92.9c0,0,24.9,21.7,32.4,27.1
		l-5.5,27.3l1.9,3C32.5,150.3,101.2,71.2,122.1,40.6z"/>
	<path fill="#898989" d="M86.6,53.9c0,0-21.5,34.6-49.7,59.4l-14.2-12.2l49.4-59.1L86.6,53.9z"/>
	<path fill="#BCBCBC" d="M118.4,39.2c0,0-20.7,10.3-26,13.4c0,0-34.8,48.9-56.3,67.4l-5.5,27.3c0,0,24-28.6,42.6-51
		S118.4,39.2,118.4,39.2z"/>
	<path fill="#FFFFFF" d="M109.2,47c0,0-10.7,7.3-15.2,7.8c0,0-24.6,35.3-52.4,64.7l-4.5,17.1L109.2,47z"/>
	<g>
		<g>
			<path fill="#E2E2E2" d="M32.5,146.3C62.5,112,90.3,75.8,118.6,40c0.3-0.4-0.2-1-0.6-0.6c-28.3,35.7-56.1,72-86.1,106.3
				C31.6,146.2,32.2,146.7,32.5,146.3L32.5,146.3z"/>
		</g>
	</g>
	<g>
		<g>
			<path fill="#777777" d="M119.7,38.2c-9.9,3.1-18.4,9.3-27.6,13.9c-0.8,0.4-0.1,1.5,0.7,1.2c9.2-4.5,17.5-10.6,27.3-14
				C120.7,39,120.4,37.9,119.7,38.2L119.7,38.2z"/>
		</g>
	</g>
	<g>
		<g>
			<path fill="#777777" d="M91.7,52.7c-16.9,23.8-35.5,45.9-55.7,67c-0.5,0.6,0.3,1.4,0.9,0.9c20.7-20.4,39.4-43.3,55.8-67.3
				C93,52.7,92.1,52.2,91.7,52.7L91.7,52.7z"/>
		</g>
	</g>
	<g>
		<g>
			<path fill="#777777" d="M31.2,147.4c2.8-8.8,4.6-18,5.9-27.1c0.1-0.9-1.2-1.3-1.4-0.4c-1.7,9.1-3.5,18.2-5.7,27.2
				C29.9,147.8,31,148.1,31.2,147.4L31.2,147.4z"/>
		</g>
	</g>
	<g>
		<g>
			<path fill="#777777" d="M109.8,46.4C85.2,76.5,60.7,106.8,36.2,137c-0.3,0.4,0.3,1,0.6,0.6c24.5-30.2,49.1-60.4,73.5-90.7
				C110.6,46.5,110.1,46,109.8,46.4L109.8,46.4z"/>
		</g>
	</g>
	<g>
		<g>
			<path fill="#777777" d="M93.8,54.8c-16.1,22.5-33.1,44-52.4,63.9c-0.4,0.4,0.2,1.1,0.7,0.7c19.1-19.8,37.2-41.2,52.4-64.2
				C94.7,54.7,94.1,54.4,93.8,54.8L93.8,54.8z"/>
		</g>
	</g>
	<g>
		<g>
			<path fill="#777777" d="M41.4,118.9c-2,6-3.6,12.2-5.3,18.3c-0.2,0.6,0.7,0.8,0.9,0.2c1.9-6.1,3.5-12.2,5.1-18.3
				C42.2,118.7,41.6,118.5,41.4,118.9L41.4,118.9z"/>
		</g>
	</g>
	<g>
		<g>
			<path fill="#777777" d="M109.6,46.4c-5.2,2.8-9.8,6.9-15.6,8.1c-0.6,0.1-0.3,1,0.2,0.9c5.8-1.3,11-5,15.7-8.4
				C110.3,46.7,110,46.2,109.6,46.4L109.6,46.4z"/>
		</g>
	</g>
	<g>
		<g>
			<path fill="#777777" d="M92.8,52.3c-10.2-9-20.9-17.8-32-25.7c-0.4-0.3-0.9,0.4-0.5,0.7C70.7,36,81.4,44.6,92,53.2
				C92.6,53.6,93.4,52.8,92.8,52.3L92.8,52.3z"/>
		</g>
	</g>
	<g>
		<g>
			<path fill="#777777" d="M36.5,119.6c-11-8.8-21.9-17.6-32.3-27.2c-0.7-0.7-1.8,0.4-1.1,1.1c10.4,9.6,21.1,18.9,32.7,27
				C36.3,120.9,37,120,36.5,119.6L36.5,119.6z"/>
		</g>
	</g>
	<g>
		<g>
			<path fill="#777777" d="M59.7,26.6C40.6,48.2,23.4,71.5,3.3,92.2c-0.7,0.7,0.4,1.7,1,1c20.1-20.7,38.2-43.4,56.3-65.7
				C61.2,26.9,60.3,25.9,59.7,26.6L59.7,26.6z"/>
		</g>
	</g>
	<g>
		<g>
			<path fill="#686868" d="M86.3,53.7c-14.4,21.4-30.6,41.7-49.5,59.4c-0.4,0.4,0.2,1,0.6,0.6c18.6-17.4,36.2-37.8,49.4-59.7
				C87.2,53.7,86.6,53.4,86.3,53.7L86.3,53.7z"/>
		</g>
	</g>
	<g>
		<g>
			<path fill="#686868" d="M86.6,53.2c-4.5-4-9.1-7.8-13.9-11.4c-0.4-0.3-0.8,0.3-0.5,0.6c4.6,3.8,9.3,7.5,13.9,11.3
				C86.5,54,87,53.5,86.6,53.2L86.6,53.2z"/>
		</g>
	</g>
	<g>
		<g>
			<path fill="#686868" d="M71.8,41.9c-16,19.8-32,39.6-48.8,58.7c-0.3,0.4,0.2,1,0.6,0.6C40.3,82.1,57,62.6,72.4,42.4
				C72.6,42,72,41.6,71.8,41.9L71.8,41.9z"/>
		</g>
	</g>
	<g>
		<g>
			<path fill="#686868" d="M37.3,113.2c-2-1.8-4.2-3.4-6.3-5c-0.6-0.4-8-6.7-7.6-6.9c0.4-0.2,0.1-1-0.3-0.8c-2.5,1,2,4.1,2.7,4.7
				c3.5,3.1,7.3,5.9,11.1,8.7C37.2,114,37.6,113.5,37.3,113.2L37.3,113.2z"/>
		</g>
	</g>
	<g>
		<g>
			<path fill="#686868" d="M79.3,55.6c-1.6-1.8-3.5-3.3-5.7-4.3c-0.5-0.2-0.9,0.5-0.4,0.7c2.1,1,4,2.3,5.6,4.1
				C79.1,56.5,79.6,55.9,79.3,55.6L79.3,55.6z"/>
		</g>
	</g>
	<g>
		<g>
			<path fill="#686868" d="M74.9,60.7c-1.7-1.3-3.4-2.6-5.1-3.8c-0.3-0.2-0.8,0.3-0.5,0.6c1.7,1.3,3.4,2.6,5.1,3.9
				C74.9,61.6,75.3,61,74.9,60.7L74.9,60.7z"/>
		</g>
	</g>
	<g>
		<g>
			<path fill="#686868" d="M77.9,49.8c-5.3,8.7-11.5,16.6-18.7,23.8c-0.4,0.4,0.2,1,0.6,0.6c7.2-7.2,13.5-15.2,18.7-24
				C78.8,49.8,78.2,49.4,77.9,49.8L77.9,49.8z"/>
		</g>
	</g>
	<g>
		<g>
			<path fill="#777777" d="M119.1,39.8c0.9-1,2.3-0.3,2.5,0.9c0.1,0.8,1.3,0.4,1.2-0.3c-0.4-2-3-3-4.5-1.4
				C117.7,39.5,118.6,40.4,119.1,39.8L119.1,39.8z"/>
		</g>
	</g>
	<g>
		<g>
			<path fill="#777777" d="M121.6,40.2C107.1,59.6,92.3,78.6,77,97.3c-7.4,9-14.8,17.9-22.3,26.7c-3.8,4.5-7.7,8.9-11.5,13.4
				c-1.9,2.2-3.9,4.4-5.8,6.6c-1.7,1.9-4.1,6.4-6.5,3.8c-0.5-0.6-1.4,0.3-0.8,0.8c0.6,0.8,1.3,1.4,2.1,2.1c0.2,0.2,0.6,0.3,0.8,0
				c31.4-35.4,61.3-72,89.7-109.9C123.1,40.2,122.1,39.6,121.6,40.2L121.6,40.2z"/>
		</g>
	</g>
</g>
<g>
	<path fill="#CCCCCC" d="M278.6,190c0,0,23,9.5,23.5,10.2c0.5,0.7,1.6,5-1.8,3.9s-23.4-9.2-23.4-9.2L278.6,190z"/>
	<path fill="#5E5E5E" d="M278.6,190l-14.9-6.8c0,0-4.2-1-5.3,1.4c-1,2.4,2.4,4.2,5.7,5.7s12.3,5.4,12.8,4.7
		C277.4,194.3,278.7,191.6,278.6,190z"/>
	<g>
		<g>
			<path fill="#CCCCCC" d="M258.3,185.4c6.1,3.2,12.6,5.7,19,8.2c1.3,0.5,1.8-1.6,0.6-2c-6.4-2.4-12.6-5.2-18.9-7.6
				C258.1,183.6,257.5,185,258.3,185.4L258.3,185.4z"/>
		</g>
	</g>
	<g>
		<g>
			<path fill="#E8E8E8" d="M277.9,193.8c7.7,3.4,15.6,7.3,23.6,9.9c1.3,0.4,1.9-1.7,0.6-2.1c-8-2.5-15.7-6.4-23.5-9.5
				C277.6,191.7,276.9,193.3,277.9,193.8L277.9,193.8z"/>
		</g>
	</g>
	<g>
		<g>
			<path fill="#686868" d="M278.4,190.2c7.3,3.5,14.7,6.6,22.3,9.5c0.5,0.2,0.7-0.6,0.2-0.7c-7.5-2.9-14.8-6.1-22.1-9.3
				C278.4,189.5,278,190.1,278.4,190.2L278.4,190.2z"/>
		</g>
	</g>
	<g>
		<g>
			<path fill="#686868" d="M300.6,199.7c1.2,0.6,2.4,2,1.5,3.4c-0.8,1.2-3.3,0.3-4.3-0.3c-0.6-0.3-1.2,0.6-0.6,0.9
				c1.6,0.9,4.7,1.8,5.7-0.3c0.4-0.9,0.4-1.9,0-2.8c-0.5-0.9-1.2-1.3-2.1-1.7C300.5,198.9,300.3,199.5,300.6,199.7L300.6,199.7z"/>
		</g>
	</g>
	<g>
		<g>
			<path fill="#686868" d="M277.2,195.4c6.7,2.8,13.5,5.6,20.3,8.3c0.5,0.2,0.7-0.6,0.2-0.8c-6.8-2.8-13.5-5.5-20.3-8.2
				C277,194.5,276.8,195.2,277.2,195.4L277.2,195.4z"/>
		</g>
	</g>
	<g>
		<polygon fill="#369BDB" points="282.2,216.5 287.4,220.7 276.1,234.2 251.8,214.1 258.4,207.1 		"/>
		<path fill="#2787B7" d="M252.5,212.6l25.2,16.9l7.4-11.6C285.1,217.8,261.1,202.7,252.5,212.6z"/>
		<polygon fill="#FFB940" points="260.4,195.2 287.4,212.4 277.3,226.7 250.9,209.7 		"/>
		<g>
			<g>
				<path fill="#2787B7" d="M288,220.1c-1.1-0.9-2.2-1.7-3.3-2.6c-0.6-0.5-1.5,0.4-0.8,0.8c1.1,0.9,2.2,1.7,3.3,2.6
					C287.7,221.4,288.6,220.5,288,220.1L288,220.1z"/>
			</g>
		</g>
		<g>
			<g>
				<path fill="#2787B7" d="M253.6,211.6c-0.7,0.6-1.3,1.3-1.9,2c-0.5,0.6,0.3,1.5,0.9,0.9c0.7-0.6,1.3-1.4,1.8-2.2
					C254.8,211.7,254.1,211.2,253.6,211.6L253.6,211.6z"/>
			</g>
		</g>
		<g>
			<g>
				<path fill="#2787B7" d="M287.1,220.3c-3.8,4.5-7.5,9.1-11.4,13.4c-0.5,0.6,0.3,1.4,0.9,0.9c4-4.3,7.9-8.9,11.3-13.7
					C288.1,220.5,287.4,219.9,287.1,220.3L287.1,220.3z"/>
			</g>
		</g>
		<g>
			<g>
				<path fill="#2787B7" d="M251.5,214.5c7.9,6.7,16.2,12.9,23.9,19.7c0.6,0.5,1.5-0.3,0.9-0.9c-7.1-7.3-16-13.5-24.2-19.7
					C251.6,213.3,251,214.1,251.5,214.5L251.5,214.5z"/>
			</g>
		</g>
		<g>
			<g>
				<path fill="#E29930" d="M287.4,211.7c-8.8-5.7-17.6-11.3-26.4-16.9c-0.7-0.5-1.4,0.7-0.7,1.2c8.8,5.6,17.6,11.2,26.5,16.7
					C287.4,213,288,212.1,287.4,211.7L287.4,211.7z"/>
			</g>
		</g>
		<g>
			<g>
				<path fill="#E29930" d="M259.7,195.4c-2.9,4.7-5.9,9.3-9,13.8c-0.5,0.7,0.6,1.3,1.1,0.6c3.2-4.4,6.2-9.1,8.8-13.9
					C260.9,195.3,260,194.8,259.7,195.4L259.7,195.4z"/>
			</g>
		</g>
		<g>
			<g>
				<path fill="#E29930" d="M286.5,212.1c-3.3,4.9-6.4,9.8-9.9,14.6c-0.5,0.6,0.6,1.2,1,0.6c3.5-4.7,6.8-9.6,9.7-14.7
					C287.7,212.1,286.9,211.6,286.5,212.1L286.5,212.1z"/>
			</g>
		</g>
		<g>
			<g>
				<path fill="#E29930" d="M250.6,210.2c8.5,5.8,17.5,11.1,25.9,17.1c0.6,0.4,1.3-0.5,0.8-1c-7.9-6.5-17.4-11.7-26.1-17
					C250.5,208.9,250,209.8,250.6,210.2L250.6,210.2z"/>
			</g>
		</g>
	</g>
	<g>
		<g>
			<path fill="#383838" d="M278.6,189.4c-4.4-2.2-9-4.1-13.6-6.1c-0.6-0.2-1,0.6-0.5,0.8c4.5,2.1,9.1,4.2,13.7,6.1
				C278.8,190.3,279.1,189.6,278.6,189.4L278.6,189.4z"/>
		</g>
	</g>
	<g>
		<g>
			<path fill="#383838" d="M265.2,183.3c-2.2-1.3-6.1-1.5-7.3,1.2c-1.3,2.8,2.5,4.8,4.8,5.2c0.5,0.1,0.9-0.6,0.4-0.8
				c-1.4-0.6-4.7-1.6-4.2-3.6c0.6-2.4,4.5-2,6-1.2C265.2,184.2,265.7,183.6,265.2,183.3L265.2,183.3z"/>
		</g>
	</g>
	<g>
		<g>
			<path fill="#383838" d="M261.9,189.4c4.4,2.4,9,4.4,13.7,6.2c0.7,0.3,0.9-0.8,0.3-1.1c-4.6-1.8-9-3.8-13.6-5.8
				C261.9,188.5,261.5,189.2,261.9,189.4L261.9,189.4z"/>
		</g>
	</g>
	<g>
		<g>
			<path fill="#383838" d="M278.2,189.9c0.2,0.9-0.2,1.7-0.6,2.6c-0.1,0.3-0.8,2.4-1.3,2.2c-0.6-0.3-1.1,0.6-0.5,0.9
				c1.2,0.6,1.8-0.4,2.2-1.4c0.6-1.3,1.5-3,1-4.4C278.8,189.2,278.1,189.3,278.2,189.9L278.2,189.9z"/>
		</g>
	</g>
	<g>
		<g>
			<path fill="#383838" d="M257.7,186.5c1.6,2.9,4.5,4.4,7.3,6c2.9,1.7,5.9,3.5,9,4.8c0.7,0.3,1-0.8,0.3-1.1c-2.8-1.1-5.4-2.6-8-4.1
				c-2.8-1.6-6.1-3.1-7.8-6C258.1,185.6,257.4,186,257.7,186.5L257.7,186.5z"/>
		</g>
	</g>
</g>
<g>
	<path fill="#6EB2CC" d="M130.3,85.1c0,0-20.9,10.3-30.1,34.5s4.7,55.6,20,67.9c15.3,12.3,40.5,24.5,66.1,11.5s36.7-37.5,36.5-56.5
		s-8.8-39.3-21.4-48.3C188.9,85.3,171.6,70.6,130.3,85.1z"/>
	<path fill="#D1D1D1" d="M176.4,88.3c0-0.1,0-0.2,0-0.2c-0.3-4-2.9-7.8-6.6-9.5c-3.9-1.8-8.5-1.1-12.8-0.4c-3.2,0.5-6.4,1-9.7,1.5
		c-0.5,0.1-0.9,0.2-1.4,0.3c-1.1,0-2.2,0-3.2,0.1c-2.6,0.3-5.3,0.6-7.7,1.7s-4.7,2.8-5.8,5.2c-1.1,2.4-1,5.5,0.6,7.5
		c1.3,1.6,3.4,2.4,5.4,2.8c2.4,0.5,4.9,0.5,7.3,0.1c0.7-0.1,2.4-0.9,2.8-0.2c0.5,0.8-0.9,2.4-1.3,2.9c-0.1,0.2-0.2,0.3-0.2,0.5
		c0,0.6,0.9,0.7,1.5,0.5c6.4-1.9,12.9-3.4,19.5-4.4c0,0,0.1,0.1,0.1,0.1c0.7,0.6,1,1.5,1,2.4c0,0.5-0.2,1.1,0,1.6
		c0.2,0.7,1,1.1,1.7,1.1s1.4-0.2,2.1-0.5c2.9-1.3,5.6-3.5,6.5-6.5C176.9,92.7,176.7,90.5,176.4,88.3z"/>
	<path fill="#83B1B1" d="M198.2,102.4c-0.3-0.5-0.7-1-1.3-1.1c-0.5-0.1-1.1,0.1-1.6,0.2c-2.1,0.4-4.2-0.5-6.3-0.5
		c-2.5,0-4.8,1.4-6.6,3.2c-1.7,1.8-3,4-4.2,6.2c-1,1.7-2.2,3.6-4.2,3.7c-2,0.2-3.6-1.4-4.9-2.9l0,0c-1.7-1.7-3.7-3.1-5.7-4.5
		c-1.9-1.3-3.9-2.7-5.8-4c-2.4-1.7-5.3-3.4-8.2-2.6c-0.9,0.3-1.7,0.8-2.6,1.1c-4,1.3-8.8-2.1-12.2,0.2c-1.9,1.3-2.5,3.8-2.4,6.1
		c0,0.9,0.1,1.8,0.5,2.6c0.8,2,2.7,3.3,4,5.1c2.5,3.5,2.2,8.2,2.7,12.5c0.3,2.5,0.9,4.9,1.5,7.3c1.5,6.4,3.1,12.7,4.6,19.1
		c0.1,0.4,0.3,0.9,0.8,0.9c0.4,0,0.5-0.6,0.5-1c0-2.3-0.4-4.6,0.4-6.7c2.4,3.3,4.6,6.6,6.4,10.3c1.1,2.2,2,4.5,3.6,6.3
		c1.3,1.4,3.1,2.4,4.8,3.4c1.2,0.7,2.5,1.4,3.9,1.8c1.6,0.4,3.3,0.3,5,0.3c2.5,0.1,5.1,0.5,7.5,1.4c1.5,0.5,3,1.2,4.5,1.2
		c1.6-0.1,3.2-1.3,3.1-2.9c-0.1-0.7-0.5-1.3-0.8-1.9c-1.4-2.2-2.5-4.5-3.3-6.9c-0.4-1.2-1-2.6-2.2-2.8c-0.4-0.1-0.9,0.1-1.3,0.2
		c-1.8,0.7-3.3,2.1-5.3,2.5c-1.8,0.3-3.8-0.6-4.8-2.2c-1.8-2.8-0.2-6.9,2.6-8.8c2.6-1.8,5.9-2.2,9.1-2.3c1.4,1.6,3,3,4.7,4.4
		c0.4,0.3,0.7,0.6,1.2,0.7c1.5,0.5,3.1-1,3.5-2.5c0.3-1.6-0.3-3.2-0.8-4.7c-0.5-1.5-1-3.2-0.4-4.7c0.8-2.2,3.4-3.2,5-5
		c1.5-1.7,2-4.1,1.4-6.3c-0.3-1-0.9-2-1.2-3c-0.7-1.9-0.6-3.9-0.4-5.8c0.9-1.1,1.8-2.2,2.7-3.4c1.6-2.1,3.1-4.2,3.8-6.7
		C199.7,107.4,199.6,104.6,198.2,102.4z"/>
	<path fill="#83B1B1" d="M200.4,157.4c-0.4,0.4-1,0.5-1.6,0.4s-1.1-0.4-1.6-0.7c-2.2-1-4.7-1.1-7.2-1c-0.5,0-1.1,0-1.6-0.2
		c-0.5-0.3-0.8-0.9-0.5-1.4c0.2-0.3,0.6-0.5,0.9-0.6c2.1-0.7,4.3-1,6.5-1c1.1,0,2.2,0.1,3.2,0.5c1,0.4,1.9,1.3,2.1,2.4
		C200.7,156.5,200.7,157.1,200.4,157.4z"/>
	<path fill="#83B1B1" d="M217.4,166.8c-0.1-0.8-0.9-1.2-1.5-1.6c-3.8-2-8.4-2.4-12.7-1.5c-4.2,0.9-8.1,3.1-11.5,5.8
		c-0.8,0.6-1.6,1.4-1.6,2.4c-0.1,0.9,0.5,1.7,1,2.5c1.8,3,2.5,5.5,2.4,9c-0.1,3.5-0.9,6.9-1.7,10.3c2.3-1.1,4.6-2.1,6.9-3.2
		c1-0.5,2.1-1,3-1.7c0.8-0.6,1.5-1.4,2.2-2.2c4.9-5.9,9.3-11.2,13-17.9C217.2,168.1,217.6,167.4,217.4,166.8z"/>
	<path opacity="0.2" fill="#FFFFFF" d="M112.2,120.4c0,0,10.8,25.4,50.3,15.1s38.4-23.1,38.4-32.5s-6.5-14.8-14.5-18.5
		S170,75.7,145,79.9c-6.1,1-11.9,1.5-15.2,6.2c-13.4,6.4-18.5,14.3-18.5,14.3S106.2,107,112.2,120.4z"/>
	<path fill="#93CFE2" d="M221.9,126.2c-6.3-24.7-26.7-43.9-51.8-48.1c-0.3-0.1-0.6,0-0.8,0.2c0.9,0.9,1.9,1.5,2.8,2.2
		c20.4,4.3,37.1,18.4,45.1,37.8c8.7,21.3,4.8,46.4-10.5,63.7c-7.8,8.8-18.2,14.9-29.4,18.5c-13,4.2-26.1,1.6-38.3-3.9
		c-10.8-4.8-21.1-10.6-28.1-20.3c-7.1-9.8-11.1-22-12.5-33.9c-2.7-22.6,11.6-45,31.2-55.9c-0.1-0.1-0.1-0.3,0-0.5
		c0.7-1.4,1.9-2.3,3.2-3.2c-0.2,0-0.3,0-0.5,0.1c-19.7,9.2-35.4,30.1-36.2,52.1c-0.8,25,13.1,47.6,34.7,59.6
		c11.6,6.4,25.2,11.4,38.6,9.7c11.8-1.5,23-7.6,31.9-15.2C219.6,173.6,227.9,149.7,221.9,126.2z"/>
	<g>
		<g>
			<path fill="#709B9A" d="M142.5,99.6c-3.8-0.7-9-0.4-11.3,3.2c-3.5,5.3,2.1,9.7,4.7,13.6c2.9,4.3,1.7,9.1,2.4,13.9
				c0.5,3.1,1.4,6.2,2.4,9.2c1.9,6.3,1.9,13.7,5.3,19.4c0.5,0.8,2,0.5,1.9-0.5c-0.4-3.8-0.6-7.7-0.8-11.5c-0.6,0.3-1.2,0.5-1.8,0.8
				c4.6,3.7,4.8,9.8,8.2,14.4c2.6,3.5,6.7,5.9,10.5,7.8c1.7,0.8,3.3,1.4,5.2,1.6c2.1,0.1,3.4-0.3,5.6,0.3c1.8,0.5,3.3,1.3,5,1.9
				c2.4,0.9,5.7,1.2,7.2-1.5c1.3-2.3-0.1-3.7-1.3-5.5c-1.1-1.6-1.6-2.6-1.8-4.8c0-0.5,0.6-1.1,0.4-1.6c-0.3-1.2-0.3-1.8-1.3-2.6
				c-2.9-2.6-5.9,0.6-8.8,1c-1.9,1.2-3.1,0.5-3.8-2.1c-2.9-2-2.7-4,0.6-6c1.3-0.9,3.5-1.8,5-2c2.7-0.4,4.7,0,6.2,2.2
				c0.5,0.8,1,1.5,1.6,2.2c1,1.2,2.7-0.5,1.7-1.7c-2.3-2.9-3.5-5.9-7.7-5.6c-3.5,0.3-8.3,2-10.6,5c-2.2,2.9-1.9,7.2,0.5,10
				c2.9,3.5,6.7-0.5,10.1-1c1-0.8,1.7-0.6,2.2,0.7c1,0.4,1.3,0.9,1,1.5c0.1,0.4-0.4,1.2-0.4,1.8c0,1.2,0.6,2,1.3,2.9
				c0.5,0.6,1.5,1.1,1.8,1.8c1.7,3.2-4.1,2.4-5.8,1.8c-2.3-0.8-3.9-1.5-6.4-1.4c-6.5,0.2-14.3-3.9-17.6-9.8
				c-2.6-4.5-3.1-9.4-7.3-12.8c-0.6-0.5-1.9-0.3-1.8,0.8c0.3,3.8,0.6,7.7,0.8,11.5c0.6-0.2,1.3-0.3,1.9-0.5
				c-2.6-4.5-2.6-9.9-3.9-14.9c-1.4-5.3-3.6-10.4-3.8-16c-0.2-4,0.4-7.6-1.9-11.2c-1.2-1.9-3.9-3.7-4.6-5.8c0.3-2.5,0.7-5,1-7.5
				c1.1-0.6,2.3-0.9,3.5-1c1.4-0.2,2.7-0.2,4.1-0.1C143.3,101.5,143.5,99.8,142.5,99.6L142.5,99.6z"/>
		</g>
	</g>
	<g>
		<g>
			<path fill="#709B9A" d="M184.6,153.3c3.5,0.8,5.8-2,5.5-5.4c-0.3-3.5-2.7-5.5,0.1-8.8c1.7-2,4.2-2.8,5.2-5.4c0.7-1.7,0.6-3.3,0-5
				c-0.4-1.1-1-2.1-1.5-3.2c-1.4-3.1,0-5.7,1.7-8.3c2.9-4.3,6.4-8.9,4.5-14.6c-0.4-1.3-1-2.5-2.4-2.8c-0.5-0.1-1,0.2-1.6,0.1
				c-1.5,0.7-3.1,0.9-4.8,0.6c-1-0.4-2-0.7-3-1c-1.5-0.1-2.2,0.2-3.4,1c-2.5,1.6-5.4,5-7.2,7.5c-0.4,0.6-0.9,1.9-1.3,2.4
				c-3.5,3.7-3.9,1.8-6-0.2c-1.9-1.8-4.3-2.4-6.4-3.8c-4.8-3.1-8.6-8.9-15-7.4c-1.5,0.3-0.8,2.5,0.6,2.2c5.7-1.1,11.1,6.1,15.8,8.6
				c2.9,1.6,5.4,5.8,9,6.1c3,0.2,3.5-1.5,4.3-3.8c0.9-2.8,4.4-7.9,7.3-9.4c2.2-1.2,5.9,0.1,8.3,0.2c2.1,0.1,2.2-2.4,3.9,2
				c0.6,1.6-0.4,4.2-1,5.7c-1.2,2.9-3.5,4.7-5.2,7.2c-1.9,2.8-1.6,5.2-0.3,8.1c1.5,3.5,2.3,6.2-0.6,9.3c-1.3,1.4-3.1,2.2-4.2,3.9
				c-0.5,0.8-0.9,1.5-1,2.5c-0.1,1.9,4.8,10.5-0.7,9.5C183.8,151.1,183.3,153,184.6,153.3L184.6,153.3z"/>
		</g>
	</g>
	<g>
		<g>
			<path fill="#709B9A" d="M188.8,157.6c2.4,0.5,4.7-0.5,7,0c1.5,0.3,2.6,2.1,4.2,1.7c3.2-0.8,1.8-5-0.2-6.2c-3.3-2-8-1.4-11.2,0.4
				c-1,0.5-2.4,1.4-1.8,2.7c0.5,1.2,1.7,1.3,2.8,1c1.4-0.4,0.8-2.5-0.6-2.2c0.2,0.8,0.6,0.9,1.2,0.3c0.6-0.3,1.3-0.6,2-0.8
				c0.9-0.3,1.9-0.4,2.9-0.4c0.9,0,2,0.1,2.9,0.4c1.9,0.6,2.3,1.3,1.3,2.1c-0.2-0.2-0.4-0.3-0.6-0.5c-1.2-0.4-2-0.9-3.3-0.9
				c-2.1-0.1-4.1,0.7-6.2,0.4C188,155.7,187.8,157.4,188.8,157.6L188.8,157.6z"/>
		</g>
	</g>
	<path fill="#709B9A" d="M191.5,196.4c3.1-5.6,3.9-16,1.2-21.9c-0.3-0.6-1.7-2.2-1.7-2.7c0.1-1.2,1.9-2,2.7-2.6
		c1.9-1.3,4.2-2.2,6.2-3.1c3.7-1.7,5.5-1.8,9.7-1c1.7,0.3,7.1-1.6,7.7,3.8c0.4-0.8,0.8-1.2,1.1-2.4c-0.5-3.9-3.5-2.8-6.6-3.2
		c-2.5-0.3-4.1-1.6-6.6-1.4c-2.9,0.3-6.3,2.2-8.9,3.4c-2.5,1.2-8.9,3.1-8,6.8c0.3,1.2,1.6,2.4,2.1,3.5c0.9,2.1,1.2,4,1.2,6.3
		c0.1,4.3-0.8,12-2.6,15.9"/>
	<path fill="#BCBCBC" d="M145.6,96.6c-1.8,1.7-2.8,3.2-3.6,5.5c-0.2,0.6,0.4,1.1,1,1c1.8-0.3,3.2-1,4.8-1.8c3.4-1.6,6.3-1.8,9.9-2.3
		c1.4-0.2,2.8-0.7,4.1-0.9c1-0.1,2.8-1,3.3,0.7c-0.4-1.2-1.6,3.6-1.4,2.8c-0.1,0.4,0.1,0.7,0.5,0.8c12.8,4.1,17.5-17.1,7.8-23.3
		c-0.9-0.6-1.6,0.8-0.8,1.4c5.9,4,6.2,12.8,1.6,18c-0.9,1.1-5.7,5.1-6.5,1.1c-0.1-0.3,0.7-0.8,0.7-1.1c-0.1-1,0.7-1.5-0.2-2.5
		c-0.4-0.4-1.1-0.7-1.7-0.8c-0.5-0.1-1.1,0.3-1.6,0.4c-2.3,0.5-4.2,1.6-6.7,2c-2.1,0.3-4.3,0.3-6.4,0.9c-2.8,0.8-5.1,2.7-8.1,3.1
		c0.3,0.3,0.7,0.7,1,1c0.5-2,1.5-3.6,3.1-4.9C147.3,97,146.3,96,145.6,96.6L145.6,96.6z"/>
	<path fill="#BCBCBC" d="M145.8,96.2c-3.7,0.4-8,1.2-11.6,0.1c-4-1.3-5.4-4.9-4.5-8.1c0.3-1.7,1.4-3.3,2.8-4.3c0-0.5-0.6-1-1.1-0.6
		c-4,2.7-5.1,7.6-2,11.5c3.8,4.9,11.2,3.6,16.5,2.6C146.7,97.3,146.5,96.2,145.8,96.2z"/>
	<path opacity="0.4" fill="#FFFFFF" d="M164.4,135c-0.6,0.2-1.3,0.4-2,0.5c-39.5,10.3-50.3-15.1-50.3-15.1c-0.1-0.3-0.3-0.6-0.4-0.9
		c0.7,2.7,1.8,5.5,3.1,7c2,2.6,5.6,6.6,8.5,8c6.4,3.1,12.9,5,20,5.2c14.6,0.4,29.2-3,42.1-9.7c4.4-2.3,6.6-3.7,9.7-7.6
		c2.9-3.7,5.2-7.9,5.6-14.4C200.1,116.4,195.6,126.5,164.4,135z"/>
	<path fill="#93CFE2" d="M120.1,90.9c0.4,0.6,0.6,0.8,1,1.4c19.8-14,36.6-15.3,54.9-10.9c1,0.9-0.9-1.2-0.7-1.3
		c0.7-0.3,1.4-0.4,2.1-0.4C157.9,73.6,135.7,77.3,120.1,90.9z"/>
</g>
<g id="Layer_7">
	<g>
		<rect x="144" y="4" fill="#F2F2F2" width="32" height="57"/>
		<path fill="#898989" d="M146.6,12l27,0l-0.1,40.8c-1,0-27,0-27,0C146.5,51.8,146.6,12,146.6,12z"/>
		<g>
			<g>
				<path fill="#D1D1D1" d="M143.4,4c-0.5,18.7-0.1,37.3-0.1,56c0,0.9,1.4,0.9,1.4,0c-0.1-18.7,0.3-37.3-0.1-56
					C144.6,3.3,143.4,3.3,143.4,4L143.4,4z"/>
			</g>
		</g>
		<g>
			<g>
				<path fill="#D1D1D1" d="M144,4.6c10.7,0.3,21.4-0.1,32.1,0c0.8,0,0.8-1.2,0-1.2c-10.5-0.5-21.6-0.7-32.1-0.1
					C143.2,3.4,143.2,4.6,144,4.6L144,4.6z"/>
			</g>
		</g>
		<g>
			<g>
				<path fill="#D1D1D1" d="M176.7,60.7c0.5-18.6,0.1-37.3,0.1-55.9c0-0.9-1.4-0.9-1.4,0c0.1,18.6-0.3,37.3,0.1,55.9
					C175.6,61.4,176.7,61.4,176.7,60.7L176.7,60.7z"/>
			</g>
		</g>
		<g>
			<g>
				<path fill="#D1D1D1" d="M176.1,60.1c-10.7-0.3-21.4,0.1-32.1,0c-0.8,0-0.8,1.2,0,1.2c10.5,0.5,21.6,0.7,32.1,0.1
					C176.9,61.3,176.9,60.1,176.1,60.1L176.1,60.1z"/>
			</g>
		</g>
		<g>
			<g>
				<path fill="#777777" d="M146.3,11.8c-0.2,13.5,0,27-0.1,40.5c0,0.5,0.7,0.5,0.7,0c0-13.5,0.2-27-0.1-40.5
					C146.8,11.5,146.3,11.5,146.3,11.8L146.3,11.8z"/>
			</g>
		</g>
		<g>
			<g>
				<path fill="#777777" d="M146.5,12.1c9,0.1,18-0.1,27,0c0.4,0,0.4-0.6,0-0.6c-9-0.3-18.1-0.4-27,0
					C146.2,11.5,146.1,12.1,146.5,12.1L146.5,12.1z"/>
			</g>
		</g>
		<g>
			<g>
				<path fill="#777777" d="M173.9,52.8c0.2-13.5,0-27,0.1-40.5c0-0.5-0.7-0.5-0.7,0c0,13.5-0.2,27,0.1,40.5
					C173.3,53.2,173.9,53.2,173.9,52.8L173.9,52.8z"/>
			</g>
		</g>
		<g>
			<g>
				<path fill="#777777" d="M173.6,52.5c-9-0.1-18,0.1-27,0c-0.4,0-0.4,0.6,0,0.6c9,0.3,18.1,0.4,27,0C174,53.1,174,52.5,173.6,52.5
					L173.6,52.5z"/>
			</g>
		</g>
		<g>
			<g>
				<path fill="#D1D1D1" d="M159.9,6c-1.3-0.2-2.2,1-2,2.2c0.2,1.3,1.3,2.1,2.6,2.1c1.3-0.1,2.6-1.1,2.5-2.5
					c-0.1-1.4-1.9-2.2-3.1-2.1c-0.8,0-0.8,1.3,0,1.3c0.6,0,1.4,0.1,1.7,0.7c0.5,0.6-0.3,1.2-0.9,1.3c-0.5,0.1-1-0.1-1.2-0.6
					c-0.2-0.4-0.1-1.2,0.4-1.3C160.3,6.9,160.5,6.1,159.9,6L159.9,6z"/>
			</g>
		</g>
		<g>
			<g>
				<path fill="#777777" d="M157.6,57.7c1.8,0,3.6,0,5.4,0c0.8,0,0.8-1.2,0-1.2c-1.8,0-3.6,0-5.4,0
					C156.9,56.6,156.9,57.7,157.6,57.7L157.6,57.7z"/>
			</g>
		</g>
	</g>
</g>
<g id="Layer_5">
	<g>
		<path fill="#D6D6D6" d="M38.5,174.6L34.8,185l-1.2,32.5l23.9,7.7c0,0,1.8-0.9,8.5-19c6.7-18.1,7.9-21.8,7.9-21.8s-1-0.7-13.7-4.5
			S41,174.4,38.5,174.6z"/>
		<polygon fill="#E2E2E2" points="58.5,173 15.5,191.9 25,220.5 73.2,203.7 		"/>
		<polygon fill="none" stroke="#C1C1C1" stroke-miterlimit="10" points="58.5,173 15.5,191.9 25,220.5 73.2,203.7 		"/>
		<g>
			<g>
				<path fill="#C1C1C1" d="M36,182.9c0.5-1.3,1-2.6,1.4-3.9c0.2-0.6,0.4-1.3,0.7-1.9c0.1-0.3,0.2-0.6,0.3-1
					c0.3-1.1,0.8-1.5,1.8-1.1c2.7-0.1,6.1,1.2,8.6,2.2c0.6,0.2,0.8-0.7,0.3-0.9c-2.2-0.8-4.4-1.4-6.7-1.9c-0.9-0.2-3-0.8-3.8-0.4
					c-0.7,0.4-0.8,1-1.1,1.8c-0.8,2.3-1.6,4.5-2.2,6.8C35.1,183.2,35.8,183.4,36,182.9L36,182.9z"/>
			</g>
		</g>
		<g>
			<g>
				<path fill="#C1C1C1" d="M62.1,181.4c1.8,0.5,3.7,0.9,5.5,1.4c2.1,0.5,5.3,0.5,5.2,3.3c-0.1,1.6-1.1,3.6-1.6,5.1
					c-0.6,1.9-1.2,3.7-1.8,5.6c-0.2,0.6,0.7,0.8,0.9,0.3c0.8-2.4,1.6-4.9,2.4-7.3c0.6-1.8,1.5-3.8,1.7-5.7c0-0.2-0.1-0.3-0.2-0.4
					c-1.4-0.8-3.3-1-5-1.4c-2.3-0.5-4.5-1-6.8-1.5C61.8,180.5,61.6,181.3,62.1,181.4L62.1,181.4z"/>
			</g>
		</g>
		<g>
			<g>
				<path fill="#C1C1C1" d="M65.5,206.6c-1.3,3.5-2.6,7-4,10.5c-0.6,1.5-1.2,3.9-2.1,5.2c-2.3,3.3-3.4,1.9-6.1,0.9
					c-6.7-2.5-13.5-4.5-20.5-6c-0.7-0.1-1,0.9-0.3,1c4.6,1,9.2,2.2,13.8,3.7c2.3,0.7,4.5,1.5,6.7,2.3c1.2,0.5,3.2,1.8,4.6,1.6
					c2.2-0.2,2.4-2.4,3.1-4.2c2-4.9,3.8-9.8,5.6-14.8C66.5,206.3,65.6,206,65.5,206.6L65.5,206.6z"/>
			</g>
		</g>
		<g>
			<g>
				<path fill="#6EB2CC" d="M28.4,215.6c-0.2-0.9-0.6-1.7-0.9-2.5c-0.2-0.6-0.8-1.6-0.8-2.2c-0.1,0.2-0.2,0.5-0.3,0.7
					c0.2-0.2,1-0.3,1.3-0.4c0.5-0.1,1.1-0.4,1.6-0.4c-0.2-0.1-0.5-0.2-0.7-0.3c0.2,0.1,0.3,0.9,0.4,1.1c0.2,0.4,0.3,0.8,0.4,1.3
					c0.3,0.8,0.5,1.7,0.8,2.5c0.4,1.2,2.4,0.7,1.9-0.5c-0.6-1.7-1.1-3.5-1.8-5.2c-0.7-1.4-2.1-0.6-3.2-0.3c-1.1,0.3-2.6,0.5-2.4,2
					c0.1,0.8,0.6,1.6,0.9,2.3c0.4,0.9,0.7,1.8,1.1,2.7C27.2,217.2,28.7,216.5,28.4,215.6L28.4,215.6z"/>
			</g>
		</g>
		<g>
			<g>
				<path fill="#6EB2CC" d="M35.1,213.4c-1.4-3.1-2.7-6.3-3.7-9.6c-0.2,0.4-0.4,0.8-0.7,1.2c1.4-0.3,2.9-0.7,4.3-1
					c-0.4-0.2-0.8-0.5-1.2-0.7c1.1,3.2,2.1,6.5,3.1,9.7c0.4,1.3,2.4,0.7,2-0.6c-1.1-3.2-2.2-6.4-3.2-9.7c-0.2-0.5-0.7-0.8-1.2-0.7
					c-1.4,0.4-2.8,0.7-4.3,1.1c-0.5,0.1-0.8,0.7-0.7,1.2c1.1,3.4,2.5,6.7,4.2,9.9C34.2,215,35.5,214.2,35.1,213.4L35.1,213.4z"/>
			</g>
		</g>
		<g>
			<g>
				<path fill="#6EB2CC" d="M42.4,211c-1.5-4.8-3.3-9.5-5.3-14.1c-0.3,0.4-0.7,0.9-1,1.3c2.1,0,3.7-0.4,5.5-1.5
					c-0.5-0.2-1-0.4-1.5-0.6c1.7,4.7,3.4,9.5,5.1,14.2c0.5,1.3,2.6,0.7,2.1-0.6c-1.8-4.7-3.5-9.5-5.2-14.2c-0.2-0.6-0.9-1-1.5-0.6
					c-1.3,0.8-2.8,1.2-4.4,1.2c-0.9,0-1.2,0.9-0.9,1.6c2,4.5,3.8,9.1,5.6,13.7C41.2,212.4,42.7,212,42.4,211L42.4,211z"/>
			</g>
		</g>
		<g>
			<g>
				<path fill="#6EB2CC" d="M51.3,208.3c-2.5-6.4-4.8-12.8-7.4-19.2c-0.3,0.4-0.7,0.9-1,1.3c1.5-0.2,2.7-0.7,4.1-1
					c2.5-0.6,0.4-0.8,1.5,0.5c0.7,0.8,0.9,2.7,1.2,3.6c1.5,4.6,3,9.3,4.3,14c0.4,1.4,2.6,0.8,2.2-0.6c-1.8-6.1-3.4-12.5-5.9-18.3
					c-1.7-3.9-3.9-0.7-7.4-0.3c-0.6,0.1-1.3,0.6-1,1.3c2.3,6.5,5,12.8,7.7,19.1C50,209.9,51.7,209.4,51.3,208.3L51.3,208.3z"/>
			</g>
		</g>
		<g>
			<g>
				<path fill="#6EB2CC" d="M59.9,205.6c-2.5-8.3-5.6-16.6-8.8-24.6c-0.2,0.4-0.5,0.9-0.7,1.3c2.3-0.8,4.4-1.7,6.5-2.8
					c-0.5-0.2-1-0.4-1.5-0.6c2.9,8.6,6.3,17,10,25.3c0.6,1.4,2.7,0.2,2-1.2c-3.7-8.1-7.1-16.3-10.1-24.7c-0.2-0.6-0.9-1-1.5-0.6
					c-1.9,1.1-3.9,1.9-6,2.6c-0.5,0.2-0.9,0.7-0.7,1.3c3,8.2,6,16.4,9.2,24.5C58.7,207.1,60.3,206.7,59.9,205.6L59.9,205.6z"/>
			</g>
		</g>
	</g>
</g>
</svg>
