<?xml version="1.0" encoding="utf-8"?>
<!-- Generator: Adobe Illustrator 15.1.0, SVG Export Plug-In . SVG Version: 6.00 Build 0)  -->
<!DOCTYPE svg PUBLIC "-//W3C//DTD SVG 1.1//EN" "http://www.w3.org/Graphics/SVG/1.1/DTD/svg11.dtd">
<svg version="1.1" id="Layer_1" xmlns="http://www.w3.org/2000/svg" xmlns:xlink="http://www.w3.org/1999/xlink" x="0px" y="0px"
	 width="218px" height="250px" viewBox="0 0 218 250" enable-background="new 0 0 218 250" xml:space="preserve">
<path fill="#FFFFFF" d="M144.663,39.002c-3.511-0.897-7.059-1.248-10.68-1.07c-6.648,0.327-13.422,3.375-20.073,2.559
	c-3.336-0.409-6.83-1.428-10.194-1.086c-4.194,0.426-7.832,2.154-11.792,3.412c-5.977,1.898-12.511,2.596-18.702,3.557
	c-3.008,0.467-7.08,0.768-9.676,2.512c-2.659,1.786-3.494,4.522-5.548,6.779c-4.078,4.483-9.062,8.143-14.18,11.347
	c-5.557,3.479-11.039,6.105-16.92,8.925c-2.968,1.423-7.899,3.112-10.729,5.725c0.295,0.224,0.517,0.559,0.576,1.004
	c0.962,7.239,5.307,13.152,8.421,19.579c6.222,5.463,8.039,14.734,9.695,22.546c1.559,7.356,3.46,15.105,4.515,22.738
	c5.001,12.249,9.951,24.682,14.432,37.102c2.429,6.732,4.69,13.667,6.606,20.564c1.091,3.927,1.601,8.24,2.917,12.175
	c4.695-1.112,8.462-4.242,13.069-5.515c0.528-0.146,1.062-0.272,1.596-0.398c4.678-3.176,10.997-3.426,16.795-2.672
	c10.379-0.414,20.807,4.174,30.852,6.109c10.906,2.103,22.746-0.289,33.449-3.536c3.436-6.466,1.679-13.556,0.235-20.681
	c-1.159-5.726,1.155-7.798,4.204-11.985c0.451-0.897,0.933-1.777,1.413-2.676c1.041-1.944,1.275-3.673,1.798-5.745
	c0.558-2.208,1.531-3.979,3.265-5.224c1.681-2.964,2.686-5.774,2.69-8.917c-1.17-3.964-2.878-7.752-5.135-11.242
	c-1.619-2.506-3.064-4.535-3.644-7.495c-0.784-4.014,0.817-7.752,4.608-9.036c0.123-0.089,0.261-0.166,0.429-0.219
	c11.502-3.587,11.617-15.731,11.656-25.82c0.01-2.369-0.07-4.977,0.844-7.222c0.851-2.089,2.256-4.338,2.743-6.498
	c0.555-2.455,0.823-4.838,0.956-7.213c-3.954-4.253-7.202-8.92-12.568-11.965c-3.693-2.096-7.444-3.726-11.705-4.194
	c-3.07-0.337-5.987-0.693-8.926-1.697c-10.104-3.455-2.93-14.611-2.246-21.523C148.264,40.724,146.823,39.554,144.663,39.002z"/>
<path fill="#F4F4F4" d="M83.287,205.595c-3.101-1.557-5.432-3.73-7.539-6.489c-4.2-5.5-7.432-11.832-7.964-18.737
	c-0.129-0.157-0.228-0.357-0.271-0.618c-0.885-5.315-2.497-9.839-4.39-14.851c-1.037-2.744-1.84-6.194-0.027-8.862
	c3.175-4.671,4.937-8.572,4.954-14.365c0.011-3.825-0.597-11.503-3.937-14.342c-0.637,0.095-1.34-0.175-1.6-0.955
	c-1.202-3.603-3.308-5.933-3.917-9.819c-0.393-2.512,0.259-5.184-0.578-7.641c-2.502-7.342-12.542-5.537-18.621-6.762
	c-6.154-1.24-9.661-5.515-14.906-8.542c-4.72-2.724-6.702-6.542-8.836-11.399c-0.071-0.161-0.107-0.317-0.127-0.469h-0.465
	c0.01,0.399,0.007,0.81,0.032,1.198c0.124,0.148,0.22,0.331,0.267,0.558c0.318,1.544,0.508,3.31,0.752,5.105
	c0.122,0.421,0.229,0.836,0.373,1.27c0.123,0.369,0.092,0.688-0.028,0.95c0.5,2.777,1.317,5.442,3.157,7.284
	c1.508,1.51,3.124,2.833,4.57,4.332c0.359-0.039,0.737,0.079,1.063,0.436c5.209,5.713,2.744,12.829,0.802,19.54
	c0.132,8.925,5.118,15.783,8.514,23.494c0.151,0.076,0.298,0.185,0.434,0.342c1.838,2.125,4.401,4.178,5.414,6.882
	c0.576,1.538,0.375,2.851,0.375,4.458c0,1.321,0.331,2.541,0.718,3.753c0.171,0.103,0.331,0.246,0.464,0.442
	c1.381,2.028,1.903,4.012,1.818,6.463c-0.076,2.173,0.173,4.328,0.29,6.486c0.348,0.219,0.594,0.596,0.585,1.139
	c-0.062,3.529-0.523,7.105-0.12,10.625c0.154,1.343,0.465,2.569,0.869,3.748c0.285,0.023,0.574,0.137,0.838,0.379
	c1.397,1.282,2.6,2.829,3.76,4.384c0.049,0.061,0.093,0.128,0.142,0.188c0.091,0.085,0.17,0.194,0.241,0.321
	c0.218,0.284,0.441,0.562,0.646,0.862c0.233,0.314,0.467,0.633,0.702,0.939c1.547,2.025,2.77,4.097,3.473,6.528
	c0.626,1.084,1.205,2.197,1.664,3.386c0.406,1.051,0.852,2.207,1.345,3.391c1.605,1.963,2.793,4.232,4.348,6.211
	c2.254-0.66,4.483-1.043,6.659-2.252c4.341-2.41,8.578-4.335,13.513-5.228c3.366-0.608,6.709-0.896,10.037-0.928
	C90.631,205.711,86.181,207.048,83.287,205.595z"/>
<g id="Layer_4">
</g>
<g id="Layer_3">
	<path fill="none" stroke="#E5E5E5" stroke-width="2" stroke-miterlimit="10" d="M149.667,40.999c-6.333,5-20,8.333-27.667,11.333
		c-8,3-16.667,7.333-24.667,10.333C79,69.667,53.667,74,34.667,79.333C29.333,81,21.329,80.833,15.662,81.5"/>
	<path fill="none" stroke="#E5E5E5" stroke-width="2" stroke-miterlimit="10" d="M16.746,82.667C17.996,84.167,19.25,90,21,91.75
		C23.25,94,27,94,29.5,96.5c4,4.25,6.25,5.25,12.25,5.75c4.75,0.5,9,0.25,13.25,2.25c6.5,3,2.25,10.25,5,16
		c3.25,7,8.5,9.75,8.25,18.25c-0.25,3-0.25,6-0.5,8.75c-0.5,4.75-5,7.75-6,11.75c-0.5,2.5,2.5,7.25,3.25,10
		c1.25,5.5,2.75,10.75,3.75,16.25c1.25,6.25,8.5,18.5,15,20c4.5,1,6-1.25,9.5,2.75c2.75,3,5,6,7.75,8.75c5,4.75,10.75,7.5,16.5,11.5
		c5.25,3.75,8,2.25,13.5,0.25c5.25-1.75,8-1,12.5-4.75c2.25-1.75,4.25-3.5,6.75-4"/>
	<path fill="none" stroke="#557784" stroke-width="2" stroke-miterlimit="10" d="M150.25,40.999
		c2.334,7.667-9.25,14.001-0.916,21.668c4.666,4.333,15,2,20,4.667c4,2,15.203,10.154,15.87,14.488"/>
	<path fill="#557784" d="M62.058,217.099c0.076,0.097,0.145,0.189,0.22,0.284c0.625-0.322,1.329-0.532,2.057-0.608
		c-0.232-0.304-0.464-0.606-0.708-0.916c-0.586-0.741-1.192-1.508-1.779-2.389c-2.144-3.43-3.483-6.438-4.779-9.346
		c-1.719-3.859-3.343-7.506-6.622-11.749c-1.049-1.311-1.932-1.974-2.577-2.457c-0.992-0.743-1.363-1.021-1.545-3.375
		c-0.156-1.253-0.073-2.467,0.008-3.641c0.083-1.205,0.169-2.452-0.009-3.7c-0.215-1.611-0.498-2.887-0.747-4.013
		c-0.528-2.381-0.909-4.102-0.274-7.28c0.65-2.6-0.581-4.296-1.667-5.792c-0.842-1.16-1.637-2.256-1.637-3.783
		c0-4.998-0.938-6.264-2.887-8.435c-0.664-0.739-1.417-1.577-2.293-2.806c-5.212-7.446-8.32-14.509-9.506-21.623
		c-0.531-2.652,0.367-5.824,1.236-8.891c1.214-4.291,2.471-8.727-0.054-12.14c-0.595-0.963-1.586-1.696-2.546-2.405
		c-0.917-0.678-1.867-1.379-2.483-2.302c-0.476-0.634-1.283-1.401-2.138-2.214c-0.928-0.881-2.077-1.974-2.413-2.591
		c-0.967-2.635-2.131-11.009-2.17-13.183h-1.682c0.043,2.362,0.953,11.149,2,13.94l0.042,0.096c0.462,0.923,1.62,2.023,2.845,3.188
		c0.758,0.72,1.542,1.465,1.884,1.919c0.778,1.168,1.92,2.011,2.927,2.755c0.854,0.631,1.662,1.228,2.048,1.872l0.058,0.085
		c1.97,2.626,0.896,6.419-0.242,10.435c-0.933,3.295-1.897,6.703-1.278,9.796c1.23,7.384,4.447,14.714,9.839,22.417
		c0.948,1.327,1.774,2.247,2.438,2.987c1.68,1.871,2.375,2.646,2.375,7.099c0,2.177,1.072,3.654,2.018,4.958
		c0.988,1.361,1.769,2.438,1.334,4.179c-0.728,3.638-0.287,5.63,0.272,8.151c0.241,1.086,0.514,2.317,0.719,3.854
		c0.149,1.048,0.074,2.137-0.005,3.29c-0.087,1.269-0.178,2.58-0.002,3.978c0.235,3.061,1.001,3.775,2.334,4.775
		c0.621,0.465,1.325,0.993,2.205,2.093c3.122,4.04,4.698,7.579,6.367,11.327c1.323,2.971,2.691,6.043,4.925,9.616
		C60.816,215.526,61.447,216.326,62.058,217.099z"/>
	<path fill="#557784" d="M186.201,81.897l-1.994-0.153c-0.317,4.12-2.463,11.534-3.81,15.238c-1.438,3.834-1.345,7.852-1.254,11.737
		c0.105,4.558,0.206,8.863-2.006,12.777c-1.031,1.767-3.312,3.021-5.726,4.349c-2.592,1.426-5.271,2.899-6.939,5.313
		c-3.478,5.887-1.331,8.744,1.155,12.052c0.909,1.21,1.939,2.581,2.812,4.237c1.797,3.593,3.895,8.949,3.895,12.22
		c0,1.811-1.477,3.317-3.039,4.912c-1.891,1.928-4.033,4.113-3.612,7.262c0.445,2.523-1.602,4.8-3.768,7.21
		c-2.088,2.323-4.248,4.727-4.248,7.616c0,3.724,0.772,6.619,1.59,9.685c0.382,1.432,0.776,2.911,1.097,4.512
		c0.958,4.794-1.149,7.711-3.914,10.746c0.924-0.082,1.85-0.137,2.782-0.155c2.337-2.856,4.061-6.146,3.093-10.983
		c-0.332-1.662-0.735-3.173-1.125-4.634c-0.783-2.936-1.522-5.708-1.522-9.17c0-2.123,1.814-4.143,3.736-6.279
		c2.391-2.66,4.863-5.411,4.255-8.853c-0.285-2.14,1.342-3.799,3.064-5.557c1.775-1.812,3.611-3.685,3.611-6.312
		c0-4.667-3.42-11.743-4.115-13.133c-0.956-1.817-2.038-3.256-2.992-4.525c-2.47-3.287-3.83-5.097-1.07-9.772
		c1.361-1.967,3.831-3.325,6.22-4.639c2.663-1.465,5.179-2.849,6.495-5.105c2.49-4.406,2.379-9.192,2.271-13.82
		c-0.09-3.865-0.174-7.516,1.131-10.998C183.702,93.744,185.865,86.251,186.201,81.897z"/>
	<path fill="none" stroke="#557784" stroke-width="2" stroke-miterlimit="10" d="M15.662,81.5"/>
	<path fill="none" stroke="#557784" stroke-width="2" stroke-miterlimit="10" d="M15.942,82.594C15.546,79.886,20.145,79.285,27,77
		c4.667-1.667,9-4.333,13.333-7.667C44,66.333,50,63.333,53,60c1.333-1.667,3.667-2.667,5-4.333c1.667-2.333,1.333-4,3.333-5.667
		c5.333-4,18.333-3.667,25-5.667c4.333-1,10.667-3.333,15-4.667c4-1,8.333,0,12.667,0.333s11-1.333,15-1.667
		c6-1,16.25-0.667,21.25,2.667"/>
	<path fill="none" stroke="#557784" stroke-width="2" stroke-miterlimit="10" d="M15.942,42.594"/>
	<path fill="#F7F7F7" d="M143.086,214.548c-10.105,0.757-20.454,1.021-29.605-3.739c-1.621-0.264-3.224-0.517-4.764-0.798
		c-5.55-1.014-11.072-2.254-16.748-2.215c-10.397,0.072-19.478,5.397-29.139,8.623c0.107,0.147,0.216,0.312,0.322,0.451
		c2.152,2.87,4.515,9.797,4.515,9.797l6.667,0.667c0,0,4.416,8.166,10.973,10.743c6.557,2.577,12.193,4.673,18.335,2.856
		c6.142-1.815,7.172-0.506,18.844,1.174c11.674,1.681,19.367-4.03,19.367-4.03s1.873-4.458,5.328-10.144
		c3.271-5.387,5.521-10.312,10.143-15.791C152.65,213.396,147.855,214.189,143.086,214.548z"/>
	<path fill="#FFFFFF" d="M127.691,229.723c-8.855,1.709-13.252-3.857-19.919-8.274c-5.865-3.888-10.173-8.734-14.853-13.634
		c-0.317-0.004-0.632-0.021-0.95-0.019c-10.397,0.072-19.478,5.397-29.139,8.623c0.107,0.147,0.216,0.312,0.322,0.451
		c2.152,2.87,4.515,9.797,4.515,9.797l6.667,0.667c0,0,4.416,8.166,10.973,10.743c6.557,2.577,12.193,4.673,18.335,2.856
		c6.142-1.815,7.172-0.506,18.844,1.174c11.674,1.681,19.367-4.03,19.367-4.03s1.873-4.458,5.328-10.144
		c1.952-3.216,3.541-6.267,5.485-9.369c-1.422,0.555-2.824,1.162-4.194,1.832C141.584,223.762,135.365,228.244,127.691,229.723z"/>
	<path fill="#7FAAB5" d="M143.086,214.548c-10.105,0.757-20.454,1.021-29.605-3.739c-1.621-0.264-3.224-0.517-4.764-0.798
		c-5.55-1.014-11.072-2.254-16.748-2.215c-10.397,0.072-19.478,5.397-29.139,8.623c0.107,0.147,0.216,0.312,0.322,0.451
		c2.152,2.87,4.515,9.797,4.515,9.797l6.667,0.667c0,0,4.416,8.166,10.973,10.743c6.557,2.577,12.193,4.673,18.335,2.856
		c6.142-1.815,7.172-0.506,18.844,1.174c11.674,1.681,19.367-4.03,19.367-4.03s1.873-4.458,5.328-10.144
		c3.271-5.387,5.821-11.061,10.443-16.539C152.951,212.648,147.855,214.189,143.086,214.548z"/>
	<path fill="#799FAD" d="M127.691,229.775c-8.855,1.711-13.252-3.867-19.919-8.295c-5.865-3.896-10.173-8.756-14.853-13.666
		c-0.317-0.006-0.632-0.021-0.95-0.02c-10.397,0.072-19.478,5.41-29.139,8.645c0.107,0.148,0.216,0.312,0.322,0.451
		c2.152,2.879,4.515,9.821,4.515,9.821l6.91,1.841c0,0,5.111,8.599,11.668,11.183c6.557,2.582,11.254,3.099,17.396,1.278
		c6.143-1.82,7.171-0.507,18.845,1.178c11.673,1.684,19.367-4.041,19.367-4.041s1.871-4.469,5.326-10.168
		c1.953-3.224,3.541-6.281,5.486-9.392c-1.422,0.556-2.824,1.164-4.195,1.836C141.584,223.8,135.365,228.293,127.691,229.775z"/>
	<path fill="#6C8D9E" d="M126.779,242.888c-2.944,0-5.896-0.222-8.812-0.439C115.024,242.228,111.983,242,109,242H92
		c-6.608,0-11.835-4.434-13.895-8.553c-1.888-3.776-4.629-4.473-7.532-5.21c-1.334-0.339-2.714-0.689-4.021-1.343l-0.145-0.072
		l-0.115-0.115c-1.072-1.072-1.245-2.656-1.412-4.188c-0.213-1.947-0.867-4.125-2.693-5.145l1.428-1.408
		c2.729,1.522,3.02,4.191,3.254,6.336c0.127,1.169,0.248,2.276,0.741,2.882c1.068,0.508,2.23,0.803,3.456,1.114
		c3.061,0.777,6.531,1.659,8.829,6.254C81.688,236.14,86.241,240,92,240h17c3.058,0,6.138,0.23,9.115,0.454
		c7.831,0.584,15.234,1.14,22.162-2.213c1.047-1.893,2.097-3.872,3.206-5.961c4.175-7.869,8.493-16.006,13.672-21.567l2.13,0.902
		c-4.999,5.368-9.921,13.848-14.035,21.603c-1.167,2.199-2.27,4.276-3.376,6.268l-0.15,0.271l-0.276,0.139
		C136.73,242.253,131.767,242.888,126.779,242.888z"/>
	<g>
		<g>
			<path fill="#6C8D9E" d="M92.365,208.672c7.409,9.29,17.857,17.555,28.576,22.688c4.414,2.117,9.787-1.401,13.922-2.799
				c2.549-0.86,5.009-1.889,7.393-3.139c2.232-1.17,5.292-4.646,7.906-4.729c1.089-0.034,1.495-1.432,0.178-1.39
				c-3.521,0.11-4.939,2.356-7.793,4.32c-4.58,3.151-10.406,4.321-15.559,6.241c-6.094,2.271-14.788-5.738-19.445-9.194
				c-4.997-3.709-9.527-7.979-13.407-12.845C93.596,207.152,91.756,207.908,92.365,208.672L92.365,208.672z"/>
		</g>
	</g>
	<g>
		<g>
			<path fill="#557784" d="M47.997,220.025c9.765,0.518,18.321-3.976,27.152-7.492c14.253-5.678,28.398-3.077,42.625,1.109
				c11.365,3.347,21.26,2.963,32.664,0.098c6.701-1.684,13.438-3.708,20.405-2.693c5.878,0.854,11.339,3.76,17.153,4.979
				c0.938,0.197,1.955-1.117,0.674-1.387c-5.322-1.117-10.252-3.562-15.568-4.654c-4.81-0.986-9.285-0.596-14.084,0.303
				c-6.478,1.21-12.736,3.305-19.254,4.359c-7.723,1.25-15.279-0.646-22.633-2.81c-10.531-3.101-21.98-5.692-32.942-3.36
				c-12.012,2.556-22.943,10.828-35.518,10.162C47.744,218.591,46.688,219.957,47.997,220.025L47.997,220.025z"/>
		</g>
	</g>
	<g>
		<path fill="#557784" d="M95.745,203.672h-1.248c-0.14,0-0.255-0.035-0.345-0.105c-0.09-0.07-0.155-0.156-0.195-0.262l-0.648-1.77
			h-3.594l-0.648,1.77c-0.032,0.093-0.095,0.177-0.189,0.253c-0.094,0.075-0.209,0.114-0.345,0.114h-1.254l3.408-8.676h1.65
			L95.745,203.672z M90.129,200.396h2.766l-1.056-2.886c-0.048-0.129-0.101-0.279-0.159-0.453s-0.115-0.363-0.171-0.567
			c-0.056,0.204-0.111,0.394-0.165,0.57c-0.054,0.176-0.107,0.329-0.159,0.462L90.129,200.396z"/>
		<path fill="#557784" d="M98.307,200.281v3.391h-1.614v-8.676h2.646c0.592,0,1.099,0.061,1.521,0.182
			c0.422,0.123,0.769,0.294,1.038,0.514c0.271,0.221,0.468,0.482,0.594,0.789c0.127,0.307,0.189,0.643,0.189,1.011
			c0,0.292-0.043,0.568-0.129,0.828c-0.086,0.261-0.21,0.496-0.372,0.708s-0.362,0.398-0.6,0.559
			c-0.238,0.16-0.51,0.287-0.813,0.383c0.204,0.117,0.38,0.283,0.528,0.498l2.172,3.205h-1.452c-0.14,0-0.259-0.028-0.357-0.084
			c-0.098-0.057-0.181-0.137-0.248-0.24l-1.824-2.778c-0.068-0.104-0.144-0.178-0.226-0.222c-0.082-0.045-0.203-0.066-0.362-0.066
			H98.307z M98.307,199.123h1.008c0.304,0,0.569-0.037,0.795-0.113c0.227-0.076,0.412-0.182,0.559-0.315
			c0.146-0.134,0.255-0.293,0.327-0.478c0.071-0.184,0.107-0.385,0.107-0.605c0-0.439-0.145-0.777-0.435-1.014
			s-0.733-0.354-1.329-0.354h-1.032V199.123z"/>
		<path fill="#557784" d="M110.276,194.996v1.325h-2.61v7.351h-1.614v-7.351h-2.622v-1.325H110.276z"/>
		<path fill="#557784" d="M113.121,203.672h-1.62v-8.676h1.62V203.672z"/>
		<path fill="#557784" d="M121.034,201.625c0.088,0,0.164,0.034,0.229,0.103l0.636,0.69c-0.353,0.436-0.785,0.77-1.299,1.002
			c-0.515,0.231-1.131,0.348-1.852,0.348c-0.644,0-1.223-0.11-1.736-0.33c-0.515-0.221-0.953-0.525-1.317-0.918
			s-0.643-0.86-0.837-1.404s-0.291-1.138-0.291-1.781c0-0.652,0.108-1.25,0.324-1.791c0.216-0.543,0.52-1.01,0.912-1.401
			c0.392-0.392,0.86-0.697,1.406-0.915c0.546-0.219,1.149-0.327,1.81-0.327c0.644,0,1.207,0.103,1.688,0.31
			c0.482,0.205,0.896,0.479,1.239,0.818l-0.54,0.75c-0.032,0.048-0.073,0.09-0.123,0.126s-0.119,0.054-0.207,0.054
			c-0.092,0-0.186-0.035-0.282-0.107c-0.096-0.072-0.218-0.15-0.365-0.234c-0.148-0.084-0.335-0.162-0.562-0.234
			c-0.226-0.071-0.513-0.107-0.861-0.107c-0.407,0-0.782,0.07-1.125,0.213c-0.342,0.143-0.636,0.346-0.882,0.609
			s-0.438,0.584-0.576,0.963c-0.138,0.378-0.206,0.803-0.206,1.275c0,0.487,0.068,0.922,0.206,1.301
			c0.139,0.381,0.325,0.701,0.562,0.961s0.514,0.459,0.834,0.597s0.664,0.207,1.032,0.207c0.22,0,0.419-0.013,0.597-0.036
			s0.342-0.062,0.492-0.113c0.149-0.053,0.292-0.119,0.426-0.201s0.268-0.184,0.399-0.303c0.04-0.037,0.082-0.066,0.126-0.088
			S120.982,201.625,121.034,201.625z"/>
		<path fill="#557784" d="M124.73,202.34h3.474v1.332h-5.088v-8.676h1.614V202.34z"/>
		<path fill="#557784" d="M134.792,194.996v1.283h-3.846v2.406h3.03v1.242h-3.03v2.453h3.846v1.291h-5.472v-8.676H134.792z"/>
	</g>
	<g>
		<path fill="#F7F7F7" d="M87.444,226.703c0.312,0,0.591-0.053,0.837-0.156s0.454-0.25,0.624-0.438c0.17-0.188,0.3-0.416,0.39-0.685
			c0.09-0.269,0.135-0.567,0.135-0.899v-5.196h1.614v5.196c0,0.516-0.083,0.992-0.249,1.431c-0.167,0.438-0.405,0.815-0.717,1.134
			s-0.69,0.566-1.134,0.744c-0.444,0.178-0.944,0.268-1.5,0.268c-0.556,0-1.056-0.09-1.5-0.268
			c-0.444-0.178-0.821-0.426-1.131-0.744s-0.548-0.695-0.714-1.134s-0.249-0.915-0.249-1.431v-5.196h1.614v5.19
			c0,0.332,0.045,0.631,0.135,0.899s0.219,0.497,0.387,0.687c0.168,0.19,0.375,0.338,0.621,0.441
			C86.853,226.65,87.132,226.703,87.444,226.703z"/>
		<path fill="#F7F7F7" d="M94.356,224.951v3.054h-1.614v-8.676h2.826c0.58,0,1.082,0.067,1.506,0.204
			c0.424,0.136,0.774,0.326,1.05,0.57c0.276,0.243,0.48,0.535,0.612,0.875s0.198,0.713,0.198,1.116c0,0.42-0.07,0.806-0.21,1.155
			c-0.141,0.35-0.351,0.65-0.63,0.902c-0.28,0.252-0.63,0.449-1.05,0.588c-0.421,0.141-0.912,0.211-1.477,0.211H94.356z
			 M94.356,223.691h1.212c0.296,0,0.554-0.037,0.774-0.111c0.22-0.074,0.401-0.18,0.546-0.318c0.144-0.138,0.252-0.306,0.324-0.504
			c0.071-0.197,0.107-0.419,0.107-0.663c0-0.231-0.036-0.442-0.107-0.63c-0.072-0.188-0.181-0.348-0.324-0.48
			c-0.145-0.131-0.326-0.232-0.546-0.303c-0.221-0.07-0.479-0.105-0.774-0.105h-1.212V223.691z"/>
		<path fill="#F7F7F7" d="M104.172,226.816c0.363,0,0.681-0.033,0.95-0.099c0.271-0.065,0.527-0.157,0.771-0.272v-1.578h-1.086
			c-0.104,0-0.187-0.029-0.246-0.088c-0.06-0.057-0.09-0.129-0.09-0.213v-0.912h2.886v3.511c-0.22,0.159-0.449,0.299-0.687,0.417
			c-0.238,0.117-0.492,0.215-0.763,0.291c-0.27,0.076-0.559,0.133-0.866,0.171c-0.309,0.038-0.641,0.058-0.996,0.058
			c-0.633,0-1.215-0.111-1.746-0.33c-0.532-0.221-0.992-0.526-1.38-0.918c-0.389-0.393-0.691-0.861-0.909-1.404
			c-0.219-0.545-0.327-1.139-0.327-1.782c0-0.651,0.105-1.25,0.318-1.794c0.212-0.544,0.513-1.012,0.902-1.404
			c0.391-0.392,0.863-0.695,1.419-0.912c0.557-0.216,1.181-0.324,1.872-0.324c0.708,0,1.321,0.105,1.839,0.315
			c0.519,0.21,0.957,0.483,1.317,0.819l-0.468,0.732c-0.093,0.147-0.214,0.221-0.366,0.221c-0.096,0-0.194-0.031-0.294-0.096
			c-0.128-0.076-0.259-0.152-0.394-0.228c-0.134-0.076-0.281-0.142-0.443-0.198s-0.345-0.102-0.546-0.139
			c-0.202-0.035-0.436-0.053-0.699-0.053c-0.428,0-0.815,0.071-1.161,0.215c-0.346,0.145-0.641,0.351-0.885,0.619
			c-0.244,0.268-0.433,0.59-0.564,0.965c-0.132,0.377-0.197,0.797-0.197,1.261c0,0.5,0.069,0.944,0.21,1.335
			c0.14,0.391,0.336,0.719,0.588,0.986c0.252,0.269,0.552,0.474,0.899,0.615C103.38,226.746,103.76,226.816,104.172,226.816z"/>
		<path fill="#F7F7F7" d="M110.531,224.615v3.39h-1.614v-8.676h2.647c0.592,0,1.098,0.062,1.52,0.183
			c0.422,0.122,0.77,0.293,1.039,0.514c0.27,0.22,0.467,0.482,0.594,0.789c0.127,0.306,0.189,0.643,0.189,1.01
			c0,0.293-0.043,0.568-0.129,0.828c-0.086,0.261-0.211,0.496-0.373,0.709c-0.162,0.211-0.361,0.397-0.6,0.558
			s-0.51,0.288-0.812,0.384c0.203,0.116,0.379,0.282,0.527,0.498l2.172,3.204h-1.451c-0.141,0-0.26-0.028-0.357-0.084
			s-0.182-0.136-0.248-0.24l-1.824-2.778c-0.068-0.104-0.145-0.178-0.227-0.222s-0.203-0.065-0.361-0.065H110.531z M110.531,223.457
			h1.008c0.305,0,0.57-0.038,0.795-0.114c0.227-0.075,0.412-0.181,0.559-0.315c0.146-0.133,0.256-0.293,0.328-0.477
			c0.07-0.184,0.107-0.386,0.107-0.605c0-0.44-0.145-0.778-0.436-1.015c-0.289-0.235-0.732-0.354-1.328-0.354h-1.033V223.457z"/>
		<path fill="#F7F7F7" d="M124.35,228.005h-1.248c-0.139,0-0.254-0.035-0.344-0.104c-0.09-0.07-0.156-0.157-0.195-0.262l-0.648-1.77
			h-3.594l-0.648,1.77c-0.031,0.092-0.096,0.176-0.189,0.252s-0.209,0.114-0.344,0.114h-1.254l3.408-8.676h1.648L124.35,228.005z
			 M118.734,224.729h2.766l-1.057-2.886c-0.047-0.128-0.1-0.278-0.158-0.453c-0.059-0.174-0.115-0.362-0.172-0.567
			c-0.055,0.205-0.109,0.395-0.164,0.57s-0.107,0.33-0.158,0.463L118.734,224.729z"/>
		<path fill="#F7F7F7" d="M132.947,223.667c0,0.636-0.105,1.22-0.318,1.752c-0.211,0.532-0.51,0.989-0.893,1.374
			c-0.385,0.384-0.846,0.682-1.387,0.895c-0.539,0.211-1.139,0.317-1.793,0.317h-3.312v-8.676h3.312
			c0.654,0,1.254,0.106,1.793,0.321c0.541,0.213,1.002,0.512,1.387,0.894c0.383,0.382,0.682,0.839,0.893,1.371
			C132.842,222.447,132.947,223.031,132.947,223.667z M131.297,223.667c0-0.476-0.062-0.903-0.191-1.281
			c-0.127-0.378-0.311-0.698-0.545-0.96c-0.236-0.262-0.523-0.463-0.861-0.604c-0.338-0.139-0.719-0.209-1.143-0.209h-1.688v6.107
			h1.688c0.424,0,0.805-0.07,1.143-0.21s0.625-0.341,0.861-0.603c0.234-0.262,0.418-0.582,0.545-0.961
			C131.234,224.57,131.297,224.143,131.297,223.667z"/>
		<path fill="#F7F7F7" d="M139.686,219.329v1.284h-3.846v2.406h3.031v1.241h-3.031v2.454h3.846v1.29h-5.471v-8.676H139.686z"/>
	</g>
</g>
<g id="Layer_5">
</g>
</svg>
