<?xml version="1.0" encoding="utf-8"?>
<!-- Generator: Adobe Illustrator 15.1.0, SVG Export Plug-In . SVG Version: 6.00 Build 0)  -->
<!DOCTYPE svg PUBLIC "-//W3C//DTD SVG 1.1//EN" "http://www.w3.org/Graphics/SVG/1.1/DTD/svg11.dtd">
<svg version="1.1" xmlns="http://www.w3.org/2000/svg" xmlns:xlink="http://www.w3.org/1999/xlink" x="0px" y="0px" width="218px"
	 height="250px" viewBox="0 0 218 250" enable-background="new 0 0 218 250" xml:space="preserve">
<g id="Layer_1">
	<g id="Layer_4">
		<path fill="#7FAAB5" d="M15.662,81.821c0,0,37.343-2.636,59.088-2.259s61.045,3.517,71.277,3.301
			c10.231-0.216,39.307-0.87,39.307-0.87s-3.885,13.769-4.455,16.75c-0.57,2.981-1.219,18.818-1.219,18.818s0.717,5.973-8.973,9.83
			c-9.688,3.857-6.682,11.771-4.377,15.062c2.306,3.291,9.225,16.14,4.914,21.548c-4.31,5.408-4.559,7.665-4.559,7.665
			s-0.236,5.081-4.702,8.832c-4.465,3.751-3.791,7.595-2.493,12.641c1.297,5.045,3.815,12.229-1.354,18.082
			c-5.171,5.854-7.479,11.026-10.935,16.713c-3.457,5.686-5.328,10.144-5.328,10.144s-7.693,5.711-19.367,4.03
			c-11.672-1.68-12.701-2.988-18.844-1.174c-6.143,1.815-11.778-0.279-18.335-2.856s-10.973-10.743-10.973-10.743l-6.667-0.667
			c0,0-2.363-6.927-4.515-9.797c-2.152-2.87-4.6-7.283-7.059-12.479c-2.459-5.197-6.801-12.045-9.635-14.343
			S46.25,183,45.125,176.75S45.25,166.375,44.25,165s-3.658-4.73-3.267-7.74s-2.154-5.246-4.983-9.593S25.692,131.375,26.159,124
			c0.467-7.375,4.091-15.875,2.841-18s-6.375-2.98-9.625-8.178c-3.25-5.198-5.083-12.447-4.042-14.822"/>
		<path fill="#799FAD" d="M148.473,220.396c-6.889,3.364-13.106,7.848-20.779,9.326c-8.856,1.707-13.254-3.858-19.92-8.275
			c-7.107-4.711-11.92-10.83-17.89-16.741c-6.133,0.555-11.755-1.299-15.518-8.185c-2.441-4.467-4.762-9.244-6.297-14.109
			c-1.485-4.706-1.916-9.531-3.034-14.312c-0.918-3.929-3.139-6.482-2.231-10.687c0.847-3.919,5.788-6.154,5.947-10.163
			c0.025-0.643,0.152-1.217,0.352-1.73c0.073-5.146-0.349-10.201-2.851-14.943c-2.075-3.936-4.803-7.775-5.745-12.207
			c-0.722-3.394-0.153-7.598-1.477-10.845c-0.375-0.608-0.634-1.254-0.85-1.944c-0.007-0.021-0.01-0.042-0.016-0.062
			c-3.03-4.625-13.936-2.853-18.485-3.585c-2.163-0.349-4.013-0.94-5.891-2.098c-1.946-1.2-2.833-3.956-4.84-4.908
			c-2.313-1.097-4.696-1.785-6.732-3.39c-1.913-1.508-2.667-3.498-4.25-5.25c-0.826-0.915-1.231-1.914-1.322-2.899
			c-0.833,0.071-1.309,0.113-1.309,0.113V83c-1.042,2.375,0.792,9.625,4.042,14.822c3.25,5.197,8.374,6.053,9.624,8.178
			s-2.375,10.625-2.841,18c-0.466,7.375,7.013,19.32,9.842,23.667s5.375,6.583,4.983,9.593s2.267,6.365,3.267,7.74
			s-0.25,5.5,0.875,11.75s-1.5,11,1.333,13.298s7.175,9.146,9.635,14.343c2.46,5.196,4.906,9.609,7.058,12.479
			c2.152,2.87,4.515,9.797,4.515,9.797l6.667,0.667c0,0,4.416,8.166,10.973,10.743c6.557,2.577,12.193,4.673,18.335,2.856
			c6.142-1.815,7.172-0.506,18.844,1.174c11.674,1.681,19.367-4.03,19.367-4.03s1.873-4.458,5.328-10.144
			c1.952-3.216,3.541-6.267,5.485-9.369C151.246,219.119,149.844,219.729,148.473,220.396z"/>
		<path fill="#FFFFFF" d="M16.333,82.333c0,0,48.833-3.003,63.333-2.418s45.167,3.252,60.833,3.252s45.293-1.382,45.293-1.382
			s-0.966-4.605-8.911-9.625s-10.84-5.332-17.697-6.537c-6.858-1.205-12.526-0.955-13.021-8.122S150.167,48.167,149,41
			c0,0-4.342-3.159-10.829-3.08s-15.885,2.075-20.688,2.017c-4.803-0.058-13.63-0.653-13.63-0.653s-7.865,2.77-15.014,4.396
			S64.333,48,61.333,50s-1.5,3.833-7.667,9s-7.833,7.167-14.833,11.333S16.333,82.333,16.333,82.333z"/>
		<path fill="#F7F7F7" d="M176.882,72.16c-7.944-5.02-10.84-5.332-17.698-6.537c-6.857-1.205-12.525-0.955-13.021-8.122
			S150.167,48.167,149,41c0,0-0.119-0.084-0.325-0.216c-0.351,0.213-0.739,0.396-1.179,0.537c-0.148,0.048-0.294,0.114-0.441,0.167
			c-0.565,0.903-1.459,1.678-2.726,2.166c-0.497,0.192-1.001,0.358-1.503,0.532c-0.284,0.227-0.602,0.44-0.971,0.631
			c-2.332,1.206-4.76,2.109-7.225,2.919c-0.586,0.708-1.451,1.273-2.636,1.584c-10.492,2.759-19.943,7.798-30.006,11.683
			c-9.996,3.858-20.557,7-30.95,9.604c-10.467,2.623-20.95,4.128-31.054,7.993c-3.418,1.308-6.862,2.298-10.338,2.97
			c15.55-0.846,40.376-2.044,50.02-1.655c14.5,0.585,45.167,3.252,60.833,3.252s44.704-1.346,44.704-1.346
			C185.577,83.49,180.258,74.292,176.882,72.16z"/>
	</g>
	<path fill="none" stroke="#E5E5E5" stroke-width="2" stroke-miterlimit="10" d="M149.667,40.999c-6.333,5-20,8.333-27.667,11.333
		c-8,3-16.667,7.333-24.667,10.333C79,69.667,53.667,74,34.667,79.333C29.333,81,21.329,80.833,15.662,81.5"/>
	<g id="Layer_3">
		<path fill="none" stroke="#557784" stroke-width="2" stroke-miterlimit="10" d="M149,41c2.334,7.667-8,14,0.334,21.667
			c4.666,4.333,15,2,20,4.667c4,2,15.203,10.154,15.87,14.488"/>
		<path fill="none" stroke="#6C8D9E" stroke-width="2" stroke-miterlimit="10" d="M15.662,82.634C15.704,84.946,17,92.667,18,95.333
			c0.667,1.333,3.667,3.667,4.667,5c1.333,2,4,3,5,4.667c4,5.333-2.667,14-1.333,20.667c1.333,8,5,15.333,9.667,22
			c3.333,4.667,5,4,5,10.667c0,4,4.333,5.333,3.333,9.333c-1,5,0.333,6.667,1,11.667c0.333,2.333-0.333,4.666,0,7.333
			c0.333,4.333,1.667,3,4.333,6.333C55.334,200.334,56,206,61,214c1.333,2,2.667,3.334,3.667,5c1,1.667,2,6.667,3,7.667
			c1.667,1,4.667-0.333,6.667,0.667c2.667,1.333,2.333,4.333,4.667,6.333c6.333,5.333,12,7.667,19.333,7.667
			c7,0,7.333-1.667,14.667-0.667c7,1,13,2.667,20,1c1,0,5-1.333,6-2c3.333-1.667,2.333-0.333,3.666-3.667
			c1.667-4.666,6-9.333,7.667-14c2.667-8.666,13-11.333,11-21.333c-1-5-2.667-8.667-2.667-14s9-9.333,8-15
			c-0.666-5,6.667-7.333,6.667-12c0-3.667-2.333-9.333-4-12.667c-3.333-6.333-8.333-8-4-15.333c3-4.333,10.333-5.667,12.667-9.667
			c4.333-7.667,0.333-16.667,3.333-24.667c1.333-3.667,3.536-11.179,3.87-15.512"/>
		<g>
			<g>
				<path fill="#6C8D9E" d="M15.869,83.936c2.382,3.618,2.545,7.647,6.624,9.88c2.557,1.4,4.948,1.906,7.093,4.117
					c1.125,1.16,2.408,2.314,3.851,3.065c4.03,2.098,8.713,2.069,13.147,2.393c3.623,0.265,7.872,0.801,10.287,3.809
					c1.72,2.143,1.041,6.002,1.104,8.552c0.108,4.3,2.378,7.725,4.782,11.139c4.055,5.754,4.524,10.303,4.223,17.27
					c-0.155,3.59-0.802,6.201-2.859,9.184c-1.309,1.897-2.556,3.58-3.301,5.776c-1.17,3.452,2.854,8.845,3.638,12.215
					c2.396,10.287,3.95,19.969,10.518,28.511c2.119,2.756,4.843,5.312,8.223,6.336c1.514,0.457,3.194,0.366,4.754,0.312
					c3.787-0.129,6.614,4.693,8.825,7.289c3.722,4.369,8.008,7.648,12.848,10.712c4.038,2.555,8.153,6.257,12.983,7.026
					c4.135,0.658,8.802-2.287,12.742-3.157c2.15-0.476,4.086-1.003,6.062-1.989c3.304-1.648,5.313-4.543,9.024-5.672
					c1.183-0.36,0.816-1.768-0.377-1.404c-4.814,1.465-7.886,5.692-12.72,7.125c-6.126,1.816-13.312,5.241-19.104,1.499
					c-4.68-3.022-9.52-5.877-13.94-9.276c-4.708-3.619-7.562-9.084-12.209-12.698c-2.324-1.808-6.068-0.604-8.68-1.396
					c-4.667-1.413-8.068-7.155-10.359-11.094c-5.312-9.13-5.333-20.476-9.432-30.172c-2.222-5.259,2.165-8.644,4.34-12.992
					c1.98-3.961,1.526-10.622,1.082-14.919c-0.41-3.954-3.074-7.305-5.275-10.427c-1.536-2.18-2.902-4.47-3.568-7.072
					c-0.601-2.347-0.128-4.858-0.351-7.242c-0.922-9.876-13.212-8.479-20.484-9.424c-5.396-0.702-7.184-5.056-11.697-7.03
					c-2.756-1.205-5.407-1.92-7.01-4.682c-1.197-2.062-1.705-4.431-3.023-6.434C17.121,82.289,15.291,83.059,15.869,83.936
					L15.869,83.936z"/>
			</g>
		</g>
	</g>
	<path fill="none" stroke="#557784" stroke-width="2" stroke-miterlimit="10" d="M15.942,82.594C15.546,79.886,20.145,79.285,27,77
		c4.667-1.667,9-4.333,13.333-7.667C44,66.333,50,63.333,53,60c1.333-1.667,3.667-2.667,5-4.333c1.667-2.333,1.333-4,3.333-5.667
		c5.333-4,18.333-3.667,25-5.667c4.333-1,10.667-3.333,15-4.667c4-1,8.333,0,12.667,0.333s11-1.333,15-1.667
		c6-1,16.25-0.667,21.25,2.667"/>
</g>
<g id="Layer_2">
	<g>
		<path fill="#557784" d="M104.001,75.5h-1.248c-0.14,0-0.255-0.035-0.345-0.105c-0.09-0.07-0.155-0.157-0.195-0.261l-0.648-1.77
			h-3.594l-0.648,1.77c-0.032,0.092-0.095,0.176-0.189,0.252c-0.094,0.076-0.209,0.114-0.345,0.114h-1.254l3.408-8.676h1.65
			L104.001,75.5z M98.386,72.225h2.766l-1.056-2.886c-0.048-0.128-0.101-0.279-0.159-0.453c-0.058-0.174-0.115-0.363-0.171-0.567
			c-0.056,0.204-0.111,0.394-0.165,0.57c-0.054,0.176-0.107,0.33-0.159,0.462L98.386,72.225z"/>
		<path fill="#557784" d="M106.563,72.11v3.39h-1.614v-8.676h2.646c0.592,0,1.099,0.061,1.521,0.183
			c0.422,0.122,0.769,0.293,1.038,0.513c0.271,0.22,0.468,0.483,0.594,0.789c0.127,0.306,0.189,0.643,0.189,1.011
			c0,0.292-0.043,0.568-0.129,0.828c-0.086,0.26-0.21,0.496-0.372,0.708s-0.362,0.398-0.6,0.558c-0.238,0.16-0.51,0.288-0.813,0.384
			c0.204,0.116,0.38,0.282,0.528,0.498l2.172,3.204h-1.452c-0.14,0-0.259-0.028-0.357-0.084c-0.098-0.056-0.181-0.136-0.248-0.24
			l-1.824-2.778c-0.068-0.104-0.144-0.178-0.226-0.222c-0.082-0.044-0.203-0.066-0.362-0.066H106.563z M106.563,70.953h1.008
			c0.304,0,0.569-0.038,0.795-0.114c0.227-0.076,0.412-0.181,0.559-0.315c0.146-0.134,0.255-0.293,0.327-0.477
			c0.071-0.184,0.107-0.386,0.107-0.606c0-0.44-0.145-0.778-0.435-1.014c-0.29-0.236-0.733-0.354-1.329-0.354h-1.032V70.953z"/>
		<path fill="#557784" d="M118.533,66.825v1.326h-2.61v7.35h-1.614v-7.35h-2.622v-1.326H118.533z"/>
		<path fill="#557784" d="M121.378,75.5h-1.62v-8.676h1.62V75.5z"/>
		<path fill="#557784" d="M129.291,73.455c0.088,0,0.164,0.034,0.229,0.102l0.636,0.69c-0.353,0.436-0.785,0.77-1.299,1.002
			c-0.515,0.232-1.131,0.348-1.852,0.348c-0.644,0-1.223-0.11-1.736-0.33c-0.515-0.22-0.953-0.526-1.317-0.918
			s-0.643-0.86-0.837-1.404s-0.291-1.138-0.291-1.782c0-0.652,0.108-1.249,0.324-1.791s0.52-1.009,0.912-1.401
			c0.392-0.392,0.86-0.697,1.406-0.915c0.546-0.218,1.149-0.327,1.81-0.327c0.644,0,1.207,0.103,1.688,0.309
			c0.482,0.206,0.896,0.479,1.239,0.819l-0.54,0.75c-0.032,0.048-0.073,0.09-0.123,0.126s-0.119,0.054-0.207,0.054
			c-0.092,0-0.186-0.036-0.282-0.108c-0.096-0.072-0.218-0.15-0.365-0.234c-0.148-0.084-0.335-0.162-0.562-0.234
			c-0.226-0.072-0.513-0.108-0.861-0.108c-0.407,0-0.782,0.071-1.125,0.213c-0.342,0.142-0.636,0.345-0.882,0.609
			c-0.246,0.264-0.438,0.585-0.576,0.963c-0.138,0.378-0.206,0.803-0.206,1.275c0,0.488,0.068,0.922,0.206,1.302
			c0.139,0.38,0.325,0.7,0.562,0.96c0.236,0.26,0.514,0.459,0.834,0.597s0.664,0.207,1.032,0.207c0.22,0,0.419-0.012,0.597-0.036
			s0.342-0.062,0.492-0.114c0.149-0.052,0.292-0.119,0.426-0.201s0.268-0.183,0.399-0.303c0.04-0.036,0.082-0.065,0.126-0.087
			S129.239,73.455,129.291,73.455z"/>
		<path fill="#557784" d="M132.987,74.168h3.474V75.5h-5.088v-8.676h1.614V74.168z"/>
		<path fill="#557784" d="M143.049,66.825v1.284h-3.846v2.406h3.03v1.242h-3.03v2.454h3.846v1.29h-5.472v-8.676H143.049z"/>
	</g>
	<g>
		<path fill="#F7F7F7" d="M95.701,98.532c0.312,0,0.591-0.052,0.837-0.156s0.454-0.25,0.624-0.438s0.3-0.416,0.39-0.684
			c0.09-0.268,0.135-0.568,0.135-0.9v-5.196h1.614v5.196c0,0.516-0.083,0.993-0.249,1.431c-0.167,0.438-0.405,0.816-0.717,1.134
			s-0.69,0.566-1.134,0.744c-0.444,0.178-0.944,0.267-1.5,0.267c-0.556,0-1.056-0.089-1.5-0.267
			c-0.444-0.178-0.821-0.426-1.131-0.744s-0.548-0.696-0.714-1.134s-0.249-0.915-0.249-1.431v-5.196h1.614v5.19
			c0,0.332,0.045,0.632,0.135,0.9s0.219,0.497,0.387,0.687s0.375,0.337,0.621,0.441C95.11,98.48,95.389,98.532,95.701,98.532z"/>
		<path fill="#F7F7F7" d="M102.613,96.78v3.054h-1.614v-8.676h2.826c0.58,0,1.082,0.068,1.506,0.204
			c0.424,0.136,0.774,0.326,1.05,0.57c0.276,0.244,0.48,0.536,0.612,0.876s0.198,0.712,0.198,1.116c0,0.42-0.07,0.805-0.21,1.155
			c-0.141,0.35-0.351,0.651-0.63,0.903c-0.28,0.252-0.63,0.448-1.05,0.588c-0.421,0.14-0.912,0.21-1.477,0.21H102.613z
			 M102.613,95.52h1.212c0.296,0,0.554-0.037,0.774-0.111c0.22-0.074,0.401-0.18,0.546-0.318c0.144-0.138,0.252-0.306,0.324-0.504
			c0.071-0.198,0.107-0.419,0.107-0.663c0-0.232-0.036-0.442-0.107-0.63c-0.072-0.188-0.181-0.348-0.324-0.48
			c-0.145-0.132-0.326-0.233-0.546-0.303c-0.221-0.07-0.479-0.105-0.774-0.105h-1.212V95.52z"/>
		<path fill="#F7F7F7" d="M112.43,98.646c0.363,0,0.68-0.033,0.949-0.099c0.271-0.066,0.527-0.157,0.771-0.273v-1.578h-1.086
			c-0.104,0-0.186-0.029-0.246-0.087c-0.059-0.058-0.09-0.129-0.09-0.213v-0.912h2.887v3.51c-0.221,0.16-0.449,0.299-0.688,0.417
			c-0.238,0.118-0.492,0.215-0.762,0.291c-0.27,0.076-0.559,0.133-0.867,0.171s-0.641,0.057-0.996,0.057
			c-0.633,0-1.215-0.11-1.746-0.33c-0.531-0.22-0.992-0.526-1.379-0.918c-0.389-0.392-0.691-0.86-0.909-1.404
			c-0.219-0.544-0.327-1.138-0.327-1.782c0-0.652,0.105-1.25,0.318-1.794c0.212-0.544,0.513-1.012,0.902-1.404
			c0.391-0.392,0.864-0.696,1.418-0.912c0.557-0.216,1.182-0.324,1.873-0.324c0.707,0,1.32,0.105,1.838,0.315
			c0.52,0.21,0.957,0.483,1.318,0.819l-0.469,0.732c-0.092,0.148-0.213,0.222-0.365,0.222c-0.096,0-0.195-0.032-0.295-0.096
			c-0.127-0.076-0.258-0.152-0.393-0.228c-0.135-0.076-0.281-0.142-0.443-0.198s-0.346-0.102-0.547-0.138
			c-0.201-0.036-0.436-0.054-0.699-0.054c-0.428,0-0.814,0.072-1.16,0.216s-0.641,0.35-0.885,0.618s-0.434,0.59-0.564,0.966
			c-0.133,0.376-0.197,0.796-0.197,1.26c0,0.5,0.068,0.945,0.209,1.335s0.336,0.719,0.588,0.987s0.553,0.473,0.9,0.615
			S112.018,98.646,112.43,98.646z"/>
		<path fill="#F7F7F7" d="M118.789,96.444v3.39h-1.615v-8.676h2.646c0.592,0,1.1,0.061,1.521,0.183
			c0.422,0.122,0.768,0.293,1.037,0.513c0.271,0.22,0.469,0.483,0.594,0.789c0.127,0.306,0.189,0.643,0.189,1.011
			c0,0.292-0.043,0.568-0.129,0.828c-0.086,0.26-0.209,0.496-0.371,0.708s-0.363,0.398-0.6,0.558
			c-0.238,0.16-0.51,0.288-0.814,0.384c0.205,0.116,0.381,0.282,0.529,0.498l2.172,3.204h-1.453c-0.139,0-0.258-0.028-0.357-0.084
			c-0.098-0.056-0.18-0.136-0.248-0.24l-1.824-2.778c-0.068-0.104-0.143-0.178-0.225-0.222c-0.082-0.044-0.203-0.066-0.363-0.066
			H118.789z M118.789,95.286h1.008c0.303,0,0.568-0.038,0.795-0.114c0.227-0.076,0.412-0.181,0.559-0.315
			c0.145-0.134,0.254-0.293,0.326-0.477c0.072-0.184,0.107-0.386,0.107-0.606c0-0.44-0.145-0.778-0.434-1.014
			c-0.291-0.236-0.734-0.354-1.33-0.354h-1.031V95.286z"/>
		<path fill="#F7F7F7" d="M132.607,99.834h-1.248c-0.141,0-0.256-0.035-0.346-0.105s-0.154-0.157-0.195-0.261l-0.646-1.77h-3.596
			l-0.646,1.77c-0.033,0.092-0.096,0.176-0.189,0.252c-0.094,0.076-0.209,0.114-0.346,0.114h-1.254l3.408-8.676h1.65L132.607,99.834
			z M126.99,96.558h2.768l-1.057-2.886c-0.049-0.128-0.102-0.279-0.16-0.453c-0.057-0.174-0.113-0.363-0.17-0.567
			c-0.057,0.204-0.111,0.394-0.166,0.57c-0.053,0.176-0.105,0.33-0.158,0.462L126.99,96.558z"/>
		<path fill="#F7F7F7" d="M141.205,95.496c0,0.636-0.107,1.22-0.318,1.752c-0.213,0.532-0.51,0.99-0.895,1.374
			c-0.383,0.384-0.846,0.682-1.385,0.894c-0.541,0.212-1.139,0.318-1.795,0.318H133.5v-8.676h3.312c0.656,0,1.254,0.107,1.795,0.321
			c0.539,0.214,1.002,0.512,1.385,0.894c0.385,0.382,0.682,0.839,0.895,1.371C141.098,94.276,141.205,94.86,141.205,95.496z
			 M139.555,95.496c0-0.476-0.064-0.903-0.191-1.281c-0.129-0.378-0.311-0.698-0.547-0.96c-0.236-0.262-0.523-0.463-0.861-0.603
			c-0.338-0.14-0.719-0.21-1.143-0.21h-1.686v6.108h1.686c0.424,0,0.805-0.07,1.143-0.21c0.338-0.14,0.625-0.341,0.861-0.603
			c0.236-0.262,0.418-0.582,0.547-0.96C139.49,96.399,139.555,95.972,139.555,95.496z"/>
		<path fill="#F7F7F7" d="M147.943,91.158v1.284h-3.846v2.406h3.029v1.242h-3.029v2.454h3.846v1.29h-5.473v-8.676H147.943z"/>
	</g>
</g>
</svg>
