<?xml version="1.0" encoding="utf-8"?>
<!-- Generator: Adobe Illustrator 15.1.0, SVG Export Plug-In . SVG Version: 6.00 Build 0)  -->
<!DOCTYPE svg PUBLIC "-//W3C//DTD SVG 1.1//EN" "http://www.w3.org/Graphics/SVG/1.1/DTD/svg11.dtd">
<svg version="1.1" xmlns="http://www.w3.org/2000/svg" xmlns:xlink="http://www.w3.org/1999/xlink" x="0px" y="0px" width="218px"
	 height="250px" viewBox="0 0 218 250" enable-background="new 0 0 218 250" xml:space="preserve">
<g id="Layer_4">
	<path fill="#7FAAB5" d="M15.662,81.821c0,0,37.343-2.636,59.088-2.259s61.045,3.517,71.277,3.301s39.307-0.87,39.307-0.87
		s-3.885,13.769-4.455,16.75s-1.219,18.818-1.219,18.818s0.717,5.973-8.972,9.83s-6.682,11.771-4.377,15.062
		s9.224,16.14,4.914,21.548s-4.559,7.665-4.559,7.665s-0.237,5.081-4.702,8.832s-3.791,7.595-2.494,12.64s3.816,12.229-1.354,18.083
		s-7.479,11.026-10.935,16.712s-5.327,10.144-5.327,10.144s-7.694,5.711-19.367,4.031s-12.702-2.989-18.845-1.174
		s-11.778-0.28-18.335-2.857s-10.973-10.743-10.973-10.743l-6.667-0.667c0,0-2.363-6.927-4.515-9.797s-4.6-7.283-7.059-12.48
		s-6.801-12.044-9.635-14.342S46.25,183,45.125,176.75S45.25,166.375,44.25,165s-3.658-4.73-3.267-7.74s-2.154-5.247-4.983-9.593
		S25.692,131.375,26.159,124S30.25,108.125,29,106s-6.375-2.98-9.625-8.178S14.292,85.375,15.333,83"/>
	<path fill="#799FAD" d="M148.473,220.397c-6.889,3.364-13.107,7.847-20.78,9.325c-8.856,1.708-13.253-3.858-19.92-8.275
		c-7.107-4.71-11.92-10.83-17.89-16.741c-6.133,0.555-11.755-1.299-15.518-8.185c-2.441-4.467-4.762-9.243-6.297-14.109
		c-1.485-4.706-1.916-9.531-3.034-14.313c-0.918-3.928-3.139-6.482-2.231-10.686c0.847-3.919,5.788-6.154,5.947-10.163
		c0.025-0.642,0.152-1.217,0.352-1.73c0.073-5.147-0.349-10.201-2.851-14.944c-2.075-3.935-4.803-7.775-5.745-12.207
		c-0.722-3.394-0.153-7.598-1.477-10.845c-0.375-0.608-0.634-1.254-0.85-1.944c-0.007-0.021-0.01-0.042-0.016-0.062
		c-3.03-4.625-13.936-2.853-18.485-3.585c-2.163-0.349-4.013-0.94-5.891-2.098c-1.946-1.2-2.833-3.956-4.84-4.908
		c-2.313-1.097-4.696-1.785-6.732-3.39c-1.913-1.508-2.667-3.498-4.25-5.25c-0.826-0.915-1.231-1.914-1.322-2.899
		c-0.833,0.071-1.309,0.113-1.309,0.113V83c-1.042,2.375,0.792,9.625,4.042,14.822S27.75,103.875,29,106s-2.375,10.625-2.841,18
		s7.013,19.321,9.842,23.667s5.375,6.583,4.983,9.593s2.267,6.365,3.267,7.74s-0.25,5.5,0.875,11.75s-1.5,11,1.333,13.298
		s7.175,9.145,9.635,14.342S61,214,63.152,216.87s4.515,9.797,4.515,9.797l6.667,0.667c0,0,4.416,8.166,10.973,10.743
		s12.193,4.673,18.335,2.857s7.172-0.506,18.845,1.174s19.367-4.031,19.367-4.031s1.872-4.458,5.327-10.144
		c1.953-3.215,3.541-6.266,5.486-9.368C151.246,219.119,149.844,219.728,148.473,220.397z"/>
	<path fill="#FFFFFF" d="M16.333,82.333c0,0,48.833-3.003,63.333-2.418s45.167,3.252,60.833,3.252s45.293-1.382,45.293-1.382
		s-0.966-4.605-8.911-9.625s-10.84-5.332-17.698-6.537s-12.526-0.955-13.021-8.122S150.167,48.167,149,41
		c0,0-4.342-3.159-10.829-3.08s-15.885,2.075-20.688,2.017s-13.631-0.653-13.631-0.653s-7.865,2.77-15.014,4.396
		S64.333,48,61.333,50s-1.5,3.833-7.667,9s-7.833,7.167-14.833,11.333S16.333,82.333,16.333,82.333z"/>
	<path fill="#F7F7F7" d="M176.882,72.16c-7.945-5.02-10.84-5.332-17.698-6.537s-12.526-0.955-13.021-8.122S150.167,48.167,149,41
		c0,0-0.119-0.084-0.325-0.216c-0.351,0.213-0.739,0.396-1.179,0.537c-0.149,0.048-0.294,0.114-0.441,0.167
		c-0.566,0.903-1.46,1.678-2.726,2.166c-0.497,0.192-1.001,0.358-1.503,0.532c-0.284,0.227-0.601,0.44-0.97,0.631
		c-2.333,1.206-4.761,2.109-7.225,2.919c-0.586,0.708-1.452,1.273-2.636,1.584c-10.492,2.759-19.943,7.798-30.006,11.683
		c-9.996,3.858-20.557,7-30.95,9.604C60.572,73.23,50.089,74.735,39.985,78.6c-3.418,1.308-6.862,2.298-10.338,2.97
		c15.55-0.846,40.376-2.044,50.02-1.655c14.5,0.585,45.167,3.252,60.833,3.252s44.704-1.346,44.704-1.346
		C185.577,83.49,180.258,74.292,176.882,72.16z"/>
</g>
<g id="Layer_3">
	<path fill="none" stroke="#E5E5E5" stroke-width="2" stroke-miterlimit="10" d="M149,41c2.334,7.667-8,14,0.334,21.667
		c4.666,4.333,15,2,20,4.667c4,2,15.203,10.154,15.87,14.488"/>
	<path fill="none" stroke="#6C8D9E" stroke-width="2" stroke-miterlimit="10" d="M15.662,82.634C15.704,84.946,17,92.667,18,95.333
		c0.667,1.333,3.667,3.667,4.667,5c1.333,2,4,3,5,4.667c4,5.333-2.667,14-1.333,20.667c1.333,8,5,15.333,9.667,22
		c3.333,4.667,5,4,5,10.667c0,4,4.333,5.333,3.333,9.333c-1,5,0.333,6.667,1,11.667c0.333,2.333-0.333,4.666,0,7.333
		c0.333,4.333,1.667,3,4.333,6.333C55.334,200.334,56,206,61,214c1.333,2,2.667,3.334,3.667,5c1,1.667,2,6.667,3,7.667
		c1.667,1,4.667-0.333,6.667,0.667c2.667,1.333,2.333,4.333,4.667,6.333c6.333,5.333,12,7.667,19.333,7.667
		c7,0,7.333-1.667,14.667-0.667c7,1,13,2.667,20,1c1,0,5-1.333,6-2c3.333-1.667,2.333-0.333,3.666-3.667
		c1.667-4.666,6-9.333,7.667-14c2.667-8.666,13-11.333,11-21.333c-1-5-2.667-8.667-2.667-14s9-9.333,8-15
		c-0.666-5,6.667-7.333,6.667-12c0-3.667-2.333-9.333-4-12.667c-3.333-6.333-8.333-8-4-15.333c3-4.333,10.333-5.667,12.667-9.667
		c4.333-7.667,0.333-16.667,3.333-24.667c1.333-3.667,3.536-11.179,3.87-15.512"/>
	<g>
		<g>
			<path fill="#6C8D9E" d="M15.869,83.936c2.382,3.618,2.545,7.647,6.624,9.88c2.557,1.4,4.948,1.906,7.093,4.117
				c1.125,1.16,2.408,2.314,3.851,3.065c4.03,2.098,8.713,2.069,13.147,2.393c3.623,0.265,7.872,0.801,10.287,3.809
				c1.72,2.143,1.041,6.002,1.104,8.552c0.108,4.3,2.378,7.725,4.782,11.138c4.055,5.755,4.524,10.304,4.223,17.27
				c-0.155,3.59-0.802,6.201-2.859,9.184c-1.309,1.897-2.556,3.58-3.301,5.776c-1.17,3.452,2.854,8.845,3.638,12.215
				c2.396,10.287,3.95,19.969,10.518,28.511c2.119,2.756,4.843,5.312,8.223,6.335c1.514,0.458,3.194,0.367,4.754,0.313
				c3.787-0.129,6.614,4.693,8.825,7.289c3.722,4.37,8.008,7.648,12.848,10.712c4.038,2.555,8.153,6.257,12.984,7.026
				c4.134,0.659,8.801-2.287,12.741-3.157c2.151-0.476,4.086-1.003,6.062-1.989c3.304-1.648,5.313-4.543,9.024-5.672
				c1.183-0.36,0.817-1.768-0.377-1.404c-4.814,1.465-7.885,5.692-12.719,7.125c-6.126,1.816-13.311,5.241-19.104,1.499
				c-4.681-3.023-9.52-5.877-13.941-9.276c-4.708-3.62-7.562-9.085-12.209-12.699c-2.324-1.808-6.068-0.604-8.68-1.396
				c-4.667-1.413-8.068-7.156-10.359-11.094c-5.312-9.13-5.333-20.475-9.432-30.172c-2.222-5.258,2.165-8.643,4.34-12.992
				c1.98-3.961,1.526-10.622,1.082-14.919c-0.41-3.954-3.074-7.304-5.275-10.427c-1.536-2.18-2.902-4.47-3.568-7.072
				c-0.601-2.347-0.128-4.858-0.351-7.242c-0.922-9.876-13.212-8.479-20.484-9.424c-5.396-0.702-7.184-5.056-11.697-7.03
				c-2.756-1.205-5.407-1.92-7.01-4.682c-1.197-2.062-1.705-4.431-3.023-6.434C17.121,82.289,15.291,83.059,15.869,83.936
				L15.869,83.936z"/>
		</g>
	</g>
	<path fill="none" stroke="#E5E5E5" stroke-width="2" stroke-miterlimit="10" d="M15.942,82.594C15.546,79.886,20.145,79.285,27,77
		c4.667-1.667,9-4.333,13.333-7.667C44,66.333,50,63.333,53,60c1.333-1.667,3.667-2.667,5-4.333c1.667-2.333,1.333-4,3.333-5.667
		c5.333-4,18.333-3.667,25-5.667c4.333-1,10.667-3.333,15-4.667c4-1,8.333,0,12.667,0.333c4.334,0.333,11-1.333,15-1.667
		c6-1,15.667-0.667,20.667,2.667c-6.333,5-20,8.333-27.667,11.333c-8,3-16.667,7.333-24.667,10.333
		C79,69.667,53.667,74,34.667,79.333C29.333,81,21.329,80.833,15.662,81.5"/>
</g>
</svg>
