<?xml version="1.0" encoding="utf-8"?>
<!-- Generator: Adobe Illustrator 15.1.0, SVG Export Plug-In . SVG Version: 6.00 Build 0)  -->
<!DOCTYPE svg PUBLIC "-//W3C//DTD SVG 1.1//EN" "http://www.w3.org/Graphics/SVG/1.1/DTD/svg11.dtd">
<svg version="1.1" xmlns="http://www.w3.org/2000/svg" xmlns:xlink="http://www.w3.org/1999/xlink" x="0px" y="0px" width="218px"
	 height="250px" viewBox="0 0 218 250" enable-background="new 0 0 218 250" xml:space="preserve">
<g id="Layer_1">
	<g id="Layer_4">
		<path fill="#7FAAB5" d="M15.662,81.821c0,0,37.343-2.636,59.088-2.259s61.045,3.517,71.277,3.301
			c10.231-0.216,39.307-0.87,39.307-0.87s-3.885,13.769-4.455,16.75c-0.57,2.981-1.219,18.818-1.219,18.818s0.717,5.973-8.973,9.83
			c-9.688,3.857-6.682,11.771-4.377,15.062c2.306,3.291,9.225,16.14,4.914,21.548c-4.31,5.408-4.559,7.665-4.559,7.665
			s-0.236,5.081-4.702,8.832c-4.465,3.751-3.791,7.595-2.493,12.641c1.297,5.045,3.815,12.229-1.354,18.082
			c-5.171,5.854-7.479,11.026-10.935,16.713c-3.457,5.686-5.328,10.144-5.328,10.144s-7.693,5.711-19.367,4.03
			c-11.672-1.68-12.701-2.988-18.844-1.174c-6.143,1.815-11.778-0.279-18.335-2.856s-10.973-10.743-10.973-10.743l-6.667-0.667
			c0,0-2.363-6.927-4.515-9.797c-2.152-2.87-4.6-7.283-7.059-12.479c-2.459-5.197-6.801-12.045-9.635-14.343
			S46.25,183,45.125,176.75S45.25,166.375,44.25,165s-3.658-4.73-3.267-7.74s-2.154-5.246-4.983-9.593S25.692,131.375,26.159,124
			c0.467-7.375,4.091-15.875,2.841-18s-6.375-2.98-9.625-8.178c-3.25-5.198-5.083-12.447-4.042-14.822"/>
		<path fill="#799FAD" d="M148.473,220.396c-6.889,3.364-13.106,7.848-20.779,9.326c-8.856,1.707-13.254-3.858-19.92-8.275
			c-7.107-4.711-11.92-10.83-17.89-16.741c-6.133,0.555-11.755-1.299-15.518-8.185c-2.441-4.467-4.762-9.244-6.297-14.109
			c-1.485-4.706-1.916-9.531-3.034-14.312c-0.918-3.929-3.139-6.482-2.231-10.687c0.847-3.919,5.788-6.154,5.947-10.163
			c0.025-0.643,0.152-1.217,0.352-1.73c0.073-5.146-0.349-10.201-2.851-14.943c-2.075-3.936-4.803-7.775-5.745-12.207
			c-0.722-3.394-0.153-7.598-1.477-10.845c-0.375-0.608-0.634-1.254-0.85-1.944c-0.007-0.021-0.01-0.042-0.016-0.062
			c-3.03-4.625-13.936-2.853-18.485-3.585c-2.163-0.349-4.013-0.94-5.891-2.098c-1.946-1.2-2.833-3.956-4.84-4.908
			c-2.313-1.097-4.696-1.785-6.732-3.39c-1.913-1.508-2.667-3.498-4.25-5.25c-0.826-0.915-1.231-1.914-1.322-2.899
			c-0.833,0.071-1.309,0.113-1.309,0.113V83c-1.042,2.375,0.792,9.625,4.042,14.822c3.25,5.197,8.374,6.053,9.624,8.178
			s-2.375,10.625-2.841,18c-0.466,7.375,7.013,19.32,9.842,23.667s5.375,6.583,4.983,9.593s2.267,6.365,3.267,7.74
			s-0.25,5.5,0.875,11.75s-1.5,11,1.333,13.298s7.175,9.146,9.635,14.343c2.46,5.196,4.906,9.609,7.058,12.479
			c2.152,2.87,4.515,9.797,4.515,9.797l6.667,0.667c0,0,4.416,8.166,10.973,10.743c6.557,2.577,12.193,4.673,18.335,2.856
			c6.142-1.815,7.172-0.506,18.844,1.174c11.674,1.681,19.367-4.03,19.367-4.03s1.873-4.458,5.328-10.144
			c1.952-3.216,3.541-6.267,5.485-9.369C151.246,219.119,149.844,219.729,148.473,220.396z"/>
		<path fill="#FFFFFF" d="M16.333,82.333c0,0,48.833-3.003,63.333-2.418s45.167,3.252,60.833,3.252s45.293-1.382,45.293-1.382
			s-0.966-4.605-8.911-9.625s-10.84-5.332-17.697-6.537c-6.858-1.205-12.526-0.955-13.021-8.122S150.167,48.167,149,41
			c0,0-4.342-3.159-10.829-3.08s-15.885,2.075-20.688,2.017c-4.803-0.058-13.63-0.653-13.63-0.653s-7.865,2.77-15.014,4.396
			S64.333,48,61.333,50s-1.5,3.833-7.667,9s-7.833,7.167-14.833,11.333S16.333,82.333,16.333,82.333z"/>
		<path fill="#F7F7F7" d="M176.882,72.16c-7.944-5.02-10.84-5.332-17.698-6.537c-6.857-1.205-12.525-0.955-13.021-8.122
			S150.167,48.167,149,41c0,0-0.119-0.084-0.325-0.216c-0.351,0.213-0.739,0.396-1.179,0.537c-0.148,0.048-0.294,0.114-0.441,0.167
			c-0.565,0.903-1.459,1.678-2.726,2.166c-0.497,0.192-1.001,0.358-1.503,0.532c-0.284,0.227-0.602,0.44-0.971,0.631
			c-2.332,1.206-4.76,2.109-7.225,2.919c-0.586,0.708-1.451,1.273-2.636,1.584c-10.492,2.759-19.943,7.798-30.006,11.683
			c-9.996,3.858-20.557,7-30.95,9.604c-10.467,2.623-20.95,4.128-31.054,7.993c-3.418,1.308-6.862,2.298-10.338,2.97
			c15.55-0.846,40.376-2.044,50.02-1.655c14.5,0.585,45.167,3.252,60.833,3.252s44.704-1.346,44.704-1.346
			C185.577,83.49,180.258,74.292,176.882,72.16z"/>
	</g>
	<path fill="none" stroke="#E5E5E5" stroke-width="2" stroke-miterlimit="10" d="M149.667,40.999c-6.333,5-20,8.333-27.667,11.333
		c-8,3-16.667,7.333-24.667,10.333C79,69.667,53.667,74,34.667,79.333C29.333,81,21.329,80.833,15.662,81.5"/>
	<g id="Layer_3">
		<path fill="none" stroke="#557784" stroke-width="2" stroke-miterlimit="10" d="M149,41c2.334,7.667-8,14,0.334,21.667
			c4.666,4.333,15,2,20,4.667c4,2,15.203,10.154,15.87,14.488"/>
		<path fill="none" stroke="#6C8D9E" stroke-width="2" stroke-miterlimit="10" d="M15.662,82.634C15.704,84.946,17,92.667,18,95.333
			c0.667,1.333,3.667,3.667,4.667,5c1.333,2,4,3,5,4.667c4,5.333-2.667,14-1.333,20.667c1.333,8,5,15.333,9.667,22
			c3.333,4.667,5,4,5,10.667c0,4,4.333,5.333,3.333,9.333c-1,5,0.333,6.667,1,11.667c0.333,2.333-0.333,4.666,0,7.333
			c0.333,4.333,1.667,3,4.333,6.333C55.334,200.334,56,206,61,214c1.333,2,2.667,3.334,3.667,5c1,1.667,2,6.667,3,7.667
			c1.667,1,4.667-0.333,6.667,0.667c2.667,1.333,2.333,4.333,4.667,6.333c6.333,5.333,12,7.667,19.333,7.667
			c7,0,7.333-1.667,14.667-0.667c7,1,13,2.667,20,1c1,0,5-1.333,6-2c3.333-1.667,2.333-0.333,3.666-3.667
			c1.667-4.666,6-9.333,7.667-14c2.667-8.666,13-11.333,11-21.333c-1-5-2.667-8.667-2.667-14s9-9.333,8-15
			c-0.666-5,6.667-7.333,6.667-12c0-3.667-2.333-9.333-4-12.667c-3.333-6.333-8.333-8-4-15.333c3-4.333,10.333-5.667,12.667-9.667
			c4.333-7.667,0.333-16.667,3.333-24.667c1.333-3.667,3.536-11.179,3.87-15.512"/>
		<g>
			<g>
				<path fill="#6C8D9E" d="M15.869,83.936c2.382,3.618,2.545,7.647,6.624,9.88c2.557,1.4,4.948,1.906,7.093,4.117
					c1.125,1.16,2.408,2.314,3.851,3.065c4.03,2.098,8.713,2.069,13.147,2.393c3.623,0.265,7.872,0.801,10.287,3.809
					c1.72,2.143,1.041,6.002,1.104,8.552c0.108,4.3,2.378,7.725,4.782,11.139c4.055,5.754,4.524,10.303,4.223,17.27
					c-0.155,3.59-0.802,6.201-2.859,9.184c-1.309,1.897-2.556,3.58-3.301,5.776c-1.17,3.452,2.854,8.845,3.638,12.215
					c2.396,10.287,3.95,19.969,10.518,28.511c2.119,2.756,4.843,5.312,8.223,6.336c1.514,0.457,3.194,0.366,4.754,0.312
					c3.787-0.129,6.614,4.693,8.825,7.289c3.722,4.369,8.008,7.648,12.848,10.712c4.038,2.555,8.153,6.257,12.983,7.026
					c4.135,0.658,8.802-2.287,12.742-3.157c2.15-0.476,4.086-1.003,6.062-1.989c3.304-1.648,5.313-4.543,9.024-5.672
					c1.183-0.36,0.816-1.768-0.377-1.404c-4.814,1.465-7.886,5.692-12.72,7.125c-6.126,1.816-13.312,5.241-19.104,1.499
					c-4.68-3.022-9.52-5.877-13.94-9.276c-4.708-3.619-7.562-9.084-12.209-12.698c-2.324-1.808-6.068-0.604-8.68-1.396
					c-4.667-1.413-8.068-7.155-10.359-11.094c-5.312-9.13-5.333-20.476-9.432-30.172c-2.222-5.259,2.165-8.644,4.34-12.992
					c1.98-3.961,1.526-10.622,1.082-14.919c-0.41-3.954-3.074-7.305-5.275-10.427c-1.536-2.18-2.902-4.47-3.568-7.072
					c-0.601-2.347-0.128-4.858-0.351-7.242c-0.922-9.876-13.212-8.479-20.484-9.424c-5.396-0.702-7.184-5.056-11.697-7.03
					c-2.756-1.205-5.407-1.92-7.01-4.682c-1.197-2.062-1.705-4.431-3.023-6.434C17.121,82.289,15.291,83.059,15.869,83.936
					L15.869,83.936z"/>
			</g>
		</g>
	</g>
	<path fill="none" stroke="#557784" stroke-width="2" stroke-miterlimit="10" d="M15.942,82.594C15.546,79.886,20.145,79.285,27,77
		c4.667-1.667,9-4.333,13.333-7.667C44,66.333,50,63.333,53,60c1.333-1.667,3.667-2.667,5-4.333c1.667-2.333,1.333-4,3.333-5.667
		c5.333-4,18.333-3.667,25-5.667c4.333-1,10.667-3.333,15-4.667c4-1,8.333,0,12.667,0.333s11-1.333,15-1.667
		c6-1,16.25-0.667,21.25,2.667"/>
</g>
<g id="Layer_2">
	<path fill="#B2937D" d="M54.026,11.104c0,0,13.786-2.948,26.462-3.954s31.593-1.649,31.593-1.649l1.037,8.171
		c0,0-3.059,1.259-2.642,1.427s2.684,0.398,2.684,0.398l2.468,16.451c0,0-19.718,0.178-27.916,1.736s-31.966,5.896-31.966,5.896
		s-0.175-0.929-0.496-5.498s-0.687-10.485-1.062-13.191S53.635,12.959,54.026,11.104z"/>
	<path fill="#937865" d="M98.601,20.714c-1.513,0.068-3.041,0.095-4.573,0.111c1.885,0.243,3.77,0.494,5.679,0.598
		c4.902,0.267,9.701,0.682,14.513,1.138l-0.273-1.824C108.912,21.29,103.47,20.497,98.601,20.714z"/>
	<path fill="#937865" d="M63.862,15.555c1.453-0.329,2.902-0.674,4.351-1.024c-4.559,0.342-9.731,0.434-14.384,1.449
		c0.021,0.741,0.055,1.489,0.102,2.206c0.336-0.066,0.674-0.131,1.017-0.193C58.023,17.428,60.834,16.24,63.862,15.555z"/>
	<path fill="#937865" d="M55.539,37.726c0.135,1.47,0.208,1.855,0.208,1.855s11.47-2.093,21.223-3.895
		C69.872,35.981,62.378,35.642,55.539,37.726z"/>
	<path fill="#B2937D" d="M80.506,35.033c0.397,0.249,1.057,2.84,1.091,6.47s0.481,9.505,0.481,9.505l5.039,0.284
		c0,0,0.29-1.756,0-5.098s-1.115-12.206-1.115-12.206L80.506,35.033z"/>
	<path fill="#937865" d="M86.312,37.332c-0.177-1.917-0.31-3.345-0.31-3.345l-5.496,1.045c0.267,0.167,0.648,1.407,0.883,3.293
		C83.009,37.898,84.653,37.569,86.312,37.332z"/>
</g>
<g id="Layer_3_1_">
	<path fill="none" stroke="#2D3C42" stroke-linecap="round" stroke-linejoin="round" stroke-miterlimit="10" d="M64.445,14.442
		c-0.075,2.103,0.164,4.399,0.645,6.45"/>
	<path fill="none" stroke="#2D3C42" stroke-linecap="round" stroke-linejoin="round" stroke-miterlimit="10" d="M71.111,14.872
		c0.069-0.189,0.398-0.009,0.197-0.441c-3.864-1.98-5.395,7.632-0.413,5.386"/>
	<path fill="none" stroke="#2D3C42" stroke-linecap="round" stroke-linejoin="round" stroke-miterlimit="10" d="M73.906,14.442
		c0,1.846-0.069,3.725,0.033,5.557c0.802,0.136,1.617-0.102,2.333-0.397"/>
	<path fill="none" stroke="#2D3C42" stroke-linecap="round" stroke-linejoin="round" stroke-miterlimit="10" d="M74.336,17.022
		c0.838-0.046,1.618-0.263,2.366-0.645"/>
	<path fill="none" stroke="#2D3C42" stroke-linecap="round" stroke-linejoin="round" stroke-miterlimit="10" d="M73.906,14.012
		c0.72-0.249,1.566-0.322,2.366-0.215"/>
	<path fill="none" stroke="#2D3C42" stroke-linecap="round" stroke-linejoin="round" stroke-miterlimit="10" d="M79.616,14.052
		c-0.116,1.807,0.208,3.7,0.215,5.53c0.166-1.721-1.092-4.798,0.258-6.18c0.74-0.759,2.05-1.034,2.277,0.434
		c0.196,1.257-1.654,1.415-2.335,2.145c6.331,2.177,0.368,4.486-0.416,2.801"/>
	<path fill="none" stroke="#2D3C42" stroke-linecap="round" stroke-linejoin="round" stroke-miterlimit="10" d="M84.346,13.407
		c0,1.704-0.059,3.437,0.033,5.127c0.94,0.16,1.986,0.181,2.547-0.612"/>
	<path fill="none" stroke="#2D3C42" stroke-linecap="round" stroke-linejoin="round" stroke-miterlimit="10" d="M84.561,15.343
		c0.838,0.104,1.663,0.027,2.365-0.43"/>
	<path fill="none" stroke="#2D3C42" stroke-linecap="round" stroke-linejoin="round" stroke-miterlimit="10" d="M84.561,12.977
		c0.021-0.726,1.189-0.723,2.15-0.645"/>
	<path fill="none" stroke="#2D3C42" stroke-linecap="round" stroke-linejoin="round" stroke-miterlimit="10" d="M88.646,13.192
		c0,1.561-0.234,3.421,0.167,4.881c0.267-1.646-1.021-4.976,1.166-5.902c0.991-0.419,1.818-0.248,1.896,1.021
		c0.091,1.462-2.098,2.054-3.184,2.537c2.037-0.213,3.86,1.025,4.254,3.053"/>
	<path fill="none" stroke="#2D3C42" stroke-linecap="round" stroke-linejoin="round" stroke-miterlimit="10" d="M98.322,11.902
		c-1.539-2.667-5.218,2.039-4.965,4.042c0.468,3.721,4.617,1.179,2.259-0.183c1.288,0.015,2.876,0.321,3.996-0.419"/>
	<path fill="none" stroke="#2D3C42" stroke-linecap="round" stroke-linejoin="round" stroke-miterlimit="10" d="M57.144,27.111
		c0.581,0.438,3.862-0.751,5.375-0.645"/>
	<path fill="none" stroke="#2D3C42" stroke-linecap="round" stroke-linejoin="round" stroke-miterlimit="10" d="M60.154,27.756
		c-0.035,1.661,0.336,3.295,0.43,4.945"/>
	<path fill="none" stroke="#2D3C42" stroke-linecap="round" stroke-linejoin="round" stroke-miterlimit="10" d="M66.819,25.82
		c-3.951-1.298-2.406,4.41-1.467,6.638c0.936-0.263,1.913-0.695,2.973-0.617"/>
	<path fill="none" stroke="#2D3C42" stroke-linecap="round" stroke-linejoin="round" stroke-miterlimit="10" d="M64.669,28.831
		c0.633-0.43,1.375-0.571,2.15-0.43"/>
	<path fill="none" stroke="#2D3C42" stroke-linecap="round" stroke-linejoin="round" stroke-miterlimit="10" d="M72.782,25.953
		c0.073-0.283,0.332-0.269,0.187-0.612c-5.628-1.225-3.955,9.059,0.458,5.128"/>
	<path fill="none" stroke="#2D3C42" stroke-linecap="round" stroke-linejoin="round" stroke-miterlimit="10" d="M75.363,25.523
		c-0.39,1.413,0.12,3.852,0.43,5.375"/>
	<path fill="none" stroke="#2D3C42" stroke-linecap="round" stroke-linejoin="round" stroke-miterlimit="10" d="M77.943,24.663
		c0.006,1.811-0.065,3.646,0.43,5.375"/>
	<path fill="none" stroke="#2D3C42" stroke-linecap="round" stroke-linejoin="round" stroke-miterlimit="10" d="M75.363,27.673
		c0.655-0.305,1.412-0.457,2.15-0.43"/>
	<path fill="none" stroke="#2D3C42" stroke-linecap="round" stroke-linejoin="round" stroke-miterlimit="10" d="M80.81,29.999
		c-0.394-1.129-0.496-3.773-0.921-5.383c0.677,1.327,1.688,5.117,3.534,4.899c0.615-1.545-0.143-3.242-0.725-4.708"/>
	<path fill="none" stroke="#2D3C42" stroke-linecap="round" stroke-linejoin="round" stroke-miterlimit="10" d="M85.53,24.336
		c0.168,1.744,0.753,3.459,0.944,5.191"/>
	<path fill="none" stroke="#2D3C42" stroke-linecap="round" stroke-linejoin="round" stroke-miterlimit="10" d="M90.958,24.572
		c-0.448-1.507-5.573,1.847-0.737,4.045c6.655,3.025,6.425-6.88,0.501-4.753"/>
	<path fill="none" stroke="#2D3C42" stroke-linecap="round" stroke-linejoin="round" stroke-miterlimit="10" d="M92.137,26.459
		c1.146,1.127,2.921,2.074,4.483,2.36"/>
	<path fill="none" stroke="#2D3C42" stroke-linecap="round" stroke-linejoin="round" stroke-miterlimit="10" d="M97.093,23.627
		c-0.793,0.603,0.468,4.75,2.36,4.504c1.697-0.22,2.057-4.418,1.181-5.212"/>
	<path fill="none" stroke="#2D3C42" stroke-linecap="round" stroke-linejoin="round" stroke-miterlimit="10" d="M107.24,21.976
		c-1.086,0.002-2.191-0.012-3.267,0.024c-0.549,1.479-0.315,3.34-0.249,4.901c1.282-0.237,2.638-0.201,3.988-0.205"/>
	<path fill="none" stroke="#2D3C42" stroke-linecap="round" stroke-linejoin="round" stroke-miterlimit="10" d="M102.993,25.044
		c1.345-0.09,2.7-0.386,4.011-0.708"/>
	<path fill="none" stroke="#6D5C4D" stroke-linecap="round" stroke-linejoin="round" stroke-miterlimit="10" d="M54.026,10.77
		c0.406,0.428,3.256-0.458,4.059-0.645c2.135-0.499,4.275-1.011,6.457-1.296c4.395-0.573,8.831-0.839,13.237-1.422
		c2.489-0.329,5.022-0.352,7.526-0.502c3.023-0.182,6.005-0.67,9.035-0.841c4.532-0.255,9.074-0.454,13.625-0.454
		c1.208,0,3.181,0.304,4.222-0.107"/>
	<path fill="none" stroke="#6D5C4D" stroke-linecap="round" stroke-linejoin="round" stroke-miterlimit="10" d="M112.081,5.502
		c-0.116,1.82,0.453,3.677,0.543,5.488c0.047,0.958-0.047,1.892,0.494,2.683c-0.978,0.326-1.768,0.891-2.642,1.427
		c0.701,0.494,2.08-0.112,2.684,0.398c0.506,0.428,0.328,1.415,0.422,2.045c0.28,1.889,0.552,3.692,0.753,5.591
		c0.188,1.755,0.387,3.554,0.646,5.273c0.172,1.149,0.544,2.418,0.433,3.649"/>
	<path fill="none" stroke="#6D5C4D" stroke-linecap="round" stroke-linejoin="round" stroke-miterlimit="10" d="M53.811,10.77
		c0,2.711-0.295,5.636,0.111,8.308c0.405,2.666,0.764,5.323,0.88,8.036c0.178,4.165,0.622,8.29,0.622,12.468"/>
	<path fill="none" stroke="#6D5C4D" stroke-linecap="round" stroke-linejoin="round" stroke-miterlimit="10" d="M55.746,39.797
		c0.235-0.547,0.859-0.271,1.419-0.341c1.223-0.153,2.519-0.446,3.742-0.651c3.192-0.535,6.411-1.039,9.576-1.704
		c5.291-1.112,10.596-2.199,15.929-3.19c8.588-1.596,17.55-1.2,26.211-1.64c1.048-0.053,1.976-0.253,3.005-0.322"/>
	<path fill="none" stroke="#6D5C4D" stroke-linecap="round" stroke-linejoin="round" stroke-miterlimit="10" d="M80.903,35.281
		c1.275,3.485,0.298,7.657,0.887,11.29c0.268,1.657,0.216,3.267,0.312,4.933c1.727-0.607,3.233-0.173,5.015-0.212
		c0.603-1.808,0.041-4.308-0.115-6.158c-0.173-2.058-0.302-4.1-0.401-6.161c-0.037-0.763,0.004-4.178-0.538-4.551"/>
	<path fill="none" stroke="#476470" stroke-width="1.2" stroke-linecap="round" stroke-linejoin="round" stroke-miterlimit="10" d="
		M83.931,121.563c1.302,0.604,4.812-0.715,6.554-1.103c2.273-0.509,4.734-0.563,6.909-1.413c-0.165-0.068-0.337-0.08-0.517-0.037"/>
	<path fill="none" stroke="#476470" stroke-width="1.2" stroke-linecap="round" stroke-linejoin="round" stroke-miterlimit="10" d="
		M90.495,121.198c-0.784,2.604-0.183,6.155-0.183,8.935"/>
	<path fill="none" stroke="#476470" stroke-width="1.2" stroke-linecap="round" stroke-linejoin="round" stroke-miterlimit="10" d="
		M99.43,121.381c-4.147-0.631-6.137,7.629-0.877,7.826c5.975,0.223,3.187-9.987-0.399-8.737"/>
	<path fill="none" stroke="#476470" stroke-width="1.2" stroke-linecap="round" stroke-linejoin="round" stroke-miterlimit="10" d="
		M103.259,121.381c0.758,1.854,0.594,4.489,1.239,6.52c-0.051-2.332-0.698-5.227-1.046-7.551c1.542,2.391,2.608,5.805,5.08,7.452
		c1.401-1.543,0.114-6.598-0.533-8.426"/>
	<path fill="none" stroke="#476470" stroke-width="1.2" stroke-linecap="round" stroke-linejoin="round" stroke-miterlimit="10" d="
		M116.387,118.463c-2.479-1.968-10.105,1.194-4.034,3.789c1.026,0.44,5.932,1.562,5.301,3.473c-0.517,1.562-5.619,1.312-6.736,0.762
		"/>
	<path fill="none" stroke="#476470" stroke-width="1.2" stroke-linecap="round" stroke-linejoin="round" stroke-miterlimit="10" d="
		M133.785,124.291c-1.117-0.002-3.958-2.077-4.938-3.259c-1.294-1.56-3.079-8.22,0.847-7.392c0.146,2.818-1.677,4.466-3.293,6.517
		c-0.743,0.944-2.56,2.574-1.738,3.972c2.005,3.412,5.65-2.415,6.023-4.032"/>
	<path fill="none" stroke="#476470" stroke-width="1.2" stroke-linecap="round" stroke-linejoin="round" stroke-miterlimit="10" d="
		M101.983,137.609c2.42-0.557,5.176-0.182,7.659-0.182"/>
	<path fill="none" stroke="#476470" stroke-width="1.2" stroke-linecap="round" stroke-linejoin="round" stroke-miterlimit="10" d="
		M105.812,137.609c-0.622,1.906-0.183,4.509-0.183,6.565"/>
	<path fill="none" stroke="#476470" stroke-width="1.2" stroke-linecap="round" stroke-linejoin="round" stroke-miterlimit="10" d="
		M112.74,138.156c-0.953-0.351-2.341,0.679-2.823,1.558c-1.394,2.533,1.941,4.888,4.304,3.946c3.059-1.218,0.852-7.842-1.845-6.414"
		/>
	<path fill="none" stroke="#476470" stroke-width="1.2" stroke-linecap="round" stroke-linejoin="round" stroke-miterlimit="10" d="
		M118.393,144.175c0.084-2.413-0.52-4.823-0.34-7.218c1.231,2.459,3.09,6.188,6.011,6.822c1.159-2.564,0.084-5.214-0.929-7.629"/>
	<path fill="none" stroke="#476470" stroke-width="1.2" stroke-linecap="round" stroke-linejoin="round" stroke-miterlimit="10" d="
		M130.61,136.334c-0.011-1.582-3.447-1.871-4.132-0.341c-1.432,3.198,5.485,3.947,5.787,6.511c-1.126,0.899-3.692,0.921-4.938,0.212
		"/>
	<path fill="none" stroke="#476470" stroke-width="1.2" stroke-linecap="round" stroke-linejoin="round" stroke-miterlimit="10" d="
		M149.21,141.985c-1.784-1.19-3.893-2.178-5.278-3.855c-1.084-1.313-3.459-5.921-1.315-7.358c0.723-0.482,2.059-0.295,2.605,0.384
		c1.129,1.397-0.719,3.769-1.45,4.781c-1.207,1.669-4.607,4.052-4.214,6.377c3.424,0.726,7.907-2.837,8.922-5.979"/>
	<path fill="none" stroke="#476470" stroke-width="1.2" stroke-linecap="round" stroke-linejoin="round" stroke-miterlimit="10" d="
		M90.312,155.297c2.636-1.553,6.954-1.235,10.029-2.371"/>
	<path fill="none" stroke="#476470" stroke-width="1.2" stroke-linecap="round" stroke-linejoin="round" stroke-miterlimit="10" d="
		M95.601,154.932c-0.724,1.975,0.374,4.638,0.911,6.565"/>
	<path fill="none" stroke="#476470" stroke-width="1.2" stroke-linecap="round" stroke-linejoin="round" stroke-miterlimit="10" d="
		M102.53,153.656c-3.45,0.433-2.405,7.744,1.786,7.339c6.07-0.588,0.705-9.669-1.239-7.339"/>
	<path fill="none" stroke="#476470" stroke-width="1.2" stroke-linecap="round" stroke-linejoin="round" stroke-miterlimit="10" d="
		M111.829,159.673c0.107-2.171-0.719-5.144-1.631-7.09c0,2.891,3.475,5.31,5.851,6.184c0.729-2.438-0.575-4.485-1.12-6.752"/>
	<path fill="none" stroke="#476470" stroke-width="1.2" stroke-linecap="round" stroke-linejoin="round" stroke-miterlimit="10" d="
		M123.863,151.467c0.28-1.577-3.35-1.519-4.183-0.377c-0.714,0.978-0.368,1.616,0.331,2.374c1.707,1.852,5.062,0.703,5.375,4.218
		c-1.393,1.486-4.765,2.04-6.447,1.08"/>
	<path fill="none" stroke="#476470" stroke-width="1.2" stroke-linecap="round" stroke-linejoin="round" stroke-miterlimit="10" d="
		M137.721,151.285c-3.449-0.676-3.833,4.281-0.747,5.333c6.71,2.289,5.034-8.108-0.163-6.062"/>
	<path fill="none" stroke="#476470" stroke-width="1.2" stroke-linecap="round" stroke-linejoin="round" stroke-miterlimit="10" d="
		M146.474,157.484c0.06-2.252-0.192-5.202-2.005-6.795c1.411-0.484,6.732-1.797,7.476-0.498"/>
	<path fill="none" stroke="#476470" stroke-width="1.2" stroke-linecap="round" stroke-linejoin="round" stroke-miterlimit="10" d="
		M144.65,153.656c1.636-0.311,3.225-0.805,4.923-0.73"/>
	<path fill="none" stroke="#476470" stroke-width="1.2" stroke-linecap="round" stroke-linejoin="round" stroke-miterlimit="10" d="
		M94.506,173.713c-0.007,1.779-0.353,5.273,0.337,6.74c-0.003-2.967-1.784-5.302-0.758-8.452c1.366-4.201,5.416-0.881,3.603,1.38
		c-1.653,2.062-4.668,0.647-1.581,3.06c0.943,0.736,1.664,1.45,2.346,2.429c0.391,0.56,0.052,1.922,0.611,1.227"/>
	<path fill="none" stroke="#476470" stroke-width="1.2" stroke-linecap="round" stroke-linejoin="round" stroke-miterlimit="10" d="
		M103.806,171.16c-1.125-1.142-3.712-0.937-3.286,1.462c0.283,1.601,1.214,2.028,2.826,1.496c-0.741-0.056-1.503-0.041-2.247-0.023
		c-0.108,1.934,0.142,3.862,0.178,5.789c1.078-0.005,2.106-0.371,3.258-0.335"/>
	<path fill="none" stroke="#476470" stroke-width="1.2" stroke-linecap="round" stroke-linejoin="round" stroke-miterlimit="10" d="
		M106.724,170.432c-0.177,2.282-0.018,11.256,4.559,7.293"/>
	<path fill="none" stroke="#476470" stroke-width="1.2" stroke-linecap="round" stroke-linejoin="round" stroke-miterlimit="10" d="
		M114.199,176.449c0.014-2.681-0.45-6.658,2.271-8.186c1.515,2.029,3.109,6.26,2.835,8.914"/>
	<path fill="none" stroke="#476470" stroke-width="1.2" stroke-linecap="round" stroke-linejoin="round" stroke-miterlimit="10" d="
		M114.382,173.896c1.083-0.584,2.292-0.626,3.464-0.912"/>
	<path fill="none" stroke="#476470" stroke-width="1.2" stroke-linecap="round" stroke-linejoin="round" stroke-miterlimit="10" d="
		M120.035,169.155c0.306-1.328,7.578-1.921,9.298-2.371"/>
	<path fill="none" stroke="#476470" stroke-width="1.2" stroke-linecap="round" stroke-linejoin="round" stroke-miterlimit="10" d="
		M123.499,167.878c-0.638,2.173,0.663,5.938,1.276,8.206"/>
	<path fill="none" stroke="#476470" stroke-width="1.2" stroke-linecap="round" stroke-linejoin="round" stroke-miterlimit="10" d="
		M135.352,166.421c-1.331,0.003-2.738-0.169-3.988,0.374c-0.084,1.491,0.045,2.997-0.061,4.49c-0.04,0.59-0.743,2.941-0.304,3.497
		c0.848,1.069,4.028,0.168,5.264,0.208"/>
	<path fill="none" stroke="#476470" stroke-width="1.2" stroke-linecap="round" stroke-linejoin="round" stroke-miterlimit="10" d="
		M130.976,170.796c1.096-0.005,2.212,0.112,3.281-0.183"/>
	<path fill="none" stroke="#476470" stroke-width="1.2" stroke-linecap="round" stroke-linejoin="round" stroke-miterlimit="10" d="
		M138.086,166.968c0.008,2.893,0.557,5.302,1.48,8.005c-0.718-1.91-2.889-7.789-0.408-8.722c4.907-1.845,7.754,10.162,0.568,9.104"
		/>
	<path fill="none" stroke="#476470" stroke-width="1.2" stroke-linecap="round" stroke-linejoin="round" stroke-miterlimit="10" d="
		M101.8,188.665c0.364,2.528,1.718,5.506,3.614,7.267c0.758-2.939,0.762-5.887,0.762-8.907"/>
	<path fill="none" stroke="#476470" stroke-width="1.2" stroke-linecap="round" stroke-linejoin="round" stroke-miterlimit="10" d="
		M109.642,188.483c0.005,2.399,0.312,4.851,0.168,7.235c0.426-3.038,0.698-6.646,2.384-9.286c2.208,0.776,3.211,6.817,3.1,8.979"/>
	<path fill="none" stroke="#476470" stroke-width="1.2" stroke-linecap="round" stroke-linejoin="round" stroke-miterlimit="10" d="
		M110.735,191.766c1.136-0.003,2.384,0.175,3.464-0.183"/>
	<path fill="none" stroke="#476470" stroke-width="1.2" stroke-linecap="round" stroke-linejoin="round" stroke-miterlimit="10" d="
		M117.482,186.478c0.005,1.941-0.685,6.536,0.498,8.19c1.065,1.488,2.329,0.485,3.695-0.715"/>
	<path fill="none" stroke="#476470" stroke-width="1.2" stroke-linecap="round" stroke-linejoin="round" stroke-miterlimit="10" d="
		M125.14,186.843c-1.017,1.938-0.367,5.135,1.813,6.017c3.641,1.472,2.536-5.431,2.017-7.294"/>
	<path fill="none" stroke="#476470" stroke-width="1.2" stroke-linecap="round" stroke-linejoin="round" stroke-miterlimit="10" d="
		M137.174,184.653c-0.956-0.775-2.277-0.545-3.439-0.548c-0.188,2.501,0.274,5.126,0.352,7.646c2.012,0.1,4.336-1.07,6.553-1.081"/>
	<path fill="none" stroke="#476470" stroke-width="1.2" stroke-linecap="round" stroke-linejoin="round" stroke-miterlimit="10" d="
		M133.163,188.483c1.661-0.723,3.87-1.085,5.653-1.459"/>
</g>
</svg>
