<?xml version="1.0" encoding="utf-8"?>
<!-- Generator: Adobe Illustrator 15.1.0, SVG Export Plug-In . SVG Version: 6.00 Build 0)  -->
<!DOCTYPE svg PUBLIC "-//W3C//DTD SVG 1.1//EN" "http://www.w3.org/Graphics/SVG/1.1/DTD/svg11.dtd">
<svg version="1.1" xmlns="http://www.w3.org/2000/svg" xmlns:xlink="http://www.w3.org/1999/xlink" x="0px" y="0px" width="218px"
	 height="250px" viewBox="0 0 218 250" enable-background="new 0 0 218 250" xml:space="preserve">
<g id="Layer_2">
	<path opacity="0.6" fill="#557784" stroke="#557784" stroke-width="2" stroke-miterlimit="10" d="M64.248,119.876
		c0.4,1.223,1.208,5.63,1.475,6.876c0.466,2.18,0.684,4.777,2.529,6.41c0.732,0.648,1.703,0.795,2.446,1.434
		c0.991,0.85,1.39,2.141,2.434,2.977c1.605,1.283,3.454,2.217,5.024,3.625c3.044,2.727,7.837,3.027,11.597,4.307
		c2.569,0.875,5.019,1.322,7.775,1.537c3.775,0.295,7.241,1.701,10.847,2.75c3.022,0.879,5.851,1.004,8.991,1.115
		c3.537,0.125,7.252,1.146,10.668-0.09c1.178-0.428,2.205-0.967,3.326-1.582c1.609-0.883,3.378-1.248,5.017-2.045
		c2.987-1.449,5.306-4.305,7.873-6.434c1.999-1.658,2.924-4.465,4.153-6.691c0.497-0.898,1.387-1.725,1.752-2.652
		c0.301-0.766,0.393-1.834,0.47-2.625"/>
	<path fill="#FFFFFF" d="M63.929,118.354c0,0,1.472-11.546,15.87-10.297s49.866,1.605,49.866,1.605s22.451-1.569,22.045,10.812
		s-7.517,17.513-7.517,17.513l-77.515-14.204L63.929,118.354z"/>
	<path fill="#F7F7F7" d="M95.513,109.165l13.286-3.836c0,0,11.755,0.271,19.63,3.836c0,0-4.752,4.575-5.678,7.033
		s-4.074,7.385,3.516,12.524s17.927,9.265,17.927,9.265s-4.313,4.601-12.396,5.813s-16.392,2.953-24.802,0.92
		s-15.441-3.223-23.566-7.606s-14.875-3.86-16.25-12.247c0,0-0.5-1.637,8.5-1.387s17.5,1.375,19.375-1.75
		S97.847,118.1,95.513,109.165z"/>
</g>
<g id="Layer_1">
	<path fill="none" stroke="#E5E5E5" stroke-width="2" stroke-miterlimit="10" d="M94.929,109.234
		c3.188,3.933,3.891,8.448,0.236,12.425c-2.769,3.013-6.563,1.69-10.555,1.695c-5.759,0.008-11.708,0.72-17.432,0.5"/>
	<path fill="none" stroke="#E5E5E5" stroke-width="2" stroke-miterlimit="10" d="M144.193,137.438
		c-2.878,0.16-7.802-2.305-10.337-3.577c-2.375-1.191-4.295-2.687-6.372-4.269c-3.257-2.482-5.453-2.731-5.805-7.313
		c-0.211-2.75,0.098-5.093,1.805-7.113c1.014-1.2,4.509-5.233,6.194-5.062"/>
	<path fill="none" stroke="#557784" stroke-width="2" stroke-miterlimit="10" d="M63.929,118.354
		c-0.068,1.961,1.908,3.748,2.75,5.428c1.193,2.383,1.823,5.113,3.749,7.083c1.679,1.718,3.675,2.138,5.884,3.039
		c3.4,1.389,6.158,3.792,9.466,5.254c6.243,2.759,13.364,3.287,19.901,5.197c6.603,1.929,12.201,2.072,18.779,0.487
		c4.663-1.125,9.261-0.608,13.801-2.738c4.138-1.94,7.373-5.283,10.231-8.757c4.392-5.337,4.867-14.979-0.312-19.98
		c-3.943-3.808-11.29-2.49-16.544-3.312c-8.121-1.271-17.77-7.4-25.83-3.833c-6.939,3.072-14.119,4.083-21.62,2.395
		c-5.475-1.232-12.081-0.627-16.58,3.244C65.867,113.356,64.498,116.219,63.929,118.354z"/>
	<path opacity="0.7" fill="none" stroke="#557784" stroke-width="2" stroke-miterlimit="10" d="M63.429,112.688
		c-1.139,0.567-2.776,1.35-3.537,2.459c-0.728,1.061-0.5,2.428-0.296,3.875c0.195,1.383,0.738,2.68,0.833,4.129
		c0.117,1.803-0.361,2.926,0.955,4.24c1.433,1.43,1.84,1.759,2.417,3.798c0.511,1.808,1.409,1.633,2.788,2.666
		c0.883,0.662,0.884,1.29,1.842,2.138c0.751,0.665,1.834,1.369,2.667,2.029c0.967,0.767,1.987,0.925,3.042,1.497
		c1.633,0.886,2.445,2.103,4.459,2.299c0.167,0.012,0.333,0.024,0.5,0.037"/>
	<path opacity="0.7" fill="none" stroke="#557784" stroke-width="2" stroke-miterlimit="10" d="M152.263,124.688
		c2.494,0.997,2.354,3.975,1.962,6.37c-0.28,1.71-1.35,2.393-2.254,3.797c-0.58,0.901-0.742,1.992-1.325,2.837
		c-0.718,1.039-2.143,2.108-3.125,2.917c-3.157,2.597-7.009,4.229-10.929,5.245c-1.277,0.331-2.567,0.749-3.829,1.167
		c-1.798,0.595-3.629,0.479-5.5,1"/>
	<path opacity="0.5" fill="none" stroke="#557784" stroke-width="2" stroke-miterlimit="10" d="M84.262,108.521
		c-1.728,0.019-3.678-1.55-5.334-1.995c-1.777-0.478-3.719-0.303-5.537-0.546c-4.208-0.562-7.172-0.568-10.638,1.878
		c-2.947,2.08-6.375,1.65-8.361,5.496c-0.916,1.773-1.449,3.875-1.796,5.871c-0.454,2.617,0.535,5.296,0.666,7.922
		c0.088,1.771-0.088,3.237,0.658,4.869c0.818,1.789,2.428,2.856,3.643,4.329c1.548,1.878,2.436,3.983,4.296,5.605
		c1.844,1.607,4.376,4.359,6.903,4.57"/>
	<path opacity="0.5" fill="none" stroke="#557784" stroke-width="2" stroke-miterlimit="10" d="M149.429,114.854
		c1.384,1.1,3.974,1.112,5.643,1.945c1.673,0.835,3.63,2.471,4.578,4.101c1.018,1.749,1.562,3.835,2.405,5.659
		c1.007,2.178,1.858,4.517,1.874,6.968c0.021,3.264-2.295,5.762-3.845,8.507c-1.821,3.226-4.727,4.884-8.11,6.37
		c-3.404,1.496-6.563,3.059-9.958,4.531c-4.261,1.847-9.077,2.415-13.736,2.42c-4.25,0.005-8.284,0.496-12.546,0.5
		c-3.775,0.004-7.431-2.414-11.305-2"/>
	<path opacity="0.7" fill="none" stroke="#557784" stroke-width="2" stroke-miterlimit="10" d="M87.262,145.688
		c4.062,1.85,9.163,1.888,13.454,3.208c3.967,1.22,8.757-0.078,12.547,1.625"/>
	<path opacity="0.3" fill="none" stroke="#557784" stroke-width="2" stroke-miterlimit="10" d="M59.929,145.688
		c0.619,0.646,0.927,1.512,1.522,2.166c1.215,1.335,2.922,1.499,4.44,2.359c3.343,1.894,6.786,2.906,10.396,4.312
		c1.434,0.559,2.746,1.305,4.128,1.959c1.819,0.86,3.712,0.911,5.647,1.367c3.379,0.797,6.638,2.147,10.081,2.544
		c2.793,0.322,5.312,1.131,8.122,1.126c2.322-0.004,4.879-0.257,7.163,0.029c6.563,0.821,12.864,0.806,19.5,0.804"/>
	<path opacity="0.7" fill="none" stroke="#557784" stroke-width="2" stroke-miterlimit="10" d="M90.762,103.688
		c0.64-0.058,0.754,0.455,1.493,0.675c1.029,0.306,1.921,0.273,2.983,0.325c1.342,0.065,2.361,0.463,3.642,0.708
		c1.783,0.34,4.072,0.866,5.883,0.792"/>
	<path opacity="0.3" fill="none" stroke="#557784" stroke-width="2" stroke-miterlimit="10" d="M137.929,107.688
		c4.939,0.033,9.964,1.782,14.798,2.796c4.942,1.038,9.822,0.919,13.337,5.045c1.397,1.641,3.406,2.859,4.415,4.816
		c0.757,1.468,1.134,3.248,1.571,4.841c0.404,1.477,0.535,2.791,0.75,4.297c0.271,1.894-0.147,4.411,0.463,6.204"/>
	<path opacity="0.3" fill="none" stroke="#557784" stroke-width="2" stroke-miterlimit="10" d="M76.096,100.354
		c-1.032-1.56-9.097-0.616-11.338-0.5c-2.838,0.147-6.178,0.673-8.661,2.2c-2.114,1.3-4.763,2.506-6.5,4.304
		c-1.75,1.812-5.78,7.222-4.667,9.829"/>
	<path fill="#FFFFFF" stroke="#557784" stroke-width="2" stroke-miterlimit="10" d="M158.625,170c-2.257-0.81-5.53,0.827-6.6,2.966
		c-1.226,2.452,1.311,3.779,3.199,4.534c3.046,1.218,6.143,2.523,9.395,1.097c1.407-0.618,2.711-1.028,3.161-2.643
		c0.495-1.771-0.275-3.347-1.523-4.579C164.253,169.397,160.966,171.107,158.625,170L158.625,170z"/>
	<path opacity="0.5" fill="none" stroke="#557784" stroke-width="2" stroke-miterlimit="10" d="M150.875,169.75
		c-2.237-0.276-4.488-0.427-6.006,1.75c-0.844,1.211-0.321,3.796,0.281,5.031c1.099,2.251,2.674,2.069,4.776,2.869
		c2.392,0.908,4.693,2.338,7.203,2.956c1.132,0.279,2.245,0.247,3.376,0.671c1.155,0.433,2.241,0.947,3.492,1.132
		c1.333,0.196,3.059,0.364,4.405,0.225c0.934-0.097,3.546-0.633,4.233-1.284c0.729-0.691,1.324-3.236,1.65-4.231
		c0.504-1.533,0.008-2.79-1.19-3.868c-0.506-0.455-0.837-0.802-1.597-0.75"/>
	<path opacity="0.3" fill="none" stroke="#557784" stroke-width="2" stroke-miterlimit="10" d="M150.375,165.625
		c3.414,0.193,6.846,0.028,10.26,0.25c3.02,0.196,6.22,1.427,9.119,2.213c2.486,0.674,4.709,1.665,6.777,3.162
		c1.274,0.924,1.889,1.665,2.45,3.139c0.355,0.932,0.445,2.174,1.019,2.986"/>
</g>
</svg>
