<?xml version="1.0" encoding="utf-8"?>
<!-- Generator: Adobe Illustrator 15.1.0, SVG Export Plug-In . SVG Version: 6.00 Build 0)  -->
<!DOCTYPE svg PUBLIC "-//W3C//DTD SVG 1.1//EN" "http://www.w3.org/Graphics/SVG/1.1/DTD/svg11.dtd">
<svg version="1.1" id="Layer_1" xmlns="http://www.w3.org/2000/svg" xmlns:xlink="http://www.w3.org/1999/xlink" x="0px" y="0px"
	 width="192.5px" height="167px" viewBox="0 0 192.5 167" enable-background="new 0 0 192.5 167" xml:space="preserve">
<g>
	<rect x="9.5" y="7.5" fill="#FFFFFF" width="80" height="148.334"/>
	<path fill="#557784" d="M90.5,156.834h-82V6.5h82V156.834z M10.5,154.834h78V8.5h-78V154.834z"/>
</g>
<g>
	<rect x="99.5" y="7.5" fill="#FFFFFF" width="80" height="148.334"/>
	<path fill="#557784" d="M180.5,156.834h-82V6.5h82V156.834z M100.5,154.834h78V8.5h-78V154.834z"/>
</g>
<g id="Layer_4">
</g>
<g id="Layer_5">
</g>
<g>
	<rect x="17" y="34.215" fill="#FFFFFF" width="65" height="33.785"/>
	<path fill="#557784" d="M83,69H16V33.215h67V69z M18,67h63V35.215H18V67z"/>
</g>
<g>
	<path fill="#557784" d="M25.876,55.594v-8.676h2.994c0.568,0,1.053,0.054,1.455,0.162c0.402,0.108,0.732,0.262,0.99,0.462
		c0.258,0.2,0.447,0.442,0.567,0.726c0.12,0.284,0.18,0.604,0.18,0.96c0,0.204-0.03,0.399-0.09,0.585
		c-0.06,0.186-0.153,0.36-0.279,0.522c-0.126,0.162-0.286,0.309-0.48,0.441c-0.194,0.132-0.425,0.244-0.693,0.336
		c1.192,0.268,1.788,0.912,1.788,1.932c0,0.368-0.07,0.708-0.21,1.02c-0.14,0.312-0.344,0.581-0.612,0.807
		c-0.268,0.226-0.598,0.403-0.99,0.531s-0.84,0.192-1.344,0.192H25.876z M27.49,50.674h1.29c0.548,0,0.964-0.1,1.248-0.3
		c0.284-0.2,0.426-0.518,0.426-0.954c0-0.452-0.128-0.774-0.384-0.966c-0.256-0.192-0.656-0.288-1.2-0.288h-1.38V50.674z
		 M27.49,51.79v2.544h1.638c0.3,0,0.551-0.036,0.753-0.108c0.202-0.072,0.364-0.168,0.486-0.288c0.122-0.12,0.21-0.26,0.264-0.42
		c0.054-0.16,0.081-0.33,0.081-0.51c0-0.188-0.03-0.357-0.09-0.507c-0.06-0.15-0.154-0.278-0.282-0.384s-0.292-0.187-0.492-0.243
		c-0.2-0.056-0.442-0.084-0.726-0.084H27.49z"/>
	<path fill="#557784" d="M35.362,52.204v3.39h-1.614v-8.676h2.646c0.592,0,1.099,0.061,1.521,0.183
		c0.422,0.122,0.768,0.293,1.038,0.513c0.27,0.22,0.468,0.483,0.594,0.789s0.189,0.643,0.189,1.011c0,0.292-0.043,0.568-0.129,0.828
		c-0.086,0.26-0.21,0.496-0.372,0.708s-0.362,0.398-0.6,0.558c-0.238,0.16-0.509,0.288-0.813,0.384
		c0.204,0.116,0.38,0.282,0.528,0.498l2.172,3.204H39.07c-0.14,0-0.259-0.028-0.357-0.084s-0.181-0.136-0.249-0.24l-1.824-2.778
		c-0.068-0.104-0.143-0.178-0.225-0.222c-0.082-0.044-0.203-0.066-0.363-0.066H35.362z M35.362,51.046h1.008
		c0.304,0,0.569-0.038,0.795-0.114c0.226-0.076,0.412-0.181,0.558-0.315c0.146-0.134,0.255-0.293,0.327-0.477
		c0.072-0.184,0.108-0.386,0.108-0.606c0-0.44-0.145-0.778-0.435-1.014c-0.29-0.236-0.733-0.354-1.329-0.354h-1.032V51.046z"/>
	<path fill="#557784" d="M49.18,55.594h-1.248c-0.14,0-0.255-0.035-0.345-0.105c-0.09-0.07-0.155-0.157-0.195-0.261l-0.648-1.77
		H43.15l-0.648,1.77c-0.032,0.092-0.095,0.176-0.189,0.252c-0.094,0.076-0.209,0.114-0.345,0.114h-1.254l3.408-8.676h1.65
		L49.18,55.594z M43.564,52.318h2.766l-1.056-2.886c-0.048-0.128-0.101-0.279-0.159-0.453c-0.058-0.174-0.115-0.363-0.171-0.567
		c-0.056,0.204-0.111,0.394-0.165,0.57c-0.054,0.176-0.107,0.33-0.159,0.462L43.564,52.318z"/>
	<path fill="#557784" d="M51.1,46.927c0.048,0.006,0.091,0.018,0.129,0.036c0.038,0.018,0.075,0.044,0.111,0.078
		c0.036,0.034,0.076,0.079,0.12,0.135l4.554,5.802c-0.016-0.14-0.027-0.277-0.033-0.411c-0.006-0.134-0.009-0.259-0.009-0.375
		v-5.274h1.422v8.676H56.56c-0.128,0-0.234-0.02-0.318-0.06s-0.166-0.112-0.246-0.216L51.46,49.54
		c0.012,0.128,0.021,0.255,0.027,0.381s0.009,0.241,0.009,0.345v5.328h-1.422v-8.676h0.846C50.992,46.918,51.052,46.921,51.1,46.927
		z"/>
	<path fill="#557784" d="M65.109,53.548c0.088,0,0.164,0.034,0.228,0.102l0.636,0.69c-0.352,0.436-0.785,0.77-1.299,1.002
		c-0.514,0.232-1.131,0.348-1.851,0.348c-0.644,0-1.223-0.11-1.737-0.33c-0.514-0.22-0.953-0.526-1.317-0.918
		c-0.364-0.392-0.643-0.86-0.837-1.404c-0.194-0.544-0.291-1.138-0.291-1.782c0-0.652,0.108-1.249,0.324-1.791
		c0.216-0.542,0.52-1.009,0.912-1.401s0.861-0.697,1.407-0.915c0.546-0.218,1.149-0.327,1.809-0.327
		c0.644,0,1.207,0.103,1.689,0.309c0.482,0.206,0.895,0.479,1.239,0.819l-0.54,0.75c-0.032,0.048-0.073,0.09-0.123,0.126
		c-0.05,0.036-0.119,0.054-0.207,0.054c-0.092,0-0.186-0.036-0.282-0.108c-0.096-0.072-0.218-0.15-0.366-0.234
		s-0.335-0.162-0.561-0.234c-0.226-0.072-0.513-0.108-0.861-0.108c-0.408,0-0.783,0.071-1.125,0.213s-0.636,0.345-0.882,0.609
		c-0.246,0.264-0.438,0.585-0.576,0.963c-0.138,0.378-0.207,0.803-0.207,1.275c0,0.488,0.069,0.922,0.207,1.302
		c0.138,0.38,0.325,0.7,0.561,0.96c0.236,0.26,0.514,0.459,0.834,0.597c0.32,0.138,0.664,0.207,1.032,0.207
		c0.22,0,0.419-0.012,0.597-0.036c0.178-0.024,0.342-0.062,0.492-0.114c0.15-0.052,0.292-0.119,0.426-0.201
		c0.134-0.082,0.267-0.183,0.399-0.303c0.04-0.036,0.082-0.065,0.126-0.087S65.058,53.548,65.109,53.548z"/>
	<path fill="#557784" d="M74.511,55.594h-1.626v-3.792h-4.068v3.792h-1.626v-8.676h1.626v3.732h4.068v-3.732h1.626V55.594z"/>
</g>
<g>
	<path fill="#557784" d="M30.421,22.393c0.058,0.138,0.115,0.277,0.171,0.417c0.056-0.144,0.114-0.286,0.174-0.426
		s0.124-0.274,0.192-0.402l2.568-4.806c0.032-0.06,0.065-0.108,0.099-0.144s0.072-0.062,0.114-0.078
		c0.042-0.016,0.089-0.026,0.141-0.03c0.052-0.004,0.114-0.006,0.186-0.006h1.218v8.676h-1.422V19.99
		c0-0.104,0.003-0.218,0.009-0.342s0.015-0.25,0.027-0.378l-2.622,4.92c-0.06,0.112-0.138,0.199-0.234,0.261
		s-0.208,0.093-0.336,0.093h-0.222c-0.128,0-0.24-0.031-0.336-0.093s-0.174-0.149-0.234-0.261l-2.658-4.938
		c0.016,0.132,0.027,0.261,0.033,0.387s0.009,0.243,0.009,0.351v5.604h-1.422v-8.676h1.218c0.072,0,0.134,0.002,0.186,0.006
		c0.052,0.004,0.099,0.014,0.141,0.03c0.042,0.016,0.081,0.042,0.117,0.078s0.07,0.084,0.102,0.144l2.592,4.818
		C30.3,22.122,30.363,22.255,30.421,22.393z"/>
	<path fill="#557784" d="M44.662,25.594h-1.248c-0.14,0-0.255-0.035-0.345-0.105c-0.09-0.07-0.155-0.157-0.195-0.261l-0.648-1.77
		h-3.594l-0.648,1.77c-0.032,0.092-0.095,0.176-0.189,0.252c-0.094,0.076-0.209,0.114-0.345,0.114h-1.254l3.408-8.676h1.65
		L44.662,25.594z M39.046,22.318h2.766l-1.056-2.886c-0.048-0.128-0.101-0.279-0.159-0.453c-0.058-0.174-0.115-0.363-0.171-0.567
		c-0.056,0.204-0.111,0.394-0.165,0.57c-0.054,0.176-0.107,0.33-0.159,0.462L39.046,22.318z"/>
	<path fill="#557784" d="M50.206,18.496c-0.044,0.088-0.095,0.15-0.153,0.186s-0.127,0.054-0.207,0.054s-0.17-0.031-0.27-0.093
		s-0.218-0.131-0.354-0.207c-0.136-0.076-0.295-0.145-0.477-0.207c-0.182-0.062-0.397-0.093-0.645-0.093
		c-0.224,0-0.419,0.027-0.585,0.081c-0.166,0.054-0.306,0.129-0.42,0.225c-0.114,0.096-0.199,0.211-0.255,0.345
		c-0.056,0.134-0.084,0.281-0.084,0.441c0,0.204,0.057,0.375,0.171,0.51c0.114,0.136,0.265,0.252,0.453,0.348
		c0.188,0.096,0.402,0.182,0.642,0.258c0.24,0.076,0.485,0.157,0.735,0.243s0.495,0.186,0.735,0.3
		c0.24,0.114,0.454,0.258,0.642,0.432c0.188,0.174,0.339,0.387,0.453,0.639c0.114,0.252,0.171,0.558,0.171,0.918
		c0,0.392-0.067,0.759-0.201,1.101c-0.134,0.342-0.33,0.64-0.588,0.894c-0.258,0.254-0.573,0.454-0.945,0.6
		c-0.372,0.146-0.798,0.219-1.278,0.219c-0.276,0-0.548-0.027-0.816-0.081c-0.268-0.054-0.525-0.131-0.771-0.231
		c-0.246-0.1-0.476-0.22-0.69-0.36c-0.214-0.14-0.405-0.296-0.573-0.468l0.468-0.774c0.044-0.056,0.097-0.103,0.159-0.141
		s0.131-0.057,0.207-0.057c0.1,0,0.208,0.041,0.324,0.123c0.116,0.082,0.253,0.173,0.411,0.273c0.158,0.1,0.344,0.191,0.558,0.273
		c0.214,0.082,0.471,0.123,0.771,0.123c0.46,0,0.816-0.109,1.068-0.327c0.252-0.218,0.378-0.531,0.378-0.939
		c0-0.228-0.057-0.414-0.171-0.558c-0.114-0.144-0.265-0.265-0.453-0.363c-0.188-0.098-0.402-0.181-0.642-0.249
		c-0.24-0.068-0.484-0.142-0.732-0.222s-0.492-0.176-0.732-0.288c-0.24-0.112-0.454-0.258-0.642-0.438
		c-0.188-0.18-0.339-0.405-0.453-0.675c-0.114-0.27-0.171-0.603-0.171-0.999c0-0.316,0.063-0.624,0.189-0.924
		c0.126-0.3,0.31-0.566,0.552-0.798c0.242-0.232,0.539-0.418,0.891-0.558s0.754-0.21,1.206-0.21c0.512,0,0.984,0.08,1.416,0.24
		c0.432,0.16,0.8,0.384,1.104,0.672L50.206,18.496z"/>
	<path fill="#557784" d="M58.108,16.918v1.326h-2.61v7.35h-1.614v-7.35h-2.622v-1.326H58.108z"/>
	<path fill="#557784" d="M64.606,16.918v1.284H60.76v2.406h3.03v1.242h-3.03v2.454h3.846v1.29h-5.472v-8.676H64.606z"/>
	<path fill="#557784" d="M67.671,22.204v3.39h-1.614v-8.676h2.646c0.592,0,1.099,0.061,1.521,0.183
		c0.422,0.122,0.768,0.293,1.038,0.513c0.27,0.22,0.468,0.483,0.594,0.789s0.189,0.643,0.189,1.011c0,0.292-0.043,0.568-0.129,0.828
		c-0.086,0.26-0.21,0.496-0.372,0.708s-0.362,0.398-0.6,0.558c-0.238,0.16-0.509,0.288-0.813,0.384
		c0.204,0.116,0.38,0.282,0.528,0.498l2.172,3.204h-1.452c-0.14,0-0.259-0.028-0.357-0.084s-0.181-0.136-0.249-0.24l-1.824-2.778
		c-0.068-0.104-0.143-0.178-0.225-0.222c-0.082-0.044-0.203-0.066-0.363-0.066H67.671z M67.671,21.046h1.008
		c0.304,0,0.569-0.038,0.795-0.114c0.226-0.076,0.412-0.181,0.558-0.315c0.146-0.134,0.255-0.293,0.327-0.477
		c0.072-0.184,0.108-0.386,0.108-0.606c0-0.44-0.145-0.778-0.435-1.014c-0.29-0.236-0.733-0.354-1.329-0.354h-1.032V21.046z"/>
</g>
<g>
	<rect x="17" y="74.215" fill="#FFFFFF" width="65" height="33.785"/>
	<path fill="#557784" d="M83,109H16V73.215h67V109z M18,107h63V75.215H18V107z"/>
</g>
<g>
	<path fill="#557784" d="M25.876,95.594v-8.676h2.994c0.568,0,1.053,0.054,1.455,0.162c0.402,0.108,0.732,0.262,0.99,0.462
		c0.258,0.2,0.447,0.442,0.567,0.726c0.12,0.284,0.18,0.604,0.18,0.96c0,0.204-0.03,0.399-0.09,0.585
		c-0.06,0.186-0.153,0.36-0.279,0.522c-0.126,0.162-0.286,0.309-0.48,0.441c-0.194,0.132-0.425,0.244-0.693,0.336
		c1.192,0.268,1.788,0.912,1.788,1.932c0,0.368-0.07,0.708-0.21,1.02c-0.14,0.312-0.344,0.581-0.612,0.807
		c-0.268,0.226-0.598,0.403-0.99,0.531s-0.84,0.192-1.344,0.192H25.876z M27.49,90.674h1.29c0.548,0,0.964-0.1,1.248-0.3
		c0.284-0.2,0.426-0.518,0.426-0.954c0-0.452-0.128-0.774-0.384-0.966c-0.256-0.192-0.656-0.288-1.2-0.288h-1.38V90.674z
		 M27.49,91.79v2.544h1.638c0.3,0,0.551-0.036,0.753-0.108c0.202-0.072,0.364-0.168,0.486-0.288c0.122-0.12,0.21-0.26,0.264-0.42
		c0.054-0.16,0.081-0.33,0.081-0.51c0-0.188-0.03-0.357-0.09-0.507c-0.06-0.15-0.154-0.278-0.282-0.384s-0.292-0.187-0.492-0.243
		c-0.2-0.056-0.442-0.084-0.726-0.084H27.49z"/>
	<path fill="#557784" d="M35.362,92.204v3.39h-1.614v-8.676h2.646c0.592,0,1.099,0.061,1.521,0.183
		c0.422,0.122,0.768,0.293,1.038,0.513c0.27,0.22,0.468,0.483,0.594,0.789s0.189,0.643,0.189,1.011c0,0.292-0.043,0.568-0.129,0.828
		c-0.086,0.26-0.21,0.496-0.372,0.708s-0.362,0.398-0.6,0.558c-0.238,0.16-0.509,0.288-0.813,0.384
		c0.204,0.116,0.38,0.282,0.528,0.498l2.172,3.204H39.07c-0.14,0-0.259-0.028-0.357-0.084s-0.181-0.136-0.249-0.24l-1.824-2.778
		c-0.068-0.104-0.143-0.178-0.225-0.222c-0.082-0.044-0.203-0.066-0.363-0.066H35.362z M35.362,91.046h1.008
		c0.304,0,0.569-0.038,0.795-0.114c0.226-0.076,0.412-0.181,0.558-0.315c0.146-0.134,0.255-0.293,0.327-0.477
		c0.072-0.184,0.108-0.386,0.108-0.606c0-0.44-0.145-0.778-0.435-1.014c-0.29-0.236-0.733-0.354-1.329-0.354h-1.032V91.046z"/>
	<path fill="#557784" d="M49.18,95.594h-1.248c-0.14,0-0.255-0.035-0.345-0.105c-0.09-0.07-0.155-0.157-0.195-0.261l-0.648-1.77
		H43.15l-0.648,1.77c-0.032,0.092-0.095,0.176-0.189,0.252c-0.094,0.076-0.209,0.114-0.345,0.114h-1.254l3.408-8.676h1.65
		L49.18,95.594z M43.564,92.318h2.766l-1.056-2.886c-0.048-0.128-0.101-0.279-0.159-0.453c-0.058-0.174-0.115-0.363-0.171-0.567
		c-0.056,0.204-0.111,0.394-0.165,0.57c-0.054,0.176-0.107,0.33-0.159,0.462L43.564,92.318z"/>
	<path fill="#557784" d="M51.1,86.927c0.048,0.006,0.091,0.018,0.129,0.036c0.038,0.018,0.075,0.044,0.111,0.078
		c0.036,0.034,0.076,0.079,0.12,0.135l4.554,5.802c-0.016-0.14-0.027-0.277-0.033-0.411c-0.006-0.134-0.009-0.259-0.009-0.375
		v-5.274h1.422v8.676H56.56c-0.128,0-0.234-0.02-0.318-0.06s-0.166-0.112-0.246-0.216L51.46,89.54
		c0.012,0.128,0.021,0.255,0.027,0.381s0.009,0.241,0.009,0.345v5.328h-1.422v-8.676h0.846C50.992,86.918,51.052,86.921,51.1,86.927
		z"/>
	<path fill="#557784" d="M65.109,93.548c0.088,0,0.164,0.034,0.228,0.102l0.636,0.69c-0.352,0.436-0.785,0.77-1.299,1.002
		c-0.514,0.232-1.131,0.348-1.851,0.348c-0.644,0-1.223-0.11-1.737-0.33c-0.514-0.22-0.953-0.526-1.317-0.918
		c-0.364-0.392-0.643-0.86-0.837-1.404c-0.194-0.544-0.291-1.138-0.291-1.782c0-0.652,0.108-1.249,0.324-1.791
		c0.216-0.542,0.52-1.009,0.912-1.401s0.861-0.697,1.407-0.915c0.546-0.218,1.149-0.327,1.809-0.327
		c0.644,0,1.207,0.103,1.689,0.309c0.482,0.206,0.895,0.479,1.239,0.819l-0.54,0.75c-0.032,0.048-0.073,0.09-0.123,0.126
		c-0.05,0.036-0.119,0.054-0.207,0.054c-0.092,0-0.186-0.036-0.282-0.108c-0.096-0.072-0.218-0.15-0.366-0.234
		s-0.335-0.162-0.561-0.234c-0.226-0.072-0.513-0.108-0.861-0.108c-0.408,0-0.783,0.071-1.125,0.213s-0.636,0.345-0.882,0.609
		c-0.246,0.264-0.438,0.585-0.576,0.963c-0.138,0.378-0.207,0.803-0.207,1.275c0,0.488,0.069,0.922,0.207,1.302
		c0.138,0.38,0.325,0.7,0.561,0.96c0.236,0.26,0.514,0.459,0.834,0.597c0.32,0.138,0.664,0.207,1.032,0.207
		c0.22,0,0.419-0.012,0.597-0.036c0.178-0.024,0.342-0.062,0.492-0.114c0.15-0.052,0.292-0.119,0.426-0.201
		c0.134-0.082,0.267-0.183,0.399-0.303c0.04-0.036,0.082-0.065,0.126-0.087S65.058,93.548,65.109,93.548z"/>
	<path fill="#557784" d="M74.511,95.594h-1.626v-3.792h-4.068v3.792h-1.626v-8.676h1.626v3.732h4.068v-3.732h1.626V95.594z"/>
</g>
<g>
	<rect x="17" y="114.215" fill="#FFFFFF" width="65" height="33.785"/>
	<path fill="#557784" d="M83,149H16v-35.785h67V149z M18,147h63v-31.785H18V147z"/>
</g>
<g>
	<path fill="#557784" d="M25.876,135.594v-8.676h2.994c0.568,0,1.053,0.054,1.455,0.162c0.402,0.107,0.732,0.262,0.99,0.462
		c0.258,0.2,0.447,0.442,0.567,0.726c0.12,0.284,0.18,0.604,0.18,0.96c0,0.204-0.03,0.399-0.09,0.585s-0.153,0.36-0.279,0.522
		c-0.126,0.161-0.286,0.309-0.48,0.44c-0.194,0.133-0.425,0.244-0.693,0.336c1.192,0.269,1.788,0.912,1.788,1.933
		c0,0.368-0.07,0.708-0.21,1.021c-0.14,0.312-0.344,0.58-0.612,0.807c-0.268,0.226-0.598,0.402-0.99,0.531
		c-0.392,0.127-0.84,0.191-1.344,0.191H25.876z M27.49,130.674h1.29c0.548,0,0.964-0.1,1.248-0.301
		c0.284-0.199,0.426-0.518,0.426-0.953c0-0.452-0.128-0.774-0.384-0.967c-0.256-0.191-0.656-0.287-1.2-0.287h-1.38V130.674z
		 M27.49,131.789v2.545h1.638c0.3,0,0.551-0.036,0.753-0.108c0.202-0.071,0.364-0.168,0.486-0.288c0.122-0.119,0.21-0.26,0.264-0.42
		c0.054-0.16,0.081-0.33,0.081-0.51c0-0.188-0.03-0.357-0.09-0.507c-0.06-0.15-0.154-0.278-0.282-0.384
		c-0.128-0.106-0.292-0.188-0.492-0.244c-0.2-0.055-0.442-0.084-0.726-0.084H27.49z"/>
	<path fill="#557784" d="M35.362,132.203v3.391h-1.614v-8.676h2.646c0.592,0,1.099,0.061,1.521,0.183
		c0.422,0.122,0.768,0.294,1.038,0.513c0.27,0.221,0.468,0.483,0.594,0.789c0.126,0.307,0.189,0.644,0.189,1.012
		c0,0.291-0.043,0.568-0.129,0.828s-0.21,0.496-0.372,0.707c-0.162,0.213-0.362,0.398-0.6,0.559
		c-0.238,0.16-0.509,0.288-0.813,0.384c0.204,0.116,0.38,0.282,0.528,0.498l2.172,3.204H39.07c-0.14,0-0.259-0.027-0.357-0.084
		s-0.181-0.136-0.249-0.24l-1.824-2.777c-0.068-0.104-0.143-0.178-0.225-0.223c-0.082-0.044-0.203-0.066-0.363-0.066H35.362z
		 M35.362,131.046h1.008c0.304,0,0.569-0.038,0.795-0.114c0.226-0.076,0.412-0.181,0.558-0.314c0.146-0.135,0.255-0.293,0.327-0.478
		c0.072-0.184,0.108-0.386,0.108-0.606c0-0.439-0.145-0.777-0.435-1.014s-0.733-0.354-1.329-0.354h-1.032V131.046z"/>
	<path fill="#557784" d="M49.18,135.594h-1.248c-0.14,0-0.255-0.035-0.345-0.105c-0.09-0.069-0.155-0.156-0.195-0.261l-0.648-1.771
		H43.15l-0.648,1.771c-0.032,0.093-0.095,0.177-0.189,0.253c-0.094,0.075-0.209,0.113-0.345,0.113h-1.254l3.408-8.676h1.65
		L49.18,135.594z M43.564,132.318h2.766l-1.056-2.887c-0.048-0.128-0.101-0.279-0.159-0.453s-0.115-0.363-0.171-0.566
		c-0.056,0.203-0.111,0.394-0.165,0.57c-0.054,0.176-0.107,0.329-0.159,0.461L43.564,132.318z"/>
	<path fill="#557784" d="M51.1,126.927c0.048,0.006,0.091,0.019,0.129,0.036c0.038,0.018,0.075,0.044,0.111,0.078
		c0.036,0.033,0.076,0.078,0.12,0.135l4.554,5.802c-0.016-0.14-0.027-0.276-0.033-0.411c-0.006-0.134-0.009-0.259-0.009-0.375
		v-5.273h1.422v8.676H56.56c-0.128,0-0.234-0.02-0.318-0.061c-0.084-0.039-0.166-0.111-0.246-0.215l-4.536-5.779
		c0.012,0.129,0.021,0.256,0.027,0.382s0.009,0.241,0.009,0.345v5.328h-1.422v-8.676h0.846
		C50.992,126.918,51.052,126.921,51.1,126.927z"/>
	<path fill="#557784" d="M65.109,133.548c0.088,0,0.164,0.034,0.228,0.103l0.636,0.689c-0.352,0.436-0.785,0.77-1.299,1.002
		c-0.514,0.232-1.131,0.348-1.851,0.348c-0.644,0-1.223-0.109-1.737-0.33c-0.514-0.22-0.953-0.525-1.317-0.918
		c-0.364-0.392-0.643-0.859-0.837-1.404c-0.194-0.543-0.291-1.137-0.291-1.781c0-0.652,0.108-1.249,0.324-1.791
		c0.216-0.542,0.52-1.009,0.912-1.4c0.392-0.393,0.861-0.697,1.407-0.916c0.546-0.218,1.149-0.326,1.809-0.326
		c0.644,0,1.207,0.103,1.689,0.309c0.482,0.206,0.895,0.479,1.239,0.818l-0.54,0.75c-0.032,0.049-0.073,0.09-0.123,0.127
		c-0.05,0.035-0.119,0.054-0.207,0.054c-0.092,0-0.186-0.036-0.282-0.108c-0.096-0.072-0.218-0.15-0.366-0.234
		s-0.335-0.161-0.561-0.233c-0.226-0.071-0.513-0.108-0.861-0.108c-0.408,0-0.783,0.071-1.125,0.213
		c-0.342,0.143-0.636,0.346-0.882,0.609c-0.246,0.264-0.438,0.585-0.576,0.963c-0.138,0.379-0.207,0.803-0.207,1.275
		c0,0.488,0.069,0.922,0.207,1.302s0.325,0.7,0.561,0.96c0.236,0.26,0.514,0.459,0.834,0.598c0.32,0.138,0.664,0.207,1.032,0.207
		c0.22,0,0.419-0.013,0.597-0.037c0.178-0.023,0.342-0.062,0.492-0.113c0.15-0.053,0.292-0.119,0.426-0.201
		c0.134-0.082,0.267-0.184,0.399-0.303c0.04-0.036,0.082-0.065,0.126-0.088C65.009,133.559,65.058,133.548,65.109,133.548z"/>
	<path fill="#557784" d="M74.511,135.594h-1.626v-3.792h-4.068v3.792h-1.626v-8.676h1.626v3.732h4.068v-3.732h1.626V135.594z"/>
</g>
<g>
	<rect x="107" y="34.215" fill="#FFFFFF" width="65" height="33.785"/>
	<path fill="#557784" d="M173,69h-67V33.215h67V69z M108,67h63V35.215h-63V67z"/>
</g>
<g>
	<path fill="#557784" d="M115.876,55.594v-8.676h2.994c0.567,0,1.053,0.054,1.455,0.162c0.401,0.108,0.731,0.262,0.989,0.462
		c0.259,0.2,0.447,0.442,0.567,0.726c0.12,0.284,0.181,0.604,0.181,0.96c0,0.204-0.03,0.399-0.09,0.585
		c-0.061,0.186-0.154,0.36-0.279,0.522c-0.127,0.162-0.287,0.309-0.48,0.441c-0.193,0.132-0.425,0.244-0.693,0.336
		c1.192,0.268,1.789,0.912,1.789,1.932c0,0.368-0.07,0.708-0.211,1.02c-0.14,0.312-0.344,0.581-0.611,0.807
		c-0.269,0.226-0.598,0.403-0.99,0.531s-0.84,0.192-1.344,0.192H115.876z M117.49,50.674h1.289c0.549,0,0.965-0.1,1.248-0.3
		c0.285-0.2,0.427-0.518,0.427-0.954c0-0.452-0.128-0.774-0.384-0.966s-0.656-0.288-1.2-0.288h-1.38V50.674z M117.49,51.79v2.544
		h1.638c0.3,0,0.552-0.036,0.753-0.108c0.202-0.072,0.364-0.168,0.486-0.288c0.121-0.12,0.21-0.26,0.264-0.42
		c0.055-0.16,0.081-0.33,0.081-0.51c0-0.188-0.03-0.357-0.09-0.507c-0.06-0.15-0.154-0.278-0.282-0.384s-0.292-0.187-0.492-0.243
		c-0.199-0.056-0.441-0.084-0.726-0.084H117.49z"/>
	<path fill="#557784" d="M125.361,52.204v3.39h-1.613v-8.676h2.646c0.592,0,1.098,0.061,1.521,0.183
		c0.422,0.122,0.769,0.293,1.038,0.513c0.27,0.22,0.468,0.483,0.594,0.789s0.189,0.643,0.189,1.011c0,0.292-0.043,0.568-0.129,0.828
		c-0.086,0.26-0.211,0.496-0.373,0.708s-0.361,0.398-0.6,0.558s-0.509,0.288-0.812,0.384c0.203,0.116,0.379,0.282,0.527,0.498
		l2.172,3.204h-1.451c-0.141,0-0.26-0.028-0.357-0.084s-0.182-0.136-0.249-0.24l-1.824-2.778c-0.067-0.104-0.144-0.178-0.225-0.222
		c-0.082-0.044-0.203-0.066-0.363-0.066H125.361z M125.361,51.046h1.008c0.305,0,0.57-0.038,0.796-0.114
		c0.226-0.076,0.411-0.181,0.558-0.315c0.146-0.134,0.256-0.293,0.327-0.477c0.072-0.184,0.108-0.386,0.108-0.606
		c0-0.44-0.146-0.778-0.436-1.014c-0.29-0.236-0.732-0.354-1.328-0.354h-1.033V51.046z"/>
	<path fill="#557784" d="M139.18,55.594h-1.248c-0.141,0-0.255-0.035-0.345-0.105c-0.091-0.07-0.155-0.157-0.195-0.261l-0.647-1.77
		h-3.594l-0.648,1.77c-0.032,0.092-0.096,0.176-0.189,0.252c-0.094,0.076-0.209,0.114-0.345,0.114h-1.254l3.407-8.676h1.65
		L139.18,55.594z M133.564,52.318h2.766l-1.057-2.886c-0.048-0.128-0.101-0.279-0.158-0.453c-0.059-0.174-0.115-0.363-0.172-0.567
		c-0.056,0.204-0.111,0.394-0.164,0.57c-0.055,0.176-0.107,0.33-0.16,0.462L133.564,52.318z"/>
	<path fill="#557784" d="M141.1,46.927c0.049,0.006,0.092,0.018,0.129,0.036c0.038,0.018,0.075,0.044,0.111,0.078
		c0.036,0.034,0.076,0.079,0.12,0.135l4.554,5.802c-0.016-0.14-0.027-0.277-0.033-0.411c-0.006-0.134-0.009-0.259-0.009-0.375
		v-5.274h1.422v8.676h-0.834c-0.128,0-0.233-0.02-0.317-0.06s-0.166-0.112-0.246-0.216l-4.536-5.778
		c0.012,0.128,0.021,0.255,0.026,0.381s0.01,0.241,0.01,0.345v5.328h-1.422v-8.676h0.846
		C140.992,46.918,141.052,46.921,141.1,46.927z"/>
	<path fill="#557784" d="M155.109,53.548c0.088,0,0.164,0.034,0.229,0.102l0.636,0.69c-0.353,0.436-0.785,0.77-1.3,1.002
		c-0.514,0.232-1.131,0.348-1.85,0.348c-0.645,0-1.224-0.11-1.738-0.33c-0.514-0.22-0.953-0.526-1.316-0.918
		c-0.364-0.392-0.643-0.86-0.837-1.404s-0.291-1.138-0.291-1.782c0-0.652,0.108-1.249,0.323-1.791
		c0.217-0.542,0.521-1.009,0.912-1.401c0.393-0.392,0.861-0.697,1.408-0.915c0.545-0.218,1.148-0.327,1.809-0.327
		c0.644,0,1.207,0.103,1.689,0.309c0.481,0.206,0.895,0.479,1.238,0.819l-0.54,0.75c-0.032,0.048-0.073,0.09-0.123,0.126
		s-0.119,0.054-0.207,0.054c-0.092,0-0.187-0.036-0.282-0.108c-0.096-0.072-0.218-0.15-0.365-0.234
		c-0.148-0.084-0.336-0.162-0.562-0.234c-0.226-0.072-0.513-0.108-0.86-0.108c-0.408,0-0.783,0.071-1.125,0.213
		s-0.637,0.345-0.883,0.609c-0.246,0.264-0.438,0.585-0.576,0.963c-0.138,0.378-0.207,0.803-0.207,1.275
		c0,0.488,0.069,0.922,0.207,1.302c0.139,0.38,0.325,0.7,0.562,0.96c0.235,0.26,0.514,0.459,0.834,0.597
		c0.319,0.138,0.664,0.207,1.032,0.207c0.22,0,0.419-0.012,0.597-0.036c0.179-0.024,0.343-0.062,0.492-0.114
		c0.149-0.052,0.292-0.119,0.426-0.201s0.267-0.183,0.399-0.303c0.039-0.036,0.082-0.065,0.125-0.087
		C155.01,53.559,155.058,53.548,155.109,53.548z"/>
	<path fill="#557784" d="M164.512,55.594h-1.627v-3.792h-4.067v3.792h-1.626v-8.676h1.626v3.732h4.067v-3.732h1.627V55.594z"/>
</g>
<g>
	<path fill="#557784" d="M120.421,22.393c0.058,0.138,0.115,0.277,0.171,0.417c0.057-0.144,0.114-0.286,0.174-0.426
		c0.061-0.14,0.125-0.274,0.192-0.402l2.567-4.806c0.033-0.06,0.065-0.108,0.1-0.144s0.072-0.062,0.113-0.078
		c0.043-0.016,0.09-0.026,0.142-0.03s0.114-0.006,0.187-0.006h1.218v8.676h-1.423V19.99c0-0.104,0.004-0.218,0.01-0.342
		s0.016-0.25,0.027-0.378l-2.623,4.92c-0.06,0.112-0.137,0.199-0.233,0.261s-0.208,0.093-0.336,0.093h-0.222
		c-0.129,0-0.24-0.031-0.336-0.093c-0.097-0.062-0.174-0.149-0.234-0.261l-2.658-4.938c0.016,0.132,0.027,0.261,0.033,0.387
		s0.009,0.243,0.009,0.351v5.604h-1.422v-8.676h1.218c0.072,0,0.135,0.002,0.186,0.006c0.053,0.004,0.1,0.014,0.142,0.03
		c0.042,0.016,0.081,0.042,0.117,0.078s0.069,0.084,0.103,0.144l2.592,4.818C120.3,22.122,120.363,22.255,120.421,22.393z"/>
	<path fill="#557784" d="M134.662,25.594h-1.248c-0.141,0-0.255-0.035-0.345-0.105c-0.091-0.07-0.155-0.157-0.195-0.261l-0.647-1.77
		h-3.594l-0.648,1.77c-0.032,0.092-0.096,0.176-0.189,0.252c-0.094,0.076-0.209,0.114-0.345,0.114h-1.254l3.407-8.676h1.65
		L134.662,25.594z M129.047,22.318h2.766l-1.057-2.886c-0.048-0.128-0.101-0.279-0.158-0.453c-0.059-0.174-0.115-0.363-0.172-0.567
		c-0.056,0.204-0.111,0.394-0.164,0.57c-0.055,0.176-0.107,0.33-0.16,0.462L129.047,22.318z"/>
	<path fill="#557784" d="M140.205,18.496c-0.043,0.088-0.094,0.15-0.152,0.186s-0.127,0.054-0.207,0.054s-0.17-0.031-0.27-0.093
		c-0.101-0.062-0.219-0.131-0.354-0.207c-0.136-0.076-0.295-0.145-0.478-0.207c-0.182-0.062-0.396-0.093-0.645-0.093
		c-0.225,0-0.419,0.027-0.585,0.081c-0.166,0.054-0.306,0.129-0.42,0.225c-0.114,0.096-0.199,0.211-0.255,0.345
		c-0.057,0.134-0.084,0.281-0.084,0.441c0,0.204,0.057,0.375,0.171,0.51c0.114,0.136,0.265,0.252,0.453,0.348
		c0.188,0.096,0.401,0.182,0.642,0.258s0.485,0.157,0.735,0.243s0.495,0.186,0.735,0.3c0.239,0.114,0.453,0.258,0.642,0.432
		c0.188,0.174,0.339,0.387,0.453,0.639c0.114,0.252,0.171,0.558,0.171,0.918c0,0.392-0.067,0.759-0.201,1.101
		c-0.134,0.342-0.33,0.64-0.588,0.894c-0.258,0.254-0.573,0.454-0.945,0.6c-0.371,0.146-0.798,0.219-1.277,0.219
		c-0.276,0-0.549-0.027-0.816-0.081c-0.268-0.054-0.525-0.131-0.771-0.231c-0.246-0.1-0.476-0.22-0.689-0.36
		c-0.214-0.14-0.405-0.296-0.573-0.468l0.468-0.774c0.045-0.056,0.098-0.103,0.159-0.141s0.132-0.057,0.207-0.057
		c0.101,0,0.208,0.041,0.324,0.123s0.253,0.173,0.411,0.273c0.158,0.1,0.344,0.191,0.558,0.273c0.214,0.082,0.472,0.123,0.771,0.123
		c0.461,0,0.816-0.109,1.068-0.327c0.252-0.218,0.379-0.531,0.379-0.939c0-0.228-0.058-0.414-0.172-0.558
		c-0.113-0.144-0.265-0.265-0.453-0.363c-0.188-0.098-0.401-0.181-0.642-0.249c-0.239-0.068-0.483-0.142-0.731-0.222
		s-0.492-0.176-0.732-0.288s-0.454-0.258-0.643-0.438c-0.188-0.18-0.338-0.405-0.453-0.675c-0.113-0.27-0.17-0.603-0.17-0.999
		c0-0.316,0.062-0.624,0.188-0.924c0.126-0.3,0.31-0.566,0.552-0.798s0.539-0.418,0.891-0.558c0.353-0.14,0.754-0.21,1.207-0.21
		c0.512,0,0.984,0.08,1.416,0.24c0.432,0.16,0.8,0.384,1.104,0.672L140.205,18.496z"/>
	<path fill="#557784" d="M148.107,16.918v1.326h-2.609v7.35h-1.614v-7.35h-2.622v-1.326H148.107z"/>
	<path fill="#557784" d="M154.605,16.918v1.284h-3.846v2.406h3.03v1.242h-3.03v2.454h3.846v1.29h-5.472v-8.676H154.605z"/>
	<path fill="#557784" d="M157.672,22.204v3.39h-1.614v-8.676h2.646c0.592,0,1.1,0.061,1.521,0.183
		c0.422,0.122,0.768,0.293,1.037,0.513c0.271,0.22,0.469,0.483,0.595,0.789s0.188,0.643,0.188,1.011
		c0,0.292-0.043,0.568-0.129,0.828c-0.086,0.26-0.209,0.496-0.371,0.708s-0.362,0.398-0.601,0.558
		c-0.237,0.16-0.509,0.288-0.813,0.384c0.205,0.116,0.381,0.282,0.529,0.498l2.172,3.204h-1.453c-0.14,0-0.258-0.028-0.356-0.084
		s-0.181-0.136-0.249-0.24l-1.824-2.778c-0.068-0.104-0.143-0.178-0.225-0.222c-0.082-0.044-0.203-0.066-0.363-0.066H157.672z
		 M157.672,21.046h1.008c0.304,0,0.568-0.038,0.795-0.114c0.226-0.076,0.412-0.181,0.558-0.315c0.146-0.134,0.255-0.293,0.327-0.477
		c0.072-0.184,0.107-0.386,0.107-0.606c0-0.44-0.145-0.778-0.435-1.014c-0.29-0.236-0.733-0.354-1.329-0.354h-1.031V21.046z"/>
</g>
<g>
	<rect x="107" y="74.215" fill="#FFFFFF" width="65" height="33.785"/>
	<path fill="#557784" d="M173,109h-67V73.215h67V109z M108,107h63V75.215h-63V107z"/>
</g>
<g>
	<path fill="#557784" d="M115.876,95.594v-8.676h2.994c0.567,0,1.053,0.054,1.455,0.162c0.401,0.108,0.731,0.262,0.989,0.462
		c0.259,0.2,0.447,0.442,0.567,0.726c0.12,0.284,0.181,0.604,0.181,0.96c0,0.204-0.03,0.399-0.09,0.585
		c-0.061,0.186-0.154,0.36-0.279,0.522c-0.127,0.162-0.287,0.309-0.48,0.441c-0.193,0.132-0.425,0.244-0.693,0.336
		c1.192,0.268,1.789,0.912,1.789,1.932c0,0.368-0.07,0.708-0.211,1.02c-0.14,0.312-0.344,0.581-0.611,0.807
		c-0.269,0.226-0.598,0.403-0.99,0.531s-0.84,0.192-1.344,0.192H115.876z M117.49,90.674h1.289c0.549,0,0.965-0.1,1.248-0.3
		c0.285-0.2,0.427-0.518,0.427-0.954c0-0.452-0.128-0.774-0.384-0.966s-0.656-0.288-1.2-0.288h-1.38V90.674z M117.49,91.79v2.544
		h1.638c0.3,0,0.552-0.036,0.753-0.108c0.202-0.072,0.364-0.168,0.486-0.288c0.121-0.12,0.21-0.26,0.264-0.42
		c0.055-0.16,0.081-0.33,0.081-0.51c0-0.188-0.03-0.357-0.09-0.507c-0.06-0.15-0.154-0.278-0.282-0.384s-0.292-0.187-0.492-0.243
		c-0.199-0.056-0.441-0.084-0.726-0.084H117.49z"/>
	<path fill="#557784" d="M125.361,92.204v3.39h-1.613v-8.676h2.646c0.592,0,1.098,0.061,1.521,0.183
		c0.422,0.122,0.769,0.293,1.038,0.513c0.27,0.22,0.468,0.483,0.594,0.789s0.189,0.643,0.189,1.011c0,0.292-0.043,0.568-0.129,0.828
		c-0.086,0.26-0.211,0.496-0.373,0.708s-0.361,0.398-0.6,0.558s-0.509,0.288-0.812,0.384c0.203,0.116,0.379,0.282,0.527,0.498
		l2.172,3.204h-1.451c-0.141,0-0.26-0.028-0.357-0.084s-0.182-0.136-0.249-0.24l-1.824-2.778c-0.067-0.104-0.144-0.178-0.225-0.222
		c-0.082-0.044-0.203-0.066-0.363-0.066H125.361z M125.361,91.046h1.008c0.305,0,0.57-0.038,0.796-0.114
		c0.226-0.076,0.411-0.181,0.558-0.315c0.146-0.134,0.256-0.293,0.327-0.477c0.072-0.184,0.108-0.386,0.108-0.606
		c0-0.44-0.146-0.778-0.436-1.014c-0.29-0.236-0.732-0.354-1.328-0.354h-1.033V91.046z"/>
	<path fill="#557784" d="M139.18,95.594h-1.248c-0.141,0-0.255-0.035-0.345-0.105c-0.091-0.07-0.155-0.157-0.195-0.261l-0.647-1.77
		h-3.594l-0.648,1.77c-0.032,0.092-0.096,0.176-0.189,0.252c-0.094,0.076-0.209,0.114-0.345,0.114h-1.254l3.407-8.676h1.65
		L139.18,95.594z M133.564,92.318h2.766l-1.057-2.886c-0.048-0.128-0.101-0.279-0.158-0.453c-0.059-0.174-0.115-0.363-0.172-0.567
		c-0.056,0.204-0.111,0.394-0.164,0.57c-0.055,0.176-0.107,0.33-0.16,0.462L133.564,92.318z"/>
	<path fill="#557784" d="M141.1,86.927c0.049,0.006,0.092,0.018,0.129,0.036c0.038,0.018,0.075,0.044,0.111,0.078
		c0.036,0.034,0.076,0.079,0.12,0.135l4.554,5.802c-0.016-0.14-0.027-0.277-0.033-0.411c-0.006-0.134-0.009-0.259-0.009-0.375
		v-5.274h1.422v8.676h-0.834c-0.128,0-0.233-0.02-0.317-0.06s-0.166-0.112-0.246-0.216l-4.536-5.778
		c0.012,0.128,0.021,0.255,0.026,0.381s0.01,0.241,0.01,0.345v5.328h-1.422v-8.676h0.846
		C140.992,86.918,141.052,86.921,141.1,86.927z"/>
	<path fill="#557784" d="M155.109,93.548c0.088,0,0.164,0.034,0.229,0.102l0.636,0.69c-0.353,0.436-0.785,0.77-1.3,1.002
		c-0.514,0.232-1.131,0.348-1.85,0.348c-0.645,0-1.224-0.11-1.738-0.33c-0.514-0.22-0.953-0.526-1.316-0.918
		c-0.364-0.392-0.643-0.86-0.837-1.404s-0.291-1.138-0.291-1.782c0-0.652,0.108-1.249,0.323-1.791
		c0.217-0.542,0.521-1.009,0.912-1.401c0.393-0.392,0.861-0.697,1.408-0.915c0.545-0.218,1.148-0.327,1.809-0.327
		c0.644,0,1.207,0.103,1.689,0.309c0.481,0.206,0.895,0.479,1.238,0.819l-0.54,0.75c-0.032,0.048-0.073,0.09-0.123,0.126
		s-0.119,0.054-0.207,0.054c-0.092,0-0.187-0.036-0.282-0.108c-0.096-0.072-0.218-0.15-0.365-0.234
		c-0.148-0.084-0.336-0.162-0.562-0.234c-0.226-0.072-0.513-0.108-0.86-0.108c-0.408,0-0.783,0.071-1.125,0.213
		s-0.637,0.345-0.883,0.609c-0.246,0.264-0.438,0.585-0.576,0.963c-0.138,0.378-0.207,0.803-0.207,1.275
		c0,0.488,0.069,0.922,0.207,1.302c0.139,0.38,0.325,0.7,0.562,0.96c0.235,0.26,0.514,0.459,0.834,0.597
		c0.319,0.138,0.664,0.207,1.032,0.207c0.22,0,0.419-0.012,0.597-0.036c0.179-0.024,0.343-0.062,0.492-0.114
		c0.149-0.052,0.292-0.119,0.426-0.201s0.267-0.183,0.399-0.303c0.039-0.036,0.082-0.065,0.125-0.087
		C155.01,93.559,155.058,93.548,155.109,93.548z"/>
	<path fill="#557784" d="M164.512,95.594h-1.627v-3.792h-4.067v3.792h-1.626v-8.676h1.626v3.732h4.067v-3.732h1.627V95.594z"/>
</g>
<g>
	<rect x="107" y="114.215" fill="#FFFFFF" width="65" height="33.785"/>
	<path fill="#557784" d="M173,149h-67v-35.785h67V149z M108,147h63v-31.785h-63V147z"/>
</g>
<g>
	<path fill="#557784" d="M115.876,135.594v-8.676h2.994c0.567,0,1.053,0.054,1.455,0.162c0.401,0.107,0.731,0.262,0.989,0.462
		c0.259,0.2,0.447,0.442,0.567,0.726c0.12,0.284,0.181,0.604,0.181,0.96c0,0.204-0.03,0.399-0.09,0.585
		c-0.061,0.186-0.154,0.36-0.279,0.522c-0.127,0.161-0.287,0.309-0.48,0.44c-0.193,0.133-0.425,0.244-0.693,0.336
		c1.192,0.269,1.789,0.912,1.789,1.933c0,0.368-0.07,0.708-0.211,1.021c-0.14,0.312-0.344,0.58-0.611,0.807
		c-0.269,0.226-0.598,0.402-0.99,0.531c-0.393,0.127-0.84,0.191-1.344,0.191H115.876z M117.49,130.674h1.289
		c0.549,0,0.965-0.1,1.248-0.301c0.285-0.199,0.427-0.518,0.427-0.953c0-0.452-0.128-0.774-0.384-0.967
		c-0.256-0.191-0.656-0.287-1.2-0.287h-1.38V130.674z M117.49,131.789v2.545h1.638c0.3,0,0.552-0.036,0.753-0.108
		c0.202-0.071,0.364-0.168,0.486-0.288c0.121-0.119,0.21-0.26,0.264-0.42c0.055-0.16,0.081-0.33,0.081-0.51
		c0-0.188-0.03-0.357-0.09-0.507c-0.06-0.15-0.154-0.278-0.282-0.384c-0.128-0.106-0.292-0.188-0.492-0.244
		c-0.199-0.055-0.441-0.084-0.726-0.084H117.49z"/>
	<path fill="#557784" d="M125.361,132.203v3.391h-1.613v-8.676h2.646c0.592,0,1.098,0.061,1.521,0.183
		c0.422,0.122,0.769,0.294,1.038,0.513c0.27,0.221,0.468,0.483,0.594,0.789c0.126,0.307,0.189,0.644,0.189,1.012
		c0,0.291-0.043,0.568-0.129,0.828s-0.211,0.496-0.373,0.707c-0.162,0.213-0.361,0.398-0.6,0.559s-0.509,0.288-0.812,0.384
		c0.203,0.116,0.379,0.282,0.527,0.498l2.172,3.204h-1.451c-0.141,0-0.26-0.027-0.357-0.084s-0.182-0.136-0.249-0.24l-1.824-2.777
		c-0.067-0.104-0.144-0.178-0.225-0.223c-0.082-0.044-0.203-0.066-0.363-0.066H125.361z M125.361,131.046h1.008
		c0.305,0,0.57-0.038,0.796-0.114s0.411-0.181,0.558-0.314c0.146-0.135,0.256-0.293,0.327-0.478
		c0.072-0.184,0.108-0.386,0.108-0.606c0-0.439-0.146-0.777-0.436-1.014s-0.732-0.354-1.328-0.354h-1.033V131.046z"/>
	<path fill="#557784" d="M139.18,135.594h-1.248c-0.141,0-0.255-0.035-0.345-0.105c-0.091-0.069-0.155-0.156-0.195-0.261
		l-0.647-1.771h-3.594l-0.648,1.771c-0.032,0.093-0.096,0.177-0.189,0.253c-0.094,0.075-0.209,0.113-0.345,0.113h-1.254l3.407-8.676
		h1.65L139.18,135.594z M133.564,132.318h2.766l-1.057-2.887c-0.048-0.128-0.101-0.279-0.158-0.453
		c-0.059-0.174-0.115-0.363-0.172-0.566c-0.056,0.203-0.111,0.394-0.164,0.57c-0.055,0.176-0.107,0.329-0.16,0.461L133.564,132.318z
		"/>
	<path fill="#557784" d="M141.1,126.927c0.049,0.006,0.092,0.019,0.129,0.036c0.038,0.018,0.075,0.044,0.111,0.078
		c0.036,0.033,0.076,0.078,0.12,0.135l4.554,5.802c-0.016-0.14-0.027-0.276-0.033-0.411c-0.006-0.134-0.009-0.259-0.009-0.375
		v-5.273h1.422v8.676h-0.834c-0.128,0-0.233-0.02-0.317-0.061c-0.084-0.039-0.166-0.111-0.246-0.215l-4.536-5.779
		c0.012,0.129,0.021,0.256,0.026,0.382s0.01,0.241,0.01,0.345v5.328h-1.422v-8.676h0.846
		C140.992,126.918,141.052,126.921,141.1,126.927z"/>
	<path fill="#557784" d="M155.109,133.548c0.088,0,0.164,0.034,0.229,0.103l0.636,0.689c-0.353,0.436-0.785,0.77-1.3,1.002
		c-0.514,0.232-1.131,0.348-1.85,0.348c-0.645,0-1.224-0.109-1.738-0.33c-0.514-0.22-0.953-0.525-1.316-0.918
		c-0.364-0.392-0.643-0.859-0.837-1.404c-0.194-0.543-0.291-1.137-0.291-1.781c0-0.652,0.108-1.249,0.323-1.791
		c0.217-0.542,0.521-1.009,0.912-1.4c0.393-0.393,0.861-0.697,1.408-0.916c0.545-0.218,1.148-0.326,1.809-0.326
		c0.644,0,1.207,0.103,1.689,0.309c0.481,0.206,0.895,0.479,1.238,0.818l-0.54,0.75c-0.032,0.049-0.073,0.09-0.123,0.127
		c-0.05,0.035-0.119,0.054-0.207,0.054c-0.092,0-0.187-0.036-0.282-0.108s-0.218-0.15-0.365-0.234
		c-0.148-0.084-0.336-0.161-0.562-0.233c-0.226-0.071-0.513-0.108-0.86-0.108c-0.408,0-0.783,0.071-1.125,0.213
		c-0.342,0.143-0.637,0.346-0.883,0.609s-0.438,0.585-0.576,0.963c-0.138,0.379-0.207,0.803-0.207,1.275
		c0,0.488,0.069,0.922,0.207,1.302c0.139,0.38,0.325,0.7,0.562,0.96c0.235,0.26,0.514,0.459,0.834,0.598
		c0.319,0.138,0.664,0.207,1.032,0.207c0.22,0,0.419-0.013,0.597-0.037c0.179-0.023,0.343-0.062,0.492-0.113
		c0.149-0.053,0.292-0.119,0.426-0.201s0.267-0.184,0.399-0.303c0.039-0.036,0.082-0.065,0.125-0.088
		C155.01,133.559,155.058,133.548,155.109,133.548z"/>
	<path fill="#557784" d="M164.512,135.594h-1.627v-3.792h-4.067v3.792h-1.626v-8.676h1.626v3.732h4.067v-3.732h1.627V135.594z"/>
</g>
</svg>
