<?xml version="1.0" encoding="utf-8"?>
<!-- Generator: Adobe Illustrator 15.1.0, SVG Export Plug-In . SVG Version: 6.00 Build 0)  -->
<!DOCTYPE svg PUBLIC "-//W3C//DTD SVG 1.1//EN" "http://www.w3.org/Graphics/SVG/1.1/DTD/svg11.dtd">
<svg version="1.1" id="Layer_1" xmlns="http://www.w3.org/2000/svg" xmlns:xlink="http://www.w3.org/1999/xlink" x="0px" y="0px"
	 width="218px" height="250px" viewBox="0 0 218 250" enable-background="new 0 0 218 250" xml:space="preserve">
<rect x="23.5" y="17.5" fill="#FFFFFF" stroke="#557784" stroke-width="2" stroke-miterlimit="10" width="80" height="148.334"/>
<rect x="113.5" y="17.5" fill="#FFFFFF" stroke="#557784" stroke-width="2" stroke-miterlimit="10" width="80" height="148.334"/>
<g id="Layer_4">
</g>
<g id="Layer_5">
</g>
<rect x="31" y="44.215" fill="#FFFFFF" stroke="#557784" stroke-width="2" stroke-miterlimit="10" width="65" height="33.785"/>
<text transform="matrix(1 0 0 1 39 65.5938)" fill="#557784" font-family="'Lato-Bold'" font-size="12">BRANCH</text>
<text transform="matrix(1 0 0 1 39 35.5938)" fill="#557784" font-family="'Lato-Bold'" font-size="12">MASTER</text>
<rect x="31" y="84.215" fill="#FFFFFF" stroke="#557784" stroke-width="2" stroke-miterlimit="10" width="65" height="33.785"/>
<text transform="matrix(1 0 0 1 39 105.5938)" fill="#557784" font-family="'Lato-Bold'" font-size="12">BRANCH</text>
<rect x="31" y="124.215" fill="#FFFFFF" stroke="#557784" stroke-width="2" stroke-miterlimit="10" width="65" height="33.785"/>
<text transform="matrix(1 0 0 1 39 145.5938)" fill="#557784" font-family="'Lato-Bold'" font-size="12">BRANCH</text>
<path fill="#557784" d="M97.029,194.624c-1.749-0.559-3.523-0.992-5.54-1.117c-1.453-0.089-2.833-0.185-4.225-0.452
	c-4.782-0.919-1.386-3.889-1.062-5.728c-0.684-0.342-1.366-0.652-2.389-0.8c-1.661-0.24-3.341-0.333-5.054-0.286
	c-3.147,0.088-6.353,0.899-9.5,0.683c-1.579-0.109-3.233-0.381-4.825-0.289c-1.985,0.112-3.707,0.572-5.582,0.907
	c-2.829,0.505-5.921,0.691-8.852,0.948c-1.424,0.123-3.351,0.203-4.58,0.667c-1.258,0.476-1.654,1.204-2.626,1.805
	c-1.93,1.193-4.289,2.168-6.711,3.021c-2.63,0.926-5.225,1.625-8.008,2.376c-1.405,0.379-3.739,0.828-5.078,1.523
	c0.139,0.06,0.245,0.149,0.272,0.267c0.456,1.928,2.512,3.501,3.986,5.212c2.945,1.455,3.805,3.923,4.588,6.002
	c0.738,1.957,1.638,4.021,2.137,6.052c2.367,3.261,4.71,6.569,6.832,9.875c1.149,1.793,2.219,3.639,3.126,5.475
	c0.472,0.956,0.718,1.997,1.233,2.97c-0.03,0.006-0.06,0.012-0.09,0.018c0.002,0.001,0.004,0.003,0.006,0.004
	c-0.002,0-0.004,0.001-0.006,0.001c0.051,0.039,0.103,0.083,0.153,0.121c0.008,0.007,0.018,0.015,0.027,0.021
	c0.02,0.034,0.037,0.071,0.057,0.105c0.021-0.003,0.041-0.006,0.061-0.01c0.977,0.821,1.992,2.496,1.992,2.496l3.271,0.49
	c0,0,2.418,2.288,5.523,2.977c3.103,0.688,5.326,0.825,8.233,0.341c2.907-0.485,3.394-0.136,8.919,0.313
	c5.525,0.448,9.167-1.076,9.167-1.076s0.886-1.188,2.521-2.707c0.924-0.857,1.676-1.671,2.596-2.499
	c-0.021,0.004-0.042,0.01-0.064,0.015c0.643-0.6,1.354-1.199,2.215-1.792c0.299-0.048,0.596-0.099,0.891-0.148
	c1.627-1.72,0.796-3.608,0.112-5.504c-0.548-1.524,0.546-2.076,1.989-3.191c0.214-0.237,0.441-0.472,0.668-0.711
	c0.493-0.518,0.604-0.979,0.852-1.529c0.264-0.588,0.725-1.059,1.545-1.39c0.796-0.79,1.272-1.538,1.274-2.375
	c-0.554-1.055-1.363-2.062-2.431-2.991c-0.767-0.668-1.451-1.208-1.725-1.996c-0.372-1.068,0.386-2.063,2.181-2.404
	c0.058-0.024,0.124-0.044,0.203-0.059c5.444-0.955,5.498-4.188,5.517-6.873c0.005-0.63-0.034-1.324,0.399-1.923
	c0.403-0.556,1.068-1.154,1.298-1.729c0.263-0.652,0.39-1.288,0.453-1.92C101.106,196.676,99.569,195.434,97.029,194.624z"/>
<text transform="matrix(1 0 0 1 39 215.5938)" fill="#FFFFFF" font-family="'Lato-Bold'" font-size="12">ICEBERG</text>
<polygon fill="#557784" points="68.157,165.834 68.157,172.309 74.512,172.309 63.083,181.75 62.893,181.75 51.463,172.309 
	57.818,172.309 57.818,165.834 "/>
<rect x="121" y="44.215" fill="#FFFFFF" stroke="#557784" stroke-width="2" stroke-miterlimit="10" width="65" height="33.785"/>
<text transform="matrix(1 0 0 1 129 65.5938)" fill="#557784" font-family="'Lato-Bold'" font-size="12">BRANCH</text>
<text transform="matrix(1 0 0 1 129 35.5938)" fill="#557784" font-family="'Lato-Bold'" font-size="12">MASTER</text>
<rect x="121" y="84.215" fill="#FFFFFF" stroke="#557784" stroke-width="2" stroke-miterlimit="10" width="65" height="33.785"/>
<text transform="matrix(1 0 0 1 129 105.5938)" fill="#557784" font-family="'Lato-Bold'" font-size="12">BRANCH</text>
<rect x="121" y="124.215" fill="#FFFFFF" stroke="#557784" stroke-width="2" stroke-miterlimit="10" width="65" height="33.785"/>
<text transform="matrix(1 0 0 1 129 145.5938)" fill="#557784" font-family="'Lato-Bold'" font-size="12">BRANCH</text>
<path fill="#557784" d="M187.029,194.624c-1.749-0.559-3.523-0.992-5.541-1.117c-1.452-0.089-2.832-0.185-4.225-0.452
	c-4.781-0.919-1.386-3.889-1.062-5.728c-0.684-0.342-1.365-0.652-2.389-0.8c-1.661-0.24-3.341-0.333-5.055-0.286
	c-3.146,0.088-6.353,0.899-9.5,0.683c-1.579-0.109-3.232-0.381-4.824-0.289c-1.985,0.112-3.707,0.572-5.582,0.907
	c-2.828,0.505-5.921,0.691-8.852,0.948c-1.424,0.123-3.352,0.203-4.58,0.667c-1.258,0.476-1.653,1.204-2.625,1.805
	c-1.93,1.193-4.289,2.168-6.711,3.021c-2.631,0.926-5.225,1.625-8.009,2.376c-1.405,0.379-3.739,0.828-5.078,1.523
	c0.14,0.06,0.245,0.149,0.272,0.267c0.455,1.928,2.512,3.501,3.986,5.212c2.945,1.455,3.805,3.923,4.588,6.002
	c0.738,1.957,1.639,4.021,2.137,6.052c2.367,3.261,4.711,6.569,6.832,9.875c1.148,1.793,2.219,3.639,3.126,5.475
	c0.472,0.956,0.718,1.997,1.233,2.97c-0.031,0.006-0.061,0.012-0.091,0.018c0.003,0.001,0.005,0.003,0.007,0.004
	c-0.002,0-0.004,0.001-0.007,0.001c0.052,0.039,0.103,0.083,0.153,0.121c0.008,0.007,0.018,0.015,0.027,0.021
	c0.02,0.034,0.036,0.071,0.057,0.105c0.021-0.003,0.041-0.006,0.061-0.01c0.977,0.821,1.992,2.496,1.992,2.496l3.271,0.49
	c0,0,2.419,2.288,5.522,2.977c3.104,0.688,5.326,0.825,8.233,0.341c2.907-0.485,3.394-0.136,8.919,0.313
	c5.525,0.448,9.167-1.076,9.167-1.076s0.886-1.188,2.521-2.707c0.924-0.857,1.676-1.671,2.596-2.499
	c-0.021,0.004-0.041,0.01-0.064,0.015c0.643-0.6,1.354-1.199,2.216-1.792c0.3-0.048,0.597-0.099,0.891-0.148
	c1.627-1.72,0.796-3.608,0.112-5.504c-0.549-1.524,0.546-2.076,1.989-3.191c0.214-0.237,0.441-0.472,0.669-0.711
	c0.492-0.518,0.604-0.979,0.852-1.529c0.264-0.588,0.725-1.059,1.545-1.39c0.795-0.79,1.271-1.538,1.273-2.375
	c-0.554-1.055-1.363-2.062-2.431-2.991c-0.767-0.668-1.45-1.208-1.725-1.996c-0.372-1.068,0.386-2.063,2.181-2.404
	c0.059-0.024,0.123-0.044,0.203-0.059c5.443-0.955,5.498-4.188,5.517-6.873c0.005-0.63-0.034-1.324,0.399-1.923
	c0.402-0.556,1.068-1.154,1.299-1.729c0.262-0.652,0.389-1.288,0.452-1.92C191.105,196.676,189.568,195.434,187.029,194.624z"/>
<text transform="matrix(1 0 0 1 129 215.5938)" fill="#FFFFFF" font-family="'Lato-Bold'" font-size="12">ICEBERG</text>
<polygon fill="#557784" points="158.157,165.834 158.157,172.309 164.512,172.309 153.083,181.75 152.893,181.75 141.463,172.309 
	147.818,172.309 147.818,165.834 "/>
</svg>
