<?xml version="1.0" encoding="utf-8"?>
<!-- Generator: Adobe Illustrator 18.1.1, SVG Export Plug-In . SVG Version: 6.00 Build 0)  -->
<svg version="1.1" id="Layer_1" xmlns="http://www.w3.org/2000/svg" xmlns:xlink="http://www.w3.org/1999/xlink" x="0px" y="0px"
	 viewBox="78 26 255 50" enable-background="new 78 26 255 50" xml:space="preserve">
<path fill="#FFFFFF" d="M130.1,60.5l2.2-0.4V43.3l-2.1-0.2v-1.2h13.6l0.2,3.6l-1.3,0l-0.6-2.1l-7.5-0.2v7.6l5.6-0.1l0.5-1.8h1.2v5.3
	h-1.4l-0.3-1.9l-5.6-0.1v7.9l3.7,0.3v1.2h-8.3L130.1,60.5C130.1,60.5,130.1,60.5,130.1,60.5z M144.3,57.5c0.1-0.6,0.2-1.1,0.6-1.6
	c0.3-0.4,0.7-0.8,1.2-1.1c0.5-0.3,1-0.6,1.6-0.8s1.2-0.4,1.7-0.5c0.6-0.1,1.1-0.2,1.7-0.3c0.5,0,1-0.1,1.4-0.1V52
	c0-0.7-0.1-1.2-0.3-1.6c-0.2-0.4-0.4-0.7-0.7-1c-0.3-0.2-0.7-0.4-1.1-0.5c-0.4-0.1-0.9-0.1-1.4-0.1c-0.2,0-0.5,0-0.8,0.1
	c-0.3,0-0.6,0.1-0.9,0.2s-0.7,0.2-1,0.3c-0.3,0.1-0.6,0.2-0.9,0.4l-0.5-1.1c0.3-0.3,0.7-0.5,1.1-0.7c0.5-0.2,0.9-0.4,1.4-0.5
	c0.5-0.1,0.9-0.2,1.4-0.3c0.5-0.1,0.8-0.1,1.2-0.1c0.7,0,1.3,0.1,1.9,0.2c0.6,0.1,1.1,0.4,1.6,0.7c0.5,0.3,0.8,0.8,1.1,1.4
	c0.3,0.6,0.4,1.4,0.4,2.3l0,8.7h1.6v0.8c-0.3,0.2-0.7,0.3-1.1,0.4c-0.4,0.1-0.9,0.2-1.3,0.2c-0.2,0-0.3,0-0.5,0
	c-0.2,0-0.3-0.1-0.5-0.2c-0.1-0.1-0.3-0.2-0.4-0.4c-0.1-0.2-0.1-0.4-0.1-0.7v-0.4c-0.2,0.2-0.4,0.5-0.7,0.7
	c-0.3,0.2-0.6,0.4-0.9,0.5c-0.3,0.2-0.7,0.3-1.2,0.4c-0.4,0.1-0.9,0.1-1.5,0.1c-0.7,0-1.3-0.1-1.8-0.4c-0.5-0.2-1-0.6-1.3-1
	c-0.4-0.4-0.6-0.9-0.8-1.4C144.3,58.6,144.3,58.1,144.3,57.5L144.3,57.5z M146.8,57.5c0,0.5,0.1,0.9,0.2,1.3
	c0.1,0.3,0.3,0.6,0.6,0.8c0.3,0.2,0.6,0.4,0.9,0.5c0.4,0.1,0.8,0.1,1.3,0.1c0.3,0,0.5,0,0.8-0.1c0.3-0.1,0.5-0.1,0.8-0.3
	c0.2-0.1,0.5-0.2,0.7-0.3c0.2-0.1,0.4-0.3,0.5-0.4c0-0.8,0-1.6,0-2.4c0-0.8,0-1.6,0-2.4c-0.4,0-0.7,0-1.2,0.1
	c-0.4,0-0.8,0.1-1.3,0.2c-0.4,0.1-0.8,0.2-1.2,0.4c-0.4,0.2-0.8,0.3-1.1,0.6c-0.3,0.2-0.5,0.5-0.7,0.8
	C146.9,56.8,146.8,57.1,146.8,57.5L146.8,57.5z M157.8,60.5l2.2-0.3V49.8l-1.8-0.9v-0.8l3.5-1l0.6,0.3v12.8l2.1,0.3v1.1h-6.5V60.5z
	 M160.6,44.1c-0.2,0-0.4,0-0.6-0.1c-0.2-0.1-0.4-0.2-0.5-0.3c-0.1-0.1-0.3-0.3-0.4-0.5c-0.1-0.2-0.1-0.4-0.1-0.7
	c0-0.3,0.1-0.5,0.2-0.7c0.1-0.2,0.3-0.4,0.4-0.6c0.2-0.2,0.4-0.3,0.6-0.4c0.2-0.1,0.4-0.1,0.7-0.1c0.6,0,1,0.2,1.2,0.5
	c0.3,0.3,0.4,0.7,0.4,1.1c0,0.3-0.1,0.5-0.2,0.8c-0.1,0.2-0.3,0.4-0.4,0.6c-0.2,0.2-0.4,0.3-0.6,0.4
	C161.1,44.1,160.9,44.1,160.6,44.1L160.6,44.1z M165.5,60.5l2.1-0.3V49.9l-1.8-1v-0.8l3.4-1l0.6,0.3v2c0.2-0.2,0.4-0.5,0.7-0.7
	c0.3-0.3,0.7-0.5,1.1-0.7c0.4-0.2,0.8-0.4,1.3-0.5c0.4-0.1,0.9-0.2,1.2-0.2c0.3,0,0.5,0,0.8,0c0.2,0,0.4,0,0.5,0.1v2.6
	c-0.1,0-0.3-0.1-0.4-0.2c-0.1-0.1-0.3-0.1-0.5-0.1c-0.2,0-0.4-0.1-0.6-0.1c-0.2,0-0.5,0-0.8,0c-0.7,0-1.3,0.1-1.7,0.3
	c-0.5,0.2-0.9,0.4-1.3,0.6v9.9l3.6,0.3v1.1h-8.1L165.5,60.5L165.5,60.5z M176.3,60.5l1.9-0.3V43l-2.2-0.5v-1.1l4-0.5l0.6,0.3l0,5.6
	l0,2.2c0.4-0.3,0.8-0.6,1.2-0.8c0.4-0.2,0.9-0.4,1.3-0.6c0.4-0.2,0.9-0.3,1.3-0.4c0.4-0.1,0.8-0.1,1.1-0.1c0.9,0,1.6,0.1,2.1,0.4
	c0.6,0.3,1,0.7,1.3,1.2c0.3,0.5,0.5,1.2,0.7,2.1c0.1,0.9,0.2,1.9,0.2,3v6.4l1.9,0.3v1.1h-6.5v-1.1l2.1-0.3v-5.3c0-1,0-1.8-0.1-2.6
	c0-0.7-0.2-1.4-0.4-1.9c-0.2-0.5-0.5-0.9-0.9-1.1c-0.4-0.3-0.9-0.4-1.7-0.4c-0.3,0-0.6,0-0.9,0.1c-0.3,0-0.6,0.1-0.9,0.2
	c-0.3,0.1-0.6,0.2-0.9,0.3c-0.3,0.1-0.6,0.3-0.9,0.5v10.2l1.9,0.3v1.1h-6.2L176.3,60.5L176.3,60.5z M192.2,54.5c0-1.1,0.2-2.1,0.5-3
	c0.3-0.9,0.8-1.7,1.4-2.4c0.6-0.7,1.3-1.2,2.2-1.6c0.9-0.4,1.8-0.6,2.9-0.6c0.7,0,1.4,0.1,2,0.3c0.6,0.2,1.1,0.6,1.5,1
	c0.4,0.5,0.8,1,1,1.7c0.2,0.7,0.4,1.4,0.4,2.2c0,0.5,0,1,0,1.4c0,0.4-0.1,0.7-0.1,1h-9.4v0.1c0,0,0,0.1,0,0.1c0,1,0.2,1.9,0.5,2.5
	c0.3,0.7,0.7,1.2,1.2,1.6c0.5,0.4,1,0.7,1.6,0.8c0.6,0.2,1.1,0.2,1.7,0.2c0.3,0,0.7,0,1-0.1c0.4,0,0.7-0.1,1.1-0.2
	c0.3-0.1,0.7-0.2,0.9-0.2c0.3-0.1,0.5-0.2,0.7-0.3l0.5,1.1c-0.2,0.2-0.6,0.4-1,0.6c-0.4,0.2-0.8,0.3-1.3,0.5c-0.5,0.1-1,0.2-1.5,0.3
	c-0.5,0.1-1,0.1-1.5,0.1c-1,0-1.9-0.2-2.7-0.5c-0.8-0.4-1.5-0.8-2-1.5c-0.5-0.6-0.9-1.4-1.2-2.3C192.4,56.6,192.2,55.6,192.2,54.5
	L192.2,54.5z M201.6,53.2c0-0.4,0-0.9,0-1.3c0-0.4-0.1-0.8-0.2-1.2c-0.1-0.4-0.2-0.8-0.4-1.1c-0.2-0.3-0.4-0.6-0.8-0.8
	c-0.2-0.1-0.5-0.2-0.8-0.3c-0.3-0.1-0.6-0.1-0.9-0.1c-0.5,0-0.9,0.1-1.4,0.3c-0.4,0.2-0.8,0.5-1.2,0.9c-0.4,0.4-0.6,0.9-0.9,1.5
	c-0.2,0.6-0.4,1.4-0.5,2.2L201.6,53.2L201.6,53.2z M205.9,57.5c0.1-0.6,0.2-1.1,0.6-1.6c0.3-0.4,0.7-0.8,1.2-1.1
	c0.5-0.3,1-0.6,1.6-0.8c0.6-0.2,1.2-0.4,1.7-0.5c0.6-0.1,1.1-0.2,1.7-0.3c0.5-0.1,1-0.1,1.4-0.1V52c0-0.7-0.1-1.2-0.3-1.6
	c-0.2-0.4-0.4-0.7-0.7-1c-0.3-0.2-0.7-0.4-1.1-0.5c-0.4-0.1-0.9-0.1-1.4-0.1c-0.2,0-0.5,0-0.8,0.1c-0.3,0-0.6,0.1-0.9,0.2
	c-0.3,0.1-0.7,0.2-1,0.3c-0.3,0.1-0.6,0.2-0.9,0.4l-0.5-1.1c0.3-0.3,0.7-0.5,1.1-0.7c0.4-0.2,0.9-0.4,1.4-0.5
	c0.5-0.1,0.9-0.2,1.4-0.3c0.5-0.1,0.8-0.1,1.2-0.1c0.7,0,1.3,0.1,1.9,0.2c0.6,0.1,1.1,0.4,1.6,0.7c0.5,0.3,0.8,0.8,1.1,1.4
	c0.3,0.6,0.4,1.4,0.4,2.3l0,8.7h1.6v0.8c-0.3,0.2-0.7,0.3-1.1,0.4c-0.4,0.1-0.9,0.2-1.3,0.2c-0.2,0-0.3,0-0.5,0
	c-0.2,0-0.3-0.1-0.5-0.2c-0.1-0.1-0.3-0.2-0.4-0.4c-0.1-0.2-0.1-0.4-0.1-0.7v-0.4c-0.2,0.2-0.4,0.5-0.7,0.7
	c-0.3,0.2-0.6,0.4-0.9,0.5c-0.3,0.2-0.7,0.3-1.2,0.4c-0.4,0.1-0.9,0.1-1.5,0.1c-0.7,0-1.3-0.1-1.8-0.4c-0.5-0.2-1-0.6-1.3-1
	c-0.4-0.4-0.6-0.9-0.8-1.4C205.8,58.6,205.8,58.1,205.9,57.5L205.9,57.5z M208.3,57.5c0,0.5,0.1,0.9,0.2,1.3
	c0.1,0.3,0.3,0.6,0.6,0.8c0.3,0.2,0.6,0.4,0.9,0.5c0.4,0.1,0.8,0.1,1.3,0.1c0.3,0,0.5,0,0.8-0.1c0.3-0.1,0.5-0.1,0.8-0.3
	c0.2-0.1,0.5-0.2,0.7-0.3s0.4-0.3,0.5-0.4c0-0.8,0-1.6,0-2.4c0-0.8,0-1.6,0-2.4c-0.4,0-0.7,0-1.2,0.1c-0.4,0-0.8,0.1-1.3,0.2
	c-0.4,0.1-0.8,0.2-1.2,0.4c-0.4,0.2-0.8,0.3-1.1,0.6c-0.3,0.2-0.5,0.5-0.7,0.8C208.4,56.8,208.3,57.1,208.3,57.5L208.3,57.5z
	 M224.2,61.9c-0.7,0-1.4-0.1-2.1-0.4c-0.7-0.3-1.3-0.7-1.8-1.3c-0.5-0.6-0.9-1.3-1.2-2.2c-0.3-0.9-0.5-2-0.5-3.2
	c0-1.1,0.2-2.2,0.6-3.1c0.4-1,0.9-1.8,1.6-2.5c0.7-0.7,1.4-1.2,2.3-1.6c0.9-0.4,1.9-0.6,2.9-0.6c0.4,0,0.9,0,1.3,0.1
	c0.4,0.1,0.8,0.1,1.1,0.2V43l-2.7-0.5v-1.1l4.6-0.5l0.6,0.3v19.2h1.7v1c-0.1,0.1-0.3,0.1-0.5,0.2c-0.2,0.1-0.4,0.1-0.7,0.2
	c-0.2,0.1-0.5,0.1-0.7,0.1c-0.2,0-0.5,0-0.7,0c-0.1,0-0.3,0-0.5,0c-0.2,0-0.3-0.1-0.4-0.2c-0.1-0.1-0.2-0.2-0.3-0.4
	c-0.1-0.2-0.1-0.4-0.1-0.7v-0.3c-0.1,0.1-0.3,0.3-0.6,0.5c-0.2,0.2-0.6,0.3-0.9,0.5c-0.4,0.1-0.8,0.3-1.2,0.4
	C225.3,61.8,224.8,61.9,224.2,61.9L224.2,61.9z M225.2,60.1c0.3,0,0.5,0,0.8,0c0.2,0,0.4-0.1,0.7-0.1c0.4-0.1,0.8-0.2,1.1-0.4
	c0.3-0.2,0.5-0.4,0.7-0.5v-9.7c-0.1-0.1-0.2-0.2-0.3-0.3c-0.1-0.1-0.3-0.2-0.5-0.3c-0.2-0.1-0.5-0.2-0.8-0.2
	c-0.3-0.1-0.6-0.1-1.1-0.1c-0.3,0-0.7,0-1,0.1c-0.3,0.1-0.7,0.2-1,0.4c-0.3,0.2-0.7,0.4-1,0.7c-0.3,0.3-0.6,0.7-0.8,1.1
	c-0.2,0.4-0.4,0.9-0.6,1.5c-0.1,0.6-0.2,1.2-0.2,2c0,1,0.1,1.9,0.3,2.7s0.5,1.4,0.9,1.9c0.4,0.5,0.8,0.9,1.3,1.1
	C224.2,60,224.7,60.1,225.2,60.1L225.2,60.1z M234.6,52.3c0-1.1,0.1-2.1,0.4-3c0.3-0.9,0.6-1.8,1.1-2.6c0.5-0.8,1-1.5,1.6-2.1
	c0.6-0.6,1.3-1.1,2.1-1.6c0.8-0.4,1.6-0.8,2.4-1c0.9-0.2,1.7-0.3,2.6-0.3c0.6,0,1.2,0,1.7,0.1c0.5,0.1,1,0.2,1.4,0.3
	c0.4,0.1,0.8,0.2,1.2,0.3c0.4,0.1,0.7,0.2,0.9,0.2l-0.2,3.5h-1l-0.5-2.3c-0.5-0.3-1.1-0.6-1.8-0.7c-0.7-0.2-1.5-0.2-2.3-0.2
	c-0.7,0-1.3,0.1-1.9,0.3c-0.6,0.2-1.2,0.4-1.8,0.8c-0.6,0.3-1.1,0.8-1.6,1.3c-0.5,0.5-0.9,1.1-1.2,1.7c-0.4,0.7-0.6,1.4-0.8,2.2
	c-0.2,0.8-0.3,1.7-0.3,2.6c0,0.8,0.1,1.6,0.2,2.4c0.1,0.8,0.4,1.5,0.7,2.2c0.3,0.7,0.7,1.3,1.1,1.9c0.4,0.6,0.9,1,1.5,1.5
	c0.6,0.4,1.2,0.7,1.9,0.9c0.7,0.2,1.5,0.3,2.3,0.3c1,0,1.9-0.1,2.7-0.4c0.8-0.3,1.4-0.6,1.7-1l0.6-2.1c0.1,0,0.3,0,0.4,0
	c0.2,0,0.3,0,0.4,0v3.4c-0.3,0-0.6,0.1-1,0.2c-0.4,0.1-0.8,0.3-1.3,0.4c-0.5,0.1-1.1,0.3-1.8,0.4c-0.7,0.1-1.5,0.2-2.4,0.2
	c-1.3,0-2.5-0.2-3.6-0.7c-1.1-0.5-2.1-1.1-2.9-2c-0.8-0.9-1.4-1.9-1.9-3C234.8,55,234.6,53.7,234.6,52.3L234.6,52.3z M251.2,60.7
	l2.2-0.2V49.3l-1.9-0.7V48l3-0.8l0.5,0.2v1.8c0.2-0.2,0.4-0.5,0.8-0.7c0.4-0.2,0.8-0.5,1.2-0.7c0.4-0.2,0.9-0.4,1.4-0.5
	c0.5-0.1,0.9-0.2,1.4-0.2c0.3,0,0.5,0,0.8,0c0.2,0,0.4,0,0.5,0.1v2c-0.2-0.1-0.5-0.2-0.8-0.2c-0.3-0.1-0.7-0.1-1.2-0.1
	c-0.4,0-0.8,0-1.2,0.1c-0.4,0.1-0.7,0.2-1,0.3c-0.3,0.1-0.6,0.2-0.9,0.4c-0.3,0.1-0.5,0.3-0.7,0.4v10.5l3.8,0.2v0.9h-7.9L251.2,60.7
	L251.2,60.7z M261.8,54.5c0-1.1,0.2-2.1,0.5-3c0.3-0.9,0.8-1.7,1.4-2.4c0.6-0.7,1.3-1.2,2.2-1.6c0.9-0.4,1.8-0.6,2.8-0.6
	c0.7,0,1.4,0.1,2,0.3c0.6,0.2,1.1,0.6,1.5,1c0.4,0.5,0.8,1,1,1.7c0.2,0.7,0.4,1.4,0.4,2.2c0,0.4,0,0.8,0,1.2c0,0.3-0.1,0.6-0.1,0.9
	h-9.9v0.1c0,1.1,0.1,2,0.4,2.7c0.3,0.8,0.6,1.4,1.1,1.9c0.5,0.5,1,0.9,1.6,1.1c0.6,0.2,1.3,0.4,2,0.4c0.4,0,0.8,0,1.2-0.1
	c0.4-0.1,0.8-0.1,1.2-0.2c0.4-0.1,0.7-0.2,1-0.3c0.3-0.1,0.5-0.2,0.7-0.4l0.4,0.9c-0.2,0.2-0.6,0.4-1,0.6c-0.4,0.2-0.8,0.3-1.3,0.5
	c-0.5,0.1-0.9,0.2-1.5,0.3c-0.5,0.1-1,0.1-1.5,0.1c-1,0-1.9-0.2-2.7-0.5c-0.8-0.4-1.4-0.8-2-1.5c-0.5-0.6-0.9-1.4-1.2-2.3
	C262,56.6,261.8,55.6,261.8,54.5L261.8,54.5z M271.7,53.1c0-0.5,0-1,0-1.5c0-0.5-0.1-0.9-0.2-1.3c-0.1-0.4-0.3-0.8-0.5-1.1
	c-0.2-0.3-0.5-0.6-0.9-0.8c-0.5-0.3-1.1-0.4-1.7-0.4c-0.6,0-1.1,0.1-1.6,0.3c-0.5,0.2-1,0.5-1.4,1c-0.4,0.4-0.7,1-1,1.6
	c-0.3,0.6-0.5,1.4-0.5,2.2L271.7,53.1L271.7,53.1z M274.9,57.6c0.1-0.6,0.2-1.1,0.5-1.5c0.3-0.4,0.7-0.8,1.2-1.2
	c0.5-0.3,1-0.6,1.6-0.8c0.6-0.2,1.2-0.4,1.8-0.5c0.6-0.1,1.3-0.2,1.9-0.3c0.6-0.1,1.2-0.1,1.7-0.1V52c0-0.7-0.1-1.3-0.3-1.8
	c-0.2-0.5-0.4-0.8-0.7-1.1c-0.3-0.3-0.7-0.5-1.2-0.6c-0.5-0.1-1-0.2-1.6-0.2c-0.3,0-0.7,0-1,0.1c-0.4,0.1-0.8,0.1-1.1,0.3
	c-0.4,0.1-0.7,0.2-1.1,0.4c-0.3,0.1-0.6,0.3-0.9,0.4l-0.4-0.9c0.3-0.3,0.7-0.5,1.2-0.7s0.9-0.4,1.4-0.5c0.5-0.1,0.9-0.2,1.4-0.3
	c0.5-0.1,0.8-0.1,1.1-0.1c0.7,0,1.3,0.1,1.9,0.2c0.6,0.1,1.1,0.4,1.6,0.7c0.5,0.3,0.8,0.8,1.1,1.4c0.3,0.6,0.4,1.4,0.4,2.3l0,8.9
	h1.7v0.7c-0.2,0.1-0.6,0.2-1,0.3c-0.4,0.1-0.8,0.1-1.2,0.1c-0.1,0-0.3,0-0.4,0c-0.1,0-0.3-0.1-0.4-0.2s-0.2-0.2-0.3-0.4
	c-0.1-0.2-0.1-0.4-0.1-0.7V60c-0.2,0.3-0.5,0.5-0.8,0.7c-0.3,0.2-0.6,0.4-1,0.6c-0.4,0.2-0.8,0.3-1.2,0.4c-0.5,0.1-1,0.1-1.5,0.1
	c-0.6,0-1.1-0.1-1.6-0.3c-0.5-0.2-1-0.5-1.4-0.8c-0.4-0.4-0.7-0.8-1-1.3C274.9,58.9,274.8,58.3,274.9,57.6L274.9,57.6z M276.8,57.6
	c0,0.5,0.1,1,0.2,1.3c0.2,0.4,0.4,0.7,0.7,0.9c0.3,0.2,0.6,0.4,1.1,0.5c0.4,0.1,0.9,0.2,1.4,0.2c0.5,0,0.9-0.1,1.3-0.2
	c0.4-0.1,0.7-0.2,1-0.4c0.3-0.1,0.5-0.3,0.8-0.4c0.2-0.1,0.4-0.3,0.5-0.4v-2.3c0-0.5,0-0.9,0-1.4c0-0.5,0-0.9,0-1.4
	c-0.5,0-0.9,0-1.5,0.1c-0.5,0-1,0.1-1.5,0.2c-0.5,0.1-1,0.2-1.5,0.4c-0.5,0.2-0.9,0.4-1.2,0.6c-0.4,0.3-0.6,0.6-0.9,0.9
	C276.9,56.8,276.8,57.2,276.8,57.6L276.8,57.6z M289.4,48.6h-2v-0.8c0.4-0.1,0.7-0.1,0.9-0.2c0.2,0,0.5-0.1,0.6-0.1
	c0.2,0,0.3-0.1,0.4-0.2c0.1-0.1,0.2-0.2,0.3-0.4c0-0.1,0.1-0.3,0.2-0.6c0.1-0.3,0.1-0.5,0.2-0.9c0.1-0.3,0.1-0.6,0.2-0.9
	c0-0.3,0.1-0.5,0.1-0.7h1v3.4h4.8v1.2h-4.8v7.6c0,0.9,0,1.6,0.1,2.1c0,0.5,0.1,1,0.2,1.3c0.1,0.3,0.3,0.5,0.5,0.7
	c0.2,0.1,0.5,0.2,0.9,0.2c0.3,0,0.6,0,0.9-0.1c0.3-0.1,0.6-0.1,0.8-0.2c0.3-0.1,0.5-0.2,0.7-0.3c0.2-0.1,0.4-0.2,0.5-0.2l0.3,0.9
	c-0.2,0.2-0.5,0.4-0.8,0.6c-0.3,0.2-0.7,0.3-1,0.4c-0.4,0.1-0.7,0.2-1.1,0.2c-0.4,0.1-0.7,0.1-1,0.1c-0.5,0-0.9-0.1-1.2-0.2
	c-0.4-0.1-0.6-0.3-0.9-0.6c-0.2-0.3-0.4-0.6-0.5-1.1c-0.1-0.4-0.2-1-0.2-1.6L289.4,48.6L289.4,48.6z M297.1,60.7l2.1-0.2V49.2
	l-1.8-0.6V48l3.1-0.8l0.5,0.2v13.1l2.1,0.2v0.9h-6L297.1,60.7L297.1,60.7z M299.6,43.6c-0.2,0-0.3,0-0.5-0.1
	c-0.1-0.1-0.3-0.1-0.4-0.2c-0.1-0.1-0.2-0.2-0.3-0.4c-0.1-0.1-0.1-0.3-0.1-0.5c0-0.2,0-0.4,0.1-0.6c0.1-0.2,0.2-0.3,0.3-0.5
	c0.1-0.1,0.3-0.2,0.5-0.3c0.2-0.1,0.4-0.1,0.5-0.1c0.4,0,0.8,0.1,1,0.4c0.2,0.2,0.3,0.5,0.3,0.9c0,0.2,0,0.4-0.1,0.6
	c-0.1,0.2-0.2,0.3-0.3,0.5c-0.1,0.1-0.3,0.2-0.5,0.3C300,43.6,299.8,43.6,299.6,43.6L299.6,43.6z M304.3,48.6l-1.4-0.2v-1h5.3v1
	l-1.8,0.2l3.3,7.9l1.2,3.5l1.2-3.4l2.9-8l-1.8-0.2v-1h4.9v1l-1.5,0.2l-5.2,13.2H310L304.3,48.6L304.3,48.6z M318.3,54.5
	c0-1.1,0.2-2.1,0.5-3c0.4-0.9,0.8-1.7,1.4-2.4c0.6-0.7,1.3-1.2,2.2-1.6c0.9-0.4,1.8-0.6,2.8-0.6c0.7,0,1.4,0.1,2,0.3
	c0.6,0.2,1.1,0.6,1.5,1c0.4,0.5,0.8,1,1,1.7c0.2,0.7,0.4,1.4,0.4,2.2c0,0.4,0,0.8,0,1.2c0,0.3-0.1,0.6-0.1,0.9h-9.9v0.1
	c0,1.1,0.1,2,0.4,2.7c0.3,0.8,0.6,1.4,1.1,1.9c0.5,0.5,1,0.9,1.6,1.1c0.6,0.2,1.3,0.4,2,0.4c0.4,0,0.8,0,1.2-0.1
	c0.4-0.1,0.8-0.1,1.2-0.2c0.4-0.1,0.7-0.2,1-0.3c0.3-0.1,0.5-0.2,0.7-0.4l0.4,0.9c-0.2,0.2-0.6,0.4-1,0.6c-0.4,0.2-0.8,0.3-1.3,0.5
	c-0.5,0.1-1,0.2-1.5,0.3c-0.5,0.1-1,0.1-1.5,0.1c-1,0-1.9-0.2-2.7-0.5c-0.8-0.4-1.4-0.8-2-1.5c-0.5-0.6-0.9-1.4-1.2-2.3
	C318.4,56.6,318.3,55.6,318.3,54.5L318.3,54.5z M328.2,53.1c0-0.5,0-1,0-1.5c0-0.5-0.1-0.9-0.2-1.3c-0.1-0.4-0.3-0.8-0.5-1.1
	c-0.2-0.3-0.5-0.6-0.9-0.8c-0.5-0.3-1.1-0.4-1.7-0.4c-0.6,0-1.1,0.1-1.6,0.3c-0.5,0.2-1,0.5-1.4,1c-0.4,0.4-0.7,1-1,1.6
	c-0.3,0.6-0.5,1.4-0.5,2.2L328.2,53.1L328.2,53.1z M78,48.9c0,0,8.5-15.7,26.4-10.9c0,0-0.4-4.1,5.2-5.5c0,0,1.2,4.2-3.6,6
	c0,0,7.1,2.4,9.4,10.8c2.4,8.5-4.5,14.7-8.4,16c-3.9,1.3-8.3,0.9-11-2.3c-2.7-3.2-1.2-6.9,0.1-8c0.9-0.8,1.5-0.9,2-0.6
	c0.6,0.4,0.5,1,0.2,2.3c-0.3,1.3,0.2,4,2.8,4.9c2.6,0.9,7.2-0.7,8.2-4.4c0.9-3.7,0-8.8-5.9-10.5c-5.9-1.6-12.4,0.8-15.2,6.5
	c-2.8,5.7-0.5,15.9,7.1,18.4c7.6,2.5,11.4,1,13.2,0.4c1.8-0.7,7.6-2.7,11.9-9c4.3-6.3,4.8-13.5,3.1-19.5
	c-1.7-6.1-6.9-12.9-15.4-15.7c-8.5-2.7-17.1,0.5-21.4,4.1C82.4,35.7,78.6,40.7,78,48.9L78,48.9z"/>
</svg>
