<svg xmlns="http://www.w3.org/2000/svg" viewBox="0 0 250 43" enable-background="new 0 0 250 43"><path d="M49.3 31.5l2.1-.4V14.5l-2.1-.2V13h13.5l.2 3.6h-1.3l-.6-2-7.4-.2v7.5l5.5-.1.5-1.8h1.2v5.3h-1.4l-.3-1.9-5.5-.1v7.8l3.6.3v1.2h-8.2v-1.1zm14.1-3c.1-.6.2-1.1.6-1.5.3-.4.7-.8 1.2-1.1s1-.6 1.6-.8 1.1-.4 1.7-.5c.6-.1 1.1-.2 1.7-.3s1-.1 1.4-.1v-1.1c0-.7-.1-1.2-.3-1.6-.2-.4-.4-.7-.7-1s-.7-.4-1.1-.5c-.4-.1-.9-.1-1.4-.1-.2 0-.5 0-.8.1-.3 0-.6.1-.9.2-.3.1-.6.2-1 .3-.3.1-.6.2-.9.4l-.5-1.1c.3-.3.7-.5 1.1-.7.4-.2.9-.3 1.4-.5s.9-.2 1.4-.3.8-.1 1.1-.1c.7 0 1.3.1 1.9.2.6.1 1.1.4 1.6.7.5.3.8.8 1.1 1.4.3.6.4 1.3.4 2.3v8.6h1.6v.8c-.3.2-.7.3-1.1.4-.4.1-.9.2-1.3.2h-.5c-.2 0-.3-.1-.5-.2-.1-.1-.3-.2-.4-.4-.1-.2-.1-.4-.1-.7v-.4c-.2.2-.4.5-.7.7s-.6.4-.9.5-.7.3-1.2.4c-.4.1-.9.1-1.4.1-.7 0-1.2-.1-1.8-.4-.5-.2-1-.6-1.3-.9-.4-.4-.6-.9-.8-1.4-.2-.5-.3-1-.2-1.6zm2.4 0c0 .5.1.9.2 1.3.1.3.3.6.6.8.3.2.6.4.9.5.4.1.8.1 1.2.1.3 0 .5 0 .8-.1.3-.1.5-.2.7-.3.2-.1.5-.2.7-.3s.4-.3.5-.4v-4.6c-.4 0-.7 0-1.2.1-.4 0-.8.1-1.3.2s-.8.2-1.2.4c-.4.2-.7.3-1 .6-.3.2-.5.5-.7.8s-.2.5-.2.9zm11 3l2.1-.3V20.9l-1.7-.9v-.8l3.5-1 .6.3v12.7l2 .3v1.1h-6.5v-1.1zm2.7-16.2c-.2 0-.4 0-.6-.1-.2-.1-.4-.2-.5-.3-.1-.1-.3-.3-.4-.5v-.7c0-.3.1-.5.2-.7.1-.2.3-.4.4-.6.2-.2.4-.3.6-.4.2-.1.4-.1.7-.1.6 0 1 .2 1.2.5.3.3.4.7.4 1.1 0 .3-.1.5-.2.8s-.3.4-.4.6-.4.3-.6.4-.5 0-.8 0zm4.8 16.2l2-.3V21l-1.8-1v-.8l3.3-1 .6.3v1.9c.2-.2.4-.5.7-.7.3-.3.7-.5 1.1-.7s.8-.4 1.3-.5.8-.2 1.2-.2h.7c.2 0 .4 0 .5.1V21c-.1-.1-.3-.1-.4-.2-.1-.1-.3-.1-.5-.1s-.4-.1-.6-.1h-.8c-.7 0-1.2.1-1.7.3-.5.2-.9.4-1.3.6v9.8l3.6.3v1.1h-8v-1.2zm10.7 0l1.9-.3v-17l-2.1-.5v-1.1l4-.5.6.3v7.7c.4-.3.8-.6 1.2-.8.4-.2.9-.4 1.3-.6.4-.2.9-.3 1.3-.4.4-.1.8-.1 1.1-.1.9 0 1.6.1 2.1.4.5.3 1 .7 1.3 1.2.3.5.5 1.2.6 2.1.1.8.2 1.8.2 3v6.3l1.9.3v1.1H104v-1.1l2.1-.3V26c0-1 0-1.8-.1-2.6s-.2-1.4-.4-1.9-.5-.9-.9-1.1c-.4-.3-.9-.4-1.6-.4-.3 0-.6 0-.9.1-.3 0-.6.1-.9.2l-.9.3s-.6.3-.9.5v10.1l1.8.3v1.1H95v-1.1zm15.8-5.9c0-1.1.2-2.1.5-3 .3-.9.8-1.7 1.4-2.3s1.3-1.2 2.2-1.6c.9-.4 1.8-.6 2.8-.6.7 0 1.4.1 2 .3.6.2 1.1.6 1.5 1 .4.5.7 1 1 1.7.2.7.4 1.4.4 2.2v1.4c0 .4-.1.7-.1 1h-9.3v.2c0 1 .2 1.8.5 2.5s.7 1.2 1.2 1.6c.5.4 1 .7 1.5.8.6.2 1.1.2 1.6.2.3 0 .7 0 1-.1.4 0 .7-.1 1-.2.3-.1.7-.2.9-.2.3-.1.5-.2.7-.3l.5 1.1c-.2.2-.6.4-.9.6s-.8.3-1.3.4c-.5.1-.9.2-1.4.3-.5.1-1 .1-1.5.1-1 0-1.9-.2-2.7-.5-.8-.3-1.4-.8-2-1.5-.5-.6-.9-1.4-1.2-2.3s-.3-1.7-.3-2.8zm9.3-1.4v-1.3s-.1-.8-.2-1.2c-.1-.4-.2-.7-.4-1.1-.2-.3-.4-.6-.8-.8-.2-.1-.5-.2-.7-.3-.3-.1-.6-.1-.9-.1-.5 0-.9.1-1.4.3-.4.2-.8.5-1.2.8s-.6.9-.9 1.5c-.2.6-.4 1.3-.5 2.2h7zm4.2 4.3c.1-.6.2-1.1.6-1.5.3-.4.7-.8 1.2-1.1.5-.3 1-.6 1.6-.8s1.1-.4 1.7-.5c.6-.1 1.1-.2 1.7-.3.5 0 1-.1 1.4-.1v-1.1c0-.7-.1-1.2-.3-1.6-.2-.4-.4-.7-.7-1-.3-.2-.7-.4-1.1-.5-.4-.1-.9-.1-1.4-.1-.2 0-.5 0-.8.1-.3 0-.6.1-.9.2s-.6.2-1 .3c-.3.1-.6.2-.9.4l-.5-1.1c.3-.3.7-.5 1.1-.7.4-.2.9-.3 1.4-.5s.9-.2 1.4-.3c.4-.1.8-.1 1.1-.1.7 0 1.3.1 1.9.2.6.1 1.1.4 1.6.7s.8.8 1.1 1.4c.3.6.4 1.3.4 2.3v8.6h1.6v.8c-.3.2-.7.3-1.1.4-.4.1-.9.2-1.3.2h-.5c-.2 0-.3-.1-.5-.2-.1-.1-.3-.2-.4-.4-.1-.2-.1-.4-.1-.7v-.4c-.2.2-.4.5-.7.7s-.6.4-.9.5-.7.3-1.2.4c-.4.1-.9.1-1.4.1-.7 0-1.2-.1-1.8-.4-.5-.2-1-.6-1.3-.9-.4-.4-.6-.9-.8-1.4-.2-.5-.3-1-.2-1.6zm2.4 0c0 .5.1.9.2 1.3.1.3.3.6.6.8.3.2.6.4.9.5.4.1.8.1 1.2.1.3 0 .5 0 .8-.1.3-.1.5-.2.7-.3.2-.1.5-.2.7-.3s.4-.3.5-.4v-4.6c-.4 0-.7 0-1.2.1-.4 0-.8.1-1.3.2-.4.1-.8.2-1.2.4-.4.2-.7.3-1 .6-.3.2-.5.5-.7.8-.1.2-.2.5-.2.9zm15.8 4.3c-.7 0-1.4-.1-2-.4-.7-.3-1.2-.7-1.8-1.3-.5-.6-.9-1.3-1.2-2.2-.3-.9-.5-1.9-.5-3.2 0-1.1.2-2.2.6-3.1s.9-1.8 1.5-2.4c.7-.7 1.4-1.2 2.3-1.6.9-.4 1.8-.6 2.8-.6.4 0 .9 0 1.3.1s.8.1 1.1.2v-4.2l-2.7-.5v-1.1l4.5-.5.6.3v19h1.7v.9c-.1.1-.3.1-.5.2s-.4.1-.7.2c-.2 0-.5.1-.7.1h-1.2s-.3-.1-.4-.2c-.1-.1-.2-.2-.3-.4s-.1-.4-.1-.7v-.3c-.1.1-.3.3-.6.5-.2.2-.5.3-.9.5s-.8.3-1.2.4c-.6.3-1.1.3-1.6.3zm.9-1.7h.7c.2 0 .4-.1.6-.1.4-.1.8-.2 1.1-.4.3-.2.5-.3.7-.5v-9.6l-.3-.3s-.3-.2-.5-.3c-.2-.1-.5-.2-.8-.2-.3-.1-.6-.1-1-.1-.3 0-.6 0-1 .1-.3.1-.7.2-1 .4s-.7.4-1 .7c-.3.3-.6.7-.8 1.1-.2.4-.4.9-.6 1.5-.1.6-.2 1.2-.2 1.9 0 1 .1 1.9.3 2.7s.5 1.4.9 1.9.8.9 1.3 1.1 1.1.1 1.6.1zm9.3-7.7c0-1.1.1-2.1.4-3 .3-.9.6-1.8 1.1-2.6.5-.8 1-1.5 1.6-2.1.6-.6 1.3-1.1 2.1-1.6.8-.4 1.6-.7 2.4-1 .8-.2 1.7-.3 2.6-.3.6 0 1.2 0 1.7.1s1 .2 1.4.3l1.2.3s.7.2.9.2l-.2 3.5h-1l-.5-2.3c-.5-.3-1.1-.6-1.8-.7-.7-.2-1.4-.2-2.3-.2-.7 0-1.3.1-1.9.3-.6.2-1.2.4-1.8.8-.6.3-1.1.8-1.6 1.3s-.9 1.1-1.2 1.7c-.3.7-.6 1.4-.8 2.2s-.3 1.7-.3 2.6c0 .8.1 1.6.2 2.4.1.8.4 1.5.7 2.2.3.7.6 1.3 1.1 1.9.4.6.9 1 1.5 1.4.6.4 1.2.7 1.9.9.7.2 1.5.3 2.3.3 1 0 1.9-.1 2.7-.4s1.3-.6 1.7-1l.6-2.1h.8v3.4c-.3 0-.6.1-1 .2s-.8.2-1.3.4c-.5.1-1.1.3-1.7.4-.7.1-1.4.2-2.3.2-1.3 0-2.5-.2-3.6-.7-1.1-.5-2-1.1-2.8-2-.8-.8-1.4-1.8-1.9-3s-.9-2.6-.9-4zm16.4 8.3l2.2-.2V20.4l-1.8-.7v-.6l3-.8.5.2v1.8c.2-.2.4-.4.8-.7.4-.2.8-.5 1.2-.7.4-.2.9-.4 1.4-.5s.9-.2 1.3-.2h.8c.2 0 .4 0 .5.1v1.9c-.2-.1-.5-.2-.8-.2-.3-.1-.7-.1-1.2-.1-.4 0-.8 0-1.2.1s-.7.2-1 .3c-.3.1-.6.2-.9.4-.3.1-.5.3-.7.4v10.4l3.8.2v.9h-7.8v-.9zm10.6-6.1c0-1.1.2-2.1.5-3s.8-1.7 1.4-2.4c.6-.7 1.3-1.2 2.2-1.6.8-.4 1.8-.6 2.8-.6.7 0 1.4.1 2 .3s1.1.6 1.5 1 .8 1 1 1.7c.2.7.4 1.4.4 2.2v1.1c0 .3-.1.6-.1.9h-9.8v.1c0 1 .1 2 .4 2.7.3.8.6 1.4 1.1 1.9.5.5 1 .9 1.6 1.1.6.2 1.3.4 2 .4.4 0 .8 0 1.2-.1s.8-.1 1.2-.2c.4-.1.7-.2 1-.3s.5-.2.7-.4l.4.9c-.2.2-.6.4-.9.6-.4.2-.8.3-1.3.4-.5.1-.9.2-1.4.3-.5.1-1 .1-1.5.1-1 0-1.9-.2-2.7-.5-.8-.3-1.4-.8-2-1.5s-.9-1.4-1.2-2.3c-.4-.7-.5-1.7-.5-2.8zm9.8-1.4v-1.5s-.1-.9-.2-1.3-.3-.8-.5-1.1c-.2-.3-.5-.6-.9-.8-.5-.3-1-.4-1.7-.4-.6 0-1.1.1-1.6.3-.5.2-1 .5-1.4 1-.4.4-.7 1-1 1.6-.3.6-.4 1.4-.5 2.2h7.8zm3.1 4.4c0-.6.2-1.1.5-1.5.3-.4.7-.8 1.1-1.2.5-.3 1-.6 1.6-.8.6-.2 1.2-.4 1.8-.5.6-.1 1.2-.2 1.9-.3s1.2-.1 1.7-.1v-1.1c0-.7-.1-1.3-.3-1.7-.2-.5-.4-.8-.7-1.1-.3-.3-.7-.5-1.2-.6-.5-.1-1-.2-1.6-.2-.3 0-.7 0-1 .1-.4.1-.7.1-1.1.3s-.7.2-1 .4c-.3.1-.6.3-.9.4l-.4-.9c.3-.3.7-.5 1.1-.7.5-.2.9-.4 1.4-.5.5-.1.9-.2 1.4-.3.4-.1.8-.1 1.1-.1.7 0 1.3.1 1.9.2.6.1 1.1.4 1.6.7.4.3.8.8 1.1 1.4.3.6.4 1.4.4 2.3v8.8h1.7v.7c-.2.1-.6.2-.9.3-.4.1-.8.1-1.2.1h-.4c-.1 0-.3-.1-.4-.2-.1-.1-.2-.2-.3-.4-.1-.2-.1-.4-.1-.7V31c-.2.3-.5.5-.8.7s-.6.4-1 .6c-.4.2-.8.3-1.2.4s-1 .1-1.5.1c-.6 0-1.1-.1-1.6-.3s-1-.5-1.4-.8c-.4-.4-.7-.8-.9-1.3-.4-.5-.4-1.1-.4-1.8zm1.8 0c0 .5.1 1 .2 1.3.2.4.4.7.7.9.3.2.6.4 1 .5.4.1.9.2 1.3.2.5 0 .9 0 1.2-.2.4-.1.7-.2 1-.4s.5-.3.8-.4.4-.3.5-.4V25c-.5 0-.9 0-1.4.1-.5 0-1 .1-1.5.2s-1 .2-1.4.4c-.5.2-.9.4-1.2.6-.4.3-.6.6-.8.9-.3.6-.4 1-.4 1.4zm12.5-8.9h-2V19c.4-.1.6-.1.9-.2.2 0 .4-.1.6-.1.2-.1.3-.1.4-.2s.2-.2.3-.4c0-.1.1-.3.2-.6s.1-.5.2-.8c.1-.3.1-.6.2-.9 0-.3.1-.5.1-.7h1v3.4h4.7v1.2h-4.7v7.6c0 .8 0 1.5.1 2.1 0 .5.1 1 .2 1.3s.3.5.5.7c.2.1.5.2.9.2.3 0 .6 0 .9-.1s.6-.1.8-.2c.3-.1.5-.2.7-.3.2-.1.4-.2.5-.2l.3.9c-.2.2-.4.4-.8.5-.3.2-.7.3-1 .4-.4.1-.7.2-1.1.2s-.7.1-1 .1c-.5 0-.9-.1-1.2-.2-.3-.1-.6-.3-.9-.6s-.4-.6-.5-1.1c-.1-.4-.2-1-.2-1.6v-9.7zm7.7 12l2.1-.2V20.3l-1.8-.6v-.6l3.1-.8.5.2v12.9l2.1.2v.9h-5.9v-.8zm2.5-16.9c-.2 0-.3 0-.5-.1s-.3-.1-.4-.2-.2-.2-.3-.4c-.1-.1-.1-.3-.1-.5s0-.4.1-.6.2-.3.3-.5c.1-.1.3-.2.5-.3.2-.1.4-.1.5-.1.4 0 .8.1 1 .4.2.2.3.5.3.9 0 .2 0 .4-.1.6-.1.2-.2.3-.3.5-.1.1-.3.2-.5.3-.2-.1-.4 0-.5 0zm4.6 4.9l-1.4-.2v-1h5.2v1l-1.8.2 3.2 7.9 1.2 3.4 1.2-3.3 2.9-7.9-1.8-.2v-1h4.8v1l-1.5.2-5.2 13.1h-1.3l-5.5-13.2zm13.8 5.9c0-1.1.2-2.1.5-3s.8-1.7 1.4-2.4c.6-.7 1.3-1.2 2.2-1.6.8-.4 1.8-.6 2.8-.6.7 0 1.4.1 2 .3s1.1.6 1.5 1 .8 1 1 1.7c.2.7.4 1.4.4 2.2v1.1c0 .3-.1.6-.1.9h-9.8v.1c0 1 .1 2 .4 2.7.3.8.6 1.4 1.1 1.9.5.5 1 .9 1.6 1.1.6.2 1.3.4 2 .4.4 0 .8 0 1.2-.1s.8-.1 1.2-.2c.4-.1.7-.2 1-.3s.5-.2.7-.4l.4.9c-.2.2-.6.4-.9.6-.4.2-.8.3-1.3.4-.5.1-.9.2-1.4.3-.5.1-1 .1-1.5.1-1 0-1.9-.2-2.7-.5-.8-.3-1.4-.8-2-1.5s-.9-1.4-1.2-2.3c-.3-.7-.5-1.7-.5-2.8zm9.8-1.4v-1.5s-.1-.9-.2-1.3-.3-.8-.5-1.1c-.2-.3-.5-.6-.9-.8-.5-.3-1-.4-1.7-.4-.6 0-1.1.1-1.6.3-.5.2-1 .5-1.4 1-.4.4-.7 1-1 1.6-.3.6-.4 1.4-.5 2.2h7.8z" fill="#565656"/><path fill="#62BC46" d="M2.3 20.8S9.9 6.7 26 11c0 0-.3-3.7 4.7-4.9 0 0 1.1 3.7-3.2 5.4 0 0 6.3 2.1 8.5 9.7 2.1 7.6-4 13.2-7.5 14.3-3.5 1.2-7.4.8-9.9-2.1-2.5-2.9-1.1-6.2.1-7.2.8-.7 1.3-.8 1.8-.5.5.3.5.9.2 2.1-.3 1.1.2 3.6 2.6 4.4 2.3.8 6.5-.7 7.3-4 .8-3.3 0-7.9-5.3-9.4s-11.1.7-13.7 5.9C9 29.8 11.2 39 17.9 41.2c6.8 2.2 10.3.9 11.8.3 1.6-.6 6.9-2.4 10.7-8.1 3.8-5.6 4.3-12.1 2.8-17.5-1.7-5.3-6.4-11.5-14-13.9-7.7-2.5-15.4.4-19.2 3.6-3.8 3.3-7.2 7.8-7.7 15.2z"/></svg>