<svg xmlns="http://www.w3.org/2000/svg" width="225" height="90" viewBox="23.821 -26.5 225 90" enable-background="new 23.821 -26.5 225 90"><path fill="#D3CBC0" d="M25.095 61.068l2.412-.408V41.993l-2.328-.24v-1.38h15.14l.268 4.02-1.41.03-.65-2.3-8.288-.2v8.403l6.202-.125.565-2.045h1.382v5.922h-1.566l-.367-2.13-6.216-.11v8.813l4.075.28v1.338h-9.22v-1.2zM40.9 57.727c.066-.658.28-1.233.636-1.726.357-.492.798-.918 1.326-1.276.526-.358 1.11-.653 1.755-.89.643-.232 1.29-.42 1.938-.562.65-.142 1.274-.24 1.874-.296.602-.058 1.123-.086 1.565-.086v-1.227c0-.74-.1-1.346-.296-1.812-.198-.463-.47-.826-.818-1.09-.347-.266-.757-.443-1.227-.534-.47-.097-.978-.145-1.522-.145-.273 0-.578.03-.917.083-.338.05-.688.12-1.05.216-.36.093-.726.206-1.092.338-.367.133-.715.276-1.043.436l-.52-1.268c.35-.28.773-.528 1.276-.742.502-.21 1.02-.385 1.55-.526.532-.143 1.05-.243 1.552-.31.504-.066.934-.1 1.29-.1.743 0 1.45.077 2.123.233.673.154 1.262.43 1.77.818.508.39.91.916 1.207 1.577.296.663.445 1.508.445 2.534l-.03 9.697h1.805v.93c-.328.18-.735.326-1.22.438-.483.113-.97.17-1.458.17-.17 0-.353-.014-.552-.035-.197-.023-.378-.084-.542-.178-.165-.094-.302-.238-.41-.436-.106-.2-.16-.47-.16-.82v-.394c-.218.265-.474.508-.77.733-.297.226-.635.423-1.015.592-.38.168-.812.303-1.296.396-.484.094-1.022.142-1.616.142-.732 0-1.397-.135-1.993-.395-.6-.265-1.095-.62-1.495-1.067-.4-.444-.696-.962-.89-1.55-.195-.587-.254-1.207-.18-1.866zm2.736.057c0 .554.075 1.024.225 1.41.15.384.37.696.656.937.288.24.637.415 1.05.522.415.108.88.164 1.396.164.283 0 .57-.038.86-.115.293-.07.572-.165.84-.278s.517-.243.748-.387c.23-.15.416-.29.557-.433 0-.883.002-1.76.006-2.63.005-.87.012-1.746.02-2.63-.393 0-.826.022-1.296.063-.47.044-.94.115-1.41.22s-.926.24-1.368.408-.833.385-1.172.645c-.338.257-.61.558-.81.906s-.302.75-.302 1.2zM55.917 61.068l2.396-.298V49.226l-1.945-1.03v-.874l3.904-1.113.635.28v14.28l2.283.297v1.2h-7.274v-1.198zm3.115-18.185c-.226 0-.446-.043-.663-.12-.217-.082-.407-.192-.572-.34-.165-.145-.296-.326-.395-.543-.1-.216-.148-.46-.148-.732 0-.294.062-.565.19-.817.127-.254.29-.473.486-.653.2-.186.423-.327.672-.433.25-.104.5-.154.755-.154.62 0 1.072.17 1.36.515.287.342.428.755.428 1.233 0 .31-.06.594-.183.85-.123.25-.282.466-.48.64-.195.172-.42.31-.675.407-.253.1-.512.148-.775.148zM64.39 61.068l2.284-.298V49.295l-2-1.1v-.874l3.722-1.112.66.28v2.175c.18-.265.45-.544.813-.835.36-.288.767-.555 1.218-.796.452-.24.922-.438 1.41-.59.49-.155.95-.234 1.382-.234.31 0 .59.007.84.02.248.016.423.04.528.078v2.89c-.15-.058-.305-.115-.465-.178-.16-.058-.336-.11-.527-.154-.194-.04-.41-.076-.657-.105-.245-.03-.527-.042-.846-.042-.76 0-1.4.097-1.916.29-.52.19-.993.425-1.424.696v11.023l4.018.34v1.198h-9.037v-1.197h-.004zM76.418 61.068l2.115-.298V41.686l-2.412-.51V39.95l4.457-.592.662.322-.03 6.23-.04 2.44c.413-.338.86-.64 1.347-.903.483-.262.97-.485 1.458-.67.49-.184.965-.322 1.43-.424.466-.1.887-.146 1.263-.146.96 0 1.743.146 2.354.436.61.293 1.093.742 1.446 1.35.352.604.594 1.38.726 2.333.132.947.192 2.078.183 3.383v7.063l2.115.295v1.197h-7.19v-1.197l2.368-.298v-5.864c0-1.09-.025-2.046-.077-2.878-.053-.824-.188-1.52-.41-2.077-.22-.56-.552-.98-.993-1.26-.442-.282-1.053-.422-1.833-.422-.31 0-.64.017-.988.053-.347.04-.698.105-1.05.193-.353.092-.705.207-1.057.358-.354.15-.694.345-1.023.578v11.32l2.072.297v1.2h-6.894v-1.197zM94.142 54.428c0-1.202.19-2.312.57-3.327s.912-1.894 1.593-2.634c.68-.743 1.5-1.327 2.46-1.755.958-.425 2.016-.653 3.17-.683.828-.02 1.576.102 2.243.356.667.26 1.236.645 1.707 1.15.47.51.84 1.13 1.107 1.862.268.732.42 1.564.457 2.493.018.596.005 1.105-.036 1.538-.042.433-.086.817-.133 1.16H96.834v.157c0 .054.005.106.015.164.037 1.137.23 2.077.578 2.817.347.743.783 1.335 1.303 1.77.522.438 1.096.743 1.726.92.63.172 1.246.26 1.848.26.367 0 .75-.02 1.157-.063.404-.043.797-.103 1.178-.182.38-.082.734-.174 1.058-.274.324-.105.585-.212.782-.327l.523 1.2c-.273.242-.626.464-1.064.66-.438.197-.914.366-1.432.5-.517.14-1.057.24-1.62.313-.565.07-1.115.105-1.65.105-1.137 0-2.146-.197-3.023-.587-.878-.39-1.62-.938-2.22-1.65-.602-.708-1.06-1.566-1.375-2.57-.317-1.004-.473-2.13-.473-3.37zm10.432-1.51c.027-.48.035-.96.02-1.444-.014-.483-.072-.945-.176-1.383-.104-.437-.26-.833-.473-1.196-.21-.36-.495-.654-.852-.88-.246-.16-.523-.28-.832-.36-.31-.077-.663-.12-1.057-.12-.526 0-1.035.1-1.528.295-.494.2-.935.514-1.327.946-.39.43-.716.988-.98 1.67-.262.682-.432 1.507-.506 2.473h7.712zM109.27 57.727c.064-.658.277-1.233.634-1.726.357-.492.798-.918 1.326-1.276.527-.358 1.112-.653 1.755-.89.645-.232 1.29-.42 1.938-.562.65-.142 1.274-.24 1.876-.296.6-.058 1.122-.086 1.564-.086v-1.227c0-.74-.1-1.346-.297-1.812-.196-.463-.47-.826-.817-1.09-.347-.266-.757-.443-1.226-.534-.47-.097-.98-.145-1.523-.145-.27 0-.576.03-.915.083-.34.05-.69.12-1.05.216-.363.093-.727.206-1.094.338-.366.133-.713.276-1.042.436l-.522-1.268c.348-.28.774-.528 1.277-.742.502-.21 1.018-.385 1.55-.526.53-.143 1.048-.243 1.552-.31.503-.066.933-.1 1.29-.1.743 0 1.45.077 2.122.233.673.154 1.262.43 1.77.818.508.39.91.916 1.207 1.577.294.663.443 1.508.443 2.534l-.027 9.697h1.804v.93c-.33.18-.736.326-1.22.438-.483.113-.97.17-1.458.17-.17 0-.354-.014-.55-.035-.198-.023-.38-.084-.543-.178-.166-.094-.3-.238-.41-.436-.107-.2-.16-.47-.16-.82v-.394c-.217.265-.473.508-.77.733-.296.226-.634.423-1.015.592-.38.168-.813.303-1.296.396-.486.094-1.023.142-1.616.142-.733 0-1.398-.135-1.994-.395-.597-.265-1.095-.62-1.495-1.067-.4-.444-.697-.962-.89-1.55-.195-.587-.254-1.207-.178-1.866zm2.734.057c0 .554.076 1.024.225 1.41.15.384.368.696.656.937.286.24.637.415 1.05.522.413.108.88.164 1.396.164.28 0 .568-.038.86-.115.29-.07.57-.165.838-.278.268-.113.516-.243.746-.387.23-.15.416-.29.558-.433 0-.883.002-1.76.007-2.63.004-.87.01-1.746.02-2.63-.393 0-.825.022-1.295.063-.47.044-.94.115-1.41.22s-.927.24-1.368.408c-.44.168-.832.385-1.17.645-.34.257-.61.558-.812.906-.2.35-.3.75-.3 1.2zM129.7 62.605c-.79 0-1.558-.156-2.3-.474-.743-.314-1.398-.798-1.966-1.45-.568-.653-1.026-1.48-1.374-2.482-.347-1-.52-2.188-.52-3.56 0-1.26.21-2.418.633-3.476.423-1.058 1-1.967 1.734-2.727.734-.765 1.595-1.355 2.588-1.784.99-.427 2.056-.643 3.194-.643.496 0 .98.033 1.45.1.47.068.875.155 1.212.268v-4.692l-3.003-.508v-1.23l5.073-.59.635.324v21.387h1.904v1.06c-.158.083-.36.162-.6.236-.237.075-.492.143-.76.197-.27.056-.54.1-.817.128-.278.028-.54.043-.785.043-.168 0-.344-.014-.528-.037-.183-.02-.35-.082-.5-.176-.15-.094-.275-.238-.374-.436s-.148-.47-.148-.816v-.354c-.142.16-.347.337-.62.53-.273.2-.612.386-1.016.555-.403.168-.866.312-1.39.43-.52.12-1.095.18-1.725.18zm1.085-1.93c.3 0 .58-.02.84-.05.256-.032.5-.078.724-.133.46-.116.855-.265 1.183-.452.33-.188.603-.39.818-.606V48.648c-.103-.12-.23-.25-.38-.38-.15-.132-.345-.255-.584-.368-.24-.11-.527-.204-.86-.273-.335-.072-.726-.106-1.178-.106-.357 0-.73.047-1.115.136-.386.09-.767.238-1.142.442-.374.207-.732.474-1.07.806-.34.327-.64.73-.902 1.202-.263.476-.475 1.03-.635 1.666-.16.635-.244 1.358-.254 2.18-.02 1.155.1 2.155.352 3.002.253.846.595 1.543 1.02 2.09.43.55.92.96 1.475 1.228.556.268 1.125.403 1.708.403zM141.247 51.96c0-1.19.14-2.31.423-3.362.28-1.046.676-2.008 1.183-2.883.51-.875 1.11-1.654 1.81-2.342.7-.688 1.476-1.265 2.32-1.74.848-.474 1.744-.837 2.694-1.084.95-.25 1.926-.374 2.933-.374.676 0 1.306.038 1.888.12.582.077 1.118.173 1.6.28.484.11.922.22 1.32.33.393.113.746.202 1.054.27l-.21 3.89h-1.14l-.537-2.536c-.584-.367-1.248-.642-1.993-.824-.75-.183-1.616-.274-2.602-.274-.735 0-1.457.097-2.166.29-.71.19-1.383.48-2.022.86-.64.38-1.226.85-1.765 1.408-.533.56-.995 1.207-1.385 1.938-.392.735-.697 1.548-.916 2.447-.224.9-.334 1.873-.334 2.926 0 .913.084 1.802.247 2.665.165.863.405 1.676.732 2.434.325.756.73 1.448 1.212 2.078.485.63 1.044 1.17 1.68 1.62s1.34.802 2.13 1.044c.78.245 1.64.36 2.57.354 1.146-.01 2.15-.16 3.012-.46.86-.295 1.5-.663 1.923-1.105l.62-2.38c.14 0 .3 0 .478.006.18.005.34.007.48.007v3.82c-.34.02-.714.094-1.12.224-.408.133-.895.28-1.454.44-.558.158-1.212.303-1.957.428-.75.13-1.625.192-2.63.192-1.457 0-2.804-.265-4.035-.79-1.23-.527-2.293-1.263-3.19-2.213-.9-.95-1.6-2.08-2.1-3.383-.505-1.313-.755-2.75-.755-4.32zM159.66 61.31l2.48-.27V48.62l-2.073-.746v-.72l3.327-.862.534.27v1.972c.197-.243.498-.5.896-.774.4-.274.845-.524 1.332-.755.488-.23.998-.42 1.532-.572.528-.146 1.033-.224 1.515-.224.31 0 .594.006.85.02.26.012.443.04.545.077v2.17c-.263-.103-.56-.19-.89-.266-.327-.076-.78-.112-1.352-.112-.452 0-.885.04-1.298.128-.414.08-.794.188-1.147.308-.353.122-.675.255-.966.403-.29.145-.545.29-.762.43V61.04l4.27.267v.96h-8.794v-.957zM171.474 54.428c0-1.202.192-2.312.58-3.334.386-1.018.92-1.902 1.598-2.65.683-.747 1.498-1.33 2.448-1.755.95-.424 1.988-.645 3.115-.662.808-.01 1.54.116 2.197.37.66.26 1.227.643 1.703 1.145.474.503.84 1.12 1.105 1.854.265.732.404 1.564.423 2.493.02.48.01.906-.023 1.278-.03.37-.072.707-.12 1.008h-10.952v.154c-.02 1.175.118 2.19.416 3.046.296.855.702 1.562 1.222 2.12.515.562 1.12.974 1.815 1.243.695.266 1.44.4 2.23.4.452 0 .906-.028 1.368-.09.46-.063.896-.146 1.31-.25.414-.103.79-.22 1.12-.353.335-.13.602-.262.797-.395l.438.972c-.27.245-.628.467-1.065.664-.435.196-.913.362-1.428.5-.52.14-1.058.24-1.625.312-.563.07-1.11.104-1.647.104-1.137 0-2.143-.195-3.018-.585-.875-.39-1.605-.94-2.2-1.65-.59-.71-1.04-1.567-1.346-2.572s-.46-2.13-.46-3.37zm11.01-1.522c.04-.594.04-1.16 0-1.7-.038-.54-.13-1.04-.273-1.5-.145-.462-.35-.868-.612-1.22-.265-.353-.6-.636-1-.853-.536-.293-1.176-.438-1.92-.438-.648 0-1.256.12-1.833.355-.572.24-1.082.602-1.536 1.072-.45.477-.826 1.072-1.13 1.784-.3.717-.497 1.55-.59 2.498h8.894zM185.997 57.866c.056-.65.253-1.222.595-1.717.336-.5.764-.936 1.288-1.304.52-.375 1.113-.683 1.774-.933.664-.25 1.347-.45 2.046-.602.7-.148 1.397-.256 2.087-.32.69-.068 1.332-.102 1.924-.102v-1.24c0-.787-.096-1.443-.285-1.958-.195-.52-.47-.928-.827-1.23-.356-.3-.794-.51-1.304-.634-.512-.122-1.09-.185-1.74-.185-.358 0-.745.04-1.164.11-.418.068-.83.164-1.24.285-.41.125-.803.26-1.178.408-.375.15-.695.308-.957.467l-.41-1c.348-.28.775-.532 1.282-.748.51-.214 1.027-.396 1.56-.536.53-.14 1.045-.245 1.542-.317.497-.07.92-.105 1.27-.105.742 0 1.45.074 2.112.224.67.15 1.256.417 1.756.807.505.385.9.91 1.192 1.577.293.67.438 1.52.438 2.554l-.03 9.896h1.862v.774c-.27.135-.625.243-1.053.332-.438.09-.897.135-1.386.135-.157 0-.318-.013-.48-.036-.157-.022-.302-.08-.427-.17-.13-.09-.23-.226-.303-.41-.077-.184-.113-.434-.113-.75v-.568c-.262.303-.556.575-.883.82-.322.242-.692.454-1.105.627-.415.173-.876.31-1.386.408-.515.096-1.082.15-1.702.15-.63 0-1.24-.107-1.827-.314-.587-.206-1.106-.507-1.56-.903-.448-.394-.802-.884-1.055-1.47-.257-.586-.358-1.26-.313-2.024zm2.075.03c-.012.58.072 1.082.25 1.5.18.418.433.762.765 1.03.327.268.722.465 1.173.595.457.126.962.19 1.518.19.507 0 .974-.056 1.396-.17.424-.11.8-.25 1.126-.408.33-.158.61-.322.846-.492.235-.17.42-.31.553-.424v-2.598c0-.506 0-1.02.004-1.545.005-.528.008-1.038.008-1.538-.508 0-1.046.023-1.623.072-.57.048-1.146.127-1.713.245-.567.117-1.11.273-1.628.464-.518.194-.972.435-1.37.72-.393.287-.71.624-.95 1.016-.24.388-.358.836-.358 1.344zM202.1 47.898h-2.256v-.844c.395-.075.726-.135 1-.18.274-.04.503-.088.692-.145.188-.06.337-.136.457-.234.115-.098.23-.237.332-.415.053-.12.12-.33.196-.625.076-.298.15-.615.218-.952.072-.34.132-.67.186-.995.05-.322.086-.584.105-.778h1.07v3.803h5.288v1.37H204.1v8.487c0 .947.022 1.73.063 2.34.04.613.127 1.094.252 1.447.13.354.315.594.56.733.244.135.57.202.99.202.336 0 .67-.03 1-.097.326-.067.637-.148.927-.24.294-.094.55-.197.774-.303.23-.11.397-.202.51-.276l.354 1.002c-.216.236-.5.438-.854.61-.355.18-.73.32-1.135.44-.403.118-.81.205-1.226.268-.413.062-.778.09-1.1.09-.51 0-.958-.068-1.345-.21-.394-.14-.72-.368-.98-.684-.265-.314-.465-.72-.594-1.22-.133-.497-.2-1.103-.2-1.82V47.9h.003zM210.658 61.31l2.327-.227V48.576l-2.034-.702v-.72l3.458-.862.534.27V61.07l2.356.237v.96h-6.64v-.957zm2.818-18.992c-.176 0-.35-.03-.52-.094-.168-.06-.317-.152-.442-.274-.13-.123-.23-.265-.312-.43-.08-.167-.117-.355-.117-.57 0-.236.05-.452.146-.65.102-.196.227-.367.383-.514s.33-.26.53-.337c.193-.082.394-.12.59-.12.488 0 .845.134 1.07.398.23.27.34.597.34.98 0 .246-.046.467-.143.664-.094.194-.217.365-.37.505-.156.142-.337.25-.536.327-.204.078-.41.114-.618.114zM218.725 47.86l-1.537-.227v-1.145h5.89v1.145l-2.042.238 3.623 8.827 1.323 3.85 1.3-3.737 3.226-8.925-2.016-.237v-1.16h5.43v1.146l-1.654.266-5.79 14.705h-1.468l-6.287-14.746zM234.205 54.428c0-1.202.192-2.312.577-3.334.385-1.018.92-1.902 1.602-2.65.678-.747 1.495-1.33 2.445-1.755.948-.424 1.987-.645 3.112-.662.812-.01 1.543.116 2.202.37.656.26 1.222.643 1.697 1.145.478.503.848 1.12 1.11 1.854.26.732.4 1.564.422 2.493.02.48.013.906-.02 1.278-.034.37-.073.707-.12 1.008h-10.955v.154c-.02 1.175.12 2.19.414 3.046.302.855.705 1.562 1.225 2.12.517.562 1.123.974 1.817 1.243.695.266 1.438.4 2.23.4.445 0 .902-.028 1.366-.09.46-.063.897-.146 1.31-.25.415-.103.787-.22 1.12-.353.333-.13.603-.262.795-.395l.438.972c-.27.245-.624.467-1.06.664-.44.196-.915.362-1.432.5-.517.14-1.056.24-1.623.312-.562.07-1.11.104-1.65.104-1.136 0-2.14-.195-3.017-.585-.872-.39-1.605-.94-2.197-1.65-.593-.71-1.04-1.567-1.346-2.572-.305-1.004-.46-2.13-.46-3.37zm11.012-1.522c.038-.594.038-1.16 0-1.7s-.13-1.04-.276-1.5c-.144-.462-.348-.868-.612-1.22-.265-.353-.596-.636-.998-.853-.536-.293-1.175-.438-1.918-.438-.647 0-1.258.12-1.835.355-.572.24-1.084.602-1.536 1.072-.448.477-.823 1.072-1.127 1.784-.3.717-.495 1.55-.59 2.498h8.894zM107.073 1.423s10.674-19.77 33.21-13.703c0 0-.455-5.134 6.547-6.85 0 0 1.48 5.24-4.5 7.592 0 0 8.89 2.987 11.866 13.627 2.974 10.64-5.646 18.443-10.564 20.063-4.92 1.625-10.394 1.15-13.85-2.922-3.454-4.072-1.475-8.642.128-10.02 1.093-.945 1.888-1.095 2.467-.734.714.442.647 1.3.213 2.9-.434 1.596.3 5.045 3.577 6.176 3.276 1.127 9.104-.937 10.26-5.552 1.153-4.614-.063-11.11-7.47-13.175-7.406-2.064-15.555 1.028-19.13 8.196-3.577 7.166-.623 20 8.89 23.144 9.51 3.146 14.377 1.29 16.59.457s9.594-3.398 14.948-11.28c5.356-7.887 6.054-16.933 3.886-24.553-2.173-7.618-8.667-16.26-19.383-19.682-10.718-3.417-21.506.612-26.86 5.154-5.352 4.54-10.043 10.825-10.824 21.163z"/></svg>