<svg xmlns="http://www.w3.org/2000/svg" width="255" height="50" viewBox="8.5 -6.5 255 50" enable-background="new 8.5 -6.5 255 50"><path fill="#BFBFBF" d="M61.613 28.3l2.17-.364V11.14l-2.094-.216V9.68h13.624l.24 3.617-1.27.024-.58-2.068-7.46-.178v7.56l5.58-.112.508-1.84h1.243v5.33h-1.408l-.33-1.918-5.593-.102v7.93l3.667.253v1.205h-8.295V28.3h-.002zM75.834 25.295c.06-.592.25-1.11.57-1.553s.72-.826 1.193-1.148c.474-.32 1-.59 1.58-.8.58-.21 1.16-.38 1.744-.506.584-.128 1.147-.217 1.687-.268.542-.05 1.01-.075 1.41-.075V19.84c0-.667-.09-1.21-.267-1.63-.178-.417-.422-.745-.736-.982-.312-.237-.68-.398-1.104-.482-.423-.085-.88-.127-1.37-.127-.245 0-.52.023-.824.07-.305.046-.62.112-.945.196-.325.084-.652.187-.982.306-.33.118-.643.25-.938.392l-.47-1.14c.313-.254.695-.477 1.148-.666.453-.19.917-.35 1.396-.477.478-.125.943-.218 1.395-.278.452-.058.84-.088 1.16-.088.667 0 1.304.07 1.908.21.604.14 1.135.384 1.59.734.458.35.82.825 1.086 1.422.267.596.4 1.354.4 2.278l-.026 8.727h1.624v.838c-.295.16-.663.29-1.098.394-.435.1-.873.15-1.312.15-.152 0-.318-.012-.495-.032-.178-.02-.34-.073-.488-.158-.15-.084-.272-.215-.37-.393-.097-.18-.144-.424-.144-.735v-.357c-.195.238-.424.457-.69.66-.267.202-.57.38-.915.533-.34.15-.73.27-1.166.354-.436.083-.92.126-1.452.126-.66 0-1.258-.118-1.794-.353-.538-.238-.985-.56-1.345-.96-.36-.4-.626-.866-.8-1.395-.173-.53-.226-1.09-.16-1.683zm2.462.05c0 .5.066.925.202 1.27.135.348.332.63.59.845.26.215.573.373.946.47.37.097.79.146 1.254.146.255 0 .512-.035.773-.104.264-.066.516-.15.756-.252.24-.103.464-.218.672-.35.207-.132.374-.262.5-.39 0-.794.002-1.582.007-2.365.004-.782.01-1.57.02-2.364-.356 0-.745.02-1.17.058-.422.04-.845.104-1.267.195-.422.093-.832.217-1.23.368-.398.154-.75.346-1.053.578-.305.233-.548.506-.73.818-.18.315-.27.672-.27 1.08zM89.346 28.3l2.156-.264v-10.39l-1.752-.926v-.788l3.515-1 .57.252v12.85l2.055.267v1.078h-6.544V28.3zm2.802-16.362c-.203 0-.4-.036-.596-.107-.195-.07-.366-.173-.515-.304-.147-.13-.266-.293-.355-.488-.088-.194-.13-.416-.13-.66 0-.262.055-.507.17-.735.113-.228.26-.424.436-.59.178-.165.378-.293.603-.386.226-.094.45-.14.68-.14.558 0 .966.153 1.223.462.258.307.387.678.387 1.108 0 .28-.055.533-.164.76-.11.23-.254.422-.432.58-.177.156-.38.278-.61.367-.226.088-.46.133-.696.133zM96.97 28.3l2.055-.264V17.71l-1.802-.99v-.788l3.35-1 .595.252v1.954c.162-.237.404-.487.73-.748.326-.262.692-.5 1.097-.717.407-.216.83-.394 1.268-.533.44-.14.854-.21 1.244-.21.28 0 .532.007.755.02.223.013.38.036.476.07v2.6c-.136-.05-.274-.103-.418-.16-.144-.053-.303-.1-.476-.138-.174-.037-.37-.07-.59-.094-.22-.026-.474-.037-.76-.037-.686 0-1.26.086-1.725.26-.467.174-.895.383-1.283.63v9.917l3.615.307v1.076h-8.13V28.3zM107.792 28.3l1.902-.264V10.86l-2.168-.457V9.3l4.01-.533.595.292-.024 5.605-.04 2.195c.373-.305.776-.576 1.214-.812.434-.236.872-.438 1.312-.603.44-.164.87-.29 1.288-.38.418-.087.796-.133 1.135-.133.863 0 1.57.13 2.118.394.55.263.984.667 1.3 1.212.318.544.535 1.245.654 2.098.12.855.173 1.87.165 3.044v6.355l1.902.267v1.078h-6.468v-1.078l2.13-.267V22.76c0-.982-.022-1.846-.07-2.59-.046-.745-.17-1.37-.37-1.872-.198-.502-.496-.88-.892-1.135-.4-.254-.95-.38-1.65-.38-.278 0-.575.016-.888.05s-.628.09-.945.17c-.316.08-.633.19-.95.324-.317.135-.623.31-.92.52v10.187l1.866.265v1.078h-6.203V28.3zM123.738 22.328c0-1.085.17-2.082.514-2.995.342-.913.82-1.704 1.433-2.372.613-.666 1.35-1.192 2.214-1.578.862-.385 1.813-.59 2.853-.615.744-.017 1.416.09 2.016.323.6.234 1.11.578 1.534 1.034s.754 1.015.996 1.674c.24.66.378 1.408.412 2.245.018.533.006.994-.032 1.384-.037.39-.077.734-.12 1.04h-9.4v.146c0 .045.006.095.014.145.034 1.024.207 1.87.52 2.537.312.668.705 1.2 1.173 1.593.47.392.987.668 1.555.824.565.156 1.12.235 1.66.235.33 0 .678-.02 1.042-.06.363-.037.716-.092 1.06-.164.34-.07.66-.154.95-.247.292-.094.526-.19.705-.293l.47 1.08c-.247.22-.566.418-.96.597-.392.178-.822.327-1.287.45-.466.124-.953.217-1.46.278-.506.063-1 .096-1.483.096-1.023 0-1.93-.176-2.72-.527-.79-.35-1.458-.844-2-1.483-.54-.64-.95-1.408-1.237-2.314-.284-.906-.425-1.917-.425-3.032zm9.387-1.357c.026-.432.032-.863.02-1.3-.013-.437-.065-.85-.16-1.243-.092-.393-.234-.75-.423-1.078-.19-.327-.446-.59-.767-.793-.22-.145-.47-.25-.75-.324-.28-.07-.596-.108-.95-.108-.474 0-.934.088-1.376.267-.445.178-.843.46-1.194.85-.35.388-.645.89-.88 1.502-.237.614-.39 1.356-.457 2.227h6.935zM137.35 25.295c.06-.592.248-1.11.572-1.553.32-.443.718-.826 1.19-1.148.473-.32 1-.59 1.58-.8.578-.21 1.16-.38 1.743-.506.585-.128 1.146-.217 1.688-.268s1.01-.075 1.41-.075V19.84c0-.667-.09-1.21-.27-1.63-.177-.417-.42-.745-.733-.982-.312-.237-.682-.398-1.105-.482-.422-.085-.88-.127-1.37-.127-.243 0-.518.023-.824.07-.303.046-.617.112-.942.196-.327.084-.652.187-.982.306-.33.118-.643.25-.938.392l-.473-1.14c.312-.254.695-.477 1.15-.666.45-.19.915-.35 1.393-.477.48-.125.943-.218 1.396-.278.453-.058.84-.088 1.163-.088.665 0 1.303.07 1.906.21.605.14 1.138.384 1.594.734.456.35.817.825 1.084 1.422.27.596.4 1.354.4 2.278l-.026 8.727h1.624v.838c-.293.16-.66.29-1.097.394-.435.1-.87.15-1.31.15-.153 0-.318-.012-.496-.032-.177-.02-.34-.073-.487-.158-.147-.084-.27-.215-.366-.393-.1-.18-.145-.424-.145-.735v-.357c-.196.238-.426.457-.692.66-.267.202-.57.38-.913.533-.343.15-.73.27-1.166.354-.437.083-.92.126-1.454.126-.66 0-1.26-.118-1.794-.353-.537-.238-.986-.56-1.346-.96-.36-.4-.625-.866-.8-1.395-.175-.53-.227-1.09-.16-1.683zm2.46.05c0 .5.07.925.204 1.27.136.348.332.63.59.845.26.215.573.373.944.47.373.097.792.146 1.258.146.252 0 .512-.035.773-.104.262-.066.512-.15.754-.252.24-.103.465-.218.672-.35s.374-.262.502-.39c0-.794 0-1.582.007-2.365.002-.782.01-1.57.02-2.364-.355 0-.744.02-1.168.058-.424.04-.846.104-1.268.195-.425.093-.834.217-1.23.368-.397.154-.75.346-1.056.578-.304.233-.547.506-.73.818-.18.31-.273.672-.273 1.08zM155.73 29.685c-.71 0-1.398-.143-2.066-.426-.67-.284-1.26-.72-1.77-1.305-.513-.59-.923-1.333-1.236-2.234-.312-.9-.47-1.967-.47-3.203 0-1.133.19-2.176.572-3.126.38-.95.898-1.77 1.56-2.455.658-.685 1.434-1.22 2.327-1.604.89-.385 1.85-.578 2.875-.578.445 0 .88.03 1.304.09.423.06.788.14 1.092.24v-4.225l-2.702-.457V9.3l4.566-.534.57.293V28.3h1.714v.952c-.146.08-.324.147-.54.218-.215.066-.443.126-.685.176-.24.053-.484.09-.734.114-.25.025-.483.04-.704.04-.15 0-.31-.013-.477-.034-.164-.02-.314-.073-.448-.157-.137-.086-.248-.217-.337-.395-.09-.18-.134-.423-.134-.735v-.318c-.127.146-.312.306-.56.48-.244.18-.55.344-.912.497-.364.15-.78.28-1.25.388-.47.104-.985.157-1.553.157zm.98-1.738c.27 0 .52-.016.755-.045.23-.03.45-.068.653-.12.414-.104.77-.237 1.063-.407.298-.168.544-.35.737-.545v-9.704c-.094-.11-.207-.224-.344-.342-.135-.12-.31-.23-.525-.33-.214-.102-.474-.185-.774-.248-.3-.064-.65-.095-1.058-.095-.32 0-.655.042-1.003.12-.346.082-.69.214-1.025.4-.34.188-.66.428-.966.724-.304.295-.575.658-.81 1.084-.237.43-.43.928-.57 1.497-.145.572-.22 1.226-.23 1.96-.017 1.043.09 1.94.317 2.703.227.763.534 1.39.92 1.885.384.495.826.862 1.325 1.104.5.24 1.01.36 1.534.36zM166.123 20.107c0-1.074.125-2.082.38-3.024.254-.943.61-1.807 1.064-2.594.457-.788 1.002-1.49 1.63-2.106.632-.618 1.327-1.14 2.088-1.568.762-.426 1.57-.752 2.424-.976.853-.223 1.73-.336 2.64-.336.606 0 1.173.036 1.697.107.524.072 1.004.158 1.438.253.437.1.83.197 1.188.3.352.1.67.182.95.24l-.19 3.5h-1.026l-.48-2.282c-.525-.33-1.124-.577-1.796-.742-.673-.166-1.452-.248-2.34-.248-.66 0-1.31.086-1.95.26-.638.174-1.244.433-1.818.774-.575.343-1.103.766-1.585 1.27-.48.502-.9 1.083-1.25 1.743-.352.66-.627 1.393-.823 2.2-.2.81-.3 1.685-.3 2.632 0 .82.072 1.62.223 2.397.146.776.366 1.508.66 2.188.29.683.654 1.306 1.09 1.872.437.565.937 1.05 1.51 1.458.572.407 1.21.72 1.916.938.706.22 1.478.325 2.314.316 1.03-.01 1.935-.147 2.708-.413.774-.268 1.352-.598 1.733-.996l.558-2.143c.128 0 .27.005.432.007.16.006.305.007.434.007v3.438c-.307.02-.644.085-1.012.202-.367.12-.803.253-1.304.394-.505.146-1.092.273-1.763.39-.674.112-1.462.17-2.367.17-1.31 0-2.52-.236-3.628-.71-1.105-.475-2.066-1.14-2.872-1.992-.81-.854-1.438-1.87-1.89-3.046-.458-1.173-.683-2.466-.683-3.88zM182.688 28.518l2.234-.24V17.103l-1.865-.674v-.647l2.993-.773.48.24v1.776c.18-.22.448-.45.808-.697.357-.247.76-.474 1.2-.68.438-.208.895-.377 1.375-.515.48-.135.933-.203 1.36-.203.282 0 .537.006.77.02.233.012.395.036.49.07v1.953c-.238-.092-.504-.173-.8-.24-.298-.068-.702-.103-1.22-.103-.405 0-.795.038-1.167.115-.37.075-.717.168-1.034.278-.314.11-.605.23-.867.362-.264.13-.49.26-.687.386v10.503l3.845.24v.862h-7.916v-.86zM193.32 22.328c0-1.085.174-2.083.52-3.002.348-.916.828-1.71 1.44-2.384.61-.673 1.345-1.2 2.2-1.58.854-.38 1.79-.58 2.804-.597.727-.008 1.39.103 1.98.336.59.233 1.1.577 1.526 1.028.428.452.76 1.01.995 1.668.238.66.364 1.41.382 2.244.017.434.01.814-.02 1.15-.028.332-.066.636-.106.905h-9.854v.14c-.02 1.057.107 1.97.372 2.74.267.77.632 1.407 1.1 1.91.463.502 1.01.874 1.635 1.113.626.243 1.294.363 2.005.363.405 0 .813-.024 1.23-.08.413-.057.81-.13 1.18-.223.372-.096.708-.198 1.01-.317.3-.118.538-.237.716-.356l.394.876c-.246.22-.563.42-.96.598-.392.178-.818.327-1.285.45-.466.124-.95.217-1.46.278-.507.063-1 .096-1.483.096-1.022 0-1.927-.176-2.714-.527-.786-.35-1.445-.844-1.978-1.483-.534-.64-.938-1.408-1.214-2.314-.276-.904-.414-1.915-.414-3.03zm9.908-1.37c.034-.533.034-1.043 0-1.53-.033-.486-.117-.935-.25-1.35-.13-.414-.312-.78-.55-1.096-.235-.317-.537-.574-.9-.768-.482-.26-1.057-.392-1.724-.392-.585 0-1.135.106-1.65.322-.516.217-.977.538-1.383.964-.403.427-.742.96-1.013 1.605-.27.642-.45 1.39-.533 2.245h8.004zM206.39 25.42c.05-.582.227-1.1.53-1.545.306-.448.69-.84 1.162-1.173.47-.336 1.002-.613 1.598-.84.596-.224 1.21-.402 1.84-.537.63-.137 1.255-.233 1.877-.294.622-.06 1.198-.087 1.732-.087v-1.117c0-.708-.088-1.297-.26-1.762-.177-.465-.424-.833-.744-1.104-.32-.27-.713-.46-1.174-.57-.46-.11-.984-.165-1.566-.165-.32 0-.67.033-1.046.096s-.75.15-1.116.26c-.37.11-.723.23-1.06.368-.34.135-.626.274-.86.418l-.37-.9c.313-.254.697-.48 1.154-.673s.924-.355 1.4-.482c.478-.126.94-.222 1.388-.284.45-.064.83-.096 1.143-.096.668 0 1.302.067 1.9.203.603.135 1.13.376 1.58.723.453.348.81.82 1.07 1.42.265.6.396 1.367.396 2.3l-.023 8.9h1.674v.698c-.247.12-.562.218-.95.3-.39.078-.806.12-1.245.12-.144 0-.287-.01-.432-.03-.143-.022-.27-.073-.386-.153s-.205-.202-.272-.367c-.068-.166-.103-.392-.103-.68v-.506c-.237.27-.503.514-.794.735-.29.22-.624.406-.995.563-.373.155-.788.28-1.248.368-.462.088-.97.134-1.53.134-.564 0-1.112-.095-1.642-.28-.528-.187-.996-.457-1.402-.812-.404-.354-.723-.798-.95-1.323-.23-.527-.323-1.136-.278-1.82zm1.864.028c-.01.524.066.974.228 1.35.16.377.39.686.685.928.297.24.647.418 1.06.53.41.115.863.173 1.362.173.456 0 .875-.052 1.256-.152.38-.103.72-.226 1.015-.367.298-.145.55-.29.763-.443.21-.15.376-.28.494-.382v-2.338c0-.453.003-.917.008-1.39.003-.476.006-.934.006-1.384-.456 0-.94.02-1.458.064s-1.03.114-1.54.222c-.513.104-1 .245-1.468.417-.464.174-.875.392-1.23.646-.354.26-.64.563-.855.915-.22.35-.326.754-.326 1.21zM220.877 16.455h-2.033v-.76c.357-.068.657-.122.902-.16.246-.038.453-.083.62-.134.172-.05.31-.12.415-.208.105-.088.207-.213.298-.374.05-.11.11-.3.18-.565.065-.266.133-.55.196-.856.062-.304.116-.602.162-.894.048-.292.078-.526.097-.704h.965v3.424h4.758v1.23h-4.758v7.638c0 .853.02 1.556.057 2.104.038.55.113.982.23 1.303.112.314.28.535.5.656.22.122.518.186.89.186.303 0 .603-.03.898-.09.296-.06.575-.13.84-.216.26-.085.494-.175.695-.272.202-.1.354-.18.456-.25l.318.903c-.194.21-.452.396-.767.553-.318.157-.66.285-1.02.393-.365.106-.733.186-1.105.24-.37.055-.702.084-.99.084-.455 0-.858-.064-1.21-.192-.352-.126-.645-.33-.882-.614-.236-.282-.414-.646-.533-1.097-.118-.446-.178-.994-.178-1.637v-9.69zM228.577 28.518l2.09-.202V17.063l-1.825-.635v-.646l3.107-.773.48.24V28.3l2.12.218v.862h-5.974v-.862zm2.537-17.087c-.16 0-.317-.027-.47-.082-.15-.055-.286-.137-.4-.248-.113-.11-.206-.24-.28-.387-.07-.148-.103-.32-.103-.514 0-.212.045-.407.132-.584.09-.178.205-.332.345-.463.14-.13.298-.23.475-.304.18-.073.354-.11.533-.11.438 0 .76.122.964.362.202.242.306.536.306.883 0 .22-.044.417-.128.596-.086.178-.195.33-.338.458-.138.126-.3.224-.48.292-.187.067-.37.1-.556.1zM235.834 16.417l-1.383-.204v-1.028h5.303v1.028l-1.84.216 3.26 7.94 1.192 3.464 1.167-3.362 2.905-8.03-1.813-.215v-1.04h4.884v1.027l-1.484.242-5.213 13.23h-1.32l-5.656-13.27zM249.762 22.328c0-1.085.175-2.083.52-3.002.35-.916.83-1.71 1.44-2.384.612-.673 1.348-1.2 2.2-1.58.856-.38 1.79-.58 2.804-.597.727-.008 1.388.103 1.98.336.59.233 1.1.577 1.528 1.028.427.452.758 1.01.994 1.668.237.66.363 1.41.38 2.244.02.434.014.814-.018 1.15-.03.332-.064.636-.107.905h-9.856v.14c-.017 1.057.107 1.97.374 2.74.27.77.634 1.407 1.1 1.91.463.502 1.01.874 1.635 1.113.627.243 1.295.363 2.005.363.405 0 .815-.024 1.23-.08.414-.057.81-.13 1.18-.223.373-.096.71-.198 1.01-.317.3-.118.538-.237.718-.356l.393.876c-.244.22-.562.42-.957.598-.394.178-.822.327-1.287.45-.465.124-.952.217-1.46.278-.508.063-1.002.096-1.483.096-1.023 0-1.927-.176-2.715-.527-.786-.35-1.446-.844-1.978-1.483-.534-.64-.938-1.408-1.212-2.314-.277-.904-.416-1.915-.416-3.03zm9.91-1.37c.032-.533.032-1.043 0-1.53-.036-.486-.117-.935-.25-1.35-.13-.414-.313-.78-.55-1.096-.238-.317-.54-.574-.9-.768-.482-.26-1.058-.392-1.726-.392-.585 0-1.134.106-1.65.322-.516.217-.976.538-1.383.964-.404.427-.742.96-1.014 1.605-.272.642-.45 1.39-.535 2.245h8.006zM9.5 16.766S17.99 1.044 35.91 5.87c0 0-.36-4.083 5.207-5.45 0 0 1.177 4.17-3.58 6.04 0 0 7.07 2.374 9.436 10.836 2.367 8.463-4.488 14.667-8.398 15.958-3.913 1.29-8.268.912-11.015-2.327-2.748-3.238-1.174-6.872.1-7.97.87-.75 1.502-.87 1.963-.583.567.353.515 1.035.168 2.308-.343 1.268.24 4.01 2.845 4.91 2.606.897 7.24-.744 8.16-4.414.918-3.67-.05-8.835-5.94-10.477-5.89-1.64-12.37.817-15.213 6.518-2.844 5.697-.495 15.903 7.07 18.405 7.565 2.504 11.434 1.024 13.193.363 1.76-.66 7.63-2.704 11.89-8.972 4.258-6.272 4.813-13.466 3.087-19.525S47.99-1.44 39.466-4.163c-8.52-2.72-17.1.487-21.357 4.1-4.258 3.61-7.988 8.608-8.61 16.828z"/></svg>