<svg xmlns="http://www.w3.org/2000/svg" viewBox="0 0 194 34.1" enable-background="new 0 0 194 34.1"><g fill="#AAAAA8"><path d="M119.2 24.8v-13c0-1.1.3-1.3 1.3-1.3h11c1.2 0 2.3.1 3.2 1 .7.7 1 1.5 1 2.5v1.6c.6.2 1.3.3 1.7.6.4.3.7.7.9 1.2.6 1.4.5 2.9.4 4.3-.2 1.8-1.8 3.1-3.8 3.1h-15.5c-.1.1-.1 0-.2 0zm3.9-3.6h11.1c.4 0 .6-.2.6-.6 0-1-.4-1.4-1.4-1.4h-10.3v2zm.1-5.4h7.9c.4 0 .6-.1.6-.6 0-.9-.3-1.2-1.2-1.2h-6c-1.6 0-1.6 0-1.5 1.6.1.1.2.1.2.2zM71.2 21.2v2.7c0 .6-.6 1-1.3 1H55.8c-.7 0-1.5-.2-2.2-.4-1.6-.6-2.2-2.3-2-3.6.1-1.5 1-2.6 2.5-3 4.2-1.2 8.3-2.4 12.5-3.6.1 0 .1 0 .2-.2H51.6v-2.7c0-.5.4-.8 1-.8h14.7c.9 0 1.8.3 2.5.8 1 .8 1.5 1.8 1.3 3.1-.3 1.3-1.1 2.3-2.4 2.8-1.6.5-3.3 1-4.9 1.5-2.5.8-5 1.5-7.5 2.2-.2 0-.4.1-.5.3 5.3-.1 10.3-.1 15.4-.1zM114.9 18.4c.2.3.4.5.6.7.6.7.9 1.5.8 2.4v2.1c0 .6-.4 1.2-1 1.2h-3v-4c0-1.2-.2-1.4-1.4-1.4H100.6v3.9c0 1-.5 1.4-1.4 1.4h-2.3s-.1 0-.2-.1V11.7c0-1 .3-1.3 1.3-1.3h14.3c1.2 0 2.3.3 3.1 1.2.7.7 1.1 1.5 1 2.5v.4c0 1.6-.1 3-1.5 3.9zm-14.4-4.3v1.2c0 .5.1.6.6.6h10.7c.4 0 .6-.2.6-.6 0-.9-.3-1.2-1.2-1.2h-9.9c-.3-.1-.5-.1-.8 0zM93.7 10.5V21c0 2.1-1.3 3.4-3.2 3.8-.3.1-.7.1-1.1.1H78.3c-1.2 0-2.3-.3-3.2-1.1-.8-.7-1.1-1.5-1.1-2.4v-9.7c0-.7.4-1.1 1.1-1.1H78V19.9c0 1.1.3 1.4 1.4 1.4h8.9c1.1 0 1.4-.4 1.4-1.4v-7.8c0-1 .4-1.4 1.4-1.4.8-.2 1.6-.2 2.6-.2z"/></g></svg>