<svg xmlns="http://www.w3.org/2000/svg" width="275" height="150" viewBox="147.5 85 275 150" enable-background="new 147.5 85 275 150"><path fill="#F16529" d="M147.5 85h275v150h-275z"/><path fill="#414141" d="M414.955 221.056V142.1s.81-3.916-3.286-4.197c-4.1-.28-44.95 0-44.95 0s-3.16-.23-3.44 4.05c-.28 4.28 0 79.134 0 79.134s-.1 4.37 4.363 4.458c4.46.09 41.74 0 41.74 0s5.714.965 5.57-4.49z"/><path opacity=".15" fill="#fff" enable-background="new" d="M414.955 145.807V142.1s.81-3.917-3.285-4.198c-4.098-.28-44.947 0-44.947 0s-3.163-.228-3.44 4.052c-.103 1.566-.105 51.93 0 65.28l51.672-61.427z"/><path fill="#414141" d="M343.174 215.462c0 2.507-2.594 4.23-5.18 4.22l-162.527-.292c-2.585 0-4.372 1.28-4.367-1.227V114.65c.004-2.506 2.237-4.39 4.822-4.38h162.695c2.57.008 4.566 2.203 4.558 4.71v100.48z"/><path fill="#DEDEDE" d="M220.97 225.664l-57.7.743c-6.14.002-6.088-4.583-6.088-4.583l-.16-6.622h98.956l18.775.212H356.5l-.16 6.41-6.09 4.21-129.28-.37z"/><path fill="#C9C9C9" d="M237.978 215.26s-.643 2.903 2.814 3.182c3.792.303 29.727-.103 29.727-.103s3.52.356 3.235-3.09l-35.778.01zm112.272 10.775c6.142.003 6.09-4.21 6.09-4.21l-82.526.168-35.883-.17h-80.747s-.05 4.586 6.09 4.584h72.757l114.22-.372z"/><path opacity=".15" fill="#fff" enable-background="new" d="M343.174 114.98c.01-2.507-1.988-4.702-4.558-4.71H175.92c-2.583-.01-4.682 1.874-4.686 4.372l-.102 50.645 172.042-37.96V114.98z"/><linearGradient id="a" gradientUnits="userSpaceOnUse" x1="485.67" y1="-76.332" x2="485.67" y2="-92.971" gradientTransform="matrix(1 0 0 -1 -285 41)"><stop offset="0" stop-color="#E6E6E6"/><stop offset="1" stop-color="#ccc"/></linearGradient><path fill="url(#a)" d="M222.932 131.752c0 1.225-1.023 2.218-2.284 2.218H180.69c-1.26 0-2.283-.993-2.283-2.218V119.55c0-1.226 1.023-2.22 2.283-2.22h39.958c1.26 0 2.284.994 2.284 2.22v12.202z"/><linearGradient id="b" gradientUnits="userSpaceOnUse" x1="566.54" y1="-76.332" x2="566.54" y2="-92.971" gradientTransform="matrix(1 0 0 -1 -285 41)"><stop offset="0" stop-color="#F1F1F1"/><stop offset=".307" stop-color="#fff"/></linearGradient><path fill="url(#b)" d="M335.583 131.752c0 1.225-1.022 2.218-2.282 2.218H229.78c-1.258 0-2.282-.993-2.282-2.218V119.55c0-1.226 1.023-2.22 2.283-2.22H333.3c1.26 0 2.283.994 2.283 2.22v12.202z"/><linearGradient id="c" gradientUnits="userSpaceOnUse" x1="541.799" y1="-97.235" x2="541.799" y2="-167.523" gradientTransform="matrix(1 0 0 -1 -285 41)"><stop offset="0" stop-color="#F1F1F1"/><stop offset=".307" stop-color="#fff"/></linearGradient><path fill="url(#c)" d="M335.583 206.305c0 1.226-1.022 2.218-2.282 2.218h-153c-1.26 0-2.282-.992-2.282-2.218v-65.85c0-1.226 1.023-2.22 2.283-2.22h153c1.26 0 2.284.994 2.284 2.22v65.85z"/><path opacity=".5" enable-background="new" d="M192.107 121.4v8.503l-7.23-4.88zm17.125 0v8.503l7.23-4.88zm-9.132-1.85h1.14v12.203h-1.14z" fill="#878787"/><path fill-rule="evenodd" clip-rule="evenodd" fill="#ccc" d="M188.493 150.428h58.4v8.36h-58.4zm0 10.452h46.926v3.252H188.49zm0 10.242h30.193v10.086h-30.193zm32.27 0h26.13v10.086h-26.13zm-32.27-5.365h46.926v3.252H188.49zm0 22.297h133.22v20.47h-133.22z"/><linearGradient id="d" gradientUnits="userSpaceOnUse" x1="366.419" y1="181.376" x2="412.076" y2="181.376"><stop offset="0" stop-color="#F1F1F1"/><stop offset=".307" stop-color="#fff"/></linearGradient><path fill-rule="evenodd" clip-rule="evenodd" fill="url(#d)" d="M412.076 211.278c0 .77-.644 1.394-1.433 1.394h-42.79c-.792 0-1.435-.625-1.435-1.394v-59.805c0-.77.643-1.394 1.435-1.394h42.79c.79 0 1.433.622 1.433 1.392v59.805z"/><path fill-rule="evenodd" clip-rule="evenodd" fill="#ccc" d="M366.42 160.996v-9.523c0-.77.642-1.394 1.434-1.394h42.79c.79 0 1.433.622 1.433 1.392v9.523H366.42zm0 40.644v9.52c0 .772.642 1.395 1.434 1.395h42.79c.79 0 1.433-.623 1.433-1.394v-9.52H366.42z"/><path opacity=".5" fill="#878787" enable-background="new" d="M373.406 152.99v5.387l-4.58-3.093z"/><path opacity=".5" fill-rule="evenodd" clip-rule="evenodd" fill="#878787" enable-background="new" d="M381.24 153.912h17.09v3.252h-17.09zm-12.19 49.758h7.848v7.144h-7.85zm10.757 0h7.848v7.144h-7.848zm10.755 0h7.85v7.144h-7.85zm10.758 0h7.848v7.144h-7.848z"/></svg>