<?xml version="1.0" encoding="utf-8"?>
<!-- Generator: Adobe Illustrator 18.1.1, SVG Export Plug-In . SVG Version: 6.00 Build 0)  -->
<svg version="1.1" id="icon" xmlns="http://www.w3.org/2000/svg" xmlns:xlink="http://www.w3.org/1999/xlink" x="0px" y="0px"
	 viewBox="0 0 30 30" enable-background="new 0 0 30 30" xml:space="preserve">
<ellipse fill="#F3F0E9" cx="15" cy="15" rx="14.8" ry="15"/>
<linearGradient id="SVGID_1_" gradientUnits="userSpaceOnUse" x1="14.9934" y1="207.4195" x2="14.9934" y2="192.7691" gradientTransform="matrix(1 0 0 -1 0 216)">
	<stop  offset="0" style="stop-color:#E83217"/>
	<stop  offset="0.59" style="stop-color:#E53217"/>
	<stop  offset="0.993" style="stop-color:#DC3217"/>
	<stop  offset="1" style="stop-color:#DC3217"/>
</linearGradient>
<path fill="url(#SVGID_1_)" d="M22.3,16.2c0.7-0.8,1.1-1.8,1.1-3c0-2.6-2.1-4.6-4.7-4.6c-1.6,0-2.9,0.7-3.8,1.9l0.5,0.1
	c-0.9-1.2-2.3-2-3.9-2c-2.6,0-4.7,2.1-4.7,4.6c0,1.1,0.4,2.2,1.1,3c0,0,6.2,7,7.3,7C16.2,23.2,22.3,16.2,22.3,16.2L22.3,16.2z"/>
</svg>
