<?xml version="1.0" encoding="utf-8"?>
<!-- Generator: Adobe Illustrator 18.1.1, SVG Export Plug-In . SVG Version: 6.00 Build 0)  -->
<svg version="1.1" id="Layer_1" xmlns="http://www.w3.org/2000/svg" xmlns:xlink="http://www.w3.org/1999/xlink" x="0px" y="0px"
	 viewBox="-162 83 275 150" enable-background="new -162 83 275 150" xml:space="preserve">
<rect x="-162.6" y="81.8" fill="#13A7C7" width="278.5" height="152.5"/>
<path fill="#EAF6FD" d="M96.8,176.2c1.7-0.2,5.3,1.7,5.3,1.7c-0.8-2-6.4-6.8-6.4-6.8s0,0,0,0c-3-1.9-6.4-3.4-10.1-4.6l1.4-1.6
	l-6.4,0.2c-6.5-1.6-13.5-2.4-20.1-2.7l1.4-1.9c-7.2-0.2-21.9,0.5-25.9,1.4l0.6-2.7l-3.5,2.1c0-2.1,2.8-6.3,2.8-6.3
	c-4,1-6.9,6.3-6.9,6.3l-0.8,3.1l0.3-0.3L23.7,195h11.9l62.1,0.3c0.8-6.1-0.1-14.2-0.9-19.2C96.7,176.1,96.7,176.2,96.8,176.2z
	 M35,163C35,163,35.1,163,35,163c-0.1,0-0.2,0-0.3,0.1L35,163z"/>
<path fill="#EAF6FD" d="M-80.3,210.5c0,0,0.5,4.2,0.9,5.7c0.6,1.9-0.3,4.2-0.8,5.6c-0.4,1.2-2.8,8.1-3.6,12.6H18
	c6.3-21.1,6.7-50,11.7-70.9c3.5-14.7,11-29.2,18-40.5c4.7-5.8,11.6-9.6,11.6-9.6c-2.4-0.3-4.5,0-5.4,0.2c5.3-7.6,9.3-12.3,9.3-12.3
	c-6.4-7.3-19.7-6-19.7-6l7.8-9.3L40,81.8h-82.7c-1.6,2.2-3.1,4.6-4.4,7.2c-2.5,4.9-12.9,40.3-14.2,48.3c0,0-3-1.2-6.3-0.8
	c0,0,4.6,6.4,5.1,9.4c0.5,3-4.8,21.7-6.8,24.8s-4.5,5-5.6,5.5c0,0,1.8,3.5,3.8,3.8c0,0-0.5,11.1-1.8,13.4c-1.3,2.3-5.1,6-6.9,7.1
	c0,0,4,4.6,6.6,4.8c0,0-2.6,5.1-3.6,6.4C-77.8,212.9-80.3,210.5-80.3,210.5z"/>
<path fill="#4E4D50" d="M-48.2,107c-15-5.3-22.6-19.7-22.6-19.7s-4.1,10.3,0.8,21.7c3.5,8.1,12,13.4,16.7,15.8
	C-51.9,118.7-50.4,112.7-48.2,107z"/>
<path fill="#5B5A5C" d="M-48.2,107c-15-5.3-22.6-19.7-22.6-19.7s1.1,19.6,19.8,28.2C-50.1,112.6-49.2,109.7-48.2,107z"/>
<g>
	<path fill="#A0D5E9" d="M-70.7,190.3c0,0-2.1-2.5-5.2-5.6c-3.3-4.5-3.8-9.9-3.8-9.9c-1,1.3-1.3,4.3-1.3,5.1
		c-3.8-3.4-8.1-6.6-11.7-7.7c1.8,0.9,3.1,1.6,3.1,1.6s-2.8,0.4-5.3,0.4l2.2,40.4l14.1,6.4C-78.6,221-65.6,200.7-70.7,190.3z"/>
	<path fill="#A0D5E9" d="M-92.7,172.2c-2.4-1.2-5.6-2.6-8-3.2c0,0,2.3,2.1,2.1,4.1c-0.1,0.9,1.7,1.1,3.6,1.1l-0.1-2.4
		C-94.3,171.8-93.5,171.9-92.7,172.2z"/>
	<path fill="#A0D5E9" d="M-92.7,172.2c-0.8-0.2-1.6-0.4-2.3-0.4l0.1,2.4c2.5,0,5.3-0.4,5.3-0.4S-90.9,173-92.7,172.2z"/>
</g>
<path fill="#5B5A5C" d="M-80.4,204c1,1.3,0.7,3.1-0.5,4l-25.2,18.7c-1.2,0.9-3,0.6-4-0.7l-32.8-44.2c-1-1.3-0.7-3.1,0.5-4l25.2-18.7
	c1.2-0.9,3-0.6,4,0.7L-80.4,204z"/>
<polygon fill="#737F83" points="-111,168.1 -135.5,185.8 -111.7,219.4 -86.4,200.7 "/>
<path fill="#CDEAF5" d="M-80.3,210.5c0,0,0.5,4.2,0.9,5.7c0.6,1.9-0.3,4.2-0.8,5.6c-0.4,1.2-2.8,8.1-3.6,12.6h8.8
	c0.1-2.3,0.4-4.6,0.9-6.7c2.2-8.6,12.2-23.1,12.2-23.1c-4.6,1.3-7.3-2.9-7.3-2.9s2.2-0.4,6-4c3.7-3.5,2.9-22.7,2.9-22.7
	c-1.7,0.6-3.4,0.6-3.9,0.7c-0.1,0-0.1,0-0.1,0s0,0,0.1,0c0.3-0.1,1.5-0.8,3.6-6.3c-0.5-0.3-1.1-0.6-1.6-1c-0.1-0.1-0.2-0.2-0.2-0.4
	c1.3-4.1,0.8-8.5,1.8-12.7c0.3-1.1,0.6-2.8,1.7-3.4c1.1-0.7,2.3-0.4,3.6-0.2c0.8-3.1,1.7-6.7,2.6-10.7c8.3-36,16.5-56.2,16.5-56.2
	c-1.3,3.6,1.7,10.2,1.7,10.2c2.8-4.7,7.5-9.1,12.8-13.1h-21c-1.6,2.2-3.1,4.6-4.4,7.2c-2.5,4.9-12.9,40.3-14.2,48.3
	c0,0-3-1.2-6.3-0.8c0,0,4.6,6.4,5.1,9.4c0.5,3-4.8,21.7-6.8,24.8s-4.5,5-5.6,5.5c0,0,1.8,3.5,3.8,3.8c0,0-0.5,11.1-1.8,13.4
	c-1.3,2.3-5.1,6-6.9,7.1c0,0,3.8,5.1,6.4,5.3c0,0-2.5,4.6-3.5,6C-77.8,212.9-80.3,210.5-80.3,210.5z"/>
<path fill="#A0D5E9" d="M-89.9,189.6c-12.9,9.8-27.1,1.5-27.1,1.5c1.8-4,13.4-19.3,22-19.3C-95,171.8-82.3,176.9-89.9,189.6z"/>
<path fill="#A0D5E9" d="M-97.8,200.9c-16.7-5-31.2-0.8-31.2-0.8c-6.9,1.7-4.6,9.4-1.6,15.4c0,0,0,0-0.1,0c0,0,2.8,7.3,2.8,9.3
	l1.9-2.2c3.9,4.4,10,7.8,18.9,2.3C-96.5,218.4-97.8,200.9-97.8,200.9z"/>
<ellipse fill="#CDEAF5" cx="-13.9" cy="167.6" rx="7.2" ry="9.1"/>
<ellipse fill="#CDEAF5" cx="-49.5" cy="162.2" rx="7.2" ry="9.1"/>
<ellipse fill="#FFFFFF" cx="-14.6" cy="165.1" rx="7.1" ry="8.9"/>
<ellipse fill="#FFFFFF" cx="-49.6" cy="159.8" rx="7.1" ry="8.9"/>
<path fill="#4E4D50" d="M-45.7,155.9c0.1,0.2,0.1,0.4,0.1,0.7c0,1.3-0.8,2.3-1.8,2.3c-0.9,0-1.6-0.8-1.8-1.9
	c-0.6,0.8-0.9,1.8-0.9,2.9c0,2.3,1.5,4.2,3.4,4.2c1.9,0,3.4-1.9,3.4-4.2C-43.4,158-44.4,156.4-45.7,155.9z"/>
<path fill="#5B5A5C" d="M13.3,161.4c-2.7-1.7-6-2.6-6-2.6c-3.1-0.9-8.5-2.3-15.2-2.9c-8.7-0.9-16.2-0.8-20.8-0.7c-1.3,0-2.4,0-3.2,0
	l-0.9,0c-1.8,0-2.5,0-3.4-0.3c-0.5-0.2-1.1-0.4-2-0.7c-0.3-0.1-0.6-0.2-0.9-0.4c-1.6-0.7-3.6-1.5-6.1-2.2c-2.8-0.8-5.5-1.4-8.4-1.8
	c-6.5-0.8-11.3-0.7-13.5-0.5c-0.5,0-1,0.2-1.3,0.6c-0.5,0.6-0.7,1.5-0.9,2.4l-0.4,2.9c-0.1,1.3,0.7,2,1.4,2.5
	c0.5,0.4,0.6,0.9,0.6,1.8c0,0.2,0,4.3,0.4,6.8c0.3,2.1,1.6,3.9,6.4,5.3c0.9,0.3,1.9,0.5,3.1,0.8c8.1,1.8,11.1,1.4,13.9,0
	c2.6-1.3,4.5-6.7,5.4-9.3c0.1-0.4,0.3-0.9,0.4-1c0.1-0.2,0.2-0.5,0.3-0.7c0.2-0.6,0.2-0.6,0.9-0.6c0.8,0,1.5,0.2,2.1,0.3
	c0.8,0.2,0.9,0.5,1,0.6c0.2,0.4,0.3,1.6,0.4,2.8c0.1,0.8,0.2,1.6,0.3,2.4l0.1,0.7c0.3,2.3,0.8,5.9,2.4,7.5c1.1,1.1,4.3,2.6,7.8,3.7
	c2.4,0.7,4.8,1.2,6.9,1.4c5.8,0.6,11.6,0.6,14.1,0c2.6-0.6,3.4-2,4.4-4.5c0.1-0.3,0.3-0.7,0.4-1l0-0.2c0,0,2.1-6.5,3.4-11.6
	c2.9,0.8,5.9,2,5.9,2L13.3,161.4z M-41.3,159.2c-0.2,2.1-0.9,4.4-2.2,7.4c-1.4,3.2-1.8,3.3-3,3.6c-1.5,0.4-6.1,0.1-10.9-1
	c-4.5-1.1-6.7-2.8-7.2-3.9c-0.4-0.9-0.2-10.4,0.2-12.2c0.1-0.4,0.2-0.5,0.2-0.5c0.6-0.5,2.8-0.4,4.8-0.3c4,0.3,9.6,1.9,11.7,2.5
	l0.4,0.1c0.2,0,0.3,0.1,0.5,0.1C-43.1,156.1-41.1,157.6-41.3,159.2z M2.8,164.1c-0.4,1.8-2.8,10-3.6,11.7c-0.6,1.3-2.2,1.4-6.6,1.6
	l-0.3,0c-4.3,0.2-11.9-1.1-15.9-2.3c-0.2-0.1-0.3-0.1-0.5-0.2c-3.7-1.2-4.1-1.8-5-3.9c-1-2.2-0.8-8.4-0.8-9.6l0-0.1
	c0-1.3,0.1-1.9,1.8-2.4c2.3-0.6,12.1-0.6,16.1-0.1c3.1,0.3,9.7,1.8,12.6,2.7c0.5,0.1,0.8,0.3,1,0.3C1.8,161.9,3,162.7,2.8,164.1z"/>
<path fill="#4E4D50" d="M-12.7,160.5c0.1,0.2,0.1,0.4,0.1,0.7c0,1.3-0.8,2.3-1.8,2.3c-0.9,0-1.6-0.8-1.8-1.9
	c-0.6,0.8-0.9,1.8-0.9,2.9c0,2.3,1.5,4.2,3.4,4.2c1.9,0,3.4-1.9,3.4-4.2C-10.4,162.6-11.3,161.1-12.7,160.5z"/>
<path fill="#A0D5E9" d="M-18.5,132.5c0,0,12.5-5.3,18.1,0.4c0,0,0-5.7-7.7-5.4C-13.6,127.5-15.9,129.6-18.5,132.5z"/>
<path fill="#A0D5E9" d="M-15.9,126c0,0,4.1-4,11.2-3c0,0-2.8-2.4-6.4-1.5C-13.3,122.1-14.8,123.5-15.9,126z"/>
<path fill="#A0D5E9" d="M-53.8,136.3c0,0,6.4,2.3,9.3,6.7c0,0,0.7-3.8-2.9-5.8C-50.2,135.7-51.4,136-53.8,136.3z"/>
<path fill="#A0D5E9" d="M-42.2,136.1c0,0-1.8-2.9-4.8-3.1c0,0,2.5-1,3.6,0C-42.8,133.6-41.9,134.5-42.2,136.1z"/>
<path fill="#5B5A5C" d="M-39.2,183.7c-0.3-0.1,8,1.8,16.4,2.8c0,0,0.7-1.5,1.5-2.3c0,0-0.6,2.6,0.1,3.3c0,0-4.4,1-8.6,0.3
	c0,0,4.7-0.1,6.3-0.6C-23.5,187.3-31.9,186.5-39.2,183.7z"/>
<path fill="#5B5A5C" d="M29.5,120.2c0.6,0.2,2.5,0.9,2.5,0.9c16.9,6.9,34-2.3,34-2.3s-2.3,10.8-12.8,17.5
	c-10.5,6.7-26.2,3.3-26.2,3.3c-1.2,2-1.7,7.1-1.7,7.1s-2.8-6.4-0.9-16.1C25.6,123.8,29.1,120,29.5,120.2"/>
<path fill="#737F83" d="M29.5,120.2c0.6,0.2,2.5,0.9,2.5,0.9c16.9,6.9,34-2.3,34-2.3s-15.4,20.2-41.1,9.8
	C24.8,128.6,25.4,124.1,29.5,120.2"/>
<path fill="#CDEAF5" d="M-72.6,205.2c0,0,6.5,1.2,10.6-1c0,0,0.9,5.6,6.2,9.8c0,0,5-8.1,9.8-9.3c0,0,0.3,4.1,0.1,7.4
	c0,0,9,0.6,16.8-5.9c0,0-1.8,8.9-19.9,9.4c0,0,0.4-4.3,0.3-5.2c0,0-3.9,5-6.5,10.5c0,0-9.3-6.3-11-12.4c0,0-0.8,1-7.9-0.2
	L-72.6,205.2z"/>
<path fill="#84C0CE" d="M-105.3,199.3c0,0-8.8,6.8-14.9,8.8c0,0,14.8-3.4,19.5-5.6c0,0-4.1,10-16.2,14c0,0,11.5-1.1,16.1-5.4
	c0,0-4.8,15.2-16.3,16.5c0,0,6.7,1.1,12.7-4.7c6-5.8,7.2-17.5,6.6-22C-97.8,200.9-102.4,199.5-105.3,199.3z"/>
<path fill="#5B5A5C" d="M115.9,234.2V195H4.6c-1.5,0-2.6,1.2-2.6,2.6v36.6H115.9z"/>
<rect x="13" y="205" fill="#737F83" width="102.9" height="29.2"/>
<path fill="#4E4D50" d="M62.9,224.5l-3,3.1l-5.1-4.5l-7.8,5.6c0,0-3.5-4.1-4.6-6.4c-1.2-2.3-1.8-9.1-1.8-9.1l-1.8,1.5
	c2.2-8.1,2.1-8,3.5-10.2C42.2,204.5,62.2,200.5,62.9,224.5z"/>
<path fill="#EAF6FD" d="M65,215.1c0.1-2.5-1.1-5-0.8-7.5c0.1-1.2,0.4-2.7,1.2-3.6c0.9-1,2.1-1.5,3.3-2c0.5-0.3,1-0.5,1.5-0.8
	c0.9-0.8,1.9-1.5,3.1-2.1c6.5-3.2,24.4-4.9,24.4-4.9c-25.8-10-62.6-0.4-62.6-0.4c-7.4,5.1-11.1,20.4-11.1,20.4
	c5.6-4.8,22.6-15,23.1-14.8c-1,7.1-10.9,7,16.3,27.1c0.2-3.7,1.1-7.5,1.6-11.1C65,215.3,65,215.2,65,215.1z"/>
<g>
	<path fill="#CDEAF5" d="M35.9,183.1c-5,2.8-8.9,7.5-12.2,12.3h10.1c0,0,3.5-2.9,8.6-6.9c0,0-6.5,0.4-10.2-0.2
		c0,0,13.6-3.6,19.1-6.5c6.8-4.8,11.3-8,17.4-10.5c0,0,0.3-0.3-0.7-0.7c0,0,1.2-0.3,2.3-0.1c0,0,4.9-2,7.1-2.1
		C77.5,168.5,64,167.2,35.9,183.1z"/>
</g>
<path fill="#84C0CE" d="M-90.7,190.2c0,0,3-1.8,4.4-3.3c0,0,0.1,3.3-3,5.1L-90.7,190.2z"/>
<path fill="#4E4D50" d="M32.8,203.8c-4.1-0.1-8.3,0-12.4-0.1c-0.7,1.4-1.1,2.8-1.2,4.3c0,2.6,0.2,5.5-0.5,6.2L32.8,203.8z"/>
<path fill="#EAF6FD" d="M42.4,188.5c0,0-17.6,9.9-17.9,19.5c0,2.6,0.2,5.5-0.5,6.2l18.4-14L42.4,188.5z"/>
<path fill="#EAF6FD" d="M46.3,200.5c-3.2,10.8-3.1,10.5-2.8,16.2c0.2,2.5,0.3,3.6,1.5,4.8c1.2,1.2,6.8,7.4,6.8,7.4s6.7-4.6,6.1-9.3
	C56.1,204.7,46.3,200.5,46.3,200.5z"/>
<path fill="#EAF6FD" d="M63.5,226.5c1.6-1.4,3.2-0.7,2.6-6.9c-0.4-4.8-4.3-10.8-4.3-10.8"/>
<path fill="#EAF6FD" d="M38.1,204.5c0.2-0.1,2.8-3.2,9.4-3.6c4.6-0.3,0-3.3,0-3.3l-8.9,0.5"/>
<path fill="#EAF6FD" d="M43.9,218.9c0,0-1-4.5-0.8-7.8l-1.5,1.3c2.3-9.7,1.5-9.6,3-12.6c2.1-4.5,2.5,13.9,2.5,13.9"/>
<polygon fill="#EAF6FD" points="29.1,198.9 25.9,200.2 29.6,201.7 "/>
<path fill="#EAF6FD" d="M65.5,203.2c0,0,7.9-1.6,10.2-6.5"/>
<path fill="#CDEAF5" d="M54.3,211.3c0.4-3.2,0.6-8.8,1.6-12.1c-0.5,0.6-0.9,1.3-1.3,1.9c-1.4,2.9-2.2,7.1-2.4,11.3
	c-0.3,5.6,4.7,11.7,4.7,11.7s0.7-1,1-1.9l-2.6-5.1C55.3,217.1,53.8,215.4,54.3,211.3z"/>
</svg>
