<svg xmlns="http://www.w3.org/2000/svg" viewBox="0 0 194 34.1" enable-background="new 0 0 194 34.1"><g fill="#AAAAA8"><path d="M89 21.6h-4.4l-1.1 3.2h-2.7l5.1-14.3H88l5 14.2h-2.9L89 21.6zm-3.7-2.3h3l-1-3.2-.4-2.2h-.1l-.4 2.2-1.1 3.2zM96.8 14.5v5.8c0 .8.1 1.4.3 1.7.2.4.6.6 1.1.6.5 0 1-.2 1.3-.5s.6-.6.7-1.1v-6.6h2.6v7.1c0 .6 0 1.1.1 1.7s.2 1 .2 1.4h-2l-.5-1.5c-.3.5-.7 1-1.3 1.3-.6.3-1.2.5-2 .5-.5 0-1-.1-1.3-.2-.4-.2-.7-.4-1-.6-.2-.3-.5-.7-.6-1.3-.2-.6-.2-1.2-.2-2v-6.3h2.6zM109.3 21.9c0-.2-.1-.5-.3-.6-.2-.2-.5-.3-.9-.5-.3-.2-.7-.2-1.1-.4-.4-.2-.8-.3-1.1-.6-.3-.2-.6-.6-.9-1-.2-.4-.3-.9-.3-1.5 0-1 .3-1.7.9-2.3.6-.6 1.4-.8 2.5-.8.8 0 1.4.1 2.1.2s1.1.3 1.4.6l-.6 2c-.3-.2-.7-.2-1.2-.4s-1-.2-1.4-.2c-.8 0-1.2.3-1.2.9 0 .2.1.5.3.6.2.2.5.3.9.4.3.2.7.2 1.1.4.4.2.8.3 1.1.6.3.2.6.6.9 1 .2.4.3.9.3 1.4 0 1-.3 1.8-1 2.5-.6.6-1.7.9-2.9.9-.7 0-1.4-.1-2-.2-.6-.2-1.1-.4-1.5-.6l.7-2c.3.2.7.3 1.3.6.5.2 1 .2 1.6.2.4 0 .7-.1 1-.2.2-.5.3-.7.3-1zM112.6 14.5h1.4v-1.9l2.6-.7v2.6h2.5v2.2h-2.5v3.9c0 .7.1 1.2.2 1.5s.4.5.8.5c.2 0 .5 0 .7-.1.2-.1.4-.2.6-.2l.5 2.1c-.4.2-.8.3-1.3.5s-1 .2-1.5.2c-1 0-1.6-.2-2.1-.7-.5-.5-.6-1.3-.6-2.4v-5.1h-1.4l.1-2.4zM129.8 24.7h-9V10.5h2.8v11.7h6.2v2.5zM131.5 10.5h2.8v14.2h-2.8V10.5zM137.3 10.5h2.8v14.2h-2.8V10.5z"/></g><path fill="#AAAAA8" d="M63 1.1s-11.7 12-8.3 23.6c3.4 11.6 13.5 0 15.7-2.9 0 0-8.3 3.7-10.5-2.6S63 1.1 63 1.1zM62.6 15.4s0-21.3 10.9-4.7c5.7 10.2 4.9 17.4 4.9 17.4s-3.1-10.2-8-14c-4.6-3.5-7.8 1.3-7.8 1.3z"/></svg>