<svg xmlns="http://www.w3.org/2000/svg" width="275" height="150" viewBox="0 0 275 150"><path fill="#E3F6FC" d="M-1.5 0h275v150h-275z"/><g fill="#fff"><circle cx="151.723" cy="84.352" r="23.418"/><circle cx="161.404" cy="116.683" r="25.736"/><circle cx="125.528" cy="126.015" r="21.835"/><path d="M131.318 72.86l-24.122 42.828 22.023 12.405L148.03 94.69z"/></g><path fill="#fff" d="M101.354 64.426h83.11v58.358h-83.11z"/><g fill="#fff"><circle cx="68.612" cy="111.018" r="20.474"/><circle cx="89.086" cy="89.77" r="22.502"/><circle cx="111.588" cy="113.096" r="19.09"/><path d="M68.612 131.49h42.976v-22.097H78.07z"/></g><g fill="#fff"><circle cx="175.611" cy="111.018" r="20.474"/><circle cx="196.086" cy="89.77" r="22.502"/><circle cx="218.588" cy="113.096" r="19.09"/><path d="M175.61 131.49h42.978v-22.097H185.07z"/></g><g fill="#fff"><circle cx="193.504" cy="78.561" r="20.474"/><circle cx="213.979" cy="57.311" r="22.502"/><circle cx="236.48" cy="80.637" r="19.09"/><path d="M193.504 99.033h42.976V76.936h-33.516z"/></g><g fill="#fff"><circle cx="121.533" cy="55.093" r="20.474"/><circle cx="142.007" cy="33.844" r="22.502"/><circle cx="164.509" cy="57.17" r="19.09"/><path d="M121.533 75.566h42.976V53.468H130.99z"/></g><g fill="#fff"><circle cx="184.113" cy="22.808" r="19.561"/><circle cx="196.796" cy="47.986" r="21.498"/><circle cx="168.652" cy="60.896" r="18.238"/><path d="M165.654 16.334L152.066 55.08l19.922 6.986 10.6-30.216z"/></g><g fill="#fff"><circle cx="31.001" cy="78.645" r="18.19"/><circle cx="49.191" cy="59.766" r="19.991"/><circle cx="69.181" cy="80.49" r="16.96"/><path d="M31 96.834h38.182V77.2H39.405z"/></g><g fill="#fff"><circle cx="78.854" cy="45.892" r="20.474"/><circle cx="99.328" cy="24.642" r="22.502"/><circle cx="121.83" cy="47.969" r="19.09"/><path d="M78.854 66.365h42.976V44.267H88.313z"/></g><path fill="#4D4D4D" d="M139.568 91.256c29.71-5.174 24.263 47.87-1.305 40.396-16.38-4.79-18.29-36.984 1.305-40.396zm-8.47 18.244c-1.152-.572-1.902-2.064-3.258-.652.297 9.553 6.414 21.955 16.29 20.852 7.914-.885 13.53-12.498 13.03-21.502-2.463-.942-1.25 1.79-3.258 1.304-.467-1.923-.743-4.035-1.954-5.213-6.03 3.64-12.796 3.45-18.895 0-1.117 1.27-1.133 3.644-1.955 5.21z"/><linearGradient id="a" gradientUnits="userSpaceOnUse" x1="428" y1="-155.501" x2="428" y2="-192.5" gradientTransform="matrix(1 0 0 -1 -285 -129)"><stop offset="0" stop-color="#4BD0EF"/><stop offset="1" stop-color="#29AAE1"/></linearGradient><path fill="url(#a)" d="M161.5 58.83c0 2.58-2.09 4.67-4.67 4.67h-27.66c-2.58 0-4.67-2.09-4.67-4.67V31.17c0-2.58 2.09-4.67 4.67-4.67h27.66c2.58 0 4.67 2.09 4.67 4.67V58.83z"/><path fill="#29AAE1" d="M143.043 40.68s1.016-7.495 7.368-5.843c0 0-1.27.508-1.523 1.397 0 0 5.21.38 5.463 5.08 0 0 1.65 0 2.668-.634 0 0-.13 1.525-1.145 1.906 0 0 2.033 1.27 1.145 1.397 0 0-2.033-.254-2.668.127 0 0-1.492 8.892-10.8 8.892-9.146 0-11.94-2.54-13.337-5.21 0 0 5.478 2.416 9.29-.38 0 0-6.257-2.984-5.733-11.432 0 0 6.605 2.16 9.273 4.7z"/><path fill="#fff" d="M143.043 41.75s1.016-7.495 7.368-5.843c0 0-1.27.508-1.523 1.397 0 0 5.21.38 5.463 5.08 0 0 1.65 0 2.668-.634 0 0-.13 1.524-1.145 1.906 0 0 2.033 1.27 1.145 1.396 0 0-2.033-.254-2.668.128 0 0-1.492 8.892-10.8 8.892-9.146 0-11.94-2.54-13.337-5.21 0 0 5.478 2.416 9.29-.38 0 0-6.257-2.984-5.733-11.433 0 0 6.605 2.16 9.273 4.7z"/><linearGradient id="b" gradientUnits="userSpaceOnUse" x1="86.423" y1="-304.845" x2="86.423" y2="-342.217" gradientTransform="matrix(.707 -.707 -.707 -.707 -195.894 -100.879)"><stop offset="0" stop-color="#4B71B8"/><stop offset="1" stop-color="#293F7E"/></linearGradient><path fill="url(#b)" d="M117.107 63.476c1.825 1.825 1.825 4.782 0 6.607L97.287 89.9c-1.823 1.824-4.78 1.824-6.605 0l-19.82-19.817c-1.824-1.824-1.824-4.782 0-6.607l19.82-19.82c1.823-1.824 4.78-1.824 6.605 0l19.82 19.82z"/><path fill="#293F7E" d="M93.32 48.46s-9.857 7.238-1.274 15.82l-2.786 2.787 3.928 3.928 2.86-2.858 10.63 10.63 4.51-4.51-10.705-10.703 3.918-3.92-4-4-3.846 3.847s-4.378-2.696.27-7.397L93.32 48.46z"/><path opacity=".3" fill="#fff" enable-background="new" d="M113.805 60.172l3.303 3.303c1.825 1.825 1.825 4.782 0 6.607L97.288 89.9c-1.824 1.824-4.782 1.824-6.606 0l-3.303-3.303 26.425-26.425z"/><path fill="#fff" d="M94.192 49.333s-9.857 7.238-1.274 15.82l-2.786 2.787 3.928 3.927 2.858-2.858 10.632 10.63 4.51-4.51-10.706-10.704 3.92-3.92-4-4-3.847 3.847s-4.377-2.696.27-7.397l-3.505-3.623z"/><linearGradient id="c" gradientUnits="userSpaceOnUse" x1="603.921" y1="109.894" x2="603.921" y2="71.893" gradientTransform="matrix(.707 .707 .707 -.707 -299.803 -296.262)"><stop offset="0" stop-color="#E16D35"/><stop offset="1" stop-color="#C93D1D"/></linearGradient><path fill="url(#c)" d="M194.828 90.04c-1.838 1.84-4.818 1.84-6.656 0l-20.214-20.21c-1.838-1.84-1.838-4.82 0-6.658l20.214-20.213c1.838-1.84 4.818-1.84 6.656 0l20.214 20.212c1.838 1.838 1.838 4.818 0 6.657l-20.214 20.21z"/><path fill="#B7321C" d="M191.984 68.765c-.176-.44-.41-.82-.7-1.14-.206-.217-.546-.597-1.02-1.137-.476-.54-.855-.96-1.14-1.258-.268-.278-.52-.553-.762-.822-.24-.268-.434-.524-.57-.77-.152-.247-.234-.502-.244-.77-.01-.27.107-.526.354-.77.238-.24.51-.347.813-.32.306.026.562.09.767.19l1.203 1.202c.93.93 2.04 1.443 3.338 1.547 1.295.104 2.373-.277 3.235-1.14.33-.33.61-.728.836-1.192.226-.464.357-.96.397-1.492l.06-.06 2.31 2.307.954-.955-3.422-3.42c-.21-.4-.436-.775-.67-1.13-.236-.355-.504-.682-.802-.98-1.08-1.08-2.267-1.67-3.555-1.764-1.29-.097-2.398.32-3.328 1.25-.616.615-.98 1.333-1.1 2.152-.114.818-.003 1.696.333 2.63l-.147.15c-.716-.293-1.347-.416-1.89-.37-.543.047-.99.246-1.342.597-.278.278-.458.564-.542.86-.082.295-.106.598-.074.91.033.272.11.56.233.86.122.3.253.58.394.84l-.14.14c-.855-.79-1.744-1.253-2.664-1.394-.922-.14-1.72.13-2.396.807-.836.835-1.102 1.838-.8 3.008.3 1.17 1.192 2.5 2.68 3.984.907.91 1.757 1.584 2.545 2.028.79.444 1.562.733 2.317.865.723.113 1.394.065 2.014-.144.62-.208 1.165-.547 1.636-1.018.472-.47.79-.942.955-1.413.166-.47.24-.965.23-1.482-.02-.482-.117-.944-.293-1.385zm1.22-5.833c-.77.152-1.44-.056-2.01-.626-.513-.51-.695-1.16-.554-1.945.144-.784.582-1.544 1.318-2.28.324-.326.67-.614 1.033-.867.366-.25.723-.42 1.075-.506.38-.1.742-.102 1.095-.01.353.093.683.295.993.606.57.57.783 1.244.637 2.02-.146.776-.605 1.55-1.383 2.326-.7.702-1.434 1.13-2.204 1.282zm-6.654 9.715c-.937-.185-1.89-.765-2.864-1.74-.562-.563-.985-1.096-1.27-1.596-.28-.5-.45-.952-.512-1.356-.065-.424-.043-.792.07-1.104.112-.31.284-.583.518-.814.517-.517 1.09-.79 1.72-.816.63-.026 1.373.25 2.23.825.763.763 1.414 1.45 1.957 2.06.544.61.895 1.022 1.056 1.233.266.437.363.86.298 1.273-.067.412-.285.802-.655 1.174-.767.76-1.618 1.05-2.55.863zM201.12 67.342l-1.945 1.944.76.76 1.943-1.945 1.937 1.937.746-.747-1.935-1.936 1.948-1.948-.76-.76-1.948 1.95-1.936-1.936-.747.746 1.936 1.936z"/><path fill="#fff" d="M191.223 69.528c-.177-.44-.41-.82-.7-1.14-.206-.217-.546-.597-1.022-1.137-.473-.54-.853-.96-1.137-1.257-.266-.28-.52-.553-.762-.822-.24-.267-.433-.523-.57-.77-.153-.245-.233-.5-.243-.77-.012-.268.107-.524.354-.77.24-.24.51-.346.814-.32s.562.09.77.19l1.2 1.202c.93.93 2.04 1.444 3.338 1.548 1.297.103 2.373-.277 3.235-1.14.33-.33.61-.728.836-1.192s.356-.96.397-1.492l.06-.06 2.308 2.307.954-.955-3.42-3.42c-.214-.398-.437-.775-.672-1.13-.235-.354-.503-.68-.802-.98-1.08-1.08-2.266-1.667-3.555-1.763-1.29-.098-2.397.318-3.328 1.248-.615.616-.98 1.334-1.098 2.153-.115.818-.005 1.695.332 2.63l-.15.148c-.714-.292-1.345-.415-1.888-.368-.543.046-.99.245-1.343.597-.28.278-.46.565-.543.86s-.107.6-.074.91c.032.27.11.56.232.86.123.3.254.58.395.84l-.14.14c-.855-.79-1.743-1.254-2.665-1.393-.922-.14-1.72.13-2.397.806-.834.835-1.1 1.838-.8 3.008.302 1.17 1.194 2.497 2.68 3.982.91.91 1.76 1.585 2.546 2.028.79.444 1.562.733 2.318.865.723.112 1.394.063 2.014-.146.62-.208 1.164-.547 1.637-1.02.47-.47.788-.94.955-1.41.165-.47.24-.966.23-1.482-.023-.48-.122-.943-.295-1.384zm1.216-5.833c-.77.152-1.44-.057-2.01-.627-.512-.51-.696-1.158-.553-1.945.144-.785.582-1.545 1.317-2.28.324-.326.67-.614 1.033-.867.365-.252.723-.42 1.074-.506.38-.1.743-.103 1.097-.01.352.092.683.294.994.605.57.57.782 1.244.636 2.02-.146.775-.605 1.55-1.38 2.326-.703.704-1.437 1.132-2.207 1.285zm-6.653 9.716c-.936-.184-1.89-.764-2.864-1.74-.563-.562-.985-1.096-1.27-1.595-.28-.5-.45-.953-.51-1.357-.067-.425-.044-.792.067-1.104.113-.31.286-.583.52-.815.516-.518 1.09-.79 1.72-.816.63-.026 1.372.248 2.227.825.765.762 1.417 1.448 1.96 2.057.543.61.896 1.022 1.057 1.234.264.44.363.862.297 1.273s-.284.802-.656 1.173c-.764.762-1.613 1.05-2.547.865zM200.355 68.105l-1.943 1.945.76.76 1.943-1.945 1.936 1.936.748-.746-1.937-1.936 1.95-1.948-.76-.76-1.95 1.95-1.935-1.936-.746.746 1.935 1.935z"/><linearGradient id="d" gradientUnits="userSpaceOnUse" x1="-228" y1="-253.5" x2="-228" y2="-290.5" gradientTransform="matrix(0 -1 -1 0 -194 -112.001)"><stop offset="0" stop-color="#41B8D0"/><stop offset="1" stop-color="#256FBB"/></linearGradient><path fill="url(#d)" d="M91.63 97.5c2.53 0 4.87 2.074 4.87 4.633v27.872c0 2.558-2.34 4.495-4.87 4.495H64.08c-2.53 0-4.58-1.938-4.58-4.495v-27.872c0-2.56 2.05-4.633 4.58-4.633h27.55z"/><path fill="#257EAA" d="M72.354 124.417h13.01v-3.85h-13.01v3.85zm-3.32-3.978c-1.103.022-1.93.81-1.93 2.05 0 1.242.827 2.054 1.93 2.03 1.052.022 1.903-.788 1.903-2.005 0-1.264-.85-2.076-1.902-2.076zm9.085-10.87h7.243v-3.85h-7.72c-3.607 0-5.108 1.9-5.108 4.434 0 1.23-.25 2.488 1.802 3.826v.076l-1.983.067v3.41c1.076-.05 2.684-.058 4.21-.058h8.8v-3.852h-7.52c-.352 0-.702-.05-.953-.152-.7-.25-1.426-.887-1.426-1.95 0-1.39 1.076-1.95 2.655-1.95z"/><path fill="#fff" d="M73.625 124.417h13.01v-3.85h-13.01v3.85zm-3.318-3.978c-1.102.022-1.93.81-1.93 2.05 0 1.242.828 2.054 1.93 2.03 1.052.022 1.903-.788 1.903-2.005 0-1.264-.852-2.076-1.903-2.076zm9.083-10.87h7.245v-3.85h-7.72c-3.608 0-5.107 1.9-5.107 4.434 0 1.23-.25 2.488 1.8 3.826v.076l-1.982.067v3.41c1.078-.05 2.684-.058 4.212-.058h8.798v-3.852h-7.52c-.352 0-.7-.05-.952-.152-.702-.25-1.428-.887-1.428-1.95 0-1.39 1.076-1.95 2.654-1.95z"/><linearGradient id="e" gradientUnits="userSpaceOnUse" x1="512.002" y1="346.501" x2="512.002" y2="309.5" gradientTransform="matrix(0 1 1 0 -120 -396)"><stop offset="0" stop-color="#fff"/><stop offset="1" stop-color="#EAEAEA"/></linearGradient><path fill="url(#e)" d="M194.098 134.5c-2.54 0-4.598-2.06-4.598-4.596v-27.81c0-2.536 2.06-4.595 4.598-4.595h27.807c2.537 0 4.597 2.058 4.597 4.595v27.81c0 2.538-2.06 4.596-4.597 4.596h-27.807z"/><path d="M203.662 118.717s-3.88 1.164-3.104 4.577c.776 3.414 5.12 3.646 7.37 1.63 2.25-2.018-1.317-7.215-4.266-6.207z" fill="none"/><path d="M212.572 106.562s-2.68-2.562-7.04-2.12c-4.364.448-7.962 3.208-7.962 12.417 0 9.21 4.807 11.526 8.76 11.58s5.716-1.726 6.316-2.56c0 0 2.836.004 4.336-.264 0 0 .168-1.417-1.586-4.477 0 0 .408-4.18-.05-9.75 0 0 1.562-2.337 1.972-4.694 0 0-2.46-.39-4.746-.134z"/><path fill="#E2B89F" d="M208.255 110.686v11.428s.364 3.238-4.935 3.238c-4.662.025-4.36-8.533-4.36-8.533s-.374-9.376 4.802-9.382c4.676-.013 4.493 3.248 4.493 3.248z"/><path fill="#9C584F" d="M206.13 121.07c0 .734-.96 1.33-2.136 1.33-1.182 0-2.137-.596-2.137-1.33s.955-1.33 2.137-1.33c1.177 0 2.135.596 2.135 1.33z"/><path fill="#fff" d="M201.475 121.07c0-.96 1.106-1.713 2.52-1.713 1.412 0 2.52.752 2.52 1.713 0 .962-1.106 1.714-2.52 1.714s-2.52-.752-2.52-1.714zm4.27 0c0-.448-.72-.947-1.75-.947-1.034 0-1.755.5-1.755.947 0 .447.72.947 1.754.947 1.03.003 1.752-.5 1.752-.947z"/><path fill="#9C584F" d="M206.13 111.877c0 .734-.96 1.33-2.136 1.33-1.182 0-2.137-.596-2.137-1.33 0-.732.955-1.33 2.137-1.33 1.177 0 2.135.598 2.135 1.33z"/><path fill="#fff" d="M201.475 111.877c0-.96 1.106-1.713 2.52-1.713 1.412 0 2.52.752 2.52 1.713s-1.106 1.714-2.52 1.714-2.52-.752-2.52-1.713zm4.27 0c0-.447-.72-.947-1.75-.947-1.034 0-1.755.5-1.755.947 0 .448.72.948 1.754.948 1.03 0 1.752-.5 1.752-.948z"/><path fill="#9C584F" d="M201.445 115.945s1.086.38.066.85c0 0-.227-.352-.762-.218l-.418 1.093v-2.477l.438.982c.003.002.812.14.677-.23z"/><linearGradient id="f" gradientUnits="userSpaceOnUse" x1="-125.981" y1="-268.975" x2="-125.981" y2="-292.976" gradientTransform="matrix(.334 -.943 -.943 -.334 -173.204 -135.167)"><stop offset="0" stop-color="#9FE8FF"/><stop offset="1" stop-color="#59D6FF"/></linearGradient><path fill="url(#f)" d="M61.9 69.166c1.614.572 2.458 2.342 1.886 3.955L57.834 89.9c-.572 1.613-2.342 2.457-3.955 1.886l-16.782-5.95c-1.612-.572-2.456-2.345-1.884-3.956l5.95-16.78c.573-1.613 2.344-2.457 3.956-1.885l16.78 5.95z"/><path fill="#B0F0FF" d="M48.127 74.966s-.783 1.83-1.458.066c-.675-1.763-.46-4.017 1.357-5.345 1.815-1.33 3.582-.747 2.746.974 0 0 2.343 1.863 3.838 4.724 1.497 2.86 4.246 6.48-.47 7.138-4.714.66-5.51-.386-7.788-.027 0 0-.713 4.41-1.54 1.562-.828-2.85-1.275-6.01.772-5.464 2.047.548 7 1.495 7.186.083.188-1.412-2.158-3.77-3.23-4.283-1.07-.516-1.413.573-1.413.573z"/><path fill="#212121" d="M47.154 74.62s-.783 1.83-1.458.067c-.675-1.765-.458-4.018 1.357-5.346 1.816-1.328 3.582-.746 2.748.976 0 0 2.344 1.86 3.84 4.722 1.495 2.86 4.244 6.48-.47 7.14-4.716.657-5.51-.388-7.79-.028 0 0-.712 4.408-1.54 1.562-.826-2.85-1.274-6.012.773-5.464 2.047.546 7 1.496 7.186.082.187-1.412-2.16-3.768-3.232-4.282-1.072-.517-1.414.573-1.414.573z"/><linearGradient id="g" gradientUnits="userSpaceOnUse" x1="266.617" y1="-218.95" x2="266.617" y2="-242.951" gradientTransform="matrix(.935 -.355 -.355 -.935 -228.767 -101.691)"><stop offset="0" stop-color="#fff"/><stop offset="1" stop-color="#EAEAEA"/></linearGradient><path fill="url(#g)" d="M116.88 23.56c.607 1.6-.196 3.388-1.796 3.996L98.44 33.88c-1.6.607-3.39-.197-3.996-1.796L88.12 15.44c-.607-1.6.196-3.388 1.796-3.996L106.56 5.12c1.6-.608 3.39.196 3.996 1.795l6.324 16.645z"/><linearGradient id="h" gradientUnits="userSpaceOnUse" x1="266.615" y1="-229.95" x2="266.615" y2="-239.951" gradientTransform="matrix(.935 -.355 -.355 -.935 -228.767 -101.691)"><stop offset="0" stop-color="#E16D35"/><stop offset="1" stop-color="#C93D1D"/></linearGradient><path fill="url(#h)" d="M111.822 24.326c.23.608-.075 1.29-.683 1.52l-10.886 4.136c-.608.23-1.288-.075-1.52-.683l-2.715-7.146c-.232-.608.074-1.29.682-1.52l10.885-4.136c.608-.23 1.288.075 1.52.683l2.715 7.146z"/><path fill="#C93D1D" d="M101.144 22.27l-.4-1.056-2.714 1.03.4 1.056.994-.377 1.768 4.653.73-.277-1.77-4.654.992-.377zm2.1-.205l.822 2.167c.16.42.235.74.225.953-.01.214-.104.355-.284.423-.158.06-.3.018-.424-.126-.126-.145-.253-.387-.382-.73l-.887-2.333-.66.25.967 2.54c.097.257.2.486.304.686.106.2.22.362.342.484s.252.202.396.238c.143.037.303.022.48-.045.14-.053.254-.158.347-.315.092-.157.133-.372.126-.643l.014-.005.22.576.625-.238-1.57-4.133-.662.25zm4.36.704c-.145-.38-.298-.694-.46-.946-.162-.252-.326-.448-.487-.588-.162-.14-.316-.23-.467-.272-.15-.04-.285-.038-.405.008-.15.057-.273.16-.373.31-.1.152-.15.35-.15.592l-.008.004-.79-2.08-.66.25 2.17 5.71.626-.24-.2-.527.01-.002c.157.202.325.324.5.368.175.043.35.03.527-.036.12-.046.223-.133.31-.264.084-.13.14-.3.167-.513.027-.212.02-.466-.026-.763-.046-.295-.14-.633-.285-1.01zm-.504 1.586c-.043.098-.113.166-.212.204-.096.036-.192.032-.292-.012-.098-.045-.194-.12-.286-.225-.094-.105-.182-.233-.263-.385-.083-.15-.156-.312-.22-.483-.068-.176-.122-.347-.16-.516-.04-.168-.06-.322-.06-.463 0-.14.022-.26.065-.36.045-.1.114-.166.21-.202.1-.038.196-.034.294.012.098.046.192.12.285.226.095.105.182.233.264.384.083.152.158.316.225.49.063.172.116.342.154.51.04.167.06.32.06.462 0 .138-.02.257-.064.356zm3.452-1.8l-.58.22c.027.135.014.28-.037.43-.053.15-.146.25-.28.302-.185.07-.358.042-.52-.085-.162-.127-.316-.374-.466-.738l1.73-.657c-.11-.325-.242-.625-.396-.902-.155-.277-.325-.51-.51-.703-.183-.193-.376-.33-.58-.406-.204-.078-.407-.08-.612 0-.182.068-.327.187-.435.356-.108.17-.178.372-.213.607-.034.236-.03.498.013.786.042.29.123.588.24.897.122.32.26.603.42.847.16.245.326.443.504.596.18.15.364.25.555.297.19.047.38.034.57-.038.272-.104.463-.298.574-.584.11-.285.118-.695.022-1.225zm-2.23-.875c-.02-.106-.026-.214-.02-.32.007-.107.034-.205.08-.292.047-.088.122-.15.228-.192.16-.06.31-.032.444.087.135.12.273.317.414.593l-1.072.407c-.026-.08-.05-.174-.073-.282z"/><path fill="#fff" d="M99.035 12.594l-.51.194.064 3.147-2.067-2.387-.535.203 2.614 2.945.905 2.38.45-.17-.904-2.38-.018-3.93zm3.968 2.748c-.118-.31-.253-.59-.406-.84-.152-.25-.317-.455-.494-.615-.176-.16-.36-.27-.55-.327-.19-.06-.382-.05-.577.024-.192.073-.342.194-.446.365-.104.17-.17.373-.195.61-.026.236-.013.5.04.787.05.29.135.587.253.897s.252.588.404.835c.152.246.315.45.492.61.176.16.36.267.55.322.19.056.383.046.575-.026.194-.074.345-.195.448-.363.104-.167.17-.37.195-.605.026-.237.014-.498-.037-.784-.05-.285-.135-.583-.253-.892zm-.33 1.823c-.063.105-.15.18-.253.218s-.216.042-.336.006c-.12-.037-.24-.107-.36-.214-.12-.106-.238-.25-.353-.435-.113-.182-.22-.402-.316-.658-.097-.255-.164-.49-.2-.703-.037-.214-.045-.402-.026-.564.017-.163.06-.296.125-.402.066-.106.15-.18.255-.22.104-.038.217-.04.335-.004.12.035.24.106.362.217.12.11.238.256.354.44.114.183.22.402.317.658.097.255.163.49.2.703.034.214.043.4.025.56-.018.157-.06.29-.128.397zm2.026-4.885l-.403.153.904 2.38c.073.19.126.372.155.543.032.172.04.33.025.47-.014.144-.054.264-.12.364-.065.1-.16.173-.28.22-.156.058-.306.027-.452-.09-.146-.12-.27-.31-.37-.57l-1.083-2.854-.4.152 1.052 2.772c.087.23.18.43.276.608.1.177.207.322.324.432.12.11.245.183.38.215.135.033.284.02.444-.042.18-.068.313-.19.4-.362s.12-.405.106-.698l.01-.004.254.67.38-.145-1.6-4.213zM101.327 22.75l-.4-1.054-2.714 1.03.4 1.056.993-.377 1.768 4.653.73-.277-1.77-4.652.993-.377zm2.1-.202l.822 2.167c.16.42.234.74.223.953-.01.214-.105.355-.285.424-.158.06-.3.018-.424-.127-.126-.145-.252-.387-.382-.73l-.887-2.333-.66.25.967 2.542c.097.256.2.485.304.685.106.2.22.36.34.482.12.122.253.202.397.24.142.035.303.02.48-.046.14-.053.254-.158.346-.315.092-.156.134-.37.126-.642l.014-.005.22.576.625-.24-1.57-4.133-.66.25zm4.36.704c-.144-.378-.297-.694-.46-.946s-.326-.448-.486-.588c-.16-.14-.315-.23-.466-.27-.15-.04-.285-.04-.405.007-.15.057-.274.16-.374.312-.1.15-.15.348-.15.59l-.008.004-.79-2.077-.66.25 2.17 5.708.626-.237-.2-.528.008-.003c.158.202.326.324.5.368.176.043.353.03.53-.036.12-.046.222-.133.307-.264.084-.13.14-.3.168-.513.027-.21.02-.465-.026-.762-.047-.297-.142-.635-.285-1.013zm-.504 1.586c-.043.1-.113.166-.212.204-.095.037-.19.032-.29-.012-.1-.046-.195-.12-.287-.225-.094-.105-.182-.233-.263-.385-.083-.15-.156-.312-.22-.483-.068-.176-.122-.347-.16-.517-.04-.167-.06-.32-.06-.462 0-.14.022-.26.065-.36.045-.1.114-.166.21-.202.1-.038.196-.034.293.012.098.046.192.12.285.226.094.105.182.233.263.384.083.152.158.316.224.492.065.17.117.34.156.508.04.167.06.322.06.462s-.02.26-.063.358zm3.453-1.8l-.58.22c.027.136.014.28-.038.43-.053.152-.146.252-.28.303-.184.07-.358.043-.52-.084-.162-.127-.316-.375-.466-.738l1.73-.657c-.108-.324-.24-.624-.395-.9-.156-.278-.325-.512-.51-.704-.184-.193-.377-.328-.58-.406-.205-.078-.408-.08-.612 0-.182.068-.328.188-.435.356-.108.17-.18.372-.213.607-.034.235-.03.498.013.786.042.29.123.586.24.896.122.32.26.602.42.847.16.245.326.443.504.596.18.15.362.25.553.296.19.046.382.034.57-.038.272-.103.463-.298.574-.584.114-.288.122-.696.026-1.226zm-2.23-.874c-.02-.107-.026-.215-.02-.32.008-.108.034-.206.08-.293.047-.086.122-.15.228-.19.16-.062.31-.033.445.086.134.12.272.317.413.593l-1.072.406c-.027-.08-.052-.175-.073-.282z"/><path fill="#4C4C4C" d="M98.886 12.2l-.51.195.064 3.147-2.066-2.387-.535.203 2.613 2.945.904 2.38.45-.17-.905-2.38-.016-3.932zm3.968 2.75c-.118-.31-.253-.59-.406-.84-.153-.25-.317-.456-.494-.616-.176-.16-.36-.27-.55-.328-.19-.058-.382-.05-.578.024-.19.073-.34.195-.446.365-.104.17-.17.375-.195.61-.026.237-.013.5.04.788.05.29.136.588.253.897s.252.588.404.835c.152.248.315.45.493.61.175.16.36.268.55.324.19.054.383.045.575-.028.195-.074.346-.195.45-.363.104-.168.17-.37.194-.606.026-.238.013-.5-.038-.784-.05-.284-.135-.582-.252-.89zm-.33 1.82c-.064.106-.15.18-.254.22-.104.038-.216.04-.336.005-.12-.036-.24-.106-.36-.213s-.238-.25-.353-.435c-.113-.183-.22-.403-.316-.658-.097-.257-.164-.49-.2-.705-.036-.214-.045-.4-.026-.563.017-.163.06-.296.125-.402.066-.106.15-.18.255-.22s.217-.04.335-.004c.12.035.24.107.362.217.12.11.238.256.354.44.114.183.22.402.317.658s.164.49.2.704c.035.214.043.4.025.56-.018.158-.06.29-.128.397zm2.026-4.883l-.403.153.905 2.38c.072.19.125.372.154.544.032.17.04.33.025.47s-.053.264-.118.363c-.066.1-.16.173-.282.22-.155.058-.305.028-.45-.09-.147-.12-.27-.31-.37-.57l-1.084-2.854-.4.152 1.052 2.772c.087.23.18.43.276.608.1.177.207.322.324.433.118.11.245.182.38.214.135.033.283.02.443-.042.18-.068.314-.19.4-.362.085-.173.12-.406.106-.7l.01-.002.254.67.38-.145-1.6-4.213z"/><linearGradient id="i" gradientUnits="userSpaceOnUse" x1="561.858" y1="10.615" x2="561.858" y2="-13.721" gradientTransform="matrix(.899 .438 .438 -.899 -320.041 -225.934)"><stop offset="0" stop-color="#FF8BD1"/><stop offset="1" stop-color="#FF4EAD"/></linearGradient><path fill="url(#i)" d="M191.294 35.152c-.75 1.538-2.604 2.176-4.142 1.427l-16.305-7.95c-1.537-.75-2.178-2.605-1.428-4.142l7.948-16.306c.75-1.538 2.605-2.176 4.143-1.426l16.306 7.95c1.537.75 2.178 2.604 1.428 4.142l-7.95 16.304z"/><path fill="#EA3FA1" d="M190.213 26.37s-5.762-3.966-11.123-1.05l-.908-1.78s6.89-3.852 12.957 1.728l-.927 1.103zM180.482 16.938s6.54 4.146 10.16 1.44l.912 1.782s-5.216 3.322-11.996-2.118l.924-1.104zM185.52 15.008s.766 8.48-.97 13.643l1.867-.332s2-5.128.85-13.092l-1.746-.218zM181.455 28.98c-3.913-1.91-5.547-6.646-3.64-10.56 1.91-3.915 6.647-5.547 10.562-3.64 3.915 1.91 5.547 6.647 3.64 10.562s-6.647 5.547-10.562 3.637zm6.11-12.534c-2.997-1.46-6.624-.21-8.085 2.785-1.46 3-.21 6.625 2.785 8.085 2.998 1.462 6.625.213 8.086-2.784 1.464-2.995.212-6.623-2.786-8.084z"/><path fill="#fff" d="M189.76 27.3s-5.76-3.967-11.12-1.05l-.913-1.782s6.894-3.85 12.957 1.73l-.924 1.102zM180.03 17.866s6.54 4.146 10.16 1.44l.91 1.782s-5.214 3.322-11.993-2.118l.922-1.104zM185.07 15.937s.762 8.48-.975 13.643l1.87-.333s1.998-5.128.85-13.092l-1.745-.218zM181.003 29.908c-3.914-1.908-5.547-6.646-3.64-10.56 1.908-3.915 6.648-5.547 10.562-3.638 3.916 1.91 5.548 6.646 3.64 10.56-1.91 3.915-6.647 5.547-10.562 3.638zm6.11-12.534c-2.996-1.462-6.623-.21-8.086 2.786-1.46 2.997-.21 6.623 2.787 8.085 2.998 1.46 6.623.212 8.084-2.785 1.463-2.997.213-6.625-2.785-8.086z"/><linearGradient id="j" gradientUnits="userSpaceOnUse" x1="595.771" y1="274.318" x2="595.771" y2="250.318" gradientTransform="matrix(.309 .951 .951 -.309 -197.024 -407.109)"><stop offset="0" stop-color="#fff"/><stop offset="1" stop-color="#EAEAEA"/></linearGradient><path fill="url(#j)" d="M231.74 92.663c-1.63.528-3.375-.362-3.902-1.988l-5.5-16.936c-.53-1.627.36-3.375 1.988-3.903l16.936-5.5c1.627-.53 3.373.36 3.9 1.988l5.5 16.936c.53 1.63-.36 3.375-1.988 3.903l-16.934 5.5z"/><circle fill="#EAEAEA" cx="235.809" cy="74.388" r="3.614"/><circle fill="#EAEAEA" cx="238.838" cy="83.716" r="3.613"/><circle fill="#06c" cx="234.827" cy="74.707" r="3.614"/><circle fill="#f09" cx="237.857" cy="84.035" r="3.613"/></svg>