<svg xmlns="http://www.w3.org/2000/svg" viewBox="0 0 194 34.1" enable-background="new 0 0 194 34.1"><path fill="#AAAAA8" d="M17.9 25.4c-.4.2-.9.3-1.4.5L0 28.2l7-10.7c1.6-2.6 5.6-5.2 11.9-6.5l-6.4 9.4c-.1.2-.3.5-.5.9l-1.8 2.8c-.5.5-.3.9.3.9 1.7-.2 2.2-.2 2.9-1.1.2-.2 1.3-1.4 1.7-2.1l5.7-.9c1.5-.3 2.8-.4 2.8-.4s-1.2 2.7-5.7 4.9zm14.9-2.5c-2.8 1-10.4 1.7-10.4 1.7 3.6-3.9 5.6-4.3 6.4-4.6 3.1-1.4 10.4-2.2 10.4-2.2-.1.1-1.7 3.6-6.4 5.1zm-.8-10c-2.7.5-4.1.8-5.5 3.8-.1.3-.6 1.4-1.8 1.5l-.5.1-6.9 1c1.2-1.7 2.6-3.9 2.9-4.3 1.5-2.4 3.6-4.9 12.3-6.6 0 0 4.8-.9 8-1.3-.1.1-2.8 4.6-8.5 5.8z"/><g fill="#AAAAA8"><path d="M166.7 21.5h1.4v1.7h-1.4v-1.7zM44.3 13h1.3v9.3h8.1v1.1h-9.3L44.3 13zM55.4 13h1.3v10.3h-1.3V13zM59.5 13h9.8v1h-8.5v3.6h8v1h-8.1v4.6h-1.3l.1-10.2zM71.1 13h10.2v1h-8.9v3.5H81v1h-8.6v3.9h9v1.1H71.2V13h-.1zM94.9 19.8v.4c0 1.3-.1 1.7-.5 2.2-.3.4-.9.6-1.7.9-.5 0-2.2.1-3.6.1-3.6 0-4.3-.2-5.1-1-.5-.6-.6-1.4-.6-4.3 0-3.2.2-4.1 1.2-4.6.8-.5 1.5-.5 5.5-.5 2.4 0 3.2.1 3.9.6.8.4 1 1.1 1 2.7h-1.1V16c0-1.7-.4-1.9-4.4-1.9-4.6 0-4.6 0-4.6 4.2 0 2.3.1 3.1.5 3.6s1.3.6 4 .6c4.3 0 4.8-.2 4.8-1.8V20l.7-.2zM97.2 13h1.2v4.4h9.1V13h1.2v10.3h-1.2v-4.8h-9.1v4.8h-1.2V13zM122.8 13v7c0 1.2 0 1.4-.1 1.7-.4 1.3-1.4 1.5-5.6 1.5-3.4 0-4.4-.2-5.1-.9-.3-.3-.5-.8-.6-1.4V13h1.1v6.8c0 1 0 1.1.1 1.3.2 1.1.9 1.3 4.4 1.3 3.1 0 3.9-.1 4.3-.8.3-.4.3-.5.3-1.8V13h1.2zM150.4 19.8v.4c0 1.3-.1 1.7-.5 2.2s-.9.6-1.7.9c-.5 0-2.2.1-3.6.1-3.6 0-4.3-.2-5.1-1-.6-.8-.8-1.4-.8-4.3 0-3.2.2-4.1 1.2-4.6.8-.5 1.5-.5 5.5-.5 2.4 0 3.2.1 3.9.6.6.5.9 1.2 1 2.7h-1.2V16c0-1.7-.4-1.9-4.4-1.9-4.6 0-4.6 0-4.6 4.2 0 2.3.1 3.1.5 3.6s1.3.6 4 .6c4.3 0 4.8-.2 4.8-1.8V20l1-.2zM152.5 13h1.2v4.4h9.1V13h1.2v10.3h-1.2v-4.8h-9.1v4.8h-1.2V13zM173.3 14h-4.9v-1h11v1h-4.9v9.3h-1.2V14zM181.6 13l4.9 9.4 4.9-9.4h1.3l-5.4 10.3h-1.6L180.3 13h1.3zM125.6 13h7.8c1.4 0 2.2.2 2.7.9.4.4.6 1.3.6 2.4s-.2 1.8-.8 2.2c-.3.2-.6.3-1.4.3.6.1 1 .1 1.3.3.5.3.9.9.9 1.6v2.7h-1.2v-1.9c0-1.1-.1-1.4-.4-1.7-.3-.3-.8-.4-1.6-.4h-6.7v4.2h-1.2V13zm7.3 5.2c1.9 0 2.5-.4 2.5-2.1s-.5-2.1-2.6-2.1h-6.1v4.1h6.2z"/></g></svg>