<svg xmlns="http://www.w3.org/2000/svg" viewBox="0 0 460 630" enable-background="new 0 0 460 630"><g><linearGradient id="a" gradientUnits="userSpaceOnUse" x1="157.639" y1="121.387" x2="157.639" y2="166.5" gradientTransform="matrix(-1 0 0 1 461.459 0)"><stop offset="0" stop-color="#8ED745"/><stop offset="1" stop-color="#579B11"/></linearGradient><path fill="url(#a)" d="M282.418 164.5s2.54-32.5 24.54-40.5 23 4 9 14-9 28.5-9 28.5l-24.54-2z"/><linearGradient id="b" gradientUnits="userSpaceOnUse" x1="144.891" y1="122.598" x2="144.891" y2="164" gradientTransform="matrix(-1 0 0 1 461.459 0)"><stop offset="0" stop-color="#6AA93D"/><stop offset=".395" stop-color="#548D28"/><stop offset=".742" stop-color="#467C1B"/><stop offset="1" stop-color="#417616"/></linearGradient><path fill="url(#b)" d="M306.125 164s-2.832-12.947 3.334-20.224 18.976-14.665 14.32-21.18c0 0 7.013 2.862 2.18 13.028S311.46 147 317.46 164h-11.335z"/><linearGradient id="c" gradientUnits="userSpaceOnUse" x1="239.16" y1="2.212" x2="239.16" y2="630" gradientTransform="matrix(-1 0 0 1 461.459 0)"><stop offset="0" stop-color="#8ED745"/><stop offset=".797" stop-color="#579B11"/></linearGradient><path fill="url(#c)" d="M161.96 630s64-168.75 54.5-253.125S179.503 156 213.73 72.5s72.147-73 68.688-65c-3.46 8-6.46 12-15.96 19s-44.32 37.5-44.16 137 16.066 128.428 22.614 175.214C251.46 385.5 247.96 539.5 203.46 630h-41.5z"/><linearGradient id="d" gradientUnits="userSpaceOnUse" x1="218.958" y1="4.017" x2="218.958" y2="630" gradientTransform="matrix(-1 0 0 1 461.459 0)"><stop offset="0" stop-color="#6AA93D"/><stop offset=".395" stop-color="#548D28"/><stop offset=".742" stop-color="#467C1B"/><stop offset="1" stop-color="#417616"/></linearGradient><path fill="url(#d)" d="M200.948 629.94s52.916-119.7 43.964-243.57C235.96 262.5 214.21 188.565 223.44 112c5.685-53.667 32.233-77.333 46.292-88 14.06-10.667 11.545-19.983 11.545-19.983s5.208 6.65 1.36 14.15-6.513 10.5-10.513 13.833-41.166 44.5-32.666 128 22.334 184.666 27 213.333 13.034 106-33.966 256.667l-31.544-.06z"/><linearGradient id="e" gradientUnits="userSpaceOnUse" x1="265.215" y1="46.429" x2="265.215" y2="630" gradientTransform="matrix(-1 0 0 1 461.459 0)"><stop offset="0" stop-color="#8ED745"/><stop offset="1" stop-color="#579B11"/></linearGradient><path fill="url(#e)" d="M139.96 148.25S58.46 36.625 6.46 47.125c-13 3.5 14.5 15.438 23.5 22.938s64.5 51.47 78 102.47-40.5 101.983-55.5 113.983-65.43 64.492 19.034 102.492 201.734 54.106 247.465 148.996c40 83 33 91.996 33 91.996h37.5s-7.5-138.25-116.5-191.75-117-54.125-142-63.125 9-226.875 9-226.875z"/><path fill="#6AA93D" d="M4.314 47.98s-6.855 9.354 11.478 21.354 65.124 53.593 80.333 97.167l2.834-18.784S66.75 92.336 28.604 69C5.645 53.796 3.17 54.625 4.315 47.98z"/><path fill="#414141" d="M79.5 350.412c-.41 4.913 4.048 8.68 8.96 9.088l309 25.712c4.91.408 8.09 3.2 8.5-1.712l16.967-202.542c.408-4.912-3.243-9.225-8.155-9.632l-309.308-25.693c-4.912-.407-9.224 3.244-9.632 8.156L79.5 350.41z"/><path fill="#DEDEDE" d="M258.39 369.25L432.794 385l-1.334 12s-.668 9-12.335 8L91.46 375.667 75.46 354l182.93 15.25z"/><path fill="#C9C9C9" d="M255.47 382.372L431.46 397s-.668 9-12.335 8L91.46 375.667l-6.75-7.917 170.76 14.622zM278.967 371.108s.742 5.774-5.883 5.767c-7.254-.01-56.5-5-56.5-5s-6.75.125-5.625-6.58l68.007 5.813z"/><linearGradient id="f" gradientUnits="userSpaceOnUse" x1="346.57" y1="46.431" x2="346.57" y2="630.997" gradientTransform="matrix(-1 0 0 1 461.459 0)"><stop offset="0" stop-color="#8ED745"/><stop offset="1" stop-color="#579B11"/></linearGradient><path fill="url(#f)" d="M52.46 286.516c4.298-3.44 11.803-10.086 20.003-19.014 2.996 5.165 4.67 47.498 9.696 50.89C65.125 349 91.03 358.33 106.79 365.296c17.933 7.928 51.815 18.556 99.168 40.69l-.004.005c-9.23 7.37-20.448 11.753-31.064 16.774-1.974.934-3.916 1.897-5.827 2.898-33.547-12.458-67.62-23.18-97.57-36.655-84.466-38-34.036-90.49-19.036-102.49z"/><path fill="#2F7321" d="M79.74 347.5s-14.958-16.348 2.964-35.674L79.74 347.5z"/><linearGradient id="g" gradientUnits="userSpaceOnUse" x1="277.075" y1="282.373" x2="277.075" y2="630" gradientTransform="matrix(-1 0 0 1 461.459 0)"><stop offset="0" stop-color="#6AA93D"/><stop offset=".395" stop-color="#548D28"/><stop offset=".742" stop-color="#467C1B"/><stop offset="1" stop-color="#417616"/></linearGradient><path fill="url(#g)" d="M57.36 282.372S32.458 299 21.792 320.332s-13.667 61.668 28 82.335 78.666 30.666 124 45.666 85.333 49.666 109.333 78S321.793 630 321.793 630h32s-13-104-90.668-160c-46.333-34.334-98.122-49.107-131-59.334s-99-32-106.333-69c-6.667-32 31.568-59.294 31.568-59.294z"/><path opacity=".15" fill="#fff" d="M105.464 145.632c-4.59-.32-8.276 2.305-9.52 7.303l-9.858 118.123 326.42-99.92-50.02-4.156-257.022-21.35z"/><linearGradient id="h" gradientUnits="userSpaceOnUse" x1="94.661" y1="242.613" x2="94.661" y2="630" gradientTransform="matrix(-1 0 0 1 461.459 0)"><stop offset="0" stop-color="#8ED745"/><stop offset="1" stop-color="#579B11"/></linearGradient><path fill="url(#h)" d="M303.82 630s-40.86-83.212-24.83-168.667C299.126 354 412.508 305.337 412.508 305.337l5.3-62.725s45.985 8.054 39.985 58.054c-11 46.667-31.306 50.082-55.458 57.666s-81.21 77-83.21 147S333.792 630 333.792 630h-29.97z"/><linearGradient id="i" gradientUnits="userSpaceOnUse" x1="84.088" y1="286" x2="84.088" y2="630" gradientTransform="matrix(-1 0 0 1 461.459 0)"><stop offset="0" stop-color="#6AA93D"/><stop offset=".395" stop-color="#548D28"/><stop offset=".742" stop-color="#467C1B"/><stop offset="1" stop-color="#417616"/></linearGradient><path fill="url(#i)" d="M458.355 286s3.443 28.562-61.563 58c-58.333 26.416-87 90.23-96.333 125.23S296.124 588 330.124 630h44.334s-58.044-44.934-49.238-130c6.43-62.11 44.448-121.903 79.237-137.094 36.124-15.773 55.332-30.573 53.895-76.906z"/><linearGradient id="j" gradientUnits="userSpaceOnUse" x1="42.016" y1="271.379" x2="42.016" y2="305.338" gradientTransform="matrix(-1 0 0 1 461.459 0)"><stop offset="0" stop-color="#6AA93D"/><stop offset="1" stop-color="#2F7321"/></linearGradient><path fill="url(#j)" d="M415.375 271.378l-2.868 33.96s29.202-14.627 2.868-33.96z"/></g></svg>