<svg xmlns="http://www.w3.org/2000/svg" xmlns:xlink="http://www.w3.org/1999/xlink" width="150" height="230" viewBox="0 0 150 230"><path fill="#414141" d="M117.125 90.875l31.542-57.542s3-3.833-1.167-6.5-47.5-26-47.5-26-3.5-2.167-6.333 2.333-46.333 86.5-46.333 86.5-2.667 3.833 2 6.5S66.667 106.5 66.667 106.5l50.458-15.625z"/><defs><path id="a" d="M90 17.875L56.75 79l49 25.5 32.75-60.625z"/></defs><clipPath><use xlink:href="#a" overflow="visible"/></clipPath><path opacity=".15" fill="#fff" enable-background="new" d="M146.458 37.364l2.21-4.03s2.998-3.833-1.168-6.5-47.5-26-47.5-26-3.5-2.167-6.333 2.333C92.63 4.814 63.2 59.897 55.39 74.495l91.068-37.13z"/><linearGradient id="b" gradientUnits="userSpaceOnUse" x1="168.531" y1="-48.083" x2="168.531" y2="-216.5" gradientTransform="matrix(1 0 0 -1 -96 13.5)"><stop offset="0" stop-color="#8ED745"/><stop offset="1" stop-color="#579B11"/></linearGradient><path fill="url(#b)" d="M0 230s-4.283-85.01 45.717-114.5c36.164-21.63 71.408-24.625 71.408-24.625l16.057-29.292s17.254 13.297 10.336 30.278c-6.92 16.982-21.7 17.894-43.396 19.78-21.698 1.888-61.95 14.95-73.585 46.397C14.9 189.484 12.07 208 13.642 230H0z"/><linearGradient id="c" gradientUnits="userSpaceOnUse" x1="174.592" y1="-74.007" x2="174.592" y2="-217.5" gradientTransform="matrix(1 0 0 -1 -96 13.5)"><stop offset="0" stop-color="#6AA93D"/><stop offset="1" stop-color="#417616"/></linearGradient><path fill="url(#c)" d="M144.8 87.507S142 103 112.25 106.75c-23.785 2.998-60.25 9.5-82.256 42.28C5.64 185.31 13.642 231 13.642 231H24s-7.843-41.468 14.8-74.172c22.64-32.704 54.32-39.6 74.7-41.828 29.75-3.25 29.562-21.672 31.3-27.493z"/><linearGradient id="d" gradientUnits="userSpaceOnUse" x1="219.295" y1="-60.995" x2="219.295" y2="-77.376" gradientTransform="matrix(1 0 0 -1 -96 13.5)"><stop offset="0" stop-color="#6AA93D"/><stop offset=".395" stop-color="#548D28"/><stop offset=".742" stop-color="#467C1B"/><stop offset="1" stop-color="#417616"/></linearGradient><path fill="url(#d)" d="M126.104 74.495s6.033 5.8 1.938 11.448c-2.75 3.792-10.917 4.933-10.917 4.933l8.98-16.38z"/></svg>