<svg xmlns="http://www.w3.org/2000/svg" width="275" height="150" viewBox="-1.5 -56.5 275 150" enable-background="new -1.5 -56.5 275 150"><g><linearGradient id="a" gradientUnits="userSpaceOnUse" x1="136" y1="95.667" x2="136" y2="-57.499"><stop offset="0" stop-color="#3F669E"/><stop offset="1" stop-color="#2D76B8"/></linearGradient><path fill="url(#a)" d="M-1.5-57.5h275V95.667h-275z"/><path opacity=".3" stroke="#fff" stroke-miterlimit="10" fill="none" d="M8.5-57.5v151M18.5-57.5v151M28.5-57.5v151M38.5-57.5v151M48.5-57.5v151M58.5-57.5v151M68.5-57.5v151M78.5-57.5v151M88.5-57.5v151M98.5-57.5v151M108.5-57.5v151M118.5-57.5v151M128.5-57.5v151M138.5-57.5v151M148.5-57.5v151M274.143-51.5H-1.5M274.143-41.5H-1.5M274.143-31.5H-1.5M274.143-21.5H-1.5M274.143-11.5H-1.5M274.143-1.5H-1.5M274.143 8.5H-1.5M274.143 18.5H-1.5M274.143 28.5H-1.5M274.143 38.5H-1.5M274.143 48.5H-1.5M274.143 58.5H-1.5M274.143 68.5H-1.5M274.143 78.5H-1.5M274.143 88.5H-1.5M158.5-57.5v151M168.5-57.5v151M178.5-57.5v151M188.5-57.5v151M198.5-57.5v151M208.5-57.5v151M218.5-57.5v151M228.5-57.5v151M238.5-57.5v151M248.5-57.5v151M258.5-57.5v151M268.5-57.5v151"/></g><g><linearGradient id="b" gradientUnits="userSpaceOnUse" x1="273.178" y1="-18.329" x2="273.178" y2="-88.353"><stop offset="0" stop-color="#30538B"/><stop offset="1" stop-color="#2D6DA7"/></linearGradient><path fill="url(#b)" d="M228.29-88.353h89.774v70.024H228.29z"/><path opacity=".25" fill="#fff" d="M238.246-79.358h71.788v52.998h-71.788z"/><path fill="#fff" d="M236.318-25.396v-54.926c0-.533.432-.963.964-.963h73.716c.532 0 .964.43.964.963v54.926c0 .532-.432.962-.964.962h-73.716c-.532 0-.964-.43-.964-.962zm1.928-53.962v52.998h71.788v-52.998h-71.788zM228.29-17.366v-70.987c0-.533.43-.963.963-.963h89.774c.532 0 .965.43.965.963v70.987c0 .533-.433.963-.965.963h-89.774c-.532 0-.962-.43-.962-.963zm1.927-70.023v69.06h87.848v-69.06h-87.848zM233.205-50.61c-1.095 0-1.986-.892-1.986-1.988 0-1.095.89-1.987 1.985-1.987 1.1 0 1.99.892 1.99 1.987 0 1.097-.89 1.99-1.99 1.99z"/><linearGradient id="c" gradientUnits="userSpaceOnUse" x1="187.371" y1="-16.403" x2="187.371" y2="-57.666"><stop offset="0" stop-color="#30538B"/><stop offset="1" stop-color="#2D6DA7"/></linearGradient><path fill="url(#c)" d="M168.834-57.667v36.953s-.736 4.31 5.132 4.31h29.02s2.95-.65 2.95-5.99v-35.273h-37.102z"/><path opacity=".25" fill="#fff" d="M171.75-81.216h32.26V-28.7h-32.26z"/><path fill="#fff" d="M203.154-28.017H171.45c-.472 0-.854-.38-.854-.85v-46.256c0-.47.383-.85.855-.85h31.704c.473 0 .855.38.855.85v46.257c0 .47-.383.85-.856.85zm-30.844-1.697h29.987v-44.56H172.31v44.56zM190.04-22.394c0 1.45-1.18 2.63-2.632 2.63-1.45 0-2.63-1.18-2.63-2.63 0-1.454 1.18-2.63 2.63-2.63 1.452 0 2.633 1.176 2.633 2.63zM202.986-16.287h-31c-2.444 0-4.433-1.986-4.433-4.427V-88.51c0-2.443 1.988-4.43 4.432-4.43h31c2.443 0 4.43 1.987 4.43 4.43v67.796c0 2.442-1.986 4.427-4.43 4.427zm-31-74.726c-1.38 0-2.504 1.123-2.504 2.502v67.796c0 1.38 1.123 2.5 2.503 2.5h31c1.38 0 2.504-1.12 2.504-2.5V-88.51c0-1.38-1.125-2.503-2.504-2.503h-31zM182.04-86.758h10.89v1.125h-10.89z"/><linearGradient id="d" gradientUnits="userSpaceOnUse" x1="212.371" y1="84.184" x2="212.371" y2="5.022"><stop offset="0" stop-color="#30538B"/><stop offset="1" stop-color="#2D6DA7"/></linearGradient><path fill="url(#d)" d="M169.79 5.022v72.43h-20.183s-1 6.73 17.946 6.73 107.59-1.912 107.59-1.912V5.022H169.79z"/><path opacity=".25" fill="#fff" d="M173.966 10.16h101.18v61.19h-101.18z"/><path fill="#fff" d="M276.108 73.276H174.93c-.532 0-.964-.43-.964-.964v-62.15c0-.534.432-.965.964-.965h101.18c.53 0 .963.43.963.964v62.153c0 .533-.432.963-.965.963zM175.894 71.35h99.25V11.124h-99.25V71.35zM282.212 79.378H168.826c-.532 0-.964-.43-.964-.964V4.058c0-.532.432-.963.964-.963h113.386c.532 0 .964.43.964.963v74.356c0 .533-.432.964-.964.964zM169.79 77.45h111.458V5.023H169.79v72.43zM282.212 84.198H169.47c-20.422 0-23.26-4.826-23.517-5.378-.14-.297-.118-.647.06-.924.177-.28.483-.445.812-.445h158.032c.328 0 .635.167.812.446.177.276.2.627.06.924-.256.552-3.097 5.378-23.518 5.378zm-132.605-4.82c2.49 1.245 8.02 2.893 19.862 2.893h112.74c11.812 0 17.345-1.636 19.85-2.892H149.607z"/><linearGradient id="e" gradientUnits="userSpaceOnUse" x1="68.725" y1="80.137" x2="68.725" y2="-46.256"><stop offset="0" stop-color="#30538B"/><stop offset="1" stop-color="#2D6DA7"/></linearGradient><path fill="url(#e)" d="M-11.167-46.256h159.783V59.898H90.318l-1.712 9.605 9.97 10.084-52.102.55 9.36-12.803-1-6.334h-66z"/><path opacity=".25" fill="#fff" d="M-5.063-40.154h147.576v80.46H-5.063z"/><path fill="#fff" d="M143.477 42.234H-4.1c-.533 0-.964-.432-.964-.965v-81.424c0-.533.43-.964.964-.964h147.576c.532 0 .964.43.964.964V41.27c0 .533-.43.964-.963.964zM-3.137 40.307h145.65V-39.19H-3.138v79.497zM149.58 48.335H-10.203c-.533 0-.964-.43-.964-.963v-93.628c0-.533.43-.964.964-.964H149.58c.533 0 .964.43.964.964v93.628c0 .533-.43.963-.964.963zM-9.24 46.41h157.856v-91.703H-9.24V46.41zM149.58 61.826H-10.203c-.533 0-.964-.432-.964-.964V-46.256c0-.533.43-.964.964-.964H149.58c.533 0 .964.43.964.964V60.862c0 .533-.43.964-.964.964zM-9.24 59.898h157.856v-105.19H-9.24v105.19zM97.706 80.137H46.474c-.37 0-.706-.212-.867-.543-.162-.333-.12-.73.11-1.018l8.145-10.336v-7.378c0-.532.43-.964.963-.964s.964.432.964.964v7.71c0 .218-.073.428-.21.598l-7.12 9.04h47.22l-7.075-8.707c-.14-.172-.215-.386-.215-.607v-8.033c0-.532.43-.964.963-.964.533 0 .964.43.964.963v7.69l8.136 10.012c.235.29.282.688.123 1.022-.16.335-.5.55-.87.55z"/></g></svg>