<?xml version="1.0" encoding="utf-8"?>
<!-- Generator: Adobe Illustrator 15.1.0, SVG Export Plug-In . SVG Version: 6.00 Build 0)  -->
<!DOCTYPE svg PUBLIC "-//W3C//DTD SVG 1.1//EN" "http://www.w3.org/Graphics/SVG/1.1/DTD/svg11.dtd">
<svg version="1.1" id="Layer_1" xmlns="http://www.w3.org/2000/svg" xmlns:xlink="http://www.w3.org/1999/xlink" x="0px" y="0px"
	 width="1400px" height="720px" viewBox="-564.188 -341.708 1400 720" enable-background="new -564.188 -341.708 1400 720"
	 xml:space="preserve">
<g id="Sky">
	
		<linearGradient id="SVGID_1_" gradientUnits="userSpaceOnUse" x1="6280.376" y1="-12796.4355" x2="6280.3735" y2="1313.1582" gradientTransform="matrix(0.0514 0 0 -0.0514 -186.2966 -277.099)">
		<stop  offset="0" style="stop-color:#EDF8FE"/>
		<stop  offset="1" style="stop-color:#DBF8FE"/>
	</linearGradient>
	<rect x="-594.664" y="-344.58" fill="url(#SVGID_1_)" width="1462.218" height="725.076"/>
</g>
<g id="Clouds">
	
		<linearGradient id="SVGID_2_" gradientUnits="userSpaceOnUse" x1="4798.8066" y1="-6497.7549" x2="4798.8066" y2="-11917.0156" gradientTransform="matrix(0.0514 0 0 -0.0514 -186.2966 -277.099)">
		<stop  offset="0" style="stop-color:#ECFCFF"/>
		<stop  offset="0.6225" style="stop-color:#E4FAFE"/>
		<stop  offset="1" style="stop-color:#DDF8FE"/>
	</linearGradient>
	<path fill="url(#SVGID_2_)" d="M-165.64,298.87c0,0-71.564-242.051,179.452-242.012c88.357-2.195,128.139,77.14,128.139,77.14
		s100.654-60.651,143.383,40.879c42.729,101.531-58.652,130.426-87.988,133.136l-6.649,27.291h-332.318L-165.64,298.87z"/>
	
		<linearGradient id="SVGID_3_" gradientUnits="userSpaceOnUse" x1="3009.751" y1="-544.6558" x2="3009.7507" y2="-5252.4536" gradientTransform="matrix(0.0514 0 0 -0.0514 -186.2966 -277.099)">
		<stop  offset="0" style="stop-color:#ECFCFF"/>
		<stop  offset="0.6225" style="stop-color:#E4FAFE"/>
		<stop  offset="1" style="stop-color:#DDF8FE"/>
	</linearGradient>
	<path fill="url(#SVGID_3_)" d="M-212.241-9.92c0,0,2.428-43.905,32.717-58.17c0,0-63.129-99.88,20.514-158.05
		c83.653-58.17,146.66,9.876,158.608,31.824c0,0,10.862-4.39,20.646,4.399c0,0,3.258-54.878,72.782-52.683
		c40.736,1.641,56.49,40.603,55.942,60.365c-0.548,19.752-9.775,63.104-59.2,65.298c0,0,22.214,53.237-19.579,94.947
		C58.26-11.57,53.377-7.181,53.377-7.181L-212.241-9.92z"/>
	
		<linearGradient id="SVGID_4_" gradientUnits="userSpaceOnUse" x1="-1748.5874" y1="-919.5142" x2="-1748.5875" y2="-2794.8911" gradientTransform="matrix(0.0514 0 0 -0.0514 -186.2966 -277.099)">
		<stop  offset="0" style="stop-color:#CCF4FC"/>
		<stop  offset="0.4132" style="stop-color:#C4F0F9"/>
		<stop  offset="1" style="stop-color:#B1E6F0"/>
	</linearGradient>
	<path opacity="0.76" fill="url(#SVGID_4_)" enable-background="new    " d="M-306.746-204.248c0,0,8.141-29.085,39.102-25.249
		c30.96,3.845,27.702,30.736,27.702,30.736s30.422-20.859,52.693,10.964c22.271,31.833-7.603,54.324-38.563,54.324
		c-30.96,0-118.958,0-118.958,0s-31.499-2.738-27.702-29.629c3.258-18.102,23.357-18.55,23.357-18.55s-11.947-21.499,7.604-31.385
		C-330.104-217.97-314.897-217.97-306.746-204.248z"/>
	
		<linearGradient id="SVGID_5_" gradientUnits="userSpaceOnUse" x1="4991.0059" y1="-4607.1787" x2="4991.0059" y2="-5898.0938" gradientTransform="matrix(0.0514 0 0 -0.0514 -186.2966 -277.099)">
		<stop  offset="0" style="stop-color:#CCF4FC"/>
		<stop  offset="0.4132" style="stop-color:#C4F0F9"/>
		<stop  offset="1" style="stop-color:#B1E6F0"/>
	</linearGradient>
	<path opacity="0.67" fill="url(#SVGID_5_)" enable-background="new    " d="M49.288-22.859c0,0,5.563-19.867,26.719-17.243
		c21.147,2.624,18.918,20.993,18.918,20.993s20.779-13.999,35.995,7.739c15.216,21.747-5.195,37.368-26.342,37.368
		c-21.157,0-81.264,0-81.264,0S1.789,23.88,4.387,5.5C6.616-6.866,20.339-7.296,20.339-7.296s-8.16-14.752,5.195-21.499
		C33.326-32.173,43.715-32.23,49.288-22.859z"/>
	
		<linearGradient id="SVGID_6_" gradientUnits="userSpaceOnUse" x1="11773.4453" y1="-2689.8501" x2="11773.4453" y2="-4549.626" gradientTransform="matrix(0.0514 0 0 -0.0514 -186.2966 -277.099)">
		<stop  offset="0" style="stop-color:#CCF4FC"/>
		<stop  offset="0.4132" style="stop-color:#C4F0F9"/>
		<stop  offset="1" style="stop-color:#B1E6F0"/>
	</linearGradient>
	<path opacity="0.57" fill="url(#SVGID_6_)" enable-background="new    " d="M388.245-113.369c0,0,8.123-28.98,38.97-25.154
		s27.598,30.622,27.598,30.622s30.299-21.002,52.477,10.707c22.195,31.709-7.557,53.896-38.403,53.896s-118.495,0-118.495,0
		s-31.396-2.51-27.617-29.295c3.249-18.044,23.272-18.378,23.272-18.378s-11.901-21.366,7.593-31.204
		C364.992-127.1,380.142-127.042,388.245-113.369z"/>
	<path fill="#ECFCFF" d="M205.524-343.578c0,0,17.851,85.604,100.418,107.562c82.567,21.948,142.315-12.071,155.35-30.736
		c0,0,11.957,84.517,105.386,73.543c93.41-10.983,102.118-124.032,52.136-150.369H205.524z"/>
	<path fill="#ECFCFF" d="M800.017-344.58c0,0-23.857,45.193,0,100.424c0,0-119.289,29.123-102.383,150.645
		C714.54,28.002,830.825,35.024,830.825,35.024s-20.873,32.444,0,74.812c0,0-74.539,78.514-23.518,177.603
		c0,0-76.182,3.054-111.316,66.797l139.821,26.26V-344.58H800.017z"/>
	<path fill="#ECFCFF" d="M-509.171-344.58c0,0,23.858,45.193,0,100.424c0,0,119.289,29.123,102.392,150.645
		C-423.686,28.002-539.98,35.024-539.98,35.024s20.873,32.444,0,74.812c0,0,74.548,78.514,23.518,177.603
		c0,0,76.003,3.054,111.147,66.797l-158.873,26.26V-344.58H-509.171z"/>
</g>
<g id="Vines_2">
	
		<linearGradient id="SVGID_7_" gradientUnits="userSpaceOnUse" x1="17418.8223" y1="-5488.1821" x2="17418.8223" y2="-12638.2354" gradientTransform="matrix(0.0514 0 0 -0.0514 -186.2966 -277.099)">
		<stop  offset="0" style="stop-color:#BEEDD7"/>
		<stop  offset="1" style="stop-color:#BDEED6"/>
	</linearGradient>
	<path fill="url(#SVGID_7_)" d="M718.098,372.366c0,0,23.858-85.194,31.547-181.572c7.669-96.377-23.575-148.46-34.002-165.082
		C705.215,9.098,698.642,3.554,695.354,5.214c-3.286,1.67-1.095,12.195,9.86,35.459c10.976,23.265,26.861,72.56,19.759,134.604
		c-7.14,62.046-23.045,129.49-58.143,189.951L718.098,372.366z"/>
	
		<linearGradient id="SVGID_8_" gradientUnits="userSpaceOnUse" x1="17300.2734" y1="-5493.1968" x2="17300.2734" y2="-12618.9385" gradientTransform="matrix(0.0514 0 0 -0.0514 -186.2966 -277.099)">
		<stop  offset="0.2025" style="stop-color:#CBF3E2"/>
		<stop  offset="0.7301" style="stop-color:#CBF3E4"/>
	</linearGradient>
	<path fill="url(#SVGID_8_)" d="M693.711,371.374c0,0,40.557-88.629,44.958-204.397c2.191-80.328-21.742-132.772-30.167-146.438
		C700.115,6.875,694.618,3.191,693.711,6.14c-0.925,2.958-0.188,12.93,13.337,41.729c0,0,23.026,48.762,17.171,120.405
		c-5.838,71.645-21.497,130.043-57.539,196.496L693.711,371.374z"/>
	
		<linearGradient id="SVGID_9_" gradientUnits="userSpaceOnUse" x1="6062.5596" y1="-7761.2896" x2="6062.5596" y2="-11884.2188" gradientTransform="matrix(0.0512 -0.0046 -0.0046 -0.0512 -188.4596 -272.9871)">
		<stop  offset="0" style="stop-color:#BEEDD7"/>
		<stop  offset="1" style="stop-color:#BDEED6"/>
	</linearGradient>
	<path fill="url(#SVGID_9_)" d="M181.894,306.867c0,0,9.331-50.174,8.803-105.938c-0.528-55.785-21.138-84.049-27.957-93.038
		c-6.838-9.009-10.918-11.852-12.731-10.727c-1.775,1.126,0,7.062,7.499,19.849s19.154,40.269,18.229,76.301
		c-0.906,35.994-6.593,75.575-23.649,112.142L181.894,306.867z"/>
	
		<linearGradient id="SVGID_10_" gradientUnits="userSpaceOnUse" x1="5994.2549" y1="-7764.1353" x2="5994.2549" y2="-11873.7666" gradientTransform="matrix(0.0512 -0.0046 -0.0046 -0.0512 -188.4596 -272.9871)">
		<stop  offset="0.2025" style="stop-color:#CBF3E2"/>
		<stop  offset="0.7301" style="stop-color:#CBF3E4"/>
	</linearGradient>
	<path fill="url(#SVGID_10_)" d="M167.84,307.593c0,0,18.758-53.056,15.338-119.775c-2.833-46.262-19.286-75.118-24.82-82.542
		c-5.516-7.404-8.859-9.236-9.237-7.5c-0.359,1.756,0.548,7.443,9.804,23.283c0,0,15.716,26.795,16.037,68.247
		s-5.686,75.843-22.988,115.883L167.84,307.593z"/>
	
		<linearGradient id="SVGID_11_" gradientUnits="userSpaceOnUse" x1="-423.2212" y1="-4389.9536" x2="-423.2215" y2="-11539.3438" gradientTransform="matrix(-0.0539 -0.0019 0.0018 -0.0514 -126.6209 -276.0268)">
		<stop  offset="0" style="stop-color:#BEEDD7"/>
		<stop  offset="1" style="stop-color:#BDEED6"/>
	</linearGradient>
	<path fill="url(#SVGID_11_)" d="M-134.462,317.078c0,0-22.054-86.016-26.739-182.642c-4.675-96.606,29.95-147.477,41.473-163.689
		c11.514-16.222,18.616-21.508,22.007-19.724s0.727,12.224-11.599,35.058c-12.325,22.845-30.743,71.52-25.435,133.793
		c5.308,62.255,19.626,130.272,54.336,191.992L-134.462,317.078z"/>
	
		<linearGradient id="SVGID_12_" gradientUnits="userSpaceOnUse" x1="-541.8921" y1="-4394.877" x2="-541.8924" y2="-11520.5625" gradientTransform="matrix(-0.0539 -0.0019 0.0018 -0.0514 -126.6209 -276.0268)">
		<stop  offset="0.2025" style="stop-color:#CBF3E2"/>
		<stop  offset="0.7301" style="stop-color:#CBF3E4"/>
	</linearGradient>
	<path fill="url(#SVGID_12_)" d="M-108.829,317.021c0,0-39.479-90.117-40.018-205.962c0.51-80.366,27.475-131.876,36.778-145.216
		c9.303-13.34,15.187-16.823,16.037-13.836c0.859,2.987-0.255,12.93-15.461,41.205c0,0-25.879,47.844-22.252,119.68
		c3.627,71.797,18.03,130.769,53.515,198.52L-108.829,317.021z"/>
</g>
<g id="Land">
	
		<linearGradient id="SVGID_13_" gradientUnits="userSpaceOnUse" x1="6283.625" y1="-11051.1523" x2="6283.625" y2="-12753.5479" gradientTransform="matrix(0.0514 0 0 -0.0514 -186.2966 -277.099)">
		<stop  offset="0" style="stop-color:#C6F3C4"/>
		<stop  offset="0.5153" style="stop-color:#A4EAA1"/>
	</linearGradient>
	<path fill="url(#SVGID_13_)" d="M-550.853,378.292c0,0,402.255-196.84,1374.929,0H-550.853z"/>
</g>
<g id="Tablet">
	
		<linearGradient id="SVGID_14_" gradientUnits="userSpaceOnUse" x1="8221.877" y1="-4494.9766" x2="8221.877" y2="-5706.7661" gradientTransform="matrix(0.0514 -4.881944e-04 -4.881944e-04 -0.0514 -186.3906 -276.6889)">
		<stop  offset="0" style="stop-color:#FFFFFF"/>
		<stop  offset="0.4356" style="stop-color:#FAFAFA"/>
	</linearGradient>
	<path fill="url(#SVGID_14_)" d="M280.045-50.106l-81.604,0.783c0,0-6.31-0.449-6.725,6.431c-0.435,6.871,0.453,49.544,0.453,49.544
		s0.548,6.346,5.894,6.297c5.346-0.057,82.586-0.792,82.586-0.792s4.685-1.489,4.608-7.873c-0.057-6.374,0-48.809,0-48.809
		S285.429-49.209,280.045-50.106z"/>
	<path fill="#AAAAAA" d="M233.01-14.227c0.585-0.993,1.152-1.613,1.171-2.71c0.019-1.241-0.907-1.518-1.511-2.481
		c-1.059-1.689,0.113-4.647,3.06-4.762c-2.493,4.036,7.103,2.815,4.137,0.133c3.079-0.324,4.326,0.983,4.363,3.168
		c0.02,1.05-0.906,1.527-0.981,2.443c-0.095,0.887,0.83,1.355,1.303,2.099c2.399,3.741-7.046,5.497-10.219,3.807
		C234.332-12.529,232.386-13.12,233.01-14.227z"/>
	<path fill="#AAAAAA" d="M231.971-16.24c-1.946-0.096-2.248-1.689-3.117-2.854c1.53-1.298,3.098,1.05,3.627,2.109
		C232.48-16.985,232.745-16.202,231.971-16.24z"/>
</g>
<g id="Vines">
	
		<linearGradient id="SVGID_15_" gradientUnits="userSpaceOnUse" x1="9515.4922" y1="-4228.6826" x2="9515.4922" y2="-14723.8447" gradientTransform="matrix(0.0514 0 0 -0.0514 -186.2966 -277.099)">
		<stop  offset="0.2025" style="stop-color:#C5F5C7"/>
		<stop  offset="0.3682" style="stop-color:#BEF3BF"/>
		<stop  offset="0.6193" style="stop-color:#ACECAA"/>
		<stop  offset="0.7301" style="stop-color:#A2E99F"/>
	</linearGradient>
	<path fill="url(#SVGID_15_)" d="M232.367-49.706l-5.969,0.124c0,0,3.229-10.926,18.889-10.172
		c15.642,0.754,40.255,24.858,52.684,39.926c12.411,15.058,35.041,51.338,43.73,84.736c8.689,33.389,17.151,73.247,19.645,95.843
		c2.475,22.597,0.982,44.658-6.46,70.022c-7.461,25.363-16.66,58.475-14.923,83.572c1.738,25.115,7.216,56.758,17.152,81.109
		c9.936,24.353,21.609,62.007,21.874,83.592l-23.612,0.496l-30.828-102.18c0,0-12.165-65.538,6.971-121.017
		c19.135-55.479,16.906-124.279,5.724-160.437c-11.183-36.155-29.336-99.173-57.651-122.018
		C251.257-48.952,245.779-55.736,232.367-49.706z"/>
	
		<linearGradient id="SVGID_16_" gradientUnits="userSpaceOnUse" x1="9384.7891" y1="-4317.5781" x2="9384.7891" y2="-14723.8438" gradientTransform="matrix(0.0514 0 0 -0.0514 -186.2966 -277.099)">
		<stop  offset="0" style="stop-color:#B4E5AF"/>
		<stop  offset="1" style="stop-color:#99DA93"/>
	</linearGradient>
	<path fill="url(#SVGID_16_)" d="M328.95,479.543c0,0,11.353-15.573-9.539-83.858c-20.854-68.286-3.022-131.552,8.916-162.183
		c11.938-30.63,18.852-72.312-0.038-148.594c-17.473-70.556-52.514-122.562-84.002-134.614h-11.92c0,0,6.611-10.21,21.534-2.853
		c14.904,7.367,65.925,50.631,84.173,132.658c18.21,82.007,13.166,102.37,10.087,125.768
		c-2.569,19.581-27.333,78.209-23.026,118.708c4.307,40.517,13.582,82.751,23.196,104.851c9.615,22.101,12.26,45.098,10.938,50.117
		H328.95z"/>
</g>
</svg>
