<svg xmlns="http://www.w3.org/2000/svg" viewBox="0 0 460 630" enable-background="new 0 0 460 630"><g><linearGradient id="a" gradientUnits="userSpaceOnUse" x1="157.639" y1="121.386" x2="157.639" y2="166.5"><stop offset="0" stop-color="#8ED745"/><stop offset="1" stop-color="#579B11"/></linearGradient><path fill="url(#a)" d="M179.04 164.5S176.5 132 154.5 124s-23 4-9 14 9 28.5 9 28.5l24.54-2z"/><linearGradient id="b" gradientUnits="userSpaceOnUse" x1="144.892" y1="122.598" x2="144.892" y2="164"><stop offset="0" stop-color="#6AA93D"/><stop offset=".395" stop-color="#548D28"/><stop offset=".742" stop-color="#467C1B"/><stop offset="1" stop-color="#417616"/></linearGradient><path fill="url(#b)" d="M155.333 164s2.833-12.947-3.333-20.224-18.977-14.665-14.322-21.18c0 0-7.012 2.862-2.178 13.028S150 147 144 164h11.333z"/><linearGradient id="c" gradientUnits="userSpaceOnUse" x1="239.16" y1="2.212" x2="239.16" y2="630"><stop offset="0" stop-color="#8ED745"/><stop offset=".797" stop-color="#579B11"/></linearGradient><path fill="url(#c)" d="M299.5 630s-64-168.75-54.5-253.125S281.955 156 247.728 72.5s-72.146-73-68.687-65 6.46 12 15.96 19 44.32 37.5 44.16 137-16.065 128.428-22.613 175.214S213.5 539.5 258 630h41.5z"/><linearGradient id="d" gradientUnits="userSpaceOnUse" x1="218.957" y1="4.017" x2="218.957" y2="630"><stop offset="0" stop-color="#6AA93D"/><stop offset=".395" stop-color="#548D28"/><stop offset=".742" stop-color="#467C1B"/><stop offset="1" stop-color="#417616"/></linearGradient><path fill="url(#d)" d="M260.51 629.94s-52.915-119.7-43.962-243.57S247.25 188.565 238.018 112c-5.684-53.667-32.232-77.333-46.29-88S180.18 4.017 180.18 4.017s-5.207 6.65-1.36 14.15 6.513 10.5 10.513 13.833S230.5 76.5 222 160s-22.333 184.666-27 213.333-13.034 106 33.966 256.667l31.545-.06z"/><linearGradient id="e" gradientUnits="userSpaceOnUse" x1="265.216" y1="46.428" x2="265.216" y2="630"><stop offset="0" stop-color="#8ED745"/><stop offset="1" stop-color="#579B11"/></linearGradient><path fill="url(#e)" d="M321.5 148.25S403 36.625 455 47.125c13 3.5-14.5 15.438-23.5 22.938s-64.5 51.47-78 102.47S394 274.515 409 286.515s65.43 64.492-19.035 102.492S188.23 443.114 142.5 538.004c-40 83-33 91.996-33 91.996H72s7.5-138.25 116.5-191.75 117-54.125 142-63.125-9-226.875-9-226.875z"/><path fill="#6AA93D" d="M457.145 47.98s6.855 9.354-11.478 21.354-65.124 53.593-80.333 97.167l-2.834-18.784S394.707 92.336 432.854 69c22.96-15.205 25.435-14.376 24.29-21.02z"/><path fill="#414141" d="M381.96 350.412c.408 4.913-4.05 8.68-8.96 9.088L64 385.212c-4.912.408-8.092 3.2-8.5-1.712L38.532 180.958c-.408-4.912 3.243-9.225 8.156-9.632l309.307-25.693c4.912-.407 9.224 3.244 9.632 8.156L381.96 350.41z"/><path fill="#DEDEDE" d="M203.068 369.25L28.668 385 30 397s.667 9 12.333 8L370 375.667 386 354l-182.932 15.25z"/><path fill="#C9C9C9" d="M205.99 382.372L30 397s.667 9 12.333 8L370 375.667l6.75-7.917-170.76 14.622zM182.493 371.108s-.743 5.774 5.882 5.767c7.254-.01 56.5-5 56.5-5s6.75.125 5.625-6.58l-68.007 5.813z"/><linearGradient id="f" gradientUnits="userSpaceOnUse" x1="346.57" y1="46.428" x2="346.57" y2="631"><stop offset="0" stop-color="#8ED745"/><stop offset="1" stop-color="#579B11"/></linearGradient><path fill="url(#f)" d="M409 286.516c-4.3-3.44-11.804-10.086-20.004-19.014-2.996 5.165-4.67 47.498-9.696 50.89 17.033 30.608-8.872 39.937-24.633 46.904-17.933 7.928-51.815 18.556-99.168 40.69l.003.005c9.23 7.37 20.448 11.753 31.064 16.774 1.974.934 3.916 1.897 5.827 2.898 33.547-12.458 67.62-23.18 97.57-36.655 84.466-38 34.036-90.49 19.036-102.49z"/><path fill="#2F7321" d="M381.718 347.5s14.96-16.348-2.963-35.674l2.963 35.675z"/><linearGradient id="g" gradientUnits="userSpaceOnUse" x1="277.076" y1="282.372" x2="277.076" y2="630"><stop offset="0" stop-color="#6AA93D"/><stop offset=".395" stop-color="#548D28"/><stop offset=".742" stop-color="#467C1B"/><stop offset="1" stop-color="#417616"/></linearGradient><path fill="url(#g)" d="M404.1 282.372S429 299 439.666 320.332s13.667 61.668-28 82.335-78.666 30.666-124 45.666-85.333 49.666-109.333 78S139.667 630 139.667 630h-32s13-104 90.667-160c46.333-34.334 98.123-49.107 131-59.334s99-32 106.333-69c6.667-32-31.568-59.294-31.568-59.294z"/><path opacity=".15" fill="#fff" d="M365.627 153.788c-.408-4.912-4.72-8.563-9.632-8.156L46.688 171.325c-4.913.408-8.564 4.72-8.156 9.632l8.23 99.1 320.872-102.115-2.007-24.154z"/><linearGradient id="h" gradientUnits="userSpaceOnUse" x1="94.662" y1="242.613" x2="94.662" y2="630"><stop offset="0" stop-color="#8ED745"/><stop offset="1" stop-color="#579B11"/></linearGradient><path fill="url(#h)" d="M157.64 630s40.858-83.212 24.828-168.667C162.333 354 48.952 305.337 48.952 305.337l-5.3-62.725s-45.985 8.054-39.985 58.054c11 46.667 31.305 50.082 55.458 57.666s81.21 77 83.21 147S127.666 630 127.666 630h29.972z"/><linearGradient id="i" gradientUnits="userSpaceOnUse" x1="84.088" y1="286" x2="84.088" y2="630"><stop offset="0" stop-color="#6AA93D"/><stop offset=".395" stop-color="#548D28"/><stop offset=".742" stop-color="#467C1B"/><stop offset="1" stop-color="#417616"/></linearGradient><path fill="url(#i)" d="M3.104 286s-3.444 28.562 61.563 58c58.333 26.416 87 90.23 96.333 125.23S165.333 588 131.333 630H87s58.043-44.934 49.237-130C129.807 437.89 91.79 378.097 57 362.906 20.875 347.133 1.667 332.333 3.104 286z"/><linearGradient id="j" gradientUnits="userSpaceOnUse" x1="42.016" y1="271.378" x2="42.016" y2="305.337"><stop offset="0" stop-color="#6AA93D"/><stop offset="1" stop-color="#2F7321"/></linearGradient><path fill="url(#j)" d="M46.083 271.378l2.87 33.96s-29.203-14.627-2.87-33.96z"/></g></svg>