<svg xmlns="http://www.w3.org/2000/svg" width="275" height="150" viewBox="0 0 275 150"><path fill="#F2F2F2" d="M0-1h275v150H0z"/><path fill="#CECECE" d="M182.7 20.832c.692 0 1.303.51 1.4 1.218.11.773-.43 1.49-1.204 1.6l-.095.012c-.77.102-1.48-.446-1.58-1.22s.445-1.487 1.22-1.587l.064-.008c.068-.012.137-.015.2-.015zm-3.798.644c.656 0 1.248.463 1.385 1.133.154.762-.338 1.51-1.104 1.665l-.062.013c-.762.164-1.514-.32-1.68-1.086-.162-.763.32-1.515 1.086-1.68l.093-.02c.095-.02.19-.03.285-.03zm-3.742.93c.61 0 1.178.4 1.357 1.02.22.75-.21 1.537-.96 1.756l-.075.022c-.75.22-1.54-.21-1.758-.96s.213-1.538.963-1.756l.073-.022c.135-.04.267-.06.4-.06zm-3.658 1.214c.572 0 1.11.352 1.325.92.272.73-.097 1.547-.83 1.822l-.07.028c-.73.273-1.55-.097-1.823-.828-.274-.732.098-1.548.828-1.823l.072-.03c.165-.06.333-.09.498-.09zm-3.552 1.49c.53 0 1.042.3 1.282.815.332.708.024 1.55-.684 1.88l-.072.034c-.707.33-1.55.02-1.88-.687-.33-.708-.024-1.55.683-1.882l.07-.032c.19-.09.395-.13.6-.13zm-3.43 1.752c.5 0 .983.265 1.242.733.377.684.127 1.545-.56 1.922l-.052.03c-.678.385-1.545.146-1.93-.533-.387-.68-.146-1.543.532-1.93l.084-.048c.22-.118.453-.174.684-.174zm-3.288 2.008c.45 0 .896.218 1.17.62.44.647.273 1.527-.373 1.968l-.08.053c-.656.436-1.53.257-1.967-.394-.43-.652-.252-1.53.4-1.962l.05-.032c.246-.167.52-.246.796-.246zm-3.127 2.252c.42 0 .836.186 1.113.54.48.617.377 1.506-.238 1.988l-.067.054c-.62.48-1.51.368-1.985-.25-.48-.618-.37-1.507.25-1.986l.055-.043c.26-.204.568-.303.872-.303zm-2.95 2.48c.384 0 .767.156 1.046.46.53.578.49 1.474-.09 2l-.06.058c-.58.524-1.475.48-2-.1s-.48-1.475.1-2l.057-.048c.27-.247.61-.37.952-.37zm-2.753 2.696c.35 0 .7.13.975.39.566.54.59 1.436.05 2l-.05.054c-.536.568-1.434.594-2.002.058-.566-.537-.594-1.432-.057-2l.06-.062c.276-.293.65-.44 1.024-.44zm-2.547 2.895c.312 0 .623.102.883.31.61.487.712 1.378.224 1.99l-.062.073c-.492.606-1.385.695-1.99.2-.603-.495-.694-1.387-.2-1.992l.04-.048c.277-.35.69-.533 1.105-.533zm-2.318 3.08c.275 0 .553.08.797.246.646.44.812 1.32.37 1.963l-.037.055c-.446.642-1.334.81-1.978.364-.646-.445-.81-1.316-.365-1.958l.014-.02.025-.037c.276-.4.72-.62 1.17-.62zm-2.083 3.247c.245 0 .49.063.718.196.674.397.898 1.265.502 1.938l-.04.066c-.396.675-1.263.9-1.938.504-.672-.397-.898-1.264-.502-1.938l.04-.068c.263-.448.737-.698 1.22-.698zm-1.83 3.395c.21 0 .425.046.627.146.7.35.99 1.198.646 1.9l-.03.063c-.343.704-1.19.996-1.894.654-.703-.342-.994-1.19-.652-1.892l.04-.077c.245-.5.747-.788 1.268-.788zm-1.564 3.532c.17 0 .35.033.52.1.726.29 1.08 1.108.792 1.834l-.027.07c-.285.73-1.107 1.086-1.835.8-.728-.29-1.085-1.11-.8-1.836l.027-.066c.22-.556.756-.897 1.322-.897zm-1.298 3.63c.14 0 .28.02.42.063.746.232 1.164 1.024.932 1.772l-.022.076c-.23.746-1.024 1.164-1.772.93-.746-.232-1.164-1.024-.93-1.77l.022-.077c.186-.603.744-.99 1.35-.99zm-1.014 3.718c.105 0 .213.012.32.037.762.176 1.236.938 1.06 1.698l-.017.072c-.172.763-.93 1.237-1.69 1.064-.765-.174-1.24-.934-1.065-1.695l.02-.08c.15-.65.732-1.092 1.376-1.092zm-.728 3.785c.07 0 .14.005.208.015.772.115 1.31.833 1.193 1.606l-.01.09c-.12.776-.84 1.307-1.613 1.186-.773-.12-1.303-.843-1.182-1.617l.01-.066c.104-.705.708-1.21 1.4-1.21zm-.436 3.83c.037 0 .076 0 .115.003.773.064 1.355.746 1.292 1.526l-.004.06c-.056.78-.735 1.362-1.513 1.31-.778-.053-1.368-.73-1.312-1.51l.007-.093c.06-.74.68-1.3 1.41-1.3zm44.126-41.627c.688 0 1.29.5 1.397 1.2.12.773-.412 1.496-1.184 1.615l-.094.014c-.775.11-1.496-.428-1.606-1.203-.108-.777.43-1.49 1.203-1.6l.06-.01c.075-.01.15-.02.22-.02zm-3.788.713c.64 0 1.22.437 1.377 1.086.18.76-.29 1.524-1.05 1.706l-.09.02c-.76.176-1.52-.3-1.7-1.062-.173-.763.303-1.52 1.064-1.696l.063-.015c.112-.026.223-.04.33-.04zm-3.715 1.03c.594 0 1.146.376 1.343.97.246.743-.155 1.543-.897 1.79l-.088.028c-.744.238-1.543-.172-1.78-.916-.238-.745.17-1.542.914-1.78l.06-.02c.146-.05.296-.072.444-.072zm-3.61 1.338c.55 0 1.073.325 1.302.864.3.72-.035 1.55-.756 1.856l-.074.03c-.72.303-1.552-.034-1.853-.755-.304-.725.036-1.555.756-1.858l.07-.03c.177-.076.364-.11.55-.11zm-3.49 1.636c.506 0 .994.27 1.248.75.367.69.106 1.546-.584 1.915l-.043.024c-.69.362-1.56.11-1.927-.585-.365-.69-.115-1.54.574-1.908l.066-.036c.213-.11.443-.164.67-.164zm-3.34 1.926c.47 0 .93.234 1.2.662.416.662.217 1.535-.443 1.95l-.058.04c-.66.42-1.536.227-1.956-.432-.422-.66-.23-1.534.432-1.954l.074-.048c.233-.148.493-.218.752-.218zm-3.165 2.197c.43 0 .853.194 1.13.562.472.625.35 1.512-.274 1.984l-.057.04c-.615.473-1.504.353-1.98-.267-.475-.62-.355-1.51.266-1.984l.068-.05c.255-.197.557-.29.852-.29zm-2.972 2.454c.386 0 .77.157 1.05.466.522.58.48 1.475-.1 2l-.062.056c-.582.52-1.48.47-2-.11s-.475-1.478.11-2l.052-.05c.27-.246.61-.366.95-.366zm-2.76 2.693c.345 0 .69.124.964.377.572.532.604 1.428.074 2l-.062.065c-.537.57-1.433.596-2 .06-.568-.537-.596-1.433-.06-2l.047-.05c.278-.302.657-.453 1.037-.453zm-2.524 2.913c.312 0 .622.102.883.31.61.488.71 1.378.22 1.99l-.044.055c-.486.613-1.377.717-1.99.232-.612-.485-.716-1.375-.23-1.988l.052-.067c.275-.35.69-.532 1.103-.532zm-2.273 3.114c.263 0 .532.074.77.23.656.427.84 1.304.413 1.96l-.053.078c-.434.65-1.312.823-1.965.39-.648-.436-.82-1.314-.387-1.964l.04-.05c.27-.414.722-.64 1.186-.64zm-2.01 3.293c.23 0 .464.058.68.174.69.376.94 1.236.563 1.92l-.04.078c-.38.685-1.24.93-1.927.553-.687-.38-.935-1.24-.557-1.924l.033-.06c.26-.47.744-.736 1.244-.736zm-1.72 3.452c.19 0 .382.037.565.117.716.31 1.044 1.144.73 1.86l-.038.084c-.32.714-1.156 1.032-1.87.713-.712-.32-1.03-1.16-.712-1.873l.026-.06c.23-.53.753-.846 1.3-.846zm-1.43 3.584c.153 0 .31.025.463.078.74.254 1.132 1.062.877 1.8l-.026.075c-.256.735-1.06 1.13-1.802.87-.737-.254-1.13-1.06-.874-1.8l.03-.073c.2-.587.75-.955 1.337-.955zm-1.118 3.69c.12 0 .24.014.36.045.757.2 1.208.976 1.01 1.73l-.02.066c-.19.758-.96 1.216-1.716 1.025-.76-.192-1.22-.962-1.03-1.72l.02-.09c.17-.633.744-1.053 1.37-1.053zm-.805 3.77c.078 0 .158.006.238.02.77.13 1.29.862 1.158 1.633l-.012.07c-.13.77-.86 1.29-1.63 1.16s-1.29-.855-1.164-1.627l.017-.083c.117-.69.715-1.177 1.393-1.177zm-.485 3.824c.04 0 .08 0 .118.005.78.063 1.36.747 1.295 1.526l-.008.08c-.062.78-.745 1.36-1.525 1.296-.777-.062-1.36-.748-1.295-1.525l.006-.08c.062-.74.68-1.3 1.41-1.3zm39.22-36.665c.682 0 1.28.49 1.396 1.183.13.77-.39 1.5-1.16 1.63l-.08.012c-.77.128-1.5-.394-1.626-1.165-.126-.77.396-1.5 1.166-1.627l.074-.013c.08-.014.156-.02.235-.02zm-3.773.798c.633 0 1.208.427 1.372 1.068.19.76-.268 1.53-1.026 1.72l-.06.02c-.754.2-1.53-.248-1.73-1.003-.2-.756.248-1.532 1.002-1.732l.096-.024c.115-.03.23-.045.346-.045zm-3.682 1.15c.573 0 1.112.35 1.327.92.272.734-.1 1.548-.832 1.82l-.086.03c-.74.27-1.55-.112-1.817-.846-.267-.734.112-1.546.85-1.813l.06-.022c.163-.06.33-.09.495-.09zm-3.554 1.49c.532 0 1.04.3 1.282.813.332.707.03 1.55-.678 1.883l-.06.023c-.702.34-1.55.046-1.89-.658-.34-.704-.046-1.55.658-1.89l.084-.04c.197-.092.402-.135.604-.135zm-3.4 1.817c.484 0 .957.25 1.222.7.396.673.172 1.54-.5 1.937l-.056.033c-.672.403-1.54.188-1.943-.48-.406-.67-.19-1.54.48-1.944l.08-.047c.223-.137.47-.2.713-.2zm-3.223 2.146c.43 0 .86.194 1.136.565.463.63.35 1.508-.28 1.976l-.04.028c-.628.468-1.525.347-1.994-.28-.466-.627-.35-1.504.278-1.972l.04-.027c.253-.19.555-.284.855-.284zm-2.99 2.406c.393 0 .784.162 1.063.48.518.585.462 1.478-.126 1.997l-.054.043c-.582.52-1.477.47-1.998-.116-.52-.585-.467-1.48.115-2l.063-.057c.272-.235.605-.35.938-.35zm-2.763 2.69c.344 0 .688.125.96.374.574.53.61 1.426.082 2l-.065.07c-.537.57-1.434.594-2 .058-.568-.536-.594-1.432-.06-2l.042-.044c.275-.304.66-.457 1.04-.457zm-2.5 2.935c.307 0 .61.097.87.298.615.48.728 1.368.248 1.986l-.042.058c-.477.62-1.363.74-1.982.265-.623-.473-.74-1.362-.267-1.983l.056-.07c.277-.36.695-.55 1.118-.55zm-2.216 3.156c.257 0 .517.07.748.214.664.414.866 1.286.452 1.95l-.034.055c-.42.66-1.3.867-1.96.448-.66-.417-.86-1.28-.445-1.942l.014-.02.02-.04c.266-.43.73-.665 1.2-.665zm-1.91 3.35c.213 0 .43.05.632.15.698.35.982 1.2.633 1.9l-.045.082c-.356.695-1.21.97-1.905.613-.695-.357-.97-1.21-.612-1.906l.027-.057c.245-.496.747-.783 1.266-.783zm-1.59 3.514c.176 0 .355.032.524.102.726.284 1.08 1.11.79 1.835l-.026.067c-.286.728-1.107 1.085-1.835.798-.728-.285-1.085-1.106-.798-1.834l.025-.08c.223-.554.754-.89 1.317-.89zm-1.25 3.648c.13 0 .263.018.39.054.754.212 1.19.995.973 1.75l-.02.072c-.218.75-1 1.185-1.752.97-.75-.215-1.186-1-.97-1.75l.02-.076c.178-.62.744-1.025 1.36-1.025zm-.9 3.748c.087 0 .173.007.26.024.77.14 1.276.88 1.137 1.648l-.013.086c-.147.77-.89 1.27-1.654 1.128-.77-.146-1.272-.887-1.13-1.655l.02-.07c.122-.68.72-1.156 1.386-1.156zm-.542 3.817c.04 0 .084.002.127.006.773.07 1.35.754 1.28 1.534l-.01.086c-.07.778-.76 1.35-1.54 1.276-.776-.074-1.35-.763-1.274-1.542l.006-.07c.064-.735.68-1.29 1.408-1.29zm34.304-31.686c.674 0 1.27.48 1.393 1.167.133.77-.378 1.508-1.15 1.646l-.06.012c-.766.145-1.51-.358-1.655-1.125-.146-.77.358-1.51 1.127-1.655l.094-.016c.084-.017.166-.024.248-.024zm-3.75.904c.613 0 1.178.4 1.36 1.015.218.75-.21 1.537-.96 1.758l-.062.02c-.748.23-1.54-.19-1.768-.94-.228-.75.193-1.54.94-1.765l.088-.026c.14-.04.27-.06.402-.06zm-3.63 1.302c.55 0 1.075.323 1.305.863.31.72-.03 1.55-.75 1.855l-.073.03c-.72.304-1.55-.035-1.852-.755-.307-.72.033-1.55.754-1.854l.07-.03c.18-.08.367-.11.55-.11zm-3.466 1.68c.493 0 .974.258 1.233.72.383.68.143 1.543-.538 1.928l-.083.045c-.686.377-1.545.127-1.92-.557-.38-.686-.128-1.546.557-1.923l.055-.03c.215-.126.452-.184.69-.184zm-3.272 2.04c.444 0 .88.21 1.157.6.45.64.298 1.52-.344 1.972l-.06.045c-.64.45-1.52.297-1.972-.34-.448-.64-.3-1.523.344-1.973l.06-.046c.25-.175.537-.258.82-.258zm-3.038 2.376c.393 0 .78.16 1.06.474.52.584.468 1.48-.116 2l-.056.048c-.59.516-1.49.46-2.004-.128-.513-.588-.46-1.477.127-1.99l.02-.014.034-.03c.27-.24.607-.36.94-.36zm-2.766 2.684c.348 0 .69.126.967.382.57.534.605 1.43.07 2l-.047.05c-.53.574-1.423.61-2 .082-.573-.53-.61-1.425-.08-2l.06-.065c.28-.3.657-.45 1.035-.45zm-2.466 2.962c.295 0 .592.092.848.284.625.47.752 1.357.28 1.98l-.038.057c-.465.628-1.352.76-1.98.297-.628-.465-.762-1.352-.296-1.98l.052-.07c.277-.372.702-.568 1.134-.568zm-2.144 3.208c.246 0 .497.063.724.2.674.4.893 1.27.49 1.94l-.035.06c-.396.675-1.262.9-1.938.504-.672-.396-.897-1.264-.504-1.94l.05-.073c.266-.442.738-.69 1.217-.69zm-1.788 3.417c.195 0 .396.04.586.126.71.325 1.025 1.164.7 1.875l-.03.073c-.324.71-1.165 1.03-1.876.705-.712-.323-1.024-1.162-.702-1.875l.033-.073c.236-.52.75-.828 1.29-.828zm-1.414 3.588c.148 0 .3.024.45.074.74.25 1.14 1.05.892 1.79l-.02.066c-.247.74-1.047 1.144-1.79.9-.742-.244-1.145-1.043-.9-1.786l.027-.082c.2-.593.75-.966 1.345-.966zm-1.022 3.72c.102 0 .205.01.31.033.763.17 1.244.927 1.07 1.69l-.015.065c-.16.765-.912 1.25-1.68 1.087-.764-.165-1.25-.916-1.087-1.68l.02-.088c.15-.66.735-1.107 1.382-1.107zm-.617 3.805c.052 0 .104.003.158.01.78.085 1.338.786 1.25 1.563l-.004.07c-.082.778-.777 1.343-1.558 1.26-.776-.083-1.34-.78-1.258-1.558l.01-.087c.08-.724.692-1.258 1.405-1.258zm29.387-26.685c.647 0 1.23.445 1.38 1.102.175.762-.302 1.52-1.065 1.694l-.094.025c-.76.163-1.513-.32-1.68-1.085-.163-.766.32-1.52 1.088-1.683l.06-.013c.107-.026.213-.037.316-.037zm-3.71 1.045c.58 0 1.124.36 1.33.938.265.736-.12 1.545-.854 1.81l-.086.03c-.738.258-1.545-.134-1.803-.872-.256-.738.135-1.544.873-1.802l.062-.02c.16-.06.318-.085.477-.085zm-3.556 1.494c.52 0 1.02.288 1.268.786.35.7.062 1.55-.64 1.897l-.065.034c-.697.35-1.55.07-1.898-.63-.356-.7-.07-1.55.63-1.9l.073-.034c.2-.1.415-.15.628-.15zm-3.34 1.922c.458 0 .908.223 1.18.634.433.652.254 1.53-.4 1.96l-.06.044c-.65.432-1.53.253-1.96-.398-.435-.653-.256-1.53.395-1.962l.06-.043c.24-.155.51-.23.782-.23zm-3.082 2.318c.396 0 .79.164 1.07.487.512.59.447 1.488-.145 2l-.04.037c-.593.51-1.497.453-2.01-.14-.51-.592-.452-1.477.14-1.986l.057-.05c.268-.23.6-.344.928-.344zm-2.772 2.676c.34 0 .687.125.957.375.575.53.612 1.424.082 2l-.05.055c-.53.577-1.42.617-2 .09-.58-.527-.62-1.422-.09-2l.054-.06c.278-.306.66-.46 1.043-.46zm-2.427 2.997c.287 0 .576.087.826.27.632.458.77 1.343.31 1.977l-.033.05c-.45.638-1.337.79-1.975.338-.64-.45-.79-1.334-.34-1.973l.057-.08c.28-.384.71-.586 1.15-.586zm-2.043 3.273c.23 0 .462.056.678.173.686.375.938 1.234.562 1.92l-.035.063c-.37.688-1.23.945-1.916.573-.69-.377-.947-1.23-.577-1.92l.04-.077c.258-.47.744-.736 1.244-.736zm-1.625 3.5c.175 0 .348.03.52.098.73.287 1.084 1.108.8 1.835l-.028.067c-.282.73-1.1 1.09-1.83.808-.728-.282-1.09-1.102-.807-1.83l.03-.083c.22-.555.752-.896 1.315-.896zm-1.177 3.674c.115 0 .23.013.35.043.756.19 1.217.96 1.023 1.72l-.02.075c-.19.758-.96 1.216-1.72 1.025-.755-.19-1.214-.96-1.02-1.72l.02-.075c.16-.642.737-1.068 1.37-1.068zm-.716 3.79c.06 0 .117.002.177.01.77.095 1.322.802 1.23 1.58l-.015.077c-.097.78-.804 1.33-1.577 1.235-.773-.096-1.327-.803-1.23-1.58l.01-.077c.087-.717.7-1.242 1.4-1.242zM182.74 45.77c.63 0 1.21.416 1.38 1.05.2.756-.237 1.526-.992 1.728l-.073.02c-.757.2-1.53-.25-1.73-1.004-.202-.754.244-1.53 1-1.73l.05-.015c.12-.037.244-.05.366-.05zm-3.63 1.226c.548 0 1.067.317 1.3.85.313.718-.016 1.55-.73 1.863l-.09.034c-.72.303-1.55-.036-1.854-.755-.305-.72.035-1.55.756-1.854l.056-.023c.184-.08.375-.12.563-.12zm-3.426 1.754c.474 0 .935.237 1.203.67.41.664.207 1.536-.457 1.948l-.066.042c-.67.405-1.545.196-1.95-.473-.406-.667-.198-1.535.47-1.94l.014-.01.04-.023c.23-.144.49-.214.746-.214zm-3.14 2.238c.41 0 .815.177 1.095.52.49.604.402 1.496-.2 1.99l-.05.04c-.6.502-1.49.425-1.994-.174-.503-.6-.423-1.49.175-1.994l.075-.062c.26-.215.577-.32.893-.32zm-2.782 2.667c.34 0 .684.122.953.37.577.527.618 1.422.092 2l-.043.045c-.52.584-1.414.635-1.998.115s-.635-1.415-.113-1.998l.062-.072c.278-.304.66-.46 1.047-.46zm-2.367 3.043c.27 0 .537.076.777.235.652.43.833 1.308.402 1.96l-.05.073c-.434.65-1.313.824-1.964.388-.65-.434-.822-1.312-.39-1.962l.04-.06c.272-.41.726-.634 1.185-.634zm-1.902 3.356c.206 0 .414.045.61.14.705.34 1.002 1.184.664 1.89l-.027.058c-.332.708-1.176 1.012-1.885.682-.705-.332-1.012-1.173-.682-1.882l.04-.085c.246-.506.75-.803 1.28-.803zm-1.388 3.616c.133 0 .268.018.4.058.748.226 1.176 1 .95 1.75l-.01.03-.013.042c-.224.75-1.013 1.176-1.762.952-.75-.224-1.174-1.013-.95-1.762l.015-.052c.19-.615.758-1.02 1.37-1.02zm-.85 3.745c.07 0 .14.006.21.017.773.114 1.307.834 1.19 1.607l-.01.072c-.114.773-.835 1.308-1.606 1.194-.777-.114-1.315-.834-1.2-1.608l.015-.08c.102-.704.706-1.208 1.396-1.208zm19.54-16.555c.594 0 1.147.374 1.344.967.244.742-.158 1.543-.9 1.79l-.093.03c-.743.24-1.54-.172-1.778-.917-.237-.745.172-1.542.92-1.78l.056-.02c.146-.047.295-.07.445-.07zm-3.548 1.504c.502 0 .985.266 1.244.736.378.687.12 1.546-.56 1.92l-.08.045c-.69.366-1.55.107-1.915-.583-.37-.69-.106-1.546.582-1.916l.057-.03c.215-.116.45-.172.677-.172zm-3.222 2.116c.414 0 .824.18 1.104.526.49.608.39 1.5-.22 1.99l-.05.042c-.61.485-1.51.39-1.996-.22-.488-.612-.395-1.494.215-1.98l.02-.017.038-.024c.26-.21.573-.314.883-.314zm-2.795 2.654c.33 0 .662.114.93.348.59.512.652 1.407.14 1.996l-.06.067c-.518.586-1.41.643-1.996.125-.587-.518-.645-1.412-.126-1.998l.046-.05c.28-.323.673-.488 1.066-.488zm-2.277 3.116c.25 0 .5.063.727.2.67.403.89 1.267.485 1.937l-.036.063c-.4.672-1.27.893-1.94.493-.675-.4-.897-1.27-.497-1.94l.04-.065c.266-.442.737-.69 1.217-.69zm-1.687 3.46c.166 0 .336.03.5.09.73.276 1.1 1.093.825 1.824l-.024.072c-.273.733-1.09 1.102-1.822.83-.73-.276-1.1-1.092-.826-1.824l.028-.075c.212-.567.75-.917 1.324-.917zm-1.036 3.723c.083 0 .167.007.25.022.77.14 1.282.867 1.142 1.636l-.014.076c-.137.77-.87 1.282-1.643 1.145-.77-.137-1.28-.873-1.146-1.642l.012-.062c.122-.685.722-1.17 1.394-1.17zm14.63-11.365c.56 0 1.09.334 1.313.884.294.725-.057 1.55-.78 1.844l-.037.016c-.717.312-1.55-.015-1.862-.733-.312-.72.015-1.555.73-1.865l.106-.046c.174-.07.354-.104.53-.104zm-3.34 1.915c.434 0 .86.197 1.137.57.468.626.337 1.514-.29 1.98l-.063.047c-.626.467-1.513.337-1.98-.29-.466-.627-.337-1.514.29-1.98l.063-.046c.253-.19.55-.28.843-.28zm-2.813 2.642c.32 0 .643.11.904.33.6.503.687 1.387.185 1.985l-.048.055c-.5.6-1.393.682-1.992.18-.602-.5-.682-1.39-.182-1.992l.04-.05c.284-.333.69-.508 1.098-.508zm-2.13 3.197c.216 0 .437.05.644.157.698.353.975 1.205.617 1.9l-.03.058c-.348.7-1.198.982-1.896.633-.7-.35-.982-1.2-.634-1.9l.043-.082c.25-.487.744-.767 1.26-.767zm-1.335 3.628c.105 0 .217.012.324.037.76.183 1.23.932 1.052 1.693l-.02.072c-.18.76-.94 1.232-1.7 1.054-.762-.18-1.234-.94-1.055-1.7l.014-.06c.157-.65.743-1.097 1.385-1.097zm9.258 58.866l-.06-.008c-.775-.103-1.323-.812-1.224-1.588.102-.775.812-1.322 1.586-1.22l.094.013c.774.108 1.314.823 1.205 1.598-.1.71-.703 1.22-1.4 1.22-.06 0-.13 0-.2-.01zm-3.884-.66l-.093-.02c-.765-.164-1.248-.92-1.084-1.682.16-.766.912-1.25 1.68-1.087l.06.015c.767.154 1.26.9 1.104 1.668-.137.672-.73 1.135-1.385 1.135-.095 0-.19-.01-.286-.028zm-3.854-.96l-.074-.022c-.75-.22-1.18-1.006-.96-1.755.22-.75 1.005-1.185 1.755-.96l.076.02c.744.22 1.18 1.003.96 1.753-.185.62-.75 1.02-1.36 1.02-.136-.002-.268-.022-.4-.06zm-3.758-1.246l-.072-.03c-.73-.27-1.104-1.09-.828-1.82.273-.73 1.09-1.104 1.822-.828l.072.027c.732.27 1.104 1.09.83 1.82-.215.57-.754.92-1.326.92-.165 0-.332-.03-.498-.09zm-3.652-1.53l-.072-.033c-.706-.33-1.012-1.174-.682-1.883s1.174-1.014 1.88-.682l.072.033c.708.33 1.015 1.172.683 1.88-.24.516-.75.817-1.282.817-.2.003-.403-.042-.595-.133zm-3.514-1.797l-.085-.047c-.68-.387-.918-1.25-.53-1.93.385-.68 1.25-.918 1.93-.533l.052.03c.687.376.937 1.237.558 1.923-.26.47-.74.732-1.24.732-.234.002-.468-.055-.685-.175zm-3.4-2.078l-.05-.033c-.65-.43-.83-1.31-.4-1.962.434-.65 1.31-.83 1.964-.397l.08.055c.647.44.813 1.32.373 1.967-.273.4-.72.618-1.172.618-.276-.002-.55-.082-.795-.248zm-3.206-2.31l-.057-.042c-.617-.48-.73-1.367-.25-1.984.478-.62 1.367-.73 1.985-.25l.07.05c.612.48.72 1.37.236 1.99-.278.35-.694.54-1.112.54-.303 0-.612-.1-.872-.307zm-3.03-2.545l-.054-.052c-.58-.523-.625-1.418-.1-1.998.52-.578 1.42-.625 1.998-.1l.062.057c.578.526.617 1.424.09 2-.278.305-.66.46-1.045.46-.34.004-.68-.12-.95-.368zm-2.825-2.766l-.06-.062c-.536-.567-.51-1.463.058-2 .568-.536 1.466-.508 2.002.06l.05.054c.54.564.517 1.46-.05 2-.273.26-.625.39-.975.39-.375-.005-.748-.15-1.025-.442zm-2.627-2.988l-.04-.05c-.494-.603-.403-1.495.2-1.99.605-.495 1.498-.405 1.99.2l.06.073c.49.61.392 1.5-.222 1.985-.26.21-.57.31-.883.31-.414 0-.828-.183-1.105-.532zm-2.383-3.166l-.025-.036-.014-.02c-.446-.643-.28-1.516.36-1.96.645-.446 1.532-.276 1.98.365l.037.05c.44.646.273 1.526-.37 1.967-.245.167-.522.247-.798.247-.452 0-.894-.214-1.17-.617zm-2.133-3.327l-.04-.068c-.397-.675-.17-1.54.503-1.938.672-.396 1.54-.172 1.937.502l.04.064c.396.674.172 1.54-.502 1.938-.227.133-.473.195-.718.195-.483.002-.956-.248-1.22-.698zm-1.88-3.485l-.037-.077c-.342-.7-.05-1.55.652-1.89.7-.34 1.55-.05 1.89.65l.03.066c.35.7.06 1.55-.64 1.896-.2.1-.418.146-.63.146-.52.002-1.02-.287-1.27-.787zm-1.618-3.642l-.027-.064c-.29-.73.07-1.55.8-1.837s1.55.07 1.83.8l.027.066c.29.73-.066 1.547-.793 1.837-.17.067-.348.1-.52.1-.565 0-1.1-.342-1.322-.898zm-1.326-3.724l-.023-.076c-.232-.746.184-1.54.932-1.77.742-.235 1.535.183 1.77.93l.02.074c.232.748-.186 1.54-.93 1.772-.14.043-.28.064-.42.064-.605 0-1.165-.39-1.35-.994zm-1.04-3.822l-.02-.08c-.174-.763.304-1.522 1.064-1.696.762-.174 1.52.302 1.694 1.064l.018.072c.178.762-.298 1.52-1.06 1.7-.107.022-.216.034-.32.034-.642.002-1.225-.44-1.377-1.093zm-.748-3.9l-.01-.063c-.12-.772.41-1.498 1.183-1.617.775-.12 1.495.41 1.615 1.183l.012.09c.115.772-.42 1.492-1.193 1.606-.07.005-.14.01-.21.01-.69 0-1.297-.51-1.4-1.21zm-.448-3.918l-.008-.095c-.055-.78.533-1.457 1.312-1.51.776-.053 1.457.53 1.513 1.312l.008.06c.063.78-.52 1.46-1.296 1.524-.04.003-.08.005-.115.005-.73.002-1.35-.56-1.41-1.3zm45.32 42.908l-.063-.01c-.77-.108-1.31-.825-1.2-1.6.11-.772.83-1.31 1.604-1.2l.095.014c.77.117 1.303.84 1.184 1.612-.108.7-.71 1.2-1.398 1.2-.07.002-.146-.003-.22-.015zm-3.902-.733l-.062-.014c-.764-.176-1.238-.936-1.064-1.696.176-.763.938-1.24 1.696-1.063l.09.02c.76.18 1.23.944 1.05 1.705-.158.645-.736 1.083-1.378 1.083-.11 0-.22-.014-.332-.04zm-3.83-1.063l-.062-.02c-.745-.24-1.154-1.038-.915-1.778.238-.746 1.035-1.156 1.78-.918l.09.03c.74.244 1.142 1.044.896 1.786-.194.595-.75.972-1.34.972-.148 0-.298-.023-.445-.072zm-3.72-1.378l-.067-.028c-.72-.304-1.06-1.132-.758-1.854.303-.72 1.135-1.058 1.854-.757l.078.032c.722.3 1.058 1.13.754 1.85-.23.54-.754.864-1.305.864-.184 0-.37-.035-.55-.11zm-3.602-1.692l-.066-.034c-.69-.367-.94-1.217-.575-1.908.362-.69 1.23-.946 1.924-.58l.047.024c.69.367.95 1.227.585 1.914-.256.48-.743.75-1.25.75-.226 0-.456-.055-.67-.166zm-3.424-1.974l-.074-.05c-.658-.42-.854-1.295-.432-1.954.422-.658 1.297-.85 1.956-.43l.058.036c.66.417.86 1.29.444 1.95-.27.43-.73.664-1.2.664-.256 0-.52-.07-.752-.216zm-3.266-2.265l-.07-.054c-.62-.473-.738-1.36-.264-1.98.477-.62 1.363-.74 1.982-.264l.058.04c.623.473.746 1.358.274 1.983-.277.37-.7.56-1.13.56-.293 0-.595-.09-.85-.283zm-3.07-2.535l-.055-.05c-.582-.52-.63-1.416-.107-1.998.522-.584 1.418-.632 2-.107l.062.057c.578.523.623 1.418.1 1.998-.28.31-.664.466-1.05.466-.34-.002-.68-.122-.95-.367zm-2.847-2.78l-.046-.052c-.537-.568-.512-1.463.06-2 .567-.537 1.462-.51 2 .06l.06.065c.53.57.5 1.467-.073 2-.27.254-.62.38-.964.38-.38 0-.76-.154-1.037-.454zm-2.595-2.995l-.05-.066c-.486-.615-.384-1.506.228-1.99.613-.48 1.505-.38 1.99.23l.044.06c.49.61.39 1.5-.224 1.987-.26.208-.572.31-.883.31-.41 0-.825-.184-1.105-.535zm-2.35-3.222l-.036-.054c-.435-.65-.262-1.53.39-1.965.65-.437 1.528-.263 1.963.388l.053.078c.43.658.243 1.533-.41 1.96-.24.157-.51.23-.772.23-.467 0-.92-.224-1.19-.64zm-2.066-3.39l-.034-.062c-.378-.68-.132-1.54.553-1.92s1.55-.13 1.93.555l.042.074c.373.687.123 1.544-.563 1.92-.217.116-.45.173-.68.173-.503 0-.987-.264-1.245-.736zm-1.777-3.563l-.027-.06c-.317-.714-.002-1.55.713-1.872.717-.317 1.555-.002 1.875.712l.037.086c.31.72-.015 1.55-.73 1.864-.184.08-.375.117-.566.117-.546.002-1.068-.314-1.298-.846zm-1.468-3.688l-.026-.075c-.252-.737.14-1.544.878-1.8.74-.255 1.546.14 1.802.876l.025.073c.255.74-.137 1.547-.877 1.8-.15.054-.31.08-.462.08-.586 0-1.137-.368-1.337-.954zm-1.15-3.792l-.022-.087c-.19-.76.268-1.53 1.025-1.72.756-.19 1.527.267 1.72 1.022l.017.064c.2.753-.253 1.525-1.012 1.725-.118.03-.24.045-.358.045-.63.004-1.203-.416-1.37-1.05zm-.83-3.892l-.015-.082c-.127-.77.393-1.502 1.164-1.63.77-.128 1.5.394 1.63 1.165l.013.07c.13.775-.39 1.506-1.16 1.637-.08.016-.16.02-.24.02-.68 0-1.28-.484-1.395-1.176zm-.5-3.946l-.007-.078c-.062-.778.518-1.46 1.295-1.526.78-.066 1.463.517 1.525 1.297l.008.076c.064.78-.516 1.467-1.295 1.53-.04.005-.078.007-.118.007-.73 0-1.347-.56-1.407-1.302zm40.39 37.944l-.073-.013c-.77-.128-1.292-.856-1.165-1.63.123-.77.85-1.29 1.623-1.163l.08.013c.77.13 1.29.857 1.163 1.63-.115.692-.716 1.183-1.396 1.183-.077 0-.153-.006-.235-.02zm-3.883-.82l-.095-.025c-.758-.2-1.208-.973-1.006-1.73.2-.754.978-1.2 1.73-1l.06.016c.76.19 1.22.962 1.026 1.72-.163.642-.74 1.067-1.37 1.067-.114 0-.23-.014-.347-.043zm-3.83-1.196l-.06-.022c-.736-.266-1.115-1.078-.85-1.812.267-.734 1.076-1.115 1.812-.848l.088.03c.73.273 1.104 1.09.83 1.82-.214.57-.753.92-1.324.92-.163.003-.33-.027-.495-.088zm-3.66-1.537l-.085-.04c-.707-.34-1-1.186-.66-1.89.34-.705 1.19-1 1.89-.658l.06.027c.705.332 1.01 1.176.68 1.883-.245.513-.75.812-1.285.812-.204.002-.41-.04-.605-.134zm-3.514-1.88l-.078-.047c-.67-.402-.885-1.273-.48-1.94.4-.67 1.27-.887 1.94-.484l.057.034c.67.396.892 1.264.5 1.938-.267.448-.74.697-1.226.697-.245 0-.49-.06-.717-.193zm-3.366-2.233l-.04-.027c-.626-.467-.742-1.344-.276-1.97.467-.628 1.365-.75 1.992-.283l.04.03c.627.465.745 1.344.276 1.97-.274.37-.703.563-1.135.563-.294.003-.6-.09-.853-.283zm-3.066-2.473l-.064-.06c-.582-.52-.635-1.413-.115-1.997.52-.583 1.412-.636 1.994-.115l.054.05c.59.516.644 1.41.126 1.997-.28.315-.67.48-1.062.48-.334-.003-.667-.12-.937-.355zm-2.868-2.794l-.042-.044c-.535-.57-.51-1.47.06-2.006.565-.536 1.462-.51 2 .06l.064.068c.528.576.492 1.47-.083 2-.275.25-.62.375-.96.375-.38 0-.765-.153-1.04-.458zm-2.577-3.025l-.056-.07c-.474-.62-.358-1.51.267-1.984.62-.476 1.508-.355 1.982.266l.042.054c.48.616.367 1.507-.25 1.985-.258.2-.562.295-.867.295-.42-.004-.84-.19-1.114-.55zm-2.3-3.276l-.024-.037-.018-.02c-.416-.66-.214-1.525.446-1.94.66-.42 1.54-.213 1.96.447l.033.056c.415.66.213 1.536-.45 1.95-.23.145-.49.212-.748.212-.474-.002-.935-.237-1.202-.668zm-1.978-3.467l-.027-.057c-.357-.695-.083-1.55.613-1.904.697-.355 1.55-.084 1.908.61l.045.085c.35.695.063 1.545-.634 1.9-.206.1-.42.142-.634.142-.517.004-1.02-.282-1.267-.78zm-1.635-3.62l-.03-.08c-.286-.73.07-1.55.8-1.836.728-.29 1.548.07 1.834.795l.028.067c.29.726-.066 1.55-.793 1.84-.17.068-.35.1-.526.1-.565 0-1.096-.338-1.316-.89zm-1.294-3.783l-.02-.077c-.216-.75.218-1.533.97-1.75.752-.214 1.534.22 1.75.973l.022.073c.217.757-.22 1.54-.97 1.757-.13.037-.263.055-.392.055-.617-.003-1.183-.405-1.36-1.027zm-.93-3.882l-.016-.07c-.146-.77.357-1.51 1.128-1.654.766-.146 1.507.356 1.653 1.125l.02.09c.14.77-.365 1.508-1.135 1.647-.088.017-.174.026-.26.026-.665 0-1.26-.476-1.386-1.16zm-.566-3.95l-.005-.07c-.072-.776.498-1.467 1.275-1.54.78-.074 1.47.5 1.542 1.277l.01.086c.067.777-.508 1.465-1.286 1.533-.043.005-.084.007-.127.007-.728 0-1.345-.558-1.41-1.292zm35.466 32.956l-.094-.018c-.768-.146-1.27-.887-1.125-1.653.146-.77.89-1.27 1.654-1.127l.066.012c.77.138 1.28.872 1.144 1.644-.124.686-.72 1.166-1.393 1.166-.08 0-.163-.008-.25-.024zm-3.9-.94l-.086-.025c-.748-.225-1.17-1.02-.94-1.765.228-.748 1.02-1.168 1.767-.94l.062.02c.75.222 1.18 1.01.955 1.76-.183.613-.746 1.014-1.356 1.014-.137-.004-.27-.02-.405-.06zm-3.78-1.356l-.067-.028c-.725-.303-1.065-1.132-.76-1.853.302-.726 1.133-1.06 1.852-.76l.074.03c.72.305 1.057 1.135.752 1.854-.23.54-.754.864-1.306.864-.183 0-.37-.036-.55-.11zm-3.61-1.75l-.06-.03c-.684-.377-.935-1.238-.557-1.923.372-.687 1.232-.935 1.92-.558l.08.04c.682.385.92 1.25.54 1.93-.26.46-.74.722-1.234.722-.238 0-.475-.06-.693-.185zm-3.394-2.117l-.062-.046c-.643-.45-.793-1.333-.342-1.973.45-.64 1.332-.79 1.973-.342l.066.047c.64.445.79 1.33.342 1.97-.276.39-.715.6-1.16.6-.28 0-.565-.08-.813-.26zm-3.162-2.478l-.034-.03-.015-.01c-.584-.52-.64-1.404-.123-1.992.515-.59 1.415-.644 2.004-.13l.056.05c.584.52.637 1.414.117 1.998-.28.317-.667.48-1.06.48-.333 0-.67-.12-.94-.36zM161.78 100l-.06-.062c-.53-.574-.493-1.472.082-2s1.47-.494 2 .082l.046.05c.533.57.504 1.467-.066 2-.274.257-.62.384-.967.384-.38-.002-.754-.154-1.034-.453zm-2.568-3.078l-.052-.07c-.467-.63-.332-1.515.297-1.98s1.516-.33 1.98.298l.04.055c.47.627.342 1.514-.283 1.982-.254.19-.553.283-.846.283-.432 0-.857-.196-1.136-.568zm-2.224-3.33l-.047-.074c-.39-.677-.164-1.54.508-1.938.676-.397 1.54-.17 1.938.504l.036.06c.4.672.183 1.54-.49 1.94-.228.135-.48.2-.725.2-.48-.002-.95-.248-1.216-.69zm-1.862-3.558l-.032-.07c-.322-.71-.008-1.55.702-1.874.71-.324 1.552-.01 1.875.7l.036.073c.324.71.01 1.55-.7 1.873-.19.09-.392.13-.587.13-.54 0-1.054-.31-1.29-.832zm-1.466-3.724l-.028-.08c-.243-.74.16-1.542.902-1.788.74-.243 1.542.16 1.788.904l.02.064c.25.742-.15 1.545-.89 1.793-.15.05-.302.074-.45.074-.59 0-1.143-.375-1.342-.966zm-1.058-3.862l-.02-.087c-.165-.762.322-1.512 1.086-1.68.768-.16 1.518.326 1.68 1.09l.016.064c.172.767-.31 1.522-1.073 1.69-.1.022-.203.033-.31.033-.645.004-1.23-.446-1.375-1.105zm-.644-3.955l-.01-.086c-.08-.777.48-1.476 1.26-1.56.778-.08 1.474.483 1.558 1.262l.006.07c.088.77-.473 1.47-1.248 1.56-.056.01-.107.01-.16.01-.714 0-1.325-.536-1.406-1.26zm30.48 27.907l-.062-.012c-.764-.166-1.25-.918-1.085-1.684.168-.764.92-1.248 1.685-1.084l.094.02c.764.174 1.24.934 1.064 1.694-.146.656-.73 1.103-1.378 1.103-.104 0-.21-.012-.314-.037zm-3.876-1.09l-.062-.02c-.738-.26-1.13-1.064-.873-1.805.258-.736 1.064-1.13 1.803-.87l.086.03c.735.263 1.12 1.073.855 1.81-.203.578-.75.938-1.33.938-.16 0-.32-.025-.475-.082zm-3.707-1.56l-.074-.037c-.695-.35-.98-1.2-.63-1.898.352-.7 1.2-.982 1.9-.633l.065.032c.7.35.986 1.197.638 1.896-.246.5-.747.787-1.27.787-.21 0-.422-.047-.624-.147zm-3.495-2.01l-.063-.045c-.65-.43-.83-1.31-.398-1.96.43-.65 1.31-.83 1.96-.397l.062.042c.65.433.83 1.312.398 1.962-.27.41-.72.635-1.18.635-.27 0-.54-.08-.78-.236zm-3.223-2.428l-.057-.05c-.594-.51-.648-1.395-.14-1.987.51-.59 1.415-.648 2.008-.14l.042.038c.59.512.652 1.406.143 1.995-.28.324-.675.488-1.07.488-.33.002-.66-.11-.926-.344zm-2.89-2.787l-.058-.063c-.53-.578-.49-1.473.09-2 .58-.528 1.47-.483 2 .093l.05.053c.53.574.49 1.47-.086 2-.27.25-.616.373-.957.373-.384 0-.766-.15-1.044-.452zm-2.532-3.127l-.056-.075c-.455-.64-.3-1.523.335-1.974.64-.457 1.52-.3 1.975.332l.036.053c.458.634.317 1.52-.314 1.978-.252.18-.543.27-.83.27-.44-.002-.872-.205-1.15-.588zm-2.14-3.423l-.04-.074c-.37-.684-.113-1.543.574-1.914.684-.373 1.54-.115 1.912.572l.035.064c.374.686.122 1.545-.564 1.92-.215.115-.447.173-.677.173-.5 0-.987-.27-1.245-.737zm-1.695-3.66l-.03-.08c-.283-.73.078-1.55.808-1.833.73-.282 1.55.08 1.83.81l.026.067c.285.72-.07 1.545-.8 1.83-.17.066-.344.1-.52.1-.562 0-1.094-.34-1.315-.9zm-1.234-3.845l-.02-.075c-.193-.76.266-1.527 1.023-1.72.753-.19 1.522.267 1.72 1.026l.02.078c.19.758-.27 1.526-1.028 1.72-.116.028-.232.044-.348.044-.633 0-1.208-.43-1.37-1.07zm-.748-3.96l-.01-.08c-.096-.777.457-1.48 1.232-1.578.773-.098 1.48.455 1.577 1.23l.01.08c.097.773-.455 1.48-1.23 1.576-.06.008-.118.012-.177.012-.7 0-1.312-.525-1.402-1.24zm25.474 22.834l-.047-.013c-.757-.2-1.204-.974-1.003-1.73.2-.753.976-1.2 1.732-1l.072.02c.755.2 1.19.97.99 1.73-.166.632-.748 1.046-1.377 1.046-.12 0-.247-.016-.37-.05zm-3.824-1.297l-.056-.023c-.72-.303-1.06-1.133-.756-1.854.303-.72 1.133-1.06 1.854-.754l.09.037c.717.312 1.045 1.146.73 1.863-.23.53-.752.85-1.3.85-.187 0-.378-.038-.562-.12zm-3.61-1.85l-.043-.026-.013-.003c-.668-.406-.876-1.27-.47-1.94.404-.667 1.28-.878 1.95-.472l.067.04c.66.413.863 1.284.45 1.95-.27.43-.73.67-1.202.67-.254 0-.51-.07-.743-.214zm-3.29-2.343l-.075-.06c-.6-.505-.677-1.397-.175-1.996.502-.6 1.396-.676 1.994-.175l.047.04c.6.494.69 1.387.2 1.99-.28.343-.69.52-1.1.52-.316 0-.63-.105-.895-.32zm-2.933-2.81l-.062-.07c-.52-.583-.47-1.48.113-1.997s1.48-.47 1.998.114l.043.05c.526.578.485 1.47-.092 2-.27.248-.613.37-.953.37-.386 0-.77-.155-1.047-.462zm-2.503-3.216l-.04-.06c-.434-.65-.262-1.527.39-1.962.65-.436 1.53-.262 1.964.387l.05.074c.43.653.25 1.53-.402 1.96-.24.16-.51.235-.778.235-.46.002-.914-.223-1.184-.634zm-1.996-3.52l-.04-.09c-.33-.707-.025-1.55.682-1.88.71-.33 1.552-.026 1.884.683l.026.06c.338.707.043 1.55-.662 1.89-.197.097-.405.14-.61.14-.532-.002-1.037-.3-1.28-.802zm-1.478-3.833l-.016-.053c-.224-.75.2-1.537.95-1.762.75-.225 1.538.203 1.76.953l.015.04.01.03c.225.748-.202 1.522-.95 1.75-.134.04-.27.058-.4.058-.614 0-1.183-.4-1.37-1.012zm-.883-3.935l-.013-.08c-.114-.774.42-1.493 1.195-1.606.77-.112 1.49.42 1.604 1.192l.016.076c.115.772-.42 1.494-1.19 1.608-.07.01-.142.017-.21.017-.69 0-1.293-.507-1.398-1.208zm20.493 17.69l-.057-.02c-.742-.237-1.15-1.035-.915-1.778.24-.744 1.035-1.158 1.778-.92l.093.03c.742.247 1.145 1.05.896 1.79-.2.594-.75.97-1.344.97-.146 0-.297-.025-.446-.073zm-3.78-1.606l-.055-.03c-.69-.367-.953-1.225-.584-1.914.364-.69 1.22-.95 1.91-.584l.082.045c.686.38.938 1.238.562 1.92-.258.476-.74.74-1.242.74-.225 0-.46-.055-.677-.173zm-3.428-2.254l-.036-.03-.02-.015c-.61-.486-.703-1.37-.216-1.98.484-.612 1.385-.706 1.996-.22l.052.04c.608.49.705 1.38.215 1.99-.274.347-.69.526-1.1.526-.312.005-.63-.1-.886-.31zm-2.977-2.83l-.045-.05c-.517-.588-.46-1.48.126-1.998.585-.518 1.48-.46 1.996.124l.06.067c.513.59.45 1.484-.14 1.996-.27.23-.6.344-.93.344-.393 0-.79-.163-1.067-.486zm-2.43-3.315l-.04-.064c-.397-.67-.18-1.54.494-1.935.674-.4 1.54-.18 1.94.49l.036.064c.402.67.186 1.532-.486 1.936-.227.138-.476.203-.726.203-.474-.003-.945-.25-1.213-.69zm-1.793-3.69l-.028-.075c-.273-.73.097-1.548.826-1.82.734-.274 1.55.095 1.824.826l.027.07c.27.733-.1 1.55-.83 1.825-.164.065-.334.095-.498.095-.574 0-1.11-.348-1.326-.917zm-1.106-3.975l-.014-.063c-.137-.77.375-1.506 1.145-1.645.77-.136 1.506.375 1.643 1.146l.014.072c.143.77-.37 1.494-1.14 1.636-.085.017-.17.022-.25.022-.675 0-1.275-.485-1.398-1.17zm15.496 12.43l-.105-.047c-.718-.312-1.045-1.146-.73-1.862s1.145-1.04 1.86-.73l.04.02c.725.294 1.073 1.12.778 1.84-.222.556-.752.888-1.312.888-.17-.002-.353-.034-.53-.106zm-3.654-2.092l-.062-.05c-.627-.464-.758-1.352-.29-1.978.467-.628 1.354-.756 1.98-.29l.062.047c.626.468.758 1.354.288 1.98-.276.374-.702.57-1.135.57-.298.003-.59-.09-.847-.28zm-3.066-2.87l-.04-.05c-.5-.604-.422-1.494.182-1.994.6-.502 1.492-.418 1.992.182l.048.055c.502.6.418 1.486-.18 1.99-.263.223-.585.33-.905.33-.408 0-.814-.178-1.098-.51zm-2.296-3.458l-.04-.084c-.352-.698-.067-1.55.632-1.898.697-.352 1.55-.064 1.898.633l.028.06c.356.698.08 1.55-.612 1.907-.207.106-.43.158-.646.158-.512 0-1.008-.28-1.26-.772zm-1.457-3.956l-.014-.058c-.18-.76.293-1.522 1.055-1.7.76-.18 1.52.292 1.7 1.053l.018.07c.182.76-.29 1.51-1.05 1.69-.107.025-.22.04-.325.04-.64 0-1.223-.447-1.38-1.1zm23.698-57.768l.062.008c.773.1 1.322.81 1.222 1.586-.107.775-.816 1.323-1.59 1.22l-.09-.012c-.778-.11-1.317-.826-1.208-1.6.1-.707.706-1.217 1.4-1.217.066.005.133.01.2.02zm3.883.658l.094.02c.765.167 1.25.918 1.087 1.68-.17.766-.92 1.25-1.687 1.087l-.062-.01c-.766-.155-1.262-.902-1.105-1.67.14-.67.73-1.13 1.387-1.13.094 0 .19.01.283.027zm3.856.96l.076.023c.75.22 1.18 1.005.96 1.755s-1.006 1.18-1.756.96l-.076-.02c-.75-.22-1.18-1.006-.96-1.756.18-.618.745-1.02 1.356-1.02.13 0 .268.02.4.06zm3.758 1.246l.073.03c.73.274 1.102 1.09.828 1.823-.273.73-1.092 1.1-1.822.828l-.07-.024c-.73-.274-1.102-1.09-.83-1.823.215-.567.756-.917 1.328-.917.166 0 .334.028.497.09zm3.653 1.532l.07.033c.71.332 1.015 1.174.685 1.882-.332.708-1.174 1.013-1.88.683l-.075-.034c-.706-.33-1.012-1.173-.682-1.88.24-.515.75-.817 1.282-.817.204 0 .407.04.6.13zm3.512 1.796l.085.048c.68.386.917 1.25.533 1.93-.387.68-1.25.917-1.93.532l-.054-.03c-.68-.377-.93-1.238-.554-1.922.26-.47.742-.733 1.242-.733.235 0 .466.055.682.175zm3.403 2.078l.05.033c.65.43.83 1.31.398 1.96-.432.65-1.31.83-1.96.4l-.083-.056c-.646-.44-.812-1.32-.373-1.967.273-.403.72-.62 1.172-.62.276 0 .552.08.796.245zm3.203 2.308l.057.043c.617.48.73 1.368.25 1.986-.48.618-1.368.73-1.985.25l-.068-.054c-.614-.486-.72-1.376-.24-1.99.28-.356.695-.54 1.115-.54.305 0 .612.1.87.3zm3.03 2.55l.056.05c.58.522.62 1.417.1 1.997-.527.58-1.42.628-2 .1l-.066-.053c-.574-.527-.615-1.423-.09-2 .28-.305.664-.46 1.047-.46.337 0 .68.12.95.37z"/><path fill="#A5A5A5" d="M226.682 36.738l.06.06c.534.57.51 1.465-.06 2.002-.568.537-1.467.51-2.002-.058l-.05-.053c-.538-.57-.517-1.466.05-2 .272-.265.623-.395.975-.395.372 0 .745.147 1.027.44z"/><path fill="#CECECE" d="M229.307 39.726l.04.048c.493.605.404 1.497-.2 1.99-.605.497-1.496.408-1.99-.198l-.062-.074c-.486-.61-.386-1.5.225-1.99.263-.208.572-.31.883-.31.412 0 .824.183 1.104.534zm2.383 3.164l.023.037.015.02c.444.643.28 1.515-.362 1.96-.644.445-1.53.277-1.976-.365l-.037-.055c-.443-.646-.275-1.526.37-1.967.242-.167.52-.247.794-.247.456 0 .9.216 1.174.618zm2.132 3.327l.04.068c.395.674.17 1.542-.503 1.938s-1.545.17-1.94-.504l-.04-.07c-.397-.674-.175-1.54.5-1.938.226-.132.474-.196.716-.196.486 0 .96.25 1.222.697zm1.88 3.487l.038.078c.342.703.05 1.55-.653 1.892-.702.342-1.55.05-1.894-.653l-.03-.06c-.345-.7-.058-1.55.644-1.895.2-.1.416-.146.627-.146.52 0 1.02.287 1.27.787zm1.618 3.64l.025.067c.287.73-.07 1.55-.8 1.84-.726.286-1.55-.07-1.834-.8l-.022-.066c-.29-.725.065-1.542.793-1.832.17-.067.347-.1.52-.1.564 0 1.1.34 1.32.897zm1.326 3.726l.022.077c.23.747-.185 1.54-.933 1.772-.745.23-1.54-.188-1.77-.935l-.022-.076c-.232-.748.185-1.54.933-1.77.14-.045.28-.066.42-.066.602 0 1.162.388 1.35.995zm1.04 3.82l.02.082c.176.762-.3 1.52-1.062 1.695-.764.172-1.52-.302-1.695-1.064l-.02-.072c-.178-.76.295-1.52 1.06-1.694.104-.025.213-.038.32-.038.64 0 1.22.442 1.373 1.095zm.748 3.9l.012.065c.12.774-.41 1.497-1.184 1.617-.775.122-1.496-.41-1.615-1.183l-.013-.09c-.112-.775.42-1.49 1.194-1.608.07-.01.14-.015.208-.015.69 0 1.295.504 1.398 1.21zm.45 3.92l.007.092c.06.78-.53 1.458-1.31 1.51-.775.052-1.455-.53-1.51-1.31l-.006-.064c-.06-.78.52-1.462 1.298-1.526.038-.003.08-.004.116-.004.73 0 1.35.56 1.41 1.3zM195.56 25.8l.062.01c.774.11 1.312.825 1.202 1.6-.11.773-.83 1.31-1.602 1.202l-.094-.014c-.77-.12-1.303-.842-1.183-1.614.106-.7.71-1.2 1.396-1.2.076 0 .15.005.22.016zm3.903.735l.062.015c.762.175 1.238.933 1.063 1.696-.174.762-.937 1.238-1.696 1.063l-.088-.025c-.763-.182-1.23-.945-1.048-1.706.155-.65.734-1.086 1.375-1.086.11 0 .22.013.334.04zm3.83 1.063l.06.02c.747.24 1.157 1.036.917 1.78-.237.745-1.035 1.154-1.78.917l-.087-.03c-.74-.245-1.145-1.045-.898-1.787.197-.594.75-.97 1.344-.97.146-.002.295.02.443.07zm3.72 1.378l.067.03c.723.302 1.06 1.132.758 1.853-.305.72-1.134 1.055-1.854.752l-.075-.03c-.72-.307-1.058-1.137-.75-1.857.23-.54.75-.864 1.302-.864.183 0 .37.036.55.113zm3.6 1.69l.066.036c.69.366.94 1.216.574 1.907s-1.234.942-1.927.58l-.048-.027c-.69-.37-.95-1.226-.583-1.916.255-.48.744-.75 1.25-.75.227 0 .454.053.668.166zm3.427 1.977l.074.048c.66.42.852 1.3.43 1.96-.42.657-1.296.85-1.955.43l-.057-.038c-.662-.417-.86-1.29-.443-1.95.27-.43.73-.663 1.2-.663.258 0 .52.07.753.216zm3.268 2.267l.066.05c.62.476.74 1.364.267 1.985-.475.62-1.363.74-1.983.266l-.056-.04c-.624-.47-.747-1.36-.274-1.983.277-.368.7-.562 1.13-.562.295 0 .595.093.852.287zm3.067 2.532l.055.05c.582.52.63 1.416.107 1.998-.525.582-1.42.63-2 .107l-.06-.056c-.58-.52-.63-1.42-.104-2 .28-.31.663-.462 1.053-.462.335.002.673.122.946.367zm2.846 2.78l.05.05c.534.568.51 1.463-.06 2-.568.537-1.464.51-2-.06l-.06-.063c-.533-.577-.5-1.47.072-2.005.27-.253.618-.378.964-.378.378 0 .757.15 1.037.45zm2.595 2.994l.054.066c.484.613.38 1.503-.23 1.988-.615.485-1.506.382-1.99-.232l-.045-.056c-.487-.61-.39-1.502.224-1.99.26-.208.57-.31.88-.31.415 0 .827.184 1.105.534zm2.354 3.224l.034.052c.436.65.26 1.528-.39 1.963-.65.434-1.528.26-1.962-.39l-.053-.077c-.43-.656-.246-1.532.41-1.96.236-.156.506-.23.77-.23.46 0 .917.225 1.188.64zm2.063 3.388l.033.063c.38.688.133 1.55-.554 1.928-.684.378-1.543.13-1.923-.553l-.044-.077c-.376-.685-.123-1.545.562-1.92.216-.118.45-.174.68-.174.5 0 .986.267 1.243.738zm1.78 3.562l.025.06c.316.713 0 1.55-.715 1.872-.713.318-1.55 0-1.87-.713l-.038-.09c-.314-.714.016-1.55.73-1.863.186-.08.377-.118.565-.118.546 0 1.065.314 1.3.846zm1.466 3.69l.024.074c.257.74-.136 1.544-.873 1.8-.74.255-1.545-.136-1.8-.875l-.026-.08c-.256-.737.137-1.544.875-1.798.152-.053.31-.08.46-.08.59 0 1.14.37 1.34.955zm1.15 3.79l.02.09c.19.757-.268 1.527-1.024 1.72-.757.19-1.527-.27-1.72-1.026l-.017-.064c-.2-.756.253-1.53 1.01-1.728.12-.03.24-.046.36-.046.63 0 1.203.42 1.37 1.055zm.83 3.893l.014.083c.13.772-.394 1.5-1.164 1.628s-1.5-.393-1.628-1.162l-.013-.073c-.134-.775.385-1.505 1.155-1.637.08-.014.16-.02.237-.02.68 0 1.277.486 1.396 1.177zm.5 3.947l.005.078c.063.778-.517 1.462-1.292 1.525-.78.068-1.465-.514-1.53-1.293l-.005-.08c-.065-.778.514-1.462 1.293-1.525.04-.004.08-.005.12-.005.727 0 1.346.56 1.407 1.3zm-40.395-37.945l.074.013c.77.127 1.294.856 1.165 1.627-.13.772-.855 1.293-1.627 1.165l-.08-.013c-.773-.128-1.295-.857-1.164-1.628.114-.697.715-1.188 1.395-1.188.08 0 .154.006.234.02zm3.886.82l.095.025c.756.2 1.204.977 1.003 1.732-.2.755-.98 1.204-1.734 1.002l-.058-.016c-.76-.192-1.22-.96-1.025-1.72.163-.64.74-1.067 1.37-1.067.117.006.23.02.348.05zm3.826 1.197l.062.022c.733.266 1.113 1.08.85 1.813-.27.734-1.08 1.114-1.815.848l-.085-.03c-.73-.274-1.104-1.09-.83-1.82.21-.57.752-.923 1.325-.923.163 0 .33.03.492.09zm3.663 1.536l.084.04c.705.34 1 1.188.658 1.89-.337.705-1.186 1-1.89.66l-.06-.028c-.704-.333-1.01-1.176-.677-1.883.24-.513.75-.813 1.28-.813.207 0 .412.042.606.134zm3.515 1.88l.082.048c.67.402.883 1.273.48 1.943-.403.665-1.273.88-1.94.48l-.057-.036c-.673-.396-.897-1.264-.503-1.938.266-.45.737-.7 1.224-.7.244 0 .49.065.718.198zm3.364 2.232l.04.03c.625.466.744 1.343.275 1.97-.466.627-1.363.748-1.992.28l-.04-.027c-.624-.467-.743-1.344-.275-1.97.274-.373.7-.566 1.133-.566.3 0 .6.093.857.283zm3.07 2.476l.062.057c.586.52.64 1.415.117 2-.524.583-1.417.635-2 .115l-.054-.047c-.588-.513-.643-1.41-.127-1.994.28-.318.67-.48 1.062-.48.332 0 .666.115.938.353zm2.866 2.794l.042.044c.533.568.51 1.464-.06 2-.568.537-1.466.51-2-.058l-.067-.07c-.53-.575-.49-1.47.084-2 .272-.25.616-.375.96-.375.38.005.762.16 1.04.46zm2.578 3.025l.054.07c.473.62.354 1.51-.266 1.984s-1.51.352-1.983-.27l-.04-.053c-.48-.62-.368-1.508.25-1.987.257-.2.562-.297.865-.297.42 0 .84.19 1.12.55zm2.3 3.275l.022.037.015.02c.417.663.216 1.525-.444 1.943s-1.54.21-1.96-.448l-.036-.056c-.41-.663-.208-1.536.456-1.95.23-.145.49-.213.746-.213.47 0 .934.236 1.203.666zm1.975 3.465l.027.056c.355.7.082 1.55-.615 1.91-.692.357-1.546.08-1.903-.613l-.045-.083c-.35-.7-.065-1.55.635-1.9.203-.1.42-.15.63-.15.52.002 1.02.288 1.268.785zm1.636 3.622l.03.08c.285.728-.07 1.55-.8 1.835-.727.287-1.548-.07-1.835-.8l-.025-.066c-.288-.727.063-1.55.79-1.84.172-.07.35-.1.523-.1.562 0 1.094.338 1.316.89zm1.293 3.783l.02.075c.216.75-.22 1.536-.97 1.75-.75.216-1.533-.218-1.75-.97l-.023-.074c-.215-.75.222-1.53.973-1.75.13-.034.263-.05.392-.05.616 0 1.18.402 1.36 1.023zm.932 3.882l.013.07c.147.767-.356 1.507-1.125 1.654-.767.146-1.51-.357-1.655-1.125l-.015-.082c-.144-.77.367-1.507 1.135-1.648.087-.018.173-.025.26-.025.666 0 1.26.477 1.388 1.16zm.56 3.948l.007.07c.07.78-.5 1.47-1.278 1.543-.78.074-1.47-.5-1.54-1.276l-.012-.086c-.066-.78.51-1.46 1.288-1.53.04-.004.084-.006.125-.006.728 0 1.344.555 1.41 1.29zm-35.46-32.954l.093.016c.77.147 1.272.888 1.126 1.656s-.89 1.27-1.657 1.125l-.062-.012c-.77-.133-1.28-.87-1.143-1.64.12-.684.72-1.165 1.39-1.165.085.002.167.008.253.024zm3.898.94l.09.025c.747.23 1.17 1.02.94 1.77-.23.748-1.02 1.17-1.768.94l-.062-.02c-.75-.22-1.18-1.004-.96-1.755.184-.617.747-1.015 1.357-1.015.134 0 .27.02.403.06zm3.782 1.354l.07.03c.72.303 1.06 1.133.756 1.854-.305.72-1.135 1.06-1.854.756l-.076-.03c-.72-.306-1.057-1.136-.752-1.856.23-.54.752-.864 1.306-.864.185 0 .37.034.55.11zm3.61 1.752l.058.03c.686.377.936 1.238.56 1.923s-1.24.935-1.923.558l-.084-.045c-.68-.384-.92-1.248-.532-1.928.26-.462.74-.72 1.233-.72.235 0 .474.057.692.182zm3.392 2.116l.064.046c.64.45.79 1.333.344 1.972-.45.64-1.335.792-1.975.34l-.063-.044c-.64-.45-.79-1.333-.343-1.972.275-.39.713-.6 1.16-.6.28 0 .565.083.81.258zm3.164 2.476l.035.03.017.014c.588.515.643 1.403.127 1.99-.515.59-1.414.644-2.004.128l-.056-.048c-.586-.52-.637-1.414-.116-1.998.28-.313.668-.474 1.06-.474.335 0 .67.12.94.358zm2.86 2.776l.06.065c.53.575.493 1.47-.083 2-.573.528-1.47.492-1.998-.083l-.046-.05c-.535-.57-.507-1.465.064-2 .272-.255.62-.38.966-.38.38-.002.757.15 1.036.448zm2.568 3.08l.053.07c.464.628.33 1.514-.298 1.98-.627.462-1.516.33-1.98-.298l-.04-.055c-.47-.625-.343-1.513.282-1.982.256-.192.555-.283.85-.283.43 0 .852.196 1.132.567zm2.224 3.33l.043.074c.4.676.175 1.543-.5 1.94s-1.54.17-1.94-.504l-.033-.06c-.398-.672-.18-1.54.492-1.94.23-.136.48-.2.724-.2.482 0 .953.245 1.216.69zm1.862 3.556l.034.072c.322.712.01 1.55-.704 1.875-.71.323-1.55.01-1.873-.7l-.03-.074c-.326-.715-.014-1.55.697-1.88.19-.086.39-.125.586-.125.54 0 1.055.306 1.29.828zm1.466 3.724l.027.084c.244.743-.158 1.542-.902 1.787-.74.247-1.54-.155-1.782-.9l-.02-.065c-.25-.742.15-1.543.89-1.793.15-.05.303-.074.45-.074.59 0 1.144.373 1.34.965zm1.06 3.862l.02.088c.165.764-.323 1.516-1.087 1.68-.77.162-1.52-.322-1.685-1.087l-.013-.066c-.17-.762.31-1.52 1.075-1.69.104-.022.205-.032.31-.032.648 0 1.232.448 1.38 1.107zm.644 3.956l.008.087c.082.778-.48 1.475-1.258 1.557-.78.084-1.474-.48-1.557-1.258l-.008-.07c-.086-.778.473-1.48 1.25-1.565.053-.01.105-.01.156-.01.714 0 1.33.53 1.41 1.255zM195.62 40.76l.062.013c.764.165 1.25.917 1.086 1.682-.166.765-.918 1.248-1.684 1.085l-.092-.02c-.764-.174-1.24-.933-1.066-1.695.15-.657.732-1.102 1.38-1.102.102.002.21.013.314.037zm3.874 1.092l.062.02c.737.258 1.13 1.064.87 1.803-.256.74-1.06 1.13-1.8.872l-.088-.03c-.734-.264-1.12-1.074-.854-1.81.207-.578.752-.94 1.332-.94.16 0 .32.028.478.085zm3.706 1.56l.073.037c.7.35.982 1.2.633 1.895-.35.7-1.198.982-1.896.633l-.066-.034c-.7-.348-.987-1.197-.64-1.897.247-.5.748-.787 1.27-.787.21 0 .425.048.627.15zm3.493 2.008l.065.044c.65.43.83 1.31.398 1.962-.43.65-1.31.83-1.964.398l-.062-.043c-.652-.43-.83-1.31-.398-1.96.27-.41.723-.63 1.18-.63.27 0 .54.075.78.234zm3.227 2.43l.057.048c.592.51.648 1.395.14 1.986-.51.593-1.415.65-2.01.14l-.04-.038c-.592-.512-.654-1.406-.14-1.996.277-.323.67-.487 1.066-.487.327 0 .66.114.927.347zm2.89 2.788l.057.062c.526.577.487 1.472-.09 2-.578.525-1.475.485-2-.09l-.05-.056c-.528-.575-.492-1.47.082-2 .27-.25.61-.374.955-.374.38 0 .76.154 1.043.458zm2.532 3.124l.055.077c.45.635.3 1.52-.338 1.97-.64.45-1.525.3-1.977-.34l-.037-.05c-.46-.633-.317-1.52.315-1.976.25-.182.543-.27.83-.27.44 0 .87.202 1.15.585zm2.138 3.425l.04.075c.37.688.114 1.545-.572 1.918-.688.372-1.55.115-1.92-.573l-.032-.063c-.375-.686-.122-1.545.563-1.92.21-.117.442-.173.672-.173.5 0 .988.27 1.244.74zm1.697 3.658l.03.083c.283.73-.077 1.548-.807 1.83-.73.282-1.55-.08-1.83-.808l-.025-.067c-.288-.727.07-1.548.798-1.835.17-.066.345-.1.52-.1.56 0 1.094.342 1.314.897zm1.233 3.845l.02.077c.19.758-.267 1.527-1.023 1.72-.76.19-1.528-.268-1.72-1.026l-.02-.072c-.19-.758.268-1.528 1.023-1.72.117-.03.232-.042.35-.042.632 0 1.208.427 1.37 1.068zm.747 3.964l.01.078c.095.776-.456 1.483-1.23 1.58-.775.096-1.48-.456-1.58-1.232l-.01-.08c-.096-.775.458-1.482 1.23-1.578.062-.007.12-.01.177-.01.703 0 1.316.526 1.403 1.242zm-25.473-22.837l.047.014c.76.205 1.21.98 1.008 1.735s-.977 1.204-1.73 1.003l-.074-.02c-.755-.2-1.19-.97-.99-1.727.167-.634.75-1.05 1.378-1.05.12 0 .245.018.367.05zm3.824 1.297l.057.023c.722.303 1.06 1.133.756 1.854-.3.72-1.13 1.06-1.85.76l-.09-.04c-.716-.312-1.043-1.146-.73-1.862.233-.533.75-.85 1.3-.85.186 0 .377.038.56.118zm3.612 1.85l.042.024.012.01c.67.405.876 1.27.47 1.94-.403.667-1.28.877-1.95.472l-.065-.04c-.668-.413-.87-1.286-.46-1.95.27-.433.73-.67 1.203-.67.254 0 .51.07.743.214zm3.288 2.343l.074.062c.6.5.677 1.392.175 1.99-.503.6-1.396.676-1.993.174l-.048-.04c-.604-.495-.694-1.386-.2-1.99.28-.343.69-.52 1.098-.52.315 0 .632.106.894.32zm2.934 2.81l.062.07c.52.584.47 1.48-.113 2s-1.475.47-1.994-.116l-.043-.042c-.524-.577-.485-1.472.09-2 .274-.247.616-.37.956-.37.384 0 .766.156 1.046.46zm2.504 3.217l.04.06c.435.65.26 1.527-.392 1.96-.648.436-1.528.262-1.963-.388l-.045-.074c-.432-.652-.25-1.53.4-1.96.24-.158.512-.234.78-.234.46 0 .91.224 1.184.636zm1.994 3.523l.04.084c.33.71.027 1.55-.68 1.886-.71.33-1.554.026-1.886-.682l-.025-.058c-.34-.704-.047-1.55.66-1.888.195-.095.404-.14.61-.14.53 0 1.035.296 1.28.803zm1.478 3.83l.016.053c.223.75-.202 1.537-.95 1.762-.75.224-1.538-.203-1.763-.952l-.01-.043-.01-.03c-.226-.747.203-1.522.95-1.748.136-.045.27-.06.403-.06.613 0 1.183.4 1.37 1.015zm.882 3.935l.012.08c.114.774-.42 1.494-1.192 1.607-.774.11-1.494-.425-1.606-1.198l-.013-.076c-.11-.774.42-1.494 1.195-1.608.07-.01.14-.018.21-.018.69 0 1.294.504 1.398 1.207zm-20.49-17.69l.058.02c.744.237 1.153 1.034.916 1.778-.236.744-1.033 1.157-1.78.917l-.09-.03c-.74-.247-1.144-1.048-.895-1.79.192-.594.75-.97 1.34-.97.145.002.3.026.45.075zm3.776 1.605l.057.03c.69.37.95 1.226.583 1.916s-1.226.95-1.916.583l-.08-.044c-.688-.375-.938-1.235-.563-1.92.258-.472.742-.737 1.242-.737.225 0 .46.055.673.172zm3.432 2.255l.036.028.02.016c.61.487.702 1.37.216 1.98-.485.612-1.385.706-1.996.22l-.05-.04c-.61-.492-.708-1.383-.217-1.992.28-.346.69-.527 1.103-.527.312.002.626.105.888.315zm2.975 2.828l.047.052c.515.585.46 1.48-.127 1.998-.586.52-1.48.462-1.996-.125l-.06-.067c-.514-.59-.45-1.484.14-1.996.27-.234.6-.348.93-.348.392 0 .786.164 1.066.487zm2.43 3.318l.038.065c.4.672.18 1.54-.49 1.94-.672.4-1.54.18-1.94-.494l-.036-.066c-.4-.67-.182-1.534.486-1.938.227-.137.477-.2.727-.2.48 0 .953.246 1.22.688zm1.792 3.69l.027.074c.275.732-.095 1.548-.826 1.823-.73.272-1.55-.096-1.822-.83l-.03-.07c-.272-.732.097-1.55.828-1.824.164-.06.333-.09.498-.09.573 0 1.112.35 1.325.92zm1.11 3.976l.012.062c.137.77-.375 1.505-1.146 1.642-.77.137-1.5-.375-1.64-1.145l-.012-.072c-.142-.77.37-1.492 1.14-1.633.085-.015.17-.022.252-.022.67 0 1.272.487 1.397 1.172zm-15.498-12.432l.105.046c.717.31 1.045 1.146.732 1.862-.312.718-1.146 1.044-1.864.732l-.036-.016c-.727-.295-1.074-1.12-.78-1.844.222-.55.75-.884 1.312-.884.176 0 .356.034.53.104zm3.655 2.092l.062.046c.63.466.76 1.354.29 1.98-.466.628-1.353.757-1.978.29l-.064-.046c-.627-.466-.756-1.354-.29-1.98.278-.374.706-.57 1.138-.57.29 0 .587.09.842.28zm3.063 2.87l.04.05c.5.6.42 1.493-.183 1.993-.6.5-1.492.42-1.992-.18l-.047-.056c-.502-.595-.416-1.48.18-1.98.264-.22.586-.33.906-.33.405 0 .81.173 1.092.51zm2.295 3.456l.042.084c.35.7.067 1.55-.634 1.9-.7.348-1.55.065-1.898-.635l-.027-.06c-.356-.697-.082-1.55.612-1.906.208-.106.43-.157.646-.157.516 0 1.01.28 1.26.77zm1.46 3.958l.012.058c.18.76-.293 1.522-1.055 1.7-.76.18-1.52-.29-1.702-1.053l-.016-.072c-.187-.76.29-1.51 1.05-1.69.104-.024.214-.037.32-.037.644 0 1.23.447 1.386 1.1zm-10.845 57.782c-.694 0-1.3-.512-1.4-1.22-.107-.772.43-1.487 1.205-1.597l.092-.013c.775-.104 1.484.444 1.587 1.22.1.774-.45 1.485-1.226 1.588l-.062.008c-.067.01-.133.014-.2.014zm3.8-.644c-.66 0-1.25-.46-1.388-1.133-.154-.768.342-1.515 1.106-1.67l.062-.014c.765-.165 1.517.32 1.683 1.083.164.765-.322 1.517-1.087 1.683l-.09.02c-.093.016-.19.026-.283.026zm3.74-.932c-.61 0-1.177-.398-1.357-1.02-.22-.75.212-1.534.96-1.756l.076-.02c.75-.225 1.537.21 1.757.96.225.748-.205 1.535-.96 1.754l-.072.022c-.133.04-.27.06-.4.06zm3.66-1.214c-.572 0-1.113-.35-1.326-.92-.276-.73.095-1.546.83-1.82l.07-.028c.73-.274 1.55.097 1.82.828.273.732-.098 1.55-.828 1.82l-.072.03c-.163.062-.33.09-.497.09zm3.55-1.485c-.53 0-1.04-.304-1.282-.818-.33-.707-.024-1.55.682-1.88l.074-.033c.703-.332 1.545-.025 1.88.683.33.708.02 1.55-.688 1.883l-.07.03c-.193.09-.396.135-.6.135zm3.432-1.755c-.5 0-.984-.264-1.242-.73-.376-.688-.127-1.548.56-1.925l.052-.03c.68-.386 1.543-.145 1.93.532.385.682.146 1.545-.533 1.93l-.085.048c-.22.118-.455.175-.686.175zm3.287-2.01c-.453 0-.897-.216-1.172-.617-.44-.646-.272-1.526.373-1.967l.082-.056c.65-.432 1.53-.252 1.96.4.432.65.253 1.53-.397 1.96l-.05.033c-.245.168-.52.248-.796.248zm3.126-2.25c-.42 0-.834-.187-1.114-.54-.48-.617-.375-1.507.24-1.99l.068-.05c.617-.48 1.506-.37 1.985.25.474.616.363 1.505-.255 1.983l-.055.043c-.26.205-.565.305-.872.305zm2.95-2.48c-.383 0-.767-.155-1.047-.46-.525-.578-.485-1.474.092-2.002l.062-.056c.58-.524 1.475-.48 1.998.1.525.58.48 1.475-.1 2l-.055.048c-.266.248-.61.37-.95.37zm2.754-2.696c-.353 0-.702-.132-.975-.392-.57-.54-.59-1.436-.055-2l.05-.053c.535-.57 1.433-.6 2-.065.57.537.595 1.434.06 2.002l-.06.06c-.278.297-.65.443-1.024.443zm2.546-2.894c-.312 0-.62-.103-.884-.312-.61-.487-.71-1.38-.225-1.99l.066-.072c.494-.605 1.385-.695 1.99-.2.604.495.693 1.388.2 1.99l-.04.05c-.276.35-.688.533-1.104.533zm2.32-3.08c-.273 0-.553-.08-.797-.25-.645-.437-.812-1.32-.37-1.965l.038-.054c.45-.64 1.338-.81 1.98-.362.644.445.808 1.318.36 1.96l-.013.02-.023.04c-.276.4-.72.614-1.172.614zm2.082-3.247c-.244 0-.49-.063-.718-.197-.674-.396-.897-1.264-.5-1.937l.04-.07c.395-.677 1.264-.9 1.936-.505.675.397.9 1.264.502 1.938l-.038.067c-.265.45-.738.7-1.222.7zm1.832-3.396c-.21 0-.426-.047-.627-.146-.7-.343-.988-1.19-.643-1.892l.03-.062c.344-.705 1.19-.996 1.893-.653.703.343.993 1.19.653 1.894l-.038.077c-.247.5-.75.788-1.268.788zM236 94.715c-.175 0-.35-.033-.522-.1-.728-.29-1.082-1.107-.793-1.834l.026-.062c.29-.73 1.11-1.086 1.838-.8.73.287 1.087 1.108.8 1.837l-.025.064c-.22.556-.757.9-1.32.9zm1.296-3.628c-.14 0-.28-.02-.42-.065-.748-.23-1.166-1.023-.933-1.77l.02-.075c.234-.746 1.027-1.165 1.772-.932.748.232 1.164 1.025.933 1.77l-.022.077c-.188.605-.748.995-1.35.995zm1.014-3.72c-.106 0-.214-.01-.32-.036-.763-.175-1.235-.934-1.06-1.695l.016-.07c.176-.766.934-1.24 1.695-1.066.768.175 1.24.934 1.068 1.693l-.02.083c-.15.653-.734 1.094-1.376 1.094zm.725-3.787c-.068 0-.137-.005-.207-.014-.773-.113-1.31-.832-1.194-1.607l.013-.09c.12-.77.84-1.305 1.615-1.18.773.115 1.303.84 1.184 1.61l-.012.066c-.103.704-.707 1.21-1.4 1.21zm.44-3.826c-.04 0-.078-.002-.117-.005-.778-.07-1.36-.75-1.297-1.53l.01-.06c.055-.78.733-1.365 1.51-1.314.78.055 1.368.73 1.31 1.512l-.004.092c-.062.74-.68 1.3-1.41 1.3zm-44.13 41.624c-.687 0-1.29-.5-1.395-1.2-.12-.77.41-1.494 1.183-1.61l.095-.017c.77-.103 1.49.43 1.6 1.206.11.772-.428 1.49-1.202 1.6l-.062.01c-.074.01-.147.015-.218.015zm3.79-.712c-.64 0-1.22-.438-1.375-1.087-.184-.765.285-1.528 1.047-1.708l.09-.02c.76-.177 1.52.3 1.695 1.062s-.303 1.52-1.064 1.696l-.062.015c-.112.025-.223.04-.33.04zm3.715-1.03c-.594 0-1.146-.376-1.344-.97-.244-.743.157-1.543.898-1.788l.088-.028c.744-.238 1.542.172 1.78.916.24.74-.17 1.54-.917 1.778l-.062.02c-.147.05-.296.073-.443.073zm3.612-1.338c-.552 0-1.075-.323-1.304-.862-.305-.724.03-1.553.752-1.856l.074-.032c.722-.3 1.55.037 1.854.758.302.72-.036 1.55-.758 1.854l-.067.03c-.18.072-.367.108-.55.108zm3.488-1.638c-.507 0-.995-.27-1.25-.75-.368-.688-.107-1.546.583-1.914l.047-.023c.69-.367 1.562-.11 1.927.58s.113 1.54-.575 1.907l-.064.034c-.216.11-.443.167-.668.167zm3.34-1.924c-.472 0-.933-.234-1.2-.663-.416-.66-.218-1.534.444-1.95l.056-.037c.66-.42 1.536-.23 1.956.43.422.66.23 1.534-.43 1.955l-.076.05c-.23.148-.493.22-.75.22zm3.165-2.196c-.43 0-.854-.192-1.13-.563-.474-.623-.35-1.512.274-1.982l.053-.04c.62-.478 1.51-.356 1.984.263.474.62.354 1.51-.267 1.985l-.067.052c-.254.19-.554.284-.85.284zm2.975-2.456c-.39 0-.772-.156-1.053-.465-.525-.585-.48-1.48.102-2l.06-.06c.58-.523 1.475-.477 2 .107.52.58.47 1.477-.11 1.997l-.056.05c-.273.246-.61.366-.947.366zm2.756-2.69c-.345 0-.69-.124-.963-.38-.572-.53-.604-1.428-.072-2l.066-.064c.536-.57 1.433-.596 2-.06.567.537.595 1.433.06 2l-.047.052c-.284.297-.663.45-1.04.45zm2.524-2.914c-.312 0-.62-.102-.882-.31-.61-.488-.71-1.38-.225-1.988l.047-.06c.482-.61 1.375-.715 1.988-.23.61.485.717 1.376.23 1.987l-.053.062c-.276.35-.69.534-1.105.534zm2.274-3.116c-.266 0-.534-.074-.772-.23-.653-.428-.84-1.303-.41-1.96l.052-.078c.435-.648 1.312-.822 1.96-.388.652.435.827 1.312.393 1.96l-.034.055c-.273.416-.728.64-1.19.64zm2.006-3.294c-.228 0-.463-.057-.678-.174-.687-.375-.938-1.234-.562-1.922l.04-.074c.38-.685 1.24-.933 1.925-.553.686.377.934 1.238.555 1.922l-.035.06c-.258.472-.743.74-1.244.74zm1.725-3.45c-.19 0-.38-.038-.566-.118-.72-.312-1.05-1.146-.73-1.863l.034-.088c.32-.717 1.158-1.033 1.87-.715.716.32 1.033 1.157.714 1.87l-.026.06c-.236.53-.755.848-1.3.848zm1.425-3.585c-.15 0-.307-.025-.46-.078-.738-.254-1.13-1.06-.875-1.8l.025-.074c.256-.74 1.06-1.13 1.802-.875.737.255 1.13 1.062.874 1.8l-.027.074c-.2.586-.75.953-1.34.953zm1.122-3.69c-.12 0-.24-.013-.36-.044-.757-.195-1.208-.97-1.01-1.725l.017-.064c.19-.757.96-1.215 1.72-1.023.754.19 1.212.96 1.02 1.72l-.02.09c-.168.63-.74 1.05-1.37 1.05zm.804-3.77c-.08 0-.158-.007-.24-.02-.77-.132-1.288-.862-1.157-1.634l.01-.07c.13-.77.86-1.29 1.63-1.162.77.13 1.29.858 1.162 1.63l-.015.083c-.12.69-.718 1.177-1.395 1.177zm.486-3.82c-.04 0-.08-.003-.118-.008-.78-.063-1.357-.747-1.295-1.526l.004-.072c.063-.78.746-1.363 1.527-1.297.777.065 1.356.748 1.293 1.526l-.007.078c-.062.74-.68 1.302-1.408 1.302zm-39.22 36.66c-.68 0-1.28-.49-1.395-1.18-.13-.773.393-1.5 1.162-1.63l.08-.015c.77-.128 1.5.394 1.623 1.164.13.77-.394 1.5-1.166 1.63l-.075.012c-.08.014-.157.02-.234.02zm3.772-.797c-.63 0-1.207-.427-1.37-1.068-.19-.757.27-1.526 1.025-1.72l.054-.014c.757-.202 1.533.246 1.732 1.002.2.756-.248 1.53-1.004 1.73l-.094.026c-.117.03-.23.044-.35.044zm3.68-1.148c-.572 0-1.112-.352-1.325-.922-.277-.73.1-1.546.83-1.82l.083-.03c.735-.268 1.547.113 1.813.85.266.732-.114 1.546-.85 1.81l-.062.024c-.162.06-.33.09-.493.09zm3.556-1.49c-.53 0-1.04-.302-1.28-.813-.333-.708-.028-1.552.677-1.884l.06-.027c.703-.34 1.552-.046 1.89.658.342.704.047 1.55-.658 1.89l-.088.04c-.198.094-.403.135-.605.135zm3.4-1.82c-.485 0-.958-.25-1.223-.698-.396-.674-.172-1.54.504-1.938l.06-.033c.667-.4 1.536-.184 1.94.486.402.668.187 1.54-.48 1.942l-.08.048c-.227.135-.473.196-.717.196zm3.224-2.144c-.433 0-.858-.193-1.135-.563-.47-.627-.35-1.507.272-1.974l.04-.03c.628-.468 1.525-.347 1.99.28.47.63.35 1.504-.276 1.972l-.04.028c-.258.19-.556.284-.856.284zm2.99-2.406c-.394 0-.78-.163-1.063-.48-.512-.585-.455-1.48.13-1.996l.054-.05c.585-.52 1.48-.467 2 .116.52.584.47 1.48-.116 1.998l-.062.06c-.272.234-.607.35-.94.35zm2.762-2.69c-.343 0-.687-.124-.96-.375-.574-.53-.61-1.424-.082-2l.067-.068c.538-.568 1.436-.596 2-.06.57.537.597 1.433.06 2.002l-.04.04c-.28.305-.66.457-1.04.457zm2.5-2.936c-.303 0-.608-.098-.866-.3-.617-.478-.73-1.366-.25-1.983l.04-.05c.476-.62 1.364-.74 1.983-.266.622.477.738 1.364.266 1.986l-.058.067c-.28.364-.698.55-1.12.55zm2.216-3.154c-.257 0-.516-.07-.746-.215-.664-.413-.865-1.288-.455-1.95l.04-.056c.42-.66 1.3-.87 1.96-.45.66.416.86 1.28.445 1.94l-.015.02-.023.038c-.27.433-.73.67-1.203.67zm1.91-3.35c-.213 0-.43-.048-.63-.147-.7-.352-.983-1.2-.635-1.9l.042-.084c.353-.7 1.21-.97 1.9-.615.697.354.97 1.21.615 1.904l-.03.06c-.247.49-.747.777-1.265.777zm1.59-3.514c-.176 0-.354-.032-.523-.102-.73-.288-1.08-1.113-.795-1.84l.027-.066c.287-.728 1.107-1.085 1.836-.8.73.287 1.084 1.107.8 1.836l-.03.08c-.226.553-.758.892-1.32.892zm1.248-3.65c-.128 0-.26-.017-.39-.055-.75-.212-1.187-1-.972-1.75l.023-.072c.22-.75 1-1.186 1.75-.972.756.218 1.19 1 .975 1.75l-.02.077c-.18.625-.744 1.027-1.362 1.027zm.902-3.748c-.086 0-.172-.008-.26-.023-.768-.143-1.276-.88-1.135-1.648l.016-.086c.146-.765.89-1.27 1.656-1.12.764.145 1.27.887 1.12 1.653l-.01.07c-.127.683-.72 1.16-1.39 1.16zm.543-3.815c-.04 0-.084-.002-.126-.007-.78-.068-1.358-.756-1.29-1.533l.01-.086c.07-.78.762-1.354 1.54-1.277.778.073 1.35.765 1.276 1.54l-.007.07c-.065.735-.68 1.293-1.408 1.293zm-34.307 31.685c-.672 0-1.27-.48-1.392-1.166-.138-.77.375-1.504 1.146-1.644l.062-.01c.767-.146 1.51.356 1.655 1.125s-.36 1.508-1.13 1.655l-.093.016c-.087.018-.17.024-.253.024zm3.75-.905c-.612 0-1.176-.4-1.358-1.016-.222-.75.208-1.537.96-1.757l.06-.02c.75-.228 1.54.19 1.77.94.228.748-.194 1.54-.94 1.768l-.09.025c-.135.043-.27.06-.402.06zm3.632-1.3c-.554 0-1.078-.324-1.306-.864-.305-.725.033-1.555.752-1.858l.076-.033c.72-.303 1.55.037 1.853.757.304.72-.035 1.55-.755 1.852l-.07.03c-.18.072-.366.11-.55.11zm3.468-1.678c-.492 0-.975-.262-1.232-.723-.385-.682-.145-1.544.535-1.93l.088-.043c.684-.38 1.545-.13 1.922.554.376.685.126 1.546-.56 1.922l-.057.03c-.217.124-.456.185-.692.185zm3.272-2.043c-.446 0-.884-.21-1.16-.6-.45-.64-.298-1.52.343-1.973l.062-.05c.64-.45 1.523-.298 1.975.34.447.64.297 1.52-.344 1.974l-.064.046c-.246.178-.53.26-.813.26zm3.037-2.376c-.392 0-.78-.16-1.06-.475-.52-.58-.47-1.475.116-1.994l.055-.05c.59-.514 1.49-.46 2.004.13.516.588.46 1.474-.127 1.99l-.014.012-.032.03c-.27.243-.604.36-.938.36zm2.763-2.686c-.344 0-.69-.126-.965-.382-.57-.533-.6-1.43-.066-2l.042-.05c.528-.575 1.425-.61 2-.083.574.53.61 1.426.082 2.002l-.06.062c-.28.3-.657.45-1.036.45zm2.47-2.96c-.295 0-.594-.094-.85-.284-.626-.472-.753-1.354-.28-1.98l.04-.057c.464-.63 1.353-.766 1.98-.3.628.464.76 1.35.296 1.98l-.054.07c-.278.37-.7.57-1.13.57zm2.142-3.208c-.246 0-.496-.064-.724-.2-.67-.398-.892-1.268-.49-1.94l.034-.06c.396-.674 1.264-.9 1.938-.503.676.392.9 1.26.502 1.934l-.04.075c-.267.444-.738.69-1.22.69zm1.788-3.417c-.194 0-.394-.04-.585-.13-.71-.32-1.023-1.16-.7-1.872l.032-.073c.322-.71 1.163-1.024 1.873-.7.713.323 1.026 1.163.704 1.874l-.034.072c-.24.52-.752.83-1.29.83zm1.415-3.588c-.15 0-.3-.024-.45-.074-.74-.248-1.142-1.05-.892-1.793l.02-.064c.245-.744 1.046-1.147 1.788-.904.748.246 1.15 1.047.905 1.787l-.028.08c-.196.59-.748.964-1.34.964zm1.02-3.72c-.103 0-.206-.01-.31-.033-.764-.17-1.244-.926-1.072-1.69l.013-.063c.166-.76.916-1.25 1.683-1.084.76.166 1.25.916 1.084 1.68l-.02.09c-.148.654-.732 1.104-1.38 1.104zm.615-3.805c-.05 0-.103-.002-.156-.01-.776-.088-1.335-.786-1.25-1.562l.01-.07c.082-.777.774-1.342 1.556-1.26.775.082 1.34.78 1.26 1.56l-.01.085c-.082.722-.698 1.257-1.41 1.257zm-29.385 26.686c-.646 0-1.23-.444-1.38-1.102-.172-.762.304-1.52 1.067-1.693l.092-.02c.766-.165 1.518.318 1.684 1.083.164.767-.322 1.52-1.086 1.683l-.062.01c-.104.022-.212.035-.315.035zm3.713-1.045c-.578 0-1.125-.36-1.332-.938-.266-.734.12-1.547.854-1.81l.088-.03c.737-.26 1.544.134 1.802.87.256.74-.135 1.546-.87 1.804l-.064.02c-.16.055-.32.08-.478.08zm3.554-1.497c-.52 0-1.02-.287-1.27-.787-.35-.7-.062-1.55.64-1.9l.066-.03c.698-.35 1.55-.068 1.896.632.353.7.068 1.55-.63 1.898l-.074.038c-.2.1-.416.145-.628.145zm3.342-1.92c-.458 0-.91-.225-1.182-.634-.433-.65-.254-1.53.398-1.962l.062-.042c.654-.434 1.533-.254 1.964.396.432.652.253 1.53-.4 1.96l-.063.047c-.24.16-.51.24-.78.24zm3.08-2.318c-.397 0-.79-.164-1.068-.488-.515-.59-.45-1.482.14-1.995l.042-.036c.594-.516 1.498-.457 2.008.135.51.592.453 1.477-.14 1.986l-.056.05c-.268.23-.6.345-.927.345zm2.774-2.678c-.344 0-.686-.123-.957-.373-.572-.53-.61-1.426-.08-2l.05-.053c.526-.578 1.42-.62 2-.094.577.527.616 1.422.09 2l-.056.063c-.28.304-.66.457-1.042.457zm2.425-2.996c-.287 0-.578-.088-.828-.27-.635-.46-.775-1.344-.316-1.98l.033-.05c.45-.637 1.335-.79 1.973-.338.638.45.788 1.334.337 1.975l-.056.078c-.277.386-.71.59-1.148.59zm2.04-3.272c-.23 0-.46-.058-.675-.174-.687-.374-.938-1.233-.563-1.92l.032-.063c.37-.688 1.23-.945 1.92-.572.688.37.94 1.23.572 1.918l-.045.078c-.255.468-.742.737-1.244.737zm1.627-3.5c-.173 0-.35-.03-.52-.1-.728-.284-1.085-1.11-.797-1.833l.024-.07c.28-.73 1.103-1.09 1.83-.81.73.282 1.09 1.103.81 1.83l-.032.08c-.218.56-.75.9-1.314.9zm1.178-3.672c-.115 0-.23-.017-.35-.045-.755-.192-1.216-.962-1.022-1.72l.02-.074c.19-.76.96-1.213 1.72-1.022.758.19 1.216.96 1.023 1.72l-.02.076c-.165.64-.74 1.07-1.375 1.07zm.716-3.79c-.057 0-.115-.003-.176-.012-.773-.096-1.327-.803-1.23-1.577l.01-.075c.098-.773.804-1.328 1.578-1.23.775.097 1.326.8 1.23 1.578l-.01.08c-.088.716-.7 1.24-1.402 1.24zm-24.438 21.643c-.63 0-1.213-.416-1.38-1.05-.2-.757.234-1.526.99-1.728l.074-.017c.756-.2 1.532.248 1.73 1.002.202.754-.245 1.53-1.003 1.73l-.047.014c-.118.033-.242.05-.364.05zm3.63-1.228c-.55 0-1.067-.317-1.3-.85-.314-.718.014-1.552.73-1.863l.09-.037c.72-.304 1.55.035 1.852.754.304.72-.034 1.55-.756 1.85l-.057.022c-.18.083-.372.12-.56.12zm3.428-1.755c-.474 0-.937-.238-1.204-.67-.41-.664-.207-1.535.457-1.947l.066-.04c.67-.407 1.545-.196 1.95.472.405.668.198 1.533-.47 1.94l-.013.006-.043.03c-.23.146-.487.214-.743.214zm3.14-2.235c-.408 0-.815-.178-1.096-.52-.496-.605-.406-1.497.198-1.99l.048-.04c.598-.502 1.49-.426 1.994.174.5.6.424 1.49-.176 1.99l-.074.063c-.262.214-.58.32-.894.32zm2.78-2.668c-.34 0-.683-.122-.953-.37-.573-.527-.612-1.422-.09-2l.046-.046c.52-.58 1.414-.63 1.998-.112.584.52.635 1.416.114 2l-.062.07c-.28.307-.662.462-1.047.462zm2.37-3.043c-.27 0-.54-.075-.78-.233-.65-.43-.83-1.305-.4-1.96l.05-.07c.434-.65 1.312-.825 1.962-.39s.825 1.312.39 1.963l-.04.06c-.273.41-.723.635-1.183.635zm1.898-3.357c-.205 0-.414-.045-.61-.14-.706-.34-1.002-1.185-.663-1.89l.02-.06c.333-.708 1.177-1.013 1.886-.682.707.33 1.01 1.173.68 1.88l-.04.088c-.242.51-.75.804-1.278.804zm1.39-3.617c-.136 0-.27-.018-.403-.057-.75-.228-1.18-1.004-.95-1.75l.01-.03.01-.042c.226-.744 1.012-1.172 1.762-.95.75.227 1.173 1.015.95 1.765l-.016.053c-.188.615-.758 1.016-1.368 1.016zm.85-3.743c-.07 0-.14-.007-.21-.017-.773-.114-1.307-.836-1.19-1.608l.012-.076c.112-.772.832-1.306 1.606-1.192.772.112 1.308.832 1.193 1.606l-.013.08c-.104.7-.71 1.207-1.398 1.207zm-19.54 16.555c-.593 0-1.146-.375-1.343-.97-.25-.74.15-1.542.89-1.79l.092-.028c.746-.238 1.543.174 1.78.92.236.742-.173 1.54-.917 1.777l-.06.02c-.147.05-.3.075-.446.075zm3.548-1.504c-.5 0-.985-.267-1.243-.737-.375-.683-.123-1.54.563-1.92l.08-.04c.69-.366 1.548-.107 1.916.583.368.69.106 1.548-.583 1.915l-.057.03c-.215.118-.448.174-.677.174zm3.22-2.116c-.414 0-.823-.18-1.105-.525-.49-.61-.395-1.502.215-1.99l.05-.04c.614-.487 1.513-.394 2 .22.484.61.395 1.493-.218 1.98l-.02.015-.036.03c-.26.207-.574.31-.887.31zm2.794-2.655c-.33 0-.66-.113-.928-.348-.592-.516-.653-1.41-.142-2l.06-.067c.518-.585 1.412-.642 1.998-.124.586.517.642 1.41.125 1.997l-.045.05c-.28.324-.673.487-1.068.487zm2.28-3.113c-.248 0-.5-.066-.727-.203-.67-.4-.89-1.264-.486-1.934l.04-.062c.4-.67 1.27-.892 1.94-.49.673.398.895 1.27.494 1.94l-.037.062c-.266.444-.74.692-1.22.692zm1.686-3.462c-.165 0-.334-.03-.498-.09-.73-.277-1.103-1.093-.827-1.826l.03-.07c.272-.73 1.09-1.102 1.82-.827.732.27 1.104 1.09.827 1.82l-.027.072c-.213.57-.752.917-1.325.917zm1.037-3.722c-.083 0-.167-.01-.253-.023-.768-.142-1.28-.867-1.14-1.636l.013-.07c.14-.77.873-1.28 1.644-1.144.775.14 1.285.875 1.15 1.645l-.014.06c-.123.685-.724 1.17-1.396 1.17zm-14.632 11.363c-.562 0-1.09-.332-1.312-.885-.293-.724.057-1.55.78-1.842l.036-.02c.714-.31 1.55.02 1.86.734s-.017 1.55-.73 1.86l-.108.047c-.173.074-.352.106-.53.106zm3.34-1.913c-.43 0-.857-.197-1.135-.57-.467-.627-.338-1.514.29-1.98l.063-.047c.625-.466 1.514-.338 1.98.29.467.627.337 1.515-.292 1.98l-.06.046c-.25.184-.55.28-.84.28zm2.815-2.644c-.32 0-.643-.106-.906-.33-.596-.502-.682-1.388-.18-1.985l.047-.05c.506-.6 1.4-.685 1.998-.18.6.497.682 1.39.182 1.99l-.04.05c-.285.33-.69.508-1.098.508zm2.13-3.194c-.22 0-.438-.052-.646-.158-.693-.355-.97-1.21-.61-1.906l.025-.057c.35-.693 1.195-.98 1.895-.63s.982 1.2.633 1.9l-.043.083c-.248.49-.745.773-1.258.773zm1.334-3.63c-.107 0-.217-.01-.323-.04-.76-.18-1.23-.93-1.05-1.69l.018-.07c.182-.76.94-1.23 1.702-1.055.76.18 1.232.94 1.054 1.7l-.013.06c-.155.65-.742 1.097-1.384 1.097zM188.712 20.48h1.07V127h-1.07zm-51.36 52.725h103.73v1.07h-103.73z"/><path opacity=".3" fill="#7F7F7F" enable-background="new" d="M179 13.625h20.92v3.548H179zm-1.56 116.202h24.038v3.548H177.44zm67.017-66.343h3.548v20.918h-3.548z"/><path opacity=".3" fill="#CECECE" enable-background="new" d="M130.028 61.506h3.548V86.38h-3.548z"/><path fill="#FABC02" d="M113.707 52.324c5.847-4.784 11.793-9.574 16.516-15.41-8.417-10.243-20.262-17.57-33.765-20.206-1.39 7.433-3.988 14.552-6.082 21.81 9.497 1.36 17.793 6.484 23.33 13.806z"/><path fill="#FD5308" d="M118.093 87.59c7.072 2.532 14.055 5.295 20.995 8.17 2.79-6.792 4.334-14.226 4.334-22.014 0-8.12-1.675-15.853-4.695-22.876-.86.42-1.732.823-2.605 1.22-3.146 1.423-6.27 2.895-9.382 4.39-2.8 1.347-5.587 2.717-8.38 4.076 1.633 4.082 2.538 8.532 2.538 13.19-.002 4.906-1 9.587-2.805 13.845z"/><path fill="#0392CE" d="M52.217 60.636c-4.358-3.55-10.063-4.977-15.456-6.25-1.9-.448-3.83-.877-5.75-1.36-2.463 6.438-3.82 13.423-3.82 20.72 0 7.143 1.3 13.986 3.668 20.312 2.507-1.472 5.086-2.813 7.75-3.975 2.9-1.264 5.866-2.393 8.924-3.213 1.42-.38 2.855-.73 4.277-1.12-1.35-3.75-2.09-7.793-2.09-12.005 0-4.626.887-9.05 2.5-13.11z"/><path fill="#D0EA2B" d="M57.883 51.092c4.7-5.682 11.127-9.887 18.47-11.796-1.16-7.467-2.038-14.973-2.62-22.507-13.955 2.83-26.11 10.674-34.498 21.57 6.35 4.04 12.564 8.292 18.648 12.73z"/><path fill="#3D01A4" d="M57.45 95.87c-.673.69-1.322 1.405-1.965 2.114-1.87 2.058-3.817 4-5.822 5.926-2.74 2.63-5.52 5.236-8.49 7.604 8.546 9.973 20.405 17.03 33.856 19.438.853-7.498 1.503-15.054 3.853-22.196-8.63-1.58-16.18-6.28-21.437-12.885z"/><path fill="#A7194B" d="M114.49 94.087c-5.64 8.067-14.534 13.7-24.76 14.978.308 7.504 1.103 14.992 2.326 22.406 15.073-1.75 28.404-9.29 37.706-20.334-5.622-5.102-10.31-11.257-15.273-17.046z"/><path fill="#FEFE33" d="M85.306 15.63c-5.43 0-10.686.754-15.676 2.154.015.31.032.62.054.928.31 1.756.823 3.48 1.377 5.18.37 1.124.726 2.248 1.08 3.374.28.85.55 1.707.81 2.575l.66 2.126c.776 2.482 1.54 4.97 2.308 7.454 2.993-.82 6.14-1.26 9.39-1.26 3.225 0 6.35.43 9.32 1.24.228-.848.46-1.693.69-2.538 1.037-5.554 2.762-10.956 4.344-16.405.095-.988.154-1.982.164-2.982-4.643-1.2-9.506-1.842-14.517-1.842z"/><path fill="#FB9902" d="M125.162 63.762c5.35-1.906 10.82-3.466 16.287-5.03-2.73-10.185-8.16-19.275-15.47-26.45-.03 0-.06-.007-.09-.01-2.094 1.638-3.99 3.512-5.865 5.397-2.276 2.29-4.63 4.475-7.008 6.664-1.19 1.094-2.373 2.197-3.548 3.308 4.95 4.586 8.596 10.56 10.316 17.295 1.792-.385 3.58-.78 5.37-1.18z"/><path fill="#66B032" d="M37.11 61.84c3.148.676 6.298 1.326 9.468 1.896 1.453.26 2.906.518 4.358.78 1.633-6.072 4.83-11.508 9.14-15.842-4.91-5.702-10.094-11.172-15.96-15.88-7.198 7.237-12.492 16.36-15.1 26.544 2.542 1.29 5.317 1.905 8.094 2.502z"/><path fill="#FE2712" d="M125.53 115.648c7.72-7.416 13.406-16.937 16.117-27.63-2.656-.632-5.317-1.232-7.99-1.788-3.078-.64-6.165-1.254-9.273-1.723-1.65-.248-3.278-.52-4.858-.967-1.686 5.88-4.856 11.14-9.07 15.354 4.912 5.686 10.005 11.21 15.073 16.754z"/><path fill="#0247FE" d="M44.62 114.557c1.43-1.256 2.648-2.86 3.97-4.246 2.95-3.082 5.99-6.08 9.094-9.01.834-.787 1.673-1.572 2.513-2.354-4.428-4.41-7.704-9.98-9.33-16.207-.967.187-1.933.38-2.897.577-3.59.744-7.156 1.535-10.614 2.767-2.71.966-5.404 2.003-8.222 2.585 2.674 10.06 7.985 19.053 15.144 26.197.116-.107.23-.21.34-.306z"/><path fill="#8601AF" d="M94.465 108.14c-2.923.78-5.993 1.197-9.16 1.197-3.36 0-6.61-.476-9.693-1.35-1.297 7.42-3.97 14.48-6.127 21.682 5.032 1.423 10.338 2.19 15.82 2.19 5.33 0 10.492-.72 15.398-2.07-2.71-6.98-4.168-14.488-6.238-21.65z"/></svg>