<svg xmlns="http://www.w3.org/2000/svg" width="275" height="150" viewBox="-1.5 -56.5 275 150" enable-background="new -1.5 -56.5 275 150"><g><path fill="#F2F2F2" d="M-2.394-58.333h277.4v152.04h-277.4z"/><path fill="#fff" d="M142.975-57.327l-5.89 42.682-1.202-2.274-4.57-40.247-4.088-.363 3.04 40.983h-1.762l-12.963-40.78h-4.154l11.41 41.408-2.726-.932-21.65-40.475h-5.16l21.397 41.283h-4.28L73.5-58.334h-5.412l35.744 42.04-8.054-.57L39.896-56.82H34.86l57.815 43.547.917 6.446-95.986-43.764-.755 2.613L94.187-.277l.395 4.407-96.974-24.07-.755 1.76L95.074 9.64l.04 3.28S-2.897 5.603-2.897 5.98v2.643l98.48 9.565.11 2.64-98.59 10.45v2.516l99.24-7.052L96.42 29-2.897 57.21v2.766L97.017 34.28l.187 3.508-100.1 49.502v2.392l100.72-46.358.51 4.557-59.95 46.33h5.54l55.12-39.747.54 6.162L70.605 94.21h6.543l23.172-25.425 4.654 5.175-9.954 20.25h5.286l10.018-18.895 6.03 1.802-4.72 17.093h5.287l5.248-15.606 6.206 2.644-1.385 12.963h4.533l1.758-12.52 7.174-.315.885 14.16 4.28-1.826V80.616l6.083-2.31 5.37 15.902h5.158l-5.663-16.863 6.868-2.344s9.244 19.648 9.746 19.648c.504 0 5.542-.154 5.542-.154l-10.07-21.036 4.19-4.938 24.002 25.688h6.167l-29.525-33.015.63-6.85L229.19 94.21h7.048l-60.916-47.326-.45-4.082 99.124 45.492v-3.146L175.55 36.53l.008-2.212 98.438 24.902v-3.272l-97.753-27.194.304-2.667 97.924 7.586.643-2.647-97.984-10.84-.072-1.996 96.94-9.188V6.108l-96.263 5.963.283-2.45 97.08-26.863-.61-2.326-95.912 23.526.315-4.164 96.115-45.917v-2.643L179.425-6.85l.99-5.545 59.192-44.932-4.892-.63-58.774 41.41-5.153-.694 34.238-40.086-5.285-.534-35.67 40.81h-4.354l20.76-39.772h-5.153L154.52-17.05h-3.36l12.333-39.772H157.7L145.366-17.05H143.1l3.732-40.653-3.857.376z"/></g><path fill="#fff" d="M138.46 62l-1.922 1.32-1.413-1.32-.167-10.432 1.58.315 1.498-.404zM133.75 23.325h5.875V34.32h-5.875zM131.875 1.08h7.25v10.992h-7.25z"/><g><path fill="#E44D26" d="M100.666 72.38l-7.99-89.622h87.802l-7.997 89.61-35.958 9.97z"/><path fill="#F16529" d="M136.576 74.717l29.057-8.052 6.833-76.578h-35.89z"/><path fill="#EBEBEB" d="M136.576 23.325H122.03l-1.002-11.253h15.548V1.08h-27.561l.263 2.95 2.7 30.29h24.598zM136.576 51.875l-.048.017-12.24-3.31-.785-8.77H112.47l1.54 17.26 22.516 6.252.05-.012z"/><path d="M100.845-41.596h5.585v5.52h5.11v-5.52h5.587v16.712h-5.587v-5.597h-5.108v5.596h-5.587v-16.712zM124.472-36.055h-4.917v-5.54h15.425v5.54h-4.92v11.17h-5.586l-.002-11.17zM137.426-41.596h5.828l3.58 5.872 3.58-5.872h5.827v16.712h-5.564v-8.284l-3.843 5.942h-.096l-3.847-5.942v8.284h-5.465v-16.712zM159.02-41.596h5.585v11.188h7.86v5.525H159.02v-16.713z"/><path fill="#fff" d="M136.538 23.325V34.32h13.536l-1.28 14.254-12.256 3.31V63.32l22.533-6.247.168-1.857 2.584-28.937.267-2.955h-2.963zM136.538 1.08V12.072h26.552l.222-2.472.5-5.57.258-2.95z"/></g></svg>