<svg xmlns="http://www.w3.org/2000/svg" width="275" height="150" viewBox="0 0 275 150"><path fill="#62BC46" d="M-.5 0h277.167v150.5H-.5z"/><linearGradient id="a" gradientUnits="userSpaceOnUse" x1="180.965" y1="52.79" x2="180.965" y2="129.762"><stop offset="0" stop-color="#448E28"/><stop offset=".414" stop-color="#428A26"/><stop offset=".857" stop-color="#3A7D1F"/><stop offset="1" stop-color="#37771C"/></linearGradient><path fill="url(#a)" d="M120.322 52.79l123.092 3.852-1.35 73.12-123.55-2.72z"/><linearGradient id="b" gradientUnits="userSpaceOnUse" x1="182.541" y1="36.745" x2="182.541" y2="136.256"><stop offset="0" stop-color="#fff"/><stop offset=".451" stop-color="#FDFDFD"/><stop offset=".716" stop-color="#F4F4F4"/><stop offset=".933" stop-color="#E6E6E6"/><stop offset="1" stop-color="#E0E0E0"/></linearGradient><path fill="url(#b)" d="M114.25 64.398l116.012-27.653 20.57 68.46-117.794 31.05z"/><linearGradient id="c" gradientUnits="userSpaceOnUse" x1="184.394" y1="63.667" x2="184.394" y2="106.824"><stop offset="0" stop-color="#79D357"/><stop offset=".504" stop-color="#77D155"/><stop offset=".788" stop-color="#6EC84F"/><stop offset="1" stop-color="#62BC46"/></linearGradient><path fill="url(#c)" d="M162.973 90.145s3.883-16.43 21.42-16.43c0 0-1.334-3.638 3.412-6.25 0 0 2.098 3.514-1.783 6.388 0 0 7.033.43 11.27 7.57 4.24 7.14-.49 14.484-3.742 16.623-3.252 2.14-7.317 2.864-10.62.584s-2.76-5.983-1.865-7.298c.608-.896 1.154-1.162 1.646-1.014.608.183.73.818.726 2.064-.002 1.24 1.203 3.602 3.8 3.78 2.6.18 6.426-2.46 6.36-6.032-.064-3.572-2.214-8.05-7.992-8.102-5.775-.05-11.085 3.785-12.28 9.684-1.193 5.898 3.457 14.633 10.974 15.06 7.517.423 10.685-1.876 12.127-2.91 1.443-1.035 6.3-4.34 8.645-11.107 2.345-6.77 1.083-13.468-1.98-18.573-3.06-5.104-9.464-10.105-17.907-10.494-8.444-.388-15.483 4.645-18.48 8.986-3.005 4.34-5.18 9.817-3.727 17.47z"/><path fill="#F4F4F4" d="M69.193-6.29c-9.38-.587-18.77-.972-28.167-1.067-8.18-.082-16.357.41-24.526.357-5.114-.032-10.916-.958-15.934.286C-10.108-4.068-7.982 10.592-7.46 18.96c.367 5.854.986 11.715 1.076 17.582.098 6.427-.81 12.826-1.024 19.25-.54 16.277.35 32.524 1.358 48.77.528 8.49 1.082 16.983 1.406 25.486.21 5.476-.407 11.063.11 16.517.944 9.994 14.827 10.62 22.5 10.975 11.413.527 22.584.386 33.765 2.868L110.178 11.41l-40.98-17.7z"/><linearGradient id="d" gradientUnits="userSpaceOnUse" x1="72.057" y1="10.844" x2="72.057" y2="44.273"><stop offset="0" stop-color="#79D357"/><stop offset=".504" stop-color="#77D155"/><stop offset=".788" stop-color="#6EC84F"/><stop offset="1" stop-color="#62BC46"/></linearGradient><path fill="url(#d)" d="M56.02 20.854s9.73-8.475 20.624-.662c0 0 .792-2.854 4.903-2.36 0 0-.263 3.116-3.953 3.172 0 0 4.177 3.4 3.63 9.723-.55 6.323-6.76 8.777-9.732 8.657-2.973-.12-5.82-1.48-6.856-4.37-1.035-2.887.952-4.944 2.092-5.363.778-.28 1.235-.203 1.474.108.294.383.085.832-.472 1.604-.554.77-.856 2.77.677 4.04 1.534 1.27 5.085 1.335 6.637-.913 1.552-2.25 2.21-5.987-1.355-8.593-3.57-2.605-8.575-2.588-11.945.542-3.37 3.13-4.372 10.627.107 14.24 4.48 3.612 7.47 3.596 8.828 3.595s5.847.11 10.318-3.048c4.47-3.16 6.672-7.882 7.043-12.417.375-4.534-1.374-10.493-6.445-14.496-5.072-4-11.686-4.01-15.48-2.65-3.798 1.36-7.59 3.795-10.096 9.195z"/></svg>