<?xml version="1.0" encoding="utf-8"?>
<!-- Generator: Adobe Illustrator 18.1.1, SVG Export Plug-In . SVG Version: 6.00 Build 0)  -->
<svg version="1.1" id="Layer_1" xmlns="http://www.w3.org/2000/svg" xmlns:xlink="http://www.w3.org/1999/xlink" x="0px" y="0px"
	 viewBox="-162 83 275 150" enable-background="new -162 83 275 150" xml:space="preserve">
<path fill="#F2F2F2" d="M-162,83h275v150h-275V83z"/>
<rect x="-162" y="83" fill="#1E1E1E" width="275" height="19"/>
<rect x="-162" y="102" fill="#444444" width="58.7" height="131"/>
<rect x="-98.7" y="107" fill="#B5D6EE" width="206" height="16.7"/>
<rect x="-98.7" y="107" fill="#7EB66D" width="47.4" height="16.7"/>
<rect x="-98.7" y="128.3" fill="#FFFFFF" width="206" height="60.7"/>
<rect x="-98.7" y="195.8" fill="#FFFFFF" width="206" height="37.2"/>
<polygon fill="#DBEEFE" points="-98.7,181.7 -80.4,162 -67,163.7 -51.1,150.3 -40.2,143.3 -20.7,177.3 4.9,176.3 22,147.3 
	34.2,145.7 48.8,154 66.5,154.3 83.2,176.7 107.3,176 107.3,189 -98.7,189 "/>
<polygon fill="#C5DEEF" points="-98.7,181.6 -98.7,181.6 -80.6,161.6 -67.1,163.2 -51.5,150.1 -40,142.7 -20.4,176.9 4.7,175.9 
	21.7,147 34.3,145.2 49,153.6 66.7,153.9 83.4,176.3 107.3,175.6 107.3,176.6 82.9,177.3 66.2,154.9 48.7,154.6 34.1,146.3 
	22.3,147.9 5.2,176.9 -20.9,177.9 -40.3,144.1 -50.9,150.9 -66.8,164.3 -80.2,162.6 -97.7,182 -98.7,183.1 "/>
<circle fill="#C5DEEF" cx="62.4" cy="134.4" r="2.4"/>
<circle fill="#EFD692" cx="77" cy="134.4" r="2.4"/>
<circle fill="#E18B83" cx="91.6" cy="134.4" r="2.4"/>
<rect x="66" y="133.8" fill="#E2E2E2" width="7.5" height="1.2"/>
<rect x="80.6" y="133.8" fill="#E2E2E2" width="7.5" height="1.2"/>
<rect x="95.2" y="133.8" fill="#E2E2E2" width="7.5" height="1.2"/>
<rect x="-98.7" y="204.8" fill="#D8D8D8" width="206" height="1"/>
<rect x="-98.7" y="214.8" fill="#D8D8D8" width="206" height="1"/>
<rect x="-98.7" y="224.8" fill="#D8D8D8" width="206" height="1"/>
</svg>
