<svg xmlns="http://www.w3.org/2000/svg" width="650" height="160" viewBox="-189.213 -61.5 650 160" enable-background="new -189.213 -61.5 650 160"><path d="M-185.93-56.02l-2.79-.345v-2.127h11.487v2.127l-4.06.365 6.722 22.093c.214.7.43 1.395.645 2.08.215.69.437 1.383.665 2.086l1.332-3.91 4.552-18.507-1.203-3.863-3.477-.344v-2.127h11.7v2.126l-3.734.344 5.837 22.544 1.053 4.1 1.095-4.917 5.604-21.728-3.717-.345v-2.127h10.392v2.127l-3.178.344-9.168 31.303h-3.458l-6.164-21.793-6.096 21.793h-3.522l-10.52-31.304zM-145.396-37.085c0-1.832.29-3.52.87-5.067.58-1.546 1.388-2.884 2.426-4.016 1.038-1.13 2.288-2.02 3.748-2.673 1.46-.65 3.07-1 4.83-1.04 1.26-.03 2.397.15 3.415.545 1.015.395 1.882.977 2.597 1.75.715.77 1.277 1.717 1.686 2.833.41 1.116.642 2.385.7 3.803.026.902.01 1.683-.056 2.34-.063.66-.133 1.246-.202 1.76h-15.91v.248c0 .08.005.16.02.247.057 1.732.35 3.165.88 4.294.53 1.13 1.192 2.03 1.986 2.694.795.667 1.67 1.13 2.63 1.395.96.265 1.896.396 2.812.396.56 0 1.146-.032 1.762-.097.616-.064 1.213-.157 1.792-.28.58-.122 1.116-.26 1.61-.417s.893-.323 1.192-.494l.793 1.824c-.416.37-.954.707-1.62 1.01-.666.298-1.392.554-2.18.76-.788.21-1.61.366-2.47.474-.86.107-1.696.162-2.513.162-1.73 0-3.267-.297-4.604-.893-1.338-.593-2.465-1.43-3.383-2.513-.916-1.08-1.612-2.386-2.093-3.918-.477-1.53-.718-3.24-.718-5.13zm15.888-2.298c.044-.73.055-1.462.034-2.2-.02-.737-.112-1.438-.27-2.105-.158-.665-.397-1.272-.72-1.823-.32-.55-.755-1-1.298-1.343-.374-.245-.795-.426-1.268-.55-.473-.12-1.01-.183-1.61-.183-.802 0-1.58.15-2.33.452-.75.3-1.424.78-2.02 1.437-.593.66-1.09 1.51-1.492 2.545-.4 1.038-.66 2.294-.772 3.77h11.746zM-111.142-26.974l2.92-.473v-17.455l-3.05-1.673v-1.332l5.713-1.696.967.43v3.07c.473-.415 1.044-.826 1.718-1.233.673-.407 1.393-.776 2.156-1.105.767-.33 1.552-.598 2.354-.807.802-.207 1.566-.325 2.298-.353 1.545-.057 2.794.146 3.746.61.952.466 1.692 1.28 2.222 2.438.517-.386 1.125-.758 1.825-1.117.703-.357 1.44-.676 2.21-.955.775-.28 1.554-.504 2.34-.675.79-.173 1.527-.272 2.215-.302 1.33-.042 2.454.123 3.37.494.916.374 1.652.973 2.21 1.804.56.83.96 1.903 1.204 3.22.243 1.32.365 2.9.365 4.746v11.916l3.626.452v1.825h-10.67v-1.825l2.92-.452v-11.165c0-1.376-.064-2.566-.193-3.575-.13-1.01-.384-1.84-.764-2.492-.38-.65-.906-1.127-1.577-1.426-.673-.302-1.553-.43-2.642-.39-.974.045-1.94.227-2.898.55-.958.32-1.903.75-2.833 1.277.157.688.277 1.47.364 2.35.086.883.13 1.794.13 2.74V-27.4l3.285.427v1.828h-10.63v-1.825l3.222-.473V-38.93c0-1.36-.07-2.527-.205-3.5-.135-.975-.397-1.768-.783-2.384-.388-.616-.92-1.055-1.602-1.32-.68-.265-1.563-.377-2.65-.332-.772.042-1.656.24-2.652.59-.994.35-2.036.9-3.123 1.643v3.93c0 2.162-.006 4.31-.02 6.44-.016 2.134-.016 4.28 0 6.44l3.198.453v1.825h-10.287v-1.83zM-68.485-32.06c.1-1 .422-1.88.967-2.63.544-.75 1.215-1.4 2.02-1.943.8-.544 1.69-.994 2.673-1.353.98-.358 1.964-.646 2.95-.86.988-.212 1.94-.364 2.857-.45.916-.085 1.71-.13 2.382-.13v-1.867c0-1.13-.15-2.05-.45-2.76-.302-.707-.717-1.262-1.247-1.663-.53-.4-1.152-.673-1.867-.814-.715-.144-1.488-.215-2.317-.215-.418 0-.882.04-1.397.118-.515.078-1.047.19-1.6.332-.55.146-1.105.314-1.663.517-.56.2-1.09.422-1.59.665l-.795-1.933c.53-.428 1.178-.806 1.944-1.126.766-.323 1.553-.59 2.36-.806s1.596-.372 2.362-.473c.766-.1 1.42-.15 1.965-.15 1.13 0 2.206.117 3.23.353s1.92.652 2.694 1.245c.772.595 1.384 1.395 1.835 2.403.45 1.012.677 2.295.677 3.856l-.044 14.77h2.75v1.417c-.502.272-1.12.494-1.857.667-.74.17-1.48.257-2.224.257-.257 0-.536-.02-.835-.055-.302-.036-.58-.125-.827-.268-.25-.144-.458-.365-.623-.665-.165-.303-.247-.716-.247-1.246v-.604c-.33.4-.72.774-1.17 1.116-.45.344-.967.646-1.545.903-.58.254-1.24.457-1.977.6-.736.142-1.558.215-2.458.215-1.116 0-2.13-.203-3.037-.604-.91-.398-1.67-.938-2.277-1.62-.607-.68-1.06-1.466-1.353-2.36-.293-.89-.382-1.84-.268-2.84zm4.165.085c0 .844.114 1.56.344 2.146.228.588.56 1.063.998 1.43.437.363.968.63 1.6.793.63.165 1.337.247 2.127.247.427 0 .864-.057 1.307-.17.445-.115.87-.26 1.28-.432.406-.173.786-.37 1.136-.59.35-.223.633-.44.85-.655 0-1.346.003-2.68.01-4.005.007-1.323.018-2.66.033-4.005-.604 0-1.262.034-1.977.097-.716.065-1.432.177-2.147.333-.715.158-1.41.365-2.083.623-.673.257-1.27.584-1.78.977-.518.395-.93.857-1.235 1.386-.31.53-.465 1.138-.465 1.825zM-45.968-26.974l3.522-.473v-29.048l-3.866-.772v-1.87l7.128-.9.86.493v19.28l-.106 3.31 9.555-9.857-3.244-.3v-2.277h10.136v2.277l-3.264.344-7.3 7.343 9.083 12.002 2.92.45v1.824H-30.96v-1.825l2.985-.495-7.065-9.9-3.412 3.394.13 4.165v2.406l3.09.43v1.824h-10.736v-1.828zM-20.015-37.085c0-1.832.29-3.52.87-5.067.578-1.546 1.386-2.884 2.426-4.016 1.037-1.13 2.287-2.02 3.747-2.673 1.46-.65 3.07-1 4.83-1.04 1.26-.03 2.4.15 3.415.545 1.017.395 1.882.977 2.6 1.75.715.77 1.276 1.717 1.686 2.833.407 1.116.64 2.385.696 3.803.027.902.01 1.683-.053 2.34-.064.66-.132 1.246-.204 1.76h-15.91v.248c0 .08.007.16.02.247.057 1.732.35 3.165.88 4.294.53 1.13 1.192 2.03 1.986 2.694.795.667 1.67 1.13 2.63 1.395.96.265 1.896.396 2.813.396.557 0 1.144-.032 1.76-.097.616-.064 1.213-.157 1.793-.28.578-.122 1.116-.26 1.61-.417.494-.158.89-.323 1.19-.494l.795 1.824c-.416.37-.956.707-1.62 1.01-.668.298-1.394.554-2.18.76-.79.21-1.61.366-2.472.474-.858.107-1.693.162-2.51.162-1.732 0-3.27-.297-4.606-.893-1.338-.593-2.465-1.43-3.38-2.513-.917-1.08-1.615-2.386-2.094-3.918-.477-1.53-.715-3.24-.715-5.13zm15.887-2.298c.044-.73.055-1.462.032-2.2-.02-.737-.11-1.438-.268-2.105-.158-.665-.396-1.272-.72-1.823-.32-.55-.755-1-1.3-1.343-.37-.245-.793-.426-1.266-.55-.473-.12-1.01-.183-1.61-.183-.802 0-1.578.15-2.33.452-.75.3-1.424.78-2.02 1.437-.595.66-1.09 1.51-1.492 2.545-.4 1.038-.658 2.294-.772 3.77h11.746zM-186.465 83.957l4.315-.473V64.657h-4.722V63.02l4.725-1.267v-1.78c0-1.06.13-2.06.396-2.997.263-.937.622-1.79 1.07-2.565.452-.768.976-1.46 1.57-2.067.592-.607 1.214-1.123 1.866-1.536.65-.414 1.312-.734 1.986-.954.673-.224 1.31-.333 1.912-.333.973 0 1.688.042 2.146.13.458.085.766.16.922.237v3.646c-.2-.114-.646-.254-1.342-.423-.694-.16-1.555-.244-2.587-.244-.586 0-1.112.05-1.58.15-.463.103-.864.33-1.2.697-.337.367-.595.9-.772 1.608-.18.71-.27 1.672-.27 2.892v3.54h6.485v2.9h-6.484v18.873l4.94.43v1.828h-13.375v-1.826zM-169.875 73.284c.03-1.916.36-3.63.998-5.14s1.48-2.786 2.524-3.833 2.25-1.848 3.617-2.404c1.367-.558 2.794-.845 4.284-.857 1.82-.014 3.4.3 4.746.944 1.344.646 2.458 1.528 3.338 2.65.88 1.123 1.536 2.444 1.964 3.963.43 1.516.637 3.14.623 4.87-.016 1.908-.32 3.646-.913 5.22-.595 1.575-1.395 2.926-2.406 4.05-1.007 1.12-2.187 1.995-3.54 2.615-1.354.625-2.803.937-4.348.937-1.975 0-3.66-.36-5.045-1.072-1.39-.718-2.52-1.676-3.393-2.88-.874-1.2-1.506-2.59-1.9-4.15-.395-1.572-.577-3.21-.55-4.914zm11.08 10.61c1.215.025 2.243-.182 3.08-.625.84-.443 1.518-1.098 2.04-1.967.523-.86.903-1.934 1.14-3.216.236-1.283.354-2.752.354-4.415 0-1.443-.128-2.794-.38-4.047-.248-1.254-.643-2.343-1.18-3.275-.537-.933-1.216-1.662-2.04-2.198-.823-.54-1.8-.82-2.93-.85-1.22-.016-2.253.2-3.103.63-.853.438-1.55 1.08-2.093 1.925-.544.844-.94 1.873-1.192 3.093-.25 1.216-.375 2.596-.375 4.14 0 1.394.137 2.73.407 4.02.272 1.29.68 2.43 1.224 3.426.544.996 1.235 1.798 2.072 2.4.84.612 1.83.928 2.975.958zM-144.396 83.957l3.478-.452V66.03l-3.05-1.677v-1.33l5.67-1.695 1.01.43v3.305c.27-.396.683-.818 1.233-1.266.55-.443 1.17-.85 1.857-1.216.686-.362 1.4-.66 2.146-.897.745-.236 1.446-.354 2.104-.354.473 0 .897.012 1.276.028.38.025.648.063.806.118v4.406c-.228-.09-.466-.178-.71-.27s-.51-.174-.803-.237c-.294-.067-.626-.118-1-.16-.37-.042-.8-.067-1.286-.067-1.158 0-2.133.147-2.92.438-.787.296-1.51.65-2.17 1.063V83.44l6.12.515v1.827h-13.76v-1.827zM-112.458 94.457V66.03l-3.05-1.677v-1.33l5.69-1.695.988.45v2.49c.3-.346.696-.704 1.19-1.084.494-.38 1.063-.73 1.708-1.042.646-.312 1.36-.574 2.148-.785.787-.203 1.623-.31 2.51-.31 1.204 0 2.37.212 3.5.63 1.13.427 2.136 1.11 3.02 2.056.88.945 1.583 2.178 2.113 3.7.53 1.528.792 3.386.792 5.57 0 1.833-.295 3.555-.89 5.167-.596 1.612-1.434 3.018-2.514 4.22-1.08 1.203-2.372 2.153-3.876 2.845-1.502.692-3.155 1.043-4.96 1.043-.8 0-1.56-.072-2.274-.207-.717-.134-1.418-.295-2.104-.48l.128 5.773v3.115l4.208.45v1.828h-11.335V94.93l3.007-.473zm4.12-12.323c.33.57.894 1.03 1.687 1.37.794.348 1.814.517 3.06.517.93 0 1.848-.185 2.75-.564.9-.38 1.708-.988 2.426-1.828.715-.835 1.298-1.916 1.75-3.24.45-1.32.69-2.93.72-4.82.027-1.802-.154-3.32-.55-4.562-.392-1.237-.92-2.246-1.588-3.014-.665-.776-1.424-1.33-2.275-1.667-.853-.338-1.728-.502-2.63-.502-.687 0-1.307.075-1.858.236-.55.15-1.046.345-1.492.572-.443.232-.833.473-1.17.734-.337.254-.62.48-.848.684l.02 8.356v7.728h-.002zM-88.74 73.845c0-1.836.29-3.52.87-5.068.58-1.545 1.388-2.882 2.426-4.014 1.038-1.13 2.288-2.02 3.746-2.67 1.46-.65 3.07-1 4.832-1.044 1.26-.03 2.397.15 3.415.544 1.014.396 1.88.98 2.596 1.75s1.277 1.72 1.686 2.837c.41 1.12.642 2.386.7 3.804.026.9.01 1.68-.056 2.338-.063.658-.133 1.245-.205 1.76h-15.907v.25c0 .075.006.16.02.244.058 1.73.35 3.165.88 4.296.53 1.132 1.19 2.026 1.987 2.693.793.666 1.67 1.13 2.63 1.393.96.27 1.896.396 2.812.396.56 0 1.146-.03 1.762-.093.614-.066 1.213-.16 1.792-.277.58-.127 1.116-.262 1.61-.423.494-.155.893-.32 1.192-.49l.793 1.824c-.415.37-.953.71-1.62 1.01-.665.3-1.393.552-2.18.763-.787.203-1.61.363-2.47.473-.858.105-1.695.16-2.512.16-1.73 0-3.267-.3-4.604-.895-1.338-.59-2.465-1.43-3.383-2.51-.915-1.082-1.613-2.386-2.092-3.918-.478-1.532-.718-3.246-.718-5.132zm15.887-2.3c.044-.726.055-1.46.034-2.198-.02-.74-.11-1.44-.27-2.106-.157-.66-.396-1.27-.72-1.822-.32-.55-.754-.996-1.3-1.342-.37-.245-.792-.422-1.265-.55-.473-.117-1.01-.18-1.61-.18-.802 0-1.58.147-2.33.45-.75.305-1.424.777-2.02 1.44-.593.653-1.09 1.506-1.492 2.544s-.66 2.292-.772 3.765h11.747zM-65.322 73.284c.028-1.916.36-3.63 1-5.14s1.476-2.786 2.52-3.833 2.25-1.848 3.62-2.404c1.367-.558 2.793-.845 4.283-.857 1.818-.014 3.398.3 4.745.944 1.346.646 2.458 1.528 3.34 2.65.88 1.123 1.534 2.444 1.965 3.963.428 1.516.635 3.14.622 4.87-.015 1.908-.318 3.646-.914 5.22-.593 1.575-1.395 2.926-2.403 4.05-1.01 1.12-2.19 1.995-3.543 2.615-1.353.625-2.802.937-4.35.937-1.974 0-3.656-.36-5.044-1.072-1.388-.718-2.52-1.676-3.393-2.88-.874-1.2-1.506-2.59-1.9-4.15-.393-1.572-.577-3.21-.547-4.914zm11.078 10.61c1.217.025 2.243-.182 3.08-.625.84-.443 1.52-1.098 2.042-1.967.52-.86.9-1.934 1.138-3.216.236-1.283.354-2.752.354-4.415 0-1.443-.125-2.794-.376-4.047-.25-1.254-.644-2.343-1.182-3.275-.536-.933-1.217-1.662-2.038-2.198-.825-.54-1.8-.82-2.93-.85-1.22-.016-2.252.2-3.105.63-.854.438-1.55 1.08-2.094 1.925-.542.844-.94 1.873-1.19 3.093-.25 1.216-.376 2.596-.376 4.14 0 1.394.135 2.73.407 4.02.272 1.29.68 2.43 1.224 3.426s1.235 1.798 2.073 2.4c.838.612 1.827.928 2.973.958zM-36.58 94.457V66.03l-3.05-1.677v-1.33l5.69-1.695.988.45v2.49c.3-.346.698-.704 1.192-1.084s1.062-.73 1.707-1.042c.644-.312 1.36-.574 2.146-.785.787-.203 1.625-.31 2.513-.31 1.2 0 2.368.212 3.5.63 1.13.427 2.136 1.11 3.016 2.056s1.585 2.178 2.115 3.7c.53 1.528.795 3.386.795 5.57 0 1.833-.298 3.555-.893 5.167-.596 1.612-1.434 3.018-2.512 4.22-1.083 1.203-2.374 2.153-3.876 2.845-1.502.692-3.157 1.043-4.96 1.043-.8 0-1.56-.072-2.275-.207s-1.416-.295-2.104-.48l.13 5.773v3.115l4.208.45v1.828h-11.337V94.93l3.007-.473zm4.123-12.323c.33.57.89 1.03 1.686 1.37.792.348 1.81.517 3.06.517.93 0 1.846-.185 2.747-.564s1.71-.988 2.427-1.828c.715-.835 1.3-1.916 1.75-3.24.45-1.32.69-2.93.72-4.82.03-1.802-.155-3.32-.547-4.562-.395-1.237-.924-2.246-1.59-3.014-.666-.776-1.424-1.33-2.276-1.667-.852-.338-1.725-.502-2.628-.502-.688 0-1.306.075-1.857.236-.55.15-1.05.345-1.492.572-.443.232-.833.473-1.17.734-.336.254-.62.48-.85.684l.022 8.356v7.728h-.002zM-12.688 83.957l3.65-.452v-29.07l-3.438-.77v-1.87l6.72-.903.86.498v32.116l3.822.456v1.823h-11.614v-1.828zM.938 73.845c0-1.836.29-3.52.87-5.068.58-1.545 1.388-2.882 2.427-4.014 1.038-1.13 2.287-2.02 3.745-2.67 1.46-.65 3.07-1 4.833-1.044 1.26-.03 2.397.15 3.414.544 1.015.396 1.88.98 2.598 1.75.715.773 1.276 1.72 1.686 2.837.41 1.12.643 2.386.7 3.804.027.9.01 1.68-.056 2.338-.063.658-.133 1.245-.205 1.76H5.04v.25c0 .075.007.16.022.244.057 1.73.35 3.165.88 4.296.53 1.132 1.19 2.026 1.985 2.693.793.666 1.67 1.13 2.63 1.393.96.27 1.896.396 2.812.396.558 0 1.145-.03 1.76-.093.615-.066 1.214-.16 1.793-.277.58-.127 1.116-.262 1.61-.423.494-.155.893-.32 1.192-.49l.793 1.824c-.416.37-.956.71-1.62 1.01s-1.394.552-2.18.763c-.788.203-1.61.363-2.47.473-.86.105-1.697.16-2.513.16-1.732 0-3.267-.3-4.604-.895-1.337-.59-2.464-1.43-3.38-2.51-.917-1.082-1.615-2.386-2.094-3.918-.477-1.532-.718-3.246-.718-5.132zm15.89-2.3c.042-.726.053-1.46.032-2.198-.02-.74-.112-1.44-.268-2.106-.158-.66-.397-1.27-.72-1.822-.323-.55-.757-.996-1.3-1.342-.374-.245-.795-.422-1.268-.55-.473-.117-1.01-.18-1.61-.18-.8 0-1.576.147-2.33.45-.75.305-1.422.777-2.017 1.44-.595.653-1.09 1.506-1.492 2.544-.4 1.038-.66 2.292-.772 3.765h11.745zM38.134 65.924l-2.984-1.59v-1.29l6.033-1.716.988.426v24.372c0 1.676-.18 3.174-.545 4.495-.365 1.326-.89 2.448-1.568 3.377-.68.92-1.5 1.625-2.458 2.11-.96.49-2.033.734-3.22.734-.147 0-.338-.008-.58-.024-.246-.013-.484-.034-.72-.06-.237-.033-.455-.067-.655-.11-.2-.04-.33-.084-.386-.126v-2.963c.113.043.277.076.49.105.216.025.442.056.678.072.236.025.462.038.677.042.215.01.386.017.515.017.688 0 1.27-.135 1.75-.4s.864-.71 1.16-1.33c.29-.624.504-1.442.633-2.456.13-1.02.192-2.278.192-3.78V65.923zM39.23 55.64c-.343 0-.68-.064-1.01-.187s-.62-.29-.87-.515c-.25-.224-.45-.494-.6-.823-.15-.333-.227-.705-.227-1.118 0-.443.097-.856.29-1.245.193-.39.44-.722.74-1 .302-.28.642-.494 1.02-.654.38-.156.763-.236 1.15-.236.944 0 1.634.262 2.07.785.438.523.655 1.147.655 1.878 0 .473-.093.898-.278 1.287-.188.388-.43.713-.73.98-.3.26-.644.472-1.03.62-.385.15-.78.227-1.18.227zM49.594 64.806l-2.21-.646v-1.65l5.515-1.182.75.384v14.796c0 1.187.065 2.207.194 3.056.128.856.365 1.558.71 2.106.343.553.813.962 1.415 1.224.6.266 1.373.4 2.318.4.646 0 1.277-.093 1.9-.27.62-.178 1.202-.396 1.737-.646.538-.25 1.007-.52 1.408-.798s.692-.515.88-.718V64.995l-2.684-.684v-1.763l6.14-1.225.602.367V83.95h2.576v1.633c-.215.114-.48.224-.793.333-.314.105-.654.203-1.02.287-.366.09-.738.16-1.118.22-.38.055-.74.084-1.084.084-.688 0-1.228-.148-1.62-.44-.396-.295-.592-.763-.592-1.408v-1.756c-1.244 1.084-2.55 1.91-3.917 2.473-1.367.564-2.7.852-4.005.852-1.688 0-3.005-.262-3.95-.785-.943-.523-1.65-1.244-2.115-2.17-.464-.92-.75-2.012-.86-3.273-.104-1.258-.166-2.634-.18-4.12V64.807zM74.28 79.555h1.91l.837 2.62c.358.3.713.563 1.063.782.35.224.71.405 1.074.548.363.144.753.254 1.17.334.415.08.873.125 1.373.138.802.03 1.538-.033 2.21-.18.674-.15 1.254-.394 1.74-.73.487-.34.867-.76 1.14-1.275.27-.515.407-1.13.407-1.85 0-.645-.175-1.193-.526-1.653-.352-.456-.812-.87-1.384-1.232-.574-.367-1.226-.7-1.954-1.013-.73-.304-1.475-.646-2.232-1.018-.844-.4-1.67-.84-2.48-1.32-.81-.48-1.525-1.013-2.147-1.612-.62-.59-1.117-1.262-1.49-2.005-.373-.747-.552-1.6-.537-2.553.015-.747.146-1.418.397-2.02.25-.605.586-1.137 1.01-1.61.42-.472.913-.885 1.472-1.235.557-.35 1.152-.646 1.78-.882.63-.236 1.278-.414 1.945-.536.665-.123 1.318-.19 1.964-.203.716-.012 1.406.022 2.073.1.665.075 1.287.188 1.867.332.578.14 1.102.31 1.566.494.466.186.863.37 1.192.557v4.596h-1.825l-.924-2.402c-.202-.22-.42-.413-.655-.595-.236-.177-.502-.333-.793-.473-.295-.135-.627-.245-.998-.333-.374-.085-.795-.127-1.268-.127-.688 0-1.32.067-1.9.202-.58.136-1.083.347-1.514.634-.428.287-.77.658-1.02 1.118-.25.46-.383 1.01-.396 1.65-.03.65.13 1.207.473 1.688.343.48.792.912 1.352 1.3.56.39 1.198.747 1.922 1.08.722.338 1.462.692 2.222 1.064.787.37 1.585.76 2.395 1.147.81.396 1.535.86 2.18 1.397.645.535 1.17 1.17 1.577 1.886.41.727.612 1.587.612 2.592 0 1.215-.244 2.283-.73 3.2-.486.914-1.155 1.68-2.008 2.294-.853.616-1.847 1.08-2.984 1.385-1.14.312-2.36.464-3.66.464-1.305 0-2.607-.15-3.91-.463-1.3-.304-2.498-.76-3.584-1.36v-4.92h-.005zM96.775 80.154c0-2.634.004-5.25.01-7.846.01-2.6.014-5.212.014-7.846h-3.287v-1.61c.63-.162 1.154-.284 1.58-.38.42-.09.77-.195 1.052-.322.28-.118.51-.27.696-.455.187-.19.358-.465.516-.82.1-.243.228-.6.377-1.07s.292-.96.428-1.452c.14-.494.254-.958.356-1.393.1-.44.165-.75.192-.938h2.127v5.73h7.215v2.71h-7.215v10.82c0 1.66.02 3.01.063 4.044.042 1.038.15 1.853.32 2.44.173.586.422.982.753 1.19.328.21.786.31 1.375.31.356 0 .753-.032 1.19-.108.437-.067.86-.15 1.268-.253.407-.102.783-.21 1.127-.338.344-.118.602-.236.772-.354l.667 1.89c-.332.36-.77.677-1.31.946-.548.27-1.136.5-1.774.687-.637.186-1.272.324-1.91.417-.637.093-1.198.144-1.686.144-1.56 0-2.768-.48-3.63-1.438-.854-.958-1.285-2.528-1.285-4.706zM119.91 83.957l3.65-.452v-29.07l-3.436-.77v-1.87l6.718-.903.86.498v32.116l3.82.456v1.823H119.91v-1.828zM133.793 83.957l3.65-.452v-17.58l-2.962-1.57v-1.33l5.947-1.696.967.43v21.746l3.477.456v1.823h-11.077v-1.828zm4.748-27.698c-.345 0-.68-.06-1.01-.187-.33-.118-.62-.287-.87-.515-.25-.22-.45-.494-.6-.823s-.227-.704-.227-1.118c0-.438.095-.856.29-1.24.19-.39.437-.727.74-1.005.3-.278.64-.494 1.02-.65.38-.16.763-.236 1.146-.236.944 0 1.637.262 2.07.78.436.524.655 1.153.655 1.88 0 .472-.093.902-.278 1.29-.186.39-.43.71-.726.976-.304.266-.65.473-1.033.624-.382.148-.78.223-1.176.223zM147.227 83.957l3.523-.473V54.436l-3.865-.77v-1.87l7.128-.904.86.498v19.278l-.11 3.31 9.556-9.86-3.242-.294v-2.28h10.138v2.28l-3.267.342-7.303 7.343 9.083 12.002 2.92.45v1.824h-10.41V83.96l2.982-.495-7.064-9.896-3.414 3.393.13 4.165v2.405l3.09.43v1.824H147.23V83.96h-.003zM172.304 73.845c0-1.836.287-3.52.87-5.068.573-1.545 1.383-2.882 2.422-4.014 1.038-1.13 2.287-2.02 3.747-2.67 1.46-.65 3.072-1 4.832-1.044 1.258-.03 2.394.15 3.414.544 1.013.396 1.882.98 2.6 1.75.713.773 1.274 1.72 1.684 2.837.41 1.12.637 2.386.696 3.804.03.9.01 1.68-.05 2.338-.068.658-.136 1.245-.208 1.76h-15.91v.25c0 .075.01.16.02.244.06 1.73.35 3.165.883 4.296.527 1.132 1.19 2.026 1.987 2.693.794.666 1.667 1.13 2.625 1.393.963.27 1.9.396 2.815.396.557 0 1.144-.03 1.76-.093.616-.066 1.215-.16 1.793-.277.58-.127 1.12-.262 1.608-.423.498-.155.895-.32 1.19-.49l.797 1.824c-.417.37-.957.71-1.62 1.01-.667.3-1.393.552-2.182.763-.785.203-1.608.363-2.465.473-.86.105-1.696.16-2.516.16-1.73 0-3.267-.3-4.604-.895-1.338-.59-2.47-1.43-3.38-2.51-.92-1.082-1.616-2.386-2.094-3.918-.48-1.532-.716-3.246-.716-5.132zm15.884-2.3c.042-.726.055-1.46.034-2.198-.02-.74-.11-1.44-.27-2.106-.16-.66-.397-1.27-.72-1.822-.32-.55-.758-.996-1.3-1.342-.37-.245-.792-.422-1.265-.55-.473-.117-1.013-.18-1.612-.18-.802 0-1.578.147-2.33.45-.75.305-1.426.777-2.017 1.44-.595.653-1.093 1.506-1.494 2.544s-.658 2.292-.772 3.765h11.746zM206.812 93.06c.245.072.527.13.85.174.324.042.61.063.868.063.515 0 1.072-.094 1.676-.28s1.21-.548 1.827-1.083c.612-.536 1.21-1.3 1.79-2.283.582-.987 1.105-2.278 1.578-3.865h-.92l-8.61-21.363-2.235-.388v-2.28h9.943v2.28l-3.094.43 5.048 14.408 1.438 4.38 1.24-4.38 4.364-14.476-3.35-.362V61.76h9.275v2.274l-2.406.346c-.963 2.777-1.803 5.217-2.524 7.318-.726 2.105-1.35 3.933-1.89 5.478-.537 1.545-.997 2.853-1.377 3.93-.38 1.07-.696 1.966-.953 2.684-.258.713-.465 1.29-.625 1.727-.156.438-.29.802-.405 1.088-.557 1.427-1.122 2.72-1.688 3.862-.566 1.144-1.16 2.14-1.79 2.975-.633.836-1.31 1.524-2.03 2.06-.722.536-1.527.912-2.418 1.132-.57.14-1.198.21-1.886.21-.144 0-.3-.008-.473-.017-.174-.017-.343-.042-.507-.067-.165-.025-.31-.063-.44-.105-.125-.046-.223-.09-.277-.13V93.06h.002zM229.265 73.284c.03-1.916.358-3.63 1-5.14.633-1.512 1.478-2.786 2.52-3.833 1.043-1.046 2.25-1.848 3.617-2.404 1.367-.558 2.794-.845 4.288-.857 1.814-.014 3.393.3 4.743.944 1.342.646 2.456 1.528 3.338 2.65.884 1.123 1.533 2.444 1.964 3.963.43 1.516.637 3.14.624 4.87-.017 1.908-.32 3.646-.91 5.22-.596 1.575-1.397 2.926-2.406 4.05-1.01 1.12-2.19 1.995-3.545 2.615-1.35.625-2.803.937-4.348.937-1.976 0-3.655-.36-5.048-1.072-1.385-.718-2.516-1.676-3.394-2.88-.87-1.2-1.502-2.59-1.9-4.15-.387-1.572-.573-3.21-.543-4.914zm11.078 10.61c1.216.025 2.245-.182 3.08-.625.837-.443 1.52-1.098 2.044-1.967.52-.86.898-1.934 1.135-3.216.236-1.283.354-2.752.354-4.415 0-1.443-.127-2.794-.376-4.047-.253-1.254-.646-2.343-1.182-3.275-.535-.933-1.215-1.662-2.038-2.198-.823-.54-1.802-.82-2.933-.85-1.216-.016-2.254.2-3.103.63-.853.438-1.55 1.08-2.093 1.925-.544.844-.94 1.873-1.19 3.093-.248 1.216-.375 2.596-.375 4.14 0 1.394.136 2.73.405 4.02.27 1.29.684 2.43 1.225 3.426.548.996 1.236 1.798 2.076 2.4.837.612 1.825.928 2.973.958zM256.938 64.806l-2.212-.646v-1.65l5.516-1.182.752.384v14.796c0 1.187.062 2.207.19 3.056.13.856.366 1.558.708 2.106.347.553.82.962 1.418 1.224.604.266 1.376.4 2.32.4.643 0 1.275-.093 1.9-.27.624-.178 1.198-.396 1.738-.646.536-.25 1.005-.52 1.405-.798.4-.278.696-.515.883-.718V64.995l-2.685-.684v-1.763l6.138-1.225.604.367V83.95h2.578v1.633c-.215.114-.48.224-.793.333-.317.105-.66.203-1.02.287-.368.09-.74.16-1.12.22-.38.055-.738.084-1.084.084-.684 0-1.23-.148-1.62-.44-.397-.295-.592-.763-.592-1.408v-1.756c-1.243 1.084-2.548 1.91-3.915 2.473-1.367.564-2.7.852-4.005.852-1.692 0-3.01-.262-3.95-.785-.945-.523-1.65-1.244-2.114-2.17-.465-.92-.752-2.012-.86-3.273-.106-1.258-.17-2.634-.183-4.12V64.807h.005zM283.508 83.615c0-.447.098-.86.29-1.25.19-.384.44-.717.74-.995.304-.278.642-.498 1.02-.654.38-.156.766-.236 1.15-.236.944 0 1.637.262 2.07.78.436.523.655 1.152.655 1.883 0 .473-.093.903-.28 1.287-.185.388-.43.713-.725.975-.304.27-.65.473-1.034.625-.384.15-.78.228-1.182.228-.342 0-.68-.063-1.008-.186-.33-.118-.62-.29-.87-.515-.253-.22-.45-.498-.6-.827-.15-.33-.226-.702-.226-1.115zM-185.366 5.14l-3.395-.598V1.016h14.504v3.526l-4.592.7 6.254 20.29 1.798 7.22 1.496-7.186 6.322-24.55h5.72l6.42 24.52 1.897 7.217 1.83-6.955 5.188-20.622-4.123-.63V1.017h13.44V4.51l-4.16.766-9.912 33.798h-5.855l-7.185-25.35-.865-4.956-1.264 4.957-6.687 25.35h-5.522l-11.31-33.936zM-131.055 19.743c0-2.838.45-5.455 1.35-7.85.898-2.397 2.15-4.47 3.757-6.223 1.608-1.75 3.543-3.13 5.805-4.14 2.262-1.008 4.756-1.546 7.485-1.614 1.952-.044 3.714.24 5.29.85 1.574.61 2.914 1.512 4.024 2.71 1.108 1.196 1.98 2.66 2.61 4.39.633 1.73.994 3.694 1.083 5.888.043 1.4.016 2.608-.085 3.627-.1 1.02-.205 1.93-.314 2.73h-24.647v.382c0 .122.01.25.032.382.088 2.687.542 4.902 1.365 6.653.818 1.752 1.844 3.145 3.076 4.174 1.23 1.035 2.587 1.753 4.075 2.166 1.487.41 2.94.612 4.358.612.865 0 1.775-.047 2.727-.148.954-.1 1.88-.244 2.78-.43.896-.19 1.728-.405 2.494-.65.765-.245 1.38-.498 1.845-.768l1.23 2.827c-.644.577-1.48 1.097-2.51 1.56-1.033.47-2.158.862-3.377 1.187-1.22.32-2.494.562-3.826.73-1.33.17-2.627.25-3.89.25-2.685 0-5.063-.46-7.137-1.38-2.072-.92-3.82-2.22-5.24-3.893-1.418-1.675-2.5-3.696-3.243-6.068-.744-2.376-1.117-5.026-1.117-7.953zm24.617-3.56c.067-1.13.082-2.266.05-3.408-.034-1.142-.173-2.23-.416-3.26-.245-1.032-.616-1.973-1.114-2.828-.5-.854-1.17-1.55-2.013-2.08-.58-.376-1.233-.66-1.963-.85-.732-.187-1.563-.282-2.494-.282-1.243 0-2.445.232-3.61.698-1.165.466-2.207 1.21-3.127 2.23-.92 1.02-1.69 2.333-2.31 3.94-.623 1.61-1.022 3.554-1.2 5.837h18.197v.003zM-91.378-10.53l-5.69-1.196v-2.895l10.746-1.2 1.332.566V4.174c.6-.51 1.258-1.02 1.98-1.532.718-.51 1.518-.97 2.392-1.38.876-.41 1.847-.74 2.912-1 1.063-.252 2.24-.38 3.526-.38 1.863 0 3.68.326 5.455.98 1.774.654 3.35 1.707 4.725 3.16 1.376 1.453 2.483 3.33 3.328 5.64.842 2.306 1.264 5.12 1.264 8.45 0 2.837-.456 5.532-1.365 8.08-.91 2.55-2.19 4.787-3.843 6.703-1.652 1.925-3.638 3.444-5.953 4.575-2.318 1.13-4.874 1.696-7.667 1.696-1.574 0-3.1-.09-4.575-.266-1.475-.178-2.804-.397-3.992-.663-1.186-.27-2.188-.55-3.01-.853-.82-.295-1.34-.57-1.562-.81V-10.53h-.002zm6.387 43.514c.353.933 1.212 1.612 2.576 2.047 1.365.432 3.01.647 4.94.647 1.44 0 2.857-.32 4.24-.967 1.387-.64 2.628-1.63 3.728-2.958 1.097-1.33 1.985-3.026 2.66-5.09s1.037-4.512 1.084-7.352c.042-2.66-.25-4.934-.882-6.82-.633-1.885-1.47-3.415-2.51-4.59-1.043-1.175-2.235-2.036-3.578-2.58-1.342-.54-2.71-.813-4.108-.813-.977 0-1.88.1-2.71.297-.833.2-1.586.456-2.263.766s-1.287.648-1.83 1.015c-.544.367-.992.715-1.346 1.05v25.35zM-52.334 28.59h2.96l1.295 4.06c.556.466 1.105.87 1.647 1.217.544.342 1.1.625 1.665.85.565.218 1.17.392 1.812.514s1.353.195 2.13.216c1.24.047 2.38-.05 3.424-.278 1.042-.236 1.94-.61 2.694-1.135.753-.52 1.342-1.182 1.764-1.98.42-.797.63-1.746.63-2.856 0-1-.27-1.853-.813-2.562-.544-.71-1.26-1.35-2.146-1.916-.886-.563-1.895-1.086-3.026-1.563-1.132-.477-2.284-1.005-3.46-1.578-1.308-.622-2.588-1.304-3.842-2.048-1.253-.743-2.36-1.575-3.328-2.495-.964-.92-1.735-1.958-2.31-3.11-.577-1.152-.856-2.473-.833-3.958.02-1.153.228-2.195.616-3.126.386-.933.91-1.764 1.562-2.497.654-.732 1.414-1.37 2.28-1.912.864-.544 1.784-1 2.76-1.365.976-.365 1.978-.642 3.012-.832 1.03-.188 2.045-.293 3.043-.316 1.108-.02 2.178.03 3.21.15 1.03.122 1.995.295 2.892.517.9.22 1.707.476 2.43.765.72.287 1.334.576 1.845.863v7.115h-2.828l-1.43-3.727c-.31-.333-.65-.637-1.016-.916-.365-.276-.777-.52-1.23-.73-.454-.21-.97-.384-1.547-.517-.576-.133-1.23-.2-1.962-.2-1.063 0-2.044.107-2.943.315-.9.21-1.68.538-2.347.98-.665.446-1.192 1.022-1.578 1.73-.39.71-.595 1.564-.616 2.563-.045 1 .2 1.87.73 2.613.535.743 1.233 1.414 2.1 2.01.864.602 1.856 1.16 2.974 1.683 1.12.52 2.27 1.07 3.444 1.646 1.22.576 2.456 1.17 3.71 1.78 1.25.608 2.377 1.33 3.375 2.162.998.83 1.812 1.806 2.443 2.93.633 1.117.95 2.455.95 4.008 0 1.883-.378 3.537-1.13 4.955-.756 1.418-1.793 2.608-3.11 3.562-1.32.95-2.862 1.666-4.626 2.144-1.762.473-3.653.713-5.67.713-2.02 0-4.037-.24-6.054-.713-2.02-.478-3.872-1.182-5.556-2.11v-7.622h.006zM-21.176 35.41l5.655-.695V7.468l-4.59-2.428V2.978l9.215-2.63 1.496.668V34.71l5.39.7v2.828h-17.166V35.41zm7.352-42.91c-.532 0-1.053-.096-1.562-.284-.51-.188-.96-.456-1.35-.798-.387-.344-.697-.772-.93-1.283-.232-.51-.35-1.084-.35-1.73 0-.687.15-1.33.45-1.93.3-.6.68-1.114 1.147-1.546.467-.434.993-.772 1.582-1.016.587-.243 1.182-.365 1.78-.365 1.463 0 2.534.404 3.208 1.212.678.81 1.015 1.78 1.015 2.912 0 .732-.146 1.397-.433 1.996-.29.6-.665 1.104-1.13 1.513-.467.41-1 .732-1.6.964-.596.236-1.204.352-1.826.352zM2.036 29.523c0-4.08.006-8.132.02-12.16.01-4.025.016-8.077.016-12.157h-5.09V2.712c.975-.245 1.79-.438 2.444-.582.654-.146 1.198-.312 1.63-.5.434-.188.793-.426 1.082-.715s.555-.71.8-1.264c.153-.378.347-.932.582-1.665.23-.732.453-1.48.664-2.245s.395-1.485.548-2.163c.157-.677.256-1.158.3-1.447h3.292v8.884h11.18v4.19H8.324V21.97c0 2.574.034 4.663.1 6.27.066 1.61.233 2.867.5 3.778.265.907.653 1.523 1.164 1.845.508.32 1.22.48 2.13.48.552 0 1.168-.055 1.845-.164.675-.11 1.332-.246 1.963-.397.63-.16 1.213-.33 1.747-.52.532-.19.93-.37 1.196-.55L20 35.64c-.51.557-1.185 1.046-2.03 1.468-.84.422-1.757.776-2.742 1.063-.987.288-1.975.503-2.96.647-.988.148-1.857.216-2.61.216-2.418 0-4.292-.743-5.622-2.23-1.333-1.48-2-3.907-2-7.28zM20.692 19.743c0-2.838.45-5.455 1.348-7.85.897-2.397 2.15-4.47 3.758-6.223 1.608-1.75 3.543-3.13 5.805-4.14C33.865.522 36.36-.016 39.088-.084c1.952-.044 3.714.24 5.29.85 1.572.61 2.914 1.512 4.024 2.71 1.107 1.196 1.98 2.66 2.61 4.39.633 1.73.992 3.694 1.083 5.888.044 1.4.017 2.608-.084 3.627-.098 1.02-.204 1.93-.313 2.73H27.045v.382c0 .122.013.25.034.382.088 2.687.54 4.902 1.362 6.653.82 1.752 1.846 3.145 3.08 4.174 1.23 1.035 2.586 1.753 4.074 2.166 1.485.41 2.938.612 4.357.612.865 0 1.774-.047 2.726-.148.953-.1 1.88-.244 2.776-.43.9-.19 1.73-.405 2.496-.65s1.38-.498 1.846-.768l1.23 2.827c-.644.577-1.48 1.097-2.51 1.56-1.033.47-2.158.862-3.377 1.187-1.22.32-2.493.562-3.825.73s-2.627.25-3.89.25c-2.685 0-5.063-.46-7.138-1.38s-3.82-2.22-5.24-3.893c-1.417-1.675-2.5-3.696-3.243-6.068-.74-2.376-1.112-5.026-1.112-7.953zm24.617-3.56c.066-1.13.082-2.266.05-3.408-.034-1.142-.173-2.23-.416-3.26-.245-1.032-.616-1.973-1.114-2.828-.5-.854-1.17-1.55-2.013-2.08-.578-.376-1.232-.66-1.962-.85-.732-.187-1.564-.282-2.497-.282-1.24 0-2.445.232-3.608.698-1.165.466-2.207 1.21-3.127 2.23-.92 1.02-1.69 2.333-2.313 3.94-.62 1.61-1.02 3.554-1.196 5.837H45.31v.003zM57.84 28.59h2.96l1.296 4.06c.555.466 1.104.87 1.646 1.217.544.342 1.1.625 1.665.85.565.218 1.17.392 1.812.514s1.352.195 2.128.216c1.24.047 2.382-.05 3.425-.278 1.042-.236 1.94-.61 2.694-1.135.753-.52 1.342-1.182 1.764-1.98.42-.797.632-1.746.632-2.856 0-1-.27-1.853-.814-2.562s-1.26-1.35-2.146-1.916c-.886-.563-1.895-1.086-3.026-1.563-1.133-.477-2.285-1.005-3.46-1.578-1.31-.622-2.59-1.304-3.843-2.048-1.253-.743-2.36-1.575-3.328-2.495-.964-.92-1.734-1.958-2.31-3.11-.577-1.152-.855-2.473-.833-3.958.02-1.153.228-2.195.616-3.126.386-.933.91-1.764 1.562-2.497.654-.732 1.416-1.37 2.28-1.912.864-.544 1.784-1 2.76-1.365.976-.365 1.98-.642 3.012-.832 1.03-.188 2.045-.293 3.043-.316 1.108-.02 2.178.03 3.21.15 1.03.122 1.995.295 2.894.517.896.22 1.704.476 2.426.765.722.287 1.335.576 1.846.863v7.115h-2.828l-1.428-3.727c-.312-.333-.65-.637-1.017-.916-.366-.276-.778-.52-1.23-.73-.455-.21-.97-.384-1.547-.517-.576-.133-1.23-.2-1.963-.2-1.063 0-2.044.107-2.943.315-.897.212-1.678.538-2.345.982-.665.445-1.192 1.02-1.578 1.73-.39.71-.595 1.563-.616 2.562-.044.998.2 1.87.732 2.612s1.23 1.414 2.096 2.01c.865.602 1.857 1.16 2.977 1.683 1.12.52 2.267 1.07 3.442 1.646 1.22.576 2.456 1.17 3.71 1.78 1.25.608 2.377 1.33 3.375 2.162.998.83 1.812 1.806 2.443 2.93.633 1.117.95 2.455.95 4.008 0 1.883-.378 3.537-1.13 4.955-.757 1.418-1.793 2.608-3.11 3.562-1.32.95-2.862 1.667-4.626 2.145-1.762.473-3.653.713-5.67.713-2.02 0-4.037-.24-6.054-.713-2.02-.478-3.872-1.182-5.556-2.11v-7.622h.004zM116.667 10.262c-.998-2.15-1.5-4.157-1.5-6.02 0-2.108.622-4.064 1.864-5.873 1.244-1.808 2.825-3.266 4.743-4.376 1.918-1.108 3.908-1.663 5.972-1.663 2.306 0 4.23.638 5.77 1.913 1.542 1.276 2.312 2.8 2.312 4.575 0 1.33-.372 2.562-1.114 3.693s-1.526 1.697-2.344 1.697c-.4 0-.6-.21-.6-.633 0-.154.11-.498.332-1.03.353-.867.532-1.74.532-2.63 0-1.33-.544-2.41-1.63-3.242-1.088-.832-2.397-1.247-3.926-1.247-2.462 0-4.762 1.013-6.902 3.043-2.142 2.03-3.212 4.353-3.212 6.97 0 1.175.156 2.167.466 2.978.31.81.593 1.335.848 1.58.255.245.616.365 1.083.365 3.06 0 4.59.89 4.59 2.662 0 .445-.16.865-.48 1.266-.323.398-.793.6-1.414.6-.688 0-1.563-.457-2.63-1.364-1.13-.977-2.238-1.464-3.327-1.464-1.398 0-2.723.692-3.977 2.08-1.253 1.385-1.88 3.03-1.88 4.938 0 3.706 1.842 7.2 5.524 10.496 3.68 3.292 8.26 4.938 13.737 4.938 5.19 0 9.63-1.29 13.324-3.874 3.688-2.583 5.537-5.676 5.537-9.264 0-2.397-.912-4.478-2.727-6.24-1.82-1.763-4.28-2.643-7.386-2.643-2.507 0-4.74.69-6.704 2.063-1.962 1.375-2.944 3.093-2.944 5.155 0 1.243.354 2.263 1.063 3.06.71.802 1.44 1.2 2.197 1.2.865 0 1.298-.466 1.298-1.398l-.034-.396c-.02-.29-.034-.49-.034-.604 0-.973.266-1.776.8-2.41.532-.633 1.207-.947 2.028-.947.776 0 1.45.272 2.03.814.577.545.864 1.305.864 2.28 0 1.394-.48 2.56-1.447 3.49-.965.934-2.202 1.397-3.71 1.397-1.796 0-3.343-.637-4.64-1.91-1.298-1.275-1.946-2.846-1.946-4.71 0-2.725 1.142-5.21 3.425-7.45 2.284-2.24 6.43-3.36 12.44-3.36 5.39 0 9.307-.742 11.745-2.228 2.44-1.464 3.655-3.693 3.655-6.687 0-1.773-.54-3.23-1.63-4.376-1.084-1.142-2.46-1.71-4.122-1.71-.823 0-1.44.115-1.845.347-.413.233-.616.594-.616 1.08 0 .313.198.756.6 1.333.51.732.764 1.443.764 2.13 0 .82-.315 1.54-.948 2.162-.63.62-1.41.93-2.347.93-1.105 0-1.95-.353-2.523-1.062-.578-.71-.865-1.54-.865-2.496 0-1.507.734-2.86 2.21-4.058 1.48-1.2 3.356-1.8 5.644-1.8 2.348 0 4.306.862 5.867 2.58 1.565 1.72 2.347 3.788 2.347 6.204 0 2.285-.667 4.37-2.014 6.254-1.337 1.884-3.038 3.216-5.085 3.992-2.056.774-4.934 1.23-8.635 1.363 3.545 2.507 5.322 5.723 5.322 9.647 0 2.946-1.09 5.8-3.263 8.55-2.175 2.752-4.808 4.79-7.9 6.12-3.092 1.33-6.87 1.996-11.326 1.996-3.615 0-6.543-.393-8.782-1.182-2.24-.79-4.375-1.938-6.404-3.443-2.03-1.506-3.625-3.354-4.79-5.536-1.165-2.183-1.747-4.528-1.747-7.035 0-3.063.876-5.635 2.628-7.72s4.352-3.368 7.79-3.858zM179.486-10.53l-5.688-1.196v-2.895l10.744-1.2 1.334.566V4.174c.6-.51 1.258-1.02 1.975-1.532.723-.51 1.52-.97 2.398-1.38.874-.41 1.85-.74 2.912-1 1.063-.252 2.236-.38 3.523-.38 1.86 0 3.68.326 5.457.98 1.772.654 3.347 1.707 4.723 3.16 1.372 1.453 2.486 3.33 3.326 5.64.843 2.306 1.26 5.12 1.26 8.45 0 2.837-.45 5.532-1.358 8.08-.91 2.55-2.19 4.787-3.845 6.703-1.65 1.925-3.638 3.444-5.955 4.575-2.316 1.13-4.87 1.696-7.664 1.696-1.578 0-3.102-.09-4.574-.266-1.478-.178-2.81-.397-3.992-.663-1.19-.27-2.19-.55-3.014-.853-.818-.295-1.342-.57-1.562-.81V-10.53zm6.39 43.514c.35.933 1.21 1.612 2.574 2.047 1.363.432 3.014.647 4.938.647 1.443 0 2.857-.32 4.246-.967 1.384-.64 2.625-1.63 3.722-2.958 1.098-1.33 1.984-3.026 2.663-5.09.675-2.063 1.033-4.512 1.08-7.352.046-2.66-.25-4.934-.883-6.82-.633-1.885-1.468-3.415-2.51-4.59-1.043-1.175-2.233-2.036-3.575-2.58-1.343-.54-2.714-.813-4.11-.813-.976 0-1.88.1-2.71.297-.83.2-1.587.456-2.262.766-.676.31-1.287.648-1.832 1.015-.54.367-.99.715-1.346 1.05v25.348h.004zM216.667 35.41l5.39-.695V7.635l-4.723-2.594V2.98L226.112.35l1.565.666V6.14c.418-.62 1.06-1.277 1.912-1.962.852-.688 1.813-1.315 2.877-1.88S234.64 1.266 235.792.9c1.152-.366 2.24-.547 3.26-.547.733 0 1.392.017 1.982.048.582.035 1 .096 1.245.185v6.82c-.355-.133-.723-.272-1.1-.416-.375-.147-.792-.27-1.244-.368-.455-.1-.97-.182-1.553-.25-.574-.064-1.24-.098-1.992-.098-1.797 0-3.308.228-4.523.682-1.22.454-2.338 1.002-3.36 1.646v26.014l9.48.798v2.827h-21.32v-2.83zM245.467 27.527c.15-1.553.65-2.912 1.493-4.077.845-1.164 1.887-2.165 3.128-3.01 1.244-.84 2.62-1.54 4.14-2.094s3.047-.998 4.575-1.33c1.53-.333 3.005-.565 4.427-.698 1.418-.135 2.646-.2 3.692-.2v-2.894c0-1.754-.236-3.178-.7-4.275-.464-1.1-1.105-1.957-1.93-2.58-.822-.62-1.784-1.042-2.894-1.264-1.11-.22-2.31-.333-3.592-.333-.642 0-1.363.063-2.16.184-.803.122-1.63.293-2.482.515s-1.713.487-2.574.8c-.87.31-1.688.654-2.465 1.03l-1.228-2.994c.818-.665 1.823-1.248 3.01-1.745 1.188-.5 2.404-.916 3.658-1.25 1.253-.333 2.477-.576 3.658-.732 1.19-.153 2.203-.23 3.048-.23 1.748 0 3.42.183 5.006.548s2.976 1.01 4.174 1.93c1.198.92 2.148 2.164 2.845 3.726.7 1.563 1.05 3.556 1.05 5.972l-.066 22.887h4.257v2.194c-.776.422-1.734.77-2.878 1.03-1.145.27-2.293.4-3.445.4-.4 0-.83-.03-1.295-.08-.465-.06-.895-.198-1.283-.418-.39-.225-.71-.566-.962-1.035-.258-.464-.385-1.105-.385-1.93v-.932c-.51.625-1.113 1.2-1.81 1.73-.7.532-1.5.996-2.397 1.397-.895.4-1.916.71-3.06.933-1.144.22-2.41.33-3.812.33-1.725 0-3.295-.31-4.704-.93-1.405-.62-2.583-1.46-3.524-2.516-.945-1.05-1.646-2.27-2.098-3.654-.455-1.384-.595-2.853-.417-4.406zm6.448.135c0 1.31.182 2.414.53 3.326.36.91.875 1.646 1.555 2.21.675.566 1.498.977 2.473 1.233.98.254 2.076.38 3.296.38.662 0 1.342-.083 2.03-.26.683-.183 1.346-.406 1.974-.668.634-.27 1.225-.573 1.765-.92.543-.342.978-.68 1.315-1.013 0-2.086.005-4.153.018-6.205.008-2.05.024-4.118.05-6.203-.937 0-1.953.05-3.063.15-1.105.1-2.22.27-3.325.516-1.106.243-2.187.566-3.225.963-1.047.4-1.967.904-2.765 1.516s-1.438 1.325-1.91 2.148c-.475.82-.72 1.76-.72 2.828zM281.284 35.41l4.52-.666V7.634l-4.718-2.593V2.98L289.932.35l1.494.666v4.756c.755-.642 1.662-1.28 2.73-1.912 1.063-.633 2.194-1.203 3.393-1.713 1.193-.508 2.426-.924 3.692-1.247 1.266-.32 2.46-.504 3.59-.548 2.064-.068 3.795.18 5.188.747 1.4.565 2.532 1.487 3.394 2.76.87 1.276 1.485 2.91 1.865 4.907s.564 4.39.564 7.185v18.793l5.355.667v2.827H304.43V35.41l5.02-.696v-17.6c0-2.018-.096-3.792-.294-5.322-.203-1.53-.596-2.793-1.182-3.792-.59-.998-1.4-1.73-2.448-2.197-1.038-.464-2.405-.665-4.09-.597-1.375.065-2.83.37-4.36.916-1.526.542-3.14 1.39-4.818 2.543v26.048l4.955.696v2.828h-15.937V35.41h.006zM337.79 39.04c-1.857 0-3.668-.37-5.42-1.118-1.755-.738-3.3-1.882-4.642-3.423-1.343-1.545-2.423-3.495-3.24-5.858-.82-2.363-1.233-5.16-1.233-8.398 0-2.97.498-5.704 1.494-8.2 1.003-2.494 2.362-4.64 4.093-6.436 1.73-1.796 3.764-3.2 6.106-4.208 2.337-1.008 4.848-1.515 7.532-1.515 1.173 0 2.316.078 3.427.234 1.104.155 2.06.364 2.86.63v-11.078l-7.086-1.196v-2.895l11.973-1.396 1.5.766v50.462h4.49v2.498c-.377.198-.85.39-1.415.565-.565.178-1.165.33-1.798.465s-1.274.23-1.93.3c-.653.067-1.27.1-1.843.1-.4 0-.818-.028-1.25-.083-.43-.055-.826-.198-1.18-.418s-.65-.566-.88-1.03c-.235-.465-.353-1.106-.353-1.93v-.835c-.33.375-.818.798-1.46 1.266-.646.466-1.443.9-2.397 1.297-.953.4-2.046.738-3.274 1.017-1.232.272-2.59.416-4.077.416zm2.565-4.56c.71 0 1.367-.04 1.975-.115.612-.076 1.182-.186 1.714-.316 1.09-.267 2.018-.62 2.794-1.064s1.422-.92 1.933-1.43V6.105c-.244-.29-.543-.59-.894-.9-.354-.31-.82-.6-1.385-.865-.564-.265-1.24-.482-2.024-.647-.79-.167-1.714-.25-2.777-.25-.845 0-1.723.106-2.634.315-.907.21-1.807.56-2.692 1.046-.887.49-1.73 1.12-2.528 1.897-.798.777-1.507 1.725-2.13 2.845-.617 1.118-1.115 2.43-1.495 3.923-.38 1.498-.577 3.21-.6 5.143-.04 2.73.233 5.093.832 7.085.6 1.996 1.406 3.642 2.41 4.938 1.013 1.3 2.17 2.262 3.478 2.895 1.308.634 2.65.95 4.025.95zM362.664 35.41l5.655-.695V7.468l-4.593-2.43V2.98l9.217-2.63 1.498.668V34.71l5.39.7v2.828h-17.168V35.41zm7.352-42.91c-.532 0-1.055-.096-1.562-.284-.51-.19-.962-.456-1.347-.798-.393-.344-.7-.772-.933-1.283-.23-.51-.35-1.084-.35-1.73 0-.687.147-1.33.45-1.93.296-.6.68-1.114 1.148-1.546.465-.434.988-.772 1.58-1.016.585-.243 1.18-.365 1.775-.365 1.465 0 2.536.404 3.212 1.212.674.81 1.012 1.78 1.012 2.912 0 .732-.144 1.397-.43 1.996s-.668 1.104-1.132 1.513c-.464.41-.996.732-1.596.964-.596.236-1.204.352-1.828.352zM381.688 35.41l4.524-.666V7.634l-4.727-2.593V2.98L390.33.35l1.503.666v4.756c.752-.642 1.663-1.28 2.727-1.912 1.063-.633 2.194-1.203 3.394-1.713 1.198-.508 2.43-.924 3.688-1.247 1.266-.32 2.465-.504 3.596-.548 2.06-.068 3.79.18 5.19.747 1.393.565 2.524 1.487 3.394 2.76.86 1.276 1.485 2.91 1.86 4.907.376 1.996.566 4.39.566 7.185v18.793l5.355.667v2.827h-16.768V35.41l5.026-.696v-17.6c0-2.018-.1-3.792-.303-5.322-.198-1.53-.59-2.793-1.182-3.792-.587-.998-1.4-1.73-2.443-2.197-1.043-.464-2.405-.665-4.09-.597-1.376.065-2.827.37-4.36.916-1.53.542-3.135 1.39-4.823 2.543v26.048l4.954.696v2.828h-15.932V35.41h.006zM425.917 45.987c0-1.018.187-1.992.55-2.925.37-.933.826-1.785 1.384-2.562.558-.777 1.157-1.47 1.815-2.077.65-.607 1.278-1.105 1.874-1.48-.997-.355-1.748-.765-2.264-1.23-.506-.468-.87-.953-1.08-1.468-.21-.507-.325-1.03-.346-1.562-.025-.53-.034-1.03-.034-1.494 0-.4.085-.92.266-1.566.178-.642.436-1.33.78-2.06s.777-1.478 1.3-2.23c.52-.754 1.115-1.43 1.777-2.03-1.663-.994-2.976-2.334-3.942-4.008-.967-1.673-1.447-3.72-1.447-6.136 0-2.285.44-4.27 1.317-5.955.874-1.686 2.025-3.083 3.46-4.19 1.427-1.11 3.056-1.94 4.87-2.497 1.82-.553 3.664-.853 5.52-.896 1.893-.044 3.656.147 5.31.582 1.655.433 3.11 1.125 4.373 2.08.447-.512 1.093-.927 1.95-1.248.853-.32 1.987-.483 3.41-.483h4.02v5.024h-6.52c.464.842.827 1.796 1.08 2.86.254 1.064.385 2.23.385 3.493 0 2.195-.405 4.14-1.212 5.837-.814 1.697-1.898 3.123-3.262 4.273-1.362 1.156-2.94 2.03-4.722 2.634-1.79.6-3.654.895-5.604.895-2.616 0-4.96-.41-7.022-1.233-.135.354-.23.738-.278 1.147-.06.414-.093.81-.102 1.2-.013.387-.013.75 0 1.096.01.347.017.625.017.85 0 1.193.31 2.13.944 2.793.633.667 1.74 1.067 3.31 1.198 1 .09 2.198.14 3.595.148 1.396.018 3.06.018 4.987.018 2.064 0 3.824.16 5.293.48 1.46.32 2.676.752 3.642 1.283.967.53 1.727 1.15 2.275 1.864.557.71.98 1.452 1.266 2.23.287.77.47 1.552.532 2.342.067.79.1 1.536.1 2.25 0 1.902-.395 3.633-1.197 5.182-.798 1.553-1.94 2.887-3.443 3.992-1.494 1.11-3.326 1.97-5.486 2.583-2.162.607-4.618.91-7.37.91-1.992 0-3.95-.15-5.87-.463-1.92-.312-3.634-.85-5.14-1.612-1.508-.768-2.728-1.79-3.66-3.063s-1.403-2.87-1.403-4.778zm6.187-2.127c0 1.51.29 2.79.87 3.845.573 1.05 1.35 1.903 2.33 2.562.97.65 2.1 1.13 3.392 1.426 1.283.305 2.646.452 4.09.452 1.793 0 3.41-.147 4.84-.452 1.432-.295 2.643-.742 3.643-1.342s1.764-1.357 2.295-2.282c.532-.916.798-2 .798-3.24 0-1.068-.118-2.014-.363-2.846-.244-.83-.726-1.536-1.435-2.114-.71-.573-1.7-1.013-2.976-1.312-1.275-.3-2.942-.447-5.01-.447l-4.188-.068c-1.308 0-2.48-.038-3.51-.114-1.03-.075-1.96-.186-2.778-.32-.27.312-.515.662-.75 1.05-.23.39-.44.832-.634 1.33-.186.503-.338 1.063-.447 1.697-.11.63-.17 1.356-.17 2.175zm9.783-21.853c1.376 0 2.54-.19 3.495-.565.953-.375 1.722-.95 2.312-1.713.582-.767 1.013-1.72 1.274-2.862.27-1.142.4-2.478.4-4.007 0-3.306-.71-5.755-2.127-7.35-1.42-1.6-3.548-2.396-6.388-2.396-1.11 0-2.145.146-3.11.432-.963.29-1.807.77-2.524 1.448-.726.677-1.29 1.574-1.696 2.695-.414 1.12-.616 2.52-.616 4.207 0 1.376.164 2.678.498 3.908.33 1.232.856 2.31 1.578 3.23.722.92 1.654 1.645 2.794 2.177 1.144.525 2.516.795 4.11.795z"/></svg>