<svg xmlns="http://www.w3.org/2000/svg" width="275" height="150" viewBox="0 0 275 150"><linearGradient id="a" gradientUnits="userSpaceOnUse" x1="122.813" y1="-92.889" x2="310.187" y2="-161.087" gradientTransform="matrix(1 0 0 -1 -285 -129)"><stop offset="0" stop-color="#BA7949"/><stop offset=".086" stop-color="#AC7043"/><stop offset=".233" stop-color="#9A643C"/><stop offset=".39" stop-color="#8F5D38"/><stop offset=".571" stop-color="#8C5B37"/><stop offset=".719" stop-color="#7F5332"/><stop offset=".989" stop-color="#5E3E26"/><stop offset="1" stop-color="#5D3D25"/></linearGradient><path fill="url(#a)" d="M27.748-1.82C24.16-1.943 20.576-2.158 17-2.524c-1.43-.146-2.617-.912-3.478-1.946-6.025.243-12.032.732-17.994 1.648.54 19.706.75 39.422.487 59.132 5.026-9.18 18.71-34.19 31.733-58.13z"/><linearGradient id="b" gradientUnits="userSpaceOnUse" x1="130.385" y1="-95.645" x2="310.184" y2="-161.086" gradientTransform="matrix(1 0 0 -1 -285 -129)"><stop offset="0" stop-color="#F1E4DB"/><stop offset=".749" stop-color="#E3C9B6"/><stop offset=".829" stop-color="#E1C5B0"/><stop offset=".935" stop-color="#DBB9A0"/><stop offset="1" stop-color="#D6AF92"/></linearGradient><path fill="url(#b)" d="M27.748-1.82C24.16-1.943 20.576-2.158 17-2.524c-1.43-.146-2.617-.912-3.478-1.946-6.025.243-12.032.732-17.994 1.648.54 19.706.75 39.422.487 59.132 5.026-9.18 18.71-34.19 31.733-58.13z"/><linearGradient id="c" gradientUnits="userSpaceOnUse" x1="-458.913" y1="-41.195" x2="-240.8" y2="-120.582" gradientTransform="matrix(-1.019 -.085 .083 -.997 23.434 -128.27)"><stop offset="0" stop-color="#BA7949"/><stop offset=".086" stop-color="#AF7245"/><stop offset=".266" stop-color="#9D663E"/><stop offset=".459" stop-color="#925F39"/><stop offset=".681" stop-color="#8F5D38"/><stop offset="1" stop-color="#5D3D25"/></linearGradient><path fill="url(#c)" d="M274.85-2.43c-3.98.04-7.963.083-11.942.138 3.517 7.812 7.247 16.076 10.983 24.34-.274-7.716-.82-15.588 1.113-23.064-.054-.47-.104-.943-.152-1.415z"/><linearGradient id="d" gradientUnits="userSpaceOnUse" x1="-451.882" y1="-49.321" x2="-242.588" y2="-125.498" gradientTransform="matrix(-1.019 -.085 .083 -.997 23.434 -128.27)"><stop offset="0" stop-color="#F1E4DB"/><stop offset=".675" stop-color="#E3C9B6"/><stop offset=".78" stop-color="#E1C5B0"/><stop offset=".922" stop-color="#DBB89F"/><stop offset="1" stop-color="#D6AF92"/></linearGradient><path fill="url(#d)" d="M274.85-2.43c-4.832.05-9.664.106-14.496.175 4.494 11.493 9.364 23.902 13.99 35.673.022-1.61.062-3.217.104-4.825-.28-.605-.44-1.31-.448-2.117-.077-9.097-1.298-18.566 1.004-27.476-.055-.477-.104-.954-.154-1.43z"/><linearGradient id="e" gradientUnits="userSpaceOnUse" x1="485.629" y1="-128.256" x2="350.257" y2="-362.728" gradientTransform="matrix(1 0 0 -1 -285 -129)"><stop offset="0" stop-color="#BA7949"/><stop offset=".049" stop-color="#AC7043"/><stop offset=".133" stop-color="#9A643C"/><stop offset=".222" stop-color="#8F5D38"/><stop offset=".325" stop-color="#8C5B37"/><stop offset=".558" stop-color="#7F5332"/><stop offset=".983" stop-color="#5E3E26"/><stop offset="1" stop-color="#5D3D25"/></linearGradient><path fill="url(#e)" d="M274.688 77.944c-.01-12.076-.363-24.123-.388-36.154-15.06-5.265-45.108 26.43-96.334 26.43-73.28 0-165.917-48.846-181.72 8.182.323 6.826.566 13.655.743 20.485.74 17.746 1.114 35.5.59 53.274.165.493.34.98.51 1.47 23.313 4.794 47.835.83 71.4.847 29.046.02 58.1.342 87.144-.09 39.344-.587 78.66-1.23 117.99-1.6-1.5-24.25.08-48.544.063-72.842z"/><path opacity=".2" enable-background="new" d="M69.49 152.477c29.047.02 58.1.342 87.145-.09 34.416-.514 68.813-1.075 103.217-1.457 4.5-13.857 6.957-28.88 6.957-44.723 0-94.883-24.278-27.062-93.377-27.062-69.1 0-148.42-41.96-148.42 33.348-4.082 13.945-4.2 27.618-1.423 41.504 15.313.09 30.804-1.532 45.9-1.52z"/><linearGradient id="f" gradientUnits="userSpaceOnUse" x1="429.025" y1="-190.065" x2="429.025" y2="-370.685" gradientTransform="matrix(1 0 0 -1 -285 -129)"><stop offset=".227" stop-color="#F1E4DB"/><stop offset=".356" stop-color="#EAD6C7"/><stop offset=".489" stop-color="#E5CCBA"/><stop offset=".614" stop-color="#E3C9B6"/><stop offset=".741" stop-color="#E1C4AF"/><stop offset=".923" stop-color="#DAB69C"/><stop offset="1" stop-color="#D6AF92"/></linearGradient><path fill="url(#f)" d="M69.49 152.477c29.047.02 58.1.342 87.145-.09 32.126-.48 64.235-1 96.348-1.378 4.463-13.218 6.896-27.59 6.896-42.763 0-88.573-22.908-25.265-88.107-25.265-65.2 0-140.043-39.17-140.043 31.13-4.303 14.55-4.41 27.577-1.876 39.834 13.26-.27 26.595-1.48 39.636-1.47z"/><linearGradient id="g" gradientUnits="userSpaceOnUse" x1="289.666" y1="-222.24" x2="559.688" y2="-222.24" gradientTransform="matrix(1 0 0 -1 -285 -129)"><stop offset="0" stop-color="#BA7949"/><stop offset=".049" stop-color="#AC7043"/><stop offset=".133" stop-color="#9A643C"/><stop offset=".222" stop-color="#8F5D38"/><stop offset=".325" stop-color="#8C5B37"/><stop offset=".558" stop-color="#7F5332"/><stop offset=".983" stop-color="#5E3E26"/><stop offset="1" stop-color="#5D3D25"/></linearGradient><path opacity=".12" fill="url(#g)" enable-background="new" d="M274.688 77.944c-.01-12.07-.362-24.11-.388-36.137-15.058-5.277-45.104 26.412-96.334 26.412-80.384 0-168.784-52.284-168.784 34.39-2.168 7.326-3.656 14.533-4.516 21.596 15.07 20.877 43.952 25.028 67.992 17.713 9.808-3.27 21.85-9.203 30.268-15.878.69-.547 2.395-1.864 3.11-2.4-.715.536-1.413 1.08-2.104 1.627 3.12 8.817 13.308 17.71 23.133 17.63-.976-5.13-.197-12.38 2.554-18.08 6.705-12.295 15.857-2.75 28.773-8.465 13.674 25.956 61.234 38.568 96.217 13.184 7.077-4.718 10.614-11.794 16.51-17.69 1.093-1.5 2.12-3.002 3.116-4.507.205-9.8.457-19.598.452-29.4z"/><linearGradient id="h" gradientUnits="userSpaceOnUse" x1="343.137" y1="-291.658" x2="365.65" y2="-272.767" gradientTransform="matrix(1 0 0 -1 -285 -129)"><stop offset="0" stop-color="#F1E4DB"/><stop offset=".213" stop-color="#EEDDD2" stop-opacity=".787"/><stop offset=".56" stop-color="#E5CCBA" stop-opacity=".44"/><stop offset=".997" stop-color="#D6AF92" stop-opacity=".004"/><stop offset="1" stop-color="#D6AF92" stop-opacity="0"/></linearGradient><path fill="url(#h)" d="M69.49 152.477c5.99.004 11.98.02 17.97.043l-12.044-11.19s-17.372 1.096-19.175 11.473c4.44-.194 8.864-.33 13.25-.326z"/><linearGradient id="i" gradientUnits="userSpaceOnUse" x1="416.848" y1="-199.98" x2="416.848" y2="-262.861" gradientTransform="matrix(1 0 0 -1 -285 -129)"><stop offset="0" stop-color="#FFF050"/><stop offset=".232" stop-color="#FFE550"/><stop offset=".651" stop-color="#FFD650"/><stop offset="1" stop-color="#FFD150"/></linearGradient><path fill="url(#i)" d="M147.31 76.468s-32.43-22.104-40.98 22.41c-4.42 24.468 12.677 34.982 12.677 34.982s-1.03-25.745 26.386-22.797c27.416 2.95 1.916-34.595 1.916-34.595z"/><linearGradient id="j" gradientUnits="userSpaceOnUse" x1="424.418" y1="-57.293" x2="424.418" y2="-197.634" gradientTransform="matrix(1 0 0 -1 -285 -129)"><stop offset="0" stop-color="#9CB8BB"/><stop offset=".111" stop-color="#82A5A9"/><stop offset=".216" stop-color="#71989C"/><stop offset=".294" stop-color="#6B9498"/><stop offset=".675" stop-color="#3A7176"/><stop offset=".75" stop-color="#356E73"/><stop offset=".838" stop-color="#276369"/><stop offset=".932" stop-color="#105359"/><stop offset=".957" stop-color="#084D54"/></linearGradient><path fill="url(#j)" d="M274.463 28.62c-.287-.61-.456-1.324-.463-2.143-.053-6.23-.648-12.636-.282-18.917-1.618-3.39-3.397-6.694-5.294-9.925-39.607.487-79.206 1.595-118.83 1.16-22.626-.25-45.224-1.432-67.846-1.74C61.934-3.218 41.96-.78 22.17-2.1 10.746 17.54 4.22 40.178 4.22 64.29c38.533-.492 63.206-8.255 141.173-8.255 65.44 0 105.438 15.205 129.225 12.205-.162-13.23-.5-26.432-.155-39.62z"/><linearGradient id="k" gradientUnits="userSpaceOnUse" x1="534.807" y1="-93.866" x2="556.955" y2="-176.525" gradientTransform="matrix(1 0 0 -1 -285 -129)"><stop offset="0" stop-color="#CEDBDD"/><stop offset=".571" stop-color="#6B9498"/><stop offset="1" stop-color="#3A7176"/></linearGradient><path fill="url(#k)" d="M274.448 28.594c-.278-.605-.44-1.31-.448-2.117-.012-1.328-.048-2.664-.094-4.004-8.99 3.392-16.05 4.77-16.05 4.77l8.253 20.34c2.195-.224 4.977-.59 8.212-1.17-.05-5.944-.03-11.883.125-17.82z"/><linearGradient id="l" gradientUnits="userSpaceOnUse" x1="537.361" y1="-101.527" x2="559.508" y2="-184.18" gradientTransform="matrix(1 0 0 -1 -285 -129)"><stop offset="0" stop-color="#9CB8BB"/><stop offset=".111" stop-color="#82A5A9"/><stop offset=".216" stop-color="#71989C"/><stop offset=".294" stop-color="#6B9498"/><stop offset=".724" stop-color="#3A7176"/><stop offset=".797" stop-color="#356E73"/><stop offset=".883" stop-color="#276369"/><stop offset=".975" stop-color="#105359"/><stop offset="1" stop-color="#084D54"/></linearGradient><path fill="url(#l)" d="M274.39 31.058c-6.878 2.3-11.816 3.26-11.816 3.26l8.254 20.34c1.063-.108 2.265-.25 3.586-.434-.113-7.728-.178-15.45-.025-23.166z"/><linearGradient id="m" gradientUnits="userSpaceOnUse" x1="87.984" y1="52.98" x2="110.131" y2="-29.673" gradientTransform="matrix(-.93 -.4 .395 -.918 111.959 61.439)"><stop offset="0" stop-color="#CEDBDD"/><stop offset=".571" stop-color="#6B9498"/><stop offset="1" stop-color="#3A7176"/></linearGradient><path fill="url(#m)" d="M2.382-3.697c-2.29.234-4.574.525-6.853.875.412 15.154.633 30.315.593 45.475C6.187 52.018 15.687 58.05 21.25 61.143l15.716-15.38S3.242 22.857 2.382-3.697z"/><linearGradient id="n" gradientUnits="userSpaceOnUse" x1="88.68" y1="44.825" x2="110.827" y2="-37.831" gradientTransform="matrix(-.93 -.4 .395 -.918 111.959 61.439)"><stop offset="0" stop-color="#9CB8BB"/><stop offset=".111" stop-color="#82A5A9"/><stop offset=".216" stop-color="#71989C"/><stop offset=".294" stop-color="#6B9498"/><stop offset=".724" stop-color="#3A7176"/><stop offset=".797" stop-color="#356E73"/><stop offset=".883" stop-color="#276369"/><stop offset=".975" stop-color="#105359"/><stop offset="1" stop-color="#084D54"/></linearGradient><path fill="url(#n)" d="M-4.25 6.005c.352 15.81.473 31.625.3 47.437 7.29 5.913 13.79 9.96 18.018 12.31l15.716-15.38S.268 30.332-4.25 6.005z"/><linearGradient id="o" gradientUnits="userSpaceOnUse" x1="401.897" y1="-202.06" x2="401.897" y2="-202.527" gradientTransform="matrix(1 0 0 -1 -285 -129)"><stop offset="0" stop-color="#6B9498"/><stop offset=".164" stop-color="#5B898D"/><stop offset=".428" stop-color="#497C80"/><stop offset=".702" stop-color="#3E7479"/><stop offset="1" stop-color="#3A7176"/></linearGradient><path fill="url(#o)" d="M116.86 73.06c.01.154.026.31.037.467.01-.156.026-.31.035-.466h-.07z"/><linearGradient id="p" gradientUnits="userSpaceOnUse" x1="386.573" y1="-171.255" x2="386.573" y2="-171.892" gradientTransform="matrix(1 0 0 -1 -285 -129)"><stop offset="0" stop-color="#6B9498"/><stop offset=".164" stop-color="#5B898D"/><stop offset=".428" stop-color="#497C80"/><stop offset=".702" stop-color="#3E7479"/><stop offset="1" stop-color="#3A7176"/></linearGradient><path fill="url(#p)" d="M101.575 42.255c-.016.213-.032.425-.05.637.033 0 .064-.003.096-.004-.01-.21-.03-.42-.044-.633z"/><linearGradient id="q" gradientUnits="userSpaceOnUse" x1="545.762" y1="-171.255" x2="545.762" y2="-171.892" gradientTransform="matrix(1 0 0 -1 -285 -129)"><stop offset="0" stop-color="#6B9498"/><stop offset=".164" stop-color="#5B898D"/><stop offset=".428" stop-color="#497C80"/><stop offset=".702" stop-color="#3E7479"/><stop offset="1" stop-color="#3A7176"/></linearGradient><path fill="url(#q)" d="M260.764 42.255c-.016.213-.03.425-.05.637.033 0 .063-.003.097-.004-.01-.21-.032-.42-.045-.633z"/><linearGradient id="r" gradientUnits="userSpaceOnUse" x1="417.272" y1="-184.412" x2="417.272" y2="-192.797" gradientTransform="matrix(1 0 0 -1 -285 -129)"><stop offset="0" stop-color="#6B9498"/><stop offset=".164" stop-color="#5B898D"/><stop offset=".428" stop-color="#497C80"/><stop offset=".702" stop-color="#3E7479"/><stop offset="1" stop-color="#3A7176"/></linearGradient><path fill="url(#r)" d="M106.33 63.797s22.91-18.867 51.885 0"/><linearGradient id="s" gradientUnits="userSpaceOnUse" x1="416.528" y1="-167.904" x2="416.528" y2="-206.631" gradientTransform="matrix(1 0 0 -1 -285 -129)"><stop offset="0" stop-color="#6B9498"/><stop offset=".164" stop-color="#5B898D"/><stop offset=".428" stop-color="#497C80"/><stop offset=".702" stop-color="#3E7479"/><stop offset="1" stop-color="#3A7176"/></linearGradient><path fill="url(#s)" d="M149.206 77.63c-17.387-11.322-30.198-2.754-32.59-.92l.21-.17-20.99-25.486c1.434-1.18 9.214-7.23 21.533-10.338 11.72-2.957 29.885-3.754 49.852 9.248L149.206 77.63z"/><linearGradient id="t" gradientUnits="userSpaceOnUse" x1="416.528" y1="-167.904" x2="416.528" y2="-190.498" gradientTransform="matrix(1 0 0 -1 -285 -129)"><stop offset="0" stop-color="#9CB8BB"/><stop offset=".411" stop-color="#6E969A"/><stop offset=".797" stop-color="#487B80"/><stop offset="1" stop-color="#3A7176"/></linearGradient><path fill="url(#t)" d="M117.37 40.716c-12.32 3.107-20.1 9.157-21.535 10.338l8.602 10.444c14.97-13.577 40.16-14.485 56.032-1.165l6.752-10.37c-19.967-13.002-38.13-12.204-49.854-9.247z"/><linearGradient id="u" gradientUnits="userSpaceOnUse" x1="341.426" y1="-133.935" x2="341.426" y2="-262.862" gradientTransform="matrix(1 0 0 -1 -285 -129)"><stop offset="0" stop-color="#6B9498"/><stop offset=".164" stop-color="#5B898D"/><stop offset=".428" stop-color="#497C80"/><stop offset=".702" stop-color="#3E7479"/><stop offset="1" stop-color="#3A7176"/></linearGradient><path fill="url(#u)" d="M52.58 4.936C28.268 4.936 7.11 18.4-3.872 38.27c.006 9.92-.09 19.838-.32 29.754.56 9.616.93 19.238 1.18 28.863.078 1.836.147 3.672.215 5.51C8.455 121.237 29.04 133.86 52.58 133.86c35.602 0 64.462-28.86 64.462-64.463 0-35.604-28.86-64.464-64.462-64.464z"/><linearGradient id="v" gradientUnits="userSpaceOnUse" x1="337.58" y1="-251.069" x2="337.58" y2="-152.804" gradientTransform="matrix(1 0 0 -1 -285 -129)"><stop offset="0" stop-color="#CEDBDD"/><stop offset=".408" stop-color="#CCD9DB"/><stop offset=".629" stop-color="#C4D4D6"/><stop offset=".806" stop-color="#B6CACD"/><stop offset=".958" stop-color="#A3BDC0"/><stop offset="1" stop-color="#9CB8BB"/></linearGradient><circle fill="url(#v)" cx="52.58" cy="72.937" r="49.133"/><linearGradient id="w" gradientUnits="userSpaceOnUse" x1="337.579" y1="-251.207" x2="337.579" y2="-198.977" gradientTransform="matrix(1 0 0 -1 -285 -129)"><stop offset="0" stop-color="#9CB8BB"/><stop offset=".27" stop-color="#A8C0C3"/><stop offset=".751" stop-color="#C6D6D8"/><stop offset=".859" stop-color="#CEDBDD"/></linearGradient><path fill="url(#w)" d="M101.525 70.014c-2.11 25.19-23.21 44.078-48.946 44.078-25.938 0-47.165-19.115-48.993-44.115H3.58c-.08 1-.135 2.068-.135 3.236 0 27.137 21.998 48.995 49.133 48.995 27.134 0 49.132-22.066 49.132-49.203 0-.975-.037-1.984-.092-2.96-.032 0-.063-.032-.095-.03z"/><path stroke="#04272A" stroke-width="9" stroke-linecap="round" stroke-linejoin="round" stroke-miterlimit="10" d="M29.783 82.96s-1.18-29.48 21.42-29.48S72.65 82.96 72.65 82.96" fill="none"/><linearGradient id="x" gradientUnits="userSpaceOnUse" x1="495.997" y1="-133.935" x2="495.997" y2="-262.861" gradientTransform="matrix(1 0 0 -1 -285 -129)"><stop offset="0" stop-color="#6B9498"/><stop offset=".164" stop-color="#5B898D"/><stop offset=".428" stop-color="#497C80"/><stop offset=".702" stop-color="#3E7479"/><stop offset="1" stop-color="#3A7176"/></linearGradient><path fill="url(#x)" d="M274.688 77.944c-.006-7.928-.162-15.843-.275-23.75-6.836-28.262-32.28-49.26-62.643-49.26-35.603 0-64.46 28.862-64.46 64.463 0 35.6 28.857 64.463 64.46 64.463 30.754 0 56.46-21.542 62.896-50.354.014-1.853.022-3.707.022-5.562z"/><linearGradient id="y" gradientUnits="userSpaceOnUse" x1="496.771" y1="-251.069" x2="496.771" y2="-152.804" gradientTransform="matrix(1 0 0 -1 -285 -129)"><stop offset="0" stop-color="#CEDBDD"/><stop offset=".408" stop-color="#CCD9DB"/><stop offset=".629" stop-color="#C4D4D6"/><stop offset=".806" stop-color="#B6CACD"/><stop offset=".958" stop-color="#A3BDC0"/><stop offset="1" stop-color="#9CB8BB"/></linearGradient><circle fill="url(#y)" cx="211.77" cy="72.937" r="49.133"/><linearGradient id="z" gradientUnits="userSpaceOnUse" x1="495.926" y1="-133.916" x2="495.926" y2="-201.977" gradientTransform="matrix(1 0 0 -1 -285 -129)"><stop offset="0" stop-color="#9CB8BB"/><stop offset=".072" stop-color="#8BACAF"/><stop offset=".222" stop-color="#6E979A"/><stop offset=".382" stop-color="#57868A"/><stop offset=".554" stop-color="#477A7F"/><stop offset=".746" stop-color="#3D7378"/><stop offset="1" stop-color="#3A7176"/></linearGradient><path fill="url(#z)" d="M274.41 54.15c-6.837-28.255-32.28-49.235-62.643-49.235-35.602 0-64.46 28.872-64.46 64.473 0 .972.028 1.94.07 2.9.056-.003.112-.02.167-.024 2.73-33.088 30.43-59.114 64.223-59.114 30.592 0 56.178 21.652 62.778 49.976-.043-2.995-.092-5.985-.135-8.976z"/><linearGradient id="A" gradientUnits="userSpaceOnUse" x1="496.771" y1="-251.207" x2="496.771" y2="-198.977" gradientTransform="matrix(1 0 0 -1 -285 -129)"><stop offset="0" stop-color="#9CB8BB"/><stop offset=".27" stop-color="#A8C0C3"/><stop offset=".751" stop-color="#C6D6D8"/><stop offset=".859" stop-color="#CEDBDD"/></linearGradient><path fill="url(#A)" d="M260.715 70.014c-2.11 25.19-23.21 44.078-48.945 44.078-25.937 0-47.164-19.115-48.99-44.115h-.008c-.08 1-.135 2.068-.135 3.236 0 27.137 21.996 48.995 49.133 48.995 27.135 0 49.133-22.066 49.133-49.203 0-.975-.036-1.984-.092-2.96-.032 0-.062-.032-.094-.03z"/><path stroke="#04272A" stroke-width="9" stroke-linecap="round" stroke-linejoin="round" stroke-miterlimit="10" d="M188.973 82.96s-1.18-29.48 21.422-29.48c22.6 0 21.442 29.48 21.442 29.48" fill="none"/><linearGradient id="B" gradientUnits="userSpaceOnUse" x1="406.846" y1="-200.356" x2="406.846" y2="-262.861" gradientTransform="matrix(1 0 0 -1 -285 -129)"><stop offset="0" stop-color="#FFF050"/><stop offset=".232" stop-color="#FFE550"/><stop offset=".651" stop-color="#FFD650"/><stop offset="1" stop-color="#FFD150"/></linearGradient><path fill="url(#B)" d="M138.092 72.673c-10.264-3.09-26.152-3-31.76 26.204-4.423 24.47 12.675 34.983 12.675 34.983s-.57-13.17 9.682-19.896c-9.97-12.66-6.293-33.804 9.4-41.29z"/><path opacity=".6" fill="#fff" enable-background="new" d="M113.11 95.34c4.718-10.612 20.047-1.18 27.123-9.434 5.29-5.287 2.345-11.055-2.932-13.9-10.27-2.818-25.5-1.596-30.97 26.87-4.42 24.47 12.678 34.984 12.678 34.984s-.025-.73.054-1.92c-1.955-1.98-3.78-3.96-4.77-5.942-4.717-9.433-5.896-21.225-1.18-30.657z"/><linearGradient id="C" gradientUnits="userSpaceOnUse" x1="341.574" y1="-133.915" x2="341.574" y2="-201.977" gradientTransform="matrix(1 0 0 -1 -285 -129)"><stop offset="0" stop-color="#9CB8BB"/><stop offset=".072" stop-color="#8BACAF"/><stop offset=".222" stop-color="#6E979A"/><stop offset=".382" stop-color="#57868A"/><stop offset=".554" stop-color="#477A7F"/><stop offset=".746" stop-color="#3D7378"/><stop offset="1" stop-color="#3A7176"/></linearGradient><path fill="url(#C)" d="M52.58 4.915c-24.312 0-45.47 13.468-56.452 33.343.002 2.766-.005 5.53-.02 8.297C7.072 26.645 28.245 13.15 52.58 13.15c34.054 0 61.923 26.826 64.28 59.826h.07c.07-1 .11-2.39.11-3.62.002-35.602-28.86-64.44-64.46-64.44z"/></svg>