<svg xmlns="http://www.w3.org/2000/svg" xmlns:xlink="http://www.w3.org/1999/xlink" width="150" height="230" viewBox="0 0 150 230"><path fill="#414141" d="M32.494 90.875L.952 33.333s-3-3.833 1.167-6.5 47.5-26 47.5-26 3.5-2.167 6.332 2.333 46.333 86.5 46.333 86.5 2.667 3.833-2 6.5C95.62 98.833 82.952 106.5 82.952 106.5L32.494 90.875z"/><path opacity=".15" fill="#fff" d="M10.325 50.263c17.772-11.215 36.95-19.967 56.906-26.56-5.86-10.927-10.34-19.19-11.186-20.536C53.21-1.333 49.71.834 49.71.834s-43.333 23.333-47.5 26-1.166 6.5-1.166 6.5l9.28 16.93z"/><defs><path id="a" d="M59.62 17.875L92.87 79l-49 25.5-32.75-60.625z"/></defs><clipPath><use xlink:href="#a" overflow="visible"/></clipPath><linearGradient id="b" gradientUnits="userSpaceOnUse" x1="72.531" y1="61.584" x2="72.531" y2="230" gradientTransform="matrix(-1 0 0 1 149.619 0)"><stop offset="0" stop-color="#8ED745"/><stop offset="1" stop-color="#579B11"/></linearGradient><path fill="url(#b)" d="M149.62 230s4.282-85.01-45.718-114.5C67.738 93.87 32.494 90.875 32.494 90.875L16.438 61.583S-.816 74.88 6.103 91.86 27.8 109.755 49.5 111.64s61.95 14.95 73.584 46.397S137.55 208 135.978 230h13.64z"/><linearGradient id="c" gradientUnits="userSpaceOnUse" x1="78.592" y1="87.508" x2="78.592" y2="231" gradientTransform="matrix(-1 0 0 1 149.619 0)"><stop offset="0" stop-color="#6AA93D"/><stop offset=".395" stop-color="#548D28"/><stop offset=".742" stop-color="#467C1B"/><stop offset="1" stop-color="#417616"/></linearGradient><path fill="url(#c)" d="M4.82 87.507S7.62 103 37.37 106.75c23.784 2.998 60.25 9.5 82.255 42.28C143.98 185.31 135.978 231 135.978 231H125.62s7.843-41.468-14.8-74.172S56.5 117.228 36.12 115C6.37 111.75 6.556 93.328 4.82 87.507z"/><linearGradient id="d" gradientUnits="userSpaceOnUse" x1="123.297" y1="74.495" x2="123.297" y2="90.876" gradientTransform="matrix(-1 0 0 1 149.619 0)"><stop offset="0" stop-color="#6AA93D"/><stop offset=".395" stop-color="#548D28"/><stop offset=".742" stop-color="#467C1B"/><stop offset="1" stop-color="#417616"/></linearGradient><path fill="url(#d)" d="M23.515 74.495s-6.032 5.8-1.938 11.448c2.75 3.792 10.917 4.933 10.917 4.933l-8.98-16.38z"/></svg>